<?xml version="1.0" encoding="UTF-8" standalone="no"?>
<!-- Created with Inkscape (http://www.inkscape.org/) -->

<svg
   xmlns:dc="http://purl.org/dc/elements/1.1/"
   xmlns:cc="http://creativecommons.org/ns#"
   xmlns:rdf="http://www.w3.org/1999/02/22-rdf-syntax-ns#"
   xmlns:svg="http://www.w3.org/2000/svg"
   xmlns="http://www.w3.org/2000/svg"
   xmlns:sodipodi="http://sodipodi.sourceforge.net/DTD/sodipodi-0.dtd"
   xmlns:inkscape="http://www.inkscape.org/namespaces/inkscape"
   id="svg7384"
   version="1.1"
   inkscape:version="0.48.3.1 r9886"
   height="16"
   sodipodi:docname="user-trash-symbolic.svg"
   width="16.000002">
  <metadata
     id="metadata90">
    <rdf:RDF>
      <cc:Work
         rdf:about="">
        <dc:format>image/svg+xml</dc:format>
        <dc:type
           rdf:resource="http://purl.org/dc/dcmitype/StillImage" />
        <dc:title>Gnome Symbolic Icon Theme</dc:title>
      </cc:Work>
    </rdf:RDF>
  </metadata>
  <sodipodi:namedview
     inkscape:cy="7.1372947"
     inkscape:current-layer="layer13"
     inkscape:window-width="1920"
     pagecolor="#555753"
     showborder="true"
     showguides="true"
     inkscape:snap-nodes="true"
     objecttolerance="10"
     showgrid="true"
     inkscape:object-nodes="true"
     inkscape:pageshadow="2"
     inkscape:guide-bbox="true"
     inkscape:window-x="0"
     inkscape:snap-bbox="true"
     bordercolor="#666666"
     id="namedview88"
     inkscape:window-maximized="1"
     inkscape:snap-global="true"
     inkscape:window-y="24"
     gridtolerance="10"
     inkscape:zoom="38.141077"
     inkscape:window-height="1029"
     borderopacity="1"
     guidetolerance="10"
     inkscape:cx="11.788143"
     inkscape:bbox-paths="false"
     inkscape:snap-grids="true"
     inkscape:pageopacity="1"
     inkscape:snap-to-guides="true">
    <inkscape:grid
       visible="true"
       spacingx="1px"
       type="xygrid"
       spacingy="1px"
       id="grid4866"
       empspacing="2"
       enabled="true"
       snapvisiblegridlinesonly="true" />
  </sodipodi:namedview>
  <title
     id="title9167">Gnome Symbolic Icon Theme</title>
  <defs
     id="defs7386" />
  <g
     transform="translate(-482,-176)"
     inkscape:groupmode="layer"
     id="layer9"
     inkscape:label="status"
     style="display:inline" />
  <g
     transform="translate(-482,-176)"
     inkscape:groupmode="layer"
     id="layer10"
     inkscape:label="devices" />
  <g
     transform="translate(-482,-176)"
     inkscape:groupmode="layer"
     id="layer11"
     inkscape:label="apps" />
  <g
     transform="translate(-482,-176)"
     inkscape:groupmode="layer"
     id="layer12"
     inkscape:label="actions" />
  <g
     transform="translate(-482,-176)"
     inkscape:groupmode="layer"
     id="layer13"
     inkscape:label="places">
    <g
       transform="translate(254.0002,-820)"
       id="g40072"
       inkscape:label="folder-remote" />
    <path
       style="color:#000000;fill:#bebebe;fill-opacity:1;fill-rule:nonzero;stroke:none;stroke-width:1.5;marker:none;visibility:visible;display:inline;overflow:visible;enable-background:accumulate"
       d="M 6 0 C 5.446 0 5 0.446 5 1 L 5 2 L 1 2 C 0.446 2 0 2.446 0 3 L 0 4 L 15 4 L 15 3 C 15 2.446 14.554 2 14 2 L 10 2 L 10 1 C 10 0.446 9.554 0 9 0 L 6 0 z M 6 1 L 9 1 L 9 2 L 6 2 L 6 1 z M 1 5 L 1 14 C 1 15.108 1.892 16 3 16 L 12 16 C 13.108 16 13.86257 15.09944 14 14 L 14 5 L 12 5 L 12 13 C 12 13.554 11.554 14 11 14 L 4 14 C 3.446 14 3 13.554 3 13 L 3 5 L 1 5 z M 4 5 L 4 11.5 C 4 11.777 4.223 12 4.5 12 C 4.777 12 5 11.777 5 11.5 L 5 5 L 4 5 z M 6 5 L 6 11.5 C 6 11.777 6.223 12 6.5 12 C 6.777 12 7 11.777 7 11.5 L 7 5 L 6 5 z M 8 5 L 8 11.5 C 8 11.777 8.223 12 8.5 12 C 8.777 12 9 11.777 9 11.5 L 9 5 L 8 5 z M 10 5 L 10 11.5 C 10 11.777 10.223 12 10.5 12 C 10.777 12 11 11.777 11 11.5 L 11 5 L 10 5 z "
       transform="translate(482,176)"
       id="rect2993" />
  </g>
  <g
     transform="translate(-482,-176)"
     inkscape:groupmode="layer"
     id="layer14"
     inkscape:label="mimetypes" />
  <g
     transform="translate(-482,-176)"
     inkscape:groupmode="layer"
     id="layer15"
     inkscape:label="emblems"
     style="display:inline" />
</svg>
