<?xml version="1.0" encoding="UTF-8" standalone="no"?>
<!-- Created with Inkscape (http://www.inkscape.org/) -->

<svg
   xmlns:dc="http://purl.org/dc/elements/1.1/"
   xmlns:cc="http://creativecommons.org/ns#"
   xmlns:rdf="http://www.w3.org/1999/02/22-rdf-syntax-ns#"
   xmlns:svg="http://www.w3.org/2000/svg"
   xmlns="http://www.w3.org/2000/svg"
   xmlns:xlink="http://www.w3.org/1999/xlink"
   xmlns:sodipodi="http://sodipodi.sourceforge.net/DTD/sodipodi-0.dtd"
   xmlns:inkscape="http://www.inkscape.org/namespaces/inkscape"
   id="svg2"
   version="1.1"
   inkscape:version="0.91 r13725"
   width="64"
   height="64"
   sodipodi:docname="folder-saved-search.svg"
   inkscape:export-filename="/home/steffen/.icons/Concrete4/places/48/folder.png"
   inkscape:export-xdpi="90"
   inkscape:export-ydpi="90">
  <metadata
     id="metadata8">
    <rdf:RDF>
      <cc:Work
         rdf:about="">
        <dc:format>image/svg+xml</dc:format>
        <dc:type
           rdf:resource="http://purl.org/dc/dcmitype/StillImage" />
        <dc:title />
      </cc:Work>
    </rdf:RDF>
  </metadata>
  <defs
     id="defs6">
    <linearGradient
       inkscape:collect="always"
       id="linearGradient4281">
      <stop
         style="stop-color:#000000;stop-opacity:0.60784316"
         offset="0"
         id="stop4283" />
      <stop
         style="stop-color:#000000;stop-opacity:0.627451"
         offset="1"
         id="stop4285" />
    </linearGradient>
    <linearGradient
       inkscape:collect="always"
       id="linearGradient3930">
      <stop
         style="stop-color:#ffffff;stop-opacity:1;"
         offset="0"
         id="stop3932" />
      <stop
         style="stop-color:#ffffff;stop-opacity:0;"
         offset="1"
         id="stop3934" />
    </linearGradient>
    <linearGradient
       inkscape:collect="always"
       id="linearGradient3829">
      <stop
         style="stop-color:#000000;stop-opacity:1;"
         offset="0"
         id="stop3831" />
      <stop
         style="stop-color:#000000;stop-opacity:0;"
         offset="1"
         id="stop3833" />
    </linearGradient>
    <linearGradient
       inkscape:collect="always"
       xlink:href="#linearGradient3927-9"
       id="linearGradient3933"
       x1="25"
       y1="16"
       x2="25"
       y2="39"
       gradientUnits="userSpaceOnUse"
       gradientTransform="matrix(1.5675677,0,0,1.5652173,-4.8378383,-24.043479)" />
    <linearGradient
       inkscape:collect="always"
       xlink:href="#linearGradient3789"
       id="linearGradient3965"
       x1="25"
       y1="27"
       x2="25"
       y2="52"
       gradientUnits="userSpaceOnUse"
       gradientTransform="matrix(1.5384615,0,0,1.52,-8.7692311,-41.040001)" />
    <linearGradient
       inkscape:collect="always"
       xlink:href="#linearGradient4281"
       id="linearGradient3794"
       x1="23.5"
       y1="10.775"
       x2="23.5"
       y2="13.1"
       gradientUnits="userSpaceOnUse"
       gradientTransform="matrix(1.3777778,0,0,1.2903226,-0.37777748,-13.903226)" />
    <linearGradient
       inkscape:collect="always"
       xlink:href="#linearGradient3829"
       id="linearGradient3835"
       x1="22"
       y1="11"
       x2="22"
       y2="9"
       gradientUnits="userSpaceOnUse"
       gradientTransform="matrix(1.4,0,0,1,-1.6,-12)" />
    <linearGradient
       inkscape:collect="always"
       xlink:href="#linearGradient3930"
       id="linearGradient3936"
       x1="5"
       y1="-4"
       x2="9"
       y2="-4"
       gradientUnits="userSpaceOnUse" />
    <linearGradient
       inkscape:collect="always"
       id="linearGradient3930-4">
      <stop
         style="stop-color:#ffffff;stop-opacity:1;"
         offset="0"
         id="stop3932-3" />
      <stop
         style="stop-color:#ffffff;stop-opacity:0;"
         offset="1"
         id="stop3934-8" />
    </linearGradient>
    <linearGradient
       gradientTransform="matrix(-1,0,0,1,64,5.0000001e-8)"
       y2="-4"
       x2="37"
       y1="-4"
       x1="33"
       gradientUnits="userSpaceOnUse"
       id="linearGradient3953"
       xlink:href="#linearGradient3930-4"
       inkscape:collect="always" />
    <linearGradient
       id="linearGradient3789">
      <stop
         style="stop-color:#ffbc87;stop-opacity:1;"
         offset="0"
         id="stop3791" />
      <stop
         style="stop-color:#e86800;stop-opacity:1;"
         offset="1"
         id="stop3793" />
    </linearGradient>
    <linearGradient
       id="linearGradient3927-9">
      <stop
         id="stop3929-2"
         offset="0"
         style="stop-color:#ff923b;stop-opacity:1;" />
      <stop
         id="stop3931-3"
         offset="1"
         style="stop-color:#f86f00;stop-opacity:1;" />
    </linearGradient>
    <linearGradient
       id="linearGradient3782">
      <stop
         id="stop3784"
         offset="0"
         style="stop-color:#ffffff;stop-opacity:1;" />
      <stop
         id="stop3786"
         offset="1"
         style="stop-color:#e4e5e7;stop-opacity:1;" />
    </linearGradient>
    <linearGradient
       id="linearGradient3927">
      <stop
         style="stop-color:#f1f2f3;stop-opacity:1;"
         offset="0"
         id="stop3929" />
      <stop
         style="stop-color:#e4e5e7;stop-opacity:1;"
         offset="1"
         id="stop3931" />
    </linearGradient>
    <radialGradient
       inkscape:collect="always"
       xlink:href="#linearGradient4303"
       id="radialGradient4309"
       cx="31"
       cy="52.599998"
       fx="31"
       fy="52.599998"
       r="31"
       gradientTransform="matrix(1.3157302,0,0,0.06451598,-8.7876397,35.606454)"
       gradientUnits="userSpaceOnUse" />
    <linearGradient
       inkscape:collect="always"
       id="linearGradient4303">
      <stop
         style="stop-color:#000000;stop-opacity:0.19018404"
         offset="0"
         id="stop4305" />
      <stop
         id="stop4311"
         offset="0.74412525"
         style="stop-color:#000000;stop-opacity:0.05882353" />
      <stop
         style="stop-color:#000000;stop-opacity:0;"
         offset="1"
         id="stop4307" />
    </linearGradient>
  </defs>
  <sodipodi:namedview
     pagecolor="#ffffff"
     bordercolor="#666666"
     borderopacity="1"
     objecttolerance="10"
     gridtolerance="10"
     guidetolerance="10"
     inkscape:pageopacity="0"
     inkscape:pageshadow="2"
     inkscape:window-width="1366"
     inkscape:window-height="718"
     id="namedview4"
     showgrid="true"
     inkscape:snap-bbox="true"
     inkscape:zoom="22.627417"
     inkscape:cx="34.585593"
     inkscape:cy="1.1373349"
     inkscape:window-x="0"
     inkscape:window-y="25"
     inkscape:window-maximized="1"
     inkscape:current-layer="g4075"
     showguides="false"
     inkscape:guide-bbox="true"
     inkscape:bbox-paths="true"
     inkscape:bbox-nodes="true">
    <inkscape:grid
       type="xygrid"
       id="grid2987"
       empspacing="5"
       visible="true"
       enabled="true"
       snapvisiblegridlinesonly="true" />
    <sodipodi:guide
       orientation="0,1"
       position="32,39"
       id="guide3093" />
    <sodipodi:guide
       orientation="0,1"
       position="32,17"
       id="guide3095" />
    <sodipodi:guide
       orientation="0,1"
       position="32,28"
       id="guide3097" />
    <sodipodi:guide
       orientation="1,0"
       position="43,28"
       id="guide3099" />
    <sodipodi:guide
       orientation="1,0"
       position="21,28"
       id="guide3101" />
  </sodipodi:namedview>
  <g
     inkscape:groupmode="layer"
     id="layer4"
     inkscape:label="Ebene#1"
     style="display:inline"
     transform="translate(0,16)">
    <g
       id="g4075"
       transform="translate(0,1)">
      <ellipse
         id="path4293"
         style="display:inline;opacity:1;fill:url(#radialGradient4309);fill-opacity:1;stroke:none;stroke-width:1.20000005;stroke-linecap:butt;stroke-linejoin:miter;stroke-miterlimit:4;stroke-dasharray:none;stroke-dashoffset:0;stroke-opacity:1"
         ry="2"
         rx="31"
         cy="39"
         cx="32" />
      <path
         style="fill:#000000;fill-opacity:0.65882355;stroke:#000000;stroke-width:0;stroke-miterlimit:4;stroke-opacity:1;stroke-dasharray:none"
         d="M 10 7 C 8.892 7 8 7.892 8 9 L 8 11 L 6 11 C 4.892 11 4 11.892 4 13 L 4 23 C 4 24.108 4.892 25 6 25 L 58 25 C 59.108 25 60 24.108 60 23 L 60 13 C 60 11.892 59.108 11 58 11 L 28 11 L 28 9 C 28 7.892 27.108 7 26 7 L 10 7 z "
         transform="translate(0,-17)"
         id="rect3967" />
      <path
         style="fill:#8b8b8d;fill-opacity:1;stroke:#000000;stroke-width:0;stroke-miterlimit:4;stroke-opacity:1;stroke-dasharray:none"
         d="M 10 8 C 9.4795638 8 9 8.4597303 9 9 L 9 12 L 6 12 C 5.446 12 5 12.446 5 13 L 5 23 C 5 23.554 5.446 24 6 24 L 58 24 C 58.554 24 59 23.554 59 23 L 59 13 C 59 12.446 58.554 12 58 12 L 27 12 L 27 9 C 27 8.4508353 26.512693 8 26 8 L 10 8 z "
         transform="translate(0,-17)"
         id="rect3969" />
      <rect
         ry="2"
         rx="2"
         y="-1"
         x="1"
         height="40"
         width="62"
         id="rect3915"
         style="fill:url(#linearGradient3794);fill-opacity:1.0;stroke:#000000;stroke-width:0;stroke-miterlimit:4;stroke-opacity:1;stroke-dasharray:none" />
      <rect
         ry="1"
         y="0"
         x="2"
         height="38"
         width="60"
         id="rect3957"
         style="fill:url(#linearGradient3965);fill-opacity:1.0;stroke:#000000;stroke-width:0;stroke-miterlimit:4;stroke-opacity:1;stroke-dasharray:none"
         rx="1" />
      <rect
         ry="0"
         rx="0"
         y="1"
         x="3"
         height="36"
         width="58"
         id="rect3925"
         style="fill:url(#linearGradient3933);fill-opacity:1.0;stroke:#000000;stroke-width:0;stroke-miterlimit:4;stroke-opacity:1;stroke-dasharray:none" />
      <rect
         style="opacity:0.17300002;fill:url(#linearGradient3835);fill-opacity:1;stroke:#102b68;stroke-width:0;stroke-linecap:butt;stroke-linejoin:miter;stroke-miterlimit:4;stroke-opacity:1;stroke-dasharray:none;stroke-dashoffset:0"
         id="rect3827"
         width="56"
         height="2"
         x="4"
         y="-3"
         ry="0" />
      <path
         style="opacity:0.14999999999999999;fill:#ffffff;fill-opacity:1;stroke:#767779;stroke-width:0;stroke-linecap:butt;stroke-linejoin:miter;stroke-miterlimit:4;stroke-opacity:1;stroke-dasharray:none;stroke-dashoffset:0"
         d="m 10,-9 c -0.554,0 -1,0.446 -1,1 l 0,1 c 0,-0.554 0.446,-1 1,-1 l 16,0 c 0.554,0 1,0.446 1,1 l 0,-1 c 0,-0.554 -0.446,-1 -1,-1 l -16,0 z"
         id="rect3891"
         inkscape:connector-curvature="0" />
      <path
         style="opacity:0.14999999999999999;fill:url(#linearGradient3936);fill-opacity:1;stroke:#767779;stroke-width:0;stroke-linecap:butt;stroke-linejoin:miter;stroke-miterlimit:4;stroke-opacity:1;stroke-dasharray:none;stroke-dashoffset:0;display:inline"
         d="m 6,-5 c -0.554,0 -1,0.446 -1,1 l 0,1 c 0,-0.554 0.446,-1 1,-1 l 3,0 0,-1 z"
         id="rect3891-8"
         inkscape:connector-curvature="0"
         sodipodi:nodetypes="sscsccs" />
      <path
         style="opacity:0.14999999999999999;fill:url(#linearGradient3953);fill-opacity:1;stroke:#767779;stroke-width:0;stroke-linecap:butt;stroke-linejoin:miter;stroke-miterlimit:4;stroke-opacity:1;stroke-dasharray:none;stroke-dashoffset:0;display:inline"
         d="m 58,-5 c 0.554,0 1,0.446 1,1 l 0,1 c 0,-0.554 -0.446,-1 -1,-1 l -31,0 0,-1 z"
         id="rect3891-8-7"
         inkscape:connector-curvature="0"
         sodipodi:nodetypes="sscsccs" />
      <path
         inkscape:connector-curvature="0"
         id="path3820-71-3"
         d="m 34.5293,10.999686 c -1.657424,0 -3.309296,0.637836 -4.57387,1.902411 -2.226517,2.226515 -2.503222,5.658342 -0.809538,8.176306 -0.0389,0.0291 -0.08489,0.04743 -0.121455,0.08094 l -6.678666,6.111993 c -0.52866,0.485208 -0.224064,1.597392 0.283337,2.104792 0.5074,0.507399 1.619582,0.811995 2.104791,0.283335 l 6.111993,-6.678665 c 0.03354,-0.03652 0.05185,-0.08253 0.08094,-0.121459 2.517964,1.693686 5.949789,1.416985 8.176305,-0.809532 2.529147,-2.529148 2.529147,-6.618604 0,-9.147752 -1.264572,-1.264571 -2.916445,-1.902408 -4.573874,-1.902408 z m 0,2.590513 c 0.994457,0 1.993681,0.374606 2.752426,1.133353 1.517482,1.517486 1.517482,3.987352 0,5.504835 -1.517493,1.517494 -3.987354,1.517494 -5.504844,0 -1.517486,-1.517483 -1.517486,-3.987349 0,-5.504835 0.758742,-0.758747 1.757965,-1.133353 2.752418,-1.133353 z"
         style="display:inline;fill:#ffffff;fill-opacity:1;stroke:#474f56;stroke-width:0;stroke-linecap:butt;stroke-linejoin:miter;stroke-miterlimit:4;stroke-dasharray:none;stroke-dashoffset:0;stroke-opacity:1;opacity:0.4" />
      <path
         inkscape:connector-curvature="0"
         id="path3820-71"
         d="m 34.5293,10.000044 c -1.657424,0 -3.309296,0.637836 -4.57387,1.902411 -2.226517,2.226515 -2.503222,5.658342 -0.809538,8.176306 -0.0389,0.0291 -0.08489,0.04743 -0.121455,0.08094 l -6.678666,6.111993 c -0.52866,0.485208 -0.224064,1.597392 0.283337,2.104792 0.5074,0.507399 1.619582,0.811995 2.104791,0.283335 l 6.111993,-6.678665 c 0.03354,-0.03652 0.05185,-0.08253 0.08094,-0.121459 2.517964,1.693686 5.949789,1.416985 8.176305,-0.809532 2.529147,-2.529148 2.529147,-6.618604 0,-9.147752 -1.264572,-1.264571 -2.916445,-1.902408 -4.573874,-1.902408 z m 0,2.590513 c 0.994457,0 1.993681,0.374606 2.752426,1.133353 1.517482,1.517486 1.517482,3.987352 0,5.504835 -1.517493,1.517494 -3.987354,1.517494 -5.504844,0 -1.517486,-1.517483 -1.517486,-3.987349 0,-5.504835 0.758742,-0.758747 1.757965,-1.133353 2.752418,-1.133353 z"
         style="display:inline;fill:#aa4c00;fill-opacity:1;stroke:#474f56;stroke-width:0;stroke-linecap:butt;stroke-linejoin:miter;stroke-miterlimit:4;stroke-dasharray:none;stroke-dashoffset:0;stroke-opacity:1" />
    </g>
  </g>
</svg>
