<?xml version="1.0" encoding="UTF-8" standalone="no"?>
<!-- Created with Inkscape (http://www.inkscape.org/) -->

<svg
   xmlns:dc="http://purl.org/dc/elements/1.1/"
   xmlns:cc="http://creativecommons.org/ns#"
   xmlns:rdf="http://www.w3.org/1999/02/22-rdf-syntax-ns#"
   xmlns:svg="http://www.w3.org/2000/svg"
   xmlns="http://www.w3.org/2000/svg"
   xmlns:xlink="http://www.w3.org/1999/xlink"
   xmlns:sodipodi="http://sodipodi.sourceforge.net/DTD/sodipodi-0.dtd"
   xmlns:inkscape="http://www.inkscape.org/namespaces/inkscape"
   width="48px"
   height="48px"
   id="svg4288"
   version="1.1"
   inkscape:version="0.91 r13725"
   sodipodi:docname="application-rss+xml.svg">
  <defs
     id="defs4290">
    <radialGradient
       inkscape:collect="always"
       xlink:href="#linearGradient4067-0-2"
       id="radialGradient4232"
       gradientUnits="userSpaceOnUse"
       gradientTransform="matrix(0,1.5560981,-1.8943345,1.7612124e-6,40.006765,-10.021638)"
       cx="7.4956832"
       cy="8.4497671"
       fx="7.4956832"
       fy="8.4497671"
       r="19.99999" />
    <linearGradient
       id="linearGradient4067-0-2">
      <stop
         style="stop-color:#ffe452;stop-opacity:1;"
         offset="0"
         id="stop4069-2-9" />
      <stop
         style="stop-color:#ffeb41;stop-opacity:0;"
         offset="1"
         id="stop4071-8-9" />
    </linearGradient>
    <radialGradient
       inkscape:collect="always"
       xlink:href="#linearGradient4644-104-3-3-6-2-0"
       id="radialGradient4088-6"
       gradientUnits="userSpaceOnUse"
       gradientTransform="matrix(1.6937599e-8,2.576353,-2.1552957,-4.7466256e-8,42.21184,-17.666585)"
       cx="7.4956832"
       cy="8.4497671"
       fx="7.4956832"
       fy="8.4497671"
       r="19.99999" />
    <linearGradient
       id="linearGradient4644-104-3-3-6-2-0">
      <stop
         offset="0"
         style="stop-color:#ff7a35;stop-opacity:1;"
         id="stop5237-6-5-1-7-8" />
      <stop
         offset="1"
         style="stop-color:#f0431a;stop-opacity:1;"
         id="stop5239-4-6-4-8-5" />
    </linearGradient>
    <radialGradient
       inkscape:collect="always"
       xlink:href="#linearGradient5060"
       id="radialGradient3327"
       gradientUnits="userSpaceOnUse"
       gradientTransform="matrix(0.02303995,0,0,0.01470022,26.360882,37.040176)"
       cx="605.71429"
       cy="486.64789"
       fx="605.71429"
       fy="486.64789"
       r="117.14286" />
    <linearGradient
       id="linearGradient5060">
      <stop
         id="stop5062"
         style="stop-color:#000000;stop-opacity:1"
         offset="0" />
      <stop
         id="stop5064"
         style="stop-color:#000000;stop-opacity:0"
         offset="1" />
    </linearGradient>
    <radialGradient
       inkscape:collect="always"
       xlink:href="#linearGradient5060"
       id="radialGradient3330"
       gradientUnits="userSpaceOnUse"
       gradientTransform="matrix(-0.02303994,0,0,0.01470022,21.62311,37.040176)"
       cx="605.71429"
       cy="486.64789"
       fx="605.71429"
       fy="486.64789"
       r="117.14286" />
    <linearGradient
       id="linearGradient5048">
      <stop
         id="stop5050"
         style="stop-color:#000000;stop-opacity:0"
         offset="0" />
      <stop
         id="stop5056"
         style="stop-color:#000000;stop-opacity:1"
         offset="0.5" />
      <stop
         id="stop5052"
         style="stop-color:#000000;stop-opacity:0"
         offset="1" />
    </linearGradient>
    <linearGradient
       y2="609.50507"
       x2="302.85715"
       y1="366.64789"
       x1="302.85715"
       gradientTransform="matrix(0.06732488,0,0,0.01470022,-0.3411391,37.040146)"
       gradientUnits="userSpaceOnUse"
       id="linearGradient4286"
       xlink:href="#linearGradient5048"
       inkscape:collect="always" />
    <linearGradient
       id="linearGradient3874">
      <stop
         id="stop3876"
         style="stop-color:#ffffff;stop-opacity:1"
         offset="0" />
      <stop
         id="stop3878"
         style="stop-color:#ffffff;stop-opacity:0.23529412"
         offset="0.04870163" />
      <stop
         offset="0.95031375"
         style="stop-color:#ffffff;stop-opacity:0"
         id="stop4275" />
      <stop
         id="stop3882"
         style="stop-color:#000000;stop-opacity:0.05882353"
         offset="1" />
    </linearGradient>
    <linearGradient
       y2="42.093876"
       x2="23.99999"
       y1="5.9417009"
       x1="23.99999"
       gradientTransform="matrix(0.89189189,0,0,1.1351351,2.5946,-4.743232)"
       gradientUnits="userSpaceOnUse"
       id="linearGradient3034-3-9"
       xlink:href="#linearGradient3874"
       inkscape:collect="always" />
  </defs>
  <sodipodi:namedview
     id="base"
     pagecolor="#ffffff"
     bordercolor="#666666"
     borderopacity="1.0"
     inkscape:pageopacity="0.0"
     inkscape:pageshadow="2"
     inkscape:zoom="3.5"
     inkscape:cx="13.398016"
     inkscape:cy="7.712485"
     inkscape:current-layer="layer1"
     showgrid="true"
     inkscape:grid-bbox="true"
     inkscape:document-units="px"
     inkscape:window-width="1366"
     inkscape:window-height="723"
     inkscape:window-x="0"
     inkscape:window-y="23"
     inkscape:window-maximized="1"
     inkscape:snap-bbox="true"
     inkscape:bbox-paths="true"
     inkscape:bbox-nodes="true"
     inkscape:snap-bbox-edge-midpoints="true">
    <inkscape:grid
       type="xygrid"
       id="grid4230" />
  </sodipodi:namedview>
  <metadata
     id="metadata4293">
    <rdf:RDF>
      <cc:Work
         rdf:about="">
        <dc:format>image/svg+xml</dc:format>
        <dc:type
           rdf:resource="http://purl.org/dc/dcmitype/StillImage" />
        <dc:title />
      </cc:Work>
    </rdf:RDF>
  </metadata>
  <g
     id="layer1"
     inkscape:label="Layer 1"
     inkscape:groupmode="layer">
    <rect
       style="opacity:0.3;fill:url(#linearGradient4286);fill-opacity:1;fill-rule:nonzero;stroke:none;stroke-width:1;marker:none;visibility:visible;display:inline;overflow:visible"
       id="rect2879"
       y="42.429947"
       x="7.7378473"
       height="3.5700529"
       width="32.508301" />
    <path
       inkscape:connector-curvature="0"
       style="opacity:0.3;fill:url(#radialGradient3330);fill-opacity:1;fill-rule:nonzero;stroke:none;stroke-width:1;marker:none;visibility:visible;display:inline;overflow:visible"
       id="path2881"
       d="m 7.7378475,42.430102 c 0,0 0,3.569856 0,3.569856 -1.1865002,0.0067 -2.8683795,-0.799823 -2.8683795,-1.785158 0,-0.985333 1.3240446,-1.784697 2.8683795,-1.784698 z" />
    <path
       inkscape:connector-curvature="0"
       style="opacity:0.3;fill:url(#radialGradient3327);fill-opacity:1;fill-rule:nonzero;stroke:none;stroke-width:1;marker:none;visibility:visible;display:inline;overflow:visible"
       id="path2883"
       d="m 40.246148,42.430102 c 0,0 0,3.569856 0,3.569856 1.1865,0.0067 2.86838,-0.799823 2.86838,-1.785158 0,-0.985333 -1.324045,-1.784697 -2.86838,-1.784698 z" />
    <path
       inkscape:connector-curvature="0"
       style="color:#000000;display:inline;overflow:visible;visibility:visible;fill:url(#radialGradient4088-6);fill-opacity:1;fill-rule:nonzero;stroke:none;stroke-width:1;stroke-linecap:round;stroke-linejoin:round;stroke-miterlimit:4;stroke-dasharray:none;stroke-dashoffset:0;stroke-opacity:1;marker:none;enable-background:accumulate"
       id="path4160"
       d="m 7,1.0000001 c 7.791126,0 33.99996,0.00274 33.99996,0.00274 L 41,44 C 41,44 18.333333,44 7,44 7,29.666665 7,15.333333 7,1 Z"
       sodipodi:nodetypes="ccccc" />
    <rect
       style="opacity:0.4;color:#000000;fill:url(#radialGradient4232);fill-opacity:1;fill-rule:nonzero;stroke:none;stroke-width:1;marker:none;visibility:visible;display:inline;overflow:visible;enable-background:accumulate"
       id="rect5505-2-6-47"
       y="1.0000001"
       x="7"
       ry="1"
       rx="1"
       height="43"
       width="34" />
    <path
       inkscape:connector-curvature="0"
       d="m 11.09493,37.352391 c 0,-0.460614 0.159027,-0.847313 0.477049,-1.160097 0.318042,-0.318445 0.707068,-0.477676 1.167078,-0.477688 0.448648,1.2e-5 0.829156,0.159243 1.141512,0.477688 0.318031,0.312784 0.477047,0.699483 0.477047,1.160097 0,0.449266 -0.159016,0.833121 -0.477047,1.151568 -0.312356,0.312783 -0.692864,0.469168 -1.141512,0.469158 -0.46001,10e-6 -0.849036,-0.156375 -1.167078,-0.469158 -0.318022,-0.31276 -0.477049,-0.696615 -0.477049,-1.151568 M 11,29.956123 l 0,2.724576 c 3.480271,0 6.307001,2.832241 6.307001,6.319301 l 2.733504,0 c 0,-4.994979 -4.055254,-9.043877 -9.040505,-9.043877 z m 0.0047,-5.961716 0,3.011702 c 6.607905,0 11.973197,5.372443 11.973197,11.989167 l 3.022081,0 C 26,30.712471 19.276493,23.994407 11.004722,23.994407 Z"
       id="path4311-1"
       style="font-style:normal;font-variant:normal;font-weight:bold;font-stretch:normal;font-size:13.58991337px;line-height:125%;font-family:'Bitstream Vera Serif';text-align:start;writing-mode:lr-tb;text-anchor:start;fill:#000000;fill-opacity:1;stroke:none;opacity:0.25" />
    <path
       inkscape:connector-curvature="0"
       d="m 11.094969,38.335725 c 0,-0.460614 0.159027,-0.847313 0.477049,-1.160097 0.318042,-0.318445 0.707068,-0.477676 1.167078,-0.477688 0.448648,1.2e-5 0.829156,0.159243 1.141512,0.477688 0.318031,0.312784 0.477047,0.699483 0.477047,1.160097 0,0.449266 -0.159016,0.833121 -0.477047,1.151568 -0.312356,0.312783 -0.692864,0.469168 -1.141512,0.469158 -0.46001,10e-6 -0.849036,-0.156375 -1.167078,-0.469158 -0.318022,-0.31276 -0.477049,-0.696615 -0.477049,-1.151568 m -0.09493,-7.396268 0,2.724576 c 3.480271,0 6.307001,2.832241 6.307001,6.319301 l 2.733504,0 c 0,-4.994979 -4.055254,-9.043877 -9.040505,-9.043877 z m 0.0047,-5.961716 0,3.011702 c 6.607905,0 11.973197,5.372443 11.973197,11.989167 l 3.022081,0 c 2.2e-5,-8.282805 -6.723485,-15.000869 -14.995256,-15.000869 z"
       id="path4311"
       style="font-size:13.58991336999999966px;font-style:normal;font-variant:normal;font-weight:bold;font-stretch:normal;text-align:start;line-height:125%;writing-mode:lr-tb;text-anchor:start;fill:#ffffff;fill-opacity:1;stroke:none;font-family:Bitstream Vera Serif" />
    <path
       sodipodi:nodetypes="ccccc"
       d="m 6.5,0.5 c 8.020297,0 35.000036,0.0028 35.000036,0.0028 l 4e-5,44.002803 c 0,0 -23.333381,0 -35.000076,0 0,-14.668535 0,-29.33707 0,-44.005604 z"
       id="path4160-62-6-8"
       style="color:#000000;display:inline;overflow:visible;visibility:visible;fill:none;fill-opacity:1;fill-rule:nonzero;stroke:#502600;stroke-width:1;stroke-linecap:butt;stroke-linejoin:round;stroke-miterlimit:4;stroke-dasharray:none;stroke-dashoffset:0;stroke-opacity:0.77830189;marker:none;enable-background:accumulate"
       inkscape:connector-curvature="0" />
    <path
       d="m 40.5,43.5 -33,0 0,-42 33,0 z"
       inkscape:connector-curvature="0"
       id="rect6741-1-3-1-1"
       style="opacity:0.6;fill:none;stroke:url(#linearGradient3034-3-9);stroke-width:1;stroke-linecap:round;stroke-linejoin:miter;stroke-miterlimit:4;stroke-dasharray:none;stroke-dashoffset:0;stroke-opacity:1" />
  </g>
</svg>
