<?xml version="1.0" encoding="UTF-8" standalone="no"?>
<!-- Created with Inkscape (http://www.inkscape.org/) -->

<svg
   xmlns:dc="http://purl.org/dc/elements/1.1/"
   xmlns:cc="http://creativecommons.org/ns#"
   xmlns:rdf="http://www.w3.org/1999/02/22-rdf-syntax-ns#"
   xmlns:svg="http://www.w3.org/2000/svg"
   xmlns="http://www.w3.org/2000/svg"
   xmlns:xlink="http://www.w3.org/1999/xlink"
   xmlns:sodipodi="http://sodipodi.sourceforge.net/DTD/sodipodi-0.dtd"
   xmlns:inkscape="http://www.inkscape.org/namespaces/inkscape"
   width="48px"
   height="48px"
   id="svg3102"
   version="1.1"
   inkscape:version="0.91 r13725"
   sodipodi:docname="application-illustrator.svg">
  <defs
     id="defs3104">
    <radialGradient
       r="12.671875"
       fy="9.9571075"
       fx="7.2758255"
       cy="9.9571075"
       cx="7.8060555"
       gradientTransform="matrix(-1.5705353e-7,6.4510009,-7.8609883,-1.9364168e-7,195.13664,-58.18601)"
       gradientUnits="userSpaceOnUse"
       id="radialGradient4304"
       xlink:href="#linearGradient2867-449-88-871-390-598-476-591-434-148-57-177-8-3"
       inkscape:collect="always" />
    <linearGradient
       id="linearGradient2867-449-88-871-390-598-476-591-434-148-57-177-8-3">
      <stop
         id="stop3750-1-0"
         style="stop-color:#ffcd7d;stop-opacity:1;"
         offset="0" />
      <stop
         id="stop3752-3-7"
         style="stop-color:#fc8f36;stop-opacity:1;"
         offset="0.26238" />
      <stop
         id="stop3754-1-8"
         style="stop-color:#e23a0e;stop-opacity:1;"
         offset="0.704952" />
      <stop
         id="stop3756-1-6"
         style="stop-color:#ac441f;stop-opacity:1;"
         offset="1" />
    </linearGradient>
    <radialGradient
       inkscape:collect="always"
       xlink:href="#linearGradient5060"
       id="radialGradient3327"
       gradientUnits="userSpaceOnUse"
       gradientTransform="matrix(0.02303995,0,0,0.01470022,26.360882,37.040176)"
       cx="605.71429"
       cy="486.64789"
       fx="605.71429"
       fy="486.64789"
       r="117.14286" />
    <linearGradient
       id="linearGradient5060">
      <stop
         id="stop5062"
         style="stop-color:#000000;stop-opacity:1"
         offset="0" />
      <stop
         id="stop5064"
         style="stop-color:#000000;stop-opacity:0"
         offset="1" />
    </linearGradient>
    <radialGradient
       inkscape:collect="always"
       xlink:href="#linearGradient5060"
       id="radialGradient3330"
       gradientUnits="userSpaceOnUse"
       gradientTransform="matrix(-0.02303994,0,0,0.01470022,21.62311,37.040176)"
       cx="605.71429"
       cy="486.64789"
       fx="605.71429"
       fy="486.64789"
       r="117.14286" />
    <linearGradient
       id="linearGradient5048">
      <stop
         id="stop5050"
         style="stop-color:#000000;stop-opacity:0"
         offset="0" />
      <stop
         id="stop5056"
         style="stop-color:#000000;stop-opacity:1"
         offset="0.5" />
      <stop
         id="stop5052"
         style="stop-color:#000000;stop-opacity:0"
         offset="1" />
    </linearGradient>
    <linearGradient
       y2="609.50507"
       x2="302.85715"
       y1="366.64789"
       x1="302.85715"
       gradientTransform="matrix(0.06732488,0,0,0.01470022,-0.3411391,37.040146)"
       gradientUnits="userSpaceOnUse"
       id="linearGradient3100"
       xlink:href="#linearGradient5048"
       inkscape:collect="always" />
    <linearGradient
       id="linearGradient3874">
      <stop
         id="stop3876"
         style="stop-color:#ffffff;stop-opacity:1"
         offset="0" />
      <stop
         id="stop3878"
         style="stop-color:#ffffff;stop-opacity:0.23529412"
         offset="0.04870163" />
      <stop
         offset="0.95031375"
         style="stop-color:#ffffff;stop-opacity:0"
         id="stop4275" />
      <stop
         id="stop3882"
         style="stop-color:#000000;stop-opacity:0.05882353"
         offset="1" />
    </linearGradient>
    <linearGradient
       y2="42.093876"
       x2="23.99999"
       y1="5.9417009"
       x1="23.99999"
       gradientTransform="matrix(0.89189189,0,0,1.1351351,2.5946,-4.743232)"
       gradientUnits="userSpaceOnUse"
       id="linearGradient3034-3"
       xlink:href="#linearGradient3874"
       inkscape:collect="always" />
  </defs>
  <sodipodi:namedview
     id="base"
     pagecolor="#ffffff"
     bordercolor="#666666"
     borderopacity="1.0"
     inkscape:pageopacity="0.0"
     inkscape:pageshadow="2"
     inkscape:zoom="2.8284271"
     inkscape:cx="-15.742813"
     inkscape:cy="5.2227396"
     inkscape:current-layer="layer1"
     showgrid="false"
     inkscape:grid-bbox="true"
     inkscape:document-units="px"
     inkscape:window-width="1366"
     inkscape:window-height="723"
     inkscape:window-x="0"
     inkscape:window-y="23"
     inkscape:window-maximized="1"
     inkscape:snap-bbox="true"
     inkscape:bbox-paths="true"
     inkscape:bbox-nodes="true"
     inkscape:snap-bbox-edge-midpoints="true">
    <inkscape:grid
       type="xygrid"
       id="grid4236" />
  </sodipodi:namedview>
  <metadata
     id="metadata3107">
    <rdf:RDF>
      <cc:Work
         rdf:about="">
        <dc:format>image/svg+xml</dc:format>
        <dc:type
           rdf:resource="http://purl.org/dc/dcmitype/StillImage" />
        <dc:title />
      </cc:Work>
    </rdf:RDF>
  </metadata>
  <g
     id="layer1"
     inkscape:label="Layer 1"
     inkscape:groupmode="layer">
    <rect
       style="opacity:0.3;fill:url(#linearGradient3100);fill-opacity:1;fill-rule:nonzero;stroke:none;stroke-width:1;marker:none;visibility:visible;display:inline;overflow:visible"
       id="rect2879"
       y="42.429943"
       x="7.7378473"
       height="3.5700529"
       width="32.508301" />
    <path
       inkscape:connector-curvature="0"
       style="opacity:0.3;fill:url(#radialGradient3330);fill-opacity:1;fill-rule:nonzero;stroke:none;stroke-width:1;marker:none;visibility:visible;display:inline;overflow:visible"
       id="path2881"
       d="m 7.7378475,42.430102 c 0,0 0,3.569856 0,3.569856 -1.1865002,0.0067 -2.8683795,-0.799823 -2.8683795,-1.785158 0,-0.985333 1.3240446,-1.784697 2.8683795,-1.784698 z" />
    <path
       inkscape:connector-curvature="0"
       style="opacity:0.3;fill:url(#radialGradient3327);fill-opacity:1;fill-rule:nonzero;stroke:none;stroke-width:1;marker:none;visibility:visible;display:inline;overflow:visible"
       id="path2883"
       d="m 40.246148,42.430102 c 0,0 0,3.569856 0,3.569856 1.1865,0.0067 2.86838,-0.799823 2.86838,-1.785158 0,-0.985333 -1.324045,-1.784697 -2.86838,-1.784698 z" />
    <g
       inkscape:label="Layer 1"
       id="layer1-3"
       transform="translate(-92.874352,-1e-6)">
      <path
         sodipodi:nodetypes="ccccc"
         d="m 99.874352,1.0000011 c 7.791128,0 33.999958,0.00274 33.999958,0.00274 l 4e-5,42.9972619 c 0,0 -22.66666,0 -33.999998,0 0,-14.333333 0,-28.666667 0,-42.999999 z"
         id="path4160-62"
         style="color:#000000;display:inline;overflow:visible;visibility:visible;fill:url(#radialGradient4304);fill-opacity:1;fill-rule:nonzero;stroke:none;stroke-width:1;stroke-linecap:butt;stroke-linejoin:round;stroke-miterlimit:4;stroke-dasharray:none;stroke-dashoffset:0;stroke-opacity:1;marker:none;enable-background:accumulate"
         inkscape:connector-curvature="0" />
    </g>
    <path
       id="rect3029-7"
       style="color:#000000;display:inline;overflow:visible;visibility:visible;opacity:0.25;fill:#000000;fill-opacity:1;fill-rule:nonzero;stroke:none;stroke-width:1;marker:none;enable-background:accumulate"
       d="m 30.332031,14.729372 c -2e-6,-0.33277 0.05078,-0.607511 0.152344,-0.824227 0.10156,-0.22442 0.238279,-0.402422 0.410156,-0.534006 0.179685,-0.139289 0.386716,-0.236029 0.621094,-0.290221 0.242184,-0.05416 0.49609,-0.08124 0.761719,-0.08126 0.265621,1.8e-5 0.51562,0.0271 0.75,0.08126 0.23437,0.0542 0.437495,0.150932 0.609375,0.290221 0.179682,0.131584 0.320307,0.309586 0.421875,0.534006 0.109369,0.216716 0.164057,0.491457 0.164062,0.824227 -5e-6,0.325064 -0.05469,0.599805 -0.164062,0.824227 -0.101568,0.224453 -0.242193,0.406325 -0.421875,0.545615 -0.17188,0.131582 -0.375005,0.228322 -0.609375,0.290221 -0.23438,0.05419 -0.484379,0.08128 -0.75,0.08126 -0.265629,1.5e-5 -0.519535,-0.02707 -0.761719,-0.08126 -0.234378,-0.06189 -0.441409,-0.158639 -0.621094,-0.290221 -0.171877,-0.13929 -0.308596,-0.321162 -0.410156,-0.545615 -0.101564,-0.224422 -0.152346,-0.499163 -0.152344,-0.824227 m 3.726563,16.333628 -3.574219,0 0,-12.978675 3.574219,0 0,12.978675 m -9.128907,0 -1.171875,-4.039874 -5.90625,0 -1.183593,4.039874 -3.667969,0 5.566406,-17.041767 4.441406,0 5.589844,17.041767 -3.667969,0 M 22.914062,24.00483 21.8125,20.290003 c -0.04688,-0.139295 -0.117196,-0.367601 -0.210938,-0.684921 -0.09376,-0.317297 -0.195321,-0.665561 -0.304687,-1.044795 -0.101571,-0.386948 -0.199227,-0.773909 -0.292969,-1.160884 -0.09376,-0.386947 -0.160164,-0.715862 -0.199219,-0.98675 -0.03126,0.170277 -0.07423,0.371497 -0.128906,0.60366 -0.04688,0.232189 -0.105476,0.479844 -0.175781,0.742965 -0.06251,0.255407 -0.128914,0.514671 -0.199219,0.777792 -0.07032,0.263145 -0.136726,0.5108 -0.199219,0.742965 -0.06251,0.232187 -0.1211,0.437278 -0.175781,0.615268 -0.04688,0.178013 -0.08204,0.30958 -0.105469,0.3947 l -1.089843,3.714827 4.183593,0"
       inkscape:connector-curvature="0"
       sodipodi:nodetypes="ccccccccccccccccccccccccccccccccccccccccccccc" />
    <path
       id="rect3029"
       style="color:#000000;display:inline;overflow:visible;visibility:visible;fill:#ffffff;fill-opacity:1;fill-rule:nonzero;stroke:none;stroke-width:1;marker:none;enable-background:accumulate"
       d="m 30.332031,15.729715 c -2e-6,-0.33277 0.05078,-0.607511 0.152344,-0.824227 0.10156,-0.22442 0.238279,-0.402422 0.410156,-0.534006 0.179685,-0.139289 0.386716,-0.236029 0.621094,-0.290221 0.242184,-0.05416 0.49609,-0.08124 0.761719,-0.08126 0.265621,1.8e-5 0.51562,0.0271 0.75,0.08126 0.23437,0.0542 0.437495,0.150932 0.609375,0.290221 0.179682,0.131584 0.320307,0.309586 0.421875,0.534006 0.109369,0.216716 0.164057,0.491457 0.164062,0.824227 -5e-6,0.325064 -0.05469,0.599805 -0.164062,0.824227 -0.101568,0.224453 -0.242193,0.406325 -0.421875,0.545615 -0.17188,0.131582 -0.375005,0.228322 -0.609375,0.290221 -0.23438,0.05419 -0.484379,0.08128 -0.75,0.08126 -0.265629,1.5e-5 -0.519535,-0.02707 -0.761719,-0.08126 -0.234378,-0.06189 -0.441409,-0.158639 -0.621094,-0.290221 -0.171877,-0.13929 -0.308596,-0.321162 -0.410156,-0.545615 -0.101564,-0.224422 -0.152346,-0.499163 -0.152344,-0.824227 m 3.726563,16.333628 -3.574219,0 0,-12.978675 3.574219,0 0,12.978675 m -9.128907,0 -1.171875,-4.039874 -5.90625,0 -1.183593,4.039874 -3.667969,0 5.566406,-17.041767 4.441406,0 5.589844,17.041767 -3.667969,0 M 22.914062,25.005173 21.8125,21.290346 c -0.04688,-0.139295 -0.117196,-0.367601 -0.210938,-0.684921 -0.09376,-0.317297 -0.195321,-0.665561 -0.304687,-1.044795 -0.101571,-0.386948 -0.199227,-0.773909 -0.292969,-1.160884 -0.09376,-0.386947 -0.160164,-0.715862 -0.199219,-0.98675 -0.03126,0.170277 -0.07423,0.371497 -0.128906,0.60366 -0.04688,0.232189 -0.105476,0.479844 -0.175781,0.742965 -0.06251,0.255407 -0.128914,0.514671 -0.199219,0.777792 -0.07032,0.263145 -0.136726,0.5108 -0.199219,0.742965 -0.06251,0.232187 -0.1211,0.437278 -0.175781,0.615268 -0.04688,0.178013 -0.08204,0.30958 -0.105469,0.3947 l -1.089843,3.714827 4.183593,0"
       inkscape:connector-curvature="0"
       sodipodi:nodetypes="ccccccccccccccccccccccccccccccccccccccccccccc" />
    <path
       sodipodi:nodetypes="ccccc"
       d="m 6.5,0.5 c 8.020296,0 35.000036,0.0028 35.000036,0.0028 l 4e-5,44.002803 c 0,0 -23.33338,0 -35.000076,0 0,-14.668535 0,-29.33707 0,-44.005604 z"
       id="path4160-62-6"
       style="color:#000000;display:inline;overflow:visible;visibility:visible;fill:none;fill-opacity:1;fill-rule:nonzero;stroke:#4f3000;stroke-width:1;stroke-linecap:butt;stroke-linejoin:round;stroke-miterlimit:4;stroke-dasharray:none;stroke-dashoffset:0;stroke-opacity:0.77830189;marker:none;enable-background:accumulate"
       inkscape:connector-curvature="0" />
    <path
       d="m 40.5,43.5 -33,0 0,-42 33,0 z"
       inkscape:connector-curvature="0"
       id="rect6741-1-3-1"
       style="opacity:0.6;fill:none;stroke:url(#linearGradient3034-3);stroke-width:1;stroke-linecap:round;stroke-linejoin:miter;stroke-miterlimit:4;stroke-dasharray:none;stroke-dashoffset:0;stroke-opacity:1" />
  </g>
</svg>
