<?xml version="1.0" encoding="UTF-8" standalone="no"?>
<!-- Created with Inkscape (http://www.inkscape.org/) -->

<svg
   xmlns:dc="http://purl.org/dc/elements/1.1/"
   xmlns:cc="http://creativecommons.org/ns#"
   xmlns:rdf="http://www.w3.org/1999/02/22-rdf-syntax-ns#"
   xmlns:svg="http://www.w3.org/2000/svg"
   xmlns="http://www.w3.org/2000/svg"
   xmlns:xlink="http://www.w3.org/1999/xlink"
   xmlns:sodipodi="http://sodipodi.sourceforge.net/DTD/sodipodi-0.dtd"
   xmlns:inkscape="http://www.inkscape.org/namespaces/inkscape"
   width="48px"
   height="48px"
   id="svg4112"
   version="1.1"
   inkscape:version="0.91 r13725"
   sodipodi:docname="application-vnd.ms-powerpoint.svg">
  <defs
     id="defs4114">
    <linearGradient
       inkscape:collect="always"
       xlink:href="#linearGradient3977"
       id="linearGradient3988"
       gradientUnits="userSpaceOnUse"
       gradientTransform="matrix(0.89189189,0,0,1.1351351,2.5945999,-4.7432315)"
       x1="23.99999"
       y1="5.5641499"
       x2="23.99999"
       y2="43" />
    <linearGradient
       id="linearGradient3977">
      <stop
         offset="0"
         style="stop-color:#ffffff;stop-opacity:1;"
         id="stop3979" />
      <stop
         id="stop3981"
         style="stop-color:#ffffff;stop-opacity:0.23529412;"
         offset="0.03626217" />
      <stop
         offset="0.95056331"
         style="stop-color:#ffffff;stop-opacity:0.15686275;"
         id="stop3983" />
      <stop
         offset="1"
         style="stop-color:#ffffff;stop-opacity:0.39215687;"
         id="stop3985" />
    </linearGradient>
    <linearGradient
       inkscape:collect="always"
       xlink:href="#linearGradient5344-867"
       id="linearGradient3322"
       gradientUnits="userSpaceOnUse"
       gradientTransform="matrix(0.97142632,0,0,0.93431936,0.6857668,-1.3569996)"
       x1="25.132275"
       y1="0.98520643"
       x2="25.132275"
       y2="47.013336" />
    <radialGradient
       inkscape:collect="always"
       xlink:href="#linearGradient5060"
       id="radialGradient3327"
       gradientUnits="userSpaceOnUse"
       gradientTransform="matrix(0.02303995,0,0,0.01470022,26.360882,37.040176)"
       cx="605.71429"
       cy="486.64789"
       fx="605.71429"
       fy="486.64789"
       r="117.14286" />
    <linearGradient
       id="linearGradient5060">
      <stop
         id="stop5062"
         style="stop-color:#000000;stop-opacity:1"
         offset="0" />
      <stop
         id="stop5064"
         style="stop-color:#000000;stop-opacity:0"
         offset="1" />
    </linearGradient>
    <radialGradient
       inkscape:collect="always"
       xlink:href="#linearGradient5060"
       id="radialGradient3330"
       gradientUnits="userSpaceOnUse"
       gradientTransform="matrix(-0.02303994,0,0,0.01470022,21.62311,37.040176)"
       cx="605.71429"
       cy="486.64789"
       fx="605.71429"
       fy="486.64789"
       r="117.14286" />
    <linearGradient
       id="linearGradient5048">
      <stop
         id="stop5050"
         style="stop-color:#000000;stop-opacity:0"
         offset="0" />
      <stop
         id="stop5056"
         style="stop-color:#000000;stop-opacity:1"
         offset="0.5" />
      <stop
         id="stop5052"
         style="stop-color:#000000;stop-opacity:0"
         offset="1" />
    </linearGradient>
    <linearGradient
       y2="609.50507"
       x2="302.85715"
       y1="366.64789"
       x1="302.85715"
       gradientTransform="matrix(0.06732488,0,0,0.01470022,-0.3411391,37.040146)"
       gradientUnits="userSpaceOnUse"
       id="linearGradient4110"
       xlink:href="#linearGradient5048"
       inkscape:collect="always" />
    <linearGradient
       inkscape:collect="always"
       xlink:href="#linearGradient2490-113-373"
       id="linearGradient3059"
       gradientUnits="userSpaceOnUse"
       gradientTransform="matrix(0.4148526,0,0,0.3211964,2.2941122,22.596682)"
       spreadMethod="reflect"
       x1="53.39983"
       y1="70.079262"
       x2="106.99174"
       y2="-18.244389" />
    <linearGradient
       id="linearGradient2490-113-373">
      <stop
         id="stop5625"
         style="stop-color:#71171c;stop-opacity:1"
         offset="0" />
      <stop
         id="stop5627"
         style="stop-color:#ec7422;stop-opacity:1"
         offset="1" />
    </linearGradient>
    <linearGradient
       inkscape:collect="always"
       xlink:href="#linearGradient2490-113-373"
       id="linearGradient3062"
       gradientUnits="userSpaceOnUse"
       gradientTransform="matrix(1.0608561,0,0,1.0099659,3.3773894,-4.6084465e-7)"
       x1="24.239185"
       y1="42.236279"
       x2="24.239185"
       y2="1.5977496" />
    <linearGradient
       id="linearGradient8265-821-176-38-919-66-249-48-321">
      <stop
         id="stop5601"
         style="stop-color:#ffffff;stop-opacity:1"
         offset="0" />
      <stop
         id="stop5603"
         style="stop-color:#ffffff;stop-opacity:0"
         offset="1" />
    </linearGradient>
    <linearGradient
       inkscape:collect="always"
       xlink:href="#linearGradient5293-366-550"
       id="linearGradient3082"
       gradientUnits="userSpaceOnUse"
       gradientTransform="matrix(1.1871658,0,0,0.9191539,-63.459934,3.9202977)"
       spreadMethod="reflect"
       x1="75.854454"
       y1="28"
       x2="91"
       y2="12" />
    <linearGradient
       id="linearGradient5293-366-550">
      <stop
         id="stop5579"
         style="stop-color:#ffffff;stop-opacity:1"
         offset="0" />
      <stop
         id="stop5581"
         style="stop-color:#ffffff;stop-opacity:0"
         offset="1" />
    </linearGradient>
    <linearGradient
       inkscape:collect="always"
       xlink:href="#linearGradient4000-159-371"
       id="linearGradient3085"
       gradientUnits="userSpaceOnUse"
       gradientTransform="matrix(1.1871658,0,0,0.9191539,-63.588944,5.0314088)"
       spreadMethod="reflect"
       x1="75.854454"
       y1="28"
       x2="91"
       y2="12" />
    <linearGradient
       id="linearGradient4000-159-371">
      <stop
         id="stop5573"
         style="stop-color:#000000;stop-opacity:1"
         offset="0" />
      <stop
         id="stop5575"
         style="stop-color:#000000;stop-opacity:0"
         offset="1" />
    </linearGradient>
    <linearGradient
       id="linearGradient5344-867">
      <stop
         id="stop5559"
         style="stop-color:#f9c590;stop-opacity:1"
         offset="0" />
      <stop
         id="stop5561"
         style="stop-color:#f19860;stop-opacity:1"
         offset="0.39698008" />
      <stop
         id="stop5563"
         style="stop-color:#ce5d36;stop-opacity:1"
         offset="1" />
    </linearGradient>
    <linearGradient
       id="linearGradient2490-113-580">
      <stop
         id="stop5567"
         style="stop-color:#71171c;stop-opacity:1"
         offset="0" />
      <stop
         id="stop5569"
         style="stop-color:#ed8137;stop-opacity:1"
         offset="1" />
    </linearGradient>
    <linearGradient
       id="linearGradient3874">
      <stop
         id="stop3876"
         style="stop-color:#ffffff;stop-opacity:1"
         offset="0" />
      <stop
         id="stop3878"
         style="stop-color:#ffffff;stop-opacity:0.23529412"
         offset="0.04870163" />
      <stop
         offset="0.95031375"
         style="stop-color:#ffffff;stop-opacity:0"
         id="stop4275" />
      <stop
         id="stop3882"
         style="stop-color:#000000;stop-opacity:0.05882353"
         offset="1" />
    </linearGradient>
    <linearGradient
       id="linearGradient2867-449-88-871-390-598-476-591-434-148-57-177-8-3">
      <stop
         offset="0"
         style="stop-color:#90dbec;stop-opacity:1"
         id="stop3750-1-0" />
      <stop
         offset="0.26238"
         style="stop-color:#55c1ec;stop-opacity:1"
         id="stop3752-3-7" />
      <stop
         offset="0.704952"
         style="stop-color:#3689e6;stop-opacity:1"
         id="stop3754-1-8" />
      <stop
         offset="1"
         style="stop-color:#2b63a0;stop-opacity:1"
         id="stop3756-1-6" />
    </linearGradient>
    <linearGradient
       y2="42.093876"
       x2="23.99999"
       y1="5.9417009"
       x1="23.99999"
       gradientTransform="matrix(0.89189189,0,0,1.1351351,2.5946,-4.743232)"
       gradientUnits="userSpaceOnUse"
       id="linearGradient3034-0"
       xlink:href="#linearGradient3874"
       inkscape:collect="always" />
    <linearGradient
       inkscape:collect="always"
       xlink:href="#linearGradient5048"
       id="linearGradient4375"
       gradientUnits="userSpaceOnUse"
       gradientTransform="matrix(0.06732488,0,0,0.01470022,-0.3411391,37.040146)"
       x1="302.85715"
       y1="366.64789"
       x2="302.85715"
       y2="609.50507" />
    <linearGradient
       id="linearGradient4106">
      <stop
         offset="0"
         style="stop-color:#355129;stop-opacity:1"
         id="stop4108" />
      <stop
         offset="1"
         style="stop-color:#7c8763;stop-opacity:1"
         id="stop4110" />
    </linearGradient>
    <linearGradient
       id="linearGradient4145-42-322-778-541-32-432-871-622-7">
      <stop
         offset="0"
         style="stop-color:#b5cc85;stop-opacity:1"
         id="stop5641-6" />
      <stop
         offset="0.26238"
         style="stop-color:#9abe74;stop-opacity:1"
         id="stop5643-5" />
      <stop
         offset="0.704952"
         style="stop-color:#669f4d;stop-opacity:1"
         id="stop5645-6" />
      <stop
         offset="1"
         style="stop-color:#47892b;stop-opacity:1"
         id="stop5647-9" />
    </linearGradient>
    <linearGradient
       id="linearGradient4711-257-850-696-320-311-361-101-393-7">
      <stop
         offset="0"
         style="stop-color:#425a2d;stop-opacity:1"
         id="stop5651-4" />
      <stop
         offset="1"
         style="stop-color:#7f956d;stop-opacity:1"
         id="stop5653-5" />
    </linearGradient>
    <linearGradient
       inkscape:collect="always"
       xlink:href="#linearGradient8265-821-176-38-919-66-249-48-321"
       id="linearGradient3051-5"
       gradientUnits="userSpaceOnUse"
       gradientTransform="matrix(0.740136,0,0,1.3934396,6.236734,-7.3170934)"
       x1="16.626165"
       y1="15.298182"
       x2="20.054544"
       y2="24.627615" />
  </defs>
  <sodipodi:namedview
     id="base"
     pagecolor="#ffffff"
     bordercolor="#666666"
     borderopacity="1.0"
     inkscape:pageopacity="0.0"
     inkscape:pageshadow="2"
     inkscape:zoom="1"
     inkscape:cx="6.5144799"
     inkscape:cy="41.141512"
     inkscape:current-layer="layer1"
     showgrid="false"
     inkscape:grid-bbox="true"
     inkscape:document-units="px"
     inkscape:window-width="1366"
     inkscape:window-height="723"
     inkscape:window-x="0"
     inkscape:window-y="23"
     inkscape:window-maximized="1"
     showguides="true"
     inkscape:guide-bbox="true"
     inkscape:snap-bbox="true"
     inkscape:bbox-paths="true"
     inkscape:snap-bbox-edge-midpoints="true"
     inkscape:bbox-nodes="true">
    <inkscape:grid
       type="xygrid"
       id="grid3820" />
  </sodipodi:namedview>
  <metadata
     id="metadata4117">
    <rdf:RDF>
      <cc:Work
         rdf:about="">
        <dc:format>image/svg+xml</dc:format>
        <dc:type
           rdf:resource="http://purl.org/dc/dcmitype/StillImage" />
        <dc:title />
      </cc:Work>
    </rdf:RDF>
  </metadata>
  <g
     id="layer1"
     inkscape:label="Layer 1"
     inkscape:groupmode="layer">
    <rect
       style="opacity:0.3;fill:url(#linearGradient4110);fill-opacity:1;fill-rule:nonzero;stroke:none;stroke-width:1;marker:none;visibility:visible;display:inline;overflow:visible"
       id="rect2879"
       y="42.429947"
       x="7.7378473"
       height="3.5700529"
       width="32.508301" />
    <path
       inkscape:connector-curvature="0"
       style="opacity:0.3;fill:url(#radialGradient3330);fill-opacity:1;fill-rule:nonzero;stroke:none;stroke-width:1;marker:none;visibility:visible;display:inline;overflow:visible"
       id="path2881"
       d="m 7.7378475,42.430102 c 0,0 0,3.569856 0,3.569856 -1.1865002,0.0067 -2.8683795,-0.799823 -2.8683795,-1.785158 0,-0.985333 1.3240446,-1.784697 2.8683795,-1.784698 z" />
    <path
       inkscape:connector-curvature="0"
       style="opacity:0.3;fill:url(#radialGradient3327);fill-opacity:1;fill-rule:nonzero;stroke:none;stroke-width:1;marker:none;visibility:visible;display:inline;overflow:visible"
       id="path2883"
       d="m 40.246148,42.430102 c 0,0 0,3.569856 0,3.569856 1.1865,0.0067 2.86838,-0.799823 2.86838,-1.785158 0,-0.985333 -1.324045,-1.784697 -2.86838,-1.784698 z" />
    <path
       inkscape:connector-curvature="0"
       style="display:inline;fill:url(#linearGradient3322);fill-opacity:1;stroke:none;stroke-width:0.99992186;stroke-linecap:butt;stroke-linejoin:round;stroke-miterlimit:4;stroke-dasharray:none;stroke-dashoffset:0;stroke-opacity:1"
       id="path4160"
       d="m 7,1 c 7.791126,0 33.99996,0.00274 33.99996,0.00274 L 41,44 C 41,44 18.333333,44 7,44 7,29.666665 7,15.333333 7,1 Z"
       sodipodi:nodetypes="ccccc" />
    <path
       inkscape:connector-curvature="0"
       style="opacity:0.1;fill:url(#linearGradient3085);fill-opacity:1;fill-rule:nonzero;stroke:none;stroke-width:0.91176528;marker:none;visibility:visible;display:inline;overflow:visible;enable-background:accumulate"
       id="path3743"
       d="m 18.920882,14.002764 c -3.971558,5.117861 -7.941321,10.242219 -11.912879,15.36008 0,5.211079 0,10.428842 0,15.63992 9.433735,0 18.867403,0 28.301136,0 2.610032,-3.363369 3.012335,-3.876069 5.698864,-7.338014 0,-4.725717 0,-9.43328 0,-14.178536 -7.795413,-3.348463 -17.024934,-7.309025 -22.087121,-9.48345 z" />
    <path
       inkscape:connector-curvature="0"
       style="opacity:0.4;fill:url(#linearGradient3082);fill-opacity:1;fill-rule:nonzero;stroke:none;stroke-width:0.91176528;marker:none;visibility:visible;display:inline;overflow:visible;enable-background:accumulate"
       id="path3697"
       d="m 18.920882,13.002764 c -3.971558,5.117861 -7.941321,10.242219 -11.912879,15.36008 0,5.211079 0,10.428842 0,15.63992 9.433735,0 18.867403,0 28.301136,0 2.610032,-3.363369 3.012335,-3.876069 5.698864,-7.338014 0,-4.725717 0,-9.43328 0,-14.178536 -7.795413,-3.348463 -17.024934,-7.309025 -22.087121,-9.48345 z" />
    <path
       inkscape:connector-curvature="0"
       style="font-size:31.58494568px;font-style:normal;font-variant:normal;font-weight:bold;font-stretch:normal;opacity:0.4;fill:#ffffff;fill-opacity:1;stroke:none;font-family:Droid Sans;-inkscape-font-specification:Droid Sans Bold"
       id="text4083"
       d="m 21.899896,24.35294 c 1.5363,0.01035 3.317546,0.06528 4.437869,-1.110305 0.857518,-1.055501 0.866852,-2.578967 0.399039,-3.789121 -0.606007,-1.382126 -2.34674,-1.670065 -3.751962,-1.631355 -0.361649,0 -0.723297,0 -1.084946,1e-6 0,2.176927 0,4.353853 0,6.53078 z m 10.100107,-3.49111 c 0.0321,2.20551 -0.854817,4.5457 -2.853756,5.80026 -2.065428,1.379474 -4.661868,1.56957 -7.106545,1.513011 -0.304466,0.03163 -0.06243,0.583546 -0.139806,0.831376 0,2.331174 0,4.662348 0,6.993521 -1.633298,0 -3.266596,0 -4.899895,0 0,-7.333334 0,-14.666667 0,-22.000001 2.540565,0.01829 5.083011,-0.04075 7.622136,0.0381 2.433017,0.143404 5.09607,0.950977 6.414915,3.047431 0.710487,1.130894 0.96312,2.473069 0.962949,3.776299 l 2e-6,-1e-6 z" />
    <path
       inkscape:connector-curvature="0"
       style="font-size:31.58494568px;font-style:normal;font-variant:normal;font-weight:bold;font-stretch:normal;fill:url(#linearGradient3062);fill-opacity:1;stroke:none;font-family:Droid Sans;-inkscape-font-specification:Droid Sans Bold"
       id="text3893"
       d="m 21.899896,23.352941 c 1.5363,0.01035 3.317546,0.06528 4.437869,-1.110306 0.857518,-1.0555 0.866852,-2.578966 0.399039,-3.78912 -0.606007,-1.382126 -2.34674,-1.670066 -3.751962,-1.631354 -0.361649,0 -0.723297,0 -1.084946,0 0,2.176927 0,4.353854 0,6.53078 z m 10.100107,-3.49111 c 0.0321,2.20551 -0.854817,4.5457 -2.853756,5.80026 -2.065428,1.379474 -4.661868,1.56957 -7.106545,1.51301 -0.304466,0.03163 -0.06243,0.583547 -0.139806,0.831378 0,2.331173 0,4.662346 0,6.99352 -1.633298,0 -3.266596,0 -4.899895,0 0,-7.333333 0,-14.666667 0,-22 2.540565,0.01829 5.083011,-0.04075 7.622136,0.0381 2.433017,0.143403 5.09607,0.950976 6.414915,3.04743 0.710487,1.130895 0.96312,2.473068 0.962949,3.776299 l 2e-6,-10e-7 z" />
    <path
       inkscape:connector-curvature="0"
       style="opacity:0.3;fill:url(#linearGradient3059);fill-opacity:1;fill-rule:nonzero;stroke:none;stroke-width:0.91176528;marker:none;visibility:visible;display:inline;overflow:visible;enable-background:accumulate"
       id="path5975"
       d="m 26.940637,28.606473 c -2.210391,2.677639 -1.332439,6.040572 1.959715,7.506549 3.292153,1.465977 7.757987,0.482598 9.968378,-2.195041 2.210391,-2.677639 1.332438,-6.040573 -1.959715,-7.506549 -3.292153,-1.465976 -7.757987,-0.482598 -9.968378,2.195041 z m 5.964047,2.655755 3.781868,-4.581307 c 2.591047,1.153778 3.644108,3.480269 2.634338,5.814482 l -6.416206,-1.233175 z" />
    <path
       style="fill:none;stroke:url(#linearGradient3988);stroke-width:1;stroke-linecap:round;stroke-linejoin:round;stroke-miterlimit:4;stroke-opacity:1;stroke-dasharray:none;stroke-dashoffset:0;opacity:0.5"
       d="m 40.5,43.5 -33,0 0,-41.9999999 33,0 z"
       id="rect6741-1"
       inkscape:connector-curvature="0"
       sodipodi:nodetypes="ccccc" />
    <path
       inkscape:connector-curvature="0"
       style="display:inline;fill:none;fill-opacity:1;stroke:#4f2700;stroke-width:0.99992186;stroke-linecap:butt;stroke-linejoin:round;stroke-miterlimit:4;stroke-dasharray:none;stroke-dashoffset:0;stroke-opacity:0.68396229"
       id="path4160-3-8-2"
       d="m 6.4999609,0.49996093 c 8.0202951,0 35.0000391,0.0028 35.0000391,0.0028 l 4.2e-5,44.00280307 c 0,0 -23.333386,0 -35.0000811,0 0,-14.668535 0,-29.33707 0,-44.00560407 z"
       sodipodi:nodetypes="ccccc" />
    <path
       d="m 40.5,43.5 -33,0 0,-42 33,0 z"
       inkscape:connector-curvature="0"
       id="rect6741-1-7-0"
       style="opacity:0.6;fill:none;stroke:url(#linearGradient3034-0);stroke-width:1;stroke-linecap:round;stroke-linejoin:miter;stroke-miterlimit:4;stroke-dasharray:none;stroke-dashoffset:0;stroke-opacity:1" />
    <path
       sodipodi:nodetypes="ccsccccc"
       d="m 7,1 0,25.343182 c 0.0021,0.187559 0.04574,0.364927 0.120456,0.489049 0.07472,0.124122 0.173636,0.183649 0.27274,0.164124 L 40.699319,17.068097 C 40.870646,17.017227 40.997604,16.74143 41,16.414922 L 41,1 Z"
       id="path3879-8"
       style="opacity:0.2;fill:url(#linearGradient3051-5);fill-opacity:1;fill-rule:evenodd;stroke:none"
       inkscape:connector-curvature="0" />
  </g>
</svg>
