<?xml version="1.0" encoding="UTF-8" standalone="no"?>
<!-- Created with Inkscape (http://www.inkscape.org/) -->

<svg
   xmlns:dc="http://purl.org/dc/elements/1.1/"
   xmlns:cc="http://creativecommons.org/ns#"
   xmlns:rdf="http://www.w3.org/1999/02/22-rdf-syntax-ns#"
   xmlns:svg="http://www.w3.org/2000/svg"
   xmlns="http://www.w3.org/2000/svg"
   xmlns:xlink="http://www.w3.org/1999/xlink"
   xmlns:sodipodi="http://sodipodi.sourceforge.net/DTD/sodipodi-0.dtd"
   xmlns:inkscape="http://www.inkscape.org/namespaces/inkscape"
   width="48px"
   height="48px"
   id="svg3983"
   version="1.1"
   inkscape:version="0.91 r13725"
   sodipodi:docname="audio-x-smart-playlist.svg">
  <defs
     id="defs3985">
    <linearGradient
       id="linearGradient4311">
      <stop
         id="stop4313"
         style="stop-color:#000000;stop-opacity:1"
         offset="0" />
      <stop
         id="stop4315"
         style="stop-color:#000000;stop-opacity:0"
         offset="1" />
    </linearGradient>
    <linearGradient
       id="linearGradient3707-662">
      <stop
         id="stop4098"
         style="stop-color:#542f57;stop-opacity:1"
         offset="0" />
      <stop
         id="stop4100"
         style="stop-color:#bb5ca4;stop-opacity:1"
         offset="1" />
    </linearGradient>
    <linearGradient
       id="linearGradient3977">
      <stop
         offset="0"
         style="stop-color:#ffffff;stop-opacity:1;"
         id="stop3979" />
      <stop
         id="stop3981"
         style="stop-color:#ffffff;stop-opacity:0.23529412;"
         offset="0.03626217" />
      <stop
         offset="0.95056331"
         style="stop-color:#ffffff;stop-opacity:0.15686275;"
         id="stop3983" />
      <stop
         offset="1"
         style="stop-color:#ffffff;stop-opacity:0.39215687;"
         id="stop3985" />
    </linearGradient>
    <linearGradient
       id="linearGradient3671-580">
      <stop
         id="stop4088"
         style="stop-color:#fc93dc;stop-opacity:1"
         offset="0" />
      <stop
         id="stop4090"
         style="stop-color:#da72d3;stop-opacity:1"
         offset="0.26238" />
      <stop
         id="stop4092"
         style="stop-color:#a33fab;stop-opacity:1"
         offset="0.704952" />
      <stop
         id="stop4094"
         style="stop-color:#502b58;stop-opacity:1"
         offset="1" />
    </linearGradient>
    <radialGradient
       inkscape:collect="always"
       xlink:href="#linearGradient5060"
       id="radialGradient3327"
       gradientUnits="userSpaceOnUse"
       gradientTransform="matrix(0.02303995,0,0,0.01470022,26.360882,37.040176)"
       cx="605.71429"
       cy="486.64789"
       fx="605.71429"
       fy="486.64789"
       r="117.14286" />
    <linearGradient
       id="linearGradient5060">
      <stop
         id="stop5062"
         style="stop-color:#000000;stop-opacity:1"
         offset="0" />
      <stop
         id="stop5064"
         style="stop-color:#000000;stop-opacity:0"
         offset="1" />
    </linearGradient>
    <radialGradient
       inkscape:collect="always"
       xlink:href="#linearGradient5060"
       id="radialGradient3330"
       gradientUnits="userSpaceOnUse"
       gradientTransform="matrix(-0.02303994,0,0,0.01470022,21.62311,37.040176)"
       cx="605.71429"
       cy="486.64789"
       fx="605.71429"
       fy="486.64789"
       r="117.14286" />
    <linearGradient
       id="linearGradient5048">
      <stop
         id="stop5050"
         style="stop-color:#000000;stop-opacity:0"
         offset="0" />
      <stop
         id="stop5056"
         style="stop-color:#000000;stop-opacity:1"
         offset="0.5" />
      <stop
         id="stop5052"
         style="stop-color:#000000;stop-opacity:0"
         offset="1" />
    </linearGradient>
    <linearGradient
       y2="609.50507"
       x2="302.85715"
       y1="366.64789"
       x1="302.85715"
       gradientTransform="matrix(0.06732488,0,0,0.01470022,-0.3411391,37.040146)"
       gradientUnits="userSpaceOnUse"
       id="linearGradient3981"
       xlink:href="#linearGradient5048"
       inkscape:collect="always" />
    <linearGradient
       y2="42.093876"
       x2="23.99999"
       y1="5.9417009"
       x1="23.99999"
       gradientTransform="matrix(0.89189189,0,0,1.1351351,2.5945999,-4.7432313)"
       gradientUnits="userSpaceOnUse"
       id="linearGradient3034"
       xlink:href="#linearGradient3874"
       inkscape:collect="always" />
    <linearGradient
       id="linearGradient3874">
      <stop
         id="stop3876"
         style="stop-color:#ffffff;stop-opacity:1"
         offset="0" />
      <stop
         id="stop3878"
         style="stop-color:#ffffff;stop-opacity:0.23529412"
         offset="0.04870163" />
      <stop
         offset="0.95031375"
         style="stop-color:#ffffff;stop-opacity:0"
         id="stop4275" />
      <stop
         id="stop3882"
         style="stop-color:#000000;stop-opacity:0.05882353"
         offset="1" />
    </linearGradient>
    <radialGradient
       r="12.671875"
       fy="9.9571075"
       fx="7.2758255"
       cy="9.9571075"
       cx="7.8060555"
       gradientTransform="matrix(-1.5705352e-7,6.4510009,-7.8609872,-1.9364169e-7,102.26228,-58.186011)"
       gradientUnits="userSpaceOnUse"
       id="radialGradient3037"
       xlink:href="#linearGradient2867-449-88-871-390-598-476-591-434-148-57-177-8-3"
       inkscape:collect="always" />
    <linearGradient
       id="linearGradient2867-449-88-871-390-598-476-591-434-148-57-177-8-3">
      <stop
         offset="0"
         style="stop-color:#90dbec;stop-opacity:1"
         id="stop3750-1-0" />
      <stop
         offset="0.26238"
         style="stop-color:#55c1ec;stop-opacity:1"
         id="stop3752-3-7" />
      <stop
         offset="0.704952"
         style="stop-color:#3689e6;stop-opacity:1"
         id="stop3754-1-8" />
      <stop
         offset="1"
         style="stop-color:#2b63a0;stop-opacity:1"
         id="stop3756-1-6" />
    </linearGradient>
    <radialGradient
       r="117.14286"
       fy="486.64789"
       fx="605.71429"
       cy="486.64789"
       cx="605.71429"
       gradientTransform="matrix(0.02303995,0,0,0.01470022,26.360882,37.040176)"
       gradientUnits="userSpaceOnUse"
       id="radialGradient3042"
       xlink:href="#linearGradient4311"
       inkscape:collect="always" />
    <radialGradient
       r="117.14286"
       fy="486.64789"
       fx="605.71429"
       cy="486.64789"
       cx="605.71429"
       gradientTransform="matrix(-0.02303994,0,0,0.01470022,21.62311,37.040176)"
       gradientUnits="userSpaceOnUse"
       id="radialGradient3045"
       xlink:href="#linearGradient4311"
       inkscape:collect="always" />
    <linearGradient
       inkscape:collect="always"
       xlink:href="#linearGradient5048"
       id="linearGradient3931"
       gradientUnits="userSpaceOnUse"
       gradientTransform="matrix(0.06732488,0,0,0.01470022,-0.3411391,37.040146)"
       x1="302.85715"
       y1="366.64789"
       x2="302.85715"
       y2="609.50507" />
  </defs>
  <sodipodi:namedview
     id="base"
     pagecolor="#ffffff"
     bordercolor="#666666"
     borderopacity="1.0"
     inkscape:pageopacity="0.0"
     inkscape:pageshadow="2"
     inkscape:zoom="1"
     inkscape:cx="4.3333588"
     inkscape:cy="31.693585"
     inkscape:current-layer="layer1"
     showgrid="false"
     inkscape:grid-bbox="true"
     inkscape:document-units="px"
     inkscape:window-width="1366"
     inkscape:window-height="723"
     inkscape:window-x="0"
     inkscape:window-y="23"
     inkscape:window-maximized="1"
     inkscape:snap-bbox="true"
     inkscape:bbox-paths="true"
     inkscape:bbox-nodes="true"
     inkscape:snap-bbox-edge-midpoints="true">
    <inkscape:grid
       type="xygrid"
       id="grid4243" />
  </sodipodi:namedview>
  <metadata
     id="metadata3988">
    <rdf:RDF>
      <cc:Work
         rdf:about="">
        <dc:format>image/svg+xml</dc:format>
        <dc:type
           rdf:resource="http://purl.org/dc/dcmitype/StillImage" />
        <dc:title />
      </cc:Work>
    </rdf:RDF>
  </metadata>
  <g
     id="layer1"
     inkscape:label="Layer 1"
     inkscape:groupmode="layer">
    <rect
       style="opacity:0.3;fill:url(#linearGradient3981);fill-opacity:1;fill-rule:nonzero;stroke:none;stroke-width:1;marker:none;visibility:visible;display:inline;overflow:visible"
       id="rect2879"
       y="42.429947"
       x="7.7378473"
       height="3.5700529"
       width="32.508301" />
    <path
       inkscape:connector-curvature="0"
       style="opacity:0.3;fill:url(#radialGradient3330);fill-opacity:1;fill-rule:nonzero;stroke:none;stroke-width:1;marker:none;visibility:visible;display:inline;overflow:visible"
       id="path2881"
       d="m 7.7378475,42.430102 c 0,0 0,3.569856 0,3.569856 -1.1865002,0.0067 -2.8683795,-0.799823 -2.8683795,-1.785158 0,-0.985333 1.3240446,-1.784697 2.8683795,-1.784698 z" />
    <path
       inkscape:connector-curvature="0"
       style="opacity:0.3;fill:url(#radialGradient3327);fill-opacity:1;fill-rule:nonzero;stroke:none;stroke-width:1;marker:none;visibility:visible;display:inline;overflow:visible"
       id="path2883"
       d="m 40.246148,42.430102 c 0,0 0,3.569856 0,3.569856 1.1865,0.0067 2.86838,-0.799823 2.86838,-1.785158 0,-0.985333 -1.324045,-1.784697 -2.86838,-1.784698 z" />
    <g
       inkscape:label="Layer 1"
       id="layer1-0"
       transform="translate(0.00162575,0)">
      <rect
         width="32.508301"
         height="3.5700529"
         x="7.7378473"
         y="42.429947"
         id="rect2879-0"
         style="display:inline;overflow:visible;visibility:visible;opacity:0.3;fill:url(#linearGradient3931);fill-opacity:1;fill-rule:nonzero;stroke:none;stroke-width:1;marker:none" />
      <path
         d="m 7.7378475,42.430102 c 0,0 0,3.569856 0,3.569856 -1.1865002,0.0067 -2.8683795,-0.799823 -2.8683795,-1.785158 0,-0.985333 1.3240446,-1.784697 2.8683795,-1.784698 z"
         inkscape:connector-curvature="0"
         id="path2881-6"
         style="display:inline;overflow:visible;visibility:visible;opacity:0.3;fill:url(#radialGradient3045);fill-opacity:1;fill-rule:nonzero;stroke:none;stroke-width:1;marker:none" />
      <path
         d="m 40.246148,42.430102 c 0,0 0,3.569856 0,3.569856 1.1865,0.0067 2.86838,-0.799823 2.86838,-1.785158 0,-0.985333 -1.324045,-1.784697 -2.86838,-1.784698 z"
         inkscape:connector-curvature="0"
         id="path2883-7"
         style="display:inline;overflow:visible;visibility:visible;opacity:0.3;fill:url(#radialGradient3042);fill-opacity:1;fill-rule:nonzero;stroke:none;stroke-width:1;marker:none" />
      <path
         d="m 7,1.0000001 c 7.791126,0 33.99996,0.00274 33.99996,0.00274 L 41,44 C 41,44 18.333334,44 7,44 7,29.666665 7,15.333333 7,1 Z"
         inkscape:connector-curvature="0"
         id="path4160-11"
         style="color:#000000;display:inline;overflow:visible;visibility:visible;fill:url(#radialGradient3037);fill-opacity:1;fill-rule:nonzero;stroke:none;stroke-width:1;marker:none;enable-background:accumulate" />
      <g
         transform="translate(16,15)"
         id="g12587-31-2-3"
         style="color:#000000;display:inline;overflow:visible;visibility:visible;opacity:0.25;fill:#000000;fill-opacity:1;fill-rule:nonzero;stroke:none;stroke-width:1.70000005;marker:none;enable-background:accumulate" />
      <path
         d="m 40.5,43.5 -33,0 0,-41.9999997 33,0 z"
         inkscape:connector-curvature="0"
         id="rect6741-1-1"
         style="opacity:0.6;fill:none;stroke:url(#linearGradient3034);stroke-width:1;stroke-linecap:round;stroke-linejoin:miter;stroke-miterlimit:4;stroke-dasharray:none;stroke-dashoffset:0;stroke-opacity:1" />
      <g
         transform="translate(16,16)"
         id="g12587-31-2"
         style="color:#000000;display:inline;overflow:visible;visibility:visible;fill:#ffffff;fill-opacity:1;fill-rule:nonzero;stroke:none;stroke-width:1.70000005;marker:none;enable-background:accumulate" />
      <path
         d="m 6.4999609,0.49719907 c 8.0202951,0 35.0000391,0.002801 35.0000391,0.002801 l 4.2e-5,44.00280293 c 0,0 -23.333387,0 -35.0000811,0 0,-14.668535 0,-29.33707 0,-44.005604 z"
         inkscape:connector-curvature="0"
         id="path4160-1"
         style="color:#000000;display:inline;overflow:visible;visibility:visible;opacity:0.3;fill:none;stroke:none;stroke-width:1;stroke-linecap:butt;stroke-linejoin:round;stroke-miterlimit:4;stroke-dasharray:none;stroke-dashoffset:0;stroke-opacity:1;marker:none;enable-background:accumulate" />
      <path
         inkscape:connector-curvature="0"
         style="display:inline;fill:none;fill-opacity:1;stroke:#00284f;stroke-width:0.99992186;stroke-linecap:butt;stroke-linejoin:round;stroke-miterlimit:4;stroke-dasharray:none;stroke-dashoffset:0;stroke-opacity:0.68396229"
         id="path4160-3-8"
         d="m 6.4999609,0.49996093 c 8.0202951,0 35.0000391,0.0028 35.0000391,0.0028 l 4.2e-5,44.00280307 c 0,0 -23.333386,0 -35.0000811,0 0,-14.668535 0,-29.33707 0,-44.00560407 z"
         sodipodi:nodetypes="ccccc" />
    </g>
    <path
       inkscape:connector-curvature="0"
       d="m 23.000002,10 c -0.554,0 -1,0.446 -1,1 l 0,2.25 c -1.005406,0.228939 -1.934872,0.621619 -2.78125,1.15625 l -1.59375,-1.59375 c -0.391737,-0.391737 -1.014512,-0.391737 -1.40625,0 l -1.40625,1.40625 c -0.391737,0.391737 -0.391737,1.014512 0,1.40625 l 1.59375,1.59375 C 15.871621,18.065128 15.478941,18.994594 15.250002,20 l -2.25,0 c -0.554,0 -1,0.446 -1,1 l 0,2 c 0,0.554 0.446,1 1,1 l 2.25,0 c 0.228939,1.005406 0.621619,1.934872 1.15625,2.78125 l -1.59375,1.59375 c -0.391737,0.391737 -0.391737,1.014512 0,1.40625 l 1.40625,1.40625 c 0.391737,0.391737 1.014512,0.391739 1.40625,0 l 1.59375,-1.59375 c 0.846378,0.534631 1.775844,0.927311 2.78125,1.15625 l 0,2.25 c 0,0.554 0.446,1 1,1 l 2,0 c 0.554,0 1,-0.446 1,-1 l 0,-2.25 c 1.005406,-0.228939 1.934872,-0.621619 2.78125,-1.15625 l 1.59375,1.59375 c 0.391737,0.391737 1.014512,0.391735 1.40625,0 l 1.40625,-1.40625 c 0.391737,-0.391737 0.391739,-1.014514 0,-1.40625 l -1.59375,-1.59375 C 32.128383,25.934872 32.521063,25.005406 32.750002,24 l 2.25,0 c 0.554,0 1,-0.446 1,-1 l 0,-2 c 0,-0.554 -0.446,-1 -1,-1 l -2.25,0 c -0.228939,-1.005406 -0.621619,-1.934872 -1.15625,-2.78125 l 1.59375,-1.59375 c 0.391737,-0.391737 0.391735,-1.014512 0,-1.40625 l -1.40625,-1.40625 c -0.391737,-0.391737 -1.014514,-0.391737 -1.40625,0 l -1.59375,1.59375 C 27.934874,13.871619 27.005408,13.478939 26.000002,13.25 l 0,-2.25 c 0,-0.554 -0.446,-1 -1,-1 l -2,0 z m 1,8 c 2.208,-1e-6 4,1.792 4,4 0,2.208001 -1.792,4 -4,4 -2.207999,1e-6 -4,-1.792 -4,-4 1e-6,-2.207999 1.792,-4 4,-4 z"
       id="path3576"
       style="display:inline;overflow:visible;visibility:visible;opacity:0.25;fill:#000000;fill-opacity:1;fill-rule:nonzero;stroke:none;stroke-width:1.70000005;marker:none;enable-background:accumulate" />
    <path
       inkscape:connector-curvature="0"
       d="m 23.000002,11 c -0.554,0 -1,0.446 -1,1 l 0,2.25 c -1.005406,0.228939 -1.934872,0.621619 -2.78125,1.15625 l -1.59375,-1.59375 c -0.391737,-0.391737 -1.014512,-0.391737 -1.40625,0 l -1.40625,1.40625 c -0.391737,0.391737 -0.391737,1.014512 0,1.40625 l 1.59375,1.59375 C 15.871621,19.065128 15.478941,19.994594 15.250002,21 l -2.25,0 c -0.554,0 -1,0.446 -1,1 l 0,2 c 0,0.554 0.446,1 1,1 l 2.25,0 c 0.228939,1.005406 0.621619,1.934872 1.15625,2.78125 l -1.59375,1.59375 c -0.391737,0.391737 -0.391737,1.014512 0,1.40625 l 1.40625,1.40625 c 0.391737,0.391737 1.014512,0.391739 1.40625,0 l 1.59375,-1.59375 c 0.846378,0.534631 1.775844,0.927311 2.78125,1.15625 l 0,2.25 c 0,0.554 0.446,1 1,1 l 2,0 c 0.554,0 1,-0.446 1,-1 l 0,-2.25 c 1.005406,-0.228939 1.934872,-0.621619 2.78125,-1.15625 l 1.59375,1.59375 c 0.391737,0.391737 1.014512,0.391735 1.40625,0 l 1.40625,-1.40625 c 0.391737,-0.391737 0.391739,-1.014514 0,-1.40625 l -1.59375,-1.59375 C 32.128383,26.934872 32.521063,26.005406 32.750002,25 l 2.25,0 c 0.554,0 1,-0.446 1,-1 l 0,-2 c 0,-0.554 -0.446,-1 -1,-1 l -2.25,0 c -0.228939,-1.005406 -0.621619,-1.934872 -1.15625,-2.78125 l 1.59375,-1.59375 c 0.391737,-0.391737 0.391735,-1.014512 0,-1.40625 l -1.40625,-1.40625 c -0.391737,-0.391737 -1.014514,-0.391737 -1.40625,0 l -1.59375,1.59375 C 27.934874,14.871619 27.005408,14.478939 26.000002,14.25 l 0,-2.25 c 0,-0.554 -0.446,-1 -1,-1 l -2,0 z m 1,8 c 2.208,-1e-6 4,1.792 4,4 0,2.208001 -1.792,4 -4,4 -2.207999,1e-6 -4,-1.792 -4,-4 1e-6,-2.207999 1.792,-4 4,-4 z"
       id="rect3557"
       style="fill:#ffffff;fill-opacity:1;fill-rule:nonzero;stroke:none;stroke-width:1.70000005;marker:none;visibility:visible;display:inline;overflow:visible;enable-background:accumulate" />
  </g>
</svg>
