<?xml version="1.0" encoding="UTF-8" standalone="no"?>
<!-- Created with Inkscape (http://www.inkscape.org/) -->

<svg
   xmlns:dc="http://purl.org/dc/elements/1.1/"
   xmlns:cc="http://creativecommons.org/ns#"
   xmlns:rdf="http://www.w3.org/1999/02/22-rdf-syntax-ns#"
   xmlns:svg="http://www.w3.org/2000/svg"
   xmlns="http://www.w3.org/2000/svg"
   xmlns:xlink="http://www.w3.org/1999/xlink"
   xmlns:sodipodi="http://sodipodi.sourceforge.net/DTD/sodipodi-0.dtd"
   xmlns:inkscape="http://www.inkscape.org/namespaces/inkscape"
   width="48px"
   height="48px"
   id="svg4112"
   version="1.1"
   inkscape:version="0.91 r13725"
   sodipodi:docname="image-x-psd.svg">
  <defs
     id="defs4114">
    <radialGradient
       inkscape:collect="always"
       xlink:href="#linearGradient5060"
       id="radialGradient3327"
       gradientUnits="userSpaceOnUse"
       gradientTransform="matrix(0.02303995,0,0,0.01470022,26.360882,38.040176)"
       cx="605.71429"
       cy="486.64789"
       fx="605.71429"
       fy="486.64789"
       r="117.14286" />
    <linearGradient
       id="linearGradient5060">
      <stop
         id="stop5062"
         style="stop-color:#000000;stop-opacity:1"
         offset="0" />
      <stop
         id="stop5064"
         style="stop-color:#000000;stop-opacity:0"
         offset="1" />
    </linearGradient>
    <radialGradient
       inkscape:collect="always"
       xlink:href="#linearGradient5060"
       id="radialGradient3330"
       gradientUnits="userSpaceOnUse"
       gradientTransform="matrix(-0.02303994,0,0,0.01470022,21.62311,38.040176)"
       cx="605.71429"
       cy="486.64789"
       fx="605.71429"
       fy="486.64789"
       r="117.14286" />
    <linearGradient
       id="linearGradient5048">
      <stop
         id="stop5050"
         style="stop-color:#000000;stop-opacity:0"
         offset="0" />
      <stop
         id="stop5056"
         style="stop-color:#000000;stop-opacity:1"
         offset="0.5" />
      <stop
         id="stop5052"
         style="stop-color:#000000;stop-opacity:0"
         offset="1" />
    </linearGradient>
    <linearGradient
       y2="609.50507"
       x2="302.85715"
       y1="366.64789"
       x1="302.85715"
       gradientTransform="matrix(0.06732488,0,0,0.01470022,-0.3411391,38.040146)"
       gradientUnits="userSpaceOnUse"
       id="linearGradient4110"
       xlink:href="#linearGradient5048"
       inkscape:collect="always" />
    <linearGradient
       inkscape:collect="always"
       xlink:href="#linearGradient7176"
       id="linearGradient3064"
       gradientUnits="userSpaceOnUse"
       gradientTransform="matrix(0.2297578,-0.0383763,0.0383763,0.2297578,-83.017091,-45.00814)"
       x1="375.62509"
       y1="311.79102"
       x2="393.43311"
       y2="374.92462" />
    <linearGradient
       id="linearGradient7176">
      <stop
         id="stop7178"
         style="stop-color:#204a87;stop-opacity:1"
         offset="0" />
      <stop
         id="stop7180"
         style="stop-color:#97bcd4;stop-opacity:1"
         offset="1" />
    </linearGradient>
    <linearGradient
       inkscape:collect="always"
       xlink:href="#linearGradient7613"
       id="linearGradient3066"
       gradientUnits="userSpaceOnUse"
       gradientTransform="translate(-0.330535,4.8155812)"
       x1="13.112816"
       y1="7.2513928"
       x2="20.403833"
       y2="21.766705" />
    <linearGradient
       id="linearGradient7613">
      <stop
         id="stop7615"
         style="stop-color:#304456;stop-opacity:1"
         offset="0" />
      <stop
         id="stop7617"
         style="stop-color:#6394be;stop-opacity:1"
         offset="1" />
    </linearGradient>
    <radialGradient
       inkscape:collect="always"
       xlink:href="#linearGradient7192"
       id="radialGradient3069"
       gradientUnits="userSpaceOnUse"
       gradientTransform="matrix(0.2619729,-0.285608,0.2957879,0.2713093,-196.5256,44.556467)"
       cx="416.65488"
       cy="392.0784"
       fx="416.65488"
       fy="392.0784"
       r="27.076788" />
    <linearGradient
       id="linearGradient7192">
      <stop
         id="stop7210"
         style="stop-color:#fce94f;stop-opacity:1"
         offset="0" />
      <stop
         id="stop8189"
         style="stop-color:#66d09a;stop-opacity:1"
         offset="0.5" />
      <stop
         id="stop8187"
         style="stop-color:#66c6d0;stop-opacity:1"
         offset="1" />
    </linearGradient>
    <linearGradient
       inkscape:collect="always"
       xlink:href="#linearGradient7605"
       id="linearGradient3071"
       gradientUnits="userSpaceOnUse"
       gradientTransform="translate(-0.330535,4.8155812)"
       x1="32.027035"
       y1="21.986458"
       x2="27.560297"
       y2="15.298627" />
    <linearGradient
       id="linearGradient7605">
      <stop
         id="stop7607"
         style="stop-color:#bcae3e;stop-opacity:1"
         offset="0" />
      <stop
         id="stop7609"
         style="stop-color:#3b9a6a;stop-opacity:1"
         offset="0.5" />
      <stop
         id="stop7611"
         style="stop-color:#3d8891;stop-opacity:1"
         offset="1" />
    </linearGradient>
    <radialGradient
       inkscape:collect="always"
       xlink:href="#linearGradient9162"
       id="radialGradient3074"
       gradientUnits="userSpaceOnUse"
       gradientTransform="matrix(-0.3550367,-0.06113843,0.0269881,-0.1567226,167.77602,121.86088)"
       cx="416.80206"
       cy="399.14209"
       fx="416.80206"
       fy="399.14209"
       r="20.131355" />
    <linearGradient
       id="linearGradient9162">
      <stop
         id="stop9170"
         style="stop-color:#8ae234;stop-opacity:1"
         offset="0" />
      <stop
         id="stop9166"
         style="stop-color:#4db07d;stop-opacity:0.88235295"
         offset="1" />
    </linearGradient>
    <linearGradient
       y2="42.059513"
       x2="23.999994"
       y1="5.9404659"
       x1="23.999994"
       gradientTransform="matrix(0.89189189,0,0,1.1351351,2.5945999,-4.7432315)"
       gradientUnits="userSpaceOnUse"
       id="linearGradient3988-1"
       xlink:href="#linearGradient3977-6"
       inkscape:collect="always" />
    <linearGradient
       id="linearGradient3977-6">
      <stop
         id="stop3979-2"
         style="stop-color:#ffffff;stop-opacity:1;"
         offset="0" />
      <stop
         offset="0.04878049"
         style="stop-color:#ffffff;stop-opacity:0.23529412;"
         id="stop3981-6" />
      <stop
         id="stop3983-0"
         style="stop-color:#ffffff;stop-opacity:0"
         offset="0.95056331" />
      <stop
         id="stop3985-4"
         style="stop-color:#000000;stop-opacity:0.04313726"
         offset="1" />
    </linearGradient>
    <linearGradient
       y2="48.545498"
       x2="25.029415"
       y1="2.5226912"
       x1="25.029415"
       gradientTransform="matrix(0.97142633,0,0,0.93431934,0.68576677,-1.3569992)"
       gradientUnits="userSpaceOnUse"
       id="linearGradient3322-1"
       xlink:href="#linearGradient3927"
       inkscape:collect="always" />
    <linearGradient
       id="linearGradient3927">
      <stop
         style="stop-color:#fbfcfd;stop-opacity:1"
         offset="0"
         id="stop3929" />
      <stop
         style="stop-color:#ebeced;stop-opacity:1"
         offset="1"
         id="stop3931" />
    </linearGradient>
  </defs>
  <sodipodi:namedview
     id="base"
     pagecolor="#ffffff"
     bordercolor="#666666"
     borderopacity="1.0"
     inkscape:pageopacity="0.0"
     inkscape:pageshadow="2"
     inkscape:zoom="11.313708"
     inkscape:cx="28.939488"
     inkscape:cy="27.127339"
     inkscape:current-layer="layer1"
     showgrid="false"
     inkscape:grid-bbox="true"
     inkscape:document-units="px"
     inkscape:window-width="1366"
     inkscape:window-height="723"
     inkscape:window-x="0"
     inkscape:window-y="23"
     inkscape:window-maximized="1"
     showguides="true"
     inkscape:guide-bbox="true"
     inkscape:snap-bbox="true"
     inkscape:bbox-paths="true"
     inkscape:bbox-nodes="true"
     inkscape:snap-bbox-edge-midpoints="true">
    <inkscape:grid
       type="xygrid"
       id="grid3820" />
  </sodipodi:namedview>
  <metadata
     id="metadata4117">
    <rdf:RDF>
      <cc:Work
         rdf:about="">
        <dc:format>image/svg+xml</dc:format>
        <dc:type
           rdf:resource="http://purl.org/dc/dcmitype/StillImage" />
        <dc:title />
      </cc:Work>
    </rdf:RDF>
  </metadata>
  <g
     id="layer1"
     inkscape:label="Layer 1"
     inkscape:groupmode="layer">
    <rect
       style="display:inline;overflow:visible;visibility:visible;opacity:0.3;fill:url(#linearGradient4110);fill-opacity:1;fill-rule:nonzero;stroke:none;stroke-width:1;marker:none"
       id="rect2879"
       y="43.429947"
       x="7.7378473"
       height="3.5700529"
       width="32.508301" />
    <path
       inkscape:connector-curvature="0"
       style="display:inline;overflow:visible;visibility:visible;opacity:0.3;fill:url(#radialGradient3330);fill-opacity:1;fill-rule:nonzero;stroke:none;stroke-width:1;marker:none"
       id="path2881"
       d="m 7.7378475,43.430102 c 0,0 0,3.569856 0,3.569856 -1.1865002,0.0067 -2.8683795,-0.799823 -2.8683795,-1.785158 0,-0.985333 1.3240446,-1.784697 2.8683795,-1.784698 z" />
    <path
       inkscape:connector-curvature="0"
       style="display:inline;overflow:visible;visibility:visible;opacity:0.3;fill:url(#radialGradient3327);fill-opacity:1;fill-rule:nonzero;stroke:none;stroke-width:1;marker:none"
       id="path2883"
       d="m 40.246148,43.430102 c 0,0 0,3.569856 0,3.569856 1.1865,0.0067 2.86838,-0.799823 2.86838,-1.785158 0,-0.985333 -1.324045,-1.784697 -2.86838,-1.784698 z" />
    <g
       inkscape:label="Layer 1"
       id="layer1-2"
       transform="translate(0,0.9999991)">
      <path
         sodipodi:nodetypes="ccccc"
         d="m 7,1.0000004 c 7.791126,0 33.99996,0.00274 33.99996,0.00274 L 41,44 C 41,44 18.333333,44 7,44 7,29.666665 7,15.333332 7,1 Z"
         id="path4160-5"
         style="display:inline;fill:url(#linearGradient3322-1);fill-opacity:1;stroke:none;stroke-width:0.99992186;stroke-linecap:butt;stroke-linejoin:round;stroke-miterlimit:4;stroke-dasharray:none;stroke-dashoffset:0;stroke-opacity:0.42452829"
         inkscape:connector-curvature="0" />
      <path
         sodipodi:nodetypes="ccccc"
         inkscape:connector-curvature="0"
         id="rect6741-1-5"
         d="m 40.5,43.5 -33,0 0,-41.9999999 33,0 z"
         style="fill:none;stroke:url(#linearGradient3988-1);stroke-width:1;stroke-linecap:round;stroke-linejoin:round;stroke-miterlimit:4;stroke-dasharray:none;stroke-dashoffset:0;stroke-opacity:1" />
      <path
         sodipodi:nodetypes="ccccc"
         d="m 6.4999609,0.49996093 c 8.0202951,0 35.0000391,0.0028 35.0000391,0.0028 l 4.2e-5,44.00280307 c 0,0 -23.333387,0 -35.0000811,0 0,-14.668535 0,-29.33707 0,-44.00560407 z"
         id="path4160-3"
         style="display:inline;fill:none;fill-opacity:1;stroke:#000000;stroke-width:0.99992186;stroke-linecap:butt;stroke-linejoin:round;stroke-miterlimit:4;stroke-dasharray:none;stroke-dashoffset:0;stroke-opacity:0.35294118"
         inkscape:connector-curvature="0" />
    </g>
    <path
       inkscape:connector-curvature="0"
       style="display:inline;fill:url(#radialGradient3074);fill-opacity:1;fill-rule:evenodd;stroke:#4b8748;stroke-width:1;stroke-linecap:butt;stroke-linejoin:miter;stroke-miterlimit:4;stroke-dasharray:none;stroke-opacity:1"
       id="path8191"
       d="m 22.438552,31.319108 c 1.490765,1.913587 3.406608,2.20814 5.734418,2.179895 -0.159682,0.368602 -0.319362,0.737202 -0.479043,1.105804 0.446093,-0.532851 0.778633,-1.111828 1.516212,-1.037679 -0.45631,0.656609 -0.531242,1.081481 -0.703923,1.56575 0.882679,-0.796538 2.266515,-1.069984 3.382759,-1.389335 -0.296953,-0.453239 -0.748263,-0.780467 -1.045216,-1.233706 0.51655,-0.880837 0.736895,-2.074322 0.779404,-3.131368 -0.199831,0.550713 -0.493151,0.991749 -0.770238,1.379962 0.56501,-1.403227 0.136239,-2.331688 -0.343689,-3.502689 0.05238,0.554429 0.104757,1.10886 0.157136,1.663288 -0.445391,1.633045 -0.956351,1.826857 -1.940103,2.819481 -1.623569,0.403516 -4.111506,0.767958 -6.287717,-0.419403 z" />
    <path
       inkscape:connector-curvature="0"
       style="display:inline;fill:url(#radialGradient3069);fill-opacity:1;fill-rule:evenodd;stroke:url(#linearGradient3071);stroke-width:1;stroke-linecap:butt;stroke-linejoin:miter;stroke-miterlimit:4;stroke-dasharray:none;stroke-opacity:1"
       id="path27337"
       d="m 16.027188,22.677113 c 0.107938,4.33908 3.816028,6.908865 7.252821,8.906909 1.943192,0.728948 3.695033,0.52947 5.694913,0.284164 1.235524,-2.527198 0.719072,-4.618429 -0.364996,-7.116001 -0.67554,-0.974332 -0.844216,-1.987415 -0.993165,-3.128459 -0.779439,0.727002 -0.371674,1.921205 -0.39006,2.947705 -0.466098,-1.743826 -1.547289,-3.188825 -2.491351,-4.701873 -0.701689,-2.635743 -3.307593,-4.248348 -5.382073,-5.80738 3.403989,5.31894 4.212841,5.590592 2.761002,11.951452 -3.128514,1.134923 -5.124683,-0.446259 -6.087091,-3.336517 z" />
    <path
       inkscape:connector-curvature="0"
       style="display:inline;fill:url(#linearGradient3064);fill-opacity:1;fill-rule:evenodd;stroke:url(#linearGradient3066);stroke-width:1;stroke-linecap:butt;stroke-linejoin:miter;stroke-miterlimit:4;stroke-dasharray:none;stroke-opacity:1"
       id="path24402"
       d="m 12.859,19.206015 c 0.776784,2.957732 2.890643,5.366451 5.735267,6.513148 1.273654,0.269885 2.542932,0.529718 3.567683,0.227678 -0.242747,-1.880937 0.165015,-3.676631 0.327252,-5.733818 0.08384,-1.773225 0.17475,-3.345992 -0.867792,-4.799984 -1.605379,-2.165988 -3.684481,-2.981364 -6.103353,-2.828058 -0.589018,0.82216 -1.17918,1.509058 -1.626606,2.216001 -0.744911,1.176985 -1.320522,3.146093 -0.383794,4.414345 0.921654,0.861731 2.129325,1.772433 2.843301,1.878187 -1.082879,0.07372 -1.815803,-0.477379 -2.699912,-1.019725 C 13.38703,19.784532 13.123016,19.495272 12.859,19.206015 Z" />
    <path
       inkscape:connector-curvature="0"
       style="display:inline;fill:#2a6a28"
       id="path24368"
       d="m 35.947479,35.725823 c -1.578727,-0.648216 -5.226572,-2.45115 -6.243142,-3.085651 -0.759762,-0.474208 -1.21733,-0.587733 -1.971022,-0.489015 -0.689714,0.09034 -0.798449,0.06873 -0.365713,-0.07269 0.338716,-0.110688 0.606696,-0.256037 0.595512,-0.322998 -0.01119,-0.06696 -0.683049,-0.66504 -1.493034,-1.329066 -5.246732,-4.301271 -9.201449,-10.041967 -10.308747,-14.964254 -0.211216,-0.938913 -0.284661,-1.404884 -0.163214,-1.035494 1.73131,5.265912 3.616163,8.489644 7.146532,12.222987 2.083019,2.202781 5.355786,4.726836 5.79433,4.468761 0.208337,-0.122603 0.28557,-0.06399 0.236055,0.17915 -0.09005,0.44215 2.347092,1.922687 5.305137,3.222821 1.141034,0.501513 2.160535,1.057855 2.265556,1.236319 0.238275,0.404893 0.26562,0.405951 -0.79825,-0.03087 z" />
  </g>
</svg>
