<?xml version="1.0" encoding="UTF-8" standalone="no"?>
<!-- Created with Inkscape (http://www.inkscape.org/) -->

<svg
   xmlns:dc="http://purl.org/dc/elements/1.1/"
   xmlns:cc="http://creativecommons.org/ns#"
   xmlns:rdf="http://www.w3.org/1999/02/22-rdf-syntax-ns#"
   xmlns:svg="http://www.w3.org/2000/svg"
   xmlns="http://www.w3.org/2000/svg"
   xmlns:xlink="http://www.w3.org/1999/xlink"
   xmlns:sodipodi="http://sodipodi.sourceforge.net/DTD/sodipodi-0.dtd"
   xmlns:inkscape="http://www.inkscape.org/namespaces/inkscape"
   width="48px"
   height="48px"
   id="svg4112"
   version="1.1"
   inkscape:version="0.91 r13725"
   sodipodi:docname="text-x-readme.svg">
  <defs
     id="defs4114">
    <radialGradient
       inkscape:collect="always"
       xlink:href="#linearGradient5060"
       id="radialGradient3327"
       gradientUnits="userSpaceOnUse"
       gradientTransform="matrix(0.02303995,0,0,0.01470022,26.360882,38.040176)"
       cx="605.71429"
       cy="486.64789"
       fx="605.71429"
       fy="486.64789"
       r="117.14286" />
    <linearGradient
       id="linearGradient5060">
      <stop
         id="stop5062"
         style="stop-color:#000000;stop-opacity:1"
         offset="0" />
      <stop
         id="stop5064"
         style="stop-color:#000000;stop-opacity:0"
         offset="1" />
    </linearGradient>
    <radialGradient
       inkscape:collect="always"
       xlink:href="#linearGradient5060"
       id="radialGradient3330"
       gradientUnits="userSpaceOnUse"
       gradientTransform="matrix(-0.02303994,0,0,0.01470022,21.62311,38.040176)"
       cx="605.71429"
       cy="486.64789"
       fx="605.71429"
       fy="486.64789"
       r="117.14286" />
    <linearGradient
       id="linearGradient5048">
      <stop
         id="stop5050"
         style="stop-color:#000000;stop-opacity:0"
         offset="0" />
      <stop
         id="stop5056"
         style="stop-color:#000000;stop-opacity:1"
         offset="0.5" />
      <stop
         id="stop5052"
         style="stop-color:#000000;stop-opacity:0"
         offset="1" />
    </linearGradient>
    <linearGradient
       y2="609.50507"
       x2="302.85715"
       y1="366.64789"
       x1="302.85715"
       gradientTransform="matrix(0.06732488,0,0,0.01470022,-0.3411391,38.040146)"
       gradientUnits="userSpaceOnUse"
       id="linearGradient4110"
       xlink:href="#linearGradient5048"
       inkscape:collect="always" />
    <linearGradient
       y2="42.059513"
       x2="23.999994"
       y1="5.9404659"
       x1="23.999994"
       gradientTransform="matrix(0.89189189,0,0,1.1351351,2.5945999,-4.7432315)"
       gradientUnits="userSpaceOnUse"
       id="linearGradient3988-5"
       xlink:href="#linearGradient3977-9"
       inkscape:collect="always" />
    <linearGradient
       id="linearGradient3977-9">
      <stop
         id="stop3979-5"
         style="stop-color:#ffffff;stop-opacity:1;"
         offset="0" />
      <stop
         offset="0.04878049"
         style="stop-color:#ffffff;stop-opacity:0.23529412;"
         id="stop3981-5" />
      <stop
         id="stop3983-9"
         style="stop-color:#ffffff;stop-opacity:0"
         offset="0.95056331" />
      <stop
         id="stop3985-1"
         style="stop-color:#000000;stop-opacity:0.04313726"
         offset="1" />
    </linearGradient>
    <linearGradient
       y2="48.545498"
       x2="25.029415"
       y1="2.5226912"
       x1="25.029415"
       gradientTransform="matrix(0.97142633,0,0,0.93431934,0.68576677,-1.3569992)"
       gradientUnits="userSpaceOnUse"
       id="linearGradient3322-9"
       xlink:href="#linearGradient3927"
       inkscape:collect="always" />
    <linearGradient
       id="linearGradient3927">
      <stop
         style="stop-color:#fbfcfd;stop-opacity:1"
         offset="0"
         id="stop3929" />
      <stop
         style="stop-color:#ebeced;stop-opacity:1"
         offset="1"
         id="stop3931" />
    </linearGradient>
  </defs>
  <sodipodi:namedview
     id="base"
     pagecolor="#ffffff"
     bordercolor="#666666"
     borderopacity="1.0"
     inkscape:pageopacity="0.0"
     inkscape:pageshadow="2"
     inkscape:zoom="11.313708"
     inkscape:cx="19.622114"
     inkscape:cy="20.427034"
     inkscape:current-layer="layer1"
     showgrid="true"
     inkscape:grid-bbox="true"
     inkscape:document-units="px"
     inkscape:window-width="1366"
     inkscape:window-height="723"
     inkscape:window-x="0"
     inkscape:window-y="23"
     inkscape:window-maximized="1"
     showguides="true"
     inkscape:guide-bbox="true"
     inkscape:snap-bbox="true"
     inkscape:bbox-paths="true"
     inkscape:bbox-nodes="true"
     inkscape:snap-bbox-edge-midpoints="true">
    <inkscape:grid
       type="xygrid"
       id="grid3820" />
  </sodipodi:namedview>
  <metadata
     id="metadata4117">
    <rdf:RDF>
      <cc:Work
         rdf:about="">
        <dc:format>image/svg+xml</dc:format>
        <dc:type
           rdf:resource="http://purl.org/dc/dcmitype/StillImage" />
        <dc:title />
      </cc:Work>
    </rdf:RDF>
  </metadata>
  <g
     id="layer1"
     inkscape:label="Layer 1"
     inkscape:groupmode="layer">
    <rect
       style="display:inline;overflow:visible;visibility:visible;opacity:0.3;fill:url(#linearGradient4110);fill-opacity:1;fill-rule:nonzero;stroke:none;stroke-width:1;marker:none"
       id="rect2879"
       y="43.429947"
       x="7.7378473"
       height="3.5700529"
       width="32.508301" />
    <path
       inkscape:connector-curvature="0"
       style="display:inline;overflow:visible;visibility:visible;opacity:0.3;fill:url(#radialGradient3330);fill-opacity:1;fill-rule:nonzero;stroke:none;stroke-width:1;marker:none"
       id="path2881"
       d="m 7.7378475,43.430102 c 0,0 0,3.569856 0,3.569856 -1.1865002,0.0067 -2.8683795,-0.799823 -2.8683795,-1.785158 0,-0.985333 1.3240446,-1.784697 2.8683795,-1.784698 z" />
    <path
       inkscape:connector-curvature="0"
       style="display:inline;overflow:visible;visibility:visible;opacity:0.3;fill:url(#radialGradient3327);fill-opacity:1;fill-rule:nonzero;stroke:none;stroke-width:1;marker:none"
       id="path2883"
       d="m 40.246148,43.430102 c 0,0 0,3.569856 0,3.569856 1.1865,0.0067 2.86838,-0.799823 2.86838,-1.785158 0,-0.985333 -1.324045,-1.784697 -2.86838,-1.784698 z" />
    <g
       inkscape:label="Layer 1"
       id="layer1-5"
       transform="translate(0,0.9999991)">
      <path
         sodipodi:nodetypes="ccccc"
         d="m 7,1.0000004 c 7.791126,0 33.99996,0.00274 33.99996,0.00274 L 41,44 C 41,44 18.333333,44 7,44 7,29.666665 7,15.333332 7,1 Z"
         id="path4160-2"
         style="display:inline;fill:url(#linearGradient3322-9);fill-opacity:1;stroke:none;stroke-width:0.99992186;stroke-linecap:butt;stroke-linejoin:round;stroke-miterlimit:4;stroke-dasharray:none;stroke-dashoffset:0;stroke-opacity:0.42452829"
         inkscape:connector-curvature="0" />
      <path
         sodipodi:nodetypes="ccccc"
         inkscape:connector-curvature="0"
         id="rect6741-1-9"
         d="m 40.5,43.5 -33,0 0,-41.9999999 33,0 z"
         style="fill:none;stroke:url(#linearGradient3988-5);stroke-width:1;stroke-linecap:round;stroke-linejoin:round;stroke-miterlimit:4;stroke-dasharray:none;stroke-dashoffset:0;stroke-opacity:1" />
      <path
         sodipodi:nodetypes="ccccc"
         d="m 6.4999609,0.49996093 c 8.0202951,0 35.0000391,0.0028 35.0000391,0.0028 l 4.2e-5,44.00280307 c 0,0 -23.333387,0 -35.0000811,0 0,-14.668535 0,-29.33707 0,-44.00560407 z"
         id="path4160-3"
         style="display:inline;fill:none;fill-opacity:1;stroke:#000000;stroke-width:0.99992186;stroke-linecap:butt;stroke-linejoin:round;stroke-miterlimit:4;stroke-dasharray:none;stroke-dashoffset:0;stroke-opacity:0.35294119"
         inkscape:connector-curvature="0" />
    </g>
    <path
       inkscape:connector-curvature="0"
       d="m 17.605164,24.209508 c 0.282962,0.72812 0.601455,1.318316 1.27988,0.511304 0.841096,-0.473693 3.659294,-2.55003 3.377299,-0.516212 -0.902385,3.763463 -2.000789,7.487347 -2.840643,11.262401 -0.878187,2.067013 1.116004,3.936714 3.198084,2.592525 2.213115,-0.863591 4.117496,-2.27023 6.063037,-3.560609 -0.265456,-0.616231 -0.442387,-1.501442 -1.175868,-0.695553 -0.963099,0.413781 -3.066613,2.36461 -3.457408,0.755614 0.808995,-4.075149 2.307879,-7.999444 3.265992,-12.042101 0.88171,-1.858803 -0.558298,-4.207469 -2.713827,-2.669843 -2.582378,1.064617 -4.741924,2.803709 -6.996546,4.362474 z m 9.584039,-13.706122 c -2.63479,-0.132356 -4.01235,3.888063 -1.508526,4.988229 2.031334,0.788557 4.243092,-1.183518 3.746846,-3.154075 -0.154003,-1.026086 -1.127232,-1.868669 -2.238319,-1.834154 l -1e-6,0 z"
       id="text3482-1"
       style="font-style:normal;font-variant:normal;font-weight:bold;font-stretch:normal;font-size:40px;line-height:100%;font-family:'URW Palladio L';-inkscape-font-specification:'URW Palladio L Bold';text-align:start;writing-mode:lr-tb;text-anchor:start;opacity:1;fill:none;fill-opacity:1;stroke:#ffffff;stroke-width:1;stroke-miterlimit:4;stroke-dasharray:none;stroke-opacity:1" />
    <path
       inkscape:connector-curvature="0"
       d="m 17.606946,23.208553 c 0.282962,0.72812 0.601455,1.318316 1.27988,0.511304 0.841096,-0.473693 3.659294,-2.55003 3.377299,-0.516212 -0.902385,3.763463 -2.000789,7.487347 -2.840643,11.262401 -0.878187,2.067013 1.116004,3.936714 3.198084,2.592525 2.213115,-0.863591 4.117496,-2.27023 6.063037,-3.560609 -0.265456,-0.616231 -0.442387,-1.501442 -1.175868,-0.695553 -0.963099,0.413781 -3.066613,2.36461 -3.457408,0.755614 0.808995,-4.075149 2.307879,-7.999444 3.265992,-12.042101 0.88171,-1.858803 -0.558298,-4.207469 -2.713827,-2.669843 -2.582378,1.064617 -4.741924,2.803709 -6.996546,4.362474 z M 27.190985,9.5024324 c -2.63479,-0.1323546 -4.01235,3.8880616 -1.508526,4.9882276 2.031334,0.788557 4.243092,-1.183518 3.746846,-3.154075 -0.154003,-1.026086 -1.127232,-1.8686673 -2.238319,-1.8341526 l -10e-7,0 z"
       id="text3482"
       style="font-style:normal;font-variant:normal;font-weight:bold;font-stretch:normal;font-size:40px;line-height:100%;font-family:'URW Palladio L';-inkscape-font-specification:'URW Palladio L Bold';text-align:start;writing-mode:lr-tb;text-anchor:start;opacity:1;fill:#8c8c8c;fill-opacity:1;stroke:#646464;stroke-width:1;stroke-miterlimit:4;stroke-dasharray:none;stroke-opacity:1" />
  </g>
</svg>
