<?xml version="1.0" encoding="UTF-8" standalone="no"?>
<!-- Created with Inkscape (http://www.inkscape.org/) -->

<svg
   xmlns:dc="http://purl.org/dc/elements/1.1/"
   xmlns:cc="http://creativecommons.org/ns#"
   xmlns:rdf="http://www.w3.org/1999/02/22-rdf-syntax-ns#"
   xmlns:svg="http://www.w3.org/2000/svg"
   xmlns="http://www.w3.org/2000/svg"
   xmlns:xlink="http://www.w3.org/1999/xlink"
   xmlns:sodipodi="http://sodipodi.sourceforge.net/DTD/sodipodi-0.dtd"
   xmlns:inkscape="http://www.inkscape.org/namespaces/inkscape"
   width="48px"
   height="48px"
   id="svg4277"
   version="1.1"
   inkscape:version="0.91 r13725"
   sodipodi:docname="text-x-vala.svg">
  <defs
     id="defs4279">
    <linearGradient
       inkscape:collect="always"
       xlink:href="#linearGradient4141"
       id="linearGradient4596-3"
       gradientUnits="userSpaceOnUse"
       gradientTransform="translate(34.97324,-3.6069009)"
       x1="-10.106312"
       y1="15.035473"
       x2="-10.106312"
       y2="37.037334" />
    <linearGradient
       id="linearGradient4141">
      <stop
         offset="0"
         style="stop-color:#ffffff;stop-opacity:1;"
         id="stop4143" />
      <stop
         id="stop4145"
         style="stop-color:#ffffff;stop-opacity:0.23529412;"
         offset="0.05959737" />
      <stop
         offset="0.85599428"
         style="stop-color:#ffffff;stop-opacity:0.15686275;"
         id="stop4147" />
      <stop
         offset="1"
         style="stop-color:#ffffff;stop-opacity:0.39215687;"
         id="stop4149" />
    </linearGradient>
    <linearGradient
       id="linearGradient3671-580">
      <stop
         offset="0"
         style="stop-color:#fc93dc;stop-opacity:1"
         id="stop4088" />
      <stop
         offset="0.26238"
         style="stop-color:#da72d3;stop-opacity:1"
         id="stop4090" />
      <stop
         offset="0.704952"
         style="stop-color:#a33fab;stop-opacity:1"
         id="stop4092" />
      <stop
         offset="1"
         style="stop-color:#502b58;stop-opacity:1"
         id="stop4094" />
    </linearGradient>
    <linearGradient
       id="linearGradient3707-662">
      <stop
         offset="0"
         style="stop-color:#542f57;stop-opacity:1"
         id="stop4098" />
      <stop
         offset="1"
         style="stop-color:#bb5ca4;stop-opacity:1"
         id="stop4100" />
    </linearGradient>
    <radialGradient
       inkscape:collect="always"
       xlink:href="#linearGradient5060"
       id="radialGradient3327"
       gradientUnits="userSpaceOnUse"
       gradientTransform="matrix(0.02303995,0,0,0.01470022,26.360882,38.040176)"
       cx="605.71429"
       cy="486.64789"
       fx="605.71429"
       fy="486.64789"
       r="117.14286" />
    <linearGradient
       id="linearGradient5060">
      <stop
         id="stop5062"
         style="stop-color:#000000;stop-opacity:1"
         offset="0" />
      <stop
         id="stop5064"
         style="stop-color:#000000;stop-opacity:0"
         offset="1" />
    </linearGradient>
    <radialGradient
       inkscape:collect="always"
       xlink:href="#linearGradient5060"
       id="radialGradient3330"
       gradientUnits="userSpaceOnUse"
       gradientTransform="matrix(-0.02303994,0,0,0.01470022,21.62311,38.040176)"
       cx="605.71429"
       cy="486.64789"
       fx="605.71429"
       fy="486.64789"
       r="117.14286" />
    <linearGradient
       id="linearGradient5048">
      <stop
         id="stop5050"
         style="stop-color:#000000;stop-opacity:0"
         offset="0" />
      <stop
         id="stop5056"
         style="stop-color:#000000;stop-opacity:1"
         offset="0.5" />
      <stop
         id="stop5052"
         style="stop-color:#000000;stop-opacity:0"
         offset="1" />
    </linearGradient>
    <linearGradient
       y2="609.50507"
       x2="302.85715"
       y1="366.64789"
       x1="302.85715"
       gradientTransform="matrix(0.06732488,0,0,0.01470022,-0.3411391,38.040146)"
       gradientUnits="userSpaceOnUse"
       id="linearGradient4271"
       xlink:href="#linearGradient5048"
       inkscape:collect="always" />
    <radialGradient
       inkscape:collect="always"
       xlink:href="#linearGradient3671-580"
       id="radialGradient3842"
       gradientUnits="userSpaceOnUse"
       gradientTransform="matrix(0,3.6779651,-3.8474058,0,63.644813,-29.193411)"
       cx="11.227573"
       cy="10.190869"
       fx="10.697345"
       fy="10.190869"
       r="12.671875" />
    <linearGradient
       id="linearGradient3977-0">
      <stop
         offset="0"
         style="stop-color:#ffffff;stop-opacity:1;"
         id="stop3979-9" />
      <stop
         id="stop3981-1"
         style="stop-color:#ffffff;stop-opacity:0.23529412;"
         offset="0.04878049" />
      <stop
         offset="0.95056331"
         style="stop-color:#ffffff;stop-opacity:0"
         id="stop3983-1" />
      <stop
         offset="1"
         style="stop-color:#000000;stop-opacity:0.04313726"
         id="stop3985-9" />
    </linearGradient>
    <linearGradient
       id="linearGradient3927">
      <stop
         id="stop3929"
         offset="0"
         style="stop-color:#fbfcfd;stop-opacity:1" />
      <stop
         id="stop3931"
         offset="1"
         style="stop-color:#ebeced;stop-opacity:1" />
    </linearGradient>
    <linearGradient
       inkscape:collect="always"
       xlink:href="#linearGradient3977-0"
       id="linearGradient3988-7"
       gradientUnits="userSpaceOnUse"
       gradientTransform="matrix(0.89189189,0,0,1.1351351,2.5945999,-4.7432315)"
       x1="23.999994"
       y1="5.9404659"
       x2="23.999994"
       y2="42.059513" />
    <linearGradient
       inkscape:collect="always"
       xlink:href="#linearGradient3927"
       id="linearGradient3322-6"
       gradientUnits="userSpaceOnUse"
       gradientTransform="matrix(0.97142633,0,0,0.93431934,0.68576677,-1.3569992)"
       x1="25.029415"
       y1="2.5226912"
       x2="25.029415"
       y2="48.545498" />
  </defs>
  <sodipodi:namedview
     id="base"
     pagecolor="#ffffff"
     bordercolor="#666666"
     borderopacity="1.0"
     inkscape:pageopacity="0.0"
     inkscape:pageshadow="2"
     inkscape:zoom="1"
     inkscape:cx="-56.801982"
     inkscape:cy="37.456163"
     inkscape:current-layer="layer1"
     showgrid="false"
     inkscape:grid-bbox="true"
     inkscape:document-units="px"
     inkscape:window-width="1366"
     inkscape:window-height="723"
     inkscape:window-x="0"
     inkscape:window-y="23"
     inkscape:window-maximized="1"
     inkscape:snap-bbox="true"
     inkscape:bbox-nodes="true"
     inkscape:bbox-paths="true"
     inkscape:snap-bbox-edge-midpoints="true">
    <inkscape:grid
       type="xygrid"
       id="grid4667" />
  </sodipodi:namedview>
  <metadata
     id="metadata4282">
    <rdf:RDF>
      <cc:Work
         rdf:about="">
        <dc:format>image/svg+xml</dc:format>
        <dc:type
           rdf:resource="http://purl.org/dc/dcmitype/StillImage" />
        <dc:title />
      </cc:Work>
    </rdf:RDF>
  </metadata>
  <g
     id="layer1"
     inkscape:label="Layer 1"
     inkscape:groupmode="layer">
    <rect
       style="display:inline;overflow:visible;visibility:visible;opacity:0.3;fill:url(#linearGradient4271);fill-opacity:1;fill-rule:nonzero;stroke:none;stroke-width:1;marker:none"
       id="rect2879"
       y="43.429947"
       x="7.7378473"
       height="3.5700529"
       width="32.508301" />
    <path
       inkscape:connector-curvature="0"
       style="display:inline;overflow:visible;visibility:visible;opacity:0.3;fill:url(#radialGradient3330);fill-opacity:1;fill-rule:nonzero;stroke:none;stroke-width:1;marker:none"
       id="path2881"
       d="m 7.7378475,43.430102 c 0,0 0,3.569856 0,3.569856 -1.1865002,0.0067 -2.8683795,-0.799823 -2.8683795,-1.785158 0,-0.985333 1.3240446,-1.784697 2.8683795,-1.784698 z" />
    <path
       inkscape:connector-curvature="0"
       style="display:inline;overflow:visible;visibility:visible;opacity:0.3;fill:url(#radialGradient3327);fill-opacity:1;fill-rule:nonzero;stroke:none;stroke-width:1;marker:none"
       id="path2883"
       d="m 40.246148,43.430102 c 0,0 0,3.569856 0,3.569856 1.1865,0.0067 2.86838,-0.799823 2.86838,-1.785158 0,-0.985333 -1.324045,-1.784697 -2.86838,-1.784698 z" />
    <g
       inkscape:label="Layer 1"
       id="layer1-4">
      <g
         transform="translate(0,0.99999853)"
         id="layer1-2"
         inkscape:label="Layer 1">
        <path
           inkscape:connector-curvature="0"
           style="display:inline;fill:url(#linearGradient3322-6);fill-opacity:1;stroke:none;stroke-width:0.99992186;stroke-linecap:butt;stroke-linejoin:round;stroke-miterlimit:4;stroke-dasharray:none;stroke-dashoffset:0;stroke-opacity:0.42452829"
           id="path4160-7"
           d="m 7,1.0000004 c 7.791126,0 33.99996,0.00274 33.99996,0.00274 L 41,44 C 41,44 18.333333,44 7,44 7,29.666665 7,15.333332 7,1 Z"
           sodipodi:nodetypes="ccccc" />
        <path
           style="fill:none;stroke:url(#linearGradient3988-7);stroke-width:1;stroke-linecap:round;stroke-linejoin:round;stroke-miterlimit:4;stroke-dasharray:none;stroke-dashoffset:0;stroke-opacity:1"
           d="m 40.5,43.5 -33,0 0,-41.9999999 33,0 z"
           id="rect6741-1-7"
           inkscape:connector-curvature="0"
           sodipodi:nodetypes="ccccc" />
        <path
           inkscape:connector-curvature="0"
           style="display:inline;fill:none;fill-opacity:1;stroke:#000000;stroke-width:0.99992186;stroke-linecap:butt;stroke-linejoin:round;stroke-miterlimit:4;stroke-dasharray:none;stroke-dashoffset:0;stroke-opacity:0.35294118"
           id="path4160-3"
           d="m 6.4999609,0.49996093 c 8.0202951,0 35.0000391,0.0028 35.0000391,0.0028 l 4.2e-5,44.00280307 c 0,0 -23.333387,0 -35.0000811,0 0,-14.668535 0,-29.33707 0,-44.00560407 z"
           sodipodi:nodetypes="ccccc" />
      </g>
      <path
         d="m 11,21.999999 0,1 2.34375,0 0,-1 -2.34375,0 z m 0,4 0,1 2.75,0 0,-1 -2.75,0 z m 0,2 0,1 2.9375,0 0,-1 -2.9375,0 z m 0,2 0,1 2.53125,0 0,-1 -2.53125,0 z m 0,2.15625 0,0.96875 2.21875,0 0,-0.96875 -2.21875,0 z m 2.75,-10.15625 0,1 2.25,0 0,-1 -2.25,0 z m -2.75,2 0,1 1,0 0,-1 -1,0 z m 3.15625,2 0,1 1.84375,0 0,-1 -1.84375,0 z m 0.125,2 0,1 2.71875,0 0,-1 -2.71875,0 z m -0.34375,2 0,1 2.0625,0 0,-1 -2.0625,0 z m -0.375,2.15625 0,0.96875 2.125,0 0,-0.96875 -2.125,0 z M 11,34.999999 l 0,1 4.28125,0 0,-1 -4.28125,0 z m 0,2 0,1 3.6875,0 0,-1 -3.6875,0 z m 3.96875,0 0,1 1.78125,0 0,-1 -1.78125,0 z m -0.625,2 0,1 3.34375,0 0,-1 -3.34375,0 z m -3.34375,0 3.036746,0 0,1 -3.036746,0 0,-1 z m 3.40625,-22 0,1 5.59375,0 0,-1 -5.59375,0 z m 0.03125,2 0,1 5.09375,0 0,-1 -5.09375,0 z m 1.1875,16 0,1 4.59375,0 0,-1 -4.59375,0 z m 4.9375,0 0,1 1.8125,0 0,-1 -1.8125,0 z m 2.15625,0 0,1 4.3125,0 0,-1 -4.3125,0 z m 4.65625,0 0,1 2.96875,0 0,-1 -2.96875,0 z m 3.28125,0 0,1 1.15625,0 0,-1 -1.15625,0 z m 1.5,0 0,1 0.6875,0 0,-1 -0.6875,0 z m 1,0 0,1 1.84375,0 0,-1 -1.84375,0 z m -16.03125,2 0,1 0.8125,0 0,-1 -0.8125,0 z m 1.03125,0 0,1 1.625,0 0,-1 -1.625,0 z m 1.875,0 0,1 1.625,0 0,-1 -1.625,0 z m 2.125,0 0,1 2.59375,0 0,-1 -2.59375,0 z m 2.90625,0 0,1 3.375,0 0,-1 -3.375,0 z m 3.84375,0 0,1 2.28125,0 0,-1 -2.28125,0 z m 2.5625,0 0,1 0.53125,0 0,-1 -0.53125,0 z m -20.46875,-20 0,1 3.0625,0 0,-1 -3.0625,0 z m 0,2 0,1 3.09375,0 0,-1 -3.09375,0 z m 0,-11.0000002 0,1 2.375,0 0,-1 -2.375,0 z m 2.6875,0 0,1 2.25,0 0,-1 -2.25,0 z m 2.5625,0 0,1 1.96875,0 0,-1 -1.96875,0 z m 2.28125,0 0,1 0.875,0 0,-1 -0.875,0 z m 1.1875,0 0,1 1.9375,0 0,-1 -1.9375,0 z m 2.28125,0 0,1 5,0 0,-1 -5,0 z m -11,2 0,1.0000002 3.78125,0 0,-1.0000002 -3.78125,0 z m 4.15625,0 0,1.0000002 1.8125,0 0,-1.0000002 -1.8125,0 z m 2.15625,0 0,1.0000002 0.84375,0 0,-1.0000002 -0.84375,0 z m 1.21875,0 0,1.0000002 1.625,0 0,-1.0000002 -1.625,0 z m 2,0 0,1.0000002 1.625,0 0,-1.0000002 -1.625,0 z m 1.96875,0 0,1.0000002 2.65625,0 0,-1.0000002 -2.65625,0 z m 3.03125,0 0,1.0000002 3.46875,0 0,-1.0000002 -3.46875,0 z M 11,11.999999 l 0,1 4.1875,0 0,-1 -4.1875,0 z m 4.5,0 0,1 4.5,0 0,-1 -4.5,0 z m -4.5,2 0,1 2.3125,0 0,-1 -2.3125,0 z m 2.625,0 0,1 2.15625,0 0,-1 -2.15625,0 z m 2.46875,0 0,1 1.90625,0 0,-1 -1.90625,0 z m 3.8125,5 0,1 1.90625,0 0,-1 -1.90625,0 z m 2.21875,0 0,1 1.90625,0 0,-1 -1.90625,0 z m 2.21875,0 0,1 2.75,0 0,-1 -2.75,0 z m 3.09375,0 0,1 0.5625,0 0,-1 -0.5625,0 z m -7.4375,7 0,1 2.34375,0 0,-1 -2.34375,0 z m 2.65625,0 0,1 2.1875,0 0,-1 -2.1875,0 z m 2.5,0 0,1 1.84375,0 0,-1 -1.84375,0 z m -5.15625,2 0,1 1.875,0 0,-1 -1.875,0 z m 2.1875,0 0,1 4.8125,0 0,-1 -4.8125,0 z m 5.125,0 0,1 3.6875,0 0,-1 -3.6875,0 z m -7.3125,2 0,1 2.4375,0 0,-1 -2.4375,0 z m 2.78125,0 0,1 4.28125,0 0,-1 -4.28125,0 z m 4.59375,0 0,1 2.9375,0 0,-1 -2.9375,0 z m -7.375,2.125 0,0.96875 1.875,0 0,-0.96875 -1.875,0 z m 2.1875,0 0,0.96875 1.90625,0 0,-0.96875 -1.90625,0 z m 2.21875,0 0,0.96875 2.71875,0 0,-0.96875 -2.71875,0 z m 3.03125,0 0,0.96875 0.5625,0 0,-0.96875 -0.5625,0 z m 0.875,0 0,0.96875 3.53125,0 0,-0.96875 -3.53125,0 z m -8.375,6.875 0,1 2.4375,0 0,-1 -2.4375,0 z m 2.75,0 0,1 2.25,0 0,-1 -2.25,0 z m 2.59375,0 0,1 1.9375,0 0,-1 -1.9375,0 z m 2.25,0 0,1 3.09375,0 0,-1 -3.09375,0 z m 3.4375,0 0,1 5.03125,0 0,-1 -5.03125,0 z"
         style="display:inline;fill:#000000;fill-opacity:0.39215686;stroke:none"
         id="path5302-9"
         inkscape:connector-curvature="0" />
    </g>
    <path
       sodipodi:nodetypes="cccccccccccccccc"
       inkscape:connector-curvature="0"
       d="m 28.86719,11.499997 4.890626,0 -7.125001,22.999999 -5.28125,0 -7.109376,-22.999999 4.890626,0 3.875,13.844049 c 0.05207,0.178303 0.119782,0.477209 0.203125,0.896716 0.09374,0.419525 0.187491,0.880993 0.28125,1.384406 0.104157,0.503426 0.203115,1.006845 0.296875,1.510259 0.09374,0.503425 0.166657,0.928185 0.21875,1.274282 0.05207,-0.346097 0.124991,-0.770857 0.21875,-1.274282 0.09374,-0.503414 0.192699,-1.00159 0.296875,-1.494528 0.104156,-0.503413 0.203114,-0.96488 0.296875,-1.384404 0.104156,-0.419509 0.182281,-0.723657 0.234375,-0.912449 l 3.8125,-13.844049"
       style="color:#000000;font-style:normal;font-variant:normal;font-weight:bold;font-stretch:normal;font-size:32.10925293px;line-height:125%;font-family:'Droid Sans';-inkscape-font-specification:'Droid Sans Bold';letter-spacing:0px;word-spacing:0px;visibility:visible;fill:url(#radialGradient3842);fill-opacity:1;fill-rule:nonzero;stroke:#8c006a;stroke-width:1;stroke-linecap:butt;stroke-linejoin:round;stroke-miterlimit:4;stroke-dashoffset:0;stroke-opacity:1;marker:none"
       id="path4163" />
    <path
       sodipodi:type="inkscape:offset"
       inkscape:radius="-0.8757202"
       inkscape:original="M 14.25 11.0625 L 21.34375 33.9375 L 26.625 33.9375 L 33.75 11.0625 L 28.875 11.0625 L 25.0625 24.8125 C 25.010406 25.000009 24.916656 25.333342 24.8125 25.75 C 24.71874 26.166674 24.635406 26.625007 24.53125 27.125 C 24.427073 27.61459 24.31249 28.093756 24.21875 28.59375 C 24.12499 29.093755 24.052074 29.531254 24 29.875 C 23.947907 29.531254 23.87499 29.093755 23.78125 28.59375 C 23.687491 28.093756 23.604157 27.593756 23.5 27.09375 C 23.406241 26.593757 23.312491 26.135424 23.21875 25.71875 C 23.135408 25.302092 23.052075 24.989592 23 24.8125 L 19.125 11.0625 L 14.25 11.0625 z "
       style="color:#000000;font-style:normal;font-variant:normal;font-weight:bold;font-stretch:normal;font-size:32px;line-height:125%;font-family:'Droid Sans';-inkscape-font-specification:'Droid Sans Bold';letter-spacing:0px;word-spacing:0px;display:inline;overflow:visible;visibility:visible;opacity:0.5;fill:none;stroke:url(#linearGradient4596-3);stroke-width:1.00297177;stroke-linecap:butt;stroke-linejoin:round;stroke-miterlimit:4;stroke-dasharray:none;stroke-dashoffset:0;stroke-opacity:1;marker:none;enable-background:accumulate"
       id="path4096"
       d="m 15.4375,11.9375 6.550781,21.125 3.992188,0 6.580078,-21.125 -3.019531,0 -3.634766,13.109375 c -0.05298,0.190692 -0.143318,0.512694 -0.244141,0.916016 -0.08645,0.386815 -0.16819,0.834612 -0.273437,1.339843 a 0.87580777,0.87580777 0 0 1 0,0.0039 c -0.107174,0.503676 -0.219998,0.976662 -0.308594,1.449218 -0.09186,0.489891 -0.164421,0.917153 -0.214844,1.25 a 0.87580777,0.87580777 0 0 1 -1.730468,0 c -0.05045,-0.332885 -0.122996,-0.760088 -0.214844,-1.25 -0.09593,-0.511553 -0.177939,-1.00718 -0.277344,-1.484375 a 0.87580777,0.87580777 0 0 1 -0.0039,-0.01563 c -0.09214,-0.491342 -0.182437,-0.941211 -0.273438,-1.345703 a 0.87580777,0.87580777 0 0 1 -0.0059,-0.01953 c -0.07784,-0.389146 -0.154471,-0.679857 -0.199219,-0.832031 a 0.87580777,0.87580777 0 0 1 -0.0039,-0.0078 L 18.462891,11.9375 l -3.025391,0 z"
       transform="matrix(1,0,0,0.99408284,0,0.63313517)" />
  </g>
</svg>
