<?xml version="1.0" encoding="UTF-8" standalone="no"?>
<!-- Created with Inkscape (http://www.inkscape.org/) -->

<svg
   xmlns:dc="http://purl.org/dc/elements/1.1/"
   xmlns:cc="http://creativecommons.org/ns#"
   xmlns:rdf="http://www.w3.org/1999/02/22-rdf-syntax-ns#"
   xmlns:svg="http://www.w3.org/2000/svg"
   xmlns="http://www.w3.org/2000/svg"
   xmlns:xlink="http://www.w3.org/1999/xlink"
   xmlns:sodipodi="http://sodipodi.sourceforge.net/DTD/sodipodi-0.dtd"
   xmlns:inkscape="http://www.inkscape.org/namespaces/inkscape"
   width="48px"
   height="48px"
   id="svg4013"
   version="1.1"
   inkscape:version="0.91 r13725"
   sodipodi:docname="x-office-document-template.svg">
  <defs
     id="defs4015">
    <linearGradient
       id="linearGradient2867-449-88-871-390-598-476-591-434-148-57-177-8">
      <stop
         offset="0"
         style="stop-color:#90dbec;stop-opacity:1;"
         id="stop3750-1" />
      <stop
         offset="0.26238"
         style="stop-color:#55c1ec;stop-opacity:1;"
         id="stop3752-3" />
      <stop
         offset="0.704952"
         style="stop-color:#3689e6;stop-opacity:1;"
         id="stop3754-1" />
      <stop
         offset="1"
         style="stop-color:#2b63a0;stop-opacity:1;"
         id="stop3756-1" />
    </linearGradient>
    <linearGradient
       id="linearGradient5060">
      <stop
         id="stop5062"
         style="stop-color:#000000;stop-opacity:1"
         offset="0" />
      <stop
         id="stop5064"
         style="stop-color:#000000;stop-opacity:0"
         offset="1" />
    </linearGradient>
    <radialGradient
       inkscape:collect="always"
       xlink:href="#linearGradient5060"
       id="radialGradient3330"
       gradientUnits="userSpaceOnUse"
       gradientTransform="matrix(-0.02303994,0,0,0.01470022,21.62311,38.040176)"
       cx="605.71429"
       cy="486.64789"
       fx="605.71429"
       fy="486.64789"
       r="117.14286" />
    <linearGradient
       id="linearGradient5048">
      <stop
         id="stop5050"
         style="stop-color:#000000;stop-opacity:0"
         offset="0" />
      <stop
         id="stop5056"
         style="stop-color:#000000;stop-opacity:1"
         offset="0.5" />
      <stop
         id="stop5052"
         style="stop-color:#000000;stop-opacity:0"
         offset="1" />
    </linearGradient>
    <linearGradient
       y2="609.50507"
       x2="302.85715"
       y1="366.64789"
       x1="302.85715"
       gradientTransform="matrix(0.06732488,0,0,0.01470022,-0.3411391,38.040146)"
       gradientUnits="userSpaceOnUse"
       id="linearGradient4011"
       xlink:href="#linearGradient5048"
       inkscape:collect="always" />
    <linearGradient
       id="linearGradient3428">
      <stop
         id="stop3430"
         style="stop-color:#ffffff;stop-opacity:1"
         offset="0" />
      <stop
         id="stop3432"
         style="stop-color:#ffffff;stop-opacity:0"
         offset="1" />
    </linearGradient>
    <linearGradient
       id="linearGradient3412">
      <stop
         id="stop3414"
         style="stop-color:#fcfcfc;stop-opacity:1"
         offset="0" />
      <stop
         id="stop3416"
         style="stop-color:#cbcdd9;stop-opacity:1"
         offset="1" />
    </linearGradient>
    <radialGradient
       inkscape:collect="always"
       xlink:href="#linearGradient5060"
       id="radialGradient3907"
       gradientUnits="userSpaceOnUse"
       gradientTransform="matrix(0.02303995,0,0,0.01470022,26.360882,36.963253)"
       cx="605.71429"
       cy="486.64789"
       fx="605.71429"
       fy="486.64789"
       r="117.14286" />
    <linearGradient
       inkscape:collect="always"
       xlink:href="#linearGradient3412"
       id="linearGradient3909"
       gradientUnits="userSpaceOnUse"
       gradientTransform="matrix(1.3333334,0,0,-1.3333334,-16.166666,70.166667)"
       x1="42.783993"
       y1="32.537422"
       x2="38.972309"
       y2="18.12406" />
    <linearGradient
       inkscape:collect="always"
       xlink:href="#linearGradient3428"
       id="linearGradient3911"
       gradientUnits="userSpaceOnUse"
       gradientTransform="matrix(1.33,0,0,-1.33,-16.064999,70.028077)"
       x1="40.105618"
       y1="31.65719"
       x2="33.811069"
       y2="18.353575" />
    <linearGradient
       inkscape:collect="always"
       xlink:href="#linearGradient3874"
       id="linearGradient3066-4"
       gradientUnits="userSpaceOnUse"
       gradientTransform="matrix(0.89030544,0,0,1.1351337,2.6033286,-4.7431742)"
       x1="23.999994"
       y1="5.9404659"
       x2="23.999994"
       y2="42.059513" />
    <radialGradient
       inkscape:collect="always"
       xlink:href="#linearGradient2867-449-88-871-390-598-476-591-434-148-57-177-8"
       id="radialGradient3060-0-5"
       gradientUnits="userSpaceOnUse"
       gradientTransform="matrix(-1.6167311e-7,6.6018651,-8.0922115,-1.9817022e-7,104.56429,-60.072946)"
       cx="7.8060555"
       cy="9.9571075"
       fx="7.2758255"
       fy="9.9571075"
       r="12.671875" />
    <linearGradient
       inkscape:collect="always"
       xlink:href="#linearGradient3977-2"
       id="linearGradient3988-1"
       gradientUnits="userSpaceOnUse"
       gradientTransform="matrix(0.89189189,0,0,1.1351351,2.5945999,-4.7432315)"
       x1="23.999994"
       y1="5.9404659"
       x2="23.999994"
       y2="42.059513" />
    <linearGradient
       id="linearGradient3977-2">
      <stop
         offset="0"
         style="stop-color:#ffffff;stop-opacity:1;"
         id="stop3979-5" />
      <stop
         id="stop3981-37"
         style="stop-color:#ffffff;stop-opacity:0.23529412;"
         offset="0.04878049" />
      <stop
         offset="0.95056331"
         style="stop-color:#ffffff;stop-opacity:0"
         id="stop3983-75" />
      <stop
         offset="1"
         style="stop-color:#000000;stop-opacity:0.04313726"
         id="stop3985-9" />
    </linearGradient>
    <linearGradient
       inkscape:collect="always"
       xlink:href="#linearGradient3927"
       id="linearGradient3322-4"
       gradientUnits="userSpaceOnUse"
       gradientTransform="matrix(0.97142633,0,0,0.93431934,0.68576677,-1.3569992)"
       x1="25.029415"
       y1="2.5226912"
       x2="25.029415"
       y2="48.545498" />
    <linearGradient
       id="linearGradient3927">
      <stop
         id="stop3929"
         offset="0"
         style="stop-color:#fbfcfd;stop-opacity:1" />
      <stop
         id="stop3931"
         offset="1"
         style="stop-color:#ebeced;stop-opacity:1" />
    </linearGradient>
    <linearGradient
       id="linearGradient3874">
      <stop
         offset="0"
         style="stop-color:#ffffff;stop-opacity:1"
         id="stop3876" />
      <stop
         offset="0.04870163"
         style="stop-color:#ffffff;stop-opacity:0.23529412"
         id="stop3878" />
      <stop
         id="stop4275"
         style="stop-color:#ffffff;stop-opacity:0"
         offset="0.95031375" />
      <stop
         offset="1"
         style="stop-color:#000000;stop-opacity:0.05882353"
         id="stop3882" />
    </linearGradient>
  </defs>
  <sodipodi:namedview
     id="base"
     pagecolor="#ffffff"
     bordercolor="#666666"
     borderopacity="1.0"
     inkscape:pageopacity="0.0"
     inkscape:pageshadow="2"
     inkscape:zoom="8"
     inkscape:cx="23.796433"
     inkscape:cy="17.126426"
     inkscape:current-layer="layer1"
     showgrid="true"
     inkscape:grid-bbox="true"
     inkscape:document-units="px"
     inkscape:window-width="1084"
     inkscape:window-height="709"
     inkscape:window-x="280"
     inkscape:window-y="35"
     inkscape:window-maximized="0"
     inkscape:snap-bbox="true"
     inkscape:bbox-paths="true"
     inkscape:bbox-nodes="true"
     inkscape:snap-bbox-edge-midpoints="true">
    <inkscape:grid
       type="xygrid"
       id="grid3852" />
  </sodipodi:namedview>
  <metadata
     id="metadata4018">
    <rdf:RDF>
      <cc:Work
         rdf:about="">
        <dc:format>image/svg+xml</dc:format>
        <dc:type
           rdf:resource="http://purl.org/dc/dcmitype/StillImage" />
        <dc:title />
      </cc:Work>
    </rdf:RDF>
  </metadata>
  <g
     id="layer1"
     inkscape:label="Layer 1"
     inkscape:groupmode="layer">
    <rect
       style="display:inline;overflow:visible;visibility:visible;opacity:0.3;fill:url(#linearGradient4011);fill-opacity:1;fill-rule:nonzero;stroke:none;stroke-width:1;marker:none"
       id="rect2879"
       y="43.429932"
       x="7.7378473"
       height="3.5700529"
       width="32.508301" />
    <path
       inkscape:connector-curvature="0"
       style="display:inline;overflow:visible;visibility:visible;opacity:0.3;fill:url(#radialGradient3330);fill-opacity:1;fill-rule:nonzero;stroke:none;stroke-width:1;marker:none"
       id="path2881"
       d="m 7.7378475,43.430102 c 0,0 0,3.569856 0,3.569856 -1.1865002,0.0067 -2.8683795,-0.799823 -2.8683795,-1.785158 0,-0.985333 1.3240446,-1.784697 2.8683795,-1.784698 z" />
    <g
       inkscape:label="Layer 1"
       id="layer1-5"
       transform="translate(0,1)">
      <g
         id="layer1-6"
         inkscape:label="Layer 1">
        <path
           inkscape:connector-curvature="0"
           style="display:inline;fill:url(#linearGradient3322-4);fill-opacity:1;stroke:none;stroke-width:0.99992186;stroke-linecap:butt;stroke-linejoin:round;stroke-miterlimit:4;stroke-dasharray:none;stroke-dashoffset:0;stroke-opacity:0.42452829"
           id="path4160-8"
           d="m 7,1.0000004 c 7.791126,0 33.99996,0.00274 33.99996,0.00274 L 41,44 C 41,44 18.333333,44 7,44 7,29.666665 7,15.333332 7,1 Z"
           sodipodi:nodetypes="ccccc" />
        <path
           style="fill:none;stroke:url(#linearGradient3988-1);stroke-width:1;stroke-linecap:round;stroke-linejoin:round;stroke-miterlimit:4;stroke-dasharray:none;stroke-dashoffset:0;stroke-opacity:1"
           d="m 40.5,43.5 -33,0 0,-41.9999999 33,0 z"
           id="rect6741-1-6"
           inkscape:connector-curvature="0"
           sodipodi:nodetypes="ccccc" />
        <path
           inkscape:connector-curvature="0"
           style="display:inline;fill:none;fill-opacity:1;stroke:#000000;stroke-width:0.99992186;stroke-linecap:butt;stroke-linejoin:round;stroke-miterlimit:4;stroke-dasharray:none;stroke-dashoffset:0;stroke-opacity:0.35294119"
           id="path4160-3"
           d="m 6.4999609,0.49996093 c 8.0202951,0 35.0000391,0.0028 35.0000391,0.0028 l 4.2e-5,44.00280307 c 0,0 -23.333387,0 -35.0000811,0 0,-14.668535 0,-29.33707 0,-44.00560407 z"
           sodipodi:nodetypes="ccccc" />
      </g>
      <path
         d="m 11.99515,44.495152 c -1.754361,0 -3.5087232,0 -5.2630934,0 C 6.3056432,43.974283 6.6298943,42.94015 6.528578,42.202761 c 0,-13.81505 0,-27.630098 0,-41.44514257 l 0.059468,-0.17889705 0.1440101,-0.0738717 0,0 c 1.8259354,0 3.3655929,0 5.1915199,0"
         id="path4530-0"
         style="color:#000000;display:inline;overflow:visible;visibility:visible;fill:url(#radialGradient3060-0-5);fill-opacity:1;fill-rule:nonzero;stroke:#00284f;stroke-width:1;stroke-linecap:butt;stroke-linejoin:round;stroke-miterlimit:4;stroke-dasharray:none;stroke-dashoffset:0;stroke-opacity:0.39215686;marker:none;enable-background:accumulate"
         inkscape:connector-curvature="0" />
      <path
         d="m 15,8.500001 2.34375,0 -2.34375,0 z m 2.6875,0 2.1875,0 -2.1875,0 z m 2.53125,0 1.9375,0 -1.9375,0 z m 2.25,0 0.84375,0 -0.84375,0 z m 1.1875,0 1.875,0 -1.875,0 z m 2.25,0 4.9375,0 -4.9375,0 z m 5.25,0 3.78125,0 -3.78125,0 z m -16.15625,2 3.65625,0 -3.65625,0 z m 4.0625,0 1.75,0 -1.75,0 z m 2.0625,0 0.875,0 -0.875,0 z m 1.21875,0 1.59375,0 -1.59375,0 z m 1.9375,0 1.625,0 -1.625,0 z m 1.9375,0 2.59375,0 -2.59375,0 z m 2.9375,0 3.375,0 -3.375,0 z m 3.6875,0 2.25,0 -2.25,0 z m 2.5625,0 0.5625,0 -0.5625,0 z M 15,12.46875 l 3.09375,0 -3.09375,0 z m 3.40625,0 5.0625,0 -5.0625,0 z m 5.375,0 2.46875,0 -2.46875,0 z m 2.78125,0 2.3125,0 -2.3125,0 z m 2.625,0 1.96875,0 -1.96875,0 z m 2.28125,0 L 34.5625,12.5 31.46875,12.46875 Z m 3.375,0.03125 0,0 z M 15,14.5 19.28125,14.5 15,14.5 Z m 4.625,0 4.625,0 -4.625,0 z m 4.9375,0 1.84375,0 -1.84375,0 z m 2.15625,0 4.34375,0 -4.34375,0 z m 4.625,0 2.96875,0 -2.96875,0 z m 3.3125,0 1.1875,0 -1.1875,0 z M 15,16.5 16.59375,16.5 15,16.5 Z m 2.09375,0 5.90625,0 -5.90625,0 z M 15,20.46875 l 3.09375,0 -3.09375,0 z m 3.40625,0 5.0625,0 -5.0625,0 z m 5.375,0 2.46875,0 -2.46875,0 z m 2.78125,0 2.3125,0 -2.3125,0 z m 2.625,0 1.96875,0 -1.96875,0 z m 2.28125,0 L 34.5625,20.5 31.46875,20.46875 Z m 3.375,0.03125 0,0 z M 15,22.5 17.34375,22.5 15,22.5 Z m 2.6875,0 2.15625,0 -2.15625,0 z m 2.53125,0 1.9375,0 -1.9375,0 z m 2.25,0 0.84375,0 -0.84375,0 z m 1.1875,0 1.875,0 -1.875,0 z m 2.25,0 4.90625,0 -4.90625,0 z m 5.25,0 3.75,0 -3.75,0 z m 4.0625,0 1.1875,0 -1.1875,0 z M 15,24.5 l 3.9375,0 -3.9375,0 z m 4.25,0 4.21875,0 -4.21875,0 z m 4.53125,0 1.625,0 -1.625,0 z m 1.9375,0 3.96875,0 -3.96875,0 z m 4.28125,0 5,0 -5,0 z m 5.34375,0 1.84375,0 -1.84375,0 z M 15,26.5 19.28125,26.5 15,26.5 Z m 4.625,0 4.625,0 -4.625,0 z m 4.9375,0 1.84375,0 -1.84375,0 z m 2.15625,0 4.34375,0 -4.34375,0 z m 4.625,0 2.96875,0 -2.96875,0 z m 3.3125,0 1.1875,0 -1.1875,0 z M 15,28.5 18.65625,28.5 15,28.5 Z m 4.0625,0 1.75,0 -1.75,0 z m 2.0625,0 0.875,0 -0.875,0 z m 1.21875,0 1.59375,0 -1.59375,0 z m 1.9375,0 1.625,0 -1.625,0 z m 1.9375,0 2.59375,0 -2.59375,0 z m 2.9375,0 3.375,0 -3.375,0 z m 3.6875,0 2.25,0 -2.25,0 z m 2.5625,0 0.5625,0 -0.5625,0 z M 15,32.46875 l 3.09375,0 -3.09375,0 z m 3.40625,0 5.0625,0 -5.0625,0 z m 5.375,0 2.46875,0 -2.46875,0 z m 2.78125,0 2.3125,0 -2.3125,0 z m 2.625,0 1.96875,0 -1.96875,0 z m 2.28125,0 L 34.5625,32.5 31.46875,32.46875 Z m 3.375,0.03125 0,0 z M 15,34.5 18.65625,34.5 15,34.5 Z m 4.0625,0 1.75,0 -1.75,0 z m 2.0625,0 0.875,0 -0.875,0 z m 1.21875,0 1.59375,0 -1.59375,0 z m 1.9375,0 1.625,0 -1.625,0 z m 1.9375,0 2.59375,0 -2.59375,0 z m 2.9375,0 3.375,0 -3.375,0 z m 3.6875,0 2.25,0 -2.25,0 z m 2.5625,0 0.5625,0 -0.5625,0 z M 15,36.5 l 3.875,0 -3.875,0 z m 4.21875,0 1.21875,0 -1.21875,0 z m 1.53125,0 2.78125,0 -2.78125,0 z m 3.09375,0 4.09375,0 -4.09375,0 z m 4.4375,0 2.78125,0 -2.78125,0 z m 3.0625,0 0.59375,0 -0.59375,0 z m 0.90625,0 3.53125,0 -3.53125,0 z m -17.25,2 3.875,0 -3.875,0 z m 4.21875,0 1.75,0 -1.75,0 z m 2.0625,0 2.75,0 -2.75,0 z m 3.0625,0 2.96875,0 -2.96875,0 z m 3.3125,0 1.1875,0 -1.1875,0 z m 1.5,0 0.65625,0 -0.65625,0 z m 1,0 1.84375,0 -1.84375,0 z"
         id="path3475-8"
         style="fill:none;stroke:#000000;stroke-width:1px;stroke-linecap:butt;stroke-linejoin:miter;stroke-opacity:0.39215686"
         inkscape:connector-curvature="0" />
      <path
         sodipodi:nodetypes="cccc"
         inkscape:connector-curvature="0"
         id="rect6741-1-5-9"
         d="m 11.492888,43.5 -3.9928848,0 0,-41.99995 3.9929968,0"
         style="opacity:0.5;fill:none;stroke:url(#linearGradient3066-4);stroke-width:1;stroke-linecap:round;stroke-linejoin:round;stroke-miterlimit:4;stroke-dasharray:none;stroke-dashoffset:0;stroke-opacity:1" />
    </g>
    <g
       id="g3896"
       transform="translate(-2.000001,1)">
      <path
         d="m 40.246148,42.353179 c 0,0 0,3.569856 0,3.569856 1.1865,0.0067 2.86838,-0.799823 2.86838,-1.785158 0,-0.985333 -1.324045,-1.784697 -2.86838,-1.784698 z"
         id="path2883"
         style="display:inline;overflow:visible;visibility:visible;opacity:0.3;fill:url(#radialGradient3907);fill-opacity:1;fill-rule:nonzero;stroke:none;stroke-width:1;marker:none"
         inkscape:connector-curvature="0" />
      <path
         style="opacity:0.8;fill:url(#linearGradient3909);fill-opacity:1;fill-rule:evenodd;stroke:#83899a;stroke-width:1;stroke-linecap:butt;stroke-linejoin:miter;stroke-miterlimit:4;stroke-dasharray:none;stroke-opacity:1"
         id="path3410"
         d="m 24.500001,45.5 20.000001,-20.000001 0,20.000001 -20.000001,0 z m 9.333333,-4.000001 6.666667,0 0,-6.666666 -6.666667,6.666666 z"
         inkscape:connector-curvature="0" />
      <path
         style="opacity:0.4;fill:none;stroke:url(#linearGradient3911);stroke-width:1;stroke-linecap:butt;stroke-linejoin:miter;stroke-miterlimit:4;stroke-dasharray:none;stroke-opacity:1"
         id="path3424"
         d="m 27.450938,44.217765 15.79375,-15.793751 0,15.793751 -15.79375,0 z"
         inkscape:connector-curvature="0" />
      <path
         inkscape:connector-curvature="0"
         id="path3082"
         d="M 29.5,44.346154 29.5,45.5"
         style="opacity:0.6;fill:none;stroke:#83899a;stroke-width:1px;stroke-linecap:square;stroke-linejoin:miter;stroke-opacity:1" />
      <path
         style="opacity:0.6;fill:none;stroke:#83899a;stroke-width:1px;stroke-linecap:square;stroke-linejoin:miter;stroke-opacity:1"
         d="M 34.5,44.346154 34.5,45.5"
         id="path3854"
         inkscape:connector-curvature="0" />
      <path
         inkscape:connector-curvature="0"
         id="path3856"
         d="M 39.5,44.346154 39.5,45.5"
         style="opacity:0.6;fill:none;stroke:#83899a;stroke-width:1px;stroke-linecap:square;stroke-linejoin:miter;stroke-opacity:1" />
      <path
         style="opacity:0.6;fill:none;stroke:#83899a;stroke-width:1px;stroke-linecap:square;stroke-linejoin:miter;stroke-opacity:1"
         d="m 44.50049,35.423077 -1.00049,0"
         id="path3858"
         inkscape:connector-curvature="0" />
      <path
         inkscape:connector-curvature="0"
         id="path3860"
         d="m 44.50049,40.423077 -1.00049,0"
         style="opacity:0.6;fill:none;stroke:#83899a;stroke-width:1px;stroke-linecap:square;stroke-linejoin:miter;stroke-opacity:1" />
      <path
         style="opacity:0.6;fill:none;stroke:#83899a;stroke-width:1px;stroke-linecap:square;stroke-linejoin:miter;stroke-opacity:1"
         d="m 44.50049,30.423077 -1.00049,0"
         id="path3862"
         inkscape:connector-curvature="0" />
    </g>
  </g>
</svg>
