<?xml version="1.0" encoding="UTF-8" standalone="no"?>
<!-- Created with Inkscape (http://www.inkscape.org/) -->

<svg
   xmlns:dc="http://purl.org/dc/elements/1.1/"
   xmlns:cc="http://creativecommons.org/ns#"
   xmlns:rdf="http://www.w3.org/1999/02/22-rdf-syntax-ns#"
   xmlns:svg="http://www.w3.org/2000/svg"
   xmlns="http://www.w3.org/2000/svg"
   xmlns:xlink="http://www.w3.org/1999/xlink"
   xmlns:sodipodi="http://sodipodi.sourceforge.net/DTD/sodipodi-0.dtd"
   xmlns:inkscape="http://www.inkscape.org/namespaces/inkscape"
   version="1.1"
   width="32"
   height="32"
   id="svg4248"
   inkscape:version="0.91 r13725"
   sodipodi:docname="system-restart.svg">
  <sodipodi:namedview
     pagecolor="#ffffff"
     bordercolor="#666666"
     borderopacity="1"
     objecttolerance="10"
     gridtolerance="10"
     guidetolerance="10"
     inkscape:pageopacity="0"
     inkscape:pageshadow="2"
     inkscape:window-width="1366"
     inkscape:window-height="718"
     id="namedview109"
     showgrid="false"
     inkscape:zoom="1"
     inkscape:cx="14.742762"
     inkscape:cy="-0.90780257"
     inkscape:window-x="0"
     inkscape:window-y="25"
     inkscape:window-maximized="1"
     inkscape:current-layer="svg4248"
     inkscape:snap-bbox="true"
     inkscape:bbox-paths="true"
     inkscape:bbox-nodes="true"
     inkscape:snap-bbox-edge-midpoints="false">
    <inkscape:grid
       type="xygrid"
       id="grid4005" />
  </sodipodi:namedview>
  <defs
     id="defs4250">
    <linearGradient
       id="linearGradient4011-4">
      <stop
         id="stop4013-8"
         style="stop-color:#ffffff;stop-opacity:1"
         offset="0" />
      <stop
         id="stop4015-5"
         style="stop-color:#ffffff;stop-opacity:0.23529412"
         offset="0.507761" />
      <stop
         id="stop4017-6"
         style="stop-color:#ffffff;stop-opacity:0.15686275"
         offset="0.83456558" />
      <stop
         id="stop4019-1"
         style="stop-color:#ffffff;stop-opacity:0.39215687"
         offset="1" />
    </linearGradient>
    <linearGradient
       x1="71.204407"
       y1="6.2375584"
       x2="71.204407"
       y2="44.340794"
       id="linearGradient3089"
       xlink:href="#linearGradient4011-4"
       gradientUnits="userSpaceOnUse"
       gradientTransform="matrix(0.72972969,0,0,0.72972969,-36.346075,-2.5039314)" />
    <linearGradient
       id="linearGradient3820-7-2-2">
      <stop
         id="stop3822-2-6-36"
         style="stop-color:#3d3d3d;stop-opacity:1"
         offset="0" />
      <stop
         id="stop3864-8-7-6"
         style="stop-color:#686868;stop-opacity:0.49803922"
         offset="0.5" />
      <stop
         id="stop3824-1-2-4"
         style="stop-color:#686868;stop-opacity:0"
         offset="1" />
    </linearGradient>
    <radialGradient
       cx="99.157013"
       cy="186.17059"
       r="62.769119"
       fx="99.157013"
       fy="186.17059"
       id="radialGradient3315"
       xlink:href="#linearGradient3820-7-2-2"
       gradientUnits="userSpaceOnUse"
       gradientTransform="matrix(0.17524541,0,0,0.05575992,-1.3768101,18.118568)" />
    <linearGradient
       inkscape:collect="always"
       xlink:href="#linearGradient4215-4"
       id="linearGradient3163-1"
       gradientUnits="userSpaceOnUse"
       gradientTransform="matrix(0.57422969,0,0,0.57422969,-2.3753495,-3.52381)"
       x1="38.976662"
       y1="59.967686"
       x2="38.976662"
       y2="8.0928917" />
    <linearGradient
       id="linearGradient4215-4">
      <stop
         offset="0"
         style="stop-color:#dcdcdc;stop-opacity:1"
         id="stop4217-9" />
      <stop
         offset="1"
         style="stop-color:#f0f0f0;stop-opacity:1"
         id="stop4219-7" />
    </linearGradient>
    <linearGradient
       id="outerBackgroundGradient">
      <stop
         id="stop3864-8-6"
         offset="0"
         style="stop-color:#a5a5a5;stop-opacity:1;" />
      <stop
         id="stop3866-9-1"
         offset="1"
         style="stop-color:#d1d1d1;stop-opacity:1;" />
    </linearGradient>
    <linearGradient
       gradientTransform="matrix(0.06666667,0,0,0.06666667,414.4,137.33333)"
       y2="40.00005"
       x2="264"
       y1="280.00003"
       x1="264"
       gradientUnits="userSpaceOnUse"
       id="linearGradient4097"
       xlink:href="#outerBackgroundGradient"
       inkscape:collect="always" />
    <linearGradient
       y2="28.571428"
       x2="286.85715"
       y1="302.85715"
       x1="286.85715"
       gradientTransform="matrix(0.0875,0,0,0.0875,414.9,97.5)"
       gradientUnits="userSpaceOnUse"
       id="linearGradient4101"
       xlink:href="#outerBackgroundGradient"
       inkscape:collect="always" />
    <linearGradient
       y2="31.61907"
       x2="283.80957"
       y1="299.80954"
       x1="283.80957"
       gradientTransform="matrix(0.11931818,0,0,0.11931818,414.13636,48.22727)"
       gradientUnits="userSpaceOnUse"
       id="linearGradient4153"
       xlink:href="#outerBackgroundGradient"
       inkscape:collect="always" />
    <linearGradient
       y2="22.857315"
       x2="281.14291"
       y1="297.14304"
       x1="281.14291"
       gradientTransform="matrix(0.175,0,0,-0.175,286.79999,-215.99997)"
       gradientUnits="userSpaceOnUse"
       id="linearGradient4869"
       xlink:href="#outerBackgroundGradient"
       inkscape:collect="always" />
    <clipPath
       id="clipPath4891"
       clipPathUnits="userSpaceOnUse">
      <rect
         transform="matrix(0,1,-1,0,0,0)"
         style="color:#bebebe;fill:url(#linearGradient4895);fill-opacity:1;fill-rule:nonzero;stroke:none;stroke-width:0;marker:none;visibility:visible;display:inline;overflow:visible;enable-background:accumulate"
         id="rect4893"
         width="42"
         height="42"
         x="307"
         y="223"
         ry="9" />
    </clipPath>
    <linearGradient
       y2="40.000172"
       x2="144.00006"
       y1="280.00018"
       x1="144.00006"
       gradientTransform="matrix(0.175,0,0,0.175,302.79999,215.99997)"
       gradientUnits="userSpaceOnUse"
       id="linearGradient4895"
       xlink:href="#outerBackgroundGradient"
       inkscape:collect="always" />
    <clipPath
       id="clipPath4044"
       clipPathUnits="userSpaceOnUse">
      <rect
         style="color:#bebebe;fill:url(#linearGradient4048);fill-opacity:1;fill-rule:nonzero;stroke:none;stroke-width:0;marker:none;visibility:visible;display:inline;overflow:visible;enable-background:accumulate"
         id="rect4046"
         width="22"
         height="22"
         x="433"
         y="85"
         ry="4" />
    </clipPath>
    <linearGradient
       y2="40.000046"
       x2="149.71428"
       y1="291.42862"
       x1="149.71428"
       gradientTransform="matrix(0.0875,0,0,0.0875,430.9,81.499996)"
       gradientUnits="userSpaceOnUse"
       id="linearGradient4048"
       xlink:href="#outerBackgroundGradient"
       inkscape:collect="always" />
    <clipPath
       id="clipPath4089"
       clipPathUnits="userSpaceOnUse">
      <rect
         ry="6"
         y="37"
         x="433"
         height="30"
         width="30"
         id="rect4091"
         style="color:#bebebe;fill:url(#linearGradient4093);fill-opacity:1;fill-rule:nonzero;stroke:none;stroke-width:0;marker:none;visibility:visible;display:inline;overflow:visible;enable-background:accumulate" />
    </clipPath>
    <linearGradient
       y2="40.00005"
       x2="149.71432"
       y1="291.42862"
       x1="149.71432"
       gradientTransform="matrix(0.11931818,0,0,0.11931818,430.13636,32.227267)"
       gradientUnits="userSpaceOnUse"
       id="linearGradient4093"
       xlink:href="#outerBackgroundGradient"
       inkscape:collect="always" />
    <clipPath
       id="clipPath3855"
       clipPathUnits="userSpaceOnUse">
      <rect
         transform="matrix(0,1,-1,0,0,0)"
         ry="3"
         y="212"
         x="304"
         height="16"
         width="16"
         id="rect3857"
         style="color:#bebebe;fill:url(#linearGradient3859);fill-opacity:1;fill-rule:nonzero;stroke:none;stroke-width:0;marker:none;visibility:visible;display:inline;overflow:visible;enable-background:accumulate" />
    </clipPath>
    <linearGradient
       y2="40.00005"
       x2="144"
       y1="280.00003"
       x1="144"
       gradientTransform="matrix(0.06666667,0,0,0.06666667,302.4,209.33333)"
       gradientUnits="userSpaceOnUse"
       id="linearGradient3859"
       xlink:href="#outerBackgroundGradient"
       inkscape:collect="always" />
    <clipPath
       id="clipPath3862"
       clipPathUnits="userSpaceOnUse">
      <rect
         style="color:#bebebe;fill:url(#linearGradient3866);fill-opacity:1;fill-rule:nonzero;stroke:none;stroke-width:0;marker:none;visibility:visible;display:inline;overflow:visible;enable-background:accumulate"
         id="rect3864"
         width="220"
         height="220"
         x="34"
         y="46"
         ry="50" />
    </clipPath>
    <linearGradient
       y2="40"
       x2="144"
       y1="280"
       x1="144"
       gradientTransform="translate(0,-4)"
       gradientUnits="userSpaceOnUse"
       id="linearGradient3866"
       xlink:href="#outerBackgroundGradient"
       inkscape:collect="always" />
    <linearGradient
       y2="32"
       x2="272"
       y1="288"
       x1="272"
       gradientTransform="translate(0,-4)"
       gradientUnits="userSpaceOnUse"
       id="linearGradient3876"
       xlink:href="#outerBackgroundGradient"
       inkscape:collect="always" />
    <clipPath
       id="clipPath4187"
       clipPathUnits="userSpaceOnUse">
      <rect
         style="color:#bebebe;fill:url(#linearGradient4191);fill-opacity:1;fill-rule:nonzero;stroke:none;stroke-width:0;marker:none;visibility:visible;display:inline;overflow:visible;enable-background:accumulate"
         id="rect4189"
         width="60"
         height="60"
         x="290"
         y="142"
         ry="12.5" />
    </clipPath>
    <linearGradient
       y2="140"
       x2="352"
       y1="204"
       x1="352"
       gradientUnits="userSpaceOnUse"
       id="linearGradient4191"
       xlink:href="#outerBackgroundGradient"
       inkscape:collect="always" />
    <linearGradient
       y2="28"
       x2="384"
       y1="124"
       x1="384"
       gradientUnits="userSpaceOnUse"
       id="linearGradient4197"
       xlink:href="#outerBackgroundGradient"
       inkscape:collect="always" />
    <clipPath
       id="clipPath4346"
       clipPathUnits="userSpaceOnUse">
      <rect
         ry="18"
         y="32"
         x="292"
         height="88"
         width="88"
         id="rect4348"
         style="color:#bebebe;fill:url(#linearGradient4197);fill-opacity:1;fill-rule:nonzero;stroke:none;stroke-width:0;marker:none;visibility:visible;display:inline;overflow:visible;enable-background:accumulate" />
    </clipPath>
    <clipPath
       id="clipPath3871"
       clipPathUnits="userSpaceOnUse">
      <rect
         style="color:#bebebe;fill:url(#linearGradient4101);fill-opacity:1;fill-rule:nonzero;stroke:none;stroke-width:0;marker:none;visibility:visible;display:inline;overflow:visible;enable-background:accumulate"
         id="rect3873"
         width="22"
         height="22"
         x="417"
         y="101"
         ry="5" />
    </clipPath>
    <clipPath
       id="clipPath3881"
       clipPathUnits="userSpaceOnUse">
      <rect
         ry="7"
         y="53"
         x="417"
         height="30"
         width="30"
         id="rect3883"
         style="color:#bebebe;fill:url(#linearGradient4153);fill-opacity:1;fill-rule:nonzero;stroke:none;stroke-width:0;marker:none;visibility:visible;display:inline;overflow:visible;enable-background:accumulate" />
    </clipPath>
    <linearGradient
       gradientTransform="matrix(0,-1,1,0,316,540)"
       gradientUnits="userSpaceOnUse"
       y2="112"
       x2="438"
       y1="112"
       x1="418"
       id="linearGradient4258"
       xlink:href="#outerBackgroundGradient"
       inkscape:collect="always" />
    <linearGradient
       y2="40.000008"
       x2="144"
       y1="280"
       x1="144"
       gradientTransform="matrix(0.375,0,0,0.375,14,172)"
       gradientUnits="userSpaceOnUse"
       id="linearGradient4865"
       xlink:href="#outerBackgroundGradient-1"
       inkscape:collect="always" />
    <linearGradient
       id="outerBackgroundGradient-1">
      <stop
         id="stop3864-8-6-2"
         offset="0"
         style="stop-color:#989898;stop-opacity:1;" />
      <stop
         id="stop3866-9-1-5"
         offset="1"
         style="stop-color:#c3c3c3;stop-opacity:1;" />
    </linearGradient>
    <clipPath
       id="clipPath4610"
       clipPathUnits="userSpaceOnUse">
      <path
         inkscape:connector-curvature="0"
         style="color:#bebebe;fill:url(#linearGradient4614);fill-opacity:1;fill-rule:nonzero;stroke:none;stroke-width:2;marker:none;visibility:visible;display:inline;overflow:visible;enable-background:accumulate"
         d="m 75.448164,-5.3337819 c 12.658277,0 22.841991,10.1837123 22.841991,22.8419899 l 0,55.374522 c 0,12.658279 -10.183714,22.841991 -22.841991,22.841991 l -55.374521,0 c -12.6582793,0 -22.8419907,-10.183712 -22.8419907,-22.841991 l 0,-55.374522 c 0,-12.6582776 10.1837114,-22.8419899 22.8419907,-22.8419899 l 55.374521,0 z"
         id="path4612" />
    </clipPath>
    <linearGradient
       y2="156"
       x2="253"
       y1="156"
       x1="35"
       gradientTransform="matrix(0,-0.46145435,-0.46145435,0,119.74778,111.6449)"
       gradientUnits="userSpaceOnUse"
       id="linearGradient4614"
       xlink:href="#outerBackgroundGradient"
       inkscape:collect="always" />
    <linearGradient
       y2="8.0928917"
       x2="38.976662"
       y1="59.967686"
       x1="38.976662"
       gradientTransform="matrix(0.80392158,0,0,0.80392158,-1.72549,-2.3658945)"
       gradientUnits="userSpaceOnUse"
       id="linearGradient3024"
       xlink:href="#linearGradient4215-4"
       inkscape:collect="always" />
    <linearGradient
       inkscape:collect="always"
       xlink:href="#linearGradient4215-4"
       id="linearGradient3849"
       gradientUnits="userSpaceOnUse"
       gradientTransform="matrix(0.80392158,0,0,0.80392158,664.41073,262.76717)"
       x1="38.976662"
       y1="59.967686"
       x2="38.976662"
       y2="8.0928917" />
    <clipPath
       id="clipPath4806"
       clipPathUnits="userSpaceOnUse">
      <path
         inkscape:connector-curvature="0"
         style="color:#bebebe;fill:#bf5454;fill-opacity:1;fill-rule:nonzero;stroke:none;stroke-width:2;marker:none;visibility:visible;display:inline;overflow:visible;enable-background:accumulate"
         d="m 543.90196,-171.40732 c -27.43127,0 -49.5,22.06873 -49.5,49.5 l 0,120 c 0,27.43127 22.06873,49.5 49.5,49.5 l 120,0 c 27.43127,0 49.5,-22.06873 49.5,-49.5 l 0,-120 c 0,-27.43127 -22.06873,-49.5 -49.5,-49.5 l -120,0 z"
         id="path4808" />
    </clipPath>
    <clipPath
       id="clipPath4812"
       clipPathUnits="userSpaceOnUse">
      <path
         inkscape:connector-curvature="0"
         style="color:#bebebe;fill:#bf5454;fill-opacity:1;fill-rule:nonzero;stroke:none;stroke-width:2;marker:none;visibility:visible;display:inline;overflow:visible;enable-background:accumulate"
         d="m 547.65198,-156.00108 c -22.10302,0 -39.84375,17.74073 -39.84375,39.84375 l 0,112.5000018 c 0,22.1030162 17.74073,39.8437502 39.84375,39.8437502 l 112.5,0 c 22.10302,0 39.84375,-17.740734 39.84375,-39.8437502 l 0,-112.5000018 c 0,-22.10302 -17.74073,-39.84375 -39.84375,-39.84375 l -112.5,0 z"
         id="path4814" />
    </clipPath>
    <clipPath
       id="clipPath4840"
       clipPathUnits="userSpaceOnUse">
      <path
         inkscape:connector-curvature="0"
         style="color:#bebebe;fill:#bf5454;fill-opacity:1;fill-rule:nonzero;stroke:none;stroke-width:2;marker:none;visibility:visible;display:inline;overflow:visible;enable-background:accumulate"
         d="m 538.90196,-168.65732 c -24.25637,0 -43.75,19.49363 -43.75,43.75 l 0,130.0000025 c 0,24.2563755 19.49363,43.7500005 43.75,43.7500005 l 130,0 c 24.25637,0 43.75,-19.493625 43.75,-43.7500005 l 0,-130.0000025 c 0,-24.25637 -19.49363,-43.75 -43.75,-43.75 l -130,0 z"
         id="path4842" />
    </clipPath>
    <clipPath
       id="clipPath4888"
       clipPathUnits="userSpaceOnUse">
      <path
         inkscape:connector-curvature="0"
         style="color:#bebebe;fill:#bf5454;fill-opacity:1;fill-rule:nonzero;stroke:none;stroke-width:2;marker:none;visibility:visible;display:inline;overflow:visible;enable-background:accumulate"
         d="m 541.402,-166.15737 c -17.305,0 -31.25,13.945 -31.25,31.25 l 0,124.999995 c 0,17.305 13.945,31.25 31.25,31.25 l 125,0 c 17.305,0 31.25,-13.945 31.25,-31.25 l 0,-124.999995 c 0,-17.305 -13.945,-31.25 -31.25,-31.25 l -125,0 z"
         id="path4890" />
    </clipPath>
    <clipPath
       id="clipPath4894"
       clipPathUnits="userSpaceOnUse">
      <path
         inkscape:connector-curvature="0"
         style="color:#bebebe;fill:#bf5454;fill-opacity:1;fill-rule:nonzero;stroke:none;stroke-width:2;marker:none;visibility:visible;display:inline;overflow:visible;enable-background:accumulate"
         d="m 543.902,-164.9073 c -24.9699,0 -45,20.0301 -45,45 l 0,120 c 0,24.9699 20.0301,45 45,45 l 120,0 c 24.9699,0 45,-20.0301 45,-45 l 0,-120 c 0,-24.9699 -20.0301,-45 -45,-45 l -120,0 z"
         id="path4896" />
    </clipPath>
    <clipPath
       id="clipPath4900"
       clipPathUnits="userSpaceOnUse">
      <path
         inkscape:connector-curvature="0"
         style="color:#bebebe;fill:#bf5454;fill-opacity:1;fill-rule:nonzero;stroke:none;stroke-width:2;marker:none;visibility:visible;display:inline;overflow:visible;enable-background:accumulate"
         d="m 543.90196,-164.90732 c -27.04905,0 -48.75,21.70098 -48.75,48.75 l 0,120.0000051 c 0,27.0490209 21.70095,48.7500009 48.75,48.7500009 l 120.00001,0 c 27.04905,0 48.75,-21.70098 48.75,-48.7500009 l 0,-120.0000051 c 0,-27.04902 -21.70095,-48.75 -48.75,-48.75 l -120.00001,0 z"
         id="path4902" />
    </clipPath>
    <clipPath
       id="clipPath4906"
       clipPathUnits="userSpaceOnUse">
      <path
         inkscape:connector-curvature="0"
         style="color:#bebebe;fill:#bf5454;fill-opacity:1;fill-rule:nonzero;stroke:none;stroke-width:2;marker:none;visibility:visible;display:inline;overflow:visible;enable-background:accumulate"
         d="m 537.05819,-167.62264 c -24.95632,0 -45,20.04368 -45,45 l 0,131.2500024 c 0,24.9563246 20.04368,44.9999996 45,44.9999996 l 131.25,0 c 24.95633,0 45,-20.043675 45,-44.9999996 l 0,-131.2500024 c 0,-24.95632 -20.04367,-45 -45,-45 l -131.25,0 z"
         id="path4908" />
    </clipPath>
  </defs>
  <metadata
     id="metadata4253">
    <rdf:RDF>
      <cc:Work
         rdf:about="">
        <dc:format>image/svg+xml</dc:format>
        <dc:type
           rdf:resource="http://purl.org/dc/dcmitype/StillImage" />
        <dc:title></dc:title>
      </cc:Work>
    </rdf:RDF>
  </metadata>
  <path
     d="m 27.000001,28.499422 a 11,3.4999999 0 1 1 -21.9999997,0 11,3.4999999 0 1 1 21.9999997,0 z"
     id="path3818-0-2"
     style="fill:url(#radialGradient3315);fill-opacity:1;stroke:none" />
  <path
     d="M 16.000002,1.4999989 C 7.9994024,1.4999989 1.5,7.9993978 1.5,15.999998 1.5,24.0006 7.9994024,30.500002 16.000002,30.5 24.000599,30.5 30.500007,24.0006 30.5,15.999998 30.5,7.9993978 24.000599,1.4999989 16.000002,1.4999989 z"
     id="path2555"
     style="color:#000000;fill:url(#linearGradient3163-1);fill-opacity:1;fill-rule:nonzero;stroke:none;stroke-width:0.71428572999999995;marker:none;visibility:visible;display:inline;overflow:visible;enable-background:accumulate;stroke-linecap:round;stroke-linejoin:round;stroke-miterlimit:4;stroke-opacity:1;stroke-dasharray:none;stroke-dashoffset:0" />
  <path
     d="M 16.000002,1.4999989 C 7.999402,1.4999989 1.5,7.9993981 1.5,15.999999 1.5,24.000599 7.999402,30.500002 16.000002,30.5 24.000598,30.5 30.500008,24.000599 30.5,15.999999 30.5,7.9993981 24.000598,1.4999989 16.000002,1.4999989 z"
     id="path2555-6"
     style="opacity:0.50000000000000000;color:#000000;fill:#000000;fill-opacity:0;fill-rule:nonzero;stroke:#000000;stroke-width:1;stroke-linecap:round;stroke-linejoin:round;stroke-miterlimit:4;stroke-opacity:1;stroke-dasharray:none;stroke-dashoffset:0;marker:none;visibility:visible;display:inline;overflow:visible;enable-background:accumulate" />
  <path
     d="m 16,1.9994222 c -2.172577,0 -4.23659,0.4970929 -6.072499,1.3825 l 5.25,11.1299988 -9.17,-8.329999 c -2.482975,2.5270991 -4.0075,5.999783 -4.0075,9.817499 0,1.00944 0.111451,1.990833 0.315,2.94 L 16.14,15.369421 15.9125,15.176922 24.8375,5.1494221 C 22.426694,3.1839039 19.34878,1.9994222 16,1.9994222 z m 13.4925,10.2549998 -13.755,3.29 0.0525,0.035 -11.9525,7.349999 c 2.412363,4.222415 6.9571,7.070002 12.162499,7.07 0.394521,0 0.786185,-0.0204 1.1725,-0.0525 -0.503219,-5.765292 -1.242755,-14.087014 -1.259999,-14.28 l 11.112499,8.9425 C 28.88491,22.23273 30,19.247212 29.999998,15.99942 c 0,-1.295834 -0.177101,-2.553523 -0.5075,-3.745 z"
     inkscape:connector-curvature="0"
     id="path4004"
     style="fill:#000000;fill-opacity:0.04255317;stroke:none" />
  <path
     d="m 16,1.9994222 c -1.683974,0 -3.298784,0.3110525 -4.794999,0.8575 l 3.9725,11.6549988 -10.2025,-7.1399989 c -1.864952,2.378405 -2.975,5.3748379 -2.975,8.6274989 0,0.66997 0.04874,1.332484 0.14,1.9775 L 16.14,15.369421 15.9125,15.176922 23.7,4.3269221 C 21.488822,2.8646452 18.846017,1.9994222 16,1.9994222 z m 13.7375,11.3224988 -14,2.222501 0.0525,0.035 -11.0075,8.785 c 2.55444,3.414418 6.630949,5.635001 11.217499,5.634999 0.111802,0 0.221322,0.0026 0.332501,0 -0.166772,-5.813509 -0.402829,-14.140324 -0.42,-14.332498 l 11.619999,8.242499 c 1.5494,-2.252867 2.467502,-4.972636 2.4675,-7.91 0,-0.916541 -0.09388,-1.809829 -0.2625,-2.677499 z"
     inkscape:connector-curvature="0"
     id="path4004-0"
     style="fill:#000000;fill-opacity:0.04787233;stroke:none" />
  <path
     d="m 16,1.9994222 c -1.270691,0 -2.50423,0.1718724 -3.675,0.49 L 15.86,15.334421 22.4575,3.5919222 C 20.523786,2.5826549 18.32981,1.9994222 16,1.9994222 z M 4.082501,8.6494221 c -1.320082,2.1357569 -2.0825,4.6578829 -2.0825,7.3499989 0,0.323816 0.0133,0.644134 0.035,0.962501 l 13.895,-1.540001 -11.8475,-6.7724999 z m 25.829998,5.7574989 -13.964999,0.84 12.057499,7.9625 c 1.267118,-2.105147 1.995003,-4.576906 1.995001,-7.21 0,-0.537016 -0.02846,-1.071115 -0.0875,-1.5925 z M 16.0175,15.351921 6.112501,25.92192 c 2.440078,2.431498 5.781705,3.950407 9.467499,4.060001 l 0.4375,-14.63 z"
     inkscape:connector-curvature="0"
     id="path3893-7"
     style="fill:#000000;fill-opacity:0.05851063;stroke:none" />
  <path
     d="m 16,1.9994222 c -0.767243,0 -1.523582,0.055916 -2.257499,0.175 L 15.86,15.334421 21.075,2.9619222 C 19.500166,2.347571 17.790741,1.9994222 16,1.9994222 z M 3.435001,9.8219221 c -0.886174,1.7983239 -1.40073,3.8199129 -1.435,5.9499989 L 15.93,15.421921 3.435001,9.8219221 z m 12.512499,5.4249999 12.53,7.104999 c 0.973101,-1.906317 1.522501,-4.067706 1.5225,-6.3525 0,-0.194323 -0.0096,-0.385088 -0.0175,-0.5775 L 15.947499,15.246922 z m 0.07,0.105 -8.102499,12.057499 c 1.969442,1.399623 4.303045,2.313963 6.842499,2.5375 l 1.26,-14.595 z"
     inkscape:connector-curvature="0"
     id="path3893-7-5"
     style="fill:#000000;fill-opacity:0.06382979;stroke:none" />
  <path
     d="m 16,1.9994222 c -0.353097,0 -0.70342,0.00924 -1.05,0.035 L 15.86,15.334421 19.395,2.4194222 c -1.087042,-0.271317 -2.224629,-0.42 -3.395,-0.42 z M 2.892501,11.099422 c -0.413077,1.10337 -0.700428,2.267853 -0.8225,3.4825 L 15.93,15.421921 2.892501,11.099421 z m 13.054999,4.1475 12.9675,6.159999 c 0.619892,-1.475717 0.990475,-3.079425 1.067499,-4.759999 l -14.034999,-1.4 z m 0.07,0.105 L 9.91,28.59942 c 1.208785,0.585515 2.513728,1.007779 3.885,1.225001 l 2.2225,-14.4725 z"
     inkscape:connector-curvature="0"
     id="path3893"
     style="fill:#000000;fill-opacity:0.10106381;stroke:none" />
  <path
     d="M 16.0875,1.9994222 15.86,15.334421 17.9775,2.1394222 c -0.616691,-0.087252 -1.250372,-0.136042 -1.89,-0.14 z M 2.560001,12.079422 c -0.157904,0.541712 -0.29307,1.095932 -0.385,1.6625 L 15.93,15.421921 z m 13.387499,3.1675 13.334999,5.144999 c 0.253983,-0.767716 0.459428,-1.560151 0.577501,-2.38 z m 0.07,0.105 -5.18,13.649999 c 0.313751,0.125319 0.638129,0.247046 0.962501,0.35 0.286965,0.09025 0.580431,0.173086 0.874999,0.245 0.07599,0.01869 0.151035,0.03508 0.2275,0.0525 z"
     inkscape:connector-curvature="0"
     id="path3893-9"
     style="fill:#000000;fill-opacity:0.0851064;stroke:none" />
  <path
     d="m 29.5,15.999521 c 0,7.456085 -6.044601,13.500478 -13.499829,13.500478 C 8.54426,29.499999 2.5,23.455537 2.5,15.999521 2.5,8.5437808 8.54426,2.5000002 16.000171,2.5000002 23.455399,2.5000002 29.5,8.5437808 29.5,15.999521 l 0,0 z"
     id="path8655"
     style="opacity:0.8;color:#000000;fill:none;stroke:url(#linearGradient3089);stroke-width:1;stroke-linecap:round;stroke-linejoin:round;stroke-miterlimit:4;stroke-opacity:1;stroke-dasharray:none;stroke-dashoffset:0;marker:none;visibility:visible;display:inline;overflow:visible;enable-background:accumulate" />
  <path
     style="display:inline;opacity:0.5;fill:#ffffff;fill-opacity:1;fill-rule:nonzero;stroke:none;enable-background:new"
     d="m 16.01673,8.7333004 c 1.692,0 3.35066,0.50801 4.76666,1.4999996 0.45267,0.31667 0.55,0.93071 0.23334,1.38333 -0.316,0.4527 -0.93134,0.56731 -1.38334,0.25 -1.094,-0.76602 -2.37466,-1.14532 -3.68333,-1.13333 -0.188,0 -0.36667,0 -0.55,0.0167 -0.056,0.006 -0.11067,0.0263 -0.16667,0.0333 -0.15066,0.0186 -0.30333,0.0378 -0.45,0.0667 -0.0653,0.0128 -0.13666,0.0186 -0.2,0.0333 -0.14466,0.0327 -0.29266,0.074 -0.43333,0.11667 -0.0447,0.0141 -0.0887,0.0353 -0.13333,0.05 -0.16067,0.0526 -0.31134,0.10205 -0.46667,0.16666 -0.016,0.007 -0.0347,0.0103 -0.05,0.0167 -0.93201,0.40064 -1.74534,1.02802 -2.38333,1.8 -0.004,0.006 -0.0127,0.0122 -0.0167,0.0167 -0.89733,1.09263 -1.43266,2.47859 -1.43333,4 l 1.66666,0 -2.66666,4 -2.66667,-4 1.66667,0 c 6.6e-4,-1.74801 0.54266,-3.35865 1.46666,-4.7 0.0133,-0.0231 0.018,-0.0455 0.0333,-0.0667 0.11466,-0.16397 0.242,-0.31333 0.36666,-0.46666 0.0147,-0.0186 0.0347,-0.0481 0.05,-0.0667 0.84534,-1.02603 1.89666,-1.8153896 3.1,-2.3333296 0.0333,-0.0147 0.0667,-0.0359 0.1,-0.05 0.192,-0.0794 0.38534,-0.15064 0.58334,-0.21666 0.0713,-0.0237 0.144,-0.0449 0.21666,-0.0667 0.17267,-0.0526 0.35667,-0.0927 0.53334,-0.13334 0.0973,-0.0224 0.18466,-0.0474 0.28333,-0.0667 0.0487,-0.009 0.102,-0.025 0.15,-0.0333 0.132,-0.0231 0.26799,-0.0327 0.4,-0.05 0.0913,-0.0109 0.17466,-0.0244 0.26666,-0.0333 0.22134,-0.0205 0.44666,-0.0295 0.66666,-0.0333 0.04,0 0.0767,0 0.11667,0 l 0.0167,0 z m 7.31666,4.3333296 2.66667,4 -1.66667,0 c 0,1.75334 -0.55466,3.3727 -1.48333,4.71667 -0.0113,0.0186 -0.0206,0.0314 -0.0333,0.05 -0.096,0.13731 -0.19667,0.27 -0.3,0.4 -0.0387,0.0494 -0.0767,0.10199 -0.11667,0.15 -0.152,0.18462 -0.31734,0.34731 -0.48334,0.51667 -0.016,0.0167 -0.018,0.0346 -0.0333,0.05 -0.55733,0.55795 -1.198,1.04064 -1.88333,1.41666 -0.018,0.0109 -0.0306,0.0231 -0.05,0.0333 -0.19733,0.10603 -0.394,0.19269 -0.6,0.28333 -0.0514,0.0218 -0.11467,0.0442 -0.16667,0.0667 -0.176,0.0727 -0.351331,0.13936 -0.53333,0.2 -0.086,0.0295 -0.16267,0.0564 -0.25,0.0833 -0.15933,0.0474 -0.336,0.0947 -0.5,0.13334 -0.10867,0.025 -0.206,0.0455 -0.31667,0.0667 -0.046,0.009 -0.088,0.0256 -0.13333,0.0333 -0.15467,0.0269 -0.312,0.0481 -0.46667,0.0667 -0.056,0.006 -0.11066,0.0109 -0.16666,0.0167 -0.278,0.0269 -0.55667,0.05 -0.83334,0.05 -1.694,0 -3.34866,-0.52333 -4.76666,-1.51666 -0.452,-0.31731 -0.56667,-0.94738 -0.25,-1.4 0.31733,-0.45334 0.94866,-0.55064 1.4,-0.23334 1.102,0.77199 2.382,1.15129 3.7,1.13334 0.174,0 0.346,0 0.51666,-0.0167 0.07,-0.007 0.14667,-0.025 0.21667,-0.0333 0.13467,-0.018 0.26867,-0.041 0.4,-0.0667 0.0807,-0.0154 0.154,-0.0314 0.23333,-0.05 0.12867,-0.0301 0.257999,-0.0628 0.38334,-0.1 0.0606,-0.0186 0.12333,-0.0301 0.18333,-0.05 0.14467,-0.0487 0.29333,-0.10802 0.43333,-0.16667 0.032,-0.0128 0.0687,-0.0192 0.1,-0.0333 0.164,-0.072 0.31,-0.14872 0.46668,-0.23333 0.007,-0.006 0.026,-0.0128 0.0333,-0.0167 0.53,-0.29129 1.008,-0.65872 1.43334,-1.08334 0.007,-0.007 0.009,-0.009 0.0167,-0.0167 0.13201,-0.13262 0.26335,-0.27198 0.38334,-0.41666 0.0253,-0.0308 0.058,-0.0687 0.0833,-0.1 0.866,-1.08334 1.38333,-2.44205 1.38333,-3.93334 l -1.66665,0 2.66665,-4 z"
     id="path3847-6-5"
     inkscape:connector-curvature="0" />
  <path
     style="display:inline;opacity:0.65;fill:#000000;fill-opacity:1;fill-rule:nonzero;stroke:none;enable-background:new"
     d="m 16.0167,7.7330004 c 1.692,0 3.35066,0.50801 4.76666,1.5 0.45267,0.31667 0.55,0.9307096 0.23334,1.3833296 -0.316,0.4527 -0.93134,0.56731 -1.383341,0.25 -1.094,-0.76602 -2.374659,-1.1453196 -3.68333,-1.1333296 -0.188,0 -0.366669,0 -0.55,0.0167 -0.056,0.006 -0.11067,0.0263 -0.16667,0.0333 -0.15066,0.0186 -0.30333,0.0378 -0.449999,0.0667 -0.0653,0.0128 -0.13666,0.0186 -0.2,0.0333 -0.14466,0.0327 -0.29266,0.074 -0.43333,0.11667 -0.0447,0.0141 -0.0887,0.0353 -0.13333,0.05 -0.16067,0.0526 -0.31134,0.10205 -0.466671,0.16666 -0.016,0.007 -0.0347,0.0103 -0.05,0.0167 -0.93201,0.40064 -1.74534,1.02802 -2.38333,1.8 -0.004,0.006 -0.0127,0.0122 -0.0167,0.0167 -0.89733,1.09263 -1.432659,2.47859 -1.433329,4 l 1.66666,0 -2.66666,4 -2.66667,-4 1.66667,0 c 6.6e-4,-1.74801 0.54266,-3.35865 1.46666,-4.7 0.0133,-0.0231 0.018,-0.0455 0.0333,-0.0667 0.11466,-0.16397 0.242,-0.31333 0.36666,-0.46666 0.0147,-0.0186 0.0347,-0.0481 0.05,-0.0667 0.84534,-1.0260296 1.89666,-1.8153896 3.1,-2.3333296 0.0333,-0.0147 0.0667,-0.0359 0.1,-0.05 0.192,-0.0794 0.38534,-0.15064 0.58334,-0.21666 0.0713,-0.0237 0.144,-0.0449 0.216659,-0.0667 0.17267,-0.0526 0.35667,-0.0927 0.533341,-0.13334 0.0973,-0.0224 0.184659,-0.0474 0.28333,-0.0667 0.0487,-0.009 0.102,-0.025 0.15,-0.0333 0.132,-0.0231 0.267989,-0.0327 0.4,-0.05 0.0913,-0.0109 0.17466,-0.0244 0.26666,-0.0333 0.22134,-0.0205 0.44666,-0.0295 0.66666,-0.0333 0.04,0 0.0767,0 0.11667,0 l 0.0167,0 z m 7.316659,4.3333296 2.66667,4 -1.66667,0 c 0,1.75334 -0.554659,3.3727 -1.483329,4.71667 -0.0113,0.0186 -0.0206,0.0314 -0.0333,0.05 -0.096,0.13731 -0.19667,0.27 -0.3,0.4 -0.0387,0.0494 -0.0767,0.10199 -0.11667,0.15 -0.152,0.18462 -0.31734,0.34731 -0.483339,0.51667 -0.016,0.0167 -0.018,0.0346 -0.0333,0.05 -0.55733,0.55795 -1.198,1.04064 -1.88333,1.41666 -0.018,0.0109 -0.0306,0.0231 -0.05,0.0333 -0.19733,0.10603 -0.393999,0.19269 -0.6,0.28333 -0.0514,0.0218 -0.11467,0.0442 -0.16667,0.0667 -0.176,0.0727 -0.35133,0.13936 -0.53333,0.2 -0.086,0.0295 -0.162669,0.0564 -0.25,0.0833 -0.15933,0.0474 -0.335999,0.0947 -0.5,0.13334 -0.10867,0.025 -0.206,0.0455 -0.316669,0.0667 -0.046,0.009 -0.088,0.0256 -0.133331,0.0333 -0.154669,0.0269 -0.312,0.0481 -0.46667,0.0667 -0.056,0.006 -0.11066,0.0109 -0.16666,0.0167 -0.278,0.0269 -0.55667,0.05 -0.833339,0.05 -1.694,0 -3.348661,-0.52333 -4.76666,-1.51666 -0.452,-0.31731 -0.56667,-0.94738 -0.25,-1.4 0.31733,-0.45334 0.94866,-0.55064 1.4,-0.23334 1.102,0.77199 2.382,1.15129 3.699999,1.13334 0.174,0 0.346,0 0.516661,-0.0167 0.07,-0.007 0.14667,-0.025 0.21667,-0.0333 0.13467,-0.018 0.26867,-0.041 0.399999,-0.0667 0.0807,-0.0154 0.154,-0.0314 0.23333,-0.05 0.12867,-0.0301 0.258,-0.0628 0.38334,-0.1 0.0606,-0.0186 0.12333,-0.0301 0.183331,-0.05 0.14467,-0.0487 0.29333,-0.10802 0.43333,-0.16667 0.032,-0.0128 0.0687,-0.0192 0.1,-0.0333 0.164,-0.072 0.31,-0.14872 0.46668,-0.23333 0.007,-0.006 0.026,-0.0128 0.0333,-0.0167 0.53,-0.29129 1.008,-0.65872 1.43334,-1.08334 0.007,-0.007 0.009,-0.009 0.0167,-0.0167 0.13201,-0.13262 0.26335,-0.27198 0.38334,-0.41666 0.0253,-0.0308 0.058,-0.0687 0.0833,-0.1 0.866,-1.08334 1.38333,-2.44205 1.38333,-3.93334 l -1.66665,0 2.66665,-4 z"
     id="path3847-6"
     inkscape:connector-curvature="0" />
</svg>
