<?xml version="1.0" encoding="UTF-8" standalone="no"?>
<!-- Created with Inkscape (http://www.inkscape.org/) -->

<svg
   xmlns:dc="http://purl.org/dc/elements/1.1/"
   xmlns:cc="http://creativecommons.org/ns#"
   xmlns:rdf="http://www.w3.org/1999/02/22-rdf-syntax-ns#"
   xmlns:svg="http://www.w3.org/2000/svg"
   xmlns="http://www.w3.org/2000/svg"
   xmlns:xlink="http://www.w3.org/1999/xlink"
   xmlns:sodipodi="http://sodipodi.sourceforge.net/DTD/sodipodi-0.dtd"
   xmlns:inkscape="http://www.inkscape.org/namespaces/inkscape"
   width="32px"
   height="32px"
   id="svg3182"
   version="1.1"
   inkscape:version="0.91 r13725"
   sodipodi:docname="application-x-desktop.svg">
  <defs
     id="defs3184">
    <linearGradient
       id="linearGradient3977">
      <stop
         id="stop3979"
         style="stop-color:#ffffff;stop-opacity:1;"
         offset="0" />
      <stop
         offset="0.03626217"
         style="stop-color:#ffffff;stop-opacity:0.23529412;"
         id="stop3981" />
      <stop
         id="stop3983"
         style="stop-color:#ffffff;stop-opacity:0.15686275;"
         offset="0.95056331" />
      <stop
         id="stop3985"
         style="stop-color:#ffffff;stop-opacity:0.39215687;"
         offset="1" />
    </linearGradient>
    <linearGradient
       id="linearGradient3600-4">
      <stop
         offset="0"
         style="stop-color:#f4f4f4;stop-opacity:1"
         id="stop3602-7" />
      <stop
         offset="1"
         style="stop-color:#dbdbdb;stop-opacity:1"
         id="stop3604-6" />
    </linearGradient>
    <linearGradient
       id="linearGradient3104-5">
      <stop
         offset="0"
         style="stop-color:#a0a0a0;stop-opacity:1;"
         id="stop3106-6" />
      <stop
         offset="1"
         style="stop-color:#bebebe;stop-opacity:1;"
         id="stop3108-9" />
    </linearGradient>
    <linearGradient
       id="linearGradient5060">
      <stop
         id="stop5062"
         style="stop-color:#000000;stop-opacity:1"
         offset="0" />
      <stop
         id="stop5064"
         style="stop-color:#000000;stop-opacity:0"
         offset="1" />
    </linearGradient>
    <linearGradient
       id="linearGradient5048">
      <stop
         id="stop5050"
         style="stop-color:#000000;stop-opacity:0"
         offset="0" />
      <stop
         id="stop5056"
         style="stop-color:#000000;stop-opacity:1"
         offset="0.5" />
      <stop
         id="stop5052"
         style="stop-color:#000000;stop-opacity:0"
         offset="1" />
    </linearGradient>
    <linearGradient
       y2="609.50507"
       x2="302.85715"
       y1="366.64789"
       x1="302.85715"
       gradientTransform="matrix(0.04576928,0,0,0.00823529,-0.5423243,25.980548)"
       gradientUnits="userSpaceOnUse"
       id="linearGradient3180"
       xlink:href="#linearGradient5048"
       inkscape:collect="always" />
    <linearGradient
       id="linearGradient4687">
      <stop
         id="stop4689"
         style="stop-color:#000000;stop-opacity:1"
         offset="0" />
      <stop
         id="stop4691"
         style="stop-color:#000000;stop-opacity:0"
         offset="1" />
    </linearGradient>
    <linearGradient
       y2="43.185177"
       x2="23.999994"
       y1="6.1851754"
       x1="23.999994"
       gradientTransform="matrix(0.56756757,0,0,0.72972971,2.378382,-2.5135063)"
       gradientUnits="userSpaceOnUse"
       id="linearGradient3119-7"
       xlink:href="#linearGradient3977-7"
       inkscape:collect="always" />
    <linearGradient
       y2="48.545509"
       x2="24.000002"
       y1="2.5226922"
       x1="24.000002"
       gradientTransform="matrix(0.62856997,0,0,0.60839387,0.91431981,-0.53479041)"
       gradientUnits="userSpaceOnUse"
       id="linearGradient3122-7"
       xlink:href="#linearGradient3927"
       inkscape:collect="always" />
    <radialGradient
       r="117.14286"
       fy="486.64789"
       fx="605.71429"
       cy="486.64789"
       cx="605.71429"
       gradientTransform="matrix(0.01566318,0,0,0.00823529,17.610433,25.980565)"
       gradientUnits="userSpaceOnUse"
       id="radialGradient3045-1"
       xlink:href="#linearGradient5060"
       inkscape:collect="always" />
    <radialGradient
       r="117.14286"
       fy="486.64789"
       fx="605.71429"
       cy="486.64789"
       cx="605.71429"
       gradientTransform="matrix(-0.01566318,0,0,0.00823529,14.389566,25.980565)"
       gradientUnits="userSpaceOnUse"
       id="radialGradient3048-8"
       xlink:href="#linearGradient5060"
       inkscape:collect="always" />
    <linearGradient
       inkscape:collect="always"
       xlink:href="#linearGradient5048"
       id="linearGradient4219"
       gradientUnits="userSpaceOnUse"
       gradientTransform="matrix(0.04576928,0,0,0.00823529,-0.5423243,25.980548)"
       x1="302.85715"
       y1="366.64789"
       x2="302.85715"
       y2="609.50507" />
    <linearGradient
       id="linearGradient3977-7">
      <stop
         offset="0"
         style="stop-color:#ffffff;stop-opacity:1;"
         id="stop3979-3" />
      <stop
         id="stop3981-7"
         style="stop-color:#ffffff;stop-opacity:0.23529412;"
         offset="0.04878049" />
      <stop
         offset="0.95056331"
         style="stop-color:#ffffff;stop-opacity:0"
         id="stop3983-3" />
      <stop
         offset="1"
         style="stop-color:#000000;stop-opacity:0.04313726"
         id="stop3985-6" />
    </linearGradient>
    <linearGradient
       id="linearGradient3927">
      <stop
         id="stop3929"
         offset="0"
         style="stop-color:#fbfcfd;stop-opacity:1" />
      <stop
         id="stop3931"
         offset="1"
         style="stop-color:#ebeced;stop-opacity:1" />
    </linearGradient>
    <linearGradient
       y2="609.50507"
       x2="302.85715"
       y1="366.64789"
       x1="302.85715"
       gradientTransform="matrix(0.09153846,0,0,0.02058823,-1.084616,1037.8136)"
       gradientUnits="userSpaceOnUse"
       id="linearGradient4280"
       xlink:href="#linearGradient5048"
       inkscape:collect="always" />
  </defs>
  <sodipodi:namedview
     id="base"
     pagecolor="#ffffff"
     bordercolor="#666666"
     borderopacity="1.0"
     inkscape:pageopacity="0.0"
     inkscape:pageshadow="2"
     inkscape:zoom="11.313708"
     inkscape:cx="-45.667909"
     inkscape:cy="15.195261"
     inkscape:current-layer="layer1"
     showgrid="true"
     inkscape:grid-bbox="true"
     inkscape:document-units="px"
     inkscape:window-width="1366"
     inkscape:window-height="718"
     inkscape:window-x="0"
     inkscape:window-y="25"
     inkscape:window-maximized="1" />
  <metadata
     id="metadata3187">
    <rdf:RDF>
      <cc:Work
         rdf:about="">
        <dc:format>image/svg+xml</dc:format>
        <dc:type
           rdf:resource="http://purl.org/dc/dcmitype/StillImage" />
        <dc:title />
      </cc:Work>
    </rdf:RDF>
  </metadata>
  <g
     id="layer1"
     inkscape:label="Layer 1"
     inkscape:groupmode="layer">
    <g
       inkscape:label="Layer 1"
       id="layer1-4"
       transform="translate(1.33e-5,0)">
      <rect
         width="22.100021"
         height="2"
         x="4.9499893"
         y="29"
         id="rect2879-7"
         style="display:inline;overflow:visible;visibility:visible;opacity:0.15;fill:url(#linearGradient3180);fill-opacity:1;fill-rule:nonzero;stroke:none;stroke-width:1;marker:none" />
      <path
         d="m 4.9499887,29.000086 c 0,0 0,1.99989 0,1.99989 -0.806615,0.0038 -1.950002,-0.448074 -1.950002,-1.000074 0,-0.552 0.900121,-0.999816 1.950002,-0.999816 z"
         id="path2881-1"
         style="display:inline;overflow:visible;visibility:visible;opacity:0.15;fill:url(#radialGradient3048-8);fill-opacity:1;fill-rule:nonzero;stroke:none;stroke-width:1;marker:none"
         inkscape:connector-curvature="0" />
      <path
         d="m 27.050011,29.000086 c 0,0 0,1.99989 0,1.99989 0.806614,0.0038 1.950002,-0.448074 1.950002,-1.000074 0,-0.552 -0.900122,-0.999816 -1.950002,-0.999816 z"
         id="path2883-7"
         style="display:inline;overflow:visible;visibility:visible;opacity:0.15;fill:url(#radialGradient3045-1);fill-opacity:1;fill-rule:nonzero;stroke:none;stroke-width:1;marker:none"
         inkscape:connector-curvature="0" />
      <path
         sodipodi:nodetypes="ccccc"
         d="m 5,1 c 5.041317,0 21.999974,0.00179 21.999974,0.00179 L 27,29 C 27,29 12.333334,29 5,29 5,19.666666 5,10.333335 5,1.000004 Z"
         id="path4160-3-7"
         style="display:inline;fill:url(#linearGradient3122-7);fill-opacity:1;stroke:none;stroke-width:0.99992186;stroke-linecap:butt;stroke-linejoin:round;stroke-miterlimit:4;stroke-dasharray:none;stroke-dashoffset:0;stroke-opacity:1"
         inkscape:connector-curvature="0" />
      <path
         sodipodi:nodetypes="ccccc"
         inkscape:connector-curvature="0"
         id="rect6741-1-5"
         d="m 26.5,28.5 -21,0 0,-27 21,0 z"
         style="fill:none;stroke:url(#linearGradient3119-7);stroke-width:0.99999994;stroke-linecap:round;stroke-linejoin:round;stroke-miterlimit:4;stroke-dasharray:none;stroke-dashoffset:0;stroke-opacity:1" />
      <path
         sodipodi:nodetypes="ccccc"
         d="m 4.4999677,0.49996093 c 5.270482,0 23.0000363,0.00185 23.0000363,0.00185 l 2.8e-5,28.99822807 c 0,0 -15.333375,0 -23.0000643,0 0,-9.666692 0,-19.333383 0,-29.00007387 z"
         id="path4160-3-4"
         style="display:inline;fill:none;fill-opacity:1;stroke:#000000;stroke-width:0.99992186;stroke-linecap:butt;stroke-linejoin:round;stroke-miterlimit:4;stroke-dasharray:none;stroke-dashoffset:0;stroke-opacity:0.35294118"
         inkscape:connector-curvature="0" />
    </g>
    <path
       inkscape:connector-curvature="0"
       style="opacity:1;color:#000000;fill:#ffffff;fill-opacity:1;fill-rule:nonzero;stroke:none;stroke-width:1.70000005;marker:none;visibility:visible;display:inline;overflow:visible;enable-background:accumulate"
       id="path3575-5-3"
       d="m 15,8 c -0.277,0 -0.5,0.223 -0.5,0.5 l 0,1.6875 c -0.548639,0.140741 -1.055018,0.37601 -1.53125,0.65625 L 11.75,9.625 c -0.195869,-0.195869 -0.491631,-0.195869 -0.6875,0 L 9.625,11.0625 c -0.1958686,0.195869 -0.1958686,0.491631 0,0.6875 l 1.21875,1.21875 C 10.56351,13.444982 10.328241,13.951361 10.1875,14.5 L 8.5,14.5 C 8.223,14.5 8,14.723 8,15 l 0,2 c 0,0.277 0.223,0.5 0.5,0.5 l 1.6875,0 c 0.140741,0.548639 0.37601,1.055018 0.65625,1.53125 L 9.625,20.25 c -0.1958686,0.195869 -0.1958686,0.491631 0,0.6875 l 1.4375,1.4375 c 0.195869,0.195869 0.491631,0.195869 0.6875,0 l 1.21875,-1.21875 c 0.476232,0.28024 0.982611,0.515509 1.53125,0.65625 l 0,1.6875 c 0,0.277 0.223,0.5 0.5,0.5 l 2,0 c 0.277,0 0.5,-0.223 0.5,-0.5 l 0,-1.6875 c 0.548639,-0.140741 1.055018,-0.37601 1.53125,-0.65625 L 20.25,22.375 c 0.195869,0.195869 0.491631,0.195869 0.6875,0 l 1.4375,-1.4375 c 0.195869,-0.195869 0.195869,-0.491631 0,-0.6875 L 21.15625,19.03125 C 21.43649,18.555018 21.671759,18.048639 21.8125,17.5 l 1.6875,0 c 0.277,0 0.5,-0.223 0.5,-0.5 l 0,-2 c 0,-0.277 -0.223,-0.5 -0.5,-0.5 l -1.6875,0 C 21.671759,13.951361 21.43649,13.444982 21.15625,12.96875 L 22.375,11.75 c 0.195869,-0.195869 0.195869,-0.491631 0,-0.6875 L 20.9375,9.625 c -0.195869,-0.195869 -0.491631,-0.195869 -0.6875,0 l -1.21875,1.21875 C 18.555018,10.56351 18.048639,10.328241 17.5,10.1875 L 17.5,8.5 C 17.5,8.223 17.277,8 17,8 l -2,0 z m 1,5 c 1.656854,0 3,1.343146 3,3 0,1.656854 -1.343146,3 -3,3 -1.656854,0 -3,-1.343146 -3,-3 0,-1.656854 1.343146,-3 3,-3 z" />
    <path
       inkscape:connector-curvature="0"
       style="color:#000000;fill:#000000;fill-opacity:1;fill-rule:nonzero;stroke:none;stroke-width:1.70000005;marker:none;visibility:visible;display:inline;overflow:visible;enable-background:accumulate;opacity:0.4"
       id="path3575-5"
       d="m 15,7 c -0.277,0 -0.5,0.223 -0.5,0.5 l 0,1.6875 C 13.951361,9.328241 13.444982,9.56351 12.96875,9.84375 L 11.75,8.625 c -0.195869,-0.195869 -0.491631,-0.195869 -0.6875,0 L 9.625,10.0625 c -0.1958686,0.195869 -0.1958686,0.491631 0,0.6875 l 1.21875,1.21875 C 10.56351,12.444982 10.328241,12.951361 10.1875,13.5 L 8.5,13.5 C 8.223,13.5 8,13.723 8,14 l 0,2 c 0,0.277 0.223,0.5 0.5,0.5 l 1.6875,0 c 0.140741,0.548639 0.37601,1.055018 0.65625,1.53125 L 9.625,19.25 c -0.1958686,0.195869 -0.1958686,0.491631 0,0.6875 l 1.4375,1.4375 c 0.195869,0.195869 0.491631,0.195869 0.6875,0 l 1.21875,-1.21875 c 0.476232,0.28024 0.982611,0.515509 1.53125,0.65625 l 0,1.6875 c 0,0.277 0.223,0.5 0.5,0.5 l 2,0 c 0.277,0 0.5,-0.223 0.5,-0.5 l 0,-1.6875 c 0.548639,-0.140741 1.055018,-0.37601 1.53125,-0.65625 L 20.25,21.375 c 0.195869,0.195869 0.491631,0.195869 0.6875,0 l 1.4375,-1.4375 c 0.195869,-0.195869 0.195869,-0.491631 0,-0.6875 L 21.15625,18.03125 C 21.43649,17.555018 21.671759,17.048639 21.8125,16.5 l 1.6875,0 c 0.277,0 0.5,-0.223 0.5,-0.5 l 0,-2 c 0,-0.277 -0.223,-0.5 -0.5,-0.5 l -1.6875,0 C 21.671759,12.951361 21.43649,12.444982 21.15625,11.96875 L 22.375,10.75 c 0.195869,-0.195869 0.195869,-0.491631 0,-0.6875 L 20.9375,8.625 C 20.741631,8.429131 20.445869,8.429131 20.25,8.625 L 19.03125,9.84375 C 18.555018,9.56351 18.048639,9.328241 17.5,9.1875 L 17.5,7.5 C 17.5,7.223 17.277,7 17,7 l -2,0 z m 1,5 c 1.656854,0 3,1.343146 3,3 0,1.656854 -1.343146,3 -3,3 -1.656854,0 -3,-1.343146 -3,-3 0,-1.656854 1.343146,-3 3,-3 z" />
    <path
       inkscape:connector-curvature="0"
       style="opacity:1;color:#000000;fill:none;stroke:#000000;stroke-width:1;stroke-linejoin:round;stroke-miterlimit:4;stroke-opacity:0.39215687;stroke-dasharray:none;marker:none;visibility:visible;display:inline;overflow:visible;enable-background:accumulate"
       id="path4700"
       d="m 15.0625,7.5625 c -0.02465,0.615136 0.0508,1.243055 -0.0404,1.849863 -0.221558,0.48267 -0.868133,0.389455 -1.259095,0.661308 -0.358879,0.177705 -0.832863,0.557163 -1.200508,0.176329 -0.385417,-0.385417 -0.770833,-0.770833 -1.15625,-1.15625 -0.4375,0.4375 -0.875,0.875 -1.3125,1.3125 0.413275,0.436509 0.878149,0.830797 1.257945,1.294778 0.236679,0.483157 -0.287172,0.881223 -0.39325,1.326574 -0.171913,0.374024 -0.178657,1.002259 -0.716097,1.0335 -0.559914,0.0032 -1.1199045,4.78e-4 -1.679848,0.0014 0,0.625 0,1.25 0,1.875 0.6151361,0.02465 1.2430553,-0.0508 1.849863,0.0404 0.48267,0.221558 0.389455,0.868133 0.661308,1.259095 0.177705,0.358879 0.557163,0.832863 0.176329,1.200508 -0.385417,0.385417 -0.770833,0.770833 -1.15625,1.15625 0.4375,0.4375 0.875,0.875 1.3125,1.3125 0.436509,-0.413275 0.830797,-0.878149 1.294778,-1.257945 0.483157,-0.236679 0.881223,0.287172 1.326574,0.39325 0.374024,0.171913 1.002259,0.178657 1.0335,0.716097 0.0032,0.559914 4.78e-4,1.119904 0.0014,1.679848 0.625,0 1.25,0 1.875,0 0.02465,-0.615136 -0.0508,-1.243055 0.0404,-1.849863 0.221558,-0.48267 0.868133,-0.389455 1.259095,-0.661308 0.358879,-0.177705 0.832863,-0.557163 1.200508,-0.176329 0.385417,0.385417 0.770833,0.770833 1.15625,1.15625 0.4375,-0.4375 0.875,-0.875 1.3125,-1.3125 -0.413275,-0.436509 -0.878149,-0.830797 -1.257945,-1.294778 -0.236679,-0.483157 0.287172,-0.881223 0.39325,-1.326574 0.171913,-0.374024 0.178657,-1.002259 0.716097,-1.0335 0.559914,-0.0032 1.119904,-4.78e-4 1.679848,-0.0014 0,-0.625 0,-1.25 0,-1.875 -0.615136,-0.02465 -1.243055,0.0508 -1.849863,-0.0404 C 21.104967,13.800545 21.198182,13.15397 20.926329,12.763008 20.748624,12.404129 20.369166,11.930145 20.75,11.5625 c 0.385417,-0.385417 0.770833,-0.770833 1.15625,-1.15625 -0.4375,-0.4375 -0.875,-0.875 -1.3125,-1.3125 -0.436509,0.413275 -0.830797,0.878149 -1.294778,1.257945 -0.483157,0.236679 -0.881223,-0.287172 -1.326574,-0.39325 -0.374024,-0.171913 -1.002259,-0.178657 -1.0335,-0.716097 -0.0032,-0.559914 -4.78e-4,-1.119904 -0.0014,-1.679848 -0.625,0 -1.25,0 -1.875,0 z" />
    <path
       inkscape:connector-curvature="0"
       style="opacity:1;color:#000000;fill:none;stroke:#000000;stroke-width:1;stroke-linejoin:round;stroke-miterlimit:4;stroke-opacity:0.39215687;stroke-dasharray:none;marker:none;visibility:visible;display:inline;overflow:visible;enable-background:accumulate"
       id="path4685"
       d="m 16,18.56609 c 1.937369,0.05315 3.663354,-1.720097 3.561336,-3.654452 0.004,-1.938938 -1.81466,-3.616278 -3.744666,-3.465913 -1.939185,0.04516 -3.567078,1.907377 -3.368782,3.831972 0.104132,1.811372 1.739,3.322902 3.552112,3.288393 z" />
  </g>
</svg>
