<?xml version="1.0" encoding="UTF-8" standalone="no"?>
<!-- Created with Inkscape (http://www.inkscape.org/) -->

<svg
   xmlns:dc="http://purl.org/dc/elements/1.1/"
   xmlns:cc="http://creativecommons.org/ns#"
   xmlns:rdf="http://www.w3.org/1999/02/22-rdf-syntax-ns#"
   xmlns:svg="http://www.w3.org/2000/svg"
   xmlns="http://www.w3.org/2000/svg"
   xmlns:xlink="http://www.w3.org/1999/xlink"
   xmlns:sodipodi="http://sodipodi.sourceforge.net/DTD/sodipodi-0.dtd"
   xmlns:inkscape="http://www.inkscape.org/namespaces/inkscape"
   width="32px"
   height="32px"
   id="svg3182"
   version="1.1"
   inkscape:version="0.91 r13725"
   sodipodi:docname="multipart-encrypted.svg">
  <defs
     id="defs3184">
    <linearGradient
       id="linearGradient3977">
      <stop
         id="stop3979"
         style="stop-color:#ffffff;stop-opacity:1;"
         offset="0" />
      <stop
         offset="0.03626217"
         style="stop-color:#ffffff;stop-opacity:0.23529412;"
         id="stop3981" />
      <stop
         id="stop3983"
         style="stop-color:#ffffff;stop-opacity:0.15686275;"
         offset="0.95056331" />
      <stop
         id="stop3985"
         style="stop-color:#ffffff;stop-opacity:0.39215687;"
         offset="1" />
    </linearGradient>
    <linearGradient
       id="linearGradient3600-4">
      <stop
         offset="0"
         style="stop-color:#f4f4f4;stop-opacity:1"
         id="stop3602-7" />
      <stop
         offset="1"
         style="stop-color:#dbdbdb;stop-opacity:1"
         id="stop3604-6" />
    </linearGradient>
    <linearGradient
       id="linearGradient3104-5">
      <stop
         offset="0"
         style="stop-color:#a0a0a0;stop-opacity:1;"
         id="stop3106-6" />
      <stop
         offset="1"
         style="stop-color:#bebebe;stop-opacity:1;"
         id="stop3108-9" />
    </linearGradient>
    <radialGradient
       inkscape:collect="always"
       xlink:href="#linearGradient5060"
       id="radialGradient3045"
       gradientUnits="userSpaceOnUse"
       gradientTransform="matrix(0.01566318,0,0,0.00823529,17.610433,25.980565)"
       cx="605.71429"
       cy="486.64789"
       fx="605.71429"
       fy="486.64789"
       r="117.14286" />
    <linearGradient
       id="linearGradient5060">
      <stop
         id="stop5062"
         style="stop-color:#000000;stop-opacity:1"
         offset="0" />
      <stop
         id="stop5064"
         style="stop-color:#000000;stop-opacity:0"
         offset="1" />
    </linearGradient>
    <radialGradient
       inkscape:collect="always"
       xlink:href="#linearGradient5060"
       id="radialGradient3048"
       gradientUnits="userSpaceOnUse"
       gradientTransform="matrix(-0.01566318,0,0,0.00823529,14.389566,25.980565)"
       cx="605.71429"
       cy="486.64789"
       fx="605.71429"
       fy="486.64789"
       r="117.14286" />
    <linearGradient
       id="linearGradient5048">
      <stop
         id="stop5050"
         style="stop-color:#000000;stop-opacity:0"
         offset="0" />
      <stop
         id="stop5056"
         style="stop-color:#000000;stop-opacity:1"
         offset="0.5" />
      <stop
         id="stop5052"
         style="stop-color:#000000;stop-opacity:0"
         offset="1" />
    </linearGradient>
    <linearGradient
       y2="609.50507"
       x2="302.85715"
       y1="366.64789"
       x1="302.85715"
       gradientTransform="matrix(0.04576928,0,0,0.00823529,-0.5423243,25.980548)"
       gradientUnits="userSpaceOnUse"
       id="linearGradient3180"
       xlink:href="#linearGradient5048"
       inkscape:collect="always" />
    <linearGradient
       id="linearGradient3977-3">
      <stop
         offset="0"
         style="stop-color:#ffffff;stop-opacity:1;"
         id="stop3979-6" />
      <stop
         id="stop3981-7"
         style="stop-color:#ffffff;stop-opacity:0.23529412;"
         offset="0.04878049" />
      <stop
         offset="0.95056331"
         style="stop-color:#ffffff;stop-opacity:0"
         id="stop3983-7" />
      <stop
         offset="1"
         style="stop-color:#000000;stop-opacity:0.04313726"
         id="stop3985-5" />
    </linearGradient>
    <linearGradient
       id="linearGradient3927">
      <stop
         id="stop3929"
         offset="0"
         style="stop-color:#fbfcfd;stop-opacity:1" />
      <stop
         id="stop3931"
         offset="1"
         style="stop-color:#ebeced;stop-opacity:1" />
    </linearGradient>
    <linearGradient
       y2="43.185177"
       x2="23.999969"
       y1="6.1851754"
       x1="23.999994"
       gradientTransform="matrix(0.56756757,0,0,0.72972971,2.378382,-2.5135063)"
       gradientUnits="userSpaceOnUse"
       id="linearGradient3119-0"
       xlink:href="#linearGradient3977-3"
       inkscape:collect="always" />
    <linearGradient
       y2="48.545509"
       x2="25.590893"
       y1="2.5226922"
       x1="25.590893"
       gradientTransform="matrix(0.62856997,0,0,0.60839387,0.91431981,-0.53479041)"
       gradientUnits="userSpaceOnUse"
       id="linearGradient3122-1"
       xlink:href="#linearGradient3927"
       inkscape:collect="always" />
    <radialGradient
       r="117.14286"
       fy="486.64789"
       fx="605.71429"
       cy="486.64789"
       cx="605.71429"
       gradientTransform="matrix(0.01566318,0,0,0.00823529,17.610433,25.980565)"
       gradientUnits="userSpaceOnUse"
       id="radialGradient3045-2"
       xlink:href="#linearGradient5060"
       inkscape:collect="always" />
    <radialGradient
       r="117.14286"
       fy="486.64789"
       fx="605.71429"
       cy="486.64789"
       cx="605.71429"
       gradientTransform="matrix(-0.01566318,0,0,0.00823529,14.389566,25.980565)"
       gradientUnits="userSpaceOnUse"
       id="radialGradient3048-8"
       xlink:href="#linearGradient5060"
       inkscape:collect="always" />
    <linearGradient
       inkscape:collect="always"
       xlink:href="#linearGradient5048"
       id="linearGradient4268"
       gradientUnits="userSpaceOnUse"
       gradientTransform="matrix(0.04576928,0,0,0.00823529,-0.5423243,25.980548)"
       x1="302.85715"
       y1="366.64789"
       x2="302.85715"
       y2="609.50507" />
    <linearGradient
       inkscape:collect="always"
       xlink:href="#linearGradient5048"
       id="linearGradient4277"
       gradientUnits="userSpaceOnUse"
       gradientTransform="matrix(0.04576928,0,0,0.00823529,-0.5423243,25.980548)"
       x1="302.85715"
       y1="366.64789"
       x2="302.85715"
       y2="609.50507" />
    <linearGradient
       y2="609.50507"
       x2="302.85715"
       y1="366.64789"
       x1="302.85715"
       gradientTransform="matrix(0.09153846,0,0,0.02058823,-1.084616,1037.8136)"
       gradientUnits="userSpaceOnUse"
       id="linearGradient4218"
       xlink:href="#linearGradient5048"
       inkscape:collect="always" />
  </defs>
  <sodipodi:namedview
     id="base"
     pagecolor="#ffffff"
     bordercolor="#666666"
     borderopacity="1.0"
     inkscape:pageopacity="0.0"
     inkscape:pageshadow="2"
     inkscape:zoom="16"
     inkscape:cx="7.5511322"
     inkscape:cy="18.892614"
     inkscape:current-layer="layer1"
     showgrid="true"
     inkscape:grid-bbox="true"
     inkscape:document-units="px"
     inkscape:window-width="1366"
     inkscape:window-height="718"
     inkscape:window-x="0"
     inkscape:window-y="25"
     inkscape:window-maximized="1"
     inkscape:snap-bbox="true"
     inkscape:bbox-paths="true"
     inkscape:bbox-nodes="true"
     inkscape:snap-bbox-edge-midpoints="true">
    <inkscape:grid
       type="xygrid"
       id="grid4279" />
  </sodipodi:namedview>
  <metadata
     id="metadata3187">
    <rdf:RDF>
      <cc:Work
         rdf:about="">
        <dc:format>image/svg+xml</dc:format>
        <dc:type
           rdf:resource="http://purl.org/dc/dcmitype/StillImage" />
        <dc:title />
      </cc:Work>
    </rdf:RDF>
  </metadata>
  <g
     id="layer1"
     inkscape:label="Layer 1"
     inkscape:groupmode="layer">
    <g
       inkscape:label="Layer 1"
       id="layer1-5"
       transform="translate(1.33e-5,0)">
      <rect
         width="22.100021"
         height="2"
         x="4.9499893"
         y="29"
         id="rect2879-3"
         style="display:inline;overflow:visible;visibility:visible;opacity:0.15;fill:url(#linearGradient4277);fill-opacity:1;fill-rule:nonzero;stroke:none;stroke-width:1;marker:none" />
      <path
         d="m 4.9499887,29.000086 c 0,0 0,1.99989 0,1.99989 -0.806615,0.0038 -1.950002,-0.448074 -1.950002,-1.000074 0,-0.552 0.900121,-0.999816 1.950002,-0.999816 z"
         id="path2881-3"
         style="display:inline;overflow:visible;visibility:visible;opacity:0.15;fill:url(#radialGradient3048-8);fill-opacity:1;fill-rule:nonzero;stroke:none;stroke-width:1;marker:none"
         inkscape:connector-curvature="0" />
      <path
         d="m 27.050011,29.000086 c 0,0 0,1.99989 0,1.99989 0.806614,0.0038 1.950002,-0.448074 1.950002,-1.000074 0,-0.552 -0.900122,-0.999816 -1.950002,-0.999816 z"
         id="path2883-7"
         style="display:inline;overflow:visible;visibility:visible;opacity:0.15;fill:url(#radialGradient3045-2);fill-opacity:1;fill-rule:nonzero;stroke:none;stroke-width:1;marker:none"
         inkscape:connector-curvature="0" />
      <path
         sodipodi:nodetypes="ccccc"
         d="m 5,1 c 5.041317,0 21.999974,0.00179 21.999974,0.00179 L 27,29 C 27,29 12.333334,29 5,29 5,19.666666 5,10.333335 5,1.000004 Z"
         id="path4160-3-0"
         style="display:inline;fill:url(#linearGradient3122-1);fill-opacity:1;stroke:none;stroke-width:0.99992186;stroke-linecap:butt;stroke-linejoin:round;stroke-miterlimit:4;stroke-dasharray:none;stroke-dashoffset:0;stroke-opacity:1"
         inkscape:connector-curvature="0" />
      <path
         sodipodi:nodetypes="ccccc"
         inkscape:connector-curvature="0"
         id="rect6741-1-0"
         d="m 26.5,28.5 -21,0 0,-27 21,0 z"
         style="fill:none;stroke:url(#linearGradient3119-0);stroke-width:0.99999994;stroke-linecap:round;stroke-linejoin:round;stroke-miterlimit:4;stroke-dasharray:none;stroke-dashoffset:0;stroke-opacity:1" />
      <path
         sodipodi:nodetypes="ccccc"
         d="m 4.4999677,0.49996093 c 5.270482,0 23.0000363,0.00185 23.0000363,0.00185 l 2.8e-5,28.99822807 c 0,0 -15.333375,0 -23.0000643,0 0,-9.666692 0,-19.333383 0,-29.00007387 z"
         id="path4160-3-4"
         style="display:inline;fill:none;fill-opacity:1;stroke:#000000;stroke-width:0.99992186;stroke-linecap:butt;stroke-linejoin:round;stroke-miterlimit:4;stroke-dasharray:none;stroke-dashoffset:0;stroke-opacity:0.35294118"
         inkscape:connector-curvature="0" />
    </g>
    <rect
       style="opacity:0.15;fill:url(#linearGradient3180);fill-opacity:1;fill-rule:nonzero;stroke:none;stroke-width:1;marker:none;visibility:visible;display:inline;overflow:visible"
       id="rect2879"
       y="29"
       x="4.9499893"
       height="2"
       width="22.100021" />
    <path
       inkscape:connector-curvature="0"
       style="opacity:0.15;fill:url(#radialGradient3048);fill-opacity:1;fill-rule:nonzero;stroke:none;stroke-width:1;marker:none;visibility:visible;display:inline;overflow:visible"
       id="path2881"
       d="m 4.9499887,29.000086 c 0,0 0,1.99989 0,1.99989 -0.806615,0.0038 -1.950002,-0.448074 -1.950002,-1.000074 0,-0.552 0.900121,-0.999816 1.950002,-0.999816 z" />
    <path
       inkscape:connector-curvature="0"
       style="opacity:0.15;fill:url(#radialGradient3045);fill-opacity:1;fill-rule:nonzero;stroke:none;stroke-width:1;marker:none;visibility:visible;display:inline;overflow:visible"
       id="path2883"
       d="m 27.050011,29.000086 c 0,0 0,1.99989 0,1.99989 0.806614,0.0038 1.950002,-0.448074 1.950002,-1.000074 0,-0.552 -0.900122,-0.999816 -1.950002,-0.999816 z" />
    <path
       inkscape:connector-curvature="0"
       style="display:inline;overflow:visible;visibility:visible;opacity:1;fill:#ffffff;fill-opacity:1;fill-rule:evenodd;stroke:none;stroke-width:1.21500194;marker:none"
       id="path2648-1"
       d="m 13.025359,21 -3.000458,0 0,3 3.000458,0 z m 2.991931,-14.9999997 -3.008069,0 0,3 3.008069,0 z m 6.021711,0 -3.039001,0 0,3 3.039001,0 z m -3.039001,3 -2.982712,0 0,2.9999997 L 19,12 Z m -9.024901,-3 -2.975099,0 0,3 2.975099,0 z m 15.024901,3 -2.961,0 L 22.039,12 25,12 Z M 22.039001,12 19,12 l 0,3 3.039001,0 z M 19,15 l -2.982712,0 0,3 L 19,18 Z m -2.98271,-3 -3.008069,0 0,3 3.008069,0 z m -3.008071,-2.9999997 -3.000458,0 0,2.9999997 3.000458,0 z M 10.008764,12 7,12 l 0,3 3.008764,0 z m 3.000455,3 -3.000458,0 0,3 3.000458,0 z M 10.008764,18 7,18 l 0,3 3.008764,0 z M 25,15 l -2.961,0 0,3 L 25,18 Z M 22.039001,18 19,18 l 0,3 3.039001,0 z M 25,21 l -2.961,0 0,3 L 25,24 Z M 22.039001,24 19,24 l 0,3 3.039001,0 z M 19,21 l -2.982712,0 0,3 L 19,24 Z m -2.98271,-3 -3.008069,0 0,3 3.008069,0 z m -0.03458,6 -3.008069,0 0,3 3.008069,0 z M 10.008764,24 7,24 l 0,3 3.008764,0 z"
       sodipodi:nodetypes="ccccccccccccccccccccccccccccccccccccccccccccccccccccccccccccccccccccccccccccccccccccccccccccccccccccccccc" />
    <path
       inkscape:connector-curvature="0"
       style="display:inline;overflow:visible;visibility:visible;opacity:1;fill:#000000;fill-opacity:0.39215687;fill-rule:evenodd;stroke:none;stroke-width:1.21500194;marker:none"
       id="path2648"
       d="m 13.025359,20 -3.000458,0 0,3 3.000458,0 z m 2.991931,-14.9999997 -3.008069,0 0,3 3.008069,0 z m 6.021711,0 -3.039001,0 0,3 3.039001,0 z m -3.039001,3 -2.982712,0 0,2.9999997 L 19,11 Z m -9.024901,-3 -2.975099,0 0,3 2.975099,0 z m 15.024901,3 -2.961,0 L 22.039,11 25,11 Z M 22.039001,11 19,11 l 0,3 3.039001,0 z M 19,14 l -2.982712,0 0,3 L 19,17 Z m -2.98271,-3 -3.008069,0 0,3 3.008069,0 z m -3.008071,-2.9999997 -3.000458,0 0,2.9999997 3.000458,0 z M 10.008764,11 7,11 l 0,3 3.008764,0 z m 3.000455,3 -3.000458,0 0,3 3.000458,0 z M 10.008764,17 7,17 l 0,3 3.008764,0 z M 25,14 l -2.961,0 0,3 L 25,17 Z M 22.039001,17 19,17 l 0,3 3.039001,0 z M 25,20 l -2.961,0 0,3 L 25,23 Z M 22.039001,23 19,23 l 0,3 3.039001,0 z M 19,20 l -2.982712,0 0,3 L 19,23 Z m -2.98271,-3 -3.008069,0 0,3 3.008069,0 z m -0.03458,6 -3.008069,0 0,3 3.008069,0 z M 10.008764,23 7,23 l 0,3 3.008764,0 z"
       sodipodi:nodetypes="ccccccccccccccccccccccccccccccccccccccccccccccccccccccccccccccccccccccccccccccccccccccccccccccccccccccccc" />
  </g>
</svg>
