<?xml version="1.0" encoding="UTF-8" standalone="no"?>
<!-- Created with Inkscape (http://www.inkscape.org/) -->

<svg
   xmlns:dc="http://purl.org/dc/elements/1.1/"
   xmlns:cc="http://creativecommons.org/ns#"
   xmlns:rdf="http://www.w3.org/1999/02/22-rdf-syntax-ns#"
   xmlns:svg="http://www.w3.org/2000/svg"
   xmlns="http://www.w3.org/2000/svg"
   xmlns:xlink="http://www.w3.org/1999/xlink"
   xmlns:sodipodi="http://sodipodi.sourceforge.net/DTD/sodipodi-0.dtd"
   xmlns:inkscape="http://www.inkscape.org/namespaces/inkscape"
   width="32px"
   height="32px"
   id="svg3182"
   version="1.1"
   inkscape:version="0.91 r13725"
   sodipodi:docname="text-x-readme.svg">
  <defs
     id="defs3184">
    <linearGradient
       id="linearGradient3977">
      <stop
         id="stop3979"
         style="stop-color:#ffffff;stop-opacity:1;"
         offset="0" />
      <stop
         offset="0.03626217"
         style="stop-color:#ffffff;stop-opacity:0.23529412;"
         id="stop3981" />
      <stop
         id="stop3983"
         style="stop-color:#ffffff;stop-opacity:0.15686275;"
         offset="0.95056331" />
      <stop
         id="stop3985"
         style="stop-color:#ffffff;stop-opacity:0.39215687;"
         offset="1" />
    </linearGradient>
    <linearGradient
       id="linearGradient3600-4">
      <stop
         offset="0"
         style="stop-color:#f4f4f4;stop-opacity:1"
         id="stop3602-7" />
      <stop
         offset="1"
         style="stop-color:#dbdbdb;stop-opacity:1"
         id="stop3604-6" />
    </linearGradient>
    <linearGradient
       id="linearGradient3104-5">
      <stop
         offset="0"
         style="stop-color:#a0a0a0;stop-opacity:1;"
         id="stop3106-6" />
      <stop
         offset="1"
         style="stop-color:#bebebe;stop-opacity:1;"
         id="stop3108-9" />
    </linearGradient>
    <linearGradient
       id="linearGradient5060">
      <stop
         id="stop5062"
         style="stop-color:#000000;stop-opacity:1"
         offset="0" />
      <stop
         id="stop5064"
         style="stop-color:#000000;stop-opacity:0"
         offset="1" />
    </linearGradient>
    <linearGradient
       id="linearGradient5048">
      <stop
         id="stop5050"
         style="stop-color:#000000;stop-opacity:0"
         offset="0" />
      <stop
         id="stop5056"
         style="stop-color:#000000;stop-opacity:1"
         offset="0.5" />
      <stop
         id="stop5052"
         style="stop-color:#000000;stop-opacity:0"
         offset="1" />
    </linearGradient>
    <linearGradient
       y2="609.50507"
       x2="302.85715"
       y1="366.64789"
       x1="302.85715"
       gradientTransform="matrix(0.09153846,0,0,0.02058823,-1.084616,1037.8136)"
       gradientUnits="userSpaceOnUse"
       id="linearGradient4229"
       xlink:href="#linearGradient5048"
       inkscape:collect="always" />
    <linearGradient
       id="linearGradient3977-2">
      <stop
         id="stop3979-1"
         style="stop-color:#ffffff;stop-opacity:1;"
         offset="0" />
      <stop
         offset="0.04878049"
         style="stop-color:#ffffff;stop-opacity:0.23529412;"
         id="stop3981-8" />
      <stop
         id="stop3983-1"
         style="stop-color:#ffffff;stop-opacity:0"
         offset="0.95056331" />
      <stop
         id="stop3985-9"
         style="stop-color:#000000;stop-opacity:0.04313726"
         offset="1" />
    </linearGradient>
    <linearGradient
       id="linearGradient3927">
      <stop
         style="stop-color:#fbfcfd;stop-opacity:1"
         offset="0"
         id="stop3929" />
      <stop
         style="stop-color:#ebeced;stop-opacity:1"
         offset="1"
         id="stop3931" />
    </linearGradient>
    <linearGradient
       y2="43.185177"
       x2="23.999994"
       y1="6.1851754"
       x1="23.999994"
       gradientTransform="matrix(0.56756757,0,0,0.72972971,2.378382,-2.5135063)"
       gradientUnits="userSpaceOnUse"
       id="linearGradient3119-1"
       xlink:href="#linearGradient3977-2"
       inkscape:collect="always" />
    <linearGradient
       y2="48.545509"
       x2="24.000002"
       y1="2.5226922"
       x1="24.000002"
       gradientTransform="matrix(0.62856997,0,0,0.60839387,0.91431981,-0.53479041)"
       gradientUnits="userSpaceOnUse"
       id="linearGradient3122-6"
       xlink:href="#linearGradient3927"
       inkscape:collect="always" />
    <radialGradient
       r="117.14286"
       fy="486.64789"
       fx="605.71429"
       cy="486.64789"
       cx="605.71429"
       gradientTransform="matrix(0.01566318,0,0,0.00823529,17.610433,25.980565)"
       gradientUnits="userSpaceOnUse"
       id="radialGradient3045-4"
       xlink:href="#linearGradient5060"
       inkscape:collect="always" />
    <radialGradient
       r="117.14286"
       fy="486.64789"
       fx="605.71429"
       cy="486.64789"
       cx="605.71429"
       gradientTransform="matrix(-0.01566318,0,0,0.00823529,14.389566,25.980565)"
       gradientUnits="userSpaceOnUse"
       id="radialGradient3048-2"
       xlink:href="#linearGradient5060"
       inkscape:collect="always" />
    <linearGradient
       inkscape:collect="always"
       xlink:href="#linearGradient5048"
       id="linearGradient4288"
       gradientUnits="userSpaceOnUse"
       gradientTransform="matrix(0.04576928,0,0,0.00823529,-0.5423243,25.980548)"
       x1="302.85715"
       y1="366.64789"
       x2="302.85715"
       y2="609.50507" />
    <linearGradient
       inkscape:collect="always"
       xlink:href="#linearGradient5048"
       id="linearGradient4297"
       gradientUnits="userSpaceOnUse"
       gradientTransform="matrix(0.04576928,0,0,0.00823529,-0.5423243,25.980548)"
       x1="302.85715"
       y1="366.64789"
       x2="302.85715"
       y2="609.50507" />
  </defs>
  <sodipodi:namedview
     id="base"
     pagecolor="#ffffff"
     bordercolor="#666666"
     borderopacity="1.0"
     inkscape:pageopacity="0.0"
     inkscape:pageshadow="2"
     inkscape:zoom="1"
     inkscape:cx="-7.3174535"
     inkscape:cy="6.9534179"
     inkscape:current-layer="layer1"
     showgrid="false"
     inkscape:grid-bbox="true"
     inkscape:document-units="px"
     inkscape:window-width="1366"
     inkscape:window-height="718"
     inkscape:window-x="0"
     inkscape:window-y="25"
     inkscape:window-maximized="1">
    <inkscape:grid
       type="xygrid"
       id="grid4154" />
  </sodipodi:namedview>
  <metadata
     id="metadata3187">
    <rdf:RDF>
      <cc:Work
         rdf:about="">
        <dc:format>image/svg+xml</dc:format>
        <dc:type
           rdf:resource="http://purl.org/dc/dcmitype/StillImage" />
        <dc:title />
      </cc:Work>
    </rdf:RDF>
  </metadata>
  <g
     id="layer1"
     inkscape:label="Layer 1"
     inkscape:groupmode="layer">
    <g
       inkscape:label="Layer 1"
       id="layer1-5"
       transform="translate(1.33e-5,0)">
      <rect
         width="22.100021"
         height="2"
         x="4.9499893"
         y="29"
         id="rect2879-1"
         style="display:inline;overflow:visible;visibility:visible;opacity:0.15;fill:url(#linearGradient4297);fill-opacity:1;fill-rule:nonzero;stroke:none;stroke-width:1;marker:none" />
      <path
         d="m 4.9499887,29.000086 c 0,0 0,1.99989 0,1.99989 -0.806615,0.0038 -1.950002,-0.448074 -1.950002,-1.000074 0,-0.552 0.900121,-0.999816 1.950002,-0.999816 z"
         id="path2881-9"
         style="display:inline;overflow:visible;visibility:visible;opacity:0.15;fill:url(#radialGradient3048-2);fill-opacity:1;fill-rule:nonzero;stroke:none;stroke-width:1;marker:none"
         inkscape:connector-curvature="0" />
      <path
         d="m 27.050011,29.000086 c 0,0 0,1.99989 0,1.99989 0.806614,0.0038 1.950002,-0.448074 1.950002,-1.000074 0,-0.552 -0.900122,-0.999816 -1.950002,-0.999816 z"
         id="path2883-8"
         style="display:inline;overflow:visible;visibility:visible;opacity:0.15;fill:url(#radialGradient3045-4);fill-opacity:1;fill-rule:nonzero;stroke:none;stroke-width:1;marker:none"
         inkscape:connector-curvature="0" />
      <path
         sodipodi:nodetypes="ccccc"
         d="m 5,1 c 5.041317,0 21.999974,0.00179 21.999974,0.00179 L 27,29 C 27,29 12.333334,29 5,29 5,19.666666 5,10.333335 5,1.000004 Z"
         id="path4160-3-31"
         style="display:inline;fill:url(#linearGradient3122-6);fill-opacity:1;stroke:none;stroke-width:0.99992186;stroke-linecap:butt;stroke-linejoin:round;stroke-miterlimit:4;stroke-dasharray:none;stroke-dashoffset:0;stroke-opacity:1"
         inkscape:connector-curvature="0" />
      <path
         sodipodi:nodetypes="ccccc"
         inkscape:connector-curvature="0"
         id="rect6741-1-3"
         d="m 26.5,28.5 -21,0 0,-27 21,0 z"
         style="fill:none;stroke:url(#linearGradient3119-1);stroke-width:0.99999994;stroke-linecap:round;stroke-linejoin:round;stroke-miterlimit:4;stroke-dasharray:none;stroke-dashoffset:0;stroke-opacity:1" />
      <path
         sodipodi:nodetypes="ccccc"
         d="m 4.4999677,0.49996093 c 5.270482,0 23.0000363,0.00185 23.0000363,0.00185 l 2.8e-5,28.99822807 c 0,0 -15.333375,0 -23.0000643,0 0,-9.666692 0,-19.333383 0,-29.00007387 z"
         id="path4160-3-4"
         style="display:inline;fill:none;fill-opacity:1;stroke:#000000;stroke-width:0.99992186;stroke-linecap:butt;stroke-linejoin:round;stroke-miterlimit:4;stroke-dasharray:none;stroke-dashoffset:0;stroke-opacity:0.35294118"
         inkscape:connector-curvature="0" />
    </g>
    <path
       inkscape:connector-curvature="0"
       d="m 12.3,15.84689 c 0.17209,0.46782 0.365789,0.847023 0.77839,0.328514 0.511534,-0.304349 2.225491,-1.638404 2.053988,-0.331667 -0.548808,2.41804 -1.216829,4.81065 -1.727607,7.236138 -0.534091,1.328064 0.678725,2.529354 1.944993,1.665707 1.345961,-0.55486 2.504158,-1.458631 3.687386,-2.287705 -0.161444,-0.395931 -0.269048,-0.964683 -0.715133,-0.446896 -0.585733,0.265856 -1.865036,1.519271 -2.102708,0.485485 0.49201,-2.618299 1.403593,-5.139675 1.986293,-7.737098 0.536235,-1.194289 -0.339542,-2.703316 -1.65048,-1.715385 -1.570537,0.68402 -2.883918,1.801394 -4.255122,2.802907 z m 5.828769,-8.8062347 c -1.602412,-0.08504 -2.440209,2.498095 -0.917447,3.2049567 1.235406,0.506649 2.580542,-0.7604147 2.278737,-2.0265057 -0.09366,-0.659264 -0.685554,-1.200627 -1.361289,-1.178451 l -1e-6,0 z"
       id="text3482-3"
       style="font-style:normal;font-variant:normal;font-weight:bold;font-stretch:normal;font-size:40px;line-height:100%;font-family:'URW Palladio L';-inkscape-font-specification:'URW Palladio L Bold';text-align:start;writing-mode:lr-tb;text-anchor:start;opacity:1;fill:#ffffff;fill-opacity:1;stroke:#ffffff;stroke-opacity:1" />
    <path
       inkscape:connector-curvature="0"
       d="m 12.3,14.84077 c 0.17209,0.46782 0.365789,0.847023 0.77839,0.328514 0.511534,-0.304349 2.225491,-1.638404 2.053988,-0.331667 -0.548808,2.41804 -1.216829,4.81065 -1.727607,7.236138 -0.534091,1.328064 0.678725,2.529354 1.944993,1.665707 1.345961,-0.55486 2.504158,-1.458631 3.687386,-2.287705 -0.161444,-0.395931 -0.269048,-0.964683 -0.715133,-0.446896 -0.585733,0.265856 -1.865036,1.519271 -2.102708,0.485485 0.49201,-2.618299 1.403593,-5.139675 1.986293,-7.737098 0.536235,-1.194289 -0.339542,-2.703316 -1.65048,-1.715385 -1.570537,0.68402 -2.883918,1.801394 -4.255122,2.802907 z m 5.828769,-8.8062379 c -1.602412,-0.08504 -2.440209,2.498095 -0.917447,3.204957 1.235406,0.5066513 2.580542,-0.760415 2.278737,-2.026506 -0.09366,-0.659264 -0.685554,-1.200627 -1.361289,-1.178451 l -1e-6,0 z"
       id="text3482"
       style="font-size:40px;font-style:normal;font-variant:normal;font-weight:bold;font-stretch:normal;text-align:start;line-height:100%;writing-mode:lr-tb;text-anchor:start;opacity:1;fill:#8c8c8c;fill-opacity:1;stroke:#646464;font-family:URW Palladio L;-inkscape-font-specification:URW Palladio L Bold;stroke-opacity:1" />
  </g>
</svg>
