<?xml version="1.0" encoding="UTF-8" standalone="no"?>
<!-- Created with Inkscape (http://www.inkscape.org/) -->

<svg
   xmlns:dc="http://purl.org/dc/elements/1.1/"
   xmlns:cc="http://creativecommons.org/ns#"
   xmlns:rdf="http://www.w3.org/1999/02/22-rdf-syntax-ns#"
   xmlns:svg="http://www.w3.org/2000/svg"
   xmlns="http://www.w3.org/2000/svg"
   xmlns:xlink="http://www.w3.org/1999/xlink"
   xmlns:sodipodi="http://sodipodi.sourceforge.net/DTD/sodipodi-0.dtd"
   xmlns:inkscape="http://www.inkscape.org/namespaces/inkscape"
   width="32px"
   height="32px"
   id="svg3182"
   version="1.1"
   inkscape:version="0.91 r13725"
   sodipodi:docname="text-x-script.svg">
  <defs
     id="defs3184">
    <linearGradient
       id="linearGradient3977">
      <stop
         id="stop3979"
         style="stop-color:#ffffff;stop-opacity:1;"
         offset="0" />
      <stop
         offset="0.03626217"
         style="stop-color:#ffffff;stop-opacity:0.23529412;"
         id="stop3981" />
      <stop
         id="stop3983"
         style="stop-color:#ffffff;stop-opacity:0.15686275;"
         offset="0.95056331" />
      <stop
         id="stop3985"
         style="stop-color:#ffffff;stop-opacity:0.39215687;"
         offset="1" />
    </linearGradient>
    <linearGradient
       id="linearGradient3600-4">
      <stop
         offset="0"
         style="stop-color:#f4f4f4;stop-opacity:1"
         id="stop3602-7" />
      <stop
         offset="1"
         style="stop-color:#dbdbdb;stop-opacity:1"
         id="stop3604-6" />
    </linearGradient>
    <linearGradient
       id="linearGradient3104-5">
      <stop
         offset="0"
         style="stop-color:#a0a0a0;stop-opacity:1;"
         id="stop3106-6" />
      <stop
         offset="1"
         style="stop-color:#bebebe;stop-opacity:1;"
         id="stop3108-9" />
    </linearGradient>
    <linearGradient
       id="linearGradient5060">
      <stop
         id="stop5062"
         style="stop-color:#000000;stop-opacity:1"
         offset="0" />
      <stop
         id="stop5064"
         style="stop-color:#000000;stop-opacity:0"
         offset="1" />
    </linearGradient>
    <linearGradient
       id="linearGradient5048">
      <stop
         id="stop5050"
         style="stop-color:#000000;stop-opacity:0"
         offset="0" />
      <stop
         id="stop5056"
         style="stop-color:#000000;stop-opacity:1"
         offset="0.5" />
      <stop
         id="stop5052"
         style="stop-color:#000000;stop-opacity:0"
         offset="1" />
    </linearGradient>
    <linearGradient
       inkscape:collect="always"
       xlink:href="#linearGradient3104"
       id="linearGradient3034"
       gradientUnits="userSpaceOnUse"
       gradientTransform="translate(-4.982096,-5.0420677)"
       x1="21.982096"
       y1="36.042068"
       x2="21.982096"
       y2="6.0420675" />
    <linearGradient
       id="linearGradient3104">
      <stop
         id="stop3106"
         style="stop-color:#aaaaaa;stop-opacity:1"
         offset="0" />
      <stop
         id="stop3108"
         style="stop-color:#c8c8c8;stop-opacity:1"
         offset="1" />
    </linearGradient>
    <linearGradient
       y2="43.185177"
       x2="23.999994"
       y1="6.1851754"
       x1="23.999994"
       gradientTransform="matrix(0.56756757,0,0,0.72972971,2.378382,-2.5135063)"
       gradientUnits="userSpaceOnUse"
       id="linearGradient3119-2"
       xlink:href="#linearGradient3977-7"
       inkscape:collect="always" />
    <linearGradient
       y2="48.545509"
       x2="24.000002"
       y1="2.5226922"
       x1="24.000002"
       gradientTransform="matrix(0.62856997,0,0,0.60839387,0.91431981,-0.53479041)"
       gradientUnits="userSpaceOnUse"
       id="linearGradient3122-1"
       xlink:href="#linearGradient3927"
       inkscape:collect="always" />
    <radialGradient
       r="117.14286"
       fy="486.64789"
       fx="605.71429"
       cy="486.64789"
       cx="605.71429"
       gradientTransform="matrix(0.01566318,0,0,0.00823529,17.610433,25.980565)"
       gradientUnits="userSpaceOnUse"
       id="radialGradient3045-5"
       xlink:href="#linearGradient5060"
       inkscape:collect="always" />
    <radialGradient
       r="117.14286"
       fy="486.64789"
       fx="605.71429"
       cy="486.64789"
       cx="605.71429"
       gradientTransform="matrix(-0.01566318,0,0,0.00823529,14.389566,25.980565)"
       gradientUnits="userSpaceOnUse"
       id="radialGradient3048-0"
       xlink:href="#linearGradient5060"
       inkscape:collect="always" />
    <linearGradient
       inkscape:collect="always"
       xlink:href="#linearGradient5048"
       id="linearGradient4236"
       gradientUnits="userSpaceOnUse"
       gradientTransform="matrix(0.04576928,0,0,0.00823529,-0.5423243,25.980548)"
       x1="302.85715"
       y1="366.64789"
       x2="302.85715"
       y2="609.50507" />
    <linearGradient
       id="linearGradient3977-7">
      <stop
         offset="0"
         style="stop-color:#ffffff;stop-opacity:1;"
         id="stop3979-3" />
      <stop
         id="stop3981-7"
         style="stop-color:#ffffff;stop-opacity:0.23529412;"
         offset="0.04878049" />
      <stop
         offset="0.95056331"
         style="stop-color:#ffffff;stop-opacity:0"
         id="stop3983-3" />
      <stop
         offset="1"
         style="stop-color:#000000;stop-opacity:0.04313726"
         id="stop3985-6" />
    </linearGradient>
    <linearGradient
       id="linearGradient3927">
      <stop
         id="stop3929"
         offset="0"
         style="stop-color:#fbfcfd;stop-opacity:1" />
      <stop
         id="stop3931"
         offset="1"
         style="stop-color:#ebeced;stop-opacity:1" />
    </linearGradient>
    <linearGradient
       id="linearGradient5031">
      <stop
         offset="0"
         style="stop-color:#a3a3a3;stop-opacity:1"
         id="stop5033" />
      <stop
         offset="1"
         style="stop-color:#bababa;stop-opacity:1"
         id="stop5035" />
    </linearGradient>
    <linearGradient
       id="linearGradient3977-4">
      <stop
         offset="0"
         style="stop-color:#ffffff;stop-opacity:1;"
         id="stop3979-7" />
      <stop
         id="stop3981-6"
         style="stop-color:#ffffff;stop-opacity:0.23529412;"
         offset="0.01214366" />
      <stop
         offset="0.98781353"
         style="stop-color:#ffffff;stop-opacity:0.15686275;"
         id="stop3983-5" />
      <stop
         offset="1"
         style="stop-color:#ffffff;stop-opacity:0.39215687;"
         id="stop3985-6-8" />
    </linearGradient>
    <linearGradient
       inkscape:collect="always"
       xlink:href="#linearGradient5048"
       id="linearGradient4343"
       gradientUnits="userSpaceOnUse"
       gradientTransform="matrix(0.04576928,0,0,0.00823529,-0.5423243,25.980548)"
       x1="302.85715"
       y1="366.64789"
       x2="302.85715"
       y2="609.50507" />
  </defs>
  <sodipodi:namedview
     id="base"
     pagecolor="#ffffff"
     bordercolor="#666666"
     borderopacity="1.0"
     inkscape:pageopacity="0.0"
     inkscape:pageshadow="2"
     inkscape:zoom="1"
     inkscape:cx="20.213309"
     inkscape:cy="18.20204"
     inkscape:current-layer="layer1"
     showgrid="false"
     inkscape:grid-bbox="true"
     inkscape:document-units="px"
     inkscape:window-width="1366"
     inkscape:window-height="718"
     inkscape:window-x="0"
     inkscape:window-y="25"
     inkscape:window-maximized="1"
     inkscape:object-paths="true"
     inkscape:snap-intersection-paths="true"
     inkscape:object-nodes="true"
     inkscape:snap-smooth-nodes="true">
    <inkscape:grid
       type="xygrid"
       id="grid4291" />
  </sodipodi:namedview>
  <metadata
     id="metadata3187">
    <rdf:RDF>
      <cc:Work
         rdf:about="">
        <dc:format>image/svg+xml</dc:format>
        <dc:type
           rdf:resource="http://purl.org/dc/dcmitype/StillImage" />
        <dc:title />
      </cc:Work>
    </rdf:RDF>
  </metadata>
  <g
     id="layer1"
     inkscape:label="Layer 1"
     inkscape:groupmode="layer">
    <g
       inkscape:label="Layer 1"
       id="layer1-5"
       transform="translate(1.33e-5,0)">
      <rect
         width="22.100021"
         height="2"
         x="4.9499893"
         y="29"
         id="rect2879-7"
         style="display:inline;overflow:visible;visibility:visible;opacity:0.15;fill:url(#linearGradient4343);fill-opacity:1;fill-rule:nonzero;stroke:none;stroke-width:1;marker:none" />
      <path
         d="m 4.9499887,29.000086 c 0,0 0,1.99989 0,1.99989 -0.806615,0.0038 -1.950002,-0.448074 -1.950002,-1.000074 0,-0.552 0.900121,-0.999816 1.950002,-0.999816 z"
         id="path2881-2"
         style="display:inline;overflow:visible;visibility:visible;opacity:0.15;fill:url(#radialGradient3048-0);fill-opacity:1;fill-rule:nonzero;stroke:none;stroke-width:1;marker:none"
         inkscape:connector-curvature="0" />
      <path
         d="m 27.050011,29.000086 c 0,0 0,1.99989 0,1.99989 0.806614,0.0038 1.950002,-0.448074 1.950002,-1.000074 0,-0.552 -0.900122,-0.999816 -1.950002,-0.999816 z"
         id="path2883-5"
         style="display:inline;overflow:visible;visibility:visible;opacity:0.15;fill:url(#radialGradient3045-5);fill-opacity:1;fill-rule:nonzero;stroke:none;stroke-width:1;marker:none"
         inkscape:connector-curvature="0" />
      <path
         sodipodi:nodetypes="ccccc"
         d="m 5,1 c 5.041317,0 21.999974,0.00179 21.999974,0.00179 L 27,29 C 27,29 12.333334,29 5,29 5,19.666666 5,10.333335 5,1.000004 Z"
         id="path4160-3-3"
         style="display:inline;fill:url(#linearGradient3122-1);fill-opacity:1;stroke:none;stroke-width:0.99992186;stroke-linecap:butt;stroke-linejoin:round;stroke-miterlimit:4;stroke-dasharray:none;stroke-dashoffset:0;stroke-opacity:1"
         inkscape:connector-curvature="0" />
      <path
         sodipodi:nodetypes="ccccc"
         inkscape:connector-curvature="0"
         id="rect6741-1-5"
         d="m 26.5,28.5 -21,0 0,-27 21,0 z"
         style="fill:none;stroke:url(#linearGradient3119-2);stroke-width:0.99999994;stroke-linecap:round;stroke-linejoin:round;stroke-miterlimit:4;stroke-dasharray:none;stroke-dashoffset:0;stroke-opacity:1" />
      <path
         sodipodi:nodetypes="ccccc"
         d="m 4.4999677,0.49996093 c 5.270482,0 23.0000363,0.00185 23.0000363,0.00185 l 2.8e-5,28.99822807 c 0,0 -15.333375,0 -23.0000643,0 0,-9.666692 0,-19.333383 0,-29.00007387 z"
         id="path4160-3-4"
         style="display:inline;fill:none;fill-opacity:1;stroke:#000000;stroke-width:0.99992186;stroke-linecap:butt;stroke-linejoin:round;stroke-miterlimit:4;stroke-dasharray:none;stroke-dashoffset:0;stroke-opacity:0.35294118"
         inkscape:connector-curvature="0" />
    </g>
    <path
       inkscape:connector-curvature="0"
       style="fill:none;stroke:#588ba9;stroke-width:1px;stroke-linecap:butt;stroke-linejoin:miter;stroke-opacity:1"
       id="path2609"
       d="m 8,5.5050057 2.244,0 z m 2.6875,0 2.1875,0 z m 2.53125,0 1.9375,0 z m 2.25,0 0.84375,0 z m -7.46875,2 3.65625,0 z m 4.0625,0 1.75,0 z m 2.0625,0 0.875,0 z m 1.21875,0 1.59375,0 z m 1.9375,0 1.625,0 z M 8,9.500001 l 4.28125,0 z m 4.625,0 4.625,0 z M 14.328125,17.5 l 0.84375,0 z m 1.1875,0 1.875,0 z m 2.25,0 4.90625,0 z m -2.6875,2.075 1.84375,0 z M 14.05,25.5 l 2.96875,0 z m 3.85625,0 1.1875,0 z"
       sodipodi:nodetypes="ccccccccccccccccccccccccccccccccccccccccccccccccccc" />
    <g
       transform="translate(27.060241,6.7752424)"
       id="g4199">
      <path
         d="m -15.569698,10.277108 0.933683,0 0,1 -0.933683,0 z"
         id="path4217"
         style="fill:#ff7a46;fill-opacity:1;stroke:none;display:inline"
         inkscape:connector-curvature="0"
         sodipodi:nodetypes="ccccc" />
      <path
         d="m -14.482898,10.277108 0.410114,0 0,1 -0.410114,0 z"
         id="path4219"
         style="fill:#ff7a46;fill-opacity:1;stroke:none;display:inline"
         inkscape:connector-curvature="0"
         sodipodi:nodetypes="ccccc" />
      <path
         d="m -19.060241,16.277108 1.996686,0 0,1 -1.996686,0 0,-1 z"
         id="path4251"
         style="opacity:0.7;fill:#666666;fill-opacity:1;stroke:none;display:inline"
         inkscape:connector-curvature="0" />
      <path
         d="m -16.907035,16.277108 2.139473,0 0,1 -2.139473,0 0,-1 z"
         id="path4253"
         style="opacity:0.7;fill:#666666;fill-opacity:1;stroke:none;display:inline"
         inkscape:connector-curvature="0" />
      <path
         d="m -14.611041,16.277108 0.854355,0 0,1 -0.854355,0 0,-1 z"
         id="path4255"
         style="fill:#ff7a46;fill-opacity:1;stroke:none;display:inline"
         inkscape:connector-curvature="0" />
      <path
         d="m -13.600165,16.277108 2.012549,0 0,1 -2.012549,0 0,-1 z"
         id="path4257"
         style="fill:#ff7a46;fill-opacity:1;stroke:none;display:inline"
         inkscape:connector-curvature="0" />
      <path
         d="m -9.896655,16.277108 0.537037,0 0,1 -0.537037,0 0,-1 z"
         id="path4259"
         style="fill:#ff7a46;fill-opacity:1;stroke:none;display:inline"
         inkscape:connector-curvature="0" />
      <path
         d="m -11.431095,16.277108 1.377919,0 0,1 -1.377919,0 0,-1 z"
         id="path4261"
         style="fill:#ff7a46;fill-opacity:1;stroke:none;display:inline"
         inkscape:connector-curvature="0" />
      <path
         d="m -9.203097,16.277108 0.314918,0 0,1 -0.314918,0 0,-1 z"
         id="path4263"
         style="fill:#ff7a46;fill-opacity:1;stroke:none;display:inline"
         inkscape:connector-curvature="0" />
      <path
         d="m -8.731658,16.277108 0.854355,0 0,1 -0.854355,0 0,-1 z"
         id="path4265"
         style="fill:#ff7a46;fill-opacity:1;stroke:none;display:inline"
         inkscape:connector-curvature="0" />
      <path
         d="m -16.465904,12.277108 2.393326,0 0,1 -2.393326,0 z"
         id="path4269"
         style="fill:#ff7a46;fill-opacity:1;stroke:none;display:inline"
         inkscape:connector-curvature="0"
         sodipodi:nodetypes="ccccc" />
      <path
         d="m -19.060241,14.277108 1.806297,0 0,1 -1.806297,0 0,-1 z"
         id="path4271"
         style="fill:#5edf52;fill-opacity:1;stroke:none;display:inline"
         inkscape:connector-curvature="0" />
      <path
         d="m -17.104791,14.277108 0.56877,0 0,1 -0.56877,0 0,-1 z"
         id="path4273"
         style="fill:#5edf52;fill-opacity:1;stroke:none;display:inline"
         inkscape:connector-curvature="0" />
      <path
         d="m -16.386869,14.277108 1.298596,0 0,1 -1.298596,0 0,-1 z"
         id="path4275"
         style="opacity:0.7;fill:#666666;fill-opacity:1;stroke:none;display:inline"
         inkscape:connector-curvature="0" />
      <path
         d="m -14.939121,14.277108 0.886087,0 0,1 -0.886087,0 0,-1 z"
         id="path4277"
         style="opacity:0.7;fill:#666666;fill-opacity:1;stroke:none;display:inline"
         inkscape:connector-curvature="0" />
      <path
         d="m -19.060241,18.277108 1.48749,0 0,1 -1.48749,0 0,-1 z"
         id="path4283"
         style="fill:#de6161;fill-opacity:1;stroke:none;display:inline"
         inkscape:connector-curvature="0" />
      <path
         d="m -17.333827,18.277108 2.647178,0 0,1 -2.647178,0 0,-1 z"
         id="path4285"
         style="opacity:0.7;fill:#666666;fill-opacity:1;stroke:none;display:inline"
         inkscape:connector-curvature="0" />
    </g>
    <path
       inkscape:connector-curvature="0"
       style="fill:#b78ed4;fill-opacity:1;stroke:none;display:inline"
       d="m 8,12 0,1 3.0625,0 0,-1 L 8,12 z m 0,2 0,1 3.09375,0 0,-1 L 8,14 z"
       id="path4063" />
    <path
       inkscape:connector-curvature="0"
       style="fill:#ff7a46;fill-opacity:1;stroke:none;display:inline"
       d="m 12.40625,12 0,1 L 18,13 18,12 z m 0.03125,2 0,1 5.09375,0 0,-1 z"
       id="path4061"
       sodipodi:nodetypes="cccccccccc" />
    <path
       inkscape:connector-curvature="0"
       style="fill:#5edf52;fill-opacity:1;stroke:none;display:inline"
       d="m 8,17 0,1 2.53125,0 0,-1 z M 8,19.03125 8,20 l 2.21875,0 0,-0.96875 z"
       id="path5302"
       sodipodi:nodetypes="cccccccccc" />
  </g>
</svg>
