<?xml version="1.0" encoding="UTF-8" standalone="no"?>
<!-- Created with Inkscape (http://www.inkscape.org/) -->

<svg
   xmlns:dc="http://purl.org/dc/elements/1.1/"
   xmlns:cc="http://creativecommons.org/ns#"
   xmlns:rdf="http://www.w3.org/1999/02/22-rdf-syntax-ns#"
   xmlns:svg="http://www.w3.org/2000/svg"
   xmlns="http://www.w3.org/2000/svg"
   xmlns:xlink="http://www.w3.org/1999/xlink"
   xmlns:sodipodi="http://sodipodi.sourceforge.net/DTD/sodipodi-0.dtd"
   xmlns:inkscape="http://www.inkscape.org/namespaces/inkscape"
   id="svg2"
   version="1.1"
   inkscape:version="0.91 r13725"
   width="64"
   height="64"
   viewBox="0 0 64 64"
   sodipodi:docname="emblem-system.svg">
  <metadata
     id="metadata8">
    <rdf:RDF>
      <cc:Work
         rdf:about="">
        <dc:format>image/svg+xml</dc:format>
        <dc:type
           rdf:resource="http://purl.org/dc/dcmitype/StillImage" />
        <dc:title></dc:title>
      </cc:Work>
    </rdf:RDF>
  </metadata>
  <defs
     id="defs6">
    <linearGradient
       id="linearGradient3763">
      <stop
         id="stop3765"
         offset="0"
         style="stop-color:#4c4c4c;stop-opacity:1" />
      <stop
         id="stop3767"
         offset="1"
         style="stop-color:#7d7d7d;stop-opacity:1" />
    </linearGradient>
    <linearGradient
       inkscape:collect="always"
       xlink:href="#linearGradient3763-2"
       id="linearGradient4173"
       x1="6.9999952"
       y1="14"
       x2="21.000006"
       y2="14"
       gradientUnits="userSpaceOnUse"
       gradientTransform="matrix(2.8571425,0,0,2.8571421,-72.000008,3.0000103)" />
    <linearGradient
       id="linearGradient3763-2">
      <stop
         id="stop3765-7"
         offset="0"
         style="stop-color:#646464;stop-opacity:1" />
      <stop
         id="stop3767-5"
         offset="1"
         style="stop-color:#969696;stop-opacity:1" />
    </linearGradient>
    <linearGradient
       inkscape:collect="always"
       xlink:href="#linearGradient4144"
       id="linearGradient4150"
       x1="10.000001"
       y1="12.000001"
       x2="13.000001"
       y2="12.000001"
       gradientUnits="userSpaceOnUse"
       gradientTransform="matrix(2.9999216,0,0,2.9999214,-15.998752,-78.999055)" />
    <linearGradient
       inkscape:collect="always"
       id="linearGradient4144">
      <stop
         style="stop-color:#ffffff;stop-opacity:1"
         offset="0"
         id="stop4146" />
      <stop
         style="stop-color:#ffffff;stop-opacity:0"
         offset="1"
         id="stop4148" />
    </linearGradient>
  </defs>
  <sodipodi:namedview
     pagecolor="#ffffff"
     bordercolor="#666666"
     borderopacity="1"
     objecttolerance="10"
     gridtolerance="10"
     guidetolerance="10"
     inkscape:pageopacity="0"
     inkscape:pageshadow="2"
     inkscape:window-width="1920"
     inkscape:window-height="1030"
     id="namedview4"
     showgrid="true"
     inkscape:snap-bbox="true"
     inkscape:bbox-paths="true"
     inkscape:bbox-nodes="true"
     inkscape:object-nodes="true"
     inkscape:zoom="16"
     inkscape:cx="52.570798"
     inkscape:cy="39.315214"
     inkscape:window-x="0"
     inkscape:window-y="25"
     inkscape:window-maximized="1"
     inkscape:current-layer="svg2"
     showguides="false"
     inkscape:snap-intersection-paths="true"
     inkscape:object-paths="true"
     inkscape:snap-smooth-nodes="true"
     inkscape:snap-object-midpoints="true">
    <inkscape:grid
       type="xygrid"
       id="grid4161" />
  </sodipodi:namedview>
  <rect
     rx="1.5"
     style="opacity:0.80500034;fill:#000000;fill-opacity:1;stroke:#ff0505;stroke-width:0;stroke-linecap:butt;stroke-linejoin:round;stroke-miterlimit:4;stroke-dasharray:none;stroke-dashoffset:0;stroke-opacity:1"
     id="rect4163"
     width="41.999989"
     height="41.999989"
     x="22.000004"
     y="11.000005"
     ry="1.5" />
  <rect
     style="opacity:0.88500001;fill:url(#linearGradient4173);fill-opacity:1;stroke:#ff0505;stroke-width:0;stroke-linecap:butt;stroke-linejoin:round;stroke-miterlimit:4;stroke-dasharray:none;stroke-dashoffset:0;stroke-opacity:1"
     id="rect4165"
     width="39.999996"
     height="39.999992"
     x="-52"
     y="23.000008"
     ry="0.5"
     transform="matrix(0,-1,1,0,0,0)"
     rx="0.49999997" />
  <rect
     style="opacity:0.2;fill:none;fill-opacity:1;stroke:url(#linearGradient4150);stroke-width:1;stroke-linecap:butt;stroke-linejoin:round;stroke-miterlimit:4;stroke-dasharray:none;stroke-dashoffset:0;stroke-opacity:1"
     id="rect4142"
     width="39"
     height="39"
     x="12.5"
     y="-62.5"
     transform="matrix(0,1,-1,0,0,0)" />
  <g
     id="g4188"
     transform="matrix(1.3203127,0,0,1.3203149,1.2265407,0.7889653)" />
  <g
     id="g4237"
     transform="matrix(1.3311803,0,0,1.3318235,0.38704797,0.04529553)" />
  <path
     inkscape:connector-curvature="0"
     d="m 41.666668,19.000006 -0.666667,3.166667 c -0.4913,0.112319 -0.956044,0.305891 -1.416667,0.5 -0.05867,0.02471 -0.108627,0.05744 -0.166667,0.08333 -0.414788,0.1764 -0.823056,0.34091 -1.208332,0.583333 l -2.750002,-1.750001 -1.875,1.875001 1.791667,2.708333 c -0.275888,0.438463 -0.517621,0.899647 -0.708333,1.375 -0.20127,0.470978 -0.343376,0.953211 -0.458333,1.458334 L 31,29.666671 l 0,2.666667 3.208334,0.666666 c 0.114959,0.505122 0.257063,0.987355 0.458333,1.458333 0.1867,0.464281 0.441932,0.904754 0.708333,1.333333 0.0066,0.0104 -0.0066,0.03126 0,0.04167 l -1.791667,2.708334 1.875,1.875 2.750002,-1.750001 c 0.39076,0.245337 0.796606,0.40692 1.208332,0.583333 0.04628,0.02065 0.07832,0.06344 0.125001,0.08333 0.01186,0.0047 0.02979,-0.0047 0.04167,0 0.460186,0.193832 0.925874,0.346128 1.416667,0.458334 L 41.666667,43 44.333333,43 45,39.791667 c 0.97135,-0.222745 1.922448,-0.620012 2.791667,-1.166667 l 0.04167,0 2.708334,1.791667 1.875,-1.875 L 50.625,35.791666 c 0.26467,-0.422175 0.521591,-0.860471 0.708333,-1.333333 0.0049,-0.01254 -0.0049,-0.02915 0,-0.04167 0.01227,-0.02829 0.02969,-0.05495 0.04167,-0.08333 0.185399,-0.439556 0.31205,-0.877117 0.416668,-1.333334 L 55,32.333337 55,29.66667 51.791667,29.000004 C 51.628179,28.252722 51.392469,27.56253 51.041666,26.875003 51.033401,26.858887 51.008325,26.849403 51,26.833337 50.889827,26.62071 50.796458,26.373399 50.666666,26.166671 l 1.750001,-2.708333 -1.875,-1.875001 -2.708334,1.750001 c -0.437827,-0.274896 -0.899419,-0.475431 -1.374991,-0.666671 -0.468247,-0.199 -0.946452,-0.382974 -1.458333,-0.5 L 44.333342,19 41.666676,19 Z m 1.333333,7.999999 c 0.255794,3.34e-4 0.539779,0.03409 0.791667,0.08333 0.01293,0.0025 0.02876,-0.0026 0.04167,0 0.237847,0.04909 0.439187,0.115587 0.666666,0.208334 0.2405,0.09806 0.486704,0.228269 0.708333,0.374999 0.01016,0.0068 0.03157,-0.0069 0.04168,0 0.211733,0.142664 0.395992,0.31266 0.583333,0.500002 0.187341,0.18734 0.357337,0.3716 0.5,0.583333 0.0069,0.01016 -0.0069,0.0315 0,0.04166 0.14673,0.221632 0.276943,0.467834 0.375,0.708334 0.08662,0.212441 0.159788,0.444999 0.208333,0.666667 0.05335,0.261503 0.08333,0.555279 0.08333,0.833333 0,0.278054 -0.02998,0.530165 -0.08333,0.791667 -0.05059,0.248016 -0.114466,0.479764 -0.208333,0.708333 -0.05131,0.126387 -0.101827,0.253212 -0.166668,0.375 -0.308725,0.577672 -0.751829,1.095098 -1.291665,1.458334 -0.204966,0.137922 -0.445361,0.237549 -0.666668,0.333333 -0.107732,0.04531 -0.221038,0.08905 -0.333333,0.124999 -0.162653,0.05377 -0.333057,0.09276 -0.5,0.125001 -0.236298,0.0432 -0.501176,0.08333 -0.75,0.08333 -0.261791,0 -0.502187,-0.03562 -0.75,-0.08333 -0.01293,-0.0025 -0.02868,0.0026 -0.04167,0 -0.07381,-0.01501 -0.13607,-0.06434 -0.208334,-0.08333 -0.182216,-0.04817 -0.366374,-0.09236 -0.541667,-0.166667 -0.227866,-0.09587 -0.462649,-0.198789 -0.666666,-0.333333 -0.0091,-0.0059 -0.0327,0.0059 -0.04167,0 -0.440848,-0.296632 -0.791254,-0.680184 -1.083333,-1.125 -0.136421,-0.206056 -0.238983,-0.444074 -0.333334,-0.666667 -0.0069,-0.01599 -0.03511,-0.02557 -0.04167,-0.04167 -0.06491,-0.159184 -0.08147,-0.335272 -0.125,-0.5 -0.02263,-0.08581 -0.06634,-0.161963 -0.08333,-0.25 -0.04925,-0.251888 -0.083,-0.494206 -0.08333,-0.75 0,-0.250523 0.03981,-0.512702 0.08333,-0.749999 0.005,-0.02601 -0.0055,-0.0574 0,-0.08333 0.02935,-0.143827 0.08078,-0.279067 0.125,-0.416667 0.03691,-0.111653 0.07792,-0.224569 0.125,-0.333333 0.01228,-0.02918 0.02867,-0.05454 0.04167,-0.08333 0.09192,-0.199697 0.206549,-0.397547 0.333334,-0.583333 0.7195,-1.063973 1.910829,-1.750001 3.291667,-1.750001 z"
     id="path59-7"
     style="display:inline;fill:#000000;fill-opacity:1;fill-rule:evenodd;stroke:none;stroke-width:1;stroke-linecap:round;stroke-linejoin:miter;stroke-miterlimit:4;stroke-dasharray:none;stroke-opacity:1;enable-background:new;opacity:0.55" />
  <path
     inkscape:connector-curvature="0"
     d="m 41.666668,20.000006 -0.666667,3.166667 c -0.4913,0.112319 -0.956044,0.305891 -1.416667,0.5 -0.05867,0.02471 -0.108627,0.05744 -0.166667,0.08333 -0.414788,0.1764 -0.823056,0.34091 -1.208332,0.583333 l -2.750002,-1.750001 -1.875,1.875001 1.791667,2.708333 c -0.275888,0.438463 -0.517621,0.899647 -0.708333,1.375 -0.20127,0.470978 -0.343376,0.953211 -0.458333,1.458334 L 31,30.666671 l 0,2.666667 3.208334,0.666666 c 0.114959,0.505122 0.257063,0.987355 0.458333,1.458333 0.1867,0.464281 0.441932,0.904754 0.708333,1.333333 0.0066,0.0104 -0.0066,0.03126 0,0.04167 l -1.791667,2.708334 1.875,1.875 2.750002,-1.750001 c 0.39076,0.245337 0.796606,0.40692 1.208332,0.583333 0.04628,0.02065 0.07832,0.06344 0.125001,0.08333 0.01186,0.0047 0.02979,-0.0047 0.04167,0 0.460186,0.193832 0.925874,0.346128 1.416667,0.458334 L 41.666667,44 44.333333,44 45,40.791667 c 0.97135,-0.222745 1.922448,-0.620012 2.791667,-1.166667 l 0.04167,0 2.708334,1.791667 1.875,-1.875 L 50.625,36.791666 c 0.26467,-0.422175 0.521591,-0.860471 0.708333,-1.333333 0.0049,-0.01254 -0.0049,-0.02915 0,-0.04167 0.01227,-0.02829 0.02969,-0.05495 0.04167,-0.08333 0.185399,-0.439556 0.31205,-0.877117 0.416668,-1.333334 L 55,33.333337 55,30.66667 51.791667,30.000004 C 51.628179,29.252722 51.392469,28.56253 51.041666,27.875003 51.033401,27.858887 51.008325,27.849403 51,27.833337 50.889827,27.62071 50.796458,27.373399 50.666666,27.166671 l 1.750001,-2.708333 -1.875,-1.875001 -2.708334,1.750001 c -0.437827,-0.274896 -0.899419,-0.475431 -1.374991,-0.666671 -0.468247,-0.199 -0.946452,-0.382974 -1.458333,-0.5 L 44.333342,20 41.666676,20 Z m 1.333333,7.999999 c 0.255794,3.34e-4 0.539779,0.03409 0.791667,0.08333 0.01293,0.0025 0.02876,-0.0026 0.04167,0 0.237847,0.04909 0.439187,0.115587 0.666666,0.208334 0.2405,0.09806 0.486704,0.228269 0.708333,0.374999 0.01016,0.0068 0.03157,-0.0069 0.04168,0 0.211733,0.142664 0.395992,0.31266 0.583333,0.500002 0.187341,0.18734 0.357337,0.3716 0.5,0.583333 0.0069,0.01016 -0.0069,0.0315 0,0.04166 0.14673,0.221632 0.276943,0.467834 0.375,0.708334 0.08662,0.212441 0.159788,0.444999 0.208333,0.666667 0.05335,0.261503 0.08333,0.555279 0.08333,0.833333 0,0.278054 -0.02998,0.530165 -0.08333,0.791667 -0.05059,0.248016 -0.114466,0.479764 -0.208333,0.708333 -0.05131,0.126387 -0.101827,0.253212 -0.166668,0.375 -0.308725,0.577672 -0.751829,1.095098 -1.291665,1.458334 -0.204966,0.137922 -0.445361,0.237549 -0.666668,0.333333 -0.107732,0.04531 -0.221038,0.08905 -0.333333,0.124999 -0.162653,0.05377 -0.333057,0.09276 -0.5,0.125001 -0.236298,0.0432 -0.501176,0.08333 -0.75,0.08333 -0.261791,0 -0.502187,-0.03562 -0.75,-0.08333 -0.01293,-0.0025 -0.02868,0.0026 -0.04167,0 -0.07381,-0.01501 -0.13607,-0.06434 -0.208334,-0.08333 -0.182216,-0.04817 -0.366374,-0.09236 -0.541667,-0.166667 -0.227866,-0.09587 -0.462649,-0.198789 -0.666666,-0.333333 -0.0091,-0.0059 -0.0327,0.0059 -0.04167,0 -0.440848,-0.296632 -0.791254,-0.680184 -1.083333,-1.125 -0.136421,-0.206056 -0.238983,-0.444074 -0.333334,-0.666667 -0.0069,-0.01599 -0.03511,-0.02557 -0.04167,-0.04167 -0.06491,-0.159184 -0.08147,-0.335272 -0.125,-0.5 -0.02263,-0.08581 -0.06634,-0.161963 -0.08333,-0.25 -0.04925,-0.251888 -0.083,-0.494206 -0.08333,-0.75 0,-0.250523 0.03981,-0.512702 0.08333,-0.749999 0.005,-0.02601 -0.0055,-0.0574 0,-0.08333 0.02935,-0.143827 0.08078,-0.279067 0.125,-0.416667 0.03691,-0.111653 0.07792,-0.224569 0.125,-0.333333 0.01228,-0.02918 0.02867,-0.05454 0.04167,-0.08333 0.09192,-0.199697 0.206549,-0.397547 0.333334,-0.583333 0.7195,-1.063973 1.910829,-1.750001 3.291667,-1.750001 z"
     id="path59"
     style="display:inline;fill:#ffffff;fill-opacity:1;fill-rule:evenodd;stroke:none;stroke-width:1;stroke-linecap:round;stroke-linejoin:miter;stroke-miterlimit:4;stroke-dasharray:none;stroke-opacity:1;enable-background:new" />
</svg>
