<?xml version="1.0" encoding="UTF-8" standalone="no"?>
<!-- Created with Inkscape (http://www.inkscape.org/) -->

<svg
   xmlns:dc="http://purl.org/dc/elements/1.1/"
   xmlns:cc="http://creativecommons.org/ns#"
   xmlns:rdf="http://www.w3.org/1999/02/22-rdf-syntax-ns#"
   xmlns:svg="http://www.w3.org/2000/svg"
   xmlns="http://www.w3.org/2000/svg"
   xmlns:xlink="http://www.w3.org/1999/xlink"
   xmlns:sodipodi="http://sodipodi.sourceforge.net/DTD/sodipodi-0.dtd"
   xmlns:inkscape="http://www.inkscape.org/namespaces/inkscape"
   version="1.1"
   width="24"
   height="24"
   id="svg3828"
   inkscape:version="0.91 r13725"
   sodipodi:docname="application-x-desktop.svg">
  <sodipodi:namedview
     pagecolor="#ffffff"
     bordercolor="#666666"
     borderopacity="1"
     objecttolerance="10"
     gridtolerance="10"
     guidetolerance="10"
     inkscape:pageopacity="0"
     inkscape:pageshadow="2"
     inkscape:window-width="1366"
     inkscape:window-height="718"
     id="namedview35"
     showgrid="false"
     inkscape:zoom="1"
     inkscape:cx="13.157286"
     inkscape:cy="18.948075"
     inkscape:window-x="0"
     inkscape:window-y="25"
     inkscape:window-maximized="1"
     inkscape:current-layer="svg3828">
    <inkscape:grid
       type="xygrid"
       id="grid4317" />
  </sodipodi:namedview>
  <defs
     id="defs3830">
    <linearGradient
       x1="23.99999"
       y1="5.5641499"
       x2="23.99999"
       y2="43"
       id="linearGradient3119"
       xlink:href="#linearGradient3977"
       gradientUnits="userSpaceOnUse"
       gradientTransform="matrix(0.40540511,0,0,0.51351351,2.2696871,7.6756805)" />
    <linearGradient
       id="linearGradient3977">
      <stop
         id="stop3979"
         style="stop-color:#ffffff;stop-opacity:1"
         offset="0" />
      <stop
         id="stop3981"
         style="stop-color:#ffffff;stop-opacity:0.23529412"
         offset="0.03626217" />
      <stop
         id="stop3983"
         style="stop-color:#ffffff;stop-opacity:0.15686275"
         offset="0.95056331" />
      <stop
         id="stop3985"
         style="stop-color:#ffffff;stop-opacity:0.39215687"
         offset="1" />
    </linearGradient>
    <linearGradient
       x1="25.132275"
       y1="0.98520643"
       x2="25.132275"
       y2="47.013336"
       id="linearGradient3122"
       xlink:href="#linearGradient3600-4"
       gradientUnits="userSpaceOnUse"
       gradientTransform="matrix(0.48571543,0,0,0.45629666,0.3428289,8.3488617)" />
    <linearGradient
       id="linearGradient3600-4">
      <stop
         id="stop3602-7"
         style="stop-color:#f4f4f4;stop-opacity:1"
         offset="0" />
      <stop
         id="stop3604-6"
         style="stop-color:#dbdbdb;stop-opacity:1"
         offset="1" />
    </linearGradient>
    <linearGradient
       x1="-51.786404"
       y1="50.786446"
       x2="-51.786404"
       y2="2.9062471"
       id="linearGradient3124"
       xlink:href="#linearGradient3104-5"
       gradientUnits="userSpaceOnUse"
       gradientTransform="matrix(0.39221364,0,0,0.42702571,29.199296,7.8403287)" />
    <linearGradient
       id="linearGradient3104-5">
      <stop
         id="stop3106-6"
         style="stop-color:#a0a0a0;stop-opacity:1"
         offset="0" />
      <stop
         id="stop3108-9"
         style="stop-color:#bebebe;stop-opacity:1"
         offset="1" />
    </linearGradient>
    <radialGradient
       cx="605.71429"
       cy="486.64789"
       r="117.14286"
       fx="605.71429"
       fy="486.64789"
       id="radialGradient3045"
       xlink:href="#linearGradient5060"
       gradientUnits="userSpaceOnUse"
       gradientTransform="matrix(0.01204859,0,0,0.0082353,13.238793,26.980564)" />
    <linearGradient
       id="linearGradient5060">
      <stop
         id="stop5062"
         style="stop-color:#000000;stop-opacity:1"
         offset="0" />
      <stop
         id="stop5064"
         style="stop-color:#000000;stop-opacity:0"
         offset="1" />
    </linearGradient>
    <radialGradient
       cx="605.71429"
       cy="486.64789"
       r="117.14286"
       fx="605.71429"
       fy="486.64789"
       id="radialGradient3048"
       xlink:href="#linearGradient5060"
       gradientUnits="userSpaceOnUse"
       gradientTransform="matrix(-0.01204859,0,0,0.0082353,10.761206,26.980564)" />
    <linearGradient
       id="linearGradient5048">
      <stop
         id="stop5050"
         style="stop-color:#000000;stop-opacity:0"
         offset="0" />
      <stop
         id="stop5056"
         style="stop-color:#000000;stop-opacity:1"
         offset="0.5" />
      <stop
         id="stop5052"
         style="stop-color:#000000;stop-opacity:0"
         offset="1" />
    </linearGradient>
    <linearGradient
       x1="302.85715"
       y1="366.64789"
       x2="302.85715"
       y2="609.50507"
       id="linearGradient3826"
       xlink:href="#linearGradient5048"
       gradientUnits="userSpaceOnUse"
       gradientTransform="matrix(0.0352071,0,0,0.0082353,-0.724852,26.980547)" />
    <linearGradient
       y2="609.50507"
       x2="302.85715"
       y1="366.64789"
       x1="302.85715"
       gradientTransform="matrix(0.04576928,0,0,0.00823529,-0.5423243,25.980548)"
       gradientUnits="userSpaceOnUse"
       id="linearGradient4219"
       xlink:href="#linearGradient5048"
       inkscape:collect="always" />
    <linearGradient
       id="linearGradient3977-7">
      <stop
         id="stop3979-3"
         style="stop-color:#ffffff;stop-opacity:1;"
         offset="0" />
      <stop
         offset="0.04878049"
         style="stop-color:#ffffff;stop-opacity:0.23529412;"
         id="stop3981-7" />
      <stop
         id="stop3983-3"
         style="stop-color:#ffffff;stop-opacity:0"
         offset="0.95056331" />
      <stop
         id="stop3985-6"
         style="stop-color:#000000;stop-opacity:0.04313726"
         offset="1" />
    </linearGradient>
    <linearGradient
       id="linearGradient3927">
      <stop
         style="stop-color:#fbfcfd;stop-opacity:1"
         offset="0"
         id="stop3929" />
      <stop
         style="stop-color:#ebeced;stop-opacity:1"
         offset="1"
         id="stop3931" />
    </linearGradient>
    <linearGradient
       inkscape:collect="always"
       xlink:href="#linearGradient5048"
       id="linearGradient4280"
       gradientUnits="userSpaceOnUse"
       gradientTransform="matrix(0.09153846,0,0,0.02058823,-1.084616,1037.8136)"
       x1="302.85715"
       y1="366.64789"
       x2="302.85715"
       y2="609.50507" />
    <linearGradient
       gradientTransform="matrix(0.40540511,0,0,0.54054055,2.2696871,6.5270322)"
       gradientUnits="userSpaceOnUse"
       xlink:href="#linearGradient3977-7"
       id="linearGradient3119-2"
       y2="43"
       x2="23.99999"
       y1="6.4249902"
       x1="24.001455" />
    <linearGradient
       gradientTransform="matrix(0.45714179,0,0,0.45629506,1.0285964,7.8489088)"
       gradientUnits="userSpaceOnUse"
       xlink:href="#linearGradient3927"
       id="linearGradient3122-8"
       y2="47.013336"
       x2="25.132275"
       y1="0.98520643"
       x1="25.132275" />
    <linearGradient
       gradientTransform="matrix(0.39221364,0,0,0.44736025,29.199296,6.7612971)"
       gradientUnits="userSpaceOnUse"
       xlink:href="#linearGradient3104-5"
       id="linearGradient3124-9"
       y2="2.9062471"
       x2="-51.786404"
       y1="50.786446"
       x1="-51.786404" />
    <radialGradient
       gradientTransform="matrix(0.01204859,0,0,0.0082353,13.238793,26.980564)"
       gradientUnits="userSpaceOnUse"
       xlink:href="#linearGradient5060"
       id="radialGradient3045-0"
       fy="486.64789"
       fx="605.71429"
       r="117.14286"
       cy="486.64789"
       cx="605.71429" />
    <radialGradient
       gradientTransform="matrix(-0.01204859,0,0,0.0082353,10.761206,26.980564)"
       gradientUnits="userSpaceOnUse"
       xlink:href="#linearGradient5060"
       id="radialGradient3048-1"
       fy="486.64789"
       fx="605.71429"
       r="117.14286"
       cy="486.64789"
       cx="605.71429" />
    <linearGradient
       gradientTransform="matrix(0.0352071,0,0,0.0082353,-0.724852,26.980547)"
       gradientUnits="userSpaceOnUse"
       xlink:href="#linearGradient5048"
       id="linearGradient4302"
       y2="609.50507"
       x2="302.85715"
       y1="366.64789"
       x1="302.85715" />
    <linearGradient
       gradientTransform="matrix(0.48571543,0,0,0.47802505,-5.6571711,-9.0955584)"
       gradientUnits="userSpaceOnUse"
       xlink:href="#linearGradient3927"
       id="linearGradient3122-2"
       y2="47.013336"
       x2="25.132275"
       y1="0.98520643"
       x1="25.132275" />
    <linearGradient
       gradientTransform="matrix(0.39221364,0,0,0.44736025,29.199296,-1.2386972)"
       gradientUnits="userSpaceOnUse"
       xlink:href="#linearGradient3104-5"
       id="linearGradient3124-7"
       y2="2.9062471"
       x2="-51.786404"
       y1="50.786446"
       x1="-51.786404" />
    <linearGradient
       inkscape:collect="always"
       xlink:href="#linearGradient5048"
       id="linearGradient4315"
       gradientUnits="userSpaceOnUse"
       gradientTransform="matrix(0.0352071,0,0,0.0082353,-0.724852,26.980547)"
       x1="302.85715"
       y1="366.64789"
       x2="302.85715"
       y2="609.50507" />
  </defs>
  <metadata
     id="metadata3833">
    <rdf:RDF>
      <cc:Work
         rdf:about="">
        <dc:format>image/svg+xml</dc:format>
        <dc:type
           rdf:resource="http://purl.org/dc/dcmitype/StillImage" />
        <dc:title />
      </cc:Work>
    </rdf:RDF>
  </metadata>
  <g
     id="g4306">
    <g
       id="layer1-9"
       transform="translate(0,-8)">
      <rect
         style="display:inline;overflow:visible;visibility:visible;opacity:0.15;fill:url(#linearGradient4315);fill-opacity:1;fill-rule:nonzero;stroke:none;stroke-width:1;marker:none"
         id="rect2879-2"
         y="30"
         x="3.5000007"
         height="2"
         width="16.999998" />
      <path
         style="display:inline;overflow:visible;visibility:visible;opacity:0.15;fill:url(#radialGradient3048-1);fill-opacity:1;fill-rule:nonzero;stroke:none;stroke-width:1;marker:none"
         id="path2881-16"
         d="m 3.4999999,30.000085 c 0,0 0,1.999891 0,1.999891 C 2.8795275,32.003776 2,31.551901 2,30.999901 2,30.447902 2.6924,30.000085 3.4999999,30.000085 Z"
         inkscape:connector-curvature="0" />
      <path
         style="display:inline;overflow:visible;visibility:visible;opacity:0.15;fill:url(#radialGradient3045-0);fill-opacity:1;fill-rule:nonzero;stroke:none;stroke-width:1;marker:none"
         id="path2883-8"
         d="m 20.5,30.000085 c 0,0 0,1.999891 0,1.999891 0.620472,0.0038 1.5,-0.448075 1.5,-1.000075 0,-0.551999 -0.692402,-0.999816 -1.5,-0.999816 z"
         inkscape:connector-curvature="0" />
      <path
         inkscape:connector-curvature="0"
         style="display:inline;fill:url(#linearGradient3122-8);fill-opacity:1;stroke:none;stroke-width:0.99992186;stroke-linecap:butt;stroke-linejoin:round;stroke-miterlimit:4;stroke-dasharray:none;stroke-dashoffset:0;stroke-opacity:1"
         id="path4160-3-1"
         d="M 4,9 C 7.6664119,9 19.999981,9.00136 19.999981,9.00136 L 20,30 C 20,30 9.3333337,30 4,30 4,23.000006 4,16.000014 4,9.00002 Z" />
      <path
         inkscape:connector-curvature="0"
         style="fill:none;stroke:url(#linearGradient3119-2);stroke-width:1;stroke-linecap:round;stroke-linejoin:miter;stroke-miterlimit:4;stroke-dasharray:none;stroke-dashoffset:0;stroke-opacity:1"
         id="rect6741-1-1"
         d="m 19.5,29.500001 -15.0000004,0 0,-20.0000008 15.0000004,0 z" />
    </g>
    <path
       inkscape:connector-curvature="0"
       style="display:inline;fill:none;fill-opacity:1;stroke:#000000;stroke-width:0.99992186;stroke-linecap:butt;stroke-linejoin:round;stroke-miterlimit:4;stroke-dasharray:none;stroke-dashoffset:0;stroke-opacity:0.35294118"
       id="path4160-3-3"
       d="m 3.4999601,0.49996093 c 3.8955809,0 17.0000589,0.00142 17.0000589,0.00142 l 2.1e-5,21.99865407 c 0,0 -11.3333862,0 -17.0000799,0 0,-7.333352 0,-14.6667033 0,-22.00005547 z" />
  </g>
  <path
     inkscape:connector-curvature="0"
     d="m 11.500001,6.000001 c -0.277,0 -0.5,0.223 -0.5,0.5 l 0,1.125 C 10.497298,7.73947 10.032564,7.93581 9.6093752,8.203126 L 8.8125002,7.406251 c -0.195869,-0.195869 -0.507256,-0.195869 -0.703125,0 l -0.703125,0.703125 c -0.195869,0.195868 -0.195869,0.507255 0,0.703125 l 0.796875,0.796874 C 7.9358092,10.032564 7.7394692,10.497297 7.6250002,11 l -1.125,0 c -0.277,0 -0.5,0.223 -0.5,0.500001 l 0,1 c 0,0.276999 0.223,0.499999 0.5,0.499999 l 1.125,0 c 0.114469,0.502703 0.310809,0.967436 0.578125,1.390625 L 7.4062502,15.1875 c -0.195869,0.195869 -0.195869,0.507256 0,0.703125 l 0.703125,0.703125 c 0.195868,0.195868 0.507256,0.19587 0.703125,0 l 0.796875,-0.796875 C 10.032564,16.064191 10.497298,16.26053 11.000001,16.375 l 0,1.125 c 0,0.277 0.223,0.5 0.5,0.5 L 12.5,18 c 0.277001,0 0.500001,-0.223 0.500001,-0.5 l 0,-1.125 c 0.502703,-0.11447 0.967436,-0.310809 1.390625,-0.578125 L 15.1875,16.59375 c 0.195869,0.195868 0.507257,0.195868 0.703125,0 l 0.703126,-0.703125 c 0.195867,-0.195868 0.195869,-0.507257 0,-0.703125 L 15.796875,14.390625 C 16.064192,13.967436 16.260531,13.502703 16.375001,13 L 17.5,13 c 0.277001,0 0.500001,-0.223 0.500001,-0.499999 l 0,-1 C 18.000001,11.223 17.777001,11 17.5,11 l -1.124999,0 c -0.11447,-0.502703 -0.310809,-0.967436 -0.578126,-1.390625 l 0.796876,-0.796874 c 0.195867,-0.195869 0.195867,-0.507256 0,-0.703125 L 15.890625,7.406251 c -0.195868,-0.195869 -0.507256,-0.195869 -0.703125,0 L 14.390626,8.203126 C 13.967437,7.93581 13.502704,7.73947 13.000001,7.625001 l 0,-1.125 c 0,-0.277 -0.223,-0.5 -0.500001,-0.5 l -0.999999,0 z m 0.5,3.999999 c 1.103999,-10e-7 2,0.896001 2,2 0,1.104 -0.896001,2 -2,2 C 10.896001,14.000001 10,13.104 10,12 c 10e-7,-1.103999 0.896001,-2 2.000001,-2 z"
     id="path3576"
     style="display:inline;overflow:visible;visibility:visible;opacity:1;fill:#ffffff;fill-opacity:1;fill-rule:nonzero;stroke:none;stroke-width:1.70000005;marker:none;enable-background:accumulate" />
  <path
     inkscape:connector-curvature="0"
     d="m 11.500001,5.000001 c -0.277,0 -0.5,0.223 -0.5,0.5 l 0,1.125 c -0.502703,0.11447 -0.967437,0.31081 -1.3906258,0.578125 L 8.8125002,6.406251 c -0.195869,-0.195868 -0.507256,-0.195868 -0.703125,0 l -0.703125,0.703125 c -0.195869,0.195869 -0.195869,0.507256 0,0.703125 l 0.796875,0.796875 c -0.267316,0.423189 -0.463656,0.887921 -0.578125,1.390625 l -1.125,0 c -0.277,0 -0.5,0.223 -0.5,0.5 l 0,1 c 0,0.276999 0.223,0.5 0.5,0.5 l 1.125,0 c 0.114469,0.502703 0.310809,0.967435 0.578125,1.390624 l -0.796875,0.796876 c -0.195869,0.195868 -0.195869,0.507255 0,0.703125 l 0.703125,0.703124 c 0.195868,0.195869 0.507256,0.195871 0.703125,0 l 0.796875,-0.796874 C 10.032564,15.064192 10.497298,15.26053 11.000001,15.375 l 0,1.125001 c 0,0.276999 0.223,0.499999 0.5,0.499999 L 12.5,17 c 0.277001,0 0.500001,-0.223 0.500001,-0.499999 l 0,-1.125001 c 0.502703,-0.11447 0.967436,-0.310808 1.390625,-0.578124 L 15.1875,15.59375 c 0.195869,0.195869 0.507257,0.195869 0.703125,0 l 0.703126,-0.703124 c 0.195867,-0.195869 0.195869,-0.507257 0,-0.703125 l -0.796876,-0.796876 c 0.267317,-0.423189 0.463656,-0.887921 0.578126,-1.390624 l 1.124999,0 c 0.277001,0 0.500001,-0.223001 0.500001,-0.5 l 0,-1 c 0,-0.277 -0.223,-0.5 -0.500001,-0.5 l -1.124999,0 C 16.260531,9.497297 16.064192,9.032565 15.796875,8.609376 l 0.796876,-0.796875 c 0.195867,-0.195868 0.195867,-0.507256 0,-0.703125 L 15.890625,6.406251 c -0.195868,-0.195868 -0.507256,-0.195868 -0.703125,0 L 14.390626,7.203126 C 13.967437,6.935811 13.502704,6.739471 13.000001,6.625001 l 0,-1.125 c 0,-0.277 -0.223,-0.5 -0.500001,-0.5 l -0.999999,0 z m 0.5,4 c 1.103999,-10e-7 2,0.896 2,2 0,1.104 -0.896001,2 -2,2 -1.104,0 -2.000001,-0.896 -2.000001,-2 10e-7,-1.104 0.896001,-2 2.000001,-2 z"
     id="rect3557"
     style="display:inline;overflow:visible;visibility:visible;opacity:0.3;fill:#000000;fill-opacity:1;fill-rule:nonzero;stroke:none;stroke-width:1.70000005;marker:none;enable-background:accumulate" />
  <path
     inkscape:connector-curvature="0"
     style="display:inline;overflow:visible;visibility:visible;opacity:1;fill:none;stroke:#000000;stroke-width:1;stroke-linejoin:round;stroke-miterlimit:4;stroke-dasharray:none;stroke-opacity:0.39215686;marker:none;enable-background:accumulate"
     d="m 11.53125,5.531249 c -0.0236,0.430806 0.05109,0.875834 -0.045,1.296521 C 11.29136,7.233033 10.754627,7.143641 10.423281,7.370309 10.075707,7.507444 9.7043854,7.92952 9.3159781,7.648754 9.0234167,7.381323 8.7527215,7.089505 8.46875,6.812499 8.25,7.031249 8.03125,7.249999 7.8125,7.468749 8.1042144,7.791925 8.4707869,8.058717 8.707091,8.424053 8.8642877,8.860172 8.4029199,9.180851 8.3028904,9.574956 c -0.1647198,0.332458 -0.1378275,0.889888 -0.611331,0.950802 -0.386269,0.01283 -0.7736241,0.0018 -1.1603094,0.0055 0,0.3125 0,0.625 0,0.9375 0.4308058,0.0236 0.8758343,-0.05109 1.2965205,0.045 0.4106808,0.200632 0.3187477,0.747538 0.5454521,1.087065 0.129944,0.352588 0.5572533,0.724336 0.2755322,1.114457 -0.2650627,0.284554 -0.5595947,0.542061 -0.8362548,0.815969 0.21875,0.21875 0.4375,0.4375 0.65625,0.65625 0.3232028,-0.281136 0.5944452,-0.633092 0.9553041,-0.863341 0.4279355,-0.156435 0.7447939,0.295284 1.1375409,0.380589 0.339715,0.153312 0.901494,0.126845 0.964164,0.603693 0.01283,0.386269 0.0018,0.773624 0.0055,1.160309 0.3125,0 0.625,0 0.9375,0 0.0236,-0.430806 -0.05109,-0.875834 0.045,-1.296521 0.202268,-0.414278 0.752426,-0.318559 1.100009,-0.532469 0.351829,-0.11855 0.71832,-0.536578 1.101513,-0.257265 0.282128,0.257032 0.542434,0.538403 0.815977,0.805005 0.21875,-0.21875 0.4375,-0.4375 0.65625,-0.65625 -0.281207,-0.31282 -0.637614,-0.569025 -0.863341,-0.924054 -0.155362,-0.430905 0.299606,-0.751766 0.378153,-1.151009 0.154112,-0.344536 0.123078,-0.916801 0.606129,-0.981946 0.386269,-0.01283 0.773624,-0.0018 1.160309,-0.0055 0,-0.3125 0,-0.625 0,-0.9375 -0.430806,-0.0236 -0.875834,0.05109 -1.296521,-0.045 C 15.763429,10.28972 15.856331,9.749947 15.642681,9.410326 15.516951,9.063345 15.104141,8.69745 15.382503,8.315968 15.641943,8.0258 15.920547,7.752364 16.1875,7.468749 15.96875,7.249999 15.75,7.031249 15.53125,6.812499 15.234559,7.097998 14.980827,7.435012 14.654752,7.68544 14.23573,7.898662 13.898742,7.444519 13.522167,7.33846 13.182079,7.136988 12.603096,7.212234 12.48443,6.742808 12.44877,6.341406 12.47853,5.934725 12.46875,5.531249 c -0.3125,0 -0.625,0 -0.9375,0 z"
     id="path4107" />
  <path
     style="display:inline;overflow:visible;visibility:visible;opacity:1;fill:none;stroke:#000000;stroke-width:1;stroke-linejoin:round;stroke-miterlimit:4;stroke-dasharray:none;stroke-opacity:0.39215686;marker:none;enable-background:accumulate"
     d="m 12,13.537625 c 1.442837,0.03737 2.705177,-1.355037 2.518059,-2.788216 C 14.406054,9.313429 12.900408,8.194376 11.49307,8.527009 10.077446,8.783114 9.1103597,10.387327 9.5835072,11.754945 9.8974869,12.788653 10.915929,13.550922 12,13.537625 Z"
     id="path4094"
     inkscape:connector-curvature="0" />
</svg>
