<?xml version="1.0" encoding="UTF-8" standalone="no"?>
<!-- Created with Inkscape (http://www.inkscape.org/) -->

<svg
   xmlns:dc="http://purl.org/dc/elements/1.1/"
   xmlns:cc="http://creativecommons.org/ns#"
   xmlns:rdf="http://www.w3.org/1999/02/22-rdf-syntax-ns#"
   xmlns:svg="http://www.w3.org/2000/svg"
   xmlns="http://www.w3.org/2000/svg"
   xmlns:xlink="http://www.w3.org/1999/xlink"
   xmlns:sodipodi="http://sodipodi.sourceforge.net/DTD/sodipodi-0.dtd"
   xmlns:inkscape="http://www.inkscape.org/namespaces/inkscape"
   width="24"
   height="24"
   id="svg4228"
   version="1.1"
   inkscape:version="0.91 r13725"
   sodipodi:docname="audio-x-smart-playlist.svg">
  <defs
     id="defs4230">
    <linearGradient
       inkscape:collect="always"
       xlink:href="#linearGradient8589"
       id="linearGradient4083"
       gradientUnits="userSpaceOnUse"
       gradientTransform="matrix(0.4778466,0,0,0.5524833,0.3722548,-8.0761287)"
       x1="32.892288"
       y1="8.0590115"
       x2="36.358372"
       y2="5.4565363" />
    <linearGradient
       id="linearGradient8589">
      <stop
         id="stop8591"
         style="stop-color:#fefefe;stop-opacity:1"
         offset="0" />
      <stop
         id="stop8593"
         style="stop-color:#cbcbcb;stop-opacity:1"
         offset="1" />
    </linearGradient>
    <linearGradient
       id="linearGradient3211">
      <stop
         id="stop3213"
         style="stop-color:#ffffff;stop-opacity:1"
         offset="0" />
      <stop
         id="stop3215"
         style="stop-color:#ffffff;stop-opacity:0"
         offset="1" />
    </linearGradient>
    <linearGradient
       inkscape:collect="always"
       xlink:href="#linearGradient4267"
       id="linearGradient4092"
       gradientUnits="userSpaceOnUse"
       gradientTransform="matrix(0.5155606,0,0,0.5130904,-0.8957459,-7.8145513)"
       x1="35.349018"
       y1="5.3065128"
       x2="34.102982"
       y2="6.5436172" />
    <linearGradient
       id="linearGradient4267">
      <stop
         id="stop4269"
         style="stop-color:#c4c4c4;stop-opacity:1"
         offset="0" />
      <stop
         id="stop4271"
         style="stop-color:#c4c4c4;stop-opacity:0"
         offset="1" />
    </linearGradient>
    <linearGradient
       id="linearGradient3242-593-605-251-305-8">
      <stop
         offset="0"
         style="stop-color:#d391bf;stop-opacity:1"
         id="stop3942" />
      <stop
         offset="0.26238"
         style="stop-color:#bf69b9;stop-opacity:1"
         id="stop3944" />
      <stop
         offset="0.66093999"
         style="stop-color:#98439e;stop-opacity:1"
         id="stop3946" />
      <stop
         offset="1"
         style="stop-color:#5c2f6f;stop-opacity:1"
         id="stop3948" />
    </linearGradient>
    <linearGradient
       id="linearGradient3332-412-419-652-471-847">
      <stop
         offset="0"
         style="stop-color:#620f59;stop-opacity:1"
         id="stop3952" />
      <stop
         offset="1"
         style="stop-color:#a6599f;stop-opacity:1"
         id="stop3954" />
    </linearGradient>
    <radialGradient
       inkscape:collect="always"
       xlink:href="#linearGradient5060"
       id="radialGradient4100"
       gradientUnits="userSpaceOnUse"
       gradientTransform="matrix(0.01204859,0,0,0.00823529,13.238794,10.980568)"
       cx="605.71429"
       cy="486.64789"
       fx="605.71429"
       fy="486.64789"
       r="117.14286" />
    <linearGradient
       id="linearGradient5060">
      <stop
         id="stop5062"
         style="stop-color:#000000;stop-opacity:1"
         offset="0" />
      <stop
         id="stop5064"
         style="stop-color:#000000;stop-opacity:0"
         offset="1" />
    </linearGradient>
    <radialGradient
       inkscape:collect="always"
       xlink:href="#linearGradient5060"
       id="radialGradient4103"
       gradientUnits="userSpaceOnUse"
       gradientTransform="matrix(-0.01204859,0,0,0.00823529,10.761206,10.980568)"
       cx="605.71429"
       cy="486.64789"
       fx="605.71429"
       fy="486.64789"
       r="117.14286" />
    <linearGradient
       id="linearGradient5048">
      <stop
         id="stop5050"
         style="stop-color:#000000;stop-opacity:0"
         offset="0" />
      <stop
         id="stop5056"
         style="stop-color:#000000;stop-opacity:1"
         offset="0.5" />
      <stop
         id="stop5052"
         style="stop-color:#000000;stop-opacity:0"
         offset="1" />
    </linearGradient>
    <linearGradient
       y2="609.50507"
       x2="302.85715"
       y1="366.64789"
       x1="302.85715"
       gradientTransform="matrix(0.0352071,0,0,0.00823529,-0.724852,10.980551)"
       gradientUnits="userSpaceOnUse"
       id="linearGradient4226"
       xlink:href="#linearGradient5048"
       inkscape:collect="always" />
    <linearGradient
       inkscape:collect="always"
       xlink:href="#linearGradient4311"
       id="linearGradient3895"
       gradientUnits="userSpaceOnUse"
       gradientTransform="matrix(1,0,0,-1,-23.991996,-11.96467)"
       x1="23.06352"
       y1="12.978221"
       x2="23.06352"
       y2="36.949589" />
    <linearGradient
       id="linearGradient4311">
      <stop
         id="stop4313"
         style="stop-color:#000000;stop-opacity:1"
         offset="0" />
      <stop
         id="stop4315"
         style="stop-color:#000000;stop-opacity:0"
         offset="1" />
    </linearGradient>
    <linearGradient
       inkscape:collect="always"
       xlink:href="#linearGradient4311"
       id="linearGradient3898"
       gradientUnits="userSpaceOnUse"
       gradientTransform="translate(-23.991996,-61.976817)"
       x1="23.06352"
       y1="12.978221"
       x2="23.06352"
       y2="36.949589" />
    <linearGradient
       id="linearGradient3037">
      <stop
         id="stop3039"
         style="stop-color:#000000;stop-opacity:1"
         offset="0" />
      <stop
         id="stop3041"
         style="stop-color:#000000;stop-opacity:0"
         offset="1" />
    </linearGradient>
    <linearGradient
       inkscape:collect="always"
       xlink:href="#linearGradient3977"
       id="linearGradient3988"
       gradientUnits="userSpaceOnUse"
       gradientTransform="matrix(0.89189189,0,0,1.1351351,-21.397398,-64.720048)"
       x1="23.99999"
       y1="5.5641499"
       x2="23.99999"
       y2="43" />
    <linearGradient
       id="linearGradient3977">
      <stop
         offset="0"
         style="stop-color:#ffffff;stop-opacity:1;"
         id="stop3979" />
      <stop
         id="stop3981"
         style="stop-color:#ffffff;stop-opacity:0.23529412;"
         offset="0.03626217" />
      <stop
         offset="0.95056331"
         style="stop-color:#ffffff;stop-opacity:0.15686275;"
         id="stop3983" />
      <stop
         offset="1"
         style="stop-color:#ffffff;stop-opacity:0.39215687;"
         id="stop3985" />
    </linearGradient>
    <radialGradient
       r="12.671875"
       fy="9.9571075"
       fx="7.2758255"
       cy="9.9571075"
       cx="7.8060555"
       gradientTransform="matrix(-1.6167311e-7,6.6018651,-8.0922115,-1.9817022e-7,80.572292,-120.04976)"
       gradientUnits="userSpaceOnUse"
       id="radialGradient3060-0-4"
       xlink:href="#linearGradient3671-580"
       inkscape:collect="always" />
    <linearGradient
       id="linearGradient3671-580">
      <stop
         id="stop4088"
         style="stop-color:#fc93dc;stop-opacity:1"
         offset="0" />
      <stop
         id="stop4090"
         style="stop-color:#da72d3;stop-opacity:1"
         offset="0.26238" />
      <stop
         id="stop4092"
         style="stop-color:#a33fab;stop-opacity:1"
         offset="0.704952" />
      <stop
         id="stop4094"
         style="stop-color:#502b58;stop-opacity:1"
         offset="1" />
    </linearGradient>
    <linearGradient
       y2="0.91790956"
       x2="25"
       y1="47.935162"
       x1="25"
       gradientTransform="translate(-23.991998,-59.977278)"
       gradientUnits="userSpaceOnUse"
       id="linearGradient3062-0-8"
       xlink:href="#linearGradient3707-662"
       inkscape:collect="always" />
    <linearGradient
       id="linearGradient3707-662">
      <stop
         id="stop4098"
         style="stop-color:#542f57;stop-opacity:1"
         offset="0" />
      <stop
         id="stop4100"
         style="stop-color:#bb5ca4;stop-opacity:1"
         offset="1" />
    </linearGradient>
    <radialGradient
       inkscape:collect="always"
       xlink:href="#linearGradient5060-3"
       id="radialGradient3327"
       gradientUnits="userSpaceOnUse"
       gradientTransform="matrix(0.02303995,0,0,0.01470022,2.368884,-22.936641)"
       cx="605.71429"
       cy="486.64789"
       fx="605.71429"
       fy="486.64789"
       r="117.14286" />
    <linearGradient
       id="linearGradient5060-3">
      <stop
         id="stop5062-3"
         style="stop-color:#000000;stop-opacity:1"
         offset="0" />
      <stop
         id="stop5064-7"
         style="stop-color:#000000;stop-opacity:0"
         offset="1" />
    </linearGradient>
    <radialGradient
       inkscape:collect="always"
       xlink:href="#linearGradient5060-3"
       id="radialGradient3330"
       gradientUnits="userSpaceOnUse"
       gradientTransform="matrix(-0.02303994,0,0,0.01470022,-2.368888,-22.936641)"
       cx="605.71429"
       cy="486.64789"
       fx="605.71429"
       fy="486.64789"
       r="117.14286" />
    <linearGradient
       id="linearGradient3064">
      <stop
         id="stop3066"
         style="stop-color:#000000;stop-opacity:1"
         offset="0" />
      <stop
         id="stop3068"
         style="stop-color:#000000;stop-opacity:0"
         offset="1" />
    </linearGradient>
    <linearGradient
       y2="609.50507"
       x2="302.85715"
       y1="366.64789"
       x1="302.85715"
       gradientTransform="matrix(0.06732488,0,0,0.01470022,-0.3411391,37.040146)"
       gradientUnits="userSpaceOnUse"
       id="linearGradient3981"
       xlink:href="#linearGradient5048-0"
       inkscape:collect="always" />
    <linearGradient
       id="linearGradient5048-0">
      <stop
         id="stop5050-1"
         style="stop-color:#000000;stop-opacity:0"
         offset="0" />
      <stop
         id="stop5056-7"
         style="stop-color:#000000;stop-opacity:1"
         offset="0.5" />
      <stop
         id="stop5052-4"
         style="stop-color:#000000;stop-opacity:0"
         offset="1" />
    </linearGradient>
    <linearGradient
       y2="609.50507"
       x2="302.85715"
       y1="366.64789"
       x1="302.85715"
       gradientTransform="matrix(0.06732488,0,0,0.01470022,-24.333137,-22.936671)"
       gradientUnits="userSpaceOnUse"
       id="linearGradient3084"
       xlink:href="#linearGradient5048-0"
       inkscape:collect="always" />
    <radialGradient
       r="117.14286"
       fy="486.64789"
       fx="605.71429"
       cy="486.64789"
       cx="605.71429"
       gradientTransform="matrix(0.01204859,0,0,0.00823529,13.238794,10.980568)"
       gradientUnits="userSpaceOnUse"
       id="radialGradient4100-0"
       xlink:href="#linearGradient5060"
       inkscape:collect="always" />
    <radialGradient
       r="117.14286"
       fy="486.64789"
       fx="605.71429"
       cy="486.64789"
       cx="605.71429"
       gradientTransform="matrix(-0.01204859,0,0,0.00823529,10.761206,10.980568)"
       gradientUnits="userSpaceOnUse"
       id="radialGradient4103-1"
       xlink:href="#linearGradient5060"
       inkscape:collect="always" />
    <linearGradient
       inkscape:collect="always"
       xlink:href="#linearGradient5048"
       id="linearGradient4307"
       gradientUnits="userSpaceOnUse"
       gradientTransform="matrix(0.0352071,0,0,0.00823529,-0.724852,10.980551)"
       x1="302.85715"
       y1="366.64789"
       x2="302.85715"
       y2="609.50507" />
    <linearGradient
       y2="36.949589"
       x2="23.06352"
       y1="12.978221"
       x1="23.06352"
       gradientTransform="translate(-23.991996,-61.976817)"
       gradientUnits="userSpaceOnUse"
       id="linearGradient4309"
       xlink:href="#linearGradient5060"
       inkscape:collect="always" />
    <radialGradient
       inkscape:collect="always"
       xlink:href="#linearGradient3671-580"
       id="radialGradient3060-0-4-6"
       gradientUnits="userSpaceOnUse"
       gradientTransform="matrix(-1.6167311e-7,6.6018651,-8.0922115,-1.9817022e-7,80.572292,-120.04976)"
       cx="7.8060555"
       cy="9.9571075"
       fx="7.2758255"
       fy="9.9571075"
       r="12.671875" />
    <radialGradient
       r="117.14286"
       fy="486.64789"
       fx="605.71429"
       cy="486.64789"
       cx="605.71429"
       gradientTransform="matrix(0.02303995,0,0,0.01470022,2.368884,-22.936641)"
       gradientUnits="userSpaceOnUse"
       id="radialGradient3327-0"
       xlink:href="#linearGradient5060"
       inkscape:collect="always" />
    <radialGradient
       r="117.14286"
       fy="486.64789"
       fx="605.71429"
       cy="486.64789"
       cx="605.71429"
       gradientTransform="matrix(-0.02303994,0,0,0.01470022,-2.368888,-22.936641)"
       gradientUnits="userSpaceOnUse"
       id="radialGradient3330-9"
       xlink:href="#linearGradient5060"
       inkscape:collect="always" />
    <linearGradient
       inkscape:collect="always"
       xlink:href="#linearGradient5048"
       id="linearGradient4314"
       gradientUnits="userSpaceOnUse"
       gradientTransform="matrix(0.06732488,0,0,0.01470022,-24.333137,-22.936671)"
       x1="302.85715"
       y1="366.64789"
       x2="302.85715"
       y2="609.50507" />
    <linearGradient
       x1="24.001453"
       y1="6.4736629"
       x2="23.99999"
       y2="43"
       id="linearGradient3013"
       xlink:href="#linearGradient3874"
       gradientUnits="userSpaceOnUse"
       gradientTransform="matrix(0.40540511,0,0,0.51351351,2.2696871,7.6756805)" />
    <radialGradient
       cx="7.8060555"
       cy="9.9571075"
       r="12.671875"
       fx="7.2758255"
       fy="9.9571075"
       id="radialGradient3094"
       xlink:href="#linearGradient2867-449-88-871-390-598-476-591-434-148-57-177-8-3"
       gradientUnits="userSpaceOnUse"
       gradientTransform="matrix(-7.3907531e-8,3.000461,-3.699288,-9.0065765e-8,48.829303,-17.528306)" />
    <linearGradient
       id="linearGradient2867-449-88-871-390-598-476-591-434-148-57-177-8-3">
      <stop
         id="stop3750-1-0"
         style="stop-color:#90dbec;stop-opacity:1"
         offset="0" />
      <stop
         id="stop3752-3-7"
         style="stop-color:#55c1ec;stop-opacity:1"
         offset="0.26238" />
      <stop
         id="stop3754-1-8"
         style="stop-color:#3689e6;stop-opacity:1"
         offset="0.704952" />
      <stop
         id="stop3756-1-6"
         style="stop-color:#2b63a0;stop-opacity:1"
         offset="1" />
    </linearGradient>
    <radialGradient
       cx="605.71429"
       cy="486.64789"
       r="117.14286"
       fx="605.71429"
       fy="486.64789"
       id="radialGradient3021"
       xlink:href="#linearGradient5060"
       gradientUnits="userSpaceOnUse"
       gradientTransform="matrix(0.01204859,0,0,0.0082353,13.238793,26.980564)" />
    <radialGradient
       cx="605.71429"
       cy="486.64789"
       r="117.14286"
       fx="605.71429"
       fy="486.64789"
       id="radialGradient3024"
       xlink:href="#linearGradient5060"
       gradientUnits="userSpaceOnUse"
       gradientTransform="matrix(-0.01204859,0,0,0.0082353,10.761206,26.980564)" />
    <linearGradient
       x1="302.85715"
       y1="366.64789"
       x2="302.85715"
       y2="609.50507"
       id="linearGradient3941"
       xlink:href="#linearGradient5048"
       gradientUnits="userSpaceOnUse"
       gradientTransform="matrix(0.0352071,0,0,0.0082353,-0.724852,26.980547)" />
    <linearGradient
       id="linearGradient3874">
      <stop
         offset="0"
         style="stop-color:#ffffff;stop-opacity:1"
         id="stop3876" />
      <stop
         offset="0.04870163"
         style="stop-color:#ffffff;stop-opacity:0.23529412"
         id="stop3878" />
      <stop
         id="stop4275"
         style="stop-color:#ffffff;stop-opacity:0"
         offset="0.95031375" />
      <stop
         offset="1"
         style="stop-color:#000000;stop-opacity:0.05882353"
         id="stop3882" />
    </linearGradient>
    <linearGradient
       x1="24.001453"
       y1="6.4736629"
       x2="23.99999"
       y2="43"
       id="linearGradient3013-3"
       xlink:href="#linearGradient3874"
       gradientUnits="userSpaceOnUse"
       gradientTransform="matrix(0.40540511,0,0,0.54054055,2.2696875,-9.4729686)" />
    <linearGradient
       x1="24.001453"
       y1="6.4736629"
       x2="23.99999"
       y2="43"
       id="linearGradient3013-5"
       xlink:href="#linearGradient3874"
       gradientUnits="userSpaceOnUse"
       gradientTransform="matrix(0.40540511,0,0,0.51351351,-19.730313,-26.324314)" />
    <radialGradient
       cx="7.8060555"
       cy="9.9571075"
       r="12.671875"
       fx="7.2758255"
       fy="9.9571075"
       id="radialGradient3094-8"
       xlink:href="#linearGradient2867-449-88-871-390-598-476-591-434-148-57-177-8-3"
       gradientUnits="userSpaceOnUse"
       gradientTransform="matrix(-7.3907531e-8,3.1504847,-3.699288,-9.4569072e-8,48.829304,-35.904758)" />
  </defs>
  <sodipodi:namedview
     id="base"
     pagecolor="#ffffff"
     bordercolor="#666666"
     borderopacity="1.0"
     inkscape:pageopacity="0.0"
     inkscape:pageshadow="2"
     inkscape:zoom="1"
     inkscape:cx="7.1021661"
     inkscape:cy="19.969928"
     inkscape:current-layer="layer1"
     showgrid="false"
     inkscape:grid-bbox="true"
     inkscape:document-units="px"
     inkscape:window-width="1366"
     inkscape:window-height="718"
     inkscape:window-x="0"
     inkscape:window-y="25"
     inkscape:window-maximized="1"
     inkscape:snap-bbox="true"
     inkscape:bbox-paths="true"
     inkscape:snap-bbox-edge-midpoints="true"
     inkscape:bbox-nodes="true">
    <inkscape:grid
       type="xygrid"
       id="grid4339" />
  </sodipodi:namedview>
  <metadata
     id="metadata4233">
    <rdf:RDF>
      <cc:Work
         rdf:about="">
        <dc:format>image/svg+xml</dc:format>
        <dc:type
           rdf:resource="http://purl.org/dc/dcmitype/StillImage" />
        <dc:title />
      </cc:Work>
    </rdf:RDF>
  </metadata>
  <g
     id="layer1"
     inkscape:label="Layer 1"
     inkscape:groupmode="layer"
     transform="translate(0,8)">
    <rect
       style="opacity:0.15;fill:url(#linearGradient4226);fill-opacity:1;fill-rule:nonzero;stroke:none;stroke-width:1;marker:none;visibility:visible;display:inline;overflow:visible"
       id="rect2879"
       y="13.999998"
       x="3.5000005"
       height="1.9999981"
       width="17" />
    <path
       inkscape:connector-curvature="0"
       style="opacity:0.15;fill:url(#radialGradient4103);fill-opacity:1;fill-rule:nonzero;stroke:none;stroke-width:1;marker:none;visibility:visible;display:inline;overflow:visible"
       id="path2881"
       d="m 3.5,14.000086 c 0,0 0,1.999889 0,1.999889 C 2.8795275,16.00374 2,15.551901 2,14.999901 2,14.447902 2.6924,14.000086 3.5,14.000086 z" />
    <path
       inkscape:connector-curvature="0"
       style="opacity:0.15;fill:url(#radialGradient4100);fill-opacity:1;fill-rule:nonzero;stroke:none;stroke-width:1;marker:none;visibility:visible;display:inline;overflow:visible"
       id="path2883"
       d="m 20.5,14.000086 c 0,0 0,1.999889 0,1.999889 0.620472,0.0038 1.5,-0.448074 1.5,-1.000074 0,-0.551999 -0.692401,-0.999815 -1.5,-0.999815 l 0,0 z" />
    <path
       inkscape:connector-curvature="0"
       d="m 11.302805,-2.7739994 c -0.323166,0 -0.583332,0.2601667 -0.583332,0.5833332 l 0,1.3124999 c -0.586487,0.1335477 -1.1286771,0.3626111 -1.6223971,0.6744791 L 8.1673884,-1.1333745 c -0.2285139,-0.2285134 -0.5917988,-0.2285134 -0.8203124,0 l -0.8203126,0.8203126 c -0.228514,0.2285129 -0.228514,0.5917983 0,0.8203116 L 7.4564508,1.436939 C 7.1445822,1.930659 6.915519,2.472846 6.7819718,3.059335 l -1.3125,0 c -0.3231666,0 -0.5833334,0.260167 -0.5833334,0.583332 l 0,1.166667 c 0,0.323165 0.2601668,0.583332 0.5833334,0.583332 l 1.3125,0 C 6.915519,5.979153 7.1445822,6.521342 7.4564508,7.015062 L 6.5267634,7.944751 c -0.228514,0.228512 -0.228514,0.591796 0,0.820312 L 7.347076,9.585376 c 0.2285124,0.228512 0.5917985,0.228515 0.8203124,0 L 9.0970759,8.655687 c 0.49372,0.311871 1.0359101,0.540933 1.6223971,0.674481 l 0,1.312501 c 0,0.323163 0.260166,0.583331 0.583332,0.583331 l 1.166667,0 c 0.323167,0 0.583333,-0.260168 0.583333,-0.583331 l 0,-1.312501 c 0.586488,-0.133548 1.128676,-0.36261 1.622396,-0.674481 l 0.929687,0.929689 c 0.228515,0.228512 0.5918,0.228512 0.820314,0 l 0.820311,-0.820313 c 0.228513,-0.228514 0.228515,-0.5918 0,-0.820312 L 16.315826,7.015062 c 0.311868,-0.49372 0.540931,-1.035909 0.674479,-1.622396 l 1.312499,0 c 0.323169,0 0.583334,-0.260167 0.583334,-0.583332 l 0,-1.166667 c 0,-0.323165 -0.260165,-0.583332 -0.583334,-0.583332 l -1.312499,0 C 16.856757,2.472846 16.627694,1.930659 16.315826,1.436939 l 0.929687,-0.9296893 c 0.228513,-0.2285127 0.228513,-0.5917981 0,-0.8203116 l -0.820311,-0.8203126 c -0.228514,-0.2285134 -0.591799,-0.2285134 -0.820314,0 l -0.929687,0.9296873 c -0.49372,-0.311868 -1.035908,-0.5409314 -1.622396,-0.6744791 l 0,-1.3124999 c 0,-0.3231665 -0.260166,-0.5833332 -0.583333,-0.5833332 l -1.166667,0 z m 0.583334,4.6666664 c 1.287999,-1e-6 2.333334,1.045335 2.333334,2.333333 0,1.288 -1.045335,2.333332 -2.333334,2.333332 -1.288,0 -2.3333331,-1.045332 -2.3333331,-2.333332 1e-6,-1.287998 1.0453331,-2.333333 2.3333331,-2.333333 z"
       id="rect3557-7"
       style="opacity:0.4;fill:#ffffff;fill-opacity:1;fill-rule:nonzero;stroke:none;stroke-width:1.70000005;marker:none;visibility:visible;display:inline;overflow:visible;enable-background:accumulate" />
    <path
       d="m 4,-7 c 3.666412,0 15.999981,0.00136 15.999981,0.00136 L 20,14 C 20,14 9.333334,14 4,14 4,7.0000076 4,1.746667e-5 4,-6.9999716 Z"
       id="path4160-9-4"
       style="color:#000000;display:inline;overflow:visible;visibility:visible;fill:url(#radialGradient3094-8);fill-opacity:1;fill-rule:nonzero;stroke:none;stroke-width:1;marker:none;enable-background:accumulate"
       inkscape:connector-curvature="0" />
    <path
       d="m 19.5,13.5 -15,0 0,-20.0000001 15,0 z"
       id="rect6741-1-3"
       style="opacity:0.6;fill:none;stroke:url(#linearGradient3013-3);stroke-width:1;stroke-linecap:round;stroke-linejoin:miter;stroke-miterlimit:4;stroke-dasharray:none;stroke-dashoffset:0;stroke-opacity:1"
       inkscape:connector-curvature="0" />
    <path
       d="m 3.4999591,-7.5000393 c 3.895581,0 17.0000589,0.00142 17.0000589,0.00142 l 2.1e-5,21.9986533 c 0,0 -11.3333863,0 -17.0000799,0 0,-7.3333512 0,-14.66670201 0,-22.0000547 z"
       id="path4160-3-1-0"
       style="display:inline;opacity:1;fill:none;stroke:#00284f;stroke-width:0.99992186;stroke-linecap:butt;stroke-linejoin:round;stroke-miterlimit:4;stroke-dasharray:none;stroke-dashoffset:0;stroke-opacity:0.68235294"
       inkscape:connector-curvature="0" />
    <path
       style="display:inline;overflow:visible;visibility:visible;opacity:0.25;fill:#000000;fill-opacity:1;fill-rule:nonzero;stroke:none;stroke-width:1.70000005;marker:none;enable-background:accumulate"
       id="rect3557-7-3-5"
       d="m 11.416667,-5.199999 c -0.323166,0 -0.583332,0.260167 -0.583332,0.583333 l 0,1.3125 c -0.586487,0.133548 -1.128677,0.362611 -1.622397,0.674479 L 8.28125,-3.559374 c -0.228514,-0.228514 -0.591799,-0.228514 -0.820312,0 l -0.820313,0.820313 c -0.228514,0.228512 -0.228514,0.591798 0,0.820311 l 0.929687,0.929689 C 7.258444,-0.495341 7.029381,0.046846 6.895833,0.633335 l -1.3125,0 C 5.260167,0.633335 5,0.893502 5,1.216667 l 0,1.166667 c 0,0.323165 0.260167,0.583332 0.583333,0.583332 l 1.3125,0 C 7.029381,3.553153 7.258444,4.095342 7.570312,4.5890624 L 6.640625,5.518751 c -0.228514,0.228512 -0.228514,0.591796 0,0.820312 l 0.820313,0.820313 c 0.228512,0.228512 0.591798,0.228515 0.820312,0 L 9.210938,6.229687 c 0.49372,0.311871 1.03591,0.540933 1.622397,0.674481 l 0,1.312501 c 0,0.323163 0.260166,0.583331 0.583332,0.583331 l 1.166667,0 c 0.323167,0 0.583333,-0.260168 0.583333,-0.583331 l 0,-1.312501 c 0.586488,-0.133548 1.128676,-0.36261 1.622396,-0.674481 l 0.929687,0.929689 c 0.228515,0.228512 0.5918,0.228512 0.820314,0 l 0.820311,-0.820313 c 0.228513,-0.228514 0.228515,-0.5918 0,-0.820312 L 16.429688,4.5890624 C 16.741556,4.095342 16.970619,3.553153 17.104167,2.966666 l 1.312499,0 C 18.739835,2.966666 19,2.706499 19,2.383334 L 19,1.216667 C 19,0.893502 18.739835,0.633335 18.416666,0.633335 l -1.312499,0 C 16.970619,0.046846 16.741556,-0.495341 16.429688,-0.989061 l 0.929687,-0.929689 c 0.228513,-0.228513 0.228513,-0.591798 0,-0.820311 l -0.820311,-0.820313 c -0.228514,-0.228514 -0.591799,-0.228514 -0.820314,0 l -0.929687,0.929687 c -0.49372,-0.311868 -1.035908,-0.540931 -1.622396,-0.674479 l 0,-1.3125 c 0,-0.323166 -0.260166,-0.583333 -0.583333,-0.583333 l -1.166667,0 z m 0.583334,4.666666 c 1.287999,-1e-6 2.333334,1.045335 2.333334,2.333333 0,1.288 -1.045335,2.333332 -2.333334,2.333332 -1.288,0 -2.333333,-1.045332 -2.333333,-2.333332 1e-6,-1.287998 1.045333,-2.333333 2.333333,-2.333333 z"
       inkscape:connector-curvature="0" />
    <path
       style="display:inline;overflow:visible;visibility:visible;opacity:1;fill:#ffffff;fill-opacity:1;fill-rule:nonzero;stroke:none;stroke-width:1.70000005;marker:none;enable-background:accumulate"
       id="rect3557-1-4"
       d="m 11.416667,-3.9999995 c -0.323166,0 -0.583332,0.2601667 -0.583332,0.5833332 l 0,1.3124999 c -0.586487,0.1335477 -1.128677,0.3626111 -1.622397,0.6744791 L 8.28125,-2.3593746 c -0.228514,-0.2285134 -0.591799,-0.2285134 -0.820312,0 L 6.640625,-1.539062 c -0.228514,0.2285129 -0.228514,0.5917983 0,0.8203116 L 7.570312,0.2109389 C 7.258444,0.704659 7.029381,1.246846 6.895833,1.833335 l -1.3125,0 C 5.260167,1.833335 5,2.093502 5,2.416667 l 0,1.166667 c 0,0.323165 0.260167,0.583332 0.583333,0.583332 l 1.3125,0 C 7.029381,4.753153 7.258444,5.295342 7.570312,5.789062 L 6.640625,6.7187515 c -0.228514,0.228512 -0.228514,0.591796 0,0.820312 l 0.820313,0.820312 c 0.228512,0.228512 0.591798,0.228515 0.820312,0 l 0.929688,-0.929688 c 0.49372,0.311871 1.03591,0.540932 1.622397,0.67448 l 0,1.312501 c 0,0.323163 0.260166,0.583331 0.583332,0.583331 l 1.166667,0 c 0.323167,0 0.583333,-0.260168 0.583333,-0.583331 l 0,-1.312501 c 0.586488,-0.133548 1.128676,-0.362609 1.622396,-0.67448 l 0.929687,0.929688 c 0.228515,0.228512 0.5918,0.228512 0.820314,0 l 0.820311,-0.820312 c 0.228513,-0.228514 0.228515,-0.5918 0,-0.820312 L 16.429688,5.789062 c 0.311868,-0.49372 0.540931,-1.035909 0.674479,-1.622396 l 1.312499,0 C 18.739835,4.166666 19,3.906499 19,3.583334 L 19,2.416667 C 19,2.093502 18.739835,1.833335 18.416666,1.833335 l -1.312499,0 C 16.970619,1.246846 16.741556,0.704659 16.429688,0.2109389 l 0.929687,-0.9296893 c 0.228513,-0.2285127 0.228513,-0.5917981 0,-0.8203116 l -0.820311,-0.8203126 c -0.228514,-0.2285134 -0.591799,-0.2285134 -0.820314,0 l -0.929687,0.9296873 c -0.49372,-0.311868 -1.035908,-0.5409314 -1.622396,-0.6744791 l 0,-1.3124999 c 0,-0.3231665 -0.260166,-0.5833332 -0.583333,-0.5833332 l -1.166667,0 z m 0.583334,4.6666659 C 13.288,0.6666652 14.333335,1.712002 14.333335,3 c 0,1.288 -1.045335,2.333332 -2.333334,2.333332 -1.288,0 -2.333333,-1.045332 -2.333333,-2.333332 1e-6,-1.287998 1.045333,-2.3333336 2.333333,-2.3333336 z"
       inkscape:connector-curvature="0" />
  </g>
</svg>
