<?xml version="1.0" encoding="UTF-8" standalone="no"?>
<!-- Created with Inkscape (http://www.inkscape.org/) -->

<svg
   xmlns:dc="http://purl.org/dc/elements/1.1/"
   xmlns:cc="http://creativecommons.org/ns#"
   xmlns:rdf="http://www.w3.org/1999/02/22-rdf-syntax-ns#"
   xmlns:svg="http://www.w3.org/2000/svg"
   xmlns="http://www.w3.org/2000/svg"
   xmlns:xlink="http://www.w3.org/1999/xlink"
   xmlns:sodipodi="http://sodipodi.sourceforge.net/DTD/sodipodi-0.dtd"
   xmlns:inkscape="http://www.inkscape.org/namespaces/inkscape"
   version="1.1"
   width="24"
   height="24"
   id="svg3828"
   inkscape:version="0.91 r13725"
   sodipodi:docname="image-x-xcf.svg">
  <sodipodi:namedview
     pagecolor="#ffffff"
     bordercolor="#666666"
     borderopacity="1"
     objecttolerance="10"
     gridtolerance="10"
     guidetolerance="10"
     inkscape:pageopacity="0"
     inkscape:pageshadow="2"
     inkscape:window-width="1366"
     inkscape:window-height="718"
     id="namedview35"
     showgrid="false"
     inkscape:zoom="1"
     inkscape:cx="8.9401804"
     inkscape:cy="5.2351926"
     inkscape:window-x="0"
     inkscape:window-y="25"
     inkscape:window-maximized="1"
     inkscape:current-layer="svg3828">
    <inkscape:grid
       type="xygrid"
       id="grid4291" />
  </sodipodi:namedview>
  <defs
     id="defs3830">
    <linearGradient
       x1="23.99999"
       y1="5.5641499"
       x2="23.99999"
       y2="43"
       id="linearGradient3119"
       xlink:href="#linearGradient3977"
       gradientUnits="userSpaceOnUse"
       gradientTransform="matrix(0.40540511,0,0,0.51351351,2.2696871,7.6756805)" />
    <linearGradient
       id="linearGradient3977">
      <stop
         id="stop3979"
         style="stop-color:#ffffff;stop-opacity:1"
         offset="0" />
      <stop
         id="stop3981"
         style="stop-color:#ffffff;stop-opacity:0.23529412"
         offset="0.03626217" />
      <stop
         id="stop3983"
         style="stop-color:#ffffff;stop-opacity:0.15686275"
         offset="0.95056331" />
      <stop
         id="stop3985"
         style="stop-color:#ffffff;stop-opacity:0.39215687"
         offset="1" />
    </linearGradient>
    <linearGradient
       x1="25.132275"
       y1="0.98520643"
       x2="25.132275"
       y2="47.013336"
       id="linearGradient3122"
       xlink:href="#linearGradient3600-4"
       gradientUnits="userSpaceOnUse"
       gradientTransform="matrix(0.48571543,0,0,0.45629666,0.3428289,8.3488617)" />
    <linearGradient
       id="linearGradient3600-4">
      <stop
         id="stop3602-7"
         style="stop-color:#f4f4f4;stop-opacity:1"
         offset="0" />
      <stop
         id="stop3604-6"
         style="stop-color:#dbdbdb;stop-opacity:1"
         offset="1" />
    </linearGradient>
    <linearGradient
       x1="-51.786404"
       y1="50.786446"
       x2="-51.786404"
       y2="2.9062471"
       id="linearGradient3124"
       xlink:href="#linearGradient3104-5"
       gradientUnits="userSpaceOnUse"
       gradientTransform="matrix(0.39221364,0,0,0.42702571,29.199296,7.8403287)" />
    <linearGradient
       id="linearGradient3104-5">
      <stop
         id="stop3106-6"
         style="stop-color:#a0a0a0;stop-opacity:1"
         offset="0" />
      <stop
         id="stop3108-9"
         style="stop-color:#bebebe;stop-opacity:1"
         offset="1" />
    </linearGradient>
    <radialGradient
       cx="605.71429"
       cy="486.64789"
       r="117.14286"
       fx="605.71429"
       fy="486.64789"
       id="radialGradient3045"
       xlink:href="#linearGradient5060"
       gradientUnits="userSpaceOnUse"
       gradientTransform="matrix(0.01204859,0,0,0.0082353,13.238793,26.980564)" />
    <linearGradient
       id="linearGradient5060">
      <stop
         id="stop5062"
         style="stop-color:#000000;stop-opacity:1"
         offset="0" />
      <stop
         id="stop5064"
         style="stop-color:#000000;stop-opacity:0"
         offset="1" />
    </linearGradient>
    <radialGradient
       cx="605.71429"
       cy="486.64789"
       r="117.14286"
       fx="605.71429"
       fy="486.64789"
       id="radialGradient3048"
       xlink:href="#linearGradient5060"
       gradientUnits="userSpaceOnUse"
       gradientTransform="matrix(-0.01204859,0,0,0.0082353,10.761206,26.980564)" />
    <linearGradient
       id="linearGradient5048">
      <stop
         id="stop5050"
         style="stop-color:#000000;stop-opacity:0"
         offset="0" />
      <stop
         id="stop5056"
         style="stop-color:#000000;stop-opacity:1"
         offset="0.5" />
      <stop
         id="stop5052"
         style="stop-color:#000000;stop-opacity:0"
         offset="1" />
    </linearGradient>
    <linearGradient
       x1="302.85715"
       y1="366.64789"
       x2="302.85715"
       y2="609.50507"
       id="linearGradient3826"
       xlink:href="#linearGradient5048"
       gradientUnits="userSpaceOnUse"
       gradientTransform="matrix(0.0352071,0,0,0.0082353,-0.724852,26.980547)" />
    <linearGradient
       inkscape:collect="always"
       xlink:href="#linearGradient3195"
       id="linearGradient3063"
       gradientUnits="userSpaceOnUse"
       gradientTransform="matrix(0.39096628,0,0,0.47003544,1.6647482,1.4426634)"
       x1="23.99999"
       y1="14.915504"
       x2="23.99999"
       y2="32.595779" />
    <linearGradient
       id="linearGradient3195">
      <stop
         id="stop3197"
         style="stop-color:#ffffff;stop-opacity:1"
         offset="0" />
      <stop
         id="stop3199"
         style="stop-color:#ffffff;stop-opacity:0.23529412"
         offset="0.12291458" />
      <stop
         id="stop3201"
         style="stop-color:#ffffff;stop-opacity:0.15686275"
         offset="0.93706012" />
      <stop
         id="stop3203"
         style="stop-color:#ffffff;stop-opacity:0.39215687"
         offset="1" />
    </linearGradient>
    <radialGradient
       inkscape:collect="always"
       xlink:href="#linearGradient2867-449-88-871-390-598-476-591-434-148-57-177-641-289-620-227-114-444-680-744-8-7"
       id="radialGradient3066"
       gradientUnits="userSpaceOnUse"
       gradientTransform="matrix(0,0.7455191,-0.67881264,0,17.738896,-1.1809478)"
       cx="10.90426"
       cy="8.4497671"
       fx="10.90426"
       fy="8.4497671"
       r="19.99999" />
    <linearGradient
       id="linearGradient2867-449-88-871-390-598-476-591-434-148-57-177-641-289-620-227-114-444-680-744-8-7">
      <stop
         id="stop5430-8-6"
         style="stop-color:#5f5f5f;stop-opacity:1"
         offset="0" />
      <stop
         id="stop5432-3-5"
         style="stop-color:#4f4f4f;stop-opacity:1"
         offset="0.26238" />
      <stop
         id="stop5434-1-6"
         style="stop-color:#3b3b3b;stop-opacity:1"
         offset="0.704952" />
      <stop
         id="stop5436-8-9"
         style="stop-color:#2b2b2b;stop-opacity:1"
         offset="1" />
    </linearGradient>
    <linearGradient
       inkscape:collect="always"
       xlink:href="#linearGradient3707-319-631-407-324-616-674-812-821-107-178-392-400-6-7"
       id="linearGradient3068"
       gradientUnits="userSpaceOnUse"
       gradientTransform="matrix(0.53695193,0,0,0.53021938,-0.88381732,0.0298982)"
       x1="24"
       y1="44"
       x2="24"
       y2="3.8990016" />
    <linearGradient
       id="linearGradient3707-319-631-407-324-616-674-812-821-107-178-392-400-6-7">
      <stop
         id="stop5440-4-4"
         style="stop-color:#272727;stop-opacity:1"
         offset="0" />
      <stop
         id="stop5442-3-5"
         style="stop-color:#454545;stop-opacity:1"
         offset="1" />
    </linearGradient>
    <linearGradient
       id="linearGradient3924">
      <stop
         id="stop3926"
         offset="0"
         style="stop-color:#000000;stop-opacity:1;" />
      <stop
         id="stop3928"
         offset="1"
         style="stop-color:#000000;stop-opacity:0.38759691;" />
    </linearGradient>
    <linearGradient
       inkscape:collect="always"
       xlink:href="#linearGradient3990-3"
       id="linearGradient3967"
       gradientUnits="userSpaceOnUse"
       x1="10.793174"
       y1="14.423345"
       x2="23.534342"
       y2="28.416178" />
    <linearGradient
       id="linearGradient3990-3">
      <stop
         style="stop-color:#000000;stop-opacity:0.37254903;"
         offset="0"
         id="stop3992-4" />
      <stop
         style="stop-color:#000000;stop-opacity:0;"
         offset="1"
         id="stop3994-4" />
    </linearGradient>
    <linearGradient
       inkscape:collect="always"
       xlink:href="#linearGradient3927"
       id="linearGradient4120"
       gradientUnits="userSpaceOnUse"
       gradientTransform="matrix(0.46429354,0,0,0.46291536,0.82873911,2.231255)"
       x1="35.792591"
       y1="36.383247"
       x2="32.414753"
       y2="22.375317" />
    <linearGradient
       id="linearGradient3927">
      <stop
         id="stop3929"
         offset="0"
         style="stop-color:#ffffff;stop-opacity:0.46899223;" />
      <stop
         style="stop-color:#ffffff;stop-opacity:1;"
         offset="0.31613758"
         id="stop3931" />
      <stop
         id="stop3933"
         offset="1"
         style="stop-color:#ffffff;stop-opacity:0;" />
    </linearGradient>
    <linearGradient
       inkscape:collect="always"
       xlink:href="#linearGradient3818"
       id="linearGradient3963"
       gradientUnits="userSpaceOnUse"
       gradientTransform="matrix(0.79942816,0,0,0.7968603,-0.84094284,0.17113818)"
       x1="7.4267182"
       y1="16.046642"
       x2="8.40625"
       y2="18.390392" />
    <linearGradient
       inkscape:collect="always"
       id="linearGradient3818">
      <stop
         style="stop-color:#000000;stop-opacity:1;"
         offset="0"
         id="stop3820" />
      <stop
         style="stop-color:#000000;stop-opacity:0;"
         offset="1"
         id="stop3822" />
    </linearGradient>
    <linearGradient
       gradientTransform="matrix(0.40540511,0,0,0.54054055,2.2696871,6.5270322)"
       gradientUnits="userSpaceOnUse"
       xlink:href="#linearGradient3977-9"
       id="linearGradient3119-3"
       y2="43"
       x2="23.99999"
       y1="6.4249902"
       x1="24.001455" />
    <linearGradient
       gradientTransform="matrix(0.45714179,0,0,0.45629506,1.0285964,7.8489088)"
       gradientUnits="userSpaceOnUse"
       xlink:href="#linearGradient3927-0"
       id="linearGradient3122-0"
       y2="47.013336"
       x2="25.132275"
       y1="0.98520643"
       x1="25.132275" />
    <linearGradient
       gradientTransform="matrix(0.39221364,0,0,0.44736025,29.199296,6.7612971)"
       gradientUnits="userSpaceOnUse"
       xlink:href="#linearGradient3104-5"
       id="linearGradient3124-8"
       y2="2.9062471"
       x2="-51.786404"
       y1="50.786446"
       x1="-51.786404" />
    <radialGradient
       gradientTransform="matrix(0.01204859,0,0,0.0082353,13.238793,26.980564)"
       gradientUnits="userSpaceOnUse"
       xlink:href="#linearGradient5060"
       id="radialGradient3045-1"
       fy="486.64789"
       fx="605.71429"
       r="117.14286"
       cy="486.64789"
       cx="605.71429" />
    <radialGradient
       gradientTransform="matrix(-0.01204859,0,0,0.0082353,10.761206,26.980564)"
       gradientUnits="userSpaceOnUse"
       xlink:href="#linearGradient5060"
       id="radialGradient3048-1"
       fy="486.64789"
       fx="605.71429"
       r="117.14286"
       cy="486.64789"
       cx="605.71429" />
    <linearGradient
       gradientTransform="matrix(0.0352071,0,0,0.0082353,-0.724852,26.980547)"
       gradientUnits="userSpaceOnUse"
       xlink:href="#linearGradient5048"
       id="linearGradient4253"
       y2="609.50507"
       x2="302.85715"
       y1="366.64789"
       x1="302.85715" />
    <linearGradient
       id="linearGradient3977-9">
      <stop
         offset="0"
         style="stop-color:#ffffff;stop-opacity:1;"
         id="stop3979-8" />
      <stop
         id="stop3981-8"
         style="stop-color:#ffffff;stop-opacity:0.23529412;"
         offset="0.04878049" />
      <stop
         offset="0.95056331"
         style="stop-color:#ffffff;stop-opacity:0"
         id="stop3983-0" />
      <stop
         offset="1"
         style="stop-color:#000000;stop-opacity:0.04313726"
         id="stop3985-0" />
    </linearGradient>
    <linearGradient
       id="linearGradient3927-0">
      <stop
         id="stop3929-3"
         offset="0"
         style="stop-color:#fbfcfd;stop-opacity:1" />
      <stop
         id="stop3931-2"
         offset="1"
         style="stop-color:#ebeced;stop-opacity:1" />
    </linearGradient>
    <linearGradient
       gradientTransform="matrix(0.48571543,0,0,0.47802505,-5.6571711,-9.0955584)"
       gradientUnits="userSpaceOnUse"
       xlink:href="#linearGradient3927-0"
       id="linearGradient3122-2"
       y2="47.013336"
       x2="25.132275"
       y1="0.98520643"
       x1="25.132275" />
    <linearGradient
       gradientTransform="matrix(0.39221364,0,0,0.44736025,29.199296,-1.2386972)"
       gradientUnits="userSpaceOnUse"
       xlink:href="#linearGradient3104-5"
       id="linearGradient3124-7"
       y2="2.9062471"
       x2="-51.786404"
       y1="50.786446"
       x1="-51.786404" />
    <linearGradient
       inkscape:collect="always"
       xlink:href="#linearGradient5048"
       id="linearGradient4274"
       gradientUnits="userSpaceOnUse"
       gradientTransform="matrix(0.0352071,0,0,0.0082353,-0.724852,26.980547)"
       x1="302.85715"
       y1="366.64789"
       x2="302.85715"
       y2="609.50507" />
  </defs>
  <metadata
     id="metadata3833">
    <rdf:RDF>
      <cc:Work
         rdf:about="">
        <dc:format>image/svg+xml</dc:format>
        <dc:type
           rdf:resource="http://purl.org/dc/dcmitype/StillImage" />
        <dc:title />
      </cc:Work>
    </rdf:RDF>
  </metadata>
  <g
     id="g4265">
    <g
       id="layer1-2"
       transform="translate(0,-8)">
      <rect
         style="display:inline;overflow:visible;visibility:visible;opacity:0.15;fill:url(#linearGradient4274);fill-opacity:1;fill-rule:nonzero;stroke:none;stroke-width:1;marker:none"
         id="rect2879-1"
         y="30"
         x="3.5000007"
         height="2"
         width="16.999998" />
      <path
         style="display:inline;overflow:visible;visibility:visible;opacity:0.15;fill:url(#radialGradient3048-1);fill-opacity:1;fill-rule:nonzero;stroke:none;stroke-width:1;marker:none"
         id="path2881-7"
         d="m 3.4999999,30.000085 c 0,0 0,1.999891 0,1.999891 C 2.8795275,32.003776 2,31.551901 2,30.999901 2,30.447902 2.6924,30.000085 3.4999999,30.000085 Z"
         inkscape:connector-curvature="0" />
      <path
         style="display:inline;overflow:visible;visibility:visible;opacity:0.15;fill:url(#radialGradient3045-1);fill-opacity:1;fill-rule:nonzero;stroke:none;stroke-width:1;marker:none"
         id="path2883-2"
         d="m 20.5,30.000085 c 0,0 0,1.999891 0,1.999891 0.620472,0.0038 1.5,-0.448075 1.5,-1.000075 0,-0.551999 -0.692402,-0.999816 -1.5,-0.999816 z"
         inkscape:connector-curvature="0" />
      <path
         inkscape:connector-curvature="0"
         style="display:inline;fill:url(#linearGradient3122-0);fill-opacity:1;stroke:none;stroke-width:0.99992186;stroke-linecap:butt;stroke-linejoin:round;stroke-miterlimit:4;stroke-dasharray:none;stroke-dashoffset:0;stroke-opacity:1"
         id="path4160-3-5"
         d="M 4,9 C 7.6664119,9 19.999981,9.00136 19.999981,9.00136 L 20,30 C 20,30 9.3333337,30 4,30 4,23.000006 4,16.000014 4,9.00002 Z" />
      <path
         inkscape:connector-curvature="0"
         style="fill:none;stroke:url(#linearGradient3119-3);stroke-width:1;stroke-linecap:round;stroke-linejoin:miter;stroke-miterlimit:4;stroke-dasharray:none;stroke-dashoffset:0;stroke-opacity:1"
         id="rect6741-1-5"
         d="m 19.5,29.500001 -15.0000004,0 0,-20.0000008 15.0000004,0 z" />
    </g>
    <path
       inkscape:connector-curvature="0"
       style="display:inline;fill:none;fill-opacity:1;stroke:#000000;stroke-width:0.99992186;stroke-linecap:butt;stroke-linejoin:round;stroke-miterlimit:4;stroke-dasharray:none;stroke-dashoffset:0;stroke-opacity:0.35294118"
       id="path4160-3-3"
       d="m 3.4999601,0.49996093 c 3.8955809,0 17.0000589,0.00142 17.0000589,0.00142 l 2.1e-5,21.99865407 c 0,0 -11.3333862,0 -17.0000799,0 0,-7.333352 0,-14.6667033 0,-22.00005547 z" />
  </g>
  <path
     inkscape:connector-curvature="0"
     id="path4323-8"
     d="m 17.244927,7.5232986 c -0.05273,0.025841 -0.09954,0.1096702 -0.145092,0.2459238 C 16.978361,8.1325656 16.123607,10.642592 11.281656,10.763706 8.9711511,10.820991 7.9880736,8.7963162 7.9880736,8.7963162 l -0.058037,2.6038988 c 0,0 0.2483522,0.580284 -0.246656,1.18622 -0.026907,-0.04192 -0.042993,-0.08936 -0.072545,-0.130195 C 7.4326726,12.210075 7.2238172,12.002939 7.0014498,11.848664 6.745949,11.6714 6.480186,11.554363 6.2179544,11.515943 c -0.3023256,-0.04429 -0.5947433,0.02098 -0.8270228,0.18806 -0.2323503,0.167126 -0.3676123,0.423173 -0.4207661,0.723305 -0.046079,0.260188 -0.030092,0.541456 0.058037,0.839034 0.076709,0.259016 0.1991553,0.52053 0.3772385,0.766704 0.1881327,0.260064 0.4225132,0.490358 0.667422,0.650974 0.2762063,0.181142 0.5690307,0.287255 0.8560412,0.303788 0.088815,0.0051 0.1795586,-0.0166 0.2611651,-0.02893 1.8589525,1.469334 5.3836997,2.937034 7.8294717,1.485086 0.05291,0.01795 0.106421,0.03954 0.159601,0.05786 0.0013,0.0251 -0.0066,0.04997 0,0.07233 l 0.116073,-0.0434 c 0.362492,0.191163 0.815717,0.32015 1.218772,0.462916 -0.04524,0.381752 0.14414,0.702121 0.623894,0.885142 0.863986,0.329602 1.833638,0.653188 1.833638,0.653188 -0.412131,-1.394823 -0.404843,-2.605521 -1.473426,-2.683588 -0.181466,-0.01326 -0.407314,0.167884 -0.464293,0.216992 l -0.972115,-0.622043 -0.04353,0 -0.01451,-0.01447 c 1.309084,-1.284502 1.908475,-3.430968 1.444411,-7.6307441 -0.02686,-0.2098765 -0.11524,-0.3179247 -0.203129,-0.2748563 z"
     style="color:#000000;display:inline;overflow:visible;visibility:visible;opacity:1;fill:#ffffff;fill-opacity:1;fill-rule:nonzero;stroke:none;stroke-width:0.99999994;marker:none;enable-background:accumulate"
     sodipodi:nodetypes="ssccccsssssssssccccccscscccccs" />
  <g
     transform="translate(0.0618059,-2.5634641)"
     id="g4125">
    <g
       id="layer1-7"
       transform="matrix(0.33571477,0,0,0.33463641,4.8069882,6.7847969)">
      <path
         inkscape:connector-curvature="0"
         id="path4323"
         d="m 36.943886,6.7968089 c -0.157078,0.077222 -0.296498,0.3277294 -0.432188,0.7348984 -0.361839,1.085785 -2.90791,8.5865417 -17.33072,8.9484697 C 12.298633,16.651365 9.3703212,10.60099 9.3703212,10.60099 l -0.1728749,7.781278 c 0,0 0.7397713,1.734074 -0.7347189,3.544803 C 8.3825784,21.801792 8.334663,21.660029 8.2466337,21.538008 7.7159378,20.802389 7.093816,20.183401 6.4314461,19.722376 5.6703811,19.192657 4.8787477,18.842912 4.0976334,18.728102 c -0.9005432,-0.132364 -1.7715733,0.0627 -2.4634688,0.561981 -0.69210616,0.499428 -1.09501379,1.264576 -1.25334389,2.161466 -0.13725792,0.777524 -0.0896357,1.618044 0.17287499,2.5073 0.22849391,0.774024 0.5932276,1.55551 1.1236876,2.291155 0.5603944,0.777156 1.258548,1.465348 1.9880627,1.945319 0.8227411,0.541308 1.6949827,0.858408 2.5499063,0.907816 0.2645554,0.01529 0.5348545,-0.04961 0.7779375,-0.08646 5.5372972,4.390835 16.0365302,8.776791 23.3217962,4.437909 0.157588,0.05364 0.316997,0.118164 0.475406,0.172917 0.0039,0.075 -0.01968,0.149333 0,0.216147 l 0.34575,-0.129688 c 1.079761,0.571255 2.42979,0.95671 3.630377,1.383339 -0.13475,1.140796 0.429353,2.098162 1.858407,2.645088 2.573572,0.984956 5.461893,1.951932 5.461893,1.951932 -1.227624,-4.168174 -1.205916,-7.786127 -4.388923,-8.019415 -0.540537,-0.03962 -1.213274,0.501691 -1.383,0.64844 l -2.895657,-1.85886 -0.129656,0 -0.04322,-0.04323 c 3.899384,-3.8385 5.684804,-10.252822 4.302486,-22.803091 -0.08,-0.627178 -0.343267,-0.9500602 -0.605063,-0.8213581 z"
         style="opacity:1;color:#000000;fill:#787878;fill-opacity:1;fill-rule:nonzero;stroke:none;stroke-width:0.99999994;marker:none;visibility:visible;display:inline;overflow:visible;enable-background:accumulate"
         sodipodi:nodetypes="ssccccsssssssssccccccscscccccs" />
    </g>
    <g
       style="color:#000000;fill:none;stroke:url(#linearGradient3967);stroke-width:2.98351455;stroke-linecap:butt;stroke-linejoin:miter;stroke-miterlimit:4;stroke-opacity:1;stroke-dasharray:none;stroke-dashoffset:0;marker:none;visibility:visible;display:inline;overflow:visible;enable-background:accumulate"
       id="layer1-7-5"
       transform="matrix(0.33571477,0,0,0.33463641,4.8069882,6.7847969)" />
    <path
       style="opacity:0.1;color:#000000;fill:none;stroke:url(#linearGradient4120);stroke-width:1.00000012;stroke-linecap:butt;stroke-linejoin:miter;stroke-miterlimit:4;stroke-opacity:1;stroke-dashoffset:0;marker:none;visibility:visible;display:inline;overflow:visible;enable-background:accumulate"
       d="m 17.126409,8.5558683 c -0.091,0.0201 -0.173025,0.060923 -0.241007,0.1130509 -0.135965,0.1042541 -0.224183,0.2507356 -0.297715,0.4098095 -0.147064,0.3181483 -0.252422,0.6874073 -0.439484,0.8620131 -3.38e-4,0.0047 -3.38e-4,0.00943 0,0.014131 -1.127349,1.3962242 -3.051937,1.7740242 -4.791793,1.8370772 -0.0047,-3.37e-4 -0.0095,-3.37e-4 -0.01418,0 -1.226321,0.102315 -2.4364966,-0.662474 -2.9771496,-1.738157 3.38e-4,-0.0047 3.38e-4,-0.0094 0,-0.01413 C 8.2543562,9.8826753 8.0581919,9.8194382 7.8830698,9.8418223 7.7079476,9.8642064 7.5299007,9.9781454 7.4719397,10.166844 c -3.38e-4,0.0047 -3.38e-4,0.0094 0,0.01413 -0.07845,0.397019 -0.026027,0.820018 -0.056708,1.201166 -3.38e-4,0.0047 -3.38e-4,0.0094 0,0.01413 -0.00331,0.539299 -0.053783,1.09065 -0.028354,1.639238 -0.00136,0.0094 -0.00136,0.01891 0,0.02826 0.00487,0.01593 -0.00331,0.01485 0,0.02826 -0.034846,-0.02443 -0.068402,-0.04985 -0.1134152,-0.08479 -0.10995,-0.08533 -0.2327792,-0.186694 -0.3685989,-0.268486 -0.1222978,-0.07365 -0.2503309,-0.137643 -0.3827763,-0.127183 -0.9650208,-0.353152 -2.0598001,0.369268 -2.0981813,1.399005 -1.746e-4,0.0047 1.306e-4,0.0094 0,0.01413 -0.143196,1.436048 1.0239605,2.918452 2.4951345,2.995849 0.00538,2.83e-4 0.00878,0.01389 0.014177,0.01413 0.6355316,0.322674 1.291521,0.834521 2.0272967,1.116378 0.00578,0.0022 0.00839,0.01195 0.014177,0.01413 1.7700868,0.747394 3.7871408,1.285409 5.6565998,0.531457 0.201592,-0.0813 0.295227,-0.08298 0.41674,-0.146826 0.265906,0.108655 0.420037,0.183472 0.662136,0.262042 0.147383,0.028 0.223,0.06624 0.304381,0.09892 0.0056,0.376681 0.398492,0.712306 0.62962,0.839587 0.654746,0.360566 1.475549,0.465118 2.126761,0.803021 0.0086,0.0062 0.01822,0.01097 0.02835,0.01413 0.142481,0.02457 0.255161,0.02469 0.354423,0 0.09926,-0.02469 0.176186,-0.08161 0.22683,-0.155445 0.101288,-0.147674 0.09823,-0.338676 0.05671,-0.536992 -0.04153,-0.198316 -0.126116,-0.412326 -0.198477,-0.607649 -0.07236,-0.195322 -0.134366,-0.368427 -0.155946,-0.480466 3.38e-4,-0.0047 3.38e-4,-0.0094 0,-0.01413 -0.18004,-0.717472 -0.392067,-1.566742 -1.169634,-1.8059 -0.256386,-0.07267 -0.751902,-0.128524 -0.911451,0.01321 -0.100909,-0.06779 -0.129926,-0.103188 -0.247706,-0.165583 0.940385,-1.23033 1.20164,-2.63578 1.279701,-4.160611 0.04915,-1.202911 0.03958,-2.423706 -0.170123,-3.6176284 3.38e-4,-0.0047 3.38e-4,-0.00943 0,-0.014131 -0.0701,-0.1831981 -0.208363,-0.3903159 -0.425307,-0.4663349 -0.0047,-3.369e-4 -0.0095,-3.369e-4 -0.01418,0 -0.111864,-0.019707 -0.206719,-0.0201 -0.297715,0 z"
       id="path3084"
       inkscape:connector-curvature="0"
       sodipodi:nodetypes="sssccccccscccccccsscscccccscccsccssssccccccccccs" />
  </g>
</svg>
