<?xml version="1.0" encoding="UTF-8" standalone="no"?>
<!-- Created with Inkscape (http://www.inkscape.org/) -->

<svg
   xmlns:dc="http://purl.org/dc/elements/1.1/"
   xmlns:cc="http://creativecommons.org/ns#"
   xmlns:rdf="http://www.w3.org/1999/02/22-rdf-syntax-ns#"
   xmlns:svg="http://www.w3.org/2000/svg"
   xmlns="http://www.w3.org/2000/svg"
   xmlns:xlink="http://www.w3.org/1999/xlink"
   xmlns:sodipodi="http://sodipodi.sourceforge.net/DTD/sodipodi-0.dtd"
   xmlns:inkscape="http://www.inkscape.org/namespaces/inkscape"
   id="svg2"
   version="1.1"
   inkscape:version="0.91 r13725"
   width="96"
   height="96"
   viewBox="0 0 96 96"
   sodipodi:docname="folder-publicshare.svg">
  <metadata
     id="metadata8">
    <rdf:RDF>
      <cc:Work
         rdf:about="">
        <dc:format>image/svg+xml</dc:format>
        <dc:type
           rdf:resource="http://purl.org/dc/dcmitype/StillImage" />
        <dc:title />
      </cc:Work>
    </rdf:RDF>
  </metadata>
  <defs
     id="defs6">
    <linearGradient
       id="linearGradient4297"
       inkscape:collect="always">
      <stop
         id="stop4299"
         offset="0"
         style="stop-color:#000000;stop-opacity:0.50980395" />
      <stop
         id="stop4301"
         offset="1"
         style="stop-color:#000000;stop-opacity:0.39215687" />
    </linearGradient>
    <linearGradient
       id="linearGradient3782">
      <stop
         style="stop-color:#ffffff;stop-opacity:1;"
         offset="0"
         id="stop3784" />
      <stop
         style="stop-color:#e4e5e7;stop-opacity:1;"
         offset="1"
         id="stop3786" />
    </linearGradient>
    <linearGradient
       id="linearGradient3927">
      <stop
         id="stop3929"
         offset="0"
         style="stop-color:#f1f2f3;stop-opacity:1;" />
      <stop
         id="stop3931"
         offset="1"
         style="stop-color:#e4e5e7;stop-opacity:1;" />
    </linearGradient>
    <linearGradient
       gradientTransform="matrix(-1,0,0,1,-6.7646976,-20.363097)"
       y2="-4.0000048"
       x2="53"
       y1="-4.0000048"
       x1="49.000004"
       gradientUnits="userSpaceOnUse"
       id="linearGradient3953"
       xlink:href="#linearGradient3930-4"
       inkscape:collect="always" />
    <linearGradient
       inkscape:collect="always"
       id="linearGradient3930-4">
      <stop
         style="stop-color:#ffffff;stop-opacity:1;"
         offset="0"
         id="stop3932-3" />
      <stop
         style="stop-color:#ffffff;stop-opacity:0;"
         offset="1"
         id="stop3934-8" />
    </linearGradient>
    <linearGradient
       gradientTransform="translate(-98.764694,-20.363099)"
       inkscape:collect="always"
       xlink:href="#linearGradient3930-4"
       id="linearGradient3936"
       x1="5"
       y1="-4"
       x2="9"
       y2="-4"
       gradientUnits="userSpaceOnUse" />
    <linearGradient
       inkscape:collect="always"
       xlink:href="#linearGradient3829"
       id="linearGradient3835"
       x1="22"
       y1="11"
       x2="22"
       y2="9"
       gradientUnits="userSpaceOnUse"
       gradientTransform="matrix(2.0499995,0,0,1.4999982,-101.96469,-35.863089)" />
    <linearGradient
       inkscape:collect="always"
       id="linearGradient3829">
      <stop
         style="stop-color:#000000;stop-opacity:1;"
         offset="0"
         id="stop3831" />
      <stop
         style="stop-color:#000000;stop-opacity:0;"
         offset="1"
         id="stop3833" />
    </linearGradient>
    <linearGradient
       inkscape:collect="always"
       xlink:href="#linearGradient3927"
       id="linearGradient3933"
       x1="25"
       y1="16"
       x2="25"
       y2="39"
       gradientUnits="userSpaceOnUse"
       gradientTransform="matrix(2.3783781,0,0,2.434782,-108.65659,-56.319611)" />
    <linearGradient
       inkscape:collect="always"
       xlink:href="#linearGradient3782"
       id="linearGradient3965"
       x1="25"
       y1="27"
       x2="25"
       y2="52"
       gradientUnits="userSpaceOnUse"
       gradientTransform="matrix(2.3076918,0,0,2.3199995,-113.91854,-81.00308)" />
    <linearGradient
       inkscape:collect="always"
       xlink:href="#linearGradient4297"
       id="linearGradient3794"
       x1="23.5"
       y1="10.775"
       x2="23.5"
       y2="13.1"
       gradientUnits="userSpaceOnUse"
       gradientTransform="matrix(2.0444442,0,0,1.9354836,-100.80915,-38.717933)" />
    <linearGradient
       id="linearGradient3937-0-4-0-4">
      <stop
         style="stop-color:#9c9d9e;stop-opacity:1;"
         offset="0"
         id="stop3939-8-15-2-4" />
      <stop
         style="stop-color:#bbbcbd;stop-opacity:1;"
         offset="1"
         id="stop3941-2-0-4-4" />
    </linearGradient>
    <linearGradient
       y2="45.599998"
       x2="28"
       y1="25.800001"
       x1="28"
       gradientUnits="userSpaceOnUse"
       id="linearGradient4093"
       xlink:href="#linearGradient3937-0-4-0-4"
       inkscape:collect="always" />
    <linearGradient
       y2="53.399998"
       x2="28"
       y1="33"
       x1="28"
       gradientUnits="userSpaceOnUse"
       id="linearGradient4093-4"
       xlink:href="#linearGradient3937-0-4-0-4-7"
       inkscape:collect="always" />
    <linearGradient
       id="linearGradient3937-0-4-0-4-7">
      <stop
         style="stop-color:#9c9d9e;stop-opacity:1;"
         offset="0"
         id="stop3939-8-15-2-4-6" />
      <stop
         style="stop-color:#bbbcbd;stop-opacity:1;"
         offset="1"
         id="stop3941-2-0-4-4-4" />
    </linearGradient>
    <linearGradient
       y2="39"
       x2="28"
       y1="18.600002"
       x1="28"
       gradientUnits="userSpaceOnUse"
       id="linearGradient4093-2"
       xlink:href="#linearGradient3937-0-4-0-4-6"
       inkscape:collect="always" />
    <linearGradient
       id="linearGradient3937-0-4-0-4-6">
      <stop
         style="stop-color:#9c9d9e;stop-opacity:1;"
         offset="0"
         id="stop3939-8-15-2-4-7" />
      <stop
         style="stop-color:#bbbcbd;stop-opacity:1;"
         offset="1"
         id="stop3941-2-0-4-4-3" />
    </linearGradient>
  </defs>
  <sodipodi:namedview
     pagecolor="#ffffff"
     bordercolor="#666666"
     borderopacity="1"
     objecttolerance="10"
     gridtolerance="10"
     guidetolerance="10"
     inkscape:pageopacity="0"
     inkscape:pageshadow="2"
     inkscape:window-width="1031"
     inkscape:window-height="634"
     id="namedview4"
     showgrid="true"
     inkscape:snap-bbox="true"
     inkscape:bbox-nodes="true"
     inkscape:bbox-paths="true"
     inkscape:object-paths="true"
     inkscape:snap-bbox-edge-midpoints="true"
     inkscape:object-nodes="true"
     inkscape:snap-intersection-paths="true"
     inkscape:snap-midpoints="true"
     inkscape:snap-bbox-midpoints="true"
     inkscape:snap-smooth-nodes="true"
     inkscape:zoom="4"
     inkscape:cx="-28.402776"
     inkscape:cy="31.67599"
     inkscape:window-x="0"
     inkscape:window-y="109"
     inkscape:window-maximized="0"
     inkscape:current-layer="svg2"
     showguides="false"
     inkscape:guide-bbox="true">
    <inkscape:grid
       type="xygrid"
       id="grid4303" />
    <sodipodi:guide
       orientation="1,0"
       position="47.999998,41.999998"
       id="guide3224" />
    <sodipodi:guide
       orientation="0,1"
       position="48,42"
       id="guide3226" />
  </sodipodi:namedview>
  <g
     id="g4305"
     transform="translate(100.7647,43.363102)">
    <rect
       style="display:inline;opacity:0.15;fill:#000000;fill-opacity:1;stroke:#000000;stroke-width:0;stroke-miterlimit:4;stroke-dasharray:none;stroke-opacity:1;"
       id="rect3915-0"
       width="91.999992"
       height="59.999985"
       x="-98.764694"
       y="-18.363092"
       rx="2.9677415"
       ry="2.9268286" />
    <path
       id="rect3967"
       d="m -86.764702,-32.363102 c -1.108,0 -2,0.892 -2,2 l 0,4 -3.999982,3e-6 c -1.108,10e-7 -2,0.892 -2,2 l 0,10 c 0,1.108 0.892,2 2,2 l 79.999985,-2e-6 c 1.108,0 2,-0.892 2,-2 l 0,-10 c 0,-1.108 -0.892,-2 -2,-2 l -46,0 0,-4 c 0,-1.108 -0.892,-2 -2,-2 z"
       style="fill:#000000;fill-opacity:0.65882353;stroke:#000000;stroke-width:0;stroke-miterlimit:4;stroke-opacity:1;stroke-dasharray:none;display:inline"
       inkscape:connector-curvature="0"
       transform="translate(1.6621398e-6,-3.6441816e-7)"
       sodipodi:nodetypes="sscsssssssscsss" />
    <rect
       style="display:inline;fill:#8b8b8d;fill-opacity:1;stroke:#000000;stroke-width:0;stroke-miterlimit:4;stroke-dasharray:none;stroke-opacity:1"
       id="rect3969"
       width="81.999985"
       height="11.999998"
       x="-93.764694"
       y="-25.363096"
       ry="0.99999982" />
    <path
       sodipodi:nodetypes="sssccccss"
       inkscape:connector-curvature="0"
       id="rect3945"
       d="m -86.764702,-31.363102 26.000003,1e-6 c 0.51269,0 0.999998,0.450835 1,1 l 1.5e-5,5.000002 0,0 -28.000003,-1e-6 0,0 -1.5e-5,-5.000002 c -10e-7,-0.54027 0.47956,-1 1,-1 z"
       style="fill:#8b8b8d;fill-opacity:1;stroke:#000000;stroke-width:0;stroke-miterlimit:4;stroke-opacity:1;display:inline"
       transform="translate(1.6621398e-6,-3.6441816e-7)" />
    <rect
       style="display:inline;fill:url(#linearGradient3794);fill-opacity:1;stroke:#000000;stroke-width:0;stroke-miterlimit:4;stroke-dasharray:none;stroke-opacity:1"
       id="rect3915"
       width="91.999992"
       height="59.999989"
       x="-98.764694"
       y="-19.363096"
       rx="1.9999982"
       ry="1.9999943" />
    <rect
       rx="0.99999052"
       style="display:inline;fill:url(#linearGradient3965);fill-opacity:1;stroke:#000000;stroke-width:0;stroke-miterlimit:4;stroke-dasharray:none;stroke-opacity:1"
       id="rect3957"
       width="89.999985"
       height="57.999989"
       x="-97.764694"
       y="-18.363094"
       ry="0.99999231" />
    <rect
       style="display:inline;fill:url(#linearGradient3933);fill-opacity:1;stroke:#000000;stroke-width:0;stroke-miterlimit:4;stroke-dasharray:none;stroke-opacity:1"
       id="rect3925"
       width="87.999985"
       height="55.999989"
       x="-96.764694"
       y="-17.363094"
       rx="0"
       ry="0" />
    <rect
       ry="0"
       y="-22.363102"
       x="-93.764694"
       height="2.9999962"
       width="81.999977"
       id="rect3827"
       style="opacity:0.17300002;fill:url(#linearGradient3835);fill-opacity:1;stroke:#102b68;stroke-width:0;stroke-linecap:butt;stroke-linejoin:miter;stroke-miterlimit:4;stroke-opacity:1;stroke-dasharray:none;stroke-dashoffset:0;display:inline" />
    <path
       inkscape:connector-curvature="0"
       id="rect3891"
       d="m -86.7647,-31.363102 c -0.554,0 -1,0.446 -1,1 l 0,1 c 0,-0.554 0.446,-1 1,-1 l 26.000002,0 c 0.554,0 1,0.446 1,1 l 0,-1 c 0,-0.554 -0.446,-1 -1,-1 z"
       style="opacity:0.15;fill:#ffffff;fill-opacity:1;stroke:#767779;stroke-width:0;stroke-linecap:butt;stroke-linejoin:miter;stroke-miterlimit:4;stroke-opacity:1;stroke-dasharray:none;stroke-dashoffset:0;display:inline"
       sodipodi:nodetypes="sscsscsss" />
    <path
       sodipodi:nodetypes="sscsccs"
       inkscape:connector-curvature="0"
       id="rect3891-8"
       d="m -92.764684,-25.363099 c -0.554,0 -1,0.446 -1,1 l 0,1 c 0,-0.554 0.446,-1 1,-1 l 3,0 0,-1 z"
       style="display:inline;opacity:0.15;fill:url(#linearGradient3936);fill-opacity:1;stroke:#767779;stroke-width:0;stroke-linecap:butt;stroke-linejoin:miter;stroke-miterlimit:4;stroke-dasharray:none;stroke-dashoffset:0;stroke-opacity:1" />
    <path
       sodipodi:nodetypes="sscsccs"
       inkscape:connector-curvature="0"
       id="rect3891-8-7"
       d="m -12.764698,-25.363097 c 0.554,0 1,0.446 1,1 l 0,1 c 0,-0.554 -0.446,-1 -1,-1 l -47,-5e-6 0,-1 z"
       style="display:inline;opacity:0.14999999999999999;fill:url(#linearGradient3953);fill-opacity:1;stroke:#767779;stroke-width:0;stroke-linecap:butt;stroke-linejoin:miter;stroke-miterlimit:4;stroke-dasharray:none;stroke-dashoffset:0;stroke-opacity:1" />
  </g>
  <path
     style="fill:#ffffff;fill-opacity:1;stroke:#4b4b4b;stroke-width:0;stroke-linejoin:miter;stroke-miterlimit:4;stroke-opacity:1;stroke-dashoffset:0;display:inline"
     d="m 54,37.3 c -3.313707,0 -6,2.686293 -6,6 0,0.87771 0.192583,1.717335 0.53125,2.46875 l -4.0625,4.0625 C 43.717335,49.492583 42.87771,49.3 42,49.3 c -3.313707,0 -6,2.686293 -6,6 0,3.313707 2.686293,6 6,6 0.87771,0 1.717335,-0.192583 2.46875,-0.53125 l 4.0625,4.0625 C 48.192583,65.582665 48,66.42229 48,67.3 c 0,3.313707 2.686293,6 6,6 3.313707,0 6,-2.686293 6,-6 0,-3.313707 -2.686293,-6 -6,-6 -0.87771,0 -1.717335,0.192583 -2.46875,0.53125 l -4.0625,-4.0625 C 47.807417,57.017335 48,56.17771 48,55.3 48,54.42229 47.807417,53.582665 47.46875,52.83125 l 4.0625,-4.0625 C 52.282665,49.107417 53.12229,49.3 54,49.3 c 3.313707,0 6,-2.686293 6,-6 0,-3.313707 -2.686293,-6 -6,-6 z"
     id="rect4669-98-8-4"
     inkscape:connector-curvature="0" />
  <g
     id="g4199">
    <path
       sodipodi:nodetypes="ccccc"
       inkscape:connector-curvature="0"
       id="rect4669-98-8"
       d="m 51.999998,61 -3,3 -5,-5 3,-3 z"
       style="fill:#767779;fill-opacity:1;stroke:#4b4b4b;stroke-width:0;stroke-linejoin:miter;stroke-miterlimit:4;stroke-opacity:1;stroke-dashoffset:0;display:inline" />
    <path
       transform="matrix(0.70710678,0.70710678,-0.70710678,0.70710678,0,0)"
       sodipodi:nodetypes="ccccc"
       inkscape:connector-curvature="0"
       id="rect4669-98"
       d="m 65.760931,-3.5355339 4.24264,0 0,7.0710678 -4.24264,0 z"
       style="fill:#767779;fill-opacity:1;stroke:#4b4b4b;stroke-width:0;stroke-linejoin:miter;stroke-miterlimit:4;stroke-opacity:1;stroke-dashoffset:0;display:inline" />
    <path
       d="m 47.999998,54 a 5.9999981,5.9999981 0 1 1 -11.999996,0 5.9999981,5.9999981 0 1 1 11.999996,0 z"
       sodipodi:ry="5.9999981"
       sodipodi:rx="5.9999981"
       sodipodi:cy="54"
       sodipodi:cx="42"
       id="path4076"
       style="opacity:1;fill:#5e5f60;fill-opacity:1;stroke:#474f56;stroke-width:0;stroke-linecap:butt;stroke-linejoin:miter;stroke-miterlimit:4;stroke-opacity:1;stroke-dasharray:none;stroke-dashoffset:0"
       sodipodi:type="arc" />
    <path
       sodipodi:type="arc"
       style="fill:url(#linearGradient4093);fill-opacity:1;stroke:#767779;stroke-width:0;stroke-linecap:butt;stroke-linejoin:miter;stroke-miterlimit:4;stroke-opacity:1;stroke-dasharray:none;stroke-dashoffset:0;display:inline"
       id="path5099-6"
       sodipodi:cx="28"
       sodipodi:cy="36"
       sodipodi:rx="3"
       sodipodi:ry="3"
       d="m 31,36 a 3,3 0 1 1 -6,0 3,3 0 1 1 6,0 z"
       transform="matrix(1.6666669,0,0,1.6666669,-4.6666741,-6.0000072)" />
    <path
       d="m 47.999998,54 a 5.9999981,5.9999981 0 1 1 -11.999996,0 5.9999981,5.9999981 0 1 1 11.999996,0 z"
       sodipodi:ry="5.9999981"
       sodipodi:rx="5.9999981"
       sodipodi:cy="54"
       sodipodi:cx="42"
       id="path4076-2"
       style="fill:#5e5f60;fill-opacity:1;stroke:#474f56;stroke-width:0;stroke-linecap:butt;stroke-linejoin:miter;stroke-miterlimit:4;stroke-opacity:1;stroke-dasharray:none;stroke-dashoffset:0"
       sodipodi:type="arc"
       transform="translate(12.000001,-12.000001)" />
    <path
       sodipodi:type="arc"
       style="fill:url(#linearGradient4093-4);fill-opacity:1;stroke:#767779;stroke-width:0;stroke-linecap:butt;stroke-linejoin:miter;stroke-miterlimit:4;stroke-opacity:1;stroke-dasharray:none;stroke-dashoffset:0;display:inline"
       id="path5099-6-4"
       sodipodi:cx="28"
       sodipodi:cy="36"
       sodipodi:rx="3"
       sodipodi:ry="3"
       d="m 31,36 a 3,3 0 1 1 -6,0 3,3 0 1 1 6,0 z"
       transform="matrix(1.6666669,0,0,1.6666669,7.3333268,-18.000008)" />
    <path
       d="m 47.999998,54 a 5.9999981,5.9999981 0 1 1 -11.999996,0 5.9999981,5.9999981 0 1 1 11.999996,0 z"
       sodipodi:ry="5.9999981"
       sodipodi:rx="5.9999981"
       sodipodi:cy="54"
       sodipodi:cx="42"
       id="path4076-9"
       style="fill:#5e5f60;fill-opacity:1;stroke:#474f56;stroke-width:0;stroke-linecap:butt;stroke-linejoin:miter;stroke-miterlimit:4;stroke-opacity:1;stroke-dasharray:none;stroke-dashoffset:0"
       sodipodi:type="arc"
       transform="translate(12,12)" />
    <path
       sodipodi:type="arc"
       style="fill:url(#linearGradient4093-2);fill-opacity:1;stroke:#767779;stroke-width:0;stroke-linecap:butt;stroke-linejoin:miter;stroke-miterlimit:4;stroke-opacity:1;stroke-dasharray:none;stroke-dashoffset:0;display:inline"
       id="path5099-6-9"
       sodipodi:cx="28"
       sodipodi:cy="36"
       sodipodi:rx="3"
       sodipodi:ry="3"
       d="m 31,36 a 3,3 0 1 1 -6,0 3,3 0 1 1 6,0 z"
       transform="matrix(1.6666669,0,0,1.6666669,7.3333261,5.999993)" />
  </g>
</svg>
