<?xml version="1.0" encoding="UTF-8" standalone="no"?>
<!-- Created with Inkscape (http://www.inkscape.org/) -->

<svg
   xmlns:osb="http://www.openswatchbook.org/uri/2009/osb"
   xmlns:dc="http://purl.org/dc/elements/1.1/"
   xmlns:cc="http://creativecommons.org/ns#"
   xmlns:rdf="http://www.w3.org/1999/02/22-rdf-syntax-ns#"
   xmlns:svg="http://www.w3.org/2000/svg"
   xmlns="http://www.w3.org/2000/svg"
   xmlns:xlink="http://www.w3.org/1999/xlink"
   xmlns:sodipodi="http://sodipodi.sourceforge.net/DTD/sodipodi-0.dtd"
   xmlns:inkscape="http://www.inkscape.org/namespaces/inkscape"
   version="1.0"
   width="96"
   height="96"
   id="svg3695"
   inkscape:version="0.91 r13725"
   sodipodi:docname="user-trash.svg">
  <metadata
     id="metadata11265">
    <rdf:RDF>
      <cc:Work
         rdf:about="">
        <dc:format>image/svg+xml</dc:format>
        <dc:type
           rdf:resource="http://purl.org/dc/dcmitype/StillImage" />
        <dc:title></dc:title>
      </cc:Work>
    </rdf:RDF>
  </metadata>
  <sodipodi:namedview
     pagecolor="#2a2a2a"
     bordercolor="#666666"
     borderopacity="1"
     objecttolerance="10"
     gridtolerance="10"
     guidetolerance="10"
     inkscape:pageopacity="0"
     inkscape:pageshadow="2"
     inkscape:window-width="1366"
     inkscape:window-height="718"
     id="namedview11263"
     showgrid="false"
     inkscape:snap-global="true"
     inkscape:zoom="1"
     inkscape:cx="157.56266"
     inkscape:cy="141.02799"
     inkscape:window-x="0"
     inkscape:window-y="25"
     inkscape:window-maximized="1"
     inkscape:current-layer="svg3695"
     inkscape:snap-bbox="true"
     inkscape:bbox-paths="true"
     inkscape:bbox-nodes="true"
     inkscape:snap-bbox-edge-midpoints="true"
     showguides="true"
     inkscape:guide-bbox="true">
    <inkscape:grid
       type="xygrid"
       id="grid3062"
       empspacing="5"
       visible="true"
       enabled="true"
       snapvisiblegridlinesonly="true" />
    <sodipodi:guide
       position="32,54"
       orientation="1,0"
       id="guide4298" />
  </sodipodi:namedview>
  <defs
     id="defs3697">
    <linearGradient
       inkscape:collect="always"
       id="linearGradient4300">
      <stop
         style="stop-color:#141414;stop-opacity:1;"
         offset="0"
         id="stop4302" />
      <stop
         style="stop-color:#000000;stop-opacity:0.89877301"
         offset="1"
         id="stop4304" />
    </linearGradient>
    <linearGradient
       id="linearGradient6985"
       inkscape:collect="always">
      <stop
         id="stop6987"
         offset="0"
         style="stop-color:#000000;stop-opacity:1" />
      <stop
         id="stop6989"
         offset="1"
         style="stop-color:#000000;stop-opacity:0" />
    </linearGradient>
    <linearGradient
       id="linearGradient6286"
       inkscape:collect="always">
      <stop
         id="stop6288"
         offset="0"
         style="stop-color:#ffffff;stop-opacity:1;" />
      <stop
         id="stop6290"
         offset="1"
         style="stop-color:#ffffff;stop-opacity:0" />
    </linearGradient>
    <linearGradient
       inkscape:collect="always"
       id="linearGradient6177">
      <stop
         style="stop-color:#ffffff;stop-opacity:1;"
         offset="0"
         id="stop6179" />
      <stop
         style="stop-color:#ffffff;stop-opacity:0;"
         offset="1"
         id="stop6181" />
    </linearGradient>
    <linearGradient
       id="linearGradient6131"
       inkscape:collect="always">
      <stop
         id="stop6133"
         offset="0"
         style="stop-color:#717173;stop-opacity:1" />
      <stop
         style="stop-color:#4f4f50;stop-opacity:1"
         offset="0.78947371"
         id="stop6137" />
      <stop
         id="stop6139"
         offset="0.89473683"
         style="stop-color:#4f4f50;stop-opacity:1;" />
      <stop
         id="stop6135"
         offset="1"
         style="stop-color:#3c3c3c;stop-opacity:1" />
    </linearGradient>
    <linearGradient
       inkscape:collect="always"
       id="linearGradient6046">
      <stop
         style="stop-color:#000000;stop-opacity:0.6"
         offset="0"
         id="stop6048" />
      <stop
         style="stop-color:#000000;stop-opacity:0.816"
         offset="1"
         id="stop6050" />
    </linearGradient>
    <linearGradient
       inkscape:collect="always"
       id="linearGradient6014">
      <stop
         style="stop-color:#8b8b8d;stop-opacity:1;"
         offset="0"
         id="stop6016" />
      <stop
         style="stop-color:#b7b7b9;stop-opacity:1"
         offset="1"
         id="stop6018" />
    </linearGradient>
    <linearGradient
       osb:paint="gradient"
       id="linearGradient4406">
      <stop
         offset="0"
         style="stop-color:#4e4e4e;stop-opacity:1"
         id="stop4408" />
      <stop
         offset="1"
         style="stop-color:#141414;stop-opacity:1"
         id="stop4410" />
    </linearGradient>
    <linearGradient
       id="linearGradient3320"
       osb:paint="gradient">
      <stop
         id="stop3323"
         style="stop-color:#4e4e4e;stop-opacity:1"
         offset="0" />
      <stop
         id="stop3325"
         style="stop-color:#b9bac2;stop-opacity:1"
         offset="1" />
    </linearGradient>
    <linearGradient
       id="linearGradient3254-3-182">
      <stop
         id="stop4663"
         style="stop-color:#ffffff;stop-opacity:1"
         offset="0" />
      <stop
         id="stop4665"
         style="stop-color:#ffffff;stop-opacity:0"
         offset="1" />
    </linearGradient>
    <linearGradient
       inkscape:collect="always"
       xlink:href="#linearGradient3254-3-182"
       id="linearGradient3038"
       gradientUnits="userSpaceOnUse"
       gradientTransform="matrix(2.6,0,0,2.340076,-5.7999964,-5.5948689)"
       x1="12.25"
       y1="20.230709"
       x2="17.125"
       y2="34.173542" />
    <linearGradient
       inkscape:collect="always"
       xlink:href="#linearGradient6131"
       id="linearGradient5927"
       x1="135"
       y1="12"
       x2="116"
       y2="12"
       gradientUnits="userSpaceOnUse"
       spreadMethod="reflect"
       gradientTransform="matrix(1.5107527,0,0,1.5010941,-154.19624,32.908316)" />
    <linearGradient
       inkscape:collect="always"
       xlink:href="#linearGradient6014"
       id="linearGradient6020"
       x1="116"
       y1="-9"
       x2="135"
       y2="-9"
       gradientUnits="userSpaceOnUse"
       spreadMethod="reflect"
       gradientTransform="matrix(1.4736842,0,0,1.4705881,-149.21053,32.735295)" />
    <radialGradient
       inkscape:collect="always"
       xlink:href="#linearGradient6046"
       id="radialGradient6052"
       cx="144.25"
       cy="-14.204085"
       fx="144.25"
       fy="-14.204085"
       r="19"
       gradientTransform="matrix(-4.6703594,7.6591938e-7,-1.3094366e-7,-0.85820421,723.43885,-1.5842304)"
       gradientUnits="userSpaceOnUse" />
    <radialGradient
       inkscape:collect="always"
       xlink:href="#linearGradient6286"
       id="radialGradient6284"
       cx="39.000679"
       cy="39.764774"
       fx="39.000679"
       fy="39.764774"
       r="18.6"
       gradientTransform="matrix(-1.5377501,2.15039e-8,-1.7099296e-8,-2.5750635,109.726,127.78787)"
       gradientUnits="userSpaceOnUse"
       spreadMethod="pad" />
    <linearGradient
       osb:paint="solid"
       id="linearGradient6213">
      <stop
         id="stop6215"
         offset="0"
         style="stop-color:#000000;stop-opacity:1;" />
    </linearGradient>
    <radialGradient
       inkscape:collect="always"
       xlink:href="#linearGradient6985"
       id="radialGradient6052-2"
       cx="144.28255"
       cy="-21.631355"
       fx="144.28255"
       fy="-21.631355"
       r="19"
       gradientTransform="matrix(-1.8157888,4.1477826e-7,-1.7770285e-7,-0.94736844,311.48662,56.007076)"
       gradientUnits="userSpaceOnUse" />
    <linearGradient
       inkscape:collect="always"
       xlink:href="#linearGradient6177"
       id="linearGradient4572"
       x1="49"
       y1="9"
       x2="49"
       y2="17"
       gradientUnits="userSpaceOnUse" />
    <linearGradient
       inkscape:collect="always"
       xlink:href="#linearGradient4300"
       id="linearGradient4580"
       x1="49"
       y1="20.085936"
       x2="49"
       y2="24"
       gradientUnits="userSpaceOnUse" />
  </defs>
  <path
     style="opacity:0.9;fill:url(#radialGradient6052-2);fill-opacity:1;stroke:none;stroke-width:1;stroke-linecap:butt;stroke-linejoin:miter;stroke-miterlimit:4;stroke-dasharray:none;stroke-dashoffset:0;stroke-opacity:1"
     d="M 79.5,79.499999 A 30.75,15 0 0 1 48.75,94.5 30.75,15 0 0 1 18,79.499999 30.75,15 0 0 1 48.75,64.5 30.75,15 0 0 1 79.5,79.499999 Z"
     id="path4342-99-8"
     inkscape:connector-curvature="0" />
  <path
     style="opacity:1;fill:url(#linearGradient5927);fill-opacity:1;stroke:none;stroke-width:1;stroke-linecap:butt;stroke-linejoin:miter;stroke-miterlimit:4;stroke-dasharray:none;stroke-dashoffset:0;stroke-opacity:1"
     d="m 20.9,20.9 0,57.191247 C 20.9,84.723497 33.564232,90.1 49,90.1 64.435768,90.1 77.1,84.723497 77.1,78.091247 L 77.1,20.9 Z"
     id="rect4344"
     inkscape:connector-curvature="0"
     sodipodi:nodetypes="cssscc" />
  <path
     style="color:#000000;font-style:normal;font-variant:normal;font-weight:normal;font-stretch:normal;font-size:medium;line-height:normal;font-family:sans-serif;text-indent:0;text-align:start;text-decoration:none;text-decoration-line:none;text-decoration-style:solid;text-decoration-color:#000000;letter-spacing:normal;word-spacing:normal;text-transform:none;direction:ltr;block-progression:tb;writing-mode:lr-tb;baseline-shift:baseline;text-anchor:start;white-space:normal;clip-rule:nonzero;display:inline;overflow:visible;visibility:visible;opacity:1;isolation:auto;mix-blend-mode:normal;color-interpolation:sRGB;color-interpolation-filters:linearRGB;solid-color:#000000;solid-opacity:1;fill:#141414;fill-opacity:0.86274511;fill-rule:nonzero;stroke:none;stroke-width:2;stroke-linecap:butt;stroke-linejoin:miter;stroke-miterlimit:4;stroke-dasharray:none;stroke-dashoffset:0;stroke-opacity:1;color-rendering:auto;image-rendering:auto;shape-rendering:auto;text-rendering:auto;enable-background:accumulate"
     d="m 20,20 0,1 0,57.025391 c 0,1.971305 0.95046,3.805685 2.50195,5.367187 1.5515,1.561503 3.71506,2.900188 6.33789,4.019531 C 34.08551,89.650797 41.1934,91 49,91 c 7.8066,0 14.91449,-1.349203 20.16016,-3.587891 2.62283,-1.119343 4.78639,-2.458028 6.33789,-4.019531 C 77.04954,81.831076 78,79.996696 78,78.025391 L 78,20 20,20 Z m 1,1 56,0 0,57.025391 C 77,84.638473 64.38084,90 49,90 33.61916,90 21,84.638473 21,78.025391 L 21,21 Z"
     id="rect4344-3"
     inkscape:connector-curvature="0" />
  <path
     style="opacity:0.2;fill:url(#radialGradient6284);fill-opacity:1;stroke:none;stroke-width:1;stroke-linecap:butt;stroke-linejoin:miter;stroke-miterlimit:4;stroke-dasharray:none;stroke-dashoffset:0;stroke-opacity:1"
     d="m 21,21 0,57.025955 C 21,84.639037 33.619164,90 49,90 64.380836,90 77,84.639037 77,78.025955 L 77,21 Z"
     id="rect4344-7"
     inkscape:connector-curvature="0"
     sodipodi:nodetypes="cssscc" />
  <path
     inkscape:connector-curvature="0"
     style="display:inline;overflow:visible;visibility:visible;opacity:0.1;fill:url(#linearGradient3038);fill-opacity:1;fill-rule:nonzero;stroke:none;stroke-width:1;marker:none"
     id="rect3244"
     d="M 28,29 41,31.846352 41,88.739464 28,86.838151 28,29 Z"
     sodipodi:nodetypes="cccccc" />
  <path
     style="opacity:1;fill:url(#linearGradient6020);fill-opacity:1;stroke:none;stroke-width:1;stroke-linecap:butt;stroke-linejoin:miter;stroke-miterlimit:4;stroke-dasharray:none;stroke-dashoffset:0;stroke-opacity:1"
     d="M 77,19.5 A 28,12.5 0 0 1 49,32 28,12.5 0 0 1 21,19.5 28,12.5 0 0 1 49,7 28,12.5 0 0 1 77,19.5 Z"
     id="path4342"
     inkscape:connector-curvature="0" />
  <path
     style="opacity:0.9;fill:url(#radialGradient6052);fill-opacity:1;stroke:none;stroke-width:1;stroke-linecap:butt;stroke-linejoin:miter;stroke-miterlimit:4;stroke-dasharray:none;stroke-dashoffset:0;stroke-opacity:1"
     d="M 77.1,19.499999 A 28.1,12.6 0 0 1 49,32.1 28.1,12.6 0 0 1 20.9,19.499999 28.1,12.6 0 0 1 49,6.9 28.1,12.6 0 0 1 77.1,19.499999 Z"
     id="path4342-99"
     inkscape:connector-curvature="0" />
  <path
     style="opacity:0.2;fill:#ffffff;fill-opacity:1;stroke:none;stroke-width:1;stroke-linecap:butt;stroke-linejoin:miter;stroke-miterlimit:4;stroke-dasharray:none;stroke-dashoffset:0;stroke-opacity:1"
     d="M 76.95313,21 A 28,12.5 0 0 1 49,33.083985 28,12.5 0 0 1 21.04688,21.169922 28,12.5 0 0 0 21,21.583985 a 28,12.5 0 0 0 28,12.5 28,12.5 0 0 0 28,-12.5 A 28,12.5 0 0 0 76.95313,21 Z"
     id="path4342-99-64"
     inkscape:connector-curvature="0" />
  <path
     style="color:#000000;font-style:normal;font-variant:normal;font-weight:normal;font-stretch:normal;font-size:medium;line-height:normal;font-family:sans-serif;text-indent:0;text-align:start;text-decoration:none;text-decoration-line:none;text-decoration-style:solid;text-decoration-color:#000000;letter-spacing:normal;word-spacing:normal;text-transform:none;direction:ltr;block-progression:tb;writing-mode:lr-tb;baseline-shift:baseline;text-anchor:start;white-space:normal;clip-rule:nonzero;display:inline;overflow:visible;visibility:visible;opacity:0.9;isolation:auto;mix-blend-mode:normal;color-interpolation:sRGB;color-interpolation-filters:linearRGB;solid-color:#000000;solid-opacity:1;fill:url(#linearGradient4580);fill-opacity:1;fill-rule:nonzero;stroke:none;stroke-width:2;stroke-linecap:butt;stroke-linejoin:miter;stroke-miterlimit:4;stroke-dasharray:none;stroke-dashoffset:0;stroke-opacity:1;color-rendering:auto;image-rendering:auto;shape-rendering:auto;text-rendering:auto;enable-background:accumulate"
     d="M 49,6 C 41.14738,6 34.03287,7.408807 28.79297,9.748047 26.17302,10.917667 24.01659,12.319748 22.47461,13.947266 20.93263,15.574784 20,17.471464 20,19.5 c 0,2.028536 0.93263,3.925216 2.47461,5.552734 1.54198,1.627519 3.69841,3.029599 6.31836,4.199219 C 34.03287,31.591193 41.14738,33 49,33 c 7.85262,0 14.96713,-1.408807 20.20703,-3.748047 2.61995,-1.16962 4.77638,-2.5717 6.31836,-4.199219 C 77.06737,23.425216 78,21.528536 78,19.5 78,17.471464 77.06737,15.574784 75.52539,13.947266 73.98341,12.319748 71.82698,10.917667 69.20703,9.748047 63.96713,7.408807 56.85262,6 49,6 Z m 0,1 A 28,12.5 0 0 1 77,19.5 28,12.5 0 0 1 49,32 28,12.5 0 0 1 21,19.5 28,12.5 0 0 1 49,7 Z"
     id="path4342-99-80"
     inkscape:connector-curvature="0" />
  <path
     style="opacity:0.25;fill:url(#linearGradient4572);fill-opacity:1;stroke:none;stroke-width:1;stroke-linecap:butt;stroke-linejoin:miter;stroke-miterlimit:4;stroke-dasharray:none;stroke-dashoffset:0;stroke-opacity:1"
     d="M 49,7 A 28,12.5 0 0 0 21,19.499998 28,12.5 0 0 0 21.04687,20.085935 28,12.5 0 0 1 49,8 28,12.5 0 0 1 76.95313,19.916013 28,12.5 0 0 0 77,19.499998 28,12.5 0 0 0 49,7 Z"
     id="path4342-99-9"
     inkscape:connector-curvature="0" />
</svg>
