<?xml version="1.0" encoding="UTF-8" standalone="no"?>
<!-- Created with Inkscape (http://www.inkscape.org/) -->

<svg
   xmlns:osb="http://www.openswatchbook.org/uri/2009/osb"
   xmlns:dc="http://purl.org/dc/elements/1.1/"
   xmlns:cc="http://creativecommons.org/ns#"
   xmlns:rdf="http://www.w3.org/1999/02/22-rdf-syntax-ns#"
   xmlns:svg="http://www.w3.org/2000/svg"
   xmlns="http://www.w3.org/2000/svg"
   xmlns:xlink="http://www.w3.org/1999/xlink"
   xmlns:sodipodi="http://sodipodi.sourceforge.net/DTD/sodipodi-0.dtd"
   xmlns:inkscape="http://www.inkscape.org/namespaces/inkscape"
   version="1.0"
   width="96"
   height="96"
   id="svg3695"
   inkscape:version="0.91 r13725"
   sodipodi:docname="user-trash-full.svg">
  <metadata
     id="metadata11265">
    <rdf:RDF>
      <cc:Work
         rdf:about="">
        <dc:format>image/svg+xml</dc:format>
        <dc:type
           rdf:resource="http://purl.org/dc/dcmitype/StillImage" />
        <dc:title></dc:title>
      </cc:Work>
    </rdf:RDF>
  </metadata>
  <sodipodi:namedview
     pagecolor="#2a2a2a"
     bordercolor="#666666"
     borderopacity="1"
     objecttolerance="10"
     gridtolerance="10"
     guidetolerance="10"
     inkscape:pageopacity="0"
     inkscape:pageshadow="2"
     inkscape:window-width="1366"
     inkscape:window-height="718"
     id="namedview11263"
     showgrid="false"
     inkscape:snap-global="false"
     inkscape:zoom="1"
     inkscape:cx="19.658032"
     inkscape:cy="65.456856"
     inkscape:window-x="0"
     inkscape:window-y="25"
     inkscape:window-maximized="1"
     inkscape:current-layer="svg3695"
     inkscape:snap-bbox="true"
     inkscape:bbox-paths="true"
     inkscape:bbox-nodes="true"
     inkscape:snap-bbox-edge-midpoints="true"
     showguides="false"
     inkscape:guide-bbox="true"
     inkscape:object-paths="true"
     inkscape:snap-intersection-paths="true"
     inkscape:object-nodes="true"
     inkscape:snap-smooth-nodes="true"
     inkscape:snap-nodes="true">
    <inkscape:grid
       type="xygrid"
       id="grid3062"
       empspacing="5"
       visible="true"
       enabled="true"
       snapvisiblegridlinesonly="true" />
    <sodipodi:guide
       position="32,54"
       orientation="1,0"
       id="guide4298" />
    <sodipodi:guide
       position="32,42"
       orientation="1,0"
       id="guide4223" />
    <sodipodi:guide
       position="31.969826,51"
       orientation="0,1"
       id="guide4191" />
    <sodipodi:guide
       position="32,5"
       orientation="0,1"
       id="guide4193" />
    <sodipodi:guide
       position="32,58.994141"
       orientation="0,1"
       id="guide4195" />
    <sodipodi:guide
       position="8.2812502,51"
       orientation="1,0"
       id="guide4197" />
    <sodipodi:guide
       position="55.742188,50.994796"
       orientation="1,0"
       id="guide4199" />
  </sodipodi:namedview>
  <defs
     id="defs3697">
    <linearGradient
       id="linearGradient4399">
      <stop
         id="stop4401"
         offset="0"
         style="stop-color:#626262;stop-opacity:1" />
      <stop
         id="stop4403"
         offset="1"
         style="stop-color:#3f3f3f;stop-opacity:1" />
    </linearGradient>
    <linearGradient
       id="linearGradient4306">
      <stop
         style="stop-color:#000000;stop-opacity:1"
         offset="0"
         id="stop4308" />
      <stop
         style="stop-color:#000000;stop-opacity:0"
         offset="1"
         id="stop4310" />
    </linearGradient>
    <linearGradient
       id="linearGradient4237">
      <stop
         id="stop4239"
         offset="0"
         style="stop-color:#a7a7a7;stop-opacity:1" />
      <stop
         id="stop4241"
         offset="1"
         style="stop-color:#787878;stop-opacity:1" />
    </linearGradient>
    <linearGradient
       id="linearGradient4867">
      <stop
         id="stop4869"
         offset="0"
         style="stop-color:#ffffff;stop-opacity:1;" />
      <stop
         id="stop4871"
         offset="1"
         style="stop-color:#e4e5e7;stop-opacity:0.15686275" />
    </linearGradient>
    <linearGradient
       id="linearGradient4861">
      <stop
         style="stop-color:#7e7e7e;stop-opacity:1"
         offset="0"
         id="stop4863" />
      <stop
         style="stop-color:#3f3f3f;stop-opacity:1"
         offset="1"
         id="stop4865" />
    </linearGradient>
    <linearGradient
       osb:paint="gradient"
       id="linearGradient4406">
      <stop
         offset="0"
         style="stop-color:#4e4e4e;stop-opacity:1"
         id="stop4408" />
      <stop
         offset="1"
         style="stop-color:#141414;stop-opacity:1"
         id="stop4410" />
    </linearGradient>
    <linearGradient
       id="linearGradient3320"
       osb:paint="gradient">
      <stop
         id="stop3323"
         style="stop-color:#4e4e4e;stop-opacity:1"
         offset="0" />
      <stop
         id="stop3325"
         style="stop-color:#b9bac2;stop-opacity:1"
         offset="1" />
    </linearGradient>
    <linearGradient
       id="linearGradient3254-3-182">
      <stop
         id="stop4663"
         style="stop-color:#ffffff;stop-opacity:1"
         offset="0" />
      <stop
         id="stop4665"
         style="stop-color:#ffffff;stop-opacity:0"
         offset="1" />
    </linearGradient>
    <linearGradient
       osb:paint="solid"
       id="linearGradient6213">
      <stop
         id="stop6215"
         offset="0"
         style="stop-color:#000000;stop-opacity:1;" />
    </linearGradient>
    <linearGradient
       id="linearGradient4287">
      <stop
         id="stop4289"
         offset="0"
         style="stop-color:#000000;stop-opacity:0.50980395;" />
      <stop
         id="stop4291"
         offset="1"
         style="stop-color:#000000;stop-opacity:0.47239265" />
    </linearGradient>
    <linearGradient
       id="linearGradient3782">
      <stop
         style="stop-color:#ffffff;stop-opacity:1;"
         offset="0"
         id="stop3784" />
      <stop
         style="stop-color:#e4e5e7;stop-opacity:1;"
         offset="1"
         id="stop3786" />
    </linearGradient>
    <linearGradient
       id="linearGradient3927">
      <stop
         id="stop3929"
         offset="0"
         style="stop-color:#f1f2f3;stop-opacity:1;" />
      <stop
         id="stop3931"
         offset="1"
         style="stop-color:#e4e5e7;stop-opacity:1;" />
    </linearGradient>
    <linearGradient
       id="linearGradient3937-5">
      <stop
         style="stop-color:#9c9d9e;stop-opacity:1;"
         offset="0"
         id="stop3939-6" />
      <stop
         style="stop-color:#bbbcbd;stop-opacity:1;"
         offset="1"
         id="stop3941-3" />
    </linearGradient>
    <linearGradient
       inkscape:collect="always"
       xlink:href="#linearGradient4399"
       id="linearGradient4213"
       x1="32"
       y1="13"
       x2="32"
       y2="59"
       gradientUnits="userSpaceOnUse"
       gradientTransform="matrix(1.7195124,0,0,1.4888825,-7.0243915,0.40027612)" />
    <linearGradient
       inkscape:collect="always"
       xlink:href="#linearGradient4867"
       id="linearGradient4229"
       x1="32"
       y1="15"
       x2="32"
       y2="18"
       gradientUnits="userSpaceOnUse"
       gradientTransform="matrix(1.7689172,0,0,1.5116278,-8.6053548,-0.41860538)" />
    <linearGradient
       y2="9"
       x2="22"
       y1="11"
       x1="22"
       gradientTransform="matrix(1.7272626,0,0,1.5,6.5456925,3.4999999)"
       gradientUnits="userSpaceOnUse"
       id="linearGradient4262-7-1"
       xlink:href="#linearGradient4306"
       inkscape:collect="always" />
    <linearGradient
       id="linearGradient4303"
       inkscape:collect="always">
      <stop
         id="stop4305"
         offset="0"
         style="stop-color:#000000;stop-opacity:0.404" />
      <stop
         style="stop-color:#000000;stop-opacity:0.05882353"
         offset="0.74412525"
         id="stop4311" />
      <stop
         id="stop4307"
         offset="1"
         style="stop-color:#000000;stop-opacity:0;" />
    </linearGradient>
    <radialGradient
       gradientUnits="userSpaceOnUse"
       gradientTransform="matrix(1.4642804,0,0,0.09677397,2.6073072,82.409679)"
       r="31"
       fy="52.599998"
       fx="31"
       cy="52.599998"
       cx="31"
       id="radialGradient4309-8"
       xlink:href="#linearGradient4303"
       inkscape:collect="always" />
    <linearGradient
       id="linearGradient5048">
      <stop
         id="stop5050"
         style="stop-color:#000000;stop-opacity:0"
         offset="0" />
      <stop
         id="stop5056"
         style="stop-color:#000000;stop-opacity:1"
         offset="0.5" />
      <stop
         id="stop5052"
         style="stop-color:#000000;stop-opacity:0"
         offset="1" />
    </linearGradient>
    <linearGradient
       id="linearGradient3977-7">
      <stop
         offset="0"
         style="stop-color:#ffffff;stop-opacity:1;"
         id="stop3979-3" />
      <stop
         id="stop3981-7"
         style="stop-color:#ffffff;stop-opacity:0.23529412;"
         offset="0.04878049" />
      <stop
         offset="0.95056331"
         style="stop-color:#ffffff;stop-opacity:0"
         id="stop3983-3" />
      <stop
         offset="1"
         style="stop-color:#000000;stop-opacity:0.04313726"
         id="stop3985-6" />
    </linearGradient>
    <linearGradient
       id="linearGradient3927-4">
      <stop
         id="stop3929-8"
         offset="0"
         style="stop-color:#fbfcfd;stop-opacity:1" />
      <stop
         id="stop3931-1"
         offset="1"
         style="stop-color:#ebeced;stop-opacity:1" />
    </linearGradient>
    <linearGradient
       inkscape:collect="always"
       xlink:href="#linearGradient3927-4"
       id="linearGradient4492"
       gradientUnits="userSpaceOnUse"
       gradientTransform="matrix(0.97142633,0,0,0.93431934,0.68576677,-1.3569992)"
       x1="25.029415"
       y1="2.5226912"
       x2="25.029415"
       y2="48.545498" />
    <linearGradient
       inkscape:collect="always"
       xlink:href="#linearGradient3977-7"
       id="linearGradient4494"
       gradientUnits="userSpaceOnUse"
       gradientTransform="matrix(0.89189189,0,0,1.1351351,2.5945999,-4.7432315)"
       x1="23.999994"
       y1="5.9404659"
       x2="23.999994"
       y2="42.059513" />
    <linearGradient
       inkscape:collect="always"
       xlink:href="#linearGradient3927-4"
       id="linearGradient4522"
       gradientUnits="userSpaceOnUse"
       gradientTransform="matrix(0.97142633,0,0,0.93431934,0.68576677,-1.3569992)"
       x1="25.029415"
       y1="2.5226912"
       x2="25.029415"
       y2="48.545498" />
    <linearGradient
       inkscape:collect="always"
       xlink:href="#linearGradient3977-7"
       id="linearGradient4524"
       gradientUnits="userSpaceOnUse"
       gradientTransform="matrix(0.89189189,0,0,1.1351351,2.5945999,-4.7432315)"
       x1="23.999994"
       y1="5.9404659"
       x2="23.999994"
       y2="42.059513" />
    <linearGradient
       inkscape:collect="always"
       xlink:href="#linearGradient3927-4"
       id="linearGradient4552"
       gradientUnits="userSpaceOnUse"
       gradientTransform="matrix(0.97142633,0,0,0.93431934,0.68576677,-1.3569992)"
       x1="25.029415"
       y1="2.5226912"
       x2="25.029415"
       y2="48.545498" />
    <linearGradient
       inkscape:collect="always"
       xlink:href="#linearGradient3977-7"
       id="linearGradient4554"
       gradientUnits="userSpaceOnUse"
       gradientTransform="matrix(0.89189189,0,0,1.1351351,2.5945999,-4.7432315)"
       x1="23.999994"
       y1="5.9404659"
       x2="23.999994"
       y2="42.059513" />
  </defs>
  <ellipse
     cx="48"
     cy="87.5"
     rx="34.5"
     ry="3"
     style="display:inline;opacity:1;fill:url(#radialGradient4309-8);fill-opacity:1;stroke:none;stroke-width:1.20000005;stroke-linecap:butt;stroke-linejoin:miter;stroke-miterlimit:4;stroke-dasharray:none;stroke-dashoffset:0;stroke-opacity:1"
     id="path4293-4" />
  <path
     style="opacity:1;fill:#454547;fill-opacity:1;stroke:#0d0d0d;stroke-width:1;stroke-linecap:butt;stroke-linejoin:miter;stroke-miterlimit:4;stroke-dasharray:none;stroke-dashoffset:0;stroke-opacity:1"
     d="m 18,8.4999628 60,0 c 1.662,0 2.437049,1.4096557 3,2.9444612 l 2.7,7.361152 c 0.562951,1.534805 -1.338,2.944461 -3,2.944461 l -65.4,0 c -1.662,0 -3.562952,-1.409656 -3,-2.944461 L 15,11.444424 c 0.562951,-1.5348056 1.338,-2.9444612 3,-2.9444612 z"
     id="rect4290"
     inkscape:connector-curvature="0"
     sodipodi:nodetypes="sssssssss" />
  <path
     style="opacity:0.3;fill:#000000;fill-opacity:1;stroke:none;stroke-width:0.99999994;stroke-linecap:butt;stroke-linejoin:miter;stroke-miterlimit:4;stroke-dasharray:none;stroke-dashoffset:0;stroke-opacity:1"
     d="m 78,9 -9.45,64.562907 c -0.235566,1.609398 -1.338,2.934678 -3,2.934678 l -35.1,0 c -1.662,0 -2.764434,-1.32528 -3,-2.934678 L 18,9 Z"
     id="rect4203-7"
     inkscape:connector-curvature="0"
     sodipodi:nodetypes="csssscc" />
  <path
     style="opacity:0.15;fill:none;fill-opacity:1;stroke:#ffffff;stroke-width:1;stroke-linecap:butt;stroke-linejoin:miter;stroke-miterlimit:4;stroke-dasharray:none;stroke-dashoffset:0;stroke-opacity:1"
     d="m 18.716792,9.5000375 58.566374,0 c 1.681127,0 2.465095,1.4628055 3.034525,3.0554765 l 2.731075,7.638693 c 0.56943,1.592671 -1.353399,3.055477 -3.034528,3.055477 l -64.028522,0 c -1.681127,0 -3.603955,-1.462806 -3.034527,-3.055477 l 2.731076,-7.638693 c 0.56943,-1.592671 1.353399,-3.0554766 3.034527,-3.0554766 z"
     id="rect4290-4"
     inkscape:connector-curvature="0"
     sodipodi:nodetypes="sssssssss" />
  <g
     inkscape:label="Layer 1"
     id="layer1-71"
     transform="matrix(0.78270749,0.62238974,-0.62238974,0.78270749,51.569814,-2.9819914)">
    <g
       transform="translate(0,0.9999991)"
       id="layer1-7-4-6"
       inkscape:label="Layer 1">
      <path
         inkscape:connector-curvature="0"
         style="display:inline;fill:url(#linearGradient4492);fill-opacity:1;stroke:none;stroke-width:0.99992186;stroke-linecap:butt;stroke-linejoin:round;stroke-miterlimit:4;stroke-dasharray:none;stroke-dashoffset:0;stroke-opacity:0.42452829"
         id="path4160-6-1"
         d="m 7,1.0000004 c 7.791126,0 33.99996,0.00274 33.99996,0.00274 L 41,44 C 41,44 18.333333,44 7,44 7,29.666665 7,15.333332 7,1 Z"
         sodipodi:nodetypes="ccccc" />
      <path
         style="fill:none;stroke:url(#linearGradient4494);stroke-width:1;stroke-linecap:round;stroke-linejoin:round;stroke-miterlimit:4;stroke-dasharray:none;stroke-dashoffset:0;stroke-opacity:1"
         d="m 40.5,43.5 -33,0 0,-41.9999999 33,0 z"
         id="rect6741-1-2-4"
         inkscape:connector-curvature="0"
         sodipodi:nodetypes="ccccc" />
      <path
         inkscape:connector-curvature="0"
         style="display:inline;fill:none;fill-opacity:1;stroke:#000000;stroke-width:0.99992186;stroke-linecap:butt;stroke-linejoin:round;stroke-miterlimit:4;stroke-dasharray:none;stroke-dashoffset:0;stroke-opacity:0.35294118"
         id="path4160-3-1"
         d="m 6.4999609,0.49996093 c 8.0202951,0 35.0000391,0.0028 35.0000391,0.0028 l 4.2e-5,44.00280307 c 0,0 -23.333387,0 -35.0000811,0 0,-14.668535 0,-29.33707 0,-44.00560407 z"
         sodipodi:nodetypes="ccccc" />
    </g>
    <path
       sodipodi:nodetypes="cccccccccccccccccccccccccccccccccccccccccccccccccccccccccccccccccccccccccccccccccccccccccccccccccccccccccccccccccccccccccccccccccccccccccccccccccccccccccccccccccccccccccccccccccccccccccccccccccccccccccccccccccccccccccccccccccccccccccccccccccccccccccccccccccccccccccccccccccccccccccccccccccccccccccccccccccccccccc"
       d="m 11,9.4999993 2.34375,0 z m 2.6875,0 2.1875,0 z m 2.53125,0 1.9375,0 z m 2.25,0 0.84375,0 z m 1.1875,0 1.875,0 z m 2.25,0 4.9375,0 z m 5.25,0 3.78125,0 z m 4.09375,0 1.15625,0 z M 11,11.5 l 3.65625,0 z m 4.0625,0 1.75,0 z m 2.0625,0 0.875,0 z m 1.21875,0 1.59375,0 z m 1.9375,0 1.625,0 z m 1.9375,0 2.59375,0 z m 2.9375,0 3.375,0 z m 3.6875,0 2.25,0 z m 2.5625,0 0.5625,0 z M 11,13.484375 l 3.09375,0 z m 3.40625,0 5.0625,0 z m 5.375,0 2.46875,0 z m 2.78125,0 2.3125,0 z m 2.625,0 1.96875,0 z m 2.28125,0 3.09375,0.03125 z m 3.375,0.03125 5.03125,0 z M 11,15.5 l 4.28125,0 z m 4.625,0 4.625,0 z m 4.9375,0 1.84375,0 z m 2.15625,0 4.34375,0 z m 4.625,0 2.96875,0 z m 3.3125,0 1.1875,0 z m 1.5,0 0.65625,0 z m 1,0 L 35,15.5 Z M 11,17.5 l 1.59375,0 z m 2.09375,0 L 19,17.5 Z M 11,21.484375 l 3.09375,0 z m 3.40625,0 5.0625,0 z m 5.375,0 2.46875,0 z m 2.78125,0 2.3125,0 z m 2.625,0 1.96875,0 z m 2.28125,0 3.09375,0.03125 z m 3.375,0.03125 5.03125,0 z M 11,23.5 l 2.34375,0 z m 2.6875,0 2.15625,0 z m 2.53125,0 1.9375,0 z m 2.25,0 0.84375,0 z m 1.1875,0 1.875,0 z m 2.25,0 4.90625,0 z m 5.25,0 3.75,0 z m 4.0625,0 1.1875,0 z m 1.5,0 2.8125,0 z M 11,25.5 l 3.9375,0 z m 4.25,0 4.21875,0 z m 4.53125,0 1.625,0 z m 1.9375,0 3.96875,0 z m 4.28125,0 5,0 z m 5.34375,0 1.84375,0 z M 11,27.5 l 4.28125,0 z m 4.625,0 4.625,0 z m 4.9375,0 1.84375,0 z m 2.15625,0 4.34375,0 z m 4.625,0 2.96875,0 z m 3.3125,0 1.1875,0 z m 1.5,0 0.65625,0 z m 1,0 L 35,27.5 Z M 11,29.5 l 3.65625,0 z m 4.0625,0 1.75,0 z m 2.0625,0 0.875,0 z m 1.21875,0 1.59375,0 z m 1.9375,0 1.625,0 z m 1.9375,0 2.59375,0 z m 2.9375,0 3.375,0 z m 3.6875,0 2.25,0 z m 2.5625,0 0.5625,0 z M 11,33.484375 l 3.09375,0 z m 3.40625,0 5.0625,0 z m 5.375,0 2.46875,0 z m 2.78125,0 2.3125,0 z m 2.625,0 1.96875,0 z m 2.28125,0 3.09375,0.03125 z m 3.375,0.03125 5.03125,0 z M 11,35.5 l 3.65625,0 z m 4.0625,0 1.75,0 z m 2.0625,0 0.875,0 z m 1.21875,0 1.59375,0 z m 1.9375,0 1.625,0 z m 1.9375,0 2.59375,0 z m 2.9375,0 3.375,0 z m 3.6875,0 2.25,0 z m 2.5625,0 0.5625,0 z M 11,37.5 l 3.875,0 z m 4.21875,0 1.21875,0 z m 1.53125,0 2.78125,0 z m 3.09375,0 4.09375,0 z m 4.4375,0 2.78125,0 z m 3.0625,0 0.59375,0 z m 0.90625,0 3.53125,0 z m 3.90625,0 L 34,37.5 Z M 11,39.5 l 3.875,0 z m 4.21875,0 1.75,0 z m 2.0625,0 2.75,0 z m 3.0625,0 2.96875,0 z m 3.3125,0 1.1875,0 z m 1.5,0 0.65625,0 z m 1,0 1.84375,0 z"
       id="path3475-3"
       style="fill:#000000;fill-opacity:1;stroke:#000000;stroke-width:1px;stroke-linecap:butt;stroke-linejoin:miter;stroke-opacity:0.39215686"
       inkscape:connector-curvature="0" />
  </g>
  <g
     inkscape:label="Layer 1"
     id="layer1-3"
     transform="matrix(0.96754761,-0.2526888,0.2526888,0.96754761,7.2560957,15.154556)">
    <g
       transform="translate(0,0.9999991)"
       id="layer1-7-4-3"
       inkscape:label="Layer 1">
      <path
         inkscape:connector-curvature="0"
         style="display:inline;fill:url(#linearGradient4552);fill-opacity:1;stroke:none;stroke-width:0.99992186;stroke-linecap:butt;stroke-linejoin:round;stroke-miterlimit:4;stroke-dasharray:none;stroke-dashoffset:0;stroke-opacity:0.42452829"
         id="path4160-6-7"
         d="m 7,1.0000004 c 7.791126,0 33.99996,0.00274 33.99996,0.00274 L 41,44 C 41,44 18.333333,44 7,44 7,29.666665 7,15.333332 7,1 Z"
         sodipodi:nodetypes="ccccc" />
      <path
         style="fill:none;stroke:url(#linearGradient4554);stroke-width:1;stroke-linecap:round;stroke-linejoin:round;stroke-miterlimit:4;stroke-dasharray:none;stroke-dashoffset:0;stroke-opacity:1"
         d="m 40.5,43.5 -33,0 0,-41.9999999 33,0 z"
         id="rect6741-1-2-7"
         inkscape:connector-curvature="0"
         sodipodi:nodetypes="ccccc" />
      <path
         inkscape:connector-curvature="0"
         style="display:inline;fill:none;fill-opacity:1;stroke:#000000;stroke-width:0.99992186;stroke-linecap:butt;stroke-linejoin:round;stroke-miterlimit:4;stroke-dasharray:none;stroke-dashoffset:0;stroke-opacity:0.35294118"
         id="path4160-3-8"
         d="m 6.4999609,0.49996093 c 8.0202951,0 35.0000391,0.0028 35.0000391,0.0028 l 4.2e-5,44.00280307 c 0,0 -23.333387,0 -35.0000811,0 0,-14.668535 0,-29.33707 0,-44.00560407 z"
         sodipodi:nodetypes="ccccc" />
    </g>
    <path
       sodipodi:nodetypes="cccccccccccccccccccccccccccccccccccccccccccccccccccccccccccccccccccccccccccccccccccccccccccccccccccccccccccccccccccccccccccccccccccccccccccccccccccccccccccccccccccccccccccccccccccccccccccccccccccccccccccccccccccccccccccccccccccccccccccccccccccccccccccccccccccccccccccccccccccccccccccccccccccccccccccccccccccccccc"
       d="m 11,9.4999993 2.34375,0 z m 2.6875,0 2.1875,0 z m 2.53125,0 1.9375,0 z m 2.25,0 0.84375,0 z m 1.1875,0 1.875,0 z m 2.25,0 4.9375,0 z m 5.25,0 3.78125,0 z m 4.09375,0 1.15625,0 z M 11,11.5 l 3.65625,0 z m 4.0625,0 1.75,0 z m 2.0625,0 0.875,0 z m 1.21875,0 1.59375,0 z m 1.9375,0 1.625,0 z m 1.9375,0 2.59375,0 z m 2.9375,0 3.375,0 z m 3.6875,0 2.25,0 z m 2.5625,0 0.5625,0 z M 11,13.484375 l 3.09375,0 z m 3.40625,0 5.0625,0 z m 5.375,0 2.46875,0 z m 2.78125,0 2.3125,0 z m 2.625,0 1.96875,0 z m 2.28125,0 3.09375,0.03125 z m 3.375,0.03125 5.03125,0 z M 11,15.5 l 4.28125,0 z m 4.625,0 4.625,0 z m 4.9375,0 1.84375,0 z m 2.15625,0 4.34375,0 z m 4.625,0 2.96875,0 z m 3.3125,0 1.1875,0 z m 1.5,0 0.65625,0 z m 1,0 L 35,15.5 Z M 11,17.5 l 1.59375,0 z m 2.09375,0 L 19,17.5 Z M 11,21.484375 l 3.09375,0 z m 3.40625,0 5.0625,0 z m 5.375,0 2.46875,0 z m 2.78125,0 2.3125,0 z m 2.625,0 1.96875,0 z m 2.28125,0 3.09375,0.03125 z m 3.375,0.03125 5.03125,0 z M 11,23.5 l 2.34375,0 z m 2.6875,0 2.15625,0 z m 2.53125,0 1.9375,0 z m 2.25,0 0.84375,0 z m 1.1875,0 1.875,0 z m 2.25,0 4.90625,0 z m 5.25,0 3.75,0 z m 4.0625,0 1.1875,0 z m 1.5,0 2.8125,0 z M 11,25.5 l 3.9375,0 z m 4.25,0 4.21875,0 z m 4.53125,0 1.625,0 z m 1.9375,0 3.96875,0 z m 4.28125,0 5,0 z m 5.34375,0 1.84375,0 z M 11,27.5 l 4.28125,0 z m 4.625,0 4.625,0 z m 4.9375,0 1.84375,0 z m 2.15625,0 4.34375,0 z m 4.625,0 2.96875,0 z m 3.3125,0 1.1875,0 z m 1.5,0 0.65625,0 z m 1,0 L 35,27.5 Z M 11,29.5 l 3.65625,0 z m 4.0625,0 1.75,0 z m 2.0625,0 0.875,0 z m 1.21875,0 1.59375,0 z m 1.9375,0 1.625,0 z m 1.9375,0 2.59375,0 z m 2.9375,0 3.375,0 z m 3.6875,0 2.25,0 z m 2.5625,0 0.5625,0 z M 11,33.484375 l 3.09375,0 z m 3.40625,0 5.0625,0 z m 5.375,0 2.46875,0 z m 2.78125,0 2.3125,0 z m 2.625,0 1.96875,0 z m 2.28125,0 3.09375,0.03125 z m 3.375,0.03125 5.03125,0 z M 11,35.5 l 3.65625,0 z m 4.0625,0 1.75,0 z m 2.0625,0 0.875,0 z m 1.21875,0 1.59375,0 z m 1.9375,0 1.625,0 z m 1.9375,0 2.59375,0 z m 2.9375,0 3.375,0 z m 3.6875,0 2.25,0 z m 2.5625,0 0.5625,0 z M 11,37.5 l 3.875,0 z m 4.21875,0 1.21875,0 z m 1.53125,0 2.78125,0 z m 3.09375,0 4.09375,0 z m 4.4375,0 2.78125,0 z m 3.0625,0 0.59375,0 z m 0.90625,0 3.53125,0 z m 3.90625,0 L 34,37.5 Z M 11,39.5 l 3.875,0 z m 4.21875,0 1.75,0 z m 2.0625,0 2.75,0 z m 3.0625,0 2.96875,0 z m 3.3125,0 1.1875,0 z m 1.5,0 0.65625,0 z m 1,0 1.84375,0 z"
       id="path3475-36"
       style="fill:#000000;fill-opacity:1;stroke:#000000;stroke-width:1px;stroke-linecap:butt;stroke-linejoin:miter;stroke-opacity:0.39215686"
       inkscape:connector-curvature="0" />
  </g>
  <g
     inkscape:label="Layer 1"
     id="layer1-0"
     transform="matrix(0.97735053,0.2116269,-0.2116269,0.97735053,30.307753,4.1339801)">
    <g
       transform="translate(0,0.9999991)"
       id="layer1-7-4-7"
       inkscape:label="Layer 1">
      <path
         inkscape:connector-curvature="0"
         style="display:inline;fill:url(#linearGradient4522);fill-opacity:1;stroke:none;stroke-width:0.99992186;stroke-linecap:butt;stroke-linejoin:round;stroke-miterlimit:4;stroke-dasharray:none;stroke-dashoffset:0;stroke-opacity:0.42452829"
         id="path4160-6-2"
         d="m 7,1.0000004 c 7.791126,0 33.99996,0.00274 33.99996,0.00274 L 41,44 C 41,44 18.333333,44 7,44 7,29.666665 7,15.333332 7,1 Z"
         sodipodi:nodetypes="ccccc" />
      <path
         style="fill:none;stroke:url(#linearGradient4524);stroke-width:1;stroke-linecap:round;stroke-linejoin:round;stroke-miterlimit:4;stroke-dasharray:none;stroke-dashoffset:0;stroke-opacity:1"
         d="m 40.5,43.5 -33,0 0,-41.9999999 33,0 z"
         id="rect6741-1-2-9"
         inkscape:connector-curvature="0"
         sodipodi:nodetypes="ccccc" />
      <path
         inkscape:connector-curvature="0"
         style="display:inline;fill:none;fill-opacity:1;stroke:#000000;stroke-width:0.99992186;stroke-linecap:butt;stroke-linejoin:round;stroke-miterlimit:4;stroke-dasharray:none;stroke-dashoffset:0;stroke-opacity:0.35294118"
         id="path4160-3-6"
         d="m 6.4999609,0.49996093 c 8.0202951,0 35.0000391,0.0028 35.0000391,0.0028 l 4.2e-5,44.00280307 c 0,0 -23.333387,0 -35.0000811,0 0,-14.668535 0,-29.33707 0,-44.00560407 z"
         sodipodi:nodetypes="ccccc" />
    </g>
    <path
       sodipodi:nodetypes="cccccccccccccccccccccccccccccccccccccccccccccccccccccccccccccccccccccccccccccccccccccccccccccccccccccccccccccccccccccccccccccccccccccccccccccccccccccccccccccccccccccccccccccccccccccccccccccccccccccccccccccccccccccccccccccccccccccccccccccccccccccccccccccccccccccccccccccccccccccccccccccccccccccccccccccccccccccccc"
       d="m 11,9.4999993 2.34375,0 z m 2.6875,0 2.1875,0 z m 2.53125,0 1.9375,0 z m 2.25,0 0.84375,0 z m 1.1875,0 1.875,0 z m 2.25,0 4.9375,0 z m 5.25,0 3.78125,0 z m 4.09375,0 1.15625,0 z M 11,11.5 l 3.65625,0 z m 4.0625,0 1.75,0 z m 2.0625,0 0.875,0 z m 1.21875,0 1.59375,0 z m 1.9375,0 1.625,0 z m 1.9375,0 2.59375,0 z m 2.9375,0 3.375,0 z m 3.6875,0 2.25,0 z m 2.5625,0 0.5625,0 z M 11,13.484375 l 3.09375,0 z m 3.40625,0 5.0625,0 z m 5.375,0 2.46875,0 z m 2.78125,0 2.3125,0 z m 2.625,0 1.96875,0 z m 2.28125,0 3.09375,0.03125 z m 3.375,0.03125 5.03125,0 z M 11,15.5 l 4.28125,0 z m 4.625,0 4.625,0 z m 4.9375,0 1.84375,0 z m 2.15625,0 4.34375,0 z m 4.625,0 2.96875,0 z m 3.3125,0 1.1875,0 z m 1.5,0 0.65625,0 z m 1,0 L 35,15.5 Z M 11,17.5 l 1.59375,0 z m 2.09375,0 L 19,17.5 Z M 11,21.484375 l 3.09375,0 z m 3.40625,0 5.0625,0 z m 5.375,0 2.46875,0 z m 2.78125,0 2.3125,0 z m 2.625,0 1.96875,0 z m 2.28125,0 3.09375,0.03125 z m 3.375,0.03125 5.03125,0 z M 11,23.5 l 2.34375,0 z m 2.6875,0 2.15625,0 z m 2.53125,0 1.9375,0 z m 2.25,0 0.84375,0 z m 1.1875,0 1.875,0 z m 2.25,0 4.90625,0 z m 5.25,0 3.75,0 z m 4.0625,0 1.1875,0 z m 1.5,0 2.8125,0 z M 11,25.5 l 3.9375,0 z m 4.25,0 4.21875,0 z m 4.53125,0 1.625,0 z m 1.9375,0 3.96875,0 z m 4.28125,0 5,0 z m 5.34375,0 1.84375,0 z M 11,27.5 l 4.28125,0 z m 4.625,0 4.625,0 z m 4.9375,0 1.84375,0 z m 2.15625,0 4.34375,0 z m 4.625,0 2.96875,0 z m 3.3125,0 1.1875,0 z m 1.5,0 0.65625,0 z m 1,0 L 35,27.5 Z M 11,29.5 l 3.65625,0 z m 4.0625,0 1.75,0 z m 2.0625,0 0.875,0 z m 1.21875,0 1.59375,0 z m 1.9375,0 1.625,0 z m 1.9375,0 2.59375,0 z m 2.9375,0 3.375,0 z m 3.6875,0 2.25,0 z m 2.5625,0 0.5625,0 z M 11,33.484375 l 3.09375,0 z m 3.40625,0 5.0625,0 z m 5.375,0 2.46875,0 z m 2.78125,0 2.3125,0 z m 2.625,0 1.96875,0 z m 2.28125,0 3.09375,0.03125 z m 3.375,0.03125 5.03125,0 z M 11,35.5 l 3.65625,0 z m 4.0625,0 1.75,0 z m 2.0625,0 0.875,0 z m 1.21875,0 1.59375,0 z m 1.9375,0 1.625,0 z m 1.9375,0 2.59375,0 z m 2.9375,0 3.375,0 z m 3.6875,0 2.25,0 z m 2.5625,0 0.5625,0 z M 11,37.5 l 3.875,0 z m 4.21875,0 1.21875,0 z m 1.53125,0 2.78125,0 z m 3.09375,0 4.09375,0 z m 4.4375,0 2.78125,0 z m 3.0625,0 0.59375,0 z m 0.90625,0 3.53125,0 z m 3.90625,0 L 34,37.5 Z M 11,39.5 l 3.875,0 z m 4.21875,0 1.75,0 z m 2.0625,0 2.75,0 z m 3.0625,0 2.96875,0 z m 3.3125,0 1.1875,0 z m 1.5,0 0.65625,0 z m 1,0 1.84375,0 z"
       id="path3475-9"
       style="fill:#000000;fill-opacity:1;stroke:#000000;stroke-width:1px;stroke-linecap:butt;stroke-linejoin:miter;stroke-opacity:0.39215686"
       inkscape:connector-curvature="0" />
  </g>
  <path
     style="opacity:1;fill:url(#linearGradient4213);fill-opacity:1;stroke:#0d0d0d;stroke-width:0.99999994;stroke-linecap:butt;stroke-linejoin:miter;stroke-miterlimit:4;stroke-dasharray:none;stroke-dashoffset:0;stroke-opacity:1"
     d="m 83.7,20.500189 -6.45,64.086684 c -0.161691,1.606551 -1.338,2.913032 -3,2.913032 l -52.5,0 c -1.662,0 -2.838309,-1.306481 -3,-2.913032 L 12.3,20.500189 Z"
     id="rect4203"
     inkscape:connector-curvature="0"
     sodipodi:nodetypes="csssscc" />
  <path
     style="opacity:0.25;fill:none;fill-opacity:1;stroke:url(#linearGradient4229);stroke-width:0.99999988;stroke-linecap:butt;stroke-linejoin:miter;stroke-miterlimit:4;stroke-dasharray:none;stroke-dashoffset:0;stroke-opacity:1"
     d="m 15.039173,21.499999 65.921646,0 c 0.849316,0 1.613605,0.66234 1.533061,1.477273 l -6.132246,62.045452 c -0.08055,0.814933 -0.683745,1.477274 -1.533061,1.477274 l -53.657155,0 c -0.849316,0 -1.452517,-0.662341 -1.53306,-1.477274 L 13.506111,22.977272 C 13.425563,22.162339 14.189857,21.5 15.039173,21.5 Z"
     id="rect4205"
     inkscape:connector-curvature="0"
     sodipodi:nodetypes="sssssssss" />
  <rect
     ry="0"
     y="17"
     x="13.45475"
     height="3"
     width="69.0905"
     id="rect3827-5-3-3"
     style="display:inline;opacity:0.25;fill:url(#linearGradient4262-7-1);fill-opacity:1;stroke:none;stroke-width:0;stroke-linecap:butt;stroke-linejoin:miter;stroke-miterlimit:4;stroke-dasharray:none;stroke-dashoffset:0;stroke-opacity:1" />
  <path
     sodipodi:nodetypes="csccsccccccccsccccccsccccccccsccccccccccsccccccccscscccc"
     inkscape:connector-curvature="0"
     id="path4226-1-8-9"
     d="m 35.717355,61.46209 c -0.38385,0.6894 -0.689385,1.726665 -0.689385,2.38026 0,0.151725 0,0.344715 0.03765,0.612435 L 30.267975,56.20375 c -0.15357,-0.26772 -0.267945,-0.65181 -0.267945,-0.99786 0,-0.3465 0.11445,-0.767715 0.267945,-1.0359 L 32.57121,50.14009 30.00003,48.6829 38.367,48.52801 42.43449,55.8577 39.82572,54.36115 Z M 39.4026,37.30556 c 0.728595,-1.267799 1.919385,-1.958571 3.37656,-1.958571 1.574655,0 2.80308,0.730139 3.685185,2.22491 l 1.305165,2.187319 -4.52976,8.731202 -7.32969,-5.160621 z M 39.93843,68.101 c -2.187315,0 -3.99078,-1.803675 -3.99078,-3.990945 0,-0.61422 0.26949,-1.651425 0.653355,-2.303235 l 1.226835,-2.187315 9.097095,0 0,8.481555 -6.986505,0 z m 7.293705,-31.02734 c -0.575085,-0.996532 -1.342815,-1.689081 -2.2641,-2.073173 l 9.44022,0 c 0.8445,0 1.49631,0.346503 1.88178,0.999627 l 2.340885,3.990946 2.532225,-1.497923 -4.069335,7.293413 -8.32623,-0.1173 2.571195,-1.457175 z M 61.77891,59.696455 c 1.150035,0 2.11053,-0.30708 2.91591,-0.91998 l -4.760055,8.28858 c -0.383865,0.651795 -1.073715,1.06278 -1.87887,1.0359 l -4.492155,0 0,2.955045 -4.29786,-7.17612 4.29786,-7.17795 0,2.994465 8.21517,0 z m 3.68208,-6.9084 c 0.346275,0.61422 0.53898,1.266015 0.53898,1.957185 0,1.38195 -0.883695,2.840445 -2.11053,3.529905 -0.57657,0.30891 -1.38495,0.548865 -2.187315,0.50139 l -2.53515,0 -4.52682,-7.83108 7.3299,-4.18347 z"
     style="opacity:0.6;fill:#000000;fill-opacity:1" />
  <path
     sodipodi:nodetypes="csccsccccccccsccccccsccccccccsccccccccccsccccccccscscccc"
     inkscape:connector-curvature="0"
     id="path4226-1-8"
     d="m 35.717355,62.461604 c -0.38385,0.6894 -0.689385,1.726665 -0.689385,2.38026 0,0.151725 0,0.344715 0.03765,0.612435 l -4.797645,-8.251035 c -0.15357,-0.26772 -0.267945,-0.65181 -0.267945,-0.99786 0,-0.3465 0.11445,-0.767715 0.267945,-1.0359 l 2.303235,-4.0299 -2.57118,-1.45719 8.36697,-0.15489 4.06749,7.32969 -2.60877,-1.49655 z M 39.4026,38.305074 c 0.728595,-1.2678 1.919385,-1.958571 3.37656,-1.958571 1.574655,0 2.80308,0.730138 3.685185,2.224909 l 1.305165,2.18732 -4.52976,8.731201 -7.32969,-5.160621 z m 0.53583,30.79544 c -2.187315,0 -3.99078,-1.803675 -3.99078,-3.990946 0,-0.614219 0.26949,-1.651424 0.653355,-2.303235 l 1.226835,-2.187315 9.097095,0 0,8.481555 -6.986505,0 z m 7.293705,-31.02734 C 46.65705,37.076641 45.88932,36.384093 44.968035,36 l 9.44022,0 c 0.8445,0 1.49631,0.346503 1.88178,0.999627 l 2.340885,3.990946 2.532225,-1.497922 -4.069335,7.293412 -8.32623,-0.1173 2.571195,-1.457175 z M 61.77891,60.695969 c 1.150035,0 2.11053,-0.307081 2.91591,-0.919981 l -4.760055,8.288581 c -0.383865,0.651794 -1.073715,1.062779 -1.87887,1.0359 l -4.492155,0 0,2.955045 -4.29786,-7.17612 4.29786,-7.17795 0,2.994465 8.21517,0 z m 3.68208,-6.908401 c 0.346275,0.614221 0.53898,1.266015 0.53898,1.957185 0,1.38195 -0.883695,2.840445 -2.11053,3.529905 -0.57657,0.30891 -1.38495,0.548865 -2.187315,0.501391 l -2.53515,0 -4.52682,-7.83108 7.3299,-4.18347 z"
     style="fill:#ffffff;fill-opacity:0.78431373" />
</svg>
