<?xml version="1.0" encoding="UTF-8" standalone="no"?>
<!-- Created with Inkscape (http://www.inkscape.org/) -->

<svg
   xmlns:osb="http://www.openswatchbook.org/uri/2009/osb"
   xmlns:dc="http://purl.org/dc/elements/1.1/"
   xmlns:cc="http://creativecommons.org/ns#"
   xmlns:rdf="http://www.w3.org/1999/02/22-rdf-syntax-ns#"
   xmlns:svg="http://www.w3.org/2000/svg"
   xmlns="http://www.w3.org/2000/svg"
   xmlns:xlink="http://www.w3.org/1999/xlink"
   xmlns:sodipodi="http://sodipodi.sourceforge.net/DTD/sodipodi-0.dtd"
   xmlns:inkscape="http://www.inkscape.org/namespaces/inkscape"
   version="1.0"
   width="96"
   height="96"
   id="svg3695"
   inkscape:version="0.91 r13725"
   sodipodi:docname="user-trash-full.svg">
  <metadata
     id="metadata11265">
    <rdf:RDF>
      <cc:Work
         rdf:about="">
        <dc:format>image/svg+xml</dc:format>
        <dc:type
           rdf:resource="http://purl.org/dc/dcmitype/StillImage" />
        <dc:title></dc:title>
      </cc:Work>
    </rdf:RDF>
  </metadata>
  <sodipodi:namedview
     pagecolor="#ffffff"
     bordercolor="#666666"
     borderopacity="1"
     objecttolerance="10"
     gridtolerance="10"
     guidetolerance="10"
     inkscape:pageopacity="0"
     inkscape:pageshadow="2"
     inkscape:window-width="1920"
     inkscape:window-height="1030"
     id="namedview11263"
     showgrid="false"
     inkscape:snap-global="true"
     inkscape:zoom="1"
     inkscape:cx="66.410401"
     inkscape:cy="47.432491"
     inkscape:window-x="0"
     inkscape:window-y="25"
     inkscape:window-maximized="1"
     inkscape:current-layer="svg3695"
     inkscape:snap-bbox="true"
     inkscape:bbox-paths="true"
     inkscape:bbox-nodes="true"
     inkscape:snap-bbox-edge-midpoints="true">
    <inkscape:grid
       type="xygrid"
       id="grid3062"
       empspacing="5"
       visible="true"
       enabled="true"
       snapvisiblegridlinesonly="true" />
  </sodipodi:namedview>
  <defs
     id="defs3697">
    <linearGradient
       id="linearGradient6213"
       osb:paint="solid">
      <stop
         style="stop-color:#000000;stop-opacity:1;"
         offset="0"
         id="stop6215" />
    </linearGradient>
    <linearGradient
       id="linearGradient5060">
      <stop
         id="stop5062"
         style="stop-color:#000000;stop-opacity:1"
         offset="0" />
      <stop
         id="stop5064"
         style="stop-color:#000000;stop-opacity:0"
         offset="1" />
    </linearGradient>
    <linearGradient
       id="linearGradient3384">
      <stop
         id="stop3386"
         style="stop-color:#6e6e6e;stop-opacity:1"
         offset="0" />
      <stop
         id="stop3388"
         style="stop-color:#9f9fa1;stop-opacity:1"
         offset="1" />
    </linearGradient>
    <linearGradient
       id="linearGradient2793-2-0-403">
      <stop
         id="stop4645"
         style="stop-color:#8d909a;stop-opacity:1"
         offset="0" />
      <stop
         id="stop4647"
         style="stop-color:#d9d9d9;stop-opacity:1"
         offset="1" />
    </linearGradient>
    <linearGradient
       id="linearGradient3355-273">
      <stop
         id="stop4657"
         style="stop-color:#f0f0f0;stop-opacity:1"
         offset="0" />
      <stop
         id="stop3619"
         style="stop-color:#777779;stop-opacity:1"
         offset="0.44955608" />
      <stop
         id="stop4659"
         style="stop-color:#6c6c70;stop-opacity:1"
         offset="1" />
    </linearGradient>
    <linearGradient
       id="linearGradient3320">
      <stop
         id="stop3323"
         style="stop-color:#4e4e4e;stop-opacity:1"
         offset="0" />
      <stop
         id="stop3325"
         style="stop-color:#b9bac2;stop-opacity:1"
         offset="1" />
    </linearGradient>
    <linearGradient
       id="linearGradient3627">
      <stop
         id="stop3629"
         style="stop-color:#000000;stop-opacity:0"
         offset="0" />
      <stop
         id="stop3190"
         style="stop-color:#000000;stop-opacity:0"
         offset="0.5" />
      <stop
         id="stop3631"
         style="stop-color:#000000;stop-opacity:1"
         offset="1" />
    </linearGradient>
    <linearGradient
       id="linearGradient3254-8-457">
      <stop
         id="stop4669"
         style="stop-color:#ffffff;stop-opacity:1"
         offset="0" />
      <stop
         id="stop4671"
         style="stop-color:#ffffff;stop-opacity:0"
         offset="1" />
    </linearGradient>
    <linearGradient
       id="linearGradient3254-3-182">
      <stop
         id="stop4663"
         style="stop-color:#ffffff;stop-opacity:1"
         offset="0" />
      <stop
         id="stop4665"
         style="stop-color:#ffffff;stop-opacity:0"
         offset="1" />
    </linearGradient>
    <linearGradient
       inkscape:collect="always"
       xlink:href="#linearGradient3254-3-182"
       id="linearGradient3038"
       gradientUnits="userSpaceOnUse"
       gradientTransform="matrix(1.8082453,0,0,2.6932488,10.247646,-16.443535)"
       x1="12.25"
       y1="20.230709"
       x2="17.125"
       y2="34.173542" />
    <radialGradient
       inkscape:collect="always"
       xlink:href="#linearGradient3627"
       id="radialGradient3044"
       gradientUnits="userSpaceOnUse"
       gradientTransform="matrix(0,1.1833396,-6.327712,2.4807301e-7,98.249001,-23.621569)"
       spreadMethod="pad"
       cx="23.816956"
       cy="7.8258715"
       fx="23.816956"
       fy="7.8258715"
       r="14.507708" />
    <linearGradient
       inkscape:collect="always"
       xlink:href="#linearGradient3320"
       id="linearGradient3047"
       gradientUnits="userSpaceOnUse"
       spreadMethod="reflect"
       x1="9.0003471"
       y1="8"
       x2="24"
       y2="8"
       gradientTransform="matrix(2.0040205,0,0,2.0194545,0.84017057,-1.279775)" />
    <linearGradient
       inkscape:collect="always"
       xlink:href="#linearGradient3355-273"
       id="linearGradient3049"
       gradientUnits="userSpaceOnUse"
       gradientTransform="matrix(2.3396175,0,0,2.746483,-7.3946715,-3.3521384)"
       x1="23.999979"
       y1="9.3726854"
       x2="23.999979"
       y2="2.0968478" />
    <radialGradient
       inkscape:collect="always"
       xlink:href="#linearGradient3254-8-457"
       id="radialGradient3052"
       gradientUnits="userSpaceOnUse"
       gradientTransform="matrix(0,3.4039521,-3.2909507,0,98.646362,-38.735324)"
       spreadMethod="pad"
       cx="19.308081"
       cy="21.029308"
       fx="19.308081"
       fy="21.029308"
       r="14.500172" />
    <linearGradient
       inkscape:collect="always"
       xlink:href="#linearGradient2793-2-0-403"
       id="linearGradient3055"
       gradientUnits="userSpaceOnUse"
       gradientTransform="matrix(2.437274,0,0,3.0593092,-3.6509795,-31.401787)"
       spreadMethod="reflect"
       x1="11.93083"
       y1="26.410894"
       x2="21.514704"
       y2="26.410894" />
    <linearGradient
       inkscape:collect="always"
       xlink:href="#linearGradient3384"
       id="linearGradient3057"
       gradientUnits="userSpaceOnUse"
       gradientTransform="matrix(2.0170301,0,0,2.0128639,0.3416872,2.9277945)"
       x1="31.048019"
       y1="45"
       x2="31.048019"
       y2="5.5" />
    <radialGradient
       inkscape:collect="always"
       xlink:href="#linearGradient5060"
       id="radialGradient3060"
       gradientUnits="userSpaceOnUse"
       gradientTransform="matrix(0.68062789,0,0,0.31785769,5.6911801,45.488094)"
       cx="62.71241"
       cy="108.02493"
       fx="62.71241"
       fy="108.02493"
       r="47.38271" />
    <linearGradient
       inkscape:collect="always"
       xlink:href="#linearGradient3254-8-457"
       id="linearGradient5341"
       gradientUnits="userSpaceOnUse"
       gradientTransform="matrix(2.4663432,0,0,3.9603122,-8.7095791,-65.932338)"
       x1="23.5"
       y1="10.996204"
       x2="23.5"
       y2="39.850574" />
    <linearGradient
       id="linearGradient6036">
      <stop
         id="stop6038"
         style="stop-color:#ffffff;stop-opacity:1"
         offset="0" />
      <stop
         id="stop6040"
         style="stop-color:#ffffff;stop-opacity:0"
         offset="1" />
    </linearGradient>
    <linearGradient
       id="linearGradient3242">
      <stop
         id="stop3244"
         style="stop-color:#4fc5e7;stop-opacity:1"
         offset="0" />
      <stop
         id="stop3246"
         style="stop-color:#4293c8;stop-opacity:1"
         offset="0.49876043" />
      <stop
         id="stop3248"
         style="stop-color:#2c67ab;stop-opacity:1"
         offset="1" />
    </linearGradient>
    <linearGradient
       id="linearGradient2490">
      <stop
         id="stop2492"
         style="stop-color:#8fd8ff;stop-opacity:1"
         offset="0" />
      <stop
         id="stop4118"
         style="stop-color:#496984;stop-opacity:1"
         offset="0.25483045" />
      <stop
         id="stop2494"
         style="stop-color:#5987a5;stop-opacity:1"
         offset="1" />
    </linearGradient>
    <linearGradient
       inkscape:collect="always"
       xlink:href="#linearGradient3242"
       id="linearGradient3121"
       gradientUnits="userSpaceOnUse"
       gradientTransform="matrix(1,0,0,1.0152579,-19.047918,0.65288527)"
       spreadMethod="reflect"
       x1="27"
       y1="24.650604"
       x2="27"
       y2="12.711448" />
    <linearGradient
       inkscape:collect="always"
       xlink:href="#linearGradient2490"
       id="linearGradient3124"
       gradientUnits="userSpaceOnUse"
       gradientTransform="matrix(1,0,0,1.0152579,-19.047918,0.65288527)"
       spreadMethod="reflect"
       x1="20"
       y1="12.711448"
       x2="20"
       y2="23.258751" />
    <linearGradient
       inkscape:collect="always"
       xlink:href="#linearGradient6036"
       id="linearGradient3126"
       gradientUnits="userSpaceOnUse"
       gradientTransform="matrix(1.0901988,0,0,1.0185902,-21.15706,0.35400011)"
       spreadMethod="reflect"
       x1="20"
       y1="12.711448"
       x2="20"
       y2="21.276361" />
    <linearGradient
       id="linearGradient3437">
      <stop
         id="stop3439"
         style="stop-color:#3c3c3c;stop-opacity:1"
         offset="0" />
      <stop
         id="stop3441"
         style="stop-color:#5d5f6b;stop-opacity:1"
         offset="1" />
    </linearGradient>
    <linearGradient
       id="linearGradient3865">
      <stop
         id="stop3867"
         style="stop-color:#b8b4b4;stop-opacity:1"
         offset="0" />
      <stop
         id="stop3869"
         style="stop-color:#f1f1f0;stop-opacity:1"
         offset="1" />
    </linearGradient>
    <linearGradient
       id="linearGradient3104">
      <stop
         id="stop3106"
         style="stop-color:#a2a2a2;stop-opacity:1"
         offset="0" />
      <stop
         id="stop3108"
         style="stop-color:#e1e1e1;stop-opacity:1"
         offset="1" />
    </linearGradient>
    <linearGradient
       inkscape:collect="always"
       xlink:href="#linearGradient3865"
       id="linearGradient3333"
       gradientUnits="userSpaceOnUse"
       gradientTransform="matrix(1.0056053,0,0,0.92943358,14.478881,-28.001647)"
       x1="49.925751"
       y1="1.7133857"
       x2="64.672821"
       y2="1.7133857" />
    <linearGradient
       inkscape:collect="always"
       xlink:href="#linearGradient3104"
       id="linearGradient3335"
       gradientUnits="userSpaceOnUse"
       gradientTransform="matrix(0.81202307,0,0,0.86981137,74.222126,-29.037481)"
       x1="-11.285484"
       y1="16.208538"
       x2="-11.285484"
       y2="-2.087147" />
    <linearGradient
       inkscape:collect="always"
       xlink:href="#linearGradient3437"
       id="linearGradient3337"
       gradientUnits="userSpaceOnUse"
       gradientTransform="matrix(0.99259887,0,0,1.0032196,15.129555,-28.439886)"
       x1="52.672863"
       y1="5.9285936"
       x2="59.672863"
       y2="-3.6927242" />
    <linearGradient
       inkscape:collect="always"
       xlink:href="#linearGradient3865"
       id="linearGradient3948"
       gradientUnits="userSpaceOnUse"
       gradientTransform="matrix(1.0056065,0,0,0.94121435,14.478822,-27.994088)"
       x1="49.925751"
       y1="1.7133857"
       x2="64.672821"
       y2="1.7133857" />
    <linearGradient
       inkscape:collect="always"
       xlink:href="#linearGradient3104"
       id="linearGradient3950"
       gradientUnits="userSpaceOnUse"
       gradientTransform="matrix(0.81202403,0,0,0.88083641,74.222137,-29.043051)"
       x1="-11.285484"
       y1="16.208538"
       x2="-11.285484"
       y2="-2.087147" />
    <linearGradient
       inkscape:collect="always"
       xlink:href="#linearGradient3437"
       id="linearGradient3952"
       gradientUnits="userSpaceOnUse"
       gradientTransform="matrix(0.99259893,0,0,0.9849508,15.129552,-28.478572)"
       x1="52.672863"
       y1="5.9285936"
       x2="59.672863"
       y2="-3.6927242" />
    <linearGradient
       id="linearGradient3772-1">
      <stop
         offset="0"
         style="stop-color:#b4b4b4;stop-opacity:1"
         id="stop3774-7" />
      <stop
         offset="1"
         style="stop-color:#969696;stop-opacity:1"
         id="stop3776-1" />
    </linearGradient>
    <linearGradient
       gradientUnits="userSpaceOnUse"
       id="linearGradient3263-8"
       y2="14.2033"
       x2="35.391201"
       y1="32.4165"
       x1="12.2744">
      <stop
         offset="0"
         style="stop-color:#dedbde;stop-opacity:1"
         id="stop3265-7" />
      <stop
         offset="0.5"
         style="stop-color:#e6e6e6;stop-opacity:1"
         id="stop3267-3" />
      <stop
         offset="1"
         style="stop-color:#d2d2d2;stop-opacity:1"
         id="stop3269-8" />
    </linearGradient>
    <linearGradient
       id="linearGradient3519-7">
      <stop
         offset="0"
         style="stop-color:#fcd9cd;stop-opacity:1"
         id="stop3521-3" />
      <stop
         offset="1"
         style="stop-color:#fcd9cd;stop-opacity:0"
         id="stop3523-2" />
    </linearGradient>
    <linearGradient
       id="linearGradient3511-1">
      <stop
         offset="0"
         style="stop-color:#ebeec7;stop-opacity:1"
         id="stop3513-9" />
      <stop
         offset="1"
         style="stop-color:#ebeec7;stop-opacity:0"
         id="stop3515-8" />
    </linearGradient>
    <linearGradient
       id="linearGradient3503-4">
      <stop
         offset="0"
         style="stop-color:#c4ebdd;stop-opacity:1"
         id="stop3505-4" />
      <stop
         offset="1"
         style="stop-color:#c4ebdd;stop-opacity:0"
         id="stop3507-7" />
    </linearGradient>
    <linearGradient
       id="linearGradient3495-3">
      <stop
         offset="0"
         style="stop-color:#c1cbe4;stop-opacity:1"
         id="stop3497-1" />
      <stop
         offset="1"
         style="stop-color:#c1cbe4;stop-opacity:0"
         id="stop3499-0" />
    </linearGradient>
    <linearGradient
       id="linearGradient3487-5">
      <stop
         offset="0"
         style="stop-color:#e6cde2;stop-opacity:1"
         id="stop3489-6" />
      <stop
         offset="1"
         style="stop-color:#e6cde2;stop-opacity:0"
         id="stop3491-6" />
    </linearGradient>
    <linearGradient
       id="linearGradient4011-6">
      <stop
         offset="0"
         style="stop-color:#ffffff;stop-opacity:1"
         id="stop4013-1" />
      <stop
         offset="0.507761"
         style="stop-color:#ffffff;stop-opacity:0.23529412"
         id="stop4015-4" />
      <stop
         offset="0.83456558"
         style="stop-color:#ffffff;stop-opacity:0.15686275"
         id="stop4017-7" />
      <stop
         offset="1"
         style="stop-color:#ffffff;stop-opacity:0.39215687"
         id="stop4019-3" />
    </linearGradient>
    <linearGradient
       id="linearGradient6036-2">
      <stop
         offset="0"
         style="stop-color:#ffffff;stop-opacity:1"
         id="stop6038-1" />
      <stop
         offset="1"
         style="stop-color:#ffffff;stop-opacity:0"
         id="stop6040-6" />
    </linearGradient>
    <linearGradient
       id="linearGradient3428-3">
      <stop
         offset="0"
         style="stop-color:#aaaaaa;stop-opacity:1"
         id="stop3430-1" />
      <stop
         offset="1"
         style="stop-color:#d4d4d4;stop-opacity:1"
         id="stop3432-2" />
    </linearGradient>
    <linearGradient
       inkscape:collect="always"
       xlink:href="#linearGradient3263-8"
       id="linearGradient4368"
       gradientUnits="userSpaceOnUse"
       gradientTransform="matrix(0,0.53873381,-0.54526218,0,77.526083,6.4147723)"
       x1="12.2744"
       y1="32.4165"
       x2="35.391201"
       y2="14.2033" />
    <linearGradient
       inkscape:collect="always"
       xlink:href="#linearGradient3772-1"
       id="linearGradient4370"
       gradientUnits="userSpaceOnUse"
       gradientTransform="matrix(0.46546357,0,0,0.45989063,77.155954,8.3070108)"
       x1="-21.915663"
       y1="3"
       x2="-21.915663"
       y2="45.032898" />
    <linearGradient
       inkscape:collect="always"
       xlink:href="#linearGradient3487-5"
       id="linearGradient4372"
       gradientUnits="userSpaceOnUse"
       spreadMethod="reflect"
       x1="20.580074"
       y1="10.774516"
       x2="24.27351"
       y2="9.8622112" />
    <linearGradient
       inkscape:collect="always"
       xlink:href="#linearGradient3495-3"
       id="linearGradient4374"
       gradientUnits="userSpaceOnUse"
       spreadMethod="reflect"
       x1="17.494959"
       y1="11.200086"
       x2="21.047453"
       y2="9.7956104" />
    <linearGradient
       inkscape:collect="always"
       xlink:href="#linearGradient3503-4"
       id="linearGradient4376"
       gradientUnits="userSpaceOnUse"
       spreadMethod="reflect"
       x1="14.084608"
       y1="13.045606"
       x2="16.994024"
       y2="10.732353" />
    <linearGradient
       inkscape:collect="always"
       xlink:href="#linearGradient3511-1"
       id="linearGradient4378"
       gradientUnits="userSpaceOnUse"
       spreadMethod="reflect"
       x1="12.371647"
       y1="16.188046"
       x2="14.609327"
       y2="13.461712" />
    <linearGradient
       inkscape:collect="always"
       xlink:href="#linearGradient3519-7"
       id="linearGradient4380"
       gradientUnits="userSpaceOnUse"
       spreadMethod="reflect"
       x1="10.609375"
       y1="17.886322"
       x2="9.7297754"
       y2="20.612656" />
    <linearGradient
       inkscape:collect="always"
       xlink:href="#linearGradient3487-5"
       id="linearGradient4382"
       gradientUnits="userSpaceOnUse"
       spreadMethod="reflect"
       x1="20.580074"
       y1="10.774516"
       x2="24.27351"
       y2="9.8622112" />
    <linearGradient
       inkscape:collect="always"
       xlink:href="#linearGradient3495-3"
       id="linearGradient4384"
       gradientUnits="userSpaceOnUse"
       spreadMethod="reflect"
       x1="17.494959"
       y1="11.200086"
       x2="21.047453"
       y2="9.7956104" />
    <linearGradient
       inkscape:collect="always"
       xlink:href="#linearGradient3503-4"
       id="linearGradient4386"
       gradientUnits="userSpaceOnUse"
       spreadMethod="reflect"
       x1="14.084608"
       y1="13.045606"
       x2="16.994024"
       y2="10.732353" />
    <linearGradient
       inkscape:collect="always"
       xlink:href="#linearGradient3511-1"
       id="linearGradient4388"
       gradientUnits="userSpaceOnUse"
       spreadMethod="reflect"
       x1="12.371647"
       y1="16.188046"
       x2="14.609327"
       y2="13.461712" />
    <linearGradient
       inkscape:collect="always"
       xlink:href="#linearGradient3519-7"
       id="linearGradient4390"
       gradientUnits="userSpaceOnUse"
       spreadMethod="reflect"
       x1="10.609375"
       y1="17.886322"
       x2="9.7297754"
       y2="20.612656" />
    <linearGradient
       inkscape:collect="always"
       xlink:href="#linearGradient4011-6"
       id="linearGradient4392"
       gradientUnits="userSpaceOnUse"
       gradientTransform="matrix(0.45945944,0,0,0.46340735,31.975226,7.4029108)"
       x1="71.204407"
       y1="6.2375584"
       x2="71.204407"
       y2="44.340794" />
    <linearGradient
       inkscape:collect="always"
       xlink:href="#linearGradient6036-2"
       id="linearGradient4394"
       gradientUnits="userSpaceOnUse"
       gradientTransform="matrix(0.2272999,0,0,-0.2272999,59.399902,24.909181)"
       x1="18.775953"
       y1="4.0378027"
       x2="18.203465"
       y2="45.962208" />
    <linearGradient
       inkscape:collect="always"
       xlink:href="#linearGradient3428-3"
       id="linearGradient4396"
       gradientUnits="userSpaceOnUse"
       gradientTransform="matrix(0.4374999,0,0,0.4374999,54.433975,8.7266823)"
       x1="21.448364"
       y1="15.5"
       x2="21.448364"
       y2="32.509201" />
    <linearGradient
       inkscape:collect="always"
       id="linearGradient3815">
      <stop
         style="stop-color:#000000;stop-opacity:1;"
         offset="0"
         id="stop3817" />
      <stop
         style="stop-color:#000000;stop-opacity:0;"
         offset="1"
         id="stop3819" />
    </linearGradient>
    <linearGradient
       gradientTransform="matrix(1.5,0,0,1.5060976,-0.37499882,-1.5057228)"
       y2="46.218822"
       x2="34.439655"
       y1="18.596245"
       x1="34.439655"
       gradientUnits="userSpaceOnUse"
       id="linearGradient3075"
       xlink:href="#linearGradient3815"
       inkscape:collect="always" />
    <linearGradient
       inkscape:collect="always"
       id="linearGradient3825">
      <stop
         style="stop-color:#000000;stop-opacity:1;"
         offset="0"
         id="stop3827" />
      <stop
         style="stop-color:#000000;stop-opacity:0;"
         offset="1"
         id="stop3829" />
    </linearGradient>
    <linearGradient
       gradientTransform="matrix(1.5,0,0,1.5060976,-0.37499432,-1.5058327)"
       inkscape:collect="always"
       xlink:href="#linearGradient3835"
       id="linearGradient3841"
       x1="41.25"
       y1="19.833317"
       x2="41.25"
       y2="40.715191"
       gradientUnits="userSpaceOnUse" />
    <linearGradient
       inkscape:collect="always"
       id="linearGradient3835">
      <stop
         style="stop-color:#000000;stop-opacity:1;"
         offset="0"
         id="stop3837" />
      <stop
         style="stop-color:#000000;stop-opacity:0;"
         offset="1"
         id="stop3839" />
    </linearGradient>
    <linearGradient
       gradientTransform="matrix(1.5,0,0,1.5060976,-0.37499432,-1.5058327)"
       y2="42.529957"
       x2="35.094646"
       y1="19.210447"
       x1="35.094646"
       gradientUnits="userSpaceOnUse"
       id="linearGradient3097"
       xlink:href="#linearGradient3825"
       inkscape:collect="always" />
    <linearGradient
       inkscape:collect="always"
       xlink:href="#linearGradient3205-0"
       id="linearGradient5339-0"
       gradientUnits="userSpaceOnUse"
       gradientTransform="matrix(2.0170026,0.09299719,0,2.0194546,-3.7575527,-3.185807)"
       x1="24"
       y1="15.502284"
       x2="24"
       y2="45" />
    <linearGradient
       id="linearGradient3205-0">
      <stop
         id="stop3207-7"
         style="stop-color:#000000;stop-opacity:1"
         offset="0" />
      <stop
         id="stop3209-6"
         style="stop-color:#000000;stop-opacity:0"
         offset="1" />
    </linearGradient>
    <linearGradient
       inkscape:collect="always"
       xlink:href="#linearGradient3205-0"
       id="linearGradient3032-2"
       gradientUnits="userSpaceOnUse"
       gradientTransform="matrix(2.0170026,0.09299719,0,2.0194546,5.2424475,-3.185807)"
       x1="24"
       y1="15.502284"
       x2="24"
       y2="45" />
    <linearGradient
       y2="43"
       x2="24"
       y1="13.506023"
       x1="24"
       gradientTransform="matrix(2.0170026,0.74397757,0,2.0194546,0.71694291,-11.323061)"
       gradientUnits="userSpaceOnUse"
       id="linearGradient3147"
       xlink:href="#linearGradient3205-0"
       inkscape:collect="always" />
    <linearGradient
       inkscape:collect="always"
       xlink:href="#linearGradient3355-273"
       id="linearGradient3665"
       gradientUnits="userSpaceOnUse"
       gradientTransform="matrix(2.3243949,0,0,2.775228,-6.8487634,-3.16312)"
       x1="23.999979"
       y1="9.3726854"
       x2="23.999979"
       y2="2.0968478" />
  </defs>
  <path
     inkscape:connector-curvature="0"
     style="display:inline;overflow:visible;visibility:visible;fill:url(#radialGradient3060);fill-opacity:1;fill-rule:evenodd;stroke:none;stroke-width:1.05496335;marker:none"
     id="path12941"
     d="M 80.625,79.824683 C 80.62275,88.141988 66.184794,94.884 48.375,94.884 c -17.809795,0 -32.248035,-6.742013 -32.25,-15.059318 -0.002,-8.318601 14.437428,-15.062635 32.25,-15.062635 17.812572,0 32.251965,6.744034 32.25,15.062635 z" />
  <path
     inkscape:connector-curvature="0"
     style="display:inline;overflow:visible;visibility:visible;fill:url(#linearGradient3047);fill-opacity:1;fill-rule:nonzero;stroke:url(#linearGradient3665);stroke-width:0.98388952;stroke-linecap:round;stroke-linejoin:round;stroke-miterlimit:4;stroke-dasharray:none;stroke-dashoffset:0;stroke-opacity:1;marker:none"
     id="path3164"
     d="m 76.508056,14.875861 c 0,6.143212 -11.51441,11.123267 -27.571391,11.123267 -16.05699,0 -29.073748,-4.980055 -29.073748,-11.123267 0,-6.143212 13.016758,-11.1232668 29.073748,-11.1232668 16.056981,1e-7 27.571391,4.9800548 27.571391,11.1232668 z"
     sodipodi:nodetypes="cssscc" />
  <path
     inkscape:connector-curvature="0"
     style="display:inline;overflow:visible;visibility:visible;opacity:0.3;fill:url(#radialGradient3044);fill-opacity:1;fill-rule:nonzero;stroke:none;stroke-width:0.98388958;marker:none"
     id="path3197"
     d="m 77.000001,14.98416 c 0,5.636385 -12.561332,10.205575 -28.056514,10.205575 -15.495191,0 -28.056521,-4.56919 -28.056521,-10.205575 0,-5.636382 12.56133,-10.2055736 28.056521,-10.2055736 15.495182,0 28.056514,4.5691916 28.056514,10.2055736 l 0,0 z" />
  <g
     transform="matrix(1.5,0,0,1.5060976,-39.207779,-6.434407)"
     id="g4332">
    <path
       inkscape:connector-curvature="0"
       d="m 74.472528,19.344387 c 0,-5.22572 -4.25296,-9.4277589 -9.542003,-9.4277589 -5.289046,0 -9.542005,4.2020399 -9.542005,9.4277589 -10e-7,5.22572 4.252959,9.427758 9.542005,9.427758 5.289043,-10e-7 9.542003,-4.202038 9.542003,-9.427758 z m -6.043269,0 c 0,1.76978 -1.744805,3.456845 -3.498734,3.456845 -1.791468,0 -3.498735,-1.800272 -3.498735,-3.456845 0,-1.693662 1.648305,-3.456844 3.498735,-3.456844 1.887961,0 3.498734,1.650005 3.498734,3.456844 z"
       id="path4334"
       style="fill:url(#linearGradient4368);fill-rule:nonzero;stroke:url(#linearGradient4370);stroke-width:0.66531587;stroke-miterlimit:4;stroke-opacity:1" />
    <path
       inkscape:connector-curvature="0"
       d="m 64.933975,15.667683 c -1.964568,0 -3.559,1.594432 -3.559,3.559 0,1.964568 1.594432,3.559 3.559,3.559 1.964568,0 3.559,-1.594432 3.559,-3.559 0,-1.964568 -1.594432,-3.559 -3.559,-3.559 z m 0,1.7795 c 0.982284,0 1.7795,0.797216 1.7795,1.7795 0,0.982284 -0.797216,1.7795 -1.7795,1.7795 -0.982284,0 -1.7795,-0.797216 -1.7795,-1.7795 0,-0.982284 0.797216,-1.7795 1.7795,-1.7795 z"
       id="path4336"
       style="display:inline;overflow:visible;visibility:visible;opacity:0.5;fill:#ffffff;fill-opacity:1;fill-rule:nonzero;stroke:none;stroke-width:1;marker:none;enable-background:accumulate" />
    <g
       transform="matrix(0.444875,0,0,0.444875,54.256975,8.5496826)"
       id="g4338">
      <path
         inkscape:connector-curvature="0"
         d="M 15.856928,5.7307748 20.625,16.34375 C 21.660403,15.885186 22.795334,15.625 24,15.625 c 0.03206,0 0.06178,-3.6e-4 0.09375,0 L 24.10801,4.0047512 c -2.94215,-0.070687 -5.543041,0.6572865 -8.251083,1.7260236 z"
         transform="matrix(0.9996011,0.02824295,-0.02824295,0.9996011,0.6924114,-0.6708346)"
         id="path4340"
         style="opacity:0.8;fill:url(#linearGradient4372);fill-opacity:1;fill-rule:nonzero;stroke:none" />
      <path
         inkscape:connector-curvature="0"
         d="m 12.121471,7.9060109 6.931026,9.3601041 c 0.913109,-0.669755 1.965938,-1.167064 3.142629,-1.425169 0.03132,-0.0069 0.06026,-0.01359 0.09157,-0.02009 L 19.857174,4.426276 c -2.888973,0.5613244 -5.31953,1.8556038 -7.735703,3.4797349 z"
         id="path4342"
         style="opacity:0.8;fill:url(#linearGradient4374);fill-opacity:1;fill-rule:nonzero;stroke:none" />
      <path
         inkscape:connector-curvature="0"
         d="m 8.2523933,11.646535 9.2137237,7.155818 c 0.70865,-0.883264 1.596891,-1.636119 2.666685,-2.18998 0.02847,-0.01474 0.05469,-0.02872 0.08325,-0.0431 L 14.86585,6.2506132 C 12.220599,7.5405321 10.165881,9.452393 8.2523933,11.646535 Z"
         id="path4344"
         style="opacity:0.8;fill:url(#linearGradient4376);fill-opacity:1;fill-rule:nonzero;stroke:none" />
      <path
         inkscape:connector-curvature="0"
         d="m 5.6328855,16.073974 c 7.1748065,2.242248 7.8502625,7.031463 12.7767855,1.754127 L 10.499985,9.1321388 C 8.2787249,11.062747 6.9132871,13.459349 5.6328855,16.073974 Z"
         id="path4346"
         style="opacity:0.8;fill:url(#linearGradient4378);fill-opacity:1;fill-rule:nonzero;stroke:none" />
      <path
         inkscape:connector-curvature="0"
         d="M 7.155289,13.193173 C 5.9722117,14.945185 5.2475768,16.829547 4.6301929,18.837116 L 15.96875,21.8125 C 16.184264,21.049497 16.486796,20.297733 16.9375,19.59375 16.95479,19.56675 16.98246,19.52673 17,19.5 L 7.155289,13.193173 Z"
         id="path4348"
         style="opacity:0.8;fill:url(#linearGradient4380);fill-opacity:1;fill-rule:nonzero;stroke:none" />
    </g>
    <g
       transform="matrix(-0.444875,0,0,-0.444875,75.610975,29.899605)"
       id="g4350">
      <path
         inkscape:connector-curvature="0"
         d="M 15.856928,5.7307748 20.625,16.34375 C 21.660403,15.885186 22.795334,15.625 24,15.625 c 0.03206,0 0.06178,-3.6e-4 0.09375,0 L 24.10801,4.0047512 c -2.94215,-0.070687 -5.543041,0.6572865 -8.251083,1.7260236 z"
         transform="matrix(0.9996011,0.02824295,-0.02824295,0.9996011,0.6924114,-0.6708346)"
         id="path4352"
         style="opacity:0.8;fill:url(#linearGradient4382);fill-opacity:1;fill-rule:nonzero;stroke:none" />
      <path
         inkscape:connector-curvature="0"
         d="m 12.121471,7.9060109 6.931026,9.3601041 c 0.913109,-0.669755 1.965938,-1.167064 3.142629,-1.425169 0.03132,-0.0069 0.06026,-0.01359 0.09157,-0.02009 L 19.857174,4.426276 c -2.888973,0.5613244 -5.31953,1.8556038 -7.735703,3.4797349 z"
         id="path4354"
         style="opacity:0.8;fill:url(#linearGradient4384);fill-opacity:1;fill-rule:nonzero;stroke:none" />
      <path
         inkscape:connector-curvature="0"
         d="m 8.2523933,11.646535 9.2137237,7.155818 c 0.70865,-0.883264 1.596891,-1.636119 2.666685,-2.18998 0.02847,-0.01474 0.05469,-0.02872 0.08325,-0.0431 L 14.86585,6.2506132 C 12.220599,7.5405321 10.165881,9.452393 8.2523933,11.646535 Z"
         id="path4356"
         style="opacity:0.8;fill:url(#linearGradient4386);fill-opacity:1;fill-rule:nonzero;stroke:none" />
      <path
         inkscape:connector-curvature="0"
         d="m 5.6328855,16.073974 c 7.1748065,2.242248 7.8502625,7.031463 12.7767855,1.754127 L 10.499985,9.1321388 C 8.2787249,11.062747 6.9132871,13.459349 5.6328855,16.073974 Z"
         id="path4358"
         style="opacity:0.8;fill:url(#linearGradient4388);fill-opacity:1;fill-rule:nonzero;stroke:none" />
      <path
         inkscape:connector-curvature="0"
         d="M 7.155289,13.193173 C 5.9722117,14.945185 5.2475768,16.829547 4.6301929,18.837116 L 15.96875,21.8125 C 16.184264,21.049497 16.486796,20.297733 16.9375,19.59375 16.95479,19.56675 16.98246,19.52673 17,19.5 L 7.155289,13.193173 Z"
         id="path4360"
         style="opacity:0.8;fill:url(#linearGradient4390);fill-opacity:1;fill-rule:nonzero;stroke:none" />
    </g>
    <path
       inkscape:connector-curvature="0"
       d="m 73.433868,19.153338 c 0,4.734911 -3.80586,8.573341 -8.499893,8.573341 -4.694462,0 -8.500108,-3.838473 -8.500108,-8.573341 0,-4.73469 3.805646,-8.572731 8.500108,-8.572731 4.694033,0 8.499893,3.838041 8.499893,8.572731 l 0,0 z"
       id="path4362"
       style="color:#000000;display:inline;overflow:visible;visibility:visible;opacity:0.55;fill:none;stroke:url(#linearGradient4392);stroke-width:0.66531581;stroke-linecap:round;stroke-linejoin:round;stroke-miterlimit:4;stroke-dasharray:none;stroke-dashoffset:0;stroke-opacity:1;marker:none;enable-background:accumulate" />
    <path
       inkscape:connector-curvature="0"
       d="m 64.933975,23.726683 c -2.494286,0 -4.500001,-2.005714 -4.500001,-4.500001 0,-2.494285 2.005715,-4.5 4.500001,-4.5 2.494287,0 4.5,2.005715 4.5,4.5 0,2.494287 -2.005713,4.500001 -4.5,4.500001 l 0,0 0,0 z"
       id="path4364"
       style="opacity:0.4;fill:none;stroke:url(#linearGradient4394);stroke-width:0.66531563;stroke-miterlimit:4;stroke-opacity:1" />
    <path
       inkscape:connector-curvature="0"
       d="m 64.933974,15.726682 c -1.932,0 -3.499999,1.568 -3.499999,3.500001 0,1.932 1.567999,3.499999 3.499999,3.499999 1.932001,0 3.5,-1.567999 3.5,-3.499999 0,-1.932001 -1.567999,-3.500001 -3.5,-3.500001 z m 0,1.750002 c 0.966001,0 1.75,0.783999 1.75,1.749999 0,0.966 -0.783999,1.75 -1.75,1.75 -0.965999,0 -1.749998,-0.784 -1.749998,-1.75 0,-0.965999 0.783999,-1.749999 1.749998,-1.749999 z"
       id="path4366"
       style="display:inline;overflow:visible;visibility:visible;fill:none;stroke:url(#linearGradient4396);stroke-width:0.66531593;stroke-linecap:butt;stroke-linejoin:round;stroke-miterlimit:4;stroke-dasharray:none;stroke-dashoffset:0;stroke-opacity:1;marker:none;enable-background:accumulate" />
  </g>
  <g
     transform="matrix(1.5,0,0,1.5060976,-73.01613,54.240358)"
     id="g3942">
    <path
       inkscape:connector-curvature="0"
       style="display:inline;overflow:visible;visibility:visible;fill:url(#linearGradient3948);fill-opacity:1;fill-rule:nonzero;stroke:url(#linearGradient3950);stroke-width:0.66526377;stroke-linecap:butt;stroke-linejoin:round;stroke-miterlimit:4;stroke-dasharray:none;stroke-dashoffset:0;stroke-opacity:1;marker:none;enable-background:accumulate"
       id="path3944"
       d="m 63.927371,-27.742507 0,8.091063 c 4.373679,1.916123 10.220858,2.380502 15.084098,2.030241 l 0,-12.705247 c -3.747147,0 -10.470212,-0.558269 -15.084098,2.583943 z"
       sodipodi:nodetypes="ccccc" />
    <path
       inkscape:connector-curvature="0"
       style="display:inline;overflow:visible;visibility:visible;fill:url(#linearGradient3952);fill-opacity:1;fill-rule:nonzero;stroke:none;stroke-width:0.99992186;marker:none;enable-background:accumulate"
       id="path3946"
       d="m 65.427381,-27.313963 0,6.491112 c 3.104842,0.962041 8.622562,3.263203 11.916706,3.225001 l -0.0056,-11.776314 c -4.962995,0 -7.940791,0 -11.911187,2.060201 z"
       sodipodi:nodetypes="cccccc" />
  </g>
  <g
     id="g3329"
     transform="matrix(1.5,0,0,1.5060976,-67.016129,60.207111)">
    <path
       d="m 63.927372,-27.753215 0,3.166796 c 4.373673,1.892139 10.220845,2.350706 15.084079,2.00483 l 0,-7.723227 c -3.747142,0 -10.470199,-0.551281 -15.084079,2.551601 z"
       id="path3834"
       style="display:inline;overflow:visible;visibility:visible;fill:url(#linearGradient3333);fill-opacity:1;fill-rule:nonzero;stroke:url(#linearGradient3335);stroke-width:0.66526377;stroke-linecap:butt;stroke-linejoin:round;stroke-miterlimit:4;stroke-dasharray:none;stroke-dashoffset:0;stroke-opacity:1;marker:none;enable-background:accumulate"
       inkscape:connector-curvature="0" />
    <path
       d="m 65.427381,-27.253675 0,3.442709 c 3.104842,0.979885 8.622561,1.362091 11.916705,1.323181 0,0 -0.0056,-6.864304 -0.0056,-6.864304 -4.962994,0 -7.940791,0 -11.911186,2.098414 z"
       id="path3424"
       style="display:inline;overflow:visible;visibility:visible;fill:url(#linearGradient3337);fill-opacity:1;fill-rule:nonzero;stroke:none;stroke-width:0.99992186;marker:none;enable-background:accumulate"
       inkscape:connector-curvature="0" />
  </g>
  <path
     inkscape:connector-curvature="0"
     style="display:inline;overflow:visible;visibility:visible;opacity:0.2;fill:url(#linearGradient3038);fill-opacity:1;fill-rule:nonzero;stroke:none;stroke-width:1;marker:none"
     id="rect3244"
     d="m 33.754834,24.936043 9.041228,1.712409 0,65.479628 -9.041228,-2.188268 0,-65.003769 0,0 z" />
  <path
     inkscape:connector-curvature="0"
     style="display:inline;overflow:visible;visibility:visible;fill:url(#linearGradient3055);fill-opacity:1;fill-rule:nonzero;stroke:url(#linearGradient3057);stroke-width:0.99999994;stroke-opacity:1;marker:none"
     id="path2230"
     d="m 19.500008,15.004977 0,64.411641 c 0,5.910591 8.893725,13.083617 29.250405,13.083617 20.356679,0 27.750379,-7.173026 27.750379,-13.083617 l 0,-64.411641 c 0.107866,15.328725 -56.892919,14.03334 -57.000784,0 z"
     sodipodi:nodetypes="cssscc" />
  <path
     sodipodi:nodetypes="cssscc"
     d="m 76.508056,14.5 c 0,6.079583 -11.58982,11.008055 -27.751958,11.008055 -16.162148,0 -29.264153,-4.928472 -29.264153,-11.008055 0,-6.0795825 13.102005,-11.0080553 29.264153,-11.0080553 16.162138,1e-7 27.751958,4.9284728 27.751958,11.0080553 z"
     id="path3172"
     style="display:inline;overflow:visible;visibility:visible;fill:none;stroke:url(#linearGradient3049);stroke-width:0.98388958;stroke-linecap:round;stroke-linejoin:round;stroke-miterlimit:4;stroke-dasharray:none;stroke-dashoffset:0;stroke-opacity:1;marker:none"
     inkscape:connector-curvature="0" />
  <path
     inkscape:connector-curvature="0"
     style="display:inline;overflow:visible;visibility:visible;opacity:0.15;fill:none;stroke:url(#linearGradient5341);stroke-width:0.9999997;stroke-linecap:round;stroke-linejoin:round;stroke-miterlimit:4;stroke-dasharray:none;stroke-dashoffset:0;stroke-opacity:1;marker:none"
     id="path2206"
     d="m 21.5,13.794098 c 0,3.93521 0,62.271437 0,66.805132 0,5.465222 12.773835,9.900771 27.749487,9.900771 14.975649,0 26.249611,-4.435549 26.249611,-9.900771 0,-4.194833 -0.115633,-62.611938 0,-66.805131 C 75.606962,9.8828505 65.673084,4.4999999 49.249487,4.4999999 32.825891,4.4999999 21.5,9.8588879 21.5,13.794098 Z"
     sodipodi:nodetypes="zsssszz" />
  <path
     inkscape:connector-curvature="0"
     style="display:inline;overflow:visible;visibility:visible;opacity:0.4;fill:url(#radialGradient3052);fill-opacity:1;fill-rule:nonzero;stroke:none;stroke-width:0.99999994;marker:none"
     id="path3212"
     d="m 21.000006,17 0,62.837834 C 21.000006,85.55811 33.544007,92 49.000006,92 64.456006,92 77,85.55811 77,79.837834 L 77,17 C 75.074818,29.936289 20.978664,29.698816 21.000006,17 Z"
     sodipodi:nodetypes="cssscc" />
  <path
     inkscape:connector-curvature="0"
     style="display:inline;overflow:visible;visibility:visible;opacity:0.43290046;fill:none;stroke:url(#linearGradient3097);stroke-width:0.5;stroke-miterlimit:4;stroke-dasharray:none;stroke-opacity:1;marker:none;enable-background:accumulate"
     id="path3823"
     d="m 37.875005,30.034349 c 1.676131,0.07729 2.25,1.490511 2.25,3.168676 l 0,53.50338 c 0,1.67817 -0.573869,2.96697 -2.25,2.88969 C 36.198876,89.51883 35.5995,88.105582 35.5995,86.42742 l 0,-53.503386 c 0,-1.678168 0.599376,-2.966967 2.275505,-2.889685 z m 10.5,1.505809 C 46.698876,31.617451 46.125,33.030669 46.125,34.708834 l 0,53.503383 c 0,1.678171 0.573876,2.96697 2.250005,2.88969 1.67613,-0.07726 2.300999,-1.490512 2.300999,-3.168682 l 0,-53.503382 c 0,-1.678168 -0.62487,-2.966967 -2.300999,-2.889685 z"
     sodipodi:nodetypes="ssssssssssssss" />
  <path
     sodipodi:nodetypes="ssssssssssssss"
     d="m 37.875,30.034345 c 1.676131,0.07729 2.25,1.490511 2.25,3.168676 l 0,53.503384 c 0,1.678163 -0.573869,2.966963 -2.25,2.889682 -1.676128,-0.07726 -2.275504,-1.490505 -2.275504,-3.168674 l 0,-53.503383 c 0,-1.678168 0.599376,-2.966967 2.275504,-2.889685 z m 10.5,1.505809 c -1.676128,0.07729 -2.250005,1.49051 -2.250005,3.168675 l 0,53.503381 c 0,1.67817 0.573877,2.96697 2.250005,2.88969 1.67613,-0.07726 2.301,-1.490505 2.301,-3.168675 l 0,-53.503387 c 0,-1.678168 -0.62487,-2.966965 -2.301,-2.889685 z"
     id="path5337"
     style="display:inline;overflow:visible;visibility:visible;opacity:0.3;fill:url(#linearGradient5339-0);fill-opacity:1;fill-rule:nonzero;stroke:none;stroke-width:0.99992186;marker:none;enable-background:accumulate"
     inkscape:connector-curvature="0" />
  <g
     id="g3116"
     transform="matrix(2.0463137,0,0,2.151568,37.051742,-5.3079302)">
    <path
       d="m 0.952082,15.046897 7,0 0,13.320038 -3.5237286,-3.5 -3.4762714,3.5 z"
       id="path3371"
       style="opacity:0.2;fill:#000000;fill-opacity:1;fill-rule:evenodd;stroke:none"
       inkscape:connector-curvature="0"
       sodipodi:nodetypes="cccccc" />
    <path
       d="m 1.2783533,14.065912 c 1.6829089,0.186485 4.3423731,0.276917 6.3000002,0.251105 l 0,12.296051 -3.1500001,-3.198062 -3.1500001,3.198062 z"
       id="path2472"
       style="fill:url(#linearGradient3121);fill-opacity:1;fill-rule:evenodd;stroke:url(#linearGradient3124);stroke-width:0.47658056px;stroke-linecap:butt;stroke-linejoin:miter;stroke-opacity:1"
       inkscape:connector-curvature="0"
       sodipodi:nodetypes="cccccc" />
    <path
       d="m 1.7657556,23.451292 0,-8.856929 c 2.0023372,0.146812 5.3419742,0.200834 5.3419742,0.200834 l 0,9.047493"
       id="path3475"
       style="opacity:0.4;fill:none;stroke:url(#linearGradient3126);stroke-width:0.47658056px;stroke-linecap:butt;stroke-linejoin:miter;stroke-opacity:1"
       inkscape:connector-curvature="0"
       sodipodi:nodetypes="cccc" />
  </g>
  <path
     sodipodi:nodetypes="sssssss"
     d="M 58.875005,30.034349 C 57.198876,30.111642 56.5995,31.52486 56.5995,33.203025 l 0,53.50338 c 0,1.67817 0.599376,2.96697 2.275505,2.88969 1.67613,-0.07727 2.25,-1.490513 2.25,-3.168675 l 0,-53.503386 c 0,-1.678168 -0.57387,-2.966967 -2.25,-2.889685 z"
     id="path3833"
     style="display:inline;overflow:visible;visibility:visible;opacity:0.46320346;fill:none;stroke:url(#linearGradient3841);stroke-width:0.5;stroke-miterlimit:4;stroke-dasharray:none;stroke-opacity:1;marker:none;enable-background:accumulate"
     inkscape:connector-curvature="0" />
  <path
     sodipodi:nodetypes="ssssssssssssss"
     d="m 27.375,26.357082 c 1.67613,0.618244 2.25,2.105448 2.25,3.783613 l 0,53.503377 c 0,1.678171 -0.57387,2.531468 -2.25,1.913228 -1.67613,-0.618255 -2.25,-2.46699 -2.25,-4.14516 l 0,-53.503376 c 0,-1.678168 0.57387,-2.169927 2.25,-1.551682 z m 42.000005,0 c -1.676131,0.618247 -2.25,2.388296 -2.25,4.066464 l 0,52.721754 c 0,1.67817 0.573869,2.53146 2.25,1.913213 1.67613,-0.618241 2.25,-2.466976 2.25,-4.145146 l 0,-52.748967 c 0,-1.678169 -0.57387,-2.425563 -2.25,-1.807318 z"
     id="path3045"
     style="display:inline;overflow:visible;visibility:visible;opacity:0.35064937;fill:none;stroke:url(#linearGradient3075);stroke-width:0.5;stroke-miterlimit:4;stroke-dasharray:none;stroke-opacity:1;marker:none;enable-background:accumulate"
     inkscape:connector-curvature="0" />
  <path
     inkscape:connector-curvature="0"
     style="display:inline;overflow:visible;visibility:visible;opacity:0.15;fill:url(#linearGradient3147);fill-opacity:1;fill-rule:nonzero;stroke:none;stroke-width:0.99992186;marker:none;enable-background:accumulate"
     id="path3287"
     d="m 27.375,25.995436 c 1.67613,0.618244 2.25,2.466981 2.25,4.145146 l 0,53.503378 c 0,1.67817 -0.57387,2.531467 -2.25,1.913227 -1.67613,-0.618255 -2.25,-2.466989 -2.25,-4.145152 l 0,-53.503384 c 0,-1.678168 0.57387,-2.531461 2.25,-1.913215 z m 42,0.361534 c -1.676129,0.618247 -2.25,2.388296 -2.25,4.066463 l 0,52.721754 c 0,1.67817 0.573871,2.531468 2.25,1.913213 1.676129,-0.61824 2.25,-2.46699 2.25,-4.145145 l 0,-52.748968 c 0,-1.678168 -0.573871,-2.425563 -2.25,-1.807317 z"
     sodipodi:nodetypes="ssssssssssssss" />
  <path
     inkscape:connector-curvature="0"
     style="display:inline;overflow:visible;visibility:visible;opacity:0.3;fill:url(#linearGradient3032-2);fill-opacity:1;fill-rule:nonzero;stroke:none;stroke-width:0.99992186;marker:none;enable-background:accumulate"
     id="path3293"
     d="m 58.875,30.034345 c -1.676128,0.07729 -2.275505,1.490511 -2.275505,3.168676 l 0,53.503384 c 0,1.678163 0.599376,2.966963 2.275505,2.889682 1.67613,-0.07726 2.25,-1.490505 2.25,-3.168674 l 0,-53.503383 c 0,-1.678168 -0.57387,-2.966967 -2.25,-2.889685 z"
     sodipodi:nodetypes="sssssss" />
</svg>
