<?xml version="1.0" encoding="UTF-8" standalone="no"?>
<!-- Created with Inkscape (http://www.inkscape.org/) -->

<svg
   xmlns:osb="http://www.openswatchbook.org/uri/2009/osb"
   xmlns:dc="http://purl.org/dc/elements/1.1/"
   xmlns:cc="http://creativecommons.org/ns#"
   xmlns:rdf="http://www.w3.org/1999/02/22-rdf-syntax-ns#"
   xmlns:svg="http://www.w3.org/2000/svg"
   xmlns="http://www.w3.org/2000/svg"
   xmlns:xlink="http://www.w3.org/1999/xlink"
   xmlns:sodipodi="http://sodipodi.sourceforge.net/DTD/sodipodi-0.dtd"
   xmlns:inkscape="http://www.inkscape.org/namespaces/inkscape"
   version="1.0"
   width="16"
   height="16"
   id="svg3695"
   inkscape:version="0.91 r13725"
   sodipodi:docname="user-trash-full.svg">
  <metadata
     id="metadata11265">
    <rdf:RDF>
      <cc:Work
         rdf:about="">
        <dc:format>image/svg+xml</dc:format>
        <dc:type
           rdf:resource="http://purl.org/dc/dcmitype/StillImage" />
        <dc:title></dc:title>
      </cc:Work>
    </rdf:RDF>
  </metadata>
  <sodipodi:namedview
     pagecolor="#2a2a2a"
     bordercolor="#666666"
     borderopacity="1"
     objecttolerance="10"
     gridtolerance="10"
     guidetolerance="10"
     inkscape:pageopacity="0"
     inkscape:pageshadow="2"
     inkscape:window-width="1366"
     inkscape:window-height="718"
     id="namedview11263"
     showgrid="false"
     inkscape:snap-global="true"
     inkscape:zoom="5.6568542"
     inkscape:cx="7.8451537"
     inkscape:cy="-6.7547736"
     inkscape:window-x="0"
     inkscape:window-y="25"
     inkscape:window-maximized="1"
     inkscape:current-layer="svg3695"
     inkscape:snap-bbox="true"
     inkscape:bbox-paths="true"
     inkscape:bbox-nodes="true"
     inkscape:snap-bbox-edge-midpoints="true"
     showguides="false"
     inkscape:guide-bbox="true"
     inkscape:object-paths="false"
     inkscape:snap-intersection-paths="false"
     inkscape:object-nodes="false"
     inkscape:snap-smooth-nodes="false"
     inkscape:snap-nodes="true">
    <inkscape:grid
       type="xygrid"
       id="grid3062"
       empspacing="5"
       visible="true"
       enabled="true"
       snapvisiblegridlinesonly="true" />
    <sodipodi:guide
       position="32,54"
       orientation="1,0"
       id="guide4298" />
    <sodipodi:guide
       position="32,42"
       orientation="1,0"
       id="guide4223" />
    <sodipodi:guide
       position="31.969826,51"
       orientation="0,1"
       id="guide4191" />
    <sodipodi:guide
       position="32,5"
       orientation="0,1"
       id="guide4193" />
    <sodipodi:guide
       position="32,58.994141"
       orientation="0,1"
       id="guide4195" />
    <sodipodi:guide
       position="8.2812502,51"
       orientation="1,0"
       id="guide4197" />
    <sodipodi:guide
       position="55.742188,50.994796"
       orientation="1,0"
       id="guide4199" />
  </sodipodi:namedview>
  <defs
     id="defs3697">
    <linearGradient
       id="linearGradient4399">
      <stop
         id="stop4401"
         offset="0"
         style="stop-color:#626262;stop-opacity:1" />
      <stop
         id="stop4403"
         offset="1"
         style="stop-color:#3f3f3f;stop-opacity:1" />
    </linearGradient>
    <linearGradient
       id="linearGradient4306">
      <stop
         style="stop-color:#000000;stop-opacity:1"
         offset="0"
         id="stop4308" />
      <stop
         style="stop-color:#000000;stop-opacity:0"
         offset="1"
         id="stop4310" />
    </linearGradient>
    <linearGradient
       id="linearGradient4867">
      <stop
         id="stop4869"
         offset="0"
         style="stop-color:#ffffff;stop-opacity:1;" />
      <stop
         id="stop4871"
         offset="1"
         style="stop-color:#e4e5e7;stop-opacity:0.15686275" />
    </linearGradient>
    <linearGradient
       osb:paint="gradient"
       id="linearGradient4406">
      <stop
         offset="0"
         style="stop-color:#4e4e4e;stop-opacity:1"
         id="stop4408" />
      <stop
         offset="1"
         style="stop-color:#141414;stop-opacity:1"
         id="stop4410" />
    </linearGradient>
    <linearGradient
       id="linearGradient3320"
       osb:paint="gradient">
      <stop
         id="stop3323"
         style="stop-color:#4e4e4e;stop-opacity:1"
         offset="0" />
      <stop
         id="stop3325"
         style="stop-color:#b9bac2;stop-opacity:1"
         offset="1" />
    </linearGradient>
    <linearGradient
       osb:paint="solid"
       id="linearGradient6213">
      <stop
         id="stop6215"
         offset="0"
         style="stop-color:#000000;stop-opacity:1;" />
    </linearGradient>
    <linearGradient
       inkscape:collect="always"
       xlink:href="#linearGradient4399"
       id="linearGradient4213"
       x1="32"
       y1="13"
       x2="32"
       y2="59"
       gradientUnits="userSpaceOnUse"
       gradientTransform="matrix(0.29594034,0,0,0.25000212,-1.4696607,0.87646128)" />
    <linearGradient
       inkscape:collect="always"
       xlink:href="#linearGradient4867"
       id="linearGradient4229"
       x1="32"
       y1="15"
       x2="32"
       y2="18"
       gradientUnits="userSpaceOnUse"
       gradientTransform="matrix(0.25683696,0,0,0.20889967,-0.21930713,2.4709617)" />
    <linearGradient
       y2="9"
       x2="22"
       y1="11"
       x1="22"
       gradientTransform="matrix(0.3160814,0,0,0.36409967,0.41404541,-0.00509609)"
       gradientUnits="userSpaceOnUse"
       id="linearGradient4262-7-1"
       xlink:href="#linearGradient4306"
       inkscape:collect="always" />
    <linearGradient
       id="linearGradient4225">
      <stop
         offset="0"
         style="stop-color:#ffffff;stop-opacity:1;"
         id="stop4227" />
      <stop
         id="stop4229"
         style="stop-color:#ffffff;stop-opacity:0.23529412;"
         offset="0.07889124" />
      <stop
         offset="0.84615391"
         style="stop-color:#ffffff;stop-opacity:0"
         id="stop4231" />
      <stop
         offset="1"
         style="stop-color:#000000;stop-opacity:0.04313726"
         id="stop4233" />
    </linearGradient>
    <linearGradient
       id="linearGradient3927-8">
      <stop
         style="stop-color:#fbfcfd;stop-opacity:1"
         offset="0"
         id="stop3929-2" />
      <stop
         style="stop-color:#ebeced;stop-opacity:1"
         offset="1"
         id="stop3931-4" />
    </linearGradient>
    <linearGradient
       y2="47.013336"
       x2="25.132275"
       y1="0.98520643"
       x1="25.132275"
       gradientTransform="matrix(0.28571361,0,0,0.30419702,1.1428727,0.2326048)"
       gradientUnits="userSpaceOnUse"
       id="linearGradient4486-1"
       xlink:href="#linearGradient3927-8"
       inkscape:collect="always" />
    <linearGradient
       y2="43.923065"
       x2="23.999994"
       y1="6.9230647"
       x1="23.999994"
       gradientTransform="matrix(0.24324324,0,0,0.35135133,2.1621636,-0.43242804)"
       gradientUnits="userSpaceOnUse"
       id="linearGradient4488-7"
       xlink:href="#linearGradient4225"
       inkscape:collect="always" />
    <linearGradient
       inkscape:collect="always"
       xlink:href="#linearGradient3927-8"
       id="linearGradient4593"
       gradientUnits="userSpaceOnUse"
       gradientTransform="matrix(0.28571361,0,0,0.30419702,1.1428727,0.2326048)"
       x1="25.132275"
       y1="0.98520643"
       x2="25.132275"
       y2="47.013336" />
    <linearGradient
       inkscape:collect="always"
       xlink:href="#linearGradient4225"
       id="linearGradient4595"
       gradientUnits="userSpaceOnUse"
       gradientTransform="matrix(0.24324324,0,0,0.35135133,2.1621636,-0.43242804)"
       x1="23.999994"
       y1="6.9230647"
       x2="23.999994"
       y2="43.923065" />
    <linearGradient
       inkscape:collect="always"
       xlink:href="#linearGradient3927-8"
       id="linearGradient4597"
       gradientUnits="userSpaceOnUse"
       gradientTransform="matrix(0.28571361,0,0,0.30419702,1.1428727,0.2326048)"
       x1="25.132275"
       y1="0.98520643"
       x2="25.132275"
       y2="47.013336" />
    <linearGradient
       inkscape:collect="always"
       xlink:href="#linearGradient4225"
       id="linearGradient4599"
       gradientUnits="userSpaceOnUse"
       gradientTransform="matrix(0.24324324,0,0,0.35135133,2.1621636,-0.43242804)"
       x1="23.999994"
       y1="6.9230647"
       x2="23.999994"
       y2="43.923065" />
  </defs>
  <path
     style="opacity:1;fill:#454547;fill-opacity:1;stroke:#0d0d0d;stroke-width:1;stroke-linecap:butt;stroke-linejoin:miter;stroke-miterlimit:4;stroke-dasharray:none;stroke-dashoffset:0;stroke-opacity:1"
     d="m 2.8167222,0.50017229 10.3673858,0 c 0.287176,0 0.42977,0.39765895 0.51837,0.83870101 l 0.466532,2.3224038 c 0.0886,0.4410421 -0.231194,0.8387012 -0.51837,0.8387012 l -11.3004502,0 c -0.2871765,0 -0.6069672,-0.3976592 -0.5183692,-0.8387012 L 2.298353,1.3388733 C 2.3869509,0.89783124 2.5295456,0.50017229 2.8167222,0.50017229 Z"
     id="rect4290"
     inkscape:connector-curvature="0"
     sodipodi:nodetypes="sssssssss" />
  <path
     style="opacity:0.3;fill:#000000;fill-opacity:1;stroke:none;stroke-width:0.99999994;stroke-linecap:butt;stroke-linejoin:miter;stroke-miterlimit:4;stroke-dasharray:none;stroke-dashoffset:0;stroke-opacity:1"
     d="M 13.090909,1.0001909 11.487273,12.807134 c -0.03998,0.29432 -0.227055,0.53668 -0.509091,0.53668 l -5.9563638,0 c -0.2820364,0 -0.4691161,-0.24236 -0.5090909,-0.53668 L 2.9090909,1.0001909 Z"
     id="rect4203-7"
     inkscape:connector-curvature="0"
     sodipodi:nodetypes="csssscc" />
  <path
     style="opacity:0.15;fill:none;fill-opacity:1;stroke:#ffffff;stroke-width:0.99999988;stroke-linecap:butt;stroke-linejoin:miter;stroke-miterlimit:4;stroke-dasharray:none;stroke-dashoffset:0;stroke-opacity:1"
     d="m 3.5711251,1.5003007 8.8568619,0 c 0.251479,0 0.377924,0.3152877 0.453934,0.6665708 l 0.360581,1.6664266 c 0.07602,0.3512826 -0.202456,0.6665701 -0.453935,0.6665701 l -9.5780044,0 c -0.2514794,0 -0.529941,-0.3152861 -0.4539341,-0.6665701 L 3.1171912,2.1668715 C 3.1931984,1.8155871 3.3196459,1.5003007 3.5711251,1.5003007 Z"
     id="rect4290-4"
     inkscape:connector-curvature="0"
     sodipodi:nodetypes="sssssssss" />
  <g
     id="g4601"
     transform="matrix(0.66347213,0,0,0.77099493,3.3424556,8.7370942)">
    <g
       transform="matrix(0.85272789,-0.34927958,0.37666798,0.85286925,-2.1635854,-7.1071329)"
       id="layer1-6-3-1"
       inkscape:label="Layer 1">
      <path
         inkscape:connector-curvature="0"
         style="display:inline;fill:url(#linearGradient4593);fill-opacity:1;stroke:none;stroke-width:0.99992192;stroke-linecap:butt;stroke-linejoin:round;stroke-miterlimit:4;stroke-dasharray:none;stroke-dashoffset:0;stroke-opacity:1"
         id="path4160-6-0-0"
         d="m 3,1 c 2.2915074,0 9.999989,8.904e-4 9.999989,8.904e-4 L 13,15 C 13,15 6.3333332,15 3,15 3,10.333333 3,5.6666664 3,1 Z"
         sodipodi:nodetypes="ccccc" />
      <path
         style="fill:none;stroke:url(#linearGradient4595);stroke-width:1.50872397;stroke-linecap:round;stroke-linejoin:miter;stroke-miterlimit:4;stroke-dasharray:none;stroke-dashoffset:0;stroke-opacity:1"
         d="m 12.5,14.5 -9.0000001,0 0,-13 L 12.5,1.5 Z"
         id="rect6741-1-5-7-9"
         inkscape:connector-curvature="0"
         sodipodi:nodetypes="ccccc" />
      <path
         inkscape:connector-curvature="0"
         style="display:inline;fill:none;fill-opacity:1;stroke:#000000;stroke-width:1.50860643;stroke-linecap:butt;stroke-linejoin:round;stroke-miterlimit:4;stroke-dasharray:none;stroke-dashoffset:0;stroke-opacity:0.35294118"
         id="path4160-9-22-4-8"
         d="m 2.499962,0.49996096 c 2.5206756,0 11.000063,9.54e-4 11.000063,9.54e-4 l 1.3e-5,14.99909804 c 0,0 -7.3333842,0 -11.000076,0 0,-5.000017 0,-10.000035 0,-15.00005204 z"
         sodipodi:nodetypes="ccccc" />
    </g>
    <g
       transform="matrix(0.76299442,0.51670165,-0.50165493,0.7858798,5.9140886,-12.358071)"
       id="layer1-6-8"
       inkscape:label="Layer 1">
      <path
         inkscape:connector-curvature="0"
         style="display:inline;fill:url(#linearGradient4486-1);fill-opacity:1;stroke:none;stroke-width:0.99992192;stroke-linecap:butt;stroke-linejoin:round;stroke-miterlimit:4;stroke-dasharray:none;stroke-dashoffset:0;stroke-opacity:1"
         id="path4160-6-4"
         d="m 3,1 c 2.2915074,0 9.999989,8.904e-4 9.999989,8.904e-4 L 13,15 C 13,15 6.3333332,15 3,15 3,10.333333 3,5.6666664 3,1 Z"
         sodipodi:nodetypes="ccccc" />
      <path
         style="fill:none;stroke:url(#linearGradient4488-7);stroke-width:1.50872397;stroke-linecap:round;stroke-linejoin:miter;stroke-miterlimit:4;stroke-dasharray:none;stroke-dashoffset:0;stroke-opacity:1"
         d="m 12.5,14.5 -9.0000001,0 0,-13 L 12.5,1.5 Z"
         id="rect6741-1-5-1"
         inkscape:connector-curvature="0"
         sodipodi:nodetypes="ccccc" />
      <path
         inkscape:connector-curvature="0"
         style="display:inline;fill:none;fill-opacity:1;stroke:#000000;stroke-width:1.50860643;stroke-linecap:butt;stroke-linejoin:round;stroke-miterlimit:4;stroke-dasharray:none;stroke-dashoffset:0;stroke-opacity:0.35294118"
         id="path4160-9-22-8"
         d="m 2.499962,0.49996096 c 2.5206756,0 11.000063,9.54e-4 11.000063,9.54e-4 l 1.3e-5,14.99909804 c 0,0 -7.3333842,0 -11.000076,0 0,-5.000017 0,-10.000035 0,-15.00005204 z"
         sodipodi:nodetypes="ccccc" />
    </g>
    <g
       transform="matrix(0.97763805,0.21029464,-0.21029464,0.97763805,0.86135665,-9.5145579)"
       id="layer1-4"
       inkscape:label="Layer 1">
      <path
         inkscape:connector-curvature="0"
         style="display:inline;fill:url(#linearGradient4597);fill-opacity:1;stroke:none;stroke-width:0.99992192;stroke-linecap:butt;stroke-linejoin:round;stroke-miterlimit:4;stroke-dasharray:none;stroke-dashoffset:0;stroke-opacity:1"
         id="path4160-8"
         d="m 3,1 c 2.2915074,0 9.999989,8.904e-4 9.999989,8.904e-4 L 13,15 C 13,15 6.3333332,15 3,15 3,10.333333 3,5.6666664 3,1 Z"
         sodipodi:nodetypes="ccccc" />
      <path
         style="fill:none;stroke:url(#linearGradient4599);stroke-width:1.39817953;stroke-linecap:round;stroke-linejoin:miter;stroke-miterlimit:4;stroke-dasharray:none;stroke-dashoffset:0;stroke-opacity:1"
         d="m 12.5,14.5 -9.0000001,0 0,-13 L 12.5,1.5 Z"
         id="rect6741-1-3"
         inkscape:connector-curvature="0"
         sodipodi:nodetypes="ccccc" />
      <path
         inkscape:connector-curvature="0"
         style="display:inline;fill:none;fill-opacity:1;stroke:#000000;stroke-width:1.3980701;stroke-linecap:butt;stroke-linejoin:round;stroke-miterlimit:4;stroke-dasharray:none;stroke-dashoffset:0;stroke-opacity:0.35294118"
         id="path4160-9-6"
         d="m 2.499962,0.49996096 c 2.5206756,0 11.000063,9.54e-4 11.000063,9.54e-4 l 1.3e-5,14.99909804 c 0,0 -7.3333842,0 -11.000076,0 0,-5.000017 0,-10.000035 0,-15.00005204 z"
         sodipodi:nodetypes="ccccc" />
    </g>
  </g>
  <path
     style="opacity:1;fill:url(#linearGradient4213);fill-opacity:1;stroke:#0d0d0d;stroke-width:0.99999994;stroke-linecap:butt;stroke-linejoin:miter;stroke-miterlimit:4;stroke-dasharray:none;stroke-dashoffset:0;stroke-opacity:1"
     d="M 14.144654,4.4996529 13.034563,15.012451 c -0.02848,0.269697 -0.230279,0.489135 -0.516321,0.489135 l -9.0356249,0 c -0.286042,0 -0.4884931,-0.219374 -0.5163213,-0.489135 L 1.8562049,4.4996529 Z"
     id="rect4203"
     inkscape:connector-curvature="0"
     sodipodi:nodetypes="csssscc" />
  <path
     style="opacity:0.25;fill:none;fill-opacity:1;stroke:url(#linearGradient4229);stroke-width:0.99999982;stroke-linecap:butt;stroke-linejoin:miter;stroke-miterlimit:4;stroke-dasharray:none;stroke-dashoffset:0;stroke-opacity:1"
     d="m 3.2137468,5.5000076 9.5714572,0 c 0.123316,0 0.234286,0.091532 0.222591,0.204152 l -0.890368,8.5743824 c -0.01164,0.112621 -0.09928,0.204153 -0.222592,0.204153 l -7.7907201,0 c -0.123316,0 -0.2108972,-0.09153 -0.2225922,-0.204153 L 2.9911545,5.7041596 c -0.011694,-0.1126198 0.099276,-0.204152 0.2225923,-0.204152 z"
     id="rect4205"
     inkscape:connector-curvature="0"
     sodipodi:nodetypes="sssssssss" />
  <rect
     ry="0"
     y="3.2718008"
     x="1.6783724"
     height="0.7281993"
     width="12.643255"
     id="rect3827-5-3-3"
     style="display:inline;opacity:0.25;fill:url(#linearGradient4262-7-1);fill-opacity:1;stroke:none;stroke-width:0;stroke-linecap:butt;stroke-linejoin:miter;stroke-miterlimit:4;stroke-dasharray:none;stroke-dashoffset:0;stroke-opacity:1" />
  <path
     sodipodi:nodetypes="csccsccccccccsccccccsccccccccsccccccccccsccccccccscscccc"
     inkscape:connector-curvature="0"
     id="path4226-1-8-9"
     d="m 5.7667931,10.817431 c -0.069791,0.125505 -0.1253427,0.314339 -0.1253427,0.433325 0,0.02762 0,0.06276 0.00684,0.111494 L 4.7759951,9.860151 c -0.027922,-0.04874 -0.04872,-0.118662 -0.04872,-0.18166 0,-0.06308 0.020809,-0.139762 0.048714,-0.188586 L 5.1947604,8.7562631 4.7272731,8.4909815 6.2485404,8.4627856 6.9880836,9.797154 6.5137622,9.524708 Z M 6.4368377,6.4197387 C 6.5693091,6.1889359 6.785816,6.0631809 7.0507571,6.0631809 c 0.2863011,0 0.5096509,0.1329219 0.6700342,0.4050442 L 7.9580938,6.8664263 7.1345011,8.4559405 5.8018304,7.5164498 Z m 0.097424,5.6063043 c -0.3976937,0 -0.7255964,-0.328359 -0.7255964,-0.726551 0,-0.111819 0.048998,-0.300642 0.1187919,-0.419303 l 0.2230603,-0.398202 1.6540167,0 0,1.544067 -1.2702726,0 z M 7.8603891,6.3775213 C 7.7558284,6.1961028 7.6162407,6.0700246 7.4487346,6.0001 l 1.7164043,0 c 0.1535449,0 0.2720568,0.063084 0.3421411,0.1819821 L 9.9328961,6.9086335 10.393301,6.6359367 9.6534212,7.9637011 8.1395616,7.942343 8.6070503,7.6770651 Z m 2.6448689,4.1184757 c 0.209097,0 0.383732,-0.0559 0.530165,-0.167482 l -0.865464,1.508934 c -0.0698,0.118659 -0.1952207,0.19348 -0.3416142,0.188586 l -0.8167541,0 0,0.537965 -0.7814291,-1.306411 0.7814291,-1.306745 0,0.545142 1.4936673,0 z m 0.669469,-1.257673 c 0.06296,0.111818 0.098,0.230478 0.098,0.356306 0,0.251583 -0.160671,0.517101 -0.383733,0.642617 -0.104831,0.05624 -0.251809,0.09992 -0.397694,0.09128 l -0.460937,0 L 9.2073011,8.9028787 10.54001,8.1412783 Z"
     style="opacity:0.6;fill:#000000;fill-opacity:1" />
  <path
     sodipodi:nodetypes="csccsccccccccsccccccsccccccccsccccccccccsccccccccscscccc"
     inkscape:connector-curvature="0"
     id="path4226-1-8"
     d="m 5.7667895,11.81733 c -0.069791,0.125506 -0.1253422,0.314339 -0.1253422,0.433326 0,0.02762 0,0.06276 0.00684,0.111494 l -0.872296,-1.502099 c -0.027922,-0.04874 -0.048714,-0.118663 -0.048714,-0.181661 0,-0.06308 0.020809,-0.139762 0.048714,-0.188585 L 5.1947637,9.7561623 4.7272763,9.4908808 6.2485436,9.4626849 6.9880872,10.797053 6.5137654,10.524607 Z M 6.436834,7.4196379 C 6.5693061,7.1888352 6.785813,7.0630802 7.0507541,7.0630802 c 0.2863011,0 0.5096509,0.1329219 0.6700334,0.4050449 L 7.9580908,7.8663263 7.1344981,9.4558398 5.8018273,8.5163498 Z m 0.097424,5.6063051 c -0.3976936,0 -0.7255964,-0.328359 -0.7255964,-0.726551 0,-0.111819 0.048998,-0.300642 0.1187918,-0.419304 l 0.2230609,-0.3982 1.6540175,0 0,1.544066 -1.2702738,0 z M 7.8603861,7.3774213 C 7.7558254,7.1960021 7.6162377,7.0699239 7.4487315,7 L 9.1651352,7 C 9.3186814,7 9.4371912,7.063077 9.507277,7.1819821 L 9.9328916,7.9085328 10.393297,7.635836 9.6534174,8.9636011 8.139557,8.942243 8.6070472,8.6769644 Z m 2.6448689,4.1184757 c 0.209096,0 0.383732,-0.0559 0.530164,-0.167482 l -0.865464,1.508934 c -0.0698,0.118659 -0.1952205,0.193479 -0.3416133,0.188586 l -0.8167556,0 0,0.537965 -0.7814291,-1.306412 0.7814291,-1.306744 0,0.545142 1.4936679,0 z m 0.669469,-1.257673 c 0.06296,0.111818 0.098,0.230477 0.098,0.356305 0,0.251583 -0.160671,0.517102 -0.383733,0.642618 -0.10483,0.05624 -0.251808,0.09992 -0.397693,0.09128 l -0.460936,0 L 9.2072981,9.9027787 10.540007,9.1411783 Z"
     style="fill:#ffffff;fill-opacity:0.78431373" />
</svg>
