<?xml version="1.0" encoding="UTF-8" standalone="no"?>
<!-- Created with Inkscape (http://www.inkscape.org/) -->

<svg
   xmlns:dc="http://purl.org/dc/elements/1.1/"
   xmlns:cc="http://creativecommons.org/ns#"
   xmlns:rdf="http://www.w3.org/1999/02/22-rdf-syntax-ns#"
   xmlns:svg="http://www.w3.org/2000/svg"
   xmlns="http://www.w3.org/2000/svg"
   xmlns:xlink="http://www.w3.org/1999/xlink"
   xmlns:sodipodi="http://sodipodi.sourceforge.net/DTD/sodipodi-0.dtd"
   xmlns:inkscape="http://www.inkscape.org/namespaces/inkscape"
   width="128"
   height="128"
   id="svg3172"
   version="1.1"
   inkscape:version="0.91 r13725"
   sodipodi:docname="application-x-object.svg">
  <defs
     id="defs3174">
    <linearGradient
       id="linearGradient3977">
      <stop
         id="stop3979"
         style="stop-color:#ffffff;stop-opacity:1;"
         offset="0" />
      <stop
         offset="0.03626217"
         style="stop-color:#ffffff;stop-opacity:0.23529412;"
         id="stop3981" />
      <stop
         id="stop3983"
         style="stop-color:#ffffff;stop-opacity:0.15686275;"
         offset="0.95056331" />
      <stop
         id="stop3985"
         style="stop-color:#ffffff;stop-opacity:0.39215687;"
         offset="1" />
    </linearGradient>
    <linearGradient
       id="linearGradient3600">
      <stop
         offset="0"
         style="stop-color:#f4f4f4;stop-opacity:1"
         id="stop3602" />
      <stop
         offset="1"
         style="stop-color:#dbdbdb;stop-opacity:1"
         id="stop3604" />
    </linearGradient>
    <linearGradient
       id="linearGradient3104">
      <stop
         offset="0"
         style="stop-color:#a0a0a0;stop-opacity:1;"
         id="stop3106" />
      <stop
         offset="1"
         style="stop-color:#bebebe;stop-opacity:1;"
         id="stop3108-4" />
    </linearGradient>
    <linearGradient
       id="linearGradient3702-501-757-486">
      <stop
         offset="0"
         style="stop-color:#181818;stop-opacity:0"
         id="stop3100" />
      <stop
         offset="0.5"
         style="stop-color:#181818;stop-opacity:1"
         id="stop3102" />
      <stop
         offset="1"
         style="stop-color:#181818;stop-opacity:0"
         id="stop3104" />
    </linearGradient>
    <linearGradient
       id="linearGradient3688-464-309-255">
      <stop
         offset="0"
         style="stop-color:#181818;stop-opacity:1"
         id="stop3094" />
      <stop
         offset="1"
         style="stop-color:#181818;stop-opacity:0"
         id="stop3096" />
    </linearGradient>
    <linearGradient
       id="linearGradient3688-166-749-737">
      <stop
         offset="0"
         style="stop-color:#181818;stop-opacity:1"
         id="stop3088" />
      <stop
         offset="1"
         style="stop-color:#181818;stop-opacity:0"
         id="stop3090" />
    </linearGradient>
    <linearGradient
       id="linearGradient5031">
      <stop
         id="stop5033"
         style="stop-color:#a3a3a3;stop-opacity:1"
         offset="0" />
      <stop
         id="stop5035"
         style="stop-color:#bababa;stop-opacity:1"
         offset="1" />
    </linearGradient>
    <linearGradient
       id="linearGradient3195">
      <stop
         id="stop3197"
         style="stop-color:#f8b17e;stop-opacity:1"
         offset="0" />
      <stop
         id="stop3199"
         style="stop-color:#e35d4f;stop-opacity:1"
         offset="0.26437598" />
      <stop
         id="stop3201"
         style="stop-color:#c6262e;stop-opacity:1"
         offset="0.66093999" />
      <stop
         id="stop3203"
         style="stop-color:#690b54;stop-opacity:1"
         offset="1" />
    </linearGradient>
    <linearGradient
       id="linearGradient3908">
      <stop
         id="stop3910"
         offset="0"
         style="stop-color:#aaaaaa;stop-opacity:1;" />
      <stop
         id="stop3912"
         offset="1"
         style="stop-color:#c8c8c8;stop-opacity:1;" />
    </linearGradient>
    <linearGradient
       id="linearGradient3104-6">
      <stop
         id="stop3106-3"
         style="stop-color:#000000;stop-opacity:0.31782946;"
         offset="0" />
      <stop
         id="stop3108-9"
         style="stop-color:#000000;stop-opacity:0.24031007;"
         offset="1" />
    </linearGradient>
    <linearGradient
       id="linearGradient3977-4">
      <stop
         offset="0"
         style="stop-color:#ffffff;stop-opacity:1;"
         id="stop3979-7" />
      <stop
         id="stop3981-6"
         style="stop-color:#ffffff;stop-opacity:0.23529412;"
         offset="0.01214366" />
      <stop
         offset="0.98781353"
         style="stop-color:#ffffff;stop-opacity:0.15686275;"
         id="stop3983-5" />
      <stop
         offset="1"
         style="stop-color:#ffffff;stop-opacity:0.39215687;"
         id="stop3985-6" />
    </linearGradient>
    <linearGradient
       id="linearGradient5048">
      <stop
         offset="0"
         style="stop-color:#000000;stop-opacity:0"
         id="stop5050" />
      <stop
         offset="0.5"
         style="stop-color:#000000;stop-opacity:1"
         id="stop5056" />
      <stop
         offset="1"
         style="stop-color:#000000;stop-opacity:0"
         id="stop5052" />
    </linearGradient>
    <linearGradient
       id="linearGradient3830">
      <stop
         offset="0"
         style="stop-color:#ffffff;stop-opacity:1"
         id="stop3832" />
      <stop
         offset="1"
         style="stop-color:#ffffff;stop-opacity:0"
         id="stop3834" />
    </linearGradient>
    <linearGradient
       id="linearGradient2867-449-88-871-390-598-476-591-434-148-57-177">
      <stop
         id="stop3750"
         style="stop-color:#90dbec;stop-opacity:1;"
         offset="0" />
      <stop
         id="stop3752"
         style="stop-color:#55c1ec;stop-opacity:1;"
         offset="0.39060768" />
      <stop
         id="stop3754"
         style="stop-color:#3689e6;stop-opacity:1;"
         offset="0.84839314" />
      <stop
         id="stop3756"
         style="stop-color:#2b63a0;stop-opacity:1;"
         offset="1" />
    </linearGradient>
    <linearGradient
       id="linearGradient3707-319-631-407-324">
      <stop
         id="stop3760"
         style="stop-color:#185f9a;stop-opacity:1;"
         offset="0" />
      <stop
         id="stop3762"
         style="stop-color:#599ec9;stop-opacity:1;"
         offset="1" />
    </linearGradient>
    <radialGradient
       r="12.289036"
       fy="63.965389"
       fx="15.115514"
       cy="63.965389"
       cx="15.115514"
       gradientTransform="matrix(1.139227,0,0,0.4068666,6.7799989,7.7466159)"
       gradientUnits="userSpaceOnUse"
       id="radialGradient3172"
       xlink:href="#linearGradient3104-6"
       inkscape:collect="always" />
    <linearGradient
       y2="34.606899"
       x2="29.465117"
       y1="17.606901"
       x1="29.465117"
       gradientTransform="translate(4.116099,-1.6069012)"
       gradientUnits="userSpaceOnUse"
       id="linearGradient4596"
       xlink:href="#linearGradient4598"
       inkscape:collect="always" />
    <linearGradient
       id="linearGradient4598">
      <stop
         offset="0"
         style="stop-color:#ffffff;stop-opacity:1;"
         id="stop4600" />
      <stop
         id="stop4602"
         style="stop-color:#ffffff;stop-opacity:0.23529412;"
         offset="0.17647059" />
      <stop
         offset="0.82352948"
         style="stop-color:#ffffff;stop-opacity:0.15686275;"
         id="stop4604" />
      <stop
         offset="1"
         style="stop-color:#ffffff;stop-opacity:0.39215687;"
         id="stop4606" />
    </linearGradient>
    <linearGradient
       y2="41.606899"
       x2="13.883902"
       y1="12.606901"
       x1="13.883902"
       gradientTransform="translate(4.116099,-1.6069012)"
       gradientUnits="userSpaceOnUse"
       id="linearGradient4467-5"
       xlink:href="#linearGradient3977-0-2"
       inkscape:collect="always" />
    <linearGradient
       id="linearGradient3977-0-2">
      <stop
         id="stop3979-5-6"
         style="stop-color:#ffffff;stop-opacity:1;"
         offset="0" />
      <stop
         offset="0.03626217"
         style="stop-color:#ffffff;stop-opacity:0.23529412;"
         id="stop3981-7-1" />
      <stop
         id="stop3983-6-1"
         style="stop-color:#ffffff;stop-opacity:0.15686275;"
         offset="0.82758623" />
      <stop
         id="stop3985-4-7"
         style="stop-color:#ffffff;stop-opacity:0.39215687;"
         offset="1" />
    </linearGradient>
    <radialGradient
       r="12.671875"
       fy="10.243929"
       fx="8.5513258"
       cy="10.243929"
       cx="9.0815544"
       gradientTransform="matrix(0,7.0760926,-7.4527115,0,100.32061,-66.261922)"
       gradientUnits="userSpaceOnUse"
       id="radialGradient3815"
       xlink:href="#linearGradient2867-449-88-871-390-598-476-591-434-148-57-177-8-3"
       inkscape:collect="always" />
    <linearGradient
       id="linearGradient2867-449-88-871-390-598-476-591-434-148-57-177-8-3">
      <stop
         id="stop3750-1-0"
         style="stop-color:#ffcd7d;stop-opacity:1;"
         offset="0" />
      <stop
         id="stop3752-3-7"
         style="stop-color:#fc8f36;stop-opacity:1;"
         offset="0.26238" />
      <stop
         id="stop3754-1-8"
         style="stop-color:#e23a0e;stop-opacity:1;"
         offset="0.704952" />
      <stop
         id="stop3756-1-6"
         style="stop-color:#ac441f;stop-opacity:1;"
         offset="1" />
    </linearGradient>
    <linearGradient
       y2="4.9451008"
       x2="25"
       y1="49.945103"
       x1="25"
       gradientTransform="translate(2.123909,-1.9451008)"
       gradientUnits="userSpaceOnUse"
       id="linearGradient3817"
       xlink:href="#linearGradient4039"
       inkscape:collect="always" />
    <linearGradient
       id="linearGradient4039">
      <stop
         id="stop4041"
         style="stop-color:#ba3d12;stop-opacity:1"
         offset="0" />
      <stop
         id="stop4043"
         style="stop-color:#db6737;stop-opacity:1"
         offset="1" />
    </linearGradient>
    <radialGradient
       inkscape:collect="always"
       xlink:href="#linearGradient2867-449-88-871-390-598-476-591-434-148-57-177-8-3"
       id="radialGradient3077"
       gradientUnits="userSpaceOnUse"
       gradientTransform="matrix(0,7.0760926,-7.4527115,0,100.32061,-66.261922)"
       cx="9.0815544"
       cy="10.243929"
       fx="8.5513258"
       fy="10.243929"
       r="12.671875" />
    <linearGradient
       inkscape:collect="always"
       xlink:href="#linearGradient4039"
       id="linearGradient3079"
       gradientUnits="userSpaceOnUse"
       gradientTransform="translate(2.123909,-1.9451012)"
       x1="25"
       y1="49.945103"
       x2="25"
       y2="4.9451008" />
    <linearGradient
       id="linearGradient4328">
      <stop
         offset="0"
         style="stop-color:#ffffff;stop-opacity:1;"
         id="stop4330" />
      <stop
         id="stop4332"
         style="stop-color:#ffffff;stop-opacity:0.23529412;"
         offset="0.09704833" />
      <stop
         offset="0.66666669"
         style="stop-color:#ffffff;stop-opacity:0.15686275;"
         id="stop4334" />
      <stop
         offset="1"
         style="stop-color:#ffffff;stop-opacity:0.39215687;"
         id="stop4336" />
    </linearGradient>
    <linearGradient
       id="linearGradient4354">
      <stop
         offset="0"
         style="stop-color:#ffffff;stop-opacity:1;"
         id="stop4356" />
      <stop
         id="stop4358"
         style="stop-color:#ffffff;stop-opacity:0.23529412;"
         offset="0.38322371" />
      <stop
         offset="0.95056331"
         style="stop-color:#ffffff;stop-opacity:0.15686275;"
         id="stop4360" />
      <stop
         offset="1"
         style="stop-color:#ffffff;stop-opacity:0.39215687;"
         id="stop4362" />
    </linearGradient>
    <linearGradient
       id="linearGradient4340">
      <stop
         offset="0"
         style="stop-color:#ffffff;stop-opacity:1;"
         id="stop4342" />
      <stop
         id="stop4344"
         style="stop-color:#ffffff;stop-opacity:0.23529412;"
         offset="0.27889803" />
      <stop
         offset="0.95056331"
         style="stop-color:#ffffff;stop-opacity:0.15686275;"
         id="stop4346" />
      <stop
         offset="1"
         style="stop-color:#ffffff;stop-opacity:0.39215687;"
         id="stop4348" />
    </linearGradient>
    <radialGradient
       r="13.931416"
       fy="23.403069"
       fx="9.9660025"
       cy="23.403069"
       cx="9.9660025"
       gradientTransform="matrix(0,4.6309229,-4.1186673,0,114.37606,-52.028739)"
       gradientUnits="userSpaceOnUse"
       id="radialGradient3352"
       xlink:href="#linearGradient3846-5"
       inkscape:collect="always" />
    <linearGradient
       id="linearGradient3846-5">
      <stop
         id="stop3848-48"
         style="stop-color:#fff3cb;stop-opacity:1"
         offset="0" />
      <stop
         id="stop3850-1"
         style="stop-color:#fdde76;stop-opacity:1"
         offset="0.26238" />
      <stop
         id="stop3852-28"
         style="stop-color:#f9c440;stop-opacity:1"
         offset="0.66093999" />
      <stop
         id="stop3854-9"
         style="stop-color:#e48b20;stop-opacity:1"
         offset="1" />
    </linearGradient>
    <linearGradient
       y2="8.404891"
       x2="21.483376"
       y1="44.154785"
       x1="21.483376"
       gradientTransform="matrix(1.6508808,0,0,1.6568311,-16.628817,-20.281567)"
       gradientUnits="userSpaceOnUse"
       id="linearGradient3354"
       xlink:href="#linearGradient3856-6"
       inkscape:collect="always" />
    <linearGradient
       id="linearGradient3856-6">
      <stop
         id="stop3858-8"
         style="stop-color:#b67926;stop-opacity:1"
         offset="0" />
      <stop
         id="stop3860-0"
         style="stop-color:#eab41a;stop-opacity:1"
         offset="1" />
    </linearGradient>
    <radialGradient
       inkscape:collect="always"
       xlink:href="#linearGradient3846-5"
       id="radialGradient4476"
       gradientUnits="userSpaceOnUse"
       gradientTransform="matrix(0,3.4561718,-4.1186673,0,121.20805,-33.840698)"
       cx="9.9660025"
       cy="23.403069"
       fx="9.9660025"
       fy="23.403069"
       r="13.931416" />
    <linearGradient
       inkscape:collect="always"
       xlink:href="#linearGradient3856-6"
       id="linearGradient4478"
       gradientUnits="userSpaceOnUse"
       gradientTransform="matrix(1.6508808,0,0,1.6568311,-9.7968269,-13.801098)"
       x1="21.483376"
       y1="35.375534"
       x2="21.483376"
       y2="8.404891" />
    <linearGradient
       y2="54.059887"
       x2="21.037846"
       y1="44.613377"
       x1="21.037846"
       gradientTransform="matrix(0.58514285,0,0,0.60235363,3.8713635,10.911281)"
       gradientUnits="userSpaceOnUse"
       id="linearGradient3471"
       xlink:href="#linearGradient3830"
       inkscape:collect="always" />
    <linearGradient
       y2="44.560955"
       x2="35.883442"
       y1="22.754343"
       x1="35.883442"
       gradientTransform="translate(-2.8552521,-10.486361)"
       gradientUnits="userSpaceOnUse"
       id="linearGradient4596-7"
       xlink:href="#linearGradient3316"
       inkscape:collect="always" />
    <linearGradient
       id="linearGradient3316">
      <stop
         id="stop3318"
         style="stop-color:#ffffff;stop-opacity:1;"
         offset="0" />
      <stop
         offset="0.16986552"
         style="stop-color:#ffffff;stop-opacity:0.23529412;"
         id="stop3320" />
      <stop
         id="stop3322"
         style="stop-color:#ffffff;stop-opacity:0.15686275;"
         offset="0.9545455" />
      <stop
         id="stop3324"
         style="stop-color:#ffffff;stop-opacity:0.39215687;"
         offset="1" />
    </linearGradient>
    <radialGradient
       r="12.671875"
       fy="10.243929"
       fx="9.3065472"
       cy="10.243929"
       cx="9.8367758"
       gradientTransform="matrix(0,7.1403659,-7.3430977,0,93.723111,-67.567174)"
       gradientUnits="userSpaceOnUse"
       id="radialGradient3394"
       xlink:href="#linearGradient3195"
       inkscape:collect="always" />
    <linearGradient
       id="linearGradient3242-6-6">
      <stop
         offset="0"
         style="stop-color:#f8b17e;stop-opacity:1"
         id="stop3244-3-4" />
      <stop
         offset="0.26238"
         style="stop-color:#e35d4f;stop-opacity:1"
         id="stop3246-2-3" />
      <stop
         offset="0.66093999"
         style="stop-color:#c6262e;stop-opacity:1"
         id="stop3248-0-3" />
      <stop
         offset="1"
         style="stop-color:#690b54;stop-opacity:1"
         id="stop3250-6-3" />
    </linearGradient>
    <linearGradient
       y2="4.9451008"
       x2="25"
       y1="62.873146"
       x1="25"
       gradientTransform="matrix(0.98529211,0,0,1.0090832,-3.0293205,-2.6661519)"
       gradientUnits="userSpaceOnUse"
       id="linearGradient3396"
       xlink:href="#linearGradient2490-6-6"
       inkscape:collect="always" />
    <linearGradient
       id="linearGradient2490-6-6">
      <stop
         offset="0"
         style="stop-color:#791235;stop-opacity:1"
         id="stop2492-1-04" />
      <stop
         offset="1"
         style="stop-color:#dd3b27;stop-opacity:1"
         id="stop2494-0-8" />
    </linearGradient>
    <radialGradient
       r="12.671875"
       fy="10.243929"
       fx="9.3065472"
       cy="10.243929"
       cx="9.8367758"
       gradientTransform="matrix(0,7.1403659,-7.3430977,0,93.723115,-67.168075)"
       gradientUnits="userSpaceOnUse"
       id="radialGradient3399"
       xlink:href="#linearGradient3242-6-6"
       inkscape:collect="always" />
    <linearGradient
       y2="4.9451008"
       x2="25"
       y1="49.945103"
       x1="25"
       gradientTransform="matrix(0.98529211,0,0,1.0090832,-3.0293205,-2.2670529)"
       gradientUnits="userSpaceOnUse"
       id="linearGradient3401"
       xlink:href="#linearGradient2490-6-6"
       inkscape:collect="always" />
    <radialGradient
       inkscape:collect="always"
       xlink:href="#linearGradient3242-6-6"
       id="radialGradient3094"
       gradientUnits="userSpaceOnUse"
       gradientTransform="matrix(0,7.1403659,-7.3430977,0,93.723111,-67.168075)"
       cx="9.8367758"
       cy="10.243929"
       fx="9.3065472"
       fy="10.243929"
       r="12.671875" />
    <linearGradient
       inkscape:collect="always"
       xlink:href="#linearGradient2490-6-6"
       id="linearGradient3096-9"
       gradientUnits="userSpaceOnUse"
       gradientTransform="matrix(0.98529211,0,0,1.0090832,-3.0293205,-2.267053)"
       x1="25"
       y1="62.477642"
       x2="25"
       y2="4.9451008" />
    <linearGradient
       gradientUnits="userSpaceOnUse"
       y2="34.008301"
       x2="27.823339"
       y1="14.36416"
       x1="27.823339"
       id="linearGradient3853"
       xlink:href="#linearGradient3316-1"
       inkscape:collect="always" />
    <linearGradient
       id="linearGradient3316-1">
      <stop
         id="stop3318-0"
         style="stop-color:#ffffff;stop-opacity:1;"
         offset="0" />
      <stop
         offset="0.09090909"
         style="stop-color:#ffffff;stop-opacity:0.23529412;"
         id="stop3320-8" />
      <stop
         id="stop3322-1"
         style="stop-color:#ffffff;stop-opacity:0.15686275;"
         offset="0.9545455" />
      <stop
         id="stop3324-6"
         style="stop-color:#ffffff;stop-opacity:0.39215687;"
         offset="1" />
    </linearGradient>
    <linearGradient
       y2="35.554283"
       x2="32.693043"
       y1="13.497481"
       x1="32.693043"
       gradientUnits="userSpaceOnUse"
       id="linearGradient3855"
       xlink:href="#linearGradient3857"
       inkscape:collect="always"
       gradientTransform="matrix(1.08742,0,0,1.0502447,-2.483611,-1.4076658)" />
    <linearGradient
       id="linearGradient3857">
      <stop
         offset="0"
         style="stop-color:#ffffff;stop-opacity:1;"
         id="stop3859" />
      <stop
         id="stop3861"
         style="stop-color:#ffffff;stop-opacity:0.23529412;"
         offset="0.09090909" />
      <stop
         offset="0.88849318"
         style="stop-color:#ffffff;stop-opacity:0.15686275;"
         id="stop3863" />
      <stop
         offset="1"
         style="stop-color:#ffffff;stop-opacity:0.39215687;"
         id="stop3865" />
    </linearGradient>
    <radialGradient
       gradientUnits="userSpaceOnUse"
       gradientTransform="matrix(0.73806726,3.7146825,-1.1045595,0.21946403,23.862172,-53.039586)"
       r="8.484375"
       fy="17.410549"
       fx="17.680819"
       cy="17.410549"
       cx="17.680819"
       id="radialGradient3867"
       xlink:href="#linearGradient3242-6-6"
       inkscape:collect="always" />
    <linearGradient
       gradientUnits="userSpaceOnUse"
       y2="15.569297"
       x2="30"
       y1="34.716728"
       x1="30"
       id="linearGradient3825"
       xlink:href="#linearGradient2490-6-6"
       inkscape:collect="always" />
    <radialGradient
       r="8.484375"
       fy="18.082886"
       fx="16.770905"
       cy="18.082886"
       cx="16.770905"
       gradientTransform="matrix(0.36912885,4.0936869,-4.1866565,0.37751188,85.782809,-62.253794)"
       gradientUnits="userSpaceOnUse"
       id="radialGradient3873"
       xlink:href="#linearGradient3242-6-6"
       inkscape:collect="always" />
    <linearGradient
       y2="36.455578"
       x2="21.037846"
       y1="29.845058"
       x1="21.037846"
       gradientTransform="matrix(0.58514285,0,0,0.60235363,8.9963649,44.860124)"
       gradientUnits="userSpaceOnUse"
       id="linearGradient3471-0"
       xlink:href="#linearGradient3830"
       inkscape:collect="always" />
    <radialGradient
       r="12.671875"
       fy="10.243929"
       fx="9.3065472"
       cy="10.243929"
       cx="9.8367758"
       gradientTransform="matrix(0,7.1403659,-7.3430977,0,93.723115,-67.567174)"
       gradientUnits="userSpaceOnUse"
       id="radialGradient3394-8"
       xlink:href="#linearGradient3242-6-6"
       inkscape:collect="always" />
    <linearGradient
       y2="4.9451008"
       x2="25"
       y1="49.945103"
       x1="25"
       gradientTransform="matrix(0.98529211,0,0,1.0090832,-3.0293205,-2.6661519)"
       gradientUnits="userSpaceOnUse"
       id="linearGradient3396-4"
       xlink:href="#linearGradient2490-6-6"
       inkscape:collect="always" />
    <radialGradient
       inkscape:collect="always"
       xlink:href="#linearGradient3242-6-6"
       id="radialGradient3134"
       gradientUnits="userSpaceOnUse"
       gradientTransform="matrix(0,7.1403659,-7.3430977,0,98.848116,-33.618331)"
       cx="9.8367758"
       cy="10.243929"
       fx="9.3065472"
       fy="10.243929"
       r="12.671875" />
    <linearGradient
       inkscape:collect="always"
       xlink:href="#linearGradient2490-6-6"
       id="linearGradient3136"
       gradientUnits="userSpaceOnUse"
       gradientTransform="matrix(0.98529211,0,0,1.0090832,2.0956799,31.282691)"
       x1="25"
       y1="49.945103"
       x2="25"
       y2="4.9451008" />
    <radialGradient
       r="8.484375"
       fy="18.082886"
       fx="16.770905"
       cy="18.082886"
       cx="16.770905"
       gradientTransform="matrix(0.37275521,4.0477129,-4.2277866,0.37327224,86.272202,-61.376213)"
       gradientUnits="userSpaceOnUse"
       id="radialGradient3275"
       xlink:href="#linearGradient3242-6-6"
       inkscape:collect="always" />
    <radialGradient
       r="8.484375"
       fy="17.410549"
       fx="17.680819"
       cy="17.410549"
       cx="17.680819"
       gradientTransform="matrix(0.73806726,3.7146825,-1.1045595,0.21946403,23.862172,-53.039586)"
       gradientUnits="userSpaceOnUse"
       id="radialGradient3279"
       xlink:href="#linearGradient3242-6-6"
       inkscape:collect="always" />
    <linearGradient
       y2="36.455578"
       x2="21.037846"
       y1="29.845058"
       x1="21.037846"
       gradientTransform="matrix(1.5620442,0,0,1.6047183,14.461515,-38.01768)"
       gradientUnits="userSpaceOnUse"
       id="linearGradient3283"
       xlink:href="#linearGradient3830"
       inkscape:collect="always" />
    <radialGradient
       r="12.671875"
       fy="10.243929"
       fx="9.3065472"
       cy="10.243929"
       cx="9.8367758"
       gradientTransform="matrix(0,14.1984,-14.545515,0,199.36784,-180.47223)"
       gradientUnits="userSpaceOnUse"
       id="radialGradient3285"
       xlink:href="#linearGradient3242-6-6"
       inkscape:collect="always" />
    <linearGradient
       y2="42.339119"
       x2="23.999994"
       y1="5.6608582"
       x1="23.999994"
       gradientTransform="matrix(2.4594595,0,0,3.1081081,4.9729852,-78.594559)"
       gradientUnits="userSpaceOnUse"
       id="linearGradient3093-8"
       xlink:href="#linearGradient3977-5"
       inkscape:collect="always" />
    <linearGradient
       y2="48.348633"
       x2="25.129032"
       y1="2.7192106"
       x1="25.129032"
       gradientTransform="matrix(2.6285655,0,0,2.5204887,0.91442891,-68.357975)"
       gradientUnits="userSpaceOnUse"
       id="linearGradient3096-1"
       xlink:href="#linearGradient3927"
       inkscape:collect="always" />
    <radialGradient
       r="2.5"
       fy="43.5"
       fx="4.9929786"
       cy="43.5"
       cx="4.9929786"
       gradientTransform="matrix(2.4045407,0,0,1.7999999,-32.014243,-131.8)"
       gradientUnits="userSpaceOnUse"
       id="radialGradient3123-1"
       xlink:href="#linearGradient3688-464-309-255"
       inkscape:collect="always" />
    <radialGradient
       inkscape:collect="always"
       xlink:href="#linearGradient3688-464-309-255"
       id="radialGradient3170-2"
       gradientUnits="userSpaceOnUse"
       gradientTransform="matrix(2.4045407,0,0,1.7999999,95.985757,-24.799999)"
       cx="4.9929786"
       cy="43.5"
       fx="4.9929786"
       fy="43.5"
       r="2.5" />
    <linearGradient
       id="linearGradient3977-5">
      <stop
         offset="0"
         style="stop-color:#ffffff;stop-opacity:1;"
         id="stop3979-1" />
      <stop
         id="stop3981-8"
         style="stop-color:#ffffff;stop-opacity:0.23529412;"
         offset="0.04878049" />
      <stop
         offset="0.95056331"
         style="stop-color:#ffffff;stop-opacity:0"
         id="stop3983-3" />
      <stop
         offset="1"
         style="stop-color:#000000;stop-opacity:0.04313726"
         id="stop3985-4" />
    </linearGradient>
    <linearGradient
       id="linearGradient3927">
      <stop
         id="stop3929"
         offset="0"
         style="stop-color:#fbfcfd;stop-opacity:1" />
      <stop
         id="stop3931"
         offset="1"
         style="stop-color:#ebeced;stop-opacity:1" />
    </linearGradient>
    <linearGradient
       gradientUnits="userSpaceOnUse"
       y2="15.569297"
       x2="30"
       y1="34.716728"
       x1="30"
       id="linearGradient4479"
       xlink:href="#linearGradient2490-6-6"
       inkscape:collect="always" />
    <linearGradient
       id="linearGradient3316-0">
      <stop
         offset="0"
         style="stop-color:#ffffff;stop-opacity:1;"
         id="stop3318-3" />
      <stop
         id="stop3320-9"
         style="stop-color:#ffffff;stop-opacity:0.376"
         offset="0.0952381" />
      <stop
         offset="1"
         style="stop-color:#ffffff;stop-opacity:0.15686275;"
         id="stop3322-2" />
    </linearGradient>
    <linearGradient
       inkscape:collect="always"
       xlink:href="#linearGradient3702-501-757-486"
       id="linearGradient4508"
       gradientUnits="userSpaceOnUse"
       gradientTransform="matrix(3.1428572,0,0,1.2857143,-11.428573,-2.428572)"
       x1="25.058096"
       y1="47.027729"
       x2="25.058096"
       y2="39.999443" />
  </defs>
  <sodipodi:namedview
     id="base"
     pagecolor="#ffffff"
     bordercolor="#666666"
     borderopacity="1.0"
     inkscape:pageopacity="0.0"
     inkscape:pageshadow="2"
     inkscape:zoom="32"
     inkscape:cx="78.279334"
     inkscape:cy="62.777414"
     inkscape:current-layer="layer1"
     showgrid="false"
     inkscape:document-units="px"
     inkscape:grid-bbox="true"
     inkscape:window-width="1366"
     inkscape:window-height="718"
     inkscape:window-x="0"
     inkscape:window-y="25"
     inkscape:window-maximized="1"
     inkscape:snap-bbox="true"
     inkscape:bbox-paths="true"
     inkscape:snap-bbox-edge-midpoints="true"
     inkscape:bbox-nodes="true"
     inkscape:snap-global="true">
    <inkscape:grid
       type="xygrid"
       id="grid4117" />
  </sodipodi:namedview>
  <metadata
     id="metadata3177">
    <rdf:RDF>
      <cc:Work
         rdf:about="">
        <dc:format>image/svg+xml</dc:format>
        <dc:type
           rdf:resource="http://purl.org/dc/dcmitype/StillImage" />
        <dc:title />
      </cc:Work>
    </rdf:RDF>
  </metadata>
  <g
     id="layer1"
     inkscape:label="Layer 1"
     inkscape:groupmode="layer"
     transform="translate(0,64)">
    <g
       inkscape:label="Layer 1"
       id="layer1-3">
      <g
         id="g4281">
        <rect
           style="opacity:0.4;fill:url(#radialGradient3170-2);fill-opacity:1;stroke:none"
           id="rect2801-4"
           y="49"
           x="108"
           height="8.999999"
           width="6" />
        <rect
           style="opacity:0.4;fill:url(#radialGradient3123-1);fill-opacity:1;stroke:none"
           id="rect3696-9"
           transform="scale(-1,-1)"
           y="-58"
           x="-20"
           height="8.999999"
           width="6" />
        <rect
           style="opacity:0.4;fill:url(#linearGradient4508);fill-opacity:1;stroke:none"
           id="rect3700-6"
           y="49"
           x="20"
           height="9"
           width="88" />
        <path
           inkscape:connector-curvature="0"
           style="display:inline;fill:url(#linearGradient3096-1);fill-opacity:1;stroke:none;stroke-width:0.99992186;stroke-linecap:butt;stroke-linejoin:round;stroke-miterlimit:4;stroke-dasharray:none;stroke-dashoffset:0;stroke-opacity:1"
           id="path4160-04"
           d="m 18,-61.999553 c 21.081878,0 91.99989,0.007 91.99989,0.007 L 110,54 c 0,0 -61.333339,0 -91.999999,0 0,-38.666659 0,-77.333315 0,-115.99997 z"
           sodipodi:nodetypes="ccccc" />
        <path
           style="fill:none;stroke:url(#linearGradient3093-8);stroke-width:1;stroke-linecap:round;stroke-linejoin:round;stroke-miterlimit:4;stroke-dasharray:none;stroke-dashoffset:0;stroke-opacity:1"
           d="m 109.5,53.5 -91,0 0,-115.000003 91,0 z"
           id="rect6741-1-5"
           inkscape:connector-curvature="0"
           sodipodi:nodetypes="ccccc" />
        <path
           inkscape:connector-curvature="0"
           style="display:inline;fill:none;fill-opacity:1;stroke:#000000;stroke-width:0.99992186;stroke-linecap:butt;stroke-linejoin:round;stroke-miterlimit:4;stroke-dasharray:none;stroke-dashoffset:0;stroke-opacity:0.35294118"
           id="path4160-0"
           d="m 17.499961,-62.500039 c 21.311062,0 93.000029,0.007 93.000029,0.007 l 1.1e-4,116.992629 c 0,0 -62.000097,0 -93.000138,0 0,-39.00003 0,-78.000055 0,-117.00008 z"
           sodipodi:nodetypes="ccccc" />
      </g>
    </g>
    <g
       id="g4390"
       transform="translate(0,-1)"
       style="fill-opacity:1;fill:#000000;opacity:0.4">
      <path
         sodipodi:nodetypes="cccccccccccccccccccccccccccccccccccccccccccccccccccccccccccccccccccccccccccccccccccccccccccccccccccccccccccccccccccccccccccccccccccccccccccccccccccccc"
         id="path4149"
         d="m 30,-19 0,1 7,0 0,-1 z m 9,0 0,1 4,0 0,-1 z m 6,0 0,1 4,0 0,-1 z m 5.999999,0 0,1 2,0 0,-1 z m 4,0 0,1 3,0 0,-1 z m 5.000002,0 0,1 L 73,-18 73,-19 Z M 30,-15 l 0,1 9,0 0,-1 z m 11,0 0,1 5,0 0,-1 z m 7,0 0,1 1.999999,0 0,-1 z m 2.999999,0 0,1 3,0 0,-1 z m 5,0 0,1 3.000002,0 0,-1 z M 30,-11 l 0,1 10,0 0,-1 z m 12,0 0,1 11.999999,0 0,-1 z m -12,4.0000006 0,1 5,0 0,-1 z m 7,0 0,1 6,0 0,-1 z m 8,0 0,1 4,0 0,-1 z m 9.999999,7.99999849 0,1.00000131 4.000002,0 0,-1.00000131 z m 6.000002,0 0,1.00000131 3.999999,0 0,-1.00000131 z m 5.999999,0 0,1.00000131 6,0 0,-1.00000131 z M 53.999999,21 l 0,1 6.000002,0 0,-1 z m 0,4 0,1 5.000002,0 0,-1 z m 7.000002,0 0,1 L 65,26 65,25 Z M 67,25 l 0,1 6,0 0,-1 z m 8.045454,0 0,1 L 77,26 77,25 Z M 79,25 l 0,1 8,0 0,-1 z m -25.000001,12 0,1 7.000002,0 0,-1 z m 9.000002,0 0,1 L 67,38 67,37 Z m 5.666665,0 0,1 5.333333,0 0,-1 z M 76,37 l 0,1 7,0 0,-1 z m 9,0 0,1 12.999998,0 0,-1 z"
         style="display:inline;fill:#000000;fill-opacity:1;stroke:none"
         inkscape:connector-curvature="0" />
      <path
         sodipodi:nodetypes="cccccccccc"
         id="path4063"
         d="m 30,-2.9999995 3e-6,1 7.999999,0 -2e-6,-1 z m 3e-6,3.9999999 0,1 7.999997,0 0,-1 z"
         style="fill:#000000;fill-opacity:1;stroke:none;display:inline"
         inkscape:connector-curvature="0" />
      <path
         sodipodi:nodetypes="cccccccccccccccccccccccccccccccccccccccccccccccccccccccccccccccccccccccccccccccc"
         id="path4061"
         d="m 40,-2.9999995 0,1 14.000002,0 -3e-6,-1 z m 0,3.9999999 0,1 12.999999,0 0,-1 z M 44,29 l 0,1 10.999999,0 0,-1 z m 13.000001,0 0,1 4,0 0,-1 z m 6,0 0,1 L 72,30 72,29 Z m 11.000001,0 0,1 7.999999,0 0,-1 z M 84,29 l 0,1 2.000001,0 0,-1 z m 4,0 0,1 1,0 0,-1 z m 3,0 0,1 5,0 0,-1 z m -43,4 0,1 1.999999,0 0,-1 z m 2.999999,0 0,1 3.000003,0 0,-1 z m 5,0 0,1 3.000002,0 0,-1 z m 5.000002,0 0,1 L 67,34 67,33 Z M 69,33 l 0,1 8,0 0,-1 z m 10,0 0,1 6,0 0,-1 z m 8,0 0,1 1,0 0,-1 z"
         style="fill:#000000;fill-opacity:1;stroke:none;display:inline"
         inkscape:connector-curvature="0" />
      <path
         sodipodi:nodetypes="ccccc"
         d="m 30,37 8,0 0,1 -8,0 z"
         id="path4009"
         style="fill:#000000;fill-opacity:1;stroke:none;display:inline"
         inkscape:connector-curvature="0" />
      <path
         sodipodi:nodetypes="cccccccccccccccccccccccccccccccccccccccccccccccccc"
         id="path4007"
         d="m 39,5.0000003 0,1 5,0 0,-1 z M 30,9.0000002 30,10 33,10 33,9.0000002 Z M 39,13 l 0,1 4,0 0,-1 z m 1,4 0,1 6,0 0,-1 z m -1,4 0,1 4,0 0,-1 z m -2,4 0,1 5,0 0,-1 z m -7,4 0,1 12,0 0,-1 z m 0,4 0,1 9,0 0,-1 z m 11,0 0,1 5,0 0,-1 z m -1,4 0,1 9,0 0,-1 z"
         style="fill:#000000;fill-opacity:1;stroke:none;display:inline"
         inkscape:connector-curvature="0" />
      <path
         sodipodi:nodetypes="ccccccccccccccccccccccccc"
         id="path5302"
         d="m 30,5.0000003 0,1 7,0 0,-1 z M 30,13 l 0,1 7,0 0,-1 z m 0,4 0,1 8,0 0,-1 z m 0,4 0,1 7,0 0,-1 z m 0,4 0,1 5,0 0,-1 z"
         style="fill:#000000;fill-opacity:1;stroke:none;display:inline"
         inkscape:connector-curvature="0" />
      <path
         sodipodi:nodetypes="cccccccccccccccccccccccccccccccccccccccccccccccccccccccccccccccccccccc"
         id="path4061-9"
         d="m 44,-27 0,1 10.999999,0 0,-1 z m 13.000001,0 0,1 4,0 0,-1 z m 6,0 0,1 L 72,-26 72,-27 Z M 74,-27 l 0,1 8,0 0,-1 z m 10,0 0,1 2,0 0,-1 z m 4,0 0,1 1,0 0,-1 z m 3,0 0,1 4.999997,0 0,-1 z m -43,4 0,1 1.999999,0 0,-1 z m 2.999999,0 0,1 3.000003,0 0,-1 z m 5,0 0,1 3.000002,0 0,-1 z m 5.000002,0 0,1 L 67,-22 67,-23 Z M 69,-23 l 0,1 8,0 0,-1 z m 10,0 0,1 6,0 0,-1 z m 8,0 0,1 1,0 0,-1 z"
         style="fill:#000000;fill-opacity:1;stroke:none;display:inline"
         inkscape:connector-curvature="0" />
      <path
         sodipodi:nodetypes="ccccccccccccccc"
         id="path4007-8"
         d="m 30,-27 0,1 12,0 0,-1 z m 0,4 0,1 9,0 0,-1 z m 11,0 0,1 5,0 0,-1 z"
         style="fill:#000000;fill-opacity:1;stroke:none;display:inline"
         inkscape:connector-curvature="0" />
      <path
         sodipodi:nodetypes="ccccccccccccccccccccccccc"
         id="path4149-1"
         d="m 30,-31 0,1 7.000002,0 0,-1 z m 9.000002,0 0,1 3.999999,0 0,-1 z m 5.666665,0 0,1 5.333333,0 0,-1 z m 7.333334,0 0,1 7,0 0,-1 z m 9,0 0,1 12.999998,0 0,-1 z"
         style="fill:#000000;fill-opacity:1;stroke:none;display:inline"
         inkscape:connector-curvature="0" />
      <path
         sodipodi:nodetypes="ccccc"
         d="m 30,-35 8,0 0,1 -8,0 z"
         id="path4009-1"
         style="fill:#000000;fill-opacity:1;stroke:none;display:inline"
         inkscape:connector-curvature="0" />
      <path
         sodipodi:nodetypes="ccccc"
         d="m 40,-35 12,0 0,1 -12,0 z"
         id="path4009-6"
         style="fill:#000000;fill-opacity:1;stroke:none;display:inline"
         inkscape:connector-curvature="0" />
      <path
         sodipodi:nodetypes="ccccc"
         d="m 54,-35 4,0 0,1 -4,0 z"
         id="path4009-7"
         style="fill:#000000;fill-opacity:1;stroke:none;display:inline"
         inkscape:connector-curvature="0" />
      <path
         sodipodi:nodetypes="ccccc"
         d="m 61,-35 3,0 0,1 -3,0 z"
         id="path4009-2"
         style="fill:#000000;fill-opacity:1;stroke:none;display:inline"
         inkscape:connector-curvature="0" />
      <path
         sodipodi:nodetypes="ccccc"
         d="m 73,-35 8,0 0,1 -8,0 z"
         id="path4009-3"
         style="fill:#000000;fill-opacity:1;stroke:none;display:inline"
         inkscape:connector-curvature="0" />
      <path
         sodipodi:nodetypes="ccccc"
         d="m 30,-39 4,0 0,1 -4,0 z"
         id="path4009-1-2"
         style="fill:#000000;fill-opacity:1;stroke:none;display:inline"
         inkscape:connector-curvature="0" />
      <path
         sodipodi:nodetypes="cccccccccc"
         id="path4061-9-8"
         d="m 44,-43 0,1 10.999999,0 0,-1 z m 13.000001,0 0,1 4,0 0,-1 z"
         style="fill:#000000;fill-opacity:1;stroke:none;display:inline"
         inkscape:connector-curvature="0" />
      <path
         sodipodi:nodetypes="ccccc"
         id="path4007-8-0"
         d="m 30,-43 0,1 12,0 0,-1 z"
         style="fill:#000000;fill-opacity:1;stroke:none;display:inline"
         inkscape:connector-curvature="0" />
    </g>
    <g
       id="g3942"
       transform="matrix(1.9847122,0,0,2.0101038,0.22854104,-64.523717)" />
    <g
       id="g4552">
      <path
         style="color:#000000;font-style:normal;font-variant:normal;font-weight:bold;font-stretch:normal;font-size:29.91349983px;line-height:125%;font-family:'Droid Sans';-inkscape-font-specification:'Droid Sans Bold';letter-spacing:0px;word-spacing:0px;display:inline;overflow:visible;visibility:visible;fill:url(#radialGradient3285);fill-opacity:1;fill-rule:nonzero;stroke:#960000;stroke-width:0.99999434;stroke-linecap:butt;stroke-linejoin:round;stroke-miterlimit:4;stroke-dashoffset:0;stroke-opacity:1;marker:none;enable-background:accumulate"
         d="m 36.496834,15.500023 c -2e-6,-0.920963 0.123886,-1.694966 0.371666,-2.322014 0.266828,-0.646628 0.628961,-1.165894 1.086399,-1.557806 0.457425,-0.39189 0.991096,-0.676016 1.60101,-0.852381 0.609902,-0.176346 1.267459,-0.264525 1.972675,-0.264533 0.667078,8e-6 1.296043,0.08818 1.886902,0.264533 0.609898,0.176367 1.143567,0.460491 1.601011,0.852381 0.457419,0.391912 0.819551,0.911178 1.0864,1.557806 0.266823,0.627048 0.400239,1.401051 0.400253,2.322014 -1.4e-5,0.881778 -0.133432,1.636184 -0.400253,2.263224 -0.266849,0.627044 -0.628981,1.14631 -1.0864,1.557802 -0.457444,0.411499 -0.991113,0.705422 -1.601011,0.881779 -0.590859,0.195944 -1.219824,0.293925 -1.886902,0.293925 -0.705216,0 -1.362773,-0.09795 -1.972675,-0.293925 -0.609914,-0.176375 -1.143585,-0.47028 -1.60101,-0.881779 -0.457438,-0.411492 -0.819571,-0.930758 -1.086399,-1.557802 -0.24778,-0.62704 -0.371668,-1.381446 -0.371666,-2.263224"
         id="path3352-7"
         inkscape:connector-curvature="0" />
      <path
         style="color:#000000;font-style:normal;font-variant:normal;font-weight:bold;font-stretch:normal;font-size:29.91349983px;line-height:125%;font-family:'Droid Sans';-inkscape-font-specification:'Droid Sans Bold';letter-spacing:0px;word-spacing:0px;display:inline;overflow:visible;visibility:visible;opacity:0.5;fill:none;stroke:url(#linearGradient3283);stroke-width:0.99999434;stroke-linecap:butt;stroke-linejoin:round;stroke-miterlimit:4;stroke-dashoffset:0;stroke-opacity:1;marker:none;enable-background:accumulate"
         d="m 37.495738,15.50027 c -4e-6,-0.736534 0.09914,-1.355544 0.297461,-1.85702 0.213561,-0.517142 0.503388,-0.932423 0.869496,-1.245855 0.366098,-0.313413 0.79322,-0.540643 1.281364,-0.681686 0.488132,-0.141009 1.014408,-0.211567 1.578825,-0.211567 0.533893,6e-6 1.037286,0.07051 1.510179,0.211567 0.48813,0.141029 0.915252,0.368273 1.281364,0.681686 0.366094,0.313432 0.655928,0.728713 0.869497,1.245855 0.213561,0.501476 0.32033,1.120486 0.32034,1.85702 -10e-6,0.705203 -0.106817,1.308535 -0.32034,1.810008 -0.213561,0.501479 -0.503403,0.916758 -0.869497,1.245852 -0.366112,0.329091 -0.793234,0.56416 -1.281364,0.705199 -0.472893,0.156688 -0.976286,0.23505 -1.510179,0.23505 -0.564417,0 -1.090693,-0.07835 -1.578825,-0.23505 C 39.455915,19.1203 39.028793,18.885221 38.662695,18.55613 38.296587,18.227036 38.006756,17.811757 37.793199,17.310278 37.594886,16.808805 37.495734,16.205473 37.495738,15.50027"
         id="path3352-4-8"
         inkscape:connector-curvature="0" />
      <g
         id="text3042"
         style="font-style:normal;font-variant:normal;font-weight:bold;font-stretch:normal;font-size:20px;line-height:125%;font-family:'Droid Sans';-inkscape-font-specification:'Droid Sans Bold';letter-spacing:0px;word-spacing:0px;fill:url(#radialGradient3279);fill-opacity:1;stroke:url(#linearGradient3825);stroke-width:0.50065613"
         transform="matrix(1.9847122,0,0,2.0101038,15.113883,-47.437835)">
        <path
           id="path3817"
           style="font-size:32px;fill:url(#radialGradient3275);fill-opacity:1;stroke:#960000;stroke-width:0.50065613;stroke-opacity:1"
           d="m 24.883345,24.820432 c -6e-6,1.720054 0.331331,2.96821 0.825731,3.843677 0.494386,0.865177 1.571169,1.154169 2.313513,1.154169 0.742344,0 1.601293,-0.294109 2.095691,-1.169591 0.494388,-0.875463 0.811188,-1.931943 0.811201,-3.828255 -1.3e-5,-1.720037 -0.21605,-2.902887 -0.710431,-3.747473 -0.494405,-0.85486 -1.517638,-1.204416 -2.317744,-1.204416 -0.800106,0 -1.819485,0.354691 -2.308619,1.204416 -0.489134,0.849725 -0.70951,2.027436 -0.709504,3.747473 m 11.085582,0 c -1.8e-5,1.441963 -0.189359,2.719122 -0.568026,3.831482 -0.368182,1.11237 -0.90465,2.049639 -1.609407,2.811813 -0.69427,0.762178 -1.546308,1.34411 -2.556118,1.745796 -0.999317,0.391388 -2.124848,0.587082 -3.376599,0.587082 -1.167617,0 -2.240554,-0.195694 -3.218814,-0.587082 -0.978272,-0.401686 -1.825051,-0.983618 -2.540339,-1.745796 -0.704776,-0.762174 -1.257023,-1.699443 -1.656743,-2.811813 -0.399723,-1.11236 -0.599585,-2.389519 -0.599583,-3.831482 -2e-6,-1.431645 0.184081,-2.703656 0.552248,-3.816032 0.378681,-1.112352 0.91515,-2.044473 1.609407,-2.796364 0.704768,-0.762161 1.556806,-1.338943 2.556117,-1.730347 0.999298,-0.391371 2.13009,-0.587064 3.392378,-0.587082 1.167598,1.8e-5 2.240535,0.195711 3.218814,0.587082 0.978253,0.391404 1.819773,0.968186 2.524561,1.730347 0.715275,0.751891 1.272782,1.684012 1.672521,2.796364 0.399704,1.112376 0.599565,2.384387 0.599583,3.816032"
           inkscape:connector-curvature="0"
           sodipodi:nodetypes="cczscczzcccccsccsscccccccc" />
      </g>
      <g
         transform="matrix(1.7400217,0,0,1.7640091,22.275935,-41.080719)"
         style="font-style:normal;font-variant:normal;font-weight:bold;font-stretch:normal;font-size:20px;line-height:125%;font-family:'Droid Sans';-inkscape-font-specification:'Droid Sans Bold';letter-spacing:0px;word-spacing:0px;fill:none;stroke:url(#linearGradient3853);stroke-width:0.57078141;stroke-opacity:1"
         id="g3835">
        <path
           sodipodi:nodetypes="zzzzzzzzzz"
           inkscape:connector-curvature="0"
           d="m 27.788159,30.980264 c 3.81384,0 3.935047,-4.679492 4.006885,-6.256605 0.07184,-1.577113 -0.16345,-6.310648 -4.042069,-6.310648 -3.878619,0 -4.190587,4.408576 -4.118749,6.335702 0.07184,1.927126 0.340093,6.231551 4.153933,6.231551 z m 0.108026,3.32039 c -5.518188,0 -8.76429,-3.637524 -8.76429,-9.491511 0,-5.853986 2.899502,-9.698731 8.733342,-9.698731 5.833839,0 8.432055,4.446438 8.432055,9.677359 0,5.230923 -2.882919,9.512883 -8.401107,9.512883 z"
           style="font-size:32px;fill:none;stroke:url(#linearGradient3855);stroke-width:0.65072888;stroke-opacity:1"
           id="path3837" />
      </g>
    </g>
  </g>
</svg>
