<?xml version="1.0" encoding="UTF-8" standalone="no"?>
<!-- Created with Inkscape (http://www.inkscape.org/) -->

<svg
   xmlns:dc="http://purl.org/dc/elements/1.1/"
   xmlns:cc="http://creativecommons.org/ns#"
   xmlns:rdf="http://www.w3.org/1999/02/22-rdf-syntax-ns#"
   xmlns:svg="http://www.w3.org/2000/svg"
   xmlns="http://www.w3.org/2000/svg"
   xmlns:xlink="http://www.w3.org/1999/xlink"
   xmlns:sodipodi="http://sodipodi.sourceforge.net/DTD/sodipodi-0.dtd"
   xmlns:inkscape="http://www.inkscape.org/namespaces/inkscape"
   width="128"
   height="128"
   id="svg3909"
   version="1.1"
   inkscape:version="0.91 r13725"
   sodipodi:docname="audio-x-smart-playlist.svg">
  <defs
     id="defs3911">
    <linearGradient
       id="linearGradient4267">
      <stop
         id="stop4269"
         style="stop-color:#c4c4c4;stop-opacity:1"
         offset="0" />
      <stop
         id="stop4271"
         style="stop-color:#c4c4c4;stop-opacity:0"
         offset="1" />
    </linearGradient>
    <linearGradient
       id="linearGradient8589">
      <stop
         id="stop8591"
         style="stop-color:#fefefe;stop-opacity:1"
         offset="0" />
      <stop
         id="stop8593"
         style="stop-color:#cbcbcb;stop-opacity:1"
         offset="1" />
    </linearGradient>
    <linearGradient
       id="linearGradient3211">
      <stop
         id="stop3213"
         style="stop-color:#ffffff;stop-opacity:1"
         offset="0" />
      <stop
         id="stop3215"
         style="stop-color:#ffffff;stop-opacity:0"
         offset="1" />
    </linearGradient>
    <radialGradient
       cx="102"
       cy="112.3047"
       r="139.55859"
       id="radialGradient2532"
       gradientUnits="userSpaceOnUse">
      <stop
         id="stop2534"
         style="stop-color:#000000;stop-opacity:1"
         offset="0" />
      <stop
         id="stop2536"
         style="stop-color:#000000;stop-opacity:1"
         offset="0.18851049" />
      <stop
         id="stop2538"
         style="stop-color:#000000;stop-opacity:0"
         offset="0.25718147" />
      <stop
         id="stop2540"
         style="stop-color:#000000;stop-opacity:0"
         offset="1" />
    </radialGradient>
    <linearGradient
       x1="302.85715"
       y1="366.64789"
       x2="302.85715"
       y2="609.50507"
       id="linearGradient2483"
       xlink:href="#linearGradient5048"
       gradientUnits="userSpaceOnUse"
       gradientTransform="matrix(0.1725148,0,0,0.03920058,0.6482238,98.773724)" />
    <linearGradient
       id="linearGradient5048">
      <stop
         id="stop5050"
         style="stop-color:#000000;stop-opacity:0"
         offset="0" />
      <stop
         id="stop5056"
         style="stop-color:#000000;stop-opacity:1"
         offset="0.5" />
      <stop
         id="stop5052"
         style="stop-color:#000000;stop-opacity:0"
         offset="1" />
    </linearGradient>
    <radialGradient
       cx="605.71429"
       cy="486.64789"
       r="117.14286"
       fx="605.71429"
       fy="486.64789"
       id="radialGradient2485"
       xlink:href="#linearGradient5060"
       gradientUnits="userSpaceOnUse"
       gradientTransform="matrix(-0.05903807,0,0,0.03920058,56.929907,98.773804)" />
    <linearGradient
       id="linearGradient5060">
      <stop
         id="stop5062"
         style="stop-color:#000000;stop-opacity:1"
         offset="0" />
      <stop
         id="stop5064"
         style="stop-color:#000000;stop-opacity:0"
         offset="1" />
    </linearGradient>
    <linearGradient
       id="linearGradient3242-593-605-251-305-8">
      <stop
         id="stop3942"
         style="stop-color:#d391bf;stop-opacity:1"
         offset="0" />
      <stop
         id="stop3944"
         style="stop-color:#bf69b9;stop-opacity:1"
         offset="0.26238" />
      <stop
         id="stop3946"
         style="stop-color:#98439e;stop-opacity:1"
         offset="0.66093999" />
      <stop
         id="stop3948"
         style="stop-color:#5c2f6f;stop-opacity:1"
         offset="1" />
    </linearGradient>
    <linearGradient
       id="linearGradient3332-412-419-652-471-847">
      <stop
         id="stop3952"
         style="stop-color:#620f59;stop-opacity:1"
         offset="0" />
      <stop
         id="stop3954"
         style="stop-color:#a6599f;stop-opacity:1"
         offset="1" />
    </linearGradient>
    <linearGradient
       y2="42.194839"
       x2="23.99999"
       y1="5.5641499"
       x1="23.99999"
       gradientTransform="matrix(2.4594595,0,0,3.1081081,4.9729852,-78.594559)"
       gradientUnits="userSpaceOnUse"
       id="linearGradient3016"
       xlink:href="#linearGradient3874"
       inkscape:collect="always" />
    <linearGradient
       id="linearGradient3977">
      <stop
         offset="0"
         style="stop-color:#ffffff;stop-opacity:1"
         id="stop3979" />
      <stop
         offset="0.00648027"
         style="stop-color:#ffffff;stop-opacity:0.23529412"
         id="stop3981" />
      <stop
         offset="0.99423188"
         style="stop-color:#ffffff;stop-opacity:0.15686275"
         id="stop3983" />
      <stop
         offset="1"
         style="stop-color:#ffffff;stop-opacity:0.39215687"
         id="stop3985" />
    </linearGradient>
    <radialGradient
       r="12.671875"
       fy="9.9571075"
       fx="7.2758255"
       cy="9.9571075"
       cx="7.8060555"
       gradientTransform="matrix(-4.2496832e-7,17.402687,-21.270906,-5.2238183e-7,275.76849,-221.66446)"
       gradientUnits="userSpaceOnUse"
       id="radialGradient3080"
       xlink:href="#linearGradient2867-449-88-871-390-598-476-591-434-148-57-177-8-3"
       inkscape:collect="always" />
    <linearGradient
       id="linearGradient2867-449-88-871-390-598-476-591-434-148-57-177-8-3">
      <stop
         offset="0"
         style="stop-color:#90dbec;stop-opacity:1"
         id="stop3750-1-0" />
      <stop
         offset="0.26238"
         style="stop-color:#55c1ec;stop-opacity:1"
         id="stop3752-3-7" />
      <stop
         offset="0.704952"
         style="stop-color:#3689e6;stop-opacity:1"
         id="stop3754-1-8" />
      <stop
         offset="1"
         style="stop-color:#2b63a0;stop-opacity:1"
         id="stop3756-1-6" />
    </linearGradient>
    <linearGradient
       y2="39.999443"
       x2="25.058096"
       y1="47.027729"
       x1="25.058096"
       gradientTransform="matrix(3.1428572,0,0,1.2857143,-11.428573,-2.428572)"
       gradientUnits="userSpaceOnUse"
       id="linearGradient3024"
       xlink:href="#linearGradient3702-501-757-486"
       inkscape:collect="always" />
    <linearGradient
       id="linearGradient3702-501-757-486">
      <stop
         offset="0"
         style="stop-color:#181818;stop-opacity:0"
         id="stop3100" />
      <stop
         offset="0.5"
         style="stop-color:#181818;stop-opacity:1"
         id="stop3102" />
      <stop
         offset="1"
         style="stop-color:#181818;stop-opacity:0"
         id="stop3104" />
    </linearGradient>
    <radialGradient
       r="2.5"
       fy="43.5"
       fx="4.9929786"
       cy="43.5"
       cx="4.9929786"
       gradientTransform="matrix(2.4045407,0,0,1.7999999,-32.014243,-131.8)"
       gradientUnits="userSpaceOnUse"
       id="radialGradient3027"
       xlink:href="#linearGradient3688-464-309-255"
       inkscape:collect="always" />
    <linearGradient
       id="linearGradient3688-464-309-255">
      <stop
         offset="0"
         style="stop-color:#181818;stop-opacity:1"
         id="stop3094" />
      <stop
         offset="1"
         style="stop-color:#181818;stop-opacity:0"
         id="stop3096" />
    </linearGradient>
    <radialGradient
       inkscape:collect="always"
       xlink:href="#linearGradient3688-464-309-255"
       id="radialGradient3914"
       gradientUnits="userSpaceOnUse"
       gradientTransform="matrix(2.4045407,0,0,1.7999999,95.985757,-24.799999)"
       cx="4.9929786"
       cy="43.5"
       fx="4.9929786"
       fy="43.5"
       r="2.5" />
    <linearGradient
       id="linearGradient3977-4">
      <stop
         offset="0"
         style="stop-color:#ffffff;stop-opacity:1"
         id="stop3979-7" />
      <stop
         offset="0.01214366"
         style="stop-color:#ffffff;stop-opacity:0.23529412"
         id="stop3981-6" />
      <stop
         offset="0.98781353"
         style="stop-color:#ffffff;stop-opacity:0.15686275"
         id="stop3983-5" />
      <stop
         offset="1"
         style="stop-color:#ffffff;stop-opacity:0.39215687"
         id="stop3985-6" />
    </linearGradient>
    <linearGradient
       id="linearGradient3874">
      <stop
         offset="0"
         style="stop-color:#ffffff;stop-opacity:1"
         id="stop3876" />
      <stop
         offset="0.04870163"
         style="stop-color:#ffffff;stop-opacity:0.23529412"
         id="stop3878" />
      <stop
         id="stop4275"
         style="stop-color:#ffffff;stop-opacity:0"
         offset="0.95031375" />
      <stop
         offset="1"
         style="stop-color:#000000;stop-opacity:0.05882353"
         id="stop3882" />
    </linearGradient>
  </defs>
  <sodipodi:namedview
     id="base"
     pagecolor="#ffffff"
     bordercolor="#666666"
     borderopacity="1.0"
     inkscape:pageopacity="0.0"
     inkscape:pageshadow="2"
     inkscape:zoom="1"
     inkscape:cx="37.603682"
     inkscape:cy="53.668024"
     inkscape:current-layer="layer1"
     showgrid="true"
     inkscape:document-units="px"
     inkscape:grid-bbox="true"
     inkscape:window-width="1366"
     inkscape:window-height="718"
     inkscape:window-x="0"
     inkscape:window-y="25"
     inkscape:window-maximized="1" />
  <metadata
     id="metadata3914">
    <rdf:RDF>
      <cc:Work
         rdf:about="">
        <dc:format>image/svg+xml</dc:format>
        <dc:type
           rdf:resource="http://purl.org/dc/dcmitype/StillImage" />
        <dc:title />
      </cc:Work>
    </rdf:RDF>
  </metadata>
  <g
     id="layer1"
     inkscape:label="Layer 1"
     inkscape:groupmode="layer"
     transform="translate(0,64)">
    <g
       inkscape:label="Layer 1"
       id="layer1-2">
      <rect
         width="6"
         height="8.999999"
         x="108"
         y="49"
         id="rect2801"
         style="opacity:0.4;fill:url(#radialGradient3914);fill-opacity:1;stroke:none" />
      <rect
         width="6"
         height="8.999999"
         x="-20"
         y="-58"
         transform="scale(-1,-1)"
         id="rect3696"
         style="opacity:0.4;fill:url(#radialGradient3027);fill-opacity:1;stroke:none" />
      <rect
         width="88"
         height="9"
         x="20"
         y="49"
         id="rect3700"
         style="opacity:0.4;fill:url(#linearGradient3024);fill-opacity:1;stroke:none" />
      <path
         d="m 18,-62 c 21.081871,0 91.99988,0.0075 91.99988,0.0075 L 110,54 c 0,0 -61.333333,0 -92,0 0,-38.666642 0,-77.333273 0,-115.999913 z"
         inkscape:connector-curvature="0"
         id="path4160-8"
         style="color:#000000;display:inline;overflow:visible;visibility:visible;fill:url(#radialGradient3080);fill-opacity:1;fill-rule:nonzero;stroke:none;stroke-width:1;marker:none;enable-background:accumulate" />
      <path
         d="m 109.5,53.5 -91,0 0,-115.000003 91,0 z"
         inkscape:connector-curvature="0"
         id="rect6741-1"
         style="opacity:0.6;fill:none;stroke:url(#linearGradient3016);stroke-width:1;stroke-linecap:round;stroke-linejoin:round;stroke-miterlimit:4;stroke-dasharray:none;stroke-dashoffset:0;stroke-opacity:1" />
      <path
         d="m 17.499929,-62.499588 c 21.311061,0 93.000031,0.007 93.000031,0.007 l 1.1e-4,116.992628 c 0,0 -62.0001,0 -93.00014,0 0,-39.000029 0,-78.000054 0,-117.000079 z"
         inkscape:connector-curvature="0"
         id="path4160-4"
         style="display:inline;opacity:1;fill:none;stroke:#00284f;stroke-width:0.99992186;stroke-linecap:butt;stroke-linejoin:round;stroke-miterlimit:4;stroke-dasharray:none;stroke-dashoffset:0;stroke-opacity:0.68235294" />
      <g
         transform="matrix(3,0,0,3,40,-29)"
         style="color:#000000;display:inline;overflow:visible;visibility:visible;opacity:0.25;fill:#000000;fill-opacity:1;fill-rule:nonzero;stroke:none;stroke-width:1.70000005;marker:none;enable-background:accumulate"
         id="g12587-31-2-0-53" />
      <g
         transform="matrix(3,0,0,3,40,-28)"
         style="color:#000000;display:inline;overflow:visible;visibility:visible;fill:#ffffff;fill-opacity:1;fill-rule:nonzero;stroke:none;stroke-width:1.70000005;marker:none;enable-background:accumulate"
         id="g12587-31-2-0" />
    </g>
    <path
       inkscape:connector-curvature="0"
       d="m 60,-35 c -0.554,0 -1,0.446 -1,1 l 0,7.53125 c -2.917284,0.61801 -5.610077,1.770601 -8.03125,3.34375 L 45.625,-28.46875 C 45.429131,-28.664619 45.161869,-28.75 44.90625,-28.75 c -0.255619,0 -0.522881,0.08538 -0.71875,0.28125 l -5.65625,5.65625 c -0.391737,0.391737 -0.391739,1.045762 0,1.4375 l 5.34375,5.34375 c -1.573149,2.421173 -2.72574,5.113966 -3.34375,8.0312502 l -7.53125,0 c -0.554,0 -1,0.446 -1,1 l 0,8 c 0,0.554 0.446,1 1,1 l 7.53125,0 C 41.14926,4.917284 42.301851,7.610077 43.875,10.03125 L 38.53125,15.375 c -0.391737,0.391737 -0.391739,1.04576 0,1.4375 l 5.65625,5.65625 c 0.391737,0.391737 1.045761,0.391736 1.4375,0 L 50.96875,17.125 C 53.389923,18.698149 56.082716,19.85074 59,20.46875 L 59,28 c 0,0.554 0.446,1 1,1 l 8,0 c 0.554,0 1,-0.446 1,-1 l 0,-7.53125 c 2.917284,-0.61801 5.610077,-1.770601 8.03125,-3.34375 l 5.34375,5.34375 c 0.391737,0.391737 1.04576,0.391736 1.4375,0 l 5.65625,-5.65625 c 0.391737,-0.391737 0.391736,-1.045765 0,-1.4375 L 84.125,10.03125 c 1.573149,-2.421173 2.72574,-5.113966 3.34375,-8.0312498 l 7.53125,0 c 0.554,0 1,-0.446 1,-1 l 0,-8 c 0,-0.554 -0.446,-1 -1,-1 l -7.53125,0 C 86.85074,-10.917284 85.698149,-13.610077 84.125,-16.03125 l 5.34375,-5.34375 c 0.391737,-0.391737 0.391735,-1.045762 0,-1.4375 l -5.65625,-5.65625 c -0.391737,-0.391737 -1.045765,-0.391738 -1.4375,0 L 77.03125,-23.125 C 74.610077,-24.698149 71.917284,-25.85074 69,-26.46875 L 69,-34 c 0,-0.554 -0.446,-1 -1,-1 l -8,0 z m 4,21 c 6.072,0 11,4.9280002 11,11.0000002 C 75,3.0720002 70.072,8 64,8 57.928,8 53,3.0720002 53,-2.9999998 53,-9.0719998 57.928,-14 64,-14 Z"
       id="path2502"
       style="color:#000000;display:inline;overflow:visible;visibility:visible;opacity:0.25;fill:#000000;fill-opacity:1;fill-rule:nonzero;stroke:none;stroke-width:1.70000005;marker:none;enable-background:accumulate" />
    <path
       inkscape:connector-curvature="0"
       d="m 60,-34 c -0.554,0 -1,0.446 -1,1 l 0,7.53125 c -2.917284,0.61801 -5.610077,1.770601 -8.03125,3.34375 L 45.625,-27.46875 C 45.429131,-27.664619 45.161869,-27.75 44.90625,-27.75 c -0.255619,0 -0.522881,0.08538 -0.71875,0.28125 l -5.65625,5.65625 c -0.391737,0.391737 -0.391739,1.045762 0,1.4375 l 5.34375,5.34375 c -1.573149,2.421173 -2.72574,5.1139662 -3.34375,8.0312502 l -7.53125,0 c -0.554,0 -1,0.446 -1,1 l 0,8 c 0,0.554 0.446,1 1,1 l 7.53125,0 C 41.14926,5.9172842 42.301851,8.610077 43.875,11.03125 L 38.53125,16.375 c -0.391737,0.391737 -0.391739,1.04576 0,1.4375 l 5.65625,5.65625 c 0.391737,0.391737 1.045761,0.391736 1.4375,0 L 50.96875,18.125 C 53.389923,19.698149 56.082716,20.85074 59,21.46875 L 59,29 c 0,0.554 0.446,1 1,1 l 8,0 c 0.554,0 1,-0.446 1,-1 l 0,-7.53125 c 2.917284,-0.61801 5.610077,-1.770601 8.03125,-3.34375 l 5.34375,5.34375 c 0.391737,0.391737 1.04576,0.391736 1.4375,0 l 5.65625,-5.65625 c 0.391737,-0.391737 0.391736,-1.045765 0,-1.4375 L 84.125,11.03125 c 1.573149,-2.421173 2.72574,-5.1139658 3.34375,-8.0312498 l 7.53125,0 c 0.554,0 1,-0.446 1,-1 l 0,-8 c 0,-0.554 -0.446,-1 -1,-1 l -7.53125,0 C 86.85074,-9.9172838 85.698149,-12.610077 84.125,-15.03125 l 5.34375,-5.34375 c 0.391737,-0.391737 0.391735,-1.045762 0,-1.4375 l -5.65625,-5.65625 c -0.391737,-0.391737 -1.045765,-0.391738 -1.4375,0 L 77.03125,-22.125 C 74.610077,-23.698149 71.917284,-24.85074 69,-25.46875 L 69,-33 c 0,-0.554 -0.446,-1 -1,-1 l -8,0 z m 4,21 c 6.072,0 11,4.9280002 11,11.0000002 C 75,4.0720002 70.072,9 64,9 57.928,9 53,4.0720002 53,-1.9999998 53,-8.0719998 57.928,-13 64,-13 Z"
       id="rect2484"
       style="color:#000000;display:inline;overflow:visible;visibility:visible;fill:#ffffff;fill-opacity:1;fill-rule:nonzero;stroke:none;stroke-width:1.70000005;marker:none;enable-background:accumulate" />
  </g>
</svg>
