<?xml version="1.0" encoding="UTF-8" standalone="no"?>
<!-- Created with Inkscape (http://www.inkscape.org/) -->

<svg
   xmlns:dc="http://purl.org/dc/elements/1.1/"
   xmlns:cc="http://creativecommons.org/ns#"
   xmlns:rdf="http://www.w3.org/1999/02/22-rdf-syntax-ns#"
   xmlns:svg="http://www.w3.org/2000/svg"
   xmlns="http://www.w3.org/2000/svg"
   xmlns:xlink="http://www.w3.org/1999/xlink"
   xmlns:sodipodi="http://sodipodi.sourceforge.net/DTD/sodipodi-0.dtd"
   xmlns:inkscape="http://www.inkscape.org/namespaces/inkscape"
   version="1.1"
   width="24"
   height="24"
   id="svg10994"
   inkscape:version="0.48.5 r10040"
   sodipodi:docname="folder.svg">
  <sodipodi:namedview
     pagecolor="#ffffff"
     bordercolor="#666666"
     borderopacity="1"
     objecttolerance="10"
     gridtolerance="10"
     guidetolerance="10"
     inkscape:pageopacity="0"
     inkscape:pageshadow="2"
     inkscape:window-width="1366"
     inkscape:window-height="723"
     id="namedview56"
     showgrid="false"
     inkscape:zoom="8"
     inkscape:cx="8.1664768"
     inkscape:cy="-1.5730215"
     inkscape:window-x="0"
     inkscape:window-y="23"
     inkscape:window-maximized="1"
     inkscape:current-layer="svg10994"
     showguides="false"
     inkscape:guide-bbox="true"
     inkscape:snap-bbox="true"
     inkscape:bbox-nodes="true">
    <inkscape:grid
       type="xygrid"
       id="grid3141" />
    <sodipodi:guide
       orientation="0,1"
       position="3,16"
       id="guide3222" />
  </sodipodi:namedview>
  <defs
     id="defs10996">
    <linearGradient
       inkscape:collect="always"
       id="linearGradient3829">
      <stop
         style="stop-color:#000000;stop-opacity:1;"
         offset="0"
         id="stop3831" />
      <stop
         style="stop-color:#000000;stop-opacity:0;"
         offset="1"
         id="stop3833" />
    </linearGradient>
    <linearGradient
       inkscape:collect="always"
       xlink:href="#linearGradient3829"
       id="linearGradient3206"
       gradientUnits="userSpaceOnUse"
       gradientTransform="matrix(0.44999999,0,0,0.5,1.2000007,0.50000037)"
       x1="22"
       y1="11"
       x2="22"
       y2="9" />
    <linearGradient
       inkscape:collect="always"
       xlink:href="#linearGradient3927"
       id="linearGradient3209"
       gradientUnits="userSpaceOnUse"
       gradientTransform="matrix(0.48648651,0,0,0.47826084,0.5675679,0.347826)"
       x1="25"
       y1="16"
       x2="25"
       y2="39" />
    <linearGradient
       inkscape:collect="always"
       xlink:href="#linearGradient3789"
       id="linearGradient3212"
       gradientUnits="userSpaceOnUse"
       gradientTransform="matrix(0.5128205,0,0,0.52,-1.5897432,-7.0399993)"
       x1="25"
       y1="27"
       x2="25"
       y2="52" />
    <linearGradient
       inkscape:collect="always"
       xlink:href="#linearGradient3788"
       id="linearGradient3215"
       gradientUnits="userSpaceOnUse"
       gradientTransform="matrix(0.48888887,0,0,0.48387095,0.5111116,1.1612907)"
       x1="23.5"
       y1="11.033334"
       x2="23.5"
       y2="13.1" />
    <filter
       inkscape:collect="always"
       id="filter4030">
      <feGaussianBlur
         inkscape:collect="always"
         stdDeviation="0.42749999"
         id="feGaussianBlur4032" />
    </filter>
    <linearGradient
       id="linearGradient3789">
      <stop
         id="stop3791"
         offset="0"
         style="stop-color:#ffbc87;stop-opacity:1;" />
      <stop
         id="stop3793"
         offset="1"
         style="stop-color:#e86800;stop-opacity:1;" />
    </linearGradient>
    <linearGradient
       id="linearGradient3788">
      <stop
         style="stop-color:#000000;stop-opacity:0.60784316;"
         offset="0"
         id="stop3790" />
      <stop
         style="stop-color:#000000;stop-opacity:0.56862748;"
         offset="1"
         id="stop3792" />
    </linearGradient>
    <linearGradient
       id="linearGradient3927">
      <stop
         style="stop-color:#ff923b;stop-opacity:1;"
         offset="0"
         id="stop3929" />
      <stop
         style="stop-color:#f86f00;stop-opacity:1;"
         offset="1"
         id="stop3931" />
    </linearGradient>
    <linearGradient
       y2="-4"
       x2="20"
       y1="-4"
       x1="18"
       gradientTransform="matrix(-1,0,0,1,33,27)"
       gradientUnits="userSpaceOnUse"
       id="linearGradient3094"
       xlink:href="#linearGradient3930-4"
       inkscape:collect="always" />
    <linearGradient
       y2="-4"
       x2="7"
       y1="-4"
       x1="5"
       gradientTransform="translate(-1,27)"
       gradientUnits="userSpaceOnUse"
       id="linearGradient3092"
       xlink:href="#linearGradient3930"
       inkscape:collect="always" />
    <linearGradient
       id="linearGradient3930"
       inkscape:collect="always">
      <stop
         id="stop3932"
         offset="0"
         style="stop-color:#ffffff;stop-opacity:1;" />
      <stop
         id="stop3934"
         offset="1"
         style="stop-color:#ffffff;stop-opacity:0;" />
    </linearGradient>
    <linearGradient
       id="linearGradient3930-4"
       inkscape:collect="always">
      <stop
         id="stop3932-8"
         offset="0"
         style="stop-color:#ffffff;stop-opacity:1;" />
      <stop
         id="stop3934-2"
         offset="1"
         style="stop-color:#ffffff;stop-opacity:0;" />
    </linearGradient>
    <filter
       id="filter3982"
       inkscape:collect="always">
      <feGaussianBlur
         id="feGaussianBlur3984"
         stdDeviation="0.47595285"
         inkscape:collect="always" />
    </filter>
    <linearGradient
       y2="13.1"
       x2="23.5"
       y1="11.033334"
       x1="23.5"
       gradientTransform="matrix(0.66666665,0,0,0.64516133,0.3333342,17.548387)"
       gradientUnits="userSpaceOnUse"
       id="linearGradient3975"
       xlink:href="#linearGradient3788"
       inkscape:collect="always" />
    <linearGradient
       y2="52"
       x2="25"
       y1="27"
       x1="25"
       gradientTransform="matrix(0.71794137,0,0,0.72,-3.0253029,5.5600007)"
       gradientUnits="userSpaceOnUse"
       id="linearGradient3972"
       xlink:href="#linearGradient3789"
       inkscape:collect="always" />
    <linearGradient
       y2="39"
       x2="25"
       y1="16"
       x1="25"
       gradientTransform="matrix(0.70270274,0,0,0.69565213,-0.513513,14.869565)"
       gradientUnits="userSpaceOnUse"
       id="linearGradient3969"
       xlink:href="#linearGradient3927"
       inkscape:collect="always" />
    <linearGradient
       y2="9"
       x2="22"
       y1="11"
       x1="22"
       gradientTransform="matrix(0.65,0,0,1,0.40000056,13.000001)"
       gradientUnits="userSpaceOnUse"
       id="linearGradient3966"
       xlink:href="#linearGradient3829-4"
       inkscape:collect="always" />
    <linearGradient
       inkscape:collect="always"
       id="linearGradient3829-4">
      <stop
         style="stop-color:#000000;stop-opacity:1;"
         offset="0"
         id="stop3831-6" />
      <stop
         style="stop-color:#000000;stop-opacity:0;"
         offset="1"
         id="stop3833-2" />
    </linearGradient>
  </defs>
  <metadata
     id="metadata10999">
    <rdf:RDF>
      <cc:Work
         rdf:about="">
        <dc:format>image/svg+xml</dc:format>
        <dc:type
           rdf:resource="http://purl.org/dc/dcmitype/StillImage" />
        <dc:title></dc:title>
      </cc:Work>
    </rdf:RDF>
  </metadata>
  <rect
     style="opacity:0.13;fill:#000000;fill-opacity:1;stroke:#000000;stroke-width:0;stroke-miterlimit:4;stroke-opacity:1;stroke-dasharray:none;display:inline;filter:url(#filter4030)"
     id="rect3915-0"
     width="22"
     height="15.999999"
     x="1"
     y="5.7000012"
     rx="2"
     ry="2" />
  <path
     style="fill:#000000;fill-opacity:0.65882355;stroke:#000000;stroke-width:0;stroke-miterlimit:4;stroke-opacity:1;stroke-dasharray:none"
     d="M 7 2 C 5.892 2 5 2.892 5 4 C 3.892 4 3 4.892 3 6 L 3 11 C 3 12.108 3.892 13 5 13 L 19 13 C 20.108 13 21 12.108 21 11 L 21 6 C 21 4.892 20.108 4 19 4 L 12 4 C 12 2.892 11.108 2 10 2 L 7 2 z "
     id="rect3967" />
  <rect
     style="fill:#8b8b8d;fill-opacity:1;stroke:#000000;stroke-width:0;stroke-miterlimit:4;stroke-opacity:1;stroke-dasharray:none"
     id="rect3969"
     width="16"
     height="7"
     x="4"
     y="5"
     ry="1" />
  <path
     style="opacity:0.15;fill:#ffffff;fill-opacity:1;stroke:#767779;stroke-width:0;stroke-linecap:butt;stroke-linejoin:miter;stroke-miterlimit:4;stroke-opacity:1;stroke-dasharray:none;stroke-dashoffset:0;display:inline"
     d="M 6,5 6,6 5,6 C 4.446,6 4,6.446 4,7 L 4,6 C 4,5.446 4.446,5 5,5 z"
     id="rect3011-5-0"
     inkscape:connector-curvature="0"
     sodipodi:nodetypes="ccscssc" />
  <path
     style="opacity:0.15;fill:#ffffff;fill-opacity:1;stroke:#767779;stroke-width:0;stroke-linecap:butt;stroke-linejoin:miter;stroke-miterlimit:4;stroke-opacity:1;stroke-dasharray:none;stroke-dashoffset:0;display:inline"
     d="m 11,5 0,1 8,0 c 0.554,0 1,0.446 1,1 L 20,6 C 20,5.446 19.554,5 19,5 z"
     id="rect3011-5"
     inkscape:connector-curvature="0"
     sodipodi:nodetypes="ccscssc" />
  <rect
     style="fill:url(#linearGradient3215);fill-opacity:1.0;stroke:#000000;stroke-width:0;stroke-miterlimit:4;stroke-opacity:1;stroke-dasharray:none"
     id="rect3915"
     width="22"
     height="15"
     x="1"
     y="6"
     rx="2"
     ry="2" />
  <rect
     rx="1"
     style="fill:url(#linearGradient3212);fill-opacity:1.0;stroke:#000000;stroke-width:0;stroke-miterlimit:4;stroke-opacity:1;stroke-dasharray:none"
     id="rect3957"
     width="20"
     height="13"
     x="2"
     y="7"
     ry="1" />
  <rect
     style="fill:url(#linearGradient3209);fill-opacity:1.0;stroke:#000000;stroke-width:0;stroke-miterlimit:4;stroke-opacity:1;stroke-dasharray:none"
     id="rect3925"
     width="18"
     height="11"
     x="3"
     y="8"
     rx="0"
     ry="0" />
  <rect
     style="opacity:1;fill:#8b8b8d;fill-opacity:1;stroke:#767779;stroke-width:0;stroke-linecap:butt;stroke-linejoin:miter;stroke-miterlimit:4;stroke-opacity:1;stroke-dasharray:none;stroke-dashoffset:0"
     id="rect3101"
     width="5"
     height="3"
     x="6"
     y="3"
     rx="1"
     ry="1" />
  <rect
     ry="0"
     y="5"
     x="3"
     height="1"
     width="18"
     id="rect3827"
     style="opacity:0.17300002;fill:url(#linearGradient3206);fill-opacity:1;stroke:#102b68;stroke-width:0;stroke-linecap:butt;stroke-linejoin:miter;stroke-miterlimit:4;stroke-opacity:1;stroke-dasharray:none;stroke-dashoffset:0" />
  <path
     style="opacity:0.15;fill:#ffffff;fill-opacity:1;stroke:#767779;stroke-width:0;stroke-linecap:butt;stroke-linejoin:miter;stroke-miterlimit:4;stroke-opacity:1;stroke-dasharray:none;stroke-dashoffset:0;display:inline"
     d="M 7,3 C 6.446,3 6,3.446 6,4 L 6,5 C 6,4.446 6.446,4 7,4 l 3,0 c 0.554,0 1,0.446 1,1 L 11,4 C 11,3.446 10.554,3 10,3 z"
     id="rect3011"
     inkscape:connector-curvature="0"
     sodipodi:nodetypes="sscsscsss" />
  <path
     style="opacity:0.4;fill:#ffffff;fill-opacity:1;stroke:#474f56;stroke-width:0;stroke-linecap:butt;stroke-linejoin:miter;stroke-miterlimit:4;stroke-opacity:1;stroke-dasharray:none;stroke-dashoffset:0;display:inline"
     d="m 12.998776,10.042621 c -0.781991,0 -1.561367,0.300938 -2.158008,0.897579 -1.050498,1.050496 -1.181048,2.669671 -0.38195,3.857677 -0.01834,0.01373 -0.04005,0.02237 -0.05728,0.03819 l -3.151071,2.883714 c -0.249423,0.228927 -0.10571,0.753669 0.133687,0.993064 0.239395,0.239399 0.764135,0.383113 0.993063,0.133683 l 2.883708,-3.151071 c 0.01581,-0.01723 0.02444,-0.03894 0.03818,-0.05728 1.188003,0.799099 2.807181,0.668547 3.85768,-0.381952 1.193279,-1.193278 1.193279,-3.122734 0,-4.316013 -0.596645,-0.59664 -1.37602,-0.897574 -2.158011,-0.897574 z m 0,1.222235 c 0.469194,0 0.940639,0.176743 1.298624,0.534727 0.715969,0.71597 0.715969,1.881281 0,2.597247 -0.715968,0.715969 -1.881281,0.715969 -2.597246,0 -0.71597,-0.715966 -0.71597,-1.881277 0,-2.597247 0.357983,-0.357984 0.829426,-0.534726 1.298622,-0.534726 z"
     id="path3820-2-4-6"
     inkscape:connector-curvature="0" />
  <path
     style="fill:#aa4c00;fill-opacity:1;stroke:#474f56;stroke-width:0;stroke-linecap:butt;stroke-linejoin:miter;stroke-miterlimit:4;stroke-opacity:1;stroke-dasharray:none;stroke-dashoffset:0;display:inline"
     d="m 12.998776,9.0426202 c -0.781991,0 -1.561367,0.300939 -2.158008,0.89758 -1.050498,1.0504958 -1.181048,2.6696708 -0.38195,3.8576768 -0.01834,0.01373 -0.04005,0.02237 -0.05728,0.03819 l -3.151071,2.883714 c -0.249423,0.228927 -0.10571,0.753669 0.133687,0.993064 0.239395,0.239399 0.764135,0.383113 0.993063,0.133683 l 2.883708,-3.151071 c 0.01581,-0.01723 0.02444,-0.03894 0.03818,-0.05728 1.188003,0.799099 2.807181,0.668547 3.85768,-0.381952 1.193279,-1.193278 1.193279,-3.122734 0,-4.3160128 -0.596645,-0.59664 -1.37602,-0.897575 -2.158011,-0.897575 z m 0,1.2222358 c 0.469194,0 0.940639,0.176743 1.298624,0.534727 0.715969,0.71597 0.715969,1.881281 0,2.597247 -0.715968,0.715969 -1.881281,0.715969 -2.597246,0 -0.71597,-0.715966 -0.71597,-1.881277 0,-2.597247 0.357983,-0.357984 0.829426,-0.534726 1.298622,-0.534726 z"
     id="path3820-2-4"
     inkscape:connector-curvature="0" />
</svg>
