<?xml version="1.0" encoding="UTF-8" standalone="no"?>
<!-- Created with Inkscape (http://www.inkscape.org/) -->

<svg
   xmlns:osb="http://www.openswatchbook.org/uri/2009/osb"
   xmlns:dc="http://purl.org/dc/elements/1.1/"
   xmlns:cc="http://creativecommons.org/ns#"
   xmlns:rdf="http://www.w3.org/1999/02/22-rdf-syntax-ns#"
   xmlns:svg="http://www.w3.org/2000/svg"
   xmlns="http://www.w3.org/2000/svg"
   xmlns:xlink="http://www.w3.org/1999/xlink"
   xmlns:sodipodi="http://sodipodi.sourceforge.net/DTD/sodipodi-0.dtd"
   xmlns:inkscape="http://www.inkscape.org/namespaces/inkscape"
   version="1.0"
   width="24"
   height="24"
   id="svg3695"
   inkscape:version="0.91 r13725"
   sodipodi:docname="user-trash-full.svg">
  <metadata
     id="metadata11265">
    <rdf:RDF>
      <cc:Work
         rdf:about="">
        <dc:format>image/svg+xml</dc:format>
        <dc:type
           rdf:resource="http://purl.org/dc/dcmitype/StillImage" />
        <dc:title></dc:title>
      </cc:Work>
    </rdf:RDF>
  </metadata>
  <sodipodi:namedview
     pagecolor="#2a2a2a"
     bordercolor="#666666"
     borderopacity="1"
     objecttolerance="10"
     gridtolerance="10"
     guidetolerance="10"
     inkscape:pageopacity="0"
     inkscape:pageshadow="2"
     inkscape:window-width="1366"
     inkscape:window-height="718"
     id="namedview11263"
     showgrid="false"
     inkscape:snap-global="true"
     inkscape:zoom="1"
     inkscape:cx="13.79179"
     inkscape:cy="10.346133"
     inkscape:window-x="0"
     inkscape:window-y="25"
     inkscape:window-maximized="1"
     inkscape:current-layer="svg3695"
     inkscape:snap-bbox="true"
     inkscape:bbox-paths="true"
     inkscape:bbox-nodes="true"
     inkscape:snap-bbox-edge-midpoints="true"
     showguides="false"
     inkscape:guide-bbox="true"
     inkscape:object-paths="false"
     inkscape:snap-intersection-paths="false"
     inkscape:object-nodes="false"
     inkscape:snap-smooth-nodes="false"
     inkscape:snap-nodes="true">
    <inkscape:grid
       type="xygrid"
       id="grid3062"
       empspacing="5"
       visible="true"
       enabled="true"
       snapvisiblegridlinesonly="true" />
    <sodipodi:guide
       position="32,54"
       orientation="1,0"
       id="guide4298" />
    <sodipodi:guide
       position="32,42"
       orientation="1,0"
       id="guide4223" />
    <sodipodi:guide
       position="31.969826,51"
       orientation="0,1"
       id="guide4191" />
    <sodipodi:guide
       position="32,5"
       orientation="0,1"
       id="guide4193" />
    <sodipodi:guide
       position="32,58.994141"
       orientation="0,1"
       id="guide4195" />
    <sodipodi:guide
       position="8.2812502,51"
       orientation="1,0"
       id="guide4197" />
    <sodipodi:guide
       position="55.742188,50.994796"
       orientation="1,0"
       id="guide4199" />
  </sodipodi:namedview>
  <defs
     id="defs3697">
    <linearGradient
       id="linearGradient4399">
      <stop
         id="stop4401"
         offset="0"
         style="stop-color:#626262;stop-opacity:1" />
      <stop
         id="stop4403"
         offset="1"
         style="stop-color:#3f3f3f;stop-opacity:1" />
    </linearGradient>
    <linearGradient
       id="linearGradient4306">
      <stop
         style="stop-color:#000000;stop-opacity:1"
         offset="0"
         id="stop4308" />
      <stop
         style="stop-color:#000000;stop-opacity:0"
         offset="1"
         id="stop4310" />
    </linearGradient>
    <linearGradient
       id="linearGradient4867">
      <stop
         id="stop4869"
         offset="0"
         style="stop-color:#ffffff;stop-opacity:1;" />
      <stop
         id="stop4871"
         offset="1"
         style="stop-color:#e4e5e7;stop-opacity:0.15686275" />
    </linearGradient>
    <linearGradient
       osb:paint="gradient"
       id="linearGradient4406">
      <stop
         offset="0"
         style="stop-color:#4e4e4e;stop-opacity:1"
         id="stop4408" />
      <stop
         offset="1"
         style="stop-color:#141414;stop-opacity:1"
         id="stop4410" />
    </linearGradient>
    <linearGradient
       id="linearGradient3320"
       osb:paint="gradient">
      <stop
         id="stop3323"
         style="stop-color:#4e4e4e;stop-opacity:1"
         offset="0" />
      <stop
         id="stop3325"
         style="stop-color:#b9bac2;stop-opacity:1"
         offset="1" />
    </linearGradient>
    <linearGradient
       osb:paint="solid"
       id="linearGradient6213">
      <stop
         id="stop6215"
         offset="0"
         style="stop-color:#000000;stop-opacity:1;" />
    </linearGradient>
    <linearGradient
       inkscape:collect="always"
       xlink:href="#linearGradient4399"
       id="linearGradient4213"
       x1="32"
       y1="13"
       x2="32"
       y2="59"
       gradientUnits="userSpaceOnUse"
       gradientTransform="matrix(0.40691797,0,0,0.34075826,-1.0207835,1.5631129)" />
    <linearGradient
       inkscape:collect="always"
       xlink:href="#linearGradient4867"
       id="linearGradient4229"
       x1="32"
       y1="15"
       x2="32"
       y2="18"
       gradientUnits="userSpaceOnUse"
       gradientTransform="matrix(0.3743067,0,0,0.30232492,0.02167118,3.1162974)" />
    <linearGradient
       y2="9"
       x2="22"
       y1="11"
       x1="22"
       gradientTransform="matrix(0.43461192,0,0,0.5,1.5693126,0.50000013)"
       gradientUnits="userSpaceOnUse"
       id="linearGradient4262-7-1"
       xlink:href="#linearGradient4306"
       inkscape:collect="always" />
    <linearGradient
       id="linearGradient4303"
       inkscape:collect="always">
      <stop
         id="stop4305"
         offset="0"
         style="stop-color:#000000;stop-opacity:0.404" />
      <stop
         style="stop-color:#000000;stop-opacity:0.05882353"
         offset="0.74412525"
         id="stop4311" />
      <stop
         id="stop4307"
         offset="1"
         style="stop-color:#000000;stop-opacity:0;" />
    </linearGradient>
    <radialGradient
       gradientUnits="userSpaceOnUse"
       gradientTransform="matrix(0.36607011,0,0,0.02419349,0.6518268,21.052422)"
       r="31"
       fy="52.599998"
       fx="31"
       cy="52.599998"
       cx="31"
       id="radialGradient4309-8"
       xlink:href="#linearGradient4303"
       inkscape:collect="always" />
    <linearGradient
       id="linearGradient4225">
      <stop
         offset="0"
         style="stop-color:#ffffff;stop-opacity:1;"
         id="stop4227" />
      <stop
         id="stop4229"
         style="stop-color:#ffffff;stop-opacity:0.23529412;"
         offset="0.07889124" />
      <stop
         offset="0.84615391"
         style="stop-color:#ffffff;stop-opacity:0"
         id="stop4231" />
      <stop
         offset="1"
         style="stop-color:#000000;stop-opacity:0.04313726"
         id="stop4233" />
    </linearGradient>
    <linearGradient
       id="linearGradient3927-8">
      <stop
         style="stop-color:#fbfcfd;stop-opacity:1"
         offset="0"
         id="stop3929-2" />
      <stop
         style="stop-color:#ebeced;stop-opacity:1"
         offset="1"
         id="stop3931-4" />
    </linearGradient>
    <linearGradient
       y2="43.923065"
       x2="23.999994"
       y1="6.9230647"
       x1="23.999994"
       gradientTransform="matrix(0.24324324,0,0,0.35135133,2.1621636,-0.43242804)"
       gradientUnits="userSpaceOnUse"
       id="linearGradient3988-1"
       xlink:href="#linearGradient4225"
       inkscape:collect="always" />
    <linearGradient
       inkscape:collect="always"
       xlink:href="#linearGradient3927-8"
       id="linearGradient3806"
       gradientUnits="userSpaceOnUse"
       gradientTransform="matrix(0.28571361,0,0,0.30419702,1.1428727,0.2326048)"
       x1="25.132275"
       y1="0.98520643"
       x2="25.132275"
       y2="47.013336" />
    <linearGradient
       inkscape:collect="always"
       xlink:href="#linearGradient3927-8"
       id="linearGradient4486"
       gradientUnits="userSpaceOnUse"
       gradientTransform="matrix(0.28571361,0,0,0.30419702,1.1428727,0.2326048)"
       x1="25.132275"
       y1="0.98520643"
       x2="25.132275"
       y2="47.013336" />
    <linearGradient
       inkscape:collect="always"
       xlink:href="#linearGradient4225"
       id="linearGradient4488"
       gradientUnits="userSpaceOnUse"
       gradientTransform="matrix(0.24324324,0,0,0.35135133,2.1621636,-0.43242804)"
       x1="23.999994"
       y1="6.9230647"
       x2="23.999994"
       y2="43.923065" />
    <linearGradient
       inkscape:collect="always"
       xlink:href="#linearGradient3927-8"
       id="linearGradient4534"
       gradientUnits="userSpaceOnUse"
       gradientTransform="matrix(0.28571361,0,0,0.30419702,1.1428727,0.2326048)"
       x1="25.132275"
       y1="0.98520643"
       x2="25.132275"
       y2="47.013336" />
    <linearGradient
       inkscape:collect="always"
       xlink:href="#linearGradient4225"
       id="linearGradient4536"
       gradientUnits="userSpaceOnUse"
       gradientTransform="matrix(0.24324324,0,0,0.35135133,2.1621636,-0.43242804)"
       x1="23.999994"
       y1="6.9230647"
       x2="23.999994"
       y2="43.923065" />
  </defs>
  <ellipse
     cx="12"
     cy="22.325001"
     rx="8.625"
     ry="0.75"
     style="display:inline;opacity:1;fill:url(#radialGradient4309-8);fill-opacity:1;stroke:none;stroke-width:1.20000005;stroke-linecap:butt;stroke-linejoin:miter;stroke-miterlimit:4;stroke-dasharray:none;stroke-dashoffset:0;stroke-opacity:1"
     id="path4293-4" />
  <path
     style="opacity:1;fill:#454547;fill-opacity:1;stroke:#0d0d0d;stroke-width:1;stroke-linecap:butt;stroke-linejoin:miter;stroke-miterlimit:4;stroke-dasharray:none;stroke-dashoffset:0;stroke-opacity:1"
     d="m 4.872993,2.5001947 14.255155,0 c 0.394868,0 0.590934,0.3976286 0.712759,0.838637 l 0.641481,2.3222267 C 20.60421,6.1020669 20.164497,6.4996956 19.76963,6.4996956 l -15.538119,0 c -0.3948677,0 -0.8345799,-0.3976289 -0.7127577,-0.8386372 L 4.1602353,3.3388317 C 4.2820575,2.8978234 4.4781252,2.5001947 4.872993,2.5001947 Z"
     id="rect4290"
     inkscape:connector-curvature="0"
     sodipodi:nodetypes="sssssssss" />
  <path
     style="opacity:0.3;fill:#000000;fill-opacity:1;stroke:none;stroke-width:0.99999994;stroke-linecap:butt;stroke-linejoin:miter;stroke-miterlimit:4;stroke-dasharray:none;stroke-dashoffset:0;stroke-opacity:1"
     d="M 19,3.0001218 16.795,18.614646 c -0.05497,0.389233 -0.3122,0.709751 -0.7,0.709751 l -8.19,0 c -0.3878,0 -0.6450346,-0.320518 -0.7,-0.709751 L 5,3.0001218 Z"
     id="rect4203-7"
     inkscape:connector-curvature="0"
     sodipodi:nodetypes="csssscc" />
  <path
     style="opacity:0.15;fill:none;fill-opacity:1;stroke:#ffffff;stroke-width:0.99999982;stroke-linecap:butt;stroke-linejoin:miter;stroke-miterlimit:4;stroke-dasharray:none;stroke-dashoffset:0;stroke-opacity:1"
     d="m 5.6791707,3.5001217 12.6419923,0 c 0.358955,0 0.539436,0.3152568 0.647931,0.6665053 l 0.514681,1.6662635 c 0.108494,0.3512482 -0.288977,0.6665049 -0.647931,0.6665049 l -13.6713285,0 c -0.3589533,0 -0.7564202,-0.3152552 -0.6479303,-0.6665049 L 5.0312403,4.166627 C 5.1397301,3.8153771 5.3202174,3.5001217 5.6791707,3.5001217 Z"
     id="rect4290-4"
     inkscape:connector-curvature="0"
     sodipodi:nodetypes="sssssssss" />
  <g
     inkscape:label="Layer 1"
     id="layer1-6-3"
     transform="matrix(0.85272789,-0.34927958,0.37666798,0.85286925,2.3823083,4.0662355)">
    <path
       sodipodi:nodetypes="ccccc"
       d="m 3,1 c 2.2915074,0 9.999989,8.904e-4 9.999989,8.904e-4 L 13,15 C 13,15 6.3333332,15 3,15 3,10.333333 3,5.6666664 3,1 Z"
       id="path4160-6-0"
       style="display:inline;fill:url(#linearGradient4534);fill-opacity:1;stroke:none;stroke-width:0.99992192;stroke-linecap:butt;stroke-linejoin:round;stroke-miterlimit:4;stroke-dasharray:none;stroke-dashoffset:0;stroke-opacity:1"
       inkscape:connector-curvature="0" />
    <path
       sodipodi:nodetypes="ccccc"
       inkscape:connector-curvature="0"
       id="rect6741-1-5-7"
       d="m 12.5,14.5 -9.0000001,0 0,-13 L 12.5,1.5 Z"
       style="fill:none;stroke:url(#linearGradient4536);stroke-width:1.0790633;stroke-linecap:round;stroke-linejoin:miter;stroke-miterlimit:4;stroke-dasharray:none;stroke-dashoffset:0;stroke-opacity:1" />
    <path
       sodipodi:nodetypes="ccccc"
       d="m 2.499962,0.49996096 c 2.5206756,0 11.000063,9.54e-4 11.000063,9.54e-4 l 1.3e-5,14.99909804 c 0,0 -7.3333842,0 -11.000076,0 0,-5.000017 0,-10.000035 0,-15.00005204 z"
       id="path4160-9-22-4"
       style="display:inline;fill:none;fill-opacity:1;stroke:#000000;stroke-width:1.07897913;stroke-linecap:butt;stroke-linejoin:round;stroke-miterlimit:4;stroke-dasharray:none;stroke-dashoffset:0;stroke-opacity:0.35294118"
       inkscape:connector-curvature="0" />
  </g>
  <g
     inkscape:label="Layer 1"
     id="layer1-6"
     transform="matrix(0.76299442,0.51670165,-0.50165493,0.7858798,10.459982,-1.184702)">
    <path
       sodipodi:nodetypes="ccccc"
       d="m 3,1 c 2.2915074,0 9.999989,8.904e-4 9.999989,8.904e-4 L 13,15 C 13,15 6.3333332,15 3,15 3,10.333333 3,5.6666664 3,1 Z"
       id="path4160-6"
       style="display:inline;fill:url(#linearGradient4486);fill-opacity:1;stroke:none;stroke-width:0.99992192;stroke-linecap:butt;stroke-linejoin:round;stroke-miterlimit:4;stroke-dasharray:none;stroke-dashoffset:0;stroke-opacity:1"
       inkscape:connector-curvature="0" />
    <path
       sodipodi:nodetypes="ccccc"
       inkscape:connector-curvature="0"
       id="rect6741-1-5"
       d="m 12.5,14.5 -9.0000001,0 0,-13 L 12.5,1.5 Z"
       style="fill:none;stroke:url(#linearGradient4488);stroke-width:1.0790633;stroke-linecap:round;stroke-linejoin:miter;stroke-miterlimit:4;stroke-dasharray:none;stroke-dashoffset:0;stroke-opacity:1" />
    <path
       sodipodi:nodetypes="ccccc"
       d="m 2.499962,0.49996096 c 2.5206756,0 11.000063,9.54e-4 11.000063,9.54e-4 l 1.3e-5,14.99909804 c 0,0 -7.3333842,0 -11.000076,0 0,-5.000017 0,-10.000035 0,-15.00005204 z"
       id="path4160-9-22"
       style="display:inline;fill:none;fill-opacity:1;stroke:#000000;stroke-width:1.07897913;stroke-linecap:butt;stroke-linejoin:round;stroke-miterlimit:4;stroke-dasharray:none;stroke-dashoffset:0;stroke-opacity:0.35294118"
       inkscape:connector-curvature="0" />
  </g>
  <g
     inkscape:label="Layer 1"
     id="layer1"
     transform="matrix(0.97763805,0.21029464,-0.21029464,0.97763805,5.40725,1.6588106)">
    <path
       sodipodi:nodetypes="ccccc"
       d="m 3,1 c 2.2915074,0 9.999989,8.904e-4 9.999989,8.904e-4 L 13,15 C 13,15 6.3333332,15 3,15 3,10.333333 3,5.6666664 3,1 Z"
       id="path4160"
       style="display:inline;fill:url(#linearGradient3806);fill-opacity:1;stroke:none;stroke-width:0.99992192;stroke-linecap:butt;stroke-linejoin:round;stroke-miterlimit:4;stroke-dasharray:none;stroke-dashoffset:0;stroke-opacity:1"
       inkscape:connector-curvature="0" />
    <path
       sodipodi:nodetypes="ccccc"
       inkscape:connector-curvature="0"
       id="rect6741-1"
       d="m 12.5,14.5 -9.0000001,0 0,-13 L 12.5,1.5 Z"
       style="fill:none;stroke:url(#linearGradient3988-1);stroke-width:1;stroke-linecap:round;stroke-linejoin:miter;stroke-miterlimit:4;stroke-dasharray:none;stroke-dashoffset:0;stroke-opacity:1" />
    <path
       sodipodi:nodetypes="ccccc"
       d="m 2.499962,0.49996096 c 2.5206756,0 11.000063,9.54e-4 11.000063,9.54e-4 l 1.3e-5,14.99909804 c 0,0 -7.3333842,0 -11.000076,0 0,-5.000017 0,-10.000035 0,-15.00005204 z"
       id="path4160-9"
       style="display:inline;fill:none;fill-opacity:1;stroke:#000000;stroke-width:0.99992192;stroke-linecap:butt;stroke-linejoin:round;stroke-miterlimit:4;stroke-dasharray:none;stroke-dashoffset:0;stroke-opacity:0.35294118"
       inkscape:connector-curvature="0" />
  </g>
  <path
     style="opacity:1;fill:url(#linearGradient4213);fill-opacity:1;stroke:#0d0d0d;stroke-width:0.99999994;stroke-linecap:butt;stroke-linejoin:miter;stroke-miterlimit:4;stroke-dasharray:none;stroke-dashoffset:0;stroke-opacity:1"
     d="M 20.448899,6.5016008 18.922524,20.830771 c -0.03916,0.367603 -0.316634,0.666701 -0.709942,0.666701 l -12.4239835,0 c -0.3933077,0 -0.671678,-0.299011 -0.7099418,-0.666701 L 3.5522817,6.5016008 Z"
     id="rect4203"
     inkscape:connector-curvature="0"
     sodipodi:nodetypes="csssscc" />
  <path
     style="opacity:0.25;fill:none;fill-opacity:1;stroke:url(#linearGradient4229);stroke-width:0.99999964;stroke-linecap:butt;stroke-linejoin:miter;stroke-miterlimit:4;stroke-dasharray:none;stroke-dashoffset:0;stroke-opacity:1"
     d="m 5.0249039,7.5000095 13.9491621,0 c 0.179718,0 0.341441,0.1324673 0.324399,0.2954541 L 18.00087,20.204528 c -0.017,0.162988 -0.144683,0.295455 -0.3244,0.295455 l -11.3539694,0 c -0.1797173,0 -0.3073557,-0.132467 -0.3243994,-0.295455 L 4.7005047,7.7954636 C 4.6834618,7.6324772 4.8451865,7.5000095 5.0249039,7.5000095 Z"
     id="rect4205"
     inkscape:connector-curvature="0"
     sodipodi:nodetypes="sssssssss" />
  <rect
     ry="0"
     y="5"
     x="3.3077621"
     height="1"
     width="17.384476"
     id="rect3827-5-3-3"
     style="display:inline;opacity:0.25;fill:url(#linearGradient4262-7-1);fill-opacity:1;stroke:none;stroke-width:0;stroke-linecap:butt;stroke-linejoin:miter;stroke-miterlimit:4;stroke-dasharray:none;stroke-dashoffset:0;stroke-opacity:1" />
  <path
     sodipodi:nodetypes="csccsccccccccsccccccsccccccccsccccccccccsccccccccscscccc"
     inkscape:connector-curvature="0"
     id="path4226-1-8-9"
     d="m 8.9293435,15.615523 c -0.095963,0.17235 -0.1723462,0.431666 -0.1723462,0.595064 0,0.03793 0,0.08618 0.00941,0.153109 L 7.5669962,14.300937 c -0.038392,-0.06693 -0.06699,-0.162952 -0.06699,-0.249464 0,-0.08663 0.028613,-0.191929 0.066982,-0.258976 L 8.1427985,12.785023 7.5000035,12.420725 9.591746,12.382005 10.608618,14.214427 9.956426,13.84029 Z M 9.8506548,9.57639 C 10.032803,9.25944 10.3305,9.086747 10.694794,9.086747 c 0.393664,0 0.70077,0.182535 0.921297,0.556227 l 0.326291,0.54683 -1.13244,2.182801 -1.8324222,-1.290156 z m 0.1339575,7.69886 c -0.5468288,0 -0.997695,-0.45092 -0.997695,-0.997737 0,-0.153555 0.067372,-0.412856 0.1633387,-0.575808 l 0.306708,-0.54683 2.274273,0 0,2.12039 -1.7466248,0 z M 11.808038,9.518415 C 11.664267,9.269282 11.472334,9.096145 11.242013,9.000121 l 2.360056,0 c 0.211124,0 0.374078,0.08663 0.470444,0.249907 l 0.585222,0.997737 0.633056,-0.374481 -1.017334,1.823353 -2.081557,-0.02933 0.642797,-0.364293 z m 3.636694,5.655699 c 0.287509,0 0.527632,-0.07677 0.728977,-0.229995 l -1.190013,2.072144 c -0.09597,0.162949 -0.268428,0.265696 -0.469719,0.258976 l -1.123037,0 0,0.738761 -1.074465,-1.79403 1.074465,-1.794488 0,0.748617 2.053792,0 z m 0.92052,-1.727101 c 0.08657,0.153555 0.134745,0.316504 0.134745,0.489297 0,0.345487 -0.220923,0.71011 -0.527633,0.882475 -0.144142,0.07723 -0.346237,0.137217 -0.546829,0.125348 l -0.633788,0 -1.131705,-1.95777 1.832475,-1.045868 z"
     style="opacity:0.6;fill:#000000;fill-opacity:1" />
  <path
     sodipodi:nodetypes="csccsccccccccsccccccsccccccccsccccccccccsccccccccscscccc"
     inkscape:connector-curvature="0"
     id="path4226-1-8"
     d="m 8.9293387,16.6154 c -0.095963,0.172351 -0.1723455,0.431667 -0.1723455,0.595065 0,0.03793 0,0.08618 0.00941,0.153109 l -1.199412,-2.062758 c -0.038393,-0.06693 -0.066982,-0.162953 -0.066982,-0.249465 0,-0.08662 0.028612,-0.191929 0.066982,-0.258975 l 0.575812,-1.007475 -0.6427951,-0.364298 2.0917425,-0.03872 1.0168724,1.832422 -0.6521924,-0.374137 z m 0.9213112,-6.039132 c 0.1821491,-0.31695 0.4798461,-0.489643 0.8441401,-0.489643 0.393664,0 0.70077,0.182535 0.921296,0.556228 l 0.326292,0.54683 -1.13244,2.1828 -1.8324223,-1.290155 z m 0.1339575,7.69886 c -0.5468287,0 -0.997695,-0.450919 -0.997695,-0.997736 0,-0.153555 0.067372,-0.412856 0.1633388,-0.575809 l 0.3067087,-0.546829 2.2742741,0 0,2.120389 -1.7466266,0 z M 11.808034,10.518294 C 11.664263,10.26916 11.47233,10.096023 11.242009,10 l 2.360055,0 c 0.211126,0 0.374077,0.08662 0.470445,0.249907 l 0.58522,0.997736 0.633057,-0.374481 -1.017334,1.823354 -2.081558,-0.02933 0.642799,-0.364294 z m 3.636694,5.655698 c 0.287508,0 0.527632,-0.07677 0.728976,-0.229995 l -1.190013,2.072145 c -0.09597,0.162948 -0.268428,0.265695 -0.469718,0.258975 l -1.123039,0 0,0.738761 -1.074465,-1.79403 1.074465,-1.794487 0,0.748616 2.053793,0 z m 0.92052,-1.7271 c 0.08657,0.153555 0.134744,0.316503 0.134744,0.489296 0,0.345487 -0.220923,0.710111 -0.527633,0.882476 -0.144142,0.07723 -0.346236,0.137216 -0.546828,0.125348 l -0.633788,0 -1.131705,-1.95777 1.832475,-1.045868 z"
     style="fill:#ffffff;fill-opacity:0.78431373" />
</svg>
