<?xml version="1.0" encoding="UTF-8" standalone="no"?>
<!-- Created with Inkscape (http://www.inkscape.org/) -->

<svg
   xmlns:dc="http://purl.org/dc/elements/1.1/"
   xmlns:cc="http://creativecommons.org/ns#"
   xmlns:rdf="http://www.w3.org/1999/02/22-rdf-syntax-ns#"
   xmlns:svg="http://www.w3.org/2000/svg"
   xmlns="http://www.w3.org/2000/svg"
   xmlns:xlink="http://www.w3.org/1999/xlink"
   xmlns:sodipodi="http://sodipodi.sourceforge.net/DTD/sodipodi-0.dtd"
   xmlns:inkscape="http://www.inkscape.org/namespaces/inkscape"
   id="svg2"
   version="1.1"
   inkscape:version="0.91 r13725"
   width="48"
   height="48"
   viewBox="0 0 48 48"
   sodipodi:docname="emblem-system.svg">
  <metadata
     id="metadata8">
    <rdf:RDF>
      <cc:Work
         rdf:about="">
        <dc:format>image/svg+xml</dc:format>
        <dc:type
           rdf:resource="http://purl.org/dc/dcmitype/StillImage" />
        <dc:title></dc:title>
      </cc:Work>
    </rdf:RDF>
  </metadata>
  <defs
     id="defs6">
    <linearGradient
       id="linearGradient3763">
      <stop
         id="stop3765"
         offset="0"
         style="stop-color:#4c4c4c;stop-opacity:1" />
      <stop
         id="stop3767"
         offset="1"
         style="stop-color:#7d7d7d;stop-opacity:1" />
    </linearGradient>
    <linearGradient
       inkscape:collect="always"
       xlink:href="#linearGradient3763-2"
       id="linearGradient4173"
       x1="6.9999952"
       y1="14"
       x2="21.000006"
       y2="14"
       gradientUnits="userSpaceOnUse"
       gradientTransform="matrix(2.1428568,0,0,2.1428568,-54.000005,2.000009)" />
    <linearGradient
       id="linearGradient3763-2">
      <stop
         id="stop3765-7"
         offset="0"
         style="stop-color:#646464;stop-opacity:1" />
      <stop
         id="stop3767-5"
         offset="1"
         style="stop-color:#969696;stop-opacity:1" />
    </linearGradient>
    <linearGradient
       inkscape:collect="always"
       xlink:href="#linearGradient4144"
       id="linearGradient4150"
       x1="10.000001"
       y1="12.000001"
       x2="13.000001"
       y2="12.000001"
       gradientUnits="userSpaceOnUse"
       gradientTransform="matrix(2.2307107,0,0,2.2307107,-11.691379,-58.768523)" />
    <linearGradient
       inkscape:collect="always"
       id="linearGradient4144">
      <stop
         style="stop-color:#ffffff;stop-opacity:1"
         offset="0"
         id="stop4146" />
      <stop
         style="stop-color:#ffffff;stop-opacity:0"
         offset="1"
         id="stop4148" />
    </linearGradient>
  </defs>
  <sodipodi:namedview
     pagecolor="#ffffff"
     bordercolor="#666666"
     borderopacity="1"
     objecttolerance="10"
     gridtolerance="10"
     guidetolerance="10"
     inkscape:pageopacity="0"
     inkscape:pageshadow="2"
     inkscape:window-width="1920"
     inkscape:window-height="1035"
     id="namedview4"
     showgrid="false"
     inkscape:snap-bbox="true"
     inkscape:bbox-paths="true"
     inkscape:bbox-nodes="true"
     inkscape:object-nodes="true"
     inkscape:zoom="4"
     inkscape:cx="53.005555"
     inkscape:cy="-9.2349523"
     inkscape:window-x="0"
     inkscape:window-y="23"
     inkscape:window-maximized="1"
     inkscape:current-layer="svg2"
     showguides="false"
     inkscape:snap-intersection-paths="true"
     inkscape:object-paths="true"
     inkscape:snap-smooth-nodes="true"
     inkscape:snap-object-midpoints="true"
     inkscape:snap-nodes="false">
    <inkscape:grid
       type="xygrid"
       id="grid4161" />
  </sodipodi:namedview>
  <rect
     style="opacity:0.80500034;fill:#000000;fill-opacity:1;stroke:#ff0505;stroke-width:0;stroke-linecap:butt;stroke-linejoin:round;stroke-miterlimit:4;stroke-dasharray:none;stroke-dashoffset:0;stroke-opacity:1"
     id="rect4163"
     width="31.999985"
     height="31.999979"
     x="16.000006"
     y="8.0000067"
     ry="1.5" />
  <rect
     style="opacity:0.88500001;fill:url(#linearGradient4173);fill-opacity:1;stroke:#ff0505;stroke-width:0;stroke-linecap:butt;stroke-linejoin:round;stroke-miterlimit:4;stroke-dasharray:none;stroke-dashoffset:0;stroke-opacity:1"
     id="rect4165"
     width="29.999994"
     height="29.999994"
     x="-39"
     y="17.000008"
     ry="0"
     transform="matrix(0,-1,1,0,0,0)"
     rx="0.5" />
  <rect
     style="opacity:0.2;fill:none;fill-opacity:1;stroke:url(#linearGradient4150);stroke-width:1;stroke-linecap:butt;stroke-linejoin:round;stroke-miterlimit:4;stroke-dasharray:none;stroke-dashoffset:0;stroke-opacity:1"
     id="rect4142"
     width="29"
     height="29"
     x="9.499999"
     y="-46.499996"
     transform="matrix(0,1,-1,0,0,0)" />
  <path
     inkscape:connector-curvature="0"
     d="m 31,14 -0.5,2.375 c -0.368475,0.08424 -0.717033,0.229419 -1.0625,0.375 -0.044,0.01854 -0.08147,0.04308 -0.125,0.0625 -0.311091,0.1323 -0.617293,0.255683 -0.90625,0.4375 l -2.0625,-1.3125 -1.40625,1.40625 1.34375,2.03125 C 26.074333,19.703847 25.893034,20.049736 25.75,20.40625 25.599047,20.759484 25.492468,21.121158 25.40625,21.5 L 23,22 l 0,2 2.40625,0.5 c 0.08622,0.378842 0.192797,0.740516 0.34375,1.09375 0.140025,0.348211 0.331449,0.678565 0.53125,1 0.0049,0.0078 -0.0049,0.02345 0,0.03125 l -1.34375,2.03125 1.40625,1.40625 2.0625,-1.3125 c 0.293071,0.184002 0.597455,0.30519 0.90625,0.4375 0.03471,0.01549 0.05874,0.04757 0.09375,0.0625 0.0089,0.0036 0.02235,-0.0036 0.03125,0 0.345139,0.145374 0.694405,0.259596 1.0625,0.34375 L 31,32 l 2,0 0.5,-2.40625 c 0.728512,-0.167059 1.441836,-0.465008 2.09375,-0.875 l 0.03125,0 2.03125,1.34375 1.40625,-1.40625 -1.34375,-2.0625 c 0.198503,-0.316632 0.391193,-0.645353 0.53125,-1 0.0037,-0.0094 -0.0037,-0.02186 0,-0.03125 0.0092,-0.02122 0.02227,-0.04121 0.03125,-0.0625 0.139049,-0.329667 0.234037,-0.657837 0.3125,-1 L 41,24 41,22 38.59375,21.5 C 38.471134,20.939539 38.294352,20.421895 38.03125,19.90625 38.02505,19.89417 38.00624,19.88705 38,19.875 37.91737,19.715529 37.847344,19.530046 37.75,19.375 L 39.0625,17.34375 37.65625,15.9375 35.625,17.25 C 35.296623,17.043832 34.950429,16.89343 34.59375,16.75 34.242564,16.600751 33.883911,16.46277 33.5,16.375 L 33,14 31,14 Z m 1,6 c 0.191846,2.5e-4 0.404834,0.02556 0.59375,0.0625 0.0097,0.0019 0.02158,-0.002 0.03125,0 0.178386,0.03682 0.329391,0.08669 0.5,0.15625 0.180375,0.07354 0.365027,0.171202 0.53125,0.28125 0.0076,0.005 0.02367,-0.0051 0.03125,0 0.1588,0.106997 0.296994,0.234494 0.4375,0.375 0.140506,0.140506 0.268003,0.2787 0.375,0.4375 0.0051,0.0076 -0.0051,0.02362 0,0.03125 0.110048,0.166223 0.207707,0.350875 0.28125,0.53125 0.06496,0.159331 0.119841,0.333749 0.15625,0.5 C 34.97751,22.571127 35,22.791459 35,23 c 0,0.208541 -0.02249,0.397623 -0.0625,0.59375 -0.03795,0.186012 -0.08585,0.359823 -0.15625,0.53125 -0.03848,0.09479 -0.07637,0.189909 -0.125,0.28125 -0.231544,0.433253 -0.563873,0.821323 -0.96875,1.09375 -0.153724,0.103442 -0.33402,0.178162 -0.5,0.25 -0.0808,0.03399 -0.165779,0.06679 -0.25,0.09375 -0.12199,0.04033 -0.249793,0.06957 -0.375,0.09375 C 32.385276,25.9699 32.186618,26 32,26 c -0.196344,0 -0.376641,-0.02671 -0.5625,-0.0625 -0.0097,-0.0019 -0.02152,0.002 -0.03125,0 C 31.3509,25.92625 31.304197,25.88924 31.25,25.875 31.113338,25.83888 30.975219,25.80573 30.84375,25.75 c -0.1709,-0.0719 -0.346987,-0.149092 -0.5,-0.25 -0.0068,-0.0045 -0.02452,0.0045 -0.03125,0 -0.330636,-0.222473 -0.59344,-0.510138 -0.8125,-0.84375 -0.102315,-0.154542 -0.179237,-0.333055 -0.25,-0.5 C 29.2449,24.14426 29.22366,24.13707 29.21875,24.125 29.17007,24.005612 29.15765,23.873546 29.125,23.75 29.10803,23.68564 29.07525,23.628528 29.0625,23.5625 29.02556,23.373584 29.00025,23.191846 29,23 c 0,-0.187893 0.02986,-0.384527 0.0625,-0.5625 0.0038,-0.01951 -0.0042,-0.04305 0,-0.0625 0.02201,-0.10787 0.06059,-0.2093 0.09375,-0.3125 0.02768,-0.08374 0.05844,-0.168427 0.09375,-0.25 0.0092,-0.02188 0.02151,-0.0409 0.03125,-0.0625 0.06894,-0.149773 0.154911,-0.29816 0.25,-0.4375 C 30.070875,20.51452 30.964371,20 32,20 Z"
     id="path59-0"
     style="display:inline;opacity:0.55;fill:#000000;fill-opacity:1;fill-rule:evenodd;stroke:none;stroke-width:1;stroke-linecap:round;stroke-linejoin:miter;stroke-miterlimit:4;stroke-dasharray:none;stroke-opacity:1;enable-background:new" />
  <path
     inkscape:connector-curvature="0"
     d="m 31.000004,15.000003 -0.5,2.375 c -0.368475,0.08424 -0.717033,0.229419 -1.0625,0.375 -0.044,0.01854 -0.08147,0.04308 -0.125,0.0625 -0.311091,0.1323 -0.617293,0.255683 -0.90625,0.4375 l -2.0625,-1.3125 -1.40625,1.40625 1.34375,2.03125 c -0.206917,0.328847 -0.388216,0.674736 -0.53125,1.03125 -0.150953,0.353234 -0.257532,0.714908 -0.34375,1.09375 l -2.40625,0.5 0,2 2.40625,0.5 c 0.08622,0.378842 0.192797,0.740516 0.34375,1.09375 0.140025,0.348211 0.331449,0.678565 0.53125,1 0.0049,0.0078 -0.0049,0.02345 0,0.03125 l -1.34375,2.03125 1.40625,1.40625 2.0625,-1.3125 c 0.293071,0.184002 0.597455,0.30519 0.90625,0.4375 0.03471,0.01549 0.05874,0.04757 0.09375,0.0625 0.0089,0.0036 0.02235,-0.0036 0.03125,0 0.345139,0.145374 0.694405,0.259596 1.0625,0.34375 l 0.5,2.40625 2,0 0.5,-2.40625 c 0.728512,-0.167059 1.441836,-0.465008 2.09375,-0.875 l 0.03125,0 2.03125,1.34375 1.40625,-1.40625 -1.34375,-2.0625 c 0.198503,-0.316632 0.391193,-0.645353 0.53125,-1 0.0037,-0.0094 -0.0037,-0.02186 0,-0.03125 0.0092,-0.02122 0.02227,-0.04121 0.03125,-0.0625 0.139049,-0.329667 0.234037,-0.657837 0.3125,-1 l 2.40625,-0.5 0,-2 -2.40625,-0.5 c -0.122616,-0.560461 -0.299398,-1.078105 -0.5625,-1.59375 -0.0062,-0.01208 -0.02501,-0.0192 -0.03125,-0.03125 -0.08263,-0.159471 -0.152656,-0.344954 -0.25,-0.5 l 1.3125,-2.03125 -1.40625,-1.40625 -2.03125,1.3125 c -0.328377,-0.206168 -0.674571,-0.35657 -1.03125,-0.5 -0.351186,-0.149249 -0.709839,-0.28723 -1.09375,-0.375 l -0.5,-2.375 -2,0 z m 1,6 c 0.191846,2.5e-4 0.404834,0.02556 0.59375,0.0625 0.0097,0.0019 0.02158,-0.002 0.03125,0 0.178386,0.03682 0.329391,0.08669 0.5,0.15625 0.180375,0.07354 0.365027,0.171202 0.53125,0.28125 0.0076,0.005 0.02367,-0.0051 0.03125,0 0.1588,0.106997 0.296994,0.234494 0.4375,0.375 0.140506,0.140506 0.268003,0.2787 0.375,0.4375 0.0051,0.0076 -0.0051,0.02362 0,0.03125 0.110048,0.166223 0.207707,0.350875 0.28125,0.53125 0.06496,0.159331 0.119841,0.333749 0.15625,0.5 0.04001,0.196127 0.0625,0.416459 0.0625,0.625 0,0.208541 -0.02249,0.397623 -0.0625,0.59375 -0.03795,0.186012 -0.08585,0.359823 -0.15625,0.53125 -0.03848,0.09479 -0.07637,0.189909 -0.125,0.28125 -0.231544,0.433253 -0.563873,0.821323 -0.96875,1.09375 -0.153724,0.103442 -0.33402,0.178162 -0.5,0.25 -0.0808,0.03399 -0.165779,0.06679 -0.25,0.09375 -0.12199,0.04033 -0.249793,0.06957 -0.375,0.09375 -0.177224,0.0324 -0.375882,0.0625 -0.5625,0.0625 -0.196344,0 -0.376641,-0.02671 -0.5625,-0.0625 -0.0097,-0.0019 -0.02152,0.002 -0.03125,0 -0.05535,-0.01125 -0.102053,-0.04826 -0.15625,-0.0625 -0.136662,-0.03612 -0.274781,-0.06927 -0.40625,-0.125 -0.1709,-0.0719 -0.346987,-0.149092 -0.5,-0.25 -0.0068,-0.0045 -0.02452,0.0045 -0.03125,0 -0.330636,-0.222473 -0.59344,-0.510138 -0.8125,-0.84375 -0.102315,-0.154542 -0.179237,-0.333055 -0.25,-0.5 -0.0051,-0.01199 -0.02634,-0.01918 -0.03125,-0.03125 -0.04868,-0.119388 -0.0611,-0.251454 -0.09375,-0.375 -0.01697,-0.06436 -0.04975,-0.121472 -0.0625,-0.1875 -0.03694,-0.188916 -0.06225,-0.370654 -0.0625,-0.5625 0,-0.187893 0.02986,-0.384527 0.0625,-0.5625 0.0038,-0.01951 -0.0042,-0.04305 0,-0.0625 0.02201,-0.10787 0.06059,-0.2093 0.09375,-0.3125 0.02768,-0.08374 0.05844,-0.168427 0.09375,-0.25 0.0092,-0.02188 0.02151,-0.0409 0.03125,-0.0625 0.06894,-0.149773 0.154911,-0.29816 0.25,-0.4375 0.539625,-0.79798 1.433121,-1.3125 2.46875,-1.3125 z"
     id="path59"
     style="display:inline;fill:#ffffff;fill-opacity:1;fill-rule:evenodd;stroke:none;stroke-width:1;stroke-linecap:round;stroke-linejoin:miter;stroke-miterlimit:4;stroke-dasharray:none;stroke-opacity:1;enable-background:new" />
</svg>
