<?xml version="1.0" encoding="UTF-8" standalone="no"?>
<!-- Created with Inkscape (http://www.inkscape.org/) -->

<svg
   xmlns:dc="http://purl.org/dc/elements/1.1/"
   xmlns:cc="http://creativecommons.org/ns#"
   xmlns:rdf="http://www.w3.org/1999/02/22-rdf-syntax-ns#"
   xmlns:svg="http://www.w3.org/2000/svg"
   xmlns="http://www.w3.org/2000/svg"
   xmlns:xlink="http://www.w3.org/1999/xlink"
   xmlns:sodipodi="http://sodipodi.sourceforge.net/DTD/sodipodi-0.dtd"
   xmlns:inkscape="http://www.inkscape.org/namespaces/inkscape"
   id="svg2"
   version="1.1"
   inkscape:version="0.91 r13725"
   width="32"
   height="32"
   viewBox="0 0 32 32"
   sodipodi:docname="emblem-synchronizing.svg">
  <metadata
     id="metadata8">
    <rdf:RDF>
      <cc:Work
         rdf:about="">
        <dc:format>image/svg+xml</dc:format>
        <dc:type
           rdf:resource="http://purl.org/dc/dcmitype/StillImage" />
        <dc:title></dc:title>
      </cc:Work>
    </rdf:RDF>
  </metadata>
  <defs
     id="defs6">
    <linearGradient
       id="linearGradient3763">
      <stop
         id="stop3765"
         offset="0"
         style="stop-color:#4c4c4c;stop-opacity:1" />
      <stop
         id="stop3767"
         offset="1"
         style="stop-color:#7d7d7d;stop-opacity:1" />
    </linearGradient>
    <linearGradient
       inkscape:collect="always"
       xlink:href="#linearGradient3763-2"
       id="linearGradient4173"
       x1="6.9999952"
       y1="14"
       x2="21.000006"
       y2="14"
       gradientUnits="userSpaceOnUse"
       gradientTransform="matrix(1.4285712,0,0,1.4285712,-36.000006,1.0000081)" />
    <linearGradient
       id="linearGradient3763-2">
      <stop
         id="stop3765-7"
         offset="0"
         style="stop-color:#646464;stop-opacity:1" />
      <stop
         id="stop3767-5"
         offset="1"
         style="stop-color:#969696;stop-opacity:1" />
    </linearGradient>
    <linearGradient
       inkscape:collect="always"
       xlink:href="#linearGradient4144"
       id="linearGradient4150"
       x1="10.000001"
       y1="12.000001"
       x2="13.000001"
       y2="12.000001"
       gradientUnits="userSpaceOnUse"
       gradientTransform="matrix(1.4615001,0,0,1.4614999,-7.3840061,-38.537994)" />
    <linearGradient
       inkscape:collect="always"
       id="linearGradient4144">
      <stop
         style="stop-color:#ffffff;stop-opacity:1"
         offset="0"
         id="stop4146" />
      <stop
         style="stop-color:#ffffff;stop-opacity:0"
         offset="1"
         id="stop4148" />
    </linearGradient>
  </defs>
  <sodipodi:namedview
     pagecolor="#ffffff"
     bordercolor="#666666"
     borderopacity="1"
     objecttolerance="10"
     gridtolerance="10"
     guidetolerance="10"
     inkscape:pageopacity="0"
     inkscape:pageshadow="2"
     inkscape:window-width="1366"
     inkscape:window-height="723"
     id="namedview4"
     showgrid="true"
     inkscape:snap-bbox="true"
     inkscape:bbox-paths="true"
     inkscape:bbox-nodes="true"
     inkscape:object-nodes="true"
     inkscape:zoom="8"
     inkscape:cx="-17.593205"
     inkscape:cy="8.3446986"
     inkscape:window-x="0"
     inkscape:window-y="23"
     inkscape:window-maximized="1"
     inkscape:current-layer="svg2"
     showguides="false"
     inkscape:snap-intersection-paths="true"
     inkscape:object-paths="true"
     inkscape:snap-smooth-nodes="true">
    <inkscape:grid
       type="xygrid"
       id="grid4161" />
  </sodipodi:namedview>
  <rect
     style="opacity:0.80500034;fill:#000000;fill-opacity:1;stroke:#ff0505;stroke-width:0;stroke-linecap:butt;stroke-linejoin:round;stroke-miterlimit:4;stroke-dasharray:none;stroke-dashoffset:0;stroke-opacity:1"
     id="rect4163"
     width="21.99999"
     height="21.999987"
     x="10"
     y="5"
     ry="1.5" />
  <rect
     style="opacity:0.88500001;fill:url(#linearGradient4173);fill-opacity:1;stroke:#ff0505;stroke-width:0;stroke-linecap:butt;stroke-linejoin:round;stroke-miterlimit:4;stroke-dasharray:none;stroke-dashoffset:0;stroke-opacity:1"
     id="rect4165"
     width="19.999996"
     height="19.999996"
     x="-26.000004"
     y="11.000007"
     ry="0"
     transform="matrix(0,-1,1,0,0,0)"
     rx="0.5" />
  <rect
     style="opacity:0.2;fill:none;fill-opacity:1;stroke:url(#linearGradient4150);stroke-width:1;stroke-linecap:butt;stroke-linejoin:round;stroke-miterlimit:4;stroke-dasharray:none;stroke-dashoffset:0;stroke-opacity:1"
     id="rect4142"
     width="18.999998"
     height="18.999996"
     x="6.5"
     y="-30.499996"
     transform="matrix(0,1,-1,0,0,0)" />
  <path
     style="color:#000000;display:block;overflow:visible;visibility:visible;opacity:0.55;fill:#000000;fill-opacity:1;fill-rule:nonzero;stroke:none;stroke-width:0.9999997;marker:none;enable-background:new"
     d="m 20.75,8.999892 c -0.19625,0.008 -0.40095,0.0345 -0.59375,0.0625 -2.31356,0.3353905 -4.30673,2.011524 -4.9375,4.406254 -0.13556,0.51465 -0.18822,1.02272 -0.1875,1.53125 l 1.96875,0 c 8.3e-4,-0.33898 0.0345,-0.68773 0.125,-1.03125 0.56572,-2.14773 2.75852,-3.40946 4.90625,-2.84375 0.6942,0.18285 1.28439,0.56718 1.78125,1.0625 l -1.8125,1.8125 5,0 0,-5.000005 -1.75,1.750005 C 24.50513,10.009157 23.56942,9.492093 22.53125,9.218642 21.93258,9.060952 21.33874,8.974611 20.75,8.999892 Z"
     id="rect4492-7-3"
     inkscape:connector-curvature="0" />
  <path
     style="color:#000000;display:block;overflow:visible;visibility:visible;fill:#ffffff;fill-opacity:1;fill-rule:nonzero;stroke:none;stroke-width:0.9999997;marker:none;enable-background:new"
     d="m 20.75,10.000001 c -0.19625,0.008 -0.40095,0.0345 -0.59375,0.0625 -2.31356,0.335389 -4.30673,2.011519 -4.9375,4.406249 C 15.08319,14.9834 15.03053,15.49147 15.03125,16 L 17,16 c 8.3e-4,-0.33898 0.0345,-0.68773 0.125,-1.03125 0.56572,-2.14773 2.75852,-3.40946 4.90625,-2.84375 0.6942,0.18285 1.28439,0.56718 1.78125,1.0625 L 22,15 l 5,0 0,-5 -1.75,1.75 C 24.50513,11.009261 23.56942,10.4922 22.53125,10.21875 21.93258,10.061061 21.33874,9.9747205 20.75,10.000001 Z"
     id="rect4492-7"
     inkscape:connector-curvature="0" />
  <path
     style="color:#000000;display:block;overflow:visible;visibility:visible;opacity:0.55;fill:#000000;fill-opacity:1;fill-rule:nonzero;stroke:none;stroke-width:0.9999997;marker:none;enable-background:new"
     d="m 25.03125,14.999896 c -0.002,0.33623 -0.0353,0.65936 -0.125,1 -0.56572,2.14773 -2.75852,3.40946 -4.90625,2.84375 -0.6942,-0.18285 -1.28439,-0.56718 -1.78125,-1.0625 l 1.8125,-1.8125 -5,0 0,5 1.75,-1.75 c 0.74487,0.74074 1.68058,1.2578 2.71875,1.53125 0.59867,0.15769 1.19251,0.24403 1.78125,0.21875 0.19625,-0.008 0.40095,-0.0345 0.59375,-0.0625 2.31356,-0.33539 4.30673,-2.01152 4.9375,-4.40625 0.13279,-0.50415 0.1856,-1.00151 0.1875,-1.5 l -1.96875,0 z"
     id="rect4492-7-85-7"
     inkscape:connector-curvature="0" />
  <path
     style="color:#000000;display:block;overflow:visible;visibility:visible;fill:#ffffff;fill-opacity:1;fill-rule:nonzero;stroke:none;stroke-width:0.9999997;marker:none;enable-background:new"
     d="m 25.03125,16 c -0.002,0.33623 -0.0353,0.65936 -0.125,1 C 24.34053,19.14773 22.14773,20.40946 20,19.84375 19.3058,19.6609 18.71561,19.27657 18.21875,18.78125 l 1.8125,-1.8125 -5,0 0,5 1.75,-1.75 c 0.74487,0.74074 1.68058,1.2578 2.71875,1.53125 0.59867,0.15769 1.19251,0.24403 1.78125,0.21875 0.19625,-0.008 0.40095,-0.0345 0.59375,-0.0625 C 24.18856,21.57086 26.18173,19.89473 26.8125,17.5 26.94529,16.99585 26.9981,16.49849 27,16 l -1.96875,0 z"
     id="rect4492-7-85"
     inkscape:connector-curvature="0" />
</svg>
