<?xml version="1.0" encoding="UTF-8" standalone="no"?>
<!-- Created with Inkscape (http://www.inkscape.org/) -->

<svg
   xmlns:dc="http://purl.org/dc/elements/1.1/"
   xmlns:cc="http://creativecommons.org/ns#"
   xmlns:rdf="http://www.w3.org/1999/02/22-rdf-syntax-ns#"
   xmlns:svg="http://www.w3.org/2000/svg"
   xmlns="http://www.w3.org/2000/svg"
   xmlns:xlink="http://www.w3.org/1999/xlink"
   xmlns:sodipodi="http://sodipodi.sourceforge.net/DTD/sodipodi-0.dtd"
   xmlns:inkscape="http://www.inkscape.org/namespaces/inkscape"
   version="1.1"
   width="24"
   height="24"
   id="svg4248"
   inkscape:version="0.91 r13725"
   sodipodi:docname="preferences-desktop-accessibility.svg">
  <sodipodi:namedview
     pagecolor="#ffffff"
     bordercolor="#666666"
     borderopacity="1"
     objecttolerance="10"
     gridtolerance="10"
     guidetolerance="10"
     inkscape:pageopacity="0"
     inkscape:pageshadow="2"
     inkscape:window-width="1366"
     inkscape:window-height="718"
     id="namedview46"
     showgrid="false"
     inkscape:zoom="1"
     inkscape:cx="11.793978"
     inkscape:cy="10.054752"
     inkscape:window-x="0"
     inkscape:window-y="25"
     inkscape:window-maximized="1"
     inkscape:current-layer="svg4248"
     inkscape:snap-bbox="true"
     inkscape:bbox-paths="true"
     inkscape:bbox-nodes="true"
     inkscape:snap-bbox-edge-midpoints="true">
    <inkscape:grid
       type="xygrid"
       id="grid3173" />
  </sodipodi:namedview>
  <defs
     id="defs4250">
    <linearGradient
       id="linearGradient3707-319-631-407-324-3-8">
      <stop
         id="stop3760-7-3"
         style="stop-color:#185f9a;stop-opacity:1"
         offset="0" />
      <stop
         id="stop3762-8-4"
         style="stop-color:#599ec9;stop-opacity:1"
         offset="1" />
    </linearGradient>
    <linearGradient
       x1="71.204407"
       y1="6.2375584"
       x2="71.204407"
       y2="44.340794"
       id="linearGradient3096"
       xlink:href="#linearGradient4011"
       gradientUnits="userSpaceOnUse"
       gradientTransform="matrix(0.72972967,0,0,0.72972967,-36.346078,-2.5039298)" />
    <linearGradient
       id="linearGradient4011">
      <stop
         id="stop4013"
         style="stop-color:#ffffff;stop-opacity:1"
         offset="0" />
      <stop
         id="stop4015"
         style="stop-color:#ffffff;stop-opacity:0.23529412"
         offset="0.507761" />
      <stop
         id="stop4017"
         style="stop-color:#ffffff;stop-opacity:0.15686275"
         offset="0.83456558" />
      <stop
         id="stop4019"
         style="stop-color:#ffffff;stop-opacity:0.39215687"
         offset="1" />
    </linearGradient>
    <radialGradient
       cx="6.1596723"
       cy="8.4497671"
       r="19.99999"
       fx="6.1596723"
       fy="8.4497671"
       id="radialGradient3099"
       xlink:href="#linearGradient2867-449-88-871-390-598-476-591-434-148-57-177-3-8"
       gradientUnits="userSpaceOnUse"
       gradientTransform="matrix(4.5367027e-8,1.7632481,-1.8653063,0,31.761486,-11.251052)" />
    <linearGradient
       id="linearGradient2867-449-88-871-390-598-476-591-434-148-57-177-3-8">
      <stop
         id="stop3750-8-9"
         style="stop-color:#90dbec;stop-opacity:1"
         offset="0" />
      <stop
         id="stop3752-3-2"
         style="stop-color:#55c1ec;stop-opacity:1"
         offset="0.26238" />
      <stop
         id="stop3754-7-2"
         style="stop-color:#3689e6;stop-opacity:1"
         offset="0.704952" />
      <stop
         id="stop3756-9-3"
         style="stop-color:#2b63a0;stop-opacity:1"
         offset="1" />
    </linearGradient>
    <linearGradient
       x1="24"
       y1="44"
       x2="24"
       y2="3.8990016"
       id="linearGradient3101"
       xlink:href="#linearGradient3707-319-631-407-324-3-8"
       gradientUnits="userSpaceOnUse"
       gradientTransform="matrix(0.74365873,0,0,0.74365873,-1.847808,-1.8478104)" />
    <linearGradient
       id="linearGradient8838">
      <stop
         id="stop8840"
         style="stop-color:#000000;stop-opacity:1"
         offset="0" />
      <stop
         id="stop8842"
         style="stop-color:#000000;stop-opacity:0"
         offset="1" />
    </linearGradient>
    <radialGradient
       cx="62.625"
       cy="4.625"
       r="10.625"
       fx="62.625"
       fy="4.625"
       id="radialGradient4246"
       xlink:href="#linearGradient8838"
       gradientUnits="userSpaceOnUse"
       gradientTransform="matrix(1.5058824,0,0,0.37647,-78.305888,26.258824)" />
    <linearGradient
       x1="15.550736"
       y1="30.895977"
       x2="15.550736"
       y2="0.23165128"
       id="linearGradient4060-4"
       xlink:href="#linearGradient3707-319-631-407-324-3-8-7"
       gradientUnits="userSpaceOnUse"
       gradientTransform="translate(24,0)" />
    <linearGradient
       id="linearGradient3707-319-631-407-324-3-8-7">
      <stop
         id="stop3760-7-3-6"
         style="stop-color:#185f9a;stop-opacity:1"
         offset="0" />
      <stop
         id="stop3762-8-4-5"
         style="stop-color:#599ec9;stop-opacity:1"
         offset="1" />
    </linearGradient>
    <linearGradient
       id="linearGradient4062-2">
      <stop
         id="stop4064-5"
         style="stop-color:#000000;stop-opacity:1"
         offset="0" />
      <stop
         id="stop4066-4"
         style="stop-color:#000000;stop-opacity:0"
         offset="1" />
    </linearGradient>
    <linearGradient
       x1="-40.587261"
       y1="-35.402748"
       x2="-39.8311"
       y2="-15.912916"
       id="linearGradient3897"
       xlink:href="#linearGradient4062-2"
       gradientUnits="userSpaceOnUse"
       gradientTransform="matrix(0.21412596,0,0,0.22795278,26.756506,15.018422)" />
    <linearGradient
       x1="-50.417347"
       y1="-14.804217"
       x2="-50.417347"
       y2="48.049694"
       id="linearGradient3899"
       xlink:href="#linearGradient4062-2"
       gradientUnits="userSpaceOnUse"
       gradientTransform="matrix(0.21412596,0,0,0.22795278,26.756506,15.018422)" />
    <radialGradient
       gradientTransform="matrix(0.27083381,0,0,0.08762273,-2.855072,25.187228)"
       gradientUnits="userSpaceOnUse"
       xlink:href="#linearGradient3820-7-2-1"
       id="radialGradient3025"
       fy="186.17059"
       fx="99.157013"
       r="62.769119"
       cy="186.17059"
       cx="99.157013" />
    <radialGradient
       gradientTransform="matrix(0,2.4988347,-2.6434689,-6.8014435e-8,46.336814,-12.180468)"
       gradientUnits="userSpaceOnUse"
       xlink:href="#linearGradient2867-449-88-871-390-598-476-591-434-148-57-177-3-8-9"
       id="radialGradient3022"
       fy="8.4497671"
       fx="3.9722471"
       r="19.99999"
       cy="8.4497671"
       cx="3.9722471" />
    <linearGradient
       gradientTransform="matrix(1.054054,0,0,1.054054,-51.611001,-2.7279009)"
       gradientUnits="userSpaceOnUse"
       xlink:href="#linearGradient4011-4"
       id="linearGradient3019"
       y2="44.340794"
       x2="71.204407"
       y1="6.2375584"
       x1="71.204407" />
    <linearGradient
       id="linearGradient3820-7-2-1">
      <stop
         offset="0"
         style="stop-color:#3d3d3d;stop-opacity:1"
         id="stop3822-2-6-3" />
      <stop
         offset="0.5"
         style="stop-color:#686868;stop-opacity:0.49803922"
         id="stop3864-8-7-7" />
      <stop
         offset="1"
         style="stop-color:#686868;stop-opacity:0"
         id="stop3824-1-2-5" />
    </linearGradient>
    <linearGradient
       id="linearGradient2867-449-88-871-390-598-476-591-434-148-57-177-3-8-9">
      <stop
         offset="0"
         style="stop-color:#90dbec;stop-opacity:1"
         id="stop3750-8-9-6" />
      <stop
         offset="0.26238"
         style="stop-color:#42baea;stop-opacity:1"
         id="stop3752-3-2-0" />
      <stop
         offset="0.704952"
         style="stop-color:#3689e6;stop-opacity:1"
         id="stop3754-7-2-8" />
      <stop
         offset="1"
         style="stop-color:#2b63a0;stop-opacity:1"
         id="stop3756-9-3-2" />
    </linearGradient>
    <linearGradient
       id="linearGradient4011-4">
      <stop
         offset="0"
         style="stop-color:#ffffff;stop-opacity:1"
         id="stop4013-8" />
      <stop
         offset="0.507761"
         style="stop-color:#ffffff;stop-opacity:0.23529412"
         id="stop4015-5" />
      <stop
         offset="0.83456558"
         style="stop-color:#ffffff;stop-opacity:0.15686275"
         id="stop4017-6" />
      <stop
         offset="1"
         style="stop-color:#ffffff;stop-opacity:0.39215687"
         id="stop4019-1" />
    </linearGradient>
    <linearGradient
       inkscape:collect="always"
       xlink:href="#linearGradient4011-4"
       id="linearGradient3089"
       gradientUnits="userSpaceOnUse"
       gradientTransform="matrix(0.68468465,0,0,0.68468467,-33.114836,-1.3617137)"
       x1="71.204407"
       y1="6.2375584"
       x2="71.204407"
       y2="44.340794" />
    <radialGradient
       inkscape:collect="always"
       xlink:href="#linearGradient2867-449-88-871-390-598-476-591-434-148-57-177-3-8-9"
       id="radialGradient3092"
       gradientUnits="userSpaceOnUse"
       gradientTransform="matrix(0,1.7065212,-1.8052958,-4.6448881e-8,31.254412,-8.7086108)"
       cx="3.9722471"
       cy="8.4497671"
       fx="3.9722471"
       fy="8.4497671"
       r="19.99999" />
    <radialGradient
       inkscape:collect="always"
       xlink:href="#linearGradient3820-7-2-1"
       id="radialGradient3095"
       gradientUnits="userSpaceOnUse"
       gradientTransform="matrix(0.27083381,0,0,0.08762273,-56.414394,17.135715)"
       cx="99.157013"
       cy="186.17059"
       fx="99.157013"
       fy="186.17059"
       r="62.769119" />
    <linearGradient
       inkscape:collect="always"
       xlink:href="#linearGradient4062-2"
       id="linearGradient3098"
       gradientUnits="userSpaceOnUse"
       gradientTransform="matrix(0.21412596,0,0,0.22795278,44.790404,17.86588)"
       x1="-50.417347"
       y1="-14.804217"
       x2="-50.417347"
       y2="48.049694" />
    <linearGradient
       inkscape:collect="always"
       xlink:href="#linearGradient4062-2"
       id="linearGradient3102"
       gradientUnits="userSpaceOnUse"
       gradientTransform="matrix(0.21412596,0,0,0.22795278,47.637862,21.526897)"
       x1="-40.587261"
       y1="-35.402748"
       x2="-39.8311"
       y2="-15.912916" />
    <linearGradient
       inkscape:collect="always"
       xlink:href="#linearGradient3707-319-631-407-324-3-8-7"
       id="linearGradient3106"
       gradientUnits="userSpaceOnUse"
       gradientTransform="translate(24,0)"
       x1="15.550736"
       y1="30.895977"
       x2="15.550736"
       y2="0.23165128" />
    <linearGradient
       inkscape:collect="always"
       xlink:href="#linearGradient4011"
       id="linearGradient3109"
       gradientUnits="userSpaceOnUse"
       gradientTransform="matrix(0.72972967,0,0,0.72972967,-36.346078,-2.5039298)"
       x1="71.204407"
       y1="6.2375584"
       x2="71.204407"
       y2="44.340794" />
    <radialGradient
       inkscape:collect="always"
       xlink:href="#linearGradient2867-449-88-871-390-598-476-591-434-148-57-177-3-8"
       id="radialGradient3112"
       gradientUnits="userSpaceOnUse"
       gradientTransform="matrix(4.5367027e-8,1.7632481,-1.8653063,0,31.761486,-11.251052)"
       cx="6.1596723"
       cy="8.4497671"
       fx="6.1596723"
       fy="8.4497671"
       r="19.99999" />
    <linearGradient
       inkscape:collect="always"
       xlink:href="#linearGradient3707-319-631-407-324-3-8"
       id="linearGradient3115"
       gradientUnits="userSpaceOnUse"
       gradientTransform="matrix(0.74365873,0,0,0.74365873,-1.847808,-1.8478104)"
       x1="24"
       y1="44"
       x2="24"
       y2="3.8990016" />
    <radialGradient
       inkscape:collect="always"
       xlink:href="#linearGradient8838"
       id="radialGradient3118"
       gradientUnits="userSpaceOnUse"
       gradientTransform="matrix(1.5058824,0,0,0.37647,-78.305888,26.258824)"
       cx="62.625"
       cy="4.625"
       fx="62.625"
       fy="4.625"
       r="10.625" />
    <radialGradient
       gradientTransform="matrix(0.17524541,0,0,0.05575992,-1.37681,18.119145)"
       gradientUnits="userSpaceOnUse"
       xlink:href="#linearGradient3820-7-2-2"
       id="radialGradient3043"
       fy="186.17059"
       fx="99.157013"
       r="62.769119"
       cy="186.17059"
       cx="99.157013" />
    <linearGradient
       id="linearGradient3820-7-2-2">
      <stop
         offset="0"
         style="stop-color:#3d3d3d;stop-opacity:1"
         id="stop3822-2-6-36" />
      <stop
         offset="0.5"
         style="stop-color:#686868;stop-opacity:0.49803922"
         id="stop3864-8-7-6" />
      <stop
         offset="1"
         style="stop-color:#686868;stop-opacity:0"
         id="stop3824-1-2-4" />
    </linearGradient>
    <radialGradient
       r="62.769119"
       fy="186.17059"
       fx="99.157013"
       cy="186.17059"
       cx="99.157013"
       gradientTransform="matrix(0.17524541,0,0,0.05575992,-1.3768101,18.118568)"
       gradientUnits="userSpaceOnUse"
       id="radialGradient3315"
       xlink:href="#linearGradient3820-7-2-2"
       inkscape:collect="always" />
  </defs>
  <metadata
     id="metadata4253">
    <rdf:RDF>
      <cc:Work
         rdf:about="">
        <dc:format>image/svg+xml</dc:format>
        <dc:type
           rdf:resource="http://purl.org/dc/dcmitype/StillImage" />
        <dc:title></dc:title>
      </cc:Work>
    </rdf:RDF>
  </metadata>
  <g
     id="g4204"
     transform="scale(0.75,0.75)">
    <path
       d="m 27.000001,28.499422 a 11,3.4999999 0 1 1 -21.9999997,0 11,3.4999999 0 1 1 21.9999997,0 z"
       inkscape:connector-curvature="0"
       id="path3818-0-2"
       style="fill:url(#radialGradient3315);fill-opacity:1;stroke:none" />
    <path
       style="color:#000000;display:inline;overflow:visible;visibility:visible;fill:url(#radialGradient3092);fill-opacity:1;fill-rule:nonzero;stroke:none;stroke-width:1;marker:none;enable-background:accumulate"
       id="path2555"
       d="M 16.000004,1.9999997 C 8.2752852,1.9999997 2,8.2752812 2,15.999999 2,23.724717 8.2752852,30.000002 16.000004,30 c 7.724714,0 14.000005,-6.275283 13.999998,-14.000001 0,-7.7247178 -6.275284,-13.9999993 -13.999998,-13.9999993 z"
       inkscape:connector-curvature="0" />
    <path
       style="color:#000000;display:inline;overflow:visible;visibility:visible;opacity:0.5;fill:#000000;fill-opacity:0;fill-rule:nonzero;stroke:#00537d;stroke-width:1.33333337;stroke-linecap:round;stroke-linejoin:round;stroke-miterlimit:4;stroke-dasharray:none;stroke-dashoffset:0;stroke-opacity:1;marker:none;enable-background:accumulate"
       id="path2555-6"
       d="M 16.000002,2 C 8.2752847,2 2,8.2752817 2,16 2,23.724717 8.2752847,30.000002 16.000002,30 23.724716,30 30.000008,23.724717 30,16 30,8.2752817 23.724716,2 16.000002,2 Z"
       inkscape:connector-curvature="0" />
    <path
       d="m 16.09375,7.0058594 c -1.751316,0 -3.181641,1.4426539 -3.181641,3.1816406 0,0.868521 0.362063,1.654645 0.939453,2.224609 L 8.6894531,11.613281 C 8.3150085,11.465775 7.8905858,11.391837 7.4472656,11.603516 6.8159266,11.904954 6.5144299,12.41071 6.5058594,13.080078 a 0.9938084,0.9938084 0 0 0 0,0.002 c -0.00831,0.709098 0.4698221,1.201285 0.9199218,1.429688 a 0.9938084,0.9938084 0 0 0 0.1503907,0.06055 l 5.1386721,1.621093 -0.05078,3.328125 -2.015624,6.169922 0.126953,-0.255859 c -0.472051,0.683491 -0.293651,1.773607 0.4375,2.244141 0.752767,0.484494 1.740683,0.371939 2.292968,-0.427735 a 0.9938084,0.9938084 0 0 0 0.07617,-0.130859 l 2.414063,-4.964844 2.390625,4.962891 a 0.9938084,0.9938084 0 0 0 0.03906,0.07422 c 0.457637,0.773153 1.462061,0.995155 2.210938,0.582032 0.7552,-0.416605 1.085884,-1.440079 0.625,-2.21875 l 0.0918,0.203125 -1.988282,-6.207032 -0.07422,-3.113281 5.267578,-1.912109 a 0.9938084,0.9938084 0 0 0 0.216797,-0.111328 c 0.577586,-0.391019 0.905061,-1.176627 0.61914,-1.904297 -0.292068,-0.743334 -1.039801,-1.075168 -1.722656,-1 a 0.9938084,0.9938084 0 0 0 -0.04883,0.0078 c -0.114265,0.01834 -0.398159,0.04501 -0.707031,0.269531 l 0.43164,-0.177734 -4.966797,0.765625 c 0.563639,-0.564791 0.925782,-1.331004 0.925782,-2.189453 0,-1.756226 -1.461576,-3.1816406 -3.212891,-3.1816406 z"
       id="path3175"
       style="color:#000000;display:inline;overflow:visible;visibility:visible;opacity:0.05;fill:#000000;fill-opacity:1;fill-rule:nonzero;stroke:none;stroke-width:1;marker:none;enable-background:accumulate"
       inkscape:original="M 16.09375 8 C 14.881611 8 13.90625 8.9865422 13.90625 10.1875 C 13.90625 11.388459 14.881611 12.34375 16.09375 12.34375 C 17.305887 12.34375 18.3125 11.388459 18.3125 10.1875 C 18.3125 8.9865422 17.305887 8 16.09375 8 z M 7.875 12.5 C 7.6595069 12.602889 7.5029712 12.861696 7.5 13.09375 C 7.49728 13.325836 7.6621868 13.517008 7.875 13.625 L 13.71875 15.46875 L 13.65625 19.6875 L 11.59375 26 C 11.395074 26.287667 11.451996 26.651969 11.75 26.84375 C 12.048017 27.035559 12.488804 26.975199 12.6875 26.6875 L 16 19.875 L 19.28125 26.6875 C 19.45786 26.985873 19.847196 27.076742 20.15625 26.90625 C 20.465304 26.735761 20.582854 26.360875 20.40625 26.0625 L 18.375 19.71875 L 18.28125 15.75 L 24.21875 13.59375 C 24.458267 13.4316 24.57249 13.139019 24.46875 12.875 C 24.365001 12.610952 24.071897 12.468006 23.78125 12.5 C 23.679686 12.5163 23.582252 12.53396 23.5 12.59375 L 16 13.75 L 8.53125 12.59375 C 8.3383961 12.455165 8.0904921 12.397106 7.875 12.5 z "
       inkscape:radius="0.99370903"
       sodipodi:type="inkscape:offset"
       transform="translate(0,-0.66658363)" />
    <path
       d="m 18.299799,9.5090608 c 0,1.2009602 -0.983764,2.1756512 -2.195901,2.1756512 -1.212139,0 -2.195902,-0.974691 -2.195902,-2.1756512 0,-1.2009583 0.983763,-2.1756495 2.195902,-2.1756495 1.212137,0 2.195901,0.9746912 2.195901,2.1756495 z m 5.480666,2.3134232 c -0.101564,0.0163 -0.197533,0.05599 -0.279785,0.11578 L 15.999771,13.097166 8.5392604,11.922281 C 8.3464065,11.783696 8.0752623,11.742197 7.8597702,11.845091 7.6442771,11.94798 7.5030077,12.191845 7.5000365,12.423899 c -0.00272,0.232086 0.1469205,0.432236 0.3597337,0.540228 l 5.8460378,1.837425 -0.03998,4.218107 -2.062831,6.317365 c -0.198676,0.287667 -0.138122,0.657112 0.159882,0.848893 0.298017,0.191809 0.720631,0.133367 0.919327,-0.154332 l 3.328993,-6.818979 3.266154,6.807194 c 0.17661,0.298373 0.570296,0.402021 0.87935,0.231529 0.309054,-0.170489 0.416427,-0.550548 0.239823,-0.848923 l -2.02454,-6.344543 -0.07993,-3.971062 5.928066,-2.145275 c 0.239517,-0.16215 0.343571,-0.469126 0.239831,-0.733145 -0.103749,-0.264048 -0.388859,-0.417886 -0.679506,-0.385892 l 2e-5,0 z"
       inkscape:connector-curvature="0"
       id="path6668-1"
       style="color:#000000;display:inline;overflow:visible;visibility:visible;opacity:0.15;fill:#000000;fill-opacity:1;fill-rule:nonzero;stroke:none;stroke-width:1;marker:none;enable-background:accumulate" />
    <path
       d="m 18.299799,8.5090656 c 0,1.2009595 -0.983764,2.1756514 -2.195901,2.1756514 -1.212139,0 -2.195902,-0.9746919 -2.195902,-2.1756514 0,-1.2009577 0.983763,-2.1756489 2.195902,-2.1756489 1.212137,0 2.195901,0.9746912 2.195901,2.1756489 z m 5.480666,2.3134234 c -0.101564,0.0163 -0.197533,0.05599 -0.279785,0.11578 L 15.999771,12.097171 8.5392604,10.922286 C 8.3464065,10.783701 8.0752623,10.742202 7.8597702,10.845096 7.6442771,10.947985 7.5030077,11.19185 7.5000365,11.423904 7.4973165,11.65599 7.646957,11.85614 7.8597702,11.964132 l 5.8460378,1.837425 -0.03998,4.218107 -2.062831,6.317365 c -0.198676,0.287667 -0.138122,0.657112 0.159882,0.848893 0.298017,0.191809 0.720631,0.133367 0.919327,-0.154332 l 3.328993,-6.818979 3.266154,6.807194 c 0.17661,0.298373 0.570296,0.402021 0.87935,0.231529 0.309054,-0.170489 0.416427,-0.550548 0.239823,-0.848923 l -2.02454,-6.344543 -0.07993,-3.971062 5.928066,-2.145275 c 0.239517,-0.16215 0.343571,-0.469126 0.239831,-0.733145 -0.103749,-0.264048 -0.388859,-0.417886 -0.679506,-0.385892 l 2e-5,0 z"
       inkscape:connector-curvature="0"
       id="path6668"
       style="fill:#ffffff;fill-opacity:1;stroke:none" />
    <path
       style="color:#000000;display:inline;overflow:visible;visibility:visible;opacity:0.5;fill:none;stroke:url(#linearGradient3089);stroke-width:1.33333337;stroke-linecap:round;stroke-linejoin:round;stroke-miterlimit:4;stroke-dasharray:none;stroke-dashoffset:0;stroke-opacity:1;marker:none;enable-background:accumulate"
       id="path8655"
       d="m 28.666667,15.999551 c 0,6.995833 -5.671478,12.667116 -12.666507,12.667116 -6.995669,0 -12.6668266,-5.671348 -12.6668266,-12.667116 0,-6.9955097 5.6711576,-12.6662176 12.6668266,-12.6662176 6.995029,0 12.666507,5.6707079 12.666507,12.6662176 l 0,0 z"
       inkscape:connector-curvature="0" />
  </g>
</svg>
