<?xml version="1.0" encoding="UTF-8" standalone="no"?>
<!-- Created with Inkscape (http://www.inkscape.org/) -->

<svg
   xmlns:dc="http://purl.org/dc/elements/1.1/"
   xmlns:cc="http://creativecommons.org/ns#"
   xmlns:rdf="http://www.w3.org/1999/02/22-rdf-syntax-ns#"
   xmlns:svg="http://www.w3.org/2000/svg"
   xmlns="http://www.w3.org/2000/svg"
   xmlns:xlink="http://www.w3.org/1999/xlink"
   xmlns:sodipodi="http://sodipodi.sourceforge.net/DTD/sodipodi-0.dtd"
   xmlns:inkscape="http://www.inkscape.org/namespaces/inkscape"
   id="svg2"
   version="1.1"
   inkscape:version="0.91 r13725"
   width="48"
   height="48"
   sodipodi:docname="folder-pictures.svg"
   inkscape:export-filename="/home/steffen/.icons/Concrete4/places/48/folder.png"
   inkscape:export-xdpi="90"
   inkscape:export-ydpi="90">
  <metadata
     id="metadata8">
    <rdf:RDF>
      <cc:Work
         rdf:about="">
        <dc:format>image/svg+xml</dc:format>
        <dc:type
           rdf:resource="http://purl.org/dc/dcmitype/StillImage" />
        <dc:title />
      </cc:Work>
    </rdf:RDF>
  </metadata>
  <defs
     id="defs6">
    <linearGradient
       id="linearGradient4263">
      <stop
         id="stop4265"
         offset="0"
         style="stop-color:#000000;stop-opacity:1" />
      <stop
         id="stop4267"
         offset="1"
         style="stop-color:#000000;stop-opacity:0" />
    </linearGradient>
    <linearGradient
       id="linearGradient3937-0">
      <stop
         style="stop-color:#9c9d9e;stop-opacity:1;"
         offset="0"
         id="stop3939-8" />
      <stop
         style="stop-color:#bbbcbd;stop-opacity:1;"
         offset="1"
         id="stop3941-2" />
    </linearGradient>
    <linearGradient
       inkscape:collect="always"
       xlink:href="#linearGradient3937-0"
       id="linearGradient4007"
       x1="24"
       y1="20"
       x2="24"
       y2="32"
       gradientUnits="userSpaceOnUse"
       gradientTransform="translate(0,1)" />
    <linearGradient
       inkscape:collect="always"
       xlink:href="#linearGradient3788"
       id="linearGradient3794"
       x1="23.5"
       y1="11.033334"
       x2="23.5"
       y2="13.1"
       gradientUnits="userSpaceOnUse"
       gradientTransform="matrix(1.0222222,0,0,0.96774194,-0.02222222,1.3225806)" />
    <linearGradient
       id="linearGradient3788">
      <stop
         style="stop-color:#000000;stop-opacity:0.50980395;"
         offset="0"
         id="stop3790" />
      <stop
         style="stop-color:#000000;stop-opacity:0.47058824"
         offset="1"
         id="stop3792" />
    </linearGradient>
    <linearGradient
       inkscape:collect="always"
       xlink:href="#linearGradient3782"
       id="linearGradient3965"
       x1="25"
       y1="27"
       x2="25"
       y2="52"
       gradientUnits="userSpaceOnUse"
       gradientTransform="matrix(1.1282051,0,0,1.12,-5.8974358,-18.24)" />
    <linearGradient
       id="linearGradient3782">
      <stop
         id="stop3784"
         offset="0"
         style="stop-color:#ffffff;stop-opacity:1;" />
      <stop
         id="stop3786"
         offset="1"
         style="stop-color:#e4e5e7;stop-opacity:1;" />
    </linearGradient>
    <linearGradient
       inkscape:collect="always"
       xlink:href="#linearGradient3927"
       id="linearGradient3933"
       x1="25"
       y1="16"
       x2="25"
       y2="39"
       gradientUnits="userSpaceOnUse"
       gradientTransform="matrix(1.1351352,0,0,1.1304347,-2.6756757,-5.0869566)" />
    <linearGradient
       id="linearGradient3927">
      <stop
         style="stop-color:#f1f2f3;stop-opacity:1;"
         offset="0"
         id="stop3929" />
      <stop
         style="stop-color:#e4e5e7;stop-opacity:1;"
         offset="1"
         id="stop3931" />
    </linearGradient>
    <linearGradient
       inkscape:collect="always"
       xlink:href="#linearGradient4263"
       id="linearGradient3835"
       x1="22"
       y1="11"
       x2="22"
       y2="9"
       gradientUnits="userSpaceOnUse"
       gradientTransform="matrix(1.05,0,0,1,-1.1999999,0)" />
    <linearGradient
       gradientTransform="translate(-1,13)"
       y2="-4"
       x2="8"
       y1="-4"
       x1="5"
       gradientUnits="userSpaceOnUse"
       id="linearGradient3987"
       xlink:href="#linearGradient3930"
       inkscape:collect="always" />
    <linearGradient
       inkscape:collect="always"
       id="linearGradient3930">
      <stop
         style="stop-color:#ffffff;stop-opacity:1;"
         offset="0"
         id="stop3932" />
      <stop
         style="stop-color:#ffffff;stop-opacity:0;"
         offset="1"
         id="stop3934" />
    </linearGradient>
    <linearGradient
       y2="-4"
       x2="29"
       y1="-4"
       x1="26"
       gradientTransform="matrix(-1,0,0,1,49,13)"
       gradientUnits="userSpaceOnUse"
       id="linearGradient3064"
       xlink:href="#linearGradient3930"
       inkscape:collect="always" />
    <radialGradient
       inkscape:collect="always"
       xlink:href="#linearGradient4303"
       id="radialGradient4309"
       cx="31"
       cy="52.599998"
       fx="31"
       fy="52.599998"
       r="31"
       gradientTransform="matrix(0.97618692,0,0,0.048387,-6.2617962,38.654836)"
       gradientUnits="userSpaceOnUse" />
    <linearGradient
       inkscape:collect="always"
       id="linearGradient4303">
      <stop
         style="stop-color:#000000;stop-opacity:0.19018404"
         offset="0"
         id="stop4305" />
      <stop
         id="stop4311"
         offset="0.74412525"
         style="stop-color:#000000;stop-opacity:0.05882353" />
      <stop
         style="stop-color:#000000;stop-opacity:0;"
         offset="1"
         id="stop4307" />
    </linearGradient>
  </defs>
  <sodipodi:namedview
     pagecolor="#ffffff"
     bordercolor="#666666"
     borderopacity="1"
     objecttolerance="10"
     gridtolerance="10"
     guidetolerance="10"
     inkscape:pageopacity="0"
     inkscape:pageshadow="2"
     inkscape:window-width="1366"
     inkscape:window-height="718"
     id="namedview4"
     showgrid="true"
     inkscape:snap-bbox="true"
     inkscape:zoom="11.313708"
     inkscape:cx="33.598622"
     inkscape:cy="13.862151"
     inkscape:window-x="0"
     inkscape:window-y="25"
     inkscape:window-maximized="1"
     inkscape:current-layer="layer1"
     showguides="true"
     inkscape:guide-bbox="true">
    <inkscape:grid
       type="xygrid"
       id="grid2987" />
    <sodipodi:guide
       orientation="1,0"
       position="24,21"
       id="guide3166" />
    <sodipodi:guide
       orientation="0,1"
       position="24,29"
       id="guide4164" />
    <sodipodi:guide
       orientation="0,1"
       position="24,13"
       id="guide4166" />
    <sodipodi:guide
       orientation="1,0"
       position="32,21"
       id="guide4168" />
    <sodipodi:guide
       orientation="1,0"
       position="16,21"
       id="guide4170" />
  </sodipodi:namedview>
  <g
     inkscape:groupmode="layer"
     id="layer1"
     inkscape:label="folder">
    <g
       transform="translate(4.9999999e-6,1)"
       style="display:inline"
       id="g4187">
      <path
         inkscape:connector-curvature="0"
         id="rect3967"
         transform="translate(0,-1)"
         d="M 8,5 C 6.892,5 6,5.892 6,7 L 6,8 5,8 C 3.892,8 3,8.892 3,10 l 0,10 c 0,1.108 0.892,2 2,2 l 38,0 c 1.108,0 2,-0.892 2,-2 L 45,10 C 45,8.892 44.108,8 43,8 L 21,8 21,7 C 21,5.892 20.108,5 19,5 L 8,5 Z"
         style="fill:#000000;fill-opacity:0.65882353;stroke:#000000;stroke-width:0;stroke-miterlimit:4;stroke-dasharray:none;stroke-opacity:1" />
      <path
         inkscape:connector-curvature="0"
         id="rect3969"
         transform="translate(0,-1)"
         d="M 8,6 C 7.466143,6 7,6.2608133 7,7 L 7,9 5,9 C 4.446,9 4,9.446 4,10 l 0,10 c 0,0.554 0.446,1 1,1 l 38,0 c 0.554,0 1,-0.446 1,-1 L 44,10 C 44,9.446 43.554,9 43,9 L 20,9 20,7 C 20,6.2608133 19.533858,6 19,6 L 8,6 Z"
         style="fill:#8b8b8d;fill-opacity:1;stroke:#000000;stroke-width:0;stroke-miterlimit:4;stroke-dasharray:none;stroke-opacity:1" />
      <rect
         style="fill:url(#linearGradient3794);fill-opacity:1;stroke:#000000;stroke-width:0;stroke-miterlimit:4;stroke-dasharray:none;stroke-opacity:1"
         id="rect3915"
         width="46"
         height="30"
         x="1"
         y="11"
         rx="2"
         ry="2" />
      <rect
         rx="1"
         style="fill:url(#linearGradient3965);fill-opacity:1;stroke:#000000;stroke-width:0;stroke-miterlimit:4;stroke-dasharray:none;stroke-opacity:1"
         id="rect3957"
         width="44"
         height="28"
         x="2"
         y="12"
         ry="1" />
      <rect
         style="fill:url(#linearGradient3933);fill-opacity:1;stroke:#000000;stroke-width:0;stroke-miterlimit:4;stroke-dasharray:none;stroke-opacity:1"
         id="rect3925"
         width="42"
         height="26"
         x="3"
         y="13"
         rx="0"
         ry="0" />
      <rect
         ry="0"
         y="9"
         x="3"
         height="2"
         width="42"
         id="rect3827"
         style="opacity:0.17300002;fill:url(#linearGradient3835);fill-opacity:1;stroke:#102b68;stroke-width:0;stroke-linecap:butt;stroke-linejoin:miter;stroke-miterlimit:4;stroke-dasharray:none;stroke-dashoffset:0;stroke-opacity:1" />
      <path
         inkscape:connector-curvature="0"
         id="rect3011"
         d="M 8,5 C 7.446,5 7,5.446 7,6 L 7,7 C 7,6.446 7.446,6 8,6 l 11,0 c 0.554,0 1,0.446 1,1 L 20,6 C 20,5.446 19.554,5 19,5 L 8,5 Z"
         style="opacity:0.15;fill:#ffffff;fill-opacity:1;stroke:#767779;stroke-width:0;stroke-linecap:butt;stroke-linejoin:miter;stroke-miterlimit:4;stroke-dasharray:none;stroke-dashoffset:0;stroke-opacity:1" />
      <path
         sodipodi:nodetypes="sscsccs"
         inkscape:connector-curvature="0"
         id="rect3891-8"
         d="M 5,8 C 4.446,8 4,8.446 4,9 l 0,1 C 4,9.446 4.446,9 5,9 L 7,9 7,8 Z"
         style="display:inline;opacity:0.15;fill:url(#linearGradient3987);fill-opacity:1;stroke:#767779;stroke-width:0;stroke-linecap:butt;stroke-linejoin:miter;stroke-miterlimit:4;stroke-dasharray:none;stroke-dashoffset:0;stroke-opacity:1" />
      <path
         sodipodi:nodetypes="sscsccs"
         inkscape:connector-curvature="0"
         id="rect3891-8-0"
         d="m 43,8 c 0.554,0 1,0.446 1,1 l 0,1 C 44,9.446 43.554,9 43,9 L 20,9 20,8 Z"
         style="display:inline;opacity:0.15;fill:url(#linearGradient3064);fill-opacity:1;stroke:#767779;stroke-width:0;stroke-linecap:butt;stroke-linejoin:miter;stroke-miterlimit:4;stroke-dasharray:none;stroke-dashoffset:0;stroke-opacity:1" />
      <ellipse
         cx="24"
         cy="41.200001"
         rx="23"
         ry="1.5000007"
         style="display:inline;opacity:1;fill:url(#radialGradient4309);fill-opacity:1;stroke:none;stroke-width:1.20000005;stroke-linecap:butt;stroke-linejoin:miter;stroke-miterlimit:4;stroke-dasharray:none;stroke-dashoffset:0;stroke-opacity:1"
         id="path4293" />
    </g>
  </g>
  <g
     inkscape:groupmode="layer"
     id="layer4"
     inkscape:label="icon"
     style="display:inline">
    <path
       style="fill:#ffffff;fill-opacity:1;stroke:#102b68;stroke-width:0;stroke-linecap:butt;stroke-linejoin:miter;stroke-miterlimit:4;stroke-opacity:1;stroke-dasharray:none;stroke-dashoffset:0;display:inline;opacity:0.85"
       d="m 16,23 c -0.554,0 -1,0.446 -1,1 l 0,10 c 0,0.554 0.446,1 1,1 l 16,0 c 0.554,0 1,-0.446 1,-1 l 0,-10 c 0,-0.554 -0.446,-1 -1,-1 l -2,0 -1,-2 -5,0 -5,0 -1,2 z m 0,1 2.5,0 1,-2 4.5,0 4.5,0 1,2 2.5,0 0,10 -16,0 z"
       id="rect3990-5"
       inkscape:connector-curvature="0"
       sodipodi:nodetypes="sssssssscccccscccccccccc" />
    <path
       style="fill:url(#linearGradient4007);fill-opacity:1;stroke:#102b68;stroke-width:0;stroke-linecap:butt;stroke-linejoin:miter;stroke-miterlimit:4;stroke-opacity:1;stroke-dashoffset:0"
       d="m 19.5,21 -1,2 -2.5,0 0,10 16,0 0,-10 -2.5,0 -1,-2 -9,0 z m 4.5,2 c 2.209139,0 4,1.790861 4,4 0,2.209139 -1.790861,4 -4,4 -2.209139,0 -4,-1.790861 -4,-4 0,-2.209139 1.790861,-4 4,-4 z"
       id="rect3995"
       inkscape:connector-curvature="0" />
    <path
       style="fill:#636465;fill-opacity:1;stroke:#102b68;stroke-width:0;stroke-linecap:butt;stroke-linejoin:miter;stroke-miterlimit:4;stroke-opacity:1;stroke-dasharray:none;stroke-dashoffset:0"
       d="m 24,23 c -2.209139,0 -4,1.790861 -4,4 0,2.209139 1.790861,4 4,4 2.209139,0 4,-1.790861 4,-4 0,-2.209139 -1.790861,-4 -4,-4 z m 0,1 c 1.656854,0 3,1.343146 3,3 0,1.656854 -1.343146,3 -3,3 -1.656854,0 -3,-1.343146 -3,-3 0,-1.656854 1.343146,-3 3,-3 z"
       id="path3985"
       inkscape:connector-curvature="0" />
    <path
       style="fill:#767779;fill-opacity:1;stroke:#102b68;stroke-width:0;stroke-linecap:butt;stroke-linejoin:miter;stroke-miterlimit:4;stroke-opacity:1;stroke-dasharray:none;stroke-dashoffset:0"
       d="m 16,22 c -0.554,0 -1,0.446 -1,1 l 0,10 c 0,0.554 0.446,1 1,1 l 16,0 c 0.554,0 1,-0.446 1,-1 l 0,-10 c 0,-0.554 -0.446,-1 -1,-1 l -2,0 -1,-2 -5,0 -5,0 -1,2 z m 0,1 2.5,0 1,-2 4.5,0 4.5,0 1,2 2.5,0 0,10 -16,0 z"
       id="rect3990"
       inkscape:connector-curvature="0"
       sodipodi:nodetypes="sssssssscccccscccccccccc" />
  </g>
</svg>
