<?xml version="1.0" encoding="UTF-8" standalone="no"?>
<!-- Created with Inkscape (http://www.inkscape.org/) -->

<svg
   xmlns:dc="http://purl.org/dc/elements/1.1/"
   xmlns:cc="http://creativecommons.org/ns#"
   xmlns:rdf="http://www.w3.org/1999/02/22-rdf-syntax-ns#"
   xmlns:svg="http://www.w3.org/2000/svg"
   xmlns="http://www.w3.org/2000/svg"
   xmlns:xlink="http://www.w3.org/1999/xlink"
   xmlns:sodipodi="http://sodipodi.sourceforge.net/DTD/sodipodi-0.dtd"
   xmlns:inkscape="http://www.inkscape.org/namespaces/inkscape"
   id="svg2"
   version="1.1"
   inkscape:version="0.91 r13725"
   width="48"
   height="48"
   sodipodi:docname="gtk-network.svg"
   inkscape:export-filename="/home/steffen/.icons/Concrete4/places/48/folder.png"
   inkscape:export-xdpi="90"
   inkscape:export-ydpi="90">
  <metadata
     id="metadata8">
    <rdf:RDF>
      <cc:Work
         rdf:about="">
        <dc:format>image/svg+xml</dc:format>
        <dc:type
           rdf:resource="http://purl.org/dc/dcmitype/StillImage" />
        <dc:title />
      </cc:Work>
    </rdf:RDF>
  </metadata>
  <defs
     id="defs6">
    <linearGradient
       inkscape:collect="always"
       xlink:href="#linearGradient3930-4-8"
       id="linearGradient3064-0"
       gradientUnits="userSpaceOnUse"
       gradientTransform="matrix(-1,0,0,1,49,13)"
       x1="26"
       y1="-4"
       x2="29"
       y2="-4" />
    <linearGradient
       id="linearGradient3930-4-8"
       inkscape:collect="always">
      <stop
         id="stop3932-8-8"
         offset="0"
         style="stop-color:#ffffff;stop-opacity:1;" />
      <stop
         id="stop3934-2-3"
         offset="1"
         style="stop-color:#ffffff;stop-opacity:0;" />
    </linearGradient>
    <linearGradient
       inkscape:collect="always"
       xlink:href="#linearGradient3930-2"
       id="linearGradient3987-7"
       gradientUnits="userSpaceOnUse"
       x1="5"
       y1="-4"
       x2="8"
       y2="-4"
       gradientTransform="translate(-1,13)" />
    <linearGradient
       id="linearGradient3930-2"
       inkscape:collect="always">
      <stop
         id="stop3932-82"
         offset="0"
         style="stop-color:#ffffff;stop-opacity:1;" />
      <stop
         id="stop3934-0"
         offset="1"
         style="stop-color:#ffffff;stop-opacity:0;" />
    </linearGradient>
    <linearGradient
       gradientTransform="matrix(1.05,0,0,1,-1.1999999,0)"
       gradientUnits="userSpaceOnUse"
       y2="9"
       x2="22"
       y1="11"
       x1="22"
       id="linearGradient3835"
       xlink:href="#linearGradient3829"
       inkscape:collect="always" />
    <linearGradient
       gradientTransform="matrix(1.0222222,0,0,0.96774194,-0.02222222,1.3225806)"
       gradientUnits="userSpaceOnUse"
       y2="13.1"
       x2="23.5"
       y1="11.033334"
       x1="23.5"
       id="linearGradient3794"
       xlink:href="#linearGradient3788"
       inkscape:collect="always" />
    <linearGradient
       gradientTransform="matrix(1.1282051,0,0,1.12,-5.8974358,-18.24)"
       gradientUnits="userSpaceOnUse"
       y2="52"
       x2="25"
       y1="27"
       x1="25"
       id="linearGradient3965"
       xlink:href="#linearGradient3782"
       inkscape:collect="always" />
    <linearGradient
       gradientTransform="matrix(1.1351352,0,0,1.1304347,-2.6756757,-5.0869566)"
       gradientUnits="userSpaceOnUse"
       y2="39"
       x2="25"
       y1="16"
       x1="25"
       id="linearGradient3933"
       xlink:href="#linearGradient3927"
       inkscape:collect="always" />
    <linearGradient
       id="linearGradient3927">
      <stop
         id="stop3929"
         offset="0"
         style="stop-color:#f1f2f3;stop-opacity:1;" />
      <stop
         id="stop3931"
         offset="1"
         style="stop-color:#e4e5e7;stop-opacity:1;" />
    </linearGradient>
    <linearGradient
       id="linearGradient3782">
      <stop
         style="stop-color:#ffffff;stop-opacity:1;"
         offset="0"
         id="stop3784" />
      <stop
         style="stop-color:#e4e5e7;stop-opacity:1;"
         offset="1"
         id="stop3786" />
    </linearGradient>
    <linearGradient
       id="linearGradient3788">
      <stop
         id="stop3790"
         offset="0"
         style="stop-color:#000000;stop-opacity:0.50980395;" />
      <stop
         id="stop3792"
         offset="1"
         style="stop-color:#000000;stop-opacity:0.39215687;" />
    </linearGradient>
    <linearGradient
       id="linearGradient3829"
       inkscape:collect="always">
      <stop
         id="stop3831"
         offset="0"
         style="stop-color:#000000;stop-opacity:1;" />
      <stop
         id="stop3833"
         offset="1"
         style="stop-color:#000000;stop-opacity:0;" />
    </linearGradient>
  </defs>
  <sodipodi:namedview
     pagecolor="#ffffff"
     bordercolor="#666666"
     borderopacity="1"
     objecttolerance="10"
     gridtolerance="10"
     guidetolerance="10"
     inkscape:pageopacity="0"
     inkscape:pageshadow="2"
     inkscape:window-width="1366"
     inkscape:window-height="718"
     id="namedview4"
     showgrid="true"
     inkscape:snap-bbox="true"
     inkscape:zoom="11.313709"
     inkscape:cx="19.040462"
     inkscape:cy="22.775675"
     inkscape:window-x="0"
     inkscape:window-y="25"
     inkscape:window-maximized="1"
     inkscape:current-layer="svg2"
     showguides="true"
     inkscape:guide-bbox="true">
    <inkscape:grid
       type="xygrid"
       id="grid2987" />
    <sodipodi:guide
       orientation="1,0"
       position="24,21"
       id="guide3166" />
    <sodipodi:guide
       orientation="0,1"
       position="24,29"
       id="guide4164" />
    <sodipodi:guide
       orientation="0,1"
       position="24,13"
       id="guide4166" />
    <sodipodi:guide
       orientation="1,0"
       position="32,21"
       id="guide4168" />
    <sodipodi:guide
       orientation="1,0"
       position="16,21"
       id="guide4170" />
  </sodipodi:namedview>
  <g
     style="display:inline"
     inkscape:label="Ebene#1"
     id="layer4">
    <g
       transform="translate(0,1)"
       id="g4075">
      <rect
         transform="matrix(0.9942005,0,0,0.99132589,0,0.3729868)"
         style="opacity:0.17000002;fill:#000000;fill-opacity:1;stroke:#000000;stroke-width:0;stroke-miterlimit:4;stroke-opacity:1;stroke-dasharray:none;display:inline;"
         id="rect3915-0-0"
         width="46"
         height="30"
         x="1.14"
         y="11.86"
         rx="2"
         ry="2" />
      <path
         id="rect3967-0"
         transform="translate(0,-1)"
         d="M 8,5 C 6.892,5 6,5.892 6,7 L 6,8 5,8 C 3.892,8 3,8.892 3,10 l 0,10 c 0,1.108 0.892,2 2,2 l 38,0 c 1.108,0 2,-0.892 2,-2 L 45,10 C 45,8.892 44.108,8 43,8 L 21,8 21,7 C 21,5.892 20.108,5 19,5 L 8,5 z"
         style="fill:#000000;fill-opacity:0.65882353;stroke:#000000;stroke-width:0;stroke-miterlimit:4;stroke-opacity:1;stroke-dasharray:none"
         inkscape:connector-curvature="0" />
      <rect
         style="fill:#8b8b8d;fill-opacity:1;stroke:#000000;stroke-width:0;stroke-miterlimit:4;stroke-opacity:1;stroke-dasharray:none"
         id="rect3969-3"
         width="40"
         height="12"
         x="4"
         y="8"
         ry="1" />
      <path
         sodipodi:nodetypes="sssccccss"
         inkscape:connector-curvature="0"
         id="rect3945-7"
         d="m 8,5 11,0 c 0.533858,0 1,0.2608133 1,1 L 20,8 20,8 7,8 7,8 7,6 C 7,5.2608133 7.466143,5 8,5 z"
         style="fill:#8b8b8d;fill-opacity:1;stroke:#000000;stroke-width:0;stroke-miterlimit:4;stroke-opacity:1" />
      <rect
         style="fill:url(#linearGradient3794);fill-opacity:1;stroke:#000000;stroke-width:0;stroke-miterlimit:4;stroke-opacity:1;stroke-dasharray:none"
         id="rect3915-2"
         width="46"
         height="30"
         x="1"
         y="11"
         rx="2"
         ry="2" />
      <rect
         rx="1"
         style="fill:url(#linearGradient3965);fill-opacity:1;stroke:#000000;stroke-width:0;stroke-miterlimit:4;stroke-opacity:1;stroke-dasharray:none"
         id="rect3957-4"
         width="44"
         height="28"
         x="2"
         y="12"
         ry="1" />
      <rect
         style="fill:url(#linearGradient3933);fill-opacity:1;stroke:#000000;stroke-width:0;stroke-miterlimit:4;stroke-opacity:1;stroke-dasharray:none"
         id="rect3925-9"
         width="42"
         height="26"
         x="3"
         y="13"
         rx="0"
         ry="0" />
      <rect
         ry="0"
         y="9"
         x="3"
         height="2"
         width="42"
         id="rect3827-0"
         style="opacity:0.17300002;fill:url(#linearGradient3835);fill-opacity:1;stroke:#102b68;stroke-width:0;stroke-linecap:butt;stroke-linejoin:miter;stroke-miterlimit:4;stroke-opacity:1;stroke-dasharray:none;stroke-dashoffset:0" />
      <path
         inkscape:connector-curvature="0"
         id="rect3011-6"
         d="M 8,5 C 7.446,5 7,5.446 7,6 L 7,7 C 7,6.446 7.446,6 8,6 l 11,0 c 0.554,0 1,0.446 1,1 L 20,6 C 20,5.446 19.554,5 19,5 L 8,5 z"
         style="opacity:0.15;fill:#ffffff;fill-opacity:1;stroke:#767779;stroke-width:0;stroke-linecap:butt;stroke-linejoin:miter;stroke-miterlimit:4;stroke-opacity:1;stroke-dasharray:none;stroke-dashoffset:0" />
      <path
         sodipodi:nodetypes="sscsccs"
         inkscape:connector-curvature="0"
         id="rect3891-8-7"
         d="M 5,8 C 4.446,8 4,8.446 4,9 l 0,1 C 4,9.446 4.446,9 5,9 L 7,9 7,8 z"
         style="opacity:0.15;fill:url(#linearGradient3987-7);fill-opacity:1;stroke:#767779;stroke-width:0;stroke-linecap:butt;stroke-linejoin:miter;stroke-miterlimit:4;stroke-opacity:1;stroke-dasharray:none;stroke-dashoffset:0;display:inline" />
      <path
         sodipodi:nodetypes="sscsccs"
         inkscape:connector-curvature="0"
         id="rect3891-8-0-7"
         d="m 43,8 c 0.554,0 1,0.446 1,1 l 0,1 C 44,9.446 43.554,9 43,9 L 20,9 20,8 z"
         style="opacity:0.15;fill:url(#linearGradient3064-0);fill-opacity:1;stroke:#767779;stroke-width:0;stroke-linecap:butt;stroke-linejoin:miter;stroke-miterlimit:4;stroke-opacity:1;stroke-dasharray:none;stroke-dashoffset:0;display:inline" />
    </g>
  </g>
  <g
     id="layer1-0-71-3"
     transform="matrix(1.1333333,0,0,1.0748361,14.933334,19.850327)"
     style="color:#000000;fill:#ffffff;fill-opacity:1;fill-rule:nonzero;stroke:none;stroke-width:1.70000005000000010;marker:none;visibility:visible;display:inline;overflow:visible;enable-background:accumulate">
    <g
       style="opacity:0.90000000000000002;color:#000000;fill:#ffffff;fill-opacity:1;fill-rule:nonzero;stroke:none;stroke-width:1.70000005000000010;marker:none;visibility:visible;display:inline;overflow:visible;enable-background:accumulate"
       id="layer1-6-9-8"
       transform="translate(-0.02867384,-0.7867384)">
      <path
         style="color:#000000;fill:#ffffff;fill-opacity:1;fill-rule:nonzero;stroke:none;stroke-width:1.70000005000000010;marker:none;visibility:visible;display:inline;overflow:visible;enable-background:accumulate"
         id="path4112-19-69-3-1-46-6"
         d="m 8.0286738,10.786738 c -0.8837844,0 -1.7582785,0.463138 -2.1184755,0.860829 l 2.1184755,2.303665 2.1390372,-2.283103 C 9.8075138,11.249876 8.9124582,10.786738 8.0286738,10.786738 z m 0,-3.9999996 c -1.847888,0 -3.5041267,0.736481 -4.8649357,1.861156 l 1.3245282,1.4137196 c 0.90637,-0.6491716 2.3168195,-1.2748756 3.4869315,-1.2748756 1.198417,0 2.6760272,0.639835 3.5952572,1.3180686 L 12.935091,8.6271534 C 11.574282,7.5024784 9.8765618,6.7867384 8.0286738,6.7867384 z m 0,-3.999999 c -2.853422,0 -5.468321,1.09634 -7.49999996,2.922777 l 1.29591676,1.459363 c 1.8117159,-1.588448 3.7176605,-2.382141 6.2040832,-2.382141 2.4864232,0 4.3343812,0.747499 6.2328602,2.414286 l 1.26714,-1.491508 C 13.496995,3.8830794 10.882095,2.7867394 8.0286738,2.7867394 z"
         inkscape:connector-curvature="0" />
    </g>
  </g>
  <g
     id="layer1-0-71"
     transform="matrix(1.1333333,0,0,1.0748361,14.933333,18.850327)"
     style="color:#000000;fill:#767779;fill-opacity:1;fill-rule:nonzero;stroke:none;stroke-width:1.70000005;marker:none;visibility:visible;display:inline;overflow:visible;enable-background:accumulate">
    <g
       style="opacity:0.9;color:#000000;fill:#767779;fill-opacity:1;fill-rule:nonzero;stroke:none;stroke-width:1.70000005;marker:none;visibility:visible;display:inline;overflow:visible;enable-background:accumulate"
       id="layer1-6-9"
       transform="translate(-0.02867384,-0.7867384)">
      <path
         style="color:#000000;fill:#767779;fill-opacity:1;fill-rule:nonzero;stroke:none;stroke-width:1.70000005;marker:none;visibility:visible;display:inline;overflow:visible;enable-background:accumulate"
         id="path4112-19-69-3-1-46"
         d="m 8.0286738,10.786738 c -0.8837844,0 -1.7582785,0.463138 -2.1184755,0.860829 l 2.1184755,2.303665 2.1390372,-2.283103 C 9.8075138,11.249876 8.9124582,10.786738 8.0286738,10.786738 z m 0,-3.9999996 c -1.847888,0 -3.5041267,0.736481 -4.8649357,1.861156 l 1.3245282,1.4137196 c 0.90637,-0.6491716 2.3168195,-1.2748756 3.4869315,-1.2748756 1.198417,0 2.6760272,0.639835 3.5952572,1.3180686 L 12.935091,8.6271534 C 11.574282,7.5024784 9.8765618,6.7867384 8.0286738,6.7867384 z m 0,-3.999999 c -2.853422,0 -5.468321,1.09634 -7.49999996,2.922777 l 1.29591676,1.459363 c 1.8117159,-1.588448 3.7176605,-2.382141 6.2040832,-2.382141 2.4864232,0 4.3343812,0.747499 6.2328602,2.414286 l 1.26714,-1.491508 C 13.496995,3.8830794 10.882095,2.7867394 8.0286738,2.7867394 z"
         inkscape:connector-curvature="0" />
    </g>
  </g>
</svg>
