<?xml version="1.0" encoding="UTF-8" standalone="no"?>
<!-- Created with Inkscape (http://www.inkscape.org/) -->

<svg
   xmlns:osb="http://www.openswatchbook.org/uri/2009/osb"
   xmlns:dc="http://purl.org/dc/elements/1.1/"
   xmlns:cc="http://creativecommons.org/ns#"
   xmlns:rdf="http://www.w3.org/1999/02/22-rdf-syntax-ns#"
   xmlns:svg="http://www.w3.org/2000/svg"
   xmlns="http://www.w3.org/2000/svg"
   xmlns:xlink="http://www.w3.org/1999/xlink"
   xmlns:sodipodi="http://sodipodi.sourceforge.net/DTD/sodipodi-0.dtd"
   xmlns:inkscape="http://www.inkscape.org/namespaces/inkscape"
   version="1.0"
   width="48"
   height="48"
   id="svg3695"
   inkscape:version="0.91 r13725"
   sodipodi:docname="user-trash-full.svg">
  <metadata
     id="metadata11265">
    <rdf:RDF>
      <cc:Work
         rdf:about="">
        <dc:format>image/svg+xml</dc:format>
        <dc:type
           rdf:resource="http://purl.org/dc/dcmitype/StillImage" />
        <dc:title />
      </cc:Work>
    </rdf:RDF>
  </metadata>
  <sodipodi:namedview
     pagecolor="#2a2a2a"
     bordercolor="#666666"
     borderopacity="1"
     objecttolerance="10"
     gridtolerance="10"
     guidetolerance="10"
     inkscape:pageopacity="0"
     inkscape:pageshadow="2"
     inkscape:window-width="1366"
     inkscape:window-height="718"
     id="namedview11263"
     showgrid="false"
     inkscape:snap-global="false"
     inkscape:zoom="1"
     inkscape:cx="13.965087"
     inkscape:cy="32.458527"
     inkscape:window-x="0"
     inkscape:window-y="25"
     inkscape:window-maximized="1"
     inkscape:current-layer="svg3695"
     inkscape:snap-bbox="true"
     inkscape:bbox-paths="true"
     inkscape:bbox-nodes="true"
     inkscape:snap-bbox-edge-midpoints="true"
     showguides="false"
     inkscape:guide-bbox="true"
     inkscape:object-paths="false"
     inkscape:snap-intersection-paths="false"
     inkscape:object-nodes="false"
     inkscape:snap-smooth-nodes="false"
     inkscape:snap-nodes="true">
    <inkscape:grid
       type="xygrid"
       id="grid3062"
       empspacing="5"
       visible="true"
       enabled="true"
       snapvisiblegridlinesonly="true" />
    <sodipodi:guide
       position="32,54"
       orientation="1,0"
       id="guide4298" />
    <sodipodi:guide
       position="32,42"
       orientation="1,0"
       id="guide4223" />
    <sodipodi:guide
       position="31.969826,51"
       orientation="0,1"
       id="guide4191" />
    <sodipodi:guide
       position="32,5"
       orientation="0,1"
       id="guide4193" />
    <sodipodi:guide
       position="32,58.994141"
       orientation="0,1"
       id="guide4195" />
    <sodipodi:guide
       position="8.2812502,51"
       orientation="1,0"
       id="guide4197" />
    <sodipodi:guide
       position="55.742188,50.994796"
       orientation="1,0"
       id="guide4199" />
  </sodipodi:namedview>
  <defs
     id="defs3697">
    <linearGradient
       id="linearGradient4399">
      <stop
         id="stop4401"
         offset="0"
         style="stop-color:#626262;stop-opacity:1" />
      <stop
         id="stop4403"
         offset="1"
         style="stop-color:#3f3f3f;stop-opacity:1" />
    </linearGradient>
    <linearGradient
       id="linearGradient4306">
      <stop
         style="stop-color:#000000;stop-opacity:1"
         offset="0"
         id="stop4308" />
      <stop
         style="stop-color:#000000;stop-opacity:0"
         offset="1"
         id="stop4310" />
    </linearGradient>
    <linearGradient
       id="linearGradient4237">
      <stop
         id="stop4239"
         offset="0"
         style="stop-color:#a7a7a7;stop-opacity:1" />
      <stop
         id="stop4241"
         offset="1"
         style="stop-color:#787878;stop-opacity:1" />
    </linearGradient>
    <linearGradient
       id="linearGradient4867">
      <stop
         id="stop4869"
         offset="0"
         style="stop-color:#ffffff;stop-opacity:1;" />
      <stop
         id="stop4871"
         offset="1"
         style="stop-color:#e4e5e7;stop-opacity:0.15686275" />
    </linearGradient>
    <linearGradient
       id="linearGradient4861">
      <stop
         style="stop-color:#7e7e7e;stop-opacity:1"
         offset="0"
         id="stop4863" />
      <stop
         style="stop-color:#3f3f3f;stop-opacity:1"
         offset="1"
         id="stop4865" />
    </linearGradient>
    <linearGradient
       osb:paint="gradient"
       id="linearGradient4406">
      <stop
         offset="0"
         style="stop-color:#4e4e4e;stop-opacity:1"
         id="stop4408" />
      <stop
         offset="1"
         style="stop-color:#141414;stop-opacity:1"
         id="stop4410" />
    </linearGradient>
    <linearGradient
       id="linearGradient3320"
       osb:paint="gradient">
      <stop
         id="stop3323"
         style="stop-color:#4e4e4e;stop-opacity:1"
         offset="0" />
      <stop
         id="stop3325"
         style="stop-color:#b9bac2;stop-opacity:1"
         offset="1" />
    </linearGradient>
    <linearGradient
       id="linearGradient3254-3-182">
      <stop
         id="stop4663"
         style="stop-color:#ffffff;stop-opacity:1"
         offset="0" />
      <stop
         id="stop4665"
         style="stop-color:#ffffff;stop-opacity:0"
         offset="1" />
    </linearGradient>
    <linearGradient
       osb:paint="solid"
       id="linearGradient6213">
      <stop
         id="stop6215"
         offset="0"
         style="stop-color:#000000;stop-opacity:1;" />
    </linearGradient>
    <linearGradient
       id="linearGradient4287">
      <stop
         id="stop4289"
         offset="0"
         style="stop-color:#000000;stop-opacity:0.50980395;" />
      <stop
         id="stop4291"
         offset="1"
         style="stop-color:#000000;stop-opacity:0.47239265" />
    </linearGradient>
    <linearGradient
       id="linearGradient3782">
      <stop
         style="stop-color:#ffffff;stop-opacity:1;"
         offset="0"
         id="stop3784" />
      <stop
         style="stop-color:#e4e5e7;stop-opacity:1;"
         offset="1"
         id="stop3786" />
    </linearGradient>
    <linearGradient
       id="linearGradient3927">
      <stop
         id="stop3929"
         offset="0"
         style="stop-color:#f1f2f3;stop-opacity:1;" />
      <stop
         id="stop3931"
         offset="1"
         style="stop-color:#e4e5e7;stop-opacity:1;" />
    </linearGradient>
    <linearGradient
       id="linearGradient3937-5">
      <stop
         style="stop-color:#9c9d9e;stop-opacity:1;"
         offset="0"
         id="stop3939-6" />
      <stop
         style="stop-color:#bbbcbd;stop-opacity:1;"
         offset="1"
         id="stop3941-3" />
    </linearGradient>
    <linearGradient
       inkscape:collect="always"
       xlink:href="#linearGradient4399"
       id="linearGradient4213"
       x1="32"
       y1="13"
       x2="32"
       y2="59"
       gradientUnits="userSpaceOnUse"
       gradientTransform="matrix(0.8597562,0,0,0.75555981,-3.5121955,0.29994152)" />
    <linearGradient
       inkscape:collect="always"
       xlink:href="#linearGradient4867"
       id="linearGradient4229"
       x1="32"
       y1="15"
       x2="32"
       y2="18"
       gradientUnits="userSpaceOnUse"
       gradientTransform="matrix(0.85229165,0,0,0.74418601,-3.3961087,0.70930115)" />
    <linearGradient
       y2="9"
       x2="22"
       y1="11"
       x1="22"
       gradientTransform="matrix(0.8636313,0,0,0.75,3.2728462,1.7499999)"
       gradientUnits="userSpaceOnUse"
       id="linearGradient4262-7-1"
       xlink:href="#linearGradient4306"
       inkscape:collect="always" />
    <linearGradient
       id="linearGradient4303"
       inkscape:collect="always">
      <stop
         id="stop4305"
         offset="0"
         style="stop-color:#000000;stop-opacity:0.404" />
      <stop
         style="stop-color:#000000;stop-opacity:0.05882353"
         offset="0.74412525"
         id="stop4311" />
      <stop
         id="stop4307"
         offset="1"
         style="stop-color:#000000;stop-opacity:0;" />
    </linearGradient>
    <radialGradient
       gradientUnits="userSpaceOnUse"
       gradientTransform="matrix(0.73214022,0,0,0.04838699,1.3036536,42.104844)"
       r="31"
       fy="52.599998"
       fx="31"
       cy="52.599998"
       cx="31"
       id="radialGradient4309-8"
       xlink:href="#linearGradient4303"
       inkscape:collect="always" />
  </defs>
  <ellipse
     cx="24"
     cy="44.650002"
     rx="17.25"
     ry="1.5"
     style="display:inline;opacity:1;fill:url(#radialGradient4309-8);fill-opacity:1;stroke:none;stroke-width:1.20000005;stroke-linecap:butt;stroke-linejoin:miter;stroke-miterlimit:4;stroke-dasharray:none;stroke-dashoffset:0;stroke-opacity:1"
     id="path4293-4" />
  <path
     style="opacity:1;fill:#454547;fill-opacity:1;stroke:#0d0d0d;stroke-width:1;stroke-linecap:butt;stroke-linejoin:miter;stroke-miterlimit:4;stroke-dasharray:none;stroke-dashoffset:0;stroke-opacity:1"
     d="m 9,4.5000073 30,0 c 0.831,0 1.218524,0.7207807 1.5,1.5055525 l 1.35,3.7638814 c 0.281476,0.7847718 -0.669,1.5055528 -1.5,1.5055528 l -32.7,0 c -0.831,0 -1.7814759,-0.720781 -1.5,-1.5055528 L 7.5,6.0055598 C 7.7814757,5.220788 8.169,4.5000073 9,4.5000073 Z"
     id="rect4290"
     inkscape:connector-curvature="0"
     sodipodi:nodetypes="sssssssss" />
  <path
     style="opacity:0.3;fill:#000000;fill-opacity:1;stroke:none;stroke-width:0.99999994;stroke-linecap:butt;stroke-linejoin:miter;stroke-miterlimit:4;stroke-dasharray:none;stroke-dashoffset:0;stroke-opacity:1"
     d="m 39,5 -4.725,32.185803 c -0.117783,0.802315 -0.669,1.462991 -1.5,1.462991 l -17.55,0 c -0.831,0 -1.382217,-0.660676 -1.5,-1.462991 L 9,5 Z"
     id="rect4203-7"
     inkscape:connector-curvature="0"
     sodipodi:nodetypes="csssscc" />
  <path
     style="opacity:0.15;fill:none;fill-opacity:1;stroke:#ffffff;stroke-width:0.99999994;stroke-linecap:butt;stroke-linejoin:miter;stroke-miterlimit:4;stroke-dasharray:none;stroke-dashoffset:0;stroke-opacity:1"
     d="m 9.691617,5.5 28.627816,0 c 0.821752,0 1.204962,0.7181109 1.483306,1.4999752 l 1.334976,3.7499388 c 0.278343,0.781864 -0.661555,1.499975 -1.483306,1.499975 l -31.2977678,0 c -0.8217518,0 -1.7616496,-0.718111 -1.4833065,-1.499975 L 8.2083105,6.9999752 C 8.4866537,6.2181109 8.8698652,5.5 9.691617,5.5 Z"
     id="rect4290-4"
     inkscape:connector-curvature="0"
     sodipodi:nodetypes="sssssssss" />
  <path
     style="opacity:1;fill:url(#linearGradient4213);fill-opacity:1;stroke:#0d0d0d;stroke-width:0.99999994;stroke-linecap:butt;stroke-linejoin:miter;stroke-miterlimit:4;stroke-dasharray:none;stroke-dashoffset:0;stroke-opacity:1"
     d="m 41.85,10.5 -3.225,32.521923 c -0.08084,0.815273 -0.669,1.478269 -1.5,1.478269 l -26.25,0 c -0.831,0 -1.4191542,-0.662996 -1.4999997,-1.478269 L 6.1500003,10.5 Z"
     id="rect4203"
     inkscape:connector-curvature="0"
     sodipodi:nodetypes="csssscc" />
  <path
     style="opacity:0.25;fill:none;fill-opacity:1;stroke:url(#linearGradient4229);stroke-width:0.99999982;stroke-linecap:butt;stroke-linejoin:miter;stroke-miterlimit:4;stroke-dasharray:none;stroke-dashoffset:0;stroke-opacity:1"
     d="m 7.9961899,11.5 31.7620681,0 c 0.409214,0 0.777459,0.326074 0.738653,0.727273 L 37.5423,42.772727 C 37.50349,43.173926 37.212861,43.5 36.803647,43.5 l -25.852846,0 c -0.409214,0 -0.699845,-0.326075 -0.738653,-0.727273 L 7.2575373,12.227273 C 7.2187304,11.826075 7.5869764,11.5 7.9961899,11.5 Z"
     id="rect4205"
     inkscape:connector-curvature="0"
     sodipodi:nodetypes="sssssssss" />
  <rect
     ry="0"
     y="8.5"
     x="6.727375"
     height="1.5"
     width="34.54525"
     id="rect3827-5-3-3"
     style="display:inline;opacity:0.25;fill:url(#linearGradient4262-7-1);fill-opacity:1;stroke:none;stroke-width:0;stroke-linecap:butt;stroke-linejoin:miter;stroke-miterlimit:4;stroke-dasharray:none;stroke-dashoffset:0;stroke-opacity:1" />
  <path
     sodipodi:nodetypes="csccsccccccccsccccccsccccccccsccccccccccsccccccccscscccc"
     inkscape:connector-curvature="0"
     id="path4226-1-8-9"
     d="m 17.858667,31.217044 c -0.191925,0.3447 -0.344692,0.863334 -0.344692,1.19013 0,0.07586 0,0.172358 0.01882,0.306218 L 15.133973,28.587874 C 15.057183,28.454014 15,28.261969 15,28.088944 c 0,-0.17325 0.05723,-0.383857 0.133973,-0.51795 l 1.151622,-2.01495 -1.28559,-0.728595 4.183485,-0.07744 2.033745,3.664845 -1.304385,-0.748275 z M 19.70129,19.138779 c 0.364297,-0.6339 0.959692,-0.979285 1.68828,-0.979285 0.787327,0 1.40154,0.365069 1.842592,1.112454 l 0.652583,1.09366 -2.26488,4.365601 -3.664845,-2.580311 z m 0.267915,15.39772 c -1.093658,0 -1.99539,-0.901838 -1.99539,-1.995473 0,-0.30711 0.134745,-0.825712 0.326677,-1.151617 l 0.613418,-1.093658 4.548547,0 0,4.240778 -3.493252,0 z m 3.646852,-15.51367 C 23.328515,18.524563 22.94465,18.17829 22.484007,17.986242 l 4.720111,0 c 0.42225,0 0.748155,0.173252 0.94089,0.499814 l 1.170442,1.995473 1.266112,-0.748961 -2.034667,3.646706 -4.163115,-0.05865 1.285597,-0.728587 z m 7.273388,11.311398 c 0.575017,0 1.055265,-0.153541 1.457955,-0.45999 l -2.380028,4.144289 c -0.191932,0.325899 -0.536857,0.531391 -0.939435,0.517952 l -2.246077,0 0,1.477522 -2.14893,-3.58806 2.14893,-3.588975 0,1.497233 4.107585,0 z m 1.84104,-3.454201 c 0.173137,0.30711 0.26949,0.633008 0.26949,0.978593 0,0.690976 -0.441848,1.420222 -1.055265,1.764952 -0.288285,0.154455 -0.692475,0.274433 -1.093658,0.250695 l -1.267575,0 -2.26341,-3.91554 3.66495,-2.091735 z"
     style="opacity:0.6;fill:#000000;fill-opacity:1" />
  <path
     sodipodi:nodetypes="csccsccccccccsccccccsccccccccsccccccccccsccccccccscscccc"
     inkscape:connector-curvature="0"
     id="path4226-1-8"
     d="m 17.858679,32.230802 c -0.191925,0.3447 -0.344691,0.863332 -0.344691,1.19013 0,0.07586 0,0.172357 0.01882,0.306217 l -2.398823,-4.125517 c -0.07678,-0.13386 -0.133972,-0.325905 -0.133972,-0.49893 0,-0.17325 0.05723,-0.383858 0.133972,-0.51795 l 1.151618,-2.01495 -1.28559,-0.728595 4.183485,-0.07745 2.033745,3.664845 -1.304385,-0.748275 z m 1.842623,-12.078265 c 0.364297,-0.6339 0.959692,-0.979286 1.68828,-0.979286 0.787327,0 1.40154,0.36507 1.842592,1.112455 l 0.652583,1.09366 -2.26488,4.365601 -3.664844,-2.580311 z m 0.267915,15.39772 c -1.093658,0 -1.99539,-0.901838 -1.99539,-1.995473 0,-0.30711 0.134745,-0.825712 0.326677,-1.151617 l 0.613418,-1.093658 4.548547,0 0,4.240778 -3.493252,0 z m 3.646852,-15.51367 C 23.328527,19.538321 22.944662,19.192046 22.484019,19 l 4.720111,0 c 0.42225,0 0.748155,0.173251 0.94089,0.499814 l 1.170442,1.995473 1.266112,-0.748962 -2.034667,3.646707 -4.163115,-0.05865 1.285597,-0.728588 z m 7.273388,11.311397 c 0.575017,0 1.055265,-0.15354 1.457955,-0.45999 l -2.380028,4.14429 c -0.191932,0.325898 -0.536857,0.53139 -0.939435,0.51795 l -2.246077,0 0,1.477523 -2.14893,-3.58806 2.14893,-3.588975 0,1.497232 4.107585,0 z m 1.84104,-3.4542 c 0.173137,0.30711 0.26949,0.633008 0.26949,0.978593 0,0.690975 -0.441848,1.420222 -1.055265,1.764952 -0.288285,0.154455 -0.692475,0.274433 -1.093658,0.250695 l -1.267575,0 -2.26341,-3.91554 3.66495,-2.091735 z"
     style="fill:#ffffff;fill-opacity:0.78431373" />
</svg>
