<?xml version="1.0" encoding="UTF-8" standalone="no"?>
<!-- Created with Inkscape (http://www.inkscape.org/) -->

<svg
   xmlns:dc="http://purl.org/dc/elements/1.1/"
   xmlns:cc="http://creativecommons.org/ns#"
   xmlns:rdf="http://www.w3.org/1999/02/22-rdf-syntax-ns#"
   xmlns:svg="http://www.w3.org/2000/svg"
   xmlns="http://www.w3.org/2000/svg"
   xmlns:xlink="http://www.w3.org/1999/xlink"
   xmlns:sodipodi="http://sodipodi.sourceforge.net/DTD/sodipodi-0.dtd"
   xmlns:inkscape="http://www.inkscape.org/namespaces/inkscape"
   width="64"
   height="64"
   id="svg4112"
   version="1.1"
   inkscape:version="0.91 r13725"
   sodipodi:docname="application-msword.svg">
  <defs
     id="defs4114">
    <linearGradient
       id="linearGradient3977">
      <stop
         offset="0"
         style="stop-color:#ffffff;stop-opacity:1;"
         id="stop3979" />
      <stop
         id="stop3981"
         style="stop-color:#ffffff;stop-opacity:0.23529412;"
         offset="0.03626217" />
      <stop
         offset="0.95056331"
         style="stop-color:#ffffff;stop-opacity:0.15686275;"
         id="stop3983" />
      <stop
         offset="1"
         style="stop-color:#ffffff;stop-opacity:0.39215687;"
         id="stop3985" />
    </linearGradient>
    <linearGradient
       inkscape:collect="always"
       xlink:href="#linearGradient2508-790"
       id="linearGradient3060"
       gradientUnits="userSpaceOnUse"
       gradientTransform="matrix(0.9841838,0,0,1.018122,0.19224978,-16.145359)"
       x1="24.239185"
       y1="44.110138"
       x2="24.239185"
       y2="0.19081046" />
    <linearGradient
       id="linearGradient2508-790">
      <stop
         id="stop3686"
         style="stop-color:#294351;stop-opacity:1"
         offset="0" />
      <stop
         id="stop3688"
         style="stop-color:#637a87;stop-opacity:1"
         offset="1" />
    </linearGradient>
    <linearGradient
       inkscape:collect="always"
       xlink:href="#linearGradient3759"
       id="linearGradient3077"
       gradientUnits="userSpaceOnUse"
       spreadMethod="reflect"
       x1="26.188938"
       y1="30.4547"
       x2="44.250275"
       y2="16.134642"
       gradientTransform="translate(4.8957672e-8,-16.000001)" />
    <linearGradient
       id="linearGradient3759">
      <stop
         id="stop3761"
         style="stop-color:#000000;stop-opacity:1"
         offset="0" />
      <stop
         id="stop3763"
         style="stop-color:#000000;stop-opacity:0"
         offset="1" />
    </linearGradient>
    <linearGradient
       inkscape:collect="always"
       xlink:href="#linearGradient5293"
       id="linearGradient3083"
       gradientUnits="userSpaceOnUse"
       gradientTransform="matrix(1.1960814,0,0,0.93142213,-64.184904,-12.476176)"
       spreadMethod="reflect"
       x1="75.854454"
       y1="28"
       x2="91"
       y2="12" />
    <linearGradient
       id="linearGradient5293">
      <stop
         id="stop5295"
         style="stop-color:#ffffff;stop-opacity:1"
         offset="0" />
      <stop
         id="stop5297"
         style="stop-color:#ffffff;stop-opacity:0"
         offset="1" />
    </linearGradient>
    <linearGradient
       inkscape:collect="always"
       xlink:href="#linearGradient4000"
       id="linearGradient3086"
       gradientUnits="userSpaceOnUse"
       gradientTransform="matrix(1.1871658,0,0,0.9191539,-63.59695,-10.971355)"
       spreadMethod="reflect"
       x1="75.854454"
       y1="28"
       x2="91"
       y2="12" />
    <linearGradient
       id="linearGradient4000">
      <stop
         id="stop4002"
         style="stop-color:#000000;stop-opacity:1"
         offset="0" />
      <stop
         id="stop4004"
         style="stop-color:#000000;stop-opacity:0"
         offset="1" />
    </linearGradient>
    <radialGradient
       r="18.000002"
       fy="11.49049"
       fx="14.239056"
       cy="11.49049"
       cx="14.239056"
       gradientTransform="matrix(0,3.1334633,-5.1857823,0,73.293235,-54.435547)"
       gradientUnits="userSpaceOnUse"
       id="radialGradient3144-7"
       xlink:href="#linearGradient2867-449-88-871-390-598-476-591-434-148-895-534-212-357-729-6"
       inkscape:collect="always" />
    <linearGradient
       id="linearGradient2867-449-88-871-390-598-476-591-434-148-895-534-212-357-729-6">
      <stop
         id="stop8022-5"
         style="stop-color:#85c2cf;stop-opacity:1"
         offset="0" />
      <stop
         id="stop8024-6"
         style="stop-color:#74a4be;stop-opacity:1"
         offset="0.26238" />
      <stop
         id="stop8026-9"
         style="stop-color:#5177a0;stop-opacity:1"
         offset="0.704952" />
      <stop
         id="stop8028-3"
         style="stop-color:#2c5889;stop-opacity:1"
         offset="1" />
    </linearGradient>
    <linearGradient
       id="linearGradient2508-4">
      <stop
         id="stop2510-5"
         style="stop-color:#2e4a5a;stop-opacity:1"
         offset="0" />
      <stop
         id="stop2512-2"
         style="stop-color:#6e8796;stop-opacity:1"
         offset="1" />
    </linearGradient>
    <linearGradient
       id="linearGradient8265-821-176-38-919-66-249-48-321">
      <stop
         id="stop5601"
         style="stop-color:#ffffff;stop-opacity:1"
         offset="0" />
      <stop
         id="stop5603"
         style="stop-color:#ffffff;stop-opacity:0"
         offset="1" />
    </linearGradient>
    <linearGradient
       y2="24.627615"
       x2="20.054544"
       y1="15.298182"
       x1="16.626165"
       gradientTransform="matrix(0.74569443,0,0,1.4029867,6.0404886,-23.547545)"
       gradientUnits="userSpaceOnUse"
       id="linearGradient3055"
       xlink:href="#linearGradient8265-821-176-38-919-66-249-48-321"
       inkscape:collect="always" />
    <radialGradient
       inkscape:collect="always"
       xlink:href="#linearGradient5060-6"
       id="radialGradient3088"
       gradientUnits="userSpaceOnUse"
       gradientTransform="matrix(0.03132633,0,0,0.02058823,35.22086,33.45141)"
       cx="605.71429"
       cy="486.64789"
       fx="605.71429"
       fy="486.64789"
       r="117.14286" />
    <linearGradient
       id="linearGradient5060-6">
      <stop
         id="stop5062-4"
         style="stop-color:#000000;stop-opacity:1"
         offset="0" />
      <stop
         id="stop5064-9"
         style="stop-color:#000000;stop-opacity:0"
         offset="1" />
    </linearGradient>
    <radialGradient
       inkscape:collect="always"
       xlink:href="#linearGradient5060-6"
       id="radialGradient3091"
       gradientUnits="userSpaceOnUse"
       gradientTransform="matrix(-0.03132632,0,0,0.02058823,28.77914,33.45141)"
       cx="605.71429"
       cy="486.64789"
       fx="605.71429"
       fy="486.64789"
       r="117.14286" />
    <linearGradient
       id="linearGradient5048-9">
      <stop
         id="stop5050-5"
         style="stop-color:#000000;stop-opacity:0"
         offset="0" />
      <stop
         id="stop5056-6"
         style="stop-color:#000000;stop-opacity:1"
         offset="0.5" />
      <stop
         id="stop5052-0"
         style="stop-color:#000000;stop-opacity:0"
         offset="1" />
    </linearGradient>
    <linearGradient
       y2="609.50507"
       x2="302.85715"
       y1="366.64789"
       x1="302.85715"
       gradientTransform="matrix(0.09153846,0,0,0.02058823,-1.084616,33.45137)"
       gradientUnits="userSpaceOnUse"
       id="linearGradient3125"
       xlink:href="#linearGradient5048-9"
       inkscape:collect="always" />
    <linearGradient
       y2="43"
       x2="23.99999"
       y1="5.5641499"
       x1="23.99999"
       gradientTransform="matrix(1.1621621,0,0,1.4864864,4.1081151,-21.675659)"
       gradientUnits="userSpaceOnUse"
       id="linearGradient3988-3-2"
       xlink:href="#linearGradient3977"
       inkscape:collect="always" />
  </defs>
  <sodipodi:namedview
     id="base"
     pagecolor="#ffffff"
     bordercolor="#666666"
     borderopacity="1.0"
     inkscape:pageopacity="0.0"
     inkscape:pageshadow="2"
     inkscape:zoom="5.6568542"
     inkscape:cx="58.847424"
     inkscape:cy="39.984021"
     inkscape:current-layer="layer1"
     showgrid="true"
     inkscape:grid-bbox="true"
     inkscape:document-units="px"
     inkscape:window-width="1366"
     inkscape:window-height="723"
     inkscape:window-x="0"
     inkscape:window-y="23"
     inkscape:window-maximized="1"
     showguides="true"
     inkscape:guide-bbox="true"
     inkscape:snap-bbox="true"
     inkscape:bbox-paths="true"
     inkscape:bbox-nodes="true"
     inkscape:snap-bbox-edge-midpoints="true">
    <inkscape:grid
       type="xygrid"
       id="grid3820"
       empspacing="5"
       visible="true"
       enabled="true"
       snapvisiblegridlinesonly="true" />
  </sodipodi:namedview>
  <metadata
     id="metadata4117">
    <rdf:RDF>
      <cc:Work
         rdf:about="">
        <dc:format>image/svg+xml</dc:format>
        <dc:type
           rdf:resource="http://purl.org/dc/dcmitype/StillImage" />
        <dc:title />
      </cc:Work>
    </rdf:RDF>
  </metadata>
  <g
     id="layer1"
     inkscape:label="Layer 1"
     inkscape:groupmode="layer"
     transform="translate(0,16)">
    <path
       inkscape:connector-curvature="0"
       style="opacity:0.3;fill:url(#radialGradient3088);fill-opacity:1;fill-rule:nonzero;stroke:none;stroke-width:1;marker:none;visibility:visible;display:inline;overflow:visible"
       id="path2883"
       d="m 54.1,41.000217 c 0,0 0,4.999724 0,4.999724 1.61323,0.0094 3.9,-1.120184 3.9,-2.500184 0,-1.379998 -1.80024,-2.499539 -3.9,-2.49954 z" />
    <path
       inkscape:connector-curvature="0"
       style="opacity:0.3;fill:url(#radialGradient3091);fill-opacity:1;fill-rule:nonzero;stroke:none;stroke-width:1;marker:none;visibility:visible;display:inline;overflow:visible"
       id="path2881"
       d="m 9.9,41.000217 c 0,0 0,4.999724 0,4.999724 C 8.286772,46.009341 6,44.879757 6,43.499757 6,42.119759 7.80024,41.000218 9.9,41.000217 z" />
    <rect
       style="opacity:0.3;fill:url(#linearGradient3125);fill-opacity:1;fill-rule:nonzero;stroke:none;stroke-width:1;marker:none;visibility:visible;display:inline;overflow:visible"
       id="rect2879"
       y="41"
       x="9.8999996"
       height="5"
       width="44.199997" />
    <path
       inkscape:connector-curvature="0"
       style="color:#000000;display:inline;overflow:visible;visibility:visible;fill:url(#radialGradient3144-7);fill-opacity:1;fill-rule:nonzero;stroke:none;stroke-width:0.99992186;stroke-linecap:butt;stroke-linejoin:round;stroke-miterlimit:4;stroke-dasharray:none;stroke-dashoffset:0;stroke-opacity:1;marker:none;enable-background:accumulate"
       id="path4160"
       d="m 9,-15 c 10.540935,0 45.999946,0.0038 45.999946,0.0038 L 55,43 C 55,43 24.333334,43 9,43 9,23.66666 9,4.3333513 9,-14.999955 Z"
       sodipodi:nodetypes="ccccc" />
    <path
       inkscape:connector-curvature="0"
       style="opacity:0.1;fill:url(#linearGradient3086);fill-opacity:1;fill-rule:nonzero;stroke:none;stroke-width:0.91176528;marker:none;visibility:visible;display:inline;overflow:visible;enable-background:accumulate"
       id="path3743"
       d="M 25.168726,2.5532027 C 19.835494,9.395749 14.504674,16.246982 9.1714416,23.089529 c 0,6.967178 0,13.943294 0,20.910471 12.6681504,0 25.3362104,0 38.0043584,0 3.504898,-4.496802 4.045133,-5.182279 7.652756,-9.810877 0,-6.318252 0,-12.612233 0,-18.95661 C 44.360436,10.75564 31.966516,5.4603948 25.168726,2.5532027 z" />
    <path
       inkscape:connector-curvature="0"
       style="display:inline;overflow:visible;visibility:visible;opacity:0.4;fill:url(#linearGradient3083);fill-opacity:1;fill-rule:nonzero;stroke:none;stroke-width:0.91176528;marker:none;enable-background:accumulate"
       id="path3697"
       d="M 25.117424,1 C 19.74414,7.9338759 14.373285,14.876555 9,21.810432 9,28.870602 9,35.93983 9,43 21.763288,43 34.526485,43 47.289772,43 50.820992,38.443178 51.365283,37.748552 55,33.058175 55,26.65559 55,20.277602 55,13.848545 44.453264,9.3119183 31.966265,3.9459952 25.117424,1 Z" />
    <path
       inkscape:connector-curvature="0"
       style="opacity:0.1;fill:none;stroke:url(#linearGradient3077);stroke-width:1px;stroke-linecap:butt;stroke-linejoin:miter;stroke-opacity:1"
       id="path3475"
       d="M 25.665441,8.2519005 50.668816,19.324594 25.665441,8.2519005 z M 23.00071,11.792113 52.074403,24.667337 23.00071,11.792113 z m -2.706694,3.595962 9.303581,4.120072 -9.303581,-4.120072 z M 17.629286,18.928286 46.702977,31.803511 17.629286,18.928286 z M 14.92259,22.524249 41.088914,34.111951 14.92259,22.524249 z M 12.236878,26.092336 36.077306,36.650021 12.236878,26.092336 z M 9.5721476,29.632548 38.064366,42.250268 9.5721476,29.632548 z" />
    <path
       inkscape:connector-curvature="0"
       style="font-style:normal;font-variant:normal;font-weight:bold;font-stretch:normal;font-size:30.51395607px;font-family:'Droid Sans';-inkscape-font-specification:'Droid Sans Bold';opacity:0.4;fill:#ffffff;fill-opacity:1;stroke:none"
       id="text2616"
       d="m 42.694414,30 c -2.101861,0 -4.203721,0 -6.305583,0 C 35.230482,25.128548 33.98514,20.277195 32.886707,15.391896 32.535973,13.853315 32.166683,11.220512 31.960804,10.271908 31.290019,15.543616 29.831285,20.649383 28.636562,25.808515 28.300734,27.205676 27.964908,28.602838 27.629084,30 25.521249,30 23.413416,30 21.305585,30 19.203723,21.008497 17.101861,12.016997 15,3.0254964 c 1.821213,0 3.642429,0 5.463646,0 1.460471,7.4092056 3.111547,14.7815996 4.263433,22.2511976 0.488429,-3.527488 1.103311,-7.036495 2.003616,-10.478758 0.944351,-3.924147 1.888703,-7.8482947 2.833056,-11.7724396 1.624165,0 3.248332,0 4.872497,0 1.239967,5.2043599 2.527348,10.3976876 3.73721,15.6090556 0.430601,2.203164 0.772582,4.423434 1.117375,6.642142 1.0866,-7.34471 2.742835,-14.580998 4.166662,-21.8607442 -0.02996,-0.7073449 0.843429,-0.2708325 1.277617,-0.3904534 1.421628,0 2.843258,0 4.264888,0 C 46.898138,12.016997 44.796276,21.008497 42.694414,30 Z" />
    <path
       inkscape:connector-curvature="0"
       style="font-style:normal;font-variant:normal;font-weight:bold;font-stretch:normal;font-size:30.51395607px;font-family:'Droid Sans';-inkscape-font-specification:'Droid Sans Bold';fill:url(#linearGradient3060);fill-opacity:1;stroke:none"
       id="text2612"
       d="m 42.694414,29 c -2.101861,0 -4.203721,0 -6.305583,0 C 35.230482,24.128548 33.98514,19.277196 32.886707,14.391895 32.535973,12.853317 32.166683,10.22051 31.960804,9.2719079 31.290019,14.543615 29.831285,19.649385 28.636562,24.808518 28.300734,26.205679 27.964908,27.602839 27.629084,29 25.521249,29 23.413416,29 21.305585,29 19.203723,20.008499 17.101861,11.016997 15,2.0254968 c 1.821213,0 3.642429,0 5.463646,0 1.460471,7.4092052 3.111547,14.7816002 4.263433,22.2511972 0.488429,-3.527489 1.103311,-7.036497 2.003616,-10.478759 0.944351,-3.9241456 1.888703,-7.8482917 2.833056,-11.7724382 1.624165,0 3.248332,0 4.872497,0 1.239967,5.2043613 2.527348,10.3976882 3.73721,15.6090562 0.430601,2.203163 0.772582,4.423434 1.117375,6.642141 1.0866,-7.344708 2.742835,-14.5809972 4.166662,-21.8607436 -0.02996,-0.7073464 0.843429,-0.2708326 1.277617,-0.3904536 1.421628,0 2.843258,0 4.264888,0 C 46.898138,11.016997 44.796276,20.008499 42.694414,29 Z" />
    <path
       inkscape:connector-curvature="0"
       style="opacity:0.2;fill:url(#linearGradient3055);fill-opacity:1;fill-rule:evenodd;stroke:none"
       id="path3879"
       d="m 9,-15 0,34.115822 c 0.00277,0.252484 0.06188,0.491248 0.1629698,0.658336 0.1010893,0.167086 0.2349186,0.247218 0.369001,0.220937 L 54.593196,6.630131 C 54.824992,6.5616521 54.996758,6.1903869 55,5.7508569 L 55,-15 Z"
       sodipodi:nodetypes="ccsccccc" />
    <path
       sodipodi:nodetypes="ccccc"
       inkscape:connector-curvature="0"
       id="rect6741-1-9-9"
       d="M 53.500001,41.5 10.5,41.5 l 0,-54.999999 43.000001,0 z"
       style="opacity:0.5;fill:none;stroke:url(#linearGradient3988-3-2);stroke-width:1;stroke-linecap:round;stroke-linejoin:round;stroke-miterlimit:4;stroke-dasharray:none;stroke-dashoffset:0;stroke-opacity:1" />
    <path
       sodipodi:nodetypes="ccccc"
       d="m 9.4999607,-14.500039 c 10.3118013,0 45.0000223,0.0036 45.0000223,0.0036 l 5.4e-5,56.996453 c 0,0 -30.000049,0 -45.0000763,0 0,-19.000027 0,-38.0000547 0,-57.000081 z"
       id="path4160-3-8-6-9"
       style="display:inline;fill:none;fill-opacity:1;stroke:#00162b;stroke-width:0.99992186;stroke-linecap:butt;stroke-linejoin:round;stroke-miterlimit:4;stroke-dasharray:none;stroke-dashoffset:0;stroke-opacity:0.68396229"
       inkscape:connector-curvature="0" />
  </g>
</svg>
