<?xml version="1.0" encoding="UTF-8" standalone="no"?>
<!-- Created with Inkscape (http://www.inkscape.org/) -->

<svg
   xmlns:dc="http://purl.org/dc/elements/1.1/"
   xmlns:cc="http://creativecommons.org/ns#"
   xmlns:rdf="http://www.w3.org/1999/02/22-rdf-syntax-ns#"
   xmlns:svg="http://www.w3.org/2000/svg"
   xmlns="http://www.w3.org/2000/svg"
   xmlns:xlink="http://www.w3.org/1999/xlink"
   xmlns:sodipodi="http://sodipodi.sourceforge.net/DTD/sodipodi-0.dtd"
   xmlns:inkscape="http://www.inkscape.org/namespaces/inkscape"
   width="64px"
   height="64px"
   id="svg4132"
   version="1.1"
   inkscape:version="0.91 r13725"
   sodipodi:docname="text-x-script.svg">
  <defs
     id="defs4134">
    <linearGradient
       id="linearGradient5031">
      <stop
         id="stop5033"
         style="stop-color:#a3a3a3;stop-opacity:1"
         offset="0" />
      <stop
         id="stop5035"
         style="stop-color:#bababa;stop-opacity:1"
         offset="1" />
    </linearGradient>
    <linearGradient
       id="linearGradient3104-6">
      <stop
         offset="0"
         style="stop-color:#000000;stop-opacity:0.31782946;"
         id="stop3106-3" />
      <stop
         offset="1"
         style="stop-color:#000000;stop-opacity:0.24031007;"
         id="stop3108-9" />
    </linearGradient>
    <linearGradient
       id="linearGradient3977-4">
      <stop
         id="stop3979-7"
         style="stop-color:#ffffff;stop-opacity:1;"
         offset="0" />
      <stop
         offset="0.01214366"
         style="stop-color:#ffffff;stop-opacity:0.23529412;"
         id="stop3981-6" />
      <stop
         id="stop3983-5"
         style="stop-color:#ffffff;stop-opacity:0.15686275;"
         offset="0.98781353" />
      <stop
         id="stop3985-6"
         style="stop-color:#ffffff;stop-opacity:0.39215687;"
         offset="1" />
    </linearGradient>
    <linearGradient
       id="linearGradient3600-9">
      <stop
         offset="0"
         style="stop-color:#f4f4f4;stop-opacity:1"
         id="stop3602-3" />
      <stop
         offset="1"
         style="stop-color:#dbdbdb;stop-opacity:1"
         id="stop3604-7" />
    </linearGradient>
    <radialGradient
       inkscape:collect="always"
       xlink:href="#linearGradient5060"
       id="radialGradient3153"
       gradientUnits="userSpaceOnUse"
       gradientTransform="matrix(0.03132633,0,0,0.02058823,35.220859,49.45142)"
       cx="605.71429"
       cy="486.64789"
       fx="605.71429"
       fy="486.64789"
       r="117.14286" />
    <linearGradient
       id="linearGradient5060">
      <stop
         id="stop5062"
         style="stop-color:#000000;stop-opacity:1"
         offset="0" />
      <stop
         id="stop5064"
         style="stop-color:#000000;stop-opacity:0"
         offset="1" />
    </linearGradient>
    <radialGradient
       inkscape:collect="always"
       xlink:href="#linearGradient5060"
       id="radialGradient3156"
       gradientUnits="userSpaceOnUse"
       gradientTransform="matrix(-0.03132632,0,0,0.02058823,28.779136,49.45142)"
       cx="605.71429"
       cy="486.64789"
       fx="605.71429"
       fy="486.64789"
       r="117.14286" />
    <linearGradient
       id="linearGradient5048">
      <stop
         id="stop5050"
         style="stop-color:#000000;stop-opacity:0"
         offset="0" />
      <stop
         id="stop5056"
         style="stop-color:#000000;stop-opacity:1"
         offset="0.5" />
      <stop
         id="stop5052"
         style="stop-color:#000000;stop-opacity:0"
         offset="1" />
    </linearGradient>
    <linearGradient
       y2="609.50507"
       x2="302.85715"
       y1="366.64789"
       x1="302.85715"
       gradientTransform="matrix(0.09153846,0,0,0.02058823,-1.084616,49.45142)"
       gradientUnits="userSpaceOnUse"
       id="linearGradient4130"
       xlink:href="#linearGradient5048"
       inkscape:collect="always" />
    <linearGradient
       id="linearGradient3977-8">
      <stop
         offset="0"
         style="stop-color:#ffffff;stop-opacity:1;"
         id="stop3979-5" />
      <stop
         id="stop3981-1"
         style="stop-color:#ffffff;stop-opacity:0.23529412;"
         offset="0.04878049" />
      <stop
         offset="0.95056331"
         style="stop-color:#ffffff;stop-opacity:0"
         id="stop3983-8" />
      <stop
         offset="1"
         style="stop-color:#000000;stop-opacity:0.04313726"
         id="stop3985-1" />
    </linearGradient>
    <linearGradient
       id="linearGradient3927">
      <stop
         id="stop3929"
         offset="0"
         style="stop-color:#fbfcfd;stop-opacity:1" />
      <stop
         id="stop3931"
         offset="1"
         style="stop-color:#ebeced;stop-opacity:1" />
    </linearGradient>
    <linearGradient
       id="linearGradient3104">
      <stop
         id="stop3106"
         style="stop-color:#a0a0a0;stop-opacity:1;"
         offset="0" />
      <stop
         id="stop3108"
         style="stop-color:#bebebe;stop-opacity:1;"
         offset="1" />
    </linearGradient>
    <linearGradient
       id="linearGradient3977-4-1">
      <stop
         offset="0"
         style="stop-color:#ffffff;stop-opacity:1;"
         id="stop3979-7-7" />
      <stop
         id="stop3981-6-4"
         style="stop-color:#ffffff;stop-opacity:0.23529412;"
         offset="0.03626217" />
      <stop
         offset="0.95056331"
         style="stop-color:#ffffff;stop-opacity:0.15686275;"
         id="stop3983-5-7" />
      <stop
         offset="1"
         style="stop-color:#ffffff;stop-opacity:0.39215687;"
         id="stop3985-6-0" />
    </linearGradient>
    <linearGradient
       inkscape:collect="always"
       xlink:href="#linearGradient3977-8"
       id="linearGradient3988"
       gradientUnits="userSpaceOnUse"
       gradientTransform="matrix(0.905902,0,0,1.148805,2.2557157,-5.0659372)"
       x1="23.999994"
       y1="5.9404659"
       x2="23.999994"
       y2="42.059513" />
    <linearGradient
       inkscape:collect="always"
       xlink:href="#linearGradient3927"
       id="linearGradient3322"
       gradientUnits="userSpaceOnUse"
       gradientTransform="matrix(0.97895964,0,0,0.9397746,0.50232621,-1.4909226)"
       x1="25.029415"
       y1="2.5226912"
       x2="25.029415"
       y2="48.545498" />
  </defs>
  <sodipodi:namedview
     id="base"
     pagecolor="#ffffff"
     bordercolor="#666666"
     borderopacity="1.0"
     inkscape:pageopacity="0.0"
     inkscape:pageshadow="2"
     inkscape:zoom="1"
     inkscape:cx="40.733391"
     inkscape:cy="48.716954"
     inkscape:current-layer="layer1"
     showgrid="true"
     inkscape:document-units="px"
     inkscape:grid-bbox="true"
     inkscape:window-width="1366"
     inkscape:window-height="723"
     inkscape:window-x="0"
     inkscape:window-y="23"
     inkscape:window-maximized="1"
     inkscape:snap-bbox="true"
     inkscape:bbox-paths="true"
     inkscape:bbox-nodes="true"
     inkscape:snap-bbox-edge-midpoints="true">
    <inkscape:grid
       type="xygrid"
       id="grid4304" />
  </sodipodi:namedview>
  <metadata
     id="metadata4137">
    <rdf:RDF>
      <cc:Work
         rdf:about="">
        <dc:format>image/svg+xml</dc:format>
        <dc:type
           rdf:resource="http://purl.org/dc/dcmitype/StillImage" />
        <dc:title />
      </cc:Work>
    </rdf:RDF>
  </metadata>
  <g
     id="layer1"
     inkscape:label="Layer 1"
     inkscape:groupmode="layer">
    <rect
       style="opacity:0.3;fill:url(#linearGradient4130);fill-opacity:1;fill-rule:nonzero;stroke:none;stroke-width:1;marker:none;visibility:visible;display:inline;overflow:visible"
       id="rect2879"
       y="57.000004"
       x="9.8999996"
       height="5"
       width="44.199997" />
    <path
       inkscape:connector-curvature="0"
       style="opacity:0.3;fill:url(#radialGradient3156);fill-opacity:1;fill-rule:nonzero;stroke:none;stroke-width:1;marker:none;visibility:visible;display:inline;overflow:visible"
       id="path2881"
       d="m 9.9,57.00022 c 0,0 0,4.9997 0,4.9997 -1.6132281,0.01 -3.9,-1.1202 -3.9,-2.5002 0,-1.38 1.8002408,-2.4995 3.9,-2.4995 z" />
    <path
       inkscape:connector-curvature="0"
       style="opacity:0.3;fill:url(#radialGradient3153);fill-opacity:1;fill-rule:nonzero;stroke:none;stroke-width:1;marker:none;visibility:visible;display:inline;overflow:visible"
       id="path2883"
       d="m 54.099999,57.00022 c 0,0 0,4.9997 0,4.9997 C 55.713227,62.00992 58,60.87972 58,59.49972 c 0,-1.38 -1.800241,-2.4995 -3.900001,-2.4995 z" />
    <g
       transform="translate(0,-988.35308)"
       id="layer1-8"
       inkscape:label="Layer 1">
      <g
         transform="matrix(1.34253,0,0,1.3410074,-0.21717414,988.18231)"
         id="layer1-1"
         inkscape:label="Layer 1">
        <path
           inkscape:connector-curvature="0"
           style="display:inline;fill:url(#linearGradient3322);fill-opacity:1;stroke:none;stroke-width:0.99992186;stroke-linecap:butt;stroke-linejoin:round;stroke-miterlimit:4;stroke-dasharray:none;stroke-dashoffset:0;stroke-opacity:0.42452829"
           id="path4160"
           d="m 6.8655256,0.87983895 c 7.8515454,0 34.2636264,0.002756 34.2636264,0.002756 l 4e-5,43.24831005 c 0,0 -22.842445,0 -34.2636664,0 0,-14.417024 0,-28.834046 0,-43.25106679 z"
           sodipodi:nodetypes="ccccc" />
        <path
           style="fill:none;stroke:url(#linearGradient3988);stroke-width:0.74528509;stroke-linecap:round;stroke-linejoin:round;stroke-miterlimit:4;stroke-dasharray:none;stroke-dashoffset:0;stroke-opacity:1"
           d="m 40.756545,43.758263 -33.5183737,0 0,-42.5057845 33.5183737,0 z"
           id="rect6741-1"
           inkscape:connector-curvature="0"
           sodipodi:nodetypes="ccccc" />
        <path
           inkscape:connector-curvature="0"
           style="display:inline;fill:none;fill-opacity:1;stroke:#000000;stroke-width:0.7452268;stroke-linecap:butt;stroke-linejoin:round;stroke-miterlimit:4;stroke-dasharray:none;stroke-dashoffset:0;stroke-opacity:0.35294118"
           id="path4160-3-6"
           d="m 6.4999609,0.49996093 c 8.0202951,0 35.0000391,0.0028 35.0000391,0.0028 l 4.2e-5,44.00280307 c 0,0 -23.333387,0 -35.0000811,0 0,-14.668535 0,-29.33707 0,-44.00560407 z"
           sodipodi:nodetypes="ccccc" />
      </g>
    </g>
    <path
       inkscape:connector-curvature="0"
       style="fill:#588ba9;fill-opacity:1;stroke:none;display:inline"
       d="m 15,9 0,1 3.189283,0 0,-1 z m 3.608926,0 0,1 3.021426,0 0,-1 z m 3.441069,0 0,1 2.643748,0 0,-1 z m 3.063391,0 0,1 1.174999,0 0,-1 z m 1.594642,0 0,1 2.601784,0 0,-1 z m 3.063391,0 0,1 6.714281,0 0,-1 z M 15,12 l 0,1 5.077675,0 0,-1 z m 5.581246,0 0,1 2.433927,0 0,-1 z m 2.895534,0 0,1 1.133035,0 0,-1 z m 1.636606,0 0,1 2.182141,0 0,-1 z m 2.685712,0 0,1 2.182142,0 0,-1 z m 2.643749,0 0,1 3.566962,0 0,-1 z m 4.070533,0 0,1 4.658032,0 0,-1 z M 15,15 l 0,1 5.62321,0 0,-1 z m 6.042853,0 0,1 6.042853,0 0,-1 z M 15,18 l 0,1 3.105355,0 0,-1 z m 3.524997,0 0,1 2.895534,0 0,-1 z m 3.315177,0 0,1 2.559819,0 0,-1 z m 5.119639,6 0,1 2.55982,0 0,-1 z m 2.979463,0 0,1 2.559819,0 0,-1 z m 2.979462,0 0,1 3.692855,0 0,-1 z m 4.154462,0 0,1 0.755356,0 0,-1 z m -9.987494,9 0,1 3.147319,0 0,-1 z m 3.566962,0 0,1 2.937498,0 0,-1 z m 3.357141,0 0,1 2.475891,0 0,-1 z m -6.924103,3 0,1 2.517856,0 0,-1 z m 2.937498,0 0,1 6.462496,0 0,-1 z m 6.882139,0 0,1 4.951782,0 0,-1 z m -9.819637,3 0,1 3.273212,0 0,-1 z m 3.734819,0 0,1 5.749103,0 0,-1 z m 6.168746,0 0,1 3.94464,0 0,-1 z m -9.903565,3 0,1 2.517856,0 0,-1 z m 2.937498,0 0,1 2.55982,0 0,-1 z m 2.979462,0 0,1 3.650891,0 0,-1 z m 4.070534,0 0,1 0.755356,0 0,-1 z m 1.174999,0 0,1 4.741961,0 0,-1 z m -11.246421,9 0,1 3.273212,0 0,-1 z m 3.692854,0 0,1 3.021427,0 0,-1 z m 3.483034,0 0,1 2.601784,0 0,-1 z m 3.021426,0 0,1 4.154462,0 0,-1 z m 4.616069,0 0,1 6.756245,0 0,-1 z"
       id="path4149"
       sodipodi:nodetypes="ccccccccccccccccccccccccccccccccccccccccccccccccccccccccccccccccccccccccccccccccccccccccccccccccccccccccccccccccccccccccccccccccccccccccccccccccccccccccccccccccccccccccccccccccccccccccccccccccccccccccccccc" />
    <path
       inkscape:connector-curvature="0"
       style="fill:#b78ed4;fill-opacity:1;stroke:none;display:inline"
       d="m 15,21 0,1 4.112497,0 0,-1 z m 0,3 0,1 4.154461,0 0,-1 z"
       id="path4063"
       sodipodi:nodetypes="cccccccccc" />
    <path
       inkscape:connector-curvature="0"
       style="fill:#ff7a46;fill-opacity:1;stroke:none;display:inline"
       d="m 19.574104,21 0,1 7.511602,0 0,-1 z m 0.04196,3 0,1 6.840174,0 0,-1 z m 1.594642,21 0,1 6.168746,0 0,-1 z m 6.630353,0 0,1 2.433927,0 0,-1 z m 2.895534,0 0,1 5.791067,0 0,-1 z m 6.252674,0 0,1 3.986605,0 0,-1 z m 4.406247,0 0,1 1.552678,0 0,-1 z m 2.014285,0 0,1 0.923213,0 0,-1 z m 1.342856,0 0,1 2.475891,0 0,-1 z m -21.527665,3 0,1 1.091071,0 0,-1 z m 1.384821,0 0,1 2.182141,0 0,-1 z m 2.517855,0 0,1 2.182142,0 0,-1 z m 2.85357,0 0,1 3.483033,0 0,-1 z m 3.902676,0 0,1 4.53214,0 0,-1 z m 5.161604,0 0,1 3.063391,0 0,-1 z m 3.441069,0 0,1 0.713392,0 0,-1 z"
       id="path4061"
       sodipodi:nodetypes="cccccccccccccccccccccccccccccccccccccccccccccccccccccccccccccccccccccccccccccccc" />
    <path
       inkscape:connector-curvature="0"
       style="fill:#de6161;fill-opacity:1;stroke:none;display:inline"
       id="path4009"
       d="m 15,51 4.077913,0 0,1 L 15,52 z"
       sodipodi:nodetypes="ccccc" />
    <path
       inkscape:connector-curvature="0"
       style="fill:#000000;fill-opacity:0.39215687;stroke:none;display:inline"
       d="m 18.692854,27 0,1 3.021427,0 0,-1 z M 15,30 l 0,1 1.342856,0 0,-1 z m 4.23839,3 0,1 2.475891,0 0,-1 z m 0.167857,3 0,1 3.65089,0 0,-1 z m -0.461607,3 0,1 2.769641,0 0,-1 z m -0.503571,3 0,1 2.853569,0 0,-1 z M 15,45 l 0,1 5.749103,0 0,-1 z m 0,3 0,1 4.951782,0 0,-1 z m 5.32946,0 0,1 2.391963,0 0,-1 z m -0.839285,3 0,1 4.490176,0 0,-1 z"
       id="path4007"
       sodipodi:nodetypes="cccccccccccccccccccccccccccccccccccccccccccccccccc" />
    <path
       inkscape:connector-curvature="0"
       style="fill:#5edf52;fill-opacity:1;stroke:none;display:inline"
       d="m 15,27 0,1 3.147319,0 0,-1 z m 0,6 0,1 3.692854,0 0,-1 z m 0,3 0,1 3.94464,0 0,-1 z m 0,3 0,1 3.399105,0 0,-1 z m 0,3 0,1 2.979462,0 0,-1 z"
       id="path5302"
       sodipodi:nodetypes="ccccccccccccccccccccccccc" />
  </g>
</svg>
