<?xml version="1.0" encoding="UTF-8" standalone="no"?>
<!-- Created with Inkscape (http://www.inkscape.org/) -->

<svg
   xmlns:dc="http://purl.org/dc/elements/1.1/"
   xmlns:cc="http://creativecommons.org/ns#"
   xmlns:rdf="http://www.w3.org/1999/02/22-rdf-syntax-ns#"
   xmlns:svg="http://www.w3.org/2000/svg"
   xmlns="http://www.w3.org/2000/svg"
   xmlns:xlink="http://www.w3.org/1999/xlink"
   xmlns:sodipodi="http://sodipodi.sourceforge.net/DTD/sodipodi-0.dtd"
   xmlns:inkscape="http://www.inkscape.org/namespaces/inkscape"
   width="64"
   height="64"
   id="svg4017"
   version="1.1"
   inkscape:version="0.91 r13725"
   sodipodi:docname="text-x-changelog.svg">
  <defs
     id="defs4019">
    <linearGradient
       id="linearGradient5060">
      <stop
         id="stop5062"
         style="stop-color:#000000;stop-opacity:1"
         offset="0" />
      <stop
         id="stop5064"
         style="stop-color:#000000;stop-opacity:0"
         offset="1" />
    </linearGradient>
    <linearGradient
       id="linearGradient5048">
      <stop
         id="stop5050"
         style="stop-color:#000000;stop-opacity:0"
         offset="0" />
      <stop
         id="stop5056"
         style="stop-color:#000000;stop-opacity:1"
         offset="0.5" />
      <stop
         id="stop5052"
         style="stop-color:#000000;stop-opacity:0"
         offset="1" />
    </linearGradient>
    <linearGradient
       id="linearGradient3104">
      <stop
         offset="0"
         style="stop-color:#a0a0a0;stop-opacity:1;"
         id="stop3106" />
      <stop
         offset="1"
         style="stop-color:#bebebe;stop-opacity:1;"
         id="stop3108" />
    </linearGradient>
    <linearGradient
       id="linearGradient3600-9">
      <stop
         offset="0"
         style="stop-color:#f4f4f4;stop-opacity:1"
         id="stop3602-3" />
      <stop
         offset="1"
         style="stop-color:#dbdbdb;stop-opacity:1"
         id="stop3604-7" />
    </linearGradient>
    <linearGradient
       id="linearGradient3977-4">
      <stop
         id="stop3979-7"
         style="stop-color:#ffffff;stop-opacity:1;"
         offset="0" />
      <stop
         offset="0.03626217"
         style="stop-color:#ffffff;stop-opacity:0.23529412;"
         id="stop3981-6" />
      <stop
         id="stop3983-5"
         style="stop-color:#ffffff;stop-opacity:0.15686275;"
         offset="0.95056331" />
      <stop
         id="stop3985-6"
         style="stop-color:#ffffff;stop-opacity:0.39215687;"
         offset="1" />
    </linearGradient>
    <linearGradient
       gradientTransform="matrix(1.0224066,0,0,0.99211017,53.494527,1019.2604)"
       gradientUnits="userSpaceOnUse"
       xlink:href="#linearGradient3993-315-354"
       id="linearGradient2946-687"
       y2="18.245747"
       x2="-22.56974"
       y1="14.213936"
       x1="-22.60651" />
    <linearGradient
       id="linearGradient3993-315-354">
      <stop
         offset="0"
         style="stop-color:#cdcdcd;stop-opacity:1"
         id="stop3319" />
      <stop
         offset="1"
         style="stop-color:#7c7c7c;stop-opacity:1"
         id="stop3321" />
    </linearGradient>
    <linearGradient
       gradientTransform="matrix(1.0224066,0,0,0.99211017,53.494527,1019.2604)"
       gradientUnits="userSpaceOnUse"
       xlink:href="#linearGradient2490-640-254"
       id="linearGradient2948-223"
       y2="14.213936"
       x2="-14.176869"
       y1="18.245747"
       x1="-14.176869" />
    <linearGradient
       id="linearGradient2490-640-254">
      <stop
         offset="0"
         style="stop-color:#4b4b4b;stop-opacity:1"
         id="stop3325" />
      <stop
         offset="1"
         style="stop-color:#909090;stop-opacity:1"
         id="stop3327" />
    </linearGradient>
    <linearGradient
       gradientTransform="matrix(1.0224066,0,0,0.99211017,53.494527,1019.2604)"
       gradientUnits="userSpaceOnUse"
       xlink:href="#linearGradient2264-2-33-205"
       id="linearGradient2953-130"
       y2="18.245747"
       x2="-22.56974"
       y1="14.213936"
       x1="-22.60651" />
    <linearGradient
       id="linearGradient2264-2-33-205">
      <stop
         offset="0"
         style="stop-color:#d4d4d4;stop-opacity:1"
         id="stop3295" />
      <stop
         offset="1"
         style="stop-color:#939393;stop-opacity:1"
         id="stop3297" />
    </linearGradient>
    <linearGradient
       gradientTransform="matrix(1.0224066,0,0,0.99211017,53.494527,1019.2604)"
       gradientUnits="userSpaceOnUse"
       xlink:href="#linearGradient3926-5-5-666"
       id="linearGradient2955-550"
       y2="14.213936"
       x2="-14.176869"
       y1="18.245747"
       x1="-14.176869" />
    <linearGradient
       id="linearGradient3926-5-5-666">
      <stop
         offset="0"
         style="stop-color:#6f6f6f;stop-opacity:1"
         id="stop3301" />
      <stop
         offset="1"
         style="stop-color:#818181;stop-opacity:1"
         id="stop3303" />
    </linearGradient>
    <linearGradient
       inkscape:collect="always"
       xlink:href="#linearGradient4168"
       id="linearGradient3509"
       gradientUnits="userSpaceOnUse"
       gradientTransform="matrix(1.0224066,0,0,0.99211017,55.494527,1017.2604)"
       x1="-22.60651"
       y1="14.213936"
       x2="-22.56974"
       y2="18.245747" />
    <linearGradient
       id="linearGradient4168">
      <stop
         offset="0"
         style="stop-color:#f8cd70;stop-opacity:1"
         id="stop4170" />
      <stop
         offset="1"
         style="stop-color:#d99a11;stop-opacity:1"
         id="stop4172" />
    </linearGradient>
    <linearGradient
       inkscape:collect="always"
       xlink:href="#linearGradient4093"
       id="linearGradient3511"
       gradientUnits="userSpaceOnUse"
       gradientTransform="matrix(1.0224066,0,0,0.99211017,55.494527,1017.2604)"
       x1="-14.176869"
       y1="18.245747"
       x2="-14.176869"
       y2="14.213936" />
    <linearGradient
       id="linearGradient4093">
      <stop
         offset="0"
         style="stop-color:#bb5e12;stop-opacity:1"
         id="stop4095" />
      <stop
         offset="1"
         style="stop-color:#cd8033;stop-opacity:1"
         id="stop4097" />
    </linearGradient>
    <linearGradient
       inkscape:collect="always"
       xlink:href="#linearGradient2264-2-6"
       id="linearGradient3513"
       gradientUnits="userSpaceOnUse"
       gradientTransform="matrix(1.0224066,0,0,0.99211017,55.494527,1017.2604)"
       x1="-22.60651"
       y1="14.213936"
       x2="-22.56974"
       y2="18.245747" />
    <linearGradient
       id="linearGradient2264-2-6">
      <stop
         offset="0"
         style="stop-color:#d7e866;stop-opacity:1"
         id="stop2266-4-0" />
      <stop
         offset="1"
         style="stop-color:#8cab2a;stop-opacity:1"
         id="stop2268-7-33" />
    </linearGradient>
    <linearGradient
       inkscape:collect="always"
       xlink:href="#linearGradient3926-5-18"
       id="linearGradient3515"
       gradientUnits="userSpaceOnUse"
       gradientTransform="matrix(1.0224066,0,0,0.99211017,55.494527,1017.2604)"
       x1="-14.176869"
       y1="18.245747"
       x2="-14.176869"
       y2="14.213936" />
    <linearGradient
       id="linearGradient3926-5-18">
      <stop
         offset="0"
         style="stop-color:#5d8430;stop-opacity:1"
         id="stop3928-4-7" />
      <stop
         offset="1"
         style="stop-color:#6d9a38;stop-opacity:1"
         id="stop3930-8-0" />
    </linearGradient>
    <linearGradient
       inkscape:collect="always"
       xlink:href="#linearGradient2264-2-3-9-6"
       id="linearGradient3517"
       gradientUnits="userSpaceOnUse"
       gradientTransform="matrix(1.0224066,0,0,0.99211017,55.494527,1013.2604)"
       x1="-22.60651"
       y1="14.213936"
       x2="-22.56974"
       y2="18.245747" />
    <linearGradient
       id="linearGradient2264-2-3-9-6">
      <stop
         offset="0"
         style="stop-color:#d7e866;stop-opacity:1"
         id="stop2266-4-8-7-4" />
      <stop
         offset="1"
         style="stop-color:#8cab2a;stop-opacity:1"
         id="stop2268-7-3-4-0" />
    </linearGradient>
    <linearGradient
       inkscape:collect="always"
       xlink:href="#linearGradient3926-5-9-1-5"
       id="linearGradient3519"
       gradientUnits="userSpaceOnUse"
       gradientTransform="matrix(1.0224066,0,0,0.99211017,55.494527,1013.2604)"
       x1="-14.176869"
       y1="18.245747"
       x2="-14.176869"
       y2="14.213936" />
    <linearGradient
       id="linearGradient3926-5-9-1-5">
      <stop
         offset="0"
         style="stop-color:#5d8430;stop-opacity:1"
         id="stop3928-4-3-7-4" />
      <stop
         offset="1"
         style="stop-color:#6d9a38;stop-opacity:1"
         id="stop3930-8-7-0-6" />
    </linearGradient>
    <linearGradient
       inkscape:collect="always"
       xlink:href="#linearGradient2264-2-39"
       id="linearGradient3521"
       gradientUnits="userSpaceOnUse"
       gradientTransform="matrix(1.0224066,0,0,0.99211017,55.494527,1013.2604)"
       x1="-22.60651"
       y1="14.213936"
       x2="-22.56974"
       y2="18.245747" />
    <linearGradient
       id="linearGradient2264-2-39">
      <stop
         offset="0"
         style="stop-color:#d7e866;stop-opacity:1"
         id="stop2266-4-9" />
      <stop
         offset="1"
         style="stop-color:#8cab2a;stop-opacity:1"
         id="stop2268-7-5" />
    </linearGradient>
    <linearGradient
       inkscape:collect="always"
       xlink:href="#linearGradient3926-5-1"
       id="linearGradient3523"
       gradientUnits="userSpaceOnUse"
       gradientTransform="matrix(1.0224066,0,0,0.99211017,55.494527,1013.2604)"
       x1="-14.176869"
       y1="18.245747"
       x2="-14.176869"
       y2="14.213936" />
    <linearGradient
       id="linearGradient3926-5-1">
      <stop
         offset="0"
         style="stop-color:#5d8430;stop-opacity:1"
         id="stop3928-4-30" />
      <stop
         offset="1"
         style="stop-color:#6d9a38;stop-opacity:1"
         id="stop3930-8-9" />
    </linearGradient>
    <linearGradient
       gradientTransform="matrix(1.0224066,0,0,0.99211017,53.494527,1007.2604)"
       gradientUnits="userSpaceOnUse"
       xlink:href="#linearGradient3993-979-651"
       id="linearGradient2985-308"
       y2="18.245747"
       x2="-22.56974"
       y1="14.213936"
       x1="-22.60651" />
    <linearGradient
       id="linearGradient3993-979-651">
      <stop
         offset="0"
         style="stop-color:#cdcdcd;stop-opacity:1"
         id="stop3307" />
      <stop
         offset="1"
         style="stop-color:#7c7c7c;stop-opacity:1"
         id="stop3309" />
    </linearGradient>
    <linearGradient
       gradientTransform="matrix(1.0224066,0,0,0.99211017,53.494527,1007.2604)"
       gradientUnits="userSpaceOnUse"
       xlink:href="#linearGradient2490-892-765"
       id="linearGradient2987-383"
       y2="14.213936"
       x2="-14.176869"
       y1="18.245747"
       x1="-14.176869" />
    <linearGradient
       id="linearGradient2490-892-765">
      <stop
         offset="0"
         style="stop-color:#4b4b4b;stop-opacity:1"
         id="stop3313" />
      <stop
         offset="1"
         style="stop-color:#909090;stop-opacity:1"
         id="stop3315" />
    </linearGradient>
    <linearGradient
       inkscape:collect="always"
       xlink:href="#linearGradient2264-2-853"
       id="linearGradient3205-697"
       gradientUnits="userSpaceOnUse"
       gradientTransform="matrix(1.0224066,0,0,0.99211017,45.494526,-1.1017905)"
       x1="-22.60651"
       y1="14.213936"
       x2="-22.56974"
       y2="18.245747" />
    <linearGradient
       id="linearGradient2264-2-853">
      <stop
         offset="0"
         style="stop-color:#d4d4d4;stop-opacity:1"
         id="stop3283" />
      <stop
         offset="1"
         style="stop-color:#939393;stop-opacity:1"
         id="stop3285" />
    </linearGradient>
    <linearGradient
       inkscape:collect="always"
       xlink:href="#linearGradient3926-5-617"
       id="linearGradient3207-605"
       gradientUnits="userSpaceOnUse"
       gradientTransform="matrix(1.0224066,0,0,0.99211017,45.494526,-1.1017905)"
       x1="-14.176869"
       y1="18.245747"
       x2="-14.176869"
       y2="14.213936" />
    <linearGradient
       id="linearGradient3926-5-617">
      <stop
         offset="0"
         style="stop-color:#6f6f6f;stop-opacity:1"
         id="stop3289" />
      <stop
         offset="1"
         style="stop-color:#818181;stop-opacity:1"
         id="stop3291" />
    </linearGradient>
    <linearGradient
       y2="18.245747"
       x2="-22.56974"
       y1="14.213936"
       x1="-22.60651"
       gradientTransform="matrix(1.0224066,0,0,0.99211017,53.494527,1007.2604)"
       gradientUnits="userSpaceOnUse"
       id="linearGradient3190"
       xlink:href="#linearGradient2264-2-853"
       inkscape:collect="always" />
    <linearGradient
       y2="14.213936"
       x2="-14.176869"
       y1="18.245747"
       x1="-14.176869"
       gradientTransform="matrix(1.0224066,0,0,0.99211017,53.494527,1007.2604)"
       gradientUnits="userSpaceOnUse"
       id="linearGradient3192"
       xlink:href="#linearGradient3926-5-617"
       inkscape:collect="always" />
    <linearGradient
       inkscape:collect="always"
       xlink:href="#linearGradient2264-2-853"
       id="linearGradient3202"
       gradientUnits="userSpaceOnUse"
       gradientTransform="matrix(1.0224066,0,0,0.99211017,53.494527,983.26032)"
       x1="-22.60651"
       y1="14.213936"
       x2="-22.56974"
       y2="18.245747" />
    <linearGradient
       inkscape:collect="always"
       xlink:href="#linearGradient3926-5-617"
       id="linearGradient3204"
       gradientUnits="userSpaceOnUse"
       gradientTransform="matrix(1.0224066,0,0,0.99211017,53.494527,983.26032)"
       x1="-14.176869"
       y1="18.245747"
       x2="-14.176869"
       y2="14.213936" />
    <linearGradient
       inkscape:collect="always"
       xlink:href="#linearGradient3993-979-651"
       id="linearGradient3206"
       gradientUnits="userSpaceOnUse"
       gradientTransform="matrix(1.0224066,0,0,0.99211017,53.494527,983.26032)"
       x1="-22.60651"
       y1="14.213936"
       x2="-22.56974"
       y2="18.245747" />
    <linearGradient
       inkscape:collect="always"
       xlink:href="#linearGradient2490-892-765"
       id="linearGradient3208"
       gradientUnits="userSpaceOnUse"
       gradientTransform="matrix(1.0224066,0,0,0.99211017,53.494527,983.26032)"
       x1="-14.176869"
       y1="18.245747"
       x2="-14.176869"
       y2="14.213936" />
    <linearGradient
       inkscape:collect="always"
       xlink:href="#linearGradient2264-2-39"
       id="linearGradient3220"
       gradientUnits="userSpaceOnUse"
       gradientTransform="matrix(1.0224066,0,0,0.99211017,55.494527,989.26036)"
       x1="-22.60651"
       y1="14.213936"
       x2="-22.56974"
       y2="18.245747" />
    <linearGradient
       inkscape:collect="always"
       xlink:href="#linearGradient3926-5-1"
       id="linearGradient3222"
       gradientUnits="userSpaceOnUse"
       gradientTransform="matrix(1.0224066,0,0,0.99211017,55.494527,989.26036)"
       x1="-14.176869"
       y1="18.245747"
       x2="-14.176869"
       y2="14.213936" />
    <linearGradient
       inkscape:collect="always"
       xlink:href="#linearGradient2264-2-3-9-6"
       id="linearGradient3224"
       gradientUnits="userSpaceOnUse"
       gradientTransform="matrix(1.0224066,0,0,0.99211017,55.494527,989.26036)"
       x1="-22.60651"
       y1="14.213936"
       x2="-22.56974"
       y2="18.245747" />
    <linearGradient
       inkscape:collect="always"
       xlink:href="#linearGradient3926-5-9-1-5"
       id="linearGradient3226"
       gradientUnits="userSpaceOnUse"
       gradientTransform="matrix(1.0224066,0,0,0.99211017,55.494527,989.26036)"
       x1="-14.176869"
       y1="18.245747"
       x2="-14.176869"
       y2="14.213936" />
    <linearGradient
       inkscape:collect="always"
       xlink:href="#linearGradient2264-2-39"
       id="linearGradient3256"
       gradientUnits="userSpaceOnUse"
       gradientTransform="matrix(1.0224066,0,0,0.99211017,55.494527,1001.2604)"
       x1="-22.60651"
       y1="14.213936"
       x2="-22.56974"
       y2="18.245747" />
    <linearGradient
       inkscape:collect="always"
       xlink:href="#linearGradient3926-5-1"
       id="linearGradient3258"
       gradientUnits="userSpaceOnUse"
       gradientTransform="matrix(1.0224066,0,0,0.99211017,55.494527,1001.2604)"
       x1="-14.176869"
       y1="18.245747"
       x2="-14.176869"
       y2="14.213936" />
    <linearGradient
       inkscape:collect="always"
       xlink:href="#linearGradient2264-2-3-9-6"
       id="linearGradient3260"
       gradientUnits="userSpaceOnUse"
       gradientTransform="matrix(1.0224066,0,0,0.99211017,55.494527,1001.2604)"
       x1="-22.60651"
       y1="14.213936"
       x2="-22.56974"
       y2="18.245747" />
    <linearGradient
       inkscape:collect="always"
       xlink:href="#linearGradient3926-5-9-1-5"
       id="linearGradient3262"
       gradientUnits="userSpaceOnUse"
       gradientTransform="matrix(1.0224066,0,0,0.99211017,55.494527,1001.2604)"
       x1="-14.176869"
       y1="18.245747"
       x2="-14.176869"
       y2="14.213936" />
    <linearGradient
       inkscape:collect="always"
       xlink:href="#linearGradient2264-2-6"
       id="linearGradient3274"
       gradientUnits="userSpaceOnUse"
       gradientTransform="matrix(1.0224066,0,0,0.99211017,57.494527,995.26036)"
       x1="-22.60651"
       y1="14.213936"
       x2="-22.56974"
       y2="18.245747" />
    <linearGradient
       inkscape:collect="always"
       xlink:href="#linearGradient3926-5-18"
       id="linearGradient3276"
       gradientUnits="userSpaceOnUse"
       gradientTransform="matrix(1.0224066,0,0,0.99211017,57.494527,995.26036)"
       x1="-14.176869"
       y1="18.245747"
       x2="-14.176869"
       y2="14.213936" />
    <linearGradient
       inkscape:collect="always"
       xlink:href="#linearGradient4168"
       id="linearGradient3278"
       gradientUnits="userSpaceOnUse"
       gradientTransform="matrix(1.0224066,0,0,0.99211017,57.494527,995.26036)"
       x1="-22.60651"
       y1="14.213936"
       x2="-22.56974"
       y2="18.245747" />
    <linearGradient
       inkscape:collect="always"
       xlink:href="#linearGradient4093"
       id="linearGradient3280"
       gradientUnits="userSpaceOnUse"
       gradientTransform="matrix(1.0224066,0,0,0.99211017,57.494527,995.26036)"
       x1="-14.176869"
       y1="18.245747"
       x2="-14.176869"
       y2="14.213936" />
    <radialGradient
       r="117.14286"
       fy="486.64789"
       fx="605.71429"
       cy="486.64789"
       cx="605.71429"
       gradientTransform="matrix(0.03132633,0,0,0.02058823,35.220859,1037.8136)"
       gradientUnits="userSpaceOnUse"
       id="radialGradient3153-6"
       xlink:href="#linearGradient5060"
       inkscape:collect="always" />
    <radialGradient
       r="117.14286"
       fy="486.64789"
       fx="605.71429"
       cy="486.64789"
       cx="605.71429"
       gradientTransform="matrix(-0.03132632,0,0,0.02058823,28.779136,1037.8136)"
       gradientUnits="userSpaceOnUse"
       id="radialGradient3156-3"
       xlink:href="#linearGradient5060"
       inkscape:collect="always" />
    <linearGradient
       inkscape:collect="always"
       xlink:href="#linearGradient5048"
       id="linearGradient4326"
       gradientUnits="userSpaceOnUse"
       gradientTransform="matrix(0.09153846,0,0,0.02058823,-1.084616,1037.8136)"
       x1="302.85715"
       y1="366.64789"
       x2="302.85715"
       y2="609.50507" />
    <linearGradient
       inkscape:collect="always"
       xlink:href="#linearGradient3977"
       id="linearGradient3988"
       gradientUnits="userSpaceOnUse"
       gradientTransform="matrix(0.905902,0,0,1.148805,2.2557157,-5.0659372)"
       x1="23.999994"
       y1="5.9404659"
       x2="23.999994"
       y2="42.059513" />
    <linearGradient
       id="linearGradient3977">
      <stop
         offset="0"
         style="stop-color:#ffffff;stop-opacity:1;"
         id="stop3979" />
      <stop
         id="stop3981"
         style="stop-color:#ffffff;stop-opacity:0.23529412;"
         offset="0.04878049" />
      <stop
         offset="0.95056331"
         style="stop-color:#ffffff;stop-opacity:0"
         id="stop3983" />
      <stop
         offset="1"
         style="stop-color:#000000;stop-opacity:0.04313726"
         id="stop3985" />
    </linearGradient>
    <linearGradient
       inkscape:collect="always"
       xlink:href="#linearGradient3927"
       id="linearGradient3322"
       gradientUnits="userSpaceOnUse"
       gradientTransform="matrix(0.97895964,0,0,0.9397746,0.50232621,-1.4909226)"
       x1="25.029415"
       y1="2.5226912"
       x2="25.029415"
       y2="48.545498" />
    <linearGradient
       id="linearGradient3927">
      <stop
         id="stop3929"
         offset="0"
         style="stop-color:#fbfcfd;stop-opacity:1" />
      <stop
         id="stop3931"
         offset="1"
         style="stop-color:#ebeced;stop-opacity:1" />
    </linearGradient>
    <linearGradient
       inkscape:collect="always"
       xlink:href="#linearGradient5048"
       id="linearGradient4346"
       gradientUnits="userSpaceOnUse"
       gradientTransform="matrix(0.09153846,0,0,0.02058823,-1.084616,1037.8136)"
       x1="302.85715"
       y1="366.64789"
       x2="302.85715"
       y2="609.50507" />
  </defs>
  <sodipodi:namedview
     id="base"
     pagecolor="#ffffff"
     bordercolor="#666666"
     borderopacity="1.0"
     inkscape:pageopacity="0.0"
     inkscape:pageshadow="2"
     inkscape:zoom="8.6093749"
     inkscape:cx="22.021574"
     inkscape:cy="31.437299"
     inkscape:document-units="pt"
     inkscape:current-layer="layer1"
     showgrid="true"
     inkscape:window-width="1920"
     inkscape:window-height="1035"
     inkscape:window-x="0"
     inkscape:window-y="23"
     inkscape:window-maximized="1"
     showguides="true"
     inkscape:guide-bbox="true"
     inkscape:snap-bbox="true"
     inkscape:bbox-paths="true"
     inkscape:bbox-nodes="true"
     inkscape:snap-bbox-edge-midpoints="true">
    <inkscape:grid
       type="xygrid"
       id="grid3301" />
  </sodipodi:namedview>
  <metadata
     id="metadata4022">
    <rdf:RDF>
      <cc:Work
         rdf:about="">
        <dc:format>image/svg+xml</dc:format>
        <dc:type
           rdf:resource="http://purl.org/dc/dcmitype/StillImage" />
        <dc:title />
      </cc:Work>
    </rdf:RDF>
  </metadata>
  <g
     inkscape:label="Layer 1"
     inkscape:groupmode="layer"
     id="layer1"
     transform="translate(0,-988.36218)">
    <g
       id="layer1-8"
       inkscape:label="Layer 1"
       transform="translate(0,0.00909602)">
      <rect
         width="44.199997"
         height="5"
         x="9.8999996"
         y="1045.3622"
         id="rect2879-9"
         style="display:inline;overflow:visible;visibility:visible;opacity:0.3;fill:url(#linearGradient4346);fill-opacity:1;fill-rule:nonzero;stroke:none;stroke-width:1;marker:none" />
      <path
         d="m 9.9,1045.3624 c 0,0 0,4.9997 0,4.9997 -1.6132281,0.01 -3.9,-1.1202 -3.9,-2.5002 0,-1.38 1.8002408,-2.4995 3.9,-2.4995 z"
         id="path2881-0"
         style="display:inline;overflow:visible;visibility:visible;opacity:0.3;fill:url(#radialGradient3156-3);fill-opacity:1;fill-rule:nonzero;stroke:none;stroke-width:1;marker:none"
         inkscape:connector-curvature="0" />
      <path
         d="m 54.099999,1045.3624 c 0,0 0,4.9997 0,4.9997 1.613228,0.01 3.900001,-1.1202 3.900001,-2.5002 0,-1.38 -1.800241,-2.4995 -3.900001,-2.4995 z"
         id="path2883-7"
         style="display:inline;overflow:visible;visibility:visible;opacity:0.3;fill:url(#radialGradient3153-6);fill-opacity:1;fill-rule:nonzero;stroke:none;stroke-width:1;marker:none"
         inkscape:connector-curvature="0" />
      <g
         transform="matrix(1.34253,0,0,1.3410074,-0.21717414,988.18231)"
         id="layer1-1"
         inkscape:label="Layer 1">
        <path
           inkscape:connector-curvature="0"
           style="display:inline;fill:url(#linearGradient3322);fill-opacity:1;stroke:none;stroke-width:0.99992186;stroke-linecap:butt;stroke-linejoin:round;stroke-miterlimit:4;stroke-dasharray:none;stroke-dashoffset:0;stroke-opacity:0.42452829"
           id="path4160"
           d="m 6.8655256,0.87983895 c 7.8515454,0 34.2636264,0.002756 34.2636264,0.002756 l 4e-5,43.24831005 c 0,0 -22.842445,0 -34.2636664,0 0,-14.417024 0,-28.834046 0,-43.25106679 z"
           sodipodi:nodetypes="ccccc" />
        <path
           style="fill:none;stroke:url(#linearGradient3988);stroke-width:0.74528509;stroke-linecap:round;stroke-linejoin:round;stroke-miterlimit:4;stroke-dasharray:none;stroke-dashoffset:0;stroke-opacity:1"
           d="m 40.756545,43.758263 -33.5183737,0 0,-42.5057845 33.5183737,0 z"
           id="rect6741-1"
           inkscape:connector-curvature="0"
           sodipodi:nodetypes="ccccc" />
        <path
           inkscape:connector-curvature="0"
           style="display:inline;fill:none;fill-opacity:1;stroke:#000000;stroke-width:0.7452268;stroke-linecap:butt;stroke-linejoin:round;stroke-miterlimit:4;stroke-dasharray:none;stroke-dashoffset:0;stroke-opacity:0.35294118"
           id="path4160-3"
           d="m 6.4999609,0.49996093 c 8.0202951,0 35.0000391,0.0028 35.0000391,0.0028 l 4.2e-5,44.00280307 c 0,0 -23.333387,0 -35.0000811,0 0,-14.668535 0,-29.33707 0,-44.00560407 z"
           sodipodi:nodetypes="ccccc" />
      </g>
    </g>
    <path
       style="color:#000000;fill:url(#linearGradient3190);fill-opacity:1;fill-rule:nonzero;stroke:url(#linearGradient3192);stroke-width:0.99999994;stroke-linecap:square;stroke-linejoin:miter;stroke-miterlimit:4;stroke-opacity:1;stroke-dasharray:none;stroke-dashoffset:0;marker:none;visibility:visible;display:inline;overflow:visible;enable-background:accumulate"
       id="path4098"
       d="m 24.921252,1021.8625 c -0.228953,0.016 -0.424256,0.1935 -0.421216,0.3837 l 0,2.2323 c -0.0025,0.2014 0.220083,0.3856 0.463338,0.3836 l 17.073273,0 c 0.243254,0 0.465752,-0.1822 0.463336,-0.3836 l 0,-2.2323 c 0.0025,-0.2014 -0.220082,-0.3857 -0.463336,-0.3837 l -17.073273,0 c -0.01403,-5e-4 -0.02809,-5e-4 -0.04212,0 z"
       inkscape:connector-curvature="0" />
    <path
       style="opacity:0.15;fill:#000000;fill-opacity:1;stroke:none;display:inline"
       id="path4106"
       d="m 24.444654,1022.3627 c -0.241673,0.021 -0.447826,0.2579 -0.444616,0.5115 l 0,2.9764 c -0.0026,0.2685 0.232309,0.5142 0.489078,0.5115 l 18.021786,0 c 0.256768,0 0.491628,-0.243 0.489078,-0.5115 l 0,-2.9764 c 0.0026,-0.2685 -0.23231,-0.5142 -0.489078,-0.5115 l -18.021786,0 c -0.01481,-7e-4 -0.02965,-7e-4 -0.04446,0 z m -4.979507,0 c -0.252811,0.021 -0.468465,0.2579 -0.465108,0.5115 l 0,2.9764 c -0.0027,0.2685 0.243016,0.5142 0.511619,0.5115 l 2.9767,0 c 0.268604,0 0.514288,-0.243 0.511621,-0.5115 l 0,-2.9764 c 0.0027,-0.2685 -0.243017,-0.5142 -0.511621,-0.5115 l -2.9767,0 c -0.01549,-7e-4 -0.03101,-7e-4 -0.04651,0 z"
       inkscape:connector-curvature="0" />
    <path
       style="opacity:0.4;fill:none;stroke:#ffffff;stroke-width:1px;stroke-linecap:butt;stroke-linejoin:miter;stroke-opacity:1"
       id="path4373"
       d="m 25.000001,1022.8621 17.000001,0"
       inkscape:connector-curvature="0" />
    <path
       style="color:#000000;fill:url(#linearGradient2985-308);fill-opacity:1;fill-rule:nonzero;stroke:url(#linearGradient2987-383);stroke-width:0.99999994;stroke-linecap:square;stroke-linejoin:miter;stroke-miterlimit:4;stroke-opacity:1;stroke-dashoffset:0;marker:none;visibility:visible;display:inline;overflow:visible;enable-background:accumulate"
       id="rect4432"
       d="m 20.000001,1021.8621 2,0 c 0.277,0 0.5,0.223 0.5,0.5 l 0,2 c 0,0.277 -0.223,0.5 -0.5,0.5 l -2,0 c -0.277,0 -0.5,-0.223 -0.5,-0.5 l 0,-2 c 0,-0.277 0.223,-0.5 0.5,-0.5 z m 4.921251,4e-4 c -0.228953,0.016 -0.424256,0.1935 -0.421216,0.3837 l 0,2.2323 c -0.0025,0.2014 0.220083,0.3856 0.463338,0.3836 l 17.073273,0 c 0.243254,0 0.465752,-0.1822 0.463336,-0.3836 l 0,-2.2323 c 0.0025,-0.2014 -0.220082,-0.3857 -0.463336,-0.3837 l -17.073273,0 c -0.01403,-5e-4 -0.02809,-5e-4 -0.04212,0 z"
       inkscape:connector-curvature="0" />
    <path
       style="opacity:0.4;fill:none;stroke:#ffffff;stroke-width:1px;stroke-linecap:butt;stroke-linejoin:miter;stroke-opacity:1"
       id="path4373-7-4"
       d="m 20.000001,1022.8621 1.999516,0 m 3.000484,0 17.000001,0"
       inkscape:connector-curvature="0" />
    <path
       style="color:#000000;fill:url(#linearGradient3521);fill-opacity:1;fill-rule:nonzero;stroke:url(#linearGradient3523);stroke-width:0.99999994;stroke-linecap:square;stroke-linejoin:miter;stroke-miterlimit:4;stroke-opacity:1;stroke-dasharray:none;stroke-dashoffset:0;marker:none;visibility:visible;display:inline;overflow:visible;enable-background:accumulate"
       id="path4098-9"
       d="m 26.921252,1027.8625 c -0.228953,0.016 -0.424256,0.1935 -0.421216,0.3837 l 0,2.2323 c -0.0025,0.2014 0.220083,0.3856 0.463338,0.3836 l 17.073273,0 c 0.243254,0 0.465752,-0.1822 0.463336,-0.3836 l 0,-2.2323 c 0.0025,-0.2014 -0.220082,-0.3857 -0.463336,-0.3837 l -17.073273,0 c -0.01403,-5e-4 -0.02809,-5e-4 -0.04212,0 z"
       inkscape:connector-curvature="0" />
    <path
       style="opacity:0.15;fill:#000000;fill-opacity:1;stroke:none;display:inline"
       id="path4106-1"
       d="m 26.444654,1028.3627 c -0.241673,0.021 -0.447826,0.2579 -0.444616,0.5115 l 0,2.9764 c -0.0026,0.2685 0.232309,0.5142 0.489078,0.5115 l 18.021786,0 c 0.256768,0 0.491628,-0.243 0.489078,-0.5115 l 0,-2.9764 c 0.0026,-0.2685 -0.23231,-0.5142 -0.489078,-0.5115 l -18.021786,0 c -0.01481,-7e-4 -0.02965,-7e-4 -0.04446,0 z m -4.979507,0 c -0.252811,0.021 -0.468465,0.2579 -0.465108,0.5115 l 0,2.9764 c -0.0027,0.2685 0.243016,0.5142 0.511619,0.5115 l 2.9767,0 c 0.268604,0 0.514288,-0.243 0.511621,-0.5115 l 0,-2.9764 c 0.0027,-0.2685 -0.243017,-0.5142 -0.511621,-0.5115 l -2.9767,0 c -0.01549,-7e-4 -0.03101,-7e-4 -0.04651,0 z"
       inkscape:connector-curvature="0" />
    <path
       style="opacity:0.4;fill:none;stroke:#ffffff;stroke-width:1px;stroke-linecap:butt;stroke-linejoin:miter;stroke-opacity:1"
       id="path4373-3"
       d="m 27.000001,1028.8621 17.000001,0"
       inkscape:connector-curvature="0" />
    <path
       style="color:#000000;fill:url(#linearGradient3517);fill-opacity:1;fill-rule:nonzero;stroke:url(#linearGradient3519);stroke-width:0.99999994;stroke-linecap:square;stroke-linejoin:miter;stroke-miterlimit:4;stroke-opacity:1;stroke-dashoffset:0;marker:none;visibility:visible;display:inline;overflow:visible;enable-background:accumulate"
       id="rect4432-4"
       d="m 22.000001,1027.8621 2,0 c 0.277,0 0.5,0.223 0.5,0.5 l 0,2 c 0,0.277 -0.223,0.5 -0.5,0.5 l -2,0 c -0.277,0 -0.5,-0.223 -0.5,-0.5 l 0,-2 c 0,-0.277 0.223,-0.5 0.5,-0.5 z m 4.921251,4e-4 c -0.228953,0.016 -0.424256,0.1935 -0.421216,0.3837 l 0,2.2323 c -0.0025,0.2014 0.220083,0.3856 0.463338,0.3836 l 17.073273,0 c 0.243254,0 0.465752,-0.1822 0.463336,-0.3836 l 0,-2.2323 c 0.0025,-0.2014 -0.220082,-0.3857 -0.463336,-0.3837 l -17.073273,0 c -0.01403,-5e-4 -0.02809,-5e-4 -0.04212,0 z"
       inkscape:connector-curvature="0" />
    <path
       style="opacity:0.4;fill:none;stroke:#ffffff;stroke-width:1px;stroke-linecap:butt;stroke-linejoin:miter;stroke-opacity:1"
       id="path4373-7-4-5"
       d="m 22.000001,1028.8621 1.999516,0 m 3.000484,0 17.000001,0"
       inkscape:connector-curvature="0" />
    <path
       style="color:#000000;fill:url(#linearGradient2953-130);fill-opacity:1;fill-rule:nonzero;stroke:url(#linearGradient2955-550);stroke-width:0.99999994;stroke-linecap:square;stroke-linejoin:miter;stroke-miterlimit:4;stroke-opacity:1;stroke-dasharray:none;stroke-dashoffset:0;marker:none;visibility:visible;display:inline;overflow:visible;enable-background:accumulate"
       id="path4098-2"
       d="m 24.921252,1033.8626 c -0.228953,0.016 -0.424256,0.1934 -0.421216,0.3836 l 0,2.2323 c -0.0025,0.2014 0.220083,0.3857 0.463338,0.3837 l 17.073273,0 c 0.243254,0 0.465752,-0.1823 0.463336,-0.3837 l 0,-2.2323 c 0.0025,-0.2014 -0.220082,-0.3856 -0.463336,-0.3836 l -17.073273,0 c -0.01403,-6e-4 -0.02809,-6e-4 -0.04212,0 z"
       inkscape:connector-curvature="0" />
    <path
       style="opacity:0.15;fill:#000000;fill-opacity:1;stroke:none;display:inline"
       id="path4106-9"
       d="m 24.444654,1034.3627 c -0.241673,0.021 -0.447826,0.258 -0.444616,0.5116 l 0,2.9763 c -0.0026,0.2686 0.232309,0.5142 0.489078,0.5116 l 18.021786,0 c 0.256768,0 0.491628,-0.243 0.489078,-0.5116 l 0,-2.9763 c 0.0026,-0.2686 -0.23231,-0.5143 -0.489078,-0.5116 l -18.021786,0 c -0.01481,-7e-4 -0.02965,-7e-4 -0.04446,0 z m -4.979507,0 c -0.252811,0.021 -0.468465,0.258 -0.465108,0.5116 l 0,2.9763 c -0.0027,0.2686 0.243016,0.5142 0.511619,0.5116 l 2.9767,0 c 0.268604,0 0.514288,-0.243 0.511621,-0.5116 l 0,-2.9763 c 0.0027,-0.2686 -0.243017,-0.5143 -0.511621,-0.5116 l -2.9767,0 c -0.01549,-7e-4 -0.03101,-7e-4 -0.04651,0 z"
       inkscape:connector-curvature="0" />
    <path
       style="opacity:0.4;fill:none;stroke:#ffffff;stroke-width:1px;stroke-linecap:butt;stroke-linejoin:miter;stroke-opacity:1"
       id="path4373-2"
       d="m 25.000001,1034.8622 17.000001,0"
       inkscape:connector-curvature="0" />
    <path
       style="color:#000000;fill:url(#linearGradient2946-687);fill-opacity:1;fill-rule:nonzero;stroke:url(#linearGradient2948-223);stroke-width:0.99999994;stroke-linecap:square;stroke-linejoin:miter;stroke-miterlimit:4;stroke-opacity:1;stroke-dashoffset:0;marker:none;visibility:visible;display:inline;overflow:visible;enable-background:accumulate"
       id="rect4432-8"
       d="m 20.000001,1033.8622 2,0 c 0.277,0 0.5,0.223 0.5,0.5 l 0,2 c 0,0.277 -0.223,0.5 -0.5,0.5 l -2,0 c -0.277,0 -0.5,-0.223 -0.5,-0.5 l 0,-2 c 0,-0.277 0.223,-0.5 0.5,-0.5 z m 4.921251,4e-4 c -0.228953,0.016 -0.424256,0.1934 -0.421216,0.3836 l 0,2.2323 c -0.0025,0.2014 0.220083,0.3857 0.463338,0.3837 l 17.073273,0 c 0.243254,0 0.465752,-0.1823 0.463336,-0.3837 l 0,-2.2323 c 0.0025,-0.2014 -0.220082,-0.3856 -0.463336,-0.3836 l -17.073273,0 c -0.01403,-6e-4 -0.02809,-6e-4 -0.04212,0 z"
       inkscape:connector-curvature="0" />
    <path
       style="opacity:0.4;fill:none;stroke:#ffffff;stroke-width:1px;stroke-linecap:butt;stroke-linejoin:miter;stroke-opacity:1"
       id="path4373-7-4-1"
       d="m 20.000001,1034.8622 1.999516,0 m 3.000484,0 17.000001,0"
       inkscape:connector-curvature="0" />
    <path
       inkscape:connector-curvature="0"
       d="m 24.921252,997.86246 c -0.228953,0.016 -0.424256,0.19354 -0.421216,0.38374 l 0,2.2323 c -0.0025,0.2014 0.220083,0.3856 0.463338,0.3836 l 17.073273,0 c 0.243254,0 0.465752,-0.1822 0.463336,-0.3836 l 0,-2.2323 c 0.0025,-0.2014 -0.220082,-0.38574 -0.463336,-0.38374 l -17.073273,0 c -0.01403,-5e-4 -0.02809,-5e-4 -0.04212,0 z"
       id="path3192"
       style="color:#000000;fill:url(#linearGradient3202);fill-opacity:1;fill-rule:nonzero;stroke:url(#linearGradient3204);stroke-width:0.99999994;stroke-linecap:square;stroke-linejoin:miter;stroke-miterlimit:4;stroke-opacity:1;stroke-dasharray:none;stroke-dashoffset:0;marker:none;visibility:visible;display:inline;overflow:visible;enable-background:accumulate" />
    <path
       inkscape:connector-curvature="0"
       d="m 24.444654,998.3627 c -0.241673,0.021 -0.447826,0.2579 -0.444616,0.5115 l 0,2.9764 c -0.0026,0.2685 0.232309,0.5142 0.489078,0.5115 l 18.021786,0 c 0.256768,0 0.491628,-0.243 0.489078,-0.5115 l 0,-2.9764 c 0.0026,-0.2685 -0.23231,-0.5142 -0.489078,-0.5115 l -18.021786,0 c -0.01481,-7e-4 -0.02965,-7e-4 -0.04446,0 z m -4.979507,0 c -0.252811,0.021 -0.468465,0.2579 -0.465108,0.5115 l 0,2.9764 c -0.0027,0.2685 0.243016,0.5142 0.511619,0.5115 l 2.9767,0 c 0.268604,0 0.514288,-0.243 0.511621,-0.5115 l 0,-2.9764 c 0.0027,-0.2685 -0.243017,-0.5142 -0.511621,-0.5115 l -2.9767,0 c -0.01549,-7e-4 -0.03101,-7e-4 -0.04651,0 z"
       id="path3194"
       style="opacity:0.15;fill:#000000;fill-opacity:1;stroke:none;display:inline" />
    <path
       inkscape:connector-curvature="0"
       d="m 25.000001,998.8621 17.000001,0"
       id="path3196"
       style="opacity:0.4;fill:none;stroke:#ffffff;stroke-width:1px;stroke-linecap:butt;stroke-linejoin:miter;stroke-opacity:1" />
    <path
       inkscape:connector-curvature="0"
       d="m 20.000001,997.86206 2,0 c 0.277,0 0.5,0.22304 0.5,0.50004 l 0,2 c 0,0.277 -0.223,0.5 -0.5,0.5 l -2,0 c -0.277,0 -0.5,-0.223 -0.5,-0.5 l 0,-2 c 0,-0.277 0.223,-0.50004 0.5,-0.50004 z m 4.921251,4e-4 c -0.228953,0.016 -0.424256,0.19354 -0.421216,0.38374 l 0,2.2323 c -0.0025,0.2014 0.220083,0.3856 0.463338,0.3836 l 17.073273,0 c 0.243254,0 0.465752,-0.1822 0.463336,-0.3836 l 0,-2.2323 c 0.0025,-0.2014 -0.220082,-0.38574 -0.463336,-0.38374 l -17.073273,0 c -0.01403,-5e-4 -0.02809,-5e-4 -0.04212,0 z"
       id="path3198"
       style="color:#000000;fill:url(#linearGradient3206);fill-opacity:1;fill-rule:nonzero;stroke:url(#linearGradient3208);stroke-width:0.99999994;stroke-linecap:square;stroke-linejoin:miter;stroke-miterlimit:4;stroke-opacity:1;stroke-dashoffset:0;marker:none;visibility:visible;display:inline;overflow:visible;enable-background:accumulate" />
    <path
       inkscape:connector-curvature="0"
       d="m 20.000001,998.8621 1.999516,0 m 3.000484,0 17.000001,0"
       id="path3200"
       style="opacity:0.4;fill:none;stroke:#ffffff;stroke-width:1px;stroke-linecap:butt;stroke-linejoin:miter;stroke-opacity:1" />
    <path
       inkscape:connector-curvature="0"
       d="m 26.921252,1003.8625 c -0.228953,0.016 -0.424256,0.1935 -0.421216,0.3837 l 0,2.2323 c -0.0025,0.2014 0.220083,0.3856 0.463338,0.3836 l 17.073273,0 c 0.243254,0 0.465752,-0.1822 0.463336,-0.3836 l 0,-2.2323 c 0.0025,-0.2014 -0.220082,-0.3857 -0.463336,-0.3837 l -17.073273,0 c -0.01403,-5e-4 -0.02809,-5e-4 -0.04212,0 z"
       id="path3210"
       style="color:#000000;fill:url(#linearGradient3220);fill-opacity:1;fill-rule:nonzero;stroke:url(#linearGradient3222);stroke-width:0.99999994;stroke-linecap:square;stroke-linejoin:miter;stroke-miterlimit:4;stroke-opacity:1;stroke-dasharray:none;stroke-dashoffset:0;marker:none;visibility:visible;display:inline;overflow:visible;enable-background:accumulate" />
    <path
       inkscape:connector-curvature="0"
       d="m 26.444654,1004.3627 c -0.241673,0.021 -0.447826,0.2579 -0.444616,0.5115 l 0,2.9764 c -0.0026,0.2685 0.232309,0.5142 0.489078,0.5115 l 18.021786,0 c 0.256768,0 0.491628,-0.243 0.489078,-0.5115 l 0,-2.9764 c 0.0026,-0.2685 -0.23231,-0.5142 -0.489078,-0.5115 l -18.021786,0 c -0.01481,-7e-4 -0.02965,-7e-4 -0.04446,0 z m -4.979507,0 c -0.252811,0.021 -0.468465,0.2579 -0.465108,0.5115 l 0,2.9764 c -0.0027,0.2685 0.243016,0.5142 0.511619,0.5115 l 2.9767,0 c 0.268604,0 0.514288,-0.243 0.511621,-0.5115 l 0,-2.9764 c 0.0027,-0.2685 -0.243017,-0.5142 -0.511621,-0.5115 l -2.9767,0 c -0.01549,-7e-4 -0.03101,-7e-4 -0.04651,0 z"
       id="path3212"
       style="opacity:0.15;fill:#000000;fill-opacity:1;stroke:none;display:inline" />
    <path
       inkscape:connector-curvature="0"
       d="m 27.000001,1004.8621 17.000001,0"
       id="path3214"
       style="opacity:0.4;fill:none;stroke:#ffffff;stroke-width:1px;stroke-linecap:butt;stroke-linejoin:miter;stroke-opacity:1" />
    <path
       inkscape:connector-curvature="0"
       d="m 22.000001,1003.8621 2,0 c 0.277,0 0.5,0.223 0.5,0.5 l 0,2 c 0,0.277 -0.223,0.5 -0.5,0.5 l -2,0 c -0.277,0 -0.5,-0.223 -0.5,-0.5 l 0,-2 c 0,-0.277 0.223,-0.5 0.5,-0.5 z m 4.921251,4e-4 c -0.228953,0.016 -0.424256,0.1935 -0.421216,0.3837 l 0,2.2323 c -0.0025,0.2014 0.220083,0.3856 0.463338,0.3836 l 17.073273,0 c 0.243254,0 0.465752,-0.1822 0.463336,-0.3836 l 0,-2.2323 c 0.0025,-0.2014 -0.220082,-0.3857 -0.463336,-0.3837 l -17.073273,0 c -0.01403,-5e-4 -0.02809,-5e-4 -0.04212,0 z"
       id="path3216"
       style="color:#000000;fill:url(#linearGradient3224);fill-opacity:1;fill-rule:nonzero;stroke:url(#linearGradient3226);stroke-width:0.99999994;stroke-linecap:square;stroke-linejoin:miter;stroke-miterlimit:4;stroke-opacity:1;stroke-dashoffset:0;marker:none;visibility:visible;display:inline;overflow:visible;enable-background:accumulate" />
    <path
       inkscape:connector-curvature="0"
       d="m 22.000001,1004.8621 1.999516,0 m 3.000484,0 17.000001,0"
       id="path3218"
       style="opacity:0.4;fill:none;stroke:#ffffff;stroke-width:1px;stroke-linecap:butt;stroke-linejoin:miter;stroke-opacity:1" />
    <path
       inkscape:connector-curvature="0"
       d="m 26.921252,1015.8625 c -0.228953,0.016 -0.424256,0.1935 -0.421216,0.3837 l 0,2.2323 c -0.0025,0.2014 0.220083,0.3856 0.463338,0.3836 l 17.073273,0 c 0.243254,0 0.465752,-0.1822 0.463336,-0.3836 l 0,-2.2323 c 0.0025,-0.2014 -0.220082,-0.3857 -0.463336,-0.3837 l -17.073273,0 c -0.01403,-5e-4 -0.02809,-5e-4 -0.04212,0 z"
       id="path3246"
       style="color:#000000;fill:url(#linearGradient3256);fill-opacity:1;fill-rule:nonzero;stroke:url(#linearGradient3258);stroke-width:0.99999994;stroke-linecap:square;stroke-linejoin:miter;stroke-miterlimit:4;stroke-opacity:1;stroke-dasharray:none;stroke-dashoffset:0;marker:none;visibility:visible;display:inline;overflow:visible;enable-background:accumulate" />
    <path
       inkscape:connector-curvature="0"
       d="m 26.444654,1016.3627 c -0.241673,0.021 -0.447826,0.2579 -0.444616,0.5115 l 0,2.9764 c -0.0026,0.2685 0.232309,0.5142 0.489078,0.5115 l 18.021786,0 c 0.256768,0 0.491628,-0.243 0.489078,-0.5115 l 0,-2.9764 c 0.0026,-0.2685 -0.23231,-0.5142 -0.489078,-0.5115 l -18.021786,0 c -0.01481,-7e-4 -0.02965,-7e-4 -0.04446,0 z m -4.979507,0 c -0.252811,0.021 -0.468465,0.2579 -0.465108,0.5115 l 0,2.9764 c -0.0027,0.2685 0.243016,0.5142 0.511619,0.5115 l 2.9767,0 c 0.268604,0 0.514288,-0.243 0.511621,-0.5115 l 0,-2.9764 c 0.0027,-0.2685 -0.243017,-0.5142 -0.511621,-0.5115 l -2.9767,0 c -0.01549,-7e-4 -0.03101,-7e-4 -0.04651,0 z"
       id="path3248"
       style="opacity:0.15;fill:#000000;fill-opacity:1;stroke:none;display:inline" />
    <path
       inkscape:connector-curvature="0"
       d="m 27.000001,1016.8621 17.000001,0"
       id="path3250"
       style="opacity:0.4;fill:none;stroke:#ffffff;stroke-width:1px;stroke-linecap:butt;stroke-linejoin:miter;stroke-opacity:1" />
    <path
       inkscape:connector-curvature="0"
       d="m 22.000001,1015.8621 2,0 c 0.277,0 0.5,0.223 0.5,0.5 l 0,2 c 0,0.277 -0.223,0.5 -0.5,0.5 l -2,0 c -0.277,0 -0.5,-0.223 -0.5,-0.5 l 0,-2 c 0,-0.277 0.223,-0.5 0.5,-0.5 z m 4.921251,4e-4 c -0.228953,0.016 -0.424256,0.1935 -0.421216,0.3837 l 0,2.2323 c -0.0025,0.2014 0.220083,0.3856 0.463338,0.3836 l 17.073273,0 c 0.243254,0 0.465752,-0.1822 0.463336,-0.3836 l 0,-2.2323 c 0.0025,-0.2014 -0.220082,-0.3857 -0.463336,-0.3837 l -17.073273,0 c -0.01403,-5e-4 -0.02809,-5e-4 -0.04212,0 z"
       id="path3252"
       style="color:#000000;fill:url(#linearGradient3260);fill-opacity:1;fill-rule:nonzero;stroke:url(#linearGradient3262);stroke-width:0.99999994;stroke-linecap:square;stroke-linejoin:miter;stroke-miterlimit:4;stroke-opacity:1;stroke-dashoffset:0;marker:none;visibility:visible;display:inline;overflow:visible;enable-background:accumulate" />
    <path
       inkscape:connector-curvature="0"
       d="m 22.000001,1016.8621 1.999516,0 m 3.000484,0 17.000001,0"
       id="path3254"
       style="opacity:0.4;fill:none;stroke:#ffffff;stroke-width:1px;stroke-linecap:butt;stroke-linejoin:miter;stroke-opacity:1" />
    <path
       inkscape:connector-curvature="0"
       d="m 28.921252,1009.8626 c -0.228953,0.016 -0.424256,0.1934 -0.421216,0.3836 l 0,2.2323 c -0.0025,0.2014 0.220083,0.3857 0.463338,0.3837 l 17.073273,0 c 0.243254,0 0.465752,-0.1823 0.463336,-0.3837 l 0,-2.2323 c 0.0025,-0.2014 -0.220082,-0.3856 -0.463336,-0.3836 l -17.073273,0 c -0.01403,-6e-4 -0.02809,-6e-4 -0.04212,0 z"
       id="path3264"
       style="color:#000000;fill:url(#linearGradient3274);fill-opacity:1;fill-rule:nonzero;stroke:url(#linearGradient3276);stroke-width:0.99999994;stroke-linecap:square;stroke-linejoin:miter;stroke-miterlimit:4;stroke-opacity:1;stroke-dasharray:none;stroke-dashoffset:0;marker:none;visibility:visible;display:inline;overflow:visible;enable-background:accumulate" />
    <path
       inkscape:connector-curvature="0"
       d="m 28.444654,1010.3627 c -0.241673,0.021 -0.447826,0.258 -0.444616,0.5116 l 0,2.9763 c -0.0026,0.2686 0.232309,0.5142 0.489078,0.5116 l 18.021786,0 c 0.256768,0 0.491628,-0.243 0.489078,-0.5116 l 0,-2.9763 c 0.0026,-0.2686 -0.23231,-0.5143 -0.489078,-0.5116 l -18.021786,0 c -0.01481,-7e-4 -0.02965,-7e-4 -0.04446,0 z m -4.979507,0 c -0.252811,0.021 -0.468465,0.258 -0.465108,0.5116 l 0,2.9763 c -0.0027,0.2686 0.243016,0.5142 0.511619,0.5116 l 2.9767,0 c 0.268604,0 0.514288,-0.243 0.511621,-0.5116 l 0,-2.9763 c 0.0027,-0.2686 -0.243017,-0.5143 -0.511621,-0.5116 l -2.9767,0 c -0.01549,-7e-4 -0.03101,-7e-4 -0.04651,0 z"
       id="path3266"
       style="opacity:0.15;fill:#000000;fill-opacity:1;stroke:none;display:inline" />
    <path
       inkscape:connector-curvature="0"
       d="m 29.000001,1010.8622 17.000001,0"
       id="path3268"
       style="opacity:0.4;fill:none;stroke:#ffffff;stroke-width:1px;stroke-linecap:butt;stroke-linejoin:miter;stroke-opacity:1" />
    <path
       inkscape:connector-curvature="0"
       d="m 24.000001,1009.8622 2,0 c 0.277,0 0.5,0.223 0.5,0.5 l 0,2 c 0,0.277 -0.223,0.5 -0.5,0.5 l -2,0 c -0.277,0 -0.5,-0.223 -0.5,-0.5 l 0,-2 c 0,-0.277 0.223,-0.5 0.5,-0.5 z m 4.921251,4e-4 c -0.228953,0.016 -0.424256,0.1934 -0.421216,0.3836 l 0,2.2323 c -0.0025,0.2014 0.220083,0.3857 0.463338,0.3837 l 17.073273,0 c 0.243254,0 0.465752,-0.1823 0.463336,-0.3837 l 0,-2.2323 c 0.0025,-0.2014 -0.220082,-0.3856 -0.463336,-0.3836 l -17.073273,0 c -0.01403,-6e-4 -0.02809,-6e-4 -0.04212,0 z"
       id="path3270"
       style="color:#000000;fill:url(#linearGradient3278);fill-opacity:1;fill-rule:nonzero;stroke:url(#linearGradient3280);stroke-width:0.99999994;stroke-linecap:square;stroke-linejoin:miter;stroke-miterlimit:4;stroke-opacity:1;stroke-dashoffset:0;marker:none;visibility:visible;display:inline;overflow:visible;enable-background:accumulate" />
    <path
       inkscape:connector-curvature="0"
       d="m 24.000001,1010.8622 1.999516,0 m 3.000484,0 17.000001,0"
       id="path3272"
       style="opacity:0.4;fill:none;stroke:#ffffff;stroke-width:1px;stroke-linecap:butt;stroke-linejoin:miter;stroke-opacity:1" />
  </g>
</svg>
