<?xml version="1.0" encoding="UTF-8" standalone="no"?>
<!-- Created with Inkscape (http://www.inkscape.org/) -->

<svg
   xmlns:dc="http://purl.org/dc/elements/1.1/"
   xmlns:cc="http://creativecommons.org/ns#"
   xmlns:rdf="http://www.w3.org/1999/02/22-rdf-syntax-ns#"
   xmlns:svg="http://www.w3.org/2000/svg"
   xmlns="http://www.w3.org/2000/svg"
   xmlns:xlink="http://www.w3.org/1999/xlink"
   xmlns:sodipodi="http://sodipodi.sourceforge.net/DTD/sodipodi-0.dtd"
   xmlns:inkscape="http://www.inkscape.org/namespaces/inkscape"
   width="24"
   height="24"
   id="svg2"
   sodipodi:version="0.32"
   inkscape:version="0.91 r13725"
   version="1.0"
   sodipodi:docname="add-folder-to-archive.svg"
   inkscape:output_extension="org.inkscape.output.svg.inkscape"
   inkscape:export-filename="/home/matt/.icons/Sirocco/scalable/mimetypes/text-plain.png"
   inkscape:export-xdpi="90"
   inkscape:export-ydpi="90"
   sodipodi:modified="true"
   style="display:inline">
  <sodipodi:namedview
     id="base"
     pagecolor="#838383"
     bordercolor="#cc0000"
     borderopacity="1"
     inkscape:pageopacity="1"
     inkscape:pageshadow="2"
     inkscape:zoom="15.622586"
     inkscape:cx="8.1704073"
     inkscape:cy="6.8296049"
     inkscape:document-units="px"
     inkscape:current-layer="layer1"
     width="128px"
     height="128px"
     inkscape:showpageshadow="false"
     inkscape:window-width="1366"
     inkscape:window-height="718"
     inkscape:window-x="0"
     inkscape:window-y="25"
     showguides="true"
     inkscape:guide-bbox="true"
     showgrid="true"
     inkscape:window-maximized="1"
     borderlayer="true"
     inkscape:snap-global="true">
    <inkscape:grid
       enabled="true"
       visible="true"
       id="grid3231"
       type="xygrid"
       empspacing="8"
       snapvisiblegridlinesonly="true" />
    <sodipodi:guide
       orientation="1,0"
       position="12,6"
       id="guide3791" />
    <sodipodi:guide
       orientation="0,1"
       position="14,9"
       id="guide3793" />
  </sodipodi:namedview>
  <defs
     id="defs4">
    <linearGradient
       id="StandardGradient"
       gradientTransform="scale(0.9219544,1.0846523)"
       x1="11.998966"
       y1="0.92195445"
       x2="11.998966"
       y2="19.387045"
       gradientUnits="userSpaceOnUse">
      <stop
         style="stop-color:#000000;stop-opacity:0.23529412;"
         offset="0"
         id="stop3283" />
      <stop
         id="stop3850"
         offset="0.69999999"
         style="stop-color:#000000;stop-opacity:0.39215686;" />
      <stop
         style="stop-color:#000000;stop-opacity:0.55;"
         offset="1"
         id="stop2651" />
    </linearGradient>
    <radialGradient
       inkscape:collect="always"
       xlink:href="#StandardGradient"
       id="radialGradient4055"
       cx="12"
       cy="12.803125"
       fx="12"
       fy="12.803125"
       r="9.015625"
       gradientTransform="matrix(1.7746967,0,0,1.1091854,-8.2961105,-2.2010399)"
       gradientUnits="userSpaceOnUse" />
    <radialGradient
       inkscape:collect="always"
       xlink:href="#StandardGradient"
       id="radialGradient4061"
       gradientUnits="userSpaceOnUse"
       gradientTransform="matrix(1.7746967,0,0,1.1091854,-9.2963605,-1.2010399)"
       cx="12"
       cy="12.803125"
       fx="12"
       fy="12.803125"
       r="9.015625" />
    <radialGradient
       inkscape:collect="always"
       xlink:href="#StandardGradient"
       id="radialGradient4065"
       gradientUnits="userSpaceOnUse"
       gradientTransform="matrix(1.7746967,0,0,1.1091854,-9.2963605,-1.2010399)"
       cx="12"
       cy="12.803125"
       fx="12"
       fy="12.803125"
       r="9.015625" />
    <radialGradient
       inkscape:collect="always"
       xlink:href="#StandardGradient"
       id="radialGradient4067"
       gradientUnits="userSpaceOnUse"
       gradientTransform="matrix(1.7746967,0,0,1.1091854,-9.2963605,-1.2010399)"
       cx="12"
       cy="12.803125"
       fx="12"
       fy="12.803125"
       r="9.015625" />
  </defs>
  <metadata
     id="metadata7">
    <rdf:RDF>
      <cc:Work
         rdf:about="">
        <dc:format>image/svg+xml</dc:format>
        <dc:type
           rdf:resource="http://purl.org/dc/dcmitype/StillImage" />
        <dc:title></dc:title>
      </cc:Work>
    </rdf:RDF>
  </metadata>
  <g
     style="display:inline"
     inkscape:label="Calque 1"
     id="layer1"
     inkscape:groupmode="layer"
     transform="translate(0,2)">
    <path
       inkscape:connector-curvature="0"
       style="display:inline;opacity:0.05;fill:#ffffff;fill-opacity:1;stroke:none"
       d="M 11.00025,-1 C 9.5098864,-1 8.3803945,0.1616909 8.1565,1.59375 7.8150354,1.3241543 7.4299657,1.09375 6.969,1.09375 l -2,0 c -1.0922186,0 -2,0.9077814 -2,2 l 0,1 a 1.0029247,1.0029247 0 0 0 0.1875,0.5625 C 2.490107,5.1087026 1.969,5.7379883 1.969,6.59375 l 0,5 c 0,1.369219 1.1307814,2.5 2.5,2.5 l 1.5,0 2.0625,0 C 8.0879689,15.69202 9.3893423,17 11.00025,17 l -1,0 a 1.0029247,1.0029247 0 0 0 -1,1 l 0,1 a 1.0029247,1.0029247 0 0 0 1,1 l 2,0 a 1.0029247,1.0029247 0 0 0 1,1 l 4,0 a 1.0029247,1.0029247 0 0 0 1,-1 l 2,0 a 1.0029247,1.0029247 0 0 0 1,-1 l 0,-1 a 1.0029247,1.0029247 0 0 0 -1,-1 l -1,0 c 1.646219,0 3,-1.353781 3,-3 l 0,-12 c 0,-1.6462186 -1.353781,-3 -3,-3 l -8,0 z m 0,1 8,0 c 1.108,0 2,0.892 2,2 l 0,12 c 0,1.108 -0.892,2 -2,2 l -3,0 0,1 1,0 0,1 3,0 0,1 -3,0 0,1 -4,0 0,-1 -3,0 0,-1 3,0 0,-1 1,0 0,-1 -3,0 c -1.108,0 -2,-0.892 -2,-2 l 9,0 c 0.554,0 1,-0.446 1,-1 l 0,-10 c 0,-0.554 -0.446,-1 -1,-1 l -9,0 c 0,-1.108 0.892,-2 2,-2 z M 4.969,2.09375 l 2,0 c 0.554,0 1,0.446 1,1 l 5,0 c 0.554,0 1,0.446 1,1 l -10,0 0,-1 c 0,-0.554 0.446,-1 1,-1 z M 14.50025,3 l 3.5,0 0,10 -2.46875,0 c 0.275801,-0.405734 0.4375,-0.888434 0.4375,-1.40625 l 0,-5 c 0,-0.8557617 -0.521107,-1.4850474 -1.1875,-1.9375 A 1.0029247,1.0029247 0 0 0 14.969,4.09375 C 14.969,3.6680319 14.733767,3.3273677 14.50025,3 Z M 4.469,5.09375 l 3,0 5,0 1,0 c 0.831,0 1.5,0.669 1.5,1.5 l 0,5 c 0,0.647488 -0.396277,1.195291 -0.96875,1.40625 l 0,0.09375 -8.03125,0 -1.5,0 c -0.831,0 -1.5,-0.669 -1.5,-1.5 l 0,-5 c 0,-0.831 0.669,-1.5 1.5,-1.5 z"
       id="path6264" />
    <path
       inkscape:connector-curvature="0"
       style="display:inline;fill:url(#radialGradient4055);fill-opacity:1;stroke:none"
       d="m 11.00025,0 c -1.108,0 -2,0.892 -2,2 l 9,0 c 0.554,0 1,0.446 1,1 l 0,10 c 0,0.554 -0.446,1 -1,1 l -9,0 c 0,1.108 0.892,2 2,2 l 3,0 0,1 -1,0 0,1 -3,0 0,1 3,0 0,1 4,0 0,-1 3,0 0,-1 -3,0 0,-1 -1,0 0,-1 3,0 c 1.108,0 2,-0.892 2,-2 l 0,-12 c 0,-1.108 -0.892,-2 -2,-2 l -8,0 z M 4.969,2.09375 c -0.554,0 -1,0.446 -1,1 l 0,1 10,0 c 0,-0.554 -0.446,-1 -1,-1 l -5,0 c 0,-0.554 -0.446,-1 -1,-1 l -2,0 z m -0.5,3 c -0.831,0 -1.5,0.669 -1.5,1.5 l 0,5 c 0,0.831 0.669,1.5 1.5,1.5 l 1.5,0 8.03125,0 0,-0.09375 C 14.572723,12.789041 14.969,12.241238 14.969,11.59375 l 0,-5 c 0,-0.831 -0.669,-1.5 -1.5,-1.5 l -1,0 -5,0 -3,0 z"
       id="path2866" />
    <path
       inkscape:connector-curvature="0"
       style="display:inline;opacity:0.3;fill:#000000;fill-opacity:1;stroke:none"
       d="m 11.00025,0 c -1.108,0 -2,0.892 -2,2 L 9.2815,2 C 9.6267769,1.4030909 10.258349,1 11.00025,1 l 8,0 c 1.108,0 2,0.892 2,2 l 0,-1 c 0,-1.108 -0.892,-2 -2,-2 l -8,0 z M 4.969,2.09375 c -0.554,0 -1,0.446 -1,1 l 0,1 c 0,-0.554 0.446,-1 1,-1 l 2,0 c 0.554,0 1,0.446 1,1 l 5,0 1,0 c 0,-0.554 -0.446,-1 -1,-1 l -5,0 c 0,-0.554 -0.446,-1 -1,-1 l -2,0 z m -0.5,3 c -0.831,0 -1.5,0.669 -1.5,1.5 l 0,1 c 0,-0.831 0.669,-1.5 1.5,-1.5 l 3,0 5,0 1,0 c 0.831,0 1.5,0.669 1.5,1.5 l 0,-1 c 0,-0.831 -0.669,-1.5 -1.5,-1.5 l -9,0 z M 19.00025,13 c 0,0.554 -0.446,1 -1,1 l -4,0 0,0.09375 -5,0 C 9.0155188,14.424169 9.1259068,14.731013 9.2815,15 l 8.71875,0 c 0.554,0 1,-0.446 1,-1 l 0,-1 z m -6,4 0,1 1,0 0,-1 -1,0 z m 0,1 -3,0 0,1 3,0 0,-1 z m 3,-1 0,1 1,0 0,-1 -1,0 z m 1,1 0,1 3,0 0,-1 -3,0 z"
       id="path2901" />
    <path
       style="display:inline;opacity:0.2;fill:#ffffff;fill-opacity:1;stroke:none"
       d="M 9.2815,2 C 9.1111196,2.2945508 9.00025,2.6339013 9.00025,3 l 9,0 c 0.554,0 1,0.446 1,1 l 0,-1 c 0,-0.554 -0.446,-1 -1,-1 L 9.2815,2 Z m -5.3125,2.09375 0,1 0.5,0 9,0 0.5,0 c 0,-0.554 -0.446,-1 -1,-1 l -5,0 -4,0 z m -1,7.5 0,1 c 0,0.831 0.669,1.5 1.5,1.5 l 1.5,0 3.03125,0 c -0.00145,-0.0314 0,-0.06198 0,-0.09375 l 5,0 C 14.572723,13.789041 14.969,13.241238 14.969,12.59375 l 0,-1 c 0,0.647488 -0.396277,1.195291 -0.96875,1.40625 l 0,0.09375 -8.03125,0 -1.5,0 c -0.831,0 -1.5,-0.669 -1.5,-1.5 z M 21.00025,14 c 0,1.108 -0.892,2 -2,2 l -3,0 0,1 1,0 2,0 c 1.108,0 2,-0.892 2,-2 l 0,-1 z m -12,1 c 0,1.108 0.892,2 2,2 l 2,0 1,0 0,-1 -3,0 C 10.258349,16 9.6267769,15.596909 9.2815,15 l -0.28125,0 z m 1,4 0,1 3,0 0,-1 -3,0 z m 3,1 0,1 4,0 0,-1 -4,0 z m 4,0 3,0 0,-1 -3,0 0,1 z"
       id="path3682"
       inkscape:connector-curvature="0" />
    <path
       style="display:inline;opacity:0.3;fill:#000000;fill-opacity:1;stroke:none"
       d="m 11.00025,0 c -1.108,0 -2,0.892 -2,2 l 9,0 c 0.554,0 1,0.446 1,1 l 0,10 c 0,0.554 -0.446,1 -1,1 l -9,0 c 0,1.108 0.892,2 2,2 l 3,0 0,1 -1,0 0,1 -3,0 0,1 3,0 0,1 4,0 0,-1 3,0 0,-1 -3,0 0,-1 -1,0 0,-1 3,0 c 1.108,0 2,-0.892 2,-2 l 0,-12 c 0,-1.108 -0.892,-2 -2,-2 l -8,0 z m 0,0.5 8,0 c 0.836523,0 1.5,0.663477 1.5,1.5 l 0,12 c 0,0.836523 -0.663477,1.5 -1.5,1.5 l -3,0 a 0.50587425,0.50587425 0 0 0 -0.5,0.5 l 0,1 a 0.50587425,0.50587425 0 0 0 0.5,0.5 l 0.5,0 0,0.5 a 0.50587425,0.50587425 0 0 0 0.375,0.5 0.50587425,0.50587425 0 0 0 -0.375,0.5 l 0,0.5 -3,0 0,-0.5 a 0.50587425,0.50587425 0 0 0 -0.375,-0.5 0.50587425,0.50587425 0 0 0 0.375,-0.5 l 0,-0.5 0.5,0 a 0.50587425,0.50587425 0 0 0 0.5,-0.5 l 0,-1 a 0.50587425,0.50587425 0 0 0 -0.5,-0.5 l -3,0 c -0.637911,0 -1.0636888,-0.447441 -1.28125,-1 l 8.28125,0 c 0.825477,0 1.5,-0.674523 1.5,-1.5 l 0,-10 c 0,-0.825477 -0.674523,-1.5 -1.5,-1.5 L 9.719,1.5 c 0.2175612,-0.5525587 0.643339,-1 1.28125,-1 z M 4.969,2.09375 c -0.554,0 -1,0.446 -1,1 l 0,1 10,0 c 0,-0.554 -0.446,-1 -1,-1 l -5,0 c 0,-0.554 -0.446,-1 -1,-1 l -2,0 z m 0,0.5 2,0 c 0.282523,0 0.5,0.217477 0.5,0.5 a 0.50587425,0.50587425 0 0 0 0.34375,0.5 l -3.34375,0 0,-0.5 c 0,-0.282523 0.217477,-0.5 0.5,-0.5 z m -0.5,2.5 c -0.831,0 -1.5,0.669 -1.5,1.5 l 0,5 c 0,0.831 0.669,1.5 1.5,1.5 l 1.5,0 8.03125,0 0,-0.09375 C 14.572723,12.789041 14.969,12.241238 14.969,11.59375 l 0,-5 c 0,-0.831 -0.669,-1.5 -1.5,-1.5 l -1,0 -5,0 -3,0 z m 0,0.5 3,0 5,0 1,0 c 0.559523,0 1,0.440477 1,1 l 0,5 c 0,0.441104 -0.279293,0.79859 -0.65625,0.9375 a 0.50587425,0.50587425 0 0 0 -0.125,0.0625 l -7.71875,0 -1.5,0 c -0.559523,0 -1,-0.440477 -1,-1 l 0,-5 c 0,-0.559523 0.440477,-1 1,-1 z"
       id="path4057"
       inkscape:connector-curvature="0" />
  </g>
</svg>
