<?xml version="1.0" encoding="UTF-8" standalone="no"?>
<!-- Created with Inkscape (http://www.inkscape.org/) -->

<svg
   xmlns:dc="http://purl.org/dc/elements/1.1/"
   xmlns:cc="http://creativecommons.org/ns#"
   xmlns:rdf="http://www.w3.org/1999/02/22-rdf-syntax-ns#"
   xmlns:svg="http://www.w3.org/2000/svg"
   xmlns="http://www.w3.org/2000/svg"
   xmlns:xlink="http://www.w3.org/1999/xlink"
   xmlns:sodipodi="http://sodipodi.sourceforge.net/DTD/sodipodi-0.dtd"
   xmlns:inkscape="http://www.inkscape.org/namespaces/inkscape"
   width="24"
   height="24"
   id="svg2"
   sodipodi:version="0.32"
   inkscape:version="0.91 r13725"
   version="1.0"
   sodipodi:docname="contact-new.svg"
   inkscape:output_extension="org.inkscape.output.svg.inkscape"
   inkscape:export-filename="/home/matt/.icons/Sirocco/scalable/mimetypes/text-plain.png"
   inkscape:export-xdpi="90"
   inkscape:export-ydpi="90"
   sodipodi:modified="true"
   style="display:inline">
  <sodipodi:namedview
     id="base"
     pagecolor="#838383"
     bordercolor="#cc0000"
     borderopacity="1"
     inkscape:pageopacity="1"
     inkscape:pageshadow="2"
     inkscape:zoom="15.622586"
     inkscape:cx="6.3166309"
     inkscape:cy="8.5184675"
     inkscape:document-units="px"
     inkscape:current-layer="layer1"
     width="128px"
     height="128px"
     inkscape:showpageshadow="false"
     inkscape:window-width="1366"
     inkscape:window-height="718"
     inkscape:window-x="0"
     inkscape:window-y="25"
     showguides="true"
     inkscape:guide-bbox="true"
     showgrid="true"
     inkscape:window-maximized="1"
     borderlayer="true"
     inkscape:snap-global="true">
    <inkscape:grid
       enabled="true"
       visible="true"
       id="grid3231"
       type="xygrid"
       empspacing="8"
       snapvisiblegridlinesonly="true" />
    <sodipodi:guide
       orientation="1,0"
       position="12,17"
       id="guide3791" />
    <sodipodi:guide
       orientation="0,1"
       position="14,9"
       id="guide3793" />
  </sodipodi:namedview>
  <defs
     id="defs4">
    <linearGradient
       id="StandardGradient"
       gradientTransform="scale(0.9219544,1.0846523)"
       x1="11.998966"
       y1="0.92195445"
       x2="11.998966"
       y2="19.387045"
       gradientUnits="userSpaceOnUse">
      <stop
         style="stop-color:#000000;stop-opacity:0.23529412;"
         offset="0"
         id="stop3283" />
      <stop
         id="stop3850"
         offset="0.69999999"
         style="stop-color:#000000;stop-opacity:0.39215686;" />
      <stop
         style="stop-color:#000000;stop-opacity:0.55;"
         offset="1"
         id="stop2651" />
    </linearGradient>
    <linearGradient
       id="StandardGradient-8"
       gradientTransform="scale(0.9219544,1.0846523)"
       x1="11.998966"
       y1="0.92195445"
       x2="11.998966"
       y2="19.387045"
       gradientUnits="userSpaceOnUse">
      <stop
         style="stop-color:#000000;stop-opacity:0.23529412;"
         offset="0"
         id="stop3283-8" />
      <stop
         id="stop3850-2"
         offset="0.69999999"
         style="stop-color:#000000;stop-opacity:0.39215686;" />
      <stop
         style="stop-color:#000000;stop-opacity:0.55;"
         offset="1"
         id="stop2651-8" />
    </linearGradient>
    <radialGradient
       inkscape:collect="always"
       xlink:href="#StandardGradient-8"
       id="radialGradient4511"
       gradientUnits="userSpaceOnUse"
       gradientTransform="matrix(0.66666667,0,0,0.37499999,2,6.4154414)"
       cx="15"
       cy="17.558823"
       fx="15"
       fy="17.558823"
       r="24" />
    <linearGradient
       id="StandardGradient-3"
       gradientTransform="scale(0.9219544,1.0846523)"
       x1="11.998966"
       y1="0.92195445"
       x2="11.998966"
       y2="19.387045"
       gradientUnits="userSpaceOnUse">
      <stop
         style="stop-color:#000000;stop-opacity:0.86274511;"
         offset="0"
         id="stop3283-5" />
      <stop
         style="stop-color:#000000;stop-opacity:0.47058824;"
         offset="1"
         id="stop2651-2" />
    </linearGradient>
    <linearGradient
       y2="80"
       x2="56"
       y1="16"
       x1="56"
       gradientTransform="matrix(0.29995182,0,0,0.28966015,-3.3976881,-3.6643405)"
       gradientUnits="userSpaceOnUse"
       id="linearGradient3063"
       xlink:href="#StandardGradient-3"
       inkscape:collect="always" />
    <linearGradient
       id="StandardGradient-31"
       gradientTransform="scale(0.9219544,1.0846523)"
       x1="11.998966"
       y1="0.92195445"
       x2="11.998966"
       y2="19.387045"
       gradientUnits="userSpaceOnUse">
      <stop
         style="stop-color:#000000;stop-opacity:0.23529412;"
         offset="0"
         id="stop3283-3" />
      <stop
         style="stop-color:#000000;stop-opacity:0.55;"
         offset="1"
         id="stop2651-0" />
    </linearGradient>
    <radialGradient
       r="7"
       fy="13.255554"
       fx="13.000001"
       cy="13.255554"
       cx="13.000001"
       gradientTransform="matrix(2.1428571,0,0,1.1428571,-34.857143,-2.1492053)"
       gradientUnits="userSpaceOnUse"
       id="radialGradient3061"
       xlink:href="#StandardGradient-31"
       inkscape:collect="always" />
    <radialGradient
       inkscape:collect="always"
       xlink:href="#StandardGradient-31"
       id="radialGradient4614"
       gradientUnits="userSpaceOnUse"
       gradientTransform="matrix(2.1428571,0,0,1.1428571,-15.857143,3.8507947)"
       cx="13.000001"
       cy="13.255554"
       fx="13.000001"
       fy="13.255554"
       r="7" />
    <radialGradient
       inkscape:collect="always"
       xlink:href="#StandardGradient-31"
       id="radialGradient4618"
       gradientUnits="userSpaceOnUse"
       gradientTransform="matrix(2.1428571,0,0,1.1428571,-15.857143,2.8507947)"
       cx="13.000001"
       cy="13.255554"
       fx="13.000001"
       fy="13.255554"
       r="7" />
    <linearGradient
       inkscape:collect="always"
       xlink:href="#StandardGradient-3"
       id="linearGradient4621"
       gradientUnits="userSpaceOnUse"
       gradientTransform="matrix(0.29995182,0,0,0.28966015,-3.3976881,-3.6643405)"
       x1="56"
       y1="16"
       x2="56"
       y2="80" />
    <radialGradient
       inkscape:collect="always"
       xlink:href="#StandardGradient"
       id="radialGradient4626"
       cx="12"
       cy="12.5"
       fx="12"
       fy="12.5"
       r="7.5"
       gradientTransform="matrix(2.1333333,0,0,1.4666666,-12.599921,-6.4578331)"
       gradientUnits="userSpaceOnUse" />
    <radialGradient
       inkscape:collect="always"
       xlink:href="#StandardGradient"
       id="radialGradient4632"
       gradientUnits="userSpaceOnUse"
       gradientTransform="matrix(2.1333333,0,0,1.4666666,-13.6,-4.3333331)"
       cx="12"
       cy="12.5"
       fx="12"
       fy="12.5"
       r="7.5" />
    <radialGradient
       inkscape:collect="always"
       xlink:href="#StandardGradient"
       id="radialGradient4634"
       gradientUnits="userSpaceOnUse"
       gradientTransform="matrix(2.1333333,0,0,1.4666666,-13.6,-5.3333331)"
       cx="12"
       cy="12.5"
       fx="12"
       fy="12.5"
       r="7.5" />
    <radialGradient
       inkscape:collect="always"
       xlink:href="#StandardGradient"
       id="radialGradient4641"
       gradientUnits="userSpaceOnUse"
       gradientTransform="matrix(2.1333333,0,0,1.4666666,-13.6,-5.3333331)"
       cx="12"
       cy="12.5"
       fx="12"
       fy="12.5"
       r="7.5" />
    <radialGradient
       inkscape:collect="always"
       xlink:href="#StandardGradient"
       id="radialGradient4645"
       gradientUnits="userSpaceOnUse"
       gradientTransform="matrix(2.1333333,0,0,1.4666666,-13.6,-5.3333331)"
       cx="12"
       cy="12.5"
       fx="12"
       fy="12.5"
       r="7.5" />
    <radialGradient
       inkscape:collect="always"
       xlink:href="#StandardGradient"
       id="radialGradient4647"
       gradientUnits="userSpaceOnUse"
       gradientTransform="matrix(2.1333333,0,0,1.4666666,-13.6,-5.3333331)"
       cx="12"
       cy="12.5"
       fx="12"
       fy="12.5"
       r="7.5" />
    <radialGradient
       inkscape:collect="always"
       xlink:href="#StandardGradient"
       id="radialGradient4652"
       gradientUnits="userSpaceOnUse"
       gradientTransform="matrix(2.1333333,0,0,1.4666666,-13.6,-4.3333331)"
       cx="12"
       cy="12.5"
       fx="12"
       fy="12.5"
       r="7.5" />
    <radialGradient
       inkscape:collect="always"
       xlink:href="#StandardGradient"
       id="radialGradient4656"
       gradientUnits="userSpaceOnUse"
       gradientTransform="matrix(2.1333333,0,0,1.4666666,-13.6,-5.3333331)"
       cx="12"
       cy="12.5"
       fx="12"
       fy="12.5"
       r="7.5" />
    <radialGradient
       inkscape:collect="always"
       xlink:href="#StandardGradient"
       id="radialGradient4663"
       gradientUnits="userSpaceOnUse"
       gradientTransform="matrix(2.1333333,0,0,1.4666666,-13.6,-5.3333331)"
       cx="12"
       cy="12.5"
       fx="12"
       fy="12.5"
       r="7.5" />
    <radialGradient
       inkscape:collect="always"
       xlink:href="#StandardGradient"
       id="radialGradient4667"
       gradientUnits="userSpaceOnUse"
       gradientTransform="matrix(2.1333333,0,0,1.4666666,-13.6,-5.3333331)"
       cx="12"
       cy="12.5"
       fx="12"
       fy="12.5"
       r="7.5" />
  </defs>
  <metadata
     id="metadata7">
    <rdf:RDF>
      <cc:Work
         rdf:about="">
        <dc:format>image/svg+xml</dc:format>
        <dc:type
           rdf:resource="http://purl.org/dc/dcmitype/StillImage" />
        <dc:title></dc:title>
      </cc:Work>
    </rdf:RDF>
  </metadata>
  <g
     style="display:inline"
     inkscape:label="Calque 1"
     id="layer1"
     inkscape:groupmode="layer"
     transform="translate(0,2)">
    <path
       style="display:inline;opacity:0.05;fill:#ffffff;fill-opacity:1;stroke:none;enable-background:new"
       d="m 12.000079,-1.187 c -2.6087869,0 -4.8437501,1.9201894 -4.8437501,4.4375 a 1.075532,1.075532 0 0 0 0,0.03125 c 0.00194,0.081957 -0.00297,0.2116728 0,0.3125 -0.1641259,0.2918307 -0.2388507,0.6357511 -0.25,0.90625 -0.019967,0.4844366 0.1062012,0.9409684 0.3125,1.40625 0.08287,0.1869025 0.2272172,0.3504605 0.34375,0.53125 0.039006,0.164348 0.06508,0.3118938 0.09375,0.4375 a 1.075532,1.075532 0 0 0 0.0625,0.09375 c 0.1465312,0.4207933 0.349375,0.7336151 0.59375,1.09375 0.1737107,0.2559971 0.3701916,0.4970473 0.5625,0.75 0.013009,0.17802 -0.024455,0.362796 -0.03125,0.53125 -0.5636881,0.328437 -1.4925959,0.717731 -2.5,1.09375 -0.5839867,0.217976 -1.1501072,0.434558 -1.65625,0.75 -0.4680929,0.291728 -0.9526322,0.809135 -1.03125,1.5625 l -0.0625,0 -0.15625,0.96875 a 1.075532,1.075532 0 0 0 1.0625,1.21875 l 2.4375,0 0,1.9375 a 1.075532,1.075532 0 0 0 1.0625,1.0625 l 1.9375,0 0,1.9375 a 1.075532,1.075532 0 0 0 1.0625001,1.0625 l 2,0 a 1.075532,1.075532 0 0 0 1.0625,-1.0625 l 0,-1.9375 1.9375,0 a 1.075532,1.075532 0 0 0 1.0625,-1.0625 l 0,-1.9375 2.4375,0 a 1.075532,1.075532 0 0 0 1.0625,-1.21875 l -0.15625,-0.96875 -0.0625,0 c -0.05189,-0.37262 -0.185402,-0.727368 -0.375,-0.9375 -0.221197,-0.245154 -0.44179,-0.417542 -0.6875,-0.5625 -0.49142,-0.289917 -1.047513,-0.494848 -1.625,-0.71875 -1.006593,-0.390275 -1.941858,-0.805866 -2.5,-1.15625 -0.0038,-0.132508 -0.03582,-0.270125 -0.03125,-0.40625 0.1868,-0.278263 0.380908,-0.5509943 0.5625,-0.84375 0.242122,-0.3903409 0.448742,-0.7398277 0.59375,-1.15625 a 1.075532,1.075532 0 0 0 0.03125,-0.09375 c 0.05801,-0.2347355 0.09702,-0.361262 0.125,-0.5 0.109412,-0.1502719 0.216975,-0.2533067 0.3125,-0.46875 0.196236,-0.4425885 0.325345,-0.8857076 0.3125,-1.34375 -0.0044,-0.1553583 -0.207528,-0.3006875 -0.25,-0.46875 8.89e-4,-0.012231 -8.3e-4,-0.019112 0,-0.03125 0.02078,-0.3039277 0.02392,-0.574931 0.03125,-0.78125 a 1.075532,1.075532 0 0 0 0,-0.03125 c 3e-6,-2.5173113 -2.234962,-4.4375 -4.84375,-4.4375 z m 0,1.0625 c 2.093502,0 3.781252,1.5046408 3.78125,3.375 -0.0084,0.2350583 -0.01126,0.5062209 -0.03125,0.78125 0.286034,0.2055131 0.311895,0.8045362 0.03125,1.4375 -0.101296,0.2284587 -0.237782,0.401954 -0.375,0.5625 -0.0444,0.198566 -0.06785,0.362505 -0.125,0.59375 -0.155492,0.446529 -0.754068,1.34511 -1.21875,2.03125 -0.02995,0.456329 -0.02759,0.911696 0.03125,1.375 1.45307,1.209497 5.244,1.839834 5.25,2.875 l 0.15625,0.96875 -2.5,0 -3,0 0,-3 -4,0 0,3 -3.0000001,0 -2.5,0 0.15625,-0.96875 c -0.00564,-1.209497 3.7788968,-1.706689 5.25,-2.875 0.1025301,-0.572305 0.08223,-1.059365 0.03125,-1.5625 C 9.426481,7.817041 8.8592845,7.028846 8.7188289,6.6255 8.6734882,6.426857 8.6313224,6.3016043 8.5938289,6.1255 8.4367702,5.9563666 8.3015357,5.726266 8.1875789,5.46925 7.8920511,4.8027234 7.9187629,4.1383153 8.2500789,3.96925 8.2268012,3.7026389 8.223903,3.4648464 8.2188289,3.2505 c 0,-1.8703596 1.687749,-3.375 3.7812501,-3.375 z m -1,12 2,0 0,3 3,0 0,2 -3,0 0,3 -2,0 0,-3 -3.0000001,0 0,-2 3.0000001,0 0,-3 z"
       id="path4665"
       inkscape:connector-curvature="0" />
    <path
       style="display:inline;fill:url(#radialGradient4626);fill-opacity:1;stroke:none;enable-background:new"
       d="m 12.000079,-0.1245 c -2.0935011,0 -3.7812501,1.5046404 -3.7812501,3.375 0.00507,0.2143464 0.00797,0.4521389 0.03125,0.71875 -0.331316,0.1690653 -0.3580278,0.8334734 -0.0625,1.5 0.1139568,0.257016 0.2491913,0.4871166 0.40625,0.65625 0.037494,0.1761043 0.079659,0.301357 0.125,0.5 0.1404556,0.403346 0.7076521,1.191541 1.21875,1.84375 0.05098,0.503135 0.07128,0.990195 -0.03125,1.5625 -1.4711032,1.168311 -5.255639,1.665503 -5.25,2.875 l -0.15625,0.96875 2.5,0 3.0000001,0 0,-3 4,0 0,3 3,0 2.5,0 -0.15625,-0.96875 c -0.006,-1.035166 -3.79693,-1.665503 -5.25,-2.875 -0.05884,-0.463304 -0.0612,-0.918671 -0.03125,-1.375 0.464682,-0.68614 1.063258,-1.584721 1.21875,-2.03125 0.05715,-0.231245 0.0806,-0.395184 0.125,-0.59375 0.137218,-0.160546 0.273704,-0.3340413 0.375,-0.5625 0.280645,-0.6329638 0.254784,-1.2319869 -0.03125,-1.4375 0.01999,-0.2750291 0.02289,-0.5461917 0.03125,-0.78125 2e-6,-1.8703592 -1.687748,-3.375 -3.78125,-3.375 z m -1,12 0,3 -3.0000001,0 0,2 3.0000001,0 0,3 2,0 0,-3 3,0 0,-2 -3,0 0,-3 -2,0 z"
       id="path3798"
       inkscape:connector-curvature="0" />
    <path
       style="display:inline;opacity:0.3;fill:#000000;fill-opacity:1;stroke:none;enable-background:new"
       d="m 12.000079,-0.1245 c -2.0935011,0 -3.7812501,1.5046404 -3.7812501,3.375 0.00507,0.2143464 0.00797,0.4521389 0.03125,0.71875 -0.331316,0.1690653 -0.3580278,0.8334734 -0.0625,1.5 0.1139568,0.257016 0.2491913,0.4871166 0.40625,0.65625 0.037494,0.1761043 0.079659,0.301357 0.125,0.5 0.1404556,0.403346 0.7076521,1.191541 1.21875,1.84375 0.05098,0.503135 0.07128,0.990195 -0.03125,1.5625 -1.4711032,1.168311 -5.255639,1.665503 -5.25,2.875 l -0.15625,0.96875 2.5,0 3.0000001,0 0,-3 4,0 0,3 3,0 2.5,0 -0.15625,-0.96875 c -0.006,-1.035166 -3.79693,-1.665503 -5.25,-2.875 -0.05884,-0.463304 -0.0612,-0.918671 -0.03125,-1.375 0.464682,-0.68614 1.063258,-1.584721 1.21875,-2.03125 0.05715,-0.231245 0.0806,-0.395184 0.125,-0.59375 0.137218,-0.160546 0.273704,-0.3340413 0.375,-0.5625 0.280645,-0.6329638 0.254784,-1.2319869 -0.03125,-1.4375 0.01999,-0.2750291 0.02289,-0.5461917 0.03125,-0.78125 2e-6,-1.8703592 -1.687748,-3.375 -3.78125,-3.375 z m 0,0.53125 c 1.824355,0 3.231051,1.2784254 3.25,2.8125 1.3e-4,0.010485 0,0.020741 0,0.03125 -0.008,0.2367774 -0.01357,0.5067312 -0.03125,0.75 a 0.53575186,0.53575186 0 0 0 0.1875,0.46875 c 0.0058,0.016686 0.0291,0.048396 0.03125,0.125 0.0043,0.1532079 -0.04378,0.4025852 -0.15625,0.65625 -0.06976,0.157328 -0.153887,0.2884843 -0.28125,0.4375 a 0.53575186,0.53575186 0 0 0 -0.125,0.21875 c -0.04384,0.1960628 -0.05346,0.356332 -0.09375,0.53125 -0.0051,0.02193 -0.02555,0.039424 -0.03125,0.0625 -0.05885,0.145506 -0.202686,0.4530718 -0.40625,0.78125 -0.219716,0.354218 -0.487407,0.7209043 -0.71875,1.0625 a 0.53575186,0.53575186 0 0 0 -0.09375,0.28125 c -0.0316,0.481404 -0.03289,0.9637 0.03125,1.46875 a 0.53575186,0.53575186 0 0 0 0.125,0.25 l -3.375,0 a 0.53575186,0.53575186 0 0 0 0.125,-0.21875 c 0.113998,-0.636317 0.08429,-1.195308 0.03125,-1.71875 a 0.53575186,0.53575186 0 0 0 -0.125,-0.28125 C 10.09356,7.8061333 9.8377959,7.4702306 9.6250789,7.15675 9.4303423,6.8697671 9.2992597,6.6157493 9.2500789,6.5005 9.245538,6.4898588 9.2215523,6.4458207 9.2188289,6.438 9.1770819,6.266462 9.1521782,6.1277817 9.1250789,6.0005 a 0.53575186,0.53575186 0 0 0 -0.125,-0.25 C 8.9035382,5.6465372 8.7859035,5.4722594 8.6875789,5.2505 8.5689728,4.9829986 8.5245688,4.7270088 8.5313289,4.563 8.538089,4.3989912 8.5822953,4.3960463 8.5000789,4.438 a 0.53575186,0.53575186 0 0 0 0.28125,-0.5 c -0.021212,-0.2429537 -0.026068,-0.4686073 -0.03125,-0.6875 0,-1.5480956 1.4131771,-2.84375 3.2500001,-2.84375 z m -2.5312501,10.46875 0,2.46875 -2.46875,0 -1.875,0 0.0625,-0.34375 a 0.53575186,0.53575186 0 0 0 0,-0.09375 c -1.065e-4,-0.02284 0.06234,-0.148892 0.375,-0.34375 0.3126603,-0.194858 0.7887194,-0.386582 1.34375,-0.59375 0.8367271,-0.312313 1.761227,-0.66584 2.5625,-1.09375 z m 5.0625001,0 c 0.794167,0.449323 1.690524,0.830285 2.53125,1.15625 0.558867,0.216683 1.052078,0.43449 1.375,0.625 0.161461,0.09525 0.293529,0.19434 0.34375,0.25 0.01255,0.01392 0.02595,-0.0053 0.03125,0 a 0.53575186,0.53575186 0 0 0 0,0.09375 l 0.0625,0.34375 -1.875,0 -2.46875,0 0,-2.46875 z m -3.53125,1 0,3 -3.0000001,0 0,2 3.0000001,0 0,3 2,0 0,-3 3,0 0,-2 -3,0 0,-3 -2,0 z m 0.53125,0.53125 0.9375,0 0,2.46875 a 0.53575186,0.53575186 0 0 0 0.53125,0.53125 l 2.46875,0 0,0.9375 -2.46875,0 a 0.53575186,0.53575186 0 0 0 -0.53125,0.53125 l 0,2.46875 -0.9375,0 0,-2.46875 a 0.53575186,0.53575186 0 0 0 -0.53125,-0.53125 l -2.4687501,0 0,-0.9375 2.4687501,0 a 0.53575186,0.53575186 0 0 0 0.53125,-0.53125 l 0,-2.46875 z"
       id="path4637"
       inkscape:connector-curvature="0" />
    <path
       style="display:inline;opacity:0.3;fill:#000000;fill-opacity:1;stroke:none;enable-background:new"
       d="m 12.000079,-0.1245 c -2.0935011,0 -3.7812501,1.5046404 -3.7812501,3.375 0.00485,0.2050446 0.010634,0.4348418 0.03125,0.6875 0.1771221,-1.7213008 1.7755451,-3.0625 3.7500001,-3.0625 1.974456,0 3.572879,1.3411995 3.75,3.0625 0.01427,-0.2408555 0.02389,-0.4806036 0.03125,-0.6875 2e-6,-1.8703592 -1.687748,-3.375 -3.78125,-3.375 z M 8.2500789,3.96925 c -0.2797321,0.1427429 -0.3214079,0.6353991 -0.15625,1.1875 0.042674,-0.075545 0.086089,-0.1516979 0.15625,-0.1875 -0.023278,-0.2666111 -0.026176,-0.5044036 -0.03125,-0.71875 0,-0.095818 0.022564,-0.1875052 0.03125,-0.28125 z M 15.750079,4.063 c 0.0039,0.06329 0.03125,0.1233022 0.03125,0.1875 -0.0084,0.2350583 -0.01126,0.5062209 -0.03125,0.78125 0.05315,0.038187 0.09011,0.093198 0.125,0.15625 0.156788,-0.507951 0.101175,-0.9399601 -0.125,-1.125 z m -5.8125001,5.5 c -0.01135,0.153221 -0.0017,0.303791 -0.03125,0.46875 -1.4711032,1.168311 -5.255639,1.665503 -5.25,2.875 l -0.15625,0.96875 0.15625,0 c 0.059695,-1.186663 3.791769,-1.685662 5.25,-2.84375 0.096133,-0.536598 0.075123,-0.998517 0.03125,-1.46875 z m 4.1250001,0.125 c -0.02783,0.445941 -0.02626,0.890954 0.03125,1.34375 1.438343,1.197239 5.168739,1.827098 5.25,2.84375 l 0.15625,0 -0.15625,-0.96875 c -0.006,-1.035166 -3.79693,-1.665503 -5.25,-2.875 -0.01471,-0.115826 -0.02322,-0.228777 -0.03125,-0.34375 z m -3.0625,2.1875 0,1 2,0 0,-1 -2,0 z m -3.0000001,3 0,1 3.0000001,0 0,-1 -1,0 -2.0000001,0 z m 5.0000001,0 0,1 3,0 0,-1 -2,0 -1,0 z"
       id="path4628"
       inkscape:connector-curvature="0" />
    <path
       style="display:inline;opacity:0.2;fill:#ffffff;fill-opacity:1;stroke:none;enable-background:new"
       d="m 8.0938289,5.15675 c -0.1588423,0.2811945 -0.1391954,0.7871202 0.09375,1.3125 0.1139568,0.257016 0.2491913,0.4871166 0.40625,0.65625 0.037494,0.1761043 0.079659,0.301357 0.125,0.5 0.1404556,0.403346 0.7076521,1.191541 1.21875,1.84375 0.018741,-0.343885 0.033362,-0.6707425 0,-1 C 9.426481,7.817041 8.8592845,7.028846 8.7188289,6.6255 8.6734879,6.426857 8.6313229,6.3016043 8.5938289,6.1255 8.4367702,5.9563666 8.3015357,5.726266 8.1875789,5.46925 8.141567,5.3654758 8.1242848,5.25856 8.0938289,5.15675 Z M 15.875079,5.188 c -0.02846,0.092204 -0.05165,0.1863054 -0.09375,0.28125 -0.101296,0.2284587 -0.237782,0.401954 -0.375,0.5625 -0.0444,0.198566 -0.06785,0.362505 -0.125,0.59375 -0.155492,0.446529 -0.754068,1.34511 -1.21875,2.03125 -0.02179,0.331961 -0.02171,0.665632 0,1 0.464682,-0.68614 1.063258,-1.584721 1.21875,-2.03125 0.05715,-0.231245 0.0806,-0.395184 0.125,-0.59375 0.137218,-0.160546 0.273704,-0.3340413 0.375,-0.5625 0.228498,-0.5153523 0.246613,-1.0049667 0.09375,-1.28125 z m -5.875,5.6875 0,1 1,0 2,0 1,0 0,-1 -4,0 z m -5.3437501,3 c -5.269e-4,0.01047 -4.93e-5,0.02067 0,0.03125 l -0.15625,0.96875 2.5,0 1,0 2.0000001,0 0,-1 -3.0000001,0 -2.34375,0 z m 9.3437501,0 0,1 2,0 1,0 2.5,0 -0.15625,-0.96875 c -6.1e-5,-0.01049 8.32e-4,-0.02084 0,-0.03125 l -2.34375,0 -3,0 z m -6.0000001,3 0,1 3.0000001,0 0,-1 -3.0000001,0 z m 5.0000001,0 0,1 3,0 0,-1 -3,0 z m -2,3 0,1 2,0 0,-1 -2,0 z"
       id="path4650"
       inkscape:connector-curvature="0" />
  </g>
</svg>
