<?xml version="1.0" encoding="UTF-8" standalone="no"?>
<!-- Created with Inkscape (http://www.inkscape.org/) -->

<svg
   xmlns:dc="http://purl.org/dc/elements/1.1/"
   xmlns:cc="http://creativecommons.org/ns#"
   xmlns:rdf="http://www.w3.org/1999/02/22-rdf-syntax-ns#"
   xmlns:svg="http://www.w3.org/2000/svg"
   xmlns="http://www.w3.org/2000/svg"
   xmlns:xlink="http://www.w3.org/1999/xlink"
   xmlns:sodipodi="http://sodipodi.sourceforge.net/DTD/sodipodi-0.dtd"
   xmlns:inkscape="http://www.inkscape.org/namespaces/inkscape"
   width="24"
   height="24"
   id="svg2"
   sodipodi:version="0.32"
   inkscape:version="0.91 r13725"
   version="1.0"
   sodipodi:docname="document-new.svg"
   inkscape:output_extension="org.inkscape.output.svg.inkscape"
   inkscape:export-filename="/home/matt/.icons/Sirocco/scalable/mimetypes/text-plain.png"
   inkscape:export-xdpi="90"
   inkscape:export-ydpi="90"
   sodipodi:modified="true"
   style="display:inline">
  <sodipodi:namedview
     id="base"
     pagecolor="#7e7e7e"
     bordercolor="#cc0000"
     borderopacity="1"
     inkscape:pageopacity="1"
     inkscape:pageshadow="2"
     inkscape:zoom="11.557223"
     inkscape:cx="4.2023126"
     inkscape:cy="6.6475082"
     inkscape:document-units="px"
     inkscape:current-layer="layer1"
     width="128px"
     height="128px"
     inkscape:showpageshadow="false"
     inkscape:window-width="1366"
     inkscape:window-height="718"
     inkscape:window-x="0"
     inkscape:window-y="25"
     showguides="true"
     inkscape:guide-bbox="true"
     showgrid="true"
     inkscape:window-maximized="1"
     borderlayer="true">
    <sodipodi:guide
       id="guide2226"
       position="32.637397,117.99844"
       orientation="horizontal" />
    <inkscape:grid
       enabled="true"
       visible="true"
       id="grid3231"
       type="xygrid"
       empspacing="8"
       snapvisiblegridlinesonly="true" />
    <sodipodi:guide
       orientation="1,0"
       position="13,10"
       id="guide3801" />
    <sodipodi:guide
       orientation="0,1"
       position="18,9"
       id="guide3803" />
  </sodipodi:namedview>
  <defs
     id="defs4">
    <linearGradient
       inkscape:collect="always"
       xlink:href="#StandardGradient"
       id="linearGradient2549"
       gradientUnits="userSpaceOnUse"
       gradientTransform="matrix(0.9247229,0,0,1.0872097,20.939944,2.9976422)"
       x1="11.998966"
       y1="0.92195445"
       x2="11.998966"
       y2="17.478098" />
    <inkscape:perspective
       sodipodi:type="inkscape:persp3d"
       inkscape:vp_x="0 : 11 : 1"
       inkscape:vp_y="0 : 1000 : 0"
       inkscape:vp_z="22 : 11 : 1"
       inkscape:persp3d-origin="11 : 7.3333333 : 1"
       id="perspective3967" />
    <linearGradient
       id="StandardGradient"
       gradientTransform="scale(0.9219544,1.0846523)"
       x1="11.998966"
       y1="0.92195445"
       x2="11.998966"
       y2="19.387045"
       gradientUnits="userSpaceOnUse">
      <stop
         style="stop-color:#000000;stop-opacity:0.23529412;"
         offset="0"
         id="stop3283" />
      <stop
         style="stop-color:#000000;stop-opacity:0.55;"
         offset="1"
         id="stop2651" />
    </linearGradient>
    <linearGradient
       inkscape:collect="always"
       xlink:href="#StandardGradient"
       id="linearGradient3978"
       gradientUnits="userSpaceOnUse"
       gradientTransform="matrix(0.9247229,0,0,1.0872097,-2.060056,1.9976422)"
       x1="11.998966"
       y1="0.92195445"
       x2="11.998966"
       y2="17.478098" />
    <linearGradient
       inkscape:collect="always"
       xlink:href="#StandardGradient"
       id="linearGradient3983"
       gradientUnits="userSpaceOnUse"
       gradientTransform="matrix(0.9219544,0,0,1.0846523,2,-2)"
       x1="11.998966"
       y1="0.92195445"
       x2="11.998966"
       y2="19.387045" />
    <linearGradient
       inkscape:collect="always"
       xlink:href="#StandardGradient"
       id="linearGradient3986"
       gradientUnits="userSpaceOnUse"
       gradientTransform="matrix(0.9219544,0,0,1.0846523,0.0625,-2)"
       x1="11.998966"
       y1="0.92195445"
       x2="11.998966"
       y2="19.387045" />
    <linearGradient
       inkscape:collect="always"
       xlink:href="#StandardGradient"
       id="linearGradient3989"
       gradientUnits="userSpaceOnUse"
       gradientTransform="matrix(0.9219544,0,0,1.0846523,-1,-2)"
       x1="11.998966"
       y1="0.92195445"
       x2="11.998966"
       y2="19.387045" />
    <linearGradient
       inkscape:collect="always"
       xlink:href="#StandardGradient"
       id="linearGradient3992"
       gradientUnits="userSpaceOnUse"
       gradientTransform="matrix(0.9219544,0,0,1.0846523,-1,-2)"
       x1="11.998966"
       y1="0.92195445"
       x2="11.998966"
       y2="19.387045" />
    <linearGradient
       inkscape:collect="always"
       xlink:href="#StandardGradient"
       id="linearGradient3995"
       gradientUnits="userSpaceOnUse"
       gradientTransform="matrix(0.9219544,0,0,1.0846523,0,-2)"
       x1="11.998966"
       y1="4.6096597"
       x2="11.998966"
       y2="19.387045" />
    <linearGradient
       inkscape:collect="always"
       xlink:href="#StandardGradient"
       id="linearGradient2400"
       gradientUnits="userSpaceOnUse"
       gradientTransform="matrix(0.9219544,0,0,1.0846523,20,-2)"
       x1="11.998966"
       y1="4.6096597"
       x2="11.998966"
       y2="19.387045" />
    <linearGradient
       inkscape:collect="always"
       xlink:href="#StandardGradient"
       id="linearGradient2407"
       gradientUnits="userSpaceOnUse"
       gradientTransform="matrix(0.9219544,0,0,1.0846523,20,-2)"
       x1="11.998966"
       y1="4.6096597"
       x2="11.998966"
       y2="19.387045" />
    <linearGradient
       inkscape:collect="always"
       xlink:href="#StandardGradient"
       id="linearGradient2412"
       gradientUnits="userSpaceOnUse"
       gradientTransform="matrix(0.9219544,0,0,1.0846523,20,-2)"
       x1="11.998966"
       y1="4.6096597"
       x2="11.998966"
       y2="19.387045" />
    <linearGradient
       inkscape:collect="always"
       xlink:href="#StandardGradient"
       id="linearGradient2422"
       gradientUnits="userSpaceOnUse"
       gradientTransform="matrix(0.9219544,0,0,1.0846523,1,0)"
       x1="11.998966"
       y1="4.6096597"
       x2="11.998966"
       y2="19.387045" />
    <linearGradient
       inkscape:collect="always"
       xlink:href="#StandardGradient"
       id="linearGradient2424"
       gradientUnits="userSpaceOnUse"
       gradientTransform="matrix(0.9219544,0,0,1.0846523,0,-2)"
       x1="11.998966"
       y1="4.6096597"
       x2="11.998966"
       y2="19.387045" />
    <inkscape:perspective
       id="perspective2850"
       inkscape:persp3d-origin="0.5 : 0.33333333 : 1"
       inkscape:vp_z="1 : 0.5 : 1"
       inkscape:vp_y="0 : 1000 : 0"
       inkscape:vp_x="0 : 0.5 : 1"
       sodipodi:type="inkscape:persp3d" />
    <linearGradient
       inkscape:collect="always"
       xlink:href="#StandardGradient"
       id="linearGradient3640"
       gradientUnits="userSpaceOnUse"
       gradientTransform="matrix(0.9219544,0,0,1.0846523,-32,-3)"
       x1="11.998966"
       y1="4.6096597"
       x2="11.998966"
       y2="19.387045" />
    <linearGradient
       inkscape:collect="always"
       xlink:href="#StandardGradient"
       id="linearGradient3657"
       gradientUnits="userSpaceOnUse"
       gradientTransform="matrix(0.9219544,0,0,1.0846523,-32,27)"
       x1="11.998966"
       y1="4.6096597"
       x2="11.998966"
       y2="19.387045" />
    <clipPath
       clipPathUnits="userSpaceOnUse"
       id="clipPath3660">
      <path
         style="display:inline;fill:#ff00ff;fill-opacity:1;stroke:none"
         d="m -30,0 0,22 22,0 0,-22 -22,0 z m 6.5,3 9,0 c 0.831,0 1.5,0.669 1.5,1.5 l 0,11 c 0,0.831 -0.669,1.5 -1.5,1.5 l -3.5,0 0,-2 2.5,0 c 0.277,0 0.5,-0.223 0.5,-0.5 l 0,-9 C -15,5.223 -15.223,5 -15.5,5 l -7,0 C -22.777,5 -23,5.223 -23,5.5 l 0,4.5 -2,0 0,-5.5 C -25,3.669 -24.331,3 -23.5,3 Z m -1.5,8 3,0 0,3 3,0 0,3 -3,0 0,3 -3,0 0,-3 -3,0 0,-3 3,0 0,-3 z"
         id="path3662"
         inkscape:connector-curvature="0" />
    </clipPath>
    <linearGradient
       inkscape:collect="always"
       xlink:href="#StandardGradient"
       id="linearGradient4694"
       gradientUnits="userSpaceOnUse"
       gradientTransform="matrix(0.9219544,0,0,1.0846523,-2,-3)"
       x1="11.998966"
       y1="4.6096597"
       x2="11.998966"
       y2="19.387045" />
    <linearGradient
       inkscape:collect="always"
       xlink:href="#StandardGradient"
       id="linearGradient4698"
       gradientUnits="userSpaceOnUse"
       gradientTransform="matrix(0.9219544,0,0,1.0846523,-2,-3)"
       x1="11.998966"
       y1="4.6096597"
       x2="11.998966"
       y2="19.387045" />
    <radialGradient
       inkscape:collect="always"
       xlink:href="#StandardGradient"
       id="radialGradient3792"
       gradientUnits="userSpaceOnUse"
       gradientTransform="matrix(1,0,0,1.1333333,0,-1.5333333)"
       cx="9.5"
       cy="11.5"
       fx="9.5"
       fy="11.5"
       r="7.5" />
    <radialGradient
       inkscape:collect="always"
       xlink:href="#StandardGradient"
       id="radialGradient3796"
       gradientUnits="userSpaceOnUse"
       gradientTransform="matrix(1,0,0,1.1333333,0,-1.5333333)"
       cx="9.5"
       cy="11.5"
       fx="9.5"
       fy="11.5"
       r="7.5" />
    <radialGradient
       inkscape:collect="always"
       xlink:href="#StandardGradient"
       id="radialGradient3798"
       gradientUnits="userSpaceOnUse"
       gradientTransform="matrix(1,0,0,1.1333333,0,-1.5333333)"
       cx="9.5"
       cy="11.5"
       fx="9.5"
       fy="11.5"
       r="7.5" />
    <radialGradient
       inkscape:collect="always"
       xlink:href="#StandardGradient"
       id="radialGradient3817"
       gradientUnits="userSpaceOnUse"
       gradientTransform="matrix(2.5333333,0,0,1.3333334,-19.933332,-4.0980406)"
       cx="13"
       cy="12.82353"
       fx="13"
       fy="12.82353"
       r="7.5" />
    <radialGradient
       inkscape:collect="always"
       xlink:href="#StandardGradient"
       id="radialGradient3821"
       gradientUnits="userSpaceOnUse"
       gradientTransform="matrix(2.5333333,0,0,1.3333334,-19.933332,-4.0980406)"
       cx="13"
       cy="12.82353"
       fx="13"
       fy="12.82353"
       r="7.5" />
    <radialGradient
       inkscape:collect="always"
       xlink:href="#StandardGradient"
       id="radialGradient3823"
       gradientUnits="userSpaceOnUse"
       gradientTransform="matrix(2.5333333,0,0,1.3333334,-19.933332,-4.0980406)"
       cx="13"
       cy="12.82353"
       fx="13"
       fy="12.82353"
       r="7.5" />
    <radialGradient
       inkscape:collect="always"
       xlink:href="#StandardGradient"
       id="radialGradient3830"
       gradientUnits="userSpaceOnUse"
       gradientTransform="matrix(2.5333333,0,0,1.3333334,-19.933332,-3.0980406)"
       cx="13"
       cy="12.82353"
       fx="13"
       fy="12.82353"
       r="7.5" />
    <radialGradient
       inkscape:collect="always"
       xlink:href="#StandardGradient"
       id="radialGradient3832"
       gradientUnits="userSpaceOnUse"
       gradientTransform="matrix(2.5333333,0,0,1.3333334,-19.933332,-4.0980406)"
       cx="13"
       cy="12.82353"
       fx="13"
       fy="12.82353"
       r="7.5" />
    <radialGradient
       inkscape:collect="always"
       xlink:href="#StandardGradient"
       id="radialGradient3837"
       gradientUnits="userSpaceOnUse"
       gradientTransform="matrix(2.5333333,0,0,1.3333334,-19.933332,-3.0980406)"
       cx="13"
       cy="12.82353"
       fx="13"
       fy="12.82353"
       r="7.5" />
    <radialGradient
       inkscape:collect="always"
       xlink:href="#StandardGradient"
       id="radialGradient3841"
       gradientUnits="userSpaceOnUse"
       gradientTransform="matrix(2.5333333,0,0,1.3333334,-19.933332,-4.0980406)"
       cx="13"
       cy="12.82353"
       fx="13"
       fy="12.82353"
       r="7.5" />
    <radialGradient
       inkscape:collect="always"
       xlink:href="#StandardGradient"
       id="radialGradient3848"
       gradientUnits="userSpaceOnUse"
       gradientTransform="matrix(2.5333333,0,0,1.3333334,-19.933332,-4.0980406)"
       cx="13"
       cy="12.82353"
       fx="13"
       fy="12.82353"
       r="7.5" />
    <radialGradient
       inkscape:collect="always"
       xlink:href="#StandardGradient"
       id="radialGradient3852"
       gradientUnits="userSpaceOnUse"
       gradientTransform="matrix(2.5333333,0,0,1.3333334,-19.933332,-4.0980406)"
       cx="13"
       cy="12.82353"
       fx="13"
       fy="12.82353"
       r="7.5" />
    <radialGradient
       inkscape:collect="always"
       xlink:href="#StandardGradient"
       id="radialGradient3840"
       cx="13.000001"
       cy="13.255554"
       fx="13.000001"
       fy="13.255554"
       r="7"
       gradientTransform="matrix(2.1428571,0,0,1.1428571,-14.857143,-3.1492053)"
       gradientUnits="userSpaceOnUse" />
    <radialGradient
       inkscape:collect="always"
       xlink:href="#StandardGradient"
       id="radialGradient3846"
       gradientUnits="userSpaceOnUse"
       gradientTransform="matrix(2.1428571,0,0,1.1428571,-14.857143,-2.1492053)"
       cx="13.000001"
       cy="13.255554"
       fx="13.000001"
       fy="13.255554"
       r="7" />
    <radialGradient
       inkscape:collect="always"
       xlink:href="#StandardGradient"
       id="radialGradient3850"
       gradientUnits="userSpaceOnUse"
       gradientTransform="matrix(2.1428571,0,0,1.1428571,-14.857143,-2.1492053)"
       cx="13.000001"
       cy="13.255554"
       fx="13.000001"
       fy="13.255554"
       r="7" />
    <radialGradient
       inkscape:collect="always"
       xlink:href="#StandardGradient"
       id="radialGradient3853"
       gradientUnits="userSpaceOnUse"
       gradientTransform="matrix(2.1428571,0,0,1.1428571,-14.857143,-2.1492053)"
       cx="13.000001"
       cy="13.255554"
       fx="13.000001"
       fy="13.255554"
       r="7" />
    <radialGradient
       inkscape:collect="always"
       xlink:href="#StandardGradient"
       id="radialGradient3860"
       gradientUnits="userSpaceOnUse"
       gradientTransform="matrix(2.1428571,0,0,1.1428571,-14.857143,-1.1492053)"
       cx="13.000001"
       cy="13.255554"
       fx="13.000001"
       fy="13.255554"
       r="7" />
    <radialGradient
       inkscape:collect="always"
       xlink:href="#StandardGradient"
       id="radialGradient3862"
       gradientUnits="userSpaceOnUse"
       gradientTransform="matrix(2.1428571,0,0,1.1428571,-14.857143,-2.1492053)"
       cx="13.000001"
       cy="13.255554"
       fx="13.000001"
       fy="13.255554"
       r="7" />
    <radialGradient
       inkscape:collect="always"
       xlink:href="#StandardGradient"
       id="radialGradient3867"
       gradientUnits="userSpaceOnUse"
       gradientTransform="matrix(2.1428571,0,0,1.1428571,-14.857143,-1.1492053)"
       cx="13.000001"
       cy="13.255554"
       fx="13.000001"
       fy="13.255554"
       r="7" />
    <radialGradient
       inkscape:collect="always"
       xlink:href="#StandardGradient"
       id="radialGradient3871"
       gradientUnits="userSpaceOnUse"
       gradientTransform="matrix(2.1428571,0,0,1.1428571,-14.857143,-2.1492053)"
       cx="13.000001"
       cy="13.255554"
       fx="13.000001"
       fy="13.255554"
       r="7" />
    <radialGradient
       inkscape:collect="always"
       xlink:href="#StandardGradient"
       id="radialGradient3878"
       gradientUnits="userSpaceOnUse"
       gradientTransform="matrix(2.1428571,0,0,1.1428571,-14.857143,-2.1492053)"
       cx="13.000001"
       cy="13.255554"
       fx="13.000001"
       fy="13.255554"
       r="7" />
    <radialGradient
       inkscape:collect="always"
       xlink:href="#StandardGradient"
       id="radialGradient3882"
       gradientUnits="userSpaceOnUse"
       gradientTransform="matrix(2.1428571,0,0,1.1428571,-14.857143,-2.1492053)"
       cx="13.000001"
       cy="13.255554"
       fx="13.000001"
       fy="13.255554"
       r="7" />
    <radialGradient
       inkscape:collect="always"
       xlink:href="#StandardGradient"
       id="radialGradient3825"
       gradientUnits="userSpaceOnUse"
       gradientTransform="matrix(2.1428571,0,0,1.1428571,-14.857143,-1.1492053)"
       cx="13.000001"
       cy="13.255554"
       fx="13.000001"
       fy="13.255554"
       r="7" />
    <radialGradient
       inkscape:collect="always"
       xlink:href="#StandardGradient"
       id="radialGradient3827"
       gradientUnits="userSpaceOnUse"
       gradientTransform="matrix(2.1428571,0,0,1.1428571,-14.857143,-2.1492053)"
       cx="13.000001"
       cy="13.255554"
       fx="13.000001"
       fy="13.255554"
       r="7" />
    <radialGradient
       inkscape:collect="always"
       xlink:href="#StandardGradient"
       id="radialGradient3833"
       gradientUnits="userSpaceOnUse"
       gradientTransform="matrix(2.1428571,0,0,1.1428571,-14.857143,-1.1492053)"
       cx="13.000001"
       cy="13.255554"
       fx="13.000001"
       fy="13.255554"
       r="7" />
    <radialGradient
       inkscape:collect="always"
       xlink:href="#StandardGradient"
       id="radialGradient3838"
       gradientUnits="userSpaceOnUse"
       gradientTransform="matrix(2.1428571,0,0,1.1428571,-14.857143,-2.1492053)"
       cx="13.000001"
       cy="13.255554"
       fx="13.000001"
       fy="13.255554"
       r="7" />
    <radialGradient
       inkscape:collect="always"
       xlink:href="#StandardGradient"
       id="radialGradient3845"
       gradientUnits="userSpaceOnUse"
       gradientTransform="matrix(2.1428571,0,0,1.1428571,-14.857143,-2.1492053)"
       cx="13.000001"
       cy="13.255554"
       fx="13.000001"
       fy="13.255554"
       r="7" />
    <radialGradient
       inkscape:collect="always"
       xlink:href="#StandardGradient"
       id="radialGradient3849"
       gradientUnits="userSpaceOnUse"
       gradientTransform="matrix(2.1428571,0,0,1.1428571,-14.857143,-2.1492053)"
       cx="13.000001"
       cy="13.255554"
       fx="13.000001"
       fy="13.255554"
       r="7" />
  </defs>
  <metadata
     id="metadata7">
    <rdf:RDF>
      <cc:Work
         rdf:about="">
        <dc:format>image/svg+xml</dc:format>
        <dc:type
           rdf:resource="http://purl.org/dc/dcmitype/StillImage" />
        <dc:title></dc:title>
      </cc:Work>
    </rdf:RDF>
  </metadata>
  <g
     style="display:inline"
     inkscape:label="Calque 1"
     id="layer1"
     inkscape:groupmode="layer"
     transform="translate(0,2)">
    <path
       style="color:#000000;display:inline;overflow:visible;visibility:visible;opacity:0.05;fill:#ffffff;fill-opacity:1;fill-rule:nonzero;stroke:none;stroke-width:0.80000001;marker:none;enable-background:accumulate"
       d="M 6.5,1 C 5.1390081,1 4,2.1390081 4,3.5 l 0,13 C 4,17.860992 5.1390081,19 6.5,19 l 11,0 c 1.360992,0 2.5,-1.139008 2.5,-2.5 l 0,-13 C 20,2.1390081 18.860992,1 17.5,1 l -11,0 z m 0,1 11,0 C 18.331,2 19,2.669 19,3.5 l 0,13 c 0,0.831 -0.669,1.5 -1.5,1.5 l -11,0 C 5.669,18 5,17.331 5,16.5 L 5,3.5 C 5,2.669 5.669,2 6.5,2 Z m 1,2 C 7.223,4 7,4.223 7,4.5 l 0,11 C 7,15.777 7.223,16 7.5,16 l 9,0 c 0.277,0 0.5,-0.223 0.5,-0.5 l 0,-11 C 17,4.223 16.777,4 16.5,4 l -9,0 z M 8,5 10.90625,5 A 0.98759483,0.98759483 0 0 0 10,6 L 10,8 8,8 8,5 Z M 13.1875,5 16,5 16,8 14,8 14,6 A 0.98759483,0.98759483 0 0 0 13.1875,5 Z M 11,6 l 2,0 0,3 3,0 0,2 -3,0 0,3 -2,0 0,-3 -3,0 0,-2 3,0 0,-3 z m -3,6 2,0 0,2 a 0.98759483,0.98759483 0 0 0 0.8125,1 L 8,15 8,12 Z m 6,0 2,0 0,3 -2.90625,0 A 0.98759483,0.98759483 0 0 0 14,14 l 0,-2 z"
       id="path3847"
       inkscape:connector-curvature="0" />
    <path
       style="color:#000000;display:inline;overflow:visible;visibility:visible;fill:url(#radialGradient3840);fill-opacity:1;fill-rule:nonzero;stroke:none;stroke-width:0.80000001;marker:none;enable-background:accumulate"
       d="M 6.5,2 C 5.669,2 5,2.669 5,3.5 l 0,13 C 5,17.331 5.669,18 6.5,18 l 11,0 c 0.831,0 1.5,-0.669 1.5,-1.5 l 0,-13 C 19,2.669 18.331,2 17.5,2 Z m 1,2 9,0 C 16.777,4 17,4.223 17,4.5 l 0,11 c 0,0.277 -0.223,0.5 -0.5,0.5 l -9,0 C 7.223,16 7,15.777 7,15.5 L 7,4.5 C 7,4.223 7.223,4 7.5,4 Z m 3.5,2 0,3 -3,0 0,2 3,0 0,3 2,0 0,-3 3,0 0,-2 -3,0 0,-3 z"
       id="rect3048"
       inkscape:connector-curvature="0"
       sodipodi:nodetypes="ssssssssssssssssssccccccccccccc" />
    <path
       style="color:#000000;display:inline;overflow:visible;visibility:visible;opacity:0.3;fill:#000000;fill-opacity:1;fill-rule:nonzero;stroke:none;stroke-width:0.80000001;marker:none;enable-background:accumulate"
       d="M 6.5,2 C 5.669,2 5,2.669 5,3.5 l 0,13 C 5,17.331 5.669,18 6.5,18 l 11,0 c 0.831,0 1.5,-0.669 1.5,-1.5 l 0,-13 C 19,2.669 18.331,2 17.5,2 l -11,0 z m 0,0.46875 11,0 c 0.584721,0 1.03125,0.4465286 1.03125,1.03125 l 0,13 c 0,0.584721 -0.446529,1.03125 -1.03125,1.03125 l -11,0 c -0.5847214,0 -1.03125,-0.446529 -1.03125,-1.03125 l 0,-13 C 5.46875,2.9152786 5.9152786,2.46875 6.5,2.46875 Z m 1,1.0625 C 6.9767214,3.53125 6.53125,3.9767214 6.53125,4.5 l 0,11 c 0,0.523279 0.4454714,0.96875 0.96875,0.96875 l 9,0 c 0.523279,0 0.96875,-0.445471 0.96875,-0.96875 l 0,-11 c 0,-0.5232786 -0.445471,-0.96875 -0.96875,-0.96875 l -9,0 z M 7.5,4 l 9,0 C 16.777,4 17,4.223 17,4.5 l 0,11 c 0,0.277 -0.223,0.5 -0.5,0.5 l -9,0 C 7.223,16 7,15.777 7,15.5 L 7,4.5 C 7,4.223 7.223,4 7.5,4 Z m 3.5,2 0,3 -3,0 0,2 3,0 0,3 2,0 0,-3 3,0 0,-2 -3,0 0,-3 -2,0 z m 0.46875,0.46875 1.0625,0 0,2.53125 A 0.45891919,0.45891919 0 0 0 13,9.46875 l 2.53125,0 0,1.0625 -2.53125,0 A 0.45891919,0.45891919 0 0 0 12.53125,11 l 0,2.53125 -1.0625,0 0,-2.53125 A 0.45891919,0.45891919 0 0 0 11,10.53125 l -2.53125,0 0,-1.0625 2.53125,0 A 0.45891919,0.45891919 0 0 0 11.46875,9 l 0,-2.53125 z"
       id="path3040"
       inkscape:connector-curvature="0" />
    <path
       style="color:#000000;display:inline;overflow:visible;visibility:visible;opacity:0.3;fill:#000000;fill-opacity:1;fill-rule:nonzero;stroke:none;stroke-width:0.80000001;marker:none;enable-background:accumulate"
       d="M 6.5,2 C 5.669,2 5,2.669 5,3.5 l 0,1 C 5,3.669 5.669,3 6.5,3 l 11,0 C 18.331,3 19,3.669 19,4.5 l 0,-1 C 19,2.669 18.331,2 17.5,2 l -11,0 z m 4.5,4 0,1 2,0 0,-1 -2,0 z m -3,3 0,1 3,0 0,-1 -3,0 z m 5,0 0,1 3,0 0,-1 -3,0 z m -6,6.5 0,1 C 7,16.777 7.223,17 7.5,17 l 9,0 c 0.277,0 0.5,-0.223 0.5,-0.5 l 0,-1 c 0,0.277 -0.223,0.5 -0.5,0.5 l -9,0 C 7.223,16 7,15.777 7,15.5 Z"
       id="path3821"
       inkscape:connector-curvature="0" />
    <path
       style="color:#000000;display:inline;overflow:visible;visibility:visible;opacity:0.2;fill:#ffffff;fill-opacity:1;fill-rule:nonzero;stroke:none;stroke-width:0.80000001;marker:none;enable-background:accumulate"
       d="M 7.5,4 C 7.223,4 7,4.223 7,4.5 l 0,1 C 7,5.223 7.223,5 7.5,5 l 9,0 C 16.777,5 17,5.223 17,5.5 l 0,-1 C 17,4.223 16.777,4 16.5,4 l -9,0 z m 0.5,7 0,1 3,0 0,-1 -3,0 z m 5,0 0,1 3,0 0,-1 -3,0 z m -2,3 0,1 2,0 0,-1 -2,0 z m -6,2.5 0,1 C 5,18.331 5.669,19 6.5,19 l 11,0 c 0.831,0 1.5,-0.669 1.5,-1.5 l 0,-1 c 0,0.831 -0.669,1.5 -1.5,1.5 l -11,0 C 5.669,18 5,17.331 5,16.5 Z"
       id="path3830"
       inkscape:connector-curvature="0" />
  </g>
</svg>
