<?xml version="1.0" encoding="UTF-8" standalone="no"?>
<!-- Created with Inkscape (http://www.inkscape.org/) -->

<svg
   xmlns:dc="http://purl.org/dc/elements/1.1/"
   xmlns:cc="http://creativecommons.org/ns#"
   xmlns:rdf="http://www.w3.org/1999/02/22-rdf-syntax-ns#"
   xmlns:svg="http://www.w3.org/2000/svg"
   xmlns="http://www.w3.org/2000/svg"
   xmlns:xlink="http://www.w3.org/1999/xlink"
   xmlns:sodipodi="http://sodipodi.sourceforge.net/DTD/sodipodi-0.dtd"
   xmlns:inkscape="http://www.inkscape.org/namespaces/inkscape"
   width="24"
   height="24"
   id="svg2"
   sodipodi:version="0.32"
   inkscape:version="0.91 r13725"
   version="1.0"
   sodipodi:docname="document-open.svg"
   inkscape:output_extension="org.inkscape.output.svg.inkscape"
   inkscape:export-filename="/home/matt/.icons/Sirocco/scalable/mimetypes/text-plain.png"
   inkscape:export-xdpi="90"
   inkscape:export-ydpi="90"
   sodipodi:modified="true"
   style="display:inline">
  <sodipodi:namedview
     id="base"
     pagecolor="#838383"
     bordercolor="#cc0000"
     borderopacity="1"
     inkscape:pageopacity="1"
     inkscape:pageshadow="2"
     inkscape:zoom="7.7880196"
     inkscape:cx="14.018911"
     inkscape:cy="-4.9557401"
     inkscape:document-units="px"
     inkscape:current-layer="layer1"
     width="128px"
     height="128px"
     inkscape:showpageshadow="false"
     inkscape:window-width="1366"
     inkscape:window-height="718"
     inkscape:window-x="0"
     inkscape:window-y="25"
     showguides="true"
     inkscape:guide-bbox="true"
     showgrid="true"
     inkscape:window-maximized="1"
     borderlayer="true">
    <inkscape:grid
       enabled="true"
       visible="true"
       id="grid3231"
       type="xygrid"
       empspacing="8"
       snapvisiblegridlinesonly="true" />
    <sodipodi:guide
       orientation="1,0"
       position="12,6"
       id="guide3791" />
    <sodipodi:guide
       orientation="0,1"
       position="14,9"
       id="guide3793" />
  </sodipodi:namedview>
  <defs
     id="defs4">
    <linearGradient
       inkscape:collect="always"
       xlink:href="#StandardGradient"
       id="linearGradient2549"
       gradientUnits="userSpaceOnUse"
       gradientTransform="matrix(0.9247229,0,0,1.0872097,16.939944,2.9976422)"
       x1="11.998966"
       y1="0.92195445"
       x2="11.998966"
       y2="17.478098" />
    <inkscape:perspective
       sodipodi:type="inkscape:persp3d"
       inkscape:vp_x="0 : 11 : 1"
       inkscape:vp_y="0 : 1000 : 0"
       inkscape:vp_z="22 : 11 : 1"
       inkscape:persp3d-origin="11 : 7.3333333 : 1"
       id="perspective19" />
    <linearGradient
       id="StandardGradient"
       gradientTransform="scale(0.9219544,1.0846523)"
       x1="11.998966"
       y1="0.92195445"
       x2="11.998966"
       y2="19.387045"
       gradientUnits="userSpaceOnUse">
      <stop
         style="stop-color:#000000;stop-opacity:0.23529412;"
         offset="0"
         id="stop3283" />
      <stop
         id="stop3850"
         offset="0.69999999"
         style="stop-color:#000000;stop-opacity:0.39215686;" />
      <stop
         style="stop-color:#000000;stop-opacity:0.55;"
         offset="1"
         id="stop2651" />
    </linearGradient>
    <linearGradient
       inkscape:collect="always"
       xlink:href="#StandardGradient"
       id="linearGradient2406"
       gradientUnits="userSpaceOnUse"
       gradientTransform="matrix(0.9219544,0,0,1.0846523,0,-1)"
       x1="11.998966"
       y1="2.7658634"
       x2="11.998966"
       y2="19.387045" />
    <linearGradient
       inkscape:collect="always"
       xlink:href="#StandardGradient"
       id="linearGradient3198"
       gradientUnits="userSpaceOnUse"
       gradientTransform="matrix(0.9219544,0,0,1.0846523,0,-1)"
       x1="11.998966"
       y1="2.7658634"
       x2="11.998966"
       y2="19.387045" />
    <linearGradient
       inkscape:collect="always"
       xlink:href="#StandardGradient"
       id="linearGradient4636"
       gradientUnits="userSpaceOnUse"
       gradientTransform="matrix(0.9219544,0,0,1.0846523,-0.01723507,0.96875)"
       x1="11.998966"
       y1="2.7658634"
       x2="11.998966"
       y2="15.702114" />
    <linearGradient
       inkscape:collect="always"
       xlink:href="#StandardGradient"
       id="linearGradient2397"
       gradientUnits="userSpaceOnUse"
       gradientTransform="matrix(0.9219544,0,0,1.0846523,-0.01723507,0.96875)"
       x1="11.998966"
       y1="2.7658634"
       x2="11.998966"
       y2="15.702114" />
    <linearGradient
       inkscape:collect="always"
       xlink:href="#StandardGradient"
       id="linearGradient2402"
       gradientUnits="userSpaceOnUse"
       gradientTransform="matrix(0.9219544,0,0,1.0846523,-0.01723507,0.96875)"
       x1="11.998966"
       y1="2.7658634"
       x2="11.998966"
       y2="15.702114" />
    <linearGradient
       inkscape:collect="always"
       xlink:href="#StandardGradient"
       id="linearGradient2405"
       gradientUnits="userSpaceOnUse"
       gradientTransform="matrix(0.9219544,0,0,1.0846523,-0.01723507,-0.03125)"
       x1="11.998966"
       y1="2.7658634"
       x2="11.998966"
       y2="15.702114" />
    <linearGradient
       inkscape:collect="always"
       xlink:href="#StandardGradient"
       id="linearGradient2415"
       gradientUnits="userSpaceOnUse"
       gradientTransform="matrix(0.9219544,0,0,1.0846523,-0.01723507,-0.03125)"
       x1="11.998966"
       y1="2.7658634"
       x2="11.998966"
       y2="15.702114" />
    <linearGradient
       inkscape:collect="always"
       xlink:href="#StandardGradient"
       id="linearGradient2407"
       gradientUnits="userSpaceOnUse"
       gradientTransform="matrix(0.9219544,0,0,1.0846523,-0.01723507,-1.03125)"
       x1="11.998966"
       y1="2.7658634"
       x2="11.998966"
       y2="15.702114" />
    <linearGradient
       inkscape:collect="always"
       xlink:href="#StandardGradient"
       id="linearGradient2542"
       gradientUnits="userSpaceOnUse"
       gradientTransform="matrix(0.9247229,0,0,1.0872097,-2.060056,5.9976422)"
       x1="11.998966"
       y1="0.92195445"
       x2="11.998966"
       y2="17.478098" />
    <linearGradient
       inkscape:collect="always"
       xlink:href="#StandardGradient"
       id="linearGradient2551"
       gradientUnits="userSpaceOnUse"
       gradientTransform="matrix(0.9219544,0,0,1.0846523,-0.01723507,-1.03125)"
       x1="11.998966"
       y1="2.7658634"
       x2="11.998966"
       y2="15.702114" />
    <linearGradient
       inkscape:collect="always"
       xlink:href="#StandardGradient"
       id="linearGradient2554"
       gradientUnits="userSpaceOnUse"
       gradientTransform="matrix(0.9219544,0,0,1.0846523,-0.01723507,-1.03125)"
       x1="11.998966"
       y1="2.7658634"
       x2="11.998966"
       y2="15.702114" />
    <linearGradient
       inkscape:collect="always"
       xlink:href="#StandardGradient"
       id="linearGradient2424"
       gradientUnits="userSpaceOnUse"
       gradientTransform="matrix(0.9219544,0,0,1.0846523,-0.01723507,-0.03125)"
       x1="11.998966"
       y1="2.7658634"
       x2="11.998966"
       y2="15.702114" />
    <linearGradient
       inkscape:collect="always"
       xlink:href="#StandardGradient"
       id="linearGradient3208"
       gradientUnits="userSpaceOnUse"
       gradientTransform="matrix(0.9219544,0,0,1.0846523,-0.01723507,-0.03125)"
       x1="11.998966"
       y1="2.7658634"
       x2="11.998966"
       y2="15.702114" />
    <linearGradient
       inkscape:collect="always"
       xlink:href="#StandardGradient"
       id="linearGradient3213"
       gradientUnits="userSpaceOnUse"
       gradientTransform="matrix(0.9219544,0,0,1.0846523,-0.01723507,-0.03125)"
       x1="11.998966"
       y1="2.7658634"
       x2="11.998966"
       y2="15.702114" />
    <linearGradient
       inkscape:collect="always"
       xlink:href="#StandardGradient"
       id="linearGradient3221"
       gradientUnits="userSpaceOnUse"
       gradientTransform="matrix(0.9219544,0,0,1.0846523,-0.01723507,-0.03125)"
       x1="11.998966"
       y1="2.7658634"
       x2="11.998966"
       y2="15.702114" />
    <inkscape:perspective
       id="perspective2850"
       inkscape:persp3d-origin="0.5 : 0.33333333 : 1"
       inkscape:vp_z="1 : 0.5 : 1"
       inkscape:vp_y="0 : 1000 : 0"
       inkscape:vp_x="0 : 0.5 : 1"
       sodipodi:type="inkscape:persp3d" />
    <linearGradient
       inkscape:collect="always"
       xlink:href="#StandardGradient"
       id="linearGradient3644"
       gradientUnits="userSpaceOnUse"
       gradientTransform="matrix(0.9219544,0,0,1.0846523,-30.017235,-0.03125)"
       x1="11.998966"
       y1="2.7658634"
       x2="11.998966"
       y2="15.702114" />
    <clipPath
       clipPathUnits="userSpaceOnUse"
       id="clipPath3651">
      <path
         style="display:inline;fill:#ff00ff;fill-opacity:1;stroke:none"
         d="m -30,0 0,22 22,0 0,-22 -22,0 z m 4,2 3.96875,0 c 0.554,0 1,0.446 1,1 l 0,1 8.5,0 c 0.669688,0 1.243585,0.3963931 1.4375,1 C -11.04026,5.1544781 -11,5.326875 -11,5.5 l 0,0.5 -5,0 -1,0 -4.21875,0 L -27,6 l 0,-1 0,-2 c 0,-0.554 0.446,-1 1,-1 z m -0.5,5 5,0 8,0 2,0 c 0.831,0 1.5,0.669 1.5,1.5 l 0,8 c 0,0.831 -0.669,1.5 -1.5,1.5 l -0.5,0 0,0.25 0,1.25 c 0,0.831 -0.669,1.5 -1.5,1.5 l -8,0 c -0.831,0 -1.5,-0.669 -1.5,-1.5 l 0,-1.5 -3.5,0 c -0.831,0 -1.5,-0.669 -1.5,-1.5 l 0,-8 C -28,7.669 -27.331,7 -26.5,7 Z m 6,2 C -20.777,9 -21,9.223 -21,9.5 l 0,9 c 0,0.277 0.223,0.5 0.5,0.5 l 6,0 c 0.277,0 0.5,-0.223 0.5,-0.5 l 0,-9 C -14,9.223 -14.223,9 -14.5,9 l -2.90625,0 -2.09375,0 -1,0 z"
         id="path3653"
         inkscape:connector-curvature="0" />
    </clipPath>
    <linearGradient
       inkscape:collect="always"
       xlink:href="#StandardGradient"
       id="linearGradient5006"
       gradientUnits="userSpaceOnUse"
       gradientTransform="matrix(0.9219544,0,0,1.0846523,-0.01723507,-0.03125)"
       x1="11.998966"
       y1="2.7658634"
       x2="11.998966"
       y2="15.702114" />
    <linearGradient
       inkscape:collect="always"
       xlink:href="#StandardGradient"
       id="linearGradient5010"
       gradientUnits="userSpaceOnUse"
       gradientTransform="matrix(0.9219544,0,0,1.0846523,-0.01723507,-0.03125)"
       x1="11.998966"
       y1="2.7658634"
       x2="11.998966"
       y2="15.702114" />
    <radialGradient
       inkscape:collect="always"
       xlink:href="#StandardGradient"
       id="radialGradient3799"
       gradientUnits="userSpaceOnUse"
       gradientTransform="matrix(1.1111111,-7.219351e-8,7.2193516e-8,1.1111112,-1.6666678,-1.4619872)"
       cx="15"
       cy="14.815789"
       fx="15"
       fy="14.815789"
       r="9" />
    <radialGradient
       inkscape:collect="always"
       xlink:href="#StandardGradient"
       id="radialGradient3803"
       gradientUnits="userSpaceOnUse"
       gradientTransform="matrix(1.1111111,-7.219351e-8,7.2193516e-8,1.1111112,-1.6666678,-1.4619872)"
       cx="15"
       cy="14.815789"
       fx="15"
       fy="14.815789"
       r="9" />
    <radialGradient
       inkscape:collect="always"
       xlink:href="#StandardGradient"
       id="radialGradient3805"
       gradientUnits="userSpaceOnUse"
       gradientTransform="matrix(1.1111111,-7.219351e-8,7.2193516e-8,1.1111112,-1.6666678,-1.4619872)"
       cx="15"
       cy="14.815789"
       fx="15"
       fy="14.815789"
       r="9" />
    <radialGradient
       inkscape:collect="always"
       xlink:href="#StandardGradient"
       id="radialGradient3790"
       gradientUnits="userSpaceOnUse"
       gradientTransform="matrix(1.2222222,-1.4352098e-8,1.4352098e-8,1.2222222,-23.133333,-2.9081851)"
       cx="13.200001"
       cy="13.015788"
       fx="13.200001"
       fy="13.015788"
       r="9" />
    <radialGradient
       inkscape:collect="always"
       xlink:href="#StandardGradient"
       id="radialGradient3794"
       gradientUnits="userSpaceOnUse"
       gradientTransform="matrix(1.2222222,-1.4352098e-8,1.4352098e-8,1.2222222,-23.133333,-2.9081851)"
       cx="13.200001"
       cy="13.015788"
       fx="13.200001"
       fy="13.015788"
       r="9" />
    <radialGradient
       inkscape:collect="always"
       xlink:href="#StandardGradient"
       id="radialGradient3080"
       gradientUnits="userSpaceOnUse"
       gradientTransform="matrix(1.7777777,0,0,1.2222222,-9.7824554,-2.9081853)"
       cx="12.252632"
       cy="13.015788"
       fx="12.252632"
       fy="13.015788"
       r="9" />
    <radialGradient
       inkscape:collect="always"
       xlink:href="#StandardGradient"
       id="radialGradient3856"
       gradientUnits="userSpaceOnUse"
       gradientTransform="matrix(1.7777777,0,0,1.2222222,-9.7824554,-2.9081853)"
       cx="12.252632"
       cy="13.015788"
       fx="12.252632"
       fy="13.015788"
       r="9" />
    <radialGradient
       inkscape:collect="always"
       xlink:href="#StandardGradient"
       id="radialGradient3860"
       gradientUnits="userSpaceOnUse"
       gradientTransform="matrix(1.7777777,0,0,1.2222222,-9.7824554,-2.9081853)"
       cx="12.252632"
       cy="13.015788"
       fx="12.252632"
       fy="13.015788"
       r="9" />
    <radialGradient
       inkscape:collect="always"
       xlink:href="#StandardGradient"
       id="radialGradient3862"
       gradientUnits="userSpaceOnUse"
       gradientTransform="matrix(1.7777777,0,0,1.2222222,-9.7824554,-2.9081853)"
       cx="12.252632"
       cy="13.015788"
       fx="12.252632"
       fy="13.015788"
       r="9" />
    <radialGradient
       inkscape:collect="always"
       xlink:href="#StandardGradient"
       id="radialGradient3869"
       gradientUnits="userSpaceOnUse"
       gradientTransform="matrix(1.7777777,0,0,1.2222222,-9.7824554,-1.9081853)"
       cx="12.252632"
       cy="13.015788"
       fx="12.252632"
       fy="13.015788"
       r="9" />
    <radialGradient
       inkscape:collect="always"
       xlink:href="#StandardGradient"
       id="radialGradient3871"
       gradientUnits="userSpaceOnUse"
       gradientTransform="matrix(1.7777777,0,0,1.2222222,-9.7824554,-2.9081853)"
       cx="12.252632"
       cy="13.015788"
       fx="12.252632"
       fy="13.015788"
       r="9" />
    <radialGradient
       inkscape:collect="always"
       xlink:href="#StandardGradient"
       id="radialGradient3876"
       gradientUnits="userSpaceOnUse"
       gradientTransform="matrix(1.7777777,0,0,1.2222222,-9.7824554,-1.9081853)"
       cx="12.252632"
       cy="13.015788"
       fx="12.252632"
       fy="13.015788"
       r="9" />
    <radialGradient
       inkscape:collect="always"
       xlink:href="#StandardGradient"
       id="radialGradient3880"
       gradientUnits="userSpaceOnUse"
       gradientTransform="matrix(1.7777777,0,0,1.2222222,-9.7824554,-2.9081853)"
       cx="12.252632"
       cy="13.015788"
       fx="12.252632"
       fy="13.015788"
       r="9" />
    <radialGradient
       inkscape:collect="always"
       xlink:href="#StandardGradient"
       id="radialGradient3887"
       gradientUnits="userSpaceOnUse"
       gradientTransform="matrix(1.7777777,0,0,1.2222222,-9.7824554,-2.9081853)"
       cx="12.252632"
       cy="13.015788"
       fx="12.252632"
       fy="13.015788"
       r="9" />
    <radialGradient
       inkscape:collect="always"
       xlink:href="#StandardGradient"
       id="radialGradient3891"
       gradientUnits="userSpaceOnUse"
       gradientTransform="matrix(1.7777777,0,0,1.2222222,-9.7824554,-2.9081853)"
       cx="12.252632"
       cy="13.015788"
       fx="12.252632"
       fy="13.015788"
       r="9" />
    <radialGradient
       inkscape:collect="always"
       xlink:href="#StandardGradient"
       id="radialGradient3084"
       gradientUnits="userSpaceOnUse"
       gradientTransform="matrix(1.7777777,0,0,1.2222222,-9.7824554,-2.9081853)"
       cx="12.252632"
       cy="13.015788"
       fx="12.252632"
       fy="13.015788"
       r="9" />
    <radialGradient
       inkscape:collect="always"
       xlink:href="#StandardGradient"
       id="radialGradient3088"
       gradientUnits="userSpaceOnUse"
       gradientTransform="matrix(1.7777777,0,0,1.2222222,-9.7824554,-2.9081853)"
       cx="12.252632"
       cy="13.015788"
       fx="12.252632"
       fy="13.015788"
       r="9" />
    <radialGradient
       inkscape:collect="always"
       xlink:href="#StandardGradient"
       id="radialGradient3102"
       gradientUnits="userSpaceOnUse"
       gradientTransform="matrix(1.7777777,0,0,1.2222222,-8.7824554,-3.9081853)"
       cx="12.252632"
       cy="13.015788"
       fx="12.252632"
       fy="13.015788"
       r="9" />
    <radialGradient
       inkscape:collect="always"
       xlink:href="#StandardGradient"
       id="radialGradient3109"
       gradientUnits="userSpaceOnUse"
       gradientTransform="matrix(1.7777777,0,0,1.2222222,-9.7824554,-2.9081853)"
       cx="12.252632"
       cy="13.015788"
       fx="12.252632"
       fy="13.015788"
       r="9" />
    <radialGradient
       inkscape:collect="always"
       xlink:href="#StandardGradient"
       id="radialGradient3113"
       gradientUnits="userSpaceOnUse"
       gradientTransform="matrix(1.7777777,0,0,1.2222222,-9.7824554,-2.9081853)"
       cx="12.252632"
       cy="13.015788"
       fx="12.252632"
       fy="13.015788"
       r="9" />
    <radialGradient
       inkscape:collect="always"
       xlink:href="#StandardGradient"
       id="radialGradient3115"
       gradientUnits="userSpaceOnUse"
       gradientTransform="matrix(1.7777777,0,0,1.2222222,-9.7824554,-2.9081853)"
       cx="12.252632"
       cy="13.015788"
       fx="12.252632"
       fy="13.015788"
       r="9" />
    <radialGradient
       inkscape:collect="always"
       xlink:href="#StandardGradient"
       id="radialGradient3894"
       gradientUnits="userSpaceOnUse"
       gradientTransform="matrix(1.7777777,0,0,1.2222222,-9.7824554,-1.9081853)"
       cx="12.252632"
       cy="13.015788"
       fx="12.252632"
       fy="13.015788"
       r="9" />
    <radialGradient
       inkscape:collect="always"
       xlink:href="#StandardGradient"
       id="radialGradient3896"
       gradientUnits="userSpaceOnUse"
       gradientTransform="matrix(1.7777777,0,0,1.2222222,-9.7824554,-2.9081853)"
       cx="12.252632"
       cy="13.015788"
       fx="12.252632"
       fy="13.015788"
       r="9" />
    <radialGradient
       inkscape:collect="always"
       xlink:href="#StandardGradient"
       id="radialGradient3901"
       gradientUnits="userSpaceOnUse"
       gradientTransform="matrix(1.7777777,0,0,1.2222222,-9.7824554,-1.9081853)"
       cx="12.252632"
       cy="13.015788"
       fx="12.252632"
       fy="13.015788"
       r="9" />
    <radialGradient
       inkscape:collect="always"
       xlink:href="#StandardGradient"
       id="radialGradient3905"
       gradientUnits="userSpaceOnUse"
       gradientTransform="matrix(1.7777777,0,0,1.2222222,-9.7824554,-2.9081853)"
       cx="12.252632"
       cy="13.015788"
       fx="12.252632"
       fy="13.015788"
       r="9" />
    <radialGradient
       inkscape:collect="always"
       xlink:href="#StandardGradient"
       id="radialGradient3912"
       gradientUnits="userSpaceOnUse"
       gradientTransform="matrix(1.7777777,0,0,1.2222222,-9.7824554,-2.9081853)"
       cx="12.252632"
       cy="13.015788"
       fx="12.252632"
       fy="13.015788"
       r="9" />
    <radialGradient
       inkscape:collect="always"
       xlink:href="#StandardGradient"
       id="radialGradient3916"
       gradientUnits="userSpaceOnUse"
       gradientTransform="matrix(1.7777777,0,0,1.2222222,-9.7824554,-2.9081853)"
       cx="12.252632"
       cy="13.015788"
       fx="12.252632"
       fy="13.015788"
       r="9" />
    <radialGradient
       inkscape:collect="always"
       xlink:href="#StandardGradient"
       id="radialGradient3053"
       gradientUnits="userSpaceOnUse"
       gradientTransform="matrix(1.7777777,0,0,1.2222222,-9.7824554,-2.9081853)"
       cx="12.252632"
       cy="13.015788"
       fx="12.252632"
       fy="13.015788"
       r="9" />
    <radialGradient
       inkscape:collect="always"
       xlink:href="#StandardGradient"
       id="radialGradient3057"
       gradientUnits="userSpaceOnUse"
       gradientTransform="matrix(1.7777777,0,0,1.2222222,-9.7824554,-2.9081853)"
       cx="12.252632"
       cy="13.015788"
       fx="12.252632"
       fy="13.015788"
       r="9" />
  </defs>
  <metadata
     id="metadata7">
    <rdf:RDF>
      <cc:Work
         rdf:about="">
        <dc:format>image/svg+xml</dc:format>
        <dc:type
           rdf:resource="http://purl.org/dc/dcmitype/StillImage" />
        <dc:title></dc:title>
      </cc:Work>
    </rdf:RDF>
  </metadata>
  <g
     style="display:inline"
     inkscape:label="Calque 1"
     id="layer1"
     inkscape:groupmode="layer"
     transform="translate(0,2)">
    <path
       style="display:inline;opacity:0.05;fill:#ffffff;fill-opacity:1;stroke:none"
       d="M 6,1 C 4.9011878,1 4,1.9011878 4,3 L 4,4 A 1.0152112,1.0152112 0 0 0 4.15625,4.5625 C 3.4940331,5.0183018 3,5.645853 3,6.5 l 0,9 C 3,16.875812 4.1241878,18 5.5,18 L 7,18 c 0,1.098812 0.9011878,2 2,2 l 9,0 c 1.098812,0 2,-0.901188 2,-2 l 0,-0.625 c 0.574949,-0.461424 1,-1.091286 1,-1.875 l 0,-9 C 21,5.6209077 20.476029,4.9817072 19.78125,4.53125 A 1.0152112,1.0152112 0 0 0 19.875,3.6875 C 19.542278,2.6518243 18.539005,2 17.46875,2 L 11.625,2 C 11.363404,1.5815489 11.006014,1.267245 10.53125,1.125 L 10.5625,1.09375 C 10.51358,1.073238 10.48627,1.07608 10.4375,1.0625 10.41432,1.05699 10.39843,1.035926 10.375,1.03125 c -0.0363,-0.00723 -0.03277,0.00554 -0.0625,0 C 10.227763,1.0155197 10.096691,1.0024714 10.0625,1 A 1.0152112,1.0152112 0 0 0 10,1 L 9.96875,1 6,1 Z M 6,2 9.96875,2 10,2 c 0.05755,0.00416 0.10161,0.00834 0.15625,0.03125 0.01036,0.00173 0.02101,-0.00204 0.03125,0 C 10.645927,2.1227133 11,2.5138922 11,3 l 6.46875,0 c 0.669688,0 1.243585,0.3963931 1.4375,1 L 5,4 5,3 C 5,2.446 5.446,2 6,2 Z m -0.5,3 13,0 C 19.331,5 20,5.669 20,6.5 l 0,9 c 0,0.657875 -0.412983,1.202994 -1,1.40625 L 19,18 c 0,0.554 -0.446,1 -1,1 L 9,19 C 8.446,19 8,18.554 8,18 L 8,17 5.5,17 C 4.669,17 4,16.331 4,15.5 l 0,-9 C 4,5.669 4.669,5 5.5,5 Z m 5,3 C 10.223,8 10,8.223 10,8.5 l 0,8 c 0,0.20775 0.132922,0.393047 0.3125,0.46875 C 10.372359,16.993984 10.43075,17 10.5,17 l 6,0 c 0.277,0 0.5,-0.223 0.5,-0.5 l 0,-8 C 17,8.223 16.777,8 16.5,8 l -6,0 z m 0.5,1 5,0 0,7 -5,0 0,-7 z"
       id="path3055"
       inkscape:connector-curvature="0" />
    <path
       style="display:inline;fill:url(#radialGradient3102);fill-opacity:1;stroke:none"
       d="M 6,2 C 5.446,2 5,2.446 5,3 L 5,4 18.90625,4 C 18.712335,3.3963931 18.138438,3 17.46875,3 L 11,3 c 0,-0.4861078 -0.354073,-0.8772867 -0.8125,-0.96875 -0.01024,-0.00204 -0.02089,0.00173 -0.03125,0 C 10.10161,2.0083404 10.057547,2.0041597 10,2 L 9.96875,2 Z M 5.5,5 C 4.669,5 4,5.669 4,6.5 l 0,9 C 4,16.331 4.669,17 5.5,17 l 2.5,0 0,1 c 0,0.554 0.446,1 1,1 l 9,0 c 0.554,0 1,-0.446 1,-1 l 0,-1.09375 C 19.587017,16.702994 20,16.157875 20,15.5 l 0,-9 C 20,5.669 19.331,5 18.5,5 Z m 5,3 6,0 C 16.777,8 17,8.223 17,8.5 l 0,8 c 0,0.277 -0.223,0.5 -0.5,0.5 l -6,0 C 10.43075,17 10.372359,16.994 10.3125,16.96875 10.132922,16.893047 10,16.70775 10,16.5 l 0,-8 C 10,8.223 10.223,8 10.5,8 Z"
       id="path3073"
       inkscape:connector-curvature="0"
       sodipodi:nodetypes="ssccscccccssssscsssscssssssssssssss" />
    <path
       style="display:inline;opacity:0.3;fill:#000000;fill-opacity:1;stroke:none"
       d="M 6,2 C 5.446,2 5,2.446 5,3 L 5,4 18.90625,4 C 18.712335,3.3963931 18.138438,3 17.46875,3 L 11,3 c 0,-0.4861078 -0.354073,-0.8772867 -0.8125,-0.96875 -0.01024,-0.00204 -0.02089,0.00173 -0.03125,0 C 10.10161,2.0083404 10.057547,2.0041597 10,2 L 9.96875,2 Z m 0,0.5 3.96875,0 c 0.010413,3.26e-4 0.020837,3.26e-4 0.03125,0 0.02007,0.011858 0.04097,0.022309 0.0625,0.03125 0.03489,0.00583 0.03974,-0.00378 0.0625,0 0.04817,0.00966 0.09867,0.031599 0.09375,0.03125 C 10.387554,2.6391661 10.5,2.8025836 10.5,3 10.48901,3.2170935 10.637117,3.4325237 10.84375,3.5 L 5.5,3.5 5.5,3 C 5.5,2.7140121 5.714012,2.5 6,2.5 Z M 5.5,5 C 4.669,5 4,5.669 4,6.5 l 0,9 C 4,16.331 4.669,17 5.5,17 l 2.5,0 0,1 c 0,0.554 0.446,1 1,1 l 9,0 c 0.554,0 1,-0.446 1,-1 l 0,-1.09375 C 19.587017,16.702994 20,16.157875 20,15.5 l 0,-9 C 20,5.669 19.331,5 18.5,5 Z m 0,0.5 13,0 c 0.562988,0 1,0.4370121 1,1 l 0,9 c 0,0.448889 -0.261663,0.800873 -0.65625,0.9375 -0.196507,0.06445 -0.341349,0.261959 -0.34375,0.46875 L 18.5,18 c 0,0.285988 -0.214012,0.5 -0.5,0.5 l -9,0 C 8.714012,18.5 8.5,18.285988 8.5,18 l 0,-1 C 8.5003054,16.738117 8.2618827,16.499695 8,16.5 l -2.5,0 c -0.562988,0 -1,-0.437012 -1,-1 l 0,-9 c 0,-0.5629879 0.437012,-1 1,-1 z m 5,2 c -0.545012,0 -1,0.4549879 -1,1 l 0,8 c 0,0.420753 0.257927,0.782757 0.625,0.9375 0.140792,0.05935 0.276829,0.0625 0.375,0.0625 l 6,0 c 0.545012,0 1,-0.454988 1,-1 l 0,-8 c 0,-0.5450121 -0.454988,-1 -1,-1 z m 0,0.5 6,0 C 16.777,8 17,8.223 17,8.5 l 0,8 c 0,0.277 -0.223,0.5 -0.5,0.5 l -6,0 C 10.43075,17 10.372359,16.994 10.3125,16.96875 10.132922,16.893047 10,16.70775 10,16.5 l 0,-8 C 10,8.223 10.223,8 10.5,8 Z"
       id="path3105"
       inkscape:connector-curvature="0"
       sodipodi:nodetypes="ssccscccccssccccccccsssssscsssscssssssssccssssccssssssscsssssssssssscsss" />
    <path
       style="display:inline;opacity:0.3;fill:#000000;fill-opacity:1;stroke:none"
       d="M 6,2 C 5.446,2 5,2.446 5,3 L 5,4 C 5,3.446 5.446,3 6,3 L 9.96875,3 10,3 c 0.05755,0.00416 0.10161,0.00834 0.15625,0.03125 0.01036,0.00173 0.02101,-0.00204 0.03125,0 C 10.645927,3.1227133 11,3.5138922 11,4 l 6.46875,0 1.4375,0 C 18.712335,3.3963931 18.138438,3 17.46875,3 L 11,3 c 0,-0.4861078 -0.354073,-0.8772867 -0.8125,-0.96875 -0.01024,-0.00204 -0.02089,0.00173 -0.03125,0 C 10.10161,2.0083404 10.057547,2.0041597 10,2 L 9.96875,2 Z M 5.5,5 C 4.669,5 4,5.669 4,6.5 l 0,1 C 4,6.669 4.669,6 5.5,6 l 13,0 C 19.331,6 20,6.669 20,7.5 l 0,-1 C 20,5.669 19.331,5 18.5,5 Z m 4.5,11.5 0,1 c 0,0.20775 0.132922,0.393047 0.3125,0.46875 C 10.372359,17.993984 10.43075,18 10.5,18 l 6,0 c 0.277,0 0.5,-0.223 0.5,-0.5 l 0,-1 c 0,0.277 -0.223,0.5 -0.5,0.5 l -6,0 C 10.43075,17 10.372359,16.994 10.3125,16.96875 10.132922,16.893047 10,16.70775 10,16.5 Z"
       id="path3890"
       inkscape:connector-curvature="0"
       sodipodi:nodetypes="sscscccccccscccccssscsscssscssssscsssc" />
    <path
       style="display:inline;opacity:0.2;fill:#ffffff;fill-opacity:1;stroke:none"
       d="m 5,4 0,1 0.5,0 13,0 0.40625,0 C 18.712335,4.3963931 18.138438,4 17.46875,4 L 11,4 Z m 5.5,4 C 10.223,8 10,8.223 10,8.5 l 0,1 C 10,9.223 10.223,9 10.5,9 c 2,0 4,0 6,0 0.277,0 0.5,0.223 0.5,0.5 l 0,-1 C 17,8.223 16.777,8 16.5,8 Z m -6.5,7.5 0,1 C 4,17.331 4.669,18 5.5,18 L 8,18 8,17 5.5,17 C 4.669,17 4,16.331 4,15.5 Z m 4,2.5 0,1 c 0,0.554 0.446,1 1,1 l 9,0 c 0.554,0 1,-0.446 1,-1 l 0,-1 c 0,0.554 -0.446,1 -1,1 L 9,19 C 8.446,19 8,18.554 8,18 Z m 12,-2.5 c 0,0.657875 -0.412983,1.202994 -1,1.40625 l 0,1 C 19.587017,17.702994 20,17.157875 20,16.5 Z"
       id="path3899"
       inkscape:connector-curvature="0"
       sodipodi:nodetypes="cccccsccssccccssscssccsccsssscssccccsc" />
  </g>
</svg>
