<?xml version="1.0" encoding="UTF-8" standalone="no"?>
<!-- Created with Inkscape (http://www.inkscape.org/) -->

<svg
   xmlns:dc="http://purl.org/dc/elements/1.1/"
   xmlns:cc="http://creativecommons.org/ns#"
   xmlns:rdf="http://www.w3.org/1999/02/22-rdf-syntax-ns#"
   xmlns:svg="http://www.w3.org/2000/svg"
   xmlns="http://www.w3.org/2000/svg"
   xmlns:xlink="http://www.w3.org/1999/xlink"
   xmlns:sodipodi="http://sodipodi.sourceforge.net/DTD/sodipodi-0.dtd"
   xmlns:inkscape="http://www.inkscape.org/namespaces/inkscape"
   width="24"
   height="24"
   id="svg2"
   sodipodi:version="0.32"
   inkscape:version="0.91 r13725"
   version="1.0"
   sodipodi:docname="document-save.svg"
   inkscape:output_extension="org.inkscape.output.svg.inkscape"
   inkscape:export-filename="/home/matt/.icons/Sirocco/scalable/mimetypes/text-plain.png"
   inkscape:export-xdpi="90"
   inkscape:export-ydpi="90"
   sodipodi:modified="true"
   style="display:inline">
  <sodipodi:namedview
     id="base"
     pagecolor="#838383"
     bordercolor="#cc0000"
     borderopacity="1"
     inkscape:pageopacity="1"
     inkscape:pageshadow="2"
     inkscape:zoom="22.027845"
     inkscape:cx="8.0682055"
     inkscape:cy="9.6811859"
     inkscape:document-units="px"
     inkscape:current-layer="layer1"
     width="128px"
     height="128px"
     inkscape:showpageshadow="false"
     inkscape:window-width="1366"
     inkscape:window-height="718"
     inkscape:window-x="0"
     inkscape:window-y="25"
     showguides="true"
     inkscape:guide-bbox="true"
     showgrid="true"
     inkscape:window-maximized="1"
     borderlayer="true"
     inkscape:snap-global="false">
    <inkscape:grid
       enabled="true"
       visible="true"
       id="grid3231"
       type="xygrid"
       empspacing="8"
       snapvisiblegridlinesonly="true" />
    <sodipodi:guide
       orientation="1,0"
       position="12,-2"
       id="guide3791" />
    <sodipodi:guide
       orientation="0,1"
       position="14,9"
       id="guide3793" />
  </sodipodi:namedview>
  <defs
     id="defs4">
    <linearGradient
       inkscape:collect="always"
       xlink:href="#StandardGradient"
       id="linearGradient2549"
       gradientUnits="userSpaceOnUse"
       gradientTransform="matrix(0.9247229,0,0,1.0872097,16.939944,2.9976422)"
       x1="11.998966"
       y1="0.92195445"
       x2="11.998966"
       y2="17.478098" />
    <inkscape:perspective
       sodipodi:type="inkscape:persp3d"
       inkscape:vp_x="0 : 11 : 1"
       inkscape:vp_y="0 : 1000 : 0"
       inkscape:vp_z="22 : 11 : 1"
       inkscape:persp3d-origin="11 : 7.3333333 : 1"
       id="perspective19" />
    <linearGradient
       id="StandardGradient"
       gradientTransform="scale(0.9219544,1.0846523)"
       x1="11.998966"
       y1="0.92195445"
       x2="11.998966"
       y2="19.387045"
       gradientUnits="userSpaceOnUse">
      <stop
         style="stop-color:#000000;stop-opacity:0.23529412;"
         offset="0"
         id="stop3283" />
      <stop
         id="stop3825"
         offset="0.69999999"
         style="stop-color:#000000;stop-opacity:0.39215686;" />
      <stop
         style="stop-color:#000000;stop-opacity:0.55;"
         offset="1"
         id="stop2651" />
    </linearGradient>
    <linearGradient
       inkscape:collect="always"
       xlink:href="#StandardGradient"
       id="linearGradient2406"
       gradientUnits="userSpaceOnUse"
       gradientTransform="matrix(0.9219544,0,0,1.0846523,0,-1)"
       x1="11.998966"
       y1="2.7658634"
       x2="11.998966"
       y2="19.387045" />
    <linearGradient
       inkscape:collect="always"
       xlink:href="#StandardGradient"
       id="linearGradient3198"
       gradientUnits="userSpaceOnUse"
       gradientTransform="matrix(0.9219544,0,0,1.0846523,0,-1)"
       x1="11.998966"
       y1="2.7658634"
       x2="11.998966"
       y2="19.387045" />
    <linearGradient
       inkscape:collect="always"
       xlink:href="#StandardGradient"
       id="linearGradient4636"
       gradientUnits="userSpaceOnUse"
       gradientTransform="matrix(0.9219544,0,0,1.0846523,-0.01723507,0.96875)"
       x1="11.998966"
       y1="2.7658634"
       x2="11.998966"
       y2="15.702114" />
    <linearGradient
       inkscape:collect="always"
       xlink:href="#StandardGradient"
       id="linearGradient2397"
       gradientUnits="userSpaceOnUse"
       gradientTransform="matrix(0.9219544,0,0,1.0846523,-0.01723507,0.96875)"
       x1="11.998966"
       y1="2.7658634"
       x2="11.998966"
       y2="15.702114" />
    <linearGradient
       inkscape:collect="always"
       xlink:href="#StandardGradient"
       id="linearGradient2402"
       gradientUnits="userSpaceOnUse"
       gradientTransform="matrix(0.9219544,0,0,1.0846523,-0.01723507,0.96875)"
       x1="11.998966"
       y1="2.7658634"
       x2="11.998966"
       y2="15.702114" />
    <linearGradient
       inkscape:collect="always"
       xlink:href="#StandardGradient"
       id="linearGradient2405"
       gradientUnits="userSpaceOnUse"
       gradientTransform="matrix(0.9219544,0,0,1.0846523,-0.01723507,-0.03125)"
       x1="11.998966"
       y1="2.7658634"
       x2="11.998966"
       y2="15.702114" />
    <linearGradient
       inkscape:collect="always"
       xlink:href="#StandardGradient"
       id="linearGradient2415"
       gradientUnits="userSpaceOnUse"
       gradientTransform="matrix(0.9219544,0,0,1.0846523,-0.01723507,-0.03125)"
       x1="11.998966"
       y1="2.7658634"
       x2="11.998966"
       y2="15.702114" />
    <linearGradient
       inkscape:collect="always"
       xlink:href="#StandardGradient"
       id="linearGradient2407"
       gradientUnits="userSpaceOnUse"
       gradientTransform="matrix(0.9219544,0,0,1.0846523,-0.01723507,-1.03125)"
       x1="11.998966"
       y1="2.7658634"
       x2="11.998966"
       y2="15.702114" />
    <linearGradient
       inkscape:collect="always"
       xlink:href="#StandardGradient"
       id="linearGradient2542"
       gradientUnits="userSpaceOnUse"
       gradientTransform="matrix(0.9247229,0,0,1.0872097,-2.060056,5.9976422)"
       x1="11.998966"
       y1="0.92195445"
       x2="11.998966"
       y2="17.478098" />
    <linearGradient
       inkscape:collect="always"
       xlink:href="#StandardGradient"
       id="linearGradient2551"
       gradientUnits="userSpaceOnUse"
       gradientTransform="matrix(0.9219544,0,0,1.0846523,-0.01723507,-1.03125)"
       x1="11.998966"
       y1="2.7658634"
       x2="11.998966"
       y2="15.702114" />
    <linearGradient
       inkscape:collect="always"
       xlink:href="#StandardGradient"
       id="linearGradient2554"
       gradientUnits="userSpaceOnUse"
       gradientTransform="matrix(0.9219544,0,0,1.0846523,-0.01723507,-1.03125)"
       x1="11.998966"
       y1="2.7658634"
       x2="11.998966"
       y2="15.702114" />
    <linearGradient
       inkscape:collect="always"
       xlink:href="#StandardGradient"
       id="linearGradient2424"
       gradientUnits="userSpaceOnUse"
       gradientTransform="matrix(0.9219544,0,0,1.0846523,-0.01723507,-0.03125)"
       x1="11.998966"
       y1="2.7658634"
       x2="11.998966"
       y2="15.702114" />
    <linearGradient
       inkscape:collect="always"
       xlink:href="#StandardGradient"
       id="linearGradient3208"
       gradientUnits="userSpaceOnUse"
       gradientTransform="matrix(0.9219544,0,0,1.0846523,-0.01723507,-0.03125)"
       x1="11.998966"
       y1="2.7658634"
       x2="11.998966"
       y2="15.702114" />
    <linearGradient
       inkscape:collect="always"
       xlink:href="#StandardGradient"
       id="linearGradient3213"
       gradientUnits="userSpaceOnUse"
       gradientTransform="matrix(0.9219544,0,0,1.0846523,-0.01723507,-0.03125)"
       x1="11.998966"
       y1="2.7658634"
       x2="11.998966"
       y2="15.702114" />
    <linearGradient
       inkscape:collect="always"
       xlink:href="#StandardGradient"
       id="linearGradient3221"
       gradientUnits="userSpaceOnUse"
       gradientTransform="matrix(0.9219544,0,0,1.0846523,-0.01723507,-0.03125)"
       x1="11.998966"
       y1="2.7658634"
       x2="11.998966"
       y2="15.702114" />
    <inkscape:perspective
       id="perspective2850"
       inkscape:persp3d-origin="0.5 : 0.33333333 : 1"
       inkscape:vp_z="1 : 0.5 : 1"
       inkscape:vp_y="0 : 1000 : 0"
       inkscape:vp_x="0 : 0.5 : 1"
       sodipodi:type="inkscape:persp3d" />
    <linearGradient
       inkscape:collect="always"
       xlink:href="#StandardGradient"
       id="linearGradient3644"
       gradientUnits="userSpaceOnUse"
       gradientTransform="matrix(0.9219544,0,0,1.0846523,-30.017235,-0.03125)"
       x1="11.998966"
       y1="2.7658634"
       x2="11.998966"
       y2="15.702114" />
    <clipPath
       clipPathUnits="userSpaceOnUse"
       id="clipPath3651">
      <path
         style="display:inline;fill:#ff00ff;fill-opacity:1;stroke:none"
         d="m -30,0 0,22 22,0 0,-22 -22,0 z m 4,2 3.96875,0 c 0.554,0 1,0.446 1,1 l 0,1 8.5,0 c 0.669688,0 1.243585,0.3963931 1.4375,1 C -11.04026,5.1544781 -11,5.326875 -11,5.5 l 0,0.5 -5,0 -1,0 -4.21875,0 L -27,6 l 0,-1 0,-2 c 0,-0.554 0.446,-1 1,-1 z m -0.5,5 5,0 8,0 2,0 c 0.831,0 1.5,0.669 1.5,1.5 l 0,8 c 0,0.831 -0.669,1.5 -1.5,1.5 l -0.5,0 0,0.25 0,1.25 c 0,0.831 -0.669,1.5 -1.5,1.5 l -8,0 c -0.831,0 -1.5,-0.669 -1.5,-1.5 l 0,-1.5 -3.5,0 c -0.831,0 -1.5,-0.669 -1.5,-1.5 l 0,-8 C -28,7.669 -27.331,7 -26.5,7 Z m 6,2 C -20.777,9 -21,9.223 -21,9.5 l 0,9 c 0,0.277 0.223,0.5 0.5,0.5 l 6,0 c 0.277,0 0.5,-0.223 0.5,-0.5 l 0,-9 C -14,9.223 -14.223,9 -14.5,9 l -2.90625,0 -2.09375,0 -1,0 z"
         id="path3653"
         inkscape:connector-curvature="0" />
    </clipPath>
    <linearGradient
       inkscape:collect="always"
       xlink:href="#StandardGradient"
       id="linearGradient5006"
       gradientUnits="userSpaceOnUse"
       gradientTransform="matrix(0.9219544,0,0,1.0846523,-0.01723507,-0.03125)"
       x1="11.998966"
       y1="2.7658634"
       x2="11.998966"
       y2="15.702114" />
    <linearGradient
       inkscape:collect="always"
       xlink:href="#StandardGradient"
       id="linearGradient5010"
       gradientUnits="userSpaceOnUse"
       gradientTransform="matrix(0.9219544,0,0,1.0846523,-0.01723507,-0.03125)"
       x1="11.998966"
       y1="2.7658634"
       x2="11.998966"
       y2="15.702114" />
    <radialGradient
       inkscape:collect="always"
       xlink:href="#StandardGradient"
       id="radialGradient3799"
       gradientUnits="userSpaceOnUse"
       gradientTransform="matrix(1.1111111,-7.219351e-8,7.2193516e-8,1.1111112,-1.6666678,-1.4619872)"
       cx="15"
       cy="14.815789"
       fx="15"
       fy="14.815789"
       r="9" />
    <radialGradient
       inkscape:collect="always"
       xlink:href="#StandardGradient"
       id="radialGradient3803"
       gradientUnits="userSpaceOnUse"
       gradientTransform="matrix(1.1111111,-7.219351e-8,7.2193516e-8,1.1111112,-1.6666678,-1.4619872)"
       cx="15"
       cy="14.815789"
       fx="15"
       fy="14.815789"
       r="9" />
    <radialGradient
       inkscape:collect="always"
       xlink:href="#StandardGradient"
       id="radialGradient3805"
       gradientUnits="userSpaceOnUse"
       gradientTransform="matrix(1.1111111,-7.219351e-8,7.2193516e-8,1.1111112,-1.6666678,-1.4619872)"
       cx="15"
       cy="14.815789"
       fx="15"
       fy="14.815789"
       r="9" />
    <linearGradient
       id="StandardGradient-9"
       gradientTransform="scale(0.9219544,1.0846523)"
       x1="11.998966"
       y1="0.92195445"
       x2="11.998966"
       y2="19.387045"
       gradientUnits="userSpaceOnUse">
      <stop
         style="stop-color:#000000;stop-opacity:0.86274511;"
         offset="0"
         id="stop3283-5" />
      <stop
         style="stop-color:#000000;stop-opacity:0.47058824;"
         offset="1"
         id="stop2651-0" />
    </linearGradient>
    <radialGradient
       inkscape:collect="always"
       xlink:href="#StandardGradient"
       id="radialGradient3841"
       cx="13"
       cy="13"
       fx="13"
       fy="13"
       r="9"
       gradientUnits="userSpaceOnUse"
       gradientTransform="matrix(1.2222222,3.3333333e-8,-3.3333333e-8,1.2222222,-2.8888885,-2.8888893)" />
    <linearGradient
       id="StandardGradient-6"
       gradientTransform="scale(0.9219544,1.0846523)"
       x1="11.998966"
       y1="0.92195445"
       x2="11.998966"
       y2="19.387045"
       gradientUnits="userSpaceOnUse">
      <stop
         style="stop-color:#000000;stop-opacity:0.86274511;"
         offset="0"
         id="stop3283-50" />
      <stop
         style="stop-color:#000000;stop-opacity:0.47058824;"
         offset="1"
         id="stop2651-8" />
    </linearGradient>
    <linearGradient
       inkscape:collect="always"
       xlink:href="#StandardGradient-6"
       id="linearGradient3887"
       gradientUnits="userSpaceOnUse"
       gradientTransform="matrix(0.9247229,0,0,1.0872097,-7.0600562,-1.0023578)"
       x1="11.998966"
       y1="1.8417401"
       x2="11.998966"
       y2="20.238579" />
    <linearGradient
       inkscape:collect="always"
       xlink:href="#StandardGradient-6"
       id="linearGradient3891"
       gradientUnits="userSpaceOnUse"
       gradientTransform="matrix(0.9247229,0,0,1.0872097,-7.0600562,-1.0023578)"
       x1="11.998966"
       y1="1.8417401"
       x2="11.998966"
       y2="20.238579" />
    <linearGradient
       inkscape:collect="always"
       xlink:href="#StandardGradient-6"
       id="linearGradient3893"
       gradientUnits="userSpaceOnUse"
       gradientTransform="matrix(0.9247229,0,0,1.0872097,-7.0600562,-1.0023578)"
       x1="11.998966"
       y1="1.8417401"
       x2="11.998966"
       y2="20.238579" />
    <radialGradient
       inkscape:collect="always"
       xlink:href="#StandardGradient"
       id="radialGradient3036"
       gradientUnits="userSpaceOnUse"
       gradientTransform="matrix(1.1,0,0,1.2,-21.3,-2.6)"
       cx="13"
       cy="13"
       fx="13"
       fy="13"
       r="10" />
    <radialGradient
       inkscape:collect="always"
       xlink:href="#StandardGradient"
       id="radialGradient3049"
       gradientUnits="userSpaceOnUse"
       gradientTransform="matrix(2.7,0,0,1.2,-23.1,-2.6)"
       cx="13"
       cy="13"
       fx="13"
       fy="13"
       r="10" />
    <radialGradient
       inkscape:collect="always"
       xlink:href="#StandardGradient"
       id="radialGradient3086"
       gradientUnits="userSpaceOnUse"
       gradientTransform="matrix(2.7,0,0,1.2,-19.1,-1.6)"
       cx="13"
       cy="13"
       fx="13"
       fy="13"
       r="10" />
    <radialGradient
       inkscape:collect="always"
       xlink:href="#StandardGradient"
       id="radialGradient3878"
       gradientUnits="userSpaceOnUse"
       gradientTransform="matrix(2.7,0,0,1.2,-19.1,-1.6)"
       cx="13"
       cy="13"
       fx="13"
       fy="13"
       r="10" />
    <radialGradient
       inkscape:collect="always"
       xlink:href="#StandardGradient"
       id="radialGradient3887"
       gradientUnits="userSpaceOnUse"
       gradientTransform="matrix(2.7,0,0,1.2,-19.1,-1.6)"
       cx="13"
       cy="13"
       fx="13"
       fy="13"
       r="10" />
    <radialGradient
       inkscape:collect="always"
       xlink:href="#StandardGradient"
       id="radialGradient3891"
       gradientUnits="userSpaceOnUse"
       gradientTransform="matrix(2.7,0,0,1.2,-19.1,-1.6)"
       cx="13"
       cy="13"
       fx="13"
       fy="13"
       r="10" />
    <radialGradient
       inkscape:collect="always"
       xlink:href="#StandardGradient"
       id="radialGradient3893"
       gradientUnits="userSpaceOnUse"
       gradientTransform="matrix(2.7,0,0,1.2,-19.1,-1.6)"
       cx="13"
       cy="13"
       fx="13"
       fy="13"
       r="10" />
    <radialGradient
       inkscape:collect="always"
       xlink:href="#StandardGradient"
       id="radialGradient3898"
       gradientUnits="userSpaceOnUse"
       gradientTransform="matrix(2.7,0,0,1.2,-19.1,-0.6)"
       cx="13"
       cy="13"
       fx="13"
       fy="13"
       r="10" />
    <radialGradient
       inkscape:collect="always"
       xlink:href="#StandardGradient"
       id="radialGradient3900"
       gradientUnits="userSpaceOnUse"
       gradientTransform="matrix(2.7,0,0,1.2,-19.1,-1.6)"
       cx="13"
       cy="13"
       fx="13"
       fy="13"
       r="10" />
    <radialGradient
       inkscape:collect="always"
       xlink:href="#StandardGradient"
       id="radialGradient3909"
       gradientUnits="userSpaceOnUse"
       gradientTransform="matrix(1.6,0,0,1.2,-6.4296299,-0.6)"
       cx="11.518518"
       cy="12.166667"
       fx="11.518518"
       fy="12.166667"
       r="10" />
    <radialGradient
       inkscape:collect="always"
       xlink:href="#StandardGradient"
       id="radialGradient3913"
       gradientUnits="userSpaceOnUse"
       gradientTransform="matrix(1.6,0,0,1.2,-6.4296299,-1.6)"
       cx="11.518518"
       cy="12.166667"
       fx="11.518518"
       fy="12.166667"
       r="10" />
    <radialGradient
       inkscape:collect="always"
       xlink:href="#StandardGradient"
       id="radialGradient3920"
       gradientUnits="userSpaceOnUse"
       gradientTransform="matrix(1.6,0,0,1.2,-6.4296299,-1.6)"
       cx="11.518518"
       cy="12.166667"
       fx="11.518518"
       fy="12.166667"
       r="10" />
    <radialGradient
       inkscape:collect="always"
       xlink:href="#StandardGradient"
       id="radialGradient3924"
       gradientUnits="userSpaceOnUse"
       gradientTransform="matrix(1.6,0,0,1.2,-6.4296299,-1.6)"
       cx="11.518518"
       cy="12.166667"
       fx="11.518518"
       fy="12.166667"
       r="10" />
    <radialGradient
       inkscape:collect="always"
       xlink:href="#StandardGradient"
       id="radialGradient3055"
       gradientUnits="userSpaceOnUse"
       gradientTransform="matrix(1.6045975,-5.0043773e-8,2.4689531e-8,0.79164213,-10.496869,-0.27067128)"
       cx="14.643664"
       cy="15.5"
       fx="14.643664"
       fy="15.5"
       r="10" />
    <radialGradient
       inkscape:collect="always"
       xlink:href="#StandardGradient"
       id="radialGradient3831"
       gradientUnits="userSpaceOnUse"
       gradientTransform="matrix(1.6,0,0,1,-12.42963,-0.5)"
       cx="15.268518"
       cy="15.5"
       fx="15.268518"
       fy="15.5"
       r="10" />
    <radialGradient
       inkscape:collect="always"
       xlink:href="#StandardGradient"
       id="radialGradient3833"
       gradientUnits="userSpaceOnUse"
       gradientTransform="matrix(1.6,0,0,1,-12.42963,-1.5)"
       cx="15.268518"
       cy="15.5"
       fx="15.268518"
       fy="15.5"
       r="10" />
    <radialGradient
       inkscape:collect="always"
       xlink:href="#StandardGradient"
       id="radialGradient3840"
       gradientUnits="userSpaceOnUse"
       gradientTransform="matrix(1.6,0,0,1,-12.42963,-1.5)"
       cx="15.268518"
       cy="15.5"
       fx="15.268518"
       fy="15.5"
       r="10" />
    <radialGradient
       inkscape:collect="always"
       xlink:href="#StandardGradient"
       id="radialGradient3844"
       gradientUnits="userSpaceOnUse"
       gradientTransform="matrix(1.6,0,0,1,-12.42963,-1.5)"
       cx="15.268518"
       cy="15.5"
       fx="15.268518"
       fy="15.5"
       r="10" />
    <radialGradient
       inkscape:collect="always"
       xlink:href="#StandardGradient"
       id="radialGradient3846"
       gradientUnits="userSpaceOnUse"
       gradientTransform="matrix(1.6,0,0,1,-12.42963,-1.5)"
       cx="15.268518"
       cy="15.5"
       fx="15.268518"
       fy="15.5"
       r="10" />
    <radialGradient
       inkscape:collect="always"
       xlink:href="#StandardGradient"
       id="radialGradient3851"
       gradientUnits="userSpaceOnUse"
       gradientTransform="matrix(1.6,0,0,1,-12.42963,-0.5)"
       cx="15.268518"
       cy="15.5"
       fx="15.268518"
       fy="15.5"
       r="10" />
    <radialGradient
       inkscape:collect="always"
       xlink:href="#StandardGradient"
       id="radialGradient3855"
       gradientUnits="userSpaceOnUse"
       gradientTransform="matrix(1.6,0,0,1,-12.42963,-1.5)"
       cx="15.268518"
       cy="15.5"
       fx="15.268518"
       fy="15.5"
       r="10" />
    <radialGradient
       inkscape:collect="always"
       xlink:href="#StandardGradient"
       id="radialGradient3862"
       gradientUnits="userSpaceOnUse"
       gradientTransform="matrix(1.6,0,0,1,-12.42963,-1.5)"
       cx="15.268518"
       cy="15.5"
       fx="15.268518"
       fy="15.5"
       r="10" />
    <radialGradient
       inkscape:collect="always"
       xlink:href="#StandardGradient"
       id="radialGradient3866"
       gradientUnits="userSpaceOnUse"
       gradientTransform="matrix(1.6,0,0,1,-12.42963,-1.5)"
       cx="15.268518"
       cy="15.5"
       fx="15.268518"
       fy="15.5"
       r="10" />
    <radialGradient
       inkscape:collect="always"
       xlink:href="#StandardGradient"
       id="radialGradient3057"
       gradientUnits="userSpaceOnUse"
       gradientTransform="matrix(1.6,0,0,1,-11.42963,-2.5)"
       cx="14.643664"
       cy="15.5"
       fx="14.643664"
       fy="15.5"
       r="10" />
    <radialGradient
       inkscape:collect="always"
       xlink:href="#StandardGradient"
       id="radialGradient3061"
       gradientUnits="userSpaceOnUse"
       gradientTransform="matrix(1.6,0,0,1,-11.42963,-2.5)"
       cx="14.643664"
       cy="15.5"
       fx="14.643664"
       fy="15.5"
       r="10" />
    <radialGradient
       inkscape:collect="always"
       xlink:href="#StandardGradient"
       id="radialGradient3063"
       gradientUnits="userSpaceOnUse"
       gradientTransform="matrix(1.6,0,0,1,-11.42963,-2.5)"
       cx="14.643664"
       cy="15.5"
       fx="14.643664"
       fy="15.5"
       r="10" />
    <radialGradient
       inkscape:collect="always"
       xlink:href="#StandardGradient"
       id="radialGradient3838"
       gradientUnits="userSpaceOnUse"
       gradientTransform="matrix(1.6,0,0,1,-11.42963,-1.5)"
       cx="14.643664"
       cy="15.5"
       fx="14.643664"
       fy="15.5"
       r="10" />
    <radialGradient
       inkscape:collect="always"
       xlink:href="#StandardGradient"
       id="radialGradient3842"
       gradientUnits="userSpaceOnUse"
       gradientTransform="matrix(1.6,0,0,1,-11.42963,-2.5)"
       cx="14.643664"
       cy="15.5"
       fx="14.643664"
       fy="15.5"
       r="10" />
    <radialGradient
       inkscape:collect="always"
       xlink:href="#StandardGradient"
       id="radialGradient3847"
       gradientUnits="userSpaceOnUse"
       gradientTransform="matrix(1.6,0,0,1,-11.42963,-1.5)"
       cx="14.643664"
       cy="15.5"
       fx="14.643664"
       fy="15.5"
       r="10" />
    <radialGradient
       inkscape:collect="always"
       xlink:href="#StandardGradient"
       id="radialGradient3852"
       gradientUnits="userSpaceOnUse"
       gradientTransform="matrix(1.6,0,0,1,-11.42963,-2.5)"
       cx="14.643664"
       cy="15.5"
       fx="14.643664"
       fy="15.5"
       r="10" />
    <radialGradient
       inkscape:collect="always"
       xlink:href="#StandardGradient"
       id="radialGradient3859"
       gradientUnits="userSpaceOnUse"
       gradientTransform="matrix(1.6,0,0,1,-11.42963,-2.5)"
       cx="14.643664"
       cy="15.5"
       fx="14.643664"
       fy="15.5"
       r="10" />
    <radialGradient
       inkscape:collect="always"
       xlink:href="#StandardGradient"
       id="radialGradient3863"
       gradientUnits="userSpaceOnUse"
       gradientTransform="matrix(1.6,0,0,1,-11.42963,-2.5)"
       cx="14.643664"
       cy="15.5"
       fx="14.643664"
       fy="15.5"
       r="10" />
  </defs>
  <metadata
     id="metadata7">
    <rdf:RDF>
      <cc:Work
         rdf:about="">
        <dc:format>image/svg+xml</dc:format>
        <dc:type
           rdf:resource="http://purl.org/dc/dcmitype/StillImage" />
        <dc:title></dc:title>
      </cc:Work>
    </rdf:RDF>
  </metadata>
  <g
     style="display:inline"
     inkscape:label="Calque 1"
     id="layer1"
     inkscape:groupmode="layer"
     transform="translate(0,2)">
    <path
       style="display:inline;opacity:0.05;fill:#ffffff;fill-opacity:1;stroke:none"
       d="m 8.9063352,1.9685311 a 1.048178,1.048178 0 0 0 -0.96875,1.0625 l 0,1 a 1.048178,1.048178 0 0 0 0.15625,0.5 1.048178,1.048178 0 0 0 -0.15625,0.5 l 0,2 a 1.048178,1.048178 0 0 0 0.15625,0.5 1.048178,1.048178 0 0 0 -0.15625,0.5 l 0,1.90625 -1.9375,0 a 1.048178,1.048178 0 0 0 -0.8125,1.7187499 l 6.4999998,8 a 1.048178,1.048178 0 0 0 1.625,0 l 6.5,-8 a 1.048178,1.048178 0 0 0 -0.8125,-1.7187499 l -1.9375,0 0,-1.90625 a 1.048178,1.048178 0 0 0 -0.15625,-0.5 1.048178,1.048178 0 0 0 0.15625,-0.5 l 0,-2 a 1.048178,1.048178 0 0 0 -0.15625,-0.5 1.048178,1.048178 0 0 0 0.15625,-0.5 l 0,-1 a 1.048178,1.048178 0 0 0 -1.0625,-1.0625 l -6.9999998,0 a 1.048178,1.048178 0 0 0 -0.09375,0 z m 0.09375,1.0625 6.9999998,0 0,1 -6.9999998,0 0,-1 z m 0,2 6.9999998,0 0,2 -6.9999998,0 0,-2 z m 0,3 6.9999998,0 0,2.9687499 3,0 -6.5,8 -6.4999998,-8 3,0 0,-2.9687499 z"
       id="path3861"
       inkscape:connector-curvature="0" />
    <path
       style="display:inline;fill:url(#radialGradient3055);fill-opacity:1;stroke:none"
       d="m 9.0000852,3.0310311 0,1 6.9999998,0 0,-1 z m 0,2 0,2 6.9999998,0 0,-2 z m 0,3 0,2.9687499 -3,0 6.5006318,8 6.499368,-8 -3,0 0,-2.9687499 z"
       id="path3048"
       inkscape:connector-curvature="0"
       sodipodi:nodetypes="cccccccccccccccccc" />
    <path
       style="display:inline;opacity:0.3;fill:#000000;fill-opacity:1;stroke:none"
       d="m 9.0000852,3.0310311 0,1 6.9999998,0 0,-1 -6.9999998,0 z m 0.46875,0.46875 6.0624998,0 0,0.0625 -6.0624998,0 0,-0.0625 z m -0.46875,1.53125 0,2 6.9999998,0 0,-2 -6.9999998,0 z m 0.46875,0.46875 6.0624998,0 0,1.0625 -6.0624998,0 0,-1.0625 z m -0.46875,2.53125 0,2.9687499 -3,0 6.4999998,8 6.5,-8 -3,0 0,-2.9687499 -6.9999998,0 z m 0.46875,0.46875 6.0624998,0 0,2.4999999 a 0.45528047,0.45528047 0 0 0 0.46875,0.46875 l 2.0625,0 -5.5625,6.8125 -5.5624998,-6.8125 2.0625,0 a 0.45528047,0.45528047 0 0 0 0.46875,-0.46875 l 0,-2.4999999 z"
       id="path3053"
       inkscape:connector-curvature="0" />
    <path
       style="display:inline;opacity:0.3;fill:#000000;fill-opacity:1;stroke:none"
       d="m 9.0000852,3.0310311 0,1 6.9999998,0 0,-1 -6.9999998,0 z m 0,2 0,1 6.9999998,0 0,-1 -6.9999998,0 z m 0,3 0,1 6.9999998,0 0,-1 -6.9999998,0 z m -3,2.9687499 0.8125,1 2.1875,0 0,-1 -3,0 z m 9.9999998,0 0,1 2.1875,0 0.8125,-1 -3,0 z"
       id="path3834"
       inkscape:connector-curvature="0" />
    <path
       style="display:inline;opacity:0.2;fill:#ffffff;fill-opacity:1;stroke:none"
       d="m 9.0000852,4.0310311 0,1 6.9999998,0 0,-1 -6.9999998,0 z m 0,3 0,1 6.9999998,0 0,-1 -6.9999998,0 z m -3,4.9687499 6.4999998,8 6.5,-8 -0.8125,0 -5.6875,7 -5.6874998,-7 -0.8125,0 z"
       id="path3845"
       inkscape:connector-curvature="0" />
  </g>
</svg>
