<?xml version="1.0" encoding="UTF-8" standalone="no"?>
<!-- Created with Inkscape (http://www.inkscape.org/) -->

<svg
   xmlns:dc="http://purl.org/dc/elements/1.1/"
   xmlns:cc="http://creativecommons.org/ns#"
   xmlns:rdf="http://www.w3.org/1999/02/22-rdf-syntax-ns#"
   xmlns:svg="http://www.w3.org/2000/svg"
   xmlns="http://www.w3.org/2000/svg"
   xmlns:xlink="http://www.w3.org/1999/xlink"
   xmlns:sodipodi="http://sodipodi.sourceforge.net/DTD/sodipodi-0.dtd"
   xmlns:inkscape="http://www.inkscape.org/namespaces/inkscape"
   width="24"
   height="24"
   id="svg2"
   sodipodi:version="0.32"
   inkscape:version="0.91 r13725"
   version="1.0"
   sodipodi:docname="edit-copy.svg"
   inkscape:output_extension="org.inkscape.output.svg.inkscape"
   inkscape:export-filename="/home/matt/.icons/Sirocco/scalable/mimetypes/text-plain.png"
   inkscape:export-xdpi="90"
   inkscape:export-ydpi="90"
   sodipodi:modified="true"
   style="display:inline">
  <sodipodi:namedview
     id="base"
     pagecolor="#838383"
     bordercolor="#cc0000"
     borderopacity="1"
     inkscape:pageopacity="1"
     inkscape:pageshadow="2"
     inkscape:zoom="7.7880193"
     inkscape:cx="-4.3723881"
     inkscape:cy="6.3631474"
     inkscape:document-units="px"
     inkscape:current-layer="layer1"
     width="128px"
     height="128px"
     inkscape:showpageshadow="false"
     inkscape:window-width="1366"
     inkscape:window-height="718"
     inkscape:window-x="0"
     inkscape:window-y="25"
     showguides="true"
     inkscape:guide-bbox="true"
     showgrid="true"
     inkscape:window-maximized="1"
     borderlayer="true">
    <inkscape:grid
       enabled="true"
       visible="true"
       id="grid3231"
       type="xygrid"
       empspacing="8"
       snapvisiblegridlinesonly="true" />
    <sodipodi:guide
       orientation="1,0"
       position="12,-2"
       id="guide3791" />
    <sodipodi:guide
       orientation="0,1"
       position="14,9"
       id="guide3793" />
  </sodipodi:namedview>
  <defs
     id="defs4">
    <linearGradient
       inkscape:collect="always"
       xlink:href="#StandardGradient"
       id="linearGradient2549"
       gradientUnits="userSpaceOnUse"
       gradientTransform="matrix(0.9247229,0,0,1.0872097,16.939944,2.9976422)"
       x1="11.998966"
       y1="0.92195445"
       x2="11.998966"
       y2="17.478098" />
    <inkscape:perspective
       sodipodi:type="inkscape:persp3d"
       inkscape:vp_x="0 : 11 : 1"
       inkscape:vp_y="0 : 1000 : 0"
       inkscape:vp_z="22 : 11 : 1"
       inkscape:persp3d-origin="11 : 7.3333333 : 1"
       id="perspective19" />
    <linearGradient
       id="StandardGradient"
       gradientTransform="scale(0.9219544,1.0846523)"
       x1="11.998966"
       y1="0.92195445"
       x2="11.998966"
       y2="19.387045"
       gradientUnits="userSpaceOnUse">
      <stop
         style="stop-color:#000000;stop-opacity:0.23529412;"
         offset="0"
         id="stop3283" />
      <stop
         id="stop3839"
         offset="0.69999999"
         style="stop-color:#000000;stop-opacity:0.39215686;" />
      <stop
         style="stop-color:#000000;stop-opacity:0.55;"
         offset="1"
         id="stop2651" />
    </linearGradient>
    <linearGradient
       inkscape:collect="always"
       xlink:href="#StandardGradient"
       id="linearGradient2406"
       gradientUnits="userSpaceOnUse"
       gradientTransform="matrix(0.9219544,0,0,1.0846523,0,-1)"
       x1="11.998966"
       y1="2.7658634"
       x2="11.998966"
       y2="19.387045" />
    <linearGradient
       inkscape:collect="always"
       xlink:href="#StandardGradient"
       id="linearGradient3198"
       gradientUnits="userSpaceOnUse"
       gradientTransform="matrix(0.9219544,0,0,1.0846523,0,-1)"
       x1="11.998966"
       y1="2.7658634"
       x2="11.998966"
       y2="19.387045" />
    <linearGradient
       inkscape:collect="always"
       xlink:href="#StandardGradient"
       id="linearGradient4636"
       gradientUnits="userSpaceOnUse"
       gradientTransform="matrix(0.9219544,0,0,1.0846523,-0.01723507,0.96875)"
       x1="11.998966"
       y1="2.7658634"
       x2="11.998966"
       y2="15.702114" />
    <linearGradient
       inkscape:collect="always"
       xlink:href="#StandardGradient"
       id="linearGradient2397"
       gradientUnits="userSpaceOnUse"
       gradientTransform="matrix(0.9219544,0,0,1.0846523,-0.01723507,0.96875)"
       x1="11.998966"
       y1="2.7658634"
       x2="11.998966"
       y2="15.702114" />
    <linearGradient
       inkscape:collect="always"
       xlink:href="#StandardGradient"
       id="linearGradient2402"
       gradientUnits="userSpaceOnUse"
       gradientTransform="matrix(0.9219544,0,0,1.0846523,-0.01723507,0.96875)"
       x1="11.998966"
       y1="2.7658634"
       x2="11.998966"
       y2="15.702114" />
    <linearGradient
       inkscape:collect="always"
       xlink:href="#StandardGradient"
       id="linearGradient2405"
       gradientUnits="userSpaceOnUse"
       gradientTransform="matrix(0.9219544,0,0,1.0846523,-0.01723507,-0.03125)"
       x1="11.998966"
       y1="2.7658634"
       x2="11.998966"
       y2="15.702114" />
    <linearGradient
       inkscape:collect="always"
       xlink:href="#StandardGradient"
       id="linearGradient2415"
       gradientUnits="userSpaceOnUse"
       gradientTransform="matrix(0.9219544,0,0,1.0846523,-0.01723507,-0.03125)"
       x1="11.998966"
       y1="2.7658634"
       x2="11.998966"
       y2="15.702114" />
    <linearGradient
       inkscape:collect="always"
       xlink:href="#StandardGradient"
       id="linearGradient2407"
       gradientUnits="userSpaceOnUse"
       gradientTransform="matrix(0.9219544,0,0,1.0846523,-0.01723507,-1.03125)"
       x1="11.998966"
       y1="2.7658634"
       x2="11.998966"
       y2="15.702114" />
    <linearGradient
       inkscape:collect="always"
       xlink:href="#StandardGradient"
       id="linearGradient2542"
       gradientUnits="userSpaceOnUse"
       gradientTransform="matrix(0.9247229,0,0,1.0872097,-2.060056,5.9976422)"
       x1="11.998966"
       y1="0.92195445"
       x2="11.998966"
       y2="17.478098" />
    <linearGradient
       inkscape:collect="always"
       xlink:href="#StandardGradient"
       id="linearGradient2551"
       gradientUnits="userSpaceOnUse"
       gradientTransform="matrix(0.9219544,0,0,1.0846523,-0.01723507,-1.03125)"
       x1="11.998966"
       y1="2.7658634"
       x2="11.998966"
       y2="15.702114" />
    <linearGradient
       inkscape:collect="always"
       xlink:href="#StandardGradient"
       id="linearGradient2554"
       gradientUnits="userSpaceOnUse"
       gradientTransform="matrix(0.9219544,0,0,1.0846523,-0.01723507,-1.03125)"
       x1="11.998966"
       y1="2.7658634"
       x2="11.998966"
       y2="15.702114" />
    <linearGradient
       inkscape:collect="always"
       xlink:href="#StandardGradient"
       id="linearGradient2424"
       gradientUnits="userSpaceOnUse"
       gradientTransform="matrix(0.9219544,0,0,1.0846523,-0.01723507,-0.03125)"
       x1="11.998966"
       y1="2.7658634"
       x2="11.998966"
       y2="15.702114" />
    <linearGradient
       inkscape:collect="always"
       xlink:href="#StandardGradient"
       id="linearGradient3208"
       gradientUnits="userSpaceOnUse"
       gradientTransform="matrix(0.9219544,0,0,1.0846523,-0.01723507,-0.03125)"
       x1="11.998966"
       y1="2.7658634"
       x2="11.998966"
       y2="15.702114" />
    <linearGradient
       inkscape:collect="always"
       xlink:href="#StandardGradient"
       id="linearGradient3213"
       gradientUnits="userSpaceOnUse"
       gradientTransform="matrix(0.9219544,0,0,1.0846523,-0.01723507,-0.03125)"
       x1="11.998966"
       y1="2.7658634"
       x2="11.998966"
       y2="15.702114" />
    <linearGradient
       inkscape:collect="always"
       xlink:href="#StandardGradient"
       id="linearGradient3221"
       gradientUnits="userSpaceOnUse"
       gradientTransform="matrix(0.9219544,0,0,1.0846523,-0.01723507,-0.03125)"
       x1="11.998966"
       y1="2.7658634"
       x2="11.998966"
       y2="15.702114" />
    <inkscape:perspective
       id="perspective2850"
       inkscape:persp3d-origin="0.5 : 0.33333333 : 1"
       inkscape:vp_z="1 : 0.5 : 1"
       inkscape:vp_y="0 : 1000 : 0"
       inkscape:vp_x="0 : 0.5 : 1"
       sodipodi:type="inkscape:persp3d" />
    <linearGradient
       inkscape:collect="always"
       xlink:href="#StandardGradient"
       id="linearGradient3644"
       gradientUnits="userSpaceOnUse"
       gradientTransform="matrix(0.9219544,0,0,1.0846523,-30.017235,-0.03125)"
       x1="11.998966"
       y1="2.7658634"
       x2="11.998966"
       y2="15.702114" />
    <clipPath
       clipPathUnits="userSpaceOnUse"
       id="clipPath3651">
      <path
         style="display:inline;fill:#ff00ff;fill-opacity:1;stroke:none"
         d="m -30,0 0,22 22,0 0,-22 -22,0 z m 4,2 3.96875,0 c 0.554,0 1,0.446 1,1 l 0,1 8.5,0 c 0.669688,0 1.243585,0.3963931 1.4375,1 C -11.04026,5.1544781 -11,5.326875 -11,5.5 l 0,0.5 -5,0 -1,0 -4.21875,0 L -27,6 l 0,-1 0,-2 c 0,-0.554 0.446,-1 1,-1 z m -0.5,5 5,0 8,0 2,0 c 0.831,0 1.5,0.669 1.5,1.5 l 0,8 c 0,0.831 -0.669,1.5 -1.5,1.5 l -0.5,0 0,0.25 0,1.25 c 0,0.831 -0.669,1.5 -1.5,1.5 l -8,0 c -0.831,0 -1.5,-0.669 -1.5,-1.5 l 0,-1.5 -3.5,0 c -0.831,0 -1.5,-0.669 -1.5,-1.5 l 0,-8 C -28,7.669 -27.331,7 -26.5,7 Z m 6,2 C -20.777,9 -21,9.223 -21,9.5 l 0,9 c 0,0.277 0.223,0.5 0.5,0.5 l 6,0 c 0.277,0 0.5,-0.223 0.5,-0.5 l 0,-9 C -14,9.223 -14.223,9 -14.5,9 l -2.90625,0 -2.09375,0 -1,0 z"
         id="path3653"
         inkscape:connector-curvature="0" />
    </clipPath>
    <linearGradient
       inkscape:collect="always"
       xlink:href="#StandardGradient"
       id="linearGradient5006"
       gradientUnits="userSpaceOnUse"
       gradientTransform="matrix(0.9219544,0,0,1.0846523,-0.01723507,-0.03125)"
       x1="11.998966"
       y1="2.7658634"
       x2="11.998966"
       y2="15.702114" />
    <linearGradient
       inkscape:collect="always"
       xlink:href="#StandardGradient"
       id="linearGradient5010"
       gradientUnits="userSpaceOnUse"
       gradientTransform="matrix(0.9219544,0,0,1.0846523,-0.01723507,-0.03125)"
       x1="11.998966"
       y1="2.7658634"
       x2="11.998966"
       y2="15.702114" />
    <radialGradient
       inkscape:collect="always"
       xlink:href="#StandardGradient"
       id="radialGradient3789"
       cx="13.200001"
       cy="13.015788"
       fx="13.200001"
       fy="13.015788"
       r="9"
       gradientTransform="matrix(1.2222222,-1.4352098e-8,1.4352098e-8,1.2222222,-3.1333332,-2.9081851)"
       gradientUnits="userSpaceOnUse" />
    <radialGradient
       inkscape:collect="always"
       xlink:href="#StandardGradient"
       id="radialGradient3799"
       gradientUnits="userSpaceOnUse"
       gradientTransform="matrix(1.1111111,-7.219351e-8,7.2193516e-8,1.1111112,-1.6666678,-1.4619872)"
       cx="15"
       cy="14.815789"
       fx="15"
       fy="14.815789"
       r="9" />
    <radialGradient
       inkscape:collect="always"
       xlink:href="#StandardGradient"
       id="radialGradient3803"
       gradientUnits="userSpaceOnUse"
       gradientTransform="matrix(1.1111111,-7.219351e-8,7.2193516e-8,1.1111112,-1.6666678,-1.4619872)"
       cx="15"
       cy="14.815789"
       fx="15"
       fy="14.815789"
       r="9" />
    <radialGradient
       inkscape:collect="always"
       xlink:href="#StandardGradient"
       id="radialGradient3805"
       gradientUnits="userSpaceOnUse"
       gradientTransform="matrix(1.1111111,-7.219351e-8,7.2193516e-8,1.1111112,-1.6666678,-1.4619872)"
       cx="15"
       cy="14.815789"
       fx="15"
       fy="14.815789"
       r="9" />
    <linearGradient
       id="StandardGradient-5"
       gradientTransform="scale(0.9219544,1.0846523)"
       x1="11.998966"
       y1="0.92195445"
       x2="11.998966"
       y2="19.387045"
       gradientUnits="userSpaceOnUse">
      <stop
         style="stop-color:#000000;stop-opacity:0.86274511;"
         offset="0"
         id="stop3283-0" />
      <stop
         style="stop-color:#000000;stop-opacity:0.47058824;"
         offset="1"
         id="stop2651-4" />
    </linearGradient>
    <linearGradient
       inkscape:collect="always"
       xlink:href="#StandardGradient-5"
       id="linearGradient3832"
       gradientUnits="userSpaceOnUse"
       gradientTransform="matrix(0.9247229,0,0,1.0872097,-2.0600562,0.9976422)"
       x1="11.998966"
       y1="0.92195445"
       x2="11.998966"
       y2="17.478098" />
    <linearGradient
       inkscape:collect="always"
       xlink:href="#StandardGradient-5"
       id="linearGradient3836"
       gradientUnits="userSpaceOnUse"
       gradientTransform="matrix(0.9247229,0,0,1.0872097,-2.0600562,0.9976422)"
       x1="11.998966"
       y1="0.92195445"
       x2="11.998966"
       y2="17.478098" />
    <linearGradient
       inkscape:collect="always"
       xlink:href="#StandardGradient-5"
       id="linearGradient3838"
       gradientUnits="userSpaceOnUse"
       gradientTransform="matrix(0.9247229,0,0,1.0872097,-2.0600562,0.9976422)"
       x1="11.998966"
       y1="0.92195445"
       x2="11.998966"
       y2="17.478098" />
    <radialGradient
       inkscape:collect="always"
       xlink:href="#StandardGradient"
       id="radialGradient3841"
       cx="13"
       cy="12.666667"
       fx="13"
       fy="12.666667"
       r="7.5"
       gradientTransform="matrix(3.5999999,0,0,1.4666667,-32.799998,-5.5777785)"
       gradientUnits="userSpaceOnUse" />
    <radialGradient
       inkscape:collect="always"
       xlink:href="#StandardGradient"
       id="radialGradient3797"
       gradientUnits="userSpaceOnUse"
       gradientTransform="matrix(1.4666667,2.8697193e-8,-2.8697193e-8,1.4666667,-26.066666,-5.5777789)"
       cx="13"
       cy="12.666667"
       fx="13"
       fy="12.666667"
       r="7.5" />
    <radialGradient
       inkscape:collect="always"
       xlink:href="#StandardGradient"
       id="radialGradient3801"
       gradientUnits="userSpaceOnUse"
       gradientTransform="matrix(1.4666667,2.8697193e-8,-2.8697193e-8,1.4666667,-26.066666,-5.5777789)"
       cx="13"
       cy="12.666667"
       fx="13"
       fy="12.666667"
       r="7.5" />
    <radialGradient
       inkscape:collect="always"
       xlink:href="#StandardGradient"
       id="radialGradient3837"
       gradientUnits="userSpaceOnUse"
       gradientTransform="matrix(2.1333334,0,0,1.4666667,-13.447619,-5.5777785)"
       cx="11.928571"
       cy="12.666667"
       fx="11.928571"
       fy="12.666667"
       r="7.5" />
    <radialGradient
       inkscape:collect="always"
       xlink:href="#StandardGradient"
       id="radialGradient3853"
       gradientUnits="userSpaceOnUse"
       gradientTransform="matrix(2.1333334,0,0,1.4666667,-13.447619,-5.5777785)"
       cx="11.928571"
       cy="12.666667"
       fx="11.928571"
       fy="12.666667"
       r="7.5" />
    <radialGradient
       inkscape:collect="always"
       xlink:href="#StandardGradient"
       id="radialGradient3857"
       gradientUnits="userSpaceOnUse"
       gradientTransform="matrix(2.1333334,0,0,1.4666667,-13.447619,-5.5777785)"
       cx="11.928571"
       cy="12.666667"
       fx="11.928571"
       fy="12.666667"
       r="7.5" />
    <radialGradient
       inkscape:collect="always"
       xlink:href="#StandardGradient"
       id="radialGradient3859"
       gradientUnits="userSpaceOnUse"
       gradientTransform="matrix(2.1333334,0,0,1.4666667,-13.447619,-5.5777785)"
       cx="11.928571"
       cy="12.666667"
       fx="11.928571"
       fy="12.666667"
       r="7.5" />
    <radialGradient
       inkscape:collect="always"
       xlink:href="#StandardGradient"
       id="radialGradient3866"
       gradientUnits="userSpaceOnUse"
       gradientTransform="matrix(2.1333334,0,0,1.4666667,-13.447619,-4.5777785)"
       cx="11.928571"
       cy="12.666667"
       fx="11.928571"
       fy="12.666667"
       r="7.5" />
    <radialGradient
       inkscape:collect="always"
       xlink:href="#StandardGradient"
       id="radialGradient3868"
       gradientUnits="userSpaceOnUse"
       gradientTransform="matrix(2.1333334,0,0,1.4666667,-13.447619,-5.5777785)"
       cx="11.928571"
       cy="12.666667"
       fx="11.928571"
       fy="12.666667"
       r="7.5" />
    <radialGradient
       inkscape:collect="always"
       xlink:href="#StandardGradient"
       id="radialGradient3873"
       gradientUnits="userSpaceOnUse"
       gradientTransform="matrix(2.1333334,0,0,1.4666667,-13.447619,-4.5777785)"
       cx="11.928571"
       cy="12.666667"
       fx="11.928571"
       fy="12.666667"
       r="7.5" />
    <radialGradient
       inkscape:collect="always"
       xlink:href="#StandardGradient"
       id="radialGradient3877"
       gradientUnits="userSpaceOnUse"
       gradientTransform="matrix(2.1333334,0,0,1.4666667,-13.447619,-5.5777785)"
       cx="11.928571"
       cy="12.666667"
       fx="11.928571"
       fy="12.666667"
       r="7.5" />
    <radialGradient
       inkscape:collect="always"
       xlink:href="#StandardGradient"
       id="radialGradient3884"
       gradientUnits="userSpaceOnUse"
       gradientTransform="matrix(2.1333334,0,0,1.4666667,-13.447619,-5.5777785)"
       cx="11.928571"
       cy="12.666667"
       fx="11.928571"
       fy="12.666667"
       r="7.5" />
    <radialGradient
       inkscape:collect="always"
       xlink:href="#StandardGradient"
       id="radialGradient3822"
       gradientUnits="userSpaceOnUse"
       gradientTransform="matrix(2.1333334,0,0,1.4666667,-13.447619,-5.5777785)"
       cx="11.928571"
       cy="12.666667"
       fx="11.928571"
       fy="12.666667"
       r="7.5" />
    <radialGradient
       inkscape:collect="always"
       xlink:href="#StandardGradient"
       id="radialGradient3826"
       gradientUnits="userSpaceOnUse"
       gradientTransform="matrix(2.1333334,0,0,1.4666667,-13.447619,-5.5777785)"
       cx="11.928571"
       cy="12.666667"
       fx="11.928571"
       fy="12.666667"
       r="7.5" />
    <radialGradient
       inkscape:collect="always"
       xlink:href="#StandardGradient"
       id="radialGradient3829"
       gradientUnits="userSpaceOnUse"
       gradientTransform="matrix(2.1333334,0,0,1.2,-12.447619,-4.0181819)"
       cx="11.928571"
       cy="13.348485"
       fx="11.928571"
       fy="13.348485"
       r="7.5" />
  </defs>
  <metadata
     id="metadata7">
    <rdf:RDF>
      <cc:Work
         rdf:about="">
        <dc:format>image/svg+xml</dc:format>
        <dc:type
           rdf:resource="http://purl.org/dc/dcmitype/StillImage" />
        <dc:title></dc:title>
      </cc:Work>
    </rdf:RDF>
  </metadata>
  <g
     style="display:inline"
     inkscape:label="Calque 1"
     id="layer1"
     inkscape:groupmode="layer"
     transform="translate(0,2)">
    <path
       style="display:inline;opacity:0.05;fill:#ffffff;fill-opacity:1;stroke:none"
       d="M 9.5,1 C 8.1280149,1 7,2.1280149 7,3.5 L 7,4 6.5,4 C 5.1280149,4 4,5.1280149 4,6.5 l 0,10 C 4,17.871985 5.1280149,19 6.5,19 l 8,0 c 1.371985,0 2.5,-1.128015 2.5,-2.5 l 0,-0.5 0.5,0 c 1.371985,0 2.5,-1.128015 2.5,-2.5 l 0,-10 C 20,2.1280149 18.871985,1 17.5,1 l -8,0 z m 0,1 8,0 C 18.331,2 19,2.669 19,3.5 l 0,10 c 0,0.831 -0.669,1.5 -1.5,1.5 l -8,0 C 8.669,15 8,14.331 8,13.5 L 8,3.5 C 8,2.669 8.669,2 9.5,2 Z m 1,2 C 10.223,4 10,4.223 10,4.5 l 0,8 c 0,0.277 0.223,0.5 0.5,0.5 l 6,0 c 0.277,0 0.5,-0.223 0.5,-0.5 l 0,-8 C 17,4.223 16.777,4 16.5,4 l -6,0 z m -4,1 0.5,0 0,2.5 0,8 C 7,15.777 7.223,16 7.5,16 l 6,0 2.5,0 0,0.5 c 0,0.831 -0.669,1.5 -1.5,1.5 l -8,0 C 5.669,18 5,17.331 5,16.5 L 5,6.5 C 5,5.669 5.669,5 6.5,5 Z m 4.5,0 5,0 0,7 -5,0 0,-7 z"
       id="path3824"
       inkscape:connector-curvature="0" />
    <path
       style="display:inline;fill:url(#radialGradient3829);fill-opacity:1;stroke:none"
       d="M 9.5,2 C 8.669,2 8,2.669 8,3.5 l 0,10 C 8,14.331 8.669,15 9.5,15 l 8,0 c 0.831,0 1.5,-0.669 1.5,-1.5 l 0,-10 C 19,2.669 18.331,2 17.5,2 Z m 1,2 6,0 C 16.777,4 17,4.223 17,4.5 l 0,8 c 0,0.277 -0.223,0.5 -0.5,0.5 l -6,0 C 10.223,13 10,12.777 10,12.5 l 0,-8 C 10,4.223 10.223,4 10.5,4 Z m -4,1 C 5.669,5 5,5.669 5,6.5 l 0,10 C 5,17.331 5.669,18 6.5,18 l 8,0 c 0.831,0 1.5,-0.669 1.5,-1.5 l 0,-0.5 -2.5,0 -6,0 C 7.223,16 7,15.777 7,15.5 L 7,7.5 7,5 Z"
       id="Symbol"
       inkscape:connector-curvature="0"
       sodipodi:nodetypes="ssssssssssssssssssssssssccssccs" />
    <path
       style="display:inline;opacity:0.3;fill:#000000;fill-opacity:1;stroke:none"
       d="M 9.5,2 C 8.669,2 8,2.669 8,3.5 l 0,10 C 8,14.331 8.669,15 9.5,15 l 8,0 c 0.831,0 1.5,-0.669 1.5,-1.5 l 0,-10 C 19,2.669 18.331,2 17.5,2 Z m 0,0.5 8,0 c 0.556166,0 1,0.4438343 1,1 l 0,10 c 0,0.556166 -0.443834,1 -1,1 l -8,0 c -0.5561657,0 -1,-0.443834 -1,-1 l 0,-10 c 0,-0.5561657 0.4438343,-1 1,-1 z m 1,1 c -0.5518343,0 -1,0.4481657 -1,1 l 0,8 c 0,0.551834 0.4481657,1 1,1 l 6,0 c 0.551834,0 1,-0.448166 1,-1 l 0,-8 c 0,-0.5518343 -0.448166,-1 -1,-1 z m 0,0.5 6,0 C 16.777,4 17,4.223 17,4.5 l 0,8 c 0,0.277 -0.223,0.5 -0.5,0.5 l -6,0 C 10.223,13 10,12.777 10,12.5 l 0,-8 C 10,4.223 10.223,4 10.5,4 Z m -4,1 C 5.669,5 5,5.669 5,6.5 l 0,10 C 5,17.331 5.669,18 6.5,18 l 8,0 c 0.831,0 1.5,-0.669 1.5,-1.5 l 0,-0.5 -2.5,0 -6,0 C 7.223,16 7,15.777 7,15.5 L 7,7.5 7,5 Z m 0,0.5 0,2 0,8 c 0,0.551834 0.4481657,1 1,1 l 6,0 2,0 c 0,0.556166 -0.443834,1 -1,1 l -8,0 c -0.5561657,0 -1,-0.443834 -1,-1 l 0,-10 c 0,-0.5561657 0.4438343,-1 1,-1 z"
       id="path3849"
       inkscape:connector-curvature="0"
       sodipodi:nodetypes="ssssssssssssssssssssssssssssssssssssssssssccssccsccssccssssc" />
    <path
       style="display:inline;opacity:0.2;fill:#ffffff;fill-opacity:1;stroke:none"
       d="M 10.5,4 C 10.223,4 10,4.5 10,4.5 l 0,1 C 10,5.223 10.223,5 10.5,5 c 2,0 4,0 6,0 0.277,0 0.5,0.223 0.5,0.5 l 0,-1 C 17,4.5 16.777,4 16.5,4 Z m -2.5,9.5 0,1 C 8,15.331 8.669,16 9.5,16 l 4,0 2.5,0 1.5,0 c 0.831,0 1.5,-0.669 1.5,-1.5 l 0,-1 c 0,0.831 -0.669,1.5 -1.5,1.5 l -8,0 C 8.669,15 8,14.331 8,13.5 Z m -3,3 0,1 C 5,18.331 5.669,19 6.5,19 l 8,0 C 15.331,19 16,18.331 16,17.5 L 16,17 15.90625,17 C 15.702994,17.587017 15.157875,18 14.5,18 l -8,0 C 5.669,18 5,17.331 5,16.5 Z"
       id="path3871"
       inkscape:connector-curvature="0"
       sodipodi:nodetypes="ssccccssscssccsscssccssssccssc" />
    <path
       style="display:inline;opacity:0.3;fill:#000000;fill-opacity:1;stroke:none"
       d="M 9.5,2 C 8.669,2 8,2.669 8,3.5 l 0,1 C 8,3.669 8.669,3 9.5,3 l 8,0 C 18.331,3 19,3.669 19,4.5 l 0,-1 C 19,2.669 18.331,2 17.5,2 l -8,0 z m -3,3 C 5.669,5 5,5.669 5,6.5 l 0,1 C 5,6.669 5.669,6 6.5,6 L 7,6 7,5 6.5,5 Z m 3.5,7.5 0,1 c 0,0.277 0.223,0.5 0.5,0.5 l 6,0 c 0.277,0 0.5,-0.223 0.5,-0.5 l 0,-1 c 0,0.277 -0.223,0.5 -0.5,0.5 l -6,0 C 10.223,13 10,12.777 10,12.5 Z m -3,3 0,1 C 7,16.777 7.223,17 7.5,17 l 6,0 2.40625,0 C 15.959738,16.845522 16,16.673125 16,16.5 l 0,-0.5 -2.5,0 -4,0 -2,0 C 7.223,16 7,15.777 7,15.5 Z"
       id="path3041"
       inkscape:connector-curvature="0" />
  </g>
</svg>
