<?xml version="1.0" encoding="UTF-8" standalone="no"?>
<!-- Created with Inkscape (http://www.inkscape.org/) -->

<svg
   xmlns:dc="http://purl.org/dc/elements/1.1/"
   xmlns:cc="http://creativecommons.org/ns#"
   xmlns:rdf="http://www.w3.org/1999/02/22-rdf-syntax-ns#"
   xmlns:svg="http://www.w3.org/2000/svg"
   xmlns="http://www.w3.org/2000/svg"
   xmlns:xlink="http://www.w3.org/1999/xlink"
   xmlns:sodipodi="http://sodipodi.sourceforge.net/DTD/sodipodi-0.dtd"
   xmlns:inkscape="http://www.inkscape.org/namespaces/inkscape"
   width="24"
   height="24"
   id="svg2"
   sodipodi:version="0.32"
   inkscape:version="0.91 r13725"
   version="1.0"
   sodipodi:docname="edit-select-all.svg"
   inkscape:output_extension="org.inkscape.output.svg.inkscape"
   inkscape:export-filename="/home/matt/.icons/Sirocco/scalable/mimetypes/text-plain.png"
   inkscape:export-xdpi="90"
   inkscape:export-ydpi="90"
   sodipodi:modified="true"
   style="display:inline">
  <sodipodi:namedview
     id="base"
     pagecolor="#838383"
     bordercolor="#cc0000"
     borderopacity="1"
     inkscape:pageopacity="1"
     inkscape:pageshadow="2"
     inkscape:zoom="15.622586"
     inkscape:cx="8.1704073"
     inkscape:cy="9.3900005"
     inkscape:document-units="px"
     inkscape:current-layer="layer1"
     width="128px"
     height="128px"
     inkscape:showpageshadow="false"
     inkscape:window-width="1366"
     inkscape:window-height="718"
     inkscape:window-x="0"
     inkscape:window-y="25"
     showguides="true"
     inkscape:guide-bbox="true"
     showgrid="true"
     inkscape:window-maximized="1"
     borderlayer="true"
     inkscape:snap-global="true">
    <inkscape:grid
       enabled="true"
       visible="true"
       id="grid3231"
       type="xygrid"
       empspacing="8"
       snapvisiblegridlinesonly="true" />
    <sodipodi:guide
       orientation="1,0"
       position="12,6"
       id="guide3791" />
    <sodipodi:guide
       orientation="0,1"
       position="14,9"
       id="guide3793" />
  </sodipodi:namedview>
  <defs
     id="defs4">
    <linearGradient
       id="StandardGradient"
       gradientTransform="scale(0.9219544,1.0846523)"
       x1="11.998966"
       y1="0.92195445"
       x2="11.998966"
       y2="19.387045"
       gradientUnits="userSpaceOnUse">
      <stop
         style="stop-color:#000000;stop-opacity:0.23529412;"
         offset="0"
         id="stop3283" />
      <stop
         id="stop3850"
         offset="0.69999999"
         style="stop-color:#000000;stop-opacity:0.39215686;" />
      <stop
         style="stop-color:#000000;stop-opacity:0.55;"
         offset="1"
         id="stop2651" />
    </linearGradient>
    <radialGradient
       inkscape:collect="always"
       xlink:href="#StandardGradient"
       id="radialGradient4332"
       cx="12"
       cy="12.777778"
       fx="12"
       fy="12.777778"
       r="8"
       gradientTransform="matrix(2,0,0,1.125,-11,-2.375)"
       gradientUnits="userSpaceOnUse" />
    <radialGradient
       inkscape:collect="always"
       xlink:href="#StandardGradient"
       id="radialGradient4338"
       gradientUnits="userSpaceOnUse"
       gradientTransform="matrix(2,0,0,1.125,-12,-1.375)"
       cx="12"
       cy="12.777778"
       fx="12"
       fy="12.777778"
       r="8" />
    <radialGradient
       inkscape:collect="always"
       xlink:href="#StandardGradient"
       id="radialGradient4342"
       gradientUnits="userSpaceOnUse"
       gradientTransform="matrix(2,0,0,1.125,-12,-1.375)"
       cx="12"
       cy="12.777778"
       fx="12"
       fy="12.777778"
       r="8" />
    <radialGradient
       inkscape:collect="always"
       xlink:href="#StandardGradient"
       id="radialGradient4344"
       gradientUnits="userSpaceOnUse"
       gradientTransform="matrix(2,0,0,1.125,-12,-1.375)"
       cx="12"
       cy="12.777778"
       fx="12"
       fy="12.777778"
       r="8" />
  </defs>
  <metadata
     id="metadata7">
    <rdf:RDF>
      <cc:Work
         rdf:about="">
        <dc:format>image/svg+xml</dc:format>
        <dc:type
           rdf:resource="http://purl.org/dc/dcmitype/StillImage" />
        <dc:title></dc:title>
      </cc:Work>
    </rdf:RDF>
  </metadata>
  <g
     style="display:inline"
     inkscape:label="Calque 1"
     id="layer1"
     inkscape:groupmode="layer"
     transform="translate(0,2)">
    <path
       inkscape:connector-curvature="0"
       style="display:inline;opacity:0.05;fill:#ffffff;fill-opacity:1;stroke:none"
       d="M 5.5,0 C 4.1292547,0 3,1.1292547 3,2.5 l 0,15 C 3,18.870745 4.1292547,20 5.5,20 l 13,0 c 1.370745,0 2.5,-1.129255 2.5,-2.5 l 0,-15 C 21,1.1292547 19.870745,0 18.5,0 l -13,0 z m 0,1 13,0 C 19.331,1 20,1.669 20,2.5 l 0,15 c 0,0.831 -0.669,1.5 -1.5,1.5 l -13,0 C 4.669,19 4,18.331 4,17.5 L 4,2.5 C 4,1.669 4.669,1 5.5,1 Z m 1,2 C 6.223,3 6,3.223 6,3.5 l 0,13 C 6,16.777 6.223,17 6.5,17 l 11,0 c 0.277,0 0.5,-0.223 0.5,-0.5 l 0,-13 C 18,3.223 17.777,3 17.5,3 L 6.5,3 Z M 7,4 7.8125,4 A 1.0057694,1.0057694 0 0 0 7,4.8125 L 7,4 Z M 16.1875,4 17,4 17,4.8125 A 1.0057694,1.0057694 0 0 0 16.1875,4 Z M 8,5 16,5 16,7 8,7 8,5 Z M 7,7.1875 A 1.0057694,1.0057694 0 0 0 7.78125,8 1.0057694,1.0057694 0 0 0 7,8.8125 l 0,-1.625 z m 10,0 0,1.625 A 1.0057694,1.0057694 0 0 0 16.21875,8 1.0057694,1.0057694 0 0 0 17,7.1875 Z M 8,9 16,9 16,11 8,11 8,9 Z M 7,11.1875 A 1.0057694,1.0057694 0 0 0 7.78125,12 1.0057694,1.0057694 0 0 0 7,12.8125 l 0,-1.625 z m 10,0 0,4.8125 -1,0 0,-1 A 1.0057694,1.0057694 0 0 0 15.1875,14 1.0057694,1.0057694 0 0 0 16,13 l 0,-1 a 1.0057694,1.0057694 0 0 0 1,-0.8125 z M 12,12 l 1,0 1,0 1,0 0,1 -1,0 0,2 1,0 0,1 -3,0 0,-1 1,0 0,-2 -1,0 0,-1 z m -4,1 3,0 0,2 -3,0 0,-2 z M 7,15.1875 A 1.0057694,1.0057694 0 0 0 7.8125,16 L 7,16 7,15.1875 Z"
       id="path4535" />
    <path
       inkscape:connector-curvature="0"
       style="display:inline;fill:url(#radialGradient4332);fill-opacity:1;stroke:none"
       d="M 5.5,1 C 4.669,1 4,1.669 4,2.5 l 0,15 C 4,18.331 4.669,19 5.5,19 l 13,0 c 0.831,0 1.5,-0.669 1.5,-1.5 l 0,-15 C 20,1.669 19.331,1 18.5,1 l -13,0 z m 1,2 11,0 C 17.777,3 18,3.223 18,3.5 l 0,13 c 0,0.277 -0.223,0.5 -0.5,0.5 l -11,0 C 6.223,17 6,16.777 6,16.5 L 6,3.5 C 6,3.223 6.223,3 6.5,3 Z M 8,5 8,7 16,7 16,5 8,5 Z m 0,4 0,2 8,0 0,-2 -8,0 z m 4,3 0,1 1,0 0,2 -1,0 0,1 3,0 0,-1 -1,0 0,-2 1,0 0,-1 -1,0 -1,0 -1,0 z m -4,1 0,2 3,0 0,-2 -3,0 z"
       id="path2875" />
    <path
       style="display:inline;opacity:0.3;fill:#000000;fill-opacity:1;stroke:none"
       d="M 5.5,1 C 4.669,1 4,1.669 4,2.5 l 0,15 C 4,18.331 4.669,19 5.5,19 l 13,0 c 0.831,0 1.5,-0.669 1.5,-1.5 l 0,-15 C 20,1.669 19.331,1 18.5,1 l -13,0 z m 0,0.4375 13,0 c 0.59052,0 1.0625,0.47198 1.0625,1.0625 l 0,15 c 0,0.59052 -0.47198,1.0625 -1.0625,1.0625 l -13,0 c -0.59052,0 -1.0625,-0.47198 -1.0625,-1.0625 l 0,-15 C 4.4375,1.90948 4.90948,1.4375 5.5,1.4375 Z m 1,1.125 C 5.98252,2.5625 5.5625,2.98252 5.5625,3.5 l 0,13 c 0,0.51748 0.42002,0.9375 0.9375,0.9375 l 11,0 c 0.51748,0 0.9375,-0.42002 0.9375,-0.9375 l 0,-13 c 0,-0.51748 -0.42002,-0.9375 -0.9375,-0.9375 l -11,0 z M 6.5,3 17.5,3 C 17.777,3 18,3.223 18,3.5 l 0,13 c 0,0.277 -0.223,0.5 -0.5,0.5 l -11,0 C 6.223,17 6,16.777 6,16.5 L 6,3.5 C 6,3.223 6.223,3 6.5,3 Z M 8,5 8,7 16,7 16,5 8,5 Z m 0.4375,0.4375 7.125,0 0,1.125 -7.125,0 0,-1.125 z M 8,9 l 0,2 8,0 0,-2 -8,0 z m 0.4375,0.4375 7.125,0 0,1.125 -7.125,0 0,-1.125 z M 12,12 l 0,1 1,0 0,2 -1,0 0,1 3,0 0,-1 -1,0 0,-2 1,0 0,-1 -1,0 -1,0 -1,0 z m 0.4375,0.4375 0.5625,0 1,0 0.5625,0 0,0.125 -0.5625,0 A 0.44811405,0.44811405 0 0 0 13.5625,13 l 0,2 A 0.44811405,0.44811405 0 0 0 14,15.4375 l 0.5625,0 0,0.125 -2.125,0 0,-0.125 0.5625,0 A 0.44811405,0.44811405 0 0 0 13.4375,15 l 0,-2 A 0.44811405,0.44811405 0 0 0 13,12.5625 l -0.5625,0 0,-0.125 z M 8,13 l 0,2 3,0 0,-2 -3,0 z m 0.4375,0.4375 2.125,0 0,1.125 -2.125,0 0,-1.125 z"
       id="path4334"
       inkscape:connector-curvature="0" />
    <path
       inkscape:connector-curvature="0"
       style="display:inline;opacity:0.3;fill:#000000;fill-opacity:1;stroke:none"
       d="M 5.5,1 C 4.669,1 4,1.669 4,2.5 l 0,1 C 4,2.669 4.669,2 5.5,2 l 13,0 C 19.331,2 20,2.669 20,3.5 l 0,-1 C 20,1.669 19.331,1 18.5,1 L 5.5,1 Z M 8,5 8,6 16,6 16,5 8,5 Z m 0,4 0,1 8,0 0,-1 -8,0 z m 4,3 0,1 1,0 1,0 1,0 0,-1 -3,0 z m -4,1 0,1 3,0 0,-1 -3,0 z m 4,2 0,1 1,0 0,-1 -1,0 z m 2,0 0,1 1,0 0,-1 -1,0 z m -8,1.5 0,1 C 6,17.777 6.223,18 6.5,18 l 11,0 c 0.277,0 0.5,-0.223 0.5,-0.5 l 0,-1 C 18,16.777 17.777,17 17.5,17 L 15,17 12,17 6.5,17 C 6.223,17 6,16.777 6,16.5 Z"
       id="path2903" />
    <path
       inkscape:connector-curvature="0"
       style="display:inline;opacity:0.2;fill:#ffffff;fill-opacity:1;stroke:none"
       d="M 6.5,3 C 6.223,3 6,3.223 6,3.5 l 0,1 C 6,4.223 6.223,4 6.5,4 l 11,0 C 17.777,4 18,4.223 18,4.5 l 0,-1 C 18,3.223 17.777,3 17.5,3 L 6.5,3 Z M 8,7 8,8 16,8 16,7 8,7 Z m 0,4 0,1 4,0 3,0 1,0 0,-1 -8,0 z m 4,2 0,1 1,0 0,-1 -1,0 z m 2,0 0,1 1,0 0,-1 -1,0 z m -6,2 0,1 3,0 0,-1 -3,0 z m 4,1 0,1 3,0 0,-1 -1,0 -1,0 -1,0 z m -8,1.5 0,1 C 4,19.331 4.669,20 5.5,20 l 13,0 c 0.831,0 1.5,-0.669 1.5,-1.5 l 0,-1 c 0,0.831 -0.669,1.5 -1.5,1.5 l -13,0 C 4.669,19 4,18.331 4,17.5 Z"
       id="path3680" />
  </g>
</svg>
