<?xml version="1.0" encoding="UTF-8" standalone="no"?>
<!-- Created with Inkscape (http://www.inkscape.org/) -->

<svg
   xmlns:dc="http://purl.org/dc/elements/1.1/"
   xmlns:cc="http://creativecommons.org/ns#"
   xmlns:rdf="http://www.w3.org/1999/02/22-rdf-syntax-ns#"
   xmlns:svg="http://www.w3.org/2000/svg"
   xmlns="http://www.w3.org/2000/svg"
   xmlns:xlink="http://www.w3.org/1999/xlink"
   xmlns:sodipodi="http://sodipodi.sourceforge.net/DTD/sodipodi-0.dtd"
   xmlns:inkscape="http://www.inkscape.org/namespaces/inkscape"
   width="24"
   height="24"
   id="svg2"
   sodipodi:version="0.32"
   inkscape:version="0.91 r13725"
   version="1.0"
   sodipodi:docname="edit-find-replace.svg"
   inkscape:output_extension="org.inkscape.output.svg.inkscape"
   inkscape:export-filename="/home/matt/.icons/Sirocco/scalable/mimetypes/text-plain.png"
   inkscape:export-xdpi="90"
   inkscape:export-ydpi="90"
   sodipodi:modified="true"
   style="display:inline">
  <sodipodi:namedview
     id="base"
     pagecolor="#838383"
     bordercolor="#cc0000"
     borderopacity="1"
     inkscape:pageopacity="1"
     inkscape:pageshadow="2"
     inkscape:zoom="22.027845"
     inkscape:cx="9.982565"
     inkscape:cy="9.7038844"
     inkscape:document-units="px"
     inkscape:current-layer="layer1"
     width="128px"
     height="128px"
     inkscape:showpageshadow="false"
     inkscape:window-width="1366"
     inkscape:window-height="718"
     inkscape:window-x="0"
     inkscape:window-y="25"
     showguides="true"
     inkscape:guide-bbox="true"
     showgrid="true"
     inkscape:window-maximized="1"
     borderlayer="true">
    <inkscape:grid
       enabled="true"
       visible="true"
       id="grid3231"
       type="xygrid"
       empspacing="8"
       snapvisiblegridlinesonly="true" />
    <sodipodi:guide
       orientation="1,0"
       position="12,1"
       id="guide3791" />
    <sodipodi:guide
       orientation="0,1"
       position="14,9"
       id="guide3793" />
  </sodipodi:namedview>
  <defs
     id="defs4">
    <linearGradient
       id="StandardGradient"
       gradientTransform="scale(0.9219544,1.0846523)"
       x1="11.998966"
       y1="0.92195445"
       x2="11.998966"
       y2="19.387045"
       gradientUnits="userSpaceOnUse">
      <stop
         style="stop-color:#000000;stop-opacity:0.23529412;"
         offset="0"
         id="stop3283" />
      <stop
         id="stop5034"
         offset="0.69999999"
         style="stop-color:#000000;stop-opacity:0.39215686;" />
      <stop
         style="stop-color:#000000;stop-opacity:0.55;"
         offset="1"
         id="stop2651" />
    </linearGradient>
    <radialGradient
       inkscape:collect="always"
       xlink:href="#StandardGradient"
       id="radialGradient3996"
       cx="13"
       cy="13"
       fx="13"
       fy="13"
       r="8.5"
       gradientUnits="userSpaceOnUse"
       gradientTransform="matrix(1.4117647,0,0,1.2941177,-5.3529412,-3.8235294)" />
    <linearGradient
       id="StandardGradient-1"
       gradientTransform="matrix(0.9984539,0,0,0.9984539,-0.0459776,0.05767558)"
       x1="10.710332"
       y1="1.9963325"
       x2="10.710332"
       y2="18.974037"
       gradientUnits="userSpaceOnUse"
       xlink:href="#StandardGradient">
      <stop
         style="stop-color:#000000;stop-opacity:0.86274511;"
         offset="0"
         id="stop3277-0" />
      <stop
         style="stop-color:#000000;stop-opacity:0.47058824;"
         offset="1"
         id="stop3279-9" />
    </linearGradient>
    <linearGradient
       inkscape:collect="always"
       xlink:href="#StandardGradient"
       id="linearGradient4057"
       gradientUnits="userSpaceOnUse"
       gradientTransform="matrix(0.9984539,0,0,0.9984539,-0.045978,0.05767558)"
       x1="10.710332"
       y1="1.9963325"
       x2="10.710332"
       y2="18.974037" />
    <linearGradient
       inkscape:collect="always"
       xlink:href="#StandardGradient"
       id="linearGradient4061"
       gradientUnits="userSpaceOnUse"
       gradientTransform="matrix(0.9984539,0,0,0.9984539,-0.045978,0.05767558)"
       x1="10.710332"
       y1="1.9963325"
       x2="10.710332"
       y2="18.974037" />
    <linearGradient
       inkscape:collect="always"
       xlink:href="#StandardGradient"
       id="linearGradient4063"
       gradientUnits="userSpaceOnUse"
       gradientTransform="matrix(0.9984539,0,0,0.9984539,-0.045978,0.05767558)"
       x1="10.710332"
       y1="1.9963325"
       x2="10.710332"
       y2="18.974037" />
    <radialGradient
       inkscape:collect="always"
       xlink:href="#StandardGradient"
       id="radialGradient4066"
       cx="12.552255"
       cy="13.001266"
       fx="12.552255"
       fy="13.001266"
       r="8.5071697"
       gradientTransform="matrix(1.859867,0.0053364,-0.00341907,1.1916318,-10.300821,-3.5599546)"
       gradientUnits="userSpaceOnUse" />
    <radialGradient
       inkscape:collect="always"
       xlink:href="#StandardGradient"
       id="radialGradient3771"
       gradientUnits="userSpaceOnUse"
       gradientTransform="matrix(1.6456707,-7.3396897e-8,5.7668991e-8,1.293027,-28.39372,-3.810986)"
       cx="13"
       cy="13.001266"
       fx="13"
       fy="13.001266"
       r="8.5071697" />
    <radialGradient
       inkscape:collect="always"
       xlink:href="#StandardGradient"
       id="radialGradient3775"
       gradientUnits="userSpaceOnUse"
       gradientTransform="matrix(1.6456707,-7.3396897e-8,5.7668991e-8,1.293027,-28.39372,-3.810986)"
       cx="13"
       cy="13.001266"
       fx="13"
       fy="13.001266"
       r="8.5071697" />
  </defs>
  <metadata
     id="metadata7">
    <rdf:RDF>
      <cc:Work
         rdf:about="">
        <dc:format>image/svg+xml</dc:format>
        <dc:type
           rdf:resource="http://purl.org/dc/dcmitype/StillImage" />
        <dc:title></dc:title>
      </cc:Work>
    </rdf:RDF>
  </metadata>
  <g
     style="display:inline"
     inkscape:label="Calque 1"
     id="layer1"
     inkscape:groupmode="layer"
     transform="translate(0,2)">
    <path
       id="path4049"
       d="m 10.00025,0.99975 c -1.536279,0 -3.078694,0.5829855 -4.25,1.75 -2.342613,2.3340291 -2.342612,6.1347211 0,8.46875 2.042234,2.034753 5.204485,2.294195 7.53125,0.78125 0.395499,0.01976 1.023371,0.08759 1.25,0.34375 0.308577,0.348781 -0.123046,1.155928 0.46875,1.6875 l 3.6875,3.71875 c 10e-7,0 0.686587,0.747017 1.75,-0.3125 1.063414,-1.059517 0.3125,-1.75 0.3125,-1.75 l -3.6875,-3.71875 c -0.533529,-0.589628 -1.337437,-0.161305 -1.6875,-0.46875 -0.2571,-0.225798 -0.323912,-0.855949 -0.34375,-1.25 1.518509,-2.3182391 1.260985,-5.4652483 -0.78125,-7.5 -1.171307,-1.1670144 -2.713722,-1.75 -4.25,-1.75 z m 0.03125,2 c 2.208637,0 4,1.7682063 4,3.96875 0,2.200545 -1.791363,4 -4,4 -2.208635,10e-7 -4,-1.799455 -4,-4 0,-1.1002715 0.432041,-2.1221947 1.15625,-2.84375 0.724209,-0.7215551 1.739432,-1.1249999 2.84375,-1.125 z m -5.03125,13 c -0.552,0 -1,0.448001 -1,1 0,0.552 0.448,1.000001 1,1 0.552,0 1,-0.447999 1,-1 0,-0.552 -0.448,-0.999999 -1,-1 z m 3,0 c -0.552,0 -1,0.448001 -1,1 0,0.552 0.448,1.000001 1,1 0.552,0 1,-0.447999 1,-1 0,-0.552 -0.448,-0.999999 -1,-1 z m 3,0 c -0.552,0 -1,0.448001 -1,1 0,0.552 0.448,1.000001 1,1 0.552,0 1,-0.447999 1,-1 0,-0.552 -0.448,-0.999999 -1,-1 z"
       style="display:inline;fill:url(#radialGradient4066);fill-opacity:1;stroke:none"
       inkscape:connector-curvature="0" />
    <path
       style="display:inline;opacity:0.3;fill:#000000;fill-opacity:1;stroke:none"
       d="m 10.00025,0.99975 c -1.536279,0 -3.078694,0.5829855 -4.25,1.75 -2.342613,2.3340291 -2.342612,6.1347211 0,8.46875 2.042234,2.034753 5.204485,2.294195 7.53125,0.78125 0.395499,0.01976 1.023371,0.08759 1.25,0.34375 0.308577,0.348781 -0.123046,1.155928 0.46875,1.6875 l 3.6875,3.71875 c 10e-7,0 0.686587,0.747017 1.75,-0.3125 1.063414,-1.059517 0.3125,-1.75 0.3125,-1.75 l -3.6875,-3.71875 c -0.533529,-0.589628 -1.337437,-0.161305 -1.6875,-0.46875 -0.2571,-0.225798 -0.323912,-0.855949 -0.34375,-1.25 1.518509,-2.3182391 1.260985,-5.4652483 -0.78125,-7.5 -1.171307,-1.1670144 -2.713722,-1.75 -4.25,-1.75 z m 0,0.5625 c 1.391599,0 2.782809,0.5366973 3.84375,1.59375 1.850405,1.8436248 2.091033,4.6862476 0.71875,6.78125 A 0.57194236,0.57194236 0 0 0 14.469,10.281 c 0.01077,0.213935 0.03112,0.494419 0.09375,0.78125 0.06263,0.286831 0.129214,0.604248 0.4375,0.875 0.218528,0.191924 0.466232,0.232429 0.65625,0.25 0.190018,0.01757 0.365642,-0.0022 0.5,0 0.268716,0.0044 0.344091,0.01848 0.46875,0.15625 a 0.57194236,0.57194236 0 0 0 0.03125,0.03125 l 3.6875,3.71875 a 0.57194236,0.57194236 0 0 0 0.03125,0 c 0,0 0.04125,0.06919 0.0625,0.1875 0.02125,0.11831 0.03378,0.311587 -0.40625,0.75 -0.440507,0.438893 -0.663168,0.427308 -0.78125,0.40625 -0.118082,-0.02106 -0.15625,-0.0625 -0.15625,-0.0625 a 0.57194236,0.57194236 0 0 0 0,-0.03125 L 15.4065,13.62475 A 0.57194236,0.57194236 0 0 0 15.37525,13.5935 c -0.137426,-0.123441 -0.152247,-0.199773 -0.15625,-0.46875 -0.002,-0.134488 0.01743,-0.30958 0,-0.5 -0.01743,-0.19042 -0.05648,-0.437516 -0.25,-0.65625 -0.270386,-0.305619 -0.588529,-0.374713 -0.875,-0.4375 -0.286471,-0.06279 -0.565992,-0.083 -0.78125,-0.09375 A 0.57194236,0.57194236 0 0 0 12.969,11.531 C 10.865808,12.89857 8.006852,12.655823 6.1565,10.81225 4.033786,8.6973136 4.033785,5.2709366 6.1565,3.156 7.21744,2.0989474 8.60865,1.56225 10.00025,1.56225 Z m 0.03125,0.875 c -1.243604,10e-8 -2.411991,0.4463123 -3.25,1.28125 -0.834903,0.8318439 -1.3125,2.0000213 -1.3125,3.25 0,2.510909 2.043241,4.562501 4.5625,4.5625 2.51926,0 4.5625,-2.051591 4.5625,-4.5625 0,-2.5109076 -2.048634,-4.53125 -4.5625,-4.53125 z m 0,0.5625 c 2.208637,0 4,1.7682063 4,3.96875 0,2.200545 -1.791363,4 -4,4 -2.208635,10e-7 -4,-1.799455 -4,-4 0,-1.1002715 0.432041,-2.1221947 1.15625,-2.84375 0.724209,-0.7215551 1.739432,-1.1249999 2.84375,-1.125 z m -5.03125,13 c -0.552,0 -1,0.448001 -1,1 0,0.552 0.448,1.000001 1,1 0.552,0 1,-0.447999 1,-1 0,-0.552 -0.448,-0.999999 -1,-1 z m 3,0 c -0.552,0 -1,0.448001 -1,1 0,0.552 0.448,1.000001 1,1 0.552,0 1,-0.447999 1,-1 0,-0.552 -0.448,-0.999999 -1,-1 z m 3,0 c -0.552,0 -1,0.448001 -1,1 0,0.552 0.448,1.000001 1,1 0.552,0 1,-0.447999 1,-1 0,-0.552 -0.448,-0.999999 -1,-1 z m -6,0.5625 c 0.242575,0 0.4375,0.194926 0.4375,0.4375 0,0.242576 -0.194925,0.4375 -0.4375,0.4375 -0.242573,0 -0.4375,-0.194926 -0.4375,-0.4375 0,-0.242573 0.194926,-0.4375 0.4375,-0.4375 z m 3,0 c 0.242575,0 0.4375,0.194926 0.4375,0.4375 0,0.242576 -0.194925,0.4375 -0.4375,0.4375 -0.242573,0 -0.4375,-0.194926 -0.4375,-0.4375 0,-0.242573 0.194926,-0.4375 0.4375,-0.4375 z m 3,0 c 0.242575,0 0.4375,0.194926 0.4375,0.4375 0,0.242576 -0.194925,0.4375 -0.4375,0.4375 -0.242573,0 -0.4375,-0.194926 -0.4375,-0.4375 0,-0.242573 0.194926,-0.4375 0.4375,-0.4375 z"
       id="path4053"
       inkscape:connector-curvature="0" />
    <path
       inkscape:connector-curvature="0"
       style="display:inline;opacity:0.05;fill:#ffffff;fill-opacity:1;stroke:none"
       d="m 10.00025,-0.0315 c -1.798283,0 -3.5975773,0.6963515 -4.96875,2.0625 -2.7408344,2.7307918 -2.740834,7.175458 0,9.90625 2.2774457,2.269103 5.720563,2.630877 8.40625,1.125 0.06519,0.0066 0.128084,0.02193 0.1875,0.03125 1.93e-4,0.0167 -2.63e-4,0.01355 0,0.03125 0.0056,0.373726 0.102761,1.105618 0.625,1.625 0.02196,0.02183 0.03899,0.04138 0.0625,0.0625 l 3.625,3.625 0.03125,0 c 0.01881,0.0199 0.372704,0.450634 1,0.5625 0.642297,0.114541 1.490637,-0.14944 2.1875,-0.84375 0.697736,-0.695179 0.959306,-1.544247 0.84375,-2.1875 C 21.891564,15.363487 21.516222,15.045397 21.469,14.99975 L 21.50025,14.9685 17.844,11.281 c -0.01057,-0.01168 -0.0205,-0.01996 -0.03125,-0.03125 -0.522263,-0.548562 -1.275322,-0.650069 -1.65625,-0.65625 -0.01767,-2.87e-4 -0.01458,2.15e-4 -0.03125,0 C 16.11595,10.53399 16.10053,10.471322 16.094,10.406 17.606075,7.728892 17.246356,4.3000107 14.969,2.031 13.597827,0.6648519 11.798533,-0.0315 10.00025,-0.0315 Z m 0,1.03125 c 1.536278,0 3.078693,0.5829856 4.25,1.75 2.042235,2.0347517 2.299759,5.1817609 0.78125,7.5 0.01984,0.394051 0.08665,1.024202 0.34375,1.25 0.350063,0.307445 1.153971,-0.120878 1.6875,0.46875 l 3.6875,3.71875 c 0,0 0.750914,0.690483 -0.3125,1.75 -1.063413,1.059517 -1.749999,0.3125 -1.75,0.3125 L 15.00025,14.031 c -0.591796,-0.531572 -0.160173,-1.338719 -0.46875,-1.6875 -0.226629,-0.256157 -0.854501,-0.323985 -1.25,-0.34375 -2.326765,1.512945 -5.4890156,1.253503 -7.53125,-0.78125 -2.3426122,-2.3340289 -2.3426126,-6.1347209 0,-8.46875 1.1713063,-1.1670145 2.7137215,-1.75 4.25,-1.75 z m 0.03125,2 c -1.104318,10e-8 -2.119541,0.4034449 -2.84375,1.125 C 6.4635413,4.8463053 6.0315002,5.8682285 6.0315,6.9685 c 0,2.200545 1.7913655,4.000001 4,4 2.208637,0 4,-1.799455 4,-4 0,-2.2005437 -1.791363,-3.96875 -4,-3.96875 z m 0,1.03125 c 1.655886,0 2.96875,1.2990057 2.96875,2.9375 0,1.6384959 -1.322632,2.96875 -2.96875,2.96875 C 8.3853862,9.937251 7.06275,8.6069951 7.06275,6.9685 7.0627502,6.1393387 7.3827514,5.3653296 7.9065,4.8435 8.4246251,4.3272736 9.1794202,4.0310001 10.0315,4.031 Z M 5.00025,14.9685 c -1.1123519,0 -2.0312498,0.9189 -2.03125,2.03125 0,1.112351 0.9188971,2.031252 2.03125,2.03125 0.6163502,0 1.1246474,-0.307961 1.5,-0.75 0.3753525,0.442039 0.8836478,0.750001 1.5,0.75 0.6163502,0 1.1246474,-0.307961 1.5,-0.75 0.3753525,0.442039 0.883648,0.750001 1.5,0.75 1.112349,0 2.03125,-0.918899 2.03125,-2.03125 0,-1.112351 -0.918902,-2.031248 -2.03125,-2.03125 -0.616352,0 -1.1246478,0.307961 -1.5,0.75 -0.3753522,-0.442038 -0.8836503,-0.749999 -1.5,-0.75 -0.6163516,0 -1.1246478,0.307961 -1.5,0.75 -0.3753522,-0.442038 -0.8836503,-0.749999 -1.5,-0.75 z m 0,1.03125 c 0.5520002,10e-7 1,0.448 1,1 2e-7,0.552001 -0.448,1 -1,1 -0.5519999,1e-6 -1,-0.448 -1,-1 10e-8,-0.551999 0.448,-1 1,-1 z m 3,0 c 0.5520001,10e-7 1,0.448 1,1 1e-7,0.552001 -0.448,1 -1,1 -0.552,1e-6 -1,-0.448 -1,-1 0,-0.551999 0.448,-1 1,-1 z m 3,0 c 0.552,10e-7 1,0.448 1,1 0,0.552001 -0.448,1 -1,1 -0.552,1e-6 -1,-0.448 -1,-1 0,-0.551999 0.448,-1 1,-1 z"
       id="path3163" />
    <path
       inkscape:connector-curvature="0"
       style="display:inline;opacity:0.3;fill:#000000;fill-opacity:1;stroke:none"
       d="m 10.00025,0.99975 c -1.5362785,0 -3.0786937,0.5829855 -4.25,1.75 C 4.4709538,4.0243588 3.9135539,5.7376064 4.0315,7.406 4.1596116,6.0716532 4.725357,4.7708877 5.75025,3.74975 c 2.3426125,-2.3340289 6.157387,-2.3340289 8.5,0 1.060966,1.0570783 1.616175,2.3991537 1.71875,3.78125 0.160261,-1.7125297 -0.4022,-3.4695237 -1.71875,-4.78125 -1.171307,-1.1670144 -2.713722,-1.75 -4.25,-1.75 z M 6.06275,7.4685 c -0.022142,0.1707703 -0.03125,0.3242014 -0.03125,0.5 0,2.200545 1.7913655,4.000001 4,4 2.208637,0 4,-1.799455 4,-4 0,-0.1761476 -0.04024,-0.3298739 -0.0625,-0.5 -0.247224,1.964588 -1.898944,3.5 -3.9375,3.5 -2.0389269,10e-7 -3.7220066,-1.53489 -3.96875,-3.5 z m 9.09375,3.5625 c -0.04289,0.07199 -0.0788,0.14822 -0.125,0.21875 0.01984,0.394051 0.08665,1.024202 0.34375,1.25 0.350063,0.307445 1.153971,-0.120878 1.6875,0.46875 l 3.6875,3.71875 c 0,0 0.06631,0.05798 0.125,0.15625 0.351597,-0.713095 -0.125,-1.15625 -0.125,-1.15625 L 17.06275,11.9685 C 16.529221,11.378872 15.725313,11.807195 15.37525,11.49975 15.26616,11.403941 15.205491,11.224577 15.1565,11.031 Z M 5.00025,15.99975 c -0.552,0 -0.9999999,0.448001 -1,1 0,0.187223 0.066598,0.350127 0.15625,0.5 0.1746735,-0.292006 0.4789729,-0.5 0.84375,-0.5 0.3647772,0 0.6690766,0.207994 0.84375,0.5 0.089652,-0.149873 0.1562501,-0.312777 0.15625,-0.5 0,-0.552 -0.4479998,-0.999999 -1,-1 z m 3,0 c -0.552,0 -1,0.448001 -1,1 0,0.187223 0.066598,0.350127 0.15625,0.5 0.1746735,-0.292006 0.4789729,-0.5 0.84375,-0.5 0.3647771,0 0.6690765,0.207994 0.84375,0.5 0.089652,-0.149873 0.15625,-0.312777 0.15625,-0.5 0,-0.552 -0.4479999,-0.999999 -1,-1 z m 3,0 c -0.552,0 -1,0.448001 -1,1 0,0.187223 0.0666,0.350127 0.15625,0.5 0.174674,-0.292006 0.478973,-0.5 0.84375,-0.5 0.364777,0 0.669077,0.207994 0.84375,0.5 0.08965,-0.149873 0.15625,-0.312777 0.15625,-0.5 0,-0.552 -0.448,-0.999999 -1,-1 z"
       id="BevelShadow" />
    <path
       inkscape:connector-curvature="0"
       style="display:inline;opacity:0.2;fill:#ffffff;fill-opacity:1;stroke:none"
       d="m 14.25025,2.74975 c 0.234153,0.2332948 0.43742,0.4906755 0.625,0.75 -0.187898,-0.2612955 -0.388696,-0.5145619 -0.625,-0.75 z m -4.21875,0.25 c -1.104318,10e-8 -2.119541,0.4034449 -2.84375,1.125 C 6.4635413,4.8463053 6.0315002,5.8682285 6.0315,6.9685 c 0,0.1585687 0.013154,0.3150041 0.03125,0.46875 0.1215325,-0.8863612 0.5234939,-1.7131977 1.125,-2.3125 0.724209,-0.7215553 1.739432,-1.1249999 2.84375,-1.125 2.031841,0 3.68167,1.5135567 3.9375,3.46875 0.02063,-0.1639099 0.0625,-0.330542 0.0625,-0.5 0,-2.2005437 -1.791363,-3.96875 -4,-3.96875 z m 5.75,2.4375 c 0.05906,0.2194535 0.09142,0.4326031 0.125,0.65625 C 15.87378,5.8703428 15.83954,5.656074 15.7815,5.43725 Z M 4.00025,7.06225 C 3.9955067,7.1769522 3.969,7.2907027 3.969,7.406 l 0,0.15625 c 1e-7,1.669753 0.5040758,3.383755 1.78125,4.65625 2.0422344,2.034753 5.204485,2.294195 7.53125,0.78125 0.395499,0.01976 1.023371,0.08759 1.25,0.34375 0.308577,0.348781 -0.123046,1.155928 0.46875,1.6875 l 3.6875,3.71875 c 10e-7,0 0.688533,0.748967 1.75,-0.3125 0.681159,-0.681159 0.59375,-1.323954 0.59375,-1.59375 0,-0.202123 -0.02488,-0.28324 -0.03125,-0.40625 -0.03379,0.270251 -0.176501,0.615416 -0.5625,1 -1.063413,1.059517 -1.749999,0.3125 -1.75,0.3125 L 15.00025,14.031 C 14.408454,13.499428 14.840077,12.692281 14.5315,12.3435 14.304871,12.087343 13.676999,12.019515 13.2815,11.99975 10.954735,13.512695 7.7924844,13.253253 5.75025,11.2185 4.5972455,10.06972 4.0162068,8.5709827 4.00025,7.06225 Z M 6.06275,7.531 C 6.089745,7.7220246 6.134557,7.9121533 6.18775,8.0935 6.134363,7.9114624 6.08982,7.7225456 6.06275,7.531 Z M 15.969,7.56225 c -0.09217,0.9334464 -0.403706,1.87258 -0.9375,2.6875 0.01142,0.22685 0.05853,0.518613 0.125,0.78125 0.628932,-1.055735 0.894514,-2.2810589 0.8125,-3.46875 z m -9,1.96875 C 7.0897504,9.67513 7.2042813,9.811421 7.344,9.93725 7.2114487,9.816615 7.0844053,9.668179 6.969,9.531 Z m 5.0625,0.875 c -0.182742,0.108878 -0.362077,0.202661 -0.5625,0.28125 0.202165,-0.07765 0.377696,-0.17336 0.5625,-0.28125 z m -3.96875,0.03125 c 0.1691653,0.0954 0.3479277,0.179591 0.53125,0.25 -0.1810877,-0.07052 -0.3640381,-0.154954 -0.53125,-0.25 z m -4.0625,6.5625 c 0,0.187223 0,0.350127 0,0.5 10e-8,0.149873 0,0.312777 0,0.5 0,0.552 0.4480001,1.000001 1,1 0.552,0 1.0000002,-0.447999 1,-1 0,-0.187223 0,-0.350127 0,-0.5 0,-0.149873 10e-8,-0.312777 0,-0.5 2e-7,0.552001 -0.448,1 -1,1 -0.5519999,1e-6 -1,-0.448 -1,-1 z m 3,0 c 0,0.187223 0,0.350127 0,0.5 0,0.149873 0,0.312777 0,0.5 0,0.552 0.448,1.000001 1,1 0.552,0 1,-0.447999 1,-1 0,-0.187223 0,-0.350127 0,-0.5 0,-0.149873 0,-0.312777 0,-0.5 0,0.552001 -0.448,1 -1,1 -0.552,1e-6 -1,-0.448 -1,-1 z m 3,0 c 0,0.187223 0,0.350127 0,0.5 0,0.149873 0,0.312777 0,0.5 0,0.552 0.448,1.000001 1,1 0.552,0 1,-0.447999 1,-1 0,-0.187223 0,-0.350127 0,-0.5 0,-0.149873 0,-0.312777 0,-0.5 0,0.552001 -0.448,1 -1,1 -0.552,1e-6 -1,-0.448 -1,-1 z"
       id="BevelHighlight" />
  </g>
</svg>
