<?xml version="1.0" encoding="UTF-8" standalone="no"?>
<!-- Created with Inkscape (http://www.inkscape.org/) -->

<svg
   xmlns:dc="http://purl.org/dc/elements/1.1/"
   xmlns:cc="http://creativecommons.org/ns#"
   xmlns:rdf="http://www.w3.org/1999/02/22-rdf-syntax-ns#"
   xmlns:svg="http://www.w3.org/2000/svg"
   xmlns="http://www.w3.org/2000/svg"
   xmlns:xlink="http://www.w3.org/1999/xlink"
   xmlns:sodipodi="http://sodipodi.sourceforge.net/DTD/sodipodi-0.dtd"
   xmlns:inkscape="http://www.inkscape.org/namespaces/inkscape"
   width="24"
   height="24"
   id="svg2"
   sodipodi:version="0.32"
   inkscape:version="0.91 r13725"
   version="1.0"
   sodipodi:docname="edit-paste.svg"
   inkscape:output_extension="org.inkscape.output.svg.inkscape"
   inkscape:export-filename="/home/matt/.icons/Sirocco/scalable/mimetypes/text-plain.png"
   inkscape:export-xdpi="90"
   inkscape:export-ydpi="90"
   sodipodi:modified="true"
   style="display:inline">
  <sodipodi:namedview
     id="base"
     pagecolor="#838383"
     bordercolor="#cc0000"
     borderopacity="1"
     inkscape:pageopacity="1"
     inkscape:pageshadow="2"
     inkscape:zoom="22.027845"
     inkscape:cx="10.173492"
     inkscape:cy="11.724225"
     inkscape:document-units="px"
     inkscape:current-layer="layer1"
     width="128px"
     height="128px"
     inkscape:showpageshadow="false"
     inkscape:window-width="1366"
     inkscape:window-height="718"
     inkscape:window-x="0"
     inkscape:window-y="25"
     showguides="true"
     inkscape:guide-bbox="true"
     showgrid="true"
     inkscape:window-maximized="1"
     borderlayer="true">
    <inkscape:grid
       enabled="true"
       visible="true"
       id="grid3231"
       type="xygrid"
       empspacing="8"
       snapvisiblegridlinesonly="true" />
    <sodipodi:guide
       orientation="1,0"
       position="12,6"
       id="guide3791" />
    <sodipodi:guide
       orientation="0,1"
       position="14,9"
       id="guide3793" />
  </sodipodi:namedview>
  <defs
     id="defs4">
    <linearGradient
       inkscape:collect="always"
       xlink:href="#StandardGradient"
       id="linearGradient2549"
       gradientUnits="userSpaceOnUse"
       gradientTransform="matrix(0.9247229,0,0,1.0872097,16.939944,2.9976422)"
       x1="11.998966"
       y1="0.92195445"
       x2="11.998966"
       y2="17.478098" />
    <inkscape:perspective
       sodipodi:type="inkscape:persp3d"
       inkscape:vp_x="0 : 11 : 1"
       inkscape:vp_y="0 : 1000 : 0"
       inkscape:vp_z="22 : 11 : 1"
       inkscape:persp3d-origin="11 : 7.3333333 : 1"
       id="perspective19" />
    <linearGradient
       id="StandardGradient"
       gradientTransform="scale(0.9219544,1.0846523)"
       x1="11.998966"
       y1="0.92195445"
       x2="11.998966"
       y2="19.387045"
       gradientUnits="userSpaceOnUse">
      <stop
         style="stop-color:#000000;stop-opacity:0.23529412;"
         offset="0"
         id="stop3283" />
      <stop
         id="stop3839"
         offset="0.69999999"
         style="stop-color:#000000;stop-opacity:0.39215686;" />
      <stop
         style="stop-color:#000000;stop-opacity:0.55;"
         offset="1"
         id="stop2651" />
    </linearGradient>
    <linearGradient
       inkscape:collect="always"
       xlink:href="#StandardGradient"
       id="linearGradient2406"
       gradientUnits="userSpaceOnUse"
       gradientTransform="matrix(0.9219544,0,0,1.0846523,0,-1)"
       x1="11.998966"
       y1="2.7658634"
       x2="11.998966"
       y2="19.387045" />
    <linearGradient
       inkscape:collect="always"
       xlink:href="#StandardGradient"
       id="linearGradient3198"
       gradientUnits="userSpaceOnUse"
       gradientTransform="matrix(0.9219544,0,0,1.0846523,0,-1)"
       x1="11.998966"
       y1="2.7658634"
       x2="11.998966"
       y2="19.387045" />
    <linearGradient
       inkscape:collect="always"
       xlink:href="#StandardGradient"
       id="linearGradient4636"
       gradientUnits="userSpaceOnUse"
       gradientTransform="matrix(0.9219544,0,0,1.0846523,-0.01723507,0.96875)"
       x1="11.998966"
       y1="2.7658634"
       x2="11.998966"
       y2="15.702114" />
    <linearGradient
       inkscape:collect="always"
       xlink:href="#StandardGradient"
       id="linearGradient2397"
       gradientUnits="userSpaceOnUse"
       gradientTransform="matrix(0.9219544,0,0,1.0846523,-0.01723507,0.96875)"
       x1="11.998966"
       y1="2.7658634"
       x2="11.998966"
       y2="15.702114" />
    <linearGradient
       inkscape:collect="always"
       xlink:href="#StandardGradient"
       id="linearGradient2402"
       gradientUnits="userSpaceOnUse"
       gradientTransform="matrix(0.9219544,0,0,1.0846523,-0.01723507,0.96875)"
       x1="11.998966"
       y1="2.7658634"
       x2="11.998966"
       y2="15.702114" />
    <linearGradient
       inkscape:collect="always"
       xlink:href="#StandardGradient"
       id="linearGradient2405"
       gradientUnits="userSpaceOnUse"
       gradientTransform="matrix(0.9219544,0,0,1.0846523,-0.01723507,-0.03125)"
       x1="11.998966"
       y1="2.7658634"
       x2="11.998966"
       y2="15.702114" />
    <linearGradient
       inkscape:collect="always"
       xlink:href="#StandardGradient"
       id="linearGradient2415"
       gradientUnits="userSpaceOnUse"
       gradientTransform="matrix(0.9219544,0,0,1.0846523,-0.01723507,-0.03125)"
       x1="11.998966"
       y1="2.7658634"
       x2="11.998966"
       y2="15.702114" />
    <linearGradient
       inkscape:collect="always"
       xlink:href="#StandardGradient"
       id="linearGradient2407"
       gradientUnits="userSpaceOnUse"
       gradientTransform="matrix(0.9219544,0,0,1.0846523,-0.01723507,-1.03125)"
       x1="11.998966"
       y1="2.7658634"
       x2="11.998966"
       y2="15.702114" />
    <linearGradient
       inkscape:collect="always"
       xlink:href="#StandardGradient"
       id="linearGradient2542"
       gradientUnits="userSpaceOnUse"
       gradientTransform="matrix(0.9247229,0,0,1.0872097,-2.060056,5.9976422)"
       x1="11.998966"
       y1="0.92195445"
       x2="11.998966"
       y2="17.478098" />
    <linearGradient
       inkscape:collect="always"
       xlink:href="#StandardGradient"
       id="linearGradient2551"
       gradientUnits="userSpaceOnUse"
       gradientTransform="matrix(0.9219544,0,0,1.0846523,-0.01723507,-1.03125)"
       x1="11.998966"
       y1="2.7658634"
       x2="11.998966"
       y2="15.702114" />
    <linearGradient
       inkscape:collect="always"
       xlink:href="#StandardGradient"
       id="linearGradient2554"
       gradientUnits="userSpaceOnUse"
       gradientTransform="matrix(0.9219544,0,0,1.0846523,-0.01723507,-1.03125)"
       x1="11.998966"
       y1="2.7658634"
       x2="11.998966"
       y2="15.702114" />
    <linearGradient
       inkscape:collect="always"
       xlink:href="#StandardGradient"
       id="linearGradient2424"
       gradientUnits="userSpaceOnUse"
       gradientTransform="matrix(0.9219544,0,0,1.0846523,-0.01723507,-0.03125)"
       x1="11.998966"
       y1="2.7658634"
       x2="11.998966"
       y2="15.702114" />
    <linearGradient
       inkscape:collect="always"
       xlink:href="#StandardGradient"
       id="linearGradient3208"
       gradientUnits="userSpaceOnUse"
       gradientTransform="matrix(0.9219544,0,0,1.0846523,-0.01723507,-0.03125)"
       x1="11.998966"
       y1="2.7658634"
       x2="11.998966"
       y2="15.702114" />
    <linearGradient
       inkscape:collect="always"
       xlink:href="#StandardGradient"
       id="linearGradient3213"
       gradientUnits="userSpaceOnUse"
       gradientTransform="matrix(0.9219544,0,0,1.0846523,-0.01723507,-0.03125)"
       x1="11.998966"
       y1="2.7658634"
       x2="11.998966"
       y2="15.702114" />
    <linearGradient
       inkscape:collect="always"
       xlink:href="#StandardGradient"
       id="linearGradient3221"
       gradientUnits="userSpaceOnUse"
       gradientTransform="matrix(0.9219544,0,0,1.0846523,-0.01723507,-0.03125)"
       x1="11.998966"
       y1="2.7658634"
       x2="11.998966"
       y2="15.702114" />
    <inkscape:perspective
       id="perspective2850"
       inkscape:persp3d-origin="0.5 : 0.33333333 : 1"
       inkscape:vp_z="1 : 0.5 : 1"
       inkscape:vp_y="0 : 1000 : 0"
       inkscape:vp_x="0 : 0.5 : 1"
       sodipodi:type="inkscape:persp3d" />
    <linearGradient
       inkscape:collect="always"
       xlink:href="#StandardGradient"
       id="linearGradient3644"
       gradientUnits="userSpaceOnUse"
       gradientTransform="matrix(0.9219544,0,0,1.0846523,-30.017235,-0.03125)"
       x1="11.998966"
       y1="2.7658634"
       x2="11.998966"
       y2="15.702114" />
    <clipPath
       clipPathUnits="userSpaceOnUse"
       id="clipPath3651">
      <path
         style="display:inline;fill:#ff00ff;fill-opacity:1;stroke:none"
         d="m -30,0 0,22 22,0 0,-22 -22,0 z m 4,2 3.96875,0 c 0.554,0 1,0.446 1,1 l 0,1 8.5,0 c 0.669688,0 1.243585,0.3963931 1.4375,1 C -11.04026,5.1544781 -11,5.326875 -11,5.5 l 0,0.5 -5,0 -1,0 -4.21875,0 L -27,6 l 0,-1 0,-2 c 0,-0.554 0.446,-1 1,-1 z m -0.5,5 5,0 8,0 2,0 c 0.831,0 1.5,0.669 1.5,1.5 l 0,8 c 0,0.831 -0.669,1.5 -1.5,1.5 l -0.5,0 0,0.25 0,1.25 c 0,0.831 -0.669,1.5 -1.5,1.5 l -8,0 c -0.831,0 -1.5,-0.669 -1.5,-1.5 l 0,-1.5 -3.5,0 c -0.831,0 -1.5,-0.669 -1.5,-1.5 l 0,-8 C -28,7.669 -27.331,7 -26.5,7 Z m 6,2 C -20.777,9 -21,9.223 -21,9.5 l 0,9 c 0,0.277 0.223,0.5 0.5,0.5 l 6,0 c 0.277,0 0.5,-0.223 0.5,-0.5 l 0,-9 C -14,9.223 -14.223,9 -14.5,9 l -2.90625,0 -2.09375,0 -1,0 z"
         id="path3653"
         inkscape:connector-curvature="0" />
    </clipPath>
    <linearGradient
       inkscape:collect="always"
       xlink:href="#StandardGradient"
       id="linearGradient5006"
       gradientUnits="userSpaceOnUse"
       gradientTransform="matrix(0.9219544,0,0,1.0846523,-0.01723507,-0.03125)"
       x1="11.998966"
       y1="2.7658634"
       x2="11.998966"
       y2="15.702114" />
    <linearGradient
       inkscape:collect="always"
       xlink:href="#StandardGradient"
       id="linearGradient5010"
       gradientUnits="userSpaceOnUse"
       gradientTransform="matrix(0.9219544,0,0,1.0846523,-0.01723507,-0.03125)"
       x1="11.998966"
       y1="2.7658634"
       x2="11.998966"
       y2="15.702114" />
    <radialGradient
       inkscape:collect="always"
       xlink:href="#StandardGradient"
       id="radialGradient3799"
       gradientUnits="userSpaceOnUse"
       gradientTransform="matrix(1.1111111,-7.219351e-8,7.2193516e-8,1.1111112,-1.6666678,-1.4619872)"
       cx="15"
       cy="14.815789"
       fx="15"
       fy="14.815789"
       r="9" />
    <radialGradient
       inkscape:collect="always"
       xlink:href="#StandardGradient"
       id="radialGradient3803"
       gradientUnits="userSpaceOnUse"
       gradientTransform="matrix(1.1111111,-7.219351e-8,7.2193516e-8,1.1111112,-1.6666678,-1.4619872)"
       cx="15"
       cy="14.815789"
       fx="15"
       fy="14.815789"
       r="9" />
    <radialGradient
       inkscape:collect="always"
       xlink:href="#StandardGradient"
       id="radialGradient3805"
       gradientUnits="userSpaceOnUse"
       gradientTransform="matrix(1.1111111,-7.219351e-8,7.2193516e-8,1.1111112,-1.6666678,-1.4619872)"
       cx="15"
       cy="14.815789"
       fx="15"
       fy="14.815789"
       r="9" />
    <linearGradient
       id="StandardGradient-5"
       gradientTransform="scale(0.9219544,1.0846523)"
       x1="11.998966"
       y1="0.92195445"
       x2="11.998966"
       y2="19.387045"
       gradientUnits="userSpaceOnUse">
      <stop
         style="stop-color:#000000;stop-opacity:0.86274511;"
         offset="0"
         id="stop3283-0" />
      <stop
         style="stop-color:#000000;stop-opacity:0.47058824;"
         offset="1"
         id="stop2651-4" />
    </linearGradient>
    <radialGradient
       inkscape:collect="always"
       xlink:href="#StandardGradient"
       id="radialGradient3841"
       cx="13"
       cy="12.666667"
       fx="13"
       fy="12.666667"
       r="7.5"
       gradientTransform="matrix(1.4666667,2.8697193e-8,-2.8697193e-8,1.4666667,-6.0666663,-5.5777789)"
       gradientUnits="userSpaceOnUse" />
    <linearGradient
       id="StandardGradient-6"
       gradientTransform="scale(0.9219544,1.0846523)"
       x1="11.998966"
       y1="0.92195445"
       x2="11.998966"
       y2="19.387045"
       gradientUnits="userSpaceOnUse">
      <stop
         style="stop-color:#000000;stop-opacity:0.86274511;"
         offset="0"
         id="stop3283-5" />
      <stop
         style="stop-color:#000000;stop-opacity:0.47058824;"
         offset="1"
         id="stop2651-0" />
    </linearGradient>
    <radialGradient
       inkscape:collect="always"
       xlink:href="#StandardGradient"
       id="radialGradient3883"
       cx="13"
       cy="12.5"
       fx="13"
       fy="12.5"
       r="7.5"
       gradientTransform="matrix(2.5333335,0,0,1.6,-19.933336,-6.9999997)"
       gradientUnits="userSpaceOnUse" />
    <radialGradient
       inkscape:collect="always"
       xlink:href="#StandardGradient"
       id="radialGradient3889"
       gradientUnits="userSpaceOnUse"
       gradientTransform="matrix(2,1.0769231e-7,-8.615385e-8,1.6,-13,-7.0000011)"
       cx="13"
       cy="12.5"
       fx="13"
       fy="12.5"
       r="7.5" />
    <radialGradient
       inkscape:collect="always"
       xlink:href="#StandardGradient"
       id="radialGradient3893"
       gradientUnits="userSpaceOnUse"
       gradientTransform="matrix(2,1.0769231e-7,-8.615385e-8,1.6,-13,-7.0000011)"
       cx="13"
       cy="12.5"
       fx="13"
       fy="12.5"
       r="7.5" />
    <radialGradient
       inkscape:collect="always"
       xlink:href="#StandardGradient"
       id="radialGradient3895"
       gradientUnits="userSpaceOnUse"
       gradientTransform="matrix(2,1.0769231e-7,-8.615385e-8,1.6,-13,-7.0000011)"
       cx="13"
       cy="12.5"
       fx="13"
       fy="12.5"
       r="7.5" />
    <radialGradient
       inkscape:collect="always"
       xlink:href="#StandardGradient"
       id="radialGradient3800"
       gradientUnits="userSpaceOnUse"
       gradientTransform="matrix(2,1.0769231e-7,-8.615385e-8,1.6,-33,-7.0000011)"
       cx="13"
       cy="12.5"
       fx="13"
       fy="12.5"
       r="7.5" />
    <radialGradient
       inkscape:collect="always"
       xlink:href="#StandardGradient"
       id="radialGradient3804"
       gradientUnits="userSpaceOnUse"
       gradientTransform="matrix(2,1.0769231e-7,-8.615385e-8,1.6,-33,-7.0000011)"
       cx="13"
       cy="12.5"
       fx="13"
       fy="12.5"
       r="7.5" />
    <radialGradient
       inkscape:collect="always"
       xlink:href="#StandardGradient"
       id="radialGradient3834"
       gradientUnits="userSpaceOnUse"
       gradientTransform="matrix(2.5333335,0,0,1.6,-19.933336,-5.9999997)"
       cx="13"
       cy="12.5"
       fx="13"
       fy="12.5"
       r="7.5" />
    <radialGradient
       inkscape:collect="always"
       xlink:href="#StandardGradient"
       id="radialGradient3836"
       gradientUnits="userSpaceOnUse"
       gradientTransform="matrix(2.5333335,0,0,1.6,-19.933336,-6.9999997)"
       cx="13"
       cy="12.5"
       fx="13"
       fy="12.5"
       r="7.5" />
    <radialGradient
       inkscape:collect="always"
       xlink:href="#StandardGradient"
       id="radialGradient3848"
       gradientUnits="userSpaceOnUse"
       gradientTransform="matrix(2.1333333,0,0,1.4666667,-14.666666,-5.3333336)"
       cx="12.5"
       cy="12.5"
       fx="12.5"
       fy="12.5"
       r="7.5" />
    <radialGradient
       inkscape:collect="always"
       xlink:href="#StandardGradient"
       id="radialGradient3852"
       gradientUnits="userSpaceOnUse"
       gradientTransform="matrix(2.1333333,0,0,1.4666667,-14.666666,-5.3333336)"
       cx="12.5"
       cy="12.5"
       fx="12.5"
       fy="12.5"
       r="7.5" />
    <radialGradient
       inkscape:collect="always"
       xlink:href="#StandardGradient"
       id="radialGradient3854"
       gradientUnits="userSpaceOnUse"
       gradientTransform="matrix(2.1333333,0,0,1.4666667,-14.666666,-5.3333336)"
       cx="12.5"
       cy="12.5"
       fx="12.5"
       fy="12.5"
       r="7.5" />
    <radialGradient
       inkscape:collect="always"
       xlink:href="#StandardGradient"
       id="radialGradient3859"
       gradientUnits="userSpaceOnUse"
       gradientTransform="matrix(2.1333333,0,0,1.4666667,-14.666666,-4.3333336)"
       cx="12.5"
       cy="12.5"
       fx="12.5"
       fy="12.5"
       r="7.5" />
    <radialGradient
       inkscape:collect="always"
       xlink:href="#StandardGradient"
       id="radialGradient3863"
       gradientUnits="userSpaceOnUse"
       gradientTransform="matrix(2.1333333,0,0,1.4666667,-14.666666,-5.3333336)"
       cx="12.5"
       cy="12.5"
       fx="12.5"
       fy="12.5"
       r="7.5" />
    <radialGradient
       inkscape:collect="always"
       xlink:href="#StandardGradient"
       id="radialGradient3870"
       gradientUnits="userSpaceOnUse"
       gradientTransform="matrix(2.1333333,0,0,1.4666667,-14.666666,-5.3333336)"
       cx="12.5"
       cy="12.5"
       fx="12.5"
       fy="12.5"
       r="7.5" />
    <radialGradient
       inkscape:collect="always"
       xlink:href="#StandardGradient"
       id="radialGradient3874"
       gradientUnits="userSpaceOnUse"
       gradientTransform="matrix(2.1333333,0,0,1.4666667,-14.666666,-5.3333336)"
       cx="12.5"
       cy="12.5"
       fx="12.5"
       fy="12.5"
       r="7.5" />
    <radialGradient
       inkscape:collect="always"
       xlink:href="#StandardGradient"
       id="radialGradient3063"
       gradientUnits="userSpaceOnUse"
       gradientTransform="matrix(2.1333333,0,0,1.4666667,-13.666666,-6.3333336)"
       cx="12.5"
       cy="12.5"
       fx="12.5"
       fy="12.5"
       r="7.5" />
    <radialGradient
       inkscape:collect="always"
       xlink:href="#StandardGradient"
       id="radialGradient3851"
       gradientUnits="userSpaceOnUse"
       gradientTransform="matrix(2.1333333,0,0,1.4666667,-14.666666,-4.3333336)"
       cx="12.5"
       cy="12.5"
       fx="12.5"
       fy="12.5"
       r="7.5" />
    <radialGradient
       inkscape:collect="always"
       xlink:href="#StandardGradient"
       id="radialGradient3853"
       gradientUnits="userSpaceOnUse"
       gradientTransform="matrix(2.1333333,0,0,1.4666667,-14.666666,-5.3333336)"
       cx="12.5"
       cy="12.5"
       fx="12.5"
       fy="12.5"
       r="7.5" />
    <radialGradient
       inkscape:collect="always"
       xlink:href="#StandardGradient"
       id="radialGradient3858"
       gradientUnits="userSpaceOnUse"
       gradientTransform="matrix(2.1333333,0,0,1.4666667,-14.666666,-4.3333336)"
       cx="12.5"
       cy="12.5"
       fx="12.5"
       fy="12.5"
       r="7.5" />
    <radialGradient
       inkscape:collect="always"
       xlink:href="#StandardGradient"
       id="radialGradient3862"
       gradientUnits="userSpaceOnUse"
       gradientTransform="matrix(2.1333333,0,0,1.4666667,-14.666666,-5.3333336)"
       cx="12.5"
       cy="12.5"
       fx="12.5"
       fy="12.5"
       r="7.5" />
    <radialGradient
       inkscape:collect="always"
       xlink:href="#StandardGradient"
       id="radialGradient3869"
       gradientUnits="userSpaceOnUse"
       gradientTransform="matrix(2.1333333,0,0,1.4666667,-14.666666,-5.3333336)"
       cx="12.5"
       cy="12.5"
       fx="12.5"
       fy="12.5"
       r="7.5" />
    <radialGradient
       inkscape:collect="always"
       xlink:href="#StandardGradient"
       id="radialGradient3873"
       gradientUnits="userSpaceOnUse"
       gradientTransform="matrix(2.1333333,0,0,1.4666667,-14.666666,-5.3333336)"
       cx="12.5"
       cy="12.5"
       fx="12.5"
       fy="12.5"
       r="7.5" />
  </defs>
  <metadata
     id="metadata7">
    <rdf:RDF>
      <cc:Work
         rdf:about="">
        <dc:format>image/svg+xml</dc:format>
        <dc:type
           rdf:resource="http://purl.org/dc/dcmitype/StillImage" />
        <dc:title></dc:title>
      </cc:Work>
    </rdf:RDF>
  </metadata>
  <g
     style="display:inline"
     inkscape:label="Calque 1"
     id="layer1"
     inkscape:groupmode="layer"
     transform="translate(0,2)">
    <path
       style="display:inline;opacity:0.05;fill:#ffffff;fill-opacity:1;stroke:none"
       d="M 8.8125,0 A 1.0050079,1.0050079 0 0 0 8,1 1.0050079,1.0050079 0 0 0 7,2 L 6.5,2 C 5.1296634,2 4,3.1296634 4,4.5 l 0,11 C 4,16.870337 5.1296634,18 6.5,18 l 1.5,0 0.1875,0 c 0.2565625,1.108547 1.1325887,2 2.3125,2 l 8,0 c 1.370337,0 2.5,-1.129663 2.5,-2.5 l 0,-10 C 21,6.3200887 20.108547,5.4440625 19,5.1875 L 19,4.5 C 19,3.1296634 17.870337,2 16.5,2 L 16,2 A 1.0050079,1.0050079 0 0 0 15,1 1.0050079,1.0050079 0 0 0 14,0 L 9,0 A 1.0050079,1.0050079 0 0 0 8.8125,0 Z M 9,1 l 5,0 0,1 1,0 0,1 1.5,0 C 17.331,3 18,3.669 18,4.5 L 18,6 18.5,6 C 19.331,6 20,6.669 20,7.5 l 0,10 c 0,0.831 -0.669,1.5 -1.5,1.5 l -8,0 C 9.669,19 9,18.331 9,17.5 L 9,17 8,17 6.5,17 C 5.669,17 5,16.331 5,15.5 L 5,4.5 C 5,3.669 5.669,3 6.5,3 L 8,3 8,2 9,2 9,1 Z m 1,2.03125 0,1 3.03125,0 -0.03125,-1 -3,0 z M 11.5,8 C 11.223,8 11,8.223 11,8.5 l 0,8 c 0,0.277 0.223,0.5 0.5,0.5 l 6,0 c 0.277,0 0.5,-0.223 0.5,-0.5 l 0,-8 C 18,8.223 17.777,8 17.5,8 l -6,0 z m 0.5,1 5,0 0,7 -5,0 0,-7 z"
       id="path3871"
       inkscape:connector-curvature="0" />
    <path
       style="display:inline;fill:url(#radialGradient3063);fill-opacity:1;stroke:none"
       d="M 9,1 9,2 8,2 8,3 6.5,3 C 5.669,3 5,3.669 5,4.5 l 0,11 C 5,16.331 5.669,17 6.5,17 l 1.5,0 1,0 0,0.5 c 0,0.831 0.669,1.5 1.5,1.5 l 8,0 c 0.831,0 1.5,-0.669 1.5,-1.5 l 0,-10 C 20,6.669 19.331,6 18.5,6 L 18,6 18,4.5 C 18,3.669 17.331,3 16.5,3 L 15,3 15,2 14,2 14,1 9,1 Z m 1,2.03125 3,0 0.03125,1 -3.03125,0 0,-1 z M 11.5,8 l 6,0 C 17.777,8 18,8.223 18,8.5 l 0,8 c 0,0.277 -0.223,0.5 -0.5,0.5 l -6,0 C 11.223,17 11,16.777 11,16.5 l 0,-8 C 11,8.223 11.223,8 11.5,8 Z"
       id="Symbol"
       inkscape:connector-curvature="0" />
    <path
       style="display:inline;opacity:0.3;fill:#000000;fill-opacity:1;stroke:none"
       d="M 9,1 9,2 8,2 8,3 6.5,3 C 5.669,3 5,3.669 5,4.5 l 0,11 C 5,16.331 5.669,17 6.5,17 l 1.5,0 1,0 0,0.5 c 0,0.831 0.669,1.5 1.5,1.5 l 8,0 c 0.831,0 1.5,-0.669 1.5,-1.5 l 0,-10 C 20,6.669 19.331,6 18.5,6 L 18,6 18,4.5 C 18,3.669 17.331,3 16.5,3 L 15,3 15,2 14,2 14,1 9,1 Z m 0.5,0.5 4,0 0,0.5 A 0.49941789,0.49941789 0 0 0 14,2.5 l 0.5,0 0,0.5 A 0.49941789,0.49941789 0 0 0 15,3.5 l 1.5,0 c 0.562988,0 1,0.4370122 1,1 l 0,1.5 A 0.49941789,0.49941789 0 0 0 18,6.5 l 0.5,0 c 0.562988,0 1,0.4370122 1,1 l 0,10 c 0,0.562988 -0.437012,1 -1,1 l -8,0 c -0.5629878,0 -1,-0.437012 -1,-1 L 9.5,17 A 0.49941789,0.49941789 0 0 0 9,16.5 l -1,0 -1.5,0 c -0.5629878,0 -1,-0.437012 -1,-1 l 0,-11 c 0,-0.5629878 0.4370122,-1 1,-1 L 8,3.5 A 0.49941789,0.49941789 0 0 0 8.5,3 l 0,-0.5 0.5,0 A 0.49941789,0.49941789 0 0 0 9.5,2 l 0,-0.5 z M 9.84375,2.53125 A 0.49941789,0.49941789 0 0 0 9.5,3.03125 l 0,1 a 0.49941789,0.49941789 0 0 0 0.5,0.5 l 3.03125,0 a 0.49941789,0.49941789 0 0 0 0.5,-0.5 l -0.03125,-1 a 0.49941789,0.49941789 0 0 0 -0.5,-0.5 l -3,0 a 0.49941789,0.49941789 0 0 0 -0.09375,0 0.49941789,0.49941789 0 0 0 -0.0625,0 z m 0.15625,0.5 3,0 0.03125,1 -3.03125,0 0,-1 z M 11.5,7.5 c -0.545012,0 -1,0.4549878 -1,1 l 0,8 c 0,0.545012 0.454988,1 1,1 l 6,0 c 0.545012,0 1,-0.454988 1,-1 l 0,-8 c 0,-0.5450122 -0.454988,-1 -1,-1 l -6,0 z m 0,0.5 6,0 C 17.777,8 18,8.223 18,8.5 l 0,8 c 0,0.277 -0.223,0.5 -0.5,0.5 l -6,0 C 11.223,17 11,16.777 11,16.5 l 0,-8 C 11,8.223 11.223,8 11.5,8 Z"
       id="path3066"
       inkscape:connector-curvature="0" />
    <path
       style="display:inline;opacity:0.3;fill:#000000;fill-opacity:1;stroke:none"
       d="m 9,1 0,1 5,0 0,-1 -5,0 z m 5,1 0,1 1,0 0,-1 -1,0 z m 1,1 0,1 1.5,0 C 17.331,4 18,4.669 18,5.5 l 0,-1 C 18,3.669 17.331,3 16.5,3 L 15,3 Z M 9,2 8,2 8,3 9,3 9,2 Z M 8,3 6.5,3 C 5.669,3 5,3.669 5,4.5 l 0,1 C 5,4.669 5.669,4 6.5,4 L 8,4 8,3 Z m 2,1.03125 0,1 3.03125,0 -0.03125,-1 -3,0 z M 18,6 18,7 18.5,7 C 19.331,7 20,7.669 20,8.5 l 0,-1 C 20,6.669 19.331,6 18.5,6 L 18,6 Z m -7,10.5 0,1 c 0,0.277 0.223,0.5 0.5,0.5 l 6,0 c 0.277,0 0.5,-0.223 0.5,-0.5 l 0,-1 c 0,0.277 -0.223,0.5 -0.5,0.5 l -6,0 C 11.223,17 11,16.777 11,16.5 Z"
       id="path3847"
       inkscape:connector-curvature="0" />
    <path
       style="display:inline;opacity:0.2;fill:#ffffff;fill-opacity:1;stroke:none"
       d="m 10,3.03125 0,1 3,0 0.03125,0 -0.03125,-1 -3,0 z M 11.5,8 C 11.223,8 11,8.223 11,8.5 l 0,1 C 11,9.223 11.223,9 11.5,9 l 6,0 C 17.777,9 18,9.223 18,9.5 l 0,-1 C 18,8.223 17.777,8 17.5,8 l -6,0 z m -6.5,7.5 0,1 C 5,17.331 5.669,18 6.5,18 l 1.5,0 1,0 0,0.5 c 0,0.831 0.669,1.5 1.5,1.5 l 8,0 c 0.831,0 1.5,-0.669 1.5,-1.5 l 0,-1 c 0,0.831 -0.669,1.5 -1.5,1.5 l -8,0 C 9.669,19 9,18.331 9,17.5 L 9,17 8,17 6.5,17 C 5.669,17 5,16.331 5,15.5 Z"
       id="path3856"
       inkscape:connector-curvature="0" />
  </g>
</svg>
