<?xml version="1.0" encoding="UTF-8" standalone="no"?>
<!-- Created with Inkscape (http://www.inkscape.org/) -->

<svg
   xmlns:dc="http://purl.org/dc/elements/1.1/"
   xmlns:cc="http://creativecommons.org/ns#"
   xmlns:rdf="http://www.w3.org/1999/02/22-rdf-syntax-ns#"
   xmlns:svg="http://www.w3.org/2000/svg"
   xmlns="http://www.w3.org/2000/svg"
   xmlns:xlink="http://www.w3.org/1999/xlink"
   xmlns:sodipodi="http://sodipodi.sourceforge.net/DTD/sodipodi-0.dtd"
   xmlns:inkscape="http://www.inkscape.org/namespaces/inkscape"
   width="24"
   height="24"
   id="svg2"
   sodipodi:version="0.32"
   inkscape:version="0.91 r13725"
   version="1.0"
   sodipodi:docname="format-text-strikethrough.svg"
   inkscape:output_extension="org.inkscape.output.svg.inkscape"
   inkscape:export-filename="/home/matt/.icons/Sirocco/scalable/mimetypes/text-plain.png"
   inkscape:export-xdpi="90"
   inkscape:export-ydpi="90"
   sodipodi:modified="true"
   style="display:inline">
  <sodipodi:namedview
     id="base"
     pagecolor="#797979"
     bordercolor="#666666"
     borderopacity="1.0"
     inkscape:pageopacity="0"
     inkscape:pageshadow="2"
     inkscape:zoom="16.590055"
     inkscape:cx="11.120446"
     inkscape:cy="7.2314268"
     inkscape:document-units="px"
     inkscape:current-layer="layer1"
     width="128px"
     height="128px"
     inkscape:showpageshadow="false"
     inkscape:window-width="1366"
     inkscape:window-height="718"
     inkscape:window-x="0"
     inkscape:window-y="25"
     showguides="true"
     inkscape:guide-bbox="true"
     showgrid="true"
     inkscape:window-maximized="1"
     inkscape:snap-global="true"
     inkscape:snap-bbox="true"
     inkscape:bbox-paths="true"
     inkscape:bbox-nodes="true"
     inkscape:snap-bbox-edge-midpoints="true">
    <sodipodi:guide
       id="guide2226"
       position="32.637397,117.99844"
       orientation="horizontal" />
    <sodipodi:guide
       id="guide2230"
       position="110,57.402344"
       orientation="vertical" />
    <sodipodi:guide
       id="guide2232"
       position="33.760911"
       orientation="horizontal" />
    <sodipodi:guide
       id="guide2231"
       position="46.774696"
       orientation="horizontal" />
    <inkscape:grid
       enabled="true"
       visible="true"
       id="grid3231"
       type="xygrid" />
    <sodipodi:guide
       orientation="1,0"
       position="100,67.625"
       id="guide2713" />
  </sodipodi:namedview>
  <defs
     id="defs4">
    <linearGradient
       gradientUnits="userSpaceOnUse"
       y2="18.974037"
       x2="10.710332"
       y1="1.9963325"
       x1="10.710332"
       gradientTransform="matrix(0.9984539,0,0,0.9984539,-0.0459776,0.05767558)"
       id="linearGradient4220">
      <stop
         id="stop4222"
         offset="0"
         style="stop-color:#000000;stop-opacity:0.23619632" />
      <stop
         id="stop4224"
         offset="1"
         style="stop-color:#000000;stop-opacity:0.54907978" />
    </linearGradient>
    <inkscape:perspective
       sodipodi:type="inkscape:persp3d"
       inkscape:vp_x="0 : 11 : 1"
       inkscape:vp_y="0 : 1000 : 0"
       inkscape:vp_z="22 : 11 : 1"
       inkscape:persp3d-origin="11 : 7.3333333 : 1"
       id="perspective19" />
    <linearGradient
       id="StandardGradient"
       gradientTransform="matrix(0.9984539,0,0,0.9984539,-0.0459776,0.05767558)"
       x1="10.710332"
       y1="1.9963325"
       x2="10.710332"
       y2="18.974037"
       gradientUnits="userSpaceOnUse">
      <stop
         style="stop-color:#000000;stop-opacity:0.86274511;"
         offset="0"
         id="stop3277" />
      <stop
         style="stop-color:#000000;stop-opacity:0.47058824;"
         offset="1"
         id="stop3279" />
    </linearGradient>
    <inkscape:perspective
       id="perspective3675"
       inkscape:persp3d-origin="0.5 : 0.33333333 : 1"
       inkscape:vp_z="1 : 0.5 : 1"
       inkscape:vp_y="0 : 1000 : 0"
       inkscape:vp_x="0 : 0.5 : 1"
       sodipodi:type="inkscape:persp3d" />
    <linearGradient
       inkscape:collect="always"
       xlink:href="#StandardGradient"
       id="linearGradient3627"
       gradientUnits="userSpaceOnUse"
       gradientTransform="matrix(0.9984539,0,0,0.9984539,-30.045978,0.05767558)"
       x1="10.710332"
       y1="1.9963325"
       x2="10.710332"
       y2="18.974037" />
    <clipPath
       clipPathUnits="userSpaceOnUse"
       id="clipPath3634">
      <path
         style="fill:#ff00ff;fill-opacity:1;stroke:none"
         d="m -30,0 0,22 22,0 0,-22 -22,0 z m 9,2 c 1.536279,0 3.078693,0.5829855 4.25,1.75 2.042235,2.0347517 2.299759,5.181761 0.78125,7.5 0.01984,0.394051 0.08665,1.024202 0.34375,1.25 0.350063,0.307445 1.153972,-0.120878 1.6875,0.46875 l 3.6875,3.71875 c 0,0 0.750914,0.690483 -0.3125,1.75 -1.063413,1.059517 -1.75,0.3125 -1.75,0.3125 L -16,15.03125 c -0.591796,-0.531572 -0.160173,-1.338719 -0.46875,-1.6875 -0.226629,-0.256157 -0.854501,-0.32398 -1.25,-0.34375 -2.326765,1.512945 -5.489015,1.253503 -7.53125,-0.78125 -2.342612,-2.3340289 -2.342612,-6.134721 0,-8.46875 C -24.078693,2.5829856 -22.536279,2 -21,2 Z m 0.03125,2 c -1.104318,1e-7 -2.119541,0.4034447 -2.84375,1.125 -0.724209,0.7215553 -1.15625,1.7434783 -1.15625,2.84375 0,2.200545 1.791365,4.000001 4,4 2.208637,0 4,-1.799455 4,-4 0,-2.2005437 -1.791364,-3.9687501 -4,-3.96875 z"
         id="path3636"
         inkscape:connector-curvature="0" />
    </clipPath>
    <linearGradient
       inkscape:collect="always"
       xlink:href="#StandardGradient"
       id="linearGradient3628"
       x1="12.028171"
       y1="4.5631547"
       x2="12.028171"
       y2="11.477665"
       gradientUnits="userSpaceOnUse" />
    <linearGradient
       inkscape:collect="always"
       xlink:href="#StandardGradient"
       id="linearGradient3639"
       gradientUnits="userSpaceOnUse"
       x1="12.028171"
       y1="4.5631547"
       x2="12.028171"
       y2="11.477665" />
    <linearGradient
       inkscape:collect="always"
       xlink:href="#StandardGradient"
       id="linearGradient3641"
       gradientUnits="userSpaceOnUse"
       x1="12.028171"
       y1="4.5631547"
       x2="12.028171"
       y2="11.477665" />
    <linearGradient
       inkscape:collect="always"
       xlink:href="#StandardGradient"
       id="linearGradient3651"
       gradientUnits="userSpaceOnUse"
       x1="12.028171"
       y1="4.5631547"
       x2="12.028171"
       y2="11.477665" />
    <linearGradient
       inkscape:collect="always"
       xlink:href="#StandardGradient"
       id="linearGradient3653"
       gradientUnits="userSpaceOnUse"
       x1="12.028171"
       y1="4.5631547"
       x2="12.028171"
       y2="11.477665" />
    <linearGradient
       inkscape:collect="always"
       xlink:href="#StandardGradient"
       id="linearGradient3655"
       gradientUnits="userSpaceOnUse"
       x1="12.028171"
       y1="4.5631547"
       x2="12.028171"
       y2="11.477665" />
    <linearGradient
       inkscape:collect="always"
       xlink:href="#StandardGradient"
       id="linearGradient3657"
       gradientUnits="userSpaceOnUse"
       x1="12.028171"
       y1="4.5631547"
       x2="12.028171"
       y2="11.477665" />
    <linearGradient
       inkscape:collect="always"
       xlink:href="#StandardGradient"
       id="linearGradient3660"
       gradientUnits="userSpaceOnUse"
       x1="12.028171"
       y1="4.5631547"
       x2="12.028171"
       y2="11.477665"
       gradientTransform="matrix(1.7414965,0,0,1.7414965,-8.9470177,-1.9467179)" />
    <linearGradient
       inkscape:collect="always"
       xlink:href="#StandardGradient"
       id="linearGradient3666"
       gradientUnits="userSpaceOnUse"
       gradientTransform="matrix(1.7414965,0,0,1.7414965,-8.9470177,-0.9467179)"
       x1="12.028171"
       y1="4.5631547"
       x2="12.028171"
       y2="11.477665" />
    <linearGradient
       inkscape:collect="always"
       xlink:href="#StandardGradient"
       id="linearGradient3668"
       gradientUnits="userSpaceOnUse"
       gradientTransform="matrix(1.7414965,0,0,1.7414965,-8.9470177,-1.9467179)"
       x1="12.028171"
       y1="4.5631547"
       x2="12.028171"
       y2="11.477665" />
    <linearGradient
       inkscape:collect="always"
       xlink:href="#StandardGradient"
       id="linearGradient3673"
       gradientUnits="userSpaceOnUse"
       gradientTransform="matrix(1.7414965,0,0,1.7414965,-8.9470177,-0.9467179)"
       x1="12.028171"
       y1="4.5631547"
       x2="12.028171"
       y2="11.477665" />
    <linearGradient
       inkscape:collect="always"
       xlink:href="#StandardGradient"
       id="linearGradient3677"
       gradientUnits="userSpaceOnUse"
       gradientTransform="matrix(1.7414965,0,0,1.7414965,-8.9470177,-1.9467179)"
       x1="12.028171"
       y1="4.5631547"
       x2="12.028171"
       y2="11.477665" />
    <linearGradient
       inkscape:collect="always"
       xlink:href="#StandardGradient"
       id="linearGradient3682"
       gradientUnits="userSpaceOnUse"
       gradientTransform="matrix(1.7414965,0,0,1.7414965,-38.947018,-1.9467179)"
       x1="12.028171"
       y1="4.5631547"
       x2="12.028171"
       y2="11.477665" />
    <clipPath
       clipPathUnits="userSpaceOnUse"
       id="clipPath3689">
      <path
         style="fill:#ff00ff;fill-opacity:1;stroke:none"
         d="m -30,0 0,22 22,0 0,-22 -22,0 z m 10.9375,6 c 2.061216,1.17e-5 3.557174,0.4024349 4.46875,1.21875 0.918354,0.8095335 1.374987,2.1388268 1.375,3.96875 l 0,6.8125 -3.6875,0 0,-2 c -0.489805,0.693879 -1.044013,1.211521 -1.65625,1.53125 C -19.17475,17.844174 -19.903705,18 -20.78125,18 c -1.183677,0 -2.164756,-0.344173 -2.90625,-1.03125 -0.734695,-0.693874 -1.093751,-1.585457 -1.09375,-2.6875 -1e-6,-1.340132 0.456632,-2.342894 1.375,-2.96875 0.925167,-0.625843 2.370957,-0.937493 4.34375,-0.9375 l 2.15625,0 0,-0.28125 c -9e-6,-0.5782226 -0.231726,-0.9846853 -0.6875,-1.25 -0.45579,-0.2720996 -1.15902,-0.4062406 -2.125,-0.40625 -0.782317,9.4e-6 -1.514036,0.062297 -2.1875,0.21875 -0.673472,0.1564716 -1.296771,0.4058335 -1.875,0.71875 l 0,-2.78125 c 0.78231,-0.1904649 1.554631,-0.3422504 2.34375,-0.4375 0.789111,-0.1020291 1.585878,-0.1562378 2.375,-0.15625 z m 0.25,6.5625 c -0.76191,5e-6 -1.331,0.116502 -1.71875,0.375 -0.380957,0.258508 -0.562505,0.652853 -0.5625,1.15625 -5e-6,0.462588 0.162626,0.828446 0.46875,1.09375 0.312919,0.258506 0.730225,0.375002 1.28125,0.375 0.687067,2e-6 1.280604,-0.228952 1.75,-0.71875 0.469379,-0.496595 0.687491,-1.133499 0.6875,-1.875 l 0,-0.40625 -1.90625,0 z"
         id="path3691"
         inkscape:connector-curvature="0" />
    </clipPath>
    <linearGradient
       inkscape:collect="always"
       xlink:href="#StandardGradient"
       id="linearGradient3648"
       x1="12.070416"
       y1="3.1332362"
       x2="12.070416"
       y2="19.05331"
       gradientUnits="userSpaceOnUse" />
    <linearGradient
       inkscape:collect="always"
       xlink:href="#StandardGradient"
       id="linearGradient3654"
       gradientUnits="userSpaceOnUse"
       x1="12.070416"
       y1="3.1332362"
       x2="12.070416"
       y2="19.05331"
       gradientTransform="translate(0,1)" />
    <linearGradient
       inkscape:collect="always"
       xlink:href="#StandardGradient"
       id="linearGradient3656"
       gradientUnits="userSpaceOnUse"
       x1="12.070416"
       y1="3.1332362"
       x2="12.070416"
       y2="19.05331" />
    <linearGradient
       inkscape:collect="always"
       xlink:href="#StandardGradient"
       id="linearGradient3661"
       gradientUnits="userSpaceOnUse"
       x1="12.070416"
       y1="3.1332362"
       x2="12.070416"
       y2="19.05331"
       gradientTransform="translate(0,1)" />
    <linearGradient
       inkscape:collect="always"
       xlink:href="#StandardGradient"
       id="linearGradient3665"
       gradientUnits="userSpaceOnUse"
       x1="12.070416"
       y1="3.1332362"
       x2="12.070416"
       y2="19.05331" />
    <linearGradient
       inkscape:collect="always"
       xlink:href="#StandardGradient"
       id="linearGradient3670"
       gradientUnits="userSpaceOnUse"
       x1="12.070416"
       y1="3.1332362"
       x2="12.070416"
       y2="19.05331"
       gradientTransform="translate(-30,0)" />
    <clipPath
       clipPathUnits="userSpaceOnUse"
       id="clipPath3677">
      <path
         style="fill:#ff00ff;fill-opacity:1;stroke:none"
         d="m -30,0 0,22 22,0 0,-22 -22,0 z m 10.90625,3 c 1.712465,1.17e-5 2.966824,0.4241184 3.8125,1.28125 0.845655,0.8571524 1.281239,2.164762 1.28125,3.90625 l 0,6.8125 -1.9375,0 0,-2.03125 c -0.443984,0.693879 -0.993821,1.197917 -1.65625,1.53125 -0.662446,0.326531 -1.479083,0.5 -2.4375,0.5 -1.212126,0 -2.187438,-0.315689 -2.90625,-0.96875 -0.711771,-0.659863 -1.062501,-1.554208 -1.0625,-2.65625 -1e-6,-1.28571 0.455799,-2.253184 1.34375,-2.90625 0.894993,-0.653054 2.199893,-0.968743 3.96875,-0.96875 l 2.75,0 0,-0.1875 c -10e-6,-0.863937 -0.314292,-1.5306033 -0.90625,-2 -0.584927,-0.4761805 -1.404627,-0.7187399 -2.46875,-0.71875 -0.676538,1.01e-5 -1.327459,0.062297 -1.96875,0.21875 -0.6413,0.1564724 -1.251787,0.4058342 -1.84375,0.71875 l 0,-1.75 c 0.711766,-0.2652949 1.393011,-0.4332369 2.0625,-0.5625 C -20.393019,3.082707 -19.728005,3.0000117 -19.09375,3 Z m 1.21875,5.96875 c -1.571536,5e-6 -2.675194,0.153062 -3.28125,0.5 -0.606064,0.346942 -0.906253,0.944521 -0.90625,1.78125 -3e-6,0.66667 0.236475,1.199193 0.6875,1.59375 0.458065,0.387756 1.061502,0.593752 1.84375,0.59375 1.078218,2e-6 1.945398,-0.390306 2.59375,-1.125 0.655382,-0.741494 0.99999,-1.713005 1,-2.9375 l 0,-0.40625 -1.9375,0 z M -24,17 l 10,0 0,2 -10,0 0,-2 z"
         id="path3679"
         inkscape:connector-curvature="0" />
    </clipPath>
    <linearGradient
       inkscape:collect="always"
       xlink:href="#StandardGradient"
       id="linearGradient2873"
       gradientUnits="userSpaceOnUse"
       x1="12.070416"
       y1="3.1332362"
       x2="12.070416"
       y2="19.05331" />
    <linearGradient
       inkscape:collect="always"
       xlink:href="#StandardGradient"
       id="linearGradient2876"
       gradientUnits="userSpaceOnUse"
       x1="12.070416"
       y1="3.1332362"
       x2="12.070416"
       y2="19.05331"
       gradientTransform="matrix(1.4,0,0,1,-4.4,-7)" />
    <linearGradient
       inkscape:collect="always"
       xlink:href="#StandardGradient"
       id="linearGradient2878"
       gradientUnits="userSpaceOnUse"
       x1="12.070416"
       y1="3.1332362"
       x2="12.070416"
       y2="19.05331"
       gradientTransform="translate(0,2)" />
    <linearGradient
       inkscape:collect="always"
       xlink:href="#StandardGradient"
       id="linearGradient2882"
       gradientUnits="userSpaceOnUse"
       gradientTransform="matrix(1.2,0,0,2,-2.2,-25)"
       x1="12.070416"
       y1="3.1332362"
       x2="12.070416"
       y2="19.05331" />
    <linearGradient
       inkscape:collect="always"
       xlink:href="#StandardGradient"
       id="linearGradient3724"
       gradientUnits="userSpaceOnUse"
       gradientTransform="matrix(1.4,0,0,1,-4.4,-5)"
       x1="12.070416"
       y1="3.1332362"
       x2="12.070416"
       y2="19.05331" />
    <linearGradient
       inkscape:collect="always"
       xlink:href="#StandardGradient"
       id="linearGradient3733"
       gradientUnits="userSpaceOnUse"
       gradientTransform="translate(0,3)"
       x1="12.070416"
       y1="3.1332362"
       x2="12.070416"
       y2="19.05331" />
    <linearGradient
       inkscape:collect="always"
       xlink:href="#StandardGradient"
       id="linearGradient3735"
       gradientUnits="userSpaceOnUse"
       gradientTransform="translate(0,2)"
       x1="12.070416"
       y1="3.1332362"
       x2="12.070416"
       y2="19.05331" />
    <linearGradient
       inkscape:collect="always"
       xlink:href="#StandardGradient"
       id="linearGradient3740"
       gradientUnits="userSpaceOnUse"
       gradientTransform="translate(0,3)"
       x1="12.070416"
       y1="3.1332362"
       x2="12.070416"
       y2="19.05331" />
    <linearGradient
       inkscape:collect="always"
       xlink:href="#StandardGradient"
       id="linearGradient3744"
       gradientUnits="userSpaceOnUse"
       gradientTransform="translate(0,2)"
       x1="12.070416"
       y1="3.1332362"
       x2="12.070416"
       y2="19.05331" />
    <linearGradient
       inkscape:collect="always"
       xlink:href="#StandardGradient"
       id="linearGradient3749"
       gradientUnits="userSpaceOnUse"
       gradientTransform="translate(-30,2)"
       x1="12.070416"
       y1="3.1332362"
       x2="12.070416"
       y2="19.05331" />
    <clipPath
       clipPathUnits="userSpaceOnUse"
       id="clipPath3756">
      <path
         style="fill:#ff00ff;fill-opacity:1;stroke:none"
         d="m -30,0 0,22 22,0 0,-22 -22,0 z m 10.90625,5 c 1.712465,1.17e-5 2.966824,0.4241184 3.8125,1.28125 0.845655,0.8571524 1.281239,2.164762 1.28125,3.90625 l 0,1.8125 2,0 0,2 -2,0 0,3 -1.9375,0 0,-2.03125 c -0.443984,0.693879 -0.993821,1.197917 -1.65625,1.53125 -0.662446,0.326531 -1.479083,0.5 -2.4375,0.5 -1.212126,0 -2.187438,-0.315689 -2.90625,-0.96875 -0.569191,-0.527681 -0.887302,-1.217369 -1,-2.03125 L -26,14 l 0,-2 2.25,0 c 0.216615,-0.618221 0.561495,-1.13979 1.09375,-1.53125 0.894993,-0.653054 2.199893,-0.968743 3.96875,-0.96875 l 2.75,0 0,-0.1875 c -10e-6,-0.863937 -0.314292,-1.5306033 -0.90625,-2 -0.584927,-0.4761805 -1.404627,-0.7187399 -2.46875,-0.71875 -0.676538,1.01e-5 -1.327459,0.062297 -1.96875,0.21875 -0.6413,0.1564724 -1.251787,0.4058342 -1.84375,0.71875 l 0,-1.75 c 0.711766,-0.2652949 1.393011,-0.4332369 2.0625,-0.5625 C -20.393019,5.082707 -19.728005,5.0000117 -19.09375,5 Z m 1.21875,5.96875 c -1.571536,5e-6 -2.675194,0.153062 -3.28125,0.5 -0.233941,0.13392 -0.419381,0.323303 -0.5625,0.53125 l 5.75,0 c 0.02175,-0.202372 0.03125,-0.406673 0.03125,-0.625 l 0,-0.40625 -1.9375,0 z M -21.9375,14 c 0.112193,0.328413 0.296171,0.610765 0.5625,0.84375 0.458065,0.387756 1.061502,0.593752 1.84375,0.59375 1.078218,2e-6 1.945398,-0.390306 2.59375,-1.125 0.08472,-0.09585 0.14449,-0.208915 0.21875,-0.3125 l -5.21875,0 z"
         id="path3758"
         inkscape:connector-curvature="0" />
    </clipPath>
    <linearGradient
       inkscape:collect="always"
       xlink:href="#StandardGradient"
       id="linearGradient5106"
       gradientUnits="userSpaceOnUse"
       gradientTransform="translate(0,2)"
       x1="12.070416"
       y1="3.1332362"
       x2="12.070416"
       y2="19.05331" />
    <linearGradient
       inkscape:collect="always"
       xlink:href="#StandardGradient"
       id="linearGradient5110"
       gradientUnits="userSpaceOnUse"
       gradientTransform="translate(0,2)"
       x1="12.070416"
       y1="3.1332362"
       x2="12.070416"
       y2="19.05331" />
    <linearGradient
       id="StandardGradient-6"
       gradientTransform="matrix(0.9984539,0,0,0.9984539,-0.0459776,0.05767558)"
       x1="10.710332"
       y1="1.9963325"
       x2="10.710332"
       y2="18.974037"
       gradientUnits="userSpaceOnUse">
      <stop
         style="stop-color:#000000;stop-opacity:0.86274511;"
         offset="0"
         id="stop3277-3" />
      <stop
         style="stop-color:#000000;stop-opacity:0.47058824;"
         offset="1"
         id="stop3279-2" />
    </linearGradient>
    <radialGradient
       inkscape:collect="always"
       xlink:href="#linearGradient4220"
       id="radialGradient4218"
       cx="11"
       cy="13.333333"
       fx="11"
       fy="13.333333"
       r="7"
       gradientTransform="matrix(1.8571429,-8.6252149e-8,5.3078243e-8,1.1428571,-8.4285722,-3.2381797)"
       gradientUnits="userSpaceOnUse" />
  </defs>
  <metadata
     id="metadata7">
    <rdf:RDF>
      <cc:Work
         rdf:about="">
        <dc:format>image/svg+xml</dc:format>
        <dc:type
           rdf:resource="http://purl.org/dc/dcmitype/StillImage" />
        <dc:title></dc:title>
      </cc:Work>
    </rdf:RDF>
  </metadata>
  <g
     style="display:inline"
     inkscape:label="Calque 1"
     id="layer1"
     inkscape:groupmode="layer"
     transform="translate(0,2)">
    <path
       style="font-style:normal;font-variant:normal;font-weight:normal;font-stretch:normal;font-size:12px;line-height:125%;font-family:Sans;-inkscape-font-specification:Sans;text-align:start;writing-mode:lr-tb;text-anchor:start;opacity:0.05;fill:#ffffff;fill-opacity:1;stroke:none"
       d="m 11.90625,2.9999141 c -0.721637,1.33e-5 -1.437358,0.072667 -2.15625,0.21875 -0.7039947,0.1359254 -1.4403695,0.3348759 -2.21875,0.625 a 1.0055484,1.0055484 0 0 0 -0.65625,0.9375 l 0,1.75 a 1.0055484,1.0055484 0 0 0 1.46875,0.875 c 0.5345751,-0.28258 1.079928,-0.4920066 1.625,-0.625 0.548791,-0.1338859 1.103915,-0.1874908 1.71875,-0.1875 0.911338,8.6e-6 1.485842,0.2086321 1.84375,0.5 0.12266,0.097264 0.109315,0.2942839 0.1875,0.40625 l -1.40625,0 c -1.888484,7.5e-6 -3.41623,0.319845 -4.5625,1.15625 -0.4766147,0.350538 -0.696805,0.859381 -0.96875,1.34375 l -1.78125,0 A 1.0055484,1.0055484 0 0 0 4,10.999914 l 0,2 a 1.0055484,1.0055484 0 0 0 1,1 l 1.34375,0 c 0.2193272,0.65452 0.5088338,1.296932 1.03125,1.78125 0.9344845,0.849005 2.2070502,1.21875 3.59375,1.21875 1.079738,0 2.045296,-0.184775 2.875,-0.59375 0.09096,-0.04577 0.130982,-0.16746 0.21875,-0.21875 a 1.0055484,1.0055484 0 0 0 1,0.8125 l 1.9375,0 a 1.0055484,1.0055484 0 0 0 1,-1 l 0,-2 1,0 a 1.0055484,1.0055484 0 0 0 1,-1 l 0,-2 A 1.0055484,1.0055484 0 0 0 19,9.9999141 l -1,0 0,-0.8125 c -1.2e-5,-1.9091411 -0.479028,-3.5267971 -1.5625,-4.625 -1.078326,-1.0929334 -2.652783,-1.5624872 -4.53125,-1.5625 z m 0,1 c 1.712465,1.17e-5 2.966824,0.4241184 3.8125,1.28125 0.845655,0.8571524 1.281239,2.164762 1.28125,3.90625 l 0,1.8124999 2,0 0,2 -2,0 0,3 -1.9375,0 0,-2.03125 c -0.443984,0.693879 -0.993821,1.197917 -1.65625,1.53125 -0.662446,0.326531 -1.479083,0.5 -2.4375,0.5 -1.2121256,0 -2.1874377,-0.315689 -2.90625,-0.96875 -0.5691905,-0.527681 -0.8873023,-1.217369 -1,-2.03125 l -2.0625,0 0,-2 2.25,0 c 0.2166146,-0.618221 0.5614947,-1.1397899 1.09375,-1.5312499 0.8949925,-0.653054 2.199893,-0.968743 3.96875,-0.96875 l 2.75,0 0,-0.1875 c -10e-6,-0.863937 -0.314292,-1.5306033 -0.90625,-2 -0.584927,-0.4761805 -1.404627,-0.7187399 -2.46875,-0.71875 -0.676538,1.01e-5 -1.327459,0.062297 -1.96875,0.21875 C 9.0774496,5.9688865 8.4669634,6.2182483 7.875,6.5311641 l 0,-1.75 c 0.7117658,-0.2652949 1.393011,-0.4332369 2.0625,-0.5625 0.669481,-0.1360427 1.334495,-0.2187383 1.96875,-0.21875 z m 1.21875,5.96875 c -1.571536,5e-6 -2.675194,0.1530619 -3.28125,0.4999999 -0.2339407,0.13392 -0.4193807,0.323303 -0.5625,0.53125 l 5.75,0 c 0.02172,-0.202372 0.03125,-0.406673 0.03125,-0.625 l 0,-0.4062499 -1.9375,0 z M 9.0625,12.999914 c 0.1121933,0.328413 0.2961706,0.610765 0.5625,0.84375 0.458065,0.387756 1.061502,0.593752 1.84375,0.59375 1.078218,2e-6 1.945398,-0.390306 2.59375,-1.125 0.08472,-0.09585 0.144491,-0.208915 0.21875,-0.3125 l -5.21875,0 z"
       id="path5108"
       inkscape:connector-curvature="0" />
    <path
       style="font-style:normal;font-variant:normal;font-weight:normal;font-stretch:normal;font-size:12px;line-height:125%;font-family:Sans;-inkscape-font-specification:Sans;text-align:start;writing-mode:lr-tb;text-anchor:start;fill:url(#radialGradient4218);fill-opacity:1;stroke:none"
       d="m 11.90625,3.9999141 c -0.634255,1.17e-5 -1.299269,0.082707 -1.96875,0.21875 -0.669489,0.1292631 -1.3507342,0.2972051 -2.0625,0.5625 l 0,1.75 c 0.5919634,-0.3129158 1.2024496,-0.5622776 1.84375,-0.71875 0.641291,-0.1564528 1.292212,-0.2187399 1.96875,-0.21875 1.064123,1.01e-5 1.883823,0.2425695 2.46875,0.71875 0.591958,0.4693967 0.90624,1.136063 0.90625,2 l 0,0.1875 -2.75,0 c -1.768857,7e-6 -3.0737575,0.315696 -3.96875,0.96875 C 7.8114947,9.8601241 7.4666146,10.381693 7.25,10.999914 l -2.25,0 0,2 2.0625,0 c 0.1126977,0.813881 0.4308095,1.503569 1,2.03125 0.7188123,0.653061 1.6941244,0.96875 2.90625,0.96875 0.958417,0 1.775054,-0.173469 2.4375,-0.5 0.662429,-0.333333 1.212266,-0.837371 1.65625,-1.53125 l 0,2.03125 1.9375,0 0,-3 2,0 0,-2 -2,0 0,-1.8124999 c -1.1e-5,-1.741488 -0.435595,-3.0490976 -1.28125,-3.90625 -0.845676,-0.8571316 -2.100035,-1.2812383 -3.8125,-1.28125 z m 1.21875,5.96875 1.9375,0 0,0.4062499 c -2e-6,0.218327 -0.0095,0.422628 -0.03125,0.625 l -5.75,0 c 0.1431193,-0.207947 0.3285593,-0.39733 0.5625,-0.53125 0.606056,-0.346938 1.709714,-0.4999949 3.28125,-0.4999999 z m -4.0625,3.0312499 5.21875,0 c -0.07426,0.103585 -0.134033,0.216652 -0.21875,0.3125 -0.648352,0.734694 -1.515532,1.125002 -2.59375,1.125 -0.782248,2e-6 -1.385685,-0.205994 -1.84375,-0.59375 -0.2663294,-0.232985 -0.4503067,-0.515337 -0.5625,-0.84375 z"
       id="path2871"
       inkscape:connector-curvature="0" />
    <path
       style="font-style:normal;font-variant:normal;font-weight:normal;font-stretch:normal;font-size:12px;line-height:125%;font-family:Sans;-inkscape-font-specification:Sans;text-align:start;writing-mode:lr-tb;text-anchor:start;opacity:0.3;fill:#000000;fill-opacity:1;stroke:none"
       d="m 11.90625,3.9999141 c -0.634255,1.17e-5 -1.299269,0.082707 -1.96875,0.21875 -0.669489,0.1292631 -1.3507342,0.2972051 -2.0625,0.5625 l 0,1 c 0.7117658,-0.2652949 1.393011,-0.4332369 2.0625,-0.5625 0.669481,-0.1360427 1.334495,-0.2187383 1.96875,-0.21875 1.712465,1.17e-5 2.966824,0.4241184 3.8125,1.28125 0.845655,0.8571524 1.281239,2.164762 1.28125,3.9062499 l 0,-0.9999999 c -1.1e-5,-1.741488 -0.435595,-3.0490976 -1.28125,-3.90625 -0.845676,-0.8571316 -2.100035,-1.2812383 -3.8125,-1.28125 z m 0.40625,4.5 c -1.768857,7e-6 -3.0737575,0.315696 -3.96875,0.96875 C 7.8114947,9.8601241 7.4666146,10.381693 7.25,10.999914 l -2.25,0 0,1 2.25,0 c 0.2166146,-0.618221 0.5614947,-1.13979 1.09375,-1.53125 0.8949925,-0.6530539 2.199893,-0.9687429 3.96875,-0.9687499 l 2.75,0 0,-0.1875 c -3e-6,-0.293023 -0.05412,-0.5648638 -0.125,-0.8125 l -2.625,0 z m 2.71875,2.4687499 c -10e-4,0.0101 0.0011,0.02116 0,0.03125 l -3,0 c -1.001804,0.05931 -1.732958,0.208547 -2.1875,0.46875 -0.2339407,0.13392 -0.4193807,0.323303 -0.5625,0.53125 l 5.75,0 c 0.02175,-0.202372 0.03125,-0.406673 0.03125,-0.625 l 0,-0.40625 -0.03125,0 z M 17,10.999914 l 0,1 2,0 0,-1 -2,0 z m -7.9375,3 c 0.1121933,0.328413 0.2961706,0.610765 0.5625,0.84375 0.458065,0.387756 1.061502,0.593752 1.84375,0.59375 1.078218,2e-6 1.945398,-0.390306 2.59375,-1.125 0.08472,-0.09585 0.14449,-0.208915 0.21875,-0.3125 l -1.0625,0 c -0.502872,0.286586 -1.084502,0.437501 -1.75,0.4375 -0.65438,2e-6 -1.170057,-0.163377 -1.59375,-0.4375 l -0.8125,0 z"
       id="path3729"
       inkscape:connector-curvature="0" />
    <path
       style="font-style:normal;font-variant:normal;font-weight:normal;font-stretch:normal;font-size:12px;line-height:125%;font-family:Sans;-inkscape-font-specification:Sans;text-align:start;writing-mode:lr-tb;text-anchor:start;opacity:0.2;fill:#ffffff;fill-opacity:1;stroke:none"
       d="m 11.6875,5.5936641 c -0.676538,1.01e-5 -1.327459,0.062297 -1.96875,0.21875 C 9.0774496,5.9688865 8.4669634,6.2182483 7.875,6.5311641 l 0,1 c 0.5919634,-0.3129158 1.2024496,-0.5622776 1.84375,-0.71875 0.641291,-0.1564528 1.292212,-0.2187399 1.96875,-0.21875 1.064123,1.01e-5 1.883823,0.2425695 2.46875,0.71875 0.391182,0.3101905 0.643147,0.7050164 0.78125,1.1875 l 0.125,0 0,-0.1875 c -10e-6,-0.863937 -0.314292,-1.5306033 -0.90625,-2 -0.584927,-0.4761805 -1.404627,-0.7187399 -2.46875,-0.71875 z m 1.4375,4.375 c -1.571536,5e-6 -2.675194,0.1530619 -3.28125,0.4999999 -0.2339407,0.13392 -0.4193807,0.323303 -0.5625,0.53125 l 2.75,0 c 0.333935,-0.01977 0.700866,-0.03125 1.09375,-0.03125 l 1.90625,0 c 0.01951,-0.19249 0.03125,-0.386312 0.03125,-0.59375 l 0,-0.4062499 -1.9375,0 z M 5,12.999914 l 0,1 2.0625,0 c 0.1126977,0.813881 0.4308095,1.503569 1,2.03125 0.7188123,0.653061 1.6941244,0.96875 2.90625,0.96875 0.958417,0 1.775054,-0.173469 2.4375,-0.5 0.662429,-0.333333 1.212266,-0.837371 1.65625,-1.53125 l 0,-1 c -0.443984,0.693879 -0.993821,1.197917 -1.65625,1.53125 -0.662446,0.326531 -1.479083,0.5 -2.4375,0.5 -1.2121256,0 -2.1874377,-0.315689 -2.90625,-0.96875 -0.5691905,-0.527681 -0.8873023,-1.217369 -1,-2.03125 l -2.0625,0 z m 4.0625,0 c 0.1121933,0.328413 0.2961706,0.610765 0.5625,0.84375 0.074876,0.06338 0.1672094,0.102686 0.25,0.15625 l 3.34375,0 c 0.311865,-0.177731 0.595574,-0.406274 0.84375,-0.6875 0.08472,-0.09585 0.14449,-0.208915 0.21875,-0.3125 l -5.21875,0 z m 7.9375,0 0,1 2,0 0,-1 -2,0 z m -1.9375,3 0,1 1.9375,0 0,-1 -1.9375,0 z"
       id="path3738"
       inkscape:connector-curvature="0" />
    <path
       style="color:#000000;font-style:normal;font-variant:normal;font-weight:normal;font-stretch:normal;font-size:12px;line-height:125%;font-family:Sans;-inkscape-font-specification:Sans;text-indent:0;text-align:start;text-decoration:none;text-decoration-line:none;text-decoration-style:solid;text-decoration-color:#000000;letter-spacing:normal;word-spacing:normal;text-transform:none;direction:ltr;block-progression:tb;writing-mode:lr-tb;baseline-shift:baseline;text-anchor:start;white-space:normal;clip-rule:nonzero;display:inline;overflow:visible;visibility:visible;opacity:0.3;isolation:auto;mix-blend-mode:normal;color-interpolation:sRGB;color-interpolation-filters:linearRGB;solid-color:#000000;solid-opacity:1;fill:#000000;fill-opacity:1;fill-rule:nonzero;stroke:none;stroke-width:1.20000005;stroke-linecap:butt;stroke-linejoin:miter;stroke-miterlimit:4;stroke-dasharray:none;stroke-dashoffset:0;stroke-opacity:1;color-rendering:auto;image-rendering:auto;shape-rendering:auto;text-rendering:auto;enable-background:accumulate"
       d="m 11.90625,3.9999141 c -0.634255,1.17e-5 -1.299269,0.082707 -1.96875,0.21875 -0.669489,0.1292631 -1.350734,0.2972051 -2.0625,0.5625 l 0,1.75 c 0.591963,-0.3129158 1.20245,-0.5622776 1.84375,-0.71875 0.641291,-0.1564528 1.292212,-0.2187399 1.96875,-0.21875 1.064123,1.01e-5 1.883823,0.2425695 2.46875,0.71875 0.591958,0.4693967 0.90624,1.136063 0.90625,2 l 0,0.1875 -2.75,0 c -1.768858,7e-6 -3.073758,0.315696 -3.96875,0.96875 C 7.811495,9.8601241 7.466615,10.381693 7.25,10.999914 l -2.25,0 0,2 2.0625,0 c 0.112698,0.813881 0.430809,1.503569 1,2.03125 0.718812,0.653061 1.694124,0.96875 2.90625,0.96875 0.958417,0 1.775054,-0.173469 2.4375,-0.5 0.662429,-0.333333 1.212266,-0.837371 1.65625,-1.53125 l 0,2.03125 1.9375,0 0,-3 2,0 0,-2 -2,0 0,-1.8124999 c -1.1e-5,-1.741488 -0.435595,-3.0490976 -1.28125,-3.90625 -0.845676,-0.8571316 -2.100035,-1.2812383 -3.8125,-1.28125 z m 0,0.5996094 c 1.613404,1.1e-5 2.677923,0.3870985 3.384766,1.1035156 0.703737,0.7133052 1.109364,1.8429338 1.109375,3.484375 l 0,2.4121089 2,0 0,0.800782 -2,0 0,3 -0.738282,0 0,-3.482422 -0.308593,0.482422 -7.13086,0 0.271485,0.792968 c 0.143052,0.418745 0.392254,0.800567 0.736328,1.101563 l 0.00391,0.0039 0.00391,0.002 c 0.576418,0.487943 1.342885,0.736331 2.230469,0.736328 1.170719,3e-6 2.180482,-0.457404 2.927734,-1.24414 -0.362371,0.506014 -0.756996,0.916002 -1.255859,1.167969 -0.562635,0.277331 -1.285856,0.439453 -2.171875,0.439453 -1.106737,0 -1.910067,-0.275569 -2.5,-0.810547 -0.458561,-0.425967 -0.714664,-0.965321 -0.8125,-1.671875 l -0.070312,-0.517578 -1.986329,0 0,-0.800782 2.076172,0 0.140625,-0.40039 c 0.18572,-0.530047 0.45582,-0.934005 0.882813,-1.2480469 0.745132,-0.542819 1.917189,-0.851556 3.613281,-0.851563 l 3.349609,0 0,-0.787109 c -1e-6,-1.0064415 -0.403425,-1.8877391 -1.126953,-2.4648438 l -0.002,-0.00195 C 13.813052,5.2602825 12.841726,4.9940657 11.6875,4.9940547 10.974141,4.9940654 10.272663,5.0604636 9.576172,5.2303829 9.1879,5.3251189 8.838988,5.508611 8.474609,5.6581172 l 0,-0.4199219 C 9.005805,5.0645104 9.530693,4.9089252 10.050781,4.8085079 l 0.0039,-0.00195 0.002,0 C 10.696595,4.6765004 11.32414,4.5995342 11.90625,4.5995235 Z M 13.125,9.3690551 c -1.610492,5e-6 -2.767488,0.112956 -3.580078,0.578125 -0.32696,0.1871679 -0.57392,0.4457009 -0.757813,0.7128899 l -0.646484,0.939453 7.429687,0 0.05664,-0.535156 c 0.02435,-0.226578 0.03515,-0.453728 0.03516,-0.689453 l 0,-1.0058589 -2.537109,0 z m 0,0.599609 1.9375,0 0,0.4062499 c -2e-6,0.218327 -0.0095,0.422628 -0.03125,0.625 l -5.75,0 c 0.143119,-0.207947 0.328559,-0.39733 0.5625,-0.53125 0.606056,-0.346938 1.709714,-0.4999949 3.28125,-0.4999999 z m -4.0625,3.0312499 5.21875,0 c -0.07426,0.103585 -0.134033,0.216652 -0.21875,0.3125 -0.648352,0.734694 -1.515532,1.125002 -2.59375,1.125 -0.782248,2e-6 -1.385685,-0.205994 -1.84375,-0.59375 -0.266329,-0.232985 -0.450307,-0.515337 -0.5625,-0.84375 z"
       id="path2871-2"
       inkscape:connector-curvature="0" />
  </g>
</svg>
