<?xml version="1.0" encoding="UTF-8" standalone="no"?>
<!-- Created with Inkscape (http://www.inkscape.org/) -->

<svg
   xmlns:dc="http://purl.org/dc/elements/1.1/"
   xmlns:cc="http://creativecommons.org/ns#"
   xmlns:rdf="http://www.w3.org/1999/02/22-rdf-syntax-ns#"
   xmlns:svg="http://www.w3.org/2000/svg"
   xmlns="http://www.w3.org/2000/svg"
   xmlns:xlink="http://www.w3.org/1999/xlink"
   xmlns:sodipodi="http://sodipodi.sourceforge.net/DTD/sodipodi-0.dtd"
   xmlns:inkscape="http://www.inkscape.org/namespaces/inkscape"
   width="24"
   height="24"
   id="svg2"
   sodipodi:version="0.32"
   inkscape:version="0.91 r13725"
   version="1.0"
   sodipodi:docname="go-bottom.svg"
   inkscape:output_extension="org.inkscape.output.svg.inkscape"
   inkscape:export-filename="/home/matt/.icons/Sirocco/scalable/mimetypes/text-plain.png"
   inkscape:export-xdpi="90"
   inkscape:export-ydpi="90"
   sodipodi:modified="true"
   style="display:inline">
  <sodipodi:namedview
     id="base"
     pagecolor="#838383"
     bordercolor="#cc0000"
     borderopacity="1"
     inkscape:pageopacity="1"
     inkscape:pageshadow="2"
     inkscape:zoom="22.027846"
     inkscape:cx="-0.021330834"
     inkscape:cy="6.4052387"
     inkscape:document-units="px"
     inkscape:current-layer="layer1"
     width="128px"
     height="128px"
     inkscape:showpageshadow="false"
     inkscape:window-width="1366"
     inkscape:window-height="718"
     inkscape:window-x="0"
     inkscape:window-y="25"
     showguides="true"
     inkscape:guide-bbox="true"
     showgrid="true"
     inkscape:window-maximized="1"
     borderlayer="true">
    <inkscape:grid
       enabled="true"
       visible="true"
       id="grid3231"
       type="xygrid"
       empspacing="8"
       snapvisiblegridlinesonly="true" />
    <sodipodi:guide
       orientation="1,0"
       position="12,1"
       id="guide3791" />
    <sodipodi:guide
       orientation="0,1"
       position="15,7"
       id="guide3793" />
  </sodipodi:namedview>
  <defs
     id="defs4">
    <linearGradient
       inkscape:collect="always"
       xlink:href="#StandardGradient"
       id="linearGradient2549"
       gradientUnits="userSpaceOnUse"
       gradientTransform="matrix(0.9247229,0,0,1.0872097,16.939944,2.9976422)"
       x1="11.998966"
       y1="0.92195445"
       x2="11.998966"
       y2="17.478098" />
    <inkscape:perspective
       sodipodi:type="inkscape:persp3d"
       inkscape:vp_x="0 : 11 : 1"
       inkscape:vp_y="0 : 1000 : 0"
       inkscape:vp_z="22 : 11 : 1"
       inkscape:persp3d-origin="11 : 7.3333333 : 1"
       id="perspective19" />
    <linearGradient
       id="StandardGradient"
       gradientTransform="scale(0.9219544,1.0846523)"
       x1="11.998966"
       y1="0.92195445"
       x2="11.998966"
       y2="19.387045"
       gradientUnits="userSpaceOnUse">
      <stop
         style="stop-color:#000000;stop-opacity:0.27450982;"
         offset="0"
         id="stop3283" />
      <stop
         style="stop-color:#000000;stop-opacity:0.55;"
         offset="1"
         id="stop2651" />
    </linearGradient>
    <linearGradient
       inkscape:collect="always"
       xlink:href="#StandardGradient"
       id="linearGradient2406"
       gradientUnits="userSpaceOnUse"
       gradientTransform="matrix(0.9219544,0,0,1.0846523,0,-1)"
       x1="11.998966"
       y1="2.7658634"
       x2="11.998966"
       y2="19.387045" />
    <linearGradient
       inkscape:collect="always"
       xlink:href="#StandardGradient"
       id="linearGradient3198"
       gradientUnits="userSpaceOnUse"
       gradientTransform="matrix(0.9219544,0,0,1.0846523,0,-1)"
       x1="11.998966"
       y1="2.7658634"
       x2="11.998966"
       y2="19.387045" />
    <linearGradient
       inkscape:collect="always"
       xlink:href="#StandardGradient"
       id="linearGradient4636"
       gradientUnits="userSpaceOnUse"
       gradientTransform="matrix(0.9219544,0,0,1.0846523,-0.01723507,0.96875)"
       x1="11.998966"
       y1="2.7658634"
       x2="11.998966"
       y2="15.702114" />
    <linearGradient
       inkscape:collect="always"
       xlink:href="#StandardGradient"
       id="linearGradient2397"
       gradientUnits="userSpaceOnUse"
       gradientTransform="matrix(0.9219544,0,0,1.0846523,-0.01723507,0.96875)"
       x1="11.998966"
       y1="2.7658634"
       x2="11.998966"
       y2="15.702114" />
    <linearGradient
       inkscape:collect="always"
       xlink:href="#StandardGradient"
       id="linearGradient2402"
       gradientUnits="userSpaceOnUse"
       gradientTransform="matrix(0.9219544,0,0,1.0846523,-0.01723507,0.96875)"
       x1="11.998966"
       y1="2.7658634"
       x2="11.998966"
       y2="15.702114" />
    <linearGradient
       inkscape:collect="always"
       xlink:href="#StandardGradient"
       id="linearGradient2405"
       gradientUnits="userSpaceOnUse"
       gradientTransform="matrix(0.9219544,0,0,1.0846523,-0.01723507,-0.03125)"
       x1="11.998966"
       y1="2.7658634"
       x2="11.998966"
       y2="15.702114" />
    <linearGradient
       inkscape:collect="always"
       xlink:href="#StandardGradient"
       id="linearGradient2415"
       gradientUnits="userSpaceOnUse"
       gradientTransform="matrix(0.9219544,0,0,1.0846523,-0.01723507,-0.03125)"
       x1="11.998966"
       y1="2.7658634"
       x2="11.998966"
       y2="15.702114" />
    <linearGradient
       inkscape:collect="always"
       xlink:href="#StandardGradient"
       id="linearGradient2407"
       gradientUnits="userSpaceOnUse"
       gradientTransform="matrix(0.9219544,0,0,1.0846523,-0.01723507,-1.03125)"
       x1="11.998966"
       y1="2.7658634"
       x2="11.998966"
       y2="15.702114" />
    <linearGradient
       inkscape:collect="always"
       xlink:href="#StandardGradient"
       id="linearGradient2542"
       gradientUnits="userSpaceOnUse"
       gradientTransform="matrix(0.9247229,0,0,1.0872097,-2.060056,5.9976422)"
       x1="11.998966"
       y1="0.92195445"
       x2="11.998966"
       y2="17.478098" />
    <linearGradient
       inkscape:collect="always"
       xlink:href="#StandardGradient"
       id="linearGradient2551"
       gradientUnits="userSpaceOnUse"
       gradientTransform="matrix(0.9219544,0,0,1.0846523,-0.01723507,-1.03125)"
       x1="11.998966"
       y1="2.7658634"
       x2="11.998966"
       y2="15.702114" />
    <linearGradient
       inkscape:collect="always"
       xlink:href="#StandardGradient"
       id="linearGradient2554"
       gradientUnits="userSpaceOnUse"
       gradientTransform="matrix(0.9219544,0,0,1.0846523,-0.01723507,-1.03125)"
       x1="11.998966"
       y1="2.7658634"
       x2="11.998966"
       y2="15.702114" />
    <linearGradient
       inkscape:collect="always"
       xlink:href="#StandardGradient"
       id="linearGradient2424"
       gradientUnits="userSpaceOnUse"
       gradientTransform="matrix(0.9219544,0,0,1.0846523,-0.01723507,-0.03125)"
       x1="11.998966"
       y1="2.7658634"
       x2="11.998966"
       y2="15.702114" />
    <linearGradient
       inkscape:collect="always"
       xlink:href="#StandardGradient"
       id="linearGradient3208"
       gradientUnits="userSpaceOnUse"
       gradientTransform="matrix(0.9219544,0,0,1.0846523,-0.01723507,-0.03125)"
       x1="11.998966"
       y1="2.7658634"
       x2="11.998966"
       y2="15.702114" />
    <linearGradient
       inkscape:collect="always"
       xlink:href="#StandardGradient"
       id="linearGradient3213"
       gradientUnits="userSpaceOnUse"
       gradientTransform="matrix(0.9219544,0,0,1.0846523,-0.01723507,-0.03125)"
       x1="11.998966"
       y1="2.7658634"
       x2="11.998966"
       y2="15.702114" />
    <linearGradient
       inkscape:collect="always"
       xlink:href="#StandardGradient"
       id="linearGradient3221"
       gradientUnits="userSpaceOnUse"
       gradientTransform="matrix(0.9219544,0,0,1.0846523,-0.01723507,-0.03125)"
       x1="11.998966"
       y1="2.7658634"
       x2="11.998966"
       y2="15.702114" />
    <inkscape:perspective
       id="perspective2850"
       inkscape:persp3d-origin="0.5 : 0.33333333 : 1"
       inkscape:vp_z="1 : 0.5 : 1"
       inkscape:vp_y="0 : 1000 : 0"
       inkscape:vp_x="0 : 0.5 : 1"
       sodipodi:type="inkscape:persp3d" />
    <linearGradient
       inkscape:collect="always"
       xlink:href="#StandardGradient"
       id="linearGradient3644"
       gradientUnits="userSpaceOnUse"
       gradientTransform="matrix(0.9219544,0,0,1.0846523,-30.017235,-0.03125)"
       x1="11.998966"
       y1="2.7658634"
       x2="11.998966"
       y2="15.702114" />
    <clipPath
       clipPathUnits="userSpaceOnUse"
       id="clipPath3651">
      <path
         style="display:inline;fill:#ff00ff;fill-opacity:1;stroke:none"
         d="m -30,0 0,22 22,0 0,-22 -22,0 z m 4,2 3.96875,0 c 0.554,0 1,0.446 1,1 l 0,1 8.5,0 c 0.669688,0 1.243585,0.3963931 1.4375,1 C -11.04026,5.1544781 -11,5.326875 -11,5.5 l 0,0.5 -5,0 -1,0 -4.21875,0 L -27,6 l 0,-1 0,-2 c 0,-0.554 0.446,-1 1,-1 z m -0.5,5 5,0 8,0 2,0 c 0.831,0 1.5,0.669 1.5,1.5 l 0,8 c 0,0.831 -0.669,1.5 -1.5,1.5 l -0.5,0 0,0.25 0,1.25 c 0,0.831 -0.669,1.5 -1.5,1.5 l -8,0 c -0.831,0 -1.5,-0.669 -1.5,-1.5 l 0,-1.5 -3.5,0 c -0.831,0 -1.5,-0.669 -1.5,-1.5 l 0,-8 C -28,7.669 -27.331,7 -26.5,7 Z m 6,2 C -20.777,9 -21,9.223 -21,9.5 l 0,9 c 0,0.277 0.223,0.5 0.5,0.5 l 6,0 c 0.277,0 0.5,-0.223 0.5,-0.5 l 0,-9 C -14,9.223 -14.223,9 -14.5,9 l -2.90625,0 -2.09375,0 -1,0 z"
         id="path3653"
         inkscape:connector-curvature="0" />
    </clipPath>
    <linearGradient
       inkscape:collect="always"
       xlink:href="#StandardGradient"
       id="linearGradient5006"
       gradientUnits="userSpaceOnUse"
       gradientTransform="matrix(0.9219544,0,0,1.0846523,-0.01723507,-0.03125)"
       x1="11.998966"
       y1="2.7658634"
       x2="11.998966"
       y2="15.702114" />
    <linearGradient
       inkscape:collect="always"
       xlink:href="#StandardGradient"
       id="linearGradient5010"
       gradientUnits="userSpaceOnUse"
       gradientTransform="matrix(0.9219544,0,0,1.0846523,-0.01723507,-0.03125)"
       x1="11.998966"
       y1="2.7658634"
       x2="11.998966"
       y2="15.702114" />
    <radialGradient
       inkscape:collect="always"
       xlink:href="#StandardGradient"
       id="radialGradient3799"
       gradientUnits="userSpaceOnUse"
       gradientTransform="matrix(1.1111111,-7.219351e-8,7.2193516e-8,1.1111112,-1.6666678,-1.4619872)"
       cx="15"
       cy="14.815789"
       fx="15"
       fy="14.815789"
       r="9" />
    <radialGradient
       inkscape:collect="always"
       xlink:href="#StandardGradient"
       id="radialGradient3803"
       gradientUnits="userSpaceOnUse"
       gradientTransform="matrix(1.1111111,-7.219351e-8,7.2193516e-8,1.1111112,-1.6666678,-1.4619872)"
       cx="15"
       cy="14.815789"
       fx="15"
       fy="14.815789"
       r="9" />
    <radialGradient
       inkscape:collect="always"
       xlink:href="#StandardGradient"
       id="radialGradient3805"
       gradientUnits="userSpaceOnUse"
       gradientTransform="matrix(1.1111111,-7.219351e-8,7.2193516e-8,1.1111112,-1.6666678,-1.4619872)"
       cx="15"
       cy="14.815789"
       fx="15"
       fy="14.815789"
       r="9" />
    <radialGradient
       inkscape:collect="always"
       xlink:href="#StandardGradient"
       id="radialGradient3790"
       gradientUnits="userSpaceOnUse"
       gradientTransform="matrix(1.2222222,-1.4352098e-8,1.4352098e-8,1.2222222,-23.133333,-2.9081851)"
       cx="13.200001"
       cy="13.015788"
       fx="13.200001"
       fy="13.015788"
       r="9" />
    <radialGradient
       inkscape:collect="always"
       xlink:href="#StandardGradient"
       id="radialGradient3794"
       gradientUnits="userSpaceOnUse"
       gradientTransform="matrix(1.2222222,-1.4352098e-8,1.4352098e-8,1.2222222,-23.133333,-2.9081851)"
       cx="13.200001"
       cy="13.015788"
       fx="13.200001"
       fy="13.015788"
       r="9" />
    <linearGradient
       id="StandardGradient-9"
       gradientTransform="scale(1.0598527,0.9435274)"
       x1="11.794092"
       y1="3.2126782"
       x2="11.794092"
       y2="20.137329"
       gradientUnits="userSpaceOnUse">
      <stop
         style="stop-color:#000000;stop-opacity:0.86274511;"
         offset="0"
         id="stop3389" />
      <stop
         style="stop-color:#000000;stop-opacity:0.47058824;"
         offset="1"
         id="stop3391" />
    </linearGradient>
    <linearGradient
       inkscape:collect="always"
       xlink:href="#StandardGradient-9"
       id="linearGradient3832"
       gradientUnits="userSpaceOnUse"
       gradientTransform="scale(1.0598527,0.9435274)"
       x1="11.794092"
       y1="3.2126782"
       x2="11.794092"
       y2="20.137329" />
    <linearGradient
       inkscape:collect="always"
       xlink:href="#StandardGradient-9"
       id="linearGradient3836"
       gradientUnits="userSpaceOnUse"
       gradientTransform="scale(1.0598527,0.9435274)"
       x1="11.794092"
       y1="3.2126782"
       x2="11.794092"
       y2="20.137329" />
    <linearGradient
       inkscape:collect="always"
       xlink:href="#StandardGradient-9"
       id="linearGradient3841"
       gradientUnits="userSpaceOnUse"
       gradientTransform="scale(1.0598527,0.9435274)"
       x1="11.794092"
       y1="3.2126782"
       x2="11.794092"
       y2="20.137329" />
    <radialGradient
       inkscape:collect="always"
       xlink:href="#StandardGradient"
       id="radialGradient3846"
       cx="12.527961"
       cy="15.038397"
       fx="12.527961"
       fy="15.038397"
       r="8.96875"
       gradientTransform="matrix(1.783972,5.4155153e-8,-3.7231666e-8,1.2264807,-40.34953,-3.4443056)"
       gradientUnits="userSpaceOnUse" />
    <radialGradient
       inkscape:collect="always"
       xlink:href="#StandardGradient"
       id="radialGradient3824"
       cx="11.5"
       cy="15.55"
       fx="11.5"
       fy="15.55"
       r="7"
       gradientUnits="userSpaceOnUse"
       gradientTransform="matrix(2.2857143,-9.35065e-8,6.4285715e-8,1.5714285,-14.285715,-9.4357131)" />
    <radialGradient
       inkscape:collect="always"
       xlink:href="#StandardGradient"
       id="radialGradient3839"
       gradientUnits="userSpaceOnUse"
       gradientTransform="matrix(2.2857143,-9.35065e-8,6.4285715e-8,1.5714285,-14.285715,-8.4357131)"
       cx="11.5"
       cy="15.55"
       fx="11.5"
       fy="15.55"
       r="7" />
    <radialGradient
       inkscape:collect="always"
       xlink:href="#StandardGradient"
       id="radialGradient3841"
       gradientUnits="userSpaceOnUse"
       gradientTransform="matrix(2.2857143,-9.35065e-8,6.4285715e-8,1.5714285,-14.285715,-9.4357131)"
       cx="11.5"
       cy="15.55"
       fx="11.5"
       fy="15.55"
       r="7" />
    <radialGradient
       inkscape:collect="always"
       xlink:href="#StandardGradient"
       id="radialGradient3848"
       gradientUnits="userSpaceOnUse"
       gradientTransform="matrix(2.2857143,-9.35065e-8,6.4285715e-8,1.5714285,-14.285715,-9.4357131)"
       cx="11.5"
       cy="15.55"
       fx="11.5"
       fy="15.55"
       r="7" />
    <radialGradient
       inkscape:collect="always"
       xlink:href="#StandardGradient"
       id="radialGradient3852"
       gradientUnits="userSpaceOnUse"
       gradientTransform="matrix(2.2857143,-9.35065e-8,6.4285715e-8,1.5714285,-14.285715,-9.4357131)"
       cx="11.5"
       cy="15.55"
       fx="11.5"
       fy="15.55"
       r="7" />
    <radialGradient
       inkscape:collect="always"
       xlink:href="#StandardGradient"
       id="radialGradient3854"
       gradientUnits="userSpaceOnUse"
       gradientTransform="matrix(2.2857143,-9.35065e-8,6.4285715e-8,1.5714285,-14.285715,-9.4357131)"
       cx="11.5"
       cy="15.55"
       fx="11.5"
       fy="15.55"
       r="7" />
    <radialGradient
       inkscape:collect="always"
       xlink:href="#StandardGradient"
       id="radialGradient3859"
       gradientUnits="userSpaceOnUse"
       gradientTransform="matrix(2.2857143,-9.35065e-8,6.4285715e-8,1.5714285,-14.285715,-8.4357131)"
       cx="11.5"
       cy="15.55"
       fx="11.5"
       fy="15.55"
       r="7" />
    <radialGradient
       inkscape:collect="always"
       xlink:href="#StandardGradient"
       id="radialGradient3863"
       gradientUnits="userSpaceOnUse"
       gradientTransform="matrix(2.2857143,-9.35065e-8,6.4285715e-8,1.5714285,-14.285715,-9.4357131)"
       cx="11.5"
       cy="15.55"
       fx="11.5"
       fy="15.55"
       r="7" />
    <radialGradient
       inkscape:collect="always"
       xlink:href="#StandardGradient"
       id="radialGradient3870"
       gradientUnits="userSpaceOnUse"
       gradientTransform="matrix(2.2857143,-9.35065e-8,6.4285715e-8,1.5714285,-14.285715,-9.4357131)"
       cx="11.5"
       cy="15.55"
       fx="11.5"
       fy="15.55"
       r="7" />
    <radialGradient
       inkscape:collect="always"
       xlink:href="#StandardGradient"
       id="radialGradient3874"
       gradientUnits="userSpaceOnUse"
       gradientTransform="matrix(2.2857143,-9.35065e-8,6.4285715e-8,1.5714285,-14.285715,-9.4357131)"
       cx="11.5"
       cy="15.55"
       fx="11.5"
       fy="15.55"
       r="7" />
    <radialGradient
       inkscape:collect="always"
       xlink:href="#StandardGradient-7"
       id="radialGradient3091"
       gradientUnits="userSpaceOnUse"
       gradientTransform="matrix(2.2778694,0,0,1.2857142,8.863206,-6.1159154)"
       cx="10.181316"
       cy="16.423491"
       fx="10.181316"
       fy="16.423491"
       r="7" />
    <linearGradient
       id="StandardGradient-7"
       gradientTransform="scale(0.9219544,1.0846523)"
       x1="11.998966"
       y1="0.92195445"
       x2="11.998966"
       y2="19.387045"
       gradientUnits="userSpaceOnUse">
      <stop
         style="stop-color:#000000;stop-opacity:0.27450982;"
         offset="0"
         id="stop3283-1" />
      <stop
         style="stop-color:#000000;stop-opacity:0.55;"
         offset="1"
         id="stop2651-6" />
    </linearGradient>
    <radialGradient
       inkscape:collect="always"
       xlink:href="#StandardGradient-7"
       id="radialGradient3046"
       gradientUnits="userSpaceOnUse"
       gradientTransform="matrix(2.2778694,0,0,1.2857142,-11.136794,-6.1159154)"
       cx="10.181316"
       cy="16.423491"
       fx="10.181316"
       fy="16.423491"
       r="7" />
    <radialGradient
       inkscape:collect="always"
       xlink:href="#StandardGradient-7"
       id="radialGradient3050"
       gradientUnits="userSpaceOnUse"
       gradientTransform="matrix(2.2778694,0,0,1.2857142,-11.136794,-6.1159154)"
       cx="10.181316"
       cy="16.423491"
       fx="10.181316"
       fy="16.423491"
       r="7" />
    <radialGradient
       inkscape:collect="always"
       xlink:href="#StandardGradient-7"
       id="radialGradient3055"
       gradientUnits="userSpaceOnUse"
       gradientTransform="matrix(2.2778694,0,0,1.2857142,-11.136794,-6.1159154)"
       cx="10.181316"
       cy="16.423491"
       fx="10.181316"
       fy="16.423491"
       r="7" />
    <radialGradient
       inkscape:collect="always"
       xlink:href="#StandardGradient-7"
       id="radialGradient3060"
       gradientUnits="userSpaceOnUse"
       gradientTransform="matrix(2.2778694,0,0,1.2857142,-11.136794,-6.1159154)"
       cx="10.181316"
       cy="16.423491"
       fx="10.181316"
       fy="16.423491"
       r="7" />
    <radialGradient
       inkscape:collect="always"
       xlink:href="#StandardGradient-7"
       id="radialGradient3064"
       gradientUnits="userSpaceOnUse"
       gradientTransform="matrix(2.2778694,0,0,1.2857142,-11.136794,-5.1159154)"
       cx="10.181316"
       cy="16.423491"
       fx="10.181316"
       fy="16.423491"
       r="7" />
    <radialGradient
       inkscape:collect="always"
       xlink:href="#StandardGradient-7"
       id="radialGradient3837"
       gradientUnits="userSpaceOnUse"
       gradientTransform="matrix(2.2778694,0,0,1.2857142,-11.136794,-5.1159154)"
       cx="10.181316"
       cy="16.423491"
       fx="10.181316"
       fy="16.423491"
       r="7" />
    <radialGradient
       inkscape:collect="always"
       xlink:href="#StandardGradient-7"
       id="radialGradient3842"
       gradientUnits="userSpaceOnUse"
       gradientTransform="matrix(2.2778694,0,0,1.2857142,-11.136794,-6.1159154)"
       cx="10.181316"
       cy="16.423491"
       fx="10.181316"
       fy="16.423491"
       r="7" />
    <radialGradient
       inkscape:collect="always"
       xlink:href="#StandardGradient-7"
       id="radialGradient3849"
       gradientUnits="userSpaceOnUse"
       gradientTransform="matrix(2.2778694,0,0,1.2857142,-11.136794,-6.1159154)"
       cx="10.181316"
       cy="16.423491"
       fx="10.181316"
       fy="16.423491"
       r="7" />
    <radialGradient
       inkscape:collect="always"
       xlink:href="#StandardGradient-7"
       id="radialGradient3853"
       gradientUnits="userSpaceOnUse"
       gradientTransform="matrix(2.2778694,0,0,1.2857142,-11.136794,-6.1159154)"
       cx="10.181316"
       cy="16.423491"
       fx="10.181316"
       fy="16.423491"
       r="7" />
    <radialGradient
       inkscape:collect="always"
       xlink:href="#StandardGradient"
       id="radialGradient3845"
       cx="10.127547"
       cy="12.715388"
       fx="10.127547"
       fy="12.715388"
       r="7.5"
       gradientTransform="matrix(2.1333333,0,0,1.1999999,-9.6054328,1.7415346)"
       gradientUnits="userSpaceOnUse" />
    <radialGradient
       inkscape:collect="always"
       xlink:href="#StandardGradient"
       id="radialGradient3851"
       gradientUnits="userSpaceOnUse"
       gradientTransform="matrix(2.1333333,0,0,1.3333334,-13.6,-4.9484178)"
       cx="12"
       cy="14.961313"
       fx="12"
       fy="14.961313"
       r="7.5" />
    <radialGradient
       inkscape:collect="always"
       xlink:href="#StandardGradient"
       id="radialGradient3855"
       gradientUnits="userSpaceOnUse"
       gradientTransform="matrix(2.1333333,0,0,1.3333334,-13.6,-4.9484178)"
       cx="12"
       cy="14.961313"
       fx="12"
       fy="14.961313"
       r="7.5" />
    <radialGradient
       inkscape:collect="always"
       xlink:href="#StandardGradient"
       id="radialGradient3860"
       gradientUnits="userSpaceOnUse"
       gradientTransform="matrix(2.1333333,0,0,1.3333334,-13.6,-4.9484178)"
       cx="12"
       cy="14.961313"
       fx="12"
       fy="14.961313"
       r="7.5" />
    <radialGradient
       inkscape:collect="always"
       xlink:href="#StandardGradient"
       id="radialGradient3867"
       gradientUnits="userSpaceOnUse"
       gradientTransform="matrix(2.1333333,0,0,1.3333334,-13.6,-3.9484178)"
       cx="12"
       cy="14.961313"
       fx="12"
       fy="14.961313"
       r="7.5" />
    <radialGradient
       inkscape:collect="always"
       xlink:href="#StandardGradient"
       id="radialGradient3869"
       gradientUnits="userSpaceOnUse"
       gradientTransform="matrix(2.1333333,0,0,1.3333334,-13.6,-4.9484178)"
       cx="12"
       cy="14.961313"
       fx="12"
       fy="14.961313"
       r="7.5" />
    <radialGradient
       inkscape:collect="always"
       xlink:href="#StandardGradient"
       id="radialGradient3875"
       gradientUnits="userSpaceOnUse"
       gradientTransform="matrix(2.1333333,0,0,1.3333334,-13.6,-3.9484178)"
       cx="12"
       cy="14.961313"
       fx="12"
       fy="14.961313"
       r="7.5" />
    <radialGradient
       inkscape:collect="always"
       xlink:href="#StandardGradient"
       id="radialGradient3879"
       gradientUnits="userSpaceOnUse"
       gradientTransform="matrix(2.1333333,0,0,1.3333334,-13.6,-4.9484178)"
       cx="12"
       cy="14.961313"
       fx="12"
       fy="14.961313"
       r="7.5" />
    <radialGradient
       inkscape:collect="always"
       xlink:href="#StandardGradient"
       id="radialGradient3886"
       gradientUnits="userSpaceOnUse"
       gradientTransform="matrix(2.1333333,0,0,1.3333334,-13.6,-4.9484178)"
       cx="12"
       cy="14.961313"
       fx="12"
       fy="14.961313"
       r="7.5" />
    <radialGradient
       inkscape:collect="always"
       xlink:href="#StandardGradient"
       id="radialGradient3890"
       gradientUnits="userSpaceOnUse"
       gradientTransform="matrix(2.1333333,0,0,1.3333334,-13.6,-4.9484178)"
       cx="12"
       cy="14.961313"
       fx="12"
       fy="14.961313"
       r="7.5" />
    <radialGradient
       inkscape:collect="always"
       xlink:href="#StandardGradient"
       id="radialGradient3088"
       gradientUnits="userSpaceOnUse"
       gradientTransform="matrix(2.1333333,1.1011021e-7,-6.8818887e-8,1.3333334,-9.6054319,-0.9538539)"
       cx="10.127547"
       cy="12.715388"
       fx="10.127547"
       fy="12.715388"
       r="7.5" />
    <radialGradient
       inkscape:collect="always"
       xlink:href="#StandardGradient"
       id="radialGradient3090"
       gradientUnits="userSpaceOnUse"
       gradientTransform="matrix(2.1333333,1.1011021e-7,-6.8818887e-8,1.3333334,-9.6054319,-1.9538539)"
       cx="10.127547"
       cy="12.715388"
       fx="10.127547"
       fy="12.715388"
       r="7.5" />
    <radialGradient
       inkscape:collect="always"
       xlink:href="#StandardGradient"
       id="radialGradient3864"
       gradientUnits="userSpaceOnUse"
       gradientTransform="matrix(2.1333333,1.1011021e-7,-6.8818887e-8,1.3333334,-9.6054319,-0.9538539)"
       cx="10.127547"
       cy="12.715388"
       fx="10.127547"
       fy="12.715388"
       r="7.5" />
    <radialGradient
       inkscape:collect="always"
       xlink:href="#StandardGradient"
       id="radialGradient3868"
       gradientUnits="userSpaceOnUse"
       gradientTransform="matrix(2.1333333,1.1011021e-7,-6.8818887e-8,1.3333334,-9.6054319,-1.9538539)"
       cx="10.127547"
       cy="12.715388"
       fx="10.127547"
       fy="12.715388"
       r="7.5" />
    <radialGradient
       inkscape:collect="always"
       xlink:href="#StandardGradient"
       id="radialGradient3092"
       gradientUnits="userSpaceOnUse"
       gradientTransform="matrix(2.1333333,0,0,-1.1999999,-8.6054328,19.258465)"
       cx="10.127546"
       cy="4.3820543"
       fx="10.127546"
       fy="4.3820543"
       r="7.5" />
    <radialGradient
       inkscape:collect="always"
       xlink:href="#StandardGradient"
       id="radialGradient3098"
       gradientUnits="userSpaceOnUse"
       gradientTransform="matrix(2.1333333,0,0,1.1999999,-9.6054328,1.7415346)"
       cx="10.127547"
       cy="11.048722"
       fx="10.127547"
       fy="11.048722"
       r="7.5" />
    <radialGradient
       inkscape:collect="always"
       xlink:href="#StandardGradient"
       id="radialGradient3102"
       gradientUnits="userSpaceOnUse"
       gradientTransform="matrix(2.1333333,0,0,1.1999999,-9.6054328,1.7415346)"
       cx="10.127547"
       cy="11.048722"
       fx="10.127547"
       fy="11.048722"
       r="7.5" />
    <radialGradient
       inkscape:collect="always"
       xlink:href="#StandardGradient"
       id="radialGradient3104"
       gradientUnits="userSpaceOnUse"
       gradientTransform="matrix(2.1333333,0,0,1.1999999,-9.6054328,1.7415346)"
       cx="10.127547"
       cy="11.048722"
       fx="10.127547"
       fy="11.048722"
       r="7.5" />
    <radialGradient
       inkscape:collect="always"
       xlink:href="#StandardGradient"
       id="radialGradient3880"
       gradientUnits="userSpaceOnUse"
       gradientTransform="matrix(2.1333333,0,0,1.1999999,-9.6054328,2.7415346)"
       cx="10.127547"
       cy="11.048722"
       fx="10.127547"
       fy="11.048722"
       r="7.5" />
    <radialGradient
       inkscape:collect="always"
       xlink:href="#StandardGradient"
       id="radialGradient3882"
       gradientUnits="userSpaceOnUse"
       gradientTransform="matrix(2.1333333,0,0,1.1999999,-9.6054328,1.7415346)"
       cx="10.127547"
       cy="11.048722"
       fx="10.127547"
       fy="11.048722"
       r="7.5" />
    <radialGradient
       inkscape:collect="always"
       xlink:href="#StandardGradient"
       id="radialGradient3887"
       gradientUnits="userSpaceOnUse"
       gradientTransform="matrix(2.1333333,0,0,1.1999999,-9.6054328,2.7415346)"
       cx="10.127547"
       cy="11.048722"
       fx="10.127547"
       fy="11.048722"
       r="7.5" />
    <radialGradient
       inkscape:collect="always"
       xlink:href="#StandardGradient"
       id="radialGradient3891"
       gradientUnits="userSpaceOnUse"
       gradientTransform="matrix(2.1333333,0,0,1.1999999,-9.6054328,1.7415346)"
       cx="10.127547"
       cy="11.048722"
       fx="10.127547"
       fy="11.048722"
       r="7.5" />
    <radialGradient
       inkscape:collect="always"
       xlink:href="#StandardGradient"
       id="radialGradient3898"
       gradientUnits="userSpaceOnUse"
       gradientTransform="matrix(2.1333333,0,0,1.1999999,-9.6054328,1.7415346)"
       cx="10.127547"
       cy="11.048722"
       fx="10.127547"
       fy="11.048722"
       r="7.5" />
    <radialGradient
       inkscape:collect="always"
       xlink:href="#StandardGradient"
       id="radialGradient3902"
       gradientUnits="userSpaceOnUse"
       gradientTransform="matrix(2.1333333,0,0,1.1999999,-9.6054328,1.7415346)"
       cx="10.127547"
       cy="11.048722"
       fx="10.127547"
       fy="11.048722"
       r="7.5" />
    <radialGradient
       inkscape:collect="always"
       xlink:href="#StandardGradient"
       id="radialGradient3928"
       gradientUnits="userSpaceOnUse"
       gradientTransform="matrix(2.1333333,0,0,-1.1999999,-9.6054328,21.258465)"
       cx="10.127546"
       cy="4.3820543"
       fx="10.127546"
       fy="4.3820543"
       r="7.5" />
    <radialGradient
       inkscape:collect="always"
       xlink:href="#StandardGradient"
       id="radialGradient3930"
       gradientUnits="userSpaceOnUse"
       gradientTransform="matrix(2.1333333,0,0,-1.1999999,-9.6054328,20.258465)"
       cx="10.127546"
       cy="4.3820543"
       fx="10.127546"
       fy="4.3820543"
       r="7.5" />
    <radialGradient
       inkscape:collect="always"
       xlink:href="#StandardGradient"
       id="radialGradient3935"
       gradientUnits="userSpaceOnUse"
       gradientTransform="matrix(2.1333333,0,0,-1.1999999,-9.6054328,21.258465)"
       cx="10.127546"
       cy="4.3820543"
       fx="10.127546"
       fy="4.3820543"
       r="7.5" />
    <radialGradient
       inkscape:collect="always"
       xlink:href="#StandardGradient"
       id="radialGradient3939"
       gradientUnits="userSpaceOnUse"
       gradientTransform="matrix(2.1333333,0,0,-1.1999999,-9.6054328,20.258465)"
       cx="10.127546"
       cy="4.3820543"
       fx="10.127546"
       fy="4.3820543"
       r="7.5" />
  </defs>
  <metadata
     id="metadata7">
    <rdf:RDF>
      <cc:Work
         rdf:about="">
        <dc:format>image/svg+xml</dc:format>
        <dc:type
           rdf:resource="http://purl.org/dc/dcmitype/StillImage" />
        <dc:title></dc:title>
      </cc:Work>
    </rdf:RDF>
  </metadata>
  <g
     style="display:inline"
     inkscape:label="Calque 1"
     id="layer1"
     inkscape:groupmode="layer"
     transform="translate(0,2)">
    <path
       style="color:#000000;display:inline;overflow:visible;visibility:visible;opacity:0.05;fill:#ffffff;fill-opacity:1;fill-rule:nonzero;stroke:none;stroke-width:0.80000001;marker:none;enable-background:accumulate"
       d="M 12,21 C 10.346825,21 9,19.653175 9,18 9,16.745445 9.8680207,15.857432 10.96875,15.40625 L 3.84375,8.3125 C 3.5236134,7.992376 3.4375,7.521121 3.4375,7.25 c 0,-0.271121 0.086139,-0.742389 0.40625,-1.0625 l 2.125,-2.125 c 0.5953313,-0.595332 1.5609187,-0.595332 2.15625,0 L 9,4.9375 9,0.5 C 9,-0.321812 9.6781878,-1 10.5,-1 l 3,0 c 0.821812,0 1.5,0.678188 1.5,1.5 l 0,4.4375 0.875,-0.875 c 0.59533,-0.59533 1.56092,-0.59533 2.15625,0 l 2.125,2.125 c 0.557157,0.557157 0.557157,1.567843 0,2.125 l -7.125,7.09375 C 14.131979,15.857432 15,16.745445 15,18 c 0,1.653176 -1.346825,3 -3,3 z m 0,-1 c 1.104569,0 2,-0.895431 2,-2 0,-1.10457 -0.895431,-2 -2,-2 -1.104569,0 -2,0.89543 -2,2 0,1.104569 0.895431,2 2,2 z m 0,-5 7.4375,-7.40625 c 0.195869,-0.195869 0.195869,-0.491631 0,-0.6875 l -2.125,-2.125 c -0.195869,-0.195869 -0.522881,-0.195869 -0.71875,0 L 14,7.375 14,0.5 C 14,0.223 13.777,0 13.5,0 l -3,0 C 10.223,0 10,0.223 10,0.5 L 10,7.375 7.40625,4.78125 c -0.1958686,-0.195869 -0.5228814,-0.195869 -0.71875,0 l -2.125,2.125 C 4.464566,7.004184 4.4375,7.12219 4.4375,7.25 c 0,0.12781 0.027066,0.24582 0.125,0.34375 L 12,15 Z"
       id="path3900"
       inkscape:connector-curvature="0" />
    <path
       style="color:#000000;display:inline;overflow:visible;visibility:visible;fill:url(#radialGradient3092);fill-opacity:1;fill-rule:nonzero;stroke:none;stroke-width:0.80000001;marker:none;enable-background:accumulate"
       d="m 12,20 c -1.104569,0 -2,-0.895431 -2,-2 0,-1.10457 0.895431,-2 2,-2 1.104569,0 2,0.89543 2,2 0,1.104569 -0.895431,2 -2,2 z M 12,15 4.5625,7.59375 C 4.464566,7.49582 4.4375,7.37781 4.4375,7.25 c 0,-0.12781 0.027066,-0.245816 0.125,-0.34375 l 2.125,-2.125 c 0.1958686,-0.195869 0.5228814,-0.195869 0.71875,0 L 10,7.375 10,0.5 C 10,0.223 10.223,0 10.5,0 l 3,0 C 13.777,0 14,0.223 14,0.5 l 0,6.875 2.59375,-2.59375 c 0.195869,-0.195869 0.522881,-0.195869 0.71875,0 l 2.125,2.125 c 0.195869,0.195869 0.195869,0.491631 0,0.6875 L 12,15 Z"
       id="rect3051"
       inkscape:connector-curvature="0" />
    <rect
       rx="0.5"
       y="-13"
       x="3"
       height="4"
       width="12"
       id="rect3059"
       style="color:#000000;display:inline;overflow:visible;visibility:visible;opacity:0.2;fill:#ffffff;fill-opacity:1;fill-rule:nonzero;stroke:none;stroke-width:0.80000001;marker:none;enable-background:accumulate"
       ry="0.5" />
    <rect
       inkscape:transform-center-y="-3.1819819"
       transform="matrix(0.70710678,0.70710678,-0.70710678,0.70710678,0,0)"
       inkscape:transform-center-x="3.1819821"
       style="color:#000000;display:inline;overflow:visible;visibility:visible;opacity:0.2;fill:#ffffff;fill-opacity:1;fill-rule:nonzero;stroke:none;stroke-width:0.80000001;marker:none;enable-background:accumulate"
       id="rect3061"
       width="9.0000038"
       height="4"
       x="-6.0301561"
       y="-20.525528"
       rx="0.5"
       ry="0.5" />
    <rect
       rx="0.5"
       y="0.96984774"
       x="9.5255232"
       height="4"
       width="9.0000038"
       id="rect3063"
       style="color:#000000;display:inline;overflow:visible;visibility:visible;opacity:0.2;fill:#ffffff;fill-opacity:1;fill-rule:nonzero;stroke:none;stroke-width:0.80000001;marker:none;enable-background:accumulate"
       inkscape:transform-center-x="3.1819818"
       transform="matrix(0.70710678,-0.70710678,0.70710678,0.70710678,0,0)"
       inkscape:transform-center-y="3.1819822"
       ry="0.5" />
    <path
       inkscape:connector-curvature="0"
       id="path3065"
       d="m 15,-14 3,3 -3,3 z"
       style="fill:#ffffff;stroke:none" />
    <path
       style="color:#000000;display:inline;overflow:visible;visibility:visible;opacity:0.3;fill:#000000;fill-opacity:1;fill-rule:nonzero;stroke:none;stroke-width:0.80000001;marker:none;enable-background:accumulate"
       d="m 12,20 c -1.104569,0 -2,-0.895431 -2,-2 0,-1.10457 0.895431,-2 2,-2 1.104569,0 2,0.89543 2,2 0,1.104569 -0.895431,2 -2,2 z m 0,-0.5 c 0.829825,0 1.5,-0.670174 1.5,-1.5 0,-0.829826 -0.670175,-1.5 -1.5,-1.5 -0.829826,0 -1.5,0.670174 -1.5,1.5 0,0.829826 0.670174,1.5 1.5,1.5 z M 12,15 4.5625,7.59375 C 4.464566,7.49582 4.4375,7.37781 4.4375,7.25 c 0,-0.12781 0.027066,-0.245816 0.125,-0.34375 l 2.125,-2.125 c 0.1958686,-0.195869 0.5228814,-0.195869 0.71875,0 L 10,7.375 10,0.5 C 10,0.223 10.223,0 10.5,0 l 3,0 C 13.777,0 14,0.223 14,0.5 l 0,6.875 2.59375,-2.59375 c 0.195869,-0.195869 0.522881,-0.195869 0.71875,0 l 2.125,2.125 c 0.195869,0.195869 0.195869,0.491631 0,0.6875 L 12,15 Z M 12,14.28125 19.03125,7.25 16.9375,5.1875 14.375,7.75 A 0.508421,0.508421 0 0 1 13.5,7.375 l 0,-6.875 -3,0 0,6.875 A 0.508421,0.508421 0 0 1 9.625,7.75 L 7.0625,5.1875 4.96875,7.25 12,14.28125 Z"
       id="path3094"
       inkscape:connector-curvature="0" />
    <path
       style="color:#000000;display:inline;overflow:visible;visibility:visible;opacity:0.3;fill:#000000;fill-opacity:1;fill-rule:nonzero;stroke:none;stroke-width:0.80000001;marker:none;enable-background:accumulate"
       d="M 10.5,0 C 10.223,0 10,0.223 10,0.5 l 0,1 C 10,1.223 10.223,1 10.5,1 l 3,0 C 13.777,1 14,1.223 14,1.5 l 0,-1 C 14,0.223 13.777,0 13.5,0 l -3,0 z M 7.0625,4.625 c -0.1307203,0 -0.2770657,0.058315 -0.375,0.15625 l -2.125,2.125 C 4.464566,7.004184 4.4375,7.12219 4.4375,7.25 c 0,0.12781 0.027066,0.24582 0.125,0.34375 L 4.71875,7.75 6.6875,5.78125 c 0.1958686,-0.195869 0.5228814,-0.195869 0.71875,0 L 10,8.375 10,7.375 7.40625,4.78125 C 7.3083157,4.6833155 7.1932203,4.625 7.0625,4.625 Z m 9.875,0 c -0.13072,0 -0.245815,0.058315 -0.34375,0.15625 L 14,7.375 l 0,1 2.59375,-2.59375 c 0.195869,-0.195869 0.522881,-0.195869 0.71875,0 L 19.28125,7.75 19.4375,7.59375 c 0.195869,-0.195869 0.195869,-0.491631 0,-0.6875 l -2.125,-2.125 C 17.214565,4.6833155 17.06822,4.625 16.9375,4.625 Z M 12,16 c -1.104569,0 -2,0.89543 -2,2 0,0.172589 0.0214,0.340241 0.0625,0.5 C 10.284463,17.637301 11.068019,17 12,17 c 0.93198,0 1.715537,0.637301 1.9375,1.5 C 13.978604,18.340241 14,18.172589 14,18 14,16.89543 13.104569,16 12,16 Z"
       id="path3924"
       inkscape:connector-curvature="0" />
    <path
       style="color:#000000;display:inline;overflow:visible;visibility:visible;opacity:0.2;fill:#ffffff;fill-opacity:1;fill-rule:nonzero;stroke:none;stroke-width:0.80000001;marker:none;enable-background:accumulate"
       d="M 4.71875,7.75 4.5625,7.90625 C 4.464566,8.004184 4.4375,8.12219 4.4375,8.25 c 0,0.12781 0.027066,0.24582 0.125,0.34375 L 12,16 19.4375,8.59375 c 0.195869,-0.195869 0.195869,-0.491631 0,-0.6875 L 19.28125,7.75 12,15 4.71875,7.75 Z M 10.0625,18.5 C 10.021396,18.659759 10,18.827411 10,19 c 0,1.104569 0.895431,2 2,2 1.104569,0 2,-0.895431 2,-2 0,-0.172589 -0.0214,-0.340241 -0.0625,-0.5 C 13.715537,19.362699 12.93198,20 12,20 11.068019,20 10.284463,19.362699 10.0625,18.5 Z"
       id="path3933"
       inkscape:connector-curvature="0" />
  </g>
</svg>
