<?xml version="1.0" encoding="UTF-8" standalone="no"?>
<!-- Created with Inkscape (http://www.inkscape.org/) -->

<svg
   xmlns:dc="http://purl.org/dc/elements/1.1/"
   xmlns:cc="http://creativecommons.org/ns#"
   xmlns:rdf="http://www.w3.org/1999/02/22-rdf-syntax-ns#"
   xmlns:svg="http://www.w3.org/2000/svg"
   xmlns="http://www.w3.org/2000/svg"
   xmlns:xlink="http://www.w3.org/1999/xlink"
   xmlns:sodipodi="http://sodipodi.sourceforge.net/DTD/sodipodi-0.dtd"
   xmlns:inkscape="http://www.inkscape.org/namespaces/inkscape"
   width="24"
   height="24"
   id="svg2"
   sodipodi:version="0.32"
   inkscape:version="0.91 r13725"
   version="1.0"
   sodipodi:docname="go-jump.svg"
   inkscape:output_extension="org.inkscape.output.svg.inkscape"
   inkscape:export-filename="/home/matt/.icons/Sirocco/scalable/mimetypes/text-plain.png"
   inkscape:export-xdpi="90"
   inkscape:export-ydpi="90"
   sodipodi:modified="true"
   style="display:inline">
  <sodipodi:namedview
     id="base"
     pagecolor="#838383"
     bordercolor="#cc0000"
     borderopacity="1"
     inkscape:pageopacity="1"
     inkscape:pageshadow="2"
     inkscape:zoom="22.027846"
     inkscape:cx="9.406779"
     inkscape:cy="11.337104"
     inkscape:document-units="px"
     inkscape:current-layer="layer1"
     width="128px"
     height="128px"
     inkscape:showpageshadow="false"
     inkscape:window-width="1366"
     inkscape:window-height="718"
     inkscape:window-x="0"
     inkscape:window-y="25"
     showguides="true"
     inkscape:guide-bbox="true"
     showgrid="true"
     inkscape:window-maximized="1"
     borderlayer="true">
    <inkscape:grid
       enabled="true"
       visible="true"
       id="grid3231"
       type="xygrid"
       empspacing="8"
       snapvisiblegridlinesonly="true" />
    <sodipodi:guide
       orientation="1,0"
       position="12,6"
       id="guide3791" />
    <sodipodi:guide
       orientation="0,1"
       position="14,9"
       id="guide3793" />
  </sodipodi:namedview>
  <defs
     id="defs4">
    <linearGradient
       inkscape:collect="always"
       xlink:href="#StandardGradient"
       id="linearGradient2549"
       gradientUnits="userSpaceOnUse"
       gradientTransform="matrix(0.9247229,0,0,1.0872097,16.939944,2.9976422)"
       x1="11.998966"
       y1="0.92195445"
       x2="11.998966"
       y2="17.478098" />
    <inkscape:perspective
       sodipodi:type="inkscape:persp3d"
       inkscape:vp_x="0 : 11 : 1"
       inkscape:vp_y="0 : 1000 : 0"
       inkscape:vp_z="22 : 11 : 1"
       inkscape:persp3d-origin="11 : 7.3333333 : 1"
       id="perspective19" />
    <linearGradient
       id="StandardGradient"
       gradientTransform="scale(0.9219544,1.0846523)"
       x1="11.998966"
       y1="0.92195445"
       x2="11.998966"
       y2="19.387045"
       gradientUnits="userSpaceOnUse">
      <stop
         style="stop-color:#000000;stop-opacity:0.23529412;"
         offset="0"
         id="stop3283" />
      <stop
         id="stop3850"
         offset="0.69999999"
         style="stop-color:#000000;stop-opacity:0.39215686;" />
      <stop
         style="stop-color:#000000;stop-opacity:0.55;"
         offset="1"
         id="stop2651" />
    </linearGradient>
    <linearGradient
       inkscape:collect="always"
       xlink:href="#StandardGradient"
       id="linearGradient2406"
       gradientUnits="userSpaceOnUse"
       gradientTransform="matrix(0.9219544,0,0,1.0846523,0,-1)"
       x1="11.998966"
       y1="2.7658634"
       x2="11.998966"
       y2="19.387045" />
    <linearGradient
       inkscape:collect="always"
       xlink:href="#StandardGradient"
       id="linearGradient3198"
       gradientUnits="userSpaceOnUse"
       gradientTransform="matrix(0.9219544,0,0,1.0846523,0,-1)"
       x1="11.998966"
       y1="2.7658634"
       x2="11.998966"
       y2="19.387045" />
    <linearGradient
       inkscape:collect="always"
       xlink:href="#StandardGradient"
       id="linearGradient4636"
       gradientUnits="userSpaceOnUse"
       gradientTransform="matrix(0.9219544,0,0,1.0846523,-0.01723507,0.96875)"
       x1="11.998966"
       y1="2.7658634"
       x2="11.998966"
       y2="15.702114" />
    <linearGradient
       inkscape:collect="always"
       xlink:href="#StandardGradient"
       id="linearGradient2397"
       gradientUnits="userSpaceOnUse"
       gradientTransform="matrix(0.9219544,0,0,1.0846523,-0.01723507,0.96875)"
       x1="11.998966"
       y1="2.7658634"
       x2="11.998966"
       y2="15.702114" />
    <linearGradient
       inkscape:collect="always"
       xlink:href="#StandardGradient"
       id="linearGradient2402"
       gradientUnits="userSpaceOnUse"
       gradientTransform="matrix(0.9219544,0,0,1.0846523,-0.01723507,0.96875)"
       x1="11.998966"
       y1="2.7658634"
       x2="11.998966"
       y2="15.702114" />
    <linearGradient
       inkscape:collect="always"
       xlink:href="#StandardGradient"
       id="linearGradient2405"
       gradientUnits="userSpaceOnUse"
       gradientTransform="matrix(0.9219544,0,0,1.0846523,-0.01723507,-0.03125)"
       x1="11.998966"
       y1="2.7658634"
       x2="11.998966"
       y2="15.702114" />
    <linearGradient
       inkscape:collect="always"
       xlink:href="#StandardGradient"
       id="linearGradient2415"
       gradientUnits="userSpaceOnUse"
       gradientTransform="matrix(0.9219544,0,0,1.0846523,-0.01723507,-0.03125)"
       x1="11.998966"
       y1="2.7658634"
       x2="11.998966"
       y2="15.702114" />
    <linearGradient
       inkscape:collect="always"
       xlink:href="#StandardGradient"
       id="linearGradient2407"
       gradientUnits="userSpaceOnUse"
       gradientTransform="matrix(0.9219544,0,0,1.0846523,-0.01723507,-1.03125)"
       x1="11.998966"
       y1="2.7658634"
       x2="11.998966"
       y2="15.702114" />
    <linearGradient
       inkscape:collect="always"
       xlink:href="#StandardGradient"
       id="linearGradient2542"
       gradientUnits="userSpaceOnUse"
       gradientTransform="matrix(0.9247229,0,0,1.0872097,-2.060056,5.9976422)"
       x1="11.998966"
       y1="0.92195445"
       x2="11.998966"
       y2="17.478098" />
    <linearGradient
       inkscape:collect="always"
       xlink:href="#StandardGradient"
       id="linearGradient2551"
       gradientUnits="userSpaceOnUse"
       gradientTransform="matrix(0.9219544,0,0,1.0846523,-0.01723507,-1.03125)"
       x1="11.998966"
       y1="2.7658634"
       x2="11.998966"
       y2="15.702114" />
    <linearGradient
       inkscape:collect="always"
       xlink:href="#StandardGradient"
       id="linearGradient2554"
       gradientUnits="userSpaceOnUse"
       gradientTransform="matrix(0.9219544,0,0,1.0846523,-0.01723507,-1.03125)"
       x1="11.998966"
       y1="2.7658634"
       x2="11.998966"
       y2="15.702114" />
    <linearGradient
       inkscape:collect="always"
       xlink:href="#StandardGradient"
       id="linearGradient2424"
       gradientUnits="userSpaceOnUse"
       gradientTransform="matrix(0.9219544,0,0,1.0846523,-0.01723507,-0.03125)"
       x1="11.998966"
       y1="2.7658634"
       x2="11.998966"
       y2="15.702114" />
    <linearGradient
       inkscape:collect="always"
       xlink:href="#StandardGradient"
       id="linearGradient3208"
       gradientUnits="userSpaceOnUse"
       gradientTransform="matrix(0.9219544,0,0,1.0846523,-0.01723507,-0.03125)"
       x1="11.998966"
       y1="2.7658634"
       x2="11.998966"
       y2="15.702114" />
    <linearGradient
       inkscape:collect="always"
       xlink:href="#StandardGradient"
       id="linearGradient3213"
       gradientUnits="userSpaceOnUse"
       gradientTransform="matrix(0.9219544,0,0,1.0846523,-0.01723507,-0.03125)"
       x1="11.998966"
       y1="2.7658634"
       x2="11.998966"
       y2="15.702114" />
    <linearGradient
       inkscape:collect="always"
       xlink:href="#StandardGradient"
       id="linearGradient3221"
       gradientUnits="userSpaceOnUse"
       gradientTransform="matrix(0.9219544,0,0,1.0846523,-0.01723507,-0.03125)"
       x1="11.998966"
       y1="2.7658634"
       x2="11.998966"
       y2="15.702114" />
    <inkscape:perspective
       id="perspective2850"
       inkscape:persp3d-origin="0.5 : 0.33333333 : 1"
       inkscape:vp_z="1 : 0.5 : 1"
       inkscape:vp_y="0 : 1000 : 0"
       inkscape:vp_x="0 : 0.5 : 1"
       sodipodi:type="inkscape:persp3d" />
    <linearGradient
       inkscape:collect="always"
       xlink:href="#StandardGradient"
       id="linearGradient3644"
       gradientUnits="userSpaceOnUse"
       gradientTransform="matrix(0.9219544,0,0,1.0846523,-30.017235,-0.03125)"
       x1="11.998966"
       y1="2.7658634"
       x2="11.998966"
       y2="15.702114" />
    <clipPath
       clipPathUnits="userSpaceOnUse"
       id="clipPath3651">
      <path
         style="display:inline;fill:#ff00ff;fill-opacity:1;stroke:none"
         d="m -30,0 0,22 22,0 0,-22 -22,0 z m 4,2 3.96875,0 c 0.554,0 1,0.446 1,1 l 0,1 8.5,0 c 0.669688,0 1.243585,0.3963931 1.4375,1 C -11.04026,5.1544781 -11,5.326875 -11,5.5 l 0,0.5 -5,0 -1,0 -4.21875,0 L -27,6 l 0,-1 0,-2 c 0,-0.554 0.446,-1 1,-1 z m -0.5,5 5,0 8,0 2,0 c 0.831,0 1.5,0.669 1.5,1.5 l 0,8 c 0,0.831 -0.669,1.5 -1.5,1.5 l -0.5,0 0,0.25 0,1.25 c 0,0.831 -0.669,1.5 -1.5,1.5 l -8,0 c -0.831,0 -1.5,-0.669 -1.5,-1.5 l 0,-1.5 -3.5,0 c -0.831,0 -1.5,-0.669 -1.5,-1.5 l 0,-8 C -28,7.669 -27.331,7 -26.5,7 Z m 6,2 C -20.777,9 -21,9.223 -21,9.5 l 0,9 c 0,0.277 0.223,0.5 0.5,0.5 l 6,0 c 0.277,0 0.5,-0.223 0.5,-0.5 l 0,-9 C -14,9.223 -14.223,9 -14.5,9 l -2.90625,0 -2.09375,0 -1,0 z"
         id="path3653"
         inkscape:connector-curvature="0" />
    </clipPath>
    <linearGradient
       inkscape:collect="always"
       xlink:href="#StandardGradient"
       id="linearGradient5006"
       gradientUnits="userSpaceOnUse"
       gradientTransform="matrix(0.9219544,0,0,1.0846523,-0.01723507,-0.03125)"
       x1="11.998966"
       y1="2.7658634"
       x2="11.998966"
       y2="15.702114" />
    <linearGradient
       inkscape:collect="always"
       xlink:href="#StandardGradient"
       id="linearGradient5010"
       gradientUnits="userSpaceOnUse"
       gradientTransform="matrix(0.9219544,0,0,1.0846523,-0.01723507,-0.03125)"
       x1="11.998966"
       y1="2.7658634"
       x2="11.998966"
       y2="15.702114" />
    <radialGradient
       inkscape:collect="always"
       xlink:href="#StandardGradient"
       id="radialGradient3799"
       gradientUnits="userSpaceOnUse"
       gradientTransform="matrix(1.1111111,-7.219351e-8,7.2193516e-8,1.1111112,-1.6666678,-1.4619872)"
       cx="15"
       cy="14.815789"
       fx="15"
       fy="14.815789"
       r="9" />
    <radialGradient
       inkscape:collect="always"
       xlink:href="#StandardGradient"
       id="radialGradient3803"
       gradientUnits="userSpaceOnUse"
       gradientTransform="matrix(1.1111111,-7.219351e-8,7.2193516e-8,1.1111112,-1.6666678,-1.4619872)"
       cx="15"
       cy="14.815789"
       fx="15"
       fy="14.815789"
       r="9" />
    <radialGradient
       inkscape:collect="always"
       xlink:href="#StandardGradient"
       id="radialGradient3805"
       gradientUnits="userSpaceOnUse"
       gradientTransform="matrix(1.1111111,-7.219351e-8,7.2193516e-8,1.1111112,-1.6666678,-1.4619872)"
       cx="15"
       cy="14.815789"
       fx="15"
       fy="14.815789"
       r="9" />
    <radialGradient
       inkscape:collect="always"
       xlink:href="#StandardGradient"
       id="radialGradient3790"
       gradientUnits="userSpaceOnUse"
       gradientTransform="matrix(1.2222222,-1.4352098e-8,1.4352098e-8,1.2222222,-23.133333,-2.9081851)"
       cx="13.200001"
       cy="13.015788"
       fx="13.200001"
       fy="13.015788"
       r="9" />
    <radialGradient
       inkscape:collect="always"
       xlink:href="#StandardGradient"
       id="radialGradient3794"
       gradientUnits="userSpaceOnUse"
       gradientTransform="matrix(1.2222222,-1.4352098e-8,1.4352098e-8,1.2222222,-23.133333,-2.9081851)"
       cx="13.200001"
       cy="13.015788"
       fx="13.200001"
       fy="13.015788"
       r="9" />
    <radialGradient
       inkscape:collect="always"
       xlink:href="#StandardGradient"
       id="radialGradient3080"
       gradientUnits="userSpaceOnUse"
       gradientTransform="matrix(1.7777777,0,0,1.2222222,-9.7824554,-2.9081853)"
       cx="12.252632"
       cy="13.015788"
       fx="12.252632"
       fy="13.015788"
       r="9" />
    <radialGradient
       inkscape:collect="always"
       xlink:href="#StandardGradient"
       id="radialGradient3856"
       gradientUnits="userSpaceOnUse"
       gradientTransform="matrix(1.7777777,0,0,1.2222222,-9.7824554,-2.9081853)"
       cx="12.252632"
       cy="13.015788"
       fx="12.252632"
       fy="13.015788"
       r="9" />
    <radialGradient
       inkscape:collect="always"
       xlink:href="#StandardGradient"
       id="radialGradient3860"
       gradientUnits="userSpaceOnUse"
       gradientTransform="matrix(1.7777777,0,0,1.2222222,-9.7824554,-2.9081853)"
       cx="12.252632"
       cy="13.015788"
       fx="12.252632"
       fy="13.015788"
       r="9" />
    <radialGradient
       inkscape:collect="always"
       xlink:href="#StandardGradient"
       id="radialGradient3862"
       gradientUnits="userSpaceOnUse"
       gradientTransform="matrix(1.7777777,0,0,1.2222222,-9.7824554,-2.9081853)"
       cx="12.252632"
       cy="13.015788"
       fx="12.252632"
       fy="13.015788"
       r="9" />
    <radialGradient
       inkscape:collect="always"
       xlink:href="#StandardGradient"
       id="radialGradient3869"
       gradientUnits="userSpaceOnUse"
       gradientTransform="matrix(1.7777777,0,0,1.2222222,-9.7824554,-1.9081853)"
       cx="12.252632"
       cy="13.015788"
       fx="12.252632"
       fy="13.015788"
       r="9" />
    <radialGradient
       inkscape:collect="always"
       xlink:href="#StandardGradient"
       id="radialGradient3871"
       gradientUnits="userSpaceOnUse"
       gradientTransform="matrix(1.7777777,0,0,1.2222222,-9.7824554,-2.9081853)"
       cx="12.252632"
       cy="13.015788"
       fx="12.252632"
       fy="13.015788"
       r="9" />
    <radialGradient
       inkscape:collect="always"
       xlink:href="#StandardGradient"
       id="radialGradient3876"
       gradientUnits="userSpaceOnUse"
       gradientTransform="matrix(1.7777777,0,0,1.2222222,-9.7824554,-1.9081853)"
       cx="12.252632"
       cy="13.015788"
       fx="12.252632"
       fy="13.015788"
       r="9" />
    <radialGradient
       inkscape:collect="always"
       xlink:href="#StandardGradient"
       id="radialGradient3880"
       gradientUnits="userSpaceOnUse"
       gradientTransform="matrix(1.7777777,0,0,1.2222222,-9.7824554,-2.9081853)"
       cx="12.252632"
       cy="13.015788"
       fx="12.252632"
       fy="13.015788"
       r="9" />
    <radialGradient
       inkscape:collect="always"
       xlink:href="#StandardGradient"
       id="radialGradient3887"
       gradientUnits="userSpaceOnUse"
       gradientTransform="matrix(1.7777777,0,0,1.2222222,-9.7824554,-2.9081853)"
       cx="12.252632"
       cy="13.015788"
       fx="12.252632"
       fy="13.015788"
       r="9" />
    <radialGradient
       inkscape:collect="always"
       xlink:href="#StandardGradient"
       id="radialGradient3891"
       gradientUnits="userSpaceOnUse"
       gradientTransform="matrix(1.7777777,0,0,1.2222222,-9.7824554,-2.9081853)"
       cx="12.252632"
       cy="13.015788"
       fx="12.252632"
       fy="13.015788"
       r="9" />
    <radialGradient
       inkscape:collect="always"
       xlink:href="#StandardGradient"
       id="radialGradient3084"
       gradientUnits="userSpaceOnUse"
       gradientTransform="matrix(1.7777777,0,0,1.2222222,-9.7824554,-2.9081853)"
       cx="12.252632"
       cy="13.015788"
       fx="12.252632"
       fy="13.015788"
       r="9" />
    <radialGradient
       inkscape:collect="always"
       xlink:href="#StandardGradient"
       id="radialGradient3088"
       gradientUnits="userSpaceOnUse"
       gradientTransform="matrix(1.7777777,0,0,1.2222222,-9.7824554,-2.9081853)"
       cx="12.252632"
       cy="13.015788"
       fx="12.252632"
       fy="13.015788"
       r="9" />
    <radialGradient
       inkscape:collect="always"
       xlink:href="#StandardGradient"
       id="radialGradient3109"
       gradientUnits="userSpaceOnUse"
       gradientTransform="matrix(1.7777777,0,0,1.2222222,-9.7824554,-2.9081853)"
       cx="12.252632"
       cy="13.015788"
       fx="12.252632"
       fy="13.015788"
       r="9" />
    <radialGradient
       inkscape:collect="always"
       xlink:href="#StandardGradient"
       id="radialGradient3113"
       gradientUnits="userSpaceOnUse"
       gradientTransform="matrix(1.7777777,0,0,1.2222222,-9.7824554,-2.9081853)"
       cx="12.252632"
       cy="13.015788"
       fx="12.252632"
       fy="13.015788"
       r="9" />
    <radialGradient
       inkscape:collect="always"
       xlink:href="#StandardGradient"
       id="radialGradient3115"
       gradientUnits="userSpaceOnUse"
       gradientTransform="matrix(1.7777777,0,0,1.2222222,-9.7824554,-2.9081853)"
       cx="12.252632"
       cy="13.015788"
       fx="12.252632"
       fy="13.015788"
       r="9" />
    <radialGradient
       inkscape:collect="always"
       xlink:href="#StandardGradient"
       id="radialGradient3894"
       gradientUnits="userSpaceOnUse"
       gradientTransform="matrix(1.7777777,0,0,1.2222222,-9.7824554,-1.9081853)"
       cx="12.252632"
       cy="13.015788"
       fx="12.252632"
       fy="13.015788"
       r="9" />
    <radialGradient
       inkscape:collect="always"
       xlink:href="#StandardGradient"
       id="radialGradient3896"
       gradientUnits="userSpaceOnUse"
       gradientTransform="matrix(1.7777777,0,0,1.2222222,-9.7824554,-2.9081853)"
       cx="12.252632"
       cy="13.015788"
       fx="12.252632"
       fy="13.015788"
       r="9" />
    <radialGradient
       inkscape:collect="always"
       xlink:href="#StandardGradient"
       id="radialGradient3901"
       gradientUnits="userSpaceOnUse"
       gradientTransform="matrix(1.7777777,0,0,1.2222222,-9.7824554,-1.9081853)"
       cx="12.252632"
       cy="13.015788"
       fx="12.252632"
       fy="13.015788"
       r="9" />
    <radialGradient
       inkscape:collect="always"
       xlink:href="#StandardGradient"
       id="radialGradient3905"
       gradientUnits="userSpaceOnUse"
       gradientTransform="matrix(1.7777777,0,0,1.2222222,-9.7824554,-2.9081853)"
       cx="12.252632"
       cy="13.015788"
       fx="12.252632"
       fy="13.015788"
       r="9" />
    <radialGradient
       inkscape:collect="always"
       xlink:href="#StandardGradient"
       id="radialGradient3912"
       gradientUnits="userSpaceOnUse"
       gradientTransform="matrix(1.7777777,0,0,1.2222222,-9.7824554,-2.9081853)"
       cx="12.252632"
       cy="13.015788"
       fx="12.252632"
       fy="13.015788"
       r="9" />
    <radialGradient
       inkscape:collect="always"
       xlink:href="#StandardGradient"
       id="radialGradient3916"
       gradientUnits="userSpaceOnUse"
       gradientTransform="matrix(1.7777777,0,0,1.2222222,-9.7824554,-2.9081853)"
       cx="12.252632"
       cy="13.015788"
       fx="12.252632"
       fy="13.015788"
       r="9" />
    <radialGradient
       inkscape:collect="always"
       xlink:href="#StandardGradient"
       id="radialGradient3053"
       gradientUnits="userSpaceOnUse"
       gradientTransform="matrix(1.7777777,0,0,1.2222222,-9.7824554,-2.9081853)"
       cx="12.252632"
       cy="13.015788"
       fx="12.252632"
       fy="13.015788"
       r="9" />
    <radialGradient
       inkscape:collect="always"
       xlink:href="#StandardGradient"
       id="radialGradient3057"
       gradientUnits="userSpaceOnUse"
       gradientTransform="matrix(1.7777777,0,0,1.2222222,-9.7824554,-2.9081853)"
       cx="12.252632"
       cy="13.015788"
       fx="12.252632"
       fy="13.015788"
       r="9" />
    <linearGradient
       id="StandardGradient-0"
       gradientTransform="scale(1.1310246,0.8841541)"
       x1="11.162445"
       y1="5.6551228"
       x2="11.162445"
       y2="18.097509"
       gradientUnits="userSpaceOnUse">
      <stop
         style="stop-color:#000000;stop-opacity:0.86274511;"
         offset="0"
         id="stop3280" />
      <stop
         style="stop-color:#000000;stop-opacity:0.47058824;"
         offset="1"
         id="stop3282" />
    </linearGradient>
    <radialGradient
       inkscape:collect="always"
       xlink:href="#StandardGradient"
       id="radialGradient3859"
       cx="12"
       cy="13.070312"
       fx="12"
       fy="13.070312"
       r="8.28125"
       gradientTransform="matrix(1.9320755,6.3849575e-8,-3.591538e-8,1.0867923,-10.184906,-2.2043649)"
       gradientUnits="userSpaceOnUse" />
    <radialGradient
       inkscape:collect="always"
       xlink:href="#StandardGradient"
       id="radialGradient3865"
       gradientUnits="userSpaceOnUse"
       gradientTransform="matrix(1.9320755,6.3849575e-8,-3.591538e-8,1.0867923,-11.184906,-1.2047162)"
       cx="12"
       cy="13.070312"
       fx="12"
       fy="13.070312"
       r="8.28125" />
    <radialGradient
       inkscape:collect="always"
       xlink:href="#StandardGradient"
       id="radialGradient3870"
       gradientUnits="userSpaceOnUse"
       gradientTransform="matrix(1.9320755,6.3849575e-8,-3.591538e-8,1.0867923,-11.184906,-1.2047162)"
       cx="12"
       cy="13.070312"
       fx="12"
       fy="13.070312"
       r="8.28125" />
    <radialGradient
       inkscape:collect="always"
       xlink:href="#StandardGradient"
       id="radialGradient3872"
       gradientUnits="userSpaceOnUse"
       gradientTransform="matrix(1.9320755,6.3849575e-8,-3.591538e-8,1.0867923,-11.184906,-1.2047162)"
       cx="12"
       cy="13.070312"
       fx="12"
       fy="13.070312"
       r="8.28125" />
  </defs>
  <metadata
     id="metadata7">
    <rdf:RDF>
      <cc:Work
         rdf:about="">
        <dc:format>image/svg+xml</dc:format>
        <dc:type
           rdf:resource="http://purl.org/dc/dcmitype/StillImage" />
        <dc:title></dc:title>
      </cc:Work>
    </rdf:RDF>
  </metadata>
  <g
     style="display:inline"
     inkscape:label="Calque 1"
     id="layer1"
     inkscape:groupmode="layer"
     transform="translate(0,2)">
    <path
       inkscape:connector-curvature="0"
       style="display:inline;opacity:0.05;fill:#ffffff;fill-opacity:1;stroke:none"
       d="m 13.875,1.0003516 a 0.99718534,0.99718534 0 0 0 -0.8125,1 l 0,2.03125 a 0.99718534,0.99718534 0 0 0 1,1 l 1.96875,0 c 0.763941,0 0.943462,0.1319603 0.90625,0.09375 -0.03721,-0.03821 0.09375,0.1673437 0.09375,0.9375 l 0,4.8749994 c 0,0.770156 -0.130962,0.97571 -0.09375,0.9375 0.03721,-0.03821 -0.142309,0.09375 -0.90625,0.09375 l -0.96875,0 0,-1.96875 A 0.99718534,0.99718534 0 0 0 13.5,9.1566013 L 7.4375,13.156601 a 0.99718534,0.99718534 0 0 0 -0.21875,0.21875 C 6.9089937,12.347905 6.1212386,11.500351 5,11.500351 c -1.3672923,0 -2.5,1.132708 -2.5,2.5 0,1.367293 1.1327085,2.5 2.5,2.5 1.1212379,0 1.9089935,-0.847554 2.21875,-1.875 a 0.99718534,0.99718534 0 0 0 0.21875,0.21875 l 6.0625,4 a 0.99718534,0.99718534 0 0 0 1.5625,-0.84375 l 0,-2 2,0 c 2.197139,0 4,-1.802862 4,-4 l 0,-6.9999994 c 0,-2.1971382 -1.802861,-4 -4,-4 l -3,0 a 0.99718534,0.99718534 0 0 0 -0.09375,0 0.99718534,0.99718534 0 0 0 -0.09375,0 z m 0.1875,1 3,0 c 1.662001,0 3,1.338 3,3 l 0,6.9999994 c 0,1.662 -1.337999,3 -3,3 l -3,0 0,3 -6.0625,-4 6.0625,-4 0,2.96875 1.96875,0 c 1.671127,0 2,-0.360122 2,-2.03125 l 0,-4.8749994 c 0,-1.6711282 -0.328873,-2.03125 -2,-2.03125 l -1.96875,0 0,-2.03125 z M 5,12.500351 c 0.828427,0 1.5,0.671573 1.5,1.5 0,0.828428 -0.671573,1.5 -1.5,1.5 -0.8284271,0 -1.5,-0.671572 -1.5,-1.5 0,-0.828427 0.6715729,-1.5 1.5,-1.5 z"
       id="path3991" />
    <path
       inkscape:connector-curvature="0"
       style="display:inline;fill:url(#radialGradient3859);fill-opacity:1;stroke:none"
       d="m 14.0625,2.0003516 0,2.03125 1.96875,0 c 1.671127,0 2,0.3601218 2,2.03125 l 0,4.8749994 c 0,1.671128 -0.328873,2.03125 -2,2.03125 l -1.96875,0 0,-2.96875 -6.0625,4 6.0625,4 0,-3 3,0 c 1.662001,0 3,-1.338 3,-3 l 0,-6.9999994 c 0,-1.662 -1.337999,-3 -3,-3 l -3,0 z M 5,12.500351 c -0.8284271,0 -1.5,0.671573 -1.5,1.5 0,0.828428 0.6715729,1.5 1.5,1.5 0.828427,0 1.5,-0.671572 1.5,-1.5 0,-0.828427 -0.671573,-1.5 -1.5,-1.5 z"
       id="path3638" />
    <path
       inkscape:connector-curvature="0"
       style="display:inline;opacity:0.3;fill:#000000;fill-opacity:1;stroke:none"
       d="m 14.0625,2.0003516 0,1 3,0 c 1.662001,0 3,1.338 3,3 l 0,-1 c 0,-1.662 -1.337999,-3 -3,-3 l -3,0 z m 0,7.9999994 -6.0625,4 0.75,0.5 5.3125,-3.5 0,-1 z m 3.96875,0.9375 c 0,1.671128 -0.328873,2.03125 -2,2.03125 l -1.96875,0 0,1 1.96875,0 c 1.671127,0 2,-0.360122 2,-2.03125 l 0,-1 z M 5,12.500351 c -0.8284271,0 -1.5,0.671573 -1.5,1.5 0,0.172589 0.040108,0.345681 0.09375,0.5 0.2038398,-0.586412 0.7504119,-1 1.40625,-1 0.655838,0 1.2024102,0.413588 1.40625,1 0.053642,-0.154319 0.09375,-0.327411 0.09375,-0.5 0,-0.828427 -0.671573,-1.5 -1.5,-1.5 z"
       id="path3645" />
    <path
       inkscape:connector-curvature="0"
       style="display:inline;opacity:0.2;fill:#ffffff;fill-opacity:1;stroke:none"
       d="m 14.0625,4.0316016 0,1 1.96875,0 c 1.671127,0 2,0.3601218 2,2.03125 l 0,-1 c 0,-1.6711282 -0.328873,-2.03125 -2,-2.03125 l -1.96875,0 z m 6,7.9687494 c 0,1.662 -1.337999,3 -3,3 l -3,0 0,1 3,0 c 1.662001,0 3,-1.338 3,-3 l 0,-1 z m -16.46875,2.5 C 3.540108,14.65467 3.5,14.827762 3.5,15.000351 c 0,0.828428 0.6715729,1.5 1.5,1.5 0.828427,0 1.5,-0.671572 1.5,-1.5 0,-0.172589 -0.040108,-0.345681 -0.09375,-0.5 -0.2038398,0.586412 -0.750412,1 -1.40625,1 -0.6558381,0 -1.2024102,-0.413588 -1.40625,-1 z m 5.15625,0 -0.75,0.5 6.0625,4 0,-1 -5.3125,-3.5 z"
       id="path3650" />
    <path
       style="display:inline;opacity:0.3;fill:#000000;fill-opacity:1;stroke:none"
       d="m 14.0625,2.0003513 0,2.03125 1.96875,0 c 1.671127,0 2,0.3601218 2,2.03125 l 0,4.8749997 c 0,1.671128 -0.328873,2.03125 -2,2.03125 l -1.96875,0 0,-2.96875 -6.0625,4 6.0625,4 0,-3 3,0 c 1.662001,0 3,-1.338 3,-3 l 0,-6.9999997 c 0,-1.662 -1.337999,-3 -3,-3 l -3,0 z m 0.53125,0.53125 2.46875,0 c 1.369624,0 2.46875,1.0991267 2.46875,2.46875 l 0,6.9999997 c 0,1.369623 -1.099126,2.46875 -2.46875,2.46875 l -3,0 a 0.54481947,0.54481947 0 0 0 -0.53125,0.53125 l 0,1.96875 -4.5,-2.96875 4.5,-2.96875 0,1.9375 a 0.54481947,0.54481947 0 0 0 0.53125,0.53125 l 1.96875,0 c 0.874695,0 1.56076,-0.04813 2.03125,-0.53125 0.47049,-0.483116 0.5,-1.15995 0.5,-2.03125 l 0,-4.8749997 c 0,-0.8713001 -0.02951,-1.5481341 -0.5,-2.03125 -0.47049,-0.4831159 -1.156555,-0.53125 -2.03125,-0.53125 l -1.4375,0 0,-0.96875 z M 5,12.500351 c -0.8284271,0 -1.5,0.671573 -1.5,1.5 0,0.828428 0.6715729,1.5 1.5,1.5 0.828427,0 1.5,-0.671572 1.5,-1.5 0,-0.828427 -0.671573,-1.5 -1.5,-1.5 z m 0,0.53125 c 0.534014,0 0.96875,0.434736 0.96875,0.96875 0,0.534015 -0.4347355,0.96875 -0.96875,0.96875 -0.5340146,0 -0.96875,-0.434735 -0.96875,-0.96875 0,-0.534014 0.4347358,-0.96875 0.96875,-0.96875 z"
       id="path3861"
       inkscape:connector-curvature="0" />
  </g>
</svg>
