<?xml version="1.0" encoding="UTF-8" standalone="no"?>
<!-- Created with Inkscape (http://www.inkscape.org/) -->

<svg
   xmlns:dc="http://purl.org/dc/elements/1.1/"
   xmlns:cc="http://creativecommons.org/ns#"
   xmlns:rdf="http://www.w3.org/1999/02/22-rdf-syntax-ns#"
   xmlns:svg="http://www.w3.org/2000/svg"
   xmlns="http://www.w3.org/2000/svg"
   xmlns:xlink="http://www.w3.org/1999/xlink"
   xmlns:sodipodi="http://sodipodi.sourceforge.net/DTD/sodipodi-0.dtd"
   xmlns:inkscape="http://www.inkscape.org/namespaces/inkscape"
   width="24"
   height="24"
   id="svg2"
   sodipodi:version="0.32"
   inkscape:version="0.91 r13725"
   version="1.0"
   sodipodi:docname="gtk-edit.svg"
   inkscape:output_extension="org.inkscape.output.svg.inkscape"
   inkscape:export-filename="/home/matt/.icons/Sirocco/scalable/mimetypes/text-plain.png"
   inkscape:export-xdpi="90"
   inkscape:export-ydpi="90"
   sodipodi:modified="true"
   style="display:inline">
  <sodipodi:namedview
     id="base"
     pagecolor="#838383"
     bordercolor="#cc0000"
     borderopacity="1"
     inkscape:pageopacity="1"
     inkscape:pageshadow="2"
     inkscape:zoom="7.7880196"
     inkscape:cx="0.60882782"
     inkscape:cy="5.9771685"
     inkscape:document-units="px"
     inkscape:current-layer="layer1"
     width="128px"
     height="128px"
     inkscape:showpageshadow="false"
     inkscape:window-width="1366"
     inkscape:window-height="718"
     inkscape:window-x="0"
     inkscape:window-y="25"
     showguides="true"
     inkscape:guide-bbox="true"
     showgrid="true"
     inkscape:window-maximized="1"
     borderlayer="true">
    <inkscape:grid
       enabled="true"
       visible="true"
       id="grid3231"
       type="xygrid"
       empspacing="8"
       snapvisiblegridlinesonly="true" />
    <sodipodi:guide
       orientation="1,0"
       position="12,6"
       id="guide3791" />
    <sodipodi:guide
       orientation="0,1"
       position="14,9"
       id="guide3793" />
  </sodipodi:namedview>
  <defs
     id="defs4">
    <linearGradient
       inkscape:collect="always"
       xlink:href="#StandardGradient"
       id="linearGradient2549"
       gradientUnits="userSpaceOnUse"
       gradientTransform="matrix(0.9247229,0,0,1.0872097,16.939944,2.9976422)"
       x1="11.998966"
       y1="0.92195445"
       x2="11.998966"
       y2="17.478098" />
    <inkscape:perspective
       sodipodi:type="inkscape:persp3d"
       inkscape:vp_x="0 : 11 : 1"
       inkscape:vp_y="0 : 1000 : 0"
       inkscape:vp_z="22 : 11 : 1"
       inkscape:persp3d-origin="11 : 7.3333333 : 1"
       id="perspective19" />
    <linearGradient
       id="StandardGradient"
       gradientTransform="scale(0.9219544,1.0846523)"
       x1="11.998966"
       y1="0.92195445"
       x2="11.998966"
       y2="19.387045"
       gradientUnits="userSpaceOnUse">
      <stop
         style="stop-color:#000000;stop-opacity:0.23529412;"
         offset="0"
         id="stop3283" />
      <stop
         id="stop3850"
         offset="0.69999999"
         style="stop-color:#000000;stop-opacity:0.39215686;" />
      <stop
         style="stop-color:#000000;stop-opacity:0.55;"
         offset="1"
         id="stop2651" />
    </linearGradient>
    <linearGradient
       inkscape:collect="always"
       xlink:href="#StandardGradient"
       id="linearGradient2406"
       gradientUnits="userSpaceOnUse"
       gradientTransform="matrix(0.9219544,0,0,1.0846523,0,-1)"
       x1="11.998966"
       y1="2.7658634"
       x2="11.998966"
       y2="19.387045" />
    <linearGradient
       inkscape:collect="always"
       xlink:href="#StandardGradient"
       id="linearGradient3198"
       gradientUnits="userSpaceOnUse"
       gradientTransform="matrix(0.9219544,0,0,1.0846523,0,-1)"
       x1="11.998966"
       y1="2.7658634"
       x2="11.998966"
       y2="19.387045" />
    <linearGradient
       inkscape:collect="always"
       xlink:href="#StandardGradient"
       id="linearGradient4636"
       gradientUnits="userSpaceOnUse"
       gradientTransform="matrix(0.9219544,0,0,1.0846523,-0.01723507,0.96875)"
       x1="11.998966"
       y1="2.7658634"
       x2="11.998966"
       y2="15.702114" />
    <linearGradient
       inkscape:collect="always"
       xlink:href="#StandardGradient"
       id="linearGradient2397"
       gradientUnits="userSpaceOnUse"
       gradientTransform="matrix(0.9219544,0,0,1.0846523,-0.01723507,0.96875)"
       x1="11.998966"
       y1="2.7658634"
       x2="11.998966"
       y2="15.702114" />
    <linearGradient
       inkscape:collect="always"
       xlink:href="#StandardGradient"
       id="linearGradient2402"
       gradientUnits="userSpaceOnUse"
       gradientTransform="matrix(0.9219544,0,0,1.0846523,-0.01723507,0.96875)"
       x1="11.998966"
       y1="2.7658634"
       x2="11.998966"
       y2="15.702114" />
    <linearGradient
       inkscape:collect="always"
       xlink:href="#StandardGradient"
       id="linearGradient2405"
       gradientUnits="userSpaceOnUse"
       gradientTransform="matrix(0.9219544,0,0,1.0846523,-0.01723507,-0.03125)"
       x1="11.998966"
       y1="2.7658634"
       x2="11.998966"
       y2="15.702114" />
    <linearGradient
       inkscape:collect="always"
       xlink:href="#StandardGradient"
       id="linearGradient2415"
       gradientUnits="userSpaceOnUse"
       gradientTransform="matrix(0.9219544,0,0,1.0846523,-0.01723507,-0.03125)"
       x1="11.998966"
       y1="2.7658634"
       x2="11.998966"
       y2="15.702114" />
    <linearGradient
       inkscape:collect="always"
       xlink:href="#StandardGradient"
       id="linearGradient2407"
       gradientUnits="userSpaceOnUse"
       gradientTransform="matrix(0.9219544,0,0,1.0846523,-0.01723507,-1.03125)"
       x1="11.998966"
       y1="2.7658634"
       x2="11.998966"
       y2="15.702114" />
    <linearGradient
       inkscape:collect="always"
       xlink:href="#StandardGradient"
       id="linearGradient2542"
       gradientUnits="userSpaceOnUse"
       gradientTransform="matrix(0.9247229,0,0,1.0872097,-2.060056,5.9976422)"
       x1="11.998966"
       y1="0.92195445"
       x2="11.998966"
       y2="17.478098" />
    <linearGradient
       inkscape:collect="always"
       xlink:href="#StandardGradient"
       id="linearGradient2551"
       gradientUnits="userSpaceOnUse"
       gradientTransform="matrix(0.9219544,0,0,1.0846523,-0.01723507,-1.03125)"
       x1="11.998966"
       y1="2.7658634"
       x2="11.998966"
       y2="15.702114" />
    <linearGradient
       inkscape:collect="always"
       xlink:href="#StandardGradient"
       id="linearGradient2554"
       gradientUnits="userSpaceOnUse"
       gradientTransform="matrix(0.9219544,0,0,1.0846523,-0.01723507,-1.03125)"
       x1="11.998966"
       y1="2.7658634"
       x2="11.998966"
       y2="15.702114" />
    <linearGradient
       inkscape:collect="always"
       xlink:href="#StandardGradient"
       id="linearGradient2424"
       gradientUnits="userSpaceOnUse"
       gradientTransform="matrix(0.9219544,0,0,1.0846523,-0.01723507,-0.03125)"
       x1="11.998966"
       y1="2.7658634"
       x2="11.998966"
       y2="15.702114" />
    <linearGradient
       inkscape:collect="always"
       xlink:href="#StandardGradient"
       id="linearGradient3208"
       gradientUnits="userSpaceOnUse"
       gradientTransform="matrix(0.9219544,0,0,1.0846523,-0.01723507,-0.03125)"
       x1="11.998966"
       y1="2.7658634"
       x2="11.998966"
       y2="15.702114" />
    <linearGradient
       inkscape:collect="always"
       xlink:href="#StandardGradient"
       id="linearGradient3213"
       gradientUnits="userSpaceOnUse"
       gradientTransform="matrix(0.9219544,0,0,1.0846523,-0.01723507,-0.03125)"
       x1="11.998966"
       y1="2.7658634"
       x2="11.998966"
       y2="15.702114" />
    <linearGradient
       inkscape:collect="always"
       xlink:href="#StandardGradient"
       id="linearGradient3221"
       gradientUnits="userSpaceOnUse"
       gradientTransform="matrix(0.9219544,0,0,1.0846523,-0.01723507,-0.03125)"
       x1="11.998966"
       y1="2.7658634"
       x2="11.998966"
       y2="15.702114" />
    <inkscape:perspective
       id="perspective2850"
       inkscape:persp3d-origin="0.5 : 0.33333333 : 1"
       inkscape:vp_z="1 : 0.5 : 1"
       inkscape:vp_y="0 : 1000 : 0"
       inkscape:vp_x="0 : 0.5 : 1"
       sodipodi:type="inkscape:persp3d" />
    <linearGradient
       inkscape:collect="always"
       xlink:href="#StandardGradient"
       id="linearGradient3644"
       gradientUnits="userSpaceOnUse"
       gradientTransform="matrix(0.9219544,0,0,1.0846523,-30.017235,-0.03125)"
       x1="11.998966"
       y1="2.7658634"
       x2="11.998966"
       y2="15.702114" />
    <clipPath
       clipPathUnits="userSpaceOnUse"
       id="clipPath3651">
      <path
         style="display:inline;fill:#ff00ff;fill-opacity:1;stroke:none"
         d="m -30,0 0,22 22,0 0,-22 -22,0 z m 4,2 3.96875,0 c 0.554,0 1,0.446 1,1 l 0,1 8.5,0 c 0.669688,0 1.243585,0.3963931 1.4375,1 C -11.04026,5.1544781 -11,5.326875 -11,5.5 l 0,0.5 -5,0 -1,0 -4.21875,0 L -27,6 l 0,-1 0,-2 c 0,-0.554 0.446,-1 1,-1 z m -0.5,5 5,0 8,0 2,0 c 0.831,0 1.5,0.669 1.5,1.5 l 0,8 c 0,0.831 -0.669,1.5 -1.5,1.5 l -0.5,0 0,0.25 0,1.25 c 0,0.831 -0.669,1.5 -1.5,1.5 l -8,0 c -0.831,0 -1.5,-0.669 -1.5,-1.5 l 0,-1.5 -3.5,0 c -0.831,0 -1.5,-0.669 -1.5,-1.5 l 0,-8 C -28,7.669 -27.331,7 -26.5,7 Z m 6,2 C -20.777,9 -21,9.223 -21,9.5 l 0,9 c 0,0.277 0.223,0.5 0.5,0.5 l 6,0 c 0.277,0 0.5,-0.223 0.5,-0.5 l 0,-9 C -14,9.223 -14.223,9 -14.5,9 l -2.90625,0 -2.09375,0 -1,0 z"
         id="path3653"
         inkscape:connector-curvature="0" />
    </clipPath>
    <linearGradient
       inkscape:collect="always"
       xlink:href="#StandardGradient"
       id="linearGradient5006"
       gradientUnits="userSpaceOnUse"
       gradientTransform="matrix(0.9219544,0,0,1.0846523,-0.01723507,-0.03125)"
       x1="11.998966"
       y1="2.7658634"
       x2="11.998966"
       y2="15.702114" />
    <linearGradient
       inkscape:collect="always"
       xlink:href="#StandardGradient"
       id="linearGradient5010"
       gradientUnits="userSpaceOnUse"
       gradientTransform="matrix(0.9219544,0,0,1.0846523,-0.01723507,-0.03125)"
       x1="11.998966"
       y1="2.7658634"
       x2="11.998966"
       y2="15.702114" />
    <radialGradient
       inkscape:collect="always"
       xlink:href="#StandardGradient"
       id="radialGradient3799"
       gradientUnits="userSpaceOnUse"
       gradientTransform="matrix(1.1111111,-7.219351e-8,7.2193516e-8,1.1111112,-1.6666678,-1.4619872)"
       cx="15"
       cy="14.815789"
       fx="15"
       fy="14.815789"
       r="9" />
    <radialGradient
       inkscape:collect="always"
       xlink:href="#StandardGradient"
       id="radialGradient3803"
       gradientUnits="userSpaceOnUse"
       gradientTransform="matrix(1.1111111,-7.219351e-8,7.2193516e-8,1.1111112,-1.6666678,-1.4619872)"
       cx="15"
       cy="14.815789"
       fx="15"
       fy="14.815789"
       r="9" />
    <radialGradient
       inkscape:collect="always"
       xlink:href="#StandardGradient"
       id="radialGradient3805"
       gradientUnits="userSpaceOnUse"
       gradientTransform="matrix(1.1111111,-7.219351e-8,7.2193516e-8,1.1111112,-1.6666678,-1.4619872)"
       cx="15"
       cy="14.815789"
       fx="15"
       fy="14.815789"
       r="9" />
    <radialGradient
       inkscape:collect="always"
       xlink:href="#StandardGradient"
       id="radialGradient3790"
       gradientUnits="userSpaceOnUse"
       gradientTransform="matrix(1.2222222,-1.4352098e-8,1.4352098e-8,1.2222222,-23.133333,-2.9081851)"
       cx="13.200001"
       cy="13.015788"
       fx="13.200001"
       fy="13.015788"
       r="9" />
    <radialGradient
       inkscape:collect="always"
       xlink:href="#StandardGradient"
       id="radialGradient3794"
       gradientUnits="userSpaceOnUse"
       gradientTransform="matrix(1.2222222,-1.4352098e-8,1.4352098e-8,1.2222222,-23.133333,-2.9081851)"
       cx="13.200001"
       cy="13.015788"
       fx="13.200001"
       fy="13.015788"
       r="9" />
    <radialGradient
       inkscape:collect="always"
       xlink:href="#StandardGradient"
       id="radialGradient3080"
       gradientUnits="userSpaceOnUse"
       gradientTransform="matrix(1.7777777,0,0,1.2222222,-9.7824554,-2.9081853)"
       cx="12.252632"
       cy="13.015788"
       fx="12.252632"
       fy="13.015788"
       r="9" />
    <radialGradient
       inkscape:collect="always"
       xlink:href="#StandardGradient"
       id="radialGradient3856"
       gradientUnits="userSpaceOnUse"
       gradientTransform="matrix(1.7777777,0,0,1.2222222,-9.7824554,-2.9081853)"
       cx="12.252632"
       cy="13.015788"
       fx="12.252632"
       fy="13.015788"
       r="9" />
    <radialGradient
       inkscape:collect="always"
       xlink:href="#StandardGradient"
       id="radialGradient3860"
       gradientUnits="userSpaceOnUse"
       gradientTransform="matrix(1.7777777,0,0,1.2222222,-9.7824554,-2.9081853)"
       cx="12.252632"
       cy="13.015788"
       fx="12.252632"
       fy="13.015788"
       r="9" />
    <radialGradient
       inkscape:collect="always"
       xlink:href="#StandardGradient"
       id="radialGradient3862"
       gradientUnits="userSpaceOnUse"
       gradientTransform="matrix(1.7777777,0,0,1.2222222,-9.7824554,-2.9081853)"
       cx="12.252632"
       cy="13.015788"
       fx="12.252632"
       fy="13.015788"
       r="9" />
    <radialGradient
       inkscape:collect="always"
       xlink:href="#StandardGradient"
       id="radialGradient3869"
       gradientUnits="userSpaceOnUse"
       gradientTransform="matrix(1.7777777,0,0,1.2222222,-9.7824554,-1.9081853)"
       cx="12.252632"
       cy="13.015788"
       fx="12.252632"
       fy="13.015788"
       r="9" />
    <radialGradient
       inkscape:collect="always"
       xlink:href="#StandardGradient"
       id="radialGradient3871"
       gradientUnits="userSpaceOnUse"
       gradientTransform="matrix(1.7777777,0,0,1.2222222,-9.7824554,-2.9081853)"
       cx="12.252632"
       cy="13.015788"
       fx="12.252632"
       fy="13.015788"
       r="9" />
    <radialGradient
       inkscape:collect="always"
       xlink:href="#StandardGradient"
       id="radialGradient3876"
       gradientUnits="userSpaceOnUse"
       gradientTransform="matrix(1.7777777,0,0,1.2222222,-9.7824554,-1.9081853)"
       cx="12.252632"
       cy="13.015788"
       fx="12.252632"
       fy="13.015788"
       r="9" />
    <radialGradient
       inkscape:collect="always"
       xlink:href="#StandardGradient"
       id="radialGradient3880"
       gradientUnits="userSpaceOnUse"
       gradientTransform="matrix(1.7777777,0,0,1.2222222,-9.7824554,-2.9081853)"
       cx="12.252632"
       cy="13.015788"
       fx="12.252632"
       fy="13.015788"
       r="9" />
    <radialGradient
       inkscape:collect="always"
       xlink:href="#StandardGradient"
       id="radialGradient3887"
       gradientUnits="userSpaceOnUse"
       gradientTransform="matrix(1.7777777,0,0,1.2222222,-9.7824554,-2.9081853)"
       cx="12.252632"
       cy="13.015788"
       fx="12.252632"
       fy="13.015788"
       r="9" />
    <radialGradient
       inkscape:collect="always"
       xlink:href="#StandardGradient"
       id="radialGradient3891"
       gradientUnits="userSpaceOnUse"
       gradientTransform="matrix(1.7777777,0,0,1.2222222,-9.7824554,-2.9081853)"
       cx="12.252632"
       cy="13.015788"
       fx="12.252632"
       fy="13.015788"
       r="9" />
    <radialGradient
       inkscape:collect="always"
       xlink:href="#StandardGradient"
       id="radialGradient3084"
       gradientUnits="userSpaceOnUse"
       gradientTransform="matrix(1.7777777,0,0,1.2222222,-9.7824554,-2.9081853)"
       cx="12.252632"
       cy="13.015788"
       fx="12.252632"
       fy="13.015788"
       r="9" />
    <radialGradient
       inkscape:collect="always"
       xlink:href="#StandardGradient"
       id="radialGradient3088"
       gradientUnits="userSpaceOnUse"
       gradientTransform="matrix(1.7777777,0,0,1.2222222,-9.7824554,-2.9081853)"
       cx="12.252632"
       cy="13.015788"
       fx="12.252632"
       fy="13.015788"
       r="9" />
    <radialGradient
       inkscape:collect="always"
       xlink:href="#StandardGradient"
       id="radialGradient3109"
       gradientUnits="userSpaceOnUse"
       gradientTransform="matrix(1.7777777,0,0,1.2222222,-9.7824554,-2.9081853)"
       cx="12.252632"
       cy="13.015788"
       fx="12.252632"
       fy="13.015788"
       r="9" />
    <radialGradient
       inkscape:collect="always"
       xlink:href="#StandardGradient"
       id="radialGradient3113"
       gradientUnits="userSpaceOnUse"
       gradientTransform="matrix(1.7777777,0,0,1.2222222,-9.7824554,-2.9081853)"
       cx="12.252632"
       cy="13.015788"
       fx="12.252632"
       fy="13.015788"
       r="9" />
    <radialGradient
       inkscape:collect="always"
       xlink:href="#StandardGradient"
       id="radialGradient3115"
       gradientUnits="userSpaceOnUse"
       gradientTransform="matrix(1.7777777,0,0,1.2222222,-9.7824554,-2.9081853)"
       cx="12.252632"
       cy="13.015788"
       fx="12.252632"
       fy="13.015788"
       r="9" />
    <radialGradient
       inkscape:collect="always"
       xlink:href="#StandardGradient"
       id="radialGradient3894"
       gradientUnits="userSpaceOnUse"
       gradientTransform="matrix(1.7777777,0,0,1.2222222,-9.7824554,-1.9081853)"
       cx="12.252632"
       cy="13.015788"
       fx="12.252632"
       fy="13.015788"
       r="9" />
    <radialGradient
       inkscape:collect="always"
       xlink:href="#StandardGradient"
       id="radialGradient3896"
       gradientUnits="userSpaceOnUse"
       gradientTransform="matrix(1.7777777,0,0,1.2222222,-9.7824554,-2.9081853)"
       cx="12.252632"
       cy="13.015788"
       fx="12.252632"
       fy="13.015788"
       r="9" />
    <radialGradient
       inkscape:collect="always"
       xlink:href="#StandardGradient"
       id="radialGradient3901"
       gradientUnits="userSpaceOnUse"
       gradientTransform="matrix(1.7777777,0,0,1.2222222,-9.7824554,-1.9081853)"
       cx="12.252632"
       cy="13.015788"
       fx="12.252632"
       fy="13.015788"
       r="9" />
    <radialGradient
       inkscape:collect="always"
       xlink:href="#StandardGradient"
       id="radialGradient3905"
       gradientUnits="userSpaceOnUse"
       gradientTransform="matrix(1.7777777,0,0,1.2222222,-9.7824554,-2.9081853)"
       cx="12.252632"
       cy="13.015788"
       fx="12.252632"
       fy="13.015788"
       r="9" />
    <radialGradient
       inkscape:collect="always"
       xlink:href="#StandardGradient"
       id="radialGradient3912"
       gradientUnits="userSpaceOnUse"
       gradientTransform="matrix(1.7777777,0,0,1.2222222,-9.7824554,-2.9081853)"
       cx="12.252632"
       cy="13.015788"
       fx="12.252632"
       fy="13.015788"
       r="9" />
    <radialGradient
       inkscape:collect="always"
       xlink:href="#StandardGradient"
       id="radialGradient3916"
       gradientUnits="userSpaceOnUse"
       gradientTransform="matrix(1.7777777,0,0,1.2222222,-9.7824554,-2.9081853)"
       cx="12.252632"
       cy="13.015788"
       fx="12.252632"
       fy="13.015788"
       r="9" />
    <radialGradient
       inkscape:collect="always"
       xlink:href="#StandardGradient"
       id="radialGradient3053"
       gradientUnits="userSpaceOnUse"
       gradientTransform="matrix(1.7777777,0,0,1.2222222,-9.7824554,-2.9081853)"
       cx="12.252632"
       cy="13.015788"
       fx="12.252632"
       fy="13.015788"
       r="9" />
    <radialGradient
       inkscape:collect="always"
       xlink:href="#StandardGradient"
       id="radialGradient3057"
       gradientUnits="userSpaceOnUse"
       gradientTransform="matrix(1.7777777,0,0,1.2222222,-9.7824554,-2.9081853)"
       cx="12.252632"
       cy="13.015788"
       fx="12.252632"
       fy="13.015788"
       r="9" />
    <linearGradient
       inkscape:collect="always"
       xlink:href="#StandardGradient-2"
       id="linearGradient3818"
       gradientUnits="userSpaceOnUse"
       gradientTransform="matrix(0.9984539,0,0,0.9984539,0.9540224,2.0576756)"
       x1="10.710332"
       y1="1.9963325"
       x2="10.710332"
       y2="18.974037" />
    <linearGradient
       id="StandardGradient-2"
       gradientTransform="matrix(0.9984539,0,0,0.9984539,-0.0459776,0.05767558)"
       x1="10.710332"
       y1="1.9963325"
       x2="10.710332"
       y2="18.974037"
       gradientUnits="userSpaceOnUse">
      <stop
         style="stop-color:#000000;stop-opacity:0.86274511;"
         offset="0"
         id="stop3277-0" />
      <stop
         style="stop-color:#000000;stop-opacity:0.47058824;"
         offset="1"
         id="stop3279-6" />
    </linearGradient>
    <radialGradient
       inkscape:collect="always"
       xlink:href="#StandardGradient"
       id="radialGradient3859"
       cx="12"
       cy="12.852942"
       fx="12"
       fy="12.852942"
       r="8"
       gradientTransform="matrix(2,-4.6844936e-8,2.6350281e-8,1.1250002,-11.000013,-2.4595605)"
       gradientUnits="userSpaceOnUse" />
    <radialGradient
       inkscape:collect="always"
       xlink:href="#StandardGradient"
       id="radialGradient3865"
       gradientUnits="userSpaceOnUse"
       gradientTransform="matrix(2,-4.6844936e-8,2.6350281e-8,1.1250002,-12,-1.4595605)"
       cx="12"
       cy="12.852942"
       fx="12"
       fy="12.852942"
       r="8" />
    <radialGradient
       inkscape:collect="always"
       xlink:href="#StandardGradient"
       id="radialGradient3870"
       gradientUnits="userSpaceOnUse"
       gradientTransform="matrix(2,-4.6844936e-8,2.6350281e-8,1.1250002,-12,-1.4595605)"
       cx="12"
       cy="12.852942"
       fx="12"
       fy="12.852942"
       r="8" />
    <radialGradient
       inkscape:collect="always"
       xlink:href="#StandardGradient"
       id="radialGradient3872"
       gradientUnits="userSpaceOnUse"
       gradientTransform="matrix(2,-4.6844936e-8,2.6350281e-8,1.1250002,-12,-1.4595605)"
       cx="12"
       cy="12.852942"
       fx="12"
       fy="12.852942"
       r="8" />
    <radialGradient
       inkscape:collect="always"
       xlink:href="#StandardGradient"
       id="radialGradient3879"
       gradientUnits="userSpaceOnUse"
       gradientTransform="matrix(2,-4.6844936e-8,2.6350281e-8,1.1250002,-12,-1.4595605)"
       cx="12"
       cy="12.852942"
       fx="12"
       fy="12.852942"
       r="8" />
    <radialGradient
       inkscape:collect="always"
       xlink:href="#StandardGradient"
       id="radialGradient3883"
       gradientUnits="userSpaceOnUse"
       gradientTransform="matrix(2,-4.6844936e-8,2.6350281e-8,1.1250002,-12,-1.4595605)"
       cx="12"
       cy="12.852942"
       fx="12"
       fy="12.852942"
       r="8" />
  </defs>
  <metadata
     id="metadata7">
    <rdf:RDF>
      <cc:Work
         rdf:about="">
        <dc:format>image/svg+xml</dc:format>
        <dc:type
           rdf:resource="http://purl.org/dc/dcmitype/StillImage" />
        <dc:title></dc:title>
      </cc:Work>
    </rdf:RDF>
  </metadata>
  <g
     style="display:inline"
     inkscape:label="Calque 1"
     id="layer1"
     inkscape:groupmode="layer"
     transform="translate(0,2)">
    <path
       style="display:inline;opacity:0.05;fill:#ffffff;fill-opacity:1;stroke:none"
       d="M 7.8749869,-0.03125 A 1.0152112,1.0152112 0 0 0 7.7812369,0 a 1.0152112,1.0152112 0 0 0 -0.5,0.28125 l -3,3 a 1.0152112,1.0152112 0 0 0 0,1.4375 l 11.0000001,11 a 1.0152112,1.0152112 0 0 0 0.34375,0.21875 l 5,2 a 1.0152112,1.0152112 0 0 0 1.3125,-1.3125 l -2,-5 a 1.0152112,1.0152112 0 0 0 -0.21875,-0.34375 l -11.0000001,-11 a 1.0152112,1.0152112 0 0 0 -0.84375,-0.3125 z M 7.9999869,1 18.999987,12 l 2,5 -5,-2 -11.0000001,-11 3,-3 z m 9.0312501,10.96875 -1.03125,1.0625 0.96875,1.03125 2.03125,0.9375 -0.96875,-2 -1,-1.03125 z M 5.9999869,15 c -1.1012393,0 -1.9999998,0.898762 -2,2 0,1.101238 0.8987597,2.000002 2,2 0.6364651,0 1.1289622,-0.342231 1.5,-0.8125 0.3710376,0.470269 0.863533,0.812501 1.5,0.8125 0.6364651,0 1.1289621,-0.342231 1.5000001,-0.8125 0.371037,0.470269 0.863533,0.812501 1.5,0.8125 1.101237,0 2,-0.898762 2,-2 0,-1.101238 -0.898764,-1.999998 -2,-2 -0.636466,0 -1.128963,0.342231 -1.5,0.8125 C 10.128949,15.342232 9.6364514,15.000001 8.9999869,15 c -0.6364665,0 -1.1289627,0.342231 -1.5,0.8125 -0.3710374,-0.470268 -0.8635355,-0.812499 -1.5,-0.8125 z m 0,1 c 0.5520002,1e-6 1,0.448 1,1 2e-7,0.552001 -0.448,1 -1,1 -0.5519999,1e-6 -1,-0.448 -1,-1 1e-7,-0.551999 0.448,-1 1,-1 z m 3,0 c 0.5520001,1e-6 1,0.448 1,1 1e-7,0.552001 -0.448,1 -1,1 -0.552,1e-6 -1,-0.448 -1,-1 0,-0.551999 0.448,-1 1,-1 z m 3.0000001,0 c 0.552,1e-6 1,0.448 1,1 0,0.552001 -0.448,1 -1,1 -0.552,1e-6 -1,-0.448 -1,-1 0,-0.551999 0.448,-1 1,-1 z"
       id="path3881"
       inkscape:connector-curvature="0" />
    <path
       style="display:inline;fill:url(#radialGradient3859);fill-opacity:1;stroke:none"
       d="m 7.9999869,1 -3,3 11.0000001,11 5,2 -2,-5 z M 17.025695,11.971006 18.04001,13.005512 18.999987,15 16.967287,14.052792 15.985135,13.033134 Z M 5.9999869,16 c -0.552,0 -0.9999999,0.448001 -1,1 0,0.552 0.4480001,1.000001 1,1 0.552,0 1.0000002,-0.447999 1,-1 0,-0.552 -0.4479998,-0.999999 -1,-1 z m 3,0 c -0.552,0 -1,0.448001 -1,1 0,0.552 0.448,1.000001 1,1 0.552,0 1.0000001,-0.447999 1,-1 0,-0.552 -0.4479999,-0.999999 -1,-1 z m 3.0000001,0 c -0.552,0 -1,0.448001 -1,1 0,0.552 0.448,1.000001 1,1 0.552,0 1,-0.447999 1,-1 0,-0.552 -0.448,-0.999999 -1,-1 z"
       id="path3801"
       inkscape:connector-curvature="0"
       sodipodi:nodetypes="ccccccccccccsssssssssssssss" />
    <path
       inkscape:connector-curvature="0"
       style="display:inline;opacity:0.3;fill:#000000;fill-opacity:1;stroke:none"
       d="m 7.9999869,1 -3,3 0.5,0.5 2.5,-2.5 11.0000001,11 1.53125,3.8125 0.46875,0.1875 -2,-5 L 7.9999869,1 Z m 8.4687501,12.53125 -0.46875,0.5 0.96875,1.03125 2.03125,0.9375 -0.625,-1.28125 -1.40625,-0.65625 -0.5,-0.53125 z M 5.9999869,16 c -0.552,0 -0.9999999,0.448001 -1,1 0,0.187223 0.066598,0.350127 0.15625,0.5 0.1746735,-0.292006 0.4789729,-0.5 0.84375,-0.5 0.3647772,1e-6 0.6690766,0.207994 0.84375,0.5 0.089652,-0.149873 0.1562501,-0.312777 0.15625,-0.5 0,-0.552 -0.4479998,-0.999999 -1,-1 z m 3,0 c -0.552,0 -1,0.448001 -1,1 0,0.187223 0.066598,0.350127 0.15625,0.5 0.1746735,-0.292006 0.4789729,-0.5 0.84375,-0.5 0.3647771,1e-6 0.6690766,0.207994 0.84375,0.5 0.089652,-0.149873 0.15625,-0.312777 0.15625,-0.5 0,-0.552 -0.4479999,-0.999999 -1,-1 z m 3.0000001,0 c -0.552,0 -1,0.448001 -1,1 0,0.187223 0.0666,0.350127 0.15625,0.5 0.174673,-0.292006 0.478973,-0.5 0.84375,-0.5 0.364777,1e-6 0.669077,0.207994 0.84375,0.5 0.08965,-0.149873 0.15625,-0.312777 0.15625,-0.5 0,-0.552 -0.448,-0.999999 -1,-1 z"
       id="path3824" />
    <path
       inkscape:connector-curvature="0"
       style="display:inline;opacity:0.2;fill:#ffffff;fill-opacity:1;stroke:none"
       d="m 5.4999869,4.5 -0.5,0.5 11.0000001,11 5,2 -0.46875,-1.1875 L 15.999987,15 5.4999869,4.5 Z m 11.5312501,7.46875 -1.03125,1.0625 0.46875,0.5 0.5625,-0.5625 1,1.03125 0.34375,0.71875 0.625,0.28125 -0.96875,-2 -1,-1.03125 z M 5.1562369,17.5 c -0.089652,0.149873 -0.15625,0.312777 -0.15625,0.5 0,0.552 0.4480001,1.000001 1,1 0.552,0 1.0000002,-0.447999 1,-1 0,-0.187223 -0.066598,-0.350127 -0.15625,-0.5 -0.1746735,0.292006 -0.4789729,0.5 -0.84375,0.5 -0.364777,1e-6 -0.6690765,-0.207994 -0.84375,-0.5 z m 3,0 c -0.089652,0.149873 -0.15625,0.312777 -0.15625,0.5 0,0.552 0.448,1.000001 1,1 0.552,0 1.0000001,-0.447999 1,-1 0,-0.187223 -0.066598,-0.350127 -0.15625,-0.5 -0.1746735,0.292006 -0.4789729,0.5 -0.84375,0.5 -0.3647771,1e-6 -0.6690765,-0.207994 -0.84375,-0.5 z m 3.0000001,0 c -0.08965,0.149873 -0.15625,0.312777 -0.15625,0.5 0,0.552 0.448,1.000001 1,1 0.552,0 1,-0.447999 1,-1 0,-0.187223 -0.0666,-0.350127 -0.15625,-0.5 -0.174673,0.292006 -0.478973,0.5 -0.84375,0.5 -0.364777,1e-6 -0.669077,-0.207994 -0.84375,-0.5 z"
       id="path3833" />
    <path
       style="display:inline;opacity:0.3;fill:#000000;fill-opacity:1;stroke:none"
       d="m 7.9999869,1 -3,3 11.0000001,11 5,2 -2,-5 L 7.9999869,1 Z m 0,0.5625 10.6875001,10.6875 0.03125,0.03125 1.59375,4.03125 -4.03125,-1.59375 L 16.249987,14.6875 5.5624869,4 l 2.4375,-2.4375 z m 8.9687501,10 a 0.38524555,0.38524555 0 0 0 -0.0625,0.03125 0.38524555,0.38524555 0 0 0 -0.15625,0.09375 l -1.03125,1.0625 a 0.38524555,0.38524555 0 0 0 0,0.53125 l 0.96875,1.03125 a 0.38524555,0.38524555 0 0 0 0.125,0.09375 l 2.03125,0.9375 a 0.38524555,0.38524555 0 0 0 0.5,-0.5 l -0.96875,-2 a 0.38524555,0.38524555 0 0 0 -0.0625,-0.125 l -1,-1.03125 a 0.38524555,0.38524555 0 0 0 -0.34375,-0.125 z m 0.0625,0.40625 1,1.03125 0.96875,2 -2.03125,-0.9375 -0.96875,-1.03125 1.03125,-1.0625 z M 5.9999869,16 c -0.552,0 -0.9999999,0.448001 -1,1 0,0.552 0.4480001,1.000001 1,1 0.552,0 1.0000002,-0.447999 1,-1 0,-0.552 -0.4479998,-0.999999 -1,-1 z m 3,0 c -0.552,0 -1,0.448001 -1,1 0,0.552 0.448,1.000001 1,1 0.552,0 1.0000001,-0.447999 1,-1 0,-0.552 -0.4479999,-0.999999 -1,-1 z m 3.0000001,0 c -0.552,0 -1,0.448001 -1,1 0,0.552 0.448,1.000001 1,1 0.552,0 1,-0.447999 1,-1 0,-0.552 -0.448,-0.999999 -1,-1 z m -6.0000001,0.375 c 0.3435799,1e-6 0.625,0.281421 0.625,0.625 1e-7,0.34358 -0.2814207,0.625 -0.625,0.625 -0.3435778,1e-6 -0.625,-0.281421 -0.625,-0.625 1e-7,-0.343578 0.2814217,-0.625 0.625,-0.625 z m 3,0 c 0.3435798,1e-6 0.625,0.281421 0.625,0.625 1e-7,0.34358 -0.2814207,0.625 -0.625,0.625 -0.343578,1e-6 -0.625,-0.281421 -0.625,-0.625 0,-0.343577 0.2814217,-0.625 0.625,-0.625 z m 3.0000001,0 c 0.34358,1e-6 0.625,0.281421 0.625,0.625 0,0.34358 -0.281421,0.625 -0.625,0.625 -0.343578,1e-6 -0.625,-0.281421 -0.625,-0.625 0,-0.343577 0.281422,-0.625 0.625,-0.625 z"
       id="path3861"
       inkscape:connector-curvature="0" />
  </g>
</svg>
