<?xml version="1.0" encoding="UTF-8" standalone="no"?>
<!-- Created with Inkscape (http://www.inkscape.org/) -->

<svg
   xmlns:dc="http://purl.org/dc/elements/1.1/"
   xmlns:cc="http://creativecommons.org/ns#"
   xmlns:rdf="http://www.w3.org/1999/02/22-rdf-syntax-ns#"
   xmlns:svg="http://www.w3.org/2000/svg"
   xmlns="http://www.w3.org/2000/svg"
   xmlns:xlink="http://www.w3.org/1999/xlink"
   xmlns:sodipodi="http://sodipodi.sourceforge.net/DTD/sodipodi-0.dtd"
   xmlns:inkscape="http://www.inkscape.org/namespaces/inkscape"
   width="24"
   height="24"
   id="svg2"
   sodipodi:version="0.32"
   inkscape:version="0.91 r13725"
   version="1.0"
   sodipodi:docname="mail-reply-all.svg"
   inkscape:output_extension="org.inkscape.output.svg.inkscape"
   inkscape:export-filename="/home/matt/.icons/Sirocco/scalable/mimetypes/text-plain.png"
   inkscape:export-xdpi="90"
   inkscape:export-ydpi="90"
   sodipodi:modified="true"
   style="display:inline">
  <sodipodi:namedview
     id="base"
     pagecolor="#838383"
     bordercolor="#cc0000"
     borderopacity="1"
     inkscape:pageopacity="1"
     inkscape:pageshadow="2"
     inkscape:zoom="7.7880196"
     inkscape:cx="-20.568566"
     inkscape:cy="7.7684583"
     inkscape:document-units="px"
     inkscape:current-layer="layer1"
     width="128px"
     height="128px"
     inkscape:showpageshadow="false"
     inkscape:window-width="1366"
     inkscape:window-height="718"
     inkscape:window-x="0"
     inkscape:window-y="25"
     showguides="true"
     inkscape:guide-bbox="true"
     showgrid="true"
     inkscape:window-maximized="1"
     borderlayer="true"
     inkscape:snap-global="false">
    <inkscape:grid
       enabled="true"
       visible="true"
       id="grid3231"
       type="xygrid"
       empspacing="8"
       snapvisiblegridlinesonly="true" />
    <sodipodi:guide
       orientation="1,0"
       position="12,6"
       id="guide3791" />
    <sodipodi:guide
       orientation="0,1"
       position="14,9"
       id="guide3793" />
  </sodipodi:namedview>
  <defs
     id="defs4">
    <linearGradient
       id="StandardGradient"
       gradientTransform="scale(0.9219544,1.0846523)"
       x1="11.998966"
       y1="0.92195445"
       x2="11.998966"
       y2="19.387045"
       gradientUnits="userSpaceOnUse">
      <stop
         style="stop-color:#000000;stop-opacity:0.23529412;"
         offset="0"
         id="stop3283" />
      <stop
         id="stop3850"
         offset="0.69999999"
         style="stop-color:#000000;stop-opacity:0.39215686;" />
      <stop
         style="stop-color:#000000;stop-opacity:0.55;"
         offset="1"
         id="stop2651" />
    </linearGradient>
    <radialGradient
       inkscape:collect="always"
       xlink:href="#StandardGradient"
       id="radialGradient3857"
       cx="12"
       cy="12.447369"
       fx="12"
       fy="12.447369"
       r="6"
       gradientTransform="matrix(2.6666667,-9.1385016e-8,5.7115635e-8,1.6666667,-20.000001,-7.7456132)"
       gradientUnits="userSpaceOnUse" />
    <radialGradient
       inkscape:collect="always"
       xlink:href="#StandardGradient"
       id="radialGradient3874"
       gradientUnits="userSpaceOnUse"
       gradientTransform="matrix(1.7777778,0,0,0.8888889,-9.3333333,0.55555555)"
       cx="12"
       cy="14"
       fx="12"
       fy="14"
       r="9" />
    <radialGradient
       inkscape:collect="always"
       xlink:href="#StandardGradient"
       id="radialGradient3878"
       gradientUnits="userSpaceOnUse"
       gradientTransform="matrix(1.7777778,0,0,0.8888889,-9.3333333,0.55555555)"
       cx="12"
       cy="14"
       fx="12"
       fy="14"
       r="9" />
    <radialGradient
       inkscape:collect="always"
       xlink:href="#StandardGradient"
       id="radialGradient3876"
       gradientUnits="userSpaceOnUse"
       gradientTransform="matrix(-7.9495968e-8,-0.87501265,-2.000029,1.9384686e-7,40.674485,20.3127)"
       cx="9.5000362"
       cy="12.874928"
       fx="9.5000362"
       fy="12.874928"
       r="7.9998837" />
    <radialGradient
       inkscape:collect="always"
       xlink:href="#StandardGradient"
       id="radialGradient3882"
       gradientUnits="userSpaceOnUse"
       gradientTransform="matrix(-7.9495968e-8,-0.87501265,-2.000029,1.9384686e-7,38.774388,22.312649)"
       cx="9.5000362"
       cy="13.386999"
       fx="9.5000362"
       fy="13.386999"
       r="7.9998837" />
    <radialGradient
       inkscape:collect="always"
       xlink:href="#StandardGradient"
       id="radialGradient3884"
       gradientUnits="userSpaceOnUse"
       gradientTransform="matrix(-7.9495968e-8,-0.87501265,-2.000029,1.9384686e-7,38.774388,21.312649)"
       cx="9.5000362"
       cy="13.386999"
       fx="9.5000362"
       fy="13.386999"
       r="7.9998837" />
    <radialGradient
       inkscape:collect="always"
       xlink:href="#StandardGradient"
       id="radialGradient3891"
       gradientUnits="userSpaceOnUse"
       gradientTransform="matrix(-7.9495968e-8,-0.87501265,-2.000029,1.9384686e-7,38.774388,21.312649)"
       cx="9.5000362"
       cy="13.386999"
       fx="9.5000362"
       fy="13.386999"
       r="7.9998837" />
    <radialGradient
       inkscape:collect="always"
       xlink:href="#StandardGradient"
       id="radialGradient3895"
       gradientUnits="userSpaceOnUse"
       gradientTransform="matrix(-7.9495968e-8,-0.87501265,-2.000029,1.9384686e-7,38.774388,21.312649)"
       cx="9.5000362"
       cy="13.386999"
       fx="9.5000362"
       fy="13.386999"
       r="7.9998837" />
    <radialGradient
       inkscape:collect="always"
       xlink:href="#StandardGradient"
       id="radialGradient3897"
       gradientUnits="userSpaceOnUse"
       gradientTransform="matrix(-7.9495968e-8,-0.87501265,-2.000029,1.9384686e-7,38.774388,21.312649)"
       cx="9.5000362"
       cy="13.386999"
       fx="9.5000362"
       fy="13.386999"
       r="7.9998837" />
    <radialGradient
       inkscape:collect="always"
       xlink:href="#StandardGradient"
       id="radialGradient3902"
       gradientUnits="userSpaceOnUse"
       gradientTransform="matrix(-7.9495968e-8,-0.87501265,-2.000029,1.9384686e-7,38.774388,22.312649)"
       cx="9.5000362"
       cy="13.386999"
       fx="9.5000362"
       fy="13.386999"
       r="7.9998837" />
    <radialGradient
       inkscape:collect="always"
       xlink:href="#StandardGradient"
       id="radialGradient3906"
       gradientUnits="userSpaceOnUse"
       gradientTransform="matrix(-7.9495968e-8,-0.87501265,-2.000029,1.9384686e-7,38.774388,21.312649)"
       cx="9.5000362"
       cy="13.386999"
       fx="9.5000362"
       fy="13.386999"
       r="7.9998837" />
    <radialGradient
       inkscape:collect="always"
       xlink:href="#StandardGradient"
       id="radialGradient3913"
       gradientUnits="userSpaceOnUse"
       gradientTransform="matrix(-7.9495968e-8,-0.87501265,-2.000029,1.9384686e-7,38.774388,21.312649)"
       cx="9.5000362"
       cy="13.386999"
       fx="9.5000362"
       fy="13.386999"
       r="7.9998837" />
    <radialGradient
       inkscape:collect="always"
       xlink:href="#StandardGradient"
       id="radialGradient3917"
       gradientUnits="userSpaceOnUse"
       gradientTransform="matrix(-7.9495968e-8,-0.87501265,-2.000029,1.9384686e-7,38.774388,21.312649)"
       cx="9.5000362"
       cy="13.386999"
       fx="9.5000362"
       fy="13.386999"
       r="7.9998837" />
    <radialGradient
       inkscape:collect="always"
       xlink:href="#StandardGradient"
       id="radialGradient3040"
       gradientUnits="userSpaceOnUse"
       gradientTransform="matrix(-7.9495968e-8,-0.87501265,-2.000029,1.9384686e-7,36.774388,21.312649)"
       cx="9.5000362"
       cy="12.874928"
       fx="9.5000362"
       fy="12.874928"
       r="7.9998837" />
    <radialGradient
       inkscape:collect="always"
       xlink:href="#StandardGradient"
       id="radialGradient3044"
       gradientUnits="userSpaceOnUse"
       gradientTransform="matrix(-7.9495968e-8,-0.87501265,-2.000029,1.9384686e-7,38.774388,21.312649)"
       cx="9.5000362"
       cy="12.874928"
       fx="9.5000362"
       fy="12.874928"
       r="7.9998837" />
    <radialGradient
       inkscape:collect="always"
       xlink:href="#StandardGradient"
       id="radialGradient3054"
       gradientUnits="userSpaceOnUse"
       gradientTransform="matrix(-7.9495968e-8,-0.87501265,-2.000029,1.9384686e-7,39.774388,21.312649)"
       cx="9.5000362"
       cy="12.874928"
       fx="9.5000362"
       fy="12.874928"
       r="7.9998837" />
    <radialGradient
       inkscape:collect="always"
       xlink:href="#StandardGradient"
       id="radialGradient3058"
       gradientUnits="userSpaceOnUse"
       gradientTransform="matrix(-7.9495968e-8,-0.87501265,-2.000029,1.9384686e-7,39.774388,21.312649)"
       cx="9.5000362"
       cy="12.874928"
       fx="9.5000362"
       fy="12.874928"
       r="7.9998837" />
    <radialGradient
       inkscape:collect="always"
       xlink:href="#StandardGradient"
       id="radialGradient3063"
       gradientUnits="userSpaceOnUse"
       gradientTransform="matrix(-7.9495968e-8,-0.87501265,-2.000029,1.9384686e-7,39.774388,21.312649)"
       cx="9.5000362"
       cy="12.874928"
       fx="9.5000362"
       fy="12.874928"
       r="7.9998837" />
    <radialGradient
       inkscape:collect="always"
       xlink:href="#StandardGradient"
       id="radialGradient3067"
       gradientUnits="userSpaceOnUse"
       gradientTransform="matrix(-7.9495968e-8,-0.87501265,-2.000029,1.9384686e-7,39.774388,21.312649)"
       cx="9.5000362"
       cy="12.874928"
       fx="9.5000362"
       fy="12.874928"
       r="7.9998837" />
    <radialGradient
       inkscape:collect="always"
       xlink:href="#StandardGradient"
       id="radialGradient3069"
       gradientUnits="userSpaceOnUse"
       gradientTransform="matrix(-7.9495968e-8,-0.87501265,-2.000029,1.9384686e-7,39.774388,21.312649)"
       cx="9.5000362"
       cy="12.874928"
       fx="9.5000362"
       fy="12.874928"
       r="7.9998837" />
    <radialGradient
       inkscape:collect="always"
       xlink:href="#StandardGradient"
       id="radialGradient3076"
       gradientUnits="userSpaceOnUse"
       gradientTransform="matrix(-7.9495968e-8,-0.87501265,-2.000029,1.9384686e-7,39.774388,22.312649)"
       cx="9.5000362"
       cy="12.874928"
       fx="9.5000362"
       fy="12.874928"
       r="7.9998837" />
    <radialGradient
       inkscape:collect="always"
       xlink:href="#StandardGradient"
       id="radialGradient3078"
       gradientUnits="userSpaceOnUse"
       gradientTransform="matrix(-7.9495968e-8,-0.87501265,-2.000029,1.9384686e-7,39.774388,21.312649)"
       cx="9.5000362"
       cy="12.874928"
       fx="9.5000362"
       fy="12.874928"
       r="7.9998837" />
    <radialGradient
       inkscape:collect="always"
       xlink:href="#StandardGradient"
       id="radialGradient3851"
       gradientUnits="userSpaceOnUse"
       gradientTransform="matrix(-7.9495968e-8,-0.87501265,-2.000029,1.9384686e-7,39.774388,22.312649)"
       cx="9.5000362"
       cy="12.874928"
       fx="9.5000362"
       fy="12.874928"
       r="7.9998837" />
    <radialGradient
       inkscape:collect="always"
       xlink:href="#StandardGradient"
       id="radialGradient3855"
       gradientUnits="userSpaceOnUse"
       gradientTransform="matrix(-7.9495968e-8,-0.87501265,-2.000029,1.9384686e-7,39.774388,21.312649)"
       cx="9.5000362"
       cy="12.874928"
       fx="9.5000362"
       fy="12.874928"
       r="7.9998837" />
    <radialGradient
       inkscape:collect="always"
       xlink:href="#StandardGradient"
       id="radialGradient3862"
       gradientUnits="userSpaceOnUse"
       gradientTransform="matrix(-7.9495968e-8,-0.87501265,-2.000029,1.9384686e-7,39.774388,21.312649)"
       cx="9.5000362"
       cy="12.874928"
       fx="9.5000362"
       fy="12.874928"
       r="7.9998837" />
    <radialGradient
       inkscape:collect="always"
       xlink:href="#StandardGradient"
       id="radialGradient3866"
       gradientUnits="userSpaceOnUse"
       gradientTransform="matrix(-7.9495968e-8,-0.87501265,-2.000029,1.9384686e-7,39.774388,21.312649)"
       cx="9.5000362"
       cy="12.874928"
       fx="9.5000362"
       fy="12.874928"
       r="7.9998837" />
  </defs>
  <metadata
     id="metadata7">
    <rdf:RDF>
      <cc:Work
         rdf:about="">
        <dc:format>image/svg+xml</dc:format>
        <dc:type
           rdf:resource="http://purl.org/dc/dcmitype/StillImage" />
        <dc:title></dc:title>
      </cc:Work>
    </rdf:RDF>
  </metadata>
  <g
     style="display:inline"
     inkscape:label="Calque 1"
     id="layer1"
     inkscape:groupmode="layer"
     transform="translate(0,2)">
    <path
       style="opacity:0.05;fill:#ffffff;fill-opacity:1;stroke:none"
       d="m 9.7750968,1.9688011 a 1.0243074,1.0243074 0 0 0 -0.53125,0.25 l -8,6.46875 a 1.0243074,1.0243074 0 0 0 0,1.5624999 l 8,6.53125 a 1.0243074,1.0243074 0 0 0 1.6875002,-0.78125 l 0,-0.28125 1.3125,1.0625 a 1.0243074,1.0243074 0 0 0 1.6875,-0.78125 l 0,-3.09375 c 1.948634,-0.291106 3.536819,-0.254409 4.09375,0.09375 0.321931,0.201252 0.449283,0.39132 0.5,0.9375 0.05072,0.54618 -0.105512,1.444951 -0.59375,2.6875 a 1.0275739,1.0275739 0 1 0 1.8125,0.96875 c 1.268101,-1.775341 2.231025,-3.255362 2.625,-4.8125 0.393975,-1.557138 0.01081,-3.2195399 -1.21875,-4.5937499 -1.212746,-1.3554216 -2.629134,-1.9610187 -4.03125,-2.15625 -1.059452,-0.1475186 -2.11817,-0.092359 -3.1875,-0.0625 l 0,-2.96875 a 1.0243074,1.0243074 0 0 0 -1.6875,-0.78125 l -1.3125,1.0625 0,-0.28125 a 1.0243074,1.0243074 0 0 0 -1.0625002,-1.03125 1.0243074,1.0243074 0 0 0 -0.09375,0 z m 0.125,1.03125 0,1.625 -6,4.84375 6,4.9062499 0,1.625 -8,-6.5312499 8,-6.46875 z m 3.0000002,0 0,4 c 3,0 5.375,-0.5 7.5,1.875 2.125,2.3749999 1,4.6249999 -1.5,8.1249999 2.08953,-5.31778 -1,-6 -6,-5 l 0,4 -8.0000002,-6.5312499 8.0000002,-6.46875 z"
       id="path3864"
       inkscape:connector-curvature="0" />
    <path
       style="fill:url(#radialGradient3876);fill-opacity:1;stroke:none"
       d="m 9.9000968,3.0000511 -8,6.46875 8,6.5312499 0,-1.625 -6,-4.9062499 6,-4.84375 0,-1.625 z m 3.0000002,0 -8.0000002,6.46875 8.0000002,6.5312499 0,-4 c 5,-1 8.08953,-0.31778 6,5 2.5,-3.5 3.625,-5.75 1.5,-8.1249999 -2.125,-2.375 -4.5,-1.875 -7.5,-1.875 l 0,-4 z"
       id="path3874"
       inkscape:connector-curvature="0" />
    <path
       style="opacity:0.3;fill:#000000;fill-opacity:1;stroke:none"
       d="m 9.9000968,3.0000511 -8,6.46875 8,6.5312499 0,-1.625 -6,-4.9062499 6,-4.84375 0,-1.625 z m 3.0000002,0 -8.0000002,6.46875 8.0000002,6.5312499 0,-4 c 5,-1 8.08953,-0.31778 6,5 2.5,-3.5 3.625,-5.75 1.5,-8.1249999 -2.125,-2.375 -4.5,-1.875 -7.5,-1.875 l 0,-4 z m -3.4687502,0.96875 0,0.4375 -5.8125,4.6875 a 0.47118988,0.47118988 0 0 0 -0.03125,0.75 l 5.84375,4.7812499 0,0.375 -6.78125,-5.5312499 6.78125,-5.5 z m 3.0000002,0 0,3.03125 a 0.47118988,0.47118988 0 0 0 0.46875,0.46875 c 1.526175,0 2.842787,-0.1298809 4,0.03125 1.157213,0.1611309 2.162864,0.5772453 3.15625,1.6875 0.985653,1.1016119 1.172834,2.0415979 0.875,3.2187499 -0.160721,0.63523 -0.505899,1.338992 -0.96875,2.125 0.01641,-0.247067 0.08322,-0.526835 0.0625,-0.75 -0.08461,-0.911132 -0.537417,-1.636572 -1.21875,-2.0625 -1.362666,-0.851856 -3.461497,-0.695201 -6,-0.1875 a 0.47118988,0.47118988 0 0 0 -0.375,0.46875 l 0,3 -6.7812502,-5.5312499 6.7812502,-5.5 z"
       id="path3048"
       inkscape:connector-curvature="0" />
    <path
       style="opacity:0.3;fill:#000000;fill-opacity:1;stroke:none"
       d="m 9.9000968,3.0000511 -8,6.46875 0.625,0.5 7.375,-5.96875 0,-1 z m 3.0000002,0 -3.0000002,2.4375 0,0.1875 -4.875,3.9375 0.5,0.40625 7.3750002,-5.96875 0,-1 z m 2.125,3.96875 c -0.677734,0.00977 -1.375,0.03125 -2.125,0.03125 l 0,1 c 3,0 5.375,-0.5 7.5,1.875 0.645922,0.7219129 0.995729,1.4188189 1.09375,2.1562499 0.15744,-1.106354 -0.164062,-2.1171879 -1.09375,-3.1562499 -1.59375,-1.78125 -3.341797,-1.9355469 -5.375,-1.90625 z m -10.5000002,3 -0.625,0.4999999 6,4.90625 0,-0.8125 -5,-4.09375 0.125,-0.09375 -0.5,-0.4062499 z M 19.525097,14.718801 c -0.07566,0.642438 -0.276745,1.394953 -0.625,2.28125 0.197148,-0.276007 0.383373,-0.520116 0.5625,-0.78125 0.0022,-0.01078 -0.0021,-0.02052 0,-0.03125 0.112043,-0.570612 0.119375,-1.049127 0.0625,-1.46875 z"
       id="path3072"
       inkscape:connector-curvature="0" />
    <path
       style="opacity:0.2;fill:#ffffff;fill-opacity:1;stroke:none"
       d="m 9.9000968,4.6250511 -6,4.84375 0.625,0.5 0.5,-0.40625 -0.125,-0.09375 5,-4.03125 0,-0.8125 z m -7.375,5.34375 -0.625,0.4999999 8,6.53125 0,-1 -7.375,-6.0312499 z m 3,0 -0.5,0.4062499 4.875,4 0,0.1875 3.0000002,2.4375 0,-1 L 5.5250968,9.9688011 Z M 16.243847,11.625051 c -0.96012,-0.0064 -2.09375,0.125 -3.34375,0.375 l 0,1 c 3.680147,-0.736029 6.318111,-0.545473 6.625,1.71875 0.264816,-2.248534 -1.040971,-3.078762 -3.28125,-3.09375 z m 5.25,0.46875 c -0.188787,1.201127 -0.958664,2.527963 -2.03125,4.09375 -0.0021,0.01073 0.0022,0.02047 0,0.03125 -0.10573,0.525629 -0.301309,1.116528 -0.5625,1.78125 1.71875,-2.40625 2.784088,-4.234833 2.59375,-5.90625 z"
       id="path3849"
       inkscape:connector-curvature="0" />
  </g>
</svg>
