<?xml version="1.0" encoding="UTF-8" standalone="no"?>
<!-- Created with Inkscape (http://www.inkscape.org/) -->

<svg
   xmlns:dc="http://purl.org/dc/elements/1.1/"
   xmlns:cc="http://creativecommons.org/ns#"
   xmlns:rdf="http://www.w3.org/1999/02/22-rdf-syntax-ns#"
   xmlns:svg="http://www.w3.org/2000/svg"
   xmlns="http://www.w3.org/2000/svg"
   xmlns:xlink="http://www.w3.org/1999/xlink"
   xmlns:sodipodi="http://sodipodi.sourceforge.net/DTD/sodipodi-0.dtd"
   xmlns:inkscape="http://www.inkscape.org/namespaces/inkscape"
   width="24"
   height="24"
   id="svg2"
   sodipodi:version="0.32"
   inkscape:version="0.91 r13725"
   version="1.0"
   sodipodi:docname="media-playlist-shuffle.svg"
   inkscape:output_extension="org.inkscape.output.svg.inkscape"
   inkscape:export-filename="/home/matt/.icons/Sirocco/scalable/mimetypes/text-plain.png"
   inkscape:export-xdpi="90"
   inkscape:export-ydpi="90"
   sodipodi:modified="true"
   style="display:inline">
  <sodipodi:namedview
     id="base"
     pagecolor="#838383"
     bordercolor="#cc0000"
     borderopacity="1"
     inkscape:pageopacity="1"
     inkscape:pageshadow="2"
     inkscape:zoom="7.7880196"
     inkscape:cx="-2.3560346"
     inkscape:cy="-3.2368348"
     inkscape:document-units="px"
     inkscape:current-layer="layer1"
     width="128px"
     height="128px"
     inkscape:showpageshadow="false"
     inkscape:window-width="1366"
     inkscape:window-height="718"
     inkscape:window-x="0"
     inkscape:window-y="25"
     showguides="true"
     inkscape:guide-bbox="true"
     showgrid="true"
     inkscape:window-maximized="1"
     borderlayer="true"
     inkscape:snap-global="true">
    <inkscape:grid
       enabled="true"
       visible="true"
       id="grid3231"
       type="xygrid"
       empspacing="8"
       snapvisiblegridlinesonly="true" />
    <sodipodi:guide
       orientation="1,0"
       position="12,6"
       id="guide3791" />
    <sodipodi:guide
       orientation="0,1"
       position="14,9"
       id="guide3793" />
  </sodipodi:namedview>
  <defs
     id="defs4">
    <linearGradient
       id="StandardGradient"
       gradientTransform="scale(0.9219544,1.0846523)"
       x1="11.998966"
       y1="0.92195445"
       x2="11.998966"
       y2="19.387045"
       gradientUnits="userSpaceOnUse">
      <stop
         style="stop-color:#000000;stop-opacity:0.23529412;"
         offset="0"
         id="stop3283" />
      <stop
         id="stop3850"
         offset="0.69999999"
         style="stop-color:#000000;stop-opacity:0.39215686;" />
      <stop
         style="stop-color:#000000;stop-opacity:0.55;"
         offset="1"
         id="stop2651" />
    </linearGradient>
    <radialGradient
       inkscape:collect="always"
       xlink:href="#StandardGradient"
       id="radialGradient3984"
       cx="12"
       cy="13.346154"
       fx="12"
       fy="13.346154"
       r="8"
       gradientTransform="matrix(2,0,0,0.87500004,-12,1.322115)"
       gradientUnits="userSpaceOnUse" />
    <radialGradient
       inkscape:collect="always"
       xlink:href="#StandardGradient"
       id="radialGradient4040"
       cx="12"
       cy="13.961538"
       fx="12"
       fy="13.961538"
       r="9"
       gradientTransform="matrix(1.7777778,0,0,0.77777776,-8.3330827,1.140774)"
       gradientUnits="userSpaceOnUse" />
    <radialGradient
       inkscape:collect="always"
       xlink:href="#StandardGradient"
       id="radialGradient4046"
       gradientUnits="userSpaceOnUse"
       gradientTransform="matrix(1.7777778,0,0,0.77777776,-9.3333333,2.1410257)"
       cx="12"
       cy="13.961538"
       fx="12"
       fy="13.961538"
       r="9" />
    <radialGradient
       inkscape:collect="always"
       xlink:href="#StandardGradient"
       id="radialGradient4050"
       gradientUnits="userSpaceOnUse"
       gradientTransform="matrix(1.7777778,0,0,0.77777776,-9.3333333,2.1410257)"
       cx="12"
       cy="13.961538"
       fx="12"
       fy="13.961538"
       r="9" />
    <radialGradient
       inkscape:collect="always"
       xlink:href="#StandardGradient"
       id="radialGradient4052"
       gradientUnits="userSpaceOnUse"
       gradientTransform="matrix(1.7777778,0,0,0.77777776,-9.3333333,2.1410257)"
       cx="12"
       cy="13.961538"
       fx="12"
       fy="13.961538"
       r="9" />
  </defs>
  <metadata
     id="metadata7">
    <rdf:RDF>
      <cc:Work
         rdf:about="">
        <dc:format>image/svg+xml</dc:format>
        <dc:type
           rdf:resource="http://purl.org/dc/dcmitype/StillImage" />
        <dc:title></dc:title>
      </cc:Work>
    </rdf:RDF>
  </metadata>
  <g
     style="display:inline"
     inkscape:label="Calque 1"
     id="layer1"
     inkscape:groupmode="layer"
     transform="translate(0,2)">
    <path
       inkscape:connector-curvature="0"
       style="opacity:0.05;fill:#ffffff;fill-opacity:1;fill-rule:nonzero;stroke:none"
       d="m 15.844001,1.9684985 a 1.030118,1.030118 0 0 0 -0.875,1.03125 l 0,0.96875 -1,0 c -1.529364,0 -2.795483,0.6861012 -3.6875,1.5 -0.295541,0.2696587 -0.4905268,0.5340506 -0.7187504,0.8125 a 1.030118,1.030118 0 0 0 -0.03125,-0.03125 c -0.8996072,-0.7350748 -2.1240337,-1.28125 -3.5625,-1.28125 l -2.96875,0 a 1.030118,1.030118 0 0 0 -1.03125,1.03125 l 0,2 a 1.030118,1.030118 0 0 0 1.03125,1.0312498 l 2.96875,0 c 0.5433854,0 0.6658544,0.08692 1.0625,0.4375 -0.08509,-0.07524 -0.068794,-0.05862 0.03125,0.03125 -0.00796,0.0073 -0.023596,0.02449 -0.03125,0.03125 -0.396646,0.350583 -0.519115,0.4375 -1.0625,0.4375 l -2.96875,0 a 1.030118,1.030118 0 0 0 -1.03125,1.0312497 l 0,2 a 1.030118,1.030118 0 0 0 1.03125,1.03125 l 2.96875,0 c 1.44634,0 2.6550305,-0.566677 3.5625,-1.3125 0.209443,0.252433 0.4394057,0.529106 0.7500004,0.8125 0.892017,0.813899 2.158136,1.5 3.6875,1.5 l 1,0 0,0.96875 a 1.030118,1.030118 0 0 0 1.5625,0.875 l 5,-3 a 1.030118,1.030118 0 0 0 0,-1.75 l -4.375,-2.6249997 4.375,-2.6249998 a 1.030118,1.030118 0 0 0 0,-1.75 l -5,-3 a 1.030118,1.030118 0 0 0 -0.6875,-0.15625 z m 0.15625,1.03125 5,3 -5,2.9999998 0,-1.9999998 -2.03125,0 c -0.712185,0 -1.169097,0.243009 -1.65625,0.6875 -0.466009,0.425198 -0.924734,1.0691197 -1.40625,1.7812498 -0.437108,0.5832917 -0.872097,1.1701877 -1.3125004,1.7499997 -0.1781194,0.2032 -0.3527137,0.408326 -0.5625,0.59375 -0.767102,0.678018 -1.8059898,1.1875 -3.0625,1.1875 l -2.96875,0 0,-2 2.96875,0 c 0.7620802,0 1.2467687,-0.24271 1.75,-0.6875 0.2131332,-0.188382 0.4168516,-0.4293637 0.625,-0.6874997 l 1.40625,-1.9687498 c 0.3554384,-0.4968502 0.7322624,-0.9936167 1.2187504,-1.4375 0.743422,-0.678317 1.77311,-1.21875 3,-1.21875 l 2.03125,0 0,-2 z m -13.0000004,3 2.96875,0 c 1.1760935,0 2.1558881,0.4493745 2.90625,1.0625 l -1.125,1.65625 c -0.010501,-0.00943 -0.020766,-0.021983 -0.03125,-0.03125 -0.5032313,-0.4447905 -0.9879198,-0.6875 -1.75,-0.6875 l -2.96875,0 0,-2 z m 10.6562504,2.03125 c 0.08288,-0.010403 0.19303,0 0.3125,0 l 1,0 0,0.9687498 a 1.030118,1.030118 0 0 0 0.125,0.5 1.030118,1.030118 0 0 0 -0.125,0.5 l 0,0.9687497 -1,0 c -0.47788,0 -0.580404,-0.05191 -0.96875,-0.40625 -0.210472,-0.19204 -0.452006,-0.469321 -0.6875,-0.7812497 a 1.030118,1.030118 0 0 0 -0.1875,-0.21875 c 0.315041,-0.436951 0.641293,-0.9117595 0.875,-1.1249998 0.29126,-0.2657529 0.407606,-0.37504 0.65625,-0.40625 z m 2.34375,1.9687498 5,2.9999997 -5,3 0,-2 -2.03125,0 c -1.22689,0 -2.256578,-0.540433 -3,-1.21875 -0.258336,-0.235712 -0.474953,-0.493708 -0.6875,-0.75 l 1.21875,-1.625 c 0.269049,0.356376 0.545937,0.663031 0.8125,0.90625 0.487153,0.444491 0.944065,0.6875 1.65625,0.6875 l 2.03125,0 0,-1.9999997 z"
       id="path4980" />
    <path
       inkscape:connector-curvature="0"
       style="fill:url(#radialGradient4040);fill-opacity:1;fill-rule:nonzero;stroke:none"
       d="m 16.000251,2.9997485 0,2 -2.03125,0 c -1.22689,0 -2.256578,0.540433 -3,1.21875 -0.486488,0.4438833 -0.863312,0.9406498 -1.2187504,1.4375 l -1.40625,1.9687498 c -0.2081484,0.258136 -0.4118668,0.4991177 -0.625,0.6874997 -0.5032313,0.44479 -0.9879198,0.6875 -1.75,0.6875 l -2.96875,0 0,2 2.96875,0 c 1.2565102,0 2.295398,-0.509482 3.0625,-1.1875 0.2097863,-0.185424 0.3843806,-0.39055 0.5625,-0.59375 0.4404034,-0.579812 0.8753924,-1.166708 1.3125004,-1.7499997 0.481516,-0.7121301 0.940241,-1.3560518 1.40625,-1.7812498 0.487153,-0.444491 0.944065,-0.6875 1.65625,-0.6875 l 2.03125,0 0,1.9999998 5,-2.9999998 -5,-3 z m -13.0000004,3 0,2 2.96875,0 c 0.7620802,0 1.2467687,0.2427095 1.75,0.6875 0.010484,0.00927 0.020749,0.021817 0.03125,0.03125 l 1.125,-1.65625 c -0.7503619,-0.6131255 -1.7301565,-1.0625 -2.90625,-1.0625 l -2.96875,0 z m 13.0000004,3.9999998 0,1.9999997 -2.03125,0 c -0.712185,0 -1.169097,-0.243009 -1.65625,-0.6875 -0.266563,-0.243219 -0.543451,-0.549874 -0.8125,-0.90625 l -1.21875,1.625 c 0.212547,0.256292 0.429164,0.514288 0.6875,0.75 0.743422,0.678317 1.77311,1.21875 3,1.21875 l 2.03125,0 0,2 5,-3 -5,-2.9999997 z"
       id="Symbol"
       sodipodi:nodetypes="cccsccsccccsccsccccccccscccccccsccsccccc"
       inkscape:label="#rect3184" />
    <path
       inkscape:connector-curvature="0"
       style="opacity:0.3;fill:#000000;fill-opacity:1;fill-rule:nonzero;stroke:none"
       d="m 16.000251,2.9997485 0,1 4.15625,2.5 0.84375,-0.5 -5,-3 z m -2.03125,2 c -1.22689,0 -2.256578,0.540433 -3,1.21875 -0.486488,0.4438833 -0.863312,0.9406498 -1.2187504,1.4375 l -1.40625,1.9687498 c -0.2081484,0.258136 -0.4118668,0.4991177 -0.625,0.6874997 -0.5032313,0.44479 -0.9879198,0.6875 -1.75,0.6875 l -2.96875,0 0,1 2.96875,0 c 0.7620802,0 1.2467687,-0.24271 1.75,-0.6875 0.2131332,-0.188382 0.4168516,-0.429364 0.625,-0.6875 l 1.40625,-1.9687495 c 0.3554384,-0.4968502 0.7322624,-0.9936167 1.2187504,-1.4375 0.743422,-0.678317 1.77311,-1.21875 3,-1.21875 l 2.03125,0 0,-1 -2.03125,0 z m -10.9687504,1 0,1 2.96875,0 c 0.9543883,0 1.7905998,0.2795405 2.46875,0.71875 l 0.4375,-0.65625 c -0.7503619,-0.6131255 -1.7301565,-1.0625 -2.90625,-1.0625 l -2.96875,0 z m 13.0000004,3.9999998 0,0.9999997 4.15625,2.5 0.84375,-0.5 -5,-2.9999997 z m -4.5,0.4062497 -1.21875,1.625 c 0.124721,0.15039 0.271119,0.290783 0.40625,0.4375 l 0.8125,-1.0625 c 0.269049,0.356376 0.545937,0.663031 0.8125,0.90625 0.487153,0.444491 0.944065,0.6875 1.65625,0.6875 l 2.03125,0 0,-1 -2.03125,0 c -0.712185,0 -1.169097,-0.243009 -1.65625,-0.6875 -0.266563,-0.243219 -0.543451,-0.549874 -0.8125,-0.90625 z"
       id="BevelShadow"
       inkscape:label="#path3182" />
    <path
       inkscape:connector-curvature="0"
       style="opacity:0.2;fill:#ffffff;fill-opacity:1;fill-rule:nonzero;stroke:none"
       d="m 21.000251,5.9997485 -5,2.9999998 0,1 5,-2.9999998 0,-1 z m -7.03125,1 c -0.712185,0 -1.169097,0.243009 -1.65625,0.6875 -0.466009,0.425198 -0.924734,1.0691197 -1.40625,1.7812498 -0.437108,0.5832917 -0.872097,1.1701877 -1.3125004,1.7499997 -0.1781194,0.2032 -0.3527137,0.408326 -0.5625,0.59375 -0.767102,0.678018 -1.8059898,1.1875 -3.0625,1.1875 l -2.96875,0 0,1 2.96875,0 c 1.2565102,0 2.295398,-0.509482 3.0625,-1.1875 0.2097863,-0.185424 0.3843806,-0.39055 0.5625,-0.59375 0.4404034,-0.579812 0.8753924,-1.166708 1.3125004,-1.75 0.481516,-0.7121297 0.940241,-1.3560517 1.40625,-1.7812495 0.487153,-0.444491 0.944065,-0.6875 1.65625,-0.6875 l 2.03125,0 0,-1 -2.03125,0 z m -3.6875,5.0312495 0,1 c 0.212547,0.256292 0.429164,0.514288 0.6875,0.75 0.743422,0.678317 1.77311,1.21875 3,1.21875 l 2.03125,0 0,-1 -2.03125,0 c -1.22689,0 -2.256578,-0.540433 -3,-1.21875 -0.258336,-0.235712 -0.474953,-0.493708 -0.6875,-0.75 z m 10.71875,0.96875 -5,3 0,1 5,-3 0,-1 z"
       id="BevelHighlight"
       inkscape:label="#path3189" />
    <path
       style="opacity:0.3;fill:#000000;fill-opacity:1;fill-rule:nonzero;stroke:none"
       d="m 16.000251,2.9997483 0,2 -2.03125,0 c -1.22689,0 -2.256578,0.540433 -3,1.21875 -0.486488,0.4438833 -0.863312,0.9406498 -1.2187504,1.4375 l -1.40625,1.96875 c -0.2081484,0.258136 -0.4118668,0.4991177 -0.625,0.6874997 -0.5032313,0.44479 -0.9879198,0.6875 -1.75,0.6875 l -2.96875,0 0,2 2.96875,0 c 1.2565102,0 2.295398,-0.509482 3.0625,-1.1875 0.2097863,-0.185424 0.3843806,-0.39055 0.5625,-0.59375 0.4404034,-0.579812 0.8753924,-1.166708 1.3125004,-1.7499997 0.481516,-0.7121301 0.940241,-1.356052 1.40625,-1.78125 0.487153,-0.444491 0.944065,-0.6875 1.65625,-0.6875 l 2.03125,0 0,2 5,-3 -5,-3 z m 0.4375,0.78125 3.71875,2.21875 -3.71875,2.21875 0,-1.21875 a 0.4360336,0.4360336 0 0 0 -0.4375,-0.4375 l -2.03125,0 c -0.811363,0 -1.408524,0.3298482 -1.9375,0.8125 -0.522674,0.4769005 -1.014824,1.1262068 -1.5,1.84375 l 0.03125,0 c -0.42927,0.572833 -0.8518388,1.1528617 -1.2812504,1.7187497 -0.00876,0.01155 -0.022483,0.01971 -0.03125,0.03125 -0.1686804,0.192664 -0.3301121,0.381091 -0.5,0.53125 -0.7019509,0.620433 -1.6425948,1.0625 -2.78125,1.0625 l -2.53125,0 0,-1.125 2.53125,0 c 0.8546506,0 1.4829027,-0.327833 2.03125,-0.8125 0.2480815,-0.219272 0.4753246,-0.45562 0.6875,-0.7187497 a 0.4360336,0.4360336 0 0 0 0,-0.03125 l 1.4062504,-1.96875 c 0.350609,-0.4901006 0.706598,-0.9647265 1.15625,-1.375 0.680524,-0.6209272 1.619893,-1.09375 2.71875,-1.09375 l 2.03125,0 a 0.4360336,0.4360336 0 0 0 0.4375,-0.4375 l 0,-1.21875 z m -13.4375004,2.21875 0,2 2.96875,0 c 0.7620802,0 1.2467687,0.2427095 1.75,0.6875 0.010484,0.00927 0.020749,0.021817 0.03125,0.03125 l 1.125,-1.65625 c -0.7503619,-0.6131255 -1.7301565,-1.0625 -2.90625,-1.0625 l -2.96875,0 z m 0.4375,0.4375 2.53125,0 c 0.9038141,0 1.6491004,0.3190537 2.28125,0.75 l -0.625,0.9375 c -0.4675967,-0.3222411 -0.9793555,-0.5625 -1.65625,-0.5625 l -2.53125,0 0,-1.125 z m 12.5625004,3.5625 0,1.9999997 -2.03125,0 c -0.712185,0 -1.169097,-0.243009 -1.65625,-0.6875 -0.266563,-0.243219 -0.543451,-0.549874 -0.8125,-0.90625 l -1.21875,1.625 c 0.212547,0.256292 0.429164,0.514288 0.6875,0.75 0.743422,0.678317 1.77311,1.21875 3,1.21875 l 2.03125,0 0,2 5,-3 -5,-2.9999997 z m 0.4375,0.7812497 3.71875,2.21875 -3.71875,2.21875 0,-1.21875 a 0.4360336,0.4360336 0 0 0 -0.4375,-0.4375 l -2.03125,0 c -1.098857,0 -2.038226,-0.472823 -2.71875,-1.09375 -0.150413,-0.13724 -0.269395,-0.310476 -0.40625,-0.46875 l 0.6875,-0.9375 c 0.16678,0.19092 0.332638,0.409794 0.5,0.5625 0.528976,0.482652 1.126137,0.8125 1.9375,0.8125 l 2.03125,0 a 0.4360336,0.4360336 0 0 0 0.4375,-0.4375 l 0,-1.21875 z"
       id="path4042"
       inkscape:connector-curvature="0" />
  </g>
</svg>
