<?xml version="1.0" encoding="UTF-8" standalone="no"?>
<!-- Created with Inkscape (http://www.inkscape.org/) -->

<svg
   xmlns:dc="http://purl.org/dc/elements/1.1/"
   xmlns:cc="http://creativecommons.org/ns#"
   xmlns:rdf="http://www.w3.org/1999/02/22-rdf-syntax-ns#"
   xmlns:svg="http://www.w3.org/2000/svg"
   xmlns="http://www.w3.org/2000/svg"
   xmlns:xlink="http://www.w3.org/1999/xlink"
   xmlns:sodipodi="http://sodipodi.sourceforge.net/DTD/sodipodi-0.dtd"
   xmlns:inkscape="http://www.inkscape.org/namespaces/inkscape"
   width="24"
   height="24"
   id="svg2"
   sodipodi:version="0.32"
   inkscape:version="0.91 r13725"
   version="1.0"
   sodipodi:docname="media-skip-forward.svg"
   inkscape:output_extension="org.inkscape.output.svg.inkscape"
   inkscape:export-filename="/home/matt/.icons/Sirocco/scalable/mimetypes/text-plain.png"
   inkscape:export-xdpi="90"
   inkscape:export-ydpi="90"
   sodipodi:modified="true"
   style="display:inline">
  <sodipodi:namedview
     id="base"
     pagecolor="#838383"
     bordercolor="#cc0000"
     borderopacity="1"
     inkscape:pageopacity="1"
     inkscape:pageshadow="2"
     inkscape:zoom="22.027846"
     inkscape:cx="-2.9000234"
     inkscape:cy="6.5002376"
     inkscape:document-units="px"
     inkscape:current-layer="layer1"
     width="128px"
     height="128px"
     inkscape:showpageshadow="false"
     inkscape:window-width="1366"
     inkscape:window-height="718"
     inkscape:window-x="0"
     inkscape:window-y="25"
     showguides="true"
     inkscape:guide-bbox="true"
     showgrid="true"
     inkscape:window-maximized="1"
     borderlayer="true"
     inkscape:snap-global="true">
    <inkscape:grid
       enabled="true"
       visible="true"
       id="grid3231"
       type="xygrid"
       empspacing="8"
       snapvisiblegridlinesonly="true" />
    <sodipodi:guide
       orientation="1,0"
       position="12,6"
       id="guide3791" />
    <sodipodi:guide
       orientation="0,1"
       position="14,9"
       id="guide3793" />
  </sodipodi:namedview>
  <defs
     id="defs4">
    <linearGradient
       id="StandardGradient"
       gradientTransform="scale(0.9219544,1.0846523)"
       x1="11.998966"
       y1="0.92195445"
       x2="11.998966"
       y2="19.387045"
       gradientUnits="userSpaceOnUse">
      <stop
         style="stop-color:#000000;stop-opacity:0.23529412;"
         offset="0"
         id="stop3283" />
      <stop
         id="stop3850"
         offset="0.69999999"
         style="stop-color:#000000;stop-opacity:0.39215686;" />
      <stop
         style="stop-color:#000000;stop-opacity:0.55;"
         offset="1"
         id="stop2651" />
    </linearGradient>
    <radialGradient
       inkscape:collect="always"
       xlink:href="#StandardGradient"
       id="radialGradient4093"
       cx="12.299858"
       cy="12.061825"
       fx="12.299858"
       fy="12.061825"
       r="5"
       gradientTransform="matrix(0,-1.6000003,-3.1999999,0,51.597844,31.679778)"
       gradientUnits="userSpaceOnUse" />
    <radialGradient
       inkscape:collect="always"
       xlink:href="#StandardGradient"
       id="radialGradient3787"
       gradientUnits="userSpaceOnUse"
       gradientTransform="matrix(0,-1.6000003,-3.1999999,0,50.597838,33.679778)"
       cx="12.299858"
       cy="12.061825"
       fx="12.299858"
       fy="12.061825"
       r="5" />
    <radialGradient
       inkscape:collect="always"
       xlink:href="#StandardGradient"
       id="radialGradient3791"
       gradientUnits="userSpaceOnUse"
       gradientTransform="matrix(0,-1.6000003,-3.1999999,0,50.597838,32.679778)"
       cx="12.299858"
       cy="12.061825"
       fx="12.299858"
       fy="12.061825"
       r="5" />
    <radialGradient
       inkscape:collect="always"
       xlink:href="#StandardGradient"
       id="radialGradient3798"
       gradientUnits="userSpaceOnUse"
       gradientTransform="matrix(0,-1.6000003,-3.1999999,0,50.597838,32.679778)"
       cx="12.299858"
       cy="12.061825"
       fx="12.299858"
       fy="12.061825"
       r="5" />
    <radialGradient
       inkscape:collect="always"
       xlink:href="#StandardGradient"
       id="radialGradient3802"
       gradientUnits="userSpaceOnUse"
       gradientTransform="matrix(0,-1.6000003,-3.1999999,0,50.597838,32.679778)"
       cx="12.299858"
       cy="12.061825"
       fx="12.299858"
       fy="12.061825"
       r="5" />
  </defs>
  <metadata
     id="metadata7">
    <rdf:RDF>
      <cc:Work
         rdf:about="">
        <dc:format>image/svg+xml</dc:format>
        <dc:type
           rdf:resource="http://purl.org/dc/dcmitype/StillImage" />
        <dc:title></dc:title>
      </cc:Work>
    </rdf:RDF>
  </metadata>
  <g
     style="display:inline"
     inkscape:label="Calque 1"
     id="layer1"
     inkscape:groupmode="layer"
     transform="translate(0,2)">
    <path
       style="opacity:0.05;fill:#ffffff;fill-opacity:1;fill-rule:nonzero;stroke:none"
       d="m 5.8750059,2 a 1.0050079,1.0050079 0 0 0 -0.875,1 l 0,13 a 1.0050079,1.0050079 0 0 0 1.53125,0.84375 l 8.4687501,-5.46875 0,3.625 a 1.0050079,1.0050079 0 0 0 1,1 l 3,0 a 1.0050079,1.0050079 0 0 0 1,-1 l 0,-11 a 1.0050079,1.0050079 0 0 0 -1,-1 l -3,0 a 1.0050079,1.0050079 0 0 0 -1,1 l 0,3.65625 -8.4375001,-5.5 A 1.0050079,1.0050079 0 0 0 5.8750059,2 Z m 0.125,1 10.0000001,6.53125 0,-5.53125 3,0 0,11 -3,0 0,-5.46875 L 6.0000059,16 l 0,-13 z"
       id="path3800"
       inkscape:connector-curvature="0" />
    <path
       inkscape:connector-curvature="0"
       style="fill:url(#radialGradient4093);fill-opacity:1;fill-rule:nonzero;stroke:none"
       d="m 19.000135,4.0000002 0,10.9999998 -3,0 0,-5.471665 L 6.0001346,16 l 0,-12.9999998 10.0000004,6.5283348 0,-5.5283348 z"
       id="Symbol"
       inkscape:label="#path2392"
       sodipodi:nodetypes="ccccccccc" />
    <path
       style="opacity:0.3;fill:#000000;fill-opacity:1;fill-rule:nonzero;stroke:none"
       d="m 6.0000059,3 0,13 L 16.000006,9.53125 6.0000059,3 Z m 10.0000001,6.53125 0,5.46875 3,0 0,-11 -3,0 0,5.53125 z m -9.5312501,-5.6875 8.7187501,5.6875 -8.7187501,5.625 0,-11.3125 z m 10.0000001,0.625 2.0625,0 0,10.0625 -2.0625,0 0,-5 0,-5.0625 z"
       id="path3004"
       inkscape:connector-curvature="0" />
    <path
       style="opacity:0.3;fill:#000000;fill-opacity:1;fill-rule:nonzero;stroke:none"
       d="m 6.0000059,3 0,1 9.2187501,6.03125 0.78125,-0.5 L 6.0000059,3 Z m 10.0000001,1 0,1 3,0 0,-1 -3,0 z"
       id="path2995"
       inkscape:connector-curvature="0" />
    <path
       style="opacity:0.2;fill:#ffffff;fill-opacity:1;fill-rule:nonzero;stroke:none"
       d="M 15.218756,10.03125 6.0000059,16 l 0,1 10.0000001,-6.46875 -0.78125,-0.5 z M 16.000006,15 l 0,1 3,0 0,-1 -3,0 z"
       id="path3785"
       inkscape:connector-curvature="0" />
  </g>
</svg>
