<?xml version="1.0" encoding="UTF-8" standalone="no"?>
<!-- Created with Inkscape (http://www.inkscape.org/) -->

<svg
   xmlns:dc="http://purl.org/dc/elements/1.1/"
   xmlns:cc="http://creativecommons.org/ns#"
   xmlns:rdf="http://www.w3.org/1999/02/22-rdf-syntax-ns#"
   xmlns:svg="http://www.w3.org/2000/svg"
   xmlns="http://www.w3.org/2000/svg"
   xmlns:xlink="http://www.w3.org/1999/xlink"
   xmlns:sodipodi="http://sodipodi.sourceforge.net/DTD/sodipodi-0.dtd"
   xmlns:inkscape="http://www.inkscape.org/namespaces/inkscape"
   width="24"
   height="24"
   id="svg2"
   sodipodi:version="0.32"
   inkscape:version="0.91 r13725"
   version="1.0"
   sodipodi:docname="media-eject.svg"
   inkscape:output_extension="org.inkscape.output.svg.inkscape"
   inkscape:export-filename="/home/matt/.icons/Sirocco/scalable/mimetypes/text-plain.png"
   inkscape:export-xdpi="90"
   inkscape:export-ydpi="90"
   sodipodi:modified="true"
   style="display:inline">
  <sodipodi:namedview
     id="base"
     pagecolor="#838383"
     bordercolor="#cc0000"
     borderopacity="1"
     inkscape:pageopacity="1"
     inkscape:pageshadow="2"
     inkscape:zoom="7.7880196"
     inkscape:cx="6.8953086"
     inkscape:cy="-5.5581749"
     inkscape:document-units="px"
     inkscape:current-layer="layer1"
     width="128px"
     height="128px"
     inkscape:showpageshadow="false"
     inkscape:window-width="1366"
     inkscape:window-height="718"
     inkscape:window-x="0"
     inkscape:window-y="25"
     showguides="true"
     inkscape:guide-bbox="true"
     showgrid="true"
     inkscape:window-maximized="1"
     borderlayer="true">
    <inkscape:grid
       enabled="true"
       visible="true"
       id="grid3231"
       type="xygrid"
       empspacing="8"
       snapvisiblegridlinesonly="true" />
    <sodipodi:guide
       orientation="1,0"
       position="12,6"
       id="guide3791" />
    <sodipodi:guide
       orientation="0,1"
       position="14,9"
       id="guide3793" />
  </sodipodi:namedview>
  <defs
     id="defs4">
    <linearGradient
       id="StandardGradient"
       gradientTransform="scale(0.9219544,1.0846523)"
       x1="11.998966"
       y1="0.92195445"
       x2="11.998966"
       y2="19.387045"
       gradientUnits="userSpaceOnUse">
      <stop
         style="stop-color:#000000;stop-opacity:0.23529412;"
         offset="0"
         id="stop3283" />
      <stop
         id="stop3850"
         offset="0.69999999"
         style="stop-color:#000000;stop-opacity:0.39215686;" />
      <stop
         style="stop-color:#000000;stop-opacity:0.55;"
         offset="1"
         id="stop2651" />
    </linearGradient>
    <linearGradient
       id="StandardGradient-0"
       gradientTransform="scale(0.9306049,1.0745699)"
       x1="9.2363071"
       y1="7.4479208"
       x2="9.2363071"
       y2="14.311561"
       gradientUnits="userSpaceOnUse">
      <stop
         style="stop-color:#000000;stop-opacity:0.86274511;"
         offset="0"
         id="stop3389" />
      <stop
         style="stop-color:#000000;stop-opacity:0.47058824;"
         offset="1"
         id="stop3391" />
    </linearGradient>
    <linearGradient
       inkscape:collect="always"
       xlink:href="#StandardGradient-0"
       id="linearGradient3871"
       gradientUnits="userSpaceOnUse"
       gradientTransform="matrix(0,-1.166683,1.8958598,0,-9.1202143,20.754569)"
       x1="13.503727"
       y1="9.5577812"
       x2="3.1825049"
       y2="9.5577812" />
    <linearGradient
       inkscape:collect="always"
       xlink:href="#StandardGradient-0"
       id="linearGradient3875"
       gradientUnits="userSpaceOnUse"
       gradientTransform="matrix(0,-1.166683,1.8958598,0,-9.1202143,20.754569)"
       x1="13.503727"
       y1="9.5577812"
       x2="3.1825049"
       y2="9.5577812" />
    <linearGradient
       inkscape:collect="always"
       xlink:href="#StandardGradient-0"
       id="linearGradient3877"
       gradientUnits="userSpaceOnUse"
       gradientTransform="matrix(0,-1.166683,1.8958598,0,-9.1202143,20.754569)"
       x1="13.503727"
       y1="9.5577812"
       x2="3.1825049"
       y2="9.5577812" />
    <radialGradient
       inkscape:collect="always"
       xlink:href="#StandardGradient"
       id="radialGradient3880"
       cx="12"
       cy="13"
       fx="12"
       fy="13"
       r="6.5"
       gradientUnits="userSpaceOnUse"
       gradientTransform="matrix(2.4615385,0,0,0.92307691,-16.538638,-2.499e-4)" />
  </defs>
  <metadata
     id="metadata7">
    <rdf:RDF>
      <cc:Work
         rdf:about="">
        <dc:format>image/svg+xml</dc:format>
        <dc:type
           rdf:resource="http://purl.org/dc/dcmitype/StillImage" />
        <dc:title></dc:title>
      </cc:Work>
    </rdf:RDF>
  </metadata>
  <g
     style="display:inline"
     inkscape:label="Calque 1"
     id="layer1"
     inkscape:groupmode="layer"
     transform="translate(0,2)">
    <path
       inkscape:connector-curvature="0"
       style="opacity:0.05;fill:#ffffff;fill-opacity:1;fill-rule:nonzero;stroke:none"
       d="m 12.374824,2.9685001 a 1.0331964,1.0331964 0 0 0 -0.6875,0.375 L 5.1873242,11.3435 a 1.0331964,1.0331964 0 0 0 0.5,1.65625 1.0331964,1.0331964 0 0 0 -0.71875,1 l 0,3 a 1.0331964,1.0331964 0 0 0 1.03125,1.03125 l 12.9999998,0 a 1.0331964,1.0331964 0 0 0 1.03125,-1.03125 l 0,-3 a 1.0331964,1.0331964 0 0 0 -0.71875,-1 1.0331964,1.0331964 0 0 0 0.5,-1.65625 l -6.5,-7.9999999 a 1.0331964,1.0331964 0 0 0 -0.9375,-0.375 z m 0.125,1.03125 6.5,7.9999999 -12.9999998,0 6.4999998,-7.9999999 z m -6.4999998,9.9999999 12.9999998,0 0,3 -12.9999998,0 0,-3 z"
       id="path4547" />
    <path
       style="opacity:0.3;fill:#000000;fill-opacity:1;fill-rule:nonzero;stroke:none"
       d="m 12.499824,3.99975 -6.4999997,8 12.9999997,0 -6.5,-8 z m 0,0.8125 5.4375,6.6875 -10.8749997,0 5.4374997,-6.6875 z m -6.4999997,9.1875 0,3 12.9999997,0 0,-3 -12.9999997,0 z m 0.5,0.5 11.9999997,0 0,2 -11.9999997,0 0,-2 z"
       id="path3867"
       inkscape:connector-curvature="0" />
    <path
       inkscape:connector-curvature="0"
       style="fill:url(#radialGradient3880);fill-opacity:1;fill-rule:nonzero;stroke:none"
       d="m 12.499824,3.9997501 -6.4999998,7.9999999 12.9999998,0 -6.5,-7.9999999 z m -6.4999998,9.9999999 0,3 12.9999998,0 0,-3 -12.9999998,0 z"
       id="Symbol"
       sodipodi:nodetypes="ccccccccc" />
    <path
       inkscape:connector-curvature="0"
       style="opacity:0.3;fill:#000000;fill-opacity:1;fill-rule:nonzero;stroke:none"
       d="m 12.499824,3.9997501 -6.4999998,7.9999999 0.8125,0 5.6874998,-6.9999999 5.6875,6.9999999 0.8125,0 -6.5,-7.9999999 z m -6.4999998,9.9999999 0,1 12.9999998,0 0,-1 -12.9999998,0 z"
       id="path2840" />
    <path
       inkscape:connector-curvature="0"
       style="opacity:0.2;fill:#ffffff;fill-opacity:1;fill-rule:nonzero;stroke:none"
       d="m 6.8123242,11.99975 -0.8125,1 12.9999998,0 -0.8125,-1 -11.3749998,0 z m -0.8125,5 0,1 12.9999998,0 0,-1 -12.9999998,0 z"
       id="path3622" />
  </g>
</svg>
