<?xml version="1.0" encoding="UTF-8" standalone="no"?>
<!-- Created with Inkscape (http://www.inkscape.org/) -->

<svg
   xmlns:dc="http://purl.org/dc/elements/1.1/"
   xmlns:cc="http://creativecommons.org/ns#"
   xmlns:rdf="http://www.w3.org/1999/02/22-rdf-syntax-ns#"
   xmlns:svg="http://www.w3.org/2000/svg"
   xmlns="http://www.w3.org/2000/svg"
   xmlns:xlink="http://www.w3.org/1999/xlink"
   xmlns:sodipodi="http://sodipodi.sourceforge.net/DTD/sodipodi-0.dtd"
   xmlns:inkscape="http://www.inkscape.org/namespaces/inkscape"
   width="24"
   height="24"
   id="svg2"
   sodipodi:version="0.32"
   inkscape:version="0.91 r13725"
   version="1.0"
   sodipodi:docname="media-import-audio-cd.svg"
   inkscape:output_extension="org.inkscape.output.svg.inkscape"
   inkscape:export-filename="/home/matt/.icons/Sirocco/scalable/mimetypes/text-plain.png"
   inkscape:export-xdpi="90"
   inkscape:export-ydpi="90"
   sodipodi:modified="true"
   style="display:inline">
  <sodipodi:namedview
     id="base"
     pagecolor="#767676"
     bordercolor="#666666"
     borderopacity="1.0"
     inkscape:pageopacity="0"
     inkscape:pageshadow="2"
     inkscape:zoom="14.858116"
     inkscape:cx="16.44757"
     inkscape:cy="7.8597229"
     inkscape:document-units="px"
     inkscape:current-layer="layer1"
     width="128px"
     height="128px"
     inkscape:showpageshadow="false"
     inkscape:window-width="1366"
     inkscape:window-height="718"
     inkscape:window-x="0"
     inkscape:window-y="25"
     showguides="true"
     inkscape:guide-bbox="true"
     showgrid="true"
     inkscape:window-maximized="1"
     inkscape:snap-bbox="true"
     inkscape:bbox-paths="true"
     inkscape:bbox-nodes="true"
     inkscape:snap-bbox-midpoints="false"
     inkscape:snap-bbox-edge-midpoints="true">
    <sodipodi:guide
       id="guide2226"
       position="32.637397,117.99844"
       orientation="horizontal" />
    <sodipodi:guide
       id="guide2230"
       position="110,57.402344"
       orientation="vertical" />
    <sodipodi:guide
       id="guide2232"
       position="33.760911"
       orientation="horizontal" />
    <sodipodi:guide
       id="guide2231"
       position="46.774696"
       orientation="horizontal" />
    <inkscape:grid
       enabled="true"
       visible="true"
       id="grid3231"
       type="xygrid"
       empspacing="8"
       snapvisiblegridlinesonly="true" />
    <sodipodi:guide
       orientation="1,0"
       position="100,67.625"
       id="guide2713" />
  </sodipodi:namedview>
  <defs
     id="defs4">
    <linearGradient
       gradientUnits="userSpaceOnUse"
       y2="19.387045"
       x2="11.998966"
       y1="0.92195445"
       x1="11.998966"
       gradientTransform="scale(0.9219544,1.0846523)"
       id="linearGradient4208">
      <stop
         id="stop4210"
         offset="0"
         style="stop-color:#000000;stop-opacity:0.23529412" />
      <stop
         id="stop4212"
         offset="1"
         style="stop-color:#000000;stop-opacity:0.54901963" />
    </linearGradient>
    <linearGradient
       inkscape:collect="always"
       xlink:href="#StandardGradient"
       id="linearGradient2549"
       gradientUnits="userSpaceOnUse"
       gradientTransform="matrix(0.9247229,0,0,1.0872097,16.939944,2.9976422)"
       x1="11.998966"
       y1="0.92195445"
       x2="11.998966"
       y2="17.478098" />
    <inkscape:perspective
       sodipodi:type="inkscape:persp3d"
       inkscape:vp_x="0 : 11 : 1"
       inkscape:vp_y="0 : 1000 : 0"
       inkscape:vp_z="22 : 11 : 1"
       inkscape:persp3d-origin="11 : 7.3333333 : 1"
       id="perspective19" />
    <linearGradient
       id="StandardGradient"
       gradientTransform="scale(0.9219544,1.0846523)"
       x1="11.998966"
       y1="0.92195445"
       x2="11.998966"
       y2="19.387045"
       gradientUnits="userSpaceOnUse">
      <stop
         style="stop-color:#000000;stop-opacity:0.86274511;"
         offset="0"
         id="stop3283" />
      <stop
         style="stop-color:#000000;stop-opacity:0.47058824;"
         offset="1"
         id="stop2651" />
    </linearGradient>
    <linearGradient
       inkscape:collect="always"
       xlink:href="#StandardGradient"
       id="linearGradient2406"
       gradientUnits="userSpaceOnUse"
       gradientTransform="matrix(0.9219544,0,0,1.0846523,0,-1)"
       x1="11.998966"
       y1="2.7658634"
       x2="11.998966"
       y2="19.387045" />
    <linearGradient
       inkscape:collect="always"
       xlink:href="#StandardGradient"
       id="linearGradient3198"
       gradientUnits="userSpaceOnUse"
       gradientTransform="matrix(0.9219544,0,0,1.0846523,0,-1)"
       x1="11.998966"
       y1="2.7658634"
       x2="11.998966"
       y2="19.387045" />
    <linearGradient
       inkscape:collect="always"
       xlink:href="#StandardGradient"
       id="linearGradient4636"
       gradientUnits="userSpaceOnUse"
       gradientTransform="matrix(0.9219544,0,0,1.0846523,-0.01723507,0.96875)"
       x1="11.998966"
       y1="2.7658634"
       x2="11.998966"
       y2="15.702114" />
    <linearGradient
       inkscape:collect="always"
       xlink:href="#StandardGradient"
       id="linearGradient2397"
       gradientUnits="userSpaceOnUse"
       gradientTransform="matrix(0.9219544,0,0,1.0846523,-0.01723507,0.96875)"
       x1="11.998966"
       y1="2.7658634"
       x2="11.998966"
       y2="15.702114" />
    <linearGradient
       inkscape:collect="always"
       xlink:href="#StandardGradient"
       id="linearGradient2402"
       gradientUnits="userSpaceOnUse"
       gradientTransform="matrix(0.9219544,0,0,1.0846523,-0.01723507,0.96875)"
       x1="11.998966"
       y1="2.7658634"
       x2="11.998966"
       y2="15.702114" />
    <linearGradient
       inkscape:collect="always"
       xlink:href="#StandardGradient"
       id="linearGradient2405"
       gradientUnits="userSpaceOnUse"
       gradientTransform="matrix(0.9219544,0,0,1.0846523,-0.01723507,-0.03125)"
       x1="11.998966"
       y1="2.7658634"
       x2="11.998966"
       y2="15.702114" />
    <linearGradient
       inkscape:collect="always"
       xlink:href="#StandardGradient"
       id="linearGradient2415"
       gradientUnits="userSpaceOnUse"
       gradientTransform="matrix(0.9219544,0,0,1.0846523,-0.01723507,-0.03125)"
       x1="11.998966"
       y1="2.7658634"
       x2="11.998966"
       y2="15.702114" />
    <linearGradient
       inkscape:collect="always"
       xlink:href="#StandardGradient"
       id="linearGradient2407"
       gradientUnits="userSpaceOnUse"
       gradientTransform="matrix(0.9219544,0,0,1.0846523,-0.01723507,-1.03125)"
       x1="11.998966"
       y1="2.7658634"
       x2="11.998966"
       y2="15.702114" />
    <linearGradient
       inkscape:collect="always"
       xlink:href="#StandardGradient"
       id="linearGradient2542"
       gradientUnits="userSpaceOnUse"
       gradientTransform="matrix(0.9247229,0,0,1.0872097,-2.060056,5.9976422)"
       x1="11.998966"
       y1="0.92195445"
       x2="11.998966"
       y2="17.478098" />
    <linearGradient
       inkscape:collect="always"
       xlink:href="#StandardGradient"
       id="linearGradient2551"
       gradientUnits="userSpaceOnUse"
       gradientTransform="matrix(0.9219544,0,0,1.0846523,-0.01723507,-1.03125)"
       x1="11.998966"
       y1="2.7658634"
       x2="11.998966"
       y2="15.702114" />
    <linearGradient
       inkscape:collect="always"
       xlink:href="#StandardGradient"
       id="linearGradient2554"
       gradientUnits="userSpaceOnUse"
       gradientTransform="matrix(0.9219544,0,0,1.0846523,-0.01723507,-1.03125)"
       x1="11.998966"
       y1="2.7658634"
       x2="11.998966"
       y2="15.702114" />
    <linearGradient
       inkscape:collect="always"
       xlink:href="#StandardGradient"
       id="linearGradient2424"
       gradientUnits="userSpaceOnUse"
       gradientTransform="matrix(0.9219544,0,0,1.0846523,-0.01723507,-0.03125)"
       x1="11.998966"
       y1="2.7658634"
       x2="11.998966"
       y2="15.702114" />
    <linearGradient
       inkscape:collect="always"
       xlink:href="#StandardGradient"
       id="linearGradient3208"
       gradientUnits="userSpaceOnUse"
       gradientTransform="matrix(0.9219544,0,0,1.0846523,-0.01723507,-0.03125)"
       x1="11.998966"
       y1="2.7658634"
       x2="11.998966"
       y2="15.702114" />
    <linearGradient
       inkscape:collect="always"
       xlink:href="#StandardGradient"
       id="linearGradient3213"
       gradientUnits="userSpaceOnUse"
       gradientTransform="matrix(0.9219544,0,0,1.0846523,-0.01723507,-0.03125)"
       x1="11.998966"
       y1="2.7658634"
       x2="11.998966"
       y2="15.702114" />
    <linearGradient
       inkscape:collect="always"
       xlink:href="#StandardGradient"
       id="linearGradient3221"
       gradientUnits="userSpaceOnUse"
       gradientTransform="matrix(0.9219544,0,0,1.0846523,-0.01723507,-0.03125)"
       x1="11.998966"
       y1="2.7658634"
       x2="11.998966"
       y2="15.702114" />
    <inkscape:perspective
       id="perspective2850"
       inkscape:persp3d-origin="0.5 : 0.33333333 : 1"
       inkscape:vp_z="1 : 0.5 : 1"
       inkscape:vp_y="0 : 1000 : 0"
       inkscape:vp_x="0 : 0.5 : 1"
       sodipodi:type="inkscape:persp3d" />
    <linearGradient
       inkscape:collect="always"
       xlink:href="#StandardGradient"
       id="linearGradient3644"
       gradientUnits="userSpaceOnUse"
       gradientTransform="matrix(0.9219544,0,0,1.0846523,-30.017235,-0.03125)"
       x1="11.998966"
       y1="2.7658634"
       x2="11.998966"
       y2="15.702114" />
    <clipPath
       clipPathUnits="userSpaceOnUse"
       id="clipPath3651">
      <path
         style="display:inline;fill:#ff00ff;fill-opacity:1;stroke:none"
         d="m -30,0 0,22 22,0 0,-22 -22,0 z m 4,2 3.96875,0 c 0.554,0 1,0.446 1,1 l 0,1 8.5,0 c 0.669688,0 1.243585,0.3963931 1.4375,1 C -11.04026,5.1544781 -11,5.326875 -11,5.5 l 0,0.5 -5,0 -1,0 -4.21875,0 L -27,6 l 0,-1 0,-2 c 0,-0.554 0.446,-1 1,-1 z m -0.5,5 5,0 8,0 2,0 c 0.831,0 1.5,0.669 1.5,1.5 l 0,8 c 0,0.831 -0.669,1.5 -1.5,1.5 l -0.5,0 0,0.25 0,1.25 c 0,0.831 -0.669,1.5 -1.5,1.5 l -8,0 c -0.831,0 -1.5,-0.669 -1.5,-1.5 l 0,-1.5 -3.5,0 c -0.831,0 -1.5,-0.669 -1.5,-1.5 l 0,-8 C -28,7.669 -27.331,7 -26.5,7 Z m 6,2 C -20.777,9 -21,9.223 -21,9.5 l 0,9 c 0,0.277 0.223,0.5 0.5,0.5 l 6,0 c 0.277,0 0.5,-0.223 0.5,-0.5 l 0,-9 C -14,9.223 -14.223,9 -14.5,9 l -2.90625,0 -2.09375,0 -1,0 z"
         id="path3653"
         inkscape:connector-curvature="0" />
    </clipPath>
    <clipPath
       clipPathUnits="userSpaceOnUse"
       id="clipPath3779">
      <path
         style="display:inline;fill:#ff00ff;fill-opacity:1;stroke:none"
         d="m -30,0 0,22 22,0 0,-22 -22,0 z m 9,3 c 0.33999,0 0.671168,0.021333 1,0.0625 -3.944443,0.4938109 -7,3.8592123 -7,7.9375 0,4.078288 3.055557,7.443689 7,7.9375 -0.328832,0.04117 -0.66001,0.0625 -1,0.0625 -4.418278,0 -8,-3.581722 -8,-8 0,-4.418278 3.581722,-8 8,-8 z m 4,0 c 2.761424,0 5.187342,1.4032362 6.625,3.53125 0.101814,0.1507052 0.189674,0.3109713 0.28125,0.46875 0.0028,0.00475 0.02855,-0.00475 0.03125,0 C -9.383329,8.175739 -9,9.544594 -9,11 c 0,4.418278 -3.581722,8 -8,8 -2.761424,0 -5.187342,-1.403236 -6.625,-3.53125 C -23.729878,15.31351 -23.84349,15.162738 -23.9375,15 -24.616671,13.824261 -25,12.455406 -25,11 c 0,-4.418278 3.581722,-8 8,-8 z m 1.8125,1.25 -1.03125,3.875 c 0.766341,0.210797 1.422644,0.702454 1.8125,1.375 l 3.46875,-2 c -0.917831,-1.5867968 -2.437587,-2.7660512 -4.25,-3.25 z M -17,9 c -1.104569,0 -2,0.895431 -2,2 0,1.104569 0.895431,2 2,2 1.104569,0 2,-0.895431 2,-2 0,-1.104569 -0.895431,-2 -2,-2 z m -2.59375,3.5 -3.46875,2 c 0.917831,1.586797 2.437587,2.766051 4.25,3.25 l 1.03125,-3.875 c -0.766341,-0.210797 -1.422644,-0.702454 -1.8125,-1.375 z"
         id="path3781"
         inkscape:connector-curvature="0" />
    </clipPath>
    <clipPath
       clipPathUnits="userSpaceOnUse"
       id="clipPath3838">
      <path
         style="display:inline;fill:#ff00ff;fill-opacity:1;stroke:none"
         d="m -30,0 0,22 22,0 0,-22 -22,0 z m 13,4 c 3.865993,0 7,3.1340067 7,7 0,3.865993 -3.134007,7 -7,7 -3.865993,0 -7,-3.134007 -7,-7 0,-3.8659933 3.134007,-7 7,-7 z m 0.0625,5 c -1.148184,0 -2.09375,0.9455657 -2.09375,2.09375 0,1.148184 0.945566,2.0625 2.09375,2.0625 1.148184,0 2.0625,-0.914316 2.0625,-2.0625 C -14.875,9.9455657 -15.789316,9 -16.9375,9 Z"
         id="path3840"
         inkscape:connector-curvature="0" />
    </clipPath>
    <linearGradient
       inkscape:collect="always"
       xlink:href="#StandardGradient"
       id="linearGradient3866"
       gradientUnits="userSpaceOnUse"
       gradientTransform="matrix(0,1.1538462,-1.1538462,0,23.615385,-6.2307693)"
       x1="8"
       y1="10.5"
       x2="21"
       y2="10.5" />
    <linearGradient
       inkscape:collect="always"
       xlink:href="#StandardGradient"
       id="linearGradient3889"
       gradientUnits="userSpaceOnUse"
       gradientTransform="matrix(0,1.1538462,-1.1538462,0,25.615385,-2.2307693)"
       x1="8"
       y1="10.5"
       x2="21"
       y2="10.5" />
    <linearGradient
       inkscape:collect="always"
       xlink:href="#StandardGradient"
       id="linearGradient3891"
       gradientUnits="userSpaceOnUse"
       gradientTransform="matrix(0,1.1538462,-1.1538462,0,25.615385,-3.2307693)"
       x1="8"
       y1="10.5"
       x2="21"
       y2="10.5" />
    <linearGradient
       inkscape:collect="always"
       xlink:href="#StandardGradient"
       id="linearGradient3896"
       gradientUnits="userSpaceOnUse"
       gradientTransform="matrix(0,1.1538462,-1.1538462,0,25.615385,-2.2307693)"
       x1="8"
       y1="10.5"
       x2="21"
       y2="10.5" />
    <linearGradient
       inkscape:collect="always"
       xlink:href="#StandardGradient"
       id="linearGradient3900"
       gradientUnits="userSpaceOnUse"
       gradientTransform="matrix(0,1.1538462,-1.1538462,0,25.615385,-3.2307693)"
       x1="8"
       y1="10.5"
       x2="21"
       y2="10.5" />
    <linearGradient
       inkscape:collect="always"
       xlink:href="#StandardGradient"
       id="linearGradient3905"
       gradientUnits="userSpaceOnUse"
       gradientTransform="matrix(0,1.1538462,-1.1538462,0,-4.384615,-3.2307693)"
       x1="8"
       y1="10.5"
       x2="21"
       y2="10.5" />
    <clipPath
       clipPathUnits="userSpaceOnUse"
       id="clipPath3912">
      <path
         style="display:inline;fill:#ff00ff;fill-opacity:1;stroke:none"
         d="m -30,0 0,22 22,0 0,-22 -22,0 z m 13.5,6 c 4.142135,0 7.5,3.3578643 7.5,7.5 0,4.142135 -3.357865,7.5 -7.5,7.5 -4.142136,0 -7.5,-3.357865 -7.5,-7.5 0,-4.1421357 3.357864,-7.5 7.5,-7.5 z m 0,5 c -1.380712,0 -2.5,1.119288 -2.5,2.5 0,1.380712 1.119288,2.5 2.5,2.5 1.380712,0 2.5,-1.119288 2.5,-2.5 0,-1.380712 -1.119288,-2.5 -2.5,-2.5 z"
         id="path3914"
         inkscape:connector-curvature="0" />
    </clipPath>
    <linearGradient
       inkscape:collect="always"
       xlink:href="#StandardGradient"
       id="linearGradient2908"
       gradientUnits="userSpaceOnUse"
       gradientTransform="matrix(0,1.3846155,-1.3846155,0,25.538462,-9.076923)"
       x1="8"
       y1="10.5"
       x2="21"
       y2="10.5" />
    <linearGradient
       inkscape:collect="always"
       xlink:href="#StandardGradient"
       id="linearGradient2911"
       gradientUnits="userSpaceOnUse"
       gradientTransform="matrix(0,1.3846155,-1.3846155,0,25.538462,-9.076923)"
       x1="8"
       y1="10.5"
       x2="21"
       y2="10.5" />
    <linearGradient
       inkscape:collect="always"
       xlink:href="#StandardGradient"
       id="linearGradient2918"
       gradientUnits="userSpaceOnUse"
       gradientTransform="matrix(0,1.3846155,-1.3846155,0,25.538462,-8.076923)"
       x1="8"
       y1="10.5"
       x2="21"
       y2="10.5" />
    <linearGradient
       inkscape:collect="always"
       xlink:href="#StandardGradient"
       id="linearGradient2920"
       gradientUnits="userSpaceOnUse"
       gradientTransform="matrix(0,1.3846155,-1.3846155,0,25.538462,-9.076923)"
       x1="8"
       y1="10.5"
       x2="21"
       y2="10.5" />
    <linearGradient
       inkscape:collect="always"
       xlink:href="#StandardGradient"
       id="linearGradient3697"
       gradientUnits="userSpaceOnUse"
       gradientTransform="matrix(0,1.3846155,-1.3846155,0,-4.461538,-9.076923)"
       x1="8"
       y1="10.5"
       x2="21"
       y2="10.5" />
    <linearGradient
       inkscape:collect="always"
       xlink:href="#StandardGradient"
       id="linearGradient3701"
       gradientUnits="userSpaceOnUse"
       gradientTransform="matrix(0,1.3846155,-1.3846155,0,-4.461538,-8.076923)"
       x1="8"
       y1="10.5"
       x2="21"
       y2="10.5" />
    <linearGradient
       inkscape:collect="always"
       xlink:href="#StandardGradient"
       id="linearGradient3705"
       gradientUnits="userSpaceOnUse"
       gradientTransform="matrix(0,1.3846155,-1.3846155,0,-4.461538,-9.076923)"
       x1="8"
       y1="10.5"
       x2="21"
       y2="10.5" />
    <linearGradient
       inkscape:collect="always"
       xlink:href="#StandardGradient"
       id="linearGradient3711"
       gradientUnits="userSpaceOnUse"
       gradientTransform="matrix(0,1.3846155,-1.3846155,0,-4.461538,-8.076923)"
       x1="8"
       y1="10.5"
       x2="21"
       y2="10.5" />
    <linearGradient
       inkscape:collect="always"
       xlink:href="#StandardGradient"
       id="linearGradient3714"
       gradientUnits="userSpaceOnUse"
       gradientTransform="matrix(0,1.3846155,-1.3846155,0,-4.461538,-9.076923)"
       x1="8"
       y1="10.5"
       x2="21"
       y2="10.5" />
    <clipPath
       clipPathUnits="userSpaceOnUse"
       id="clipPath3721">
      <path
         style="display:inline;fill:#ff00ff;fill-opacity:1;stroke:none"
         d="m -30,0 0,22 22,0 0,-22 -22,0 z m 11,2 c 4.970562,0 9,4.0294371 9,9 0,2.174621 -0.778597,4.163019 -2.0625,5.71875 L -12.0625,8 A 0.92603853,0.92603853 0 0 0 -13,7.0625 l -1,0 A 0.92603853,0.92603853 0 0 0 -14.9375,8 l 0,7.21875 c -0.198865,-0.03116 -0.353406,-0.15625 -0.5625,-0.15625 -1.781047,0 -3.4375,1.207408 -3.4375,2.9375 0,0.78781 0.363954,1.462348 0.90625,1.96875 C -18.35343,20.0037 -18.668534,20 -19,20 c -4.970563,0 -9,-4.029438 -9,-9 0,-4.9705629 4.029437,-9 9,-9 z m 0,6 c -1.656854,0 -3,1.3431456 -3,3 0,1.656854 1.343146,3 3,3 1.656854,0 3,-1.343146 3,-3 0,-1.6568544 -1.343146,-3 -3,-3 z m 5,0 1,0 0,10 c 0,1.104569 -1.119288,2 -2.5,2 -1.380712,0 -2.5,-0.895431 -2.5,-2 0,-1.104569 1.119288,-2 2.5,-2 0.560914,0 1.082893,0.156702 1.5,0.40625 L -14,8 Z"
         id="path3723"
         inkscape:connector-curvature="0" />
    </clipPath>
    <linearGradient
       inkscape:collect="always"
       xlink:href="#StandardGradient"
       id="linearGradient2910"
       gradientUnits="userSpaceOnUse"
       gradientTransform="matrix(0,1.3846155,-1.3846155,0,25.538462,-9.076923)"
       x1="8"
       y1="10.5"
       x2="21"
       y2="10.5" />
    <linearGradient
       inkscape:collect="always"
       xlink:href="#StandardGradient"
       id="linearGradient3716"
       x1="12"
       y1="2"
       x2="12"
       y2="21"
       gradientUnits="userSpaceOnUse" />
    <linearGradient
       inkscape:collect="always"
       xlink:href="#StandardGradient"
       id="linearGradient3730"
       gradientUnits="userSpaceOnUse"
       x1="12"
       y1="2"
       x2="12"
       y2="21"
       gradientTransform="translate(0,1)" />
    <linearGradient
       inkscape:collect="always"
       xlink:href="#StandardGradient"
       id="linearGradient3732"
       gradientUnits="userSpaceOnUse"
       x1="12"
       y1="2"
       x2="12"
       y2="21" />
    <linearGradient
       inkscape:collect="always"
       xlink:href="#StandardGradient"
       id="linearGradient3737"
       gradientUnits="userSpaceOnUse"
       x1="12"
       y1="2"
       x2="12"
       y2="21"
       gradientTransform="translate(0,1)" />
    <linearGradient
       inkscape:collect="always"
       xlink:href="#StandardGradient"
       id="linearGradient3741"
       gradientUnits="userSpaceOnUse"
       x1="12"
       y1="2"
       x2="12"
       y2="21" />
    <linearGradient
       inkscape:collect="always"
       xlink:href="#StandardGradient"
       id="linearGradient3746"
       gradientUnits="userSpaceOnUse"
       x1="12"
       y1="2"
       x2="12"
       y2="21"
       gradientTransform="translate(-30,0)" />
    <clipPath
       clipPathUnits="userSpaceOnUse"
       id="clipPath3753">
      <path
         style="display:inline;fill:#ff00ff;fill-opacity:1;stroke:none"
         d="m -30,0 0,22 22,0 0,-22 -22,0 z m 11,2 c 4.970563,0 9,4.029437 9,9 0,0.513701 -0.04233,1.009812 -0.125,1.5 A 0.99036863,0.99036863 0 0 0 -11,12 l -4,0 A 0.99036863,0.99036863 0 0 0 -15.09375,12 0.99036863,0.99036863 0 0 0 -16,13 l 0,3 -1,0 a 0.99036863,0.99036863 0 0 0 -0.6875,1.6875 l 1.75,1.75 C -16.894642,19.784374 -17.923098,20 -19,20 c -4.970563,0 -9,-4.029437 -9,-9 0,-4.970563 4.029437,-9 9,-9 z m 0,6 c -1.656854,0 -3,1.343146 -3,3 0,1.656854 1.343146,3 3,3 1.656854,0 3,-1.343146 3,-3 0,-1.656854 -1.343146,-3 -3,-3 z m 4,5 4,0 0,4 2,0 -4,4 -4,-4 2,0 0,-4 z"
         id="path3755"
         inkscape:connector-curvature="0" />
    </clipPath>
    <linearGradient
       inkscape:collect="always"
       xlink:href="#StandardGradient"
       id="linearGradient4026"
       gradientUnits="userSpaceOnUse"
       x1="12"
       y1="2"
       x2="12"
       y2="21" />
    <linearGradient
       inkscape:collect="always"
       xlink:href="#StandardGradient"
       id="linearGradient4030"
       gradientUnits="userSpaceOnUse"
       x1="12"
       y1="2"
       x2="12"
       y2="21" />
    <radialGradient
       inkscape:collect="always"
       xlink:href="#linearGradient4208"
       id="radialGradient4206"
       cx="11"
       cy="14"
       fx="11"
       fy="14"
       r="9.5"
       gradientUnits="userSpaceOnUse"
       gradientTransform="matrix(1.7894737,-3.7396124e-8,2.6397264e-8,1.2631579,-7.6842109,-4.6842101)" />
  </defs>
  <metadata
     id="metadata7">
    <rdf:RDF>
      <cc:Work
         rdf:about="">
        <dc:format>image/svg+xml</dc:format>
        <dc:type
           rdf:resource="http://purl.org/dc/dcmitype/StillImage" />
        <dc:title></dc:title>
      </cc:Work>
    </rdf:RDF>
  </metadata>
  <g
     style="display:inline"
     inkscape:label="Calque 1"
     id="layer1"
     inkscape:groupmode="layer"
     transform="translate(0,2)">
    <path
       style="opacity:0.05;fill:#ffffff;fill-opacity:1;stroke:none"
       d="M 12,0 C 6.4887077,0 2,4.4887077 2,10 c 0,5.511292 4.4887077,10 10,10 1.210459,0 2.358131,-0.245155 3.40625,-0.625 A 1.0006353,1.0006353 0 0 0 15.75,19.1875 l 1.53125,1.53125 a 1.0006353,1.0006353 0 0 0 1.4375,0 l 4,-4 A 1.0006353,1.0006353 0 0 0 22,15 l -1,0 0,-3 A 1.0006353,1.0006353 0 0 0 20.875,11.5 0.99036863,0.99036863 0 0 0 20.84375,11.4375 1.0006353,1.0006353 0 0 0 20.75,11.34375 0.99036863,0.99036863 0 0 0 20.71875,11.28125 1.0006353,1.0006353 0 0 0 20.65625,11.21875 0.99036863,0.99036863 0 0 0 20.625,11.1875 1.0006353,1.0006353 0 0 0 20.46875,11.125 0.99036863,0.99036863 0 0 0 20.4375,11.09375 a 1.0006353,1.0006353 0 0 0 -0.15625,-0.0625 0.99036863,0.99036863 0 0 0 -0.03125,0 1.0006353,1.0006353 0 0 0 -0.0625,0 A 0.99036863,0.99036863 0 0 0 20.15625,11 1.0006353,1.0006353 0 0 0 20.09375,11 0.99036863,0.99036863 0 0 0 20,11 l -4,0 a 0.99036863,0.99036863 0 0 0 -0.09375,0 0.99036863,0.99036863 0 0 0 -0.375,0.125 1.0006353,1.0006353 0 0 0 -0.09375,0.03125 0.99036863,0.99036863 0 0 0 -0.21875,0.1875 1.0006353,1.0006353 0 0 0 0,0.03125 0.99036863,0.99036863 0 0 0 -0.1875,0.34375 A 0.99036863,0.99036863 0 0 0 15,11.90625 1.0006353,1.0006353 0 0 0 15,12 l 0,3 -1,0 a 0.99036863,0.99036863 0 0 0 -0.6875,1.6875 l 1.75,1.75 C 14.105358,18.784374 13.076902,19 12,19 7.029437,19 3,14.970563 3,10 3,5.029437 7.029437,1 12,1 c 4.970563,0 9,4.029437 9,9 0,0.08547 0.0023,0.165452 0,0.25 9.59e-4,5.48e-4 0.12408,0.09314 0.125,0.09375 9.2e-4,6.11e-4 0.09287,0.06183 0.09375,0.0625 8.78e-4,6.71e-4 0.09292,0.09302 0.09375,0.09375 8.31e-4,7.28e-4 0.124219,0.09297 0.125,0.09375 7.81e-4,7.82e-4 0.06177,0.09292 0.0625,0.09375 7.27e-4,8.32e-4 0.09308,0.09287 0.09375,0.09375 6.7e-4,8.79e-4 0.09314,0.124079 0.09375,0.125 6.1e-4,9.21e-4 0.06195,0.09279 0.0625,0.09375 l -0.875,0.5 1,0.15625 C 21.966761,11.112135 22,10.568669 22,10 22,4.4887077 17.511292,0 12,0 Z m 0,7 c -1.656854,0 -3,1.343146 -3,3 0,1.656854 1.343146,3 3,3 0.884468,0 1.669676,-0.391094 2.21875,-1 L 14,12 c -1.4e-5,-10e-4 -8.1e-5,-0.18649 0,-0.1875 8.1e-5,-10e-4 0.03107,-0.155252 0.03125,-0.15625 1.75e-4,-9.98e-4 0.03098,-0.186523 0.03125,-0.1875 2.68e-4,-9.77e-4 0.06214,-0.186552 0.0625,-0.1875 3.58e-4,-9.48e-4 0.06206,-0.15534 0.0625,-0.15625 4.45e-4,-9.1e-4 0.09322,-0.186636 0.09375,-0.1875 5.29e-4,-8.64e-4 0.124393,-0.155439 0.125,-0.15625 6.07e-4,-8.11e-4 0.09307,-0.124249 0.09375,-0.125 6.8e-4,-7.51e-4 0.155502,-0.124316 0.15625,-0.125 7.48e-4,-6.84e-4 0.124192,-0.124389 0.125,-0.125 8.08e-4,-6.11e-4 0.155388,-0.124467 0.15625,-0.125 2.03e-4,-1.25e-4 0.01804,-0.02332 0.03125,-0.03125 C 14.976071,10.164514 15,10.087382 15,10 15,8.343146 13.656854,7 12,7 Z m 0,1 c 1.116124,0 2,0.8838756 2,2 0,1.116124 -0.883876,2 -2,2 -1.116124,0 -2,-0.883876 -2,-2 0,-1.1161244 0.883876,-2 2,-2 z m 4,4 4,0 0,4 2,0 -4,4 -4,-4 2,0 0,-4 z"
       id="path4028"
       inkscape:connector-curvature="0" />
    <path
       style="fill:url(#radialGradient4206);fill-opacity:1;stroke:none"
       d="m 12,1 c -4.970563,0 -9,4.029437 -9,9 0,4.970563 4.029437,9 9,9 1.076902,0 2.105358,-0.215626 3.0625,-0.5625 l -1.75,-1.75 A 0.99036863,0.99036863 0 0 1 14,15 l 1,0 0,-3 A 0.99036863,0.99036863 0 0 1 15.90625,11 0.99036863,0.99036863 0 0 1 16,11 l 4,0 a 0.99036863,0.99036863 0 0 1 0.875,0.5 C 20.957667,11.009812 21,10.513701 21,10 21,5.029437 16.970563,1 12,1 Z m 0,6 c 1.656854,0 3,1.343146 3,3 0,1.656854 -1.343146,3 -3,3 -1.656854,0 -3,-1.343146 -3,-3 0,-1.656854 1.343146,-3 3,-3 z m 4,5 0,4 -2,0 4,4 4,-4 -2,0 0,-4 -4,0 z"
       id="path2917"
       inkscape:connector-curvature="0" />
    <path
       style="opacity:0.3;fill:#000000;fill-opacity:1;stroke:none"
       d="M 12,1 C 7.029437,1 3,5.029437 3,10 3,10.171564 3.021776,10.330805 3.03125,10.5 3.2962571,5.7672788 7.2010011,2 12,2 16.777599,2 20.672513,5.7346089 20.96875,10.4375 20.975921,10.290195 21,10.150015 21,10 21,5.029437 16.970563,1 12,1 Z M 9.0625,10.5 C 9.0338206,10.666575 9,10.825236 9,11 c 0,1.656854 1.343146,3 3,3 1.656854,0 3,-1.343146 3,-3 0,-0.174764 -0.03382,-0.333425 -0.0625,-0.5 C 14.694284,11.912646 13.48209,13 12,13 10.51791,13 9.3057158,11.912646 9.0625,10.5 Z M 16,12 l 0,1 4,0 0,-1 -4,0 z m -2,4 1,1 1,0 0,-1 -1,0 -1,0 z m 6,0 0,1 1,0 1,-1 -2,0 z m -6.84375,0.5 a 0.99036863,0.99036863 0 0 0 0.15625,1.1875 l 0.96875,0.96875 c 0.267255,-0.07266 0.523864,-0.125472 0.78125,-0.21875 l -1.75,-1.75 A 0.99036863,0.99036863 0 0 1 13.15625,16.5 Z"
       id="path3726"
       inkscape:connector-curvature="0" />
    <path
       style="opacity:0.2;fill:#ffffff;fill-opacity:1;stroke:none"
       d="M 12,7 C 10.343146,7 9,8.343146 9,10 9,10.174764 9.033821,10.333425 9.0625,10.5 9.3057158,9.087354 10.51791,8 12,8 13.48209,8 14.694284,9.087354 14.9375,10.5 14.966179,10.333425 15,10.174764 15,10 15,8.343146 13.656854,7 12,7 Z m 8.96875,3.4375 C 20.951366,10.794617 20.933526,11.15296 20.875,11.5 A 0.99036863,0.99036863 0 0 0 20,11 l -4,0 A 0.99036863,0.99036863 0 0 0 15.90625,11 0.99036863,0.99036863 0 0 0 15,12 l 0,0.90625 A 0.99036863,0.99036863 0 0 1 15.90625,12 0.99036863,0.99036863 0 0 1 16,12 l 4,0 a 0.99036863,0.99036863 0 0 1 0.875,0.5 C 20.957667,12.009812 21,11.513701 21,11 21,10.807036 20.980715,10.627446 20.96875,10.4375 Z M 3.03125,10.5 C 3.021776,10.669195 3,10.828436 3,11 c 0,4.970563 4.029437,9 9,9 1.076902,0 2.105358,-0.215626 3.0625,-0.5625 L 14.28125,18.65625 C 13.554662,18.853779 12.787311,19 12,19 7.2010011,19 3.2962571,15.232721 3.03125,10.5 Z M 13.875,15 A 0.99036863,0.99036863 0 0 0 13.15625,16.5 0.99036863,0.99036863 0 0 1 14,16 l 1,0 0,-1 -1,0 a 0.99036863,0.99036863 0 0 0 -0.125,0 z m 0.125,2 4,4 4,-4 -1,0 -3,3 -3,-3 -1,0 z"
       id="path3735"
       inkscape:connector-curvature="0" />
    <path
       style="color:#000000;font-style:normal;font-variant:normal;font-weight:normal;font-stretch:normal;font-size:medium;line-height:normal;font-family:sans-serif;text-indent:0;text-align:start;text-decoration:none;text-decoration-line:none;text-decoration-style:solid;text-decoration-color:#000000;letter-spacing:normal;word-spacing:normal;text-transform:none;direction:ltr;block-progression:tb;writing-mode:lr-tb;baseline-shift:baseline;text-anchor:start;white-space:normal;clip-rule:nonzero;display:inline;overflow:visible;visibility:visible;opacity:0.3;isolation:auto;mix-blend-mode:normal;color-interpolation:sRGB;color-interpolation-filters:linearRGB;solid-color:#000000;solid-opacity:1;fill:#000000;fill-opacity:1;fill-rule:nonzero;stroke:none;stroke-width:1.20000005;stroke-linecap:butt;stroke-linejoin:miter;stroke-miterlimit:4;stroke-dasharray:none;stroke-dashoffset:0;stroke-opacity:1;color-rendering:auto;image-rendering:auto;shape-rendering:auto;text-rendering:auto;enable-background:accumulate"
       d="m 12,1 c -4.970563,0 -9,4.029437 -9,9 0,4.970563 4.029437,9 9,9 1.076902,0 2.105358,-0.215626 3.0625,-0.5625 l -1.75,-1.75 A 0.99036863,0.99036863 0 0 1 14,15 l 1,0 0,-3 A 0.99036863,0.99036863 0 0 1 15.90625,11 0.99036863,0.99036863 0 0 1 16,11 l 4,0 a 0.99036863,0.99036863 0 0 1 0.875,0.5 C 20.95767,11.009812 21,10.513701 21,10 21,5.029437 16.970563,1 12,1 Z m 0,0.5996094 c 4.646299,0 8.400391,3.7540916 8.400391,8.4003906 0,0.207855 -0.03617,0.403519 -0.05078,0.605469 -0.138842,-0.03696 -0.210007,-0.207236 -0.357421,-0.205078 l -3.962891,0 c -0.05015,-0.0024 -0.10219,-0.0024 -0.152344,0 l -0.0098,0 -0.01172,0.002 c -0.148548,0.01265 -0.241137,0.134663 -0.375,0.185547 0.03431,-0.198756 0.11914,-0.379674 0.11914,-0.587891 0,-1.981118 -1.618491,-3.5996094 -3.599609,-3.5996094 -1.981118,0 -3.599609,1.6184914 -3.599609,3.5996094 0,1.981118 1.618491,3.599609 3.599609,3.599609 0.92899,0 1.760276,-0.378565 2.400391,-0.960937 l 0,1.761719 -0.404297,0 -0.0059,0 c -0.676162,0.0108 -1.2258,0.446638 -1.447265,0.990234 -0.221465,0.543596 -0.132355,1.238504 0.34375,1.71875 l 0,0.002 0.951172,0.949219 C 13.233114,18.206406 12.641188,18.400391 12,18.400391 7.353701,18.400391 3.599609,14.646299 3.599609,10 3.599609,5.353701 7.353701,1.5996094 12,1.5996094 Z M 12,7 c 1.656854,0 3,1.343146 3,3 0,1.656854 -1.343146,3 -3,3 -1.656854,0 -3,-1.343146 -3,-3 0,-1.656854 1.343146,-3 3,-3 z m 4,5 0,4 -2,0 4,4 4,-4 -2,0 0,-4 -4,0 z m 0.599609,0.599609 2.800782,0 0,4 1.152343,0 L 18,19.152344 l -2.552734,-2.552735 1.152343,0 0,-4 z"
       id="path2917-3"
       inkscape:connector-curvature="0" />
  </g>
</svg>
