<?xml version="1.0" encoding="UTF-8" standalone="no"?>
<!-- Created with Inkscape (http://www.inkscape.org/) -->

<svg
   xmlns:dc="http://purl.org/dc/elements/1.1/"
   xmlns:cc="http://creativecommons.org/ns#"
   xmlns:rdf="http://www.w3.org/1999/02/22-rdf-syntax-ns#"
   xmlns:svg="http://www.w3.org/2000/svg"
   xmlns="http://www.w3.org/2000/svg"
   xmlns:xlink="http://www.w3.org/1999/xlink"
   xmlns:sodipodi="http://sodipodi.sourceforge.net/DTD/sodipodi-0.dtd"
   xmlns:inkscape="http://www.inkscape.org/namespaces/inkscape"
   width="24"
   height="24"
   id="svg2"
   sodipodi:version="0.32"
   inkscape:version="0.91 r13725"
   version="1.0"
   sodipodi:docname="object-rotate-left.svg"
   inkscape:output_extension="org.inkscape.output.svg.inkscape"
   inkscape:export-filename="/home/matt/.icons/Sirocco/scalable/mimetypes/text-plain.png"
   inkscape:export-xdpi="90"
   inkscape:export-ydpi="90"
   sodipodi:modified="true"
   style="display:inline">
  <sodipodi:namedview
     id="base"
     pagecolor="#838383"
     bordercolor="#cc0000"
     borderopacity="1"
     inkscape:pageopacity="1"
     inkscape:pageshadow="2"
     inkscape:zoom="22.027846"
     inkscape:cx="-10.403445"
     inkscape:cy="11.337104"
     inkscape:document-units="px"
     inkscape:current-layer="layer1"
     width="128px"
     height="128px"
     inkscape:showpageshadow="false"
     inkscape:window-width="1366"
     inkscape:window-height="718"
     inkscape:window-x="0"
     inkscape:window-y="25"
     showguides="true"
     inkscape:guide-bbox="true"
     showgrid="true"
     inkscape:window-maximized="1"
     borderlayer="true"
     inkscape:snap-global="true">
    <inkscape:grid
       enabled="true"
       visible="true"
       id="grid3231"
       type="xygrid"
       empspacing="8"
       snapvisiblegridlinesonly="true" />
    <sodipodi:guide
       orientation="1,0"
       position="12,1"
       id="guide3791" />
    <sodipodi:guide
       orientation="0,1"
       position="14,9"
       id="guide3793" />
  </sodipodi:namedview>
  <defs
     id="defs4">
    <linearGradient
       id="StandardGradient"
       gradientTransform="scale(0.9219544,1.0846523)"
       x1="11.998966"
       y1="0.92195445"
       x2="11.998966"
       y2="19.387045"
       gradientUnits="userSpaceOnUse">
      <stop
         style="stop-color:#000000;stop-opacity:0.23529412;"
         offset="0"
         id="stop3283" />
      <stop
         id="stop3850"
         offset="0.69999999"
         style="stop-color:#000000;stop-opacity:0.39215686;" />
      <stop
         style="stop-color:#000000;stop-opacity:0.55;"
         offset="1"
         id="stop2651" />
    </linearGradient>
    <radialGradient
       inkscape:collect="always"
       xlink:href="#StandardGradient"
       id="radialGradient3868"
       cx="12"
       cy="12.65625"
       fx="12"
       fy="12.65625"
       r="7.453125"
       gradientTransform="matrix(2.1467505,1.877984e-7,-1.056366e-7,1.2075472,-12.760507,-3.2832715)"
       gradientUnits="userSpaceOnUse" />
  </defs>
  <metadata
     id="metadata7">
    <rdf:RDF>
      <cc:Work
         rdf:about="">
        <dc:format>image/svg+xml</dc:format>
        <dc:type
           rdf:resource="http://purl.org/dc/dcmitype/StillImage" />
        <dc:title></dc:title>
      </cc:Work>
    </rdf:RDF>
  </metadata>
  <g
     style="display:inline"
     inkscape:label="Calque 1"
     id="layer1"
     inkscape:groupmode="layer"
     transform="translate(0,2)">
    <path
       inkscape:connector-curvature="0"
       style="display:inline;opacity:0.05;fill:#ffffff;fill-opacity:1;stroke:none"
       d="m 12.875499,-0.03149982 a 1.0204513,1.0204513 0 0 0 -0.4375,0.18750002 l -5.0312502,3.4375 a 1.0204513,1.0204513 0 0 0 -0.03125,1.6875 l 4.0937502,2.90625 C 10.097177,8.4698201 8.9692488,9.549645 8.9692488,10.99975 c 0,1.656007 1.3752432,3.03125 3.0312502,3.03125 1.656007,0 3.03125,-1.375243 3.03125,-3.03125 0,-0.983908 -0.574234,-1.728243 -1.3125,-2.2812498 a 1.0204513,1.0204513 0 0 0 0.3125,-0.71875 l 0,-0.625 c 1.223679,0.67589 2.226807,1.6970238 2.375,3.1562498 0.0043,0.0421 -0.03125,0.21434 -0.03125,0.46875 0,2.435187 -1.912993,4.358143 -4.34375,4.375 -0.01177,-2.38e-4 -0.01955,3e-4 -0.03125,0 -1.791263,-0.04592 -2.8360405,-0.799604 -3.9062502,-2.25 a 1.0204513,1.0204513 0 0 0 -1.34375,-0.28125 l -2.1875,1.28125 a 1.0204513,1.0204513 0 0 0 -0.34375,1.375 c 1.612445,2.832182 4.2152431,4.53125 7.7812502,4.53125 4.969716,0 9.03125,-4.061534 9.03125,-9.03125 0,-4.2552775 -3.021928,-7.714985 -7,-8.6562498 l 0,-1.34375 a 1.0204513,1.0204513 0 0 0 -1.0625,-1.03125002 1.0204513,1.0204513 0 0 0 -0.09375,0 z m 0.125,1.03125002 0,2.0625 c 3.944443,0.4938109 7,3.8592123 7,7.9374998 0,4.418278 -3.581722,8 -8,8 -3.2751754,0 -5.4261596,-1.400292 -6.9062502,-4 l 2.1875,-1.28125 c 1.1803572,1.599673 2.5822221,2.64436 4.7187502,2.6875 2.993955,0 5.40625,-2.412295 5.40625,-5.40625 0,-0.187122 0.01851,-0.380261 0,-0.5625 -0.243953,-2.4021608 -2.06322,-4.3195582 -4.40625,-4.7499998 l 0,2.3125 -5.0312502,-3.5625 5.0312502,-3.4375 z m -1,7.9999998 c 1.104569,0 2,0.895431 2,2 0,1.104569 -0.895431,2 -2,2 -1.104569,0 -2,-0.895431 -2,-2 0,-1.104569 0.895431,-2 2,-2 z"
       id="path5038" />
    <path
       inkscape:connector-curvature="0"
       style="display:inline;fill:url(#radialGradient3868);fill-opacity:1;stroke:none"
       d="m 13.000499,0.9997502 -5.0312502,3.4375 5.0312502,3.5625 0,-2.3125 c 2.34303,0.4304416 4.162297,2.347839 4.40625,4.7499998 0.01851,0.182239 0,0.375378 0,0.5625 0,2.993955 -2.412295,5.40625 -5.40625,5.40625 C 9.8639709,16.36286 8.462106,15.318173 7.2817488,13.7185 l -2.1875,1.28125 c 1.4800906,2.599708 3.6310748,4 6.9062502,4 4.418278,0 8,-3.581722 8,-8 0,-4.0782875 -3.055557,-7.4436889 -7,-7.9374998 l 0,-2.0625 z m -1,7.9999998 c -1.104569,0 -2,0.895431 -2,2 0,1.104569 0.895431,2 2,2 1.104569,0 2,-0.895431 2,-2 0,-1.104569 -0.895431,-2 -2,-2 z"
       id="path2856"
       sodipodi:nodetypes="ccccssccccscccsssc" />
    <path
       inkscape:connector-curvature="0"
       style="display:inline;opacity:0.2;fill:#ffffff;fill-opacity:1;stroke:none"
       d="m 8.6879988,4.9372502 -0.71875,0.5 5.0312502,3.5624998 0,-0.9999998 -4.3125002,-3.0625 z m 4.3125002,0.75 0,1 c 2.31081,0.4245224 4.091868,2.3004585 4.375,4.6562498 0.007,-0.11277 0.03125,-0.229174 0.03125,-0.34375 0,-0.187122 0.01851,-0.380261 0,-0.5625 -0.243953,-2.4021608 -2.06322,-4.3195582 -4.40625,-4.7499998 z m -2.9375,5.8124998 c -0.0411,0.159759 -0.0625,0.327411 -0.0625,0.5 0,1.104569 0.895431,2 2,2 1.104569,0 2,-0.895431 2,-2 0,-0.172589 -0.0214,-0.340241 -0.0625,-0.5 -0.221963,0.862699 -1.00552,1.5 -1.9375,1.5 -0.93198,0 -1.715537,-0.637301 -1.9375,-1.5 z m 9.90625,0.03125 c -0.276581,4.167551 -3.731168,7.46875 -7.96875,7.46875 -2.9509276,0 -4.9802501,-1.154668 -6.4375002,-3.28125 l -0.46875,0.28125 c 1.4800906,2.599708 3.6310748,4 6.9062502,4 4.418278,0 8,-3.581722 8,-8 0,-0.159474 -0.02203,-0.311585 -0.03125,-0.46875 z"
       id="path3688" />
    <path
       style="display:inline;opacity:0.3;fill:#000000;fill-opacity:1;stroke:none"
       d="m 13.000499,0.99975 -5.0312502,3.4375 5.0312502,3.5625 0,-2.3125 c 2.34303,0.4304416 4.162297,2.3478392 4.40625,4.75 0.01851,0.182239 0,0.375378 0,0.5625 0,2.993955 -2.412295,5.40625 -5.40625,5.40625 C 9.8639708,16.36286 8.4621058,15.318173 7.2817488,13.7185 l -2.1875,1.28125 c 1.480091,2.599708 3.631075,4 6.9062502,4 4.418278,0 8,-3.581722 8,-8 0,-4.0782875 -3.055557,-7.4436891 -7,-7.9375 l 0,-2.0625 z m -0.46875,0.875 0,1.1875 a 0.45401625,0.45401625 0 0 0 0.40625,0.4375 c 3.720852,0.4658192 6.59375,3.6484635 6.59375,7.5 0,4.172934 -3.358316,7.53125 -7.53125,7.53125 -2.9681392,0 -4.8512222,-1.150054 -6.2500002,-3.375 l 1.4375,-0.84375 c 1.186727,1.47833 2.691322,2.51967 4.8125002,2.5625 3.237804,0 5.875,-2.637196 5.875,-5.875 0,-0.157184 -0.0064,-0.34916 -0.03125,-0.59375 -0.264422,-2.6037104 -2.212405,-4.6900645 -4.75,-5.15625 a 0.45401625,0.45401625 0 0 0 -0.5625,0.4375 l 0,1.4375 -3.7812502,-2.6875 3.7812502,-2.5625 z m -0.53125,7.125 c -1.104569,0 -2,0.895431 -2,2 0,1.104569 0.895431,2 2,2 1.104569,0 2,-0.895431 2,-2 0,-1.104569 -0.895431,-2 -2,-2 z m 0,0.46875 c 0.859225,0 1.53125,0.672025 1.53125,1.53125 0,0.859225 -0.672025,1.53125 -1.53125,1.53125 -0.859225,0 -1.53125,-0.672025 -1.53125,-1.53125 0,-0.859225 0.672025,-1.53125 1.53125,-1.53125 z"
       id="path3883"
       inkscape:connector-curvature="0" />
    <path
       inkscape:connector-curvature="0"
       style="display:inline;opacity:0.3;fill:#000000;fill-opacity:1;stroke:none"
       d="m 13.000499,0.9997502 -5.0312502,3.4375 0.71875,0.5 4.3125002,-2.9375 0,-1 z m 0,2.0625 0,1 c 3.790203,0.4745014 6.742314,3.6066798 6.96875,7.4687498 0.01179,-0.17771 0.03125,-0.350554 0.03125,-0.53125 0,-4.0782875 -3.055557,-7.4436889 -7,-7.9374998 z m -1,5.9374998 c -1.104569,0 -2,0.895431 -2,2 0,0.172589 0.0214,0.340241 0.0625,0.5 0.221963,-0.862699 1.00552,-1.5 1.9375,-1.5 0.93198,0 1.715537,0.637301 1.9375,1.5 0.0411,-0.159759 0.0625,-0.327411 0.0625,-0.5 0,-1.104569 -0.895431,-2 -2,-2 z m 5.375,2.34375 c -0.174989,2.833985 -2.495621,5.0625 -5.375,5.0625 C 9.8639709,16.36286 8.462106,15.318173 7.2817488,13.7185 l -2.1875,1.28125 c 0.1465314,0.257375 0.3086274,0.485081 0.46875,0.71875 l 1.71875,-1 c 1.1803572,1.599673 2.5822221,2.64436 4.7187502,2.6875 2.993955,0 5.40625,-2.412295 5.40625,-5.40625 0,-0.187122 0.01851,-0.380261 0,-0.5625 -0.0034,-0.03303 -0.0273,-0.0609 -0.03125,-0.09375 z"
       id="path3679" />
  </g>
</svg>
