<?xml version="1.0" encoding="UTF-8" standalone="no"?>
<!-- Created with Inkscape (http://www.inkscape.org/) -->

<svg
   xmlns:dc="http://purl.org/dc/elements/1.1/"
   xmlns:cc="http://creativecommons.org/ns#"
   xmlns:rdf="http://www.w3.org/1999/02/22-rdf-syntax-ns#"
   xmlns:svg="http://www.w3.org/2000/svg"
   xmlns="http://www.w3.org/2000/svg"
   xmlns:xlink="http://www.w3.org/1999/xlink"
   xmlns:sodipodi="http://sodipodi.sourceforge.net/DTD/sodipodi-0.dtd"
   xmlns:inkscape="http://www.inkscape.org/namespaces/inkscape"
   width="24"
   height="24"
   id="svg2"
   sodipodi:version="0.32"
   inkscape:version="0.91 r13725"
   version="1.0"
   sodipodi:docname="system-upgrade.svg"
   inkscape:output_extension="org.inkscape.output.svg.inkscape"
   inkscape:export-filename="/home/matt/.icons/Sirocco/scalable/mimetypes/text-plain.png"
   inkscape:export-xdpi="90"
   inkscape:export-ydpi="90"
   sodipodi:modified="true"
   style="display:inline">
  <sodipodi:namedview
     id="base"
     pagecolor="#838383"
     bordercolor="#cc0000"
     borderopacity="1"
     inkscape:pageopacity="1"
     inkscape:pageshadow="2"
     inkscape:zoom="7.811293"
     inkscape:cx="1.907985"
     inkscape:cy="28.067619"
     inkscape:document-units="px"
     inkscape:current-layer="layer1"
     width="128px"
     height="128px"
     inkscape:showpageshadow="false"
     inkscape:window-width="1366"
     inkscape:window-height="718"
     inkscape:window-x="0"
     inkscape:window-y="25"
     showguides="true"
     inkscape:guide-bbox="true"
     showgrid="true"
     inkscape:window-maximized="1"
     borderlayer="true"
     inkscape:snap-global="true">
    <inkscape:grid
       enabled="true"
       visible="true"
       id="grid3231"
       type="xygrid"
       empspacing="8"
       snapvisiblegridlinesonly="true" />
    <sodipodi:guide
       orientation="1,0"
       position="12,2"
       id="guide3791" />
    <sodipodi:guide
       orientation="0,1"
       position="14,9"
       id="guide3793" />
  </sodipodi:namedview>
  <defs
     id="defs4">
    <linearGradient
       id="StandardGradient"
       gradientTransform="scale(0.9219544,1.0846523)"
       x1="11.998966"
       y1="0.92195445"
       x2="11.998966"
       y2="19.387045"
       gradientUnits="userSpaceOnUse">
      <stop
         style="stop-color:#000000;stop-opacity:0.23529412;"
         offset="0"
         id="stop3283" />
      <stop
         id="stop3850"
         offset="0.69999999"
         style="stop-color:#000000;stop-opacity:0.39215686;" />
      <stop
         style="stop-color:#000000;stop-opacity:0.55;"
         offset="1"
         id="stop2651" />
    </linearGradient>
    <radialGradient
       inkscape:collect="always"
       xlink:href="#StandardGradient"
       id="radialGradient3857"
       cx="12"
       cy="12.447369"
       fx="12"
       fy="12.447369"
       r="6"
       gradientTransform="matrix(2.6666667,-9.1385016e-8,5.7115635e-8,1.6666667,-50.000001,-7.7456132)"
       gradientUnits="userSpaceOnUse" />
    <linearGradient
       id="StandardGradient-9">
      <stop
         style="stop-color:#000000;stop-opacity:0.86274511;"
         offset="0"
         id="stop3389-8" />
      <stop
         style="stop-color:#000000;stop-opacity:0.47058824;"
         offset="1"
         id="stop3391-3" />
    </linearGradient>
    <radialGradient
       inkscape:collect="always"
       xlink:href="#StandardGradient"
       id="radialGradient3868"
       cx="12"
       cy="13"
       fx="12"
       fy="13"
       r="9"
       gradientUnits="userSpaceOnUse"
       gradientTransform="matrix(1.7777778,1.1111111e-8,0,1.1111111,-8.3335832,-2.4444445)" />
    <radialGradient
       inkscape:collect="always"
       xlink:href="#StandardGradient"
       id="radialGradient3874"
       gradientUnits="userSpaceOnUse"
       gradientTransform="matrix(1.7777778,1.1111111e-8,0,1.1111111,-9.3333332,-1.4444445)"
       cx="12"
       cy="13"
       fx="12"
       fy="13"
       r="9" />
    <radialGradient
       inkscape:collect="always"
       xlink:href="#StandardGradient"
       id="radialGradient3878"
       gradientUnits="userSpaceOnUse"
       gradientTransform="matrix(1.7777778,1.1111111e-8,0,1.1111111,-9.3333332,-1.4444445)"
       cx="12"
       cy="13"
       fx="12"
       fy="13"
       r="9" />
    <radialGradient
       inkscape:collect="always"
       xlink:href="#StandardGradient"
       id="radialGradient3880"
       gradientUnits="userSpaceOnUse"
       gradientTransform="matrix(1.7777778,1.1111111e-8,0,1.1111111,-9.3333332,-1.4444445)"
       cx="12"
       cy="13"
       fx="12"
       fy="13"
       r="9" />
  </defs>
  <metadata
     id="metadata7">
    <rdf:RDF>
      <cc:Work
         rdf:about="">
        <dc:format>image/svg+xml</dc:format>
        <dc:type
           rdf:resource="http://purl.org/dc/dcmitype/StillImage" />
        <dc:title></dc:title>
      </cc:Work>
    </rdf:RDF>
  </metadata>
  <g
     style="display:inline"
     inkscape:label="Calque 1"
     id="layer1"
     inkscape:groupmode="layer"
     transform="translate(0,2)">
    <path
       style="display:block;overflow:visible;visibility:visible;opacity:0.05;fill:#ffffff;fill-opacity:1;fill-rule:nonzero;stroke:none;stroke-width:1;marker:none;enable-background:accumulate"
       d="m 10.74975,19.96875 c -0.8963488,0 -1.59375,-0.777084 -1.59375,-1.625 l 0,-0.625 c -0.2103195,-0.07254 -0.4177741,-0.15921 -0.625,-0.25 l -0.4375,0.4375 c -0.2269694,0.226958 -0.6108523,0.495649 -1.125,0.5 -0.4204825,0.0036 -0.8463774,-0.190146 -1.125,-0.46875 L 4.06225,16.15625 c -0.6138348,-0.613839 -0.5321439,-1.686571 0.03125,-2.25 l 0.4375,-0.4375 c -0.09079,-0.207226 -0.1774627,-0.414681 -0.25,-0.625 l -0.625,0 c -0.8479194,0 -1.625,-0.697401 -1.625,-1.59375 l 0,-2.5 c 0,-0.896351 0.7770789,-1.59375 1.625,-1.59375 l 0.625,0 C 4.353538,6.945931 4.4402107,6.738475 4.531,6.53125 L 4.0935,6.09375 C 3.5300849,5.530334 3.4483738,4.457577 4.06225,3.84375 L 5.8435,2.0625 c 0.613829,-0.613833 1.6865661,-0.532177 2.25,0.03125 l 0.4375,0.4375 c 0.2072258,-0.09079 0.4146807,-0.177462 0.625,-0.25 l 0,-0.625 c 0,-0.847916 0.6974016,-1.625 1.59375,-1.625 l 2.5,0 c 0.896349,0 1.59375,0.777083 1.59375,1.625 l 0,0.625 c 0.210319,0.072538 0.417774,0.15921 0.625,0.25 l 0.4375,-0.4375 c 0.563425,-0.563427 1.636169,-0.645108 2.25,-0.03125 l 1.78125,1.78125 c 0.613848,0.613856 0.532101,1.686578 -0.03125,2.25 l -0.4375,0.4375 c 0.09079,0.207226 0.177462,0.41468 0.25,0.625 l 0.625,0 c 0.847947,-1.9e-5 1.625,0.697393 1.625,1.59375 l 0,2.5 c 0,0.896358 -0.777076,1.59375 -1.625,1.59375 l -0.625,0 c -0.07254,0.210319 -0.15921,0.417775 -0.25,0.625 l 0.4375,0.4375 c 0.563401,0.563406 0.645155,1.636168 0.03125,2.25 L 18.156,17.9375 c -0.613852,0.613833 -1.686582,0.532093 -2.25,-0.03125 l -0.4375,-0.4375 c -0.207226,0.09079 -0.414681,0.177462 -0.625,0.25 l 0,0.625 c 0,0.847922 -0.697404,1.625 -1.59375,1.625 l -2.5,0 z m 0,-0.96875 2.5,0 c 0.354191,0 0.625,-0.296001 0.625,-0.65625 l 0,-1.28125 c 0.633321,-0.168742 1.258817,-0.396731 1.8125,-0.71875 l 0.90625,0.875 c 0.254734,0.2547 0.624543,0.281699 0.875,0.03125 l 1.78125,-1.78125 c 0.250482,-0.250452 0.22348,-0.620268 -0.03125,-0.875 l -0.875,-0.90625 c 0.322016,-0.553684 0.550009,-1.17918 0.71875,-1.8125 l 1.28125,0 c 0.360243,0 0.65625,-0.270809 0.65625,-0.625 l 0,-2.5 c 0,-0.354193 -0.296007,-0.625008 -0.65625,-0.625 l -1.28125,0 C 18.893509,7.491678 18.665516,6.866181 18.3435,6.3125 l 0.875,-0.90625 c 0.2547,-0.254732 0.2817,-0.624547 0.03125,-0.875 L 17.4685,2.75 C 17.218048,2.499537 16.84823,2.526519 16.5935,2.78125 l -0.90625,0.875 C 15.133568,3.334233 14.508071,3.106242 13.87475,2.9375 l 0,-1.28125 C 13.87475,1.296003 13.603944,1 13.24975,1 l -2.5,0 c -0.354195,0 -0.625,0.296003 -0.625,0.65625 l 0,1.28125 C 9.4914299,3.106242 8.8659328,3.334233 8.31225,3.65625 L 7.406,2.78125 C 7.1512668,2.52652 6.7814502,2.499548 6.531,2.75 L 4.74975,4.53125 C 4.4992781,4.781702 4.5262672,5.151517 4.781,5.40625 L 5.656,6.3125 C 5.3339849,6.866181 5.1059952,7.491678 4.93725,8.125 l -1.28125,0 c -0.3602467,0 -0.65625,0.270808 -0.65625,0.625 l 0,2.5 c 0,0.354193 0.2960025,0.625 0.65625,0.625 l 1.28125,0 c 0.1687451,0.633321 0.39673,1.258817 0.71875,1.8125 l -0.875,0.90625 c -0.2547176,0.254733 -0.2817003,0.624548 -0.03125,0.875 L 6.531,17.25 c 0.1252255,0.125217 0.2726745,0.188914 0.4375,0.1875 0.1648258,-0.0014 0.3101308,-0.09139 0.4375,-0.21875 l 0.90625,-0.875 c 0.5536828,0.322017 1.1791798,0.550009 1.8125,0.71875 l 0,1.28125 c 0,0.360247 0.270805,0.65625 0.625,0.65625 z m -1.75,-5 0,-4 -2,0 5,-5 5,5 -2,0 0,4 -6,0 z m 0.96875,-0.96875 4.0625,0 0,-3.03125 A 0.97320244,0.97320244 0 0 1 14.68725,9.0625 L 11.99975,6.375 9.31225,9.0625 A 0.97320244,0.97320244 0 0 1 9.9685,10 l 0,3.03125 z"
       id="path5617"
       inkscape:connector-curvature="0" />
    <path
       style="display:block;overflow:visible;visibility:visible;fill:url(#radialGradient3868);fill-opacity:1;fill-rule:nonzero;stroke:none;stroke-width:1;marker:none;enable-background:accumulate"
       d="m 10.74975,19 c -0.354195,0 -0.625,-0.296003 -0.625,-0.65625 l 0,-1.28125 C 9.4914298,16.893759 8.8659328,16.665767 8.31225,16.34375 L 7.406,17.21875 C 7.2786308,17.346113 7.1333258,17.436105 6.9685,17.4375 6.8036745,17.438914 6.6562255,17.375217 6.531,17.25 L 4.74975,15.46875 C 4.4992997,15.218298 4.5262824,14.848483 4.781,14.59375 L 5.656,13.6875 C 5.33398,13.133817 5.1059951,12.508321 4.93725,11.875 l -1.28125,0 c -0.3602475,0 -0.65625,-0.270807 -0.65625,-0.625 l 0,-2.5 c 0,-0.354192 0.2960033,-0.625 0.65625,-0.625 l 1.28125,0 C 5.1059952,7.491678 5.3339849,6.866181 5.656,6.3125 L 4.781,5.40625 C 4.5262672,5.151517 4.4992781,4.781702 4.74975,4.53125 L 6.531,2.75 C 6.7814502,2.499548 7.1512668,2.52652 7.406,2.78125 l 0.90625,0.875 C 8.8659328,3.334233 9.4914299,3.106242 10.12475,2.9375 l 0,-1.28125 C 10.12475,1.296003 10.395555,1 10.74975,1 l 2.5,0 c 0.354194,0 0.625,0.296003 0.625,0.65625 l 0,1.28125 c 0.633321,0.168742 1.258818,0.396733 1.8125,0.71875 l 0.90625,-0.875 C 16.84823,2.526519 17.218048,2.499537 17.4685,2.75 l 1.78125,1.78125 c 0.25045,0.250453 0.22345,0.620268 -0.03125,0.875 l -0.875,0.90625 c 0.322016,0.553681 0.550009,1.179178 0.71875,1.8125 l 1.28125,0 c 0.360243,-8e-6 0.65625,0.270807 0.65625,0.625 l 0,2.5 c 0,0.354191 -0.296007,0.625 -0.65625,0.625 l -1.28125,0 c -0.168741,0.63332 -0.396734,1.258816 -0.71875,1.8125 l 0.875,0.90625 c 0.25473,0.254732 0.281732,0.624548 0.03125,0.875 L 17.4685,17.25 c -0.250457,0.250449 -0.620266,0.22345 -0.875,-0.03125 l -0.90625,-0.875 c -0.553683,0.322019 -1.179179,0.550008 -1.8125,0.71875 l 0,1.28125 c 0,0.360249 -0.270809,0.65625 -0.625,0.65625 l -2.5,0 z m -1.75,-5 6,0 0,-4 2,0 -5,-5 -5,5 2,0 0,4 z"
       id="rect3267"
       sodipodi:nodetypes="cccccscccccccccccccccccccccccccccccccccccccccccccccccccccc"
       inkscape:connector-curvature="0" />
    <path
       inkscape:connector-curvature="0"
       style="display:block;overflow:visible;visibility:visible;opacity:0.3;fill:#000000;fill-opacity:1;fill-rule:nonzero;stroke:none;stroke-width:1;marker:none;enable-background:accumulate"
       d="m 10.74975,1 c -0.354195,0 -0.625,0.296003 -0.625,0.65625 l 0,1 C 10.12475,2.296003 10.395555,2 10.74975,2 l 2.5,0 c 0.354194,0 0.625,0.296003 0.625,0.65625 l 0,-1 C 13.87475,1.296003 13.603944,1 13.24975,1 l -2.5,0 z M 6.9685,2.5625 C 6.8128979,2.5552222 6.6562251,2.624774 6.531,2.75 L 4.74975,4.53125 C 4.4992781,4.781702 4.5262672,5.151517 4.781,5.40625 L 4.81225,5.46875 6.531,3.75 C 6.7814502,3.499548 7.1512668,3.52652 7.406,3.78125 l 0.90625,0.875 C 8.8659328,4.334233 9.4914299,4.106242 10.12475,3.9375 l 0,-1 C 9.4914299,3.106242 8.8659328,3.334233 8.31225,3.65625 L 7.406,2.78125 C 7.2786334,2.653885 7.1241021,2.5697778 6.9685,2.5625 Z m 10.0625,0 c -0.155602,0.00728 -0.310135,0.091385 -0.4375,0.21875 l -0.90625,0.875 C 15.133568,3.334233 14.508071,3.106242 13.87475,2.9375 l 0,1 c 0.633321,0.168742 1.258818,0.396733 1.8125,0.71875 l 0.90625,-0.875 C 16.84823,3.526519 17.218048,3.499537 17.4685,3.75 l 1.71875,1.71875 0.03125,-0.0625 c 0.2547,-0.254732 0.2817,-0.624547 0.03125,-0.875 L 17.4685,2.75 C 17.343274,2.6247685 17.186602,2.555221 17.031,2.5625 Z M 5.3435,7 C 5.1890721,7.3652205 5.0399491,7.7395574 4.93725,8.125 l -1.28125,0 c -0.3602467,0 -0.65625,0.270808 -0.65625,0.625 l 0,1 c 0,-0.354192 0.2960033,-0.625 0.65625,-0.625 l 1.28125,0 C 5.1059952,8.491678 5.3339849,7.866181 5.656,7.3125 L 5.3435,7 Z M 18.656,7 18.3435,7.3125 c 0.322016,0.553681 0.550009,1.179178 0.71875,1.8125 l 1.28125,0 c 0.360243,-8e-6 0.65625,0.270807 0.65625,0.625 l 0,-1 c 0,-0.354193 -0.296007,-0.625008 -0.65625,-0.625 l -1.28125,0 C 18.959553,7.7395574 18.810429,7.3652205 18.656,7 Z m -10.65625,3 -1,1 2,0 0,-1 -1,0 z m 7,0 0,1 2,0 -1,-1 -1,0 z M 5.3435,14 4.781,14.59375 c -0.2547176,0.254733 -0.2817003,0.624548 -0.03125,0.875 l 0.0625,0.0625 L 5.656,14.6875 C 5.5299628,14.470791 5.4428129,14.234875 5.3435,14 Z m 3.65625,0 0,1 6,0 0,-1 -6,0 z m 9.65625,0 c -0.09931,0.234875 -0.186464,0.470791 -0.3125,0.6875 l 0.84375,0.84375 0.0625,-0.0625 c 0.250482,-0.250452 0.22348,-0.620268 -0.03125,-0.875 L 18.656,14 Z"
       id="path3806" />
    <path
       inkscape:connector-curvature="0"
       style="display:block;overflow:visible;visibility:visible;opacity:0.2;fill:#ffffff;fill-opacity:1;fill-rule:nonzero;stroke:none;stroke-width:1;marker:none;enable-background:accumulate"
       d="m 11.99975,5 -5,5 1,0 4,-4 4,4 1,0 -5,-5 z m -7.1875,0.46875 -0.0625,0.0625 C 4.4992781,5.781702 4.5262672,6.151517 4.781,6.40625 L 5.3435,7 C 5.4428131,6.7651254 5.5299647,6.5292083 5.656,6.3125 L 4.81225,5.46875 Z m 14.375,0 L 18.3435,6.3125 C 18.469536,6.5292083 18.556686,6.7651254 18.656,7 l 0.5625,-0.59375 c 0.2547,-0.254732 0.2817,-0.624547 0.03125,-0.875 l -0.0625,-0.0625 z M 2.99975,11.25 l 0,1 c 0,0.354193 0.2960025,0.625 0.65625,0.625 l 1.28125,0 C 5.039949,13.260442 5.1890724,13.634779 5.3435,14 L 5.656,13.6875 C 5.33398,13.133817 5.1059951,12.508321 4.93725,11.875 l -1.28125,0 c -0.3602475,0 -0.65625,-0.270807 -0.65625,-0.625 z m 18,0 c 0,0.354191 -0.296007,0.625 -0.65625,0.625 l -1.28125,0 c -0.168741,0.63332 -0.396734,1.258816 -0.71875,1.8125 L 18.656,14 c 0.154429,-0.365221 0.303553,-0.739559 0.40625,-1.125 l 1.28125,0 c 0.360243,0 0.65625,-0.270809 0.65625,-0.625 l 0,-1 z M 4.81225,15.53125 4.781,15.59375 c -0.2547176,0.254733 -0.2817003,0.624548 -0.03125,0.875 L 6.531,18.25 c 0.1252255,0.125217 0.2726745,0.188914 0.4375,0.1875 0.1648258,-0.0014 0.3101308,-0.09139 0.4375,-0.21875 l 0.90625,-0.875 c 0.5536828,0.322017 1.1791798,0.550009 1.8125,0.71875 l 0,-1 C 9.4914298,16.893759 8.8659328,16.665767 8.31225,16.34375 L 7.406,17.21875 C 7.2786308,17.346113 7.1333258,17.436105 6.9685,17.4375 6.8036745,17.438914 6.6562255,17.375217 6.531,17.25 L 4.81225,15.53125 Z m 14.375,0 L 17.4685,17.25 c -0.250457,0.250449 -0.620266,0.22345 -0.875,-0.03125 l -0.90625,-0.875 c -0.553683,0.322019 -1.179179,0.550008 -1.8125,0.71875 l 0,1 c 0.633321,-0.168742 1.258817,-0.396731 1.8125,-0.71875 l 0.90625,0.875 c 0.254734,0.2547 0.624543,0.281699 0.875,0.03125 l 1.78125,-1.78125 c 0.250482,-0.250452 0.22348,-0.620268 -0.03125,-0.875 l -0.03125,-0.0625 z m -9.0625,2.8125 0,1 c 0,0.360247 0.270805,0.65625 0.625,0.65625 l 2.5,0 c 0.354191,0 0.625,-0.296001 0.625,-0.65625 l 0,-1 c 0,0.360249 -0.270809,0.65625 -0.625,0.65625 l -2.5,0 c -0.354195,0 -0.625,-0.296003 -0.625,-0.65625 z"
       id="path3815" />
    <path
       style="display:block;overflow:visible;visibility:visible;opacity:0.3;fill:#000000;fill-opacity:1;fill-rule:nonzero;stroke:none;stroke-width:1;marker:none;enable-background:accumulate"
       d="m 10.74975,1 c -0.354195,0 -0.625,0.296003 -0.625,0.65625 l 0,1.28125 C 9.4914299,3.106242 8.8659328,3.334233 8.31225,3.65625 L 7.406,2.78125 C 7.1512668,2.52652 6.7814502,2.499548 6.531,2.75 L 4.74975,4.53125 C 4.4992781,4.781702 4.5262672,5.151517 4.781,5.40625 L 5.656,6.3125 C 5.3339849,6.866181 5.1059952,7.491678 4.93725,8.125 l -1.28125,0 c -0.3602467,0 -0.65625,0.270808 -0.65625,0.625 l 0,2.5 c 0,0.354193 0.2960025,0.625 0.65625,0.625 l 1.28125,0 c 0.1687451,0.633321 0.39673,1.258817 0.71875,1.8125 l -0.875,0.90625 c -0.2547176,0.254733 -0.2817003,0.624548 -0.03125,0.875 L 6.531,17.25 c 0.1252255,0.125217 0.2726745,0.188914 0.4375,0.1875 0.1648258,-0.0014 0.3101308,-0.09139 0.4375,-0.21875 l 0.90625,-0.875 c 0.5536828,0.322017 1.1791798,0.550009 1.8125,0.71875 l 0,1.28125 c 0,0.360247 0.270805,0.65625 0.625,0.65625 l 2.5,0 c 0.354191,0 0.625,-0.296001 0.625,-0.65625 l 0,-1.28125 c 0.633321,-0.168742 1.258817,-0.396731 1.8125,-0.71875 l 0.90625,0.875 c 0.254734,0.2547 0.624543,0.281699 0.875,0.03125 l 1.78125,-1.78125 c 0.250482,-0.250452 0.22348,-0.620268 -0.03125,-0.875 l -0.875,-0.90625 c 0.322016,-0.553684 0.550009,-1.17918 0.71875,-1.8125 l 1.28125,0 c 0.360243,0 0.65625,-0.270809 0.65625,-0.625 l 0,-2.5 c 0,-0.354193 -0.296007,-0.625008 -0.65625,-0.625 l -1.28125,0 C 18.893509,7.491678 18.665516,6.866181 18.3435,6.3125 l 0.875,-0.90625 c 0.2547,-0.254732 0.2817,-0.624547 0.03125,-0.875 L 17.4685,2.75 C 17.218048,2.499537 16.84823,2.526519 16.5935,2.78125 l -0.90625,0.875 C 15.133568,3.334233 14.508071,3.106242 13.87475,2.9375 l 0,-1.28125 C 13.87475,1.296003 13.603944,1 13.24975,1 l -2.5,0 z m 0,0.53125 2.5,0 c 0.05783,0 0.09375,0.031336 0.09375,0.125 l 0,1.28125 a 0.53199747,0.53199747 0 0 0 0.40625,0.5 c 0.602335,0.160486 1.158749,0.3981572 1.65625,0.6875 a 0.53199747,0.53199747 0 0 0 0.65625,-0.09375 l 0.90625,-0.875 C 17.05448,3.070266 17.04169,3.073186 17.0935,3.125 l 1.78125,1.78125 c 0.0518,0.0518 0.05473,0.039012 -0.03125,0.125 l -0.875,0.90625 a 0.53199747,0.53199747 0 0 0 -0.09375,0.65625 c 0.289342,0.4975013 0.527015,1.0539161 0.6875,1.65625 a 0.53199747,0.53199747 0 0 0 0.5,0.40625 l 1.28125,0 c 0.09364,-2.1e-6 0.125,0.035929 0.125,0.09375 l 0,2.5 c 0,0.05782 -0.03135,0.09375 -0.125,0.09375 l -1.28125,0 a 0.53199747,0.53199747 0 0 0 -0.5,0.40625 c -0.160485,0.602332 -0.398157,1.158745 -0.6875,1.65625 a 0.53199747,0.53199747 0 0 0 0.09375,0.65625 l 0.875,0.90625 c 0.086,0.086 0.08307,0.07319 0.03125,0.125 L 17.0935,16.875 c -0.05181,0.05181 -0.03901,0.05473 -0.125,-0.03125 l -0.90625,-0.875 A 0.53199747,0.53199747 0 0 0 15.406,15.875 c -0.497501,0.289344 -1.053915,0.527014 -1.65625,0.6875 a 0.53199747,0.53199747 0 0 0 -0.40625,0.5 l 0,1.28125 c 0,0.09366 -0.03593,0.125 -0.09375,0.125 l -2.5,0 c -0.05783,0 -0.09375,-0.03133 -0.09375,-0.125 l 0,-1.28125 a 0.53199747,0.53199747 0 0 0 -0.40625,-0.5 C 9.6474172,16.402015 9.0910028,16.164343 8.5935,15.875 A 0.53199747,0.53199747 0 0 0 7.93725,15.96875 L 7.031,16.84375 C 6.958077,16.91667 6.942371,16.90647 6.9685,16.90625 6.943428,16.906465 6.947371,16.91637 6.906,16.875 L 5.12475,15.09375 C 5.072943,15.04194 5.07002,15.05474 5.156,14.96875 L 6.031,14.0625 A 0.53199747,0.53199747 0 0 0 6.12475,13.40625 C 5.8354062,12.908751 5.5977402,12.352339 5.43725,11.75 a 0.53199747,0.53199747 0 0 0 -0.5,-0.40625 l -1.28125,0 c -0.093664,0 -0.125,-0.03592 -0.125,-0.09375 l 0,-2.5 c 0,-0.057823 0.031339,-0.09375 0.125,-0.09375 l 1.28125,0 A 0.53199747,0.53199747 0 0 0 5.43725,8.25 C 5.5977396,7.6476621 5.8354091,7.0912502 6.12475,6.59375 A 0.53199747,0.53199747 0 0 0 6.031,5.9375 L 5.156,5.03125 C 5.0700072,4.9452572 5.0729317,4.9580642 5.12475,4.90625 L 6.906,3.125 C 6.957811,3.073189 6.945017,3.070268 7.031,3.15625 l 0.90625,0.875 A 0.53199747,0.53199747 0 0 0 8.5935,4.125 C 9.0910024,3.835657 9.6474162,3.597986 10.24975,3.4375 a 0.53199747,0.53199747 0 0 0 0.40625,-0.5 l 0,-1.28125 c 0,-0.093665 0.03592,-0.125 0.09375,-0.125 z m 1.09375,2.9375 A 0.53199747,0.53199747 0 0 0 11.62475,4.625 l -5,5 a 0.53199747,0.53199747 0 0 0 0.375,0.90625 l 1.46875,0 0,3.46875 a 0.53199747,0.53199747 0 0 0 0.53125,0.53125 l 6,0 A 0.53199747,0.53199747 0 0 0 15.531,14 l 0,-3.46875 1.46875,0 a 0.53199747,0.53199747 0 0 0 0.375,-0.90625 l -5,-5 A 0.53199747,0.53199747 0 0 0 11.906,4.46875 a 0.53199747,0.53199747 0 0 0 -0.0625,0 z M 11.99975,5 l 5,5 -2,0 0,4 -6,0 0,-4 -2,0 5,-5 z"
       id="path3870"
       inkscape:connector-curvature="0" />
  </g>
</svg>
