<?xml version="1.0" encoding="UTF-8" standalone="no"?>
<!-- Created with Inkscape (http://www.inkscape.org/) -->

<svg
   xmlns:dc="http://purl.org/dc/elements/1.1/"
   xmlns:cc="http://creativecommons.org/ns#"
   xmlns:rdf="http://www.w3.org/1999/02/22-rdf-syntax-ns#"
   xmlns:svg="http://www.w3.org/2000/svg"
   xmlns="http://www.w3.org/2000/svg"
   xmlns:xlink="http://www.w3.org/1999/xlink"
   xmlns:sodipodi="http://sodipodi.sourceforge.net/DTD/sodipodi-0.dtd"
   xmlns:inkscape="http://www.inkscape.org/namespaces/inkscape"
   width="24"
   height="24"
   id="svg2"
   sodipodi:version="0.32"
   inkscape:version="0.91 r13725"
   version="1.0"
   sodipodi:docname="system-shutdown-panel.svg"
   inkscape:output_extension="org.inkscape.output.svg.inkscape"
   style="display:inline">
  <defs
     id="defs4">
    <linearGradient
       gradientUnits="userSpaceOnUse"
       y2="18.974037"
       x2="10.710332"
       y1="1.9963325"
       x1="10.710332"
       gradientTransform="matrix(0.9984539,0,0,0.9984539,-0.0459776,0.05767558)"
       id="linearGradient4186">
      <stop
         id="stop4188"
         offset="0"
         style="stop-color:#000000;stop-opacity:0.23529412" />
      <stop
         id="stop4190"
         offset="1"
         style="stop-color:#000000;stop-opacity:0.54901963" />
    </linearGradient>
    <inkscape:perspective
       sodipodi:type="inkscape:persp3d"
       inkscape:vp_x="0 : 11 : 1"
       inkscape:vp_y="0 : 1000 : 0"
       inkscape:vp_z="22 : 11 : 1"
       inkscape:persp3d-origin="11 : 7.3333333 : 1"
       id="perspective29" />
    <linearGradient
       id="linearGradient4081">
      <stop
         style="stop-color:#aaaaaa;stop-opacity:1;"
         offset="0"
         id="stop4083" />
      <stop
         style="stop-color:#f0f0f0;stop-opacity:1;"
         offset="1"
         id="stop4085" />
    </linearGradient>
    <linearGradient
       inkscape:collect="always"
       xlink:href="#linearGradient4081"
       id="linearGradient3527"
       gradientUnits="userSpaceOnUse"
       gradientTransform="translate(-39,0)"
       x1="6.8391123"
       y1="16.300354"
       x2="6.8391123"
       y2="6.0528178" />
    <linearGradient
       inkscape:collect="always"
       xlink:href="#linearGradient4081"
       id="linearGradient3538"
       gradientUnits="userSpaceOnUse"
       gradientTransform="translate(-39,0)"
       x1="16.5"
       y1="19.542921"
       x2="16.5"
       y2="2.5" />
    <linearGradient
       inkscape:collect="always"
       xlink:href="#linearGradient4081"
       id="linearGradient3540"
       gradientUnits="userSpaceOnUse"
       gradientTransform="translate(-39,0)"
       x1="14.524625"
       y1="17.41902"
       x2="14.524625"
       y2="4.625" />
    <linearGradient
       inkscape:collect="always"
       xlink:href="#linearGradient4081"
       id="linearGradient3542"
       gradientUnits="userSpaceOnUse"
       gradientTransform="translate(-39,0)"
       x1="10.50519"
       y1="15.28125"
       x2="10.50519"
       y2="6.7458849" />
    <linearGradient
       inkscape:collect="always"
       xlink:href="#linearGradient4081"
       id="linearGradient3266"
       x1="9"
       y1="4.5"
       x2="14"
       y2="4.5"
       gradientUnits="userSpaceOnUse"
       gradientTransform="matrix(0,-1,1,0,6,16)" />
    <linearGradient
       inkscape:collect="always"
       xlink:href="#linearGradient4081"
       id="linearGradient3274"
       x1="11.984375"
       y1="20"
       x2="11.984375"
       y2="7.96875"
       gradientUnits="userSpaceOnUse" />
    <linearGradient
       inkscape:collect="always"
       xlink:href="#linearGradient4081"
       id="linearGradient3280"
       gradientUnits="userSpaceOnUse"
       gradientTransform="matrix(0,-1,1,0,7,16)"
       x1="9"
       y1="4.5"
       x2="14"
       y2="4.5" />
    <linearGradient
       inkscape:collect="always"
       xlink:href="#linearGradient4081"
       id="linearGradient3287"
       gradientUnits="userSpaceOnUse"
       gradientTransform="matrix(0,-1,1,0,7,16)"
       x1="9"
       y1="4.5"
       x2="14"
       y2="4.5" />
    <linearGradient
       inkscape:collect="always"
       xlink:href="#linearGradient4081"
       id="linearGradient3293"
       gradientUnits="userSpaceOnUse"
       x1="11.984375"
       y1="20"
       x2="11.984375"
       y2="7.96875"
       gradientTransform="translate(-1,0)" />
    <linearGradient
       inkscape:collect="always"
       xlink:href="#linearGradient4081"
       id="linearGradient3180"
       x1="-13"
       y1="17.008953"
       x2="-13"
       y2="-0.70032859"
       gradientUnits="userSpaceOnUse" />
    <inkscape:perspective
       id="perspective4374"
       inkscape:persp3d-origin="0.5 : 0.33333333 : 1"
       inkscape:vp_z="1 : 0.5 : 1"
       inkscape:vp_y="0 : 1000 : 0"
       inkscape:vp_x="0 : 0.5 : 1"
       sodipodi:type="inkscape:persp3d" />
    <linearGradient
       inkscape:collect="always"
       xlink:href="#StandardGradient-1"
       id="linearGradient3833-8"
       x1="54"
       y1="3.5"
       x2="59"
       y2="3.5"
       gradientUnits="userSpaceOnUse"
       gradientTransform="translate(-58,53.861161)" />
    <linearGradient
       id="StandardGradient-1"
       gradientTransform="matrix(0.9984539,0,0,0.9984539,-0.0459776,0.05767558)"
       x1="10.710332"
       y1="1.9963325"
       x2="10.710332"
       y2="18.974037"
       gradientUnits="userSpaceOnUse">
      <stop
         style="stop-color:#000000;stop-opacity:0.86274511;"
         offset="0"
         id="stop3277-4" />
      <stop
         style="stop-color:#000000;stop-opacity:0.47058824;"
         offset="1"
         id="stop3279-3" />
    </linearGradient>
    <linearGradient
       y2="3.5"
       x2="59"
       y1="3.5"
       x1="54"
       gradientTransform="translate(-50,53.861161)"
       gradientUnits="userSpaceOnUse"
       id="linearGradient3829-0"
       xlink:href="#SpecificGradient-5"
       inkscape:collect="always" />
    <linearGradient
       id="SpecificGradient-5"
       x1="10.761708"
       y1="3.9999998"
       x2="10.761708"
       y2="18.011395"
       gradientUnits="userSpaceOnUse">
      <stop
         style="stop-color:#a50000;stop-opacity:1;"
         offset="0"
         id="stop3292-8" />
      <stop
         style="stop-color:#e73800;stop-opacity:1;"
         offset="1"
         id="stop3294-0" />
    </linearGradient>
    <linearGradient
       inkscape:collect="always"
       xlink:href="#StandardGradient-1"
       id="linearGradient3660"
       gradientUnits="userSpaceOnUse"
       gradientTransform="translate(3,4)"
       x1="12"
       y1="1"
       x2="12"
       y2="14" />
    <linearGradient
       inkscape:collect="always"
       xlink:href="#StandardGradient-1"
       id="linearGradient3664"
       gradientUnits="userSpaceOnUse"
       gradientTransform="translate(3.8611607,-2.0000001)"
       x1="12"
       y1="1"
       x2="12"
       y2="14" />
    <linearGradient
       inkscape:collect="always"
       xlink:href="#StandardGradient-1"
       id="linearGradient3669"
       gradientUnits="userSpaceOnUse"
       gradientTransform="translate(-26.138839,-2.0000001)"
       x1="12"
       y1="1"
       x2="12"
       y2="14" />
    <clipPath
       clipPathUnits="userSpaceOnUse"
       id="clipPath3674">
      <path
         style="display:inline;fill:#ff00ff;fill-opacity:1;stroke:none"
         d="m -29.138839,-5.0000001 0,22.0000001 21.9999997,0 0,-22.0000001 -21.9999997,0 z m 10.5,4 1,0 c 0.277,0 0.5,0.223 0.5,0.5 l 0,5 c 0,0.2770001 -0.223,0.5 -0.5,0.5 l -1,0 c -0.277,0 -0.5,-0.223 -0.5,-0.5 l 0,-5 c 0,-0.277 0.223,-0.5 0.5,-0.5 z m -1.5,1.34375 0,2.21875 c -1.193787,0.6923393 -2,1.9590539 -2,3.4375 0,2.208 1.792,4 4,4 2.208,0 4,-1.792 4,-4 0,-1.4784459 -0.806213,-2.7451607 -2,-3.4375 l 0,-2.21875 c 2.330779,0.8236389 4,3.0446 4,5.65625 0,3.312 -2.688,6.0000001 -6,6.0000001 -3.312,0 -6,-2.6880001 -6,-6.0000001 0,-2.61165 1.669221,-4.8326111 4,-5.65625 z"
         id="path3676"
         inkscape:connector-curvature="0" />
    </clipPath>
    <linearGradient
       inkscape:collect="always"
       xlink:href="#StandardGradient-1"
       id="linearGradient3867"
       gradientUnits="userSpaceOnUse"
       gradientTransform="translate(3.8611607,-2.0000001)"
       x1="12"
       y1="1"
       x2="12"
       y2="14" />
    <linearGradient
       inkscape:collect="always"
       xlink:href="#StandardGradient-1"
       id="linearGradient3871"
       gradientUnits="userSpaceOnUse"
       gradientTransform="translate(3,3)"
       x1="12"
       y1="1"
       x2="12"
       y2="14" />
    <radialGradient
       inkscape:collect="always"
       xlink:href="#linearGradient4186"
       id="radialGradient4176"
       cx="11.86116"
       cy="6.8846154"
       fx="11.86116"
       fy="6.8846154"
       r="6"
       gradientTransform="matrix(1.8333334,4.5982055e-8,-3.3441496e-8,1.3333333,-8.8843008,-3.179488)"
       gradientUnits="userSpaceOnUse" />
  </defs>
  <sodipodi:namedview
     id="base"
     pagecolor="#6e6e6e"
     bordercolor="#e7e7e7"
     borderopacity="1"
     inkscape:pageopacity="0"
     inkscape:pageshadow="2"
     inkscape:zoom="17.118011"
     inkscape:cx="4.2915415"
     inkscape:cy="11.715091"
     inkscape:document-units="px"
     inkscape:current-layer="layer1"
     showgrid="true"
     inkscape:showpageshadow="false"
     showguides="false"
     inkscape:guide-bbox="true"
     inkscape:window-width="1920"
     inkscape:window-height="1030"
     inkscape:window-x="0"
     inkscape:window-y="25"
     inkscape:window-maximized="1"
     inkscape:snap-bbox="true"
     inkscape:bbox-paths="true"
     inkscape:bbox-nodes="true"
     inkscape:snap-bbox-edge-midpoints="true">
    <sodipodi:guide
       orientation="1,0"
       position="0,112"
       id="guide2383" />
    <sodipodi:guide
       orientation="0,1"
       position="26.278146,128"
       id="guide2385" />
    <sodipodi:guide
       orientation="1,0"
       position="128,54.082119"
       id="guide2387" />
    <sodipodi:guide
       orientation="0,1"
       position="78.156291,0"
       id="guide2389" />
    <sodipodi:guide
       orientation="0,1"
       position="60.863576,64.084768"
       id="guide2391" />
    <inkscape:grid
       type="xygrid"
       id="grid3672"
       visible="true"
       enabled="true"
       empspacing="8"
       snapvisiblegridlinesonly="true" />
  </sodipodi:namedview>
  <metadata
     id="metadata7">
    <rdf:RDF>
      <cc:Work
         rdf:about="">
        <dc:format>image/svg+xml</dc:format>
        <dc:type
           rdf:resource="http://purl.org/dc/dcmitype/StillImage" />
        <dc:title></dc:title>
      </cc:Work>
    </rdf:RDF>
  </metadata>
  <g
     inkscape:label="Icon"
     inkscape:groupmode="layer"
     id="layer1"
     style="display:inline"
     transform="translate(-0.8611607,7.0000001)">
    <path
       style="opacity:0.05;fill:#ffffff;fill-opacity:1;fill-rule:nonzero;stroke:none"
       d="m 12.361161,-3.0000002 c -0.75069,0 -1.347549,0.6130471 -1.4375,1.34375 a 0.99320532,0.99320532 0 0 0 -0.40625,0.0625 C 7.7982779,-0.6328766 5.8611607,1.965191 5.8611607,4.9999998 5.8611607,8.8493328 9.0118279,12 12.861161,12 c 3.849333,0 7,-3.1506672 7,-7.0000002 0,-3.0348086 -1.937117,-5.6328764 -4.65625,-6.59375 a 0.99320532,0.99320532 0 0 0 -0.40625,-0.0625 c -0.08995,-0.7307029 -0.68681,-1.34375 -1.4375,-1.34375 l -1,0 z m 0,1 1,0 c 0.277,0 0.5,0.223 0.5,0.5 l 0,5 c 0,0.2770001 -0.223,0.5 -0.5,0.5 l -1,0 c -0.277,0 -0.5,-0.223 -0.5,-0.5 l 0,-5 c 0,-0.277 0.223,-0.5 0.5,-0.5 z m -1.5,1.34375 0,2.21875 c -1.193787,0.6923393 -2.0000003,1.9590539 -2.0000003,3.4375 0,2.208 1.7919993,4 4.0000003,4 2.208,0 4,-1.792 4,-4 0,-1.4784459 -0.806213,-2.7451607 -2,-3.4375 l 0,-2.21875 c 2.330779,0.8236389 4,3.0446 4,5.65625 0,3.312 -2.688,6.0000002 -6,6.0000002 -3.3120004,0 -6.0000003,-2.6880002 -6.0000003,-6.0000002 0,-2.61165 1.6692215,-4.8326111 4.0000003,-5.65625 z m 0,3.5625 0,0.59375 c 0,0.810003 0.689997,1.5 1.5,1.5 l 1,0 c 0.810003,0 1.5,-0.689997 1.5,-1.5 l 0,-0.59375 c 0.579081,0.5408661 1,1.231747 1,2.09375 0,1.670667 -1.329333,3 -3,3 -1.670668,0 -3.0000003,-1.329332 -3.0000003,-3 0,-0.862003 0.4209193,-1.5528839 1.0000003,-2.09375 z"
       id="path3869"
       inkscape:connector-curvature="0" />
    <path
       style="fill:url(#radialGradient4176);fill-opacity:1;fill-rule:nonzero;stroke:none"
       d="m 12.361161,-2.0000002 c -0.277,0 -0.5,0.223 -0.5,0.5 l 0,5 c 0,0.277 0.223,0.5000001 0.5,0.5 l 1,0 c 0.277,0 0.5,-0.2229999 0.5,-0.5 l 0,-5 c 0,-0.277 -0.223,-0.5 -0.5,-0.5 l -1,0 z m -1.5,1.34375 C 8.5303822,0.1673887 6.8611607,2.3883498 6.8611607,4.9999998 6.8611607,8.3119999 9.5491609,11 12.861161,11 c 3.312,0 6,-2.6880001 6,-6.0000002 0,-2.61165 -1.669221,-4.8326111 -4,-5.65625 l 0,2.21875 c 1.193787,0.6923393 2,1.9590541 2,3.4375 0,2.2080001 -1.792,4.0000001 -4,4.0000001 -2.208,0 -4.0000003,-1.792 -4.0000003,-4.0000001 0,-1.4784461 0.8062133,-2.7451607 2.0000003,-3.4375 l 0,-2.21875 z"
       id="path2401"
       inkscape:connector-curvature="0" />
    <path
       style="opacity:0.3;fill:#000000;fill-opacity:1;fill-rule:nonzero;stroke:none"
       d="m 12.361161,-2.0000002 c -0.277,0 -0.5,0.223 -0.5,0.5 l 0,1 c 0,-0.277 0.223,-0.5 0.5,-0.5 l 1,0 c 0.277,0 0.5,0.223 0.5,0.5 l 0,-1 c 0,-0.277 -0.223,-0.5 -0.5,-0.5 l -1,0 z m -1.5,1.34375 c -2.3307788,0.8236389 -4.0000003,3.0446 -4.0000003,5.65625 0,0.1863516 0.014598,0.380467 0.03125,0.5625 0.1748633,-2.4194859 1.7696061,-4.4416275 3.9687503,-5.21875 l 0,-1 z m 4,0 0,1 c 2.199144,0.7771225 3.793887,2.7992641 3.96875,5.21875 0.01665,-0.182033 0.03125,-0.3761484 0.03125,-0.5625 0,-2.61165 -1.669221,-4.8326111 -4,-5.65625 z m -5.9687503,6.0625 c -0.030002,0.1962605 -0.03125,0.3883429 -0.03125,0.59375 0,2.2080001 1.7920003,4.0000001 4.0000003,4.0000001 2.208,0 4,-1.792 4,-4.0000001 0,-0.205407 -0.0012,-0.3974895 -0.03125,-0.59375 -0.204145,2.0170571 -1.898146,3.5937501 -3.96875,3.5937501 -2.070605,0 -3.7646054,-1.576693 -3.9687503,-3.5937501 z"
       id="path3200"
       inkscape:connector-curvature="0" />
    <path
       style="opacity:0.2;fill:#ffffff;fill-opacity:1;fill-rule:nonzero;stroke:none"
       d="m 10.861161,1.5624998 c -1.193787,0.6923393 -2.0000003,1.9590539 -2.0000003,3.4375 0,0.137396 0.017704,0.272408 0.03125,0.40625 0.1859391,-1.216352 0.9408214,-2.2476005 1.9687503,-2.84375 l 0,-1 z m 4,0 0,1 c 1.027929,0.5961495 1.782811,1.627398 1.96875,2.84375 0.01355,-0.133842 0.03125,-0.268854 0.03125,-0.40625 0,-1.4784459 -0.806213,-2.7451607 -2,-3.4375 z m -3,1.9375 0,1 c 0,0.277 0.223,0.5 0.5,0.5 l 1,0 c 0.277,0 0.5,-0.223 0.5,-0.5 l 0,-1 c 0,0.2770001 -0.223,0.5 -0.5,0.5 l -1,0 c -0.277,0 -0.5,-0.223 -0.5,-0.5 z m -4.9687503,2.125 c -0.00772,0.124575 -0.03125,0.248477 -0.03125,0.375 C 6.8611607,9.3119999 9.5491606,12 12.861161,12 c 3.312,0 6,-2.6880001 6,-6.0000002 0,-0.126523 -0.02353,-0.250425 -0.03125,-0.375 C 18.52247,8.6493158 15.966161,11 12.861161,11 9.7561606,11 7.1998521,8.6493158 6.8924107,5.6249998 Z"
       id="path3658"
       inkscape:connector-curvature="0" />
    <path
       style="color:#000000;font-style:normal;font-variant:normal;font-weight:normal;font-stretch:normal;font-size:medium;line-height:normal;font-family:sans-serif;text-indent:0;text-align:start;text-decoration:none;text-decoration-line:none;text-decoration-style:solid;text-decoration-color:#000000;letter-spacing:normal;word-spacing:normal;text-transform:none;direction:ltr;block-progression:tb;writing-mode:lr-tb;baseline-shift:baseline;text-anchor:start;white-space:normal;clip-rule:nonzero;display:inline;overflow:visible;visibility:visible;opacity:0.3;isolation:auto;mix-blend-mode:normal;color-interpolation:sRGB;color-interpolation-filters:linearRGB;solid-color:#000000;solid-opacity:1;fill:#000000;fill-opacity:1;fill-rule:nonzero;stroke:none;stroke-width:1.20000005;stroke-linecap:butt;stroke-linejoin:miter;stroke-miterlimit:4;stroke-dasharray:none;stroke-dashoffset:0;stroke-opacity:1;color-rendering:auto;image-rendering:auto;shape-rendering:auto;text-rendering:auto;enable-background:accumulate"
       d="m 12.361161,-2.0000007 c -0.277,0 -0.5,0.223 -0.5,0.5 l 0,5 c 0,0.277 0.223,0.5000001 0.5,0.5 l 1,0 c 0.277,0 0.5,-0.2229999 0.5,-0.5 l 0,-5 c 0,-0.277 -0.223,-0.5 -0.5,-0.5 l -1,0 z m 0.09961,0.5996094 0.800782,0 0,4.8007812 -0.800782,0 0,-4.8007812 z m -1.59961,0.7441406 c -2.3307793,0.8236389 -4.0000003,3.0446 -4.0000003,5.65625 0,3.312 2.688,6.0000007 6.0000003,6.0000007 3.312,0 6,-2.6880007 6,-6.0000007 0,-2.61165 -1.669221,-4.8326111 -4,-5.65625 l 0,2.21875 c 1.193787,0.6923393 2,1.9590541 2,3.4375 0,2.208 -1.792,4.0000005 -4,4.0000005 -2.208,0 -4.0000003,-1.7920005 -4.0000003,-4.0000005 0,-1.4784461 0.806213,-2.7451607 2.0000003,-3.4375 l 0,-2.21875 z m -0.599609,1.1660156 0,0.828125 c -1.1693683,0.82864 -2.0000003,2.1180397 -2.0000003,3.6621094 0,2.532638 2.0669713,4.5996096 4.5996093,4.5996096 2.532638,0 4.599609,-2.0669716 4.599609,-4.5996096 0,-1.5440696 -0.830633,-2.8334693 -2,-3.6621094 l 0,-0.828125 c 1.599128,0.9356859 2.800782,2.4982465 2.800782,4.4902344 0,2.987362 -2.413029,5.4003917 -5.400391,5.4003917 -2.9873623,0 -5.4003913,-2.4130297 -5.4003913,-5.4003917 0,-1.9919879 1.201653,-3.5545485 2.8007823,-4.4902344 z"
       id="path2401-9"
       inkscape:connector-curvature="0" />
  </g>
</svg>
