<?xml version="1.0" encoding="UTF-8" standalone="no"?>
<!-- Created with Inkscape (http://www.inkscape.org/) -->

<svg
   xmlns:dc="http://purl.org/dc/elements/1.1/"
   xmlns:cc="http://creativecommons.org/ns#"
   xmlns:rdf="http://www.w3.org/1999/02/22-rdf-syntax-ns#"
   xmlns:svg="http://www.w3.org/2000/svg"
   xmlns="http://www.w3.org/2000/svg"
   xmlns:xlink="http://www.w3.org/1999/xlink"
   xmlns:sodipodi="http://sodipodi.sourceforge.net/DTD/sodipodi-0.dtd"
   xmlns:inkscape="http://www.inkscape.org/namespaces/inkscape"
   width="24"
   height="24"
   id="svg2"
   sodipodi:version="0.32"
   inkscape:version="0.91 r13725"
   version="1.0"
   sodipodi:docname="tag-new.svg"
   inkscape:output_extension="org.inkscape.output.svg.inkscape"
   inkscape:export-filename="/home/matt/.icons/Sirocco/scalable/mimetypes/text-plain.png"
   inkscape:export-xdpi="90"
   inkscape:export-ydpi="90"
   sodipodi:modified="true"
   style="display:inline">
  <sodipodi:namedview
     id="base"
     pagecolor="#6e6e6e"
     bordercolor="#666666"
     borderopacity="1.0"
     inkscape:pageopacity="0"
     inkscape:pageshadow="2"
     inkscape:zoom="13.627351"
     inkscape:cx="14.279114"
     inkscape:cy="5.1590113"
     inkscape:document-units="px"
     inkscape:current-layer="layer1"
     width="128px"
     height="128px"
     inkscape:showpageshadow="false"
     inkscape:window-width="1366"
     inkscape:window-height="718"
     inkscape:window-x="0"
     inkscape:window-y="25"
     showguides="true"
     inkscape:guide-bbox="true"
     showgrid="true"
     inkscape:window-maximized="1"
     inkscape:snap-bbox="true"
     inkscape:bbox-paths="true"
     inkscape:bbox-nodes="true"
     inkscape:snap-bbox-edge-midpoints="true">
    <sodipodi:guide
       id="guide2226"
       position="32.637397,117.99844"
       orientation="horizontal" />
    <sodipodi:guide
       id="guide2230"
       position="110,57.402344"
       orientation="vertical" />
    <sodipodi:guide
       id="guide2232"
       position="33.760911"
       orientation="horizontal" />
    <sodipodi:guide
       id="guide2231"
       position="46.774696"
       orientation="horizontal" />
    <inkscape:grid
       enabled="true"
       visible="true"
       id="grid3231"
       type="xygrid" />
    <sodipodi:guide
       orientation="1,0"
       position="100,67.625"
       id="guide2713" />
  </sodipodi:namedview>
  <defs
     id="defs4">
    <linearGradient
       gradientUnits="userSpaceOnUse"
       y2="19.387045"
       x2="11.998966"
       y1="0.92195445"
       x1="11.998966"
       gradientTransform="scale(0.9219544,1.0846523)"
       id="linearGradient4188">
      <stop
         id="stop4190"
         offset="0"
         style="stop-color:#000000;stop-opacity:0.23529412" />
      <stop
         id="stop4192"
         offset="1"
         style="stop-color:#000000;stop-opacity:0.54901963" />
    </linearGradient>
    <linearGradient
       inkscape:collect="always"
       xlink:href="#StandardGradient"
       id="linearGradient2549"
       gradientUnits="userSpaceOnUse"
       gradientTransform="matrix(0.9247229,0,0,1.0872097,20.939944,2.9976422)"
       x1="11.998966"
       y1="0.92195445"
       x2="11.998966"
       y2="17.478098" />
    <inkscape:perspective
       sodipodi:type="inkscape:persp3d"
       inkscape:vp_x="0 : 11 : 1"
       inkscape:vp_y="0 : 1000 : 0"
       inkscape:vp_z="22 : 11 : 1"
       inkscape:persp3d-origin="11 : 7.3333333 : 1"
       id="perspective3967" />
    <linearGradient
       id="StandardGradient"
       gradientTransform="scale(0.9219544,1.0846523)"
       x1="11.998966"
       y1="0.92195445"
       x2="11.998966"
       y2="19.387045"
       gradientUnits="userSpaceOnUse">
      <stop
         style="stop-color:#000000;stop-opacity:0.86274511;"
         offset="0"
         id="stop3283" />
      <stop
         style="stop-color:#000000;stop-opacity:0.47058824;"
         offset="1"
         id="stop2651" />
    </linearGradient>
    <linearGradient
       inkscape:collect="always"
       xlink:href="#StandardGradient"
       id="linearGradient3978"
       gradientUnits="userSpaceOnUse"
       gradientTransform="matrix(0.9247229,0,0,1.0872097,-2.060056,1.9976422)"
       x1="11.998966"
       y1="0.92195445"
       x2="11.998966"
       y2="17.478098" />
    <linearGradient
       inkscape:collect="always"
       xlink:href="#StandardGradient"
       id="linearGradient3983"
       gradientUnits="userSpaceOnUse"
       gradientTransform="matrix(0.9219544,0,0,1.0846523,2,-2)"
       x1="11.998966"
       y1="0.92195445"
       x2="11.998966"
       y2="19.387045" />
    <linearGradient
       inkscape:collect="always"
       xlink:href="#StandardGradient"
       id="linearGradient3986"
       gradientUnits="userSpaceOnUse"
       gradientTransform="matrix(0.9219544,0,0,1.0846523,0.0625,-2)"
       x1="11.998966"
       y1="0.92195445"
       x2="11.998966"
       y2="19.387045" />
    <linearGradient
       inkscape:collect="always"
       xlink:href="#StandardGradient"
       id="linearGradient3989"
       gradientUnits="userSpaceOnUse"
       gradientTransform="matrix(0.9219544,0,0,1.0846523,-1,-2)"
       x1="11.998966"
       y1="0.92195445"
       x2="11.998966"
       y2="19.387045" />
    <linearGradient
       inkscape:collect="always"
       xlink:href="#StandardGradient"
       id="linearGradient3992"
       gradientUnits="userSpaceOnUse"
       gradientTransform="matrix(0.9219544,0,0,1.0846523,-1,-2)"
       x1="11.998966"
       y1="0.92195445"
       x2="11.998966"
       y2="19.387045" />
    <linearGradient
       inkscape:collect="always"
       xlink:href="#StandardGradient"
       id="linearGradient3995"
       gradientUnits="userSpaceOnUse"
       gradientTransform="matrix(0.9219544,0,0,1.0846523,0,-2)"
       x1="11.998966"
       y1="4.6096597"
       x2="11.998966"
       y2="19.387045" />
    <linearGradient
       inkscape:collect="always"
       xlink:href="#StandardGradient"
       id="linearGradient2400"
       gradientUnits="userSpaceOnUse"
       gradientTransform="matrix(0.9219544,0,0,1.0846523,20,-2)"
       x1="11.998966"
       y1="4.6096597"
       x2="11.998966"
       y2="19.387045" />
    <linearGradient
       inkscape:collect="always"
       xlink:href="#StandardGradient"
       id="linearGradient2407"
       gradientUnits="userSpaceOnUse"
       gradientTransform="matrix(0.9219544,0,0,1.0846523,20,-2)"
       x1="11.998966"
       y1="4.6096597"
       x2="11.998966"
       y2="19.387045" />
    <linearGradient
       inkscape:collect="always"
       xlink:href="#StandardGradient"
       id="linearGradient2412"
       gradientUnits="userSpaceOnUse"
       gradientTransform="matrix(0.9219544,0,0,1.0846523,20,-2)"
       x1="11.998966"
       y1="4.6096597"
       x2="11.998966"
       y2="19.387045" />
    <linearGradient
       inkscape:collect="always"
       xlink:href="#StandardGradient"
       id="linearGradient2422"
       gradientUnits="userSpaceOnUse"
       gradientTransform="matrix(0.9219544,0,0,1.0846523,1,0)"
       x1="11.998966"
       y1="4.6096597"
       x2="11.998966"
       y2="19.387045" />
    <linearGradient
       inkscape:collect="always"
       xlink:href="#StandardGradient"
       id="linearGradient2424"
       gradientUnits="userSpaceOnUse"
       gradientTransform="matrix(0.9219544,0,0,1.0846523,0,-2)"
       x1="11.998966"
       y1="4.6096597"
       x2="11.998966"
       y2="19.387045" />
    <linearGradient
       inkscape:collect="always"
       xlink:href="#StandardGradient"
       id="linearGradient2427"
       gradientUnits="userSpaceOnUse"
       gradientTransform="matrix(0.9219544,0,0,1.0846523,-2,-3)"
       x1="11.998966"
       y1="4.6096597"
       x2="11.998966"
       y2="19.387045" />
    <inkscape:perspective
       id="perspective2850"
       inkscape:persp3d-origin="0.5 : 0.33333333 : 1"
       inkscape:vp_z="1 : 0.5 : 1"
       inkscape:vp_y="0 : 1000 : 0"
       inkscape:vp_x="0 : 0.5 : 1"
       sodipodi:type="inkscape:persp3d" />
    <linearGradient
       inkscape:collect="always"
       xlink:href="#StandardGradient"
       id="linearGradient3640"
       gradientUnits="userSpaceOnUse"
       gradientTransform="matrix(0.9219544,0,0,1.0846523,-32,-3)"
       x1="11.998966"
       y1="4.6096597"
       x2="11.998966"
       y2="19.387045" />
    <linearGradient
       inkscape:collect="always"
       xlink:href="#StandardGradient"
       id="linearGradient3657"
       gradientUnits="userSpaceOnUse"
       gradientTransform="matrix(0.9219544,0,0,1.0846523,-32,27)"
       x1="11.998966"
       y1="4.6096597"
       x2="11.998966"
       y2="19.387045" />
    <clipPath
       clipPathUnits="userSpaceOnUse"
       id="clipPath3660">
      <path
         style="display:inline;fill:#ff00ff;fill-opacity:1;stroke:none"
         d="m -30,0 0,22 22,0 0,-22 -22,0 z m 6.5,3 9,0 c 0.831,0 1.5,0.669 1.5,1.5 l 0,11 c 0,0.831 -0.669,1.5 -1.5,1.5 l -3.5,0 0,-2 2.5,0 c 0.277,0 0.5,-0.223 0.5,-0.5 l 0,-9 C -15,5.223 -15.223,5 -15.5,5 l -7,0 C -22.777,5 -23,5.223 -23,5.5 l 0,4.5 -2,0 0,-5.5 C -25,3.669 -24.331,3 -23.5,3 Z m -1.5,8 3,0 0,3 3,0 0,3 -3,0 0,3 -3,0 0,-3 -3,0 0,-3 3,0 0,-3 z"
         id="path3662"
         inkscape:connector-curvature="0" />
    </clipPath>
    <linearGradient
       inkscape:collect="always"
       xlink:href="#StandardGradient"
       id="linearGradient4694"
       gradientUnits="userSpaceOnUse"
       gradientTransform="matrix(0.9219544,0,0,1.0846523,-2,-3)"
       x1="11.998966"
       y1="4.6096597"
       x2="11.998966"
       y2="19.387045" />
    <linearGradient
       inkscape:collect="always"
       xlink:href="#StandardGradient"
       id="linearGradient4698"
       gradientUnits="userSpaceOnUse"
       gradientTransform="matrix(0.9219544,0,0,1.0846523,-2,-3)"
       x1="11.998966"
       y1="4.6096597"
       x2="11.998966"
       y2="19.387045" />
    <linearGradient
       inkscape:collect="always"
       xlink:href="#StandardGradient"
       id="linearGradient3043"
       gradientUnits="userSpaceOnUse"
       gradientTransform="matrix(0.9219544,0,0,1.0846523,-2,-3)"
       x1="11.998966"
       y1="4.6096597"
       x2="11.998966"
       y2="19.387045" />
    <linearGradient
       inkscape:collect="always"
       xlink:href="#StandardGradient"
       id="linearGradient3050"
       gradientUnits="userSpaceOnUse"
       gradientTransform="matrix(0.9219544,0,0,1.0846523,-2,-3)"
       x1="11.998966"
       y1="4.6096597"
       x2="11.998966"
       y2="19.387045" />
    <linearGradient
       inkscape:collect="always"
       xlink:href="#StandardGradient"
       id="linearGradient3052"
       gradientUnits="userSpaceOnUse"
       gradientTransform="matrix(0.9219544,0,0,1.0846523,-1,-4)"
       x1="11.998966"
       y1="4.6096597"
       x2="11.998966"
       y2="19.387045" />
    <linearGradient
       inkscape:collect="always"
       xlink:href="#StandardGradient"
       id="linearGradient3057"
       gradientUnits="userSpaceOnUse"
       gradientTransform="matrix(0.9219544,0,0,1.0846523,-1,-3)"
       x1="11.998966"
       y1="4.6096597"
       x2="11.998966"
       y2="19.387045" />
    <linearGradient
       inkscape:collect="always"
       xlink:href="#StandardGradient"
       id="linearGradient3060"
       gradientUnits="userSpaceOnUse"
       gradientTransform="matrix(0.9219544,0,0,1.0846523,-1,-3)"
       x1="11.998966"
       y1="5.5317268"
       x2="11.998966"
       y2="20.282997" />
    <linearGradient
       inkscape:collect="always"
       xlink:href="#StandardGradient"
       id="linearGradient3066"
       gradientUnits="userSpaceOnUse"
       gradientTransform="matrix(0.9219544,0,0,1.0846523,-1,-2)"
       x1="11.998966"
       y1="5.5317268"
       x2="11.998966"
       y2="20.282997" />
    <linearGradient
       inkscape:collect="always"
       xlink:href="#StandardGradient"
       id="linearGradient3068"
       gradientUnits="userSpaceOnUse"
       gradientTransform="matrix(0.9219544,0,0,1.0846523,-1,-3)"
       x1="11.998966"
       y1="5.5317268"
       x2="11.998966"
       y2="20.282997" />
    <linearGradient
       inkscape:collect="always"
       xlink:href="#StandardGradient"
       id="linearGradient3841"
       gradientUnits="userSpaceOnUse"
       gradientTransform="matrix(0.9219544,0,0,1.0846523,-1,-2)"
       x1="11.998966"
       y1="5.5317268"
       x2="11.998966"
       y2="20.282997" />
    <linearGradient
       inkscape:collect="always"
       xlink:href="#StandardGradient"
       id="linearGradient3845"
       gradientUnits="userSpaceOnUse"
       gradientTransform="matrix(0.9219544,0,0,1.0846523,-1,-3)"
       x1="11.998966"
       y1="5.5317268"
       x2="11.998966"
       y2="20.282997" />
    <linearGradient
       inkscape:collect="always"
       xlink:href="#StandardGradient"
       id="linearGradient3852"
       gradientUnits="userSpaceOnUse"
       gradientTransform="matrix(0.9219544,0,0,1.0846523,-1,-3)"
       x1="11.998966"
       y1="5.5317268"
       x2="11.998966"
       y2="20.282997" />
    <linearGradient
       inkscape:collect="always"
       xlink:href="#StandardGradient"
       id="linearGradient3856"
       gradientUnits="userSpaceOnUse"
       gradientTransform="matrix(0.9219544,0,0,1.0846523,-1,-3)"
       x1="11.998966"
       y1="5.5317268"
       x2="11.998966"
       y2="20.282997" />
    <linearGradient
       inkscape:collect="always"
       xlink:href="#StandardGradient"
       id="linearGradient3061"
       gradientUnits="userSpaceOnUse"
       gradientTransform="matrix(0.9219544,0,0,1.0846523,-2,-2)"
       x1="11.998966"
       y1="5.5317268"
       x2="11.998966"
       y2="20.282997" />
    <linearGradient
       inkscape:collect="always"
       xlink:href="#StandardGradient"
       id="linearGradient3078"
       gradientUnits="userSpaceOnUse"
       gradientTransform="matrix(0.9219544,0,0,1.0846523,-2,-1)"
       x1="11.998966"
       y1="3.6878178"
       x2="11.998966"
       y2="20.282997" />
    <linearGradient
       inkscape:collect="always"
       xlink:href="#StandardGradient"
       id="linearGradient3080"
       gradientUnits="userSpaceOnUse"
       gradientTransform="matrix(0.9219544,0,0,1.0846523,-2,-2)"
       x1="11.998966"
       y1="3.6878178"
       x2="11.998966"
       y2="20.282997" />
    <linearGradient
       inkscape:collect="always"
       xlink:href="#StandardGradient"
       id="linearGradient3853"
       gradientUnits="userSpaceOnUse"
       gradientTransform="matrix(0.9219544,0,0,1.0846523,-2,-1)"
       x1="11.998966"
       y1="3.6878178"
       x2="11.998966"
       y2="20.282997" />
    <linearGradient
       inkscape:collect="always"
       xlink:href="#StandardGradient"
       id="linearGradient3857"
       gradientUnits="userSpaceOnUse"
       gradientTransform="matrix(0.9219544,0,0,1.0846523,-2,-2)"
       x1="11.998966"
       y1="3.6878178"
       x2="11.998966"
       y2="20.282997" />
    <linearGradient
       inkscape:collect="always"
       xlink:href="#StandardGradient"
       id="linearGradient3862"
       gradientUnits="userSpaceOnUse"
       gradientTransform="matrix(0.9219544,0,0,1.0846523,-2,-2)"
       x1="11.998966"
       y1="3.6878178"
       x2="11.998966"
       y2="20.282997" />
    <linearGradient
       inkscape:collect="always"
       xlink:href="#StandardGradient"
       id="linearGradient3866"
       gradientUnits="userSpaceOnUse"
       gradientTransform="matrix(0.9219544,0,0,1.0846523,-2,-2)"
       x1="11.998966"
       y1="3.6878178"
       x2="11.998966"
       y2="20.282997" />
    <radialGradient
       inkscape:collect="always"
       xlink:href="#linearGradient4188"
       id="radialGradient4186"
       cx="12"
       cy="13.998693"
       fx="12"
       fy="13.998693"
       r="8.9979019"
       gradientTransform="matrix(1.6670553,-6.377044e-8,5.1016354e-8,1.3336443,-7.0046643,-5.6692762)"
       gradientUnits="userSpaceOnUse" />
  </defs>
  <metadata
     id="metadata7">
    <rdf:RDF>
      <cc:Work
         rdf:about="">
        <dc:format>image/svg+xml</dc:format>
        <dc:type
           rdf:resource="http://purl.org/dc/dcmitype/StillImage" />
        <dc:title></dc:title>
      </cc:Work>
    </rdf:RDF>
  </metadata>
  <g
     style="display:inline"
     inkscape:label="Calque 1"
     id="layer1"
     inkscape:groupmode="layer"
     transform="translate(0,2)">
    <path
       style="display:inline;opacity:0.05;fill:#ffffff;fill-opacity:1;stroke:none"
       d="M 7.5,0 C 7.50495,-9.1271e-4 7.3388999,0.032595 7.34375,0.03125 7.3486,0.02991 7.182787,0.095516 7.1875,0.09375 7.19221,0.09198 7.0267106,0.158424 7.03125,0.15625 7.03579,0.15408 6.9019195,0.221315 6.90625,0.21875 6.91058,0.21619 6.7459119,0.315436 6.75,0.3125 6.75409,0.30956 6.6211861,0.4407842 6.625,0.4375 6.62881,0.43422 6.4964898,0.534857 6.5,0.53125 6.50351,0.52764 6.403071,0.6601518 6.40625,0.65625 6.40943,0.65235 6.309676,0.7854164 6.3125,0.78125 6.31532,0.77708 6.216304,0.9418986 6.21875,0.9375 6.2212,0.9331 6.1542,1.0670968 6.15625,1.0625 6.1583,1.0579 6.092113,1.2235093 6.09375,1.21875 6.09539,1.21399 6.030038,1.3798849 6.03125,1.375 6.03246,1.37012 5.999222,1.5362226 6,1.53125 6.0007778,1.52628 5.9996627,1.6925217 6,1.6875 6.0002811,1.68332 6.0009757,1.8067194 6,1.84375 5.9998049,1.85116 6.0000176,1.875839 6,1.875 L 6,6.25 C 5.999972,6.24438 6.00058,6.4430912 6,6.4375 5.99942,6.43191 6.032376,6.6305072 6.03125,6.625 6.03012,6.61949 6.064162,6.7866199 6.0625,6.78125 6.06084,6.77588 6.127181,6.9739307 6.125,6.96875 6.12282,6.96357 6.22143,7.1299414 6.21875,7.125 6.21607,7.12006 6.315652,7.2859043 6.3125,7.28125 6.30935,7.2766 6.409844,7.4418222 6.40625,7.4375 6.40266,7.43318 6.5352512,7.5664482 6.53125,7.5625 L 7.96875,9 6,9 a 1.0115201,1.0115201 0 0 0 -1,1 l 0,2 -2,0 a 1.0115201,1.0115201 0 0 0 -1,1 l 0,3 a 1.0115201,1.0115201 0 0 0 1,1 l 2,0 0,2 a 1.0115201,1.0115201 0 0 0 1,1 l 3,0 a 1.0115201,1.0115201 0 0 0 1,-1 l 0,-2 2,0 a 1.0115201,1.0115201 0 0 0 1,-1 l 0,-1.96875 1.4375,1.4375 c -0.004,-0.004 0.129335,0.128555 0.125,0.125 -0.0043,-0.0036 0.160912,0.09686 0.15625,0.09375 -0.0047,-0.0031 0.161195,0.09639 0.15625,0.09375 -0.0049,-0.0026 0.16143,0.09589 0.15625,0.09375 -0.0052,-0.0021 0.192865,0.06413 0.1875,0.0625 -0.0054,-0.0016 0.161749,0.03234 0.15625,0.03125 -0.0055,-0.0011 0.193079,0.0318 0.1875,0.03125 -0.0056,-5.49e-4 0.193106,0 0.1875,0 -0.0056,0 0.193079,-5.49e-4 0.1875,0 -0.0056,5.49e-4 0.192999,-0.03234 0.1875,-0.03125 -0.0055,0.0011 0.161615,-0.03288 0.15625,-0.03125 -0.0054,0.0016 0.19268,-0.06464 0.1875,-0.0625 -0.0052,0.0021 0.161195,-0.09639 0.15625,-0.09375 -0.0049,0.0026 0.160912,-0.09686 0.15625,-0.09375 -0.0047,0.0031 0.160585,-0.0973 0.15625,-0.09375 -0.0043,0.0036 0.128966,-0.128963 0.125,-0.125 l 4.40625,-4.40625 c -0.004,0.004 0.128555,-0.129335 0.125,-0.125 -0.0036,0.0043 0.09686,-0.160912 0.09375,-0.15625 -0.0031,0.0047 0.09639,-0.161195 0.09375,-0.15625 -0.0026,0.0049 0.09589,-0.16143 0.09375,-0.15625 -0.0021,0.0052 0.06413,-0.192865 0.0625,-0.1875 -0.0016,0.0054 0.03234,-0.161749 0.03125,-0.15625 C 21.96765,10.1305 22.00055,9.931921 22,9.9375 21.999451,9.9431 22,9.744394 22,9.75 22,9.7556 21.999451,9.556921 22,9.5625 22.000549,9.5681 21.96766,9.369501 21.96875,9.375 21.96985,9.3805 21.93587,9.213385 21.9375,9.21875 21.9391,9.22415 21.87286,9.02607 21.875,9.03125 21.8771,9.03645 21.77861,8.870055 21.78125,8.875 21.78385,8.87994 21.68439,8.7140876 21.6875,8.71875 21.6906,8.72341 21.5902,8.558165 21.59375,8.5625 c 0.0036,0.00433 -0.128963,-0.1289658 -0.125,-0.125 L 13.5625,0.53125 c 0.0039,0.004 -0.129322,-0.1285941 -0.125,-0.125 C 13.4418,0.40984 13.276596,0.309348 13.28125,0.3125 13.28595,0.31565 13.120059,0.21607 13.125,0.21875 13.1299,0.22143 12.963569,0.122819 12.96875,0.125 12.97395,0.12718 12.77588,0.060838 12.78125,0.0625 12.78665,0.06416 12.619493,0.030124 12.625,0.03125 12.6305,0.03238 12.431909,-5.8e-4 12.4375,0 12.4431,5.8e-4 12.244379,-2.797e-5 12.25,0 L 7.9375,0 C 7.94015,2.475e-4 7.888125,0.00207 7.84375,0 7.7993747,-0.00206802 7.7473393,0 7.75,0 7.7553214,0 7.5884517,4.949e-4 7.59375,0 A 1.0115201,1.0115201 0 0 0 7.5,0 Z M 7.6875,1 A 0.84001639,0.84001639 0 0 1 7.84375,1 L 12.25,1 a 0.84001639,0.84001639 0 0 1 0.59375,0.25 L 20.75,9.15625 a 0.84001639,0.84001639 0 0 1 0,1.1875 L 16.34375,14.75 a 0.84001639,0.84001639 0 0 1 -1.1875,0 L 7.25,6.84375 A 0.84001639,0.84001639 0 0 1 7,6.25 L 7,1.84375 A 0.84001639,0.84001639 0 0 1 7.6875,1 Z M 10.5,3 C 9.6715729,3 9,3.6715729 9,4.5 9,5.3284271 9.6715729,6 10.5,6 11.328427,6 12,5.3284271 12,4.5 12,3.6715729 11.328427,3 10.5,3 Z m 0,1 C 10.781816,4 11,4.2181844 11,4.5 11,4.7818156 10.781816,5 10.5,5 10.218184,5 10,4.7818157 10,4.5 10,4.2181843 10.218184,4 10.5,4 Z m -4.5,6 3,0 0,3 3,0 0,3 -3,0 0,3 -3,0 0,-3 -3,0 0,-3 3,0 0,-3 z M 10,11.03125 10.96875,12 10,12 10,11.03125 Z"
       id="path3864"
       inkscape:connector-curvature="0" />
    <path
       style="display:inline;fill:url(#radialGradient4186);fill-opacity:1;stroke:none"
       d="M 7.6875,1 A 0.84001639,0.84001639 0 0 0 7,1.84375 L 7,6.25 A 0.84001639,0.84001639 0 0 0 7.25,6.84375 L 15.15625,14.75 a 0.84001639,0.84001639 0 0 0 1.1875,0 L 20.75,10.34375 a 0.84001639,0.84001639 0 0 0 0,-1.1875 L 12.84375,1.25 A 0.84001639,0.84001639 0 0 0 12.25,1 L 7.84375,1 A 0.84001639,0.84001639 0 0 0 7.6875,1 Z M 10.5,3 C 11.328427,3 12,3.6715729 12,4.5 12,5.3284271 11.328427,6 10.5,6 9.6715729,6 9,5.3284271 9,4.5 9,3.6715729 9.6715729,3 10.5,3 Z m -4.5,7 0,3 -3,0 0,3 3,0 0,3 3,0 0,-3 3,0 0,-3 -3,0 0,-3 -3,0 z"
       id="path3048"
       inkscape:connector-curvature="0" />
    <path
       style="display:inline;opacity:0.3;fill:#000000;fill-opacity:1;stroke:none"
       d="M 7.6875,1 A 0.84001639,0.84001639 0 0 0 7,1.84375 l 0,0.8125 A 0.84001639,0.84001639 0 0 1 7.6875,2 0.84001639,0.84001639 0 0 1 7.84375,2 L 12.25,2 a 0.84001639,0.84001639 0 0 1 0.59375,0.25 L 20.75,10.15625 a 0.84001639,0.84001639 0 0 1 0.09375,0.0625 A 0.84001639,0.84001639 0 0 0 20.75,9.15625 L 12.84375,1.25 A 0.84001639,0.84001639 0 0 0 12.25,1 L 7.84375,1 A 0.84001639,0.84001639 0 0 0 7.6875,1 Z M 9.09375,5 C 9.040108,5.154319 9,5.327411 9,5.5 9,6.3284271 9.6715729,7 10.5,7 11.328427,7 12,6.3284271 12,5.5 12,5.327411 11.959892,5.154319 11.90625,5 11.70241,5.586412 11.155838,6 10.5,6 9.8441619,6 9.2975898,5.586412 9.09375,5 Z M 6,10 l 0,1 3,0 0,-1 -3,0 z m -3,3 0,1 3,0 0,-1 -3,0 z m 6,0 0,1 3,0 0,-1 -3,0 z"
       id="path3074"
       inkscape:connector-curvature="0" />
    <path
       style="display:inline;opacity:0.2;fill:#ffffff;fill-opacity:1;stroke:none"
       d="M 10.5,3 C 9.6715729,3 9,3.6715729 9,4.5 9,4.672589 9.040108,4.845681 9.09375,5 9.2975898,4.413588 9.8441619,4 10.5,4 11.155838,4 11.70241,4.413588 11.90625,5 11.959892,4.845681 12,4.672589 12,4.5 12,3.6715729 11.328427,3 10.5,3 Z M 7,6.34375 7,7.25 A 0.84001639,0.84001639 0 0 0 7.25,7.84375 L 15.15625,15.75 a 0.84001639,0.84001639 0 0 0 1.1875,0 L 20.75,11.34375 A 0.84001639,0.84001639 0 0 0 20.84375,10.25 0.84001639,0.84001639 0 0 1 20.75,10.34375 L 16.34375,14.75 a 0.84001639,0.84001639 0 0 1 -1.1875,0 L 7.25,6.84375 A 0.84001639,0.84001639 0 0 1 7,6.34375 Z M 3,16 l 0,1 3,0 0,-1 -3,0 z m 6,0 0,1 3,0 0,-1 -3,0 z m -3,3 0,1 3,0 0,-1 -3,0 z"
       id="path3851"
       inkscape:connector-curvature="0" />
    <path
       style="color:#000000;font-style:normal;font-variant:normal;font-weight:normal;font-stretch:normal;font-size:medium;line-height:normal;font-family:sans-serif;text-indent:0;text-align:start;text-decoration:none;text-decoration-line:none;text-decoration-style:solid;text-decoration-color:#000000;letter-spacing:normal;word-spacing:normal;text-transform:none;direction:ltr;block-progression:tb;writing-mode:lr-tb;baseline-shift:baseline;text-anchor:start;white-space:normal;clip-rule:nonzero;display:inline;overflow:visible;visibility:visible;opacity:0.3;isolation:auto;mix-blend-mode:normal;color-interpolation:sRGB;color-interpolation-filters:linearRGB;solid-color:#000000;solid-opacity:1;fill:#000000;fill-opacity:1;fill-rule:nonzero;stroke:none;stroke-width:1.20000005;stroke-linecap:butt;stroke-linejoin:miter;stroke-miterlimit:4;stroke-dasharray:none;stroke-dashoffset:0;stroke-opacity:1;color-rendering:auto;image-rendering:auto;shape-rendering:auto;text-rendering:auto;enable-background:accumulate"
       d="M 7.759766,0.9960938 A 0.84001639,0.84001639 0 0 0 7.6875,1 0.84001639,0.84001639 0 0 0 7,1.84375 L 7,6.25 A 0.84001639,0.84001639 0 0 0 7.25,6.84375 L 15.15625,14.75 a 0.84001639,0.84001639 0 0 0 1.1875,0 L 20.75,10.34375 a 0.84001639,0.84001639 0 0 0 0,-1.1875 L 12.84375,1.25 A 0.84001639,0.84001639 0 0 0 12.25,1 L 7.84375,1 A 0.84001639,0.84001639 0 0 0 7.759766,0.99609 Z m 0.03125,0.6015624 0.02539,0.00195 4.429688,0 c 0.06403,3.186e-4 0.124948,0.026688 0.169922,0.072266 l 0.002,0 7.908203,7.9082028 c 0.09866,0.09873 0.09866,0.241112 0,0.339844 l -4.40625,4.40625 c -0.09873,0.09866 -0.241112,0.09866 -0.339844,0 l -7.908203,-7.908203 0,-0.00195 C 7.626295,6.3710426 7.599929,6.3101231 7.599609,6.2460938 l 0,-4.4082032 0,-0.00586 C 7.597109,1.714014 7.677429,1.6235584 7.791016,1.5976562 Z M 10.5,2.4003906 c -1.152691,0 -2.099609,0.9469181 -2.099609,2.0996094 0,1.1526913 0.946918,2.0996094 2.099609,2.0996094 1.152691,0 2.099609,-0.9469181 2.099609,-2.0996094 0,-1.1526913 -0.946918,-2.0996094 -2.099609,-2.0996094 z M 10.5,3 C 11.328427,3 12,3.671573 12,4.5 12,5.328427 11.328427,6 10.5,6 9.671573,6 9,5.328427 9,4.5 9,3.671573 9.671573,3 10.5,3 Z m -4.5,7 0,3 -3,0 0,3 3,0 0,3 3,0 0,-3 3,0 0,-3 -3,0 0,-3 -3,0 z m 0.599609,0.599609 1.800782,0 0,3 3,0 0,1.800782 -3,0 0,3 -1.800782,0 0,-3 -3,0 0,-1.800782 3,0 0,-3 z"
       id="path3048-3"
       inkscape:connector-curvature="0" />
  </g>
</svg>
