<?xml version="1.0" encoding="UTF-8" standalone="no"?>
<!-- Created with Inkscape (http://www.inkscape.org/) -->

<svg
   xmlns:dc="http://purl.org/dc/elements/1.1/"
   xmlns:cc="http://creativecommons.org/ns#"
   xmlns:rdf="http://www.w3.org/1999/02/22-rdf-syntax-ns#"
   xmlns:svg="http://www.w3.org/2000/svg"
   xmlns="http://www.w3.org/2000/svg"
   xmlns:xlink="http://www.w3.org/1999/xlink"
   xmlns:sodipodi="http://sodipodi.sourceforge.net/DTD/sodipodi-0.dtd"
   xmlns:inkscape="http://www.inkscape.org/namespaces/inkscape"
   width="24"
   height="24"
   id="svg2"
   sodipodi:version="0.32"
   inkscape:version="0.91 r13725"
   version="1.0"
   sodipodi:docname="visualization.svg"
   inkscape:output_extension="org.inkscape.output.svg.inkscape"
   inkscape:export-filename="/home/matt/.icons/Sirocco/scalable/mimetypes/text-plain.png"
   inkscape:export-xdpi="90"
   inkscape:export-ydpi="90"
   sodipodi:modified="true"
   style="display:inline">
  <sodipodi:namedview
     id="base"
     pagecolor="#717171"
     bordercolor="#666666"
     borderopacity="1.0"
     inkscape:pageopacity="0"
     inkscape:pageshadow="2"
     inkscape:zoom="8.939234"
     inkscape:cx="7.2080225"
     inkscape:cy="21.266915"
     inkscape:document-units="px"
     inkscape:current-layer="layer1"
     width="128px"
     height="128px"
     inkscape:showpageshadow="false"
     inkscape:window-width="1366"
     inkscape:window-height="718"
     inkscape:window-x="0"
     inkscape:window-y="25"
     showguides="true"
     inkscape:guide-bbox="true"
     showgrid="true"
     inkscape:window-maximized="1"
     inkscape:snap-bbox="true"
     inkscape:bbox-paths="true"
     inkscape:bbox-nodes="true"
     inkscape:snap-bbox-edge-midpoints="true">
    <sodipodi:guide
       id="guide2226"
       position="32.637397,117.99844"
       orientation="horizontal" />
    <sodipodi:guide
       id="guide2230"
       position="110,57.402344"
       orientation="vertical" />
    <sodipodi:guide
       id="guide2232"
       position="33.760911"
       orientation="horizontal" />
    <sodipodi:guide
       id="guide2231"
       position="46.774696"
       orientation="horizontal" />
    <inkscape:grid
       enabled="true"
       visible="true"
       id="grid3231"
       type="xygrid" />
    <sodipodi:guide
       orientation="1,0"
       position="100,67.625"
       id="guide2713" />
  </sodipodi:namedview>
  <defs
     id="defs4">
    <linearGradient
       gradientUnits="userSpaceOnUse"
       y2="19.387045"
       x2="11.998966"
       y1="0.92195445"
       x1="11.998966"
       gradientTransform="scale(0.9219544,1.0846523)"
       id="linearGradient4180">
      <stop
         id="stop4182"
         offset="0"
         style="stop-color:#000000;stop-opacity:0.23529412" />
      <stop
         id="stop4184"
         offset="1"
         style="stop-color:#000000;stop-opacity:0.54901963" />
    </linearGradient>
    <linearGradient
       inkscape:collect="always"
       xlink:href="#StandardGradient"
       id="linearGradient2549"
       gradientUnits="userSpaceOnUse"
       gradientTransform="matrix(0.9247229,0,0,1.0872097,16.939944,2.9976422)"
       x1="11.998966"
       y1="0.92195445"
       x2="11.998966"
       y2="17.478098" />
    <inkscape:perspective
       sodipodi:type="inkscape:persp3d"
       inkscape:vp_x="0 : 11 : 1"
       inkscape:vp_y="0 : 1000 : 0"
       inkscape:vp_z="22 : 11 : 1"
       inkscape:persp3d-origin="11 : 7.3333333 : 1"
       id="perspective19" />
    <linearGradient
       id="StandardGradient"
       gradientTransform="scale(0.9219544,1.0846523)"
       x1="11.998966"
       y1="0.92195445"
       x2="11.998966"
       y2="19.387045"
       gradientUnits="userSpaceOnUse">
      <stop
         style="stop-color:#000000;stop-opacity:0.86274511;"
         offset="0"
         id="stop3283" />
      <stop
         style="stop-color:#000000;stop-opacity:0.47058824;"
         offset="1"
         id="stop2651" />
    </linearGradient>
    <linearGradient
       inkscape:collect="always"
       xlink:href="#StandardGradient"
       id="linearGradient2406"
       gradientUnits="userSpaceOnUse"
       gradientTransform="matrix(0.9219544,0,0,1.0846523,0,-1)"
       x1="11.998966"
       y1="2.7658634"
       x2="11.998966"
       y2="19.387045" />
    <linearGradient
       inkscape:collect="always"
       xlink:href="#StandardGradient"
       id="linearGradient3198"
       gradientUnits="userSpaceOnUse"
       gradientTransform="matrix(0.9219544,0,0,1.0846523,0,-1)"
       x1="11.998966"
       y1="2.7658634"
       x2="11.998966"
       y2="19.387045" />
    <linearGradient
       inkscape:collect="always"
       xlink:href="#StandardGradient"
       id="linearGradient4636"
       gradientUnits="userSpaceOnUse"
       gradientTransform="matrix(0.9219544,0,0,1.0846523,-0.01723507,0.96875)"
       x1="11.998966"
       y1="2.7658634"
       x2="11.998966"
       y2="15.702114" />
    <linearGradient
       inkscape:collect="always"
       xlink:href="#StandardGradient"
       id="linearGradient2397"
       gradientUnits="userSpaceOnUse"
       gradientTransform="matrix(0.9219544,0,0,1.0846523,-0.01723507,0.96875)"
       x1="11.998966"
       y1="2.7658634"
       x2="11.998966"
       y2="15.702114" />
    <linearGradient
       inkscape:collect="always"
       xlink:href="#StandardGradient"
       id="linearGradient2402"
       gradientUnits="userSpaceOnUse"
       gradientTransform="matrix(0.9219544,0,0,1.0846523,-0.01723507,0.96875)"
       x1="11.998966"
       y1="2.7658634"
       x2="11.998966"
       y2="15.702114" />
    <linearGradient
       inkscape:collect="always"
       xlink:href="#StandardGradient"
       id="linearGradient2405"
       gradientUnits="userSpaceOnUse"
       gradientTransform="matrix(0.9219544,0,0,1.0846523,-0.01723507,-0.03125)"
       x1="11.998966"
       y1="2.7658634"
       x2="11.998966"
       y2="15.702114" />
    <linearGradient
       inkscape:collect="always"
       xlink:href="#StandardGradient"
       id="linearGradient2415"
       gradientUnits="userSpaceOnUse"
       gradientTransform="matrix(0.9219544,0,0,1.0846523,-0.01723507,-0.03125)"
       x1="11.998966"
       y1="2.7658634"
       x2="11.998966"
       y2="15.702114" />
    <linearGradient
       inkscape:collect="always"
       xlink:href="#StandardGradient"
       id="linearGradient2407"
       gradientUnits="userSpaceOnUse"
       gradientTransform="matrix(0.9219544,0,0,1.0846523,-0.01723507,-1.03125)"
       x1="11.998966"
       y1="2.7658634"
       x2="11.998966"
       y2="15.702114" />
    <linearGradient
       inkscape:collect="always"
       xlink:href="#StandardGradient"
       id="linearGradient2542"
       gradientUnits="userSpaceOnUse"
       gradientTransform="matrix(0.9247229,0,0,1.0872097,-2.060056,5.9976422)"
       x1="11.998966"
       y1="0.92195445"
       x2="11.998966"
       y2="17.478098" />
    <linearGradient
       inkscape:collect="always"
       xlink:href="#StandardGradient"
       id="linearGradient2551"
       gradientUnits="userSpaceOnUse"
       gradientTransform="matrix(0.9219544,0,0,1.0846523,-0.01723507,-1.03125)"
       x1="11.998966"
       y1="2.7658634"
       x2="11.998966"
       y2="15.702114" />
    <linearGradient
       inkscape:collect="always"
       xlink:href="#StandardGradient"
       id="linearGradient2554"
       gradientUnits="userSpaceOnUse"
       gradientTransform="matrix(0.9219544,0,0,1.0846523,-0.01723507,-1.03125)"
       x1="11.998966"
       y1="2.7658634"
       x2="11.998966"
       y2="15.702114" />
    <linearGradient
       inkscape:collect="always"
       xlink:href="#StandardGradient"
       id="linearGradient2424"
       gradientUnits="userSpaceOnUse"
       gradientTransform="matrix(0.9219544,0,0,1.0846523,-0.01723507,-0.03125)"
       x1="11.998966"
       y1="2.7658634"
       x2="11.998966"
       y2="15.702114" />
    <linearGradient
       inkscape:collect="always"
       xlink:href="#StandardGradient"
       id="linearGradient3208"
       gradientUnits="userSpaceOnUse"
       gradientTransform="matrix(0.9219544,0,0,1.0846523,-0.01723507,-0.03125)"
       x1="11.998966"
       y1="2.7658634"
       x2="11.998966"
       y2="15.702114" />
    <linearGradient
       inkscape:collect="always"
       xlink:href="#StandardGradient"
       id="linearGradient3213"
       gradientUnits="userSpaceOnUse"
       gradientTransform="matrix(0.9219544,0,0,1.0846523,-0.01723507,-0.03125)"
       x1="11.998966"
       y1="2.7658634"
       x2="11.998966"
       y2="15.702114" />
    <linearGradient
       inkscape:collect="always"
       xlink:href="#StandardGradient"
       id="linearGradient3221"
       gradientUnits="userSpaceOnUse"
       gradientTransform="matrix(0.9219544,0,0,1.0846523,-0.01723507,-0.03125)"
       x1="11.998966"
       y1="2.7658634"
       x2="11.998966"
       y2="15.702114" />
    <linearGradient
       inkscape:collect="always"
       xlink:href="#StandardGradient"
       id="linearGradient3227"
       gradientUnits="userSpaceOnUse"
       gradientTransform="matrix(0.9219544,0,0,1.0846523,-0.01723507,-0.03125)"
       x1="11.998966"
       y1="2.7658634"
       x2="11.998966"
       y2="15.702114" />
    <inkscape:perspective
       id="perspective2850"
       inkscape:persp3d-origin="0.5 : 0.33333333 : 1"
       inkscape:vp_z="1 : 0.5 : 1"
       inkscape:vp_y="0 : 1000 : 0"
       inkscape:vp_x="0 : 0.5 : 1"
       sodipodi:type="inkscape:persp3d" />
    <linearGradient
       inkscape:collect="always"
       xlink:href="#StandardGradient"
       id="linearGradient3644"
       gradientUnits="userSpaceOnUse"
       gradientTransform="matrix(0.9219544,0,0,1.0846523,-30.017235,-0.03125)"
       x1="11.998966"
       y1="2.7658634"
       x2="11.998966"
       y2="15.702114" />
    <clipPath
       clipPathUnits="userSpaceOnUse"
       id="clipPath3651">
      <path
         style="display:inline;fill:#ff00ff;fill-opacity:1;stroke:none"
         d="m -30,0 0,22 22,0 0,-22 -22,0 z m 4,2 3.96875,0 c 0.554,0 1,0.446 1,1 l 0,1 8.5,0 c 0.669688,0 1.243585,0.3963931 1.4375,1 C -11.04026,5.1544781 -11,5.326875 -11,5.5 l 0,0.5 -5,0 -1,0 -4.21875,0 L -27,6 l 0,-1 0,-2 c 0,-0.554 0.446,-1 1,-1 z m -0.5,5 5,0 8,0 2,0 c 0.831,0 1.5,0.669 1.5,1.5 l 0,8 c 0,0.831 -0.669,1.5 -1.5,1.5 l -0.5,0 0,0.25 0,1.25 c 0,0.831 -0.669,1.5 -1.5,1.5 l -8,0 c -0.831,0 -1.5,-0.669 -1.5,-1.5 l 0,-1.5 -3.5,0 c -0.831,0 -1.5,-0.669 -1.5,-1.5 l 0,-8 C -28,7.669 -27.331,7 -26.5,7 Z m 6,2 C -20.777,9 -21,9.223 -21,9.5 l 0,9 c 0,0.277 0.223,0.5 0.5,0.5 l 6,0 c 0.277,0 0.5,-0.223 0.5,-0.5 l 0,-9 C -14,9.223 -14.223,9 -14.5,9 l -2.90625,0 -2.09375,0 -1,0 z"
         id="path3653"
         inkscape:connector-curvature="0" />
    </clipPath>
    <linearGradient
       inkscape:collect="always"
       xlink:href="#StandardGradient"
       id="linearGradient3681"
       gradientUnits="userSpaceOnUse"
       x1="11"
       y1="2"
       x2="11"
       y2="20.027756"
       gradientTransform="translate(0,1)" />
    <linearGradient
       inkscape:collect="always"
       xlink:href="#StandardGradient"
       id="linearGradient3685"
       gradientUnits="userSpaceOnUse"
       x1="11"
       y1="2"
       x2="11"
       y2="20.027756" />
    <linearGradient
       inkscape:collect="always"
       xlink:href="#StandardGradient"
       id="linearGradient3690"
       gradientUnits="userSpaceOnUse"
       x1="11"
       y1="2"
       x2="11"
       y2="20.027756"
       gradientTransform="translate(-30,0)" />
    <clipPath
       clipPathUnits="userSpaceOnUse"
       id="clipPath3697">
      <path
         style="display:inline;fill:#ff00ff;fill-opacity:1;stroke:none"
         d="m -30,0 0,22 22,0 0,-22 -22,0 z m 11,1.9375 c 0,0 0.522549,3.1535233 1.78125,3.5625 1.258701,0.4089767 3.53125,-1.8125 3.53125,-1.8125 0,0 -1.40292,2.8355352 -0.625,3.90625 0.77792,1.0707148 3.9375,0.59375 3.9375,0.59375 0,0 -2.84375,1.4890236 -2.84375,2.8125 0,1.323476 2.84375,2.8125 2.84375,2.8125 0,0 -3.15958,-0.476965 -3.9375,0.59375 -0.77792,1.070715 0.625,3.90625 0.625,3.90625 0,0 -2.272549,-2.221477 -3.53125,-1.8125 C -18.477451,16.908977 -19,20.0625 -19,20.0625 c 0,0 -0.52255,-3.153523 -1.78125,-3.5625 -1.258701,-0.408977 -3.53125,1.8125 -3.53125,1.8125 0,0 1.40292,-2.835535 0.625,-3.90625 -0.77792,-1.070715 -3.9375,-0.59375 -3.9375,-0.59375 0,0 2.84375,-1.489024 2.84375,-2.8125 0,-1.3234764 -2.84375,-2.8125 -2.84375,-2.8125 0,0 3.15958,0.4769649 3.9375,-0.59375 0.77792,-1.0707149 -0.625,-3.90625 -0.625,-3.90625 0,0 2.272549,2.2214767 3.53125,1.8125 C -19.522549,5.0910233 -19,1.9375 -19,1.9375 Z M -19,7 c -2.209139,0 -4,1.790861 -4,4 0,2.209139 1.790861,4 4,4 2.209139,0 4,-1.790861 4,-4 0,-2.209139 -1.790861,-4 -4,-4 z"
         id="path3699"
         inkscape:connector-curvature="0" />
    </clipPath>
    <linearGradient
       inkscape:collect="always"
       xlink:href="#StandardGradient"
       id="linearGradient5044"
       gradientUnits="userSpaceOnUse"
       x1="11"
       y1="2"
       x2="11"
       y2="20.027756" />
    <linearGradient
       inkscape:collect="always"
       xlink:href="#StandardGradient"
       id="linearGradient5048"
       gradientUnits="userSpaceOnUse"
       x1="12"
       y1="3"
       x2="11"
       y2="20.027756" />
    <radialGradient
       inkscape:collect="always"
       xlink:href="#linearGradient4180"
       id="radialGradient4178"
       cx="11"
       cy="13.855173"
       fx="11"
       fy="13.855173"
       r="8.625"
       gradientTransform="matrix(1.8550725,-1.1084015e-7,8.3130112e-8,1.3913044,-8.4058373,-6.2772615)"
       gradientUnits="userSpaceOnUse" />
  </defs>
  <metadata
     id="metadata7">
    <rdf:RDF>
      <cc:Work
         rdf:about="">
        <dc:format>image/svg+xml</dc:format>
        <dc:type
           rdf:resource="http://purl.org/dc/dcmitype/StillImage" />
        <dc:title></dc:title>
      </cc:Work>
    </rdf:RDF>
  </metadata>
  <g
     style="display:inline"
     inkscape:label="Calque 1"
     id="layer1"
     inkscape:groupmode="layer"
     transform="translate(0,2)">
    <path
       style="color:#000000;display:inline;overflow:visible;visibility:visible;opacity:0.05;fill:#ffffff;fill-opacity:1;fill-rule:nonzero;stroke:none;stroke-width:0.30000001;marker:none;enable-background:accumulate"
       d="m 11.906211,-0.03175 a 0.96565336,0.96565336 0 0 0 -0.84375,0.8125 c 0,0 -0.149395,0.7199675 -0.40625,1.46875 -0.128428,0.3743912 -0.276656,0.7486524 -0.4375,1 C 10.057867,3.5008476 9.8927278,3.5976309 9.9062109,3.59325 9.9170695,3.5897218 9.7463378,3.6067988 9.4687109,3.4995 9.191084,3.3922012 8.8545299,3.1929755 8.5312109,2.96825 7.8845729,2.5187991 7.3749609,1.9995 7.3749609,1.9995 a 0.96565336,0.96565336 0 0 0 -1.5625,1.125 c 0,0 0.3367528,0.6557572 0.5625,1.40625 0.1128736,0.3752464 0.2030237,0.7665758 0.21875,1.0625 0.015726,0.2959242 -0.068258,0.4454251 -0.0625,0.4375 0.00825,-0.011352 -0.1175937,0.1121673 -0.40625,0.1875 -0.2886563,0.075333 -0.6981394,0.08724 -1.09375,0.09375 -0.7912213,0.01302 -1.5,-0.09375 -1.5,-0.09375 a 0.96565336,0.96565336 0 0 0 -0.59375,1.8125 c 0,0 0.64631,0.3635374 1.28125,0.84375 0.31747,0.240106 0.6220254,0.517295 0.8125,0.75 0.1904746,0.232705 0.21875,0.389912 0.21875,0.375 0,-0.01491 -0.028276,0.142295 -0.21875,0.375 -0.1904745,0.232705 -0.49503,0.509894 -0.8125,0.75 -0.63494,0.480213 -1.28125,0.84375 -1.28125,0.84375 a 0.96565336,0.96565336 0 0 0 0.59375,1.8125 c 0,0 0.7087787,-0.10677 1.5,-0.09375 0.3956106,0.0065 0.8050937,0.01842 1.09375,0.09375 0.2886563,0.07533 0.4144976,0.198852 0.40625,0.1875 -0.00576,-0.0079 0.078226,0.141576 0.0625,0.4375 -0.015726,0.295924 -0.1058764,0.687254 -0.21875,1.0625 -0.2257472,0.750493 -0.5625,1.40625 -0.5625,1.40625 a 0.96565336,0.96565336 0 0 0 1.5625,1.125 c 0,0 0.509612,-0.519299 1.15625,-0.96875 0.323319,-0.224725 0.6598731,-0.423951 0.9375,-0.53125 0.2776269,-0.107299 0.4483586,-0.09022 0.4375,-0.09375 -0.013483,-0.0044 0.1516561,0.0924 0.3125001,0.34375 0.160844,0.251348 0.309072,0.625609 0.4375,1 0.256855,0.748783 0.40625,1.46875 0.40625,1.46875 a 0.96565336,0.96565336 0 0 0 1.875,0 c 0,0 0.149395,-0.719968 0.40625,-1.46875 0.128428,-0.374391 0.276656,-0.748652 0.4375,-1 0.160844,-0.251348 0.325983,-0.348131 0.3125,-0.34375 -0.01086,0.0035 0.159873,-0.01355 0.4375,0.09375 0.277627,0.107299 0.614181,0.306525 0.9375,0.53125 0.646638,0.449451 1.15625,0.96875 1.15625,0.96875 a 0.96565336,0.96565336 0 0 0 1.5625,-1.125 c 0,0 -0.336753,-0.655757 -0.5625,-1.40625 -0.112874,-0.375246 -0.203024,-0.766576 -0.21875,-1.0625 -0.01573,-0.295924 0.06826,-0.445425 0.0625,-0.4375 -0.0082,0.01135 0.117594,-0.112167 0.40625,-0.1875 0.288656,-0.07533 0.698139,-0.08724 1.09375,-0.09375 0.791221,-0.01302 1.5,0.09375 1.5,0.09375 a 0.96565336,0.96565336 0 0 0 0.59375,-1.8125 c 0,0 -0.64631,-0.363537 -1.28125,-0.84375 -0.31747,-0.240106 -0.622025,-0.517295 -0.8125,-0.75 -0.190475,-0.232705 -0.21875,-0.389913 -0.21875,-0.375 0,0.01491 0.02828,-0.142295 0.21875,-0.375 0.190475,-0.232705 0.49503,-0.509894 0.8125,-0.75 0.63494,-0.4802126 1.28125,-0.84375 1.28125,-0.84375 a 0.96565336,0.96565336 0 0 0 -0.59375,-1.8125 c 0,0 -0.708779,0.1067699 -1.5,0.09375 C 18.5731,6.30549 18.163617,6.293583 17.874961,6.21825 17.586305,6.142917 17.460463,6.0193981 17.468711,6.03075 c 0.0058,0.00793 -0.07823,-0.1415759 -0.0625,-0.4375 0.01573,-0.2959241 0.105876,-0.6872536 0.21875,-1.0625 0.225747,-0.7504928 0.5625,-1.40625 0.5625,-1.40625 a 0.96565336,0.96565336 0 0 0 -1.5625,-1.125 c 0,0 -0.509612,0.5192991 -1.15625,0.96875 -0.323319,0.2247254 -0.659873,0.4239512 -0.9375,0.53125 -0.277627,0.1072988 -0.448358,0.090222 -0.4375,0.09375 0.01348,0.00438 -0.151656,-0.092402 -0.3125,-0.34375 -0.160844,-0.2513476 -0.309072,-0.6256088 -0.4375,-1 -0.256855,-0.7487825 -0.40625,-1.46875 -0.40625,-1.46875 a 0.96565336,0.96565336 0 0 0 -1.03125,-0.8125 z m 0.09375,0.96875 c 0,0 0.522549,3.1535233 1.78125,3.5625 1.258701,0.4089767 3.53125,-1.8125 3.53125,-1.8125 0,0 -1.40292,2.8355352 -0.625,3.90625 0.77792,1.0707148 3.9375,0.59375 3.9375,0.59375 0,0 -2.84375,1.4890236 -2.84375,2.8125 0,1.323476 2.84375,2.8125 2.84375,2.8125 0,0 -3.15958,-0.476965 -3.9375,0.59375 -0.77792,1.070715 0.625,3.90625 0.625,3.90625 0,0 -2.272549,-2.221477 -3.53125,-1.8125 -1.258701,0.408977 -1.78125,3.5625 -1.78125,3.5625 0,0 -0.52255,-3.153523 -1.78125,-3.5625 -1.2587009,-0.408977 -3.5312501,1.8125 -3.5312501,1.8125 0,0 1.4029199,-2.835535 0.625,-3.90625 -0.7779199,-1.070715 -3.9375,-0.59375 -3.9375,-0.59375 0,0 2.8437501,-1.489024 2.84375,-2.8125 -10e-8,-1.3234764 -2.84375,-2.8125 -2.84375,-2.8125 0,0 3.1595802,0.4769649 3.9375,-0.59375 0.7779198,-1.0707149 -0.625,-3.90625 -0.625,-3.90625 0,0 2.2725492,2.2214767 3.5312501,1.8125 1.258701,-0.4089767 1.78125,-3.5625 1.78125,-3.5625 z m 0,5.0625 c -2.2091391,0 -4.0000001,1.790861 -4.0000001,4 0,2.209139 1.790861,4 4.0000001,4 2.209139,0 4,-1.790861 4,-4 0,-2.209139 -1.790861,-4 -4,-4 z m 0,0.96875 c 1.687313,0 3.03125,1.3439366 3.03125,3.03125 0,1.687313 -1.343937,3.03125 -3.03125,3.03125 -1.687313,0 -3.0312501,-1.343937 -3.0312501,-3.03125 0,-1.6873134 1.3439371,-3.03125 3.0312501,-3.03125 z"
       id="path5046"
       inkscape:connector-curvature="0" />
    <path
       style="color:#000000;display:inline;overflow:visible;visibility:visible;opacity:1;fill:url(#radialGradient4178);fill-opacity:1;fill-rule:nonzero;stroke:none;stroke-width:0.30000001;marker:none;enable-background:accumulate"
       d="m 11.999961,0.937 c 0,0 -0.522549,3.1535233 -1.78125,3.5625 C 8.9600101,4.9084767 6.6874609,2.687 6.6874609,2.687 c 0,0 1.4029198,2.8355351 0.625,3.90625 -0.7779198,1.0707149 -3.9375,0.59375 -3.9375,0.59375 0,0 2.8437499,1.4890236 2.84375,2.8125 1e-7,1.323476 -2.84375,2.8125 -2.84375,2.8125 0,0 3.1595801,-0.476965 3.9375,0.59375 0.7779199,1.070715 -0.625,3.90625 -0.625,3.90625 0,0 2.2725492,-2.221477 3.5312501,-1.8125 1.2587,0.408977 1.78125,3.5625 1.78125,3.5625 0,0 0.522549,-3.153523 1.78125,-3.5625 1.258701,-0.408977 3.53125,1.8125 3.53125,1.8125 0,0 -1.40292,-2.835535 -0.625,-3.90625 0.77792,-1.070715 3.9375,-0.59375 3.9375,-0.59375 0,0 -2.84375,-1.489024 -2.84375,-2.8125 0,-1.3234764 2.84375,-2.8125 2.84375,-2.8125 0,0 -3.15958,0.4769648 -3.9375,-0.59375 -0.77792,-1.0707148 0.625,-3.90625 0.625,-3.90625 0,0 -2.272549,2.2214767 -3.53125,1.8125 C 12.52251,4.0905233 11.999961,0.937 11.999961,0.937 Z m 0,5.0625 c 2.209139,0 4,1.790861 4,4 0,2.209139 -1.790861,4 -4,4 -2.2091391,0 -4.0000001,-1.790861 -4.0000001,-4 0,-2.209139 1.790861,-4 4.0000001,-4 z"
       id="path2880"
       inkscape:connector-curvature="0" />
    <path
       style="color:#000000;display:inline;overflow:visible;visibility:visible;opacity:0.3;fill:#000000;fill-opacity:1;fill-rule:nonzero;stroke:none;stroke-width:0.30000001;marker:none;enable-background:accumulate"
       d="m 11.999961,0.937 c 0,0 -0.522549,3.1535233 -1.78125,3.5625 C 8.9600101,4.9084767 6.6874609,2.687 6.6874609,2.687 c 0,0 0.3113415,0.6907924 0.5625,1.5 0.749399,0.6277937 2.0911048,1.5976642 2.9687501,1.3125 1.258701,-0.4089767 1.78125,-3.5625 1.78125,-3.5625 0,0 0.522549,3.1535233 1.78125,3.5625 0.877645,0.2851642 2.219351,-0.6847063 2.96875,-1.3125 0.251159,-0.8092076 0.5625,-1.5 0.5625,-1.5 0,0 -2.272549,2.2214767 -3.53125,1.8125 C 12.52251,4.0905233 11.999961,0.937 11.999961,0.937 Z M 7.4999609,6.15575 c -0.036986,0.1673287 -0.09598,0.3115335 -0.1875,0.4375 -0.7779198,1.0707149 -3.9375,0.59375 -3.9375,0.59375 0,0 0.8482694,0.4640529 1.625,1.09375 0.9047241,-0.00794 1.9133114,-0.1380639 2.3125,-0.6875 0.2499832,-0.3440724 0.2690012,-0.8815981 0.1875,-1.4375 z m 9.0000001,0 c -0.0815,0.5559019 -0.06248,1.0934276 0.1875,1.4375 0.394074,0.5423967 1.385162,0.6762315 2.28125,0.6875 0.778747,-0.6330428 1.65625,-1.09375 1.65625,-1.09375 0,0 -3.15958,0.4769648 -3.9375,-0.59375 -0.09152,-0.1259664 -0.150514,-0.2701713 -0.1875,-0.4375 z M 6.0937109,10.4995 c -0.5443115,1.171634 -2.71875,2.3125 -2.71875,2.3125 0,0 0.7834215,-0.104726 1.65625,-0.09375 0.6264176,-0.509214 1.1875,-1.128749 1.1875,-1.71875 0,-0.165434 -0.047241,-0.332624 -0.125,-0.5 z m 1.96875,0 c -0.020613,0.164532 -0.0625,0.32988 -0.0625,0.5 0,2.209139 1.790861,4 4.0000001,4 2.209139,0 4,-1.790861 4,-4 0,-0.17012 -0.04189,-0.335468 -0.0625,-0.5 -0.247066,1.972046 -1.898481,3.5 -3.9375,3.5 -2.0390193,0 -3.6904342,-1.527954 -3.9375001,-3.5 z m 9.8437501,0 c -0.07776,0.167376 -0.125,0.334566 -0.125,0.5 0,0.590001 0.561082,1.209536 1.1875,1.71875 0.872829,-0.01098 1.65625,0.09375 1.65625,0.09375 0,0 -2.174438,-1.140866 -2.71875,-2.3125 z m -10.4062501,4.375 c -0.1787101,1.165964 -0.8125,2.4375 -0.8125,2.4375 0,0 0.2371263,-0.227425 0.5625,-0.5 0.2019386,-0.650626 0.362588,-1.375921 0.25,-1.9375 z m 9.0000001,0 c -0.112588,0.561579 0.04806,1.286874 0.25,1.9375 0.325374,0.272575 0.5625,0.5 0.5625,0.5 0,0 -0.63379,-1.271536 -0.8125,-2.4375 z"
       id="path2894"
       inkscape:connector-curvature="0" />
    <path
       style="color:#000000;display:inline;overflow:visible;visibility:visible;opacity:0.2;fill:#ffffff;fill-opacity:1;fill-rule:nonzero;stroke:none;stroke-width:0.30000001;marker:none;enable-background:accumulate"
       d="m 6.6874609,3.687 c 0,0 0.6337899,1.2715357 0.8125,2.4375 0.112588,-0.5615785 -0.048061,-1.2868739 -0.25,-1.9375 -0.3253737,-0.2725752 -0.5625,-0.5 -0.5625,-0.5 z m 10.6250001,0 c 0,0 -0.237126,0.2274248 -0.5625,0.5 -0.201939,0.6506261 -0.362588,1.3759215 -0.25,1.9375 0.17871,-1.1659643 0.8125,-2.4375 0.8125,-2.4375 z m -5.3125,2.3125 c -2.2091391,0 -4.0000001,1.790861 -4.0000001,4 0,0.17012 0.041887,0.335468 0.0625,0.5 0.2470659,-1.9720464 1.8984808,-3.5 3.9375001,-3.5 2.039019,0 3.690434,1.5279536 3.9375,3.5 0.02061,-0.164532 0.0625,-0.32988 0.0625,-0.5 0,-2.209139 -1.790861,-4 -4,-4 z M 3.3749609,8.187 c 0,0 2.1744384,1.140866 2.71875,2.3125 0.077759,-0.167376 0.125,-0.334566 0.125,-0.5 0,-0.592494 -0.5891742,-1.2083515 -1.21875,-1.71875 -0.8583592,0.00753 -1.625,-0.09375 -1.625,-0.09375 z m 17.2500001,0 c 0,0 -0.783421,0.104726 -1.65625,0.09375 -0.626418,0.5092141 -1.1875,1.128749 -1.1875,1.71875 0,0.165434 0.04724,0.332624 0.125,0.5 0.544312,-1.171634 2.71875,-2.3125 2.71875,-2.3125 z M 5.0312109,12.71825 c -0.7787474,0.633043 -1.65625,1.09375 -1.65625,1.09375 0,0 3.1595801,-0.476965 3.9375,0.59375 0.09152,0.125966 0.1505137,0.270171 0.1875,0.4375 0.081501,-0.555902 0.062483,-1.093428 -0.1875,-1.4375 -0.3940743,-0.542397 -1.3851624,-0.676232 -2.28125,-0.6875 z m 13.9062501,0 c -0.887135,0.0146 -1.86104,0.152143 -2.25,0.6875 -0.249983,0.344072 -0.269001,0.881598 -0.1875,1.4375 0.03699,-0.167329 0.09598,-0.311534 0.1875,-0.4375 0.77792,-1.070715 3.9375,-0.59375 3.9375,-0.59375 0,0 -0.877503,-0.460707 -1.65625,-1.09375 -0.01163,1.46e-4 -0.01958,-1.92e-4 -0.03125,0 z M 9.9687109,15.437 c -0.8712718,-0.06292 -2.0365243,0.803479 -2.71875,1.375 -0.2511585,0.809208 -0.5625,1.5 -0.5625,1.5 0,0 2.2725492,-2.221477 3.5312501,-1.8125 1.2587,0.408977 1.78125,3.5625 1.78125,3.5625 0,0 0.522549,-3.153523 1.78125,-3.5625 1.258701,-0.408977 3.53125,1.8125 3.53125,1.8125 0,0 -0.311341,-0.690792 -0.5625,-1.5 -0.749399,-0.627794 -2.091105,-1.597664 -2.96875,-1.3125 -1.258701,0.408977 -1.78125,3.5625 -1.78125,3.5625 0,0 -0.52255,-3.153523 -1.78125,-3.5625 -0.07867,-0.02556 -0.164213,-0.0563 -0.2500001,-0.0625 z"
       id="path3679"
       inkscape:connector-curvature="0" />
    <path
       style="color:#000000;font-style:normal;font-variant:normal;font-weight:normal;font-stretch:normal;font-size:medium;line-height:normal;font-family:sans-serif;text-indent:0;text-align:start;text-decoration:none;text-decoration-line:none;text-decoration-style:solid;text-decoration-color:#000000;letter-spacing:normal;word-spacing:normal;text-transform:none;direction:ltr;block-progression:tb;writing-mode:lr-tb;baseline-shift:baseline;text-anchor:start;white-space:normal;clip-rule:nonzero;display:inline;overflow:visible;visibility:visible;opacity:0.3;isolation:auto;mix-blend-mode:normal;color-interpolation:sRGB;color-interpolation-filters:linearRGB;solid-color:#000000;solid-opacity:1;fill:#000000;fill-opacity:1;fill-rule:nonzero;stroke:none;stroke-width:1.20000005;stroke-linecap:butt;stroke-linejoin:miter;stroke-miterlimit:4;stroke-dasharray:none;stroke-dashoffset:0;stroke-opacity:1;marker:none;color-rendering:auto;image-rendering:auto;shape-rendering:auto;text-rendering:auto;enable-background:accumulate"
       d="m 11.999961,0.937 c 0,0 -0.522549,3.1535233 -1.78125,3.5625 C 8.9600099,4.9084767 6.6874609,2.687 6.6874609,2.687 c 0,0 1.40292,2.8355351 0.625,3.90625 -0.77792,1.070715 -3.9375,0.59375 -3.9375,0.59375 0,0 2.84375,1.489024 2.84375,2.8125 0,1.323476 -2.84375,2.8125 -2.84375,2.8125 0,0 3.15958,-0.476965 3.9375,0.59375 0.77792,1.070715 -0.625,3.90625 -0.625,3.90625 0,0 2.272549,-2.221477 3.5312501,-1.8125 1.2587,0.408977 1.78125,3.5625 1.78125,3.5625 0,0 0.522549,-3.153523 1.78125,-3.5625 1.258701,-0.408977 3.53125,1.8125 3.53125,1.8125 0,0 -1.40292,-2.835535 -0.625,-3.90625 0.77792,-1.070715 3.9375,-0.59375 3.9375,-0.59375 0,0 -2.84375,-1.489024 -2.84375,-2.8125 0,-1.323476 2.84375,-2.8125 2.84375,-2.8125 0,0 -3.15958,0.476965 -3.9375,-0.59375 -0.77792,-1.0707148 0.625,-3.90625 0.625,-3.90625 0,0 -2.272549,2.2214767 -3.53125,1.8125 C 12.52251,4.0905233 11.999961,0.937 11.999961,0.937 Z m 0,2.1445312 c 0.133116,0.3444315 0.26468,0.6958763 0.466797,1.0117188 0.266478,0.4164187 0.610312,0.8080611 1.128906,0.9765625 0.516963,0.1679714 1.024455,0.056659 1.484375,-0.1210937 0.354757,-0.1371084 0.673975,-0.3448205 0.988281,-0.546875 -0.0933,0.3579167 -0.190947,0.7215053 -0.210937,1.0976562 -0.02611,0.4912652 0.02484,1.0083258 0.34375,1.4472656 C 16.521588,7.387835 17.000198,7.59343 17.478477,7.71825 17.843435,7.8135 18.221045,7.831034 18.591758,7.851062 18.300971,8.08806 18.002921,8.32782 17.76168,8.622547 17.447773,9.00605 17.181602,9.453761 17.181602,9.9995 c 0,0.545739 0.266171,0.99345 0.580078,1.376953 0.241241,0.294727 0.539291,0.534487 0.830078,0.771485 -0.370713,0.02003 -0.748323,0.03757 -1.113281,0.132812 -0.478279,0.12482 -0.956889,0.330415 -1.277344,0.771484 -0.318909,0.43894 -0.369857,0.956001 -0.34375,1.447266 0.01999,0.376151 0.117639,0.739739 0.210937,1.097656 -0.314306,-0.202054 -0.633524,-0.409767 -0.988281,-0.546875 -0.45992,-0.177752 -0.967412,-0.289066 -1.484375,-0.121093 -0.518594,0.1685 -0.862428,0.560143 -1.128906,0.976562 -0.202116,0.315842 -0.333681,0.667287 -0.466797,1.011719 -0.133116,-0.344432 -0.264681,-0.695877 -0.466797,-1.011719 -0.266478,-0.416419 -0.610312,-0.808061 -1.128906,-0.976562 -0.5169631,-0.167972 -1.0244551,-0.05666 -1.4843751,0.121093 -0.354757,0.137108 -0.673975,0.344821 -0.988281,0.546875 0.0933,-0.357917 0.190947,-0.721505 0.210937,-1.097656 0.02611,-0.491265 -0.02484,-1.008326 -0.34375,-1.447266 -0.320455,-0.441069 -0.799065,-0.646664 -1.277344,-0.771484 -0.364958,-0.09525 -0.742568,-0.112785 -1.113281,-0.132812 0.290787,-0.236998 0.588837,-0.476758 0.830078,-0.771485 0.313907,-0.383503 0.580078,-0.831214 0.580078,-1.376953 0,-0.545739 -0.266171,-0.99345 -0.580078,-1.376953 C 5.9970009,8.32782 5.6989509,8.088059 5.4081639,7.851062 5.7788769,7.831032 6.1564869,7.813492 6.5214449,7.71825 6.9997239,7.59343 7.4783339,7.387835 7.7987889,6.9467656 8.1176979,6.5078258 8.1686459,5.9907652 8.1425389,5.4995 8.1225489,5.1233491 8.0248999,4.7597605 7.9316019,4.4018438 c 0.314306,0.2020546 0.633524,0.4097666 0.988281,0.546875 0.45992,0.1777523 0.967412,0.2890651 1.4843751,0.1210937 0.518594,-0.1685014 0.862428,-0.5601438 1.128906,-0.9765625 0.202117,-0.3158425 0.333681,-0.6672874 0.466797,-1.0117188 z m 0,2.3183594 c -2.5334031,0 -4.5996091,2.0662064 -4.5996091,4.5996094 0,2.533403 2.066206,4.599609 4.5996091,4.599609 2.533403,0 4.599609,-2.066206 4.599609,-4.599609 0,-2.533403 -2.066206,-4.5996094 -4.599609,-4.5996094 z m 0,0.5996094 c 2.209139,0 4,1.790861 4,4 0,2.209139 -1.790861,4 -4,4 -2.2091391,0 -4.0000001,-1.790861 -4.0000001,-4 0,-2.209139 1.790861,-4 4.0000001,-4 z"
       id="path2880-8"
       inkscape:connector-curvature="0" />
  </g>
</svg>
