<?xml version="1.0" encoding="UTF-8" standalone="no"?>
<!-- Created with Inkscape (http://www.inkscape.org/) -->

<svg
   xmlns:dc="http://purl.org/dc/elements/1.1/"
   xmlns:cc="http://creativecommons.org/ns#"
   xmlns:rdf="http://www.w3.org/1999/02/22-rdf-syntax-ns#"
   xmlns:svg="http://www.w3.org/2000/svg"
   xmlns="http://www.w3.org/2000/svg"
   xmlns:xlink="http://www.w3.org/1999/xlink"
   xmlns:sodipodi="http://sodipodi.sourceforge.net/DTD/sodipodi-0.dtd"
   xmlns:inkscape="http://www.inkscape.org/namespaces/inkscape"
   width="24"
   height="24"
   id="svg2"
   sodipodi:version="0.32"
   inkscape:version="0.91 r13725"
   version="1.0"
   sodipodi:docname="zoom-fit.svg"
   inkscape:output_extension="org.inkscape.output.svg.inkscape"
   inkscape:export-filename="/home/matt/.icons/Sirocco/scalable/mimetypes/text-plain.png"
   inkscape:export-xdpi="90"
   inkscape:export-ydpi="90"
   sodipodi:modified="true"
   style="display:inline">
  <sodipodi:namedview
     id="base"
     pagecolor="#838383"
     bordercolor="#cc0000"
     borderopacity="1"
     inkscape:pageopacity="1"
     inkscape:pageshadow="2"
     inkscape:zoom="22.027846"
     inkscape:cx="-12.383822"
     inkscape:cy="11.337104"
     inkscape:document-units="px"
     inkscape:current-layer="layer1"
     width="128px"
     height="128px"
     inkscape:showpageshadow="false"
     inkscape:window-width="1366"
     inkscape:window-height="718"
     inkscape:window-x="0"
     inkscape:window-y="25"
     showguides="true"
     inkscape:guide-bbox="true"
     showgrid="true"
     inkscape:window-maximized="1"
     borderlayer="true">
    <inkscape:grid
       enabled="true"
       visible="true"
       id="grid3231"
       type="xygrid"
       empspacing="8"
       snapvisiblegridlinesonly="true" />
    <sodipodi:guide
       orientation="1,0"
       position="12,6"
       id="guide3791" />
    <sodipodi:guide
       orientation="0,1"
       position="14,9"
       id="guide3793" />
  </sodipodi:namedview>
  <defs
     id="defs4">
    <linearGradient
       id="StandardGradient"
       gradientTransform="scale(0.9219544,1.0846523)"
       x1="11.998966"
       y1="0.92195445"
       x2="11.998966"
       y2="19.387045"
       gradientUnits="userSpaceOnUse">
      <stop
         style="stop-color:#000000;stop-opacity:0.23529412;"
         offset="0"
         id="stop3283" />
      <stop
         id="stop3850"
         offset="0.69999999"
         style="stop-color:#000000;stop-opacity:0.39215686;" />
      <stop
         style="stop-color:#000000;stop-opacity:0.55;"
         offset="1"
         id="stop2651" />
    </linearGradient>
    <radialGradient
       inkscape:collect="always"
       xlink:href="#StandardGradient"
       id="radialGradient3055"
       gradientUnits="userSpaceOnUse"
       gradientTransform="matrix(2.1111111,0,0,1.2222222,-33.866667,-2.9081853)"
       cx="13.200001"
       cy="13.015788"
       fx="13.200001"
       fy="13.015788"
       r="9" />
    <radialGradient
       inkscape:collect="always"
       xlink:href="#StandardGradient"
       id="radialGradient3071"
       gradientUnits="userSpaceOnUse"
       gradientTransform="matrix(2.1111111,0,0,1.2222222,6.133333,-2.9081853)"
       cx="13.200001"
       cy="13.015788"
       fx="13.200001"
       fy="13.015788"
       r="9" />
    <radialGradient
       inkscape:collect="always"
       xlink:href="#StandardGradient"
       id="radialGradient3102"
       gradientUnits="userSpaceOnUse"
       gradientTransform="matrix(1.7777777,0,0,1.2222222,-9.7824554,-2.9081853)"
       cx="12.252632"
       cy="13.015788"
       fx="12.252632"
       fy="13.015788"
       r="9" />
    <radialGradient
       inkscape:collect="always"
       xlink:href="#StandardGradient"
       id="radialGradient3857"
       cx="12"
       cy="13.001254"
       fx="12"
       fy="13.001254"
       r="8.116992"
       gradientTransform="matrix(1.9711736,2.4161042e-8,-1.3590585e-8,1.1087851,-10.65432,-2.4157277)"
       gradientUnits="userSpaceOnUse" />
    <radialGradient
       inkscape:collect="always"
       xlink:href="#StandardGradient"
       id="radialGradient3863"
       gradientUnits="userSpaceOnUse"
       gradientTransform="matrix(1.9711736,2.4161042e-8,-1.3590585e-8,1.1087851,-11.654083,-1.4155974)"
       cx="12"
       cy="13.001254"
       fx="12"
       fy="13.001254"
       r="8.116992" />
    <radialGradient
       inkscape:collect="always"
       xlink:href="#StandardGradient"
       id="radialGradient3867"
       gradientUnits="userSpaceOnUse"
       gradientTransform="matrix(1.9711736,2.4161042e-8,-1.3590585e-8,1.1087851,-11.654083,-1.4155974)"
       cx="12"
       cy="13.001254"
       fx="12"
       fy="13.001254"
       r="8.116992" />
    <radialGradient
       inkscape:collect="always"
       xlink:href="#StandardGradient"
       id="radialGradient3870"
       gradientUnits="userSpaceOnUse"
       gradientTransform="matrix(1.9711736,2.4161042e-8,-1.3590585e-8,1.1087851,-11.654083,-1.4155974)"
       cx="12"
       cy="13.001254"
       fx="12"
       fy="13.001254"
       r="8.116992" />
  </defs>
  <metadata
     id="metadata7">
    <rdf:RDF>
      <cc:Work
         rdf:about="">
        <dc:format>image/svg+xml</dc:format>
        <dc:type
           rdf:resource="http://purl.org/dc/dcmitype/StillImage" />
        <dc:title></dc:title>
      </cc:Work>
    </rdf:RDF>
  </metadata>
  <g
     style="display:inline"
     inkscape:label="Calque 1"
     id="layer1"
     inkscape:groupmode="layer"
     transform="translate(0,2)">
    <path
       inkscape:connector-curvature="0"
       style="display:inline;opacity:0.05;fill:#ffffff;fill-opacity:1;stroke:none"
       d="m 9.9997627,0.99986965 c -1.7980679,0 -3.5806426,0.73689275 -4.9375,2.09375005 -2.7190168,2.7190169 -2.719017,7.1247343 0,9.8437503 2.1523916,2.152392 5.3639193,2.635392 7.9687503,1.375 0.03936,-0.01904 0.07914,-0.07069 0.125,-0.09375 0.02199,-0.0087 0.0647,-0.02134 0.09375,-0.03125 0.132053,-0.04505 0.293542,-0.08216 0.4375,-0.09375 0.08782,-0.0071 0.133521,4.26e-4 0.15625,0 -0.0124,-0.0074 -0.02154,-0.01694 0.0625,0.21875 0.09525,0.267113 0.318652,0.724902 0.71875,1.125 a 0.99000173,0.99000173 0 0 0 0,0.03125 l 3.1875,3.15625 a 0.99000173,0.99000173 0 0 0 0.0625,0.0625 c 0.01359,0.01067 0.03145,0.03139 0.03125,0.03125 0.0052,0.0044 0.02554,-0.0047 0.03125,0 a 0.99000173,0.99000173 0 0 0 0.0625,0.03125 c 0.01415,0.01627 0.0095,0.0466 0.03125,0.0625 0.13212,0.09657 0.335522,0.192617 0.59375,0.28125 0.516456,0.177267 1.381825,0.08693 1.96875,-0.5 0.588671,-0.588671 0.703154,-1.447544 0.53125,-1.96875 -0.171904,-0.521206 -0.432285,-0.774679 -0.4375,-0.78125 a 0.99000173,0.99000173 0 0 0 -0.09375,-0.0625 l -3.15625,-3.15625 c -0.393432,-0.393432 -0.834347,-0.591758 -1.09375,-0.6875 -0.220315,-0.08132 -0.217694,-0.06299 -0.21875,-0.0625 -0.0026,0.002 0.0047,-0.02843 0,-0.03125 0.0063,-0.03404 0.0037,-0.124818 0.03125,-0.28125 0.04167,-0.236741 0.163651,-0.513103 0.15625,-0.5 -4.24e-4,7.5e-4 0.0013,-0.03408 0,-0.03125 1.244022,-2.5999714 0.769863,-5.7926376 -1.375,-7.9375003 C 13.580406,1.7367626 11.797831,0.99986965 9.9997627,0.99986965 Z m 0,1.00000005 c 1.5358363,0 3.0790313,0.6102813 4.2500003,1.78125 1.854034,1.8540341 2.23777,4.6085902 1.15625,6.8437503 -0.03521,0.07516 -0.589371,1.316878 0,1.90625 0.357494,0.357493 0.796875,0.234375 1.34375,0.78125 l 3.15625,3.15625 c 0.01043,0.01314 0.717638,0.719862 0,1.4375 -0.714877,0.714876 -1.402459,-0.0038 -1.40625,0 l -3.1875,-3.15625 c -0.546875,-0.546875 -0.423756,-1.017506 -0.78125,-1.375 -0.481975,-0.481975 -1.387167,-0.205795 -1.75,-0.0625 -0.05805,0.03049 -0.12868,0.06529 -0.1875,0.09375 -2.23516,1.08152 -4.9897164,0.697784 -6.8437503,-1.15625 -2.3419377,-2.3419373 -2.3419377,-6.1268125 0,-8.4687503 1.1709688,-1.1709687 2.7141647,-1.78125 4.25,-1.78125 z m 0,1.53125 c -2.4839997,0 -4.5000001,2.0160002 -4.5,4.5 0,2.4840003 2.0160005,4.5000003 4.5,4.5000003 2.4840003,0 4.5000003,-2.016 4.5000003,-4.5000003 0,-2.4839999 -2.016,-4.5 -4.5000003,-4.5 z m 0,1 c 1.9484003,0 3.5000003,1.5515997 3.5000003,3.5 0,1.9484 -1.5516,3.5000003 -3.5000003,3.5000003 -1.9483998,0 -3.5,-1.5516003 -3.5,-3.5000003 -10e-8,-1.9484001 1.5516,-3.5 3.5,-3.5 z"
       id="path3211" />
    <path
       inkscape:connector-curvature="0"
       style="display:inline;fill:url(#radialGradient3857);fill-opacity:1;stroke:none"
       d="m 10.006216,2.0137379 c -1.5358354,0 -3.0790313,0.6102812 -4.2500001,1.7812499 -2.3419377,2.3419378 -2.3419377,6.1268129 0,8.4687502 1.8540339,1.854034 4.6085901,2.23777 6.8437501,1.15625 0.05882,-0.02846 0.129446,-0.06326 0.1875,-0.09375 0.362833,-0.143295 1.268025,-0.419475 1.75,0.0625 0.357494,0.357494 0.234375,0.828125 0.78125,1.375 l 3.1875,3.15625 c 0.0038,-0.0038 0.691373,0.714876 1.40625,0 0.717638,-0.717638 0.01043,-1.424359 0,-1.4375 l -3.15625,-3.15625 c -0.546875,-0.546875 -0.986256,-0.423757 -1.34375,-0.78125 -0.589371,-0.589372 -0.03521,-1.831091 0,-1.90625 1.08152,-2.2351603 0.697784,-4.9897161 -1.15625,-6.8437502 -1.170969,-1.1709687 -2.714164,-1.7812499 -4.25,-1.7812499 z m 0,1.5312499 c 2.484,0 4.5,2.0160002 4.5,4.4999999 0,2.4840003 -2.016,4.5000003 -4.5,4.5000003 -2.4839996,0 -4.5000001,-2.016 -4.5000001,-4.5000003 -1e-7,-2.4839996 2.0160003,-4.4999999 4.5000001,-4.4999999 z"
       id="Symbol"
       inkscape:label="#path2923" />
    <path
       inkscape:connector-curvature="0"
       style="display:inline;opacity:0.3;fill:#000000;fill-opacity:1;stroke:none"
       d="m 9.9997627,1.9998697 c -1.5358356,10e-8 -3.0790312,0.6102813 -4.25,1.78125 -1.284913,1.2849131 -1.8437819,3.0104985 -1.71875,4.6875 0.1280747,-1.3353083 0.6941523,-2.6629023 1.71875,-3.6875 1.1709688,-1.1709687 2.7141644,-1.78125 4.25,-1.78125 1.5358363,0 3.0790313,0.6102812 4.2500003,1.78125 1.030964,1.0309636 1.596176,2.3437793 1.71875,3.6875 0.127768,-1.6793821 -0.432171,-3.400921 -1.71875,-4.6875 -1.170969,-1.1709689 -2.714164,-1.78125 -4.2500003,-1.78125 z m -4.4375,6.53125 c -0.018751,0.1667056 -0.0625,0.3283118 -0.0625,0.5 0,2.4840003 2.0160002,4.5000003 4.5,4.5000003 2.4840003,0 4.5000003,-2.016 4.5000003,-4.5000003 0,-0.1716882 -0.04375,-0.3332944 -0.0625,-0.5 -0.252536,2.2452053 -2.125188,4.0000003 -4.4375003,4.0000003 -2.3123116,0 -4.1849635,-1.754795 -4.4375,-4.0000003 z M 15.218513,12.24987 c -0.100413,0.423869 -0.15018,0.943569 0.1875,1.28125 0.357494,0.357493 0.796875,0.234375 1.34375,0.78125 l 3.15625,3.15625 c 0.0033,0.0042 0.07973,0.126119 0.15625,0.25 0.430372,-0.644702 -0.146779,-1.238066 -0.15625,-1.25 l -3.15625,-3.15625 c -0.546875,-0.546875 -0.986256,-0.423757 -1.34375,-0.78125 -0.08922,-0.08922 -0.144924,-0.168446 -0.1875,-0.28125 z"
       id="BevelShadow"
       inkscape:label="#path3167" />
    <path
       inkscape:connector-curvature="0"
       style="display:inline;opacity:0.2;fill:#ffffff;fill-opacity:1;stroke:none"
       d="m 8.8435127,2.1248697 c -0.9473728,0.1872409 -1.8383934,0.6150423 -2.625,1.25 0.7863091,-0.6437637 1.6776303,-1.0612243 2.625,-1.25 z m 2.3125003,0 c 0.366316,0.072993 0.743016,0.1703707 1.09375,0.3125 -0.362075,-0.1494707 -0.714802,-0.2369898 -1.09375,-0.3125 z m 1.65625,0.59375 c 0.271849,0.1447023 0.529615,0.3117763 0.78125,0.5 -0.245782,-0.1852306 -0.515917,-0.3564449 -0.78125,-0.5 z m -2.8125003,0.8125 c -2.4839997,0 -4.4999999,2.0160001 -4.5,4.5 0,0.1716882 0.043749,0.3332944 0.0625,0.5 0.2525365,-2.245205 2.1251885,-4 4.4375,-4 2.3123113,-10e-8 4.1849643,1.7547952 4.4375003,4 0.01875,-0.1667056 0.0625,-0.3283118 0.0625,-0.5 0,-2.4839999 -2.016001,-4.5000002 -4.5000003,-4.5 z m 4.4375003,5 c -0.03157,0.2806506 -0.07636,0.549644 -0.15625,0.8125 0.08071,-0.262421 0.124712,-0.5321049 0.15625,-0.8125 z m -0.15625,0.8125 c -0.23967,0.7885673 -0.689673,1.4917383 -1.28125,2.0312503 0.600026,-0.53867 1.038325,-1.241372 1.28125,-2.0312503 z m -1.28125,2.0312503 c -0.394384,0.359675 -0.870324,0.644157 -1.375,0.84375 0.508263,-0.198294 0.975874,-0.485437 1.375,-0.84375 z m -1.375,0.84375 c -0.504676,0.199593 -1.046922,0.3125 -1.6250003,0.3125 0.5761503,0 1.1185213,-0.114902 1.6250003,-0.3125 z m -1.6250003,0.3125 c -0.5780779,0 -1.1203242,-0.112907 -1.625,-0.3125 0.5064786,0.197598 1.04885,0.3125 1.625,0.3125 z m -1.625,-0.3125 c -0.2523379,-0.0998 -0.4916793,-0.232713 -0.71875,-0.375 0.2330575,0.145004 0.4598624,0.273997 0.71875,0.375 z m -0.71875,-0.375 c -0.2147966,-0.134595 -0.4368275,-0.269184 -0.625,-0.4375 0.1881968,0.166255 0.4108028,0.304231 0.625,0.4375 z m -2.09375,-3.3125003 c 0.029101,0.2587286 0.085125,0.506415 0.15625,0.75 -0.070792,-0.244736 -0.1270246,-0.490168 -0.15625,-0.75 z m 0.15625,-4.75 c -0.4461504,0.4461504 -0.7737196,0.9361877 -1.03125,1.46875 0.2744458,-0.5215467 0.6233867,-1.0296367 1.0625,-1.46875 -0.00559,0.00555 -0.025677,-0.00557 -0.03125,0 z m 10.2812503,4.40625 c -0.02414,0.836393 -0.220657,1.666436 -0.59375,2.4375003 -0.02948,0.06292 -0.406016,0.96287 -0.1875,1.59375 0.07319,-0.297615 0.173154,-0.563125 0.1875,-0.59375 0.480125,-0.992266 0.582082,-2.0826673 0.59375,-3.1562503 10e-4,-0.094183 0.0022,-0.1868754 0,-0.28125 z m -12.0000003,0.09375 c -0.00121,0.06247 0,0.1251693 0,0.1875 1e-7,0.042439 -0.00405,0.08274 0,0.125 0,1.6770263 0.4650869,3.3713373 1.75,4.6562503 1.8540341,1.854034 4.6085903,2.23777 6.8437503,1.15625 0.05882,-0.02846 0.129446,-0.06326 0.1875,-0.09375 0.362833,-0.143295 1.268025,-0.419475 1.75,0.0625 0.357494,0.357494 0.234375,0.828125 0.78125,1.375 l 3.1875,3.15625 c 0.0038,-0.0038 0.691373,0.714877 1.40625,0 0.348452,-0.348452 0.3125,-0.917443 0.3125,-1.1875 0,-0.128906 0.0035,-0.213497 0,-0.3125 -0.03445,0.167378 -0.13309,0.32059 -0.3125,0.5 -0.714877,0.714876 -1.402459,-0.0038 -1.40625,0 l -3.1875,-3.15625 c -0.546875,-0.546875 -0.423756,-1.017506 -0.78125,-1.375 -0.481975,-0.481975 -1.387167,-0.205795 -1.75,-0.0625 -0.05805,0.03049 -0.12868,0.06529 -0.1875,0.09375 -2.23516,1.08152 -4.9897162,0.697784 -6.8437503,-1.15625 -1.1061152,-1.106115 -1.6887383,-2.5229253 -1.75,-3.9687503 z m 1.78125,1.1875 c 0.064871,0.190539 0.1299892,0.384394 0.21875,0.5625003 C 5.9106267,9.8512117 5.8461529,9.6611807 5.7810127,9.4686197 Z m 0.28125,0.6875003 c 0.1189029,0.221231 0.2533666,0.427873 0.40625,0.625 -0.1488251,-0.194329 -0.2899754,-0.407342 -0.40625,-0.625 z m 0.40625,0.625 c 0.1650132,0.212767 0.3313909,0.413804 0.53125,0.59375 -0.1971922,-0.179837 -0.3685473,-0.381301 -0.53125,-0.59375 z m 8.9375003,1.75 c 0.357494,0.357493 0.796875,0.234375 1.34375,0.78125 -0.546875,-0.546875 -0.986256,-0.423757 -1.34375,-0.78125 z"
       id="BevelHighlight"
       inkscape:label="#path3174" />
    <path
       style="display:inline;opacity:0.3;fill:#000000;fill-opacity:1;stroke:none"
       d="m 9.9997627,1.9998697 c -1.5358353,0 -3.0790312,0.6102813 -4.25,1.78125 -2.3419377,2.3419378 -2.3419377,6.126813 0,8.4687503 1.8540339,1.854034 4.6085903,2.23777 6.8437503,1.15625 0.05882,-0.02846 0.129446,-0.06326 0.1875,-0.09375 0.362833,-0.143295 1.268025,-0.419475 1.75,0.0625 0.357494,0.357494 0.234375,0.828125 0.78125,1.375 l 3.1875,3.15625 c 0.0038,-0.0038 0.691373,0.714876 1.40625,0 0.717638,-0.717638 0.01043,-1.424359 0,-1.4375 l -3.15625,-3.15625 c -0.546875,-0.546875 -0.986256,-0.423757 -1.34375,-0.78125 -0.589371,-0.589372 -0.03521,-1.831091 0,-1.90625 1.08152,-2.2351603 0.697784,-4.9897162 -1.15625,-6.8437503 -1.170969,-1.1709687 -2.714164,-1.78125 -4.2500003,-1.78125 z m 0,0.53125 c 1.3941773,0 2.8044493,0.554449 3.8750003,1.625 1.69286,1.69286 2.047393,4.2145379 1.0625,6.2500003 -0.04034,0.0861 -0.198362,0.404144 -0.28125,0.875 -0.08289,0.470856 -0.111717,1.138282 0.375,1.625 0.277907,0.277907 0.578082,0.362513 0.78125,0.4375 0.203168,0.07499 0.353884,0.135134 0.5625,0.34375 l 3.125,3.125 0.03125,0.03125 c 0.03103,0.03649 0.08743,0.136077 0.125,0.25 0.04329,0.13126 0.109652,0.202848 -0.125,0.4375 -0.233469,0.233468 -0.282127,0.167603 -0.40625,0.125 -0.06206,-0.0213 -0.141563,-0.06017 -0.1875,-0.09375 -0.02297,-0.01679 -0.05015,-0.02051 -0.0625,-0.03125 l -0.03125,-0.03125 c -0.0054,-0.0046 -0.03086,-0.03096 -0.03125,-0.03125 -1.95e-4,-1.43e-4 -0.06239,-0.03119 -0.0625,-0.03125 l -3.0625,-3.0625 c -0.205015,-0.205015 -0.268497,-0.351464 -0.34375,-0.5625 -0.07525,-0.211036 -0.154084,-0.529084 -0.4375,-0.8125 -0.395458,-0.395458 -0.927433,-0.471004 -1.34375,-0.4375 -0.416317,0.0335 -0.755193,0.165659 -0.96875,0.25 a 0.53480322,0.53480322 0 0 0 -0.0625,0.03125 c -0.04828,0.02536 -0.100205,0.06663 -0.15625,0.09375 -2.035462,0.984893 -4.5571405,0.63036 -6.2500003,-1.0625 -2.1382378,-2.1382373 -2.1382379,-5.5805123 0,-7.7187503 1.070551,-1.0705509 2.4808239,-1.625 3.875,-1.625 z m 0,0.46875 c -2.773333,0 -5.0312501,2.2579171 -5.03125,5.03125 0,2.7733333 2.2579172,5.0312503 5.03125,5.0312503 2.7733333,0 5.0312503,-2.257917 5.0312503,-5.0312503 0,-2.7733329 -2.257917,-5.03125 -5.0312503,-5.03125 z m 0,0.53125 c 2.4840003,0 4.5000003,2.0160003 4.5000003,4.5 0,2.4840003 -2.016,4.5000003 -4.5000003,4.5000003 -2.4839995,0 -4.5,-2.016 -4.5,-4.5000003 -10e-8,-2.4839996 2.0160003,-4.5 4.5,-4.5 z"
       id="path3859"
       inkscape:connector-curvature="0" />
  </g>
</svg>
