<?xml version="1.0" encoding="UTF-8" standalone="no"?>
<!-- Created with Inkscape (http://www.inkscape.org/) -->

<svg
   xmlns:dc="http://purl.org/dc/elements/1.1/"
   xmlns:cc="http://creativecommons.org/ns#"
   xmlns:rdf="http://www.w3.org/1999/02/22-rdf-syntax-ns#"
   xmlns:svg="http://www.w3.org/2000/svg"
   xmlns="http://www.w3.org/2000/svg"
   xmlns:xlink="http://www.w3.org/1999/xlink"
   xmlns:sodipodi="http://sodipodi.sourceforge.net/DTD/sodipodi-0.dtd"
   xmlns:inkscape="http://www.inkscape.org/namespaces/inkscape"
   width="24"
   height="24"
   id="svg2"
   sodipodi:version="0.32"
   inkscape:version="0.91 r13725"
   version="1.0"
   sodipodi:docname="zoom-original.svg"
   inkscape:output_extension="org.inkscape.output.svg.inkscape"
   inkscape:export-filename="/home/matt/.icons/Sirocco/scalable/mimetypes/text-plain.png"
   inkscape:export-xdpi="90"
   inkscape:export-ydpi="90"
   sodipodi:modified="true"
   style="display:inline">
  <sodipodi:namedview
     id="base"
     pagecolor="#838383"
     bordercolor="#cc0000"
     borderopacity="1"
     inkscape:pageopacity="1"
     inkscape:pageshadow="2"
     inkscape:zoom="22.027846"
     inkscape:cx="-12.383822"
     inkscape:cy="11.337104"
     inkscape:document-units="px"
     inkscape:current-layer="layer1"
     width="128px"
     height="128px"
     inkscape:showpageshadow="false"
     inkscape:window-width="1366"
     inkscape:window-height="718"
     inkscape:window-x="0"
     inkscape:window-y="25"
     showguides="true"
     inkscape:guide-bbox="true"
     showgrid="true"
     inkscape:window-maximized="1"
     borderlayer="true">
    <inkscape:grid
       enabled="true"
       visible="true"
       id="grid3231"
       type="xygrid"
       empspacing="8"
       snapvisiblegridlinesonly="true" />
    <sodipodi:guide
       orientation="1,0"
       position="12,6"
       id="guide3791" />
    <sodipodi:guide
       orientation="0,1"
       position="14,9"
       id="guide3793" />
  </sodipodi:namedview>
  <defs
     id="defs4">
    <linearGradient
       id="StandardGradient"
       gradientTransform="scale(0.9219544,1.0846523)"
       x1="11.998966"
       y1="0.92195445"
       x2="11.998966"
       y2="19.387045"
       gradientUnits="userSpaceOnUse">
      <stop
         style="stop-color:#000000;stop-opacity:0.23529412;"
         offset="0"
         id="stop3283" />
      <stop
         id="stop3850"
         offset="0.69999999"
         style="stop-color:#000000;stop-opacity:0.39215686;" />
      <stop
         style="stop-color:#000000;stop-opacity:0.55;"
         offset="1"
         id="stop2651" />
    </linearGradient>
    <radialGradient
       inkscape:collect="always"
       xlink:href="#StandardGradient"
       id="radialGradient3911"
       cx="12"
       cy="13.001264"
       fx="12"
       fy="13.001264"
       r="8.116992"
       gradientTransform="matrix(1.9711736,-6.6259838e-8,3.7271161e-8,1.1087852,-11.654083,-1.4156071)"
       gradientUnits="userSpaceOnUse" />
    <radialGradient
       inkscape:collect="always"
       xlink:href="#StandardGradient"
       id="radialGradient3964"
       cx="12"
       cy="13.001264"
       fx="12"
       fy="13.001264"
       r="8.116992"
       gradientTransform="matrix(1.9711736,-6.6259838e-8,3.7271161e-8,1.1087852,-10.653633,-2.4157374)"
       gradientUnits="userSpaceOnUse" />
    <radialGradient
       inkscape:collect="always"
       xlink:href="#StandardGradient"
       id="radialGradient3970"
       gradientUnits="userSpaceOnUse"
       gradientTransform="matrix(1.9711736,-6.6259838e-8,3.7271161e-8,1.1087852,-11.654083,-1.4156071)"
       cx="12"
       cy="13.001264"
       fx="12"
       fy="13.001264"
       r="8.116992" />
    <radialGradient
       inkscape:collect="always"
       xlink:href="#StandardGradient"
       id="radialGradient3974"
       gradientUnits="userSpaceOnUse"
       gradientTransform="matrix(1.9711736,-6.6259838e-8,3.7271161e-8,1.1087852,-11.654083,-1.4156071)"
       cx="12"
       cy="13.001264"
       fx="12"
       fy="13.001264"
       r="8.116992" />
    <radialGradient
       inkscape:collect="always"
       xlink:href="#StandardGradient"
       id="radialGradient3976"
       gradientUnits="userSpaceOnUse"
       gradientTransform="matrix(1.9711736,-6.6259838e-8,3.7271161e-8,1.1087852,-11.654083,-1.4156071)"
       cx="12"
       cy="13.001264"
       fx="12"
       fy="13.001264"
       r="8.116992" />
  </defs>
  <metadata
     id="metadata7">
    <rdf:RDF>
      <cc:Work
         rdf:about="">
        <dc:format>image/svg+xml</dc:format>
        <dc:type
           rdf:resource="http://purl.org/dc/dcmitype/StillImage" />
        <dc:title></dc:title>
      </cc:Work>
    </rdf:RDF>
  </metadata>
  <g
     style="display:inline"
     inkscape:label="Calque 1"
     id="layer1"
     inkscape:groupmode="layer"
     transform="translate(0,2)">
    <path
       inkscape:connector-curvature="0"
       style="display:inline;opacity:0.05;fill:#ffffff;fill-opacity:1;stroke:none"
       d="m 10.00045,0.96861965 c -1.8068187,10e-8 -3.6056895,0.73068965 -4.96875,2.09375005 -2.7315998,2.7315999 -2.7316002,7.1746513 0,9.9062503 2.1623479,2.162348 5.382833,2.610111 8,1.34375 0.03759,-0.01819 0.08128,-0.04057 0.125,-0.0625 0.03086,-0.01548 0.06199,-0.01457 0.09375,-0.03125 0.130267,-0.04437 0.297816,-0.08251 0.4375,-0.09375 0.06817,-0.0055 0.102203,-0.0016 0.125,0 -0.01573,-0.0109 -0.02193,-0.01801 0.0625,0.21875 0.09568,0.268328 0.314425,0.720675 0.71875,1.125 l 3.1875,3.15625 a 1.023038,1.023038 0 0 0 0.03125,0.0625 c 0.0036,0.0033 0.04436,0.01547 0.0625,0.03125 a 1.023038,1.023038 0 0 0 0.0625,0.03125 c 0.03126,0.0259 0.04963,0.0615 0.09375,0.09375 0.133988,0.09794 0.300022,0.191158 0.5625,0.28125 0.524956,0.180184 1.436667,0.09458 2.03125,-0.5 0.596341,-0.596341 0.705941,-1.501596 0.53125,-2.03125 -0.174691,-0.529654 -0.432285,-0.743429 -0.4375,-0.75 A 1.023038,1.023038 0 0 0 20.62545,15.74987 L 17.4692,12.59362 c -0.397436,-0.397436 -0.833129,-0.591308 -1.09375,-0.6875 -0.221349,-0.0817 -0.220357,-0.0655 -0.21875,-0.0625 -0.0029,4.26e-4 0.0056,-0.02689 0,-0.03125 0.0011,-0.04089 0.0096,-0.127243 0.03125,-0.25 0.04322,-0.245513 0.182128,-0.555239 0.15625,-0.5 l -0.03125,0 C 17.57931,8.4452027 17.131548,5.2247176 14.9692,3.0623697 13.606139,1.6993093 11.807269,0.96861965 10.00045,0.96861965 Z m 0,1.03125005 c 1.535836,0 3.079031,0.6102811 4.25,1.78125 1.854034,1.8540341 2.23777,4.6085899 1.15625,6.8437503 -0.03521,0.07516 -0.589371,1.316878 0,1.90625 0.357494,0.357493 0.796875,0.234375 1.34375,0.78125 l 3.15625,3.15625 c 0.01043,0.01314 0.717638,0.719862 0,1.4375 -0.714877,0.714876 -1.402459,-0.0038 -1.40625,0 l -3.1875,-3.15625 c -0.546875,-0.546875 -0.423756,-1.017506 -0.78125,-1.375 -0.481975,-0.481975 -1.387167,-0.205795 -1.75,-0.0625 -0.05805,0.03049 -0.12868,0.06529 -0.1875,0.09375 -2.23516,1.08152 -4.9897159,0.697784 -6.84375,-1.15625 -2.3419377,-2.3419373 -2.3419375,-6.1268127 0,-8.4687503 1.1709688,-1.1709687 2.7141644,-1.7812499 4.25,-1.78125 z m 0,1.53125 c -2.4839997,0 -4.4999999,2.0160001 -4.5,4.5 0,2.4840003 2.0160002,4.5000003 4.5,4.5000003 2.484,0 4.5,-2.016 4.5,-4.5000003 0,-2.4839999 -2.016001,-4.5000002 -4.5,-4.5 z m -1,1.46875 2,0 0,6.0000003 -2,0 0,-4.0000003 -1,0.03125 0,-1.03125 c 0.934915,-0.127594 1,-0.9999998 1,-1 z m 3.03125,0.28125 c 0.852965,0.6316395 1.4375,1.5991088 1.4375,2.75 0,1.150891 -0.584535,2.1183613 -1.4375,2.7500003 l 0,-5.5000003 z m -5.0625,1.125 0,0.625 a 1.023038,1.023038 0 0 0 1,1.03125 l 0,2.7187503 C 7.1162353,10.149481 6.5317,9.1820107 6.5317,8.0311197 c 0,-0.6032898 0.1709201,-1.1321864 0.4375,-1.625 z"
       id="path3874" />
    <path
       inkscape:connector-curvature="0"
       style="display:inline;fill:url(#radialGradient3964);fill-opacity:1;stroke:none"
       d="m 10.00045,1.9998697 c -1.5358356,10e-8 -3.0790312,0.6102813 -4.25,1.78125 -2.3419375,2.3419376 -2.3419377,6.126813 0,8.4687503 1.8540341,1.854034 4.60859,2.23777 6.84375,1.15625 0.05882,-0.02846 0.129446,-0.06326 0.1875,-0.09375 0.362833,-0.143295 1.268025,-0.419475 1.75,0.0625 0.357494,0.357494 0.234375,0.828125 0.78125,1.375 l 3.1875,3.15625 c 0.0038,-0.0038 0.691373,0.714876 1.40625,0 0.717638,-0.717638 0.01043,-1.424359 0,-1.4375 l -3.15625,-3.15625 c -0.546875,-0.546875 -0.986256,-0.423757 -1.34375,-0.78125 -0.589371,-0.589372 -0.03521,-1.831091 0,-1.90625 1.08152,-2.2351604 0.697784,-4.9897162 -1.15625,-6.8437503 -1.170969,-1.1709689 -2.714164,-1.78125 -4.25,-1.78125 z m 0,1.53125 c 2.483999,-2e-7 4.5,2.0160001 4.5,4.5 0,2.4840003 -2.016,4.5000003 -4.5,4.5000003 -2.4839998,0 -4.5,-2.016 -4.5,-4.5000003 1e-7,-2.4839999 2.0160003,-4.5 4.5,-4.5 z m -1,1.46875 c 0,2e-7 -0.065085,0.872406 -1,1 l 0,1.03125 1,-0.03125 0,4.0000003 2,0 0,-6.0000003 -2,0 z"
       id="Symbol" />
    <path
       inkscape:connector-curvature="0"
       style="display:inline;opacity:0.3;fill:#000000;fill-opacity:1;stroke:none"
       d="m 10.00045,1.9998697 c -1.5358356,10e-8 -3.0790312,0.6102813 -4.25,1.78125 -1.284913,1.2849131 -1.8437819,3.0104985 -1.71875,4.6875 0.1280747,-1.3353083 0.6941523,-2.6629023 1.71875,-3.6875 1.1709688,-1.1709687 2.7141644,-1.78125 4.25,-1.78125 1.535836,0 3.079031,0.6102812 4.25,1.78125 1.030964,1.0309636 1.596176,2.3437793 1.71875,3.6875 0.127768,-1.6793821 -0.432171,-3.400921 -1.71875,-4.6875 -1.170969,-1.1709689 -2.714164,-1.78125 -4.25,-1.78125 z m -1,3 c 0,2e-7 -0.065085,0.872406 -1,1 l 0,1 c 0.934915,-0.127594 1,-0.9999998 1,-1 l 2,0 0,-1 -2,0 z m -3.4375,3.53125 c -0.018751,0.1667056 -0.0625,0.3283118 -0.0625,0.5 0,2.4840003 2.0160002,4.5000003 4.5,4.5000003 2.484,0 4.5,-2.016 4.5,-4.5000003 0,-0.1716882 -0.04375,-0.3332944 -0.0625,-0.5 -0.252536,2.2452053 -2.125188,4.0000003 -4.4375,4.0000003 -2.3123116,0 -4.1849635,-1.754795 -4.4375,-4.0000003 z M 15.2192,12.24987 c -0.100413,0.423869 -0.15018,0.943569 0.1875,1.28125 0.357494,0.357493 0.796875,0.234375 1.34375,0.78125 l 3.15625,3.15625 c 0.0033,0.0042 0.07973,0.126119 0.15625,0.25 0.430372,-0.644702 -0.146779,-1.238066 -0.15625,-1.25 L 16.75045,13.31237 C 16.203575,12.765495 15.764194,12.888613 15.4067,12.53112 15.31748,12.4419 15.261776,12.362674 15.2192,12.24987 Z"
       id="BevelShadow" />
    <path
       inkscape:connector-curvature="0"
       style="display:inline;opacity:0.2;fill:#ffffff;fill-opacity:1;stroke:none"
       d="m 12.81295,2.7186197 c 0.271849,0.1447023 0.529615,0.3117763 0.78125,0.5 -0.245782,-0.1852306 -0.515917,-0.3564449 -0.78125,-0.5 z m -2.8125,0.8125 c -2.4839997,0 -4.4999999,2.0160001 -4.5,4.5 0,0.1716882 0.043749,0.3332944 0.0625,0.5 0.2525365,-2.245205 2.1251885,-4 4.4375,-4 2.312311,-10e-8 4.184964,1.7547952 4.4375,4 0.01875,-0.1667056 0.0625,-0.3283118 0.0625,-0.5 0,-2.4839999 -2.016001,-4.5000002 -4.5,-4.5 z m -4.28125,0.25 C 5.2730496,4.2272701 4.9454804,4.7173074 4.68795,5.2498697 4.9623958,4.728323 5.3113367,4.220233 5.75045,3.7811197 c -0.00559,0.00555 -0.025677,-0.00557 -0.03125,0 z m 3.28125,3.21875 -1,0.03125 0,1 1,-0.03125 0,-1 z m 7,1.1875 c -0.02414,0.836393 -0.220657,1.666436 -0.59375,2.4375003 -0.02948,0.06292 -0.406016,0.96287 -0.1875,1.59375 0.07319,-0.297615 0.173154,-0.563125 0.1875,-0.59375 0.480125,-0.992266 0.582082,-2.0826673 0.59375,-3.1562503 10e-4,-0.094183 0.0022,-0.1868754 0,-0.28125 z m -12,0.09375 c -0.00121,0.06247 0,0.1251693 0,0.1875 1e-7,0.042439 -0.00405,0.08274 0,0.125 0,1.6770263 0.4650869,3.3713373 1.75,4.6562503 1.8540341,1.854034 4.60859,2.23777 6.84375,1.15625 0.05882,-0.02846 0.129446,-0.06326 0.1875,-0.09375 0.362833,-0.143295 1.268025,-0.419475 1.75,0.0625 0.357494,0.357494 0.234375,0.828125 0.78125,1.375 l 3.1875,3.15625 c 0.0038,-0.0038 0.691373,0.714877 1.40625,0 0.348452,-0.348452 0.3125,-0.917443 0.3125,-1.1875 0,-0.128906 0.0035,-0.213497 0,-0.3125 -0.03445,0.167378 -0.13309,0.32059 -0.3125,0.5 -0.714877,0.714876 -1.402459,-0.0038 -1.40625,0 l -3.1875,-3.15625 c -0.546875,-0.546875 -0.423756,-1.017506 -0.78125,-1.375 -0.481975,-0.481975 -1.387167,-0.205795 -1.75,-0.0625 -0.05805,0.03049 -0.12868,0.06529 -0.1875,0.09375 -2.23516,1.08152 -4.9897159,0.697784 -6.84375,-1.15625 -1.1061152,-1.106115 -1.6887383,-2.5229253 -1.75,-3.9687503 z m 1.78125,1.1875 C 5.846571,9.6591587 5.9116892,9.8530137 6.00045,10.03112 5.9113135,9.8512117 5.8468402,9.6611807 5.7817,9.4686197 Z m 3.21875,1.5312503 0,1 2,0 0,-1 -2,0 z"
       id="BevelHighlight" />
    <path
       style="display:inline;opacity:0.3;fill:#000000;fill-opacity:1;stroke:none"
       d="m 10.00045,1.9998697 c -1.5358356,10e-8 -3.0790312,0.6102813 -4.25,1.78125 -2.3419375,2.3419376 -2.3419377,6.126813 0,8.4687503 1.8540341,1.854034 4.60859,2.23777 6.84375,1.15625 0.05882,-0.02846 0.129446,-0.06326 0.1875,-0.09375 0.362833,-0.143295 1.268025,-0.419475 1.75,0.0625 0.357494,0.357494 0.234375,0.828125 0.78125,1.375 l 3.1875,3.15625 c 0.0038,-0.0038 0.691373,0.714876 1.40625,0 0.717638,-0.717638 0.01043,-1.424359 0,-1.4375 l -3.15625,-3.15625 c -0.546875,-0.546875 -0.986256,-0.423757 -1.34375,-0.78125 -0.589371,-0.589372 -0.03521,-1.831091 0,-1.90625 1.08152,-2.2351604 0.697784,-4.9897162 -1.15625,-6.8437503 -1.170969,-1.1709689 -2.714164,-1.78125 -4.25,-1.78125 z m 0,0.53125 c 1.398768,0 2.801194,0.5511946 3.875,1.625 1.698083,1.6980833 2.050524,4.2080661 1.0625,6.2500003 -0.0396,0.08453 -0.198803,0.406651 -0.28125,0.875 -0.08245,0.468349 -0.105494,1.144506 0.375,1.625 0.274694,0.274693 0.577443,0.362277 0.78125,0.4375 0.203807,0.07522 0.351783,0.133033 0.5625,0.34375 l 3.125,3.09375 c 9.97e-4,0.0013 0.02219,0.0517 0.03125,0.0625 0.03834,0.04568 0.120052,0.140249 0.15625,0.25 0.04475,0.135692 0.08243,0.198824 -0.15625,0.4375 -0.237486,0.237486 -0.308918,0.200384 -0.4375,0.15625 -0.06429,-0.02207 -0.109334,-0.05946 -0.15625,-0.09375 -0.02346,-0.01715 -0.04989,-0.05153 -0.0625,-0.0625 l -0.03125,0 c -0.0032,-0.0028 0.01049,-0.02228 0,-0.03125 l -0.03125,0 c -1.95e-4,-1.43e-4 -0.06239,-0.06244 -0.0625,-0.0625 l -3.0625,-3.0625 c -0.207232,-0.207232 -0.26827,-0.350827 -0.34375,-0.5625 -0.07548,-0.211673 -0.157476,-0.532476 -0.4375,-0.8125 -0.390452,-0.390452 -0.930169,-0.439533 -1.34375,-0.40625 -0.413581,0.03328 -0.756235,0.166071 -0.96875,0.25 a 0.51747162,0.51747162 0 0 0 -0.0625,0 c -0.0486,0.02553 -0.100115,0.06659 -0.15625,0.09375 -2.041934,0.988024 -4.5519167,0.635583 -6.25,-1.0625 -2.1448392,-2.1448393 -2.1448391,-5.5739111 0,-7.7187503 1.0738053,-1.0738052 2.4762327,-1.6249999 3.875,-1.625 z m 0,0.46875 c -2.7639564,0 -5.0312499,2.2672934 -5.03125,5.03125 0,2.7639573 2.2672935,5.0312503 5.03125,5.0312503 2.763957,0 5.03125,-2.267293 5.03125,-5.0312503 0,-2.7639567 -2.267294,-5.0312502 -5.03125,-5.03125 z m 0,0.53125 c 2.483999,-2e-7 4.5,2.0160001 4.5,4.5 0,2.4840003 -2.016,4.5000003 -4.5,4.5000003 -2.4839998,0 -4.5,-2.016 -4.5,-4.5000003 1e-7,-2.4839999 2.0160003,-4.5 4.5,-4.5 z m -1,1.46875 c 0,2e-7 -0.065085,0.872406 -1,1 l 0,1.03125 1,-0.03125 0,4.0000003 2,0 0,-6.0000003 -2,0 z m 0.375,0.53125 1.09375,0 0,4.9375003 -0.9375,0 0,-3.4687503 a 0.51747162,0.51747162 0 0 0 -0.5625,-0.53125 l -0.4375,0 0,-0.125 c 0.3497901,-0.1624669 0.6460221,-0.387271 0.78125,-0.625 0.052725,-0.09269 0.03218,-0.1025575 0.0625,-0.1875 z"
       id="path3966"
       inkscape:connector-curvature="0" />
  </g>
</svg>
