<?xml version="1.0" encoding="UTF-8" standalone="no"?>
<!-- Created with Inkscape (http://www.inkscape.org/) -->

<svg
   xmlns:dc="http://purl.org/dc/elements/1.1/"
   xmlns:cc="http://creativecommons.org/ns#"
   xmlns:rdf="http://www.w3.org/1999/02/22-rdf-syntax-ns#"
   xmlns:svg="http://www.w3.org/2000/svg"
   xmlns="http://www.w3.org/2000/svg"
   xmlns:xlink="http://www.w3.org/1999/xlink"
   xmlns:sodipodi="http://sodipodi.sourceforge.net/DTD/sodipodi-0.dtd"
   xmlns:inkscape="http://www.inkscape.org/namespaces/inkscape"
   width="24"
   height="24"
   id="svg2"
   sodipodi:version="0.32"
   inkscape:version="0.91 r13725"
   version="1.0"
   sodipodi:docname="zoom-in.svg"
   inkscape:output_extension="org.inkscape.output.svg.inkscape"
   inkscape:export-filename="/home/matt/.icons/Sirocco/scalable/mimetypes/text-plain.png"
   inkscape:export-xdpi="90"
   inkscape:export-ydpi="90"
   sodipodi:modified="true"
   style="display:inline">
  <sodipodi:namedview
     id="base"
     pagecolor="#838383"
     bordercolor="#cc0000"
     borderopacity="1"
     inkscape:pageopacity="1"
     inkscape:pageshadow="2"
     inkscape:zoom="22.027846"
     inkscape:cx="-12.383822"
     inkscape:cy="11.337104"
     inkscape:document-units="px"
     inkscape:current-layer="layer1"
     width="128px"
     height="128px"
     inkscape:showpageshadow="false"
     inkscape:window-width="1366"
     inkscape:window-height="718"
     inkscape:window-x="0"
     inkscape:window-y="25"
     showguides="true"
     inkscape:guide-bbox="true"
     showgrid="true"
     inkscape:window-maximized="1"
     borderlayer="true">
    <inkscape:grid
       enabled="true"
       visible="true"
       id="grid3231"
       type="xygrid"
       empspacing="8"
       snapvisiblegridlinesonly="true" />
    <sodipodi:guide
       orientation="1,0"
       position="12,6"
       id="guide3791" />
    <sodipodi:guide
       orientation="0,1"
       position="14,9"
       id="guide3793" />
  </sodipodi:namedview>
  <defs
     id="defs4">
    <linearGradient
       id="StandardGradient"
       gradientTransform="scale(0.9219544,1.0846523)"
       x1="11.998966"
       y1="0.92195445"
       x2="11.998966"
       y2="19.387045"
       gradientUnits="userSpaceOnUse">
      <stop
         style="stop-color:#000000;stop-opacity:0.23529412;"
         offset="0"
         id="stop3283" />
      <stop
         id="stop3850"
         offset="0.69999999"
         style="stop-color:#000000;stop-opacity:0.39215686;" />
      <stop
         style="stop-color:#000000;stop-opacity:0.55;"
         offset="1"
         id="stop2651" />
    </linearGradient>
    <radialGradient
       inkscape:collect="always"
       xlink:href="#StandardGradient"
       id="radialGradient3857"
       cx="12"
       cy="13.001254"
       fx="12"
       fy="13.001254"
       r="8.116992"
       gradientTransform="matrix(1.9711736,2.4161042e-8,-1.3590585e-8,1.1087851,-11.654083,-1.4155974)"
       gradientUnits="userSpaceOnUse" />
    <linearGradient
       id="StandardGradient-9"
       gradientTransform="scale(1.0003344,0.9996657)"
       x1="10.558969"
       y1="3.0148761"
       x2="10.558969"
       y2="19.285688"
       gradientUnits="userSpaceOnUse">
      <stop
         id="stop3309"
         offset="0"
         style="stop-color:#000000;stop-opacity:0.86274511;" />
      <stop
         style="stop-color:#000000;stop-opacity:0.47058824;"
         offset="1"
         id="stop3311" />
    </linearGradient>
    <radialGradient
       inkscape:collect="always"
       xlink:href="#StandardGradient"
       id="radialGradient3911"
       cx="12"
       cy="13.001264"
       fx="12"
       fy="13.001264"
       r="8.116992"
       gradientTransform="matrix(1.9711736,-6.6259838e-8,3.7271161e-8,1.1087852,-10.65398,-2.4152604)"
       gradientUnits="userSpaceOnUse" />
    <radialGradient
       inkscape:collect="always"
       xlink:href="#StandardGradient"
       id="radialGradient3917"
       gradientUnits="userSpaceOnUse"
       gradientTransform="matrix(1.9711736,-6.6259838e-8,3.7271161e-8,1.1087852,-11.654083,-1.4156071)"
       cx="12"
       cy="13.001264"
       fx="12"
       fy="13.001264"
       r="8.116992" />
    <radialGradient
       inkscape:collect="always"
       xlink:href="#StandardGradient"
       id="radialGradient3921"
       gradientUnits="userSpaceOnUse"
       gradientTransform="matrix(1.9711736,-6.6259838e-8,3.7271161e-8,1.1087852,-11.654083,-1.4156071)"
       cx="12"
       cy="13.001264"
       fx="12"
       fy="13.001264"
       r="8.116992" />
    <radialGradient
       inkscape:collect="always"
       xlink:href="#StandardGradient"
       id="radialGradient3923"
       gradientUnits="userSpaceOnUse"
       gradientTransform="matrix(1.9711736,-6.6259838e-8,3.7271161e-8,1.1087852,-11.654083,-1.4156071)"
       cx="12"
       cy="13.001264"
       fx="12"
       fy="13.001264"
       r="8.116992" />
  </defs>
  <metadata
     id="metadata7">
    <rdf:RDF>
      <cc:Work
         rdf:about="">
        <dc:format>image/svg+xml</dc:format>
        <dc:type
           rdf:resource="http://purl.org/dc/dcmitype/StillImage" />
        <dc:title></dc:title>
      </cc:Work>
    </rdf:RDF>
  </metadata>
  <g
     style="display:inline"
     inkscape:label="Calque 1"
     id="layer1"
     inkscape:groupmode="layer"
     transform="translate(0,2)">
    <path
       inkscape:connector-curvature="0"
       style="display:inline;opacity:0.05;fill:#ffffff;fill-opacity:1;stroke:none"
       d="m 10.000103,0.96909672 c -1.8118287,10e-8 -3.6333885,0.69588838 -5.0000002,2.06249998 -2.7388035,2.7388036 -2.7388039,7.2299473 0,9.9687503 2.1680478,2.168048 5.4382712,2.613528 8.0625002,1.34375 0.0299,-0.01447 0.05963,-0.04556 0.09375,-0.0625 0.02804,-0.01108 0.08557,-0.01836 0.125,-0.03125 0.12759,-0.0417 0.278346,-0.08346 0.40625,-0.09375 0.08371,-0.0067 0.114995,-0.0014 0.125,0 -0.0065,-0.01358 -0.01689,-0.03514 0.0625,0.1875 0.09593,0.269023 0.280755,0.749505 0.6875,1.15625 a 1.0419512,1.0419512 0 0 0 0.03125,0 l 3.1875,3.15625 a 1.0419512,1.0419512 0 0 0 0.03125,0.03125 c 0.0036,0.0032 0.01297,0.01534 0.03125,0.03125 0.01432,0.01124 0.03145,0.03139 0.03125,0.03125 -7.5e-5,-5.5e-5 0.03704,0.01562 0.0625,0.03125 0.02402,0.01917 0.03285,0.04083 0.0625,0.0625 0.0052,0.0032 0.03127,8e-6 0.03125,0 0.134037,0.09643 0.308507,0.22532 0.5625,0.3125 0.529823,0.181854 1.463533,0.09897 2.0625,-0.5 0.600732,-0.600732 0.676286,-1.528009 0.5,-2.0625 -0.176286,-0.534491 -0.432285,-0.774679 -0.4375,-0.78125 a 1.0419512,1.0419512 0 0 0 -0.0625,-0.09375 l -3.15625,-3.15625 c -0.399728,-0.399728 -0.863681,-0.59105 -1.125,-0.6875 -0.229781,-0.08481 -0.199223,-0.100144 -0.1875,-0.09375 -0.0075,-0.03427 -0.02137,-0.09736 0,-0.21875 0.0403,-0.228953 0.16477,-0.484065 0.15625,-0.46875 -5.14e-4,9.25e-4 0.0015,-0.03449 0,-0.03125 1.253418,-2.6193763 0.816776,-5.8707242 -1.34375,-8.0312503 -1.366612,-1.3666117 -3.188171,-2.06249998 -5,-2.06249998 z m 0,1.03124998 c 1.535836,0 3.079031,0.6102811 4.25,1.78125 1.854034,1.8540341 2.23777,4.6085899 1.15625,6.8437503 -0.03521,0.07516 -0.589371,1.316878 0,1.90625 0.357494,0.357493 0.796875,0.234375 1.34375,0.78125 l 3.15625,3.15625 c 0.01043,0.01314 0.717638,0.719862 0,1.4375 -0.714877,0.714876 -1.402459,-0.0038 -1.40625,0 l -3.1875,-3.15625 c -0.546875,-0.546875 -0.423756,-1.017506 -0.78125,-1.375 -0.481975,-0.481975 -1.387167,-0.205795 -1.75,-0.0625 -0.05805,0.03049 -0.12868,0.06529 -0.1875,0.09375 -2.23516,1.08152 -4.9897161,0.697784 -6.8437502,-1.15625 -2.3419377,-2.3419373 -2.3419375,-6.1268127 0,-8.4687503 1.1709688,-1.1709687 2.7141644,-1.7812499 4.2500002,-1.78125 z m 0,1.53125 c -2.4839999,0 -4.5000001,2.0160001 -4.5000002,4.5 0,2.4840003 2.0160002,4.5000003 4.5000002,4.5000003 2.484,0 4.5,-2.016 4.5,-4.5000003 0,-2.4839999 -2.016001,-4.5000002 -4.5,-4.5 z m -1.0312502,1.5 2.0625002,0 0,2.0625 2.03125,0 0,2.0625 -2.03125,0 0,1.8437503 -2.0625002,0 0,-1.8437503 -1.96875,0 0,-2.0625 1.96875,0 0,-2.0625 z m -1.03125,0.3125 0,0.71875 -0.6875,0 c 0.197271,-0.2752264 0.4191726,-0.5127869 0.6875,-0.71875 z m 4.1250002,0 c 0.268327,0.2059631 0.490229,0.4435236 0.6875,0.71875 l -0.6875,0 0,-0.71875 z m -4.6875002,4.8437503 0.5625,0 0,0.53125 c -0.2086991,-0.160194 -0.3957009,-0.328072 -0.5625,-0.53125 z m 4.6875002,0 0.5625,0 c -0.166799,0.203178 -0.353801,0.371056 -0.5625,0.53125 l 0,-0.53125 z"
       id="path4393" />
    <path
       inkscape:connector-curvature="0"
       style="display:inline;fill:url(#radialGradient3911);fill-opacity:1;stroke:none"
       d="m 10.000103,2.0003467 c -1.5358358,10e-8 -3.0790314,0.6102813 -4.2500002,1.78125 -2.3419375,2.3419376 -2.3419377,6.126813 0,8.4687503 1.8540341,1.854034 4.6085902,2.23777 6.8437502,1.15625 0.05882,-0.02846 0.129446,-0.06326 0.1875,-0.09375 0.362833,-0.143295 1.268025,-0.419475 1.75,0.0625 0.357494,0.357494 0.234375,0.828125 0.78125,1.375 l 3.1875,3.15625 c 0.0038,-0.0038 0.691373,0.714876 1.40625,0 0.717638,-0.717638 0.01043,-1.424359 0,-1.4375 l -3.15625,-3.15625 c -0.546875,-0.546875 -0.986256,-0.423757 -1.34375,-0.78125 -0.589371,-0.589372 -0.03521,-1.831091 0,-1.90625 1.08152,-2.2351604 0.697784,-4.9897162 -1.15625,-6.8437503 -1.170969,-1.1709689 -2.714164,-1.78125 -4.25,-1.78125 z m 0,1.53125 c 2.483999,-2e-7 4.5,2.0160001 4.5,4.5 0,2.4840003 -2.016,4.5000003 -4.5,4.5000003 -2.484,0 -4.5000002,-2.016 -4.5000002,-4.5000003 1e-7,-2.4839999 2.0160003,-4.5 4.5000002,-4.5 z m -1.0312502,1.5 0,2.0625 -1.96875,0 0,2.0625 1.96875,0 0,1.8437503 2.0625002,0 0,-1.8437503 2.03125,0 0,-2.0625 -2.03125,0 0,-2.0625 -2.0625002,0 z"
       id="Symbol" />
    <path
       inkscape:connector-curvature="0"
       style="display:inline;opacity:0.3;fill:#000000;fill-opacity:1;stroke:none"
       d="m 10.000103,2.0003467 c -1.5358358,10e-8 -3.0790314,0.6102813 -4.2500002,1.78125 -1.284913,1.2849131 -1.8437819,3.0104985 -1.71875,4.6875 0.1280747,-1.3353083 0.6941523,-2.6629023 1.71875,-3.6875 1.1709688,-1.1709687 2.7141644,-1.78125 4.2500002,-1.78125 1.535836,0 3.079031,0.6102812 4.25,1.78125 1.030964,1.0309636 1.596176,2.3437793 1.71875,3.6875 0.127768,-1.6793821 -0.432171,-3.400921 -1.71875,-4.6875 -1.170969,-1.1709689 -2.714164,-1.78125 -4.25,-1.78125 z m -1.0312502,3.03125 0,1 2.0625002,0 0,-1 -2.0625002,0 z m -1.96875,2.0625 0,1 1.96875,0 0,-1 -1.96875,0 z m 4.0312502,0 0,1 2.03125,0 0,-1 -2.03125,0 z m -5.4687502,1.4375 c -0.018751,0.1667056 -0.0625,0.3283118 -0.0625,0.5 0,2.4840003 2.0160002,4.5000003 4.5000002,4.5000003 2.484,0 4.5,-2.016 4.5,-4.5000003 0,-0.1716882 -0.04375,-0.3332944 -0.0625,-0.5 -0.252536,2.2452053 -2.125188,4.0000003 -4.4375,4.0000003 -2.3123118,0 -4.1849637,-1.754795 -4.4375002,-4.0000003 z m 9.6562502,3.7187503 c -0.100413,0.423869 -0.15018,0.943569 0.1875,1.28125 0.357494,0.357493 0.796875,0.234375 1.34375,0.78125 l 3.15625,3.15625 c 0.0033,0.0042 0.07973,0.126119 0.15625,0.25 0.430372,-0.644702 -0.146779,-1.238066 -0.15625,-1.25 l -3.15625,-3.15625 c -0.546875,-0.546875 -0.986256,-0.423757 -1.34375,-0.78125 -0.08922,-0.08922 -0.144924,-0.168446 -0.1875,-0.28125 z"
       id="BevelShadow" />
    <path
       inkscape:connector-curvature="0"
       style="display:inline;opacity:0.2;fill:#ffffff;fill-opacity:1;stroke:none"
       d="m 12.812603,2.7190967 c 0.271849,0.1447023 0.529615,0.3117763 0.78125,0.5 -0.245782,-0.1852306 -0.515917,-0.3564449 -0.78125,-0.5 z m -2.8125,0.8125 c -2.4839999,0 -4.5000001,2.0160001 -4.5000002,4.5 0,0.1716882 0.043749,0.3332944 0.0625,0.5 0.2525365,-2.245205 2.1251885,-4 4.4375002,-4 2.312311,-10e-8 4.184964,1.7547952 4.4375,4 0.01875,-0.1667056 0.0625,-0.3283118 0.0625,-0.5 0,-2.4839999 -2.016001,-4.5000002 -4.5,-4.5 z m -4.2812502,0.25 c -0.4461504,0.4461504 -0.7737196,0.9361877 -1.03125,1.46875 0.2744458,-0.5215467 0.6233867,-1.0296367 1.0625,-1.46875 -0.00559,0.00555 -0.025677,-0.00557 -0.03125,0 z m 10.2812502,4.40625 c -0.02414,0.836393 -0.220657,1.666436 -0.59375,2.4375003 -0.02948,0.06292 -0.406016,0.96287 -0.1875,1.59375 0.07319,-0.297615 0.173154,-0.563125 0.1875,-0.59375 0.480125,-0.992266 0.582082,-2.0826673 0.59375,-3.1562503 0.001,-0.094183 0.0022,-0.1868754 0,-0.28125 z m -12.0000002,0.09375 c -0.00121,0.06247 0,0.1251693 0,0.1875 1e-7,0.042439 -0.00405,0.08274 0,0.125 0,1.6770263 0.4650869,3.3713373 1.75,4.6562503 1.8540341,1.854034 4.6085902,2.23777 6.8437502,1.15625 0.05882,-0.02846 0.129446,-0.06326 0.1875,-0.09375 0.362833,-0.143295 1.268025,-0.419475 1.75,0.0625 0.357494,0.357494 0.234375,0.828125 0.78125,1.375 l 3.1875,3.15625 c 0.0038,-0.0038 0.691373,0.714877 1.40625,0 0.348452,-0.348452 0.3125,-0.917443 0.3125,-1.1875 0,-0.128906 0.0035,-0.213497 0,-0.3125 -0.03445,0.167378 -0.13309,0.32059 -0.3125,0.5 -0.714877,0.714876 -1.402459,-0.0038 -1.40625,0 l -3.1875,-3.15625 c -0.546875,-0.546875 -0.423756,-1.017506 -0.78125,-1.375 -0.481975,-0.481975 -1.387167,-0.205795 -1.75,-0.0625 -0.05805,0.03049 -0.12868,0.06529 -0.1875,0.09375 -2.23516,1.08152 -4.9897161,0.697784 -6.8437502,-1.15625 -1.1061152,-1.106115 -1.6887383,-2.5229253 -1.75,-3.9687503 z m 3,0.875 0,1.0000003 1.96875,0 0,-1.0000003 -1.96875,0 z m 4.0312502,0 0,1.0000003 2.03125,0 0,-1.0000003 -2.03125,0 z m -5.2500002,0.3125 c 0.064871,0.190539 0.1299892,0.384394 0.21875,0.5625003 C 5.9109668,9.8516887 5.846493,9.6616577 5.7813528,9.4690967 Z m 3.1875,1.5312503 0,1 2.0625002,0 0,-1 -2.0625002,0 z"
       id="BevelHighlight" />
    <path
       style="display:inline;opacity:0.3;fill:#000000;fill-opacity:1;stroke:none"
       d="m 10.000103,2.0003467 c -1.5358358,10e-8 -3.0790314,0.6102813 -4.2500002,1.78125 -2.3419375,2.3419376 -2.3419377,6.126813 0,8.4687503 1.8540341,1.854034 4.6085902,2.23777 6.8437502,1.15625 0.05882,-0.02846 0.129446,-0.06326 0.1875,-0.09375 0.362833,-0.143295 1.268025,-0.419475 1.75,0.0625 0.357494,0.357494 0.234375,0.828125 0.78125,1.375 l 3.1875,3.15625 c 0.0038,-0.0038 0.691373,0.714876 1.40625,0 0.717638,-0.717638 0.01043,-1.424359 0,-1.4375 l -3.15625,-3.15625 c -0.546875,-0.546875 -0.986256,-0.423757 -1.34375,-0.78125 -0.589371,-0.589372 -0.03521,-1.831091 0,-1.90625 1.08152,-2.2351604 0.697784,-4.9897162 -1.15625,-6.8437503 -1.170969,-1.1709689 -2.714164,-1.78125 -4.25,-1.78125 z m 0,0.5 c 1.405654,0 2.827563,0.5463131 3.90625,1.625 1.705918,1.7059181 2.055221,4.2296085 1.0625,6.2812503 -0.03849,0.08217 -0.199465,0.441662 -0.28125,0.90625 -0.08179,0.464588 -0.09616,1.091341 0.375,1.5625 0.269874,0.269873 0.576484,0.361923 0.78125,0.4375 0.204766,0.07558 0.348632,0.129882 0.5625,0.34375 l 3.125,3.125 0.03125,0.03125 c 0.03123,0.03642 0.115322,0.125908 0.15625,0.25 0.04695,0.14234 0.08846,0.255288 -0.15625,0.5 -0.243513,0.243512 -0.333479,0.20268 -0.46875,0.15625 -0.06764,-0.02322 -0.139114,-0.08963 -0.1875,-0.125 -0.02419,-0.01768 -0.04949,-0.01993 -0.0625,-0.03125 l -0.03125,-0.03125 c -0.005,-0.0043 -0.03086,-0.03096 -0.03125,-0.03125 -1.95e-4,-1.43e-4 -0.06239,-0.03119 -0.0625,-0.03125 l -3.0625,-3.0625 c -0.210558,-0.210558 -0.267929,-0.381121 -0.34375,-0.59375 -0.07582,-0.212629 -0.162564,-0.506314 -0.4375,-0.78125 -0.382943,-0.382943 -0.903022,-0.439203 -1.3125,-0.40625 -0.409478,0.03295 -0.757797,0.135438 -0.96875,0.21875 a 0.49147424,0.49147424 0 0 0 -0.03125,0.03125 c -0.04908,0.02577 -0.13123,0.06652 -0.1875,0.09375 -2.051641,0.992721 -4.5753321,0.643418 -6.2812502,-1.0625 -2.1547413,-2.1547413 -2.1547412,-5.626509 0,-7.7812503 1.0786867,-1.0786866 2.5005965,-1.6249999 3.9062502,-1.625 z m 0,0.53125 c -2.7498918,0 -5.0000001,2.2501082 -5.0000002,5 0,2.7498923 2.2501083,5.0000003 5.0000002,5.0000003 2.749892,0 5,-2.250108 5,-5.0000003 0,-2.7498919 -2.250109,-5.0000002 -5,-5 z m 0,0.5 c 2.483999,-2e-7 4.5,2.0160001 4.5,4.5 0,2.4840003 -2.016,4.5000003 -4.5,4.5000003 -2.484,0 -4.5000002,-2.016 -4.5000002,-4.5000003 1e-7,-2.4839999 2.0160003,-4.5 4.5000002,-4.5 z m -1.0312502,1.5 0,2.0625 -1.96875,0 0,2.0625 1.96875,0 0,1.8437503 2.0625002,0 0,-1.8437503 2.03125,0 0,-2.0625 -2.03125,0 0,-2.0625 -2.0625002,0 z m 0.5,0.5 1.0625002,0 0,1.5625 a 0.49147424,0.49147424 0 0 0 0.5,0.5 l 1.53125,0 0,1.0625 -1.53125,0 a 0.49147424,0.49147424 0 0 0 -0.5,0.5 l 0,1.3437503 -1.0625002,0 0,-1.3437503 a 0.49147424,0.49147424 0 0 0 -0.5,-0.5 l -1.46875,0 0,-1.0625 1.46875,0 a 0.49147424,0.49147424 0 0 0 0.5,-0.5 l 0,-1.5625 z"
       id="path3913"
       inkscape:connector-curvature="0" />
  </g>
</svg>
