<?xml version="1.0" encoding="UTF-8" standalone="no"?>
<!-- Created with Inkscape (http://www.inkscape.org/) -->

<svg
   xmlns:osb="http://www.openswatchbook.org/uri/2009/osb"
   xmlns:dc="http://purl.org/dc/elements/1.1/"
   xmlns:cc="http://creativecommons.org/ns#"
   xmlns:rdf="http://www.w3.org/1999/02/22-rdf-syntax-ns#"
   xmlns:svg="http://www.w3.org/2000/svg"
   xmlns="http://www.w3.org/2000/svg"
   xmlns:xlink="http://www.w3.org/1999/xlink"
   xmlns:sodipodi="http://sodipodi.sourceforge.net/DTD/sodipodi-0.dtd"
   xmlns:inkscape="http://www.inkscape.org/namespaces/inkscape"
   version="1.0"
   width="128"
   height="128"
   id="svg3695"
   inkscape:version="0.91 r13725"
   sodipodi:docname="user-trash.svg">
  <metadata
     id="metadata11265">
    <rdf:RDF>
      <cc:Work
         rdf:about="">
        <dc:format>image/svg+xml</dc:format>
        <dc:type
           rdf:resource="http://purl.org/dc/dcmitype/StillImage" />
        <dc:title></dc:title>
      </cc:Work>
    </rdf:RDF>
  </metadata>
  <sodipodi:namedview
     pagecolor="#2a2a2a"
     bordercolor="#666666"
     borderopacity="1"
     objecttolerance="10"
     gridtolerance="10"
     guidetolerance="10"
     inkscape:pageopacity="0"
     inkscape:pageshadow="2"
     inkscape:window-width="1366"
     inkscape:window-height="718"
     id="namedview11263"
     showgrid="false"
     inkscape:snap-global="true"
     inkscape:zoom="1"
     inkscape:cx="106.93671"
     inkscape:cy="20.411894"
     inkscape:window-x="0"
     inkscape:window-y="25"
     inkscape:window-maximized="1"
     inkscape:current-layer="svg3695"
     inkscape:snap-bbox="true"
     inkscape:bbox-paths="true"
     inkscape:bbox-nodes="true"
     inkscape:snap-bbox-edge-midpoints="true"
     showguides="true"
     inkscape:guide-bbox="true">
    <inkscape:grid
       type="xygrid"
       id="grid3062"
       empspacing="5"
       visible="true"
       enabled="true"
       snapvisiblegridlinesonly="true" />
    <sodipodi:guide
       position="32,54"
       orientation="1,0"
       id="guide4298" />
  </sodipodi:namedview>
  <defs
     id="defs3697">
    <linearGradient
       inkscape:collect="always"
       id="linearGradient4300">
      <stop
         style="stop-color:#141414;stop-opacity:1;"
         offset="0"
         id="stop4302" />
      <stop
         style="stop-color:#000000;stop-opacity:0.89877301"
         offset="1"
         id="stop4304" />
    </linearGradient>
    <linearGradient
       id="linearGradient6985"
       inkscape:collect="always">
      <stop
         id="stop6987"
         offset="0"
         style="stop-color:#000000;stop-opacity:1" />
      <stop
         id="stop6989"
         offset="1"
         style="stop-color:#000000;stop-opacity:0" />
    </linearGradient>
    <linearGradient
       id="linearGradient6286"
       inkscape:collect="always">
      <stop
         id="stop6288"
         offset="0"
         style="stop-color:#ffffff;stop-opacity:1;" />
      <stop
         id="stop6290"
         offset="1"
         style="stop-color:#ffffff;stop-opacity:0" />
    </linearGradient>
    <linearGradient
       inkscape:collect="always"
       id="linearGradient6177">
      <stop
         style="stop-color:#ffffff;stop-opacity:1;"
         offset="0"
         id="stop6179" />
      <stop
         style="stop-color:#ffffff;stop-opacity:0;"
         offset="1"
         id="stop6181" />
    </linearGradient>
    <linearGradient
       id="linearGradient6131"
       inkscape:collect="always">
      <stop
         id="stop6133"
         offset="0"
         style="stop-color:#717173;stop-opacity:1" />
      <stop
         style="stop-color:#4f4f50;stop-opacity:1"
         offset="0.78947371"
         id="stop6137" />
      <stop
         id="stop6139"
         offset="0.89473683"
         style="stop-color:#4f4f50;stop-opacity:1;" />
      <stop
         id="stop6135"
         offset="1"
         style="stop-color:#3c3c3c;stop-opacity:1" />
    </linearGradient>
    <linearGradient
       inkscape:collect="always"
       id="linearGradient6046">
      <stop
         style="stop-color:#000000;stop-opacity:0.6"
         offset="0"
         id="stop6048" />
      <stop
         style="stop-color:#000000;stop-opacity:0.816"
         offset="1"
         id="stop6050" />
    </linearGradient>
    <linearGradient
       inkscape:collect="always"
       id="linearGradient6014">
      <stop
         style="stop-color:#8b8b8d;stop-opacity:1;"
         offset="0"
         id="stop6016" />
      <stop
         style="stop-color:#b7b7b9;stop-opacity:1"
         offset="1"
         id="stop6018" />
    </linearGradient>
    <linearGradient
       osb:paint="gradient"
       id="linearGradient4406">
      <stop
         offset="0"
         style="stop-color:#4e4e4e;stop-opacity:1"
         id="stop4408" />
      <stop
         offset="1"
         style="stop-color:#141414;stop-opacity:1"
         id="stop4410" />
    </linearGradient>
    <linearGradient
       id="linearGradient3320"
       osb:paint="gradient">
      <stop
         id="stop3323"
         style="stop-color:#4e4e4e;stop-opacity:1"
         offset="0" />
      <stop
         id="stop3325"
         style="stop-color:#b9bac2;stop-opacity:1"
         offset="1" />
    </linearGradient>
    <linearGradient
       id="linearGradient3254-3-182">
      <stop
         id="stop4663"
         style="stop-color:#ffffff;stop-opacity:1"
         offset="0" />
      <stop
         id="stop4665"
         style="stop-color:#ffffff;stop-opacity:0"
         offset="1" />
    </linearGradient>
    <linearGradient
       inkscape:collect="always"
       xlink:href="#linearGradient3254-3-182"
       id="linearGradient3038"
       gradientUnits="userSpaceOnUse"
       gradientTransform="matrix(3.6,0,0,3.1462155,-9.7999943,-8.5125545)"
       x1="12.25"
       y1="20.230709"
       x2="17.125"
       y2="34.173542" />
    <linearGradient
       inkscape:collect="always"
       xlink:href="#linearGradient6131"
       id="linearGradient5927"
       x1="135"
       y1="12"
       x2="116"
       y2="12"
       gradientUnits="userSpaceOnUse"
       spreadMethod="reflect"
       gradientTransform="matrix(2.0215054,0,0,2.0000126,-206.39247,43.899519)" />
    <linearGradient
       inkscape:collect="always"
       xlink:href="#linearGradient6014"
       id="linearGradient6020"
       x1="116"
       y1="-9"
       x2="135"
       y2="-9"
       gradientUnits="userSpaceOnUse"
       spreadMethod="reflect"
       gradientTransform="matrix(1.9736843,0,0,1.9999998,-199.96055,44.000001)" />
    <radialGradient
       inkscape:collect="always"
       xlink:href="#linearGradient6046"
       id="radialGradient6052"
       cx="144.25"
       cy="-14.204085"
       fx="144.25"
       fy="-14.204085"
       r="19"
       gradientTransform="matrix(-6.2493062,1.0394621e-6,-1.7521287e-7,-1.1647058,967.95196,-2.6143127)"
       gradientUnits="userSpaceOnUse" />
    <radialGradient
       inkscape:collect="always"
       xlink:href="#linearGradient6286"
       id="radialGradient6284"
       cx="39.000679"
       cy="39.764774"
       fx="39.000679"
       fy="39.764774"
       r="18.6"
       gradientTransform="matrix(-2.0594869,2.8671866e-8,-2.2900845e-8,-3.4334179,146.82947,170.38382)"
       gradientUnits="userSpaceOnUse"
       spreadMethod="pad" />
    <linearGradient
       osb:paint="solid"
       id="linearGradient6213">
      <stop
         id="stop6215"
         offset="0"
         style="stop-color:#000000;stop-opacity:1;" />
    </linearGradient>
    <radialGradient
       inkscape:collect="always"
       xlink:href="#linearGradient6985"
       id="radialGradient6052-2"
       cx="144.28255"
       cy="-21.631355"
       fx="144.28255"
       fy="-21.631355"
       r="19"
       gradientTransform="matrix(-2.4210517,5.5303767e-7,-2.3693713e-7,-1.2631579,415.31548,74.676099)"
       gradientUnits="userSpaceOnUse" />
    <linearGradient
       inkscape:collect="always"
       xlink:href="#linearGradient4300"
       id="linearGradient4301"
       x1="65"
       y1="23"
       x2="65"
       y2="30"
       gradientUnits="userSpaceOnUse" />
    <linearGradient
       inkscape:collect="always"
       xlink:href="#linearGradient6177"
       id="linearGradient4360"
       x1="65"
       y1="11"
       x2="65"
       y2="23"
       gradientUnits="userSpaceOnUse" />
  </defs>
  <path
     style="opacity:0.8;fill:url(#radialGradient6052-2);fill-opacity:1;stroke:none;stroke-width:1;stroke-linecap:butt;stroke-linejoin:miter;stroke-miterlimit:4;stroke-dasharray:none;stroke-dashoffset:0;stroke-opacity:1"
     d="M 106,106 A 40.999999,20 0 0 1 64.999998,126 40.999999,20 0 0 1 23.999999,106 40.999999,20 0 0 1 64.999998,85.999998 40.999999,20 0 0 1 106,106 Z"
     id="path4342-99-8"
     inkscape:connector-curvature="0" />
  <path
     style="opacity:1;fill:url(#linearGradient5927);fill-opacity:1;stroke:none;stroke-width:1;stroke-linecap:butt;stroke-linejoin:miter;stroke-miterlimit:4;stroke-dasharray:none;stroke-dashoffset:0;stroke-opacity:1"
     d="m 27.9,27.9 0,76.19991 C 27.9,112.93651 44.845732,120.1 65.499999,120.1 86.154265,120.1 103.1,112.93651 103.1,104.09991 L 103.1,27.9 Z"
     id="rect4344"
     inkscape:connector-curvature="0"
     sodipodi:nodetypes="cssscc" />
  <path
     style="color:#000000;font-style:normal;font-variant:normal;font-weight:normal;font-stretch:normal;font-size:medium;line-height:normal;font-family:sans-serif;text-indent:0;text-align:start;text-decoration:none;text-decoration-line:none;text-decoration-style:solid;text-decoration-color:#000000;letter-spacing:normal;word-spacing:normal;text-transform:none;direction:ltr;block-progression:tb;writing-mode:lr-tb;baseline-shift:baseline;text-anchor:start;white-space:normal;clip-rule:nonzero;display:inline;overflow:visible;visibility:visible;opacity:1;isolation:auto;mix-blend-mode:normal;color-interpolation:sRGB;color-interpolation-filters:linearRGB;solid-color:#000000;solid-opacity:1;fill:#141414;fill-opacity:0.86274511;fill-rule:nonzero;stroke:none;stroke-width:2;stroke-linecap:butt;stroke-linejoin:miter;stroke-miterlimit:4;stroke-dasharray:none;stroke-dashoffset:0;stroke-opacity:1;color-rendering:auto;image-rendering:auto;shape-rendering:auto;text-rendering:auto;enable-background:accumulate"
     d="m 27,26.999998 0,1 0,76.035152 c 0,2.52382 1.2192,4.88119 3.25391,6.91993 2.03471,2.03873 4.89688,3.80881 8.38086,5.28906 C 45.60271,119.20463 55.08467,121 65.5,121 c 10.41533,0 19.89729,-1.79537 26.86524,-4.75586 3.48397,-1.48025 6.34614,-3.25033 8.38086,-5.28906 2.03471,-2.03874 3.2539,-4.39611 3.2539,-6.91993 l 0,-77.035152 -77,0 z m 1,1 75,0 0,76.035152 C 103,112.85259 86.09933,120 65.5,120 44.90066,120 28,112.85259 28,104.03515 l 0,-76.035152 z"
     id="rect4344-4"
     inkscape:connector-curvature="0" />
  <path
     style="opacity:0.2;fill:url(#radialGradient6284);fill-opacity:1;stroke:none;stroke-width:1;stroke-linecap:butt;stroke-linejoin:miter;stroke-miterlimit:4;stroke-dasharray:none;stroke-dashoffset:0;stroke-opacity:1"
     d="m 28,28 0,76.0346 C 28,112.85205 44.900668,120 65.500003,120 86.099339,120 103,112.85205 103,104.0346 L 103,28 Z"
     id="rect4344-7"
     inkscape:connector-curvature="0"
     sodipodi:nodetypes="cssscc" />
  <path
     inkscape:connector-curvature="0"
     style="display:inline;overflow:visible;visibility:visible;opacity:0.1;fill:url(#linearGradient3038);fill-opacity:1;fill-rule:nonzero;stroke:none;stroke-width:1;marker:none"
     id="rect3244"
     d="m 37,38 18,3.8269 0,76.49238 -18,-2.5563 L 37,38 Z"
     sodipodi:nodetypes="cccccc" />
  <path
     style="opacity:1;fill:url(#linearGradient6020);fill-opacity:1;stroke:none;stroke-width:1;stroke-linecap:butt;stroke-linejoin:miter;stroke-miterlimit:4;stroke-dasharray:none;stroke-dashoffset:0;stroke-opacity:1"
     d="M 103,25.999999 A 37.500001,17 0 0 1 65.500002,43 37.500001,17 0 0 1 28,25.999999 37.500001,17 0 0 1 65.500002,9 37.500001,17 0 0 1 103,25.999999 Z"
     id="path4342"
     inkscape:connector-curvature="0" />
  <path
     style="opacity:0.9;fill:url(#radialGradient6052);fill-opacity:1;stroke:none;stroke-width:1;stroke-linecap:butt;stroke-linejoin:miter;stroke-miterlimit:4;stroke-dasharray:none;stroke-dashoffset:0;stroke-opacity:1"
     d="M 103.1,25.999998 A 37.599999,17.100001 0 0 1 65.499999,43.1 37.599999,17.100001 0 0 1 27.9,25.999998 37.599999,17.100001 0 0 1 65.499999,8.9 37.599999,17.100001 0 0 1 103.1,25.999998 Z"
     id="path4342-99"
     inkscape:connector-curvature="0" />
  <path
     style="opacity:0.2;fill:#ffffff;fill-opacity:1;stroke:none;stroke-width:1;stroke-linecap:butt;stroke-linejoin:miter;stroke-miterlimit:4;stroke-dasharray:none;stroke-dashoffset:0;stroke-opacity:1"
     d="M 102.95508,27.414062 A 37.499999,17.000001 0 0 1 65.5,44 37.499999,17.000001 0 0 1 28.04492,27.585938 37.499999,17.000001 0 0 0 28,28 37.499999,17.000001 0 0 0 65.5,45 37.499999,17.000001 0 0 0 103,28 37.499999,17.000001 0 0 0 102.9551,27.414062 Z"
     id="path4342-99-0"
     inkscape:connector-curvature="0" />
  <path
     style="color:#000000;font-style:normal;font-variant:normal;font-weight:normal;font-stretch:normal;font-size:medium;line-height:normal;font-family:sans-serif;text-indent:0;text-align:start;text-decoration:none;text-decoration-line:none;text-decoration-style:solid;text-decoration-color:#000000;letter-spacing:normal;word-spacing:normal;text-transform:none;direction:ltr;block-progression:tb;writing-mode:lr-tb;baseline-shift:baseline;text-anchor:start;white-space:normal;clip-rule:nonzero;display:inline;overflow:visible;visibility:visible;opacity:0.9;isolation:auto;mix-blend-mode:normal;color-interpolation:sRGB;color-interpolation-filters:linearRGB;solid-color:#000000;solid-opacity:1;fill:url(#linearGradient4301);fill-opacity:1;fill-rule:nonzero;stroke:none;stroke-width:2;stroke-linecap:butt;stroke-linejoin:miter;stroke-miterlimit:4;stroke-dasharray:none;stroke-dashoffset:0;stroke-opacity:1;color-rendering:auto;image-rendering:auto;shape-rendering:auto;text-rendering:auto;enable-background:accumulate"
     d="M 65.5,8 C 55.02216,8 45.53069,9.912988 38.57031,13.06836 35.09012,14.646045 32.23641,16.534453 30.21484,18.701172 28.19327,20.867891 27,23.354753 27,26 c 0,2.645247 1.19327,5.132109 3.21484,7.298828 2.02157,2.16672 4.87528,4.055127 8.35547,5.632813 C 45.53069,42.087012 55.02216,44 65.5,44 c 10.47784,0 19.96931,-1.912988 26.92969,-5.068359 3.48019,-1.577686 6.3339,-3.466093 8.35547,-5.632813 C 102.80673,31.132109 104,28.645247 104,26 104,23.354753 102.80673,20.867891 100.78516,18.701172 98.76359,16.534453 95.90988,14.646045 92.42969,13.06836 85.46931,9.912988 75.97784,8 65.5,8 Z m 0,1 A 37.499999,17.000001 0 0 1 103,26 37.499999,17.000001 0 0 1 65.5,43 37.499999,17.000001 0 0 1 28,26 37.499999,17.000001 0 0 1 65.5,9 Z"
     id="path4342-99-1"
     inkscape:connector-curvature="0" />
  <path
     style="opacity:0.25;fill:url(#linearGradient4360);fill-opacity:1;stroke:none;stroke-width:1;stroke-linecap:butt;stroke-linejoin:miter;stroke-miterlimit:4;stroke-dasharray:none;stroke-dashoffset:0;stroke-opacity:1"
     d="M 102.95508,26.585938 A 37.499999,17.000001 0 0 0 65.5,10 37.499999,17.000001 0 0 0 28.04492,26.414062 37.499999,17.000001 0 0 1 28,26 37.499999,17.000001 0 0 1 65.5,9 37.499999,17.000001 0 0 1 103,26 a 37.499999,17.000001 0 0 1 -0.0449,0.585938 z"
     id="path4342-99-0-3"
     inkscape:connector-curvature="0" />
</svg>
