<?xml version="1.0" encoding="UTF-8" standalone="no"?>
<!-- Created with Inkscape (http://www.inkscape.org/) -->

<svg
   xmlns:osb="http://www.openswatchbook.org/uri/2009/osb"
   xmlns:dc="http://purl.org/dc/elements/1.1/"
   xmlns:cc="http://creativecommons.org/ns#"
   xmlns:rdf="http://www.w3.org/1999/02/22-rdf-syntax-ns#"
   xmlns:svg="http://www.w3.org/2000/svg"
   xmlns="http://www.w3.org/2000/svg"
   xmlns:xlink="http://www.w3.org/1999/xlink"
   xmlns:sodipodi="http://sodipodi.sourceforge.net/DTD/sodipodi-0.dtd"
   xmlns:inkscape="http://www.inkscape.org/namespaces/inkscape"
   version="1.0"
   width="32"
   height="32"
   id="svg3695"
   inkscape:version="0.91 r13725"
   sodipodi:docname="user-trash.svg">
  <metadata
     id="metadata11265">
    <rdf:RDF>
      <cc:Work
         rdf:about="">
        <dc:format>image/svg+xml</dc:format>
        <dc:type
           rdf:resource="http://purl.org/dc/dcmitype/StillImage" />
        <dc:title />
      </cc:Work>
    </rdf:RDF>
  </metadata>
  <sodipodi:namedview
     pagecolor="#2a2a2a"
     bordercolor="#666666"
     borderopacity="1"
     objecttolerance="10"
     gridtolerance="10"
     guidetolerance="10"
     inkscape:pageopacity="0"
     inkscape:pageshadow="2"
     inkscape:window-width="1366"
     inkscape:window-height="718"
     id="namedview11263"
     showgrid="true"
     inkscape:snap-global="true"
     inkscape:zoom="5.6568542"
     inkscape:cx="12.403106"
     inkscape:cy="25.873854"
     inkscape:window-x="0"
     inkscape:window-y="25"
     inkscape:window-maximized="1"
     inkscape:current-layer="svg3695"
     inkscape:snap-bbox="true"
     inkscape:bbox-paths="true"
     inkscape:bbox-nodes="true"
     inkscape:snap-bbox-edge-midpoints="true"
     showguides="false"
     inkscape:guide-bbox="true"
     inkscape:object-paths="false"
     inkscape:snap-intersection-paths="false"
     inkscape:object-nodes="false"
     inkscape:snap-smooth-nodes="false"
     inkscape:snap-nodes="true">
    <inkscape:grid
       type="xygrid"
       id="grid3062"
       empspacing="5"
       visible="true"
       enabled="true"
       snapvisiblegridlinesonly="true" />
    <sodipodi:guide
       position="32,54"
       orientation="1,0"
       id="guide4298" />
    <sodipodi:guide
       position="32,42"
       orientation="1,0"
       id="guide4223" />
    <sodipodi:guide
       position="31.969826,51"
       orientation="0,1"
       id="guide4191" />
    <sodipodi:guide
       position="32,5"
       orientation="0,1"
       id="guide4193" />
    <sodipodi:guide
       position="32,58.994141"
       orientation="0,1"
       id="guide4195" />
    <sodipodi:guide
       position="8.2812502,51"
       orientation="1,0"
       id="guide4197" />
    <sodipodi:guide
       position="55.742188,50.994796"
       orientation="1,0"
       id="guide4199" />
  </sodipodi:namedview>
  <defs
     id="defs3697">
    <linearGradient
       id="linearGradient4399">
      <stop
         id="stop4401"
         offset="0"
         style="stop-color:#626262;stop-opacity:1" />
      <stop
         id="stop4403"
         offset="1"
         style="stop-color:#3f3f3f;stop-opacity:1" />
    </linearGradient>
    <linearGradient
       id="linearGradient4306">
      <stop
         style="stop-color:#000000;stop-opacity:1"
         offset="0"
         id="stop4308" />
      <stop
         style="stop-color:#000000;stop-opacity:0"
         offset="1"
         id="stop4310" />
    </linearGradient>
    <linearGradient
       id="linearGradient4867">
      <stop
         id="stop4869"
         offset="0"
         style="stop-color:#ffffff;stop-opacity:1;" />
      <stop
         id="stop4871"
         offset="1"
         style="stop-color:#e4e5e7;stop-opacity:0.15686275" />
    </linearGradient>
    <linearGradient
       osb:paint="gradient"
       id="linearGradient4406">
      <stop
         offset="0"
         style="stop-color:#4e4e4e;stop-opacity:1"
         id="stop4408" />
      <stop
         offset="1"
         style="stop-color:#141414;stop-opacity:1"
         id="stop4410" />
    </linearGradient>
    <linearGradient
       id="linearGradient3320"
       osb:paint="gradient">
      <stop
         id="stop3323"
         style="stop-color:#4e4e4e;stop-opacity:1"
         offset="0" />
      <stop
         id="stop3325"
         style="stop-color:#b9bac2;stop-opacity:1"
         offset="1" />
    </linearGradient>
    <linearGradient
       osb:paint="solid"
       id="linearGradient6213">
      <stop
         id="stop6215"
         offset="0"
         style="stop-color:#000000;stop-opacity:1;" />
    </linearGradient>
    <linearGradient
       inkscape:collect="always"
       xlink:href="#linearGradient4399"
       id="linearGradient4213"
       x1="32"
       y1="13"
       x2="32"
       y2="59"
       gradientUnits="userSpaceOnUse"
       gradientTransform="matrix(0.5731708,0,0,0.49990747,-2.3414637,0.25521553)" />
    <linearGradient
       inkscape:collect="always"
       xlink:href="#linearGradient4867"
       id="linearGradient4229"
       x1="32"
       y1="15"
       x2="32"
       y2="18"
       gradientUnits="userSpaceOnUse"
       gradientTransform="matrix(0.54863584,0,0,0.46511627,-1.5563464,1.7558129)" />
    <linearGradient
       y2="9"
       x2="22"
       y1="11"
       x1="22"
       gradientTransform="matrix(0.57948256,0,0,0.5,2.0924161,1.5000001)"
       gradientUnits="userSpaceOnUse"
       id="linearGradient4262-7-1"
       xlink:href="#linearGradient4306"
       inkscape:collect="always" />
    <linearGradient
       id="linearGradient4303"
       inkscape:collect="always">
      <stop
         id="stop4305"
         offset="0"
         style="stop-color:#000000;stop-opacity:0.404" />
      <stop
         style="stop-color:#000000;stop-opacity:0.05882353"
         offset="0.74412525"
         id="stop4311" />
      <stop
         id="stop4307"
         offset="1"
         style="stop-color:#000000;stop-opacity:0;" />
    </linearGradient>
    <radialGradient
       gradientUnits="userSpaceOnUse"
       gradientTransform="matrix(0.48809348,0,0,0.03225799,0.8691024,28.069896)"
       r="31"
       fy="52.599998"
       fx="31"
       cy="52.599998"
       cx="31"
       id="radialGradient4309-8"
       xlink:href="#linearGradient4303"
       inkscape:collect="always" />
  </defs>
  <ellipse
     cx="16"
     cy="29.766668"
     rx="11.5"
     ry="1"
     style="display:inline;opacity:1;fill:url(#radialGradient4309-8);fill-opacity:1;stroke:none;stroke-width:1.20000005;stroke-linecap:butt;stroke-linejoin:miter;stroke-miterlimit:4;stroke-dasharray:none;stroke-dashoffset:0;stroke-opacity:1"
     id="path4293-4" />
  <path
     style="opacity:1;fill:#454547;fill-opacity:1;stroke:#0d0d0d;stroke-width:1;stroke-linecap:butt;stroke-linejoin:miter;stroke-miterlimit:4;stroke-dasharray:none;stroke-dashoffset:0;stroke-opacity:1"
     d="m 6,2.5002181 20,0 c 0.554,0 0.829083,0.5285283 1,1.1147171 l 0.9,3.0867062 c 0.170917,0.5861887 -0.446,1.1147172 -1,1.1147172 l -21.8,0 c -0.554,0 -1.1709167,-0.5285286 -1,-1.1147172 L 5,3.6149352 C 5.1709168,3.0287465 5.446,2.5002181 6,2.5002181 Z"
     id="rect4290"
     inkscape:connector-curvature="0"
     sodipodi:nodetypes="sssssssss" />
  <path
     style="opacity:0.3;fill:#000000;fill-opacity:1;stroke:none;stroke-width:0.99999994;stroke-linecap:butt;stroke-linejoin:miter;stroke-miterlimit:4;stroke-dasharray:none;stroke-dashoffset:0;stroke-opacity:1"
     d="m 26,3.000071 -3.15,21.775974 c -0.07852,0.542824 -0.446,0.989818 -1,0.989818 l -11.7,0 c -0.554,0 -0.921478,-0.446994 -1,-0.989818 L 6,3.000071 Z"
     id="rect4203-7"
     inkscape:connector-curvature="0"
     sodipodi:nodetypes="csssscc" />
  <path
     style="opacity:0.15;fill:none;fill-opacity:1;stroke:#ffffff;stroke-width:0.99999988;stroke-linecap:butt;stroke-linejoin:miter;stroke-miterlimit:4;stroke-dasharray:none;stroke-dashoffset:0;stroke-opacity:1"
     d="m 6.7362248,3.500071 18.5445502,0 c 0.52655,0 0.791299,0.4904957 0.950449,1.0369891 l 0.754986,2.5924732 c 0.159151,0.5464934 -0.423901,1.0369889 -0.950449,1.0369889 l -20.0544843,0 c -0.526549,0 -1.1095933,-0.4904933 -0.9504496,-1.0369889 L 5.7857752,4.5370601 C 5.944919,3.9905642 6.2096758,3.500071 6.7362248,3.500071 Z"
     id="rect4290-4"
     inkscape:connector-curvature="0"
     sodipodi:nodetypes="sssssssss" />
  <path
     style="opacity:1;fill:url(#linearGradient4213);fill-opacity:1;stroke:#0d0d0d;stroke-width:0.99999994;stroke-linecap:butt;stroke-linejoin:miter;stroke-miterlimit:4;stroke-dasharray:none;stroke-dashoffset:0;stroke-opacity:1"
     d="m 27.9,7.500196 -2.15,21.021528 c -0.05516,0.53929 -0.446,0.97808 -1,0.97808 l -17.5,0 c -0.554,0 -0.9461028,-0.438664 -0.9999998,-0.97808 l -2.15,-21.021528 z"
     id="rect4203"
     inkscape:connector-curvature="0"
     sodipodi:nodetypes="csssscc" />
  <path
     style="opacity:0.25;fill:none;fill-opacity:1;stroke:url(#linearGradient4229);stroke-width:0.9999997;stroke-linecap:butt;stroke-linejoin:miter;stroke-miterlimit:4;stroke-dasharray:none;stroke-dashoffset:0;stroke-opacity:1"
     d="m 5.7770859,8.4999999 20.4458291,0 c 0.263419,0 0.500463,0.2037963 0.475484,0.4545457 L 24.796462,28.045455 c -0.02493,0.25075 -0.212067,0.454546 -0.475486,0.454546 l -16.6419523,0 c -0.2634188,0 -0.4505031,-0.203796 -0.4754847,-0.454546 L 5.3016015,8.9545456 C 5.2766211,8.7037968 5.5136674,8.4999999 5.7770859,8.4999999 Z"
     id="rect4205"
     inkscape:connector-curvature="0"
     sodipodi:nodetypes="sssssssss" />
  <rect
     ry="0"
     y="6"
     x="4.4103489"
     height="1"
     width="23.179302"
     id="rect3827-5-3-3"
     style="display:inline;opacity:0.25;fill:url(#linearGradient4262-7-1);fill-opacity:1;stroke:none;stroke-width:0;stroke-linecap:butt;stroke-linejoin:miter;stroke-miterlimit:4;stroke-dasharray:none;stroke-dashoffset:0;stroke-opacity:1" />
  <path
     sodipodi:nodetypes="csccsccccccccsccccccsccccccccsccccccccccsccccccccscscccc"
     inkscape:connector-curvature="0"
     id="path4226-1-8-9"
     d="m 11.905788,20.82103 c -0.12795,0.2298 -0.229795,0.575556 -0.229795,0.79342 0,0.05057 0,0.114905 0.01255,0.204145 L 10.089325,19.06825 c -0.05119,-0.08924 -0.08932,-0.21727 -0.08932,-0.33262 0,-0.1155 0.03815,-0.255905 0.08931,-0.3453 l 0.767747,-1.3433 -0.85706,-0.48573 2.78899,-0.05163 1.35583,2.44323 -0.86959,-0.49885 z m 1.228415,-8.052177 c 0.242865,-0.4226 0.639795,-0.652857 1.12552,-0.652857 0.524885,0 0.93436,0.24338 1.228395,0.741636 l 0.435055,0.729107 -1.50992,2.910401 -2.44323,-1.720208 z M 13.312813,23.034 c -0.729105,0 -1.33026,-0.601226 -1.33026,-1.330316 0,-0.20474 0.08983,-0.550474 0.217785,-0.767744 l 0.408944,-0.729106 3.032365,0 0,2.827186 -2.328834,0 z m 2.431235,-10.342447 c -0.191695,-0.332177 -0.447605,-0.563026 -0.7547,-0.691058 l 3.14674,0 c 0.2815,0 0.49877,0.115501 0.62726,0.333209 l 0.780294,1.330316 0.844075,-0.499308 -1.356445,2.431138 -2.77541,-0.0391 0.857065,-0.485725 z m 4.848925,7.540932 c 0.383344,0 0.70351,-0.102361 0.971969,-0.30666 l -1.586684,2.762859 c -0.127955,0.217266 -0.357905,0.354261 -0.626291,0.345302 l -1.497385,0 0,0.985014 -1.43262,-2.39204 1.43262,-2.39265 0,0.998156 2.73839,0 z m 1.22736,-2.302801 c 0.115424,0.20474 0.179659,0.422006 0.179659,0.652396 0,0.46065 -0.294564,0.946814 -0.70351,1.176634 -0.19219,0.10297 -0.46165,0.182956 -0.729105,0.16713 l -0.84505,0 -1.50894,-2.61036 2.4433,-1.39449 z"
     style="opacity:0.6;fill:#000000;fill-opacity:1" />
  <path
     sodipodi:nodetypes="csccsccccccccsccccccsccccccccsccccccccccsccccccccscscccc"
     inkscape:connector-curvature="0"
     id="path4226-1-8"
     d="m 11.905785,21.820534 c -0.12795,0.2298 -0.229794,0.575555 -0.229794,0.79342 0,0.05057 0,0.114905 0.01255,0.204145 l -1.599216,-2.750345 c -0.05119,-0.08924 -0.08931,-0.21727 -0.08931,-0.33262 0,-0.1155 0.03815,-0.255905 0.08931,-0.3453 l 0.767746,-1.3433 -0.85706,-0.48573 2.78899,-0.05163 1.35583,2.44323 -0.86959,-0.49885 z M 13.1342,13.768358 c 0.242865,-0.4226 0.639795,-0.652858 1.12552,-0.652858 0.524885,0 0.93436,0.24338 1.228395,0.741637 l 0.435055,0.729107 -1.50992,2.9104 -2.443229,-1.720207 z m 0.17861,10.265146 c -0.729105,0 -1.33026,-0.601225 -1.33026,-1.330315 0,-0.20474 0.08983,-0.550475 0.217785,-0.767745 l 0.408945,-0.729105 3.032365,0 0,2.827185 -2.328835,0 z M 15.744045,13.691058 C 15.55235,13.35888 15.29644,13.12803 14.989345,13 l 3.14674,0 c 0.281501,0 0.49877,0.1155 0.62726,0.333209 l 0.780294,1.330315 0.844076,-0.499308 -1.356446,2.431138 -2.77541,-0.0391 0.857065,-0.485725 z m 4.848925,7.540931 c 0.383344,0 0.70351,-0.10236 0.971969,-0.30666 l -1.586684,2.76286 c -0.127955,0.217265 -0.357905,0.35426 -0.626291,0.3453 l -1.497385,0 0,0.985015 -1.43262,-2.39204 1.43262,-2.39265 0,0.998155 2.73839,0 z m 1.22736,-2.3028 c 0.115425,0.20474 0.17966,0.422005 0.17966,0.652395 0,0.46065 -0.294565,0.946815 -0.703511,1.176635 -0.19219,0.10297 -0.461649,0.182955 -0.729105,0.16713 l -0.84505,0 -1.50894,-2.61036 2.4433,-1.39449 z"
     style="fill:#ffffff;fill-opacity:0.78431373" />
</svg>
