<?xml version="1.0" encoding="UTF-8" standalone="no"?>
<!-- Created with Inkscape (http://www.inkscape.org/) -->

<svg
   xmlns:dc="http://purl.org/dc/elements/1.1/"
   xmlns:cc="http://creativecommons.org/ns#"
   xmlns:rdf="http://www.w3.org/1999/02/22-rdf-syntax-ns#"
   xmlns:svg="http://www.w3.org/2000/svg"
   xmlns="http://www.w3.org/2000/svg"
   xmlns:xlink="http://www.w3.org/1999/xlink"
   xmlns:sodipodi="http://sodipodi.sourceforge.net/DTD/sodipodi-0.dtd"
   xmlns:inkscape="http://www.inkscape.org/namespaces/inkscape"
   width="128"
   height="128"
   id="svg4057"
   version="1.1"
   inkscape:version="0.91 r13725"
   sodipodi:docname="preferences-desktop-locale.svg">
  <defs
     id="defs4059">
    <linearGradient
       inkscape:collect="always"
       xlink:href="#linearGradient4120"
       id="linearGradient3862"
       gradientUnits="userSpaceOnUse"
       spreadMethod="reflect"
       x1="14.850829"
       y1="25.002192"
       x2="30.055248"
       y2="25.002192"
       gradientTransform="matrix(2.6666666,0,0,2.6666666,0,-79.999998)" />
    <linearGradient
       id="linearGradient4120">
      <stop
         id="stop4122"
         style="stop-color:#ffffff;stop-opacity:1"
         offset="0" />
      <stop
         id="stop4124"
         style="stop-color:#ffffff;stop-opacity:0.23529412"
         offset="1" />
    </linearGradient>
    <linearGradient
       inkscape:collect="always"
       xlink:href="#linearGradient3707-319-631-407-324-3-8"
       id="linearGradient3927"
       gradientUnits="userSpaceOnUse"
       gradientTransform="translate(0,-4.8555953e-4)"
       spreadMethod="reflect"
       x1="29.96685"
       y1="21.02429"
       x2="14.850829"
       y2="21.02429" />
    <linearGradient
       id="linearGradient3707-319-631-407-324-3-8">
      <stop
         offset="0"
         style="stop-color:#185f9a;stop-opacity:1;"
         id="stop3760-7-3" />
      <stop
         offset="1"
         style="stop-color:#599ec9;stop-opacity:1;"
         id="stop3762-8-4" />
    </linearGradient>
    <linearGradient
       y2="21.02429"
       x2="14.850829"
       y1="21.02429"
       x1="29.96685"
       spreadMethod="reflect"
       gradientTransform="translate(0,-4.8555953e-4)"
       gradientUnits="userSpaceOnUse"
       id="linearGradient3946"
       xlink:href="#linearGradient3707-319-631-407-324-3-8-3"
       inkscape:collect="always" />
    <linearGradient
       id="linearGradient3707-319-631-407-324-3-8-3">
      <stop
         offset="0"
         style="stop-color:#185f9a;stop-opacity:1;"
         id="stop3760-7-3-6" />
      <stop
         offset="1"
         style="stop-color:#599ec9;stop-opacity:1;"
         id="stop3762-8-4-4" />
    </linearGradient>
    <linearGradient
       y2="21.02429"
       x2="14.850829"
       y1="21.02429"
       x1="29.96685"
       spreadMethod="reflect"
       gradientTransform="translate(0,-4.8555953e-4)"
       gradientUnits="userSpaceOnUse"
       id="linearGradient3980"
       xlink:href="#linearGradient3707-319-631-407-324-3-8-3-8"
       inkscape:collect="always" />
    <linearGradient
       id="linearGradient3707-319-631-407-324-3-8-3-8">
      <stop
         offset="0"
         style="stop-color:#185f9a;stop-opacity:1;"
         id="stop3760-7-3-6-1" />
      <stop
         offset="1"
         style="stop-color:#599ec9;stop-opacity:1;"
         id="stop3762-8-4-4-0" />
    </linearGradient>
    <linearGradient
       inkscape:collect="always"
       xlink:href="#linearGradient3875"
       id="linearGradient3865"
       gradientUnits="userSpaceOnUse"
       x1="23.571318"
       y1="5.5534472"
       x2="23.571318"
       y2="39.869995"
       gradientTransform="matrix(2.7674399,0,0,2.7574695,-2.4186012,-83.103077)" />
    <linearGradient
       id="linearGradient3875">
      <stop
         offset="0"
         style="stop-color:#ffffff;stop-opacity:1;"
         id="stop3877" />
      <stop
         id="stop3879"
         style="stop-color:#ffffff;stop-opacity:0.23529412;"
         offset="0.13099068" />
      <stop
         offset="0.90155029"
         style="stop-color:#ffffff;stop-opacity:0.15686275;"
         id="stop3881" />
      <stop
         offset="1"
         style="stop-color:#ffffff;stop-opacity:0.39215687;"
         id="stop3883" />
    </linearGradient>
    <linearGradient
       inkscape:collect="always"
       xlink:href="#linearGradient2867-449-88-871-390-598-476-591-434-148-57-177-3-8"
       id="linearGradient3868"
       gradientUnits="userSpaceOnUse"
       gradientTransform="matrix(3.5659827,0,0,3.5601649,-19.923407,-86.597375)"
       spreadMethod="reflect"
       x1="0.36465192"
       y1="19.599176"
       x2="28.05953"
       y2="19.599176" />
    <linearGradient
       id="linearGradient2867-449-88-871-390-598-476-591-434-148-57-177-3-8">
      <stop
         offset="0"
         style="stop-color:#90dbec;stop-opacity:1;"
         id="stop3750-8-9" />
      <stop
         offset="0.26238"
         style="stop-color:#55c1ec;stop-opacity:1;"
         id="stop3752-3-2" />
      <stop
         offset="0.704952"
         style="stop-color:#3689e6;stop-opacity:1;"
         id="stop3754-7-2" />
      <stop
         offset="1"
         style="stop-color:#2b63a0;stop-opacity:1;"
         id="stop3756-9-3" />
    </linearGradient>
    <linearGradient
       inkscape:collect="always"
       xlink:href="#linearGradient3707-319-631-407-324-3-8"
       id="linearGradient3870"
       gradientUnits="userSpaceOnUse"
       spreadMethod="reflect"
       x1="30"
       y1="30"
       x2="-11"
       y2="30"
       gradientTransform="matrix(2.6886375,0,0,2.6659653,-0.52273681,-80.804244)" />
    <linearGradient
       id="linearGradient8838">
      <stop
         id="stop8840"
         style="stop-color:#000000;stop-opacity:1"
         offset="0" />
      <stop
         id="stop8842"
         style="stop-color:#000000;stop-opacity:0"
         offset="1" />
    </linearGradient>
    <radialGradient
       r="10.625"
       fy="4.625"
       fx="62.625"
       cy="4.625"
       cx="62.625"
       gradientTransform="matrix(6.0235298,0,0,1.3803906,-313.22375,21.615684)"
       gradientUnits="userSpaceOnUse"
       id="radialGradient4055"
       xlink:href="#linearGradient8838"
       inkscape:collect="always" />
  </defs>
  <sodipodi:namedview
     id="base"
     pagecolor="#ffffff"
     bordercolor="#666666"
     borderopacity="1.0"
     inkscape:pageopacity="0.0"
     inkscape:pageshadow="2"
     inkscape:zoom="1"
     inkscape:cx="80.001141"
     inkscape:cy="41.507082"
     inkscape:current-layer="layer1"
     showgrid="false"
     inkscape:grid-bbox="true"
     inkscape:document-units="px"
     inkscape:window-width="1366"
     inkscape:window-height="718"
     inkscape:window-x="0"
     inkscape:window-y="25"
     inkscape:window-maximized="1"
     inkscape:snap-bbox="true"
     inkscape:bbox-paths="true"
     inkscape:bbox-nodes="true"
     inkscape:snap-bbox-edge-midpoints="true"
     inkscape:snap-global="true">
    <inkscape:grid
       type="xygrid"
       id="grid4173" />
  </sodipodi:namedview>
  <metadata
     id="metadata4062">
    <rdf:RDF>
      <cc:Work
         rdf:about="">
        <dc:format>image/svg+xml</dc:format>
        <dc:type
           rdf:resource="http://purl.org/dc/dcmitype/StillImage" />
        <dc:title></dc:title>
      </cc:Work>
    </rdf:RDF>
  </metadata>
  <g
     id="layer1"
     inkscape:label="Layer 1"
     inkscape:groupmode="layer"
     transform="translate(0,80)">
    <path
       inkscape:connector-curvature="0"
       style="display:inline;overflow:visible;visibility:visible;opacity:0.3;fill:url(#radialGradient4055);fill-opacity:1;fill-rule:evenodd;stroke:none;stroke-width:0.99999988;marker:none"
       id="path8836"
       d="m 127.99999,27.999992 c 0,8.100184 -28.653787,14.666671 -63.99999,14.666671 -35.346213,0 -64,-6.566487 -64,-14.666671 C 0,19.89982 28.653787,13.33333 64,13.33333 c 35.346203,0 63.99999,6.56649 63.99999,14.666662 l 0,0 z" />
    <path
       inkscape:connector-curvature="0"
       style="fill:url(#linearGradient3868);fill-opacity:1;fill-rule:evenodd;stroke:url(#linearGradient3870);stroke-width:0.99999988;stroke-linecap:butt;stroke-linejoin:round;stroke-miterlimit:4;stroke-dasharray:none;stroke-opacity:1"
       id="path4319"
       d="m 3.5102188,-54.749763 c -0.1188205,-4.194225 18.0402732,-9.357336 36.6454042,-8.691798 18.604445,0.665515 23.571493,7.083515 44.65233,7.963989 19.526177,0.815541 39.809777,-8.13076 39.690947,-3.857428 l 0,82.319457 c 0.16803,5.648438 -18.39841,9.576307 -39.484229,9.51483 C 63.928943,32.437803 60.012367,24.860047 40.155623,24.50139 20.310152,24.14294 3.0061002,34.998628 3.5102188,27.106044 Z"
       sodipodi:nodetypes="cssccsscc" />
    <path
       inkscape:connector-curvature="0"
       style="opacity:0.4;fill:none;stroke:url(#linearGradient3865);stroke-width:1.00000191px;stroke-linecap:butt;stroke-linejoin:miter;stroke-opacity:1"
       id="path5213"
       d="m 4.5000008,-54.973 c 0.4162783,-2.78992 16.4366782,-8.161732 36.3562522,-7.412457 16.236517,0.610736 25.707382,7.421796 43.752526,8.031725 18.045141,0.609929 38.980581,-7.101614 38.891131,-4.727268 l 0,83.745899 C 117.93796,28.470214 105.49104,31.40685 84.811336,31.331897 64.150559,31.25701 60.399645,23.948796 40.856253,23.458 20.87018,22.956086 4.5000008,33.076301 4.5000008,27.048 Z"
       sodipodi:nodetypes="cszccsssc" />
    <g
       id="g4194"
       transform="matrix(1.8981229,0,0,1.8981229,-27.595671,-8.6334418)">
      <path
         transform="matrix(1.3471019,0,0,1.3418228,15.438923,-35.16637)"
         d="m 23.875,10.009766 a 3.032284,3.032284 0 0 0 -0.177734,0.01953 c -1.218993,0.17352 -2.428245,0.450806 -3.615235,0.841797 a 3.032284,3.032284 0 0 0 -0.132812,0.04687 c -1.277904,0.488393 -2.516858,1.154209 -3.644531,2.023437 a 3.032284,3.032284 0 0 0 -0.01172,0.01172 c -0.193865,0.151105 -0.385714,0.43485 -0.585938,0.603516 -0.895232,-0.572986 -1.832233,-0.800568 -2.96289,-0.457032 a 3.032284,3.032284 0 0 0 -0.492188,0.197266 c -2.3755862,1.207657 -2.8295741,3.399414 -3.1249999,4.130859 a 3.032284,3.032284 0 0 0 -0.054687,0.140625 c -0.3768215,1.085744 -0.7586311,2.340049 -0.9140625,3.773438 -0.2041735,1.429888 -0.138886,2.757342 -0.017578,3.935547 0.1367824,1.587721 0.5627209,2.947263 0.9492188,4.113281 a 3.032284,3.032284 0 0 0 0.0625,0.167969 c 0.4681089,1.175962 1.0428542,2.231925 1.6289062,3.199218 a 3.032284,3.032284 0 0 0 0.03125,0.04883 c 0.977212,1.546038 2.147817,2.536207 2.992188,3.347656 a 3.032284,3.032284 0 0 0 0.07422,0.06836 c 1.151304,1.034992 2.327051,1.644424 3.25586,2.154297 a 3.032284,3.032284 0 0 0 0.02734,0.01563 c 1.312045,0.702351 2.57607,1.017073 3.621094,1.271484 a 3.032284,3.032284 0 0 0 0.505859,0.08008 c -0.380369,-0.02647 -0.216458,-0.01033 0.44336,0.164062 0.584669,0.154535 1.864472,0.162713 2.978516,-0.349609 1.093972,0.864983 2.411878,1.361624 4.130859,0.783203 l -0.705078,0.148437 c 0.875309,-0.0756 2.097642,-0.120561 3.498047,-0.484375 1.540252,-0.27067 2.70121,-0.921244 3.55664,-1.423828 a 3.032284,3.032284 0 0 0 0.06055,-0.03516 c 1.344663,-0.832671 2.710489,-1.885742 3.855469,-3.296875 0.683952,-0.805895 1.394527,-1.766285 1.9375,-2.957031 0.769924,-1.565738 1.070809,-3.029921 1.361328,-4.166016 a 3.032284,3.032284 0 0 0 0.06836,-0.353515 c 0.139115,-1.050388 0.29079,-2.21103 0.306641,-3.486329 a 3.032284,3.032284 0 0 0 -0.01172,-0.304687 c -0.109753,-1.242545 -0.320461,-2.484715 -0.65625,-3.716797 a 3.032284,3.032284 0 0 0 -0.0098,-0.03516 c -0.410062,-1.436426 -0.962615,-2.486551 -1.261719,-3.289063 a 3.032284,3.032284 0 0 0 -0.355469,-0.675781 c -0.0571,-0.08182 -0.315117,-0.599834 -0.929687,-1.263672 -0.614571,-0.663838 -2.149571,-1.616644 -3.748047,-1.330078 a 3.032284,3.032284 0 0 0 -0.949219,0.341797 c -0.07389,0.04152 -0.08837,0.140647 -0.158203,0.1875 -0.140132,-0.148381 -0.31548,-0.371465 -0.445313,-0.511719 A 3.032284,3.032284 0 0 0 34.25,13.683594 C 33.228133,12.586669 32.046372,11.838775 30.898438,11.283203 29.600545,10.636841 28.334512,10.393712 27.257812,10.248047 26.429237,10.126849 25.300436,9.892107 23.875,10.009766 Z m -10.199219,5.58789 c -0.02787,0.03555 -0.03517,0.0756 -0.0625,0.111328 -0.02031,0.0295 -0.0463,0.03845 -0.06641,0.06836 l 0.128906,-0.179688 z m 22.917969,0.759766 0.107422,0.140625 c -0.02638,-0.03625 -0.04971,-0.05219 -0.07617,-0.08789 -0.01315,-0.01617 -0.01801,-0.03662 -0.03125,-0.05273 z m -24.767578,2.539062 c -0.0043,0.0102 -0.0017,0.01715 -0.0059,0.02734 -0.0051,0.01314 -0.01638,0.02593 -0.02148,0.03906 l 0.02734,-0.06641 z m 20.1875,3.683594 c 0.293809,1.029508 0.536468,1.819515 0.548828,2.205078 a 3.032284,3.032284 0 0 0 0.0078,0.128906 c 0.01194,0.159292 -0.05975,0.330186 -0.06445,0.494141 l -0.74414,0.398438 -1.873047,-0.65625 c -0.459624,-0.367124 -0.636972,-0.659267 -0.751953,-0.898438 -0.0071,-0.112058 -0.02803,-0.247356 -0.0078,-0.314453 l 2.884766,-1.357422 z m -20.970703,0.234375 c -0.0016,0.01777 0.0074,0.03302 0.0059,0.05078 -0.001,0.01933 -0.01266,0.04918 -0.01367,0.06836 l 0.0078,-0.119141 z m 9.833984,0.255859 0.08008,0.238282 -0.02344,0.01758 c -0.05447,-0.151062 0.02505,-0.0793 -0.05664,-0.25586 z m -2.755859,0.07617 c 0.625919,-0.164946 1.323373,-0.126053 1.755859,0.04883 0.200722,0.08958 0.345983,0.305887 0.544922,0.480469 l -2.072266,1.419922 c -0.120271,-0.437957 -0.218325,-0.97532 -0.267578,-1.736328 0.0034,-0.07281 0.03326,-0.139878 0.03906,-0.212891 z m 2.998047,0.0039 c -0.02189,0.06338 -0.02826,0.122279 -0.05273,0.175781 4.6e-5,-0.01221 -0.0022,-0.01658 -0.002,-0.0293 a 3.032284,3.032284 0 0 0 0.05469,-0.146484 z m -0.121094,0.279297 0.002,0.0059 c -0.01148,0.02043 -0.01983,0.03397 -0.03125,0.05273 a 3.032284,3.032284 0 0 0 0.0293,-0.05859 z m 7.980469,0.328124 c 8.69e-4,0.0044 0.114442,0.339588 0.132812,0.460938 -0.129338,-0.282689 -0.13393,-0.46654 -0.132812,-0.460938 z m 0.160156,0.5625 c 0.0357,0.175646 -0.01673,0.152831 0.154297,0.53711 L 29.142578,24.4375 c -0.01853,-0.06655 0.0037,-0.06757 -0.0039,-0.117188 z m -3.001953,0.414063 a 3.032284,3.032284 0 0 0 0.0059,0.01172 c 0.01372,0.03044 0.01751,0.02312 0.03125,0.05273 a 3.032284,3.032284 0 0 0 -0.01172,0.0098 c -0.01655,-0.03895 -0.0017,-0.01342 -0.02539,-0.06836 1.67e-4,-0.0017 -1.66e-4,-0.0041 0,-0.0059 z m -14.603516,2.513672 c 0.0014,0.0048 0.0044,0.0089 0.0059,0.01367 0.0011,0.0037 8.14e-4,0.008 0.002,0.01172 l -0.0078,-0.02539 z m 28.027344,0.105469 -0.02344,0.140625 c 0.0037,-0.01874 -0.0016,-0.03402 0.002,-0.05273 0.0045,-0.02872 0.01722,-0.05925 0.02148,-0.08789 z m -1.410156,3.925781 -0.0957,0.152344 c 0.01861,-0.02793 0.02476,-0.05792 0.04297,-0.08594 0.01279,-0.02172 0.0401,-0.04477 0.05273,-0.06641 z m -2.394532,2.996094 -0.03125,0.02539 c 0.004,-0.0034 0.0038,-0.0083 0.0078,-0.01172 0.0062,-0.0054 0.01726,-0.0082 0.02344,-0.01367 z m -15.333984,1.976562 c 0.0178,0.0066 0.03105,0.0033 0.04883,0.0098 0.02089,0.0069 0.03568,0.0205 0.05664,0.02734 l -0.105469,-0.03711 z m 8.482422,1.019531 c 0.0157,-0.0026 0.02135,0.0027 0.03711,0 l -0.115234,0.01758 c 0.02239,-0.0029 0.05554,-0.01465 0.07813,-0.01758 z m -3.759766,2.150391 -0.248047,0.144531 c 0.04893,-0.02538 0.08636,-0.08107 0.134766,-0.109375 0.03594,-0.02126 0.07797,-0.01238 0.113281,-0.03516 z"
         id="path3925-3-9"
         style="color:#000000;font-style:normal;font-variant:normal;font-weight:normal;font-stretch:normal;font-size:medium;line-height:normal;font-family:'Andale Mono';-inkscape-font-specification:'Andale Mono';text-indent:0;text-align:start;text-decoration:none;text-decoration-line:none;letter-spacing:normal;word-spacing:normal;text-transform:none;direction:ltr;block-progression:tb;writing-mode:lr-tb;text-anchor:start;display:inline;overflow:visible;visibility:visible;opacity:0.1;fill:url(#linearGradient3980);fill-opacity:1;stroke:none;stroke-width:0.99999994;marker:none;enable-background:accumulate"
         inkscape:original="M 24.125 13.03125 C 23.073015 13.180997 22.040556 13.417538 21.03125 13.75 C 20.006281 14.141726 19.024969 14.674128 18.15625 15.34375 C 17.372414 15.954698 16.620402 16.638877 16.0625 17.46875 C 15.452657 18.246517 14.982588 19.143219 14.625 20.0625 C 14.225631 21.020453 14.116769 22.066991 14.0625 23.09375 C 13.96066 24.195833 14.109619 25.318443 14.4375 26.375 C 14.757467 27.439355 15.257176 28.441237 15.90625 29.34375 C 16.218169 29.764308 16.424077 30.284983 16.4375 30.8125 C 17.339994 30.83616 18.014716 31.548 18.6875 32.0625 C 19.556669 32.612833 20.489056 33.08653 21.46875 33.40625 C 22.74365 33.875521 24.094763 34.04115 25.4375 34.1875 C 26.425343 34.295011 27.447184 34.448421 28.4375 34.28125 C 29.38658 34.158854 30.325593 34.009849 31.21875 33.65625 C 32.152447 33.266988 32.994233 32.666229 33.75 32 C 34.481881 31.371911 35.047895 30.57775 35.53125 29.75 C 36.098884 28.898141 36.412592 27.912684 36.5625 26.90625 C 36.749167 25.962384 36.749288 24.956956 36.65625 24 C 36.489441 22.958043 36.174896 21.957595 35.8125 20.96875 C 35.43429 19.999745 34.910261 19.084949 34.25 18.28125 C 33.587733 17.371243 32.793983 16.573954 32.03125 15.75 C 31.342976 15.011171 30.467398 14.436305 29.5625 14 C 28.71039 13.572024 27.782881 13.376804 26.84375 13.25 C 25.94613 13.119668 25.034014 12.956218 24.125 13.03125 z M 25 14.03125 C 25.11053 14.02595 25.233167 14.034059 25.34375 14.03125 C 26.38256 14.09064 27.438622 14.185815 28.40625 14.59375 C 29.30684 15.001579 30.200331 15.487338 30.9375 16.15625 C 31.908262 16.970451 32.766344 17.906438 33.5 18.9375 C 34.113334 19.700935 34.498195 20.634147 34.875 21.53125 C 35.167608 22.568082 35.558847 23.598679 35.59375 24.6875 C 35.6745 25.764722 35.525338 26.853207 35.1875 27.875 C 34.866624 28.794153 34.348144 29.637489 33.75 30.40625 C 33.367174 30.914491 32.862552 31.325545 32.34375 31.6875 C 32.38897 30.750999 32.204406 29.80827 32.3125 28.875 C 32.431366 27.861051 33.042598 26.980024 33.1875 25.96875 C 33.4054 25.035184 33.277312 24.04364 33.03125 23.125 C 32.774059 22.524163 32.822805 21.735501 33.4375 21.375 C 33.311243 20.547737 32.374675 20.319287 31.9375 19.6875 C 31.117929 18.946302 30.29861 18.201978 29.53125 17.40625 C 29.311547 17.231016 29.048864 16.839983 28.84375 16.78125 C 28.93693 17.171254 28.185554 17.141175 28.15625 16.78125 C 27.366905 16.285633 26.409287 16.186553 25.5 16.125 C 24.344115 16.062 23.188856 16.221616 22.09375 16.59375 C 21.092201 16.99224 20.253791 17.669611 19.40625 18.3125 C 18.60555 19.084171 17.877302 19.958562 17.53125 21.03125 C 17.149173 21.92571 17.031188 22.913555 17.03125 23.875 C 16.9969 24.944409 17.507309 25.906382 17.875 26.875 C 18.243675 27.782746 17.5842 28.629987 17.09375 29.34375 C 16.550976 28.465026 15.897108 27.625978 15.59375 26.625 C 15.184868 25.596677 15.092599 24.470062 15.03125 23.375 C 15.06121 22.392655 15.238094 21.397436 15.5625 20.46875 C 15.881064 19.579289 16.348882 18.740008 16.9375 18 C 17.542667 17.149114 18.315838 16.456068 19.15625 15.84375 C 20.069162 15.312439 20.985948 14.727254 22.03125 14.5 C 22.990665 14.183034 23.992977 14.05849 25 14.03125 z M 13.625 16 C 12.647263 16.497044 12.31874 17.618587 11.9375 18.5625 C 11.58127 19.588913 11.266592 20.633726 11.15625 21.71875 C 10.993969 22.80362 11.04331 23.912915 11.15625 25 C 11.25524 26.18254 11.597216 27.316626 11.96875 28.4375 C 12.350175 29.395699 12.841859 30.307537 13.375 31.1875 C 14.049352 32.254386 15.003045 33.10076 15.90625 33.96875 C 16.705915 34.687628 17.657362 35.204716 18.59375 35.71875 C 19.497421 36.202494 20.508708 36.47742 21.5 36.71875 C 22.188311 36.76665 22.828484 37.308227 23.5 36.875 C 24.389831 36.413397 23.817894 35.160585 23 35 C 22.016261 34.762708 21.03579 34.536122 20.09375 34.15625 C 19.206444 33.80407 18.364363 33.311473 17.59375 32.75 C 16.83605 32.092756 16.083132 31.423455 15.46875 30.625 C 14.885043 29.886704 14.418353 29.057743 14.0625 28.1875 C 13.506885 26.965991 13.247212 25.640111 13.09375 24.3125 C 12.980635 23.316701 13.176111 22.328276 13.3125 21.34375 C 13.490138 20.343826 13.689679 19.318445 14.21875 18.4375 C 14.59339 17.741318 14.942066 16.818367 14.3125 16.15625 C 14.139743 15.996425 13.855004 15.930116 13.625 16 z M 36.34375 16.65625 C 35.362774 17.207506 35.852835 18.50753 36.28125 19.28125 C 36.773642 20.27246 37.148002 21.328 37.5 22.375 C 37.614647 23.268823 37.924059 24.152769 37.8125 25.0625 C 37.694764 26.007852 37.700761 26.980089 37.4375 27.90625 C 37.282342 28.878226 36.713442 29.70992 36.3125 30.59375 C 35.841055 31.549564 35.198784 32.415515 34.34375 33.0625 C 33.584195 33.719892 32.742889 34.329655 31.8125 34.71875 C 30.911591 35.153591 29.938887 35.43593 28.9375 35.5 C 28.035478 35.675857 26.939408 35.187415 26.21875 35.9375 C 25.723432 36.87598 27.0258 37.754498 27.875 37.46875 C 28.922667 37.37826 29.981643 37.35176 31 37.0625 C 31.95616 36.922264 32.831555 36.453276 33.65625 35.96875 C 34.816746 35.250123 35.921974 34.381135 36.78125 33.3125 C 37.385286 32.60258 37.930415 31.854063 38.3125 31 C 38.883451 29.858839 39.154647 28.603321 39.46875 27.375 C 39.606138 26.337651 39.736975 25.297906 39.75 24.25 C 39.6547 23.171086 39.472431 22.107974 39.1875 21.0625 C 38.88617 20.006955 38.382538 19.026369 38 18 C 37.607945 17.438231 37.160648 16.509801 36.34375 16.65625 z M 24.59375 17.03125 C 24.765464 17.0012 24.95281 17.06118 25.125 17.0625 C 26.045417 17.03987 26.975679 17.275123 27.78125 17.71875 C 28.5272 18.077743 29.492487 18.594422 29.40625 19.5625 C 28.641448 19.927417 28.280177 18.887296 27.65625 18.65625 C 26.843176 18.199761 25.884983 18.114168 24.96875 18.09375 C 24.082047 18.05609 23.212585 18.261786 22.40625 18.625 C 21.529095 19.028071 20.772455 19.699639 20.125 20.40625 C 19.57654 21.014712 19.453619 22.112373 18.5 22.28125 C 18.378135 22.31287 18.110476 22.337802 18.28125 22.09375 C 18.36537 21.209434 18.938414 20.506442 19.4375 19.8125 C 20.033508 19.045417 20.843059 18.455381 21.65625 17.9375 C 22.544693 17.411569 23.572358 17.1358 24.59375 17.03125 z M 25.21875 19 C 26.155407 19.166455 27.107906 19.453101 27.875 20.03125 C 28.359535 20.366084 28.313491 21.00091 28 21.4375 C 27.464843 22.276513 28.614874 22.822995 28.90625 23.5 C 29.158103 24.058833 29.563087 24.535783 29.875 25.0625 C 29.550415 25.987358 28.760667 26.651408 28 27.21875 C 27.346995 27.745883 26.521536 28.003109 25.6875 28.03125 C 24.760629 28.01166 23.795413 27.902601 22.9375 27.53125 C 22.08598 27.223694 21.440182 26.551804 20.90625 25.84375 C 20.660394 25.392684 20.040961 24.94288 20.3125 24.375 C 21.247985 24.41541 21.975015 25.384391 22.96875 25.28125 C 23.373562 24.530623 23.204892 23.646684 23.09375 22.84375 L 21.28125 22.84375 L 23.1875 19.65625 L 21.15625 20.8125 C 21.797615 20.194388 22.534079 19.623088 23.375 19.3125 C 23.981644 19.141893 24.580755 18.965458 25.21875 19 z M 31.75 22.78125 L 31.78125 22.78125 C 31.974951 22.935968 31.948317 23.368437 32.0625 23.625 C 32.169323 24.008693 32.14565 24.432782 32.03125 24.8125 C 31.301226 24.505862 30.891388 23.330177 31.6875 22.875 L 31.75 22.78125 z M 18.03125 23.09375 L 18.125 23.125 C 18.946006 23.521344 19.303555 24.475605 19.25 25.34375 C 19.3038 25.650298 19.110998 26.142498 18.71875 25.96875 C 18.067492 25.714936 18.366915 24.866635 18.125 24.34375 C 18.03445 23.933845 18.011297 23.512834 18.03125 23.09375 z M 22.40625 28.4375 C 23.513487 28.703964 24.628886 29.122847 25.78125 29.09375 C 26.569211 29.05943 27.449656 28.973407 28.09375 29.53125 C 28.11642 30.06894 27.377238 29.880386 27.03125 30 C 26.04257 30.07071 25.028463 30.195428 24.0625 29.90625 C 23.084606 29.671979 22.021354 29.475847 21.25 28.78125 C 21.052323 28.614214 21.522924 28.610214 21.59375 28.5 C 21.857223 28.42003 22.134007 28.38167 22.40625 28.4375 z M 20.03125 29.40625 C 20.948951 29.719643 21.721828 30.375316 22.6875 30.5625 C 23.716485 30.93365 24.814173 31.134652 25.90625 31.1875 C 26.97049 31.317233 28.025911 31.103925 29.03125 30.78125 C 30.10402 30.514903 31.050457 31.215606 31.84375 31.84375 L 31.96875 31.9375 C 31.185003 32.645336 30.079808 32.813719 29.09375 33.09375 C 28.108638 33.342705 27.070474 33.346788 26.0625 33.28125 C 25.009714 33.21305 23.97398 32.965294 22.9375 32.78125 C 21.931864 32.573295 20.975908 32.216713 20.0625 31.75 C 19.366603 31.335408 18.461525 30.956825 18.15625 30.15625 C 18.739588 29.897778 19.326397 29.345821 20.03125 29.40625 z "
         inkscape:radius="3.0319808"
         sodipodi:type="inkscape:offset" />
      <path
         transform="matrix(1.3471019,0,0,1.3418228,15.778549,-35.055991)"
         d="m 23.960938,11.046875 a 1.9917792,1.9917792 0 0 0 -0.117188,0.01172 c -1.161685,0.165362 -2.309528,0.429874 -3.435547,0.800781 a 1.9917792,1.9917792 0 0 0 -0.08789,0.03125 c -1.191111,0.455223 -2.342043,1.074265 -3.380859,1.875 a 1.9917792,1.9917792 0 0 0 -0.0078,0.0078 c -0.380023,0.296202 -0.726516,0.772747 -1.107422,1.134765 -0.03208,-0.03752 -0.03406,-0.08892 -0.06836,-0.125 a 1.9917792,1.9917792 0 0 0 -0.0918,-0.08789 C 14.892118,13.981153 14.049627,13.789076 13.046875,14.09375 a 1.9917792,1.9917792 0 0 0 -0.324219,0.130859 c -1.895925,0.963816 -2.305987,2.787445 -2.630859,3.591797 a 1.9917792,1.9917792 0 0 0 -0.03516,0.09375 C 9.6871358,18.974818 9.3276105,20.1556 9.1875,21.470703 c -0.1902805,1.313947 -0.1300972,2.566462 -0.011719,3.712891 0.1239186,1.448932 0.5211363,2.730801 0.9023438,3.880859 a 1.9917792,1.9917792 0 0 0 0.04102,0.109375 c 0.438364,1.101239 0.984838,2.107595 1.552734,3.044922 a 1.9917792,1.9917792 0 0 0 0.01953,0.0332 c 0.873288,1.381621 1.969426,2.321493 2.833985,3.152344 a 1.9917792,1.9917792 0 0 0 0.04883,0.04492 c 1.030641,0.92652 2.129137,1.504324 3.060547,2.015625 a 1.9917792,1.9917792 0 0 0 0.01953,0.0098 c 1.171914,0.627338 2.348414,0.929765 3.375,1.179688 a 1.9917792,1.9917792 0 0 0 0.332031,0.05078 c -0.131754,-0.0092 0.09007,0.05278 0.636719,0.197266 0.525243,0.138827 1.592937,0.188295 2.470703,-0.31836 0.180238,-0.100676 0.244649,-0.328518 0.404297,-0.472656 0.150746,0.183539 0.242305,0.457399 0.412109,0.595703 0.854989,0.696381 1.923623,1.086208 3.22461,0.648438 l -0.462891,0.09766 c 0.916575,-0.07917 2.064434,-0.123859 3.318359,-0.449219 1.368351,-0.220944 2.448874,-0.817845 3.300782,-1.318359 a 1.9917792,1.9917792 0 0 0 0.03906,-0.02344 c 1.284665,-0.795517 2.564342,-1.788617 3.613281,-3.08789 0.653046,-0.769888 1.302846,-1.654431 1.789063,-2.726563 0.702756,-1.422172 0.992662,-2.811783 1.291016,-3.978515 a 1.9917792,1.9917792 0 0 0 0.04492,-0.232422 c 0.138523,-1.045914 0.283947,-2.164058 0.298829,-3.361328 a 1.9917792,1.9917792 0 0 0 -0.0078,-0.201172 c -0.104794,-1.186396 -0.306663,-2.367107 -0.625,-3.535157 a 1.9917792,1.9917792 0 0 0 -0.0059,-0.02344 c -0.372751,-1.30573 -0.910548,-2.331611 -1.238282,-3.210937 a 1.9917792,1.9917792 0 0 0 -0.232422,-0.445313 c -0.104773,-0.150128 -0.345931,-0.616883 -0.839843,-1.150391 -0.493913,-0.533507 -1.610654,-1.227031 -2.800781,-1.013672 a 1.9917792,1.9917792 0 0 0 -0.625,0.22461 c -0.330834,0.185911 -0.478098,0.532634 -0.701172,0.822266 -0.399528,-0.441011 -0.811822,-0.954641 -1.173828,-1.345704 a 1.9917792,1.9917792 0 0 0 -0.0039,-0.0039 c -0.907592,-0.974257 -1.984409,-1.661175 -3.048828,-2.175781 -1.143016,-0.570442 -2.291096,-0.798309 -3.318359,-0.9375 -0.851818,-0.124034 -1.909815,-0.335628 -3.160156,-0.232422 z m 1.052734,5.056641 0.03906,0 c -0.0042,-1.79e-4 -0.0075,0.0021 -0.01172,0.002 -0.0082,-1.87e-4 -0.01923,-0.0018 -0.02734,-0.002 z m -10.517578,0.136718 c -0.0167,0.0213 -0.02061,0.04697 -0.03711,0.06836 -0.01423,0.02077 -0.03472,0.02785 -0.04883,0.04883 l 0.08594,-0.117188 z m 21.292968,0.777344 0.07031,0.0918 c -0.01684,-0.02314 -0.03387,-0.03566 -0.05078,-0.05859 -0.0082,-0.01011 -0.01125,-0.02312 -0.01953,-0.0332 z m -23.001953,2.279297 c -0.0026,0.0063 -0.0013,0.01129 -0.0039,0.01758 -0.0034,0.0086 -0.01032,0.01677 -0.01367,0.02539 l 0.01758,-0.04297 z m 2.91211,0.951172 c -0.01145,0.02679 -0.0026,0.05132 -0.01367,0.07813 -0.0068,0.01995 -0.0207,0.03263 -0.02734,0.05273 0.0083,-0.02645 0.01494,-0.05825 0.02344,-0.08398 l 0.01758,-0.04687 z m 9.304687,0.761719 c 0.466905,0.09356 0.784491,0.251463 1.113282,0.40625 -0.06684,0.354406 -0.259171,0.68702 -0.19336,1.005859 0.134452,0.651387 0.433072,1.059156 0.654297,1.339844 0.44245,0.561375 0.651572,0.882102 0.498047,0.52539 a 1.9917792,1.9917792 0 0 0 0.01367,0.03125 c 0.144214,0.319996 0.235779,0.391249 0.380859,0.625 -0.202292,0.223736 -0.275864,0.391608 -0.662109,0.679688 A 1.9917792,1.9917792 0 0 0 26.75,25.669922 c -0.252562,0.203879 -0.642252,0.33593 -1.091797,0.359375 -0.338317,-0.01002 -0.559382,-0.100234 -0.853515,-0.144531 0.589382,-1.383722 0.354459,-2.644459 0.261718,-3.314454 a 1.9917792,1.9917792 0 0 0 -0.601562,-1.169921 l 0.191406,-0.320313 c 0.09956,-0.01666 0.279302,-0.06892 0.347656,-0.07031 z m -12.923828,1.90039 c -9.39e-4,0.01016 0.0048,0.01914 0.0039,0.0293 -7.85e-4,0.01458 -0.009,0.03432 -0.0098,0.04883 l 0.0059,-0.07813 z m 20.722656,0.06641 c 0.35018,0.147089 0.366059,0.232562 0.419922,0.455079 0.03392,0.140128 -0.188328,0.449253 -0.34375,0.738281 l -1.117187,0.597656 -1.222657,-0.429687 c -0.18354,-0.146603 -0.07141,-0.110895 -0.154296,-0.222657 l 2.417968,-1.138672 z m -14.511718,1.140626 c 0.12618,-0.04619 0.227227,0.02178 0.361328,0.0098 l -1.212891,0.830078 c 0.03399,-0.06534 -0.01426,-0.117838 0.04102,-0.203125 0.127101,-0.196114 0.379505,-0.478934 0.810547,-0.636718 z m 11.888672,0.0957 c 0.03376,0.104815 -6.24e-4,0.08082 0.0625,0.222656 l -0.07617,-0.216797 0.01367,-0.0059 z m 4.978515,2.039062 -0.03125,0.169922 c 0.0071,-0.03055 -7.71e-4,-0.05744 0.0059,-0.08789 0.0073,-0.04561 0.01868,-0.03516 0.02539,-0.08203 z m -22.628906,0.697266 c 0.0011,0.0037 0.0048,0.0061 0.0059,0.0098 5.64e-4,0.0018 -5.64e-4,0.004 0,0.0059 l -0.0059,-0.01563 z m 26.003906,0.25 -0.01758,0.09375 c 0.0035,-0.01759 -0.0014,-0.0332 0.002,-0.05078 0.0022,-0.01434 0.01349,-0.02865 0.01563,-0.04297 z m -1.28125,3.554687 -0.0625,0.09961 c 0.0082,-0.01233 0.0055,-0.02671 0.01367,-0.03906 0.01214,-0.02061 0.03682,-0.03999 0.04883,-0.06055 z m -15.240234,1.681641 c 0.04718,0.01702 0.0972,0.0129 0.144531,0.0293 0.06231,0.0139 0.08763,0.04019 0.152344,0.05273 l -0.296875,-0.08203 z m 3.732422,0.726562 c 0.02228,0.0012 0.04414,0.01259 0.06641,0.01367 l -0.144531,-0.01172 c 0.02741,0.0033 0.05081,-0.005 0.07813,-0.002 z m 9.322265,0.332032 -0.01953,0.01758 c 0.0035,-0.003 0.0044,-0.0068 0.0078,-0.0098 0.0033,-0.0029 0.0084,-0.0049 0.01172,-0.0078 z m -14.285156,1.78125 c 0.01306,0.0048 0.02405,0.0031 0.03711,0.0078 0.01203,0.004 0.02115,0.01169 0.0332,0.01563 l -0.07031,-0.02344 z m 7.962891,0.96875 c 0.01006,-0.0017 0.01531,0.0017 0.02539,0 l -0.07813,0.01172 c 0.01594,-0.0021 0.03673,-0.0096 0.05273,-0.01172 z"
         id="path3925-3"
         style="color:#000000;font-style:normal;font-variant:normal;font-weight:normal;font-stretch:normal;font-size:medium;line-height:normal;font-family:'Andale Mono';-inkscape-font-specification:'Andale Mono';text-indent:0;text-align:start;text-decoration:none;text-decoration-line:none;letter-spacing:normal;word-spacing:normal;text-transform:none;direction:ltr;block-progression:tb;writing-mode:lr-tb;text-anchor:start;display:inline;overflow:visible;visibility:visible;opacity:0.35;fill:url(#linearGradient3946);fill-opacity:1;stroke:none;stroke-width:0.99999994;marker:none;enable-background:accumulate"
         inkscape:original="M 24.125 13.03125 C 23.073015 13.180997 22.040556 13.417538 21.03125 13.75 C 20.006281 14.141726 19.024969 14.674128 18.15625 15.34375 C 17.372414 15.954698 16.620402 16.638877 16.0625 17.46875 C 15.452657 18.246517 14.982588 19.143219 14.625 20.0625 C 14.225631 21.020453 14.116769 22.066991 14.0625 23.09375 C 13.96066 24.195833 14.109619 25.318443 14.4375 26.375 C 14.757467 27.439355 15.257176 28.441237 15.90625 29.34375 C 16.218169 29.764308 16.424077 30.284983 16.4375 30.8125 C 17.339994 30.83616 18.014716 31.548 18.6875 32.0625 C 19.556669 32.612833 20.489056 33.08653 21.46875 33.40625 C 22.74365 33.875521 24.094763 34.04115 25.4375 34.1875 C 26.425343 34.295011 27.447184 34.448421 28.4375 34.28125 C 29.38658 34.158854 30.325593 34.009849 31.21875 33.65625 C 32.152447 33.266988 32.994233 32.666229 33.75 32 C 34.481881 31.371911 35.047895 30.57775 35.53125 29.75 C 36.098884 28.898141 36.412592 27.912684 36.5625 26.90625 C 36.749167 25.962384 36.749288 24.956956 36.65625 24 C 36.489441 22.958043 36.174896 21.957595 35.8125 20.96875 C 35.43429 19.999745 34.910261 19.084949 34.25 18.28125 C 33.587733 17.371243 32.793983 16.573954 32.03125 15.75 C 31.342976 15.011171 30.467398 14.436305 29.5625 14 C 28.71039 13.572024 27.782881 13.376804 26.84375 13.25 C 25.94613 13.119668 25.034014 12.956218 24.125 13.03125 z M 25 14.03125 C 25.11053 14.02595 25.233167 14.034059 25.34375 14.03125 C 26.38256 14.09064 27.438622 14.185815 28.40625 14.59375 C 29.30684 15.001579 30.200331 15.487338 30.9375 16.15625 C 31.908262 16.970451 32.766344 17.906438 33.5 18.9375 C 34.113334 19.700935 34.498195 20.634147 34.875 21.53125 C 35.167608 22.568082 35.558847 23.598679 35.59375 24.6875 C 35.6745 25.764722 35.525338 26.853207 35.1875 27.875 C 34.866624 28.794153 34.348144 29.637489 33.75 30.40625 C 33.367174 30.914491 32.862552 31.325545 32.34375 31.6875 C 32.38897 30.750999 32.204406 29.80827 32.3125 28.875 C 32.431366 27.861051 33.042598 26.980024 33.1875 25.96875 C 33.4054 25.035184 33.277312 24.04364 33.03125 23.125 C 32.774059 22.524163 32.822805 21.735501 33.4375 21.375 C 33.311243 20.547737 32.374675 20.319287 31.9375 19.6875 C 31.117929 18.946302 30.29861 18.201978 29.53125 17.40625 C 29.311547 17.231016 29.048864 16.839983 28.84375 16.78125 C 28.93693 17.171254 28.185554 17.141175 28.15625 16.78125 C 27.366905 16.285633 26.409287 16.186553 25.5 16.125 C 24.344115 16.062 23.188856 16.221616 22.09375 16.59375 C 21.092201 16.99224 20.253791 17.669611 19.40625 18.3125 C 18.60555 19.084171 17.877302 19.958562 17.53125 21.03125 C 17.149173 21.92571 17.031188 22.913555 17.03125 23.875 C 16.9969 24.944409 17.507309 25.906382 17.875 26.875 C 18.243675 27.782746 17.5842 28.629987 17.09375 29.34375 C 16.550976 28.465026 15.897108 27.625978 15.59375 26.625 C 15.184868 25.596677 15.092599 24.470062 15.03125 23.375 C 15.06121 22.392655 15.238094 21.397436 15.5625 20.46875 C 15.881064 19.579289 16.348882 18.740008 16.9375 18 C 17.542667 17.149114 18.315838 16.456068 19.15625 15.84375 C 20.069162 15.312439 20.985948 14.727254 22.03125 14.5 C 22.990665 14.183034 23.992977 14.05849 25 14.03125 z M 13.625 16 C 12.647263 16.497044 12.31874 17.618587 11.9375 18.5625 C 11.58127 19.588913 11.266592 20.633726 11.15625 21.71875 C 10.993969 22.80362 11.04331 23.912915 11.15625 25 C 11.25524 26.18254 11.597216 27.316626 11.96875 28.4375 C 12.350175 29.395699 12.841859 30.307537 13.375 31.1875 C 14.049352 32.254386 15.003045 33.10076 15.90625 33.96875 C 16.705915 34.687628 17.657362 35.204716 18.59375 35.71875 C 19.497421 36.202494 20.508708 36.47742 21.5 36.71875 C 22.188311 36.76665 22.828484 37.308227 23.5 36.875 C 24.389831 36.413397 23.817894 35.160585 23 35 C 22.016261 34.762708 21.03579 34.536122 20.09375 34.15625 C 19.206444 33.80407 18.364363 33.311473 17.59375 32.75 C 16.83605 32.092756 16.083132 31.423455 15.46875 30.625 C 14.885043 29.886704 14.418353 29.057743 14.0625 28.1875 C 13.506885 26.965991 13.247212 25.640111 13.09375 24.3125 C 12.980635 23.316701 13.176111 22.328276 13.3125 21.34375 C 13.490138 20.343826 13.689679 19.318445 14.21875 18.4375 C 14.59339 17.741318 14.942066 16.818367 14.3125 16.15625 C 14.139743 15.996425 13.855004 15.930116 13.625 16 z M 36.34375 16.65625 C 35.362774 17.207506 35.852835 18.50753 36.28125 19.28125 C 36.773642 20.27246 37.148002 21.328 37.5 22.375 C 37.614647 23.268823 37.924059 24.152769 37.8125 25.0625 C 37.694764 26.007852 37.700761 26.980089 37.4375 27.90625 C 37.282342 28.878226 36.713442 29.70992 36.3125 30.59375 C 35.841055 31.549564 35.198784 32.415515 34.34375 33.0625 C 33.584195 33.719892 32.742889 34.329655 31.8125 34.71875 C 30.911591 35.153591 29.938887 35.43593 28.9375 35.5 C 28.035478 35.675857 26.939408 35.187415 26.21875 35.9375 C 25.723432 36.87598 27.0258 37.754498 27.875 37.46875 C 28.922667 37.37826 29.981643 37.35176 31 37.0625 C 31.95616 36.922264 32.831555 36.453276 33.65625 35.96875 C 34.816746 35.250123 35.921974 34.381135 36.78125 33.3125 C 37.385286 32.60258 37.930415 31.854063 38.3125 31 C 38.883451 29.858839 39.154647 28.603321 39.46875 27.375 C 39.606138 26.337651 39.736975 25.297906 39.75 24.25 C 39.6547 23.171086 39.472431 22.107974 39.1875 21.0625 C 38.88617 20.006955 38.382538 19.026369 38 18 C 37.607945 17.438231 37.160648 16.509801 36.34375 16.65625 z M 24.59375 17.03125 C 24.765464 17.0012 24.95281 17.06118 25.125 17.0625 C 26.045417 17.03987 26.975679 17.275123 27.78125 17.71875 C 28.5272 18.077743 29.492487 18.594422 29.40625 19.5625 C 28.641448 19.927417 28.280177 18.887296 27.65625 18.65625 C 26.843176 18.199761 25.884983 18.114168 24.96875 18.09375 C 24.082047 18.05609 23.212585 18.261786 22.40625 18.625 C 21.529095 19.028071 20.772455 19.699639 20.125 20.40625 C 19.57654 21.014712 19.453619 22.112373 18.5 22.28125 C 18.378135 22.31287 18.110476 22.337802 18.28125 22.09375 C 18.36537 21.209434 18.938414 20.506442 19.4375 19.8125 C 20.033508 19.045417 20.843059 18.455381 21.65625 17.9375 C 22.544693 17.411569 23.572358 17.1358 24.59375 17.03125 z M 25.21875 19 C 26.155407 19.166455 27.107906 19.453101 27.875 20.03125 C 28.359535 20.366084 28.313491 21.00091 28 21.4375 C 27.464843 22.276513 28.614874 22.822995 28.90625 23.5 C 29.158103 24.058833 29.563087 24.535783 29.875 25.0625 C 29.550415 25.987358 28.760667 26.651408 28 27.21875 C 27.346995 27.745883 26.521536 28.003109 25.6875 28.03125 C 24.760629 28.01166 23.795413 27.902601 22.9375 27.53125 C 22.08598 27.223694 21.440182 26.551804 20.90625 25.84375 C 20.660394 25.392684 20.040961 24.94288 20.3125 24.375 C 21.247985 24.41541 21.975015 25.384391 22.96875 25.28125 C 23.373562 24.530623 23.204892 23.646684 23.09375 22.84375 L 21.28125 22.84375 L 23.1875 19.65625 L 21.15625 20.8125 C 21.797615 20.194388 22.534079 19.623088 23.375 19.3125 C 23.981644 19.141893 24.580755 18.965458 25.21875 19 z M 31.75 22.78125 L 31.78125 22.78125 C 31.974951 22.935968 31.948317 23.368437 32.0625 23.625 C 32.169323 24.008693 32.14565 24.432782 32.03125 24.8125 C 31.301226 24.505862 30.891388 23.330177 31.6875 22.875 L 31.75 22.78125 z M 18.03125 23.09375 L 18.125 23.125 C 18.946006 23.521344 19.303555 24.475605 19.25 25.34375 C 19.3038 25.650298 19.110998 26.142498 18.71875 25.96875 C 18.067492 25.714936 18.366915 24.866635 18.125 24.34375 C 18.03445 23.933845 18.011297 23.512834 18.03125 23.09375 z M 22.40625 28.4375 C 23.513487 28.703964 24.628886 29.122847 25.78125 29.09375 C 26.569211 29.05943 27.449656 28.973407 28.09375 29.53125 C 28.11642 30.06894 27.377238 29.880386 27.03125 30 C 26.04257 30.07071 25.028463 30.195428 24.0625 29.90625 C 23.084606 29.671979 22.021354 29.475847 21.25 28.78125 C 21.052323 28.614214 21.522924 28.610214 21.59375 28.5 C 21.857223 28.42003 22.134007 28.38167 22.40625 28.4375 z M 20.03125 29.40625 C 20.948951 29.719643 21.721828 30.375316 22.6875 30.5625 C 23.716485 30.93365 24.814173 31.134652 25.90625 31.1875 C 26.97049 31.317233 28.025911 31.103925 29.03125 30.78125 C 30.10402 30.514903 31.050457 31.215606 31.84375 31.84375 L 31.96875 31.9375 C 31.185003 32.645336 30.079808 32.813719 29.09375 33.09375 C 28.108638 33.342705 27.070474 33.346788 26.0625 33.28125 C 25.009714 33.21305 23.97398 32.965294 22.9375 32.78125 C 21.931864 32.573295 20.975908 32.216713 20.0625 31.75 C 19.366603 31.335408 18.461525 30.956825 18.15625 30.15625 C 18.739588 29.897778 19.326397 29.345821 20.03125 29.40625 z "
         inkscape:radius="1.99158"
         sodipodi:type="inkscape:offset" />
      <path
         transform="matrix(1.3471019,0,0,1.3418228,15.441341,-34.736518)"
         d="m 24.037109,11.974609 a 1.0608796,1.0608796 0 0 0 -0.0625,0.0059 c -1.110414,0.158064 -2.20392,0.40878 -3.27539,0.761719 a 1.0608796,1.0608796 0 0 0 -0.04687,0.01758 c -1.113461,0.425546 -2.185214,1.004684 -3.144532,1.74414 a 1.0608796,1.0608796 0 0 0 -0.0039,0.0039 c -0.669155,0.521562 -1.298196,1.194142 -1.878906,1.916016 -0.09395,-0.355009 -0.264444,-0.705121 -0.542969,-0.998047 a 1.0608796,1.0608796 0 0 0 -0.04883,-0.04883 c -0.491902,-0.45508 -1.075205,-0.587518 -1.716797,-0.392578 a 1.0608796,1.0608796 0 0 0 -0.171875,0.07031 c -1.46679,0.74566 -1.840189,2.241749 -2.191406,3.111328 a 1.0608796,1.0608796 0 0 0 -0.01758,0.04883 c -0.363368,1.046979 -0.702018,2.163981 -0.828125,3.373047 -0.1771609,1.206851 -0.1214452,2.390452 -0.0059,3.507812 0.112106,1.325425 0.482575,2.53902 0.859376,3.675781 a 1.0608796,1.0608796 0 0 0 0.02148,0.05859 c 0.411752,1.034386 0.932723,1.995734 1.484375,2.90625 a 1.0608796,1.0608796 0 0 0 0.01172,0.01758 c 0.780311,1.234523 1.810738,2.13226 2.693359,2.980469 a 1.0608796,1.0608796 0 0 0 0.02539,0.02344 c 0.922689,0.829475 1.952982,1.378047 2.886718,1.890626 a 1.0608796,1.0608796 0 0 0 0.0098,0.0059 C 19.140295,37.214523 20.239909,37.504093 21.25,37.75 a 1.0608796,1.0608796 0 0 0 0.175781,0.02734 c 0.09067,0.0063 0.363189,0.106884 0.808594,0.224609 0.434062,0.114727 1.169121,0.145367 1.792969,-0.230469 0.412836,-0.232211 0.760808,-0.613956 0.896484,-1.041015 0.141555,-0.445564 0.09709,-0.881208 -0.0293,-1.25 -0.04799,-0.140034 -0.16212,-0.240298 -0.232422,-0.369141 0.215422,0.02533 0.448685,0.10781 0.660157,0.13086 0.02786,0.003 0.06757,-0.0012 0.0957,0.002 a 1.0608796,1.0608796 0 0 0 -0.136719,0.197265 c -0.245287,0.464746 -0.287049,1.033109 -0.144531,1.488282 0.142517,0.455172 0.422209,0.79884 0.736328,1.054687 0.628238,0.511694 1.448455,0.790179 2.339844,0.490234 l -0.246094,0.05078 c 0.975991,-0.0843 2.077242,-0.120904 3.228515,-0.431641 1.178187,-0.183682 2.160004,-0.718569 2.998047,-1.210938 a 1.0608796,1.0608796 0 0 0 0.02148,-0.01172 c 1.228102,-0.760492 2.427618,-1.696792 3.388672,-2.890625 0.628301,-0.740145 1.228898,-1.558092 1.666015,-2.527344 0.642246,-1.292421 0.920878,-2.619053 1.226563,-3.814453 a 1.0608796,1.0608796 0 0 0 0.02344,-0.125 c 0.137992,-1.041911 0.277002,-2.122538 0.291016,-3.25 a 1.0608796,1.0608796 0 0 0 -0.0039,-0.107422 c -0.100357,-1.136162 -0.292979,-2.262286 -0.595703,-3.373047 a 1.0608796,1.0608796 0 0 0 -0.0039,-0.01172 c -0.339371,-1.1888 -0.859543,-2.194528 -1.21289,-3.142578 a 1.0608796,1.0608796 0 0 0 -0.125,-0.236328 c -0.147423,-0.21124 -0.373802,-0.633876 -0.759766,-1.050781 -0.385964,-0.416906 -1.128331,-0.878333 -1.953125,-0.730469 a 1.0608796,1.0608796 0 0 0 -0.332031,0.121094 c -0.634185,0.356378 -0.889433,0.995011 -0.992188,1.609375 -0.658026,-0.843688 -1.365511,-1.603875 -2.021484,-2.3125 a 1.0608796,1.0608796 0 0 0 -0.0039,-0.002 c -0.804747,-0.863857 -1.786153,-1.498664 -2.775391,-1.976563 -1.006831,-0.504089 -2.049981,-0.716154 -3.035156,-0.849609 -0.0011,-1.67e-4 -0.0028,1.67e-4 -0.0039,0 -0.873101,-0.126891 -1.863651,-0.316651 -2.955079,-0.226563 z m 1.013672,3.115235 c 0.016,-7.67e-4 0.129631,0.0021 0.240235,0.002 0.01384,7.95e-4 0.0233,0.005 0.03711,0.0059 -0.968531,-0.03024 -1.920659,0.148544 -2.855469,0.392578 0.800318,-0.250351 1.656501,-0.374088 2.556641,-0.398437 a 1.0608796,1.0608796 0 0 0 0.02148,-0.002 z m 2.810547,0.457031 c 0.03443,0.01328 0.08532,0.0074 0.119141,0.02148 0.04347,0.01973 0.07209,0.05028 0.115234,0.07031 -0.07837,-0.03351 -0.155813,-0.06302 -0.234375,-0.0918 z m -7.396484,0.84375 c -0.354776,0.228442 -0.737588,0.42624 -1.050782,0.664063 0.126357,-0.100393 0.20526,-0.226953 0.337891,-0.324219 0.259287,-0.151151 0.468743,-0.202532 0.712891,-0.339844 z m -5.236328,0.423828 c -0.0081,0.01036 -0.01146,0.02282 -0.01953,0.0332 -0.0079,0.01168 -0.01945,0.01756 -0.02734,0.0293 l 0.04687,-0.0625 z m 9.763672,0.21875 0.02148,0 c -0.0021,-9e-5 -0.0037,0.002 -0.0059,0.002 -0.0049,-1.11e-4 -0.01074,-0.0018 -0.01562,-0.002 z m 10.078124,0.574219 0.03711,0.04883 c -0.0081,-0.01109 -0.0173,-0.01825 -0.02539,-0.0293 -0.0049,-0.0059 -0.0068,-0.0136 -0.01172,-0.01953 z m -7.044921,0.05469 0.15039,0.06836 c -0.03666,-0.02058 -0.07452,-0.0197 -0.111328,-0.03906 -0.02339,-0.0094 -0.01466,-0.02026 -0.03906,-0.0293 z m -14.378907,1.992188 c -0.0014,0.0033 -5.75e-4,0.0064 -0.002,0.0098 -0.0019,0.0048 -0.006,0.0089 -0.0078,0.01367 l 0.0098,-0.02344 z m 11.453125,0.416015 c 0.779688,0.14514 1.486044,0.391769 2.025391,0.767579 a 1.0608796,1.0608796 0 0 0 -0.01953,0.0293 c -0.254497,0.398996 -0.358489,0.934254 -0.269531,1.365234 0.08896,0.43098 0.296713,0.727412 0.474609,0.953125 0.355793,0.451425 0.634775,0.766164 0.621094,0.734375 a 1.0608796,1.0608796 0 0 0 0.0078,0.01563 c 0.215469,0.478101 0.436175,0.753744 0.660156,1.076172 -0.270919,0.459032 -0.641425,0.915172 -1.234375,1.357422 a 1.0608796,1.0608796 0 0 0 -0.03125,0.02344 c -0.439181,0.354526 -1.030528,0.54694 -1.662109,0.572266 -0.844816,-0.0207 -1.661699,-0.124548 -2.3125,-0.40625 a 1.0608796,1.0608796 0 0 0 -0.0625,-0.02539 c -0.08321,-0.03005 -0.152687,-0.158065 -0.234375,-0.201172 0.0068,-6.49e-4 0.0088,0.0046 0.01563,0.0039 a 1.0608796,1.0608796 0 0 0 0.824219,-0.550782 c 0.628395,-1.165209 0.347841,-2.32265 0.242187,-3.085937 a 1.0608796,1.0608796 0 0 0 -0.99414,-0.914063 l 0.912109,-1.52539 c 0.377495,-0.09658 0.751337,-0.196425 1.037109,-0.189454 z m -8.542968,0.544922 c -0.0047,0.01101 -0.0012,0.02219 -0.0059,0.0332 -0.0071,0.0211 -0.02244,0.03537 -0.0293,0.05664 l 0.03516,-0.08984 z m 17.410156,1.691407 c 0.258795,0.87332 0.543552,1.701108 0.566406,2.414062 a 1.0608796,1.0608796 0 0 0 0.002,0.04687 c 0.06924,0.92371 -0.05919,1.871459 -0.353515,2.765625 -0.168955,0.481651 -0.503318,0.928765 -0.792969,1.386719 0.101202,-0.64837 0.639408,-1.485639 0.835937,-2.751953 0.262991,-1.170505 0.100445,-2.316275 -0.167968,-3.31836 a 1.0608796,1.0608796 0 0 0 -0.05078,-0.142578 c -0.05298,-0.123771 -0.068,-0.285112 -0.05469,-0.359375 0.0093,-0.05164 0.01092,-0.04066 0.01563,-0.04102 z m -20.960938,0.689453 c -6.16e-4,0.0067 0.0026,0.01287 0.002,0.01953 -3.6e-4,0.0068 -0.0035,0.01474 -0.0039,0.02148 l 0.002,-0.04102 z m 2.964844,0.845703 c -2.09e-4,0.0065 0.0021,0.01108 0.002,0.01758 -5e-6,0.005 -0.002,0.01065 -0.002,0.01563 l 0,-0.0332 z m -2.548828,2.837891 c 2.53e-4,8.43e-4 0.0017,0.0011 0.002,0.002 7.59e-4,0.0024 -7.6e-4,0.0054 0,0.0078 l -0.002,-0.0098 z m 24.189453,0.382812 -0.0078,0.04883 c 0.002,-0.0099 3.3e-5,-0.0194 0.002,-0.0293 9.86e-4,-0.0065 0.0049,-0.01299 0.0059,-0.01953 z m -1.164062,3.222656 -0.0332,0.05273 c 0.0041,-0.0061 0.0038,-0.0134 0.0078,-0.01953 0.0067,-0.01148 0.01869,-0.02173 0.02539,-0.0332 z M 20.484375,30.75 c 0.137555,0.07533 0.338873,0.127225 0.494141,0.210938 -0.131847,-0.06098 -0.273649,-0.08015 -0.404297,-0.146485 -0.04837,-0.02881 -0.04335,-0.0367 -0.08984,-0.06445 z m 1.84375,0.810547 c 0.03416,0.01232 0.0712,0.0095 0.105469,0.02148 0.02428,0.0051 0.02811,0.01671 0.05273,0.02148 l -0.158203,-0.04297 z m 0.695313,0.134765 c 0.247513,0.07171 0.501039,0.09145 0.751953,0.146485 -0.216187,-0.04136 -0.400124,-0.0598 -0.623047,-0.09961 l -0.0059,-0.002 c -0.04257,-0.0088 -0.08063,-0.03549 -0.123046,-0.04492 z m 6.332031,0.0957 -0.06836,0.01953 c 0.04875,-0.0121 0.106861,0.0281 0.154297,0.02344 -0.240042,0.06648 -0.341085,0.155223 -0.607422,0.230469 -0.0012,2.97e-4 -0.0027,-2.96e-4 -0.0039,0 -0.815291,0.205403 -1.74253,0.220407 -2.699219,0.158203 -0.02908,-0.0019 -0.06454,-0.01341 -0.09375,-0.01563 1.182461,0.09105 2.315388,-0.0941 3.31836,-0.416015 z m -3.548828,0.445312 c 0.01646,8.58e-4 0.03237,0.009 0.04883,0.0098 l -0.07813,-0.0059 c 0.01054,0.0013 0.01876,-0.0051 0.0293,-0.0039 z m -4.705079,2.166016 c 0.0086,0.0032 0.01675,0.0027 0.02539,0.0059 0.0048,0.0016 0.0089,0.0043 0.01367,0.0059 l -0.03906,-0.01172 z m 7.498047,0.925781 c 0.005,-8.37e-4 0.0086,8.5e-4 0.01367,0 l -0.04102,0.0059 c 0.0087,-0.0011 0.01863,-0.0047 0.02734,-0.0059 z"
         id="path3925"
         style="color:#000000;font-style:normal;font-variant:normal;font-weight:normal;font-stretch:normal;font-size:medium;line-height:normal;font-family:'Andale Mono';-inkscape-font-specification:'Andale Mono';text-indent:0;text-align:start;text-decoration:none;text-decoration-line:none;letter-spacing:normal;word-spacing:normal;text-transform:none;direction:ltr;block-progression:tb;writing-mode:lr-tb;text-anchor:start;display:inline;overflow:visible;visibility:visible;opacity:0.5;fill:url(#linearGradient3927);fill-opacity:1;stroke:none;stroke-width:0.99999994;marker:none;enable-background:accumulate"
         inkscape:original="M 24.125 13.03125 C 23.073015 13.180997 22.040556 13.417538 21.03125 13.75 C 20.006281 14.141726 19.024969 14.674128 18.15625 15.34375 C 17.372414 15.954698 16.620402 16.638877 16.0625 17.46875 C 15.452657 18.246517 14.982588 19.143219 14.625 20.0625 C 14.225631 21.020453 14.116769 22.066991 14.0625 23.09375 C 13.96066 24.195833 14.109619 25.318443 14.4375 26.375 C 14.757467 27.439355 15.257176 28.441237 15.90625 29.34375 C 16.218169 29.764308 16.424077 30.284983 16.4375 30.8125 C 17.339994 30.83616 18.014716 31.548 18.6875 32.0625 C 19.556669 32.612833 20.489056 33.08653 21.46875 33.40625 C 22.74365 33.875521 24.094763 34.04115 25.4375 34.1875 C 26.425343 34.295011 27.447184 34.448421 28.4375 34.28125 C 29.38658 34.158854 30.325593 34.009849 31.21875 33.65625 C 32.152447 33.266988 32.994233 32.666229 33.75 32 C 34.481881 31.371911 35.047895 30.57775 35.53125 29.75 C 36.098884 28.898141 36.412592 27.912684 36.5625 26.90625 C 36.749167 25.962384 36.749288 24.956956 36.65625 24 C 36.489441 22.958043 36.174896 21.957595 35.8125 20.96875 C 35.43429 19.999745 34.910261 19.084949 34.25 18.28125 C 33.587733 17.371243 32.793983 16.573954 32.03125 15.75 C 31.342976 15.011171 30.467398 14.436305 29.5625 14 C 28.71039 13.572024 27.782881 13.376804 26.84375 13.25 C 25.94613 13.119668 25.034014 12.956218 24.125 13.03125 z M 25 14.03125 C 25.11053 14.02595 25.233167 14.034059 25.34375 14.03125 C 26.38256 14.09064 27.438622 14.185815 28.40625 14.59375 C 29.30684 15.001579 30.200331 15.487338 30.9375 16.15625 C 31.908262 16.970451 32.766344 17.906438 33.5 18.9375 C 34.113334 19.700935 34.498195 20.634147 34.875 21.53125 C 35.167608 22.568082 35.558847 23.598679 35.59375 24.6875 C 35.6745 25.764722 35.525338 26.853207 35.1875 27.875 C 34.866624 28.794153 34.348144 29.637489 33.75 30.40625 C 33.367174 30.914491 32.862552 31.325545 32.34375 31.6875 C 32.38897 30.750999 32.204406 29.80827 32.3125 28.875 C 32.431366 27.861051 33.042598 26.980024 33.1875 25.96875 C 33.4054 25.035184 33.277312 24.04364 33.03125 23.125 C 32.774059 22.524163 32.822805 21.735501 33.4375 21.375 C 33.311243 20.547737 32.374675 20.319287 31.9375 19.6875 C 31.117929 18.946302 30.29861 18.201978 29.53125 17.40625 C 29.311547 17.231016 29.048864 16.839983 28.84375 16.78125 C 28.93693 17.171254 28.185554 17.141175 28.15625 16.78125 C 27.366905 16.285633 26.409287 16.186553 25.5 16.125 C 24.344115 16.062 23.188856 16.221616 22.09375 16.59375 C 21.092201 16.99224 20.253791 17.669611 19.40625 18.3125 C 18.60555 19.084171 17.877302 19.958562 17.53125 21.03125 C 17.149173 21.92571 17.031188 22.913555 17.03125 23.875 C 16.9969 24.944409 17.507309 25.906382 17.875 26.875 C 18.243675 27.782746 17.5842 28.629987 17.09375 29.34375 C 16.550976 28.465026 15.897108 27.625978 15.59375 26.625 C 15.184868 25.596677 15.092599 24.470062 15.03125 23.375 C 15.06121 22.392655 15.238094 21.397436 15.5625 20.46875 C 15.881064 19.579289 16.348882 18.740008 16.9375 18 C 17.542667 17.149114 18.315838 16.456068 19.15625 15.84375 C 20.069162 15.312439 20.985948 14.727254 22.03125 14.5 C 22.990665 14.183034 23.992977 14.05849 25 14.03125 z M 13.625 16 C 12.647263 16.497044 12.31874 17.618587 11.9375 18.5625 C 11.58127 19.588913 11.266592 20.633726 11.15625 21.71875 C 10.993969 22.80362 11.04331 23.912915 11.15625 25 C 11.25524 26.18254 11.597216 27.316626 11.96875 28.4375 C 12.350175 29.395699 12.841859 30.307537 13.375 31.1875 C 14.049352 32.254386 15.003045 33.10076 15.90625 33.96875 C 16.705915 34.687628 17.657362 35.204716 18.59375 35.71875 C 19.497421 36.202494 20.508708 36.47742 21.5 36.71875 C 22.188311 36.76665 22.828484 37.308227 23.5 36.875 C 24.389831 36.413397 23.817894 35.160585 23 35 C 22.016261 34.762708 21.03579 34.536122 20.09375 34.15625 C 19.206444 33.80407 18.364363 33.311473 17.59375 32.75 C 16.83605 32.092756 16.083132 31.423455 15.46875 30.625 C 14.885043 29.886704 14.418353 29.057743 14.0625 28.1875 C 13.506885 26.965991 13.247212 25.640111 13.09375 24.3125 C 12.980635 23.316701 13.176111 22.328276 13.3125 21.34375 C 13.490138 20.343826 13.689679 19.318445 14.21875 18.4375 C 14.59339 17.741318 14.942066 16.818367 14.3125 16.15625 C 14.139743 15.996425 13.855004 15.930116 13.625 16 z M 36.34375 16.65625 C 35.362774 17.207506 35.852835 18.50753 36.28125 19.28125 C 36.773642 20.27246 37.148002 21.328 37.5 22.375 C 37.614647 23.268823 37.924059 24.152769 37.8125 25.0625 C 37.694764 26.007852 37.700761 26.980089 37.4375 27.90625 C 37.282342 28.878226 36.713442 29.70992 36.3125 30.59375 C 35.841055 31.549564 35.198784 32.415515 34.34375 33.0625 C 33.584195 33.719892 32.742889 34.329655 31.8125 34.71875 C 30.911591 35.153591 29.938887 35.43593 28.9375 35.5 C 28.035478 35.675857 26.939408 35.187415 26.21875 35.9375 C 25.723432 36.87598 27.0258 37.754498 27.875 37.46875 C 28.922667 37.37826 29.981643 37.35176 31 37.0625 C 31.95616 36.922264 32.831555 36.453276 33.65625 35.96875 C 34.816746 35.250123 35.921974 34.381135 36.78125 33.3125 C 37.385286 32.60258 37.930415 31.854063 38.3125 31 C 38.883451 29.858839 39.154647 28.603321 39.46875 27.375 C 39.606138 26.337651 39.736975 25.297906 39.75 24.25 C 39.6547 23.171086 39.472431 22.107974 39.1875 21.0625 C 38.88617 20.006955 38.382538 19.026369 38 18 C 37.607945 17.438231 37.160648 16.509801 36.34375 16.65625 z M 24.59375 17.03125 C 24.765464 17.0012 24.95281 17.06118 25.125 17.0625 C 26.045417 17.03987 26.975679 17.275123 27.78125 17.71875 C 28.5272 18.077743 29.492487 18.594422 29.40625 19.5625 C 28.641448 19.927417 28.280177 18.887296 27.65625 18.65625 C 26.843176 18.199761 25.884983 18.114168 24.96875 18.09375 C 24.082047 18.05609 23.212585 18.261786 22.40625 18.625 C 21.529095 19.028071 20.772455 19.699639 20.125 20.40625 C 19.57654 21.014712 19.453619 22.112373 18.5 22.28125 C 18.378135 22.31287 18.110476 22.337802 18.28125 22.09375 C 18.36537 21.209434 18.938414 20.506442 19.4375 19.8125 C 20.033508 19.045417 20.843059 18.455381 21.65625 17.9375 C 22.544693 17.411569 23.572358 17.1358 24.59375 17.03125 z M 25.21875 19 C 26.155407 19.166455 27.107906 19.453101 27.875 20.03125 C 28.359535 20.366084 28.313491 21.00091 28 21.4375 C 27.464843 22.276513 28.614874 22.822995 28.90625 23.5 C 29.158103 24.058833 29.563087 24.535783 29.875 25.0625 C 29.550415 25.987358 28.760667 26.651408 28 27.21875 C 27.346995 27.745883 26.521536 28.003109 25.6875 28.03125 C 24.760629 28.01166 23.795413 27.902601 22.9375 27.53125 C 22.08598 27.223694 21.440182 26.551804 20.90625 25.84375 C 20.660394 25.392684 20.040961 24.94288 20.3125 24.375 C 21.247985 24.41541 21.975015 25.384391 22.96875 25.28125 C 23.373562 24.530623 23.204892 23.646684 23.09375 22.84375 L 21.28125 22.84375 L 23.1875 19.65625 L 21.15625 20.8125 C 21.797615 20.194388 22.534079 19.623088 23.375 19.3125 C 23.981644 19.141893 24.580755 18.965458 25.21875 19 z M 31.75 22.78125 L 31.78125 22.78125 C 31.974951 22.935968 31.948317 23.368437 32.0625 23.625 C 32.169323 24.008693 32.14565 24.432782 32.03125 24.8125 C 31.301226 24.505862 30.891388 23.330177 31.6875 22.875 L 31.75 22.78125 z M 18.03125 23.09375 L 18.125 23.125 C 18.946006 23.521344 19.303555 24.475605 19.25 25.34375 C 19.3038 25.650298 19.110998 26.142498 18.71875 25.96875 C 18.067492 25.714936 18.366915 24.866635 18.125 24.34375 C 18.03445 23.933845 18.011297 23.512834 18.03125 23.09375 z M 22.40625 28.4375 C 23.513487 28.703964 24.628886 29.122847 25.78125 29.09375 C 26.569211 29.05943 27.449656 28.973407 28.09375 29.53125 C 28.11642 30.06894 27.377238 29.880386 27.03125 30 C 26.04257 30.07071 25.028463 30.195428 24.0625 29.90625 C 23.084606 29.671979 22.021354 29.475847 21.25 28.78125 C 21.052323 28.614214 21.522924 28.610214 21.59375 28.5 C 21.857223 28.42003 22.134007 28.38167 22.40625 28.4375 z M 20.03125 29.40625 C 20.948951 29.719643 21.721828 30.375316 22.6875 30.5625 C 23.716485 30.93365 24.814173 31.134652 25.90625 31.1875 C 26.97049 31.317233 28.025911 31.103925 29.03125 30.78125 C 30.10402 30.514903 31.050457 31.215606 31.84375 31.84375 L 31.96875 31.9375 C 31.185003 32.645336 30.079808 32.813719 29.09375 33.09375 C 28.108638 33.342705 27.070474 33.346788 26.0625 33.28125 C 25.009714 33.21305 23.97398 32.965294 22.9375 32.78125 C 21.931864 32.573295 20.975908 32.216713 20.0625 31.75 C 19.366603 31.335408 18.461525 30.956825 18.15625 30.15625 C 18.739588 29.897778 19.326397 29.345821 20.03125 29.40625 z "
         inkscape:radius="1.0607735"
         sodipodi:type="inkscape:offset" />
    </g>
    <path
       inkscape:connector-curvature="0"
       style="color:#000000;font-style:normal;font-variant:normal;font-weight:normal;font-stretch:normal;font-size:medium;line-height:normal;font-family:'Andale Mono';-inkscape-font-specification:'Andale Mono';text-indent:0;text-align:start;text-decoration:none;text-decoration-line:none;letter-spacing:normal;word-spacing:normal;text-transform:none;direction:ltr;block-progression:tb;writing-mode:lr-tb;text-anchor:start;display:inline;overflow:visible;visibility:visible;fill:url(#linearGradient3862);fill-opacity:1;stroke:none;stroke-width:0.99999994;marker:none;enable-background:accumulate"
       id="path5577"
       d="m 64.33333,-45.250001 c -2.805294,0.399326 -5.582354,1.041064 -8.273838,1.92763 -2.733249,1.044602 -5.334035,2.483496 -7.65062,4.269154 -2.090229,1.629195 -4.087804,3.423555 -5.575541,5.636549 -1.626248,2.074046 -2.868076,4.43668 -3.821644,6.888096 -1.064984,2.554542 -1.327775,5.359362 -1.472492,8.097386 -0.271572,2.938888 0.08647,5.947032 0.960804,8.7645178 0.853244,2.83828 2.178295,5.5502739 3.909157,7.9569758 0.831784,1.12148801 1.38838,2.46964398 1.424175,3.8763559 2.406649,0.063107 4.183489,1.99806 5.977581,3.37006 2.317785,1.4675546 4.83484,2.6689999 7.447356,3.5215865 3.399734,1.251389 7.014852,1.691597 10.595482,2.081864 2.634248,0.286696 5.30618,0.684669 7.947023,0.23888 2.530878,-0.326391 5.094593,-0.721195 7.476345,-1.6641266 2.48986,-1.038032 4.728574,-2.6063853 6.743952,-4.3829959 1.951684,-1.674904 3.439977,-3.7912799 4.728926,-5.99861322 1.51369,-2.27162458 2.350244,-4.89951058 2.75,-7.58333448 0.497778,-2.5169758 0.48938,-5.1768298 0.24128,-7.7287138 -0.444824,-2.778552 -1.274892,-5.467684 -2.24128,-8.104604 -1.008561,-2.584014 -2.421054,-4.991182 -4.18175,-7.134379 -1.766044,-2.426685 -3.84881,-4.586208 -5.882764,-6.783418 -1.835397,-1.970211 -4.166543,-3.474136 -6.579604,-4.637616 -2.272292,-1.14127 -4.7682,-1.689776 -7.272548,-2.02792 -2.393654,-0.347552 -4.825964,-0.783419 -7.25,-0.583334 z m 3.25,2.666667 c 2.77016,0.158375 5.617728,0.437536 8.198068,1.525363 2.401573,1.087544 4.783832,2.348072 6.749616,4.131837 2.5887,2.171202 4.836016,4.715128 6.792432,7.464626 1.635558,2.035826 2.671736,4.485898 3.67655,6.878174 0.780288,2.764884 1.844768,5.500168 1.937842,8.40369 0.215333,2.872592 -0.238506,5.7611238 -1.139408,8.4859057 -0.855668,2.451074 -2.222408,4.74367792 -3.817458,6.7937059 -1.02087,1.3553106 -2.347504,2.4348159 -3.730975,3.4000292 0.120573,-2.4973346 -0.331104,-4.99708119 -0.04285,-7.4858011 0.316975,-2.703864 1.906445,-5.0674679 2.292851,-7.7641977 0.581066,-2.48951 0.218132,-5.135752 -0.438032,-7.585458 -0.685844,-1.602232 -0.534486,-3.703206 1.1047,-4.664542 -0.336678,-2.206034 -2.860212,-2.811306 -4.026011,-4.496072 -2.185522,-1.976527 -4.35199,-3.972954 -6.398282,-6.094895 -0.585876,-0.467291 -1.278728,-1.502411 -1.8257,-1.659032 0.24848,1.040011 -1.755188,0.9598 -1.833332,0 -2.10492,-1.321645 -4.63282,-1.62333 -7.057584,-1.787472 -3.08236,-0.168 -6.1888,0.295115 -9.109082,1.287472 -2.670798,1.06264 -4.906558,2.868963 -7.166668,4.583333 -2.1352,2.05779 -4.077122,4.430968 -4.999928,7.29147 -1.018872,2.385226 -1.333569,4.965496 -1.333404,7.529348 -0.0916,2.851758 1.231091,5.399842 2.2116,7.9828238 0.983132,2.4206559 -0.737068,4.7096559 -2.044933,6.6130245 -1.447399,-2.3432646 -3.191047,-4.5807265 -4,-7.2500005 -1.090352,-2.7421938 -1.336403,-5.7339858 -1.5,-8.6541518 0.07989,-2.619586 0.539073,-5.248488 1.404157,-7.724984 0.849504,-2.371896 2.071632,-4.618602 3.64128,-6.591956 1.613778,-2.26903 3.713464,-4.146059 5.954562,-5.778907 2.434432,-1.416829 4.879194,-2.977322 7.666666,-3.583333 2.558439,-0.845243 5.262857,-1.175203 7.94825,-1.247843 0.294748,-0.01413 0.590196,0.0053 0.885084,-0.0021 z m -31.249999,5.25 c -2.607299,1.325451 -3.467858,4.321277 -4.484498,6.838378 -0.949946,2.737102 -1.812302,5.534394 -2.106546,8.427792 -0.43275,2.892986 -0.320908,5.819208 -0.0198,8.718102 0.263974,3.153438 1.203366,6.1933958 2.194122,9.1823937 1.017134,2.5551959 2.355774,4.97090388 3.777483,7.3174718 1.798272,2.845028 4.313971,5.1178879 6.722516,7.4325275 2.13244,1.917008 4.691971,3.257843 7.189007,4.628599 2.409788,1.289984 5.059268,2.034117 7.702713,2.677664 1.835496,0.127733 3.56756,1.599008 5.35827,0.443736 2.372882,-1.23094 0.847716,-4.571772 -1.333334,-5 C 58.70996,12.700551 56.064979,12.068615 53.552872,11.055623 51.186723,10.116478 48.971567,8.8305914 46.916599,7.3333314 44.896064,5.5806795 42.882256,3.8043475 41.243904,1.6751342 39.687352,-0.29365639 38.47288,-2.4884257 37.52394,-4.8090743 36.0423,-8.0664322 35.28844,-11.612424 34.879208,-15.152718 c -0.30164,-2.655464 0.220188,-5.315814 0.583892,-7.941216 0.4737,-2.666464 1.042643,-5.390214 2.453499,-7.7394 0.99904,-1.856486 1.908441,-4.306635 0.2296,-6.07228 -0.460687,-0.4262 -1.199591,-0.614077 -1.812935,-0.42772 z m 60.583331,1.75 c -2.615936,1.470016 -1.27148,4.962696 -0.12904,7.025949 1.313045,2.643227 2.27372,5.432051 3.212378,8.224051 0.30573,2.383528 1.13083,4.740716 0.83333,7.166666 -0.31396,2.520938 -0.31405,5.0908078 -1.016084,7.5605697 -0.413755,2.591936 -1.914731,4.83254992 -2.983911,7.1894299 -1.257185,2.5488359 -2.972515,4.8944998 -5.252605,6.6197931 -2.02548,1.7530467 -4.243807,3.3146983 -6.724844,4.3522863 -2.402424,1.159574 -4.990452,1.938034 -7.660819,2.108886 -2.405392,0.468952 -5.356641,-0.831194 -7.278397,1.169032 -1.320848,2.502614 2.138238,4.808639 4.402772,4.046646 2.793777,-0.241305 5.631601,-0.275285 8.34722,-1.046645 2.54976,-0.373963 4.893213,-1.618593 7.0924,-2.910661 3.094656,-1.916339 6.01161,-4.197474 8.303014,-7.047167 1.610762,-1.8931212 3.085694,-3.9313359 4.104584,-6.2088385 1.52254,-3.04309589 2.24573,-6.3911438 3.08333,-9.6666657 0.36637,-2.766264 0.71527,-5.5389178 0.75,-8.3333318 -0.25413,-2.877104 -0.74018,-5.71207 -1.5,-8.5 -0.80354,-2.814788 -2.14656,-5.429683 -3.16666,-8.166667 -1.04548,-1.498051 -2.238275,-3.973864 -4.416668,-3.583333 z m -29.916665,1.083333 c 2.454445,-0.06035 4.946437,0.550429 7.094625,1.733435 1.9892,0.957314 4.552007,2.35169 4.32204,4.933232 -2.039472,0.973112 -3.00286,-1.800544 -4.666665,-2.416667 -2.168199,-1.217304 -4.697571,-1.48452 -7.140859,-1.538968 -2.364541,-0.100427 -4.742233,0.507891 -6.892461,1.476461 -2.33908,1.074856 -4.323466,2.844878 -6.050012,4.729174 -1.46256,1.622564 -1.759078,4.516916 -4.302062,4.967256 -0.324974,0.08432 -1.07921,0.201732 -0.623814,-0.449072 0.224319,-2.358176 1.787371,-4.262332 3.118268,-6.112844 1.589354,-2.045554 3.72902,-3.599519 5.89753,-4.980535 2.369182,-1.402483 5.142234,-2.117992 7.865946,-2.396792 0.457903,-0.08013 0.918291,0.05181 1.377464,0.05533 z m 0.25,5.166667 c 2.497752,0.44388 5.001744,1.179466 7.047326,2.721196 1.292095,0.892892 1.205315,2.614564 0.369339,3.778804 -1.427084,2.237368 1.639664,3.694652 2.416668,5.5 0.671608,1.49022 1.751564,2.762088 2.583332,4.166666 -0.86556,2.466288 -2.974852,4.1978958 -5.003299,5.7108078 -1.741345,1.405688 -3.939271,2.1308159 -6.163367,2.2058579 -2.471656,-0.05224 -5.028872,-0.301386 -7.31664,-1.2916559 -2.27072,-0.82015 -4.035713,-2.638576 -5.459532,-4.5267198 -0.655616,-1.202842 -2.281264,-2.417276 -1.55716,-3.931624 2.494627,0.10776 4.433372,2.69171 7.083332,2.416666 1.0795,-2.00167 0.629712,-4.358842 0.333334,-6.499998 -1.611111,0 -3.222222,0 -4.833334,0 1.694447,-2.833334 3.388888,-5.666668 5.083334,-8.5 -1.805554,1.027778 -3.611111,2.055554 -5.416666,3.083332 1.710307,-1.648298 3.640138,-3.14846 5.882594,-3.976695 1.617718,-0.454952 3.249418,-0.948749 4.950738,-0.856637 z m 17.5,10.083332 c 0.516536,0.412582 0.431976,1.595028 0.736462,2.279196 0.284863,1.02318 0.235282,2.12489 -0.06977,3.137472 -1.946731,-0.817702 -3.039631,-3.952862 -0.916667,-5.166668 l 0.166659,-0.25 0.08335,0 z m -36.416666,0.916668 c 2.18935,1.056916 3.142814,3.601612 3,5.916666 0.14346,0.81746 -0.370672,2.129994 -1.416666,1.666666 -1.736688,-0.676838 -0.906174,-2.953392 -1.55128,-4.347752 -0.241468,-1.09308 -0.335262,-2.201356 -0.282054,-3.318914 l 0.25,0.08334 z m 11.416666,14.1666657 c 2.952632,0.71057 5.889485,1.827592 8.962456,1.75 2.101229,-0.09152 4.486625,-0.320916 6.204209,1.1666653 0.06047,1.43383993 -1.896632,0.96990527 -2.819265,1.2888746 -2.63648,0.18855999 -5.354832,0.48226799 -7.930732,-0.28887466 -2.607719,-0.62472132 -5.443056,-1.14774134 -7.5,-2.99999924 -0.52714,-0.44543 0.727796,-0.456096 0.916666,-0.75 0.702593,-0.213254 1.440686,-0.315546 2.166666,-0.16666 z m -6.333332,2.5833319 c 2.447202,0.83571602 4.537402,2.57063998 7.112527,3.0697973 2.743961,0.9897346 5.612512,1.5483786 8.524717,1.6893066 2.837973,0.345956 5.659869,-0.24424 8.340773,-1.1047053 2.86072,-0.7102586 5.394257,1.1517453 7.509705,2.8267973 l 0.345608,0.268804 c -2.089992,1.8875639 -5.037177,2.3365839 -7.666665,3.0833332 -2.626967,0.66388 -5.381336,0.6358947 -8.069268,0.4611267 -2.807428,-0.18186 -5.559812,-0.8239 -8.323758,-1.314684 -2.681696,-0.5545466 -5.283988,-1.5226279 -7.719741,-2.7671959 -1.855727,-1.10558 -4.239832,-2.077712 -5.053899,-4.21257991 1.555568,-0.68925865 3.120392,-2.16114399 5,-1.99999999 z" />
  </g>
</svg>
