<?xml version="1.0" encoding="UTF-8" standalone="no"?>
<!-- Created with Inkscape (http://www.inkscape.org/) -->

<svg
   xmlns:dc="http://purl.org/dc/elements/1.1/"
   xmlns:cc="http://creativecommons.org/ns#"
   xmlns:rdf="http://www.w3.org/1999/02/22-rdf-syntax-ns#"
   xmlns:svg="http://www.w3.org/2000/svg"
   xmlns="http://www.w3.org/2000/svg"
   xmlns:xlink="http://www.w3.org/1999/xlink"
   xmlns:sodipodi="http://sodipodi.sourceforge.net/DTD/sodipodi-0.dtd"
   xmlns:inkscape="http://www.inkscape.org/namespaces/inkscape"
   width="16"
   height="16"
   id="svg2"
   sodipodi:version="0.32"
   inkscape:version="0.48.1 r9760"
   version="1.0"
   sodipodi:docname="application-exit.svg"
   inkscape:output_extension="org.inkscape.output.svg.inkscape"
   inkscape:export-filename="/home/matt/.icons/Sirocco/scalable/mimetypes/text-plain.png"
   inkscape:export-xdpi="90"
   inkscape:export-ydpi="90"
   sodipodi:modified="true"
   style="display:inline">
  <sodipodi:namedview
     id="base"
     pagecolor="#838383"
     bordercolor="#cc0000"
     borderopacity="1"
     inkscape:pageopacity="1"
     inkscape:pageshadow="2"
     inkscape:zoom="35.913828"
     inkscape:cx="8.9918059"
     inkscape:cy="8.4590077"
     inkscape:document-units="px"
     inkscape:current-layer="layer1"
     width="128px"
     height="128px"
     inkscape:showpageshadow="false"
     inkscape:window-width="1920"
     inkscape:window-height="1028"
     inkscape:window-x="0"
     inkscape:window-y="25"
     showguides="true"
     inkscape:guide-bbox="true"
     showgrid="true"
     inkscape:window-maximized="1"
     borderlayer="true">
    <sodipodi:guide
       id="guide2226"
       position="32.637397,117.99844"
       orientation="horizontal" />
    <sodipodi:guide
       id="guide2230"
       position="110,57.402344"
       orientation="vertical" />
    <sodipodi:guide
       id="guide2232"
       position="33.760911"
       orientation="horizontal" />
    <sodipodi:guide
       id="guide2231"
       position="46.774696"
       orientation="horizontal" />
    <inkscape:grid
       enabled="true"
       visible="true"
       id="grid3231"
       type="xygrid"
       empspacing="8"
       snapvisiblegridlinesonly="true" />
    <sodipodi:guide
       orientation="1,0"
       position="100,67.625"
       id="guide2713" />
    <sodipodi:guide
       orientation="1,0"
       position="9,0"
       id="guide3021" />
    <sodipodi:guide
       orientation="0,1"
       position="13,6"
       id="guide3023" />
  </sodipodi:namedview>
  <defs
     id="defs4">
    <linearGradient
       inkscape:collect="always"
       xlink:href="#StandardGradient"
       id="linearGradient2428"
       gradientUnits="userSpaceOnUse"
       gradientTransform="matrix(0.9247229,0,0,1.0872097,10.939944,-2.0023588)"
       x1="11.998966"
       y1="3.6813121"
       x2="11.998966"
       y2="16.529612" />
    <inkscape:perspective
       sodipodi:type="inkscape:persp3d"
       inkscape:vp_x="0 : 11 : 1"
       inkscape:vp_y="0 : 1000 : 0"
       inkscape:vp_z="22 : 11 : 1"
       inkscape:persp3d-origin="11 : 7.3333333 : 1"
       id="perspective19" />
    <linearGradient
       id="StandardGradient"
       gradientTransform="scale(0.9219544,1.0846523)"
       x1="11.998966"
       y1="0.92195445"
       x2="11.998966"
       y2="19.387045"
       gradientUnits="userSpaceOnUse">
      <stop
         style="stop-color:#000000;stop-opacity:0.23529412;"
         offset="0"
         id="stop3283" />
      <stop
         style="stop-color:#000000;stop-opacity:0.54901963;"
         offset="1"
         id="stop2651" />
    </linearGradient>
    <linearGradient
       inkscape:collect="always"
       xlink:href="#StandardGradient"
       id="linearGradient2549"
       gradientUnits="userSpaceOnUse"
       gradientTransform="matrix(0.9247229,0,0,1.0872097,-2.0600562,0.9976422)"
       x1="11.998966"
       y1="0.92195445"
       x2="11.998966"
       y2="17.478098" />
    <linearGradient
       inkscape:collect="always"
       xlink:href="#StandardGradient"
       id="linearGradient2418"
       gradientUnits="userSpaceOnUse"
       gradientTransform="matrix(0.9247229,0,0,1.0872097,-4.0600562,-3.0023583)"
       x1="11.998966"
       y1="0.92195445"
       x2="11.998966"
       y2="17.478098" />
    <linearGradient
       inkscape:collect="always"
       xlink:href="#StandardGradient"
       id="linearGradient2422"
       gradientUnits="userSpaceOnUse"
       gradientTransform="matrix(0.9247229,0,0,1.0872097,-5.0600562,-1.0023583)"
       x1="11.998966"
       y1="0.92195445"
       x2="11.998966"
       y2="17.478098" />
    <linearGradient
       inkscape:collect="always"
       xlink:href="#StandardGradient"
       id="linearGradient2403"
       gradientUnits="userSpaceOnUse"
       gradientTransform="matrix(0.9247229,0,0,1.0872097,-4.0600562,-3.0023583)"
       x1="11.998966"
       y1="0.92195445"
       x2="11.998966"
       y2="17.478098" />
    <linearGradient
       inkscape:collect="always"
       xlink:href="#StandardGradient"
       id="linearGradient2406"
       gradientUnits="userSpaceOnUse"
       gradientTransform="matrix(0.9247229,0,0,1.0872097,-4.0600562,-3.0023583)"
       x1="11.998966"
       y1="0.92195445"
       x2="11.998966"
       y2="17.478098" />
    <linearGradient
       inkscape:collect="always"
       xlink:href="#StandardGradient"
       id="linearGradient2409"
       gradientUnits="userSpaceOnUse"
       gradientTransform="matrix(0.9247229,0,0,1.0872097,-6.0600562,-2.0023583)"
       x1="11.998966"
       y1="3.6800685"
       x2="11.998966"
       y2="15.638639" />
    <linearGradient
       inkscape:collect="always"
       xlink:href="#StandardGradient"
       id="linearGradient2416"
       gradientUnits="userSpaceOnUse"
       gradientTransform="matrix(0.9247229,0,0,1.0872097,-6.0600562,-2.0023583)"
       x1="11.998966"
       y1="2.7615263"
       x2="11.998966"
       y2="15.638639" />
    <linearGradient
       inkscape:collect="always"
       xlink:href="#StandardGradient"
       id="linearGradient2529"
       gradientUnits="userSpaceOnUse"
       gradientTransform="matrix(0.9247229,0,0,1.0872097,-4.0418814,0.9976412)"
       x1="11.998966"
       y1="3.6813121"
       x2="11.998966"
       y2="16.529612" />
    <linearGradient
       inkscape:collect="always"
       xlink:href="#StandardGradient"
       id="linearGradient2539"
       gradientUnits="userSpaceOnUse"
       gradientTransform="matrix(0.9247229,0,0,1.0872097,-6.0600562,-2.0023583)"
       x1="11.998966"
       y1="2.7615263"
       x2="11.998966"
       y2="15.638639" />
    <linearGradient
       inkscape:collect="always"
       xlink:href="#StandardGradient"
       id="linearGradient2542"
       gradientUnits="userSpaceOnUse"
       gradientTransform="matrix(0.9247229,0,0,1.0872097,-6.0600562,-2.0023583)"
       x1="11.998966"
       y1="2.7615263"
       x2="11.998966"
       y2="15.638639" />
    <linearGradient
       inkscape:collect="always"
       xlink:href="#StandardGradient"
       id="linearGradient2412"
       gradientUnits="userSpaceOnUse"
       gradientTransform="matrix(0.9247229,0,0,1.0872097,-6.0600562,-2.0023583)"
       x1="11.998966"
       y1="2.7615263"
       x2="11.998966"
       y2="15.638639" />
    <inkscape:perspective
       id="perspective2892"
       inkscape:persp3d-origin="0.5 : 0.33333333 : 1"
       inkscape:vp_z="1 : 0.5 : 1"
       inkscape:vp_y="0 : 1000 : 0"
       inkscape:vp_x="0 : 0.5 : 1"
       sodipodi:type="inkscape:persp3d" />
    <linearGradient
       inkscape:collect="always"
       xlink:href="#StandardGradient"
       id="linearGradient2942"
       gradientUnits="userSpaceOnUse"
       gradientTransform="matrix(0.9247229,0,0,1.0872097,-26.060056,-2.0023583)"
       x1="11.998966"
       y1="2.7615263"
       x2="11.998966"
       y2="15.638639" />
    <clipPath
       clipPathUnits="userSpaceOnUse"
       id="clipPath2949">
      <path
         style="fill:#ff00ff;fill-opacity:1;stroke:none;display:inline"
         d="m -20,0 0,16 16,0 0,-16 -16,0 z m 3,1 3,0 c 0.554,0 1,0.446 1,1 l 6,0 c 0.554,0 1,0.446 1,1 l -12,0 0,-1 c 0,-0.554 0.446,-1 1,-1 z m -0.5,3 4,0 6,0 1,0 C -5.669,4 -5,4.669 -5,5.5 l 0,4.5 0,1.5 c 0,0.647488 -0.396277,1.195291 -0.96875,1.40625 l 0,0.15625 -0.03125,0 0,0.4375 c 0,0.831 -0.669,1.5 -1.5,1.5 l -6,0 c -0.831,0 -1.5,-0.669 -1.5,-1.5 l 0,-0.5 -2.5,0 c -0.831,0 -1.5,-0.669 -1.5,-1.5 l 0,-1.5 0,-4.5 C -19,4.669 -18.331,4 -17.5,4 z m 5,2 C -12.777,6 -13,6.223 -13,6.5 l 0,6 c 0,0.277 0.223,0.5 0.5,0.5 l 4,0 c 0.277,0 0.5,-0.223 0.5,-0.5 l 0,-6 C -8,6.223 -8.223,6 -8.5,6 l -4,0 z"
         id="path2951" />
    </clipPath>
    <linearGradient
       inkscape:collect="always"
       xlink:href="#StandardGradient"
       id="linearGradient5012"
       gradientUnits="userSpaceOnUse"
       gradientTransform="matrix(0.9247229,0,0,1.0872097,-6.0600562,-2.0023583)"
       x1="11.998966"
       y1="2.7615263"
       x2="11.998966"
       y2="15.638639" />
    <linearGradient
       inkscape:collect="always"
       xlink:href="#StandardGradient"
       id="linearGradient5016"
       gradientUnits="userSpaceOnUse"
       gradientTransform="matrix(0.9247229,0,0,1.0872097,-6.0600562,-2.0023583)"
       x1="11.998966"
       y1="2.7615263"
       x2="11.998966"
       y2="15.638639" />
    <linearGradient
       inkscape:collect="always"
       xlink:href="#StandardGradient"
       id="linearGradient3176"
       gradientUnits="userSpaceOnUse"
       gradientTransform="matrix(0.9247229,0,0,1.0872097,-6.0600562,-2.0023583)"
       x1="11.998966"
       y1="2.7615263"
       x2="11.998966"
       y2="15.638639" />
    <linearGradient
       inkscape:collect="always"
       xlink:href="#StandardGradient"
       id="linearGradient3180"
       gradientUnits="userSpaceOnUse"
       gradientTransform="matrix(0.9247229,0,0,1.0872097,-6.0600562,-2.0023583)"
       x1="11.998966"
       y1="2.7615263"
       x2="11.998966"
       y2="15.638639" />
    <linearGradient
       inkscape:collect="always"
       xlink:href="#StandardGradient"
       id="linearGradient3789"
       gradientUnits="userSpaceOnUse"
       gradientTransform="matrix(0.9247229,0,0,1.0872097,-6.0600562,-2.0023583)"
       x1="11.998966"
       y1="2.7615263"
       x2="11.998966"
       y2="15.638639" />
    <linearGradient
       inkscape:collect="always"
       xlink:href="#StandardGradient"
       id="linearGradient3793"
       gradientUnits="userSpaceOnUse"
       gradientTransform="matrix(0.9247229,0,0,1.0872097,-6.0600562,-2.0023583)"
       x1="11.998966"
       y1="2.7615263"
       x2="11.998966"
       y2="15.638639" />
    <linearGradient
       inkscape:collect="always"
       xlink:href="#StandardGradient"
       id="linearGradient3795"
       gradientUnits="userSpaceOnUse"
       gradientTransform="matrix(0.9247229,0,0,1.0872097,-6.0600562,-2.0023583)"
       x1="11.998966"
       y1="2.7615263"
       x2="11.998966"
       y2="15.638639" />
    <radialGradient
       inkscape:collect="always"
       xlink:href="#StandardGradient"
       id="radialGradient3798"
       cx="9"
       cy="9.875"
       fx="9"
       fy="9.875"
       r="7"
       gradientUnits="userSpaceOnUse"
       gradientTransform="matrix(2.1428571,5.7142857e-8,-3.047619e-8,1.1428571,-10.285714,-1.2857148)" />
    <radialGradient
       inkscape:collect="always"
       xlink:href="#SpecificGradient"
       id="radialGradient3882"
       cx="-8"
       cy="13"
       fx="-8"
       fy="13"
       r="8"
       gradientUnits="userSpaceOnUse"
       gradientTransform="matrix(2,0,0,1.125,28,-1.625)" />
    <linearGradient
       id="SpecificGradient"
       x1="10.406627"
       y1="2"
       x2="10.406627"
       y2="18.000771"
       gradientUnits="userSpaceOnUse">
      <stop
         style="stop-color:#e64b36;stop-opacity:1;"
         offset="0"
         id="stop3292" />
      <stop
         style="stop-color:#a31414;stop-opacity:1;"
         offset="1"
         id="stop3294" />
    </linearGradient>
    <radialGradient
       r="8"
       fy="13"
       fx="-8"
       cy="13"
       cx="-8"
       gradientTransform="matrix(2,0,0,1.125,9,7.375)"
       gradientUnits="userSpaceOnUse"
       id="radialGradient3069"
       xlink:href="#SpecificGradient"
       inkscape:collect="always" />
    <linearGradient
       id="SpecificGradient-0"
       x1="6.5625"
       y1="2"
       x2="6.5625"
       y2="14.000651"
       gradientUnits="userSpaceOnUse"
       xlink:href="#SpecificGradient">
      <stop
         style="stop-color:#ad0707;stop-opacity:1;"
         offset="0"
         id="stop3292-4" />
      <stop
         style="stop-color:#f75535;stop-opacity:1;"
         offset="1"
         id="stop3294-8" />
    </linearGradient>
    <radialGradient
       inkscape:collect="always"
       xlink:href="#SpecificGradient-0"
       id="radialGradient3861"
       cx="8"
       cy="8"
       fx="8"
       fy="8"
       r="6"
       gradientUnits="userSpaceOnUse" />
    <radialGradient
       inkscape:collect="always"
       xlink:href="#SpecificGradient"
       id="radialGradient3863"
       gradientUnits="userSpaceOnUse"
       cx="8.9220781"
       cy="9.7551022"
       fx="8.9220781"
       fy="9.7551022"
       r="6"
       gradientTransform="matrix(1.8333333,-6.6466172e-8,4.8339037e-8,1.3333334,-7.3571431,-3.0068024)" />
    <radialGradient
       inkscape:collect="always"
       xlink:href="#SpecificGradient"
       id="radialGradient3869"
       gradientUnits="userSpaceOnUse"
       gradientTransform="matrix(1.8333333,-5.0000001e-8,3.1818184e-8,1.1666667,-7.5000003,-1.6666662)"
       cx="9"
       cy="10"
       fx="9"
       fy="10"
       r="6" />
    <radialGradient
       inkscape:collect="always"
       xlink:href="#SpecificGradient"
       id="radialGradient3873"
       gradientUnits="userSpaceOnUse"
       gradientTransform="matrix(1.8333333,-5.0000001e-8,3.1818184e-8,1.1666667,-7.5000003,-1.6666662)"
       cx="9"
       cy="10"
       fx="9"
       fy="10"
       r="6" />
    <radialGradient
       inkscape:collect="always"
       xlink:href="#SpecificGradient"
       id="radialGradient3875"
       gradientUnits="userSpaceOnUse"
       gradientTransform="matrix(1.8333333,-5.0000001e-8,3.1818184e-8,1.1666667,-7.5000003,-1.6666662)"
       cx="9"
       cy="10"
       fx="9"
       fy="10"
       r="6" />
    <radialGradient
       inkscape:collect="always"
       xlink:href="#SpecificGradient"
       id="radialGradient3828"
       gradientUnits="userSpaceOnUse"
       gradientTransform="matrix(1.8333333,-6.6466172e-8,4.8339037e-8,1.3333334,-7.3571431,-2.0068024)"
       cx="8.9220781"
       cy="9.7551022"
       fx="8.9220781"
       fy="9.7551022"
       r="6" />
    <radialGradient
       inkscape:collect="always"
       xlink:href="#SpecificGradient"
       id="radialGradient3832"
       gradientUnits="userSpaceOnUse"
       gradientTransform="matrix(1.8333333,-6.6466172e-8,4.8339037e-8,1.3333334,-7.3571431,-3.0068024)"
       cx="8.9220781"
       cy="9.7551022"
       fx="8.9220781"
       fy="9.7551022"
       r="6" />
    <radialGradient
       inkscape:collect="always"
       xlink:href="#SpecificGradient"
       id="radialGradient3839"
       gradientUnits="userSpaceOnUse"
       gradientTransform="matrix(1.8333333,-6.6466172e-8,4.8339037e-8,1.3333334,-7.3571431,-3.0068024)"
       cx="8.9220781"
       cy="9.7551022"
       fx="8.9220781"
       fy="9.7551022"
       r="6" />
    <radialGradient
       inkscape:collect="always"
       xlink:href="#SpecificGradient"
       id="radialGradient3843"
       gradientUnits="userSpaceOnUse"
       gradientTransform="matrix(1.8333333,-6.6466172e-8,4.8339037e-8,1.3333334,-7.3571431,-3.0068024)"
       cx="8.9220781"
       cy="9.7551022"
       fx="8.9220781"
       fy="9.7551022"
       r="6" />
    <radialGradient
       inkscape:collect="always"
       xlink:href="#SpecificGradient"
       id="radialGradient3835"
       cx="9"
       cy="10"
       fx="9"
       fy="10"
       r="7"
       gradientUnits="userSpaceOnUse"
       gradientTransform="matrix(1.5714286,5.7142856e-8,-4.1558439e-8,1.1428571,-5.1428567,-1.4285719)" />
    <radialGradient
       inkscape:collect="always"
       xlink:href="#StandardGradient-6"
       id="radialGradient3827"
       cx="9"
       cy="10"
       fx="9"
       fy="10"
       r="5"
       gradientUnits="userSpaceOnUse"
       gradientTransform="matrix(2.2,4.399999e-8,-2.7999993e-8,1.4,-10.8,-4.0000005)" />
    <linearGradient
       id="StandardGradient-6"
       gradientTransform="scale(0.9219544,1.0846523)"
       x1="11.998966"
       y1="0.92195445"
       x2="11.998966"
       y2="19.387045"
       gradientUnits="userSpaceOnUse">
      <stop
         style="stop-color:#000000;stop-opacity:0.23529412;"
         offset="0"
         id="stop3283-9" />
      <stop
         style="stop-color:#000000;stop-opacity:0.54901963;"
         offset="1"
         id="stop2651-0" />
    </linearGradient>
    <radialGradient
       r="5"
       fy="10"
       fx="9"
       cy="10"
       cx="9"
       gradientTransform="matrix(2.2,4.399999e-8,-2.7999993e-8,1.4,-10.8,-4.0000005)"
       gradientUnits="userSpaceOnUse"
       id="radialGradient3051"
       xlink:href="#StandardGradient-6"
       inkscape:collect="always" />
    <radialGradient
       inkscape:collect="always"
       xlink:href="#SpecificGradient"
       id="radialGradient3858"
       gradientUnits="userSpaceOnUse"
       gradientTransform="matrix(1.5714286,5.7142856e-8,-4.1558439e-8,1.1428571,-25.142857,-1.4285719)"
       cx="9"
       cy="10"
       fx="9"
       fy="10"
       r="7" />
    <radialGradient
       inkscape:collect="always"
       xlink:href="#StandardGradient-6"
       id="radialGradient3860"
       gradientUnits="userSpaceOnUse"
       gradientTransform="matrix(2.2,4.399999e-8,-2.7999993e-8,1.4,-30.8,-4.0000005)"
       cx="9"
       cy="10"
       fx="9"
       fy="10"
       r="5" />
    <radialGradient
       inkscape:collect="always"
       xlink:href="#SpecificGradient"
       id="radialGradient3867"
       gradientUnits="userSpaceOnUse"
       gradientTransform="matrix(1.5714286,5.7142856e-8,-4.1558439e-8,1.1428571,-5.1428567,-1.4285719)"
       cx="9"
       cy="10"
       fx="9"
       fy="10"
       r="7" />
    <radialGradient
       inkscape:collect="always"
       xlink:href="#SpecificGradient"
       id="radialGradient3871"
       gradientUnits="userSpaceOnUse"
       gradientTransform="matrix(1.5714286,5.7142856e-8,-4.1558439e-8,1.1428571,-5.1428567,-1.4285719)"
       cx="9"
       cy="10"
       fx="9"
       fy="10"
       r="7" />
    <radialGradient
       inkscape:collect="always"
       xlink:href="#SpecificGradient"
       id="radialGradient3874"
       gradientUnits="userSpaceOnUse"
       gradientTransform="matrix(1.5714286,5.7142856e-8,-4.1558439e-8,1.1428571,-5.1428567,-1.4285719)"
       cx="9"
       cy="10"
       fx="9"
       fy="10"
       r="7" />
    <radialGradient
       inkscape:collect="always"
       xlink:href="#SpecificGradient"
       id="radialGradient3881"
       gradientUnits="userSpaceOnUse"
       gradientTransform="matrix(1.5714286,5.7142856e-8,-4.1558439e-8,1.1428571,-5.1428567,-0.4285719)"
       cx="9"
       cy="10"
       fx="9"
       fy="10"
       r="7" />
    <radialGradient
       inkscape:collect="always"
       xlink:href="#SpecificGradient"
       id="radialGradient3883"
       gradientUnits="userSpaceOnUse"
       gradientTransform="matrix(1.5714286,5.7142856e-8,-4.1558439e-8,1.1428571,-5.1428567,-1.4285719)"
       cx="9"
       cy="10"
       fx="9"
       fy="10"
       r="7" />
    <radialGradient
       inkscape:collect="always"
       xlink:href="#SpecificGradient"
       id="radialGradient3888"
       gradientUnits="userSpaceOnUse"
       gradientTransform="matrix(1.5714286,5.7142856e-8,-4.1558439e-8,1.1428571,-5.1428567,-0.4285719)"
       cx="9"
       cy="10"
       fx="9"
       fy="10"
       r="7" />
    <radialGradient
       inkscape:collect="always"
       xlink:href="#SpecificGradient"
       id="radialGradient3892"
       gradientUnits="userSpaceOnUse"
       gradientTransform="matrix(1.5714286,5.7142856e-8,-4.1558439e-8,1.1428571,-5.1428567,-1.4285719)"
       cx="9"
       cy="10"
       fx="9"
       fy="10"
       r="7" />
    <radialGradient
       inkscape:collect="always"
       xlink:href="#SpecificGradient"
       id="radialGradient3899"
       gradientUnits="userSpaceOnUse"
       gradientTransform="matrix(1.5714286,5.7142856e-8,-4.1558439e-8,1.1428571,-5.1428567,-1.4285719)"
       cx="9"
       cy="10"
       fx="9"
       fy="10"
       r="7" />
    <radialGradient
       inkscape:collect="always"
       xlink:href="#SpecificGradient"
       id="radialGradient3903"
       gradientUnits="userSpaceOnUse"
       gradientTransform="matrix(1.5714286,5.7142856e-8,-4.1558439e-8,1.1428571,-5.1428567,-1.4285719)"
       cx="9"
       cy="10"
       fx="9"
       fy="10"
       r="7" />
  </defs>
  <metadata
     id="metadata7">
    <rdf:RDF>
      <cc:Work
         rdf:about="">
        <dc:format>image/svg+xml</dc:format>
        <dc:type
           rdf:resource="http://purl.org/dc/dcmitype/StillImage" />
        <dc:title></dc:title>
      </cc:Work>
    </rdf:RDF>
  </metadata>
  <g
     style="display:inline"
     inkscape:label="Calque 1"
     id="layer1"
     inkscape:groupmode="layer">
    <path
       style="color:#000000;fill:#ffffff;fill-opacity:1;fill-rule:nonzero;stroke:none;stroke-width:0.80000000999999998;marker:none;visibility:visible;display:inline;overflow:visible;enable-background:accumulate;opacity:0.05"
       d="M 3 0 C 1.3531799 0 0 1.3531799 0 3 L 0 13 C 0 14.64682 1.3531799 16 3 16 L 13 16 C 14.64682 16 16 14.64682 16 13 L 16 3 C 16 1.3531799 14.64682 0 13 0 L 3 0 z M 3 1 L 13 1 C 14.108 1 15 1.892 15 3 L 15 13 C 15 14.108 14.108 15 13 15 L 3 15 C 1.892 15 1 14.108 1 13 L 1 3 C 1 1.892 1.892 1 3 1 z M 5.3125 3 L 3 5.3125 L 5.6875 8 L 3 10.6875 L 5.3125 13 L 8 10.3125 L 10.6875 13 L 13 10.6875 L 10.3125 8 L 13 5.3125 L 10.6875 3 L 8 5.6875 L 5.3125 3 z M 5.3125 4.4375 L 7.28125 6.40625 A 1.0040455 1.0040455 0 0 0 8.71875 6.40625 L 10.6875 4.4375 L 11.5625 5.3125 L 9.59375 7.28125 A 1.0040455 1.0040455 0 0 0 9.59375 8.71875 L 11.5625 10.6875 L 10.6875 11.5625 L 8.71875 9.59375 A 1.0040455 1.0040455 0 0 0 7.28125 9.59375 L 5.3125 11.5625 L 4.4375 10.6875 L 6.40625 8.71875 A 1.0040455 1.0040455 0 0 0 6.40625 7.28125 L 4.4375 5.3125 L 5.3125 4.4375 z "
       id="path3901" />
    <path
       style="opacity:1;color:#000000;fill:url(#radialGradient3835);fill-opacity:1;fill-rule:nonzero;stroke:none;stroke-width:0.80000000999999998;marker:none;visibility:visible;display:inline;overflow:visible;enable-background:accumulate"
       d="M 3 1 C 1.892 1 1 1.892 1 3 L 1 13 C 1 14.108 1.892 15 3 15 L 13 15 C 14.108 15 15 14.108 15 13 L 15 3 C 15 1.892 14.108 1 13 1 L 3 1 z M 5.3125 3 L 8 5.6875 L 10.6875 3 L 13 5.3125 L 10.3125 8 L 13 10.6875 L 10.6875 13 L 8 10.3125 L 5.3125 13 L 3 10.6875 L 5.6875 8 L 3 5.3125 L 5.3125 3 z "
       id="rect3059" />
    <rect
       rx="2"
       y="1"
       x="-19"
       height="14"
       width="14"
       id="rect3854"
       style="color:#000000;fill:url(#radialGradient3858);fill-opacity:1;fill-rule:nonzero;stroke:none;stroke-width:0.80000001;marker:none;visibility:visible;display:inline;overflow:visible;enable-background:accumulate" />
    <path
       id="path3856"
       d="M -9.307693,3 -12.000001,5.6923075 -14.692308,3 -17,5.3076921 -14.307692,7.9999986 -17,10.692307 l 2.307692,2.307694 2.692307,-2.692309 2.692308,2.692309 L -7,10.692307 -9.692308,7.9999986 -7,5.3076921 -9.307693,3 z"
       style="fill:url(#radialGradient3860);fill-opacity:1;stroke:none;display:inline"
       inkscape:connector-curvature="0" />
    <path
       style="opacity:0.3;color:#000000;fill:#000000;fill-opacity:1;fill-rule:nonzero;stroke:none;stroke-width:0.80000000999999998;marker:none;visibility:visible;display:inline;overflow:visible;enable-background:accumulate"
       d="M 3 1 C 1.892 1 1 1.892 1 3 L 1 13 C 1 14.108 1.892 15 3 15 L 13 15 C 14.108 15 15 14.108 15 13 L 15 3 C 15 1.892 14.108 1 13 1 L 3 1 z M 3 1.53125 L 13 1.53125 C 13.824061 1.53125 14.46875 2.1759395 14.46875 3 L 14.46875 13 C 14.46875 13.824061 13.824061 14.46875 13 14.46875 L 3 14.46875 C 2.1759395 14.46875 1.53125 13.824061 1.53125 13 L 1.53125 3 C 1.53125 2.1759395 2.1759395 1.53125 3 1.53125 z M 5.21875 2.46875 A 0.52909706 0.52909706 0 0 0 4.9375 2.625 L 2.625 4.9375 A 0.52909706 0.52909706 0 0 0 2.625 5.6875 L 4.9375 8 L 2.625 10.3125 A 0.52909706 0.52909706 0 0 0 2.625 11.0625 L 4.9375 13.375 A 0.52909706 0.52909706 0 0 0 5.6875 13.375 L 8 11.0625 L 10.3125 13.375 A 0.52909706 0.52909706 0 0 0 11.0625 13.375 L 13.375 11.0625 A 0.52909706 0.52909706 0 0 0 13.375 10.3125 L 11.0625 8 L 13.375 5.6875 A 0.52909706 0.52909706 0 0 0 13.375 4.9375 L 11.0625 2.625 A 0.52909706 0.52909706 0 0 0 10.3125 2.625 L 8 4.9375 L 5.6875 2.625 A 0.52909706 0.52909706 0 0 0 5.21875 2.46875 z M 5.3125 3 L 8 5.6875 L 10.6875 3 L 13 5.3125 L 10.3125 8 L 13 10.6875 L 10.6875 13 L 8 10.3125 L 5.3125 13 L 3 10.6875 L 5.6875 8 L 3 5.3125 L 5.3125 3 z "
       id="path3863" />
    <path
       style="opacity:0.3;color:#000000;fill:#000000;fill-opacity:1;fill-rule:nonzero;stroke:none;stroke-width:0.80000000999999998;marker:none;visibility:visible;display:inline;overflow:visible;enable-background:accumulate"
       d="M 3 1 C 1.892 1 1 1.892 1 3 L 1 4 C 1 2.892 1.892 2 3 2 L 13 2 C 14.108 2 15 2.892 15 4 L 15 3 C 15 1.892 14.108 1 13 1 L 3 1 z M 3.5 5.8125 L 3 6.3125 L 5.1875 8.5 L 5.6875 8 L 3.5 5.8125 z M 12.5 5.8125 L 10.3125 8 L 10.8125 8.5 L 13 6.3125 L 12.5 5.8125 z M 8 10.3125 L 5.3125 13 L 3.5 11.1875 L 3 11.6875 L 5.3125 14 L 8 11.3125 L 10.6875 14 L 13 11.6875 L 12.5 11.1875 L 10.6875 13 L 8 10.3125 z "
       id="path3877" />
    <path
       style="color:#000000;fill:#ffffff;fill-opacity:1;fill-rule:nonzero;stroke:none;stroke-width:0.80000000999999998;marker:none;visibility:visible;display:inline;overflow:visible;enable-background:accumulate;opacity:0.2"
       d="M 5.3125 3 L 3 5.3125 L 3.5 5.8125 L 5.3125 4 L 8 6.6875 L 10.6875 4 L 12.5 5.8125 L 13 5.3125 L 10.6875 3 L 8 5.6875 L 5.3125 3 z M 5.1875 8.5 L 3 10.6875 L 3.5 11.1875 L 5.6875 9 L 5.1875 8.5 z M 10.8125 8.5 L 10.3125 9 L 12.5 11.1875 L 13 10.6875 L 10.8125 8.5 z M 1 13 L 1 14 C 1 15.108 1.892 16 3 16 L 13 16 C 14.108 16 15 15.108 15 14 L 15 13 C 15 14.108 14.108 15 13 15 L 3 15 C 1.892 15 1 14.108 1 13 z "
       id="path3886" />
  </g>
</svg>
