<?xml version="1.0" encoding="UTF-8" standalone="no"?>
<!-- Created with Inkscape (http://www.inkscape.org/) -->

<svg
   xmlns:dc="http://purl.org/dc/elements/1.1/"
   xmlns:cc="http://creativecommons.org/ns#"
   xmlns:rdf="http://www.w3.org/1999/02/22-rdf-syntax-ns#"
   xmlns:svg="http://www.w3.org/2000/svg"
   xmlns="http://www.w3.org/2000/svg"
   xmlns:xlink="http://www.w3.org/1999/xlink"
   xmlns:sodipodi="http://sodipodi.sourceforge.net/DTD/sodipodi-0.dtd"
   xmlns:inkscape="http://www.inkscape.org/namespaces/inkscape"
   width="16"
   height="16"
   id="svg2"
   sodipodi:version="0.32"
   inkscape:version="0.48.1 r9760"
   version="1.0"
   sodipodi:docname="call-stop.svg"
   inkscape:output_extension="org.inkscape.output.svg.inkscape"
   inkscape:export-filename="/home/matt/.icons/Sirocco/scalable/mimetypes/text-plain.png"
   inkscape:export-xdpi="90"
   inkscape:export-ydpi="90"
   sodipodi:modified="true"
   style="display:inline">
  <sodipodi:namedview
     id="base"
     pagecolor="#838383"
     bordercolor="#cc0000"
     borderopacity="1"
     inkscape:pageopacity="1"
     inkscape:pageshadow="2"
     inkscape:zoom="25.4708"
     inkscape:cx="7.1800071"
     inkscape:cy="9.5868767"
     inkscape:document-units="px"
     inkscape:current-layer="layer1"
     width="128px"
     height="128px"
     inkscape:showpageshadow="false"
     inkscape:window-width="1920"
     inkscape:window-height="1030"
     inkscape:window-x="0"
     inkscape:window-y="25"
     showguides="true"
     inkscape:guide-bbox="true"
     showgrid="true"
     inkscape:window-maximized="1"
     borderlayer="true">
    <sodipodi:guide
       id="guide2226"
       position="32.637397,117.99844"
       orientation="horizontal" />
    <sodipodi:guide
       id="guide2230"
       position="110,57.402344"
       orientation="vertical" />
    <sodipodi:guide
       id="guide2232"
       position="33.760911"
       orientation="horizontal" />
    <sodipodi:guide
       id="guide2231"
       position="46.774696"
       orientation="horizontal" />
    <inkscape:grid
       enabled="true"
       visible="true"
       id="grid3231"
       type="xygrid"
       empspacing="8"
       snapvisiblegridlinesonly="true" />
    <sodipodi:guide
       orientation="1,0"
       position="100,67.625"
       id="guide2713" />
    <sodipodi:guide
       orientation="1,0"
       position="9,0"
       id="guide3021" />
    <sodipodi:guide
       orientation="0,1"
       position="13,6"
       id="guide3023" />
  </sodipodi:namedview>
  <defs
     id="defs4">
    <linearGradient
       id="SpecificGradient"
       x1="10.406627"
       y1="2"
       x2="10.406627"
       y2="18.000771"
       gradientUnits="userSpaceOnUse">
      <stop
         style="stop-color:#e64b36;stop-opacity:1;"
         offset="0"
         id="stop3292" />
      <stop
         style="stop-color:#a31414;stop-opacity:1;"
         offset="1"
         id="stop3294" />
    </linearGradient>
    <radialGradient
       inkscape:collect="always"
       xlink:href="#SpecificGradient"
       id="radialGradient3835"
       cx="9"
       cy="10"
       fx="9"
       fy="10"
       r="7"
       gradientUnits="userSpaceOnUse"
       gradientTransform="matrix(1.5714286,5.7142856e-8,-4.1558439e-8,1.1428571,-25.142857,-1.4285719)" />
    <linearGradient
       y2="354.40988"
       x2="635.64038"
       y1="345.94067"
       x1="643.25403"
       gradientTransform="matrix(-0.39184234,0.34792746,-0.35225786,-0.39566976,380.91447,-75.927467)"
       gradientUnits="userSpaceOnUse"
       id="linearGradient3699"
       xlink:href="#SpecificGradient"
       inkscape:collect="always" />
    <linearGradient
       id="SpecificGradient-5"
       x1="12.437501"
       y1="5.9995675"
       x2="12.437501"
       y2="15.999567"
       gradientUnits="userSpaceOnUse">
      <stop
         style="stop-color:#ad0707;stop-opacity:1;"
         offset="0"
         id="stop3292-0" />
      <stop
         style="stop-color:#f75535;stop-opacity:1;"
         offset="1"
         id="stop3294-4" />
    </linearGradient>
    <linearGradient
       inkscape:collect="always"
       xlink:href="#SpecificGradient-5"
       id="linearGradient3871"
       gradientUnits="userSpaceOnUse"
       gradientTransform="matrix(-0.39184234,0.34792746,-0.35225786,-0.39566976,380.91447,-75.927467)"
       x1="634.90399"
       y1="353.8519"
       x2="643.30957"
       y2="344.50171" />
    <linearGradient
       inkscape:collect="always"
       xlink:href="#SpecificGradient-5"
       id="linearGradient3875"
       gradientUnits="userSpaceOnUse"
       gradientTransform="matrix(-0.39184234,0.34792746,-0.35225786,-0.39566976,380.91447,-75.927467)"
       x1="634.90399"
       y1="353.8519"
       x2="643.30957"
       y2="344.50171" />
    <linearGradient
       inkscape:collect="always"
       xlink:href="#SpecificGradient-5"
       id="linearGradient3877"
       gradientUnits="userSpaceOnUse"
       gradientTransform="matrix(-0.39184234,0.34792746,-0.35225786,-0.39566976,380.91447,-75.927467)"
       x1="634.90399"
       y1="353.8519"
       x2="643.30957"
       y2="344.50171" />
  </defs>
  <metadata
     id="metadata7">
    <rdf:RDF>
      <cc:Work
         rdf:about="">
        <dc:format>image/svg+xml</dc:format>
        <dc:type
           rdf:resource="http://purl.org/dc/dcmitype/StillImage" />
        <dc:title></dc:title>
      </cc:Work>
    </rdf:RDF>
  </metadata>
  <g
     style="display:inline"
     inkscape:label="Calque 1"
     id="layer1"
     inkscape:groupmode="layer">
    <path
       inkscape:connector-curvature="0"
       style="opacity:0.05;fill:#ffffff;fill-opacity:1;display:inline"
       d="m 7.25,4.0312503 c -0.4793719,0.00604 -0.9139912,0.035169 -1.375,0.09375 -0.874541,0.111135 -2.038561,0.4147133 -2.84375,0.75 -0.2848384,0.1186061 -0.6798587,0.3118805 -1.0625,0.5 C 1.5861087,5.5631198 1.2875132,5.6797444 1.03125,5.8437503 0.62461478,6.1041344 0.28992054,6.4361782 0,6.8125003 l 0,2.84375 C -7.4119961e-4,9.2203731 0.10439048,8.6425241 0.28125,8.2500003 0.5268506,7.7048833 1.1525038,6.9500366 1.5625,6.6875003 1.80221,6.5340883 2.9282529,5.9802873 3.40625,5.7812503 4.0702559,5.5047533 5.271094,5.1863783 6,5.0937503 c 0.4355341,-0.055344 0.8351458,-0.091494 1.28125,-0.09375 0.4461042,-0.00226 0.9292795,0.012562 1.5625,0.0625 1.944101,0.153314 3.577466,0.58975 4.96875,1.3125 0.641221,0.3331183 0.875747,0.4869004 1.25,0.90625 0.560752,0.6279225 0.91351,1.5146367 0.9375,2.28125 l 0,-2.65625 c -0.07245,-0.092846 -0.140117,-0.1931983 -0.21875,-0.28125 -0.430651,-0.4825432 -0.835944,-0.780019 -1.5,-1.125 C 12.754205,4.7067245 10.953181,4.2551736 8.90625,4.0937503 8.2534965,4.0422723 7.7293719,4.0252136 7.25,4.0312503 z M 16,9.5625003 C 16.008,9.8180381 15.97395,10.069536 15.90625,10.28125 15.82942,10.521486 15.779779,10.613633 15.375,11 c -0.514955,0.491534 -0.616812,0.51648 -0.96875,0.375 -0.562126,-0.226021 -2.723742,-1.306555 -2.8125,-1.4062497 -0.146485,-0.164534 -0.289182,-0.795462 -0.28125,-1.40625 0.0088,-0.678078 -0.04022,-0.758443 -0.75,-0.96875 -1.449452,-0.42939 -2.8311054,-0.502552 -4.25,-0.25 -0.7360441,0.131001 -1.6487834,0.382379 -1.78125,0.5 -0.1881845,0.167094 -0.2084809,0.297634 -0.15625,0.84375 0.061401,0.641792 0.063428,1.4184867 0,1.5937497 C 4.310323,10.45993 4.298522,10.453809 3,10.8125 2.3912972,10.980642 1.6896353,11.155702 1.46875,11.21875 1.2478726,11.28183 1.029378,11.322065 0.96875,11.3125 0.7710036,11.28129 0.1418321,10.434657 0.03125,10.03125 0.0031876,9.9289138 2.4707039e-4,9.8015427 0,9.6562503 L 0,11.78125 c 0.02015847,0.02126 0.04155845,0.04119 0.0625,0.0625 0.0684627,0.06966 0.1200158,0.145606 0.21875,0.21875 0.0987342,0.07314 0.2078963,0.167716 0.53125,0.21875 C 1.2322989,12.34748 1.2168516,12.27366 1.34375,12.25 1.4706484,12.226336 1.6103026,12.196146 1.75,12.15625 1.9043014,12.112207 2.6231929,11.923143 3.25,11.75 3.897139,11.571241 4.2155444,11.513963 4.5,11.40625 4.6422278,11.352394 4.8118175,11.279875 5,11.09375 5.1881825,10.907625 5.2924596,10.680365 5.3125,10.625 c 0.095561,-0.264052 0.083406,-0.3569 0.09375,-0.5 0.010344,-0.1430997 1.414e-4,-0.3033817 0,-0.4687497 -2.828e-4,-0.330737 -0.028314,-0.705169 -0.0625,-1.0625 0.00333,-0.00101 -0.00337,-0.030237 0,-0.03125 0.043833,-0.013164 0.075758,-0.017516 0.125,-0.03125 0.3030288,-0.084517 0.7010416,-0.15998 1.03125,-0.21875 1.278131,-0.227497 2.465882,-0.170919 3.78125,0.21875 0.0427,0.01265 0.03096,0.019814 0.0625,0.03125 -0.005,0.386394 0.02521,0.733138 0.09375,1.0625 0.06854,0.329362 0.02319,0.5697447 0.40625,0.9999997 0.188528,0.211759 0.205603,0.158863 0.25,0.1875 0.0444,0.02864 0.08205,0.06903 0.125,0.09375 0.08591,0.04943 0.194805,0.09378 0.3125,0.15625 0.235389,0.124941 0.527662,0.279473 0.84375,0.4375 0.632176,0.316053 1.276685,0.628634 1.65625,0.78125 0.225016,0.09046 0.734282,0.220134 1.15625,0.0625 0.385344,-0.143953 0.574455,-0.33191 0.8125,-0.5625 l 0,-2.2187497 z"
       id="path3799" />
    <path
       inkscape:connector-curvature="0"
       inkscape:export-ydpi="90"
       inkscape:export-xdpi="90"
       inkscape:export-filename="/home/matthieu/Interne/Communication/Site Web/Version 3.0/Accueil temporaire/images/phone_square.png"
       sodipodi:nodetypes="cssssssssssssssssssssc"
       id="path2869"
       d="m 1.5499823,6.6893777 c 0.23971,-0.153412 1.3915468,-0.719261 1.8695439,-0.918298 0.6640059,-0.276497 1.8539796,-0.591837 2.5828856,-0.684465 0.8710681,-0.110688 1.5867302,-0.114305 2.8531712,-0.01443 1.944101,0.153314 3.580411,0.58311 4.971695,1.30586 0.641221,0.3331183 0.861214,0.4961273 1.235467,0.9154769 0.74767,0.83723 1.11983,2.153605 0.849042,3.0004614 -0.07683,0.240236 -0.132172,0.31225 -0.536951,0.698617 -0.514955,0.491534 -0.619782,0.533795 -0.97172,0.392315 C 13.84099,11.158894 11.667273,10.0711 11.578515,9.9714046 11.43203,9.8068706 11.317528,9.1661116 11.32546,8.5553236 11.33426,7.8772456 11.28595,7.8160206 10.576172,7.6057136 9.12672,7.1763236 7.727719,7.0900696 6.3088244,7.3426216 5.5727803,7.4736226 4.6649971,7.7334976 4.5325305,7.8511186 4.344346,8.0182126 4.3217518,8.1369546 4.3739827,8.6830706 c 0.061401,0.641792 0.059488,1.4079884 -0.00394,1.5832514 -0.064677,0.17868 -0.080501,0.1849 -1.3790228,0.543591 C 2.3823171,10.978055 1.7035713,11.167232 1.482686,11.23028 1.2618086,11.29336 1.0314941,11.337125 0.9708661,11.32756 0.7731197,11.29635 0.15475,10.424928 0.0441679,10.021521 -0.0680817,9.6121746 0.0421979,8.7797006 0.2780106,8.2563356 0.5236112,7.7112186 1.1400092,6.951896 1.5500054,6.6893597 z"
       style="fill:url(#linearGradient3699);fill-opacity:1;display:inline" />
    <path
       inkscape:connector-curvature="0"
       style="opacity:0.25;fill:#000000;fill-opacity:1;display:inline"
       d="M 7.28125,5.0000003 C 6.8351458,5.0022563 6.4355341,5.0384063 6,5.0937503 c -0.728906,0.092628 -1.9297441,0.411003 -2.59375,0.6875 -0.4779971,0.199037 -1.60404,0.752838 -1.84375,0.90625 -0.4099962,0.2625363 -1.0356494,1.017383 -1.28125,1.5625 -0.2358127,0.523365 -0.3622496,1.371904 -0.25,1.7812497 0.0027645,0.01009 0.02786522,0.0206 0.03125,0.03125 C 0.10951775,9.7769707 0.17824879,9.4786022 0.28125,9.2500003 0.5268506,8.7048833 1.1525038,7.9500363 1.5625,7.6875003 1.80221,7.5340883 2.9282529,6.9802873 3.40625,6.7812503 4.0702559,6.5047533 5.271094,6.1863783 6,6.0937503 c 0.8710681,-0.110688 1.577309,-0.131125 2.84375,-0.03125 1.944101,0.153314 3.577466,0.5897501 4.96875,1.3125 0.641221,0.333118 0.875747,0.4869 1.25,0.90625 0.460271,0.5154046 0.761737,1.2177516 0.875,1.8749997 0.196129,-0.8468207 -0.165073,-2.0800337 -0.875,-2.8749997 -0.374253,-0.4193496 -0.608779,-0.5731317 -1.25,-0.90625 -1.391284,-0.72275 -3.024649,-1.159186 -4.96875,-1.3125 -0.6332205,-0.049937 -1.1163958,-0.064756 -1.5625,-0.0625 z m -2.90625,4.125 c -0.022643,0.1188367 -0.026115,0.289442 0,0.5625 0.011872,0.1240887 -0.00715,0.2467805 0,0.3749997 0.025132,-0.2158164 0.019753,-0.5406785 0,-0.9374997 z"
       id="path3632" />
    <path
       style="fill:#000000;fill-opacity:1;display:inline;opacity:0.25"
       d="M 7.28125 5 C 6.8351458 5.0022559 6.435534 5.038406 6 5.09375 C 5.271094 5.186378 4.0702559 5.504753 3.40625 5.78125 C 2.9282529 5.980287 1.80221 6.534088 1.5625 6.6875 C 1.1525038 6.9500363 0.5268506 7.704883 0.28125 8.25 C 0.0454373 8.773365 -0.0809996 9.6219036 0.03125 10.03125 C 0.1418321 10.434657 0.7710036 11.28129 0.96875 11.3125 C 1.029378 11.322065 1.2478726 11.28183 1.46875 11.21875 C 1.6896353 11.155702 2.3912972 10.980642 3 10.8125 C 4.2985218 10.453809 4.310323 10.45993 4.375 10.28125 C 4.438428 10.105987 4.436401 9.329292 4.375 8.6875 C 4.3227691 8.141384 4.3430655 8.010844 4.53125 7.84375 C 4.6637166 7.726129 5.5764559 7.474751 6.3125 7.34375 C 7.7313946 7.091198 9.113048 7.16436 10.5625 7.59375 C 11.272278 7.804057 11.3213 7.884422 11.3125 8.5625 C 11.304568 9.173288 11.447265 9.804216 11.59375 9.96875 C 11.682508 10.068445 13.844124 11.148979 14.40625 11.375 C 14.758188 11.51648 14.860045 11.491534 15.375 11 C 15.779779 10.613633 15.82942 10.521486 15.90625 10.28125 C 16.177038 9.4343936 15.81017 8.11848 15.0625 7.28125 C 14.688247 6.8619004 14.453721 6.7081183 13.8125 6.375 C 12.421216 5.65225 10.787851 5.215814 8.84375 5.0625 C 8.2105295 5.0125625 7.7273542 4.9977441 7.28125 5 z M 7.28125 5.46875 C 7.7069144 5.4620873 8.1885723 5.4820453 8.8125 5.53125 C 10.70768 5.680706 12.267054 6.0920522 13.59375 6.78125 C 14.224108 7.1087247 14.371328 7.2044644 14.71875 7.59375 C 15.354783 8.3059707 15.659343 9.5289448 15.46875 10.125 C 15.433955 10.233798 15.414545 10.257297 15.375 10.3125 C 15.335455 10.367703 15.258358 10.469301 15.0625 10.65625 C 14.824482 10.883443 14.698254 10.991842 14.6875 11 C 14.690547 10.992197 14.670068 10.96818 14.59375 10.9375 C 14.359549 10.843332 13.648061 10.527122 13.03125 10.21875 C 12.722844 10.064564 12.437208 9.8972041 12.21875 9.78125 C 12.12416 9.731043 12.032161 9.7174865 11.96875 9.6875 C 11.963497 9.6626736 11.877947 9.5080767 11.84375 9.34375 C 11.798154 9.1246477 11.777784 8.8293586 11.78125 8.5625 C 11.785799 8.2119439 11.816223 7.9171073 11.59375 7.625 C 11.371277 7.3328927 11.055146 7.2651834 10.6875 7.15625 C 9.1742585 6.7079628 7.7046125 6.6105282 6.21875 6.875 C 5.8327384 6.9437023 5.4152907 7.0578535 5.0625 7.15625 C 4.8861046 7.2054483 4.7271916 7.2326312 4.59375 7.28125 C 4.4603084 7.3298688 4.3895319 7.3483577 4.21875 7.5 C 4.0856514 7.6181818 3.9454089 7.8151474 3.90625 8.03125 C 3.8670911 8.2473526 3.879251 8.4364534 3.90625 8.71875 C 3.9352922 9.0223124 3.9685106 9.3763247 3.96875 9.65625 C 3.9688697 9.7962126 3.9440455 9.9094521 3.9375 10 C 3.9342273 10.045274 3.9416082 10.039406 3.9375 10.0625 C 3.7997398 10.110955 3.4871811 10.205897 2.875 10.375 C 2.2749102 10.540763 1.5963122 10.70916 1.34375 10.78125 C 1.2676703 10.802977 1.1897216 10.830124 1.125 10.84375 C 1.1132666 10.833242 1.1101231 10.829159 1.09375 10.8125 C 1.0282575 10.745866 0.93148418 10.650412 0.84375 10.53125 C 0.66828163 10.292926 0.48627611 9.9701858 0.46875 9.90625 C 0.44629266 9.8243537 0.45841133 9.5405385 0.5 9.25 C 0.54158867 8.9594615 0.62689334 8.6413676 0.71875 8.4375 C 0.90853176 8.0162744 1.5635216 7.2531805 1.8125 7.09375 C 1.8674596 7.0585764 2.2279576 6.836086 2.59375 6.65625 C 2.9595424 6.476414 3.3765595 6.3091877 3.59375 6.21875 C 4.1905889 5.9702219 5.402879 5.6463234 6.0625 5.5625 C 6.4859146 5.5086961 6.8555856 5.4754127 7.28125 5.46875 z "
       id="path3867" />
    <path
       inkscape:connector-curvature="0"
       style="opacity:0.2;fill:#ffffff;fill-opacity:1;display:inline"
       d="m 7.375,7.2187503 c -0.3533361,0.02072 -0.7077764,0.061862 -1.0625,0.125 -0.7360441,0.131001 -1.6487834,0.382379 -1.78125,0.5 -0.1881845,0.167094 -0.2084809,0.297634 -0.15625,0.84375 0.011872,0.1240887 -0.00715,0.2467805 0,0.375 0.027963,-0.083042 0.080252,-0.1512697 0.15625,-0.21875 0.1324666,-0.117621 1.0452059,-0.368999 1.78125,-0.5 1.4188946,-0.252552 2.800548,-0.17939 4.25,0.25 0.709778,0.210307 0.7588,0.290672 0.75,0.96875 -0.0079,0.6107877 0.134765,1.2417157 0.28125,1.4062497 0.08876,0.0997 2.250374,1.180229 2.8125,1.40625 0.351938,0.14148 0.453795,0.116534 0.96875,-0.375 0.404779,-0.386367 0.45442,-0.478514 0.53125,-0.71875 0.104089,-0.325526 0.101973,-0.714605 0.03125,-1.125 -0.01043,0.04502 -0.01758,0.08225 -0.03125,0.125 C 15.82942,10.521486 15.779779,10.613633 15.375,11 c -0.514955,0.491534 -0.616812,0.51648 -0.96875,0.375 -0.562126,-0.226021 -2.723742,-1.306555 -2.8125,-1.4062497 -0.146485,-0.164534 -0.289182,-0.795462 -0.28125,-1.40625 0.0088,-0.678078 -0.04022,-0.758443 -0.75,-0.96875 C 9.475411,7.2717078 8.4350083,7.1565915 7.375,7.2187503 z M 0.0625,10.0625 c -0.06062547,0.368167 -0.09446982,0.738203 -0.03125,0.96875 0.1105821,0.403407 0.7397536,1.25004 0.9375,1.28125 0.060628,0.0096 0.2791226,-0.03067 0.5,-0.09375 C 1.6896353,12.155702 2.3912972,11.980642 3,11.8125 c 1.2985218,-0.358691 1.310323,-0.35257 1.375,-0.53125 0.051164,-0.141376 0.029834,-0.683813 0,-1.21875 -0.00731,0.0628 0.011072,0.188155 0,0.21875 C 4.310323,10.45993 4.298522,10.453809 3,10.8125 2.3912972,10.980642 1.6896353,11.155702 1.46875,11.21875 1.2478726,11.28183 1.029378,11.322065 0.96875,11.3125 0.77594726,11.28207 0.19450644,10.47784 0.0625,10.0625 z"
       id="path3641" />
  </g>
</svg>
