<?xml version="1.0" encoding="UTF-8" standalone="no"?>
<!-- Created with Inkscape (http://www.inkscape.org/) -->

<svg
   xmlns:dc="http://purl.org/dc/elements/1.1/"
   xmlns:cc="http://creativecommons.org/ns#"
   xmlns:rdf="http://www.w3.org/1999/02/22-rdf-syntax-ns#"
   xmlns:svg="http://www.w3.org/2000/svg"
   xmlns="http://www.w3.org/2000/svg"
   xmlns:xlink="http://www.w3.org/1999/xlink"
   xmlns:sodipodi="http://sodipodi.sourceforge.net/DTD/sodipodi-0.dtd"
   xmlns:inkscape="http://www.inkscape.org/namespaces/inkscape"
   width="16"
   height="16"
   id="svg2"
   sodipodi:version="0.32"
   inkscape:version="0.48.1 r9760"
   version="1.0"
   sodipodi:docname="contact-new.svg"
   inkscape:output_extension="org.inkscape.output.svg.inkscape"
   inkscape:export-filename="/home/matt/.icons/Sirocco/scalable/mimetypes/text-plain.png"
   inkscape:export-xdpi="90"
   inkscape:export-ydpi="90"
   sodipodi:modified="true"
   style="display:inline">
  <sodipodi:namedview
     id="base"
     pagecolor="#838383"
     bordercolor="#cc0000"
     borderopacity="1"
     inkscape:pageopacity="1"
     inkscape:pageshadow="2"
     inkscape:zoom="25.4708"
     inkscape:cx="3.2910368"
     inkscape:cy="5.224479"
     inkscape:document-units="px"
     inkscape:current-layer="layer1"
     width="128px"
     height="128px"
     inkscape:showpageshadow="false"
     inkscape:window-width="1920"
     inkscape:window-height="1030"
     inkscape:window-x="0"
     inkscape:window-y="25"
     showguides="true"
     inkscape:guide-bbox="true"
     showgrid="true"
     inkscape:window-maximized="1"
     borderlayer="true"
     inkscape:snap-global="true">
    <sodipodi:guide
       id="guide2226"
       position="32.637397,117.99844"
       orientation="horizontal" />
    <sodipodi:guide
       id="guide2230"
       position="110,57.402344"
       orientation="vertical" />
    <sodipodi:guide
       id="guide2232"
       position="33.760911"
       orientation="horizontal" />
    <sodipodi:guide
       id="guide2231"
       position="46.774696"
       orientation="horizontal" />
    <inkscape:grid
       enabled="true"
       visible="true"
       id="grid3231"
       type="xygrid"
       empspacing="8"
       snapvisiblegridlinesonly="true" />
    <sodipodi:guide
       orientation="1,0"
       position="100,67.625"
       id="guide2713" />
    <sodipodi:guide
       orientation="1,0"
       position="9,0"
       id="guide3021" />
    <sodipodi:guide
       orientation="0,1"
       position="13,6"
       id="guide3023" />
  </sodipodi:namedview>
  <defs
     id="defs4">
    <linearGradient
       id="StandardGradient"
       gradientTransform="scale(0.9219544,1.0846523)"
       x1="11.998966"
       y1="0.92195445"
       x2="11.998966"
       y2="19.387045"
       gradientUnits="userSpaceOnUse">
      <stop
         style="stop-color:#000000;stop-opacity:0.23529412;"
         offset="0"
         id="stop3283" />
      <stop
         style="stop-color:#000000;stop-opacity:0.54901963;"
         offset="1"
         id="stop2651" />
    </linearGradient>
    <radialGradient
       inkscape:collect="always"
       xlink:href="#StandardGradient"
       id="radialGradient4166"
       cx="9"
       cy="10"
       fx="9"
       fy="10"
       r="6.5"
       gradientUnits="userSpaceOnUse"
       gradientTransform="matrix(1.6923077,6.6164121e-8,-4.2104437e-8,1.076923,-6.2307688,-0.76923125)" />
    <linearGradient
       id="StandardGradient-3-5"
       gradientTransform="scale(0.9219544,1.0846523)"
       x1="11.998966"
       y1="0.92195445"
       x2="11.998966"
       y2="19.387045"
       gradientUnits="userSpaceOnUse">
      <stop
         style="stop-color:#000000;stop-opacity:0.86274511;"
         offset="0"
         id="stop3283-5-0" />
      <stop
         style="stop-color:#000000;stop-opacity:0.47058824;"
         offset="1"
         id="stop2651-2-4" />
    </linearGradient>
    <linearGradient
       y2="80"
       x2="56"
       y1="16"
       x1="56"
       gradientTransform="matrix(0.2135965,0,0,0.20626777,-2.252633,-2.3017105)"
       gradientUnits="userSpaceOnUse"
       id="linearGradient3070"
       xlink:href="#StandardGradient-3-5"
       inkscape:collect="always" />
    <linearGradient
       id="StandardGradient-0"
       gradientTransform="scale(0.9219544,1.0846523)"
       x1="11.998966"
       y1="0.92195445"
       x2="11.998966"
       y2="19.387045"
       gradientUnits="userSpaceOnUse">
      <stop
         style="stop-color:#000000;stop-opacity:0.23529412;"
         offset="0"
         id="stop3283-6" />
      <stop
         style="stop-color:#000000;stop-opacity:0.54901963;"
         offset="1"
         id="stop2651-1" />
    </linearGradient>
    <radialGradient
       r="6"
       fy="9.7142859"
       fx="9.3999996"
       cy="9.7142859"
       cx="9.3999996"
       gradientTransform="matrix(1.8333335,0,0,1.3333334,-8.233336,-2.9523815)"
       gradientUnits="userSpaceOnUse"
       id="radialGradient3036"
       xlink:href="#StandardGradient-0"
       inkscape:collect="always" />
    <radialGradient
       inkscape:collect="always"
       xlink:href="#StandardGradient-0"
       id="radialGradient3068"
       gradientUnits="userSpaceOnUse"
       gradientTransform="matrix(1.8333335,0,0,1.3333334,-8.233336,1.0476185)"
       cx="9.3999996"
       cy="9.7142859"
       fx="9.3999996"
       fy="9.7142859"
       r="6" />
    <radialGradient
       inkscape:collect="always"
       xlink:href="#StandardGradient-0"
       id="radialGradient3072"
       gradientUnits="userSpaceOnUse"
       gradientTransform="matrix(1.8333335,0,0,1.3333334,-8.233336,1.0476185)"
       cx="9.3999996"
       cy="9.7142859"
       fx="9.3999996"
       fy="9.7142859"
       r="6" />
    <radialGradient
       inkscape:collect="always"
       xlink:href="#StandardGradient-0"
       id="radialGradient3076"
       gradientUnits="userSpaceOnUse"
       gradientTransform="matrix(1.8333335,0,0,1.3333334,-8.233336,1.0476185)"
       cx="9.3999996"
       cy="9.7142859"
       fx="9.3999996"
       fy="9.7142859"
       r="6" />
    <linearGradient
       inkscape:collect="always"
       xlink:href="#StandardGradient-3-5"
       id="linearGradient3079"
       gradientUnits="userSpaceOnUse"
       gradientTransform="matrix(0.2135965,0,0,0.20626777,-2.252633,-3.3017105)"
       x1="56"
       y1="16"
       x2="56"
       y2="80" />
    <linearGradient
       inkscape:collect="always"
       xlink:href="#StandardGradient-3-5"
       id="linearGradient3082"
       gradientUnits="userSpaceOnUse"
       gradientTransform="matrix(0.2135965,0,0,0.20626777,-2.252633,-3.3017105)"
       x1="56"
       y1="16"
       x2="56"
       y2="80" />
    <radialGradient
       inkscape:collect="always"
       xlink:href="#StandardGradient"
       id="radialGradient3853"
       cx="9"
       cy="9.2894373"
       fx="9"
       fy="9.2894373"
       r="5.34375"
       gradientTransform="matrix(2.0584795,8.8669018e-8,-7.2547374e-8,1.6842104,-9.5263151,-5.6453686)"
       gradientUnits="userSpaceOnUse" />
    <radialGradient
       inkscape:collect="always"
       xlink:href="#StandardGradient"
       id="radialGradient3859"
       gradientUnits="userSpaceOnUse"
       gradientTransform="matrix(2.0584795,8.8669018e-8,-7.2547374e-8,1.6842104,-9.5263151,-4.6453686)"
       cx="9"
       cy="9.2894373"
       fx="9"
       fy="9.2894373"
       r="5.34375" />
    <radialGradient
       inkscape:collect="always"
       xlink:href="#StandardGradient"
       id="radialGradient3861"
       gradientUnits="userSpaceOnUse"
       gradientTransform="matrix(2.0584795,8.8669018e-8,-7.2547374e-8,1.6842104,-9.5263151,-5.6453686)"
       cx="9"
       cy="9.2894373"
       fx="9"
       fy="9.2894373"
       r="5.34375" />
    <radialGradient
       inkscape:collect="always"
       xlink:href="#StandardGradient"
       id="radialGradient3868"
       gradientUnits="userSpaceOnUse"
       gradientTransform="matrix(2.0584795,8.8669018e-8,-7.2547374e-8,1.6842104,-9.5263151,-5.6453686)"
       cx="9"
       cy="9.2894373"
       fx="9"
       fy="9.2894373"
       r="5.34375" />
    <radialGradient
       inkscape:collect="always"
       xlink:href="#StandardGradient"
       id="radialGradient3872"
       gradientUnits="userSpaceOnUse"
       gradientTransform="matrix(2.0584795,8.8669018e-8,-7.2547374e-8,1.6842104,-9.5263151,-5.6453686)"
       cx="9"
       cy="9.2894373"
       fx="9"
       fy="9.2894373"
       r="5.34375" />
    <radialGradient
       inkscape:collect="always"
       xlink:href="#StandardGradient"
       id="radialGradient3874"
       gradientUnits="userSpaceOnUse"
       gradientTransform="matrix(2.0584795,8.8669018e-8,-7.2547374e-8,1.6842104,-9.5263151,-5.6453686)"
       cx="9"
       cy="9.2894373"
       fx="9"
       fy="9.2894373"
       r="5.34375" />
    <radialGradient
       inkscape:collect="always"
       xlink:href="#StandardGradient"
       id="radialGradient3879"
       gradientUnits="userSpaceOnUse"
       gradientTransform="matrix(2.0584795,8.8669018e-8,-7.2547374e-8,1.6842104,-9.5263151,-4.6453686)"
       cx="9"
       cy="9.2894373"
       fx="9"
       fy="9.2894373"
       r="5.34375" />
    <radialGradient
       inkscape:collect="always"
       xlink:href="#StandardGradient"
       id="radialGradient3883"
       gradientUnits="userSpaceOnUse"
       gradientTransform="matrix(2.0584795,8.8669018e-8,-7.2547374e-8,1.6842104,-9.5263151,-5.6453686)"
       cx="9"
       cy="9.2894373"
       fx="9"
       fy="9.2894373"
       r="5.34375" />
    <radialGradient
       inkscape:collect="always"
       xlink:href="#StandardGradient"
       id="radialGradient3890"
       gradientUnits="userSpaceOnUse"
       gradientTransform="matrix(2.0584795,8.8669018e-8,-7.2547374e-8,1.6842104,-9.5263151,-5.6453686)"
       cx="9"
       cy="9.2894373"
       fx="9"
       fy="9.2894373"
       r="5.34375" />
    <radialGradient
       inkscape:collect="always"
       xlink:href="#StandardGradient"
       id="radialGradient3894"
       gradientUnits="userSpaceOnUse"
       gradientTransform="matrix(2.0584795,8.8669018e-8,-7.2547374e-8,1.6842104,-9.5263151,-5.6453686)"
       cx="9"
       cy="9.2894373"
       fx="9"
       fy="9.2894373"
       r="5.34375" />
  </defs>
  <metadata
     id="metadata7">
    <rdf:RDF>
      <cc:Work
         rdf:about="">
        <dc:format>image/svg+xml</dc:format>
        <dc:type
           rdf:resource="http://purl.org/dc/dcmitype/StillImage" />
        <dc:title></dc:title>
      </cc:Work>
    </rdf:RDF>
  </metadata>
  <g
     style="display:inline"
     inkscape:label="Calque 1"
     id="layer1"
     inkscape:groupmode="layer">
    <path
       style="fill:#ffffff;fill-opacity:1;stroke:none;display:inline;enable-background:new;opacity:0.05"
       d="M 8 -1 C 6.0336145 -1 4.28125 0.46363432 4.28125 2.40625 A 1.0196706 1.0196706 0 0 0 4.28125 2.4375 C 4.2830537 2.5139735 4.2767778 2.604407 4.28125 2.6875 C 4.1916165 2.8905512 4.1366554 3.1020607 4.125 3.28125 C 4.0990811 3.679727 4.1792739 4.0352976 4.34375 4.40625 C 4.3976739 4.5278674 4.5115398 4.6758023 4.59375 4.8125 C 4.6175808 4.9064662 4.6415498 4.9981023 4.65625 5.0625 A 1.0196706 1.0196706 0 0 0 4.6875 5.1875 C 4.816152 5.5569488 4.9755478 5.7455559 5.15625 6 C 5.2767181 6.1696294 5.4039307 6.3356214 5.53125 6.5 C 5.5322092 6.5305802 5.5312452 6.5635107 5.53125 6.59375 C 5.1571283 6.7965985 4.5668315 7.0493813 3.875 7.3125 C 3.4567471 7.4715707 3.044712 7.6291386 2.65625 7.875 C 2.3078314 8.0955176 1.9001671 8.5123314 1.8125 9.125 L 1.78125 9.125 L 1.75 9.3125 L 1.65625 9.8125 A 1.0196706 1.0196706 0 0 0 2.65625 11.03125 L 3.96875 11.03125 L 3.96875 13 A 1.0196706 1.0196706 0 0 0 5 14.03125 L 5.96875 14.03125 L 5.96875 15 A 1.0196706 1.0196706 0 0 0 7 16.03125 L 9 16.03125 A 1.0196706 1.0196706 0 0 0 10.03125 15 L 10.03125 14.03125 L 11 14.03125 A 1.0196706 1.0196706 0 0 0 12.03125 13 L 12.03125 11.03125 L 13.34375 11.03125 A 1.0196706 1.0196706 0 0 0 14.34375 9.8125 L 14.25 9.3125 L 14.21875 9.125 L 14.1875 9.125 C 14.132047 8.8260018 14.02188 8.5397538 13.875 8.375 C 13.692449 8.1702346 13.499598 8.0496386 13.3125 7.9375 C 12.938304 7.7132229 12.536989 7.5376822 12.125 7.375 C 11.444577 7.1063207 10.875136 6.841613 10.5 6.625 C 10.49991 6.6047347 10.499764 6.5828005 10.5 6.5625 C 10.617417 6.3884965 10.727969 6.2142904 10.84375 6.03125 C 11.02138 5.7504328 11.190157 5.5388361 11.3125 5.1875 A 1.0196706 1.0196706 0 0 0 11.34375 5.09375 C 11.381005 4.942983 11.38732 4.844656 11.40625 4.75 C 11.478956 4.6342725 11.569849 4.5306346 11.625 4.40625 C 11.781093 4.0541987 11.858784 3.7192879 11.84375 3.34375 C 11.839794 3.2449242 11.708817 3.1394482 11.6875 3.03125 C 11.70258 2.8237 11.712233 2.6211332 11.71875 2.4375 A 1.0196706 1.0196706 0 0 0 11.71875 2.40625 C 11.718751 0.46363402 9.9663863 -1 8 -1 z M 8 0.03125 C 9.490788 0.03125 10.687501 1.074362 10.6875 2.40625 C 10.68156 2.5736356 10.67048 2.7729011 10.65625 2.96875 C 10.859931 3.1150965 10.887348 3.5492648 10.6875 4 C 10.615367 4.1626861 10.53521 4.2919247 10.4375 4.40625 C 10.40589 4.5476494 10.38444 4.6790798 10.34375 4.84375 C 10.233024 5.1617245 9.799651 5.7926478 9.46875 6.28125 C 9.4515522 6.5433742 9.4759657 6.8005556 9.5 7.0625 C 9.5442763 7.0687842 9.5927161 7.0621911 9.59375 7.0625 C 9.5946116 7.0627574 9.6266415 7.0832966 9.65625 7.09375 L 9.5 7.25 L 9.90625 7.1875 C 9.9214709 7.1946615 9.9369661 7.2184664 9.9375 7.21875 C 9.9397689 7.2199554 10.122861 7.3110762 10.125 7.3125 C 10.127139 7.3139238 10.279263 7.4358718 10.28125 7.4375 C 10.283237 7.4391282 10.435683 7.5606833 10.4375 7.5625 C 10.439317 7.5643167 10.560872 7.7167626 10.5625 7.71875 C 10.564128 7.7207374 10.686076 7.8728614 10.6875 7.875 C 10.687785 7.8754277 10.712726 7.8942402 10.71875 7.90625 C 11.875171 8.396362 13.215688 8.7875051 13.21875 9.3125 L 13.34375 10 L 11.1875 10 L 10 10 L 10 9 A 0.99332376 0.99332376 0 0 0 10 8.8125 A 0.99332376 0.99332376 0 0 0 9.71875 8.28125 A 0.99332376 0.99332376 0 0 0 9.71875 8.25 A 1.0196706 1.0196706 0 0 0 9.65625 8.21875 A 0.99332376 0.99332376 0 0 0 9 8 L 7 8 A 0.99332376 0.99332376 0 0 0 6.90625 8 A 0.99332376 0.99332376 0 0 0 6.625 8.0625 A 1.0196706 1.0196706 0 0 0 6.4375 8.15625 A 1.0196706 1.0196706 0 0 0 6.28125 8.28125 A 0.99332376 0.99332376 0 0 0 6.21875 8.34375 A 1.0196706 1.0196706 0 0 0 6.1875 8.375 A 0.99332376 0.99332376 0 0 0 6.15625 8.4375 A 0.99332376 0.99332376 0 0 0 6 9 L 6 10 L 4.90625 10 L 2.65625 10 L 2.78125 9.3125 C 2.7783681 8.6942824 4.1473701 8.3392869 5.3125 7.875 C 5.3394563 7.8299653 5.3740303 7.7825446 5.375 7.78125 C 5.37657 7.779154 5.4982414 7.6269405 5.5 7.625 C 5.5017586 7.6230595 5.6230682 7.5017681 5.625 7.5 C 5.6269318 7.4982319 5.7791618 7.3765803 5.78125 7.375 C 5.7833382 7.3734197 5.9352736 7.2826288 5.9375 7.28125 C 5.9397264 7.2798712 6.0914048 7.1886652 6.09375 7.1875 L 6.125 7.1875 L 6.5 7.25 L 6.375 7.09375 C 6.4103161 7.0820128 6.4364569 7.0627937 6.4375 7.0625 C 6.4387604 7.0621452 6.4850121 7.0467273 6.53125 7.03125 C 6.56843 6.7123338 6.560837 6.4170258 6.53125 6.125 C 6.167296 5.6605602 5.756269 5.1309738 5.65625 4.84375 C 5.62396 4.7022958 5.5892 4.5941543 5.5625 4.46875 C 5.450658 4.3483096 5.3624 4.1830218 5.28125 4 C 5.070802 3.5253646 5.107819 3.0578919 5.34375 2.9375 C 5.32718 2.7476455 5.3161 2.5588866 5.3125 2.40625 C 5.3125 1.0743618 6.509213 0.03125 8 0.03125 z M 7 9 L 9 9 L 9 11 L 11 11 L 11 13 L 9 13 L 9 15 L 7 15 L 7 13 L 5 13 L 5 11 L 7 11 L 7 9 z "
       id="path3892" />
    <path
       style="fill:url(#radialGradient3853);fill-opacity:1;stroke:none;display:inline;enable-background:new"
       d="M 8 0.03125 C 6.509213 0.03125 5.3125 1.0743618 5.3125 2.40625 C 5.3161 2.5588866 5.32718 2.7476455 5.34375 2.9375 C 5.107819 3.0578919 5.070802 3.5253646 5.28125 4 C 5.3624 4.1830218 5.450658 4.3483096 5.5625 4.46875 C 5.5892 4.5941543 5.62396 4.7022958 5.65625 4.84375 C 5.756269 5.1309738 6.167296 5.6605602 6.53125 6.125 C 6.56755 6.4832838 6.57301 6.8424604 6.5 7.25 C 5.452424 8.081958 2.777235 8.451213 2.78125 9.3125 L 2.65625 10 L 4.90625 10 L 6 10 L 6 9 A 0.99332376 0.99332376 0 0 1 6.90625 8 A 0.99332376 0.99332376 0 0 1 7 8 L 9 8 A 0.99332376 0.99332376 0 0 1 10 9 L 10 10 L 11.1875 10 L 13.34375 10 L 13.21875 9.3125 C 13.21445 8.575354 10.534734 8.111287 9.5 7.25 C 9.4581 6.9200799 9.44743 6.606203 9.46875 6.28125 C 9.799651 5.7926478 10.233024 5.1617245 10.34375 4.84375 C 10.38444 4.6790798 10.40589 4.5476494 10.4375 4.40625 C 10.53521 4.2919247 10.615367 4.1626861 10.6875 4 C 10.887348 3.5492648 10.859931 3.1150965 10.65625 2.96875 C 10.67048 2.7729011 10.68156 2.5736356 10.6875 2.40625 C 10.687501 1.074362 9.490788 0.03125 8 0.03125 z M 7 9 L 7 11 L 5 11 L 5 13 L 7 13 L 7 15 L 9 15 L 9 13 L 11 13 L 11 11 L 9 11 L 9 9 L 7 9 z "
       id="path3798" />
    <path
       style="fill:#000000;fill-opacity:1;stroke:none;display:inline;enable-background:new;opacity:0.29999999999999999"
       d="M 8 0.03125 C 6.509213 0.03125 5.3125 1.0743618 5.3125 2.40625 C 5.3161 2.5588866 5.32718 2.7476455 5.34375 2.9375 C 5.107819 3.0578919 5.070802 3.5253646 5.28125 4 C 5.3624 4.1830218 5.450658 4.3483096 5.5625 4.46875 C 5.5892 4.5941543 5.62396 4.7022958 5.65625 4.84375 C 5.756269 5.1309738 6.167296 5.6605602 6.53125 6.125 C 6.56755 6.4832838 6.57301 6.8424604 6.5 7.25 C 5.452424 8.081958 2.777235 8.451213 2.78125 9.3125 L 2.65625 10 L 4.90625 10 L 6 10 L 6 9 A 0.99332376 0.99332376 0 0 1 6.125 8.5 A 0.50024408 0.50024408 0 0 0 5.5 9 L 5.5 9.5 L 4.90625 9.5 L 3.21875 9.5 L 3.25 9.40625 A 0.48743166 0.48743166 0 0 0 3.28125 9.3125 C 3.2814231 9.3496372 3.2603995 9.2881171 3.46875 9.15625 C 3.6771005 9.0243829 4.0155353 8.8673474 4.40625 8.71875 C 5.1002158 8.4548196 5.9280845 8.1975501 6.5625 7.78125 A 0.48743166 0.48743166 0 0 0 6.5 8.09375 A 0.99332376 0.99332376 0 0 1 6.90625 8 A 0.99332376 0.99332376 0 0 1 7 8 L 9 8 A 0.99332376 0.99332376 0 0 1 9.46875 8.125 A 0.99332376 0.99332376 0 0 1 9.5 8.125 A 0.48743166 0.48743166 0 0 0 9.46875 7.8125 C 10.089662 8.2317993 10.876181 8.5102429 11.5625 8.78125 C 11.956627 8.9368794 12.314021 9.0885525 12.53125 9.21875 C 12.622251 9.2732922 12.685413 9.3122353 12.71875 9.34375 C 12.724893 9.3613563 12.764779 9.3915771 12.75 9.375 A 0.48743166 0.48743166 0 0 0 12.75 9.40625 L 12.78125 9.5 L 11.1875 9.5 L 10.5 9.5 L 10.5 9 A 0.50024408 0.50024408 0 0 0 9.875 8.5 A 0.99332376 0.99332376 0 0 1 10 9 L 10 10 L 11.1875 10 L 13.34375 10 L 13.21875 9.3125 C 13.21445 8.575354 10.534734 8.111287 9.5 7.25 C 9.4581 6.9200799 9.44743 6.606203 9.46875 6.28125 C 9.799651 5.7926478 10.233024 5.1617245 10.34375 4.84375 C 10.38444 4.6790798 10.40589 4.5476494 10.4375 4.40625 C 10.53521 4.2919247 10.615367 4.1626861 10.6875 4 C 10.887348 3.5492648 10.859931 3.1150965 10.65625 2.96875 C 10.67048 2.7729011 10.68156 2.5736356 10.6875 2.40625 C 10.687501 1.074362 9.490788 0.03125 8 0.03125 z M 8 0.53125 C 9.2503251 0.53125 10.168324 1.3498706 10.1875 2.375 C 10.187701 2.3857515 10.1875 2.3954564 10.1875 2.40625 C 10.181619 2.5605738 10.169308 2.7577818 10.15625 2.9375 A 0.48743166 0.48743166 0 0 0 10.34375 3.375 C 10.347402 3.4662234 10.323073 3.6476908 10.25 3.8125 C 10.193329 3.9403142 10.127879 4.0172536 10.0625 4.09375 A 0.48743166 0.48743166 0 0 0 9.96875 4.3125 C 9.9359382 4.4592753 9.9061888 4.5558714 9.875 4.6875 C 9.8725427 4.6978707 9.8776125 4.7081774 9.875 4.71875 C 9.8443936 4.7966851 9.7126573 5.0126145 9.5625 5.25 C 9.4056855 5.49791 9.2287285 5.7545501 9.0625 6 A 0.48743166 0.48743166 0 0 0 8.96875 6.25 C 8.9453922 6.6060126 8.9857853 6.9545115 9.03125 7.3125 A 0.48743166 0.48743166 0 0 0 9.0625 7.5 A 0.48743166 0.48743166 0 0 0 9 7.5 L 7 7.5 A 0.48743166 0.48743166 0 0 0 6.9375 7.5 A 0.48743166 0.48743166 0 0 0 6.96875 7.34375 C 7.051269 6.8831315 7.0703488 6.4484077 7.03125 6.0625 A 0.48743166 0.48743166 0 0 0 6.90625 5.8125 C 6.7248048 5.5809588 6.5574673 5.3379269 6.40625 5.125 C 6.2550327 4.9120731 6.1374162 4.7231554 6.125 4.6875 C 6.0946157 4.563727 6.0486546 4.4567456 6.03125 4.375 A 0.48743166 0.48743166 0 0 0 5.90625 4.125 C 5.8587072 4.0738021 5.7908969 3.9752165 5.71875 3.8125 C 5.6418502 3.6390635 5.6190039 3.4671845 5.625 3.375 C 5.6279981 3.3289077 5.6288329 3.3073767 5.625 3.3125 A 0.48743166 0.48743166 0 0 0 5.84375 2.90625 C 5.8279766 2.7255231 5.8157675 2.5447891 5.8125 2.40625 C 5.8125 1.366307 6.7365627 0.53125 8 0.53125 z M 7 9 L 7 11 L 5 11 L 5 13 L 7 13 L 7 15 L 9 15 L 9 13 L 11 13 L 11 11 L 9 11 L 9 9 L 7 9 z M 7.5 9.5 L 8.5 9.5 L 8.5 11 A 0.48743166 0.48743166 0 0 0 9 11.5 L 10.5 11.5 L 10.5 12.5 L 9 12.5 A 0.48743166 0.48743166 0 0 0 8.5 13 L 8.5 14.5 L 7.5 14.5 L 7.5 13 A 0.48743166 0.48743166 0 0 0 7 12.5 L 5.5 12.5 L 5.5 11.5 L 7 11.5 A 0.48743166 0.48743166 0 0 0 7.5 11 L 7.5 9.5 z "
       id="path3864" />
    <path
       style="fill:#000000;fill-opacity:1;stroke:none;display:inline;enable-background:new;opacity:0.3"
       d="M 8 0.03125 C 6.509213 0.03125 5.3125 1.0743618 5.3125 2.40625 C 5.3161 2.5588866 5.32718 2.7476455 5.34375 2.9375 C 5.107819 3.0578919 5.070802 3.5253646 5.28125 4 C 5.3022883 3.9788735 5.3178551 3.9507137 5.34375 3.9375 C 5.32718 3.7476455 5.3161 3.5588866 5.3125 3.40625 C 5.3125 2.0743618 6.509213 1.03125 8 1.03125 C 9.490788 1.03125 10.687501 2.074362 10.6875 3.40625 C 10.68156 3.5736356 10.67048 3.7729011 10.65625 3.96875 C 10.667428 3.9767812 10.677392 3.99028 10.6875 4 C 10.887348 3.5492648 10.859931 3.1150965 10.65625 2.96875 C 10.67048 2.7729011 10.68156 2.5736356 10.6875 2.40625 C 10.687501 1.074362 9.490788 0.03125 8 0.03125 z M 6.5 7.09375 C 6.4930516 7.1452525 6.5095013 7.196964 6.5 7.25 C 5.452424 8.081958 2.777235 8.451213 2.78125 9.3125 L 2.65625 10 L 2.90625 10 C 3.3741886 9.4111035 5.1293522 9.0583137 6.15625 8.46875 A 0.99332376 0.99332376 0 0 1 6.15625 8.4375 A 0.99332376 0.99332376 0 0 1 6.5 8.09375 C 6.5001463 8.0926657 6.5311048 8.0948336 6.53125 8.09375 C 6.5772052 7.750781 6.5627266 7.4356762 6.53125 7.125 C 6.5223514 7.1136445 6.5089497 7.1051789 6.5 7.09375 z M 9.5 7.25 C 9.4922942 7.2613708 9.4763528 7.2700239 9.46875 7.28125 C 9.4501781 7.5643172 9.4705251 7.8408163 9.5 8.125 A 0.99332376 0.99332376 0 0 1 9.875 8.5 C 10.852109 9.083476 12.444992 9.5065346 13 10 L 13.34375 10 L 13.21875 9.3125 C 13.21445 8.575354 10.534734 8.111287 9.5 7.25 z M 7 9 L 7 10 L 9 10 L 9 9 L 7 9 z M 5 11 L 5 12 L 7 12 L 7 11 L 6 11 L 5 11 z M 9 11 L 9 12 L 11 12 L 11 11 L 10 11 L 9 11 z "
       id="path3855" />
    <path
       style="fill:#ffffff;fill-opacity:1;stroke:none;display:inline;enable-background:new;opacity:0.2"
       d="M 5.28125 4 C 5.1106062 4.1713591 5.0939 4.5774587 5.28125 5 C 5.3624 5.1830218 5.450658 5.3483096 5.5625 5.46875 C 5.5892 5.5941543 5.62396 5.7022958 5.65625 5.84375 C 5.7538235 6.1239512 6.1429079 6.6377373 6.5 7.09375 C 6.5464445 6.7494966 6.562826 6.4366578 6.53125 6.125 C 6.167296 5.6605602 5.756269 5.1309738 5.65625 4.84375 C 5.62396 4.7022958 5.5892 4.5941543 5.5625 4.46875 C 5.450658 4.3483096 5.3624 4.1830218 5.28125 4 z M 10.6875 4 C 10.615367 4.1626861 10.53521 4.2919247 10.4375 4.40625 C 10.40589 4.5476494 10.38444 4.6790798 10.34375 4.84375 C 10.233024 5.1617245 9.799651 5.7926478 9.46875 6.28125 C 9.44743 6.606203 9.4581 6.9200799 9.5 7.25 C 9.8276796 6.766469 10.235568 6.1544187 10.34375 5.84375 C 10.38444 5.6790798 10.40589 5.5476494 10.4375 5.40625 C 10.53521 5.2919247 10.615367 5.1626861 10.6875 5 C 10.876381 4.5740003 10.861574 4.1673998 10.6875 4 z M 6.8125 8 A 0.99332376 0.99332376 0 0 0 6.53125 8.09375 C 6.5311048 8.0948336 6.5001463 8.0926657 6.5 8.09375 C 6.4930516 8.1452525 6.5095013 8.196964 6.5 8.25 C 6.406283 8.3244276 6.2729357 8.3697951 6.15625 8.4375 A 0.99332376 0.99332376 0 0 0 6.15625 8.46875 A 0.99332376 0.99332376 0 0 0 6 9 L 6 9.90625 A 0.99332376 0.99332376 0 0 1 6.90625 9 A 0.99332376 0.99332376 0 0 1 7 9 L 9 9 A 0.99332376 0.99332376 0 0 1 10 9.8125 L 10 9 A 0.99332376 0.99332376 0 0 0 9.875 8.5 C 9.7429474 8.4211454 9.6034734 8.3361287 9.5 8.25 C 9.4945992 8.2074739 9.5043614 8.1670511 9.5 8.125 A 0.99332376 0.99332376 0 0 0 9 8 L 7 8 A 0.99332376 0.99332376 0 0 0 6.90625 8 A 0.99332376 0.99332376 0 0 0 6.8125 8 z M 2.90625 10 C 2.8314385 10.09415 2.7807481 10.204839 2.78125 10.3125 L 2.65625 11 L 4.90625 11 L 5 11 L 6 11 L 6 10 L 4.90625 10 L 2.90625 10 z M 10 10 L 10 11 L 11 11 L 11.1875 11 L 13.34375 11 L 13.21875 10.3125 C 13.218062 10.194512 13.120057 10.106745 13 10 L 11.1875 10 L 10 10 z M 5 13 L 5 14 L 7 14 L 7 13 L 5 13 z M 9 13 L 9 14 L 11 14 L 11 13 L 9 13 z M 7 15 L 7 16 L 9 16 L 9 15 L 7 15 z "
       id="path3877" />
  </g>
</svg>
