<?xml version="1.0" encoding="UTF-8" standalone="no"?>
<!-- Created with Inkscape (http://www.inkscape.org/) -->

<svg
   xmlns:dc="http://purl.org/dc/elements/1.1/"
   xmlns:cc="http://creativecommons.org/ns#"
   xmlns:rdf="http://www.w3.org/1999/02/22-rdf-syntax-ns#"
   xmlns:svg="http://www.w3.org/2000/svg"
   xmlns="http://www.w3.org/2000/svg"
   xmlns:xlink="http://www.w3.org/1999/xlink"
   xmlns:sodipodi="http://sodipodi.sourceforge.net/DTD/sodipodi-0.dtd"
   xmlns:inkscape="http://www.inkscape.org/namespaces/inkscape"
   width="16"
   height="16"
   id="svg2"
   sodipodi:version="0.32"
   inkscape:version="0.48.1 r9760"
   version="1.0"
   sodipodi:docname="document-export.svg"
   inkscape:output_extension="org.inkscape.output.svg.inkscape"
   inkscape:export-filename="/home/matt/.icons/Sirocco/scalable/mimetypes/text-plain.png"
   inkscape:export-xdpi="90"
   inkscape:export-ydpi="90"
   sodipodi:modified="true"
   style="display:inline">
  <sodipodi:namedview
     id="base"
     pagecolor="#838383"
     bordercolor="#cc0000"
     borderopacity="1"
     inkscape:pageopacity="1"
     inkscape:pageshadow="2"
     inkscape:zoom="25.4708"
     inkscape:cx="3.2910368"
     inkscape:cy="5.224479"
     inkscape:document-units="px"
     inkscape:current-layer="layer1"
     width="128px"
     height="128px"
     inkscape:showpageshadow="false"
     inkscape:window-width="1920"
     inkscape:window-height="1030"
     inkscape:window-x="0"
     inkscape:window-y="25"
     showguides="true"
     inkscape:guide-bbox="true"
     showgrid="true"
     inkscape:window-maximized="1"
     borderlayer="true"
     inkscape:snap-global="true">
    <sodipodi:guide
       id="guide2226"
       position="32.637397,117.99844"
       orientation="horizontal" />
    <sodipodi:guide
       id="guide2230"
       position="110,57.402344"
       orientation="vertical" />
    <sodipodi:guide
       id="guide2232"
       position="33.760911"
       orientation="horizontal" />
    <sodipodi:guide
       id="guide2231"
       position="46.774696"
       orientation="horizontal" />
    <inkscape:grid
       enabled="true"
       visible="true"
       id="grid3231"
       type="xygrid"
       empspacing="8"
       snapvisiblegridlinesonly="true" />
    <sodipodi:guide
       orientation="1,0"
       position="100,67.625"
       id="guide2713" />
    <sodipodi:guide
       orientation="1,0"
       position="9,0"
       id="guide3021" />
    <sodipodi:guide
       orientation="0,1"
       position="13,6"
       id="guide3023" />
  </sodipodi:namedview>
  <defs
     id="defs4">
    <linearGradient
       id="StandardGradient"
       gradientTransform="scale(0.9219544,1.0846523)"
       x1="11.998966"
       y1="0.92195445"
       x2="11.998966"
       y2="19.387045"
       gradientUnits="userSpaceOnUse">
      <stop
         style="stop-color:#000000;stop-opacity:0.23529412;"
         offset="0"
         id="stop3283" />
      <stop
         style="stop-color:#000000;stop-opacity:0.54901963;"
         offset="1"
         id="stop2651" />
    </linearGradient>
    <radialGradient
       inkscape:collect="always"
       xlink:href="#StandardGradient"
       id="radialGradient3988"
       cx="9"
       cy="10.491351"
       fx="9"
       fy="10.491351"
       r="6.0076814"
       gradientTransform="matrix(1.8309892,0,0,0.83226782,-7.4789032,1.2683858)"
       gradientUnits="userSpaceOnUse" />
    <radialGradient
       inkscape:collect="always"
       xlink:href="#StandardGradient"
       id="radialGradient4043"
       cx="9"
       cy="12.857142"
       fx="9"
       fy="12.857142"
       r="17"
       gradientTransform="matrix(0.64705882,0,0,0.47058823,3.1764706,3.94958)"
       gradientUnits="userSpaceOnUse" />
    <radialGradient
       inkscape:collect="always"
       xlink:href="#StandardGradient"
       id="radialGradient4049"
       gradientUnits="userSpaceOnUse"
       gradientTransform="matrix(0.64705882,0,0,0.47058823,3.1764706,3.94958)"
       cx="9"
       cy="12.857142"
       fx="9"
       fy="12.857142"
       r="17" />
    <radialGradient
       inkscape:collect="always"
       xlink:href="#StandardGradient"
       id="radialGradient4053"
       gradientUnits="userSpaceOnUse"
       gradientTransform="matrix(0.64705882,0,0,0.47058823,3.1764706,3.94958)"
       cx="9"
       cy="12.857142"
       fx="9"
       fy="12.857142"
       r="17" />
    <radialGradient
       inkscape:collect="always"
       xlink:href="#StandardGradient"
       id="radialGradient4055"
       gradientUnits="userSpaceOnUse"
       gradientTransform="matrix(0.64705882,0,0,0.47058823,3.1764706,3.94958)"
       cx="9"
       cy="12.857142"
       fx="9"
       fy="12.857142"
       r="17" />
  </defs>
  <metadata
     id="metadata7">
    <rdf:RDF>
      <cc:Work
         rdf:about="">
        <dc:format>image/svg+xml</dc:format>
        <dc:type
           rdf:resource="http://purl.org/dc/dcmitype/StillImage" />
        <dc:title></dc:title>
      </cc:Work>
    </rdf:RDF>
  </metadata>
  <g
     style="display:inline"
     inkscape:label="Calque 1"
     id="layer1"
     inkscape:groupmode="layer">
    <path
       style="opacity:0.05;fill:#ffffff;fill-opacity:1;stroke:none;display:inline"
       d="M -16.5,2.9843231e-7 C -17.982044,-0.01411127 -19.139628,1.3688171 -19,2.8125003 l 0,3.1875 c -0.780658,-0.03153 -1.123717,0.8061771 -1,1.46875 0.09613,0.7627506 -0.25405,1.7186952 0.375,2.3125 0.687603,0.1211316 0.689603,0.5204107 0.625,1.1562497 0.08617,1.303639 -0.259396,2.709872 0.40625,3.90625 0.56377,0.848675 1.27504,1.136988 2.34375,1.15625 3.005224,-0.01221 5.995885,0.01155 9,-0.03125 C -5.766047,15.86992 -4.840149,14.392799 -5,13 -5.01133,9.4181693 -4.9919,5.8308778 -5.03125,2.2500003 -5.157207,0.871077 -6.444687,-0.1434864 -7.8125,2.9843231e-7 l -8.6875,0 z m 20,0 C 1.970247,-0.03689258 0.839474,1.4451686 1,2.9062503 1.01133,6.5235331 0.9919,10.13367 1.03125,13.75 1.15721,15.128922 2.444683,16.143491 3.8125,16 c 3.010256,-0.01754 6.023114,0.03058 9.03125,-0.03125 1.054398,-0.171621 1.807844,-0.824553 2.09375,-2 0.104315,-1.043383 0.05224,-2.107898 0.03125,-3.15625 C 14.858253,10.19433 13.920271,10.095082 14.75,9.6250003 15.243022,9.0444495 16.271066,8.4971708 15.875,7.5937503 15.44516,6.9716149 14.821862,6.4968983 14.3125,5.9375003 15.234036,5.639647 14.963486,4.5483181 15,3.8125003 15.03416,2.6257027 15.0738,1.1744912 13.9375,0.4687503 12.798999,-0.27879202 11.404117,0.0873937 10.125,2.9843231e-7 l -6.625,0 z M -16.5,1.0000003 l 0.5,0 8,0 0.5,0 c 0.103875,0 0.214678,0.01133 0.3125,0.03125 0.326943,0.066564 0.603453,0.227957 0.8125,0.46875 0.01949,0.02192 0.04431,0.039451 0.0625,0.0625 0.08472,0.110082 0.13577,0.243211 0.1875,0.375 0.01205,0.03023 0.02114,0.06258 0.03125,0.09375 C -6.04625,2.1777543 -6,2.3372633 -6,2.5000003 l 0,0.5 L -6,13 l 0,0.5 c 0,0.162738 -0.04625,0.322246 -0.09375,0.46875 -0.01011,0.03117 -0.0192,0.06352 -0.03125,0.09375 -0.05173,0.131789 -0.10278,0.264919 -0.1875,0.375 -0.01819,0.02305 -0.04301,0.04058 -0.0625,0.0625 -0.209047,0.240793 -0.485557,0.40219 -0.8125,0.46875 C -7.28532,14.98867 -7.396125,15 -7.5,15 l -0.5,0 -8,0 -0.5,0 c -0.285656,0 -0.554473,-0.08124 -0.78125,-0.21875 -0.01999,-0.01218 -0.04316,-0.01816 -0.0625,-0.03125 -0.104177,-0.07026 -0.19804,-0.15642 -0.28125,-0.25 -0.01913,-0.02204 -0.04468,-0.03934 -0.0625,-0.0625 -0.0885,-0.112145 -0.1337,-0.240045 -0.1875,-0.375 -0.01237,-0.03152 -0.02097,-0.0612 -0.03125,-0.09375 C -17.95376,13.822246 -18,13.662738 -18,13.5 l 0,-0.5 0,-3 2,0 0,2.5 c 0,0.277 0.223,0.5 0.5,0.5 l 7,0 c 0.277,0 0.5,-0.223 0.5,-0.5 l 0,-8.9999997 c 0,-0.277 -0.223,-0.5 -0.5,-0.5 l -7,0 c -0.277,0 -0.5,0.223 -0.5,0.5 l 0,2.5 -2,0 0,-3 0,-0.5 c 0,-0.162737 0.04624,-0.322246 0.09375,-0.46875 0.01028,-0.03255 0.01888,-0.062228 0.03125,-0.09375 0.0538,-0.134955 0.099,-0.262856 0.1875,-0.375 0.01782,-0.023159 0.04337,-0.040464 0.0625,-0.0625 0.09914,-0.111495 0.215445,-0.20345 0.34375,-0.28125 0.05935,-0.03618 0.12289,-0.06605 0.1875,-0.09375 0.179578,-0.0757 0.386,-0.125 0.59375,-0.125 z m 20,0 0.5,0 8,0 0.5,0 c 0.20775,0 0.414172,0.0493 0.59375,0.125 0.06461,0.0277 0.128151,0.05757 0.1875,0.09375 0.128305,0.0778 0.244614,0.169755 0.34375,0.28125 0.01913,0.022036 0.04468,0.039341 0.0625,0.0625 0.0885,0.112144 0.133705,0.240045 0.1875,0.375 0.01237,0.031522 0.02097,0.0612 0.03125,0.09375 C 13.95376,2.1777543 14,2.3372633 14,2.5000003 l 0,0.5 0,2 -2,-2 -7.5,0 c -0.277,0 -0.5,0.223 -0.5,0.5 L 4,12.5 C 4,12.777 4.223,13 4.5,13 l 7.5,0 2,-2 0,2 0,0.5 c 0,0.162738 -0.04624,0.322246 -0.09375,0.46875 -0.01028,0.03255 -0.01888,0.06223 -0.03125,0.09375 -0.0538,0.134955 -0.099,0.262855 -0.1875,0.375 -0.01782,0.02316 -0.04337,0.04046 -0.0625,0.0625 -0.08321,0.09358 -0.177073,0.17974 -0.28125,0.25 -0.01934,0.01309 -0.04251,0.01907 -0.0625,0.03125 C 13.054473,14.91876 12.785656,15 12.5,15 L 12,15 4,15 3.5,15 C 3.396125,15 3.285322,14.98867 3.1875,14.96875 2.860557,14.90219 2.584047,14.740793 2.375,14.5 2.35551,14.47808 2.33069,14.46055 2.3125,14.4375 2.22778,14.327419 2.17673,14.194289 2.125,14.0625 2.11295,14.03227 2.10386,13.99992 2.09375,13.96875 2.04625,13.822246 2,13.662738 2,13.5 L 2,13 2,3.0000003 l 0,-0.5 c 0,-0.162737 0.04625,-0.322246 0.09375,-0.46875 0.01011,-0.03117 0.0192,-0.06352 0.03125,-0.09375 0.05173,-0.131789 0.102776,-0.264918 0.1875,-0.375 0.01819,-0.023049 0.04301,-0.04058 0.0625,-0.0625 0.209047,-0.240793 0.485557,-0.402186 0.8125,-0.46875 0.09782,-0.01992 0.208625,-0.03125 0.3125,-0.03125 z m -18.5,3 4,4 L -15,12 l 0,-2.9999997 -4,0 0,-2 4,0 0,-3 z m 1.375,0 4.625,0 L -9,12 l -4.625,0 c 1.139282,-1.160649 2.326804,-2.2831877 3.4375,-3.4687497 0.487418,-0.726529 -0.247625,-1.3917603 -0.75,-1.84375 l -2.6875,-2.6875 z m 18.625,0 5,0 0,2 C 8.903788,6.0264203 7.808681,5.9375963 6.71875,6.0312503 5.802417,6.2998198 6.023296,7.3693715 6,8.0937503 5.98797,8.7648867 5.881125,9.7432196 6.71875,9.9687503 7.80795,10.05786 8.904826,9.9757203 10,10 l 0,2 -5,0 0,-7.9999991 z m 6,0 4,4 L 11,12 l 0,-2.9999997 -4,0 0,-2 4,0 0,-3 z"
       id="path3905"
       inkscape:connector-curvature="0" />
    <path
       style="fill:url(#radialGradient4043);fill-opacity:1;stroke:none;display:inline"
       d="m -16.5,1.0000003 c -0.20775,0 -0.414172,0.0493 -0.59375,0.125 -0.06461,0.0277 -0.128151,0.05757 -0.1875,0.09375 -0.128305,0.0778 -0.244614,0.169755 -0.34375,0.28125 -0.01913,0.022036 -0.04468,0.039341 -0.0625,0.0625 -0.0885,0.112144 -0.133705,0.240045 -0.1875,0.375 -0.01237,0.031522 -0.02097,0.0612 -0.03125,0.09375 C -17.953755,2.1777543 -18,2.3372633 -18,2.5000003 l 0,0.5 0,3 2,0 0,-2.5 c 0,-0.277 0.223,-0.5 0.5,-0.5 l 7,0 c 0.277,0 0.5,0.223 0.5,0.5 L -8,12.5 c 0,0.277 -0.223,0.5 -0.5,0.5 l -7,0 c -0.277,0 -0.5,-0.223 -0.5,-0.5 l 0,-2.5 -2,0 0,3 0,0.5 c 0,0.162738 0.04624,0.322246 0.09375,0.46875 0.01028,0.03255 0.01888,0.06223 0.03125,0.09375 0.0538,0.134955 0.099,0.262855 0.1875,0.375 0.01782,0.02316 0.04337,0.04046 0.0625,0.0625 0.08321,0.09358 0.177073,0.179735 0.28125,0.25 0.01934,0.01309 0.04251,0.01907 0.0625,0.03125 C -17.054473,14.91876 -16.785656,15 -16.5,15 l 0.5,0 8,0 0.5,0 c 0.103875,0 0.214678,-0.01133 0.3125,-0.03125 0.326943,-0.06656 0.603453,-0.227957 0.8125,-0.46875 0.01949,-0.02192 0.04431,-0.03945 0.0625,-0.0625 0.08472,-0.110081 0.135772,-0.243211 0.1875,-0.375 0.01205,-0.03023 0.02114,-0.06258 0.03125,-0.09375 C -6.04625,13.822246 -6,13.662738 -6,13.5 l 0,-0.5 0,-9.9999997 0,-0.5 c 0,-0.162737 -0.04625,-0.322246 -0.09375,-0.46875 -0.01011,-0.03117 -0.0192,-0.06352 -0.03125,-0.09375 -0.05173,-0.131789 -0.102776,-0.264918 -0.1875,-0.375 -0.01819,-0.023049 -0.04301,-0.04058 -0.0625,-0.0625 -0.209047,-0.240793 -0.485557,-0.402186 -0.8125,-0.46875 -0.09782,-0.01992 -0.208625,-0.03125 -0.3125,-0.03125 l -0.5,0 -8,0 -0.5,0 z m 20,0 c -0.103875,0 -0.214678,0.01133 -0.3125,0.03125 -0.326943,0.066564 -0.603453,0.227957 -0.8125,0.46875 -0.01949,0.02192 -0.04431,0.039451 -0.0625,0.0625 -0.08472,0.110082 -0.13577,0.243211 -0.1875,0.375 -0.01205,0.03023 -0.02114,0.06258 -0.03125,0.09375 C 2.04625,2.1777543 2,2.3372633 2,2.5000003 l 0,0.5 L 2,13 2,13.5 c 0,0.162738 0.04625,0.322246 0.09375,0.46875 0.01011,0.03117 0.0192,0.06352 0.03125,0.09375 0.05173,0.131789 0.10278,0.264919 0.1875,0.375 0.01819,0.02305 0.04301,0.04058 0.0625,0.0625 0.209047,0.240793 0.485557,0.40219 0.8125,0.46875 C 3.28532,14.98867 3.396125,15 3.5,15 l 0.5,0 8,0 0.5,0 c 0.285656,0 0.554473,-0.08124 0.78125,-0.21875 0.01999,-0.01218 0.04316,-0.01816 0.0625,-0.03125 0.104177,-0.07026 0.19804,-0.15642 0.28125,-0.25 0.01913,-0.02204 0.04468,-0.03934 0.0625,-0.0625 0.0885,-0.112145 0.1337,-0.240045 0.1875,-0.375 0.01237,-0.03152 0.02097,-0.0612 0.03125,-0.09375 C 13.95376,13.822246 14,13.662738 14,13.5 l 0,-0.5 0,-2 -2,2 -7.5,0 C 4.223,13 4,12.777 4,12.5 L 4,3.5000003 c 0,-0.277 0.223,-0.5 0.5,-0.5 l 7.5,0 2,2 0,-2 0,-0.5 c 0,-0.162737 -0.04624,-0.322246 -0.09375,-0.46875 -0.01028,-0.03255 -0.01888,-0.062228 -0.03125,-0.09375 -0.0538,-0.134955 -0.099,-0.262856 -0.1875,-0.375 -0.01782,-0.023159 -0.04337,-0.040464 -0.0625,-0.0625 -0.09914,-0.111495 -0.215445,-0.20345 -0.34375,-0.28125 -0.05935,-0.03618 -0.12289,-0.06605 -0.1875,-0.09375 -0.179578,-0.0757 -0.386,-0.125 -0.59375,-0.125 l -0.5,0 -8,0 -0.5,0 z m -18.5,3 0,3 -4,0 0,2 4,0 L -15,12 l 4,-3.9999997 -4,-4 z m 26,0 0,3 -4,0 0,2 4,0 L 11,12 l 4,-3.9999997 -4,-4 z"
       id="path3083"
       inkscape:connector-curvature="0" />
    <path
       style="fill:#000000;fill-opacity:1;stroke:none;display:inline;opacity:0.3"
       d="M -16.5 1 C -16.70775 1 -16.914172 1.0493 -17.09375 1.125 C -17.15836 1.1527 -17.221901 1.18257 -17.28125 1.21875 C -17.409555 1.29655 -17.525864 1.388505 -17.625 1.5 C -17.64413 1.522036 -17.66968 1.539341 -17.6875 1.5625 C -17.776 1.674644 -17.821205 1.802545 -17.875 1.9375 C -17.88737 1.969022 -17.89597 1.9987 -17.90625 2.03125 C -17.953755 2.177754 -18 2.337263 -18 2.5 L -18 3 L -18 6 L -16 6 L -16 3.5 C -16 3.223 -15.777 3 -15.5 3 L -8.5 3 C -8.223 3 -8 3.223 -8 3.5 L -8 12.5 C -8 12.777 -8.223 13 -8.5 13 L -15.5 13 C -15.777 13 -16 12.777 -16 12.5 L -16 10 L -18 10 L -18 13 L -18 13.5 C -18 13.662738 -17.95376 13.822246 -17.90625 13.96875 C -17.89597 14.0013 -17.88737 14.03098 -17.875 14.0625 C -17.8212 14.197455 -17.776 14.325355 -17.6875 14.4375 C -17.66968 14.46066 -17.64413 14.47796 -17.625 14.5 C -17.54179 14.59358 -17.447927 14.679735 -17.34375 14.75 C -17.32441 14.76309 -17.30124 14.76907 -17.28125 14.78125 C -17.054473 14.91876 -16.785656 15 -16.5 15 L -16 15 L -8 15 L -7.5 15 C -7.396125 15 -7.285322 14.98867 -7.1875 14.96875 C -6.860557 14.90219 -6.584047 14.740793 -6.375 14.5 C -6.35551 14.47808 -6.33069 14.46055 -6.3125 14.4375 C -6.22778 14.327419 -6.176728 14.194289 -6.125 14.0625 C -6.11295 14.03227 -6.10386 13.99992 -6.09375 13.96875 C -6.04625 13.822246 -6 13.662738 -6 13.5 L -6 13 L -6 3 L -6 2.5 C -6 2.337263 -6.04625 2.177754 -6.09375 2.03125 C -6.10386 2.00008 -6.11295 1.96773 -6.125 1.9375 C -6.17673 1.805711 -6.227776 1.672582 -6.3125 1.5625 C -6.33069 1.539451 -6.35551 1.52192 -6.375 1.5 C -6.584047 1.259207 -6.860557 1.097814 -7.1875 1.03125 C -7.28532 1.01133 -7.396125 1 -7.5 1 L -8 1 L -16 1 L -16.5 1 z M 3.5 1 C 3.396125 1 3.285322 1.01133 3.1875 1.03125 C 2.860557 1.097814 2.584047 1.259207 2.375 1.5 C 2.35551 1.52192 2.33069 1.539451 2.3125 1.5625 C 2.22778 1.672582 2.17673 1.805711 2.125 1.9375 C 2.11295 1.96773 2.10386 2.00008 2.09375 2.03125 C 2.04625 2.177754 2 2.337263 2 2.5 L 2 3 L 2 13 L 2 13.5 C 2 13.662738 2.04625 13.822246 2.09375 13.96875 C 2.10386 13.99992 2.11295 14.03227 2.125 14.0625 C 2.17673 14.194289 2.22778 14.327419 2.3125 14.4375 C 2.33069 14.46055 2.35551 14.47808 2.375 14.5 C 2.584047 14.740793 2.860557 14.90219 3.1875 14.96875 C 3.28532 14.98867 3.396125 15 3.5 15 L 4 15 L 12 15 L 12.5 15 C 12.785656 15 13.054473 14.91876 13.28125 14.78125 C 13.30124 14.76907 13.32441 14.76309 13.34375 14.75 C 13.447927 14.67974 13.54179 14.59358 13.625 14.5 C 13.64413 14.47796 13.66968 14.46066 13.6875 14.4375 C 13.776 14.325355 13.8212 14.197455 13.875 14.0625 C 13.88737 14.03098 13.89597 14.0013 13.90625 13.96875 C 13.95376 13.822246 14 13.662738 14 13.5 L 14 13 L 14 11 L 12 13 L 4.5 13 C 4.223 13 4 12.777 4 12.5 L 4 3.5 C 4 3.223 4.223 3 4.5 3 L 12 3 L 14 5 L 14 3 L 14 2.5 C 14 2.337263 13.95376 2.177754 13.90625 2.03125 C 13.89597 1.9987 13.88737 1.969022 13.875 1.9375 C 13.8212 1.802545 13.776 1.674644 13.6875 1.5625 C 13.66968 1.539341 13.64413 1.522036 13.625 1.5 C 13.52586 1.388505 13.409555 1.29655 13.28125 1.21875 C 13.2219 1.18257 13.15836 1.1527 13.09375 1.125 C 12.914172 1.0493 12.70775 1 12.5 1 L 12 1 L 4 1 L 3.5 1 z M -16.5 1.46875 L -16 1.46875 L -8 1.46875 L -7.5 1.46875 C -7.4303833 1.46875 -7.3451313 1.4869912 -7.28125 1.5 C -7.0493034 1.5472232 -6.8612899 1.6483139 -6.71875 1.8125 C -6.6501685 1.8896322 -6.6485473 1.893108 -6.6875 1.84375 C -6.6589662 1.880824 -6.615143 1.9908851 -6.5625 2.125 C -6.5630815 2.1235411 -6.5453058 2.1441647 -6.53125 2.1875 C -6.4870207 2.3239162 -6.46875 2.4265263 -6.46875 2.5 L -6.46875 3 L -6.46875 13 L -6.46875 13.5 C -6.46875 13.573475 -6.4870205 13.676083 -6.53125 13.8125 C -6.5453058 13.855835 -6.5630815 13.876459 -6.5625 13.875 C -6.6151352 14.0091 -6.658961 14.119168 -6.6875 14.15625 C -6.6485421 14.106883 -6.6501638 14.110362 -6.71875 14.1875 C -6.8612916 14.351688 -7.0493107 14.452781 -7.28125 14.5 C -7.3451366 14.51301 -7.4303833 14.53125 -7.5 14.53125 L -8 14.53125 L -16 14.53125 L -16.5 14.53125 C -16.696331 14.53125 -16.875271 14.46958 -17.03125 14.375 C -17.061135 14.356791 -17.076838 14.380975 -17.09375 14.375 C -17.158677 14.331208 -17.219531 14.25691 -17.28125 14.1875 C -17.356502 14.100801 -17.358256 14.096782 -17.3125 14.15625 C -17.341412 14.119614 -17.379396 14.020751 -17.4375 13.875 C -17.440256 13.867979 -17.456426 13.851522 -17.46875 13.8125 C -17.512977 13.676121 -17.53125 13.573495 -17.53125 13.5 L -17.53125 13 L -17.53125 10.46875 L -16.46875 10.46875 L -16.46875 12.5 C -16.46875 13.029856 -16.029856 13.46875 -15.5 13.46875 L -8.5 13.46875 C -7.9701444 13.46875 -7.53125 13.029856 -7.53125 12.5 L -7.53125 3.5 C -7.53125 2.9701444 -7.9701444 2.53125 -8.5 2.53125 L -15.5 2.53125 C -16.029856 2.53125 -16.46875 2.9701444 -16.46875 3.5 L -16.46875 5.53125 L -17.53125 5.53125 L -17.53125 3 L -17.53125 2.5 C -17.53125 2.4265166 -17.512978 2.3238973 -17.46875 2.1875 C -17.456428 2.1484828 -17.440261 2.1320365 -17.4375 2.125 C -17.379408 1.9792659 -17.341415 1.88039 -17.3125 1.84375 C -17.358236 1.9031885 -17.356471 1.8991479 -17.28125 1.8125 C -17.218229 1.741622 -17.126758 1.6829132 -17.03125 1.625 C -17.001108 1.6066248 -16.96094 1.5859471 -16.90625 1.5625 C -16.778286 1.5085576 -16.633216 1.46875 -16.5 1.46875 z M 3.5 1.46875 L 4 1.46875 L 12 1.46875 L 12.5 1.46875 C 12.633216 1.46875 12.778286 1.5085576 12.90625 1.5625 C 12.960939 1.5859464 13.001102 1.6066219 13.03125 1.625 C 13.126755 1.682911 13.218217 1.7416113 13.28125 1.8125 C 13.356471 1.8991479 13.358236 1.9031885 13.3125 1.84375 C 13.34141 1.8803832 13.379396 1.9792481 13.4375 2.125 C 13.440261 2.1320365 13.456428 2.1484828 13.46875 2.1875 C 13.512976 2.3238783 13.53125 2.426507 13.53125 2.5 L 13.53125 3 L 13.53125 3.84375 L 12.34375 2.65625 A 0.47117483 0.47117483 0 0 0 12 2.53125 L 4.5 2.53125 C 3.9701444 2.53125 3.53125 2.9701444 3.53125 3.5 L 3.53125 12.5 C 3.53125 13.029856 3.9701444 13.46875 4.5 13.46875 L 12 13.46875 A 0.47117483 0.47117483 0 0 0 12.34375 13.34375 L 13.53125 12.15625 L 13.53125 13 L 13.53125 13.5 C 13.53125 13.573495 13.512977 13.676121 13.46875 13.8125 C 13.456426 13.851522 13.440256 13.867979 13.4375 13.875 C 13.379396 14.020751 13.341412 14.119614 13.3125 14.15625 C 13.358256 14.096782 13.356502 14.100801 13.28125 14.1875 C 13.229813 14.245347 13.178081 14.299609 13.125 14.34375 C 13.113058 14.342098 13.081058 14.344652 13.03125 14.375 C 12.875271 14.46958 12.696331 14.53125 12.5 14.53125 L 12 14.53125 L 4 14.53125 L 3.5 14.53125 C 3.4303833 14.53125 3.3451313 14.513009 3.28125 14.5 C 3.0493107 14.452781 2.8612916 14.351688 2.71875 14.1875 C 2.6501638 14.110362 2.6485421 14.106883 2.6875 14.15625 C 2.6589632 14.119171 2.6151403 14.009108 2.5625 13.875 C 2.5630815 13.876459 2.5453058 13.855835 2.53125 13.8125 C 2.4870205 13.676083 2.46875 13.573475 2.46875 13.5 L 2.46875 13 L 2.46875 3 L 2.46875 2.5 C 2.46875 2.4265263 2.4870207 2.3239162 2.53125 2.1875 C 2.5453058 2.1441647 2.5630815 2.1235411 2.5625 2.125 C 2.61514 1.9908928 2.6589609 1.8808327 2.6875 1.84375 C 2.6485473 1.893108 2.6501685 1.8896322 2.71875 1.8125 C 2.8612899 1.6483139 3.0493034 1.5472232 3.28125 1.5 C 3.3451366 1.4869904 3.4303833 1.46875 3.5 1.46875 z M -15 4 L -15 7 L -19 7 L -19 9 L -15 9 L -15 12 L -11 8 L -15 4 z M 11 4 L 11 7 L 7 7 L 7 9 L 11 9 L 11 12 L 15 8 L 11 4 z M -14.53125 5.15625 L -11.6875 8 L -14.53125 10.84375 L -14.53125 9 A 0.47117483 0.47117483 0 0 0 -15 8.53125 L -18.53125 8.53125 L -18.53125 7.46875 L -15 7.46875 A 0.47117483 0.47117483 0 0 0 -14.53125 7 L -14.53125 5.15625 z M 11.46875 5.15625 L 14.3125 8 L 11.46875 10.84375 L 11.46875 9 A 0.47117483 0.47117483 0 0 0 11 8.53125 L 7.46875 8.53125 L 7.46875 7.46875 L 11 7.46875 A 0.47117483 0.47117483 0 0 0 11.46875 7 L 11.46875 5.15625 z "
       id="path4045" />
    <path
       style="opacity:0.3;fill:#000000;fill-opacity:1;stroke:none;display:inline"
       d="m -16.5,1.0000003 c -0.20775,0 -0.414172,0.0493 -0.59375,0.125 -0.06461,0.0277 -0.128151,0.05757 -0.1875,0.09375 -0.128305,0.0778 -0.244614,0.169755 -0.34375,0.28125 -0.01913,0.022036 -0.04468,0.039341 -0.0625,0.0625 -0.0885,0.112144 -0.133705,0.240045 -0.1875,0.375 -0.01237,0.031522 -0.02097,0.0612 -0.03125,0.09375 C -17.953755,2.1777543 -18,2.3372633 -18,2.5000003 l 0,0.5 0,0.5 c 0,-0.162737 0.04624,-0.322246 0.09375,-0.46875 0.01028,-0.03255 0.01888,-0.062228 0.03125,-0.09375 0.0538,-0.134955 0.099,-0.262856 0.1875,-0.375 0.01782,-0.023159 0.04337,-0.040464 0.0625,-0.0625 0.09914,-0.111495 0.215445,-0.20345 0.34375,-0.28125 0.05935,-0.03618 0.12289,-0.06605 0.1875,-0.09375 0.179578,-0.0757 0.386,-0.125 0.59375,-0.125 l 0.5,0 8,0 0.5,0 c 0.103875,0 0.214678,0.01133 0.3125,0.03125 0.326943,0.066564 0.603453,0.227957 0.8125,0.46875 0.01949,0.02192 0.04431,0.039451 0.0625,0.0625 0.08472,0.110082 0.13577,0.243211 0.1875,0.375 0.01205,0.03023 0.02114,0.06258 0.03125,0.09375 C -6.04625,3.1777543 -6,3.3372633 -6,3.5000003 l 0,-0.5 0,-0.5 c 0,-0.162737 -0.04625,-0.322246 -0.09375,-0.46875 -0.01011,-0.03117 -0.0192,-0.06352 -0.03125,-0.09375 -0.05173,-0.131789 -0.102776,-0.264918 -0.1875,-0.375 -0.01819,-0.023049 -0.04301,-0.04058 -0.0625,-0.0625 -0.209047,-0.240793 -0.485557,-0.402186 -0.8125,-0.46875 -0.09782,-0.01992 -0.208625,-0.03125 -0.3125,-0.03125 l -0.5,0 -8,0 -0.5,0 z m 20,0 c -0.103875,0 -0.214678,0.01133 -0.3125,0.03125 -0.326943,0.066564 -0.603453,0.227957 -0.8125,0.46875 -0.01949,0.02192 -0.04431,0.039451 -0.0625,0.0625 -0.08472,0.110082 -0.13577,0.243211 -0.1875,0.375 -0.01205,0.03023 -0.02114,0.06258 -0.03125,0.09375 C 2.04625,2.1777543 2,2.3372633 2,2.5000003 l 0,0.5 0,0.5 c 0,-0.162737 0.04625,-0.322246 0.09375,-0.46875 0.01011,-0.03117 0.0192,-0.06352 0.03125,-0.09375 0.05173,-0.131789 0.102776,-0.264918 0.1875,-0.375 0.01819,-0.023049 0.04301,-0.04058 0.0625,-0.0625 0.209047,-0.240793 0.485557,-0.402186 0.8125,-0.46875 0.09782,-0.01992 0.208625,-0.03125 0.3125,-0.03125 l 0.5,0 8,0 0.5,0 c 0.20775,0 0.414172,0.0493 0.59375,0.125 0.06461,0.0277 0.128151,0.05757 0.1875,0.09375 0.128305,0.0778 0.244614,0.169755 0.34375,0.28125 0.01913,0.022036 0.04468,0.039341 0.0625,0.0625 0.0885,0.112144 0.133705,0.240045 0.1875,0.375 0.01237,0.031522 0.02097,0.0612 0.03125,0.09375 C 13.95376,3.1777543 14,3.3372633 14,3.5000003 l 0,-0.5 0,-0.5 c 0,-0.162737 -0.04624,-0.322246 -0.09375,-0.46875 -0.01028,-0.03255 -0.01888,-0.062228 -0.03125,-0.09375 -0.0538,-0.134955 -0.099,-0.262856 -0.1875,-0.375 -0.01782,-0.023159 -0.04337,-0.040464 -0.0625,-0.0625 -0.09914,-0.111495 -0.215445,-0.20345 -0.34375,-0.28125 -0.05935,-0.03618 -0.12289,-0.06605 -0.1875,-0.09375 -0.179578,-0.0757 -0.386,-0.125 -0.59375,-0.125 l -0.5,0 -8,0 -0.5,0 z m -18.5,3 0,1 3.5,3.5 0.5,-0.5 -4,-4 z m 26,0 0,1 3.5,3.5 0.5,-0.5 -4,-4 z m -30,3 0,1 4,0 0,-1 -1,0 -2,0 -1,0 z m 26,0 0,1 4,0 0,-1 -4,0 z M -18,10 l 0,1 2,0 0,-1 -2,0 z m 32,1 -2,2 -1,0 -6.5,0 C 4.223,13 4,12.777 4,12.5 l 0,1 C 4,13.777 4.223,14 4.5,14 l 7.5,0 2,-2 0,-1 z m -30,1.5 0,1 c 0,0.277 0.223,0.5 0.5,0.5 l 7,0 c 0.277,0 0.5,-0.223 0.5,-0.5 l 0,-1 c 0,0.277 -0.223,0.5 -0.5,0.5 l -6.5,0 -0.5,0 c -0.277,0 -0.5,-0.223 -0.5,-0.5 z"
       id="path3115"
       inkscape:connector-curvature="0" />
    <path
       style="opacity:0.2;fill:#ffffff;fill-opacity:1;stroke:none;display:inline"
       d="m -15.5,3.0000003 c -0.277,0 -0.5,0.223 -0.5,0.5 l 0,1 c 0,-0.277 0.223,-0.5 0.5,-0.5 l 0.5,0 6.5,0 c 0.277,0 0.5,0.223 0.5,0.5 l 0,-1 c 0,-0.277 -0.223,-0.5 -0.5,-0.5 l -7,0 z m 20,0 c -0.277,0 -0.5,0.223 -0.5,0.5 l 0,1 c 0,-0.277 0.223,-0.5 0.5,-0.5 l 6.5,0 1,0 2,2 0,-1 -2,-2 -7.5,0 z m -22.5,3 0,1 2,0 0,-1 -2,0 z m 6.5,2.5 L -15,12 l 0,1 4,-3.9999997 -0.5,-0.5 z m 26,0 L 11,12 l 0,1 4,-3.9999997 -0.5,-0.5 z m -33.5,0.5 L -19,10 l 1,0 2,0 1,0 0,-0.9999997 -4,0 z m 26,0 L 7,10 l 4,0 0,-0.9999997 -4,0 z M -18,13.5 l 0,0.5 0,0.5 c 0,0.162738 0.04624,0.322246 0.09375,0.46875 0.01028,0.03255 0.01888,0.06223 0.03125,0.09375 0.0538,0.134955 0.099,0.262855 0.1875,0.375 0.01782,0.02316 0.04337,0.04046 0.0625,0.0625 0.08321,0.09358 0.177073,0.179735 0.28125,0.25 0.01934,0.01309 0.04251,0.01907 0.0625,0.03125 C -17.054473,15.91876 -16.785656,16 -16.5,16 l 0.5,0 8,0 0.5,0 c 0.103875,0 0.214678,-0.01133 0.3125,-0.03125 0.326943,-0.06656 0.603453,-0.227957 0.8125,-0.46875 0.01949,-0.02192 0.04431,-0.03945 0.0625,-0.0625 0.08472,-0.110081 0.135772,-0.243211 0.1875,-0.375 0.01205,-0.03023 0.02114,-0.06258 0.03125,-0.09375 C -6.04625,14.822246 -6,14.662738 -6,14.5 l 0,-0.5 0,-0.5 c 0,0.162738 -0.04625,0.322246 -0.09375,0.46875 -0.01011,0.03117 -0.0192,0.06352 -0.03125,0.09375 -0.05173,0.131789 -0.10278,0.264919 -0.1875,0.375 -0.01819,0.02305 -0.04301,0.04058 -0.0625,0.0625 -0.209047,0.240793 -0.485557,0.40219 -0.8125,0.46875 C -7.28532,14.98867 -7.396125,15 -7.5,15 l -0.5,0 -8,0 -0.5,0 c -0.285656,0 -0.554473,-0.08124 -0.78125,-0.21875 -0.01999,-0.01218 -0.04316,-0.01816 -0.0625,-0.03125 -0.104177,-0.07026 -0.19804,-0.15642 -0.28125,-0.25 -0.01913,-0.02204 -0.04468,-0.03934 -0.0625,-0.0625 -0.0885,-0.112145 -0.1337,-0.240045 -0.1875,-0.375 -0.01237,-0.03152 -0.02097,-0.0612 -0.03125,-0.09375 C -17.95376,13.822246 -18,13.662738 -18,13.5 z m 20,0 0,0.5 0,0.5 c 0,0.162738 0.04625,0.322246 0.09375,0.46875 0.01011,0.03117 0.0192,0.06352 0.03125,0.09375 0.05173,0.131789 0.10278,0.264919 0.1875,0.375 0.01819,0.02305 0.04301,0.04058 0.0625,0.0625 0.209047,0.240793 0.485557,0.40219 0.8125,0.46875 C 3.28532,15.98867 3.396125,16 3.5,16 l 0.5,0 8,0 0.5,0 c 0.285656,0 0.554473,-0.08124 0.78125,-0.21875 0.01999,-0.01218 0.04316,-0.01816 0.0625,-0.03125 0.104177,-0.07026 0.19804,-0.15642 0.28125,-0.25 0.01913,-0.02204 0.04468,-0.03934 0.0625,-0.0625 0.0885,-0.112145 0.1337,-0.240045 0.1875,-0.375 0.01237,-0.03152 0.02097,-0.0612 0.03125,-0.09375 C 13.95376,14.822246 14,14.662738 14,14.5 l 0,-0.5 0,-0.5 c 0,0.162738 -0.04624,0.322246 -0.09375,0.46875 -0.01028,0.03255 -0.01888,0.06223 -0.03125,0.09375 -0.0538,0.134955 -0.099,0.262855 -0.1875,0.375 -0.01782,0.02316 -0.04337,0.04046 -0.0625,0.0625 -0.08321,0.09358 -0.177073,0.17974 -0.28125,0.25 -0.01934,0.01309 -0.04251,0.01907 -0.0625,0.03125 C 13.054473,14.91876 12.785656,15 12.5,15 L 12,15 4,15 3.5,15 C 3.396125,15 3.285322,14.98867 3.1875,14.96875 2.860557,14.90219 2.584047,14.740793 2.375,14.5 2.35551,14.47808 2.33069,14.46055 2.3125,14.4375 2.22778,14.327419 2.17673,14.194289 2.125,14.0625 2.11295,14.03227 2.10386,13.99992 2.09375,13.96875 2.04625,13.822246 2,13.662738 2,13.5 z"
       id="path3892"
       inkscape:connector-curvature="0" />
  </g>
</svg>
