<?xml version="1.0" encoding="UTF-8" standalone="no"?>
<!-- Created with Inkscape (http://www.inkscape.org/) -->

<svg
   xmlns:dc="http://purl.org/dc/elements/1.1/"
   xmlns:cc="http://creativecommons.org/ns#"
   xmlns:rdf="http://www.w3.org/1999/02/22-rdf-syntax-ns#"
   xmlns:svg="http://www.w3.org/2000/svg"
   xmlns="http://www.w3.org/2000/svg"
   xmlns:xlink="http://www.w3.org/1999/xlink"
   xmlns:sodipodi="http://sodipodi.sourceforge.net/DTD/sodipodi-0.dtd"
   xmlns:inkscape="http://www.inkscape.org/namespaces/inkscape"
   width="16"
   height="16"
   id="svg2"
   sodipodi:version="0.32"
   inkscape:version="0.48.1 r9760"
   version="1.0"
   sodipodi:docname="document-send.svg"
   inkscape:output_extension="org.inkscape.output.svg.inkscape"
   inkscape:export-filename="/home/matt/.icons/Sirocco/scalable/mimetypes/text-plain.png"
   inkscape:export-xdpi="90"
   inkscape:export-ydpi="90"
   sodipodi:modified="true"
   style="display:inline">
  <sodipodi:namedview
     id="base"
     pagecolor="#838383"
     bordercolor="#cc0000"
     borderopacity="1"
     inkscape:pageopacity="1"
     inkscape:pageshadow="2"
     inkscape:zoom="25.4708"
     inkscape:cx="1.809893"
     inkscape:cy="2.6065124"
     inkscape:document-units="px"
     inkscape:current-layer="layer1"
     width="128px"
     height="128px"
     inkscape:showpageshadow="false"
     inkscape:window-width="1920"
     inkscape:window-height="1030"
     inkscape:window-x="0"
     inkscape:window-y="25"
     showguides="true"
     inkscape:guide-bbox="true"
     showgrid="true"
     inkscape:window-maximized="1"
     borderlayer="true"
     inkscape:snap-global="true">
    <sodipodi:guide
       id="guide2226"
       position="32.637397,117.99844"
       orientation="horizontal" />
    <sodipodi:guide
       id="guide2230"
       position="110,57.402344"
       orientation="vertical" />
    <sodipodi:guide
       id="guide2232"
       position="33.760911"
       orientation="horizontal" />
    <sodipodi:guide
       id="guide2231"
       position="46.774696"
       orientation="horizontal" />
    <inkscape:grid
       enabled="true"
       visible="true"
       id="grid3231"
       type="xygrid"
       empspacing="8"
       snapvisiblegridlinesonly="true" />
    <sodipodi:guide
       orientation="1,0"
       position="100,67.625"
       id="guide2713" />
    <sodipodi:guide
       orientation="1,0"
       position="9,0"
       id="guide3021" />
    <sodipodi:guide
       orientation="0,1"
       position="13,6"
       id="guide3023" />
  </sodipodi:namedview>
  <defs
     id="defs4">
    <linearGradient
       id="StandardGradient"
       gradientTransform="scale(0.9219544,1.0846523)"
       x1="11.998966"
       y1="0.92195445"
       x2="11.998966"
       y2="19.387045"
       gradientUnits="userSpaceOnUse">
      <stop
         style="stop-color:#000000;stop-opacity:0.23529412;"
         offset="0"
         id="stop3283" />
      <stop
         style="stop-color:#000000;stop-opacity:0.54901963;"
         offset="1"
         id="stop2651" />
    </linearGradient>
    <linearGradient
       id="StandardGradient-4"
       gradientTransform="scale(0.9219544,1.0846523)"
       x1="11.998966"
       y1="0.92195445"
       x2="11.998966"
       y2="19.387045"
       gradientUnits="userSpaceOnUse">
      <stop
         style="stop-color:#000000;stop-opacity:0.86274511;"
         offset="0"
         id="stop3283-4" />
      <stop
         style="stop-color:#000000;stop-opacity:0.47058824;"
         offset="1"
         id="stop2651-0" />
    </linearGradient>
    <radialGradient
       inkscape:collect="always"
       xlink:href="#StandardGradient"
       id="radialGradient4252"
       gradientUnits="userSpaceOnUse"
       gradientTransform="matrix(0.64705882,0,0,0.47058823,22.176471,3.94958)"
       cx="-20.363638"
       cy="12.857142"
       fx="-20.363638"
       fy="12.857142"
       r="17" />
    <linearGradient
       id="StandardGradient-0"
       gradientTransform="scale(0.9219544,1.0846523)"
       x1="11.998966"
       y1="0.92195445"
       x2="11.998966"
       y2="19.387045"
       gradientUnits="userSpaceOnUse">
      <stop
         style="stop-color:#000000;stop-opacity:0.86274511;"
         offset="0"
         id="stop3283-5" />
      <stop
         style="stop-color:#000000;stop-opacity:0.47058824;"
         offset="1"
         id="stop2651-02" />
    </linearGradient>
    <radialGradient
       inkscape:collect="always"
       xlink:href="#StandardGradient"
       id="radialGradient4336"
       cx="9"
       cy="10.5"
       fx="9"
       fy="10.5"
       r="7.5"
       gradientTransform="matrix(1.4666667,0,0,0.93333333,-4.2,0.19999996)"
       gradientUnits="userSpaceOnUse" />
    <radialGradient
       inkscape:collect="always"
       xlink:href="#StandardGradient"
       id="radialGradient4342"
       gradientUnits="userSpaceOnUse"
       gradientTransform="matrix(1.4666667,0,0,0.93333333,-4.2,0.19999996)"
       cx="9"
       cy="10.5"
       fx="9"
       fy="10.5"
       r="7.5" />
    <radialGradient
       inkscape:collect="always"
       xlink:href="#StandardGradient"
       id="radialGradient4346"
       gradientUnits="userSpaceOnUse"
       gradientTransform="matrix(1.4666667,0,0,0.93333333,-4.2,0.19999996)"
       cx="9"
       cy="10.5"
       fx="9"
       fy="10.5"
       r="7.5" />
    <radialGradient
       inkscape:collect="always"
       xlink:href="#StandardGradient"
       id="radialGradient4348"
       gradientUnits="userSpaceOnUse"
       gradientTransform="matrix(1.4666667,0,0,0.93333333,-4.2,0.19999996)"
       cx="9"
       cy="10.5"
       fx="9"
       fy="10.5"
       r="7.5" />
  </defs>
  <metadata
     id="metadata7">
    <rdf:RDF>
      <cc:Work
         rdf:about="">
        <dc:format>image/svg+xml</dc:format>
        <dc:type
           rdf:resource="http://purl.org/dc/dcmitype/StillImage" />
        <dc:title></dc:title>
      </cc:Work>
    </rdf:RDF>
  </metadata>
  <g
     style="display:inline"
     inkscape:label="Calque 1"
     id="layer1"
     inkscape:groupmode="layer">
    <path
       inkscape:connector-curvature="0"
       style="opacity:0.05;fill:#ffffff;fill-opacity:1;stroke:none;display:inline"
       d="M 6.5,0.96875 C 5.1185824,0.96875 3.96875,2.1185824 3.96875,3.5 l 0,0.46875 -1.96875,0 A 1.0256564,1.0256564 0 0 0 0.96875,5 l 0,1 A 1.0256564,1.0256564 0 0 0 1.625,6.96875 l -1.625,0 A 1.0256564,1.0256564 0 0 0 -1.03125,8 l 0,1 A 1.0256564,1.0256564 0 0 0 0,10.03125 l 0.6875,0 A 1.0256564,1.0256564 0 0 0 -0.03125,11 l 0,1 A 1.0256564,1.0256564 0 0 0 1,13.03125 l 3,0 A 1.0256564,1.0256564 0 0 0 4.1875,13 c 0.2619205,1.113333 1.1261061,2.03125 2.3125,2.03125 l 3.4999997,0 3.5000003,0 c 1.381418,0 2.53125,-1.149832 2.53125,-2.53125 l 0,-5.5 0,-3.5 c 0,-1.3814176 -1.149832,-2.53125 -2.53125,-2.53125 l -3.5000003,0 -3.4999997,0 z M 6.5,2 9.9999997,2 13.5,2 C 14.331,2 15,2.669 15,3.5 l 0,3.5 0,5.5 C 15,13.331 14.331,14 13.5,14 L 9.9999997,14 6.5,14 C 5.669,14 5,13.331 5,12.5 L 5,9 5,3.5 C 5,2.669 5.669,2 6.5,2 z m 1,2 C 7.223,4 7,4.223 7,4.5 L 7,9 7,11.5 C 7,11.777 7.223,12 7.5,12 L 9.9999997,12 12.5,12 C 12.777,12 13,11.777 13,11.5 L 13,7 13,4.5 C 13,4.223 12.777,4 12.5,4 L 9.9999997,4 7.5,4 z M 2,5 4,5 4,6 2,6 2,5 z m 6.03125,0.03125 1.9687497,0 1.9687503,0 0,1.96875 0,3.96875 -1.9687503,0 -1.9687497,0 0,-1.96875 0,-3.96875 z M 0,8 4,8 4,9 0,9 0,8 z m 1,3 3,0 0,1 -3,0 0,-1 z"
       id="path3988" />
    <path
       inkscape:connector-curvature="0"
       style="fill:url(#radialGradient4336);fill-opacity:1;stroke:none;display:inline"
       d="M 6.5,2 C 5.669,2 5,2.669 5,3.5 L 5,9 5,12.5 C 5,13.331 5.669,14 6.5,14 L 9.9999997,14 13.5,14 C 14.331,14 15,13.331 15,12.5 L 15,7 15,3.5 C 15,2.669 14.331,2 13.5,2 L 9.9999997,2 6.5,2 z M 7.5,4 9.9999997,4 12.5,4 C 12.777,4 13,4.223 13,4.5 l 0,2.5 0,4.5 C 13,11.777 12.777,12 12.5,12 L 9.9999997,12 7.5,12 C 7.223,12 7,11.777 7,11.5 L 7,9 7,4.5 C 7,4.223 7.223,4 7.5,4 z M 2,5 2,6 4,6 4,5 2,5 z M 0,8 0,9 4,9 4,8 0,8 z m 1,3 0,1 3,0 0,-1 -3,0 z"
       id="path2851" />
    <path
       inkscape:connector-curvature="0"
       style="opacity:0.3;fill:#000000;fill-opacity:1;stroke:none;display:inline"
       d="M 6.5,2 C 5.669,2 5,2.669 5,3.5 l 0,1 C 5,3.669 5.669,3 6.5,3 L 9.9999997,3 13.5,3 C 14.331,3 15,3.669 15,4.5 l 0,-1 C 15,2.669 14.331,2 13.5,2 L 9.9999997,2 6.5,2 z M 2,5 2,6 4,6 4,5 2,5 z M 0,8 0,9 4,9 4,8 0,8 z m 1,3 0,1 3,0 0,-1 -3,0 z m 6,0.5 0,1 C 7,12.777 7.223,13 7.5,13 L 9.9999997,13 12.5,13 c 0.277,0 0.5,-0.223 0.5,-0.5 l 0,-1 C 13,11.777 12.777,12 12.5,12 L 9.9999997,12 7.5,12 C 7.223,12 7,11.777 7,11.5 z"
       id="path2869" />
    <path
       style="fill:#000000;fill-opacity:1;stroke:none;display:inline;opacity:0.3"
       d="M 6.5 2 C 5.669 2 5 2.669 5 3.5 L 5 9 L 5 12.5 C 5 13.331 5.669 14 6.5 14 L 10 14 L 13.5 14 C 14.331 14 15 13.331 15 12.5 L 15 7 L 15 3.5 C 15 2.669 14.331 2 13.5 2 L 10 2 L 6.5 2 z M 6.5 2.46875 L 10 2.46875 L 13.5 2.46875 C 14.078144 2.46875 14.53125 2.9218556 14.53125 3.5 L 14.53125 7 L 14.53125 12.5 C 14.53125 13.078144 14.078144 13.53125 13.5 13.53125 L 10 13.53125 L 6.5 13.53125 C 5.9218556 13.53125 5.46875 13.078144 5.46875 12.5 L 5.46875 9 L 5.46875 3.5 C 5.46875 2.9218556 5.9218556 2.46875 6.5 2.46875 z M 7.5 3.53125 C 6.9701444 3.53125 6.53125 3.9701444 6.53125 4.5 L 6.53125 9 L 6.53125 11.5 C 6.53125 12.029856 6.9701444 12.46875 7.5 12.46875 L 10 12.46875 L 12.5 12.46875 C 13.029856 12.46875 13.46875 12.029856 13.46875 11.5 L 13.46875 7 L 13.46875 4.5 C 13.46875 3.9701444 13.029856 3.53125 12.5 3.53125 L 10 3.53125 L 7.5 3.53125 z M 7.5 4 L 10 4 L 12.5 4 C 12.777 4 13 4.223 13 4.5 L 13 7 L 13 11.5 C 13 11.777 12.777 12 12.5 12 L 10 12 L 7.5 12 C 7.223 12 7 11.777 7 11.5 L 7 9 L 7 4.5 C 7 4.223 7.223 4 7.5 4 z M 2 5 L 2 6 L 4 6 L 4 5 L 2 5 z M 2.46875 5.46875 L 3.53125 5.46875 L 3.53125 5.53125 L 2.46875 5.53125 L 2.46875 5.46875 z M 0 8 L 0 9 L 4 9 L 4 8 L 0 8 z M 0.46875 8.46875 L 3.53125 8.46875 L 3.53125 8.53125 L 0.46875 8.53125 L 0.46875 8.46875 z M 1 11 L 1 12 L 4 12 L 4 11 L 1 11 z M 1.46875 11.46875 L 3.53125 11.46875 L 3.53125 11.53125 L 1.46875 11.53125 L 1.46875 11.46875 z "
       id="path4338" />
    <path
       inkscape:connector-curvature="0"
       style="opacity:0.2;fill:#ffffff;fill-opacity:1;stroke:none;display:inline"
       d="M 7.5,4 C 7.223,4 7,4.223 7,4.5 l 0,1 C 7,5.223 7.223,5 7.5,5 L 9.9999997,5 12.5,5 C 12.777,5 13,5.223 13,5.5 l 0,-1 C 13,4.223 12.777,4 12.5,4 L 9.9999997,4 7.5,4 z M 2,6 2,7 4,7 4,6 2,6 z M 0,9 0,10 4,10 4,9 0,9 z m 1,3 0,1 3,0 0,-1 -3,0 z m 4,0.5 0,1 C 5,14.331 5.669,15 6.5,15 L 9.9999997,15 13.5,15 c 0.831,0 1.5,-0.669 1.5,-1.5 l 0,-1 C 15,13.331 14.331,14 13.5,14 L 9.9999997,14 6.5,14 C 5.669,14 5,13.331 5,12.5 z"
       id="path3650" />
  </g>
</svg>
