<?xml version="1.0" encoding="UTF-8" standalone="no"?>
<!-- Created with Inkscape (http://www.inkscape.org/) -->

<svg
   xmlns:dc="http://purl.org/dc/elements/1.1/"
   xmlns:cc="http://creativecommons.org/ns#"
   xmlns:rdf="http://www.w3.org/1999/02/22-rdf-syntax-ns#"
   xmlns:svg="http://www.w3.org/2000/svg"
   xmlns="http://www.w3.org/2000/svg"
   xmlns:xlink="http://www.w3.org/1999/xlink"
   xmlns:sodipodi="http://sodipodi.sourceforge.net/DTD/sodipodi-0.dtd"
   xmlns:inkscape="http://www.inkscape.org/namespaces/inkscape"
   width="16"
   height="16"
   id="svg2"
   sodipodi:version="0.32"
   inkscape:version="0.48.1 r9760"
   version="1.0"
   sodipodi:docname="edit-cut.svg"
   inkscape:output_extension="org.inkscape.output.svg.inkscape"
   inkscape:export-filename="/home/matt/.icons/Sirocco/scalable/mimetypes/text-plain.png"
   inkscape:export-xdpi="90"
   inkscape:export-ydpi="90"
   sodipodi:modified="true"
   style="display:inline">
  <sodipodi:namedview
     id="base"
     pagecolor="#838383"
     bordercolor="#cc0000"
     borderopacity="1"
     inkscape:pageopacity="1"
     inkscape:pageshadow="2"
     inkscape:zoom="18.064397"
     inkscape:cx="-8.831558"
     inkscape:cy="1.5597169"
     inkscape:document-units="px"
     inkscape:current-layer="layer1"
     width="128px"
     height="128px"
     inkscape:showpageshadow="false"
     inkscape:window-width="1920"
     inkscape:window-height="1028"
     inkscape:window-x="0"
     inkscape:window-y="25"
     showguides="true"
     inkscape:guide-bbox="true"
     showgrid="true"
     inkscape:window-maximized="1"
     borderlayer="true">
    <sodipodi:guide
       id="guide2226"
       position="32.637397,117.99844"
       orientation="horizontal" />
    <sodipodi:guide
       id="guide2230"
       position="110,57.402344"
       orientation="vertical" />
    <sodipodi:guide
       id="guide2232"
       position="33.760911"
       orientation="horizontal" />
    <sodipodi:guide
       id="guide2231"
       position="46.774696"
       orientation="horizontal" />
    <inkscape:grid
       enabled="true"
       visible="true"
       id="grid3231"
       type="xygrid"
       empspacing="8"
       snapvisiblegridlinesonly="true" />
    <sodipodi:guide
       orientation="1,0"
       position="100,67.625"
       id="guide2713" />
    <sodipodi:guide
       orientation="1,0"
       position="9,0"
       id="guide3021" />
    <sodipodi:guide
       orientation="0,1"
       position="13,6"
       id="guide3023" />
  </sodipodi:namedview>
  <defs
     id="defs4">
    <linearGradient
       id="StandardGradient"
       gradientTransform="scale(0.9219544,1.0846523)"
       x1="11.998966"
       y1="0.92195445"
       x2="11.998966"
       y2="19.387045"
       gradientUnits="userSpaceOnUse">
      <stop
         style="stop-color:#000000;stop-opacity:0.23529412;"
         offset="0"
         id="stop3283" />
      <stop
         style="stop-color:#000000;stop-opacity:0.54901963;"
         offset="1"
         id="stop2651" />
    </linearGradient>
    <radialGradient
       inkscape:collect="always"
       xlink:href="#StandardGradient"
       id="radialGradient3831"
       cx="9"
       cy="9.7142859"
       fx="9"
       fy="9.7142859"
       r="6"
       gradientTransform="matrix(1.8333333,3.9072722e-8,-2.8416527e-8,1.3333334,-7.4999997,-2.9523819)"
       gradientUnits="userSpaceOnUse" />
    <radialGradient
       inkscape:collect="always"
       xlink:href="#StandardGradient"
       id="radialGradient3838"
       cx="9"
       cy="9.4321146"
       fx="9"
       fy="9.4321146"
       r="5.0146704"
       gradientTransform="matrix(2.1935639,7.8077665e-8,-5.6783756e-8,1.5953192,-10.742074,-5.0472345)"
       gradientUnits="userSpaceOnUse" />
    <radialGradient
       inkscape:collect="always"
       xlink:href="#StandardGradient"
       id="radialGradient3844"
       gradientUnits="userSpaceOnUse"
       gradientTransform="matrix(2.1935639,7.8077665e-8,-5.6783756e-8,1.5953192,-10.742074,-5.0472345)"
       cx="9"
       cy="9.4321146"
       fx="9"
       fy="9.4321146"
       r="5.0146704" />
    <radialGradient
       inkscape:collect="always"
       xlink:href="#StandardGradient"
       id="radialGradient3848"
       gradientUnits="userSpaceOnUse"
       gradientTransform="matrix(2.1935639,7.8077665e-8,-5.6783756e-8,1.5953192,-10.742074,-5.0472345)"
       cx="9"
       cy="9.4321146"
       fx="9"
       fy="9.4321146"
       r="5.0146704" />
    <radialGradient
       inkscape:collect="always"
       xlink:href="#StandardGradient"
       id="radialGradient3850"
       gradientUnits="userSpaceOnUse"
       gradientTransform="matrix(2.1935639,7.8077665e-8,-5.6783756e-8,1.5953192,-10.742074,-5.0472345)"
       cx="9"
       cy="9.4321146"
       fx="9"
       fy="9.4321146"
       r="5.0146704" />
  </defs>
  <metadata
     id="metadata7">
    <rdf:RDF>
      <cc:Work
         rdf:about="">
        <dc:format>image/svg+xml</dc:format>
        <dc:type
           rdf:resource="http://purl.org/dc/dcmitype/StillImage" />
        <dc:title></dc:title>
      </cc:Work>
    </rdf:RDF>
  </metadata>
  <g
     style="display:inline"
     inkscape:label="Calque 1"
     id="layer1"
     inkscape:groupmode="layer">
    <path
       inkscape:connector-curvature="0"
       style="opacity:0.05;fill:#ffffff;fill-opacity:1;stroke:none;display:inline"
       d="M 3.65625,-0.03125022 A 1.041509,1.041509 0 0 0 3.625,-2.2042232e-7 C 3.4543793,0.04103757 3.329628,0.07624845 3.1875,0.18749978 c -0.012408,0.009712 -0.018744,0.02078 -0.03125,0.03125 -0.065222,0.052087 -0.1297249,0.11480828 -0.1875,0.1875 -0.00963,0.0121153 -0.021517,0.0181015 -0.03125,0.03125 -0.023983,0.0289939 -0.3168498,0.38938586 -0.59375,0.93750002 -0.2908874,0.5758015 -0.6564471,1.4996934 -0.15625,2.46875 0.8107243,1.5670285 2.1193049,3.8190399 3.125,5.375 a 1.041509,1.041509 0 0 0 0.5625,0.4375 C 5.804121,9.8270022 5.7490784,9.9419232 5.71875,9.9999999 5.1814303,9.9168719 4.6364329,9.8783705 4.15625,10.0625 3.4530911,10.332132 2.8882816,10.833779 2.5,11.4375 c -0.3941404,0.612833 -0.6369032,1.337779 -0.53125,2.125 0.1036055,0.771969 0.6156459,1.650457 1.53125,2.125 0.9209152,0.477297 1.8781869,0.39939 2.59375,0.125 C 6.7969116,15.542869 7.3617189,15.041221 7.75,14.4375 7.9364868,14.14754 7.9158595,13.816207 8,13.5 c 0.084141,0.316207 0.063514,0.64754 0.25,0.9375 0.3882808,0.603721 0.9530876,1.105368 1.65625,1.375 0.715564,0.27439 1.672835,0.352297 2.59375,-0.125 0.915604,-0.474543 1.427645,-1.353032 1.53125,-2.125 0.105653,-0.787219 -0.137109,-1.512166 -0.53125,-2.125 -0.388282,-0.603721 -0.953092,-1.105368 -1.65625,-1.375 -0.499366,-0.1914851 -1.066263,-0.1600917 -1.625,-0.0625 a 1.041509,1.041509 0 0 0 -0.03125,0 l 0,-0.03125 c -0.04948,-0.0028 -0.01583,2.91e-4 -0.03125,0 0.0039,-0.00558 -0.0039,-0.025633 0,-0.03125 1.040028,-1.4902862 2.66333,-4.174559 3.65625,-6.09375 0.500195,-0.9690542 0.134642,-1.892944 -0.15625,-2.46875 -0.2769,-0.54811479 -0.569767,-0.9085061 -0.59375,-0.93750002 -0.0097,-0.0131168 -0.02164,-0.0191577 -0.03125,-0.03125 -0.05767,-0.0725536 -0.122158,-0.13531972 -0.1875,-0.1875 -0.01251,-0.010472 -0.01884,-0.0215362 -0.03125,-0.03125 C 12.670349,0.07623251 12.545532,0.04102773 12.375,-1.2042232e-7 A 1.041509,1.041509 0 0 0 12.21875,-0.03125012 c -0.01247,-0.0012841 -0.01938,9.1724e-4 -0.03125,0 -0.01247,-0.0012841 -0.01938,9.1724e-4 -0.03125,0 -0.06235,-0.0064206 -0.09894,-0.0027517 -0.15625,0 -0.01146,5.5034e-4 -0.01938,-9.1724e-4 -0.03125,0 -0.01187,9.1724e-4 -0.01878,-0.0012841 -0.03125,0 a 1.041509,1.041509 0 0 0 -0.15625,0.0312499995777 1.041509,1.041509 0 0 0 -0.0625,0 A 1.041509,1.041509 0 0 0 11.28125,0.28124988 c -0.04544,0.0418371 -0.08153,0.0995484 -0.125,0.15625 -0.0048,0.0063 -0.02639,-0.006566 -0.03125,0 a 1.041509,1.041509 0 0 0 -0.03125,0.0625 1.041509,1.041509 0 0 0 0,0.03125 L 8.0000004,5.2812499 4.9062504,0.49999988 a 1.041509,1.041509 0 0 0 -0.03125,-0.0625 c -0.014592,-0.0197135 -0.048088,-0.0137812 -0.0625,-0.03125 a 1.041509,1.041509 0 0 0 -0.1875,-0.21875 1.041509,1.041509 0 0 0 -0.5625,-0.21875 c -0.01249,-0.0012867 -0.019375,9.1905e-4 -0.03125,0 -0.01249,-0.0012867 -0.019375,9.1905e-4 -0.03125,0 -0.062448,-0.0064336 -0.098932,-0.0027568 -0.15625,0 -0.011464,5.5136e-4 -0.019377,-9.1889e-4 -0.03125,0 -0.011873,9.1889e-4 -0.018762,-0.0012864 -0.03125,0 a 1.041509,1.041509 0 0 0 -0.125,0 z M 3.875,0.99999979 c 0.010086,-0.00104 0.021165,-0.00104 0.03125,0 0.010086,-0.00104 0.021165,-0.00104 0.03125,0 0.010086,-0.00104 0.021165,-0.00104 0.03125,0 0.00103,0.010168 0.00103,0.021082 0,0.03125 0.010085,-0.00104 0.021165,-0.00104 0.03125,0 0.011521,0.00867 0.022653,0.019635 0.03125,0.03125 l 3.34375,5.15625 -0.53125,0.84375 c -1.472e-4,0.010194 -1.474e-4,0.021057 0,0.03125 C 6.5271962,7.6191225 6.3419088,8.1437576 6.1875,8.6562498 5.2089251,7.1422487 3.9134499,4.8989747 3.125,3.3749998 2.8692083,2.8794421 3.051272,2.2989837 3.28125,1.8437498 c 0.2299783,-0.4552339 0.5,-0.78125 0.5,-0.78125 0.0086,-0.011614 0.019729,-0.022583 0.03125,-0.03125 0.017625,-0.014756 0.040215,-0.025888 0.0625,-0.03125 z m 8.15625,0 c 0.01009,-0.00104 0.02116,-0.00104 0.03125,0 0.01009,-0.00104 0.02116,-0.00104 0.03125,0 0.01009,-0.00104 0.02116,-0.00104 0.03125,0 0.02229,0.00536 0.04487,0.016494 0.0625,0.03125 0.01152,0.00867 0.02265,0.019636 0.03125,0.03125 0,0 0.270022,0.3260161 0.5,0.78125 0.229978,0.4552339 0.412041,1.0356923 0.15625,1.53125 -1.051266,2.0319666 -3.0218505,5.314021 -3.90625,6.5 -0.0086,0.011615 -0.01973,0.022583 -0.03125,0.03125 -0.017625,0.014756 -0.040215,0.025888 -0.0625,0.03125 -0.8813861,0.2388772 -1.2994861,0.6808762 -1.5,1.1562502 -0.1909659,0.452737 -0.1767122,0.929241 -0.15625,1.28125 -0.00716,-0.01022 -0.00553,9e-4 0,0.03125 5.294e-4,0.0086 -5.419e-4,0.0228 0,0.03125 0.0049,0.01097 -0.00327,0.01586 0,0.03125 0.00109,0.0051 0.030493,-0.0056 0.03125,0 0.00103,0.01017 0.00103,0.02108 0,0.03125 1.3e-5,1.84e-4 4.68e-5,0.0311 0,0.03125 -4.68e-5,1.51e-4 -0.031148,0.06238 -0.03125,0.0625 C 7.241651,13.02322 7.134497,13.471519 6.875,13.875 6.5869334,14.322902 6.2022267,14.658358 5.71875,14.84375 5.2376488,15.028233 4.5955457,15.074859 3.96875,14.75 3.3425241,14.425437 3.063099,13.907653 3,13.4375 2.9358337,12.959398 3.086024,12.449317 3.375,12 3.6630669,11.552098 4.0477735,11.216643 4.53125,11.03125 4.9161697,10.88365 5.3626321,10.86226 5.84375,11 c 0.00187,1.06e-4 0.026869,-5.99e-4 0.03125,0 0.0065,-3.65e-4 0.021093,1.51e-4 0.03125,0 0.00406,2.59e-4 0.025038,-9.17e-4 0.03125,0 0.2198198,0.05495 0.3673838,-0.01729 0.53125,-0.21875 0.163866,-0.201456 0.304927,-0.532009 0.4375,-0.9062502 0.2651462,-0.7484818 0.4755716,-1.6908126 0.8125,-2.25 l 4.25,-6.5625 c 0.0086,-0.011615 0.01973,-0.022583 0.03125,-0.03125 0.01009,-0.00104 0.02116,-0.00104 0.03125,0 -10e-4,-0.010168 -10e-4,-0.021082 0,-0.03125 z M 9.5,10.75 c 0.0079,0.01058 0.023184,0.02133 0.03125,0.03125 0.1638661,0.201456 0.3114302,0.273695 0.53125,0.21875 0.0062,-9.17e-4 0.02719,2.59e-4 0.03125,0 0.01016,1.51e-4 0.02475,-3.65e-4 0.03125,0 0.0044,-5.99e-4 0.02938,1.06e-4 0.03125,0 0.481118,-0.13774 0.92758,-0.11635 1.3125,0.03125 0.483476,0.185393 0.868183,0.520848 1.15625,0.96875 0.288976,0.449317 0.439166,0.959398 0.375,1.4375 -0.0631,0.470153 -0.342524,0.987937 -0.96875,1.3125 -0.626795,0.324859 -1.268899,0.278233 -1.75,0.09375 C 9.7977728,14.658358 9.4130666,14.322902 9.125,13.875 8.8655027,13.471519 8.7583491,13.02322 8.78125,12.59375 8.781147,12.59363 8.750047,12.5314 8.75,12.53125 l -0.15625,0.0625 -0.3125,-0.03125 c 8.357e-4,-0.0056 -1.2e-6,-0.03096 0,-0.03125 l 0.125,0 0.34375,0 c -4.68e-5,-1.5e-4 -1.3e-5,-0.03107 0,-0.03125 -0.00103,-0.01017 -0.00103,-0.02108 0,-0.03125 7.574e-4,-0.0056 0.030161,0.0051 0.03125,0 0.00327,-0.01539 -0.00491,-0.02028 0,-0.03125 5.414e-4,-0.0084 -5.294e-4,-0.02262 0,-0.03125 0.00553,-0.03035 0.00716,-0.04147 0,-0.03125 C 8.801279,12.030437 8.803329,11.569209 8.625,11.125 8.7332712,11.05874 8.9062562,11.005254 9.15625,10.9375 9.2946704,10.9042 9.3894228,10.828712 9.5,10.75 z m -4.25,1.3125 c -0.3069099,-0.01389 -0.6431769,0.169113 -0.84375,0.5 -0.1342865,0.221535 -0.1874996,0.41936 -0.15625,0.625 0.03125,0.20564 0.1406342,0.40549 0.3125,0.5 0.3445917,0.189492 0.8884472,-0.02695 1.15625,-0.46875 C 5.8537421,12.996052 5.9058676,12.790519 5.875,12.59375 5.844132,12.396981 5.7367344,12.220812 5.5625,12.125 5.484096,12.08188 5.3541762,12.06721 5.25,12.0625 z m 5.5,0 c -0.104176,0.0047 -0.234096,0.01938 -0.3125,0.0625 -0.174234,0.09581 -0.281632,0.271981 -0.3125,0.46875 -0.03087,0.196769 0.02126,0.402302 0.15625,0.625 0.267802,0.441798 0.811658,0.658242 1.15625,0.46875 0.171866,-0.09451 0.28125,-0.29436 0.3125,-0.5 0.03125,-0.20564 -0.02196,-0.403465 -0.15625,-0.625 -0.200573,-0.330887 -0.53684,-0.513885 -0.84375,-0.5 z m -5.84375,0.65625 c 0.033068,-3.88e-4 0.088535,0.02526 0.15625,0.0625 0.2078136,0.114278 0.2108261,0.197857 0.21875,0.25 0.00351,0.02312 -0.02473,0.04273 -0.03125,0.0625 -0.01626,0.0039 -0.015801,0.0021 -0.0625,0 0.045585,0.0021 0.1348004,0.08038 -0.125,-0.0625 -0.051597,-0.02837 -0.061782,-0.05618 -0.09375,-0.09375 -0.00599,-0.007 0.00536,-0.02412 0,-0.03125 C 4.925299,12.84838 4.8503197,12.791879 4.84375,12.75 4.862513,12.7456 4.873182,12.71914 4.90625,12.71875 z M 11.0625,12.75 c 0.02663,-5.74e-4 0.03987,-0.0031 0.0625,0 l 0.03125,0 c -0.0066,0.04187 -0.08155,0.09838 -0.125,0.15625 -0.0054,0.0071 0.006,0.02421 0,0.03125 -0.03197,0.03757 -0.04216,0.06538 -0.09375,0.09375 -0.259901,0.142946 -0.170736,0.06457 -0.125,0.0625 -0.04671,0.0021 -0.04624,0.0039 -0.0625,0 -0.0018,-0.0036 -0.01749,0.0227 -0.03125,0 -0.0052,-0.01825 -0.003,-0.04269 0,-0.0625 0.0079,-0.05214 0.01094,-0.135722 0.21875,-0.25 0.05834,-0.03208 0.09837,-0.03068 0.125,-0.03125 z"
       id="path4981" />
    <path
       inkscape:connector-curvature="0"
       style="fill:url(#radialGradient3838);fill-opacity:1;stroke:none;display:inline"
       d="m 3.875,0.99999979 c -0.022285,0.00536 -0.044875,0.016494 -0.0625,0.03125 -0.011521,0.00867 -0.022653,0.019636 -0.03125,0.03125 0,0 -0.2700217,0.3260161 -0.5,0.78125 -0.2299782,0.4552339 -0.4120417,1.0356923 -0.15625,1.53125 0.7884499,1.5239749 2.0839251,3.7672489 3.0625,5.28125 0.1544088,-0.5124922 0.3396962,-1.0371273 0.65625,-1.5625 -1.474e-4,-0.010193 -1.472e-4,-0.021056 0,-0.03125 L 7.375,6.2187498 4.03125,1.0624998 C 4.02265,1.0508848 4.011521,1.0399168 4,1.0312498 c -0.010085,-0.00104 -0.021165,-0.00104 -0.03125,0 0.00103,-0.010168 0.00103,-0.021082 0,-0.03125 -0.010085,-0.00104 -0.021164,-0.00104 -0.03125,0 -0.010085,-0.00104 -0.021164,-0.00104 -0.03125,0 -0.010085,-0.00104 -0.021164,-0.00104 -0.03125,0 z m 8.15625,0 c -10e-4,0.010168 -10e-4,0.021082 0,0.03125 -0.01009,-0.00104 -0.02116,-0.00104 -0.03125,0 -0.01152,0.00867 -0.02265,0.019635 -0.03125,0.03125 l -4.25,6.5625 C 7.3818216,8.1841872 7.1713962,9.126518 6.90625,9.8749998 6.773677,10.249241 6.632616,10.579794 6.46875,10.78125 6.3048838,10.982706 6.1573198,11.054945 5.9375,11 5.93129,10.999083 5.910307,11.000259 5.90625,11 5.896093,11.000151 5.881498,10.999635 5.875,11 5.87062,10.999401 5.845624,11.000106 5.84375,11 5.3626321,10.86226 4.9161697,10.88365 4.53125,11.03125 4.0477735,11.216643 3.6630669,11.552098 3.375,12 3.0860242,12.449317 2.9358336,12.959398 3,13.4375 c 0.063099,0.470153 0.3425241,0.987937 0.96875,1.3125 0.6267957,0.324859 1.2688988,0.278233 1.75,0.09375 C 6.2022267,14.658358 6.5869334,14.322902 6.875,13.875 7.1344973,13.471519 7.2416509,13.02322 7.21875,12.59375 7.2188525,12.59363 7.249953,12.5314 7.25,12.53125 c 4.68e-5,-1.5e-4 1.3e-5,-0.03107 0,-0.03125 0.00103,-0.01017 0.00103,-0.02108 0,-0.03125 -7.574e-4,-0.0056 -0.030161,0.0051 -0.03125,0 -0.00327,-0.01539 0.0049,-0.02028 0,-0.03125 -5.419e-4,-0.0084 5.294e-4,-0.02262 0,-0.03125 -0.00553,-0.03035 -0.00716,-0.04147 0,-0.03125 -0.020462,-0.352009 -0.034716,-0.828513 0.15625,-1.28125 0.2005139,-0.475374 0.6186139,-0.917373 1.5,-1.1562502 0.022285,-0.00536 0.044875,-0.016494 0.0625,-0.03125 0.01152,-0.00867 0.022653,-0.019635 0.03125,-0.03125 0.8843995,-1.185979 2.854984,-4.4680334 3.90625,-6.5 0.255791,-0.4955577 0.07373,-1.0760161 -0.15625,-1.53125 -0.229978,-0.4552339 -0.5,-0.78125 -0.5,-0.78125 -0.0086,-0.011614 -0.01973,-0.022583 -0.03125,-0.03125 -0.01763,-0.014756 -0.04021,-0.025888 -0.0625,-0.03125 -0.01009,-0.00104 -0.02116,-0.00104 -0.03125,0 -0.01009,-0.00104 -0.02116,-0.00104 -0.03125,0 -0.01009,-0.00104 -0.02116,-0.00104 -0.03125,0 z M 9.5,10.75 C 9.3894228,10.82871 9.2946704,10.904198 9.15625,10.9375 8.9062562,11.00525 8.7332712,11.058735 8.625,11.125 c 0.1783292,0.444209 0.1762788,0.905437 0.15625,1.25 0.00716,-0.01022 0.00553,9e-4 0,0.03125 -5.294e-4,0.0086 5.414e-4,0.0228 0,0.03125 -0.00491,0.01097 0.00327,0.01586 0,0.03125 -0.00109,0.0051 -0.030493,-0.0056 -0.03125,0 -0.00103,0.01017 -0.00103,0.02108 0,0.03125 -1.3e-5,1.84e-4 -4.68e-5,0.0311 0,0.03125 4.68e-5,1.51e-4 0.031147,0.06238 0.03125,0.0625 -0.022901,0.42947 0.084253,0.877769 0.34375,1.28125 0.2880666,0.447902 0.6727728,0.783358 1.15625,0.96875 0.481101,0.184483 1.123205,0.231109 1.75,-0.09375 C 12.657476,14.425437 12.936901,13.907653 13,13.4375 13.06417,12.959398 12.91398,12.449317 12.625,12 12.336933,11.552098 11.952226,11.216643 11.46875,11.03125 11.08383,10.88365 10.637368,10.86226 10.15625,11 c -0.0019,1.06e-4 -0.02687,-5.99e-4 -0.03125,0 -0.0065,-3.65e-4 -0.02109,1.51e-4 -0.03125,0 -0.0041,2.59e-4 -0.02504,-9.17e-4 -0.03125,0 C 9.8426802,11.05495 9.6951161,10.98271 9.53125,10.78125 9.52318,10.77135 9.507898,10.76058 9.5,10.75 z m -4.25,1.3125 c 0.1041762,0.0047 0.2340963,0.01938 0.3125,0.0625 0.1742344,0.09581 0.2816322,0.271981 0.3125,0.46875 0.030868,0.196769 -0.021258,0.402302 -0.15625,0.625 C 5.4509472,13.660548 4.9070917,13.876992 4.5625,13.6875 4.3906342,13.59299 4.2812498,13.39314 4.25,13.1875 4.21875,12.98186 4.271964,12.784035 4.40625,12.5625 4.6068231,12.231613 4.9430901,12.048615 5.25,12.0625 z m 5.5,0 c 0.30691,-0.01389 0.643177,0.169113 0.84375,0.5 0.134287,0.221535 0.1875,0.41936 0.15625,0.625 -0.03125,0.20564 -0.140634,0.40549 -0.3125,0.5 -0.344592,0.189492 -0.888448,-0.02695 -1.15625,-0.46875 -0.134992,-0.222698 -0.187118,-0.428231 -0.15625,-0.625 0.03087,-0.196769 0.138266,-0.372938 0.3125,-0.46875 0.0784,-0.04312 0.208324,-0.05779 0.3125,-0.0625 z"
       id="path2397" />
    <path
       inkscape:connector-curvature="0"
       style="opacity:0.3;fill:#000000;fill-opacity:1;stroke:none;display:inline"
       d="m 3.875,0.99999979 c -0.022285,0.00536 -0.044875,0.016494 -0.0625,0.03125 -0.011521,0.00867 -0.022653,0.019636 -0.03125,0.03125 0,0 -0.2700217,0.3260161 -0.5,0.78125 -0.2199167,0.4353174 -0.3961784,0.9881537 -0.1875,1.46875 0.050677,-0.1609803 0.11535,-0.3259315 0.1875,-0.46875 0.2299783,-0.4552339 0.5,-0.7812501 0.5,-0.78125 0.0086,-0.011614 0.019729,-0.022583 0.03125,-0.03125 0.017625,-0.014756 0.040215,-0.025889 0.0625,-0.03125 0.010086,-0.00104 0.021165,-0.00104 0.03125,0 0.010086,-0.00104 0.021165,-0.00104 0.03125,0 0.010086,-0.00104 0.021165,-0.00104 0.03125,0 0.00103,0.010168 0.00103,0.021082 0,0.03125 0.010085,-0.00104 0.021165,-0.00104 0.03125,0 0.011521,0.00867 0.022653,0.019635 0.03125,0.03125 l 3.03125,4.65625 0.3125,-0.5 -3.34375,-5.15625 C 4.02265,1.0508848 4.011521,1.0399168 4,1.0312498 c -0.010085,-0.00104 -0.021165,-0.00104 -0.03125,0 0.00103,-0.010168 0.00103,-0.021082 0,-0.03125 -0.010085,-0.00104 -0.021164,-0.00104 -0.03125,0 -0.010085,-0.00104 -0.021164,-0.00104 -0.03125,0 -0.010085,-0.00104 -0.021164,-0.00104 -0.03125,0 z m 8.15625,0 c -10e-4,0.010168 -10e-4,0.021082 0,0.03125 -0.01009,-0.00104 -0.02116,-0.00104 -0.03125,0 -0.01152,0.00867 -0.02265,0.019635 -0.03125,0.03125 l -4.25,6.5625 C 7.3818216,8.1841872 7.1713962,9.126518 6.90625,9.8749998 6.773677,10.249241 6.632616,10.579794 6.46875,10.78125 6.3048838,10.982706 6.1573198,11.054945 5.9375,11 5.93129,10.999083 5.910307,11.000259 5.90625,11 5.896093,11.000151 5.881498,10.999635 5.875,11 5.87062,10.999401 5.845624,11.000106 5.84375,11 5.3626321,10.86226 4.9161697,10.88365 4.53125,11.03125 4.0477735,11.216643 3.6630669,11.552098 3.375,12 3.0860242,12.449317 2.9358336,12.959398 3,13.4375 c 0.011406,0.08499 0.036185,0.163321 0.0625,0.25 C 3.128861,13.453457 3.2359304,13.216234 3.375,13 3.6630669,12.552098 4.0477735,12.216643 4.53125,12.03125 4.9161697,11.88365 5.3626321,11.86226 5.84375,12 c 0.00187,1.06e-4 0.026869,-5.99e-4 0.03125,0 0.0065,-3.65e-4 0.021093,1.51e-4 0.03125,0 0.00406,2.59e-4 0.025038,-9.17e-4 0.03125,0 0.2198198,0.05495 0.3673838,-0.01729 0.53125,-0.21875 0.163866,-0.201456 0.304927,-0.532009 0.4375,-0.90625 0.2651462,-0.748482 0.4755716,-1.6908129 0.8125,-2.2500002 l 4.25,-6.5625 c 0.0086,-0.011614 0.01973,-0.022583 0.03125,-0.03125 0.01009,-0.00104 0.02116,-0.00104 0.03125,0 -10e-4,-0.010168 -10e-4,-0.021083 0,-0.03125 0.01009,-0.00104 0.02116,-0.00104 0.03125,0 0.01009,-0.00104 0.02116,-0.00104 0.03125,0 0.01009,-0.00104 0.02116,-0.00104 0.03125,0 0.02229,0.00536 0.04487,0.016494 0.0625,0.03125 0.01152,0.00867 0.02265,0.019636 0.03125,0.03125 0,0 0.270022,0.326016 0.5,0.78125 0.07215,0.1428185 0.136823,0.3077697 0.1875,0.46875 0.208678,-0.4805963 0.03242,-1.0334326 -0.1875,-1.46875 -0.229978,-0.4552339 -0.5,-0.78125 -0.5,-0.78125 -0.0086,-0.011614 -0.01973,-0.022583 -0.03125,-0.03125 -0.01763,-0.014756 -0.04021,-0.025888 -0.0625,-0.03125 -0.01009,-0.00104 -0.02116,-0.00104 -0.03125,0 -0.01009,-0.00104 -0.02116,-0.00104 -0.03125,0 -0.01009,-0.00104 -0.02116,-0.00104 -0.03125,0 z M 9.5,10.75 C 9.3894228,10.82871 9.2946704,10.904198 9.15625,10.9375 8.9062562,11.00525 8.7332712,11.058735 8.625,11.125 c 0.1314005,0.327312 0.1557488,0.645189 0.15625,0.9375 0.1038246,-0.04283 0.1996197,-0.07747 0.375,-0.125 C 9.2946704,11.9042 9.3894228,11.828712 9.5,11.75 c 0.0079,0.01058 0.023184,0.02133 0.03125,0.03125 0.1638661,0.201456 0.3114302,0.273695 0.53125,0.21875 0.0062,-9.17e-4 0.02719,2.59e-4 0.03125,0 0.01016,1.51e-4 0.02475,-3.65e-4 0.03125,0 0.0044,-5.99e-4 0.02938,1.06e-4 0.03125,0 0.481118,-0.13774 0.92758,-0.11635 1.3125,0.03125 0.483476,0.185393 0.868183,0.520848 1.15625,0.96875 0.13907,0.216234 0.246139,0.453457 0.3125,0.6875 C 12.96382,13.60082 12.98859,13.522489 13,13.4375 13.06417,12.959398 12.91398,12.449317 12.625,12 12.336933,11.552098 11.952226,11.216643 11.46875,11.03125 11.08383,10.88365 10.637368,10.86226 10.15625,11 c -0.0019,1.06e-4 -0.02687,-5.99e-4 -0.03125,0 -0.0065,-3.65e-4 -0.02109,1.51e-4 -0.03125,0 -0.0041,2.59e-4 -0.02504,-9.17e-4 -0.03125,0 C 9.8426802,11.05495 9.6951161,10.98271 9.53125,10.78125 9.52318,10.77135 9.507898,10.76058 9.5,10.75 z m -3.8125,2.5 C 5.4122349,13.665875 4.8969916,13.871438 4.5625,13.6875 4.507257,13.65712 4.4480621,13.61134 4.40625,13.5625 4.2719635,13.784035 4.2187504,13.98186 4.25,14.1875 c 0.03125,0.20564 0.1406342,0.40549 0.3125,0.5 0.3445917,0.189492 0.8884472,-0.02695 1.15625,-0.46875 C 5.8537421,13.996052 5.9058676,13.790519 5.875,13.59375 5.852952,13.453201 5.784108,13.347752 5.6875,13.25 z m 4.625,0 c -0.09661,0.09775 -0.165452,0.203201 -0.1875,0.34375 -0.03087,0.196769 0.02126,0.402302 0.15625,0.625 0.267803,0.441798 0.811658,0.658242 1.15625,0.46875 0.171866,-0.09451 0.28125,-0.29436 0.3125,-0.5 0.03125,-0.20564 -0.02196,-0.403465 -0.15625,-0.625 -0.04181,0.04884 -0.101008,0.09462 -0.15625,0.125 -0.334492,0.183938 -0.849735,-0.02163 -1.125,-0.4375 z"
       id="BevelShadow"
       sodipodi:nodetypes="cscscscsssssssccccsssssccssccssssssssscssssssssccssssssscscscssssccsccssssssssscssssssssccscssssccsssscsc" />
    <path
       inkscape:connector-curvature="0"
       style="opacity:0.2;fill:#ffffff;fill-opacity:1;stroke:none;display:inline"
       d="m 3.09375,3.3124998 c -0.1108571,0.3521445 -0.1442933,0.7224114 0.03125,1.0625 0.7884499,1.5239748 2.0839251,3.7672489 3.0625,5.28125 0.1544088,-0.5124923 0.3396962,-1.0371273 0.65625,-1.5625 -1.474e-4,-0.010194 -1.472e-4,-0.021056 0,-0.03125 l 0.53125,-0.84375 -0.3125,-0.5 -0.21875,0.34375 c -1.472e-4,0.010194 -1.474e-4,0.021057 0,0.03125 C 6.5271962,7.6191225 6.3419088,8.1437576 6.1875,8.6562498 5.2089251,7.1422487 3.9134499,4.8989747 3.125,3.3749998 3.113809,3.3533188 3.103297,3.3344878 3.09375,3.3124998 z m 9.8125,0 c -0.0095,0.021988 -0.02006,0.040819 -0.03125,0.0625 -1.051266,2.0319666 -3.0218505,5.314021 -3.90625,6.5 -0.0086,0.011615 -0.01973,0.022583 -0.03125,0.03125 -0.017625,0.014756 -0.040215,0.025888 -0.0625,0.03125 -0.8813861,0.2388772 -1.2994861,0.6808762 -1.5,1.1562502 -0.1909659,0.452737 -0.1767122,0.929241 -0.15625,1.28125 -0.00716,-0.01022 -0.00553,9e-4 0,0.03125 5.294e-4,0.0086 -5.419e-4,0.0228 0,0.03125 0.0049,0.01097 -0.00327,0.01586 0,0.03125 0.00109,0.0051 0.030493,-0.0056 0.03125,0 0.025282,-0.126317 0.071962,-0.249259 0.125,-0.375 0.2005139,-0.475374 0.6186139,-0.917373 1.5,-1.15625 0.022285,-0.0054 0.044875,-0.01649 0.0625,-0.03125 0.01152,-0.0087 0.022653,-0.01963 0.03125,-0.03125 0.8843995,-1.1859793 2.854984,-4.4680336 3.90625,-6.5000002 0.175543,-0.3400887 0.142107,-0.7103555 0.03125,-1.0625 z M 5.25,12.0625 c -0.3069099,-0.01389 -0.6431769,0.169113 -0.84375,0.5 -0.1342865,0.221535 -0.1874996,0.41936 -0.15625,0.625 0.020089,0.132197 0.075739,0.242786 0.15625,0.34375 0.2018475,-0.31809 0.5431588,-0.482349 0.84375,-0.46875 0.1041762,0.0047 0.2340963,0.01938 0.3125,0.0625 0.049781,0.02737 0.086357,0.0859 0.125,0.125 C 5.69581,13.23744 5.710901,13.2317 5.71875,13.21875 5.8537421,12.996052 5.9058676,12.790519 5.875,12.59375 5.844132,12.396981 5.7367344,12.220812 5.5625,12.125 5.484096,12.08188 5.3541762,12.06721 5.25,12.0625 z m 3.53125,0 C 8.737079,12.08072 8.6573148,12.10522 8.625,12.125 c 0.089165,0.222104 0.1369751,0.473596 0.15625,0.6875 -0.00408,-0.07597 -0.00401,-0.143593 0,-0.21875 -1.03e-4,-1.2e-4 -0.031203,-0.06235 -0.03125,-0.0625 -4.68e-5,-1.5e-4 -1.3e-5,-0.03107 0,-0.03125 -0.00103,-0.01017 -0.00103,-0.02108 0,-0.03125 7.574e-4,-0.0056 0.030161,0.0051 0.03125,0 0.00327,-0.01539 -0.00491,-0.02028 0,-0.03125 5.414e-4,-0.0084 -5.294e-4,-0.02262 0,-0.03125 0.00553,-0.03035 0.00716,-0.04147 0,-0.03125 0.00527,-0.09067 1.79e-4,-0.208103 0,-0.3125 z M 7.25,12.53125 c -4.68e-5,1.51e-4 -0.031148,0.06238 -0.03125,0.0625 0.00344,0.06442 0.00249,0.122447 0,0.1875 0.00639,-0.0791 0.016849,-0.168502 0.03125,-0.25 z m -0.03125,0.375 C 7.18611,13.23243 7.069623,13.572389 6.875,13.875 6.5869334,14.322902 6.2022267,14.658358 5.71875,14.84375 5.2376488,15.028233 4.5955457,15.074859 3.96875,14.75 3.4689736,14.490974 3.1868255,14.101482 3.0625,13.71875 2.996851,13.962198 2.967917,14.198449 3,14.4375 c 0.063099,0.470153 0.3425241,0.987937 0.96875,1.3125 0.6267957,0.324859 1.2688988,0.278233 1.75,0.09375 C 6.2022267,15.658358 6.5869334,15.322902 6.875,14.875 7.1344973,14.471519 7.2416509,14.02322 7.21875,13.59375 7.2188525,13.59363 7.249953,13.5314 7.25,13.53125 c 4.68e-5,-1.5e-4 1.3e-5,-0.03107 0,-0.03125 0.00103,-0.01017 0.00103,-0.02108 0,-0.03125 -7.574e-4,-0.0056 -0.030161,0.0051 -0.03125,0 -0.00327,-0.01539 0.0049,-0.02028 0,-0.03125 -5.419e-4,-0.0084 5.294e-4,-0.02262 0,-0.03125 -0.00553,-0.03035 -0.00716,-0.04147 0,-0.03125 -0.00808,-0.138951 -0.0061,-0.300121 0,-0.46875 z m 1.5625,0 c 0.00964,0.174406 0.00835,0.325182 0,0.46875 0.00716,-0.01022 0.00553,9e-4 0,0.03125 -5.294e-4,0.0086 5.414e-4,0.0228 0,0.03125 -0.00491,0.01097 0.00327,0.01586 0,0.03125 -0.00109,0.0051 -0.030493,-0.0056 -0.03125,0 -0.00103,0.01017 -0.00103,0.02108 0,0.03125 -1.3e-5,1.84e-4 -4.68e-5,0.0311 0,0.03125 4.68e-5,1.51e-4 0.031147,0.06238 0.03125,0.0625 -0.022901,0.42947 0.084253,0.877769 0.34375,1.28125 0.2880666,0.447902 0.6727728,0.783358 1.15625,0.96875 0.481101,0.184483 1.123205,0.231109 1.75,-0.09375 0.626226,-0.324563 0.905651,-0.842347 0.96875,-1.3125 0.03208,-0.239051 0.0031,-0.475302 -0.0625,-0.71875 -0.124325,0.382732 -0.406473,0.772224 -0.90625,1.03125 -0.626795,0.324859 -1.268899,0.278233 -1.75,0.09375 C 9.7977728,14.658358 9.4130666,14.322902 9.125,13.875 8.930377,13.572389 8.8138896,13.23243 8.78125,12.90625 z"
       id="BevelHighlight"
       sodipodi:nodetypes="cscsccccscsccsssssssssssssssccsscssssssccssssssssssccssccssscssssssssssssccsssssssssssscsssc" />
    <path
       style="fill:#000000;fill-opacity:1;stroke:none;display:inline;opacity:0.3"
       d="M 3.875 1 C 3.852715 1.00536 3.830125 1.016494 3.8125 1.03125 C 3.800979 1.03992 3.789847 1.050886 3.78125 1.0625 C 3.78125 1.0625 3.5112283 1.3885161 3.28125 1.84375 C 3.0512718 2.2989839 2.8692083 2.8794423 3.125 3.375 C 3.9134499 4.8989749 5.2089251 7.1422489 6.1875 8.65625 C 6.3419088 8.1437578 6.5271962 7.6191227 6.84375 7.09375 C 6.8436026 7.083557 6.8436028 7.072694 6.84375 7.0625 L 7.375 6.21875 L 4.03125 1.0625 C 4.02265 1.050885 4.011521 1.039917 4 1.03125 C 3.989915 1.03021 3.978835 1.03021 3.96875 1.03125 C 3.96978 1.021082 3.96978 1.010168 3.96875 1 C 3.958665 0.99896 3.947586 0.99896 3.9375 1 C 3.927415 0.99896 3.916336 0.99896 3.90625 1 C 3.896165 0.99896 3.885086 0.99896 3.875 1 z M 12.03125 1 C 12.03025 1.010168 12.03025 1.021082 12.03125 1.03125 C 12.02116 1.03021 12.01009 1.03021 12 1.03125 C 11.98848 1.03992 11.97735 1.050885 11.96875 1.0625 L 7.71875 7.625 C 7.3818216 8.1841874 7.1713962 9.1265182 6.90625 9.875 C 6.773677 10.249241 6.632616 10.579794 6.46875 10.78125 C 6.3048838 10.982706 6.1573198 11.054945 5.9375 11 C 5.93129 10.999083 5.910307 11.000259 5.90625 11 C 5.896093 11.000151 5.881498 10.999635 5.875 11 C 5.87062 10.999401 5.845624 11.000106 5.84375 11 C 5.3626321 10.86226 4.9161697 10.88365 4.53125 11.03125 C 4.0477735 11.216643 3.6630669 11.552098 3.375 12 C 3.0860242 12.449317 2.9358336 12.959398 3 13.4375 C 3.063099 13.907653 3.3425241 14.425437 3.96875 14.75 C 4.5955457 15.074859 5.2376488 15.028233 5.71875 14.84375 C 6.2022267 14.658358 6.5869334 14.322902 6.875 13.875 C 7.1344973 13.471519 7.2416509 13.02322 7.21875 12.59375 C 7.2188525 12.59363 7.249953 12.5314 7.25 12.53125 C 7.2500468 12.5311 7.250013 12.50018 7.25 12.5 C 7.25103 12.48983 7.25103 12.47892 7.25 12.46875 C 7.2492426 12.46315 7.219839 12.47385 7.21875 12.46875 C 7.21548 12.45336 7.22365 12.44847 7.21875 12.4375 C 7.2182081 12.4291 7.2192794 12.41488 7.21875 12.40625 C 7.21322 12.3759 7.21159 12.36478 7.21875 12.375 C 7.198288 12.022991 7.184034 11.546487 7.375 11.09375 C 7.5755139 10.618376 7.9936139 10.176377 8.875 9.9375 C 8.897285 9.93214 8.919875 9.921006 8.9375 9.90625 C 8.94902 9.89758 8.960153 9.886615 8.96875 9.875 C 9.8531495 8.689021 11.823734 5.4069666 12.875 3.375 C 13.130791 2.8794423 12.94873 2.2989839 12.71875 1.84375 C 12.488772 1.3885161 12.21875 1.0625 12.21875 1.0625 C 12.21015 1.050886 12.19902 1.039917 12.1875 1.03125 C 12.16987 1.016494 12.14729 1.005362 12.125 1 C 12.11491 0.99896 12.10384 0.99896 12.09375 1 C 12.08366 0.99896 12.07259 0.99896 12.0625 1 C 12.05241 0.99896 12.04134 0.99896 12.03125 1 z M 3.90625 1.53125 L 6.9375 6.21875 L 6.53125 6.875 A 0.36567211 0.36567211 0 0 0 6.53125 6.90625 A 0.36567211 0.36567211 0 0 0 6.5 6.9375 A 0.36567211 0.36567211 0 0 0 6.46875 7.0625 C 6.4685487 7.0764389 6.4685482 7.0797967 6.46875 7.09375 C 6.3265863 7.3521483 6.2215911 7.5917485 6.125 7.84375 C 5.213958 6.38605 4.1245232 4.5466798 3.4375 3.21875 C 3.2675187 2.889437 3.3851569 2.4129029 3.59375 2 C 3.7314304 1.7274665 3.8173087 1.6515715 3.90625 1.53125 z M 12.09375 1.53125 C 12.182691 1.6515714 12.26857 1.7274667 12.40625 2 C 12.614844 2.4129012 12.732481 2.8894362 12.5625 3.21875 C 11.529599 5.2152198 9.5743254 8.4697505 8.71875 9.625 C 8.7133556 9.6322838 8.6928052 9.6491357 8.6875 9.65625 C 7.8012421 9.9284848 7.260551 10.393878 7.03125 10.9375 C 6.823876 11.429137 6.8263624 11.925036 6.84375 12.28125 C 6.8436716 12.281593 6.8445033 12.32877 6.84375 12.34375 C 6.8429967 12.35873 6.8434173 12.366352 6.84375 12.375 C 6.8446372 12.398061 6.8425455 12.395908 6.84375 12.40625 C 6.8449545 12.416592 6.8425034 12.43299 6.84375 12.4375 C 6.8409307 12.39154 6.8395083 12.403 6.84375 12.46875 A 0.36567211 0.36567211 0 0 0 6.875 12.5 A 0.36567211 0.36567211 0 0 0 6.875 12.53125 A 0.36567211 0.36567211 0 0 0 6.84375 12.625 C 6.8627012 12.9804 6.7801161 13.349138 6.5625 13.6875 C 6.3096185 14.080694 6.0000957 14.344184 5.59375 14.5 C 5.194968 14.652917 4.6485308 14.708838 4.125 14.4375 C 3.6003743 14.165595 3.4238772 13.739186 3.375 13.375 C 3.3253996 13.005429 3.4354473 12.579407 3.6875 12.1875 C 3.9403817 11.794306 4.2499036 11.530817 4.65625 11.375 C 4.9639448 11.257012 5.3360529 11.22524 5.75 11.34375 A 0.36567211 0.36567211 0 0 0 5.8125 11.375 C 5.811405 11.37485 5.87371 11.374991 5.875 11.375 A 0.36567211 0.36567211 0 0 0 5.90625 11.375 L 5.90625 11.34375 C 6.0567664 11.3707 6.2310867 11.374192 6.375 11.3125 C 6.5380268 11.242615 6.6476643 11.125811 6.75 11 C 6.972596 10.726342 7.1127961 10.387313 7.25 10 C 7.5270682 9.2178634 7.7533036 8.2737971 8.03125 7.8125 L 12.09375 1.53125 z M 9.5 10.75 C 9.3894228 10.82871 9.2946704 10.904198 9.15625 10.9375 C 8.9062562 11.00525 8.7332712 11.058735 8.625 11.125 C 8.8033292 11.569209 8.8012788 12.030437 8.78125 12.375 C 8.78841 12.36478 8.78678 12.3759 8.78125 12.40625 C 8.7807206 12.41485 8.7817914 12.42905 8.78125 12.4375 C 8.77634 12.44847 8.78452 12.45336 8.78125 12.46875 C 8.78016 12.47385 8.750757 12.46315 8.75 12.46875 C 8.74897 12.47892 8.74897 12.48983 8.75 12.5 C 8.749987 12.500184 8.7499532 12.5311 8.75 12.53125 C 8.7500468 12.531401 8.781147 12.59363 8.78125 12.59375 C 8.758349 13.02322 8.865503 13.471519 9.125 13.875 C 9.4130666 14.322902 9.7977728 14.658358 10.28125 14.84375 C 10.762351 15.028233 11.404455 15.074859 12.03125 14.75 C 12.657476 14.425437 12.936901 13.907653 13 13.4375 C 13.06417 12.959398 12.91398 12.449317 12.625 12 C 12.336933 11.552098 11.952226 11.216643 11.46875 11.03125 C 11.08383 10.88365 10.637368 10.86226 10.15625 11 C 10.15435 11.000106 10.12938 10.999401 10.125 11 C 10.1185 10.999635 10.10391 11.000151 10.09375 11 C 10.08965 11.000259 10.06871 10.999083 10.0625 11 C 9.8426802 11.05495 9.6951161 10.98271 9.53125 10.78125 C 9.52318 10.77135 9.507898 10.76058 9.5 10.75 z M 9.46875 11.1875 C 9.5226321 11.228969 9.5581847 11.283858 9.625 11.3125 C 9.7689155 11.374193 9.9432319 11.370703 10.09375 11.34375 L 10.09375 11.375 C 10.095713 11.375553 10.086003 11.380759 10.125 11.375 C 10.126295 11.374991 10.188595 11.37485 10.1875 11.375 A 0.36567211 0.36567211 0 0 0 10.25 11.34375 C 10.663947 11.22524 11.036055 11.257012 11.34375 11.375 C 11.750096 11.530817 12.059618 11.794306 12.3125 12.1875 C 12.564556 12.579406 12.674603 13.00543 12.625 13.375 C 12.576123 13.739186 12.399626 14.165595 11.875 14.4375 C 11.35147 14.708838 10.805032 14.652917 10.40625 14.5 C 9.9999039 14.344184 9.6903816 14.080694 9.4375 13.6875 C 9.219884 13.349138 9.1372987 12.9804 9.15625 12.625 A 0.36567211 0.36567211 0 0 0 9.125 12.5625 C 9.1275942 12.554546 9.1250047 12.531215 9.125 12.53125 C 9.1268287 12.517427 9.1243042 12.51323 9.125 12.5 A 0.36567211 0.36567211 0 0 0 9.15625 12.46875 C 9.1604296 12.403515 9.1590949 12.391285 9.15625 12.4375 C 9.1574966 12.43299 9.1550455 12.416592 9.15625 12.40625 C 9.1574545 12.395908 9.1553628 12.398061 9.15625 12.375 C 9.1567337 12.366205 9.1557891 12.352717 9.15625 12.34375 C 9.1554967 12.32877 9.1563284 12.281593 9.15625 12.28125 C 9.1675372 12.017867 9.1441585 11.69108 9.0625 11.34375 C 9.1320897 11.320575 9.1461308 11.309399 9.25 11.28125 C 9.3528694 11.256501 9.3956627 11.228989 9.46875 11.1875 z M 5.28125 11.6875 C 4.817397 11.666515 4.3572513 11.9403 4.09375 12.375 C 3.9316432 12.642432 3.8292542 12.948971 3.875 13.25 C 3.9200036 13.546147 4.0698294 13.832185 4.375 14 C 4.6699685 14.162204 5.0242262 14.147433 5.3125 14.03125 C 5.6007738 13.915067 5.8541947 13.698341 6.03125 13.40625 C 6.1963081 13.133952 6.2966767 12.828792 6.25 12.53125 C 6.2041869 12.239211 6.0344707 11.968928 5.75 11.8125 C 5.5528534 11.704074 5.4059975 11.693128 5.28125 11.6875 z M 10.71875 11.6875 C 10.594056 11.693138 10.447177 11.704053 10.25 11.8125 C 9.9655334 11.968929 9.7958156 12.239216 9.75 12.53125 C 9.7033233 12.828792 9.8036919 13.133952 9.96875 13.40625 C 10.145805 13.698342 10.399226 13.915067 10.6875 14.03125 C 10.975774 14.147433 11.330032 14.162204 11.625 14 C 11.930171 13.832185 12.079996 13.546147 12.125 13.25 C 12.170746 12.948972 12.068359 12.642433 11.90625 12.375 C 11.64275 11.940301 11.182611 11.666507 10.71875 11.6875 z M 5.25 12.0625 C 5.3541762 12.0672 5.4840963 12.08188 5.5625 12.125 C 5.7367344 12.22081 5.8441322 12.396981 5.875 12.59375 C 5.905868 12.790519 5.853742 12.996052 5.71875 13.21875 C 5.4509472 13.660548 4.9070917 13.876992 4.5625 13.6875 C 4.3906342 13.59299 4.2812498 13.39314 4.25 13.1875 C 4.21875 12.98186 4.271964 12.784035 4.40625 12.5625 C 4.6068231 12.231613 4.9430901 12.048615 5.25 12.0625 z M 10.75 12.0625 C 11.05691 12.04861 11.393177 12.231613 11.59375 12.5625 C 11.728037 12.784035 11.78125 12.98186 11.75 13.1875 C 11.71875 13.39314 11.609366 13.59299 11.4375 13.6875 C 11.092908 13.876992 10.549052 13.66055 10.28125 13.21875 C 10.146258 12.996052 10.094132 12.790519 10.125 12.59375 C 10.15587 12.396981 10.263266 12.220812 10.4375 12.125 C 10.5159 12.08188 10.645824 12.06721 10.75 12.0625 z "
       id="path3840" />
  </g>
</svg>
