<?xml version="1.0" encoding="UTF-8" standalone="no"?>
<!-- Created with Inkscape (http://www.inkscape.org/) -->

<svg
   xmlns:dc="http://purl.org/dc/elements/1.1/"
   xmlns:cc="http://creativecommons.org/ns#"
   xmlns:rdf="http://www.w3.org/1999/02/22-rdf-syntax-ns#"
   xmlns:svg="http://www.w3.org/2000/svg"
   xmlns="http://www.w3.org/2000/svg"
   xmlns:xlink="http://www.w3.org/1999/xlink"
   xmlns:sodipodi="http://sodipodi.sourceforge.net/DTD/sodipodi-0.dtd"
   xmlns:inkscape="http://www.inkscape.org/namespaces/inkscape"
   width="16"
   height="16"
   id="svg2"
   sodipodi:version="0.32"
   inkscape:version="0.48.1 r9760"
   version="1.0"
   sodipodi:docname="edit-copy.svg"
   inkscape:output_extension="org.inkscape.output.svg.inkscape"
   inkscape:export-filename="/home/matt/.icons/Sirocco/scalable/mimetypes/text-plain.png"
   inkscape:export-xdpi="90"
   inkscape:export-ydpi="90"
   sodipodi:modified="true"
   style="display:inline">
  <sodipodi:namedview
     id="base"
     pagecolor="#838383"
     bordercolor="#cc0000"
     borderopacity="1"
     inkscape:pageopacity="1"
     inkscape:pageshadow="2"
     inkscape:zoom="18.064397"
     inkscape:cx="-15.524421"
     inkscape:cy="1.5597169"
     inkscape:document-units="px"
     inkscape:current-layer="layer1"
     width="128px"
     height="128px"
     inkscape:showpageshadow="false"
     inkscape:window-width="1920"
     inkscape:window-height="1028"
     inkscape:window-x="0"
     inkscape:window-y="25"
     showguides="true"
     inkscape:guide-bbox="true"
     showgrid="true"
     inkscape:window-maximized="1"
     borderlayer="true">
    <sodipodi:guide
       id="guide2226"
       position="32.637397,117.99844"
       orientation="horizontal" />
    <sodipodi:guide
       id="guide2230"
       position="110,57.402344"
       orientation="vertical" />
    <sodipodi:guide
       id="guide2232"
       position="33.760911"
       orientation="horizontal" />
    <sodipodi:guide
       id="guide2231"
       position="46.774696"
       orientation="horizontal" />
    <inkscape:grid
       enabled="true"
       visible="true"
       id="grid3231"
       type="xygrid"
       empspacing="8"
       snapvisiblegridlinesonly="true" />
    <sodipodi:guide
       orientation="1,0"
       position="100,67.625"
       id="guide2713" />
    <sodipodi:guide
       orientation="1,0"
       position="9,0"
       id="guide3021" />
    <sodipodi:guide
       orientation="0,1"
       position="13,6"
       id="guide3023" />
  </sodipodi:namedview>
  <defs
     id="defs4">
    <linearGradient
       inkscape:collect="always"
       xlink:href="#StandardGradient"
       id="linearGradient2428"
       gradientUnits="userSpaceOnUse"
       gradientTransform="matrix(0.9247229,0,0,1.0872097,10.939944,-2.0023588)"
       x1="11.998966"
       y1="3.6813121"
       x2="11.998966"
       y2="16.529612" />
    <inkscape:perspective
       sodipodi:type="inkscape:persp3d"
       inkscape:vp_x="0 : 11 : 1"
       inkscape:vp_y="0 : 1000 : 0"
       inkscape:vp_z="22 : 11 : 1"
       inkscape:persp3d-origin="11 : 7.3333333 : 1"
       id="perspective19" />
    <linearGradient
       id="StandardGradient"
       gradientTransform="scale(0.9219544,1.0846523)"
       x1="11.998966"
       y1="0.92195445"
       x2="11.998966"
       y2="19.387045"
       gradientUnits="userSpaceOnUse">
      <stop
         style="stop-color:#000000;stop-opacity:0.23529412;"
         offset="0"
         id="stop3283" />
      <stop
         style="stop-color:#000000;stop-opacity:0.54901963;"
         offset="1"
         id="stop2651" />
    </linearGradient>
    <linearGradient
       inkscape:collect="always"
       xlink:href="#StandardGradient"
       id="linearGradient2549"
       gradientUnits="userSpaceOnUse"
       gradientTransform="matrix(0.9247229,0,0,1.0872097,-2.0600562,0.9976422)"
       x1="11.998966"
       y1="0.92195445"
       x2="11.998966"
       y2="17.478098" />
    <linearGradient
       inkscape:collect="always"
       xlink:href="#StandardGradient"
       id="linearGradient2418"
       gradientUnits="userSpaceOnUse"
       gradientTransform="matrix(0.9247229,0,0,1.0872097,-4.0600562,-3.0023583)"
       x1="11.998966"
       y1="0.92195445"
       x2="11.998966"
       y2="17.478098" />
    <linearGradient
       inkscape:collect="always"
       xlink:href="#StandardGradient"
       id="linearGradient2422"
       gradientUnits="userSpaceOnUse"
       gradientTransform="matrix(0.9247229,0,0,1.0872097,-5.0600562,-1.0023583)"
       x1="11.998966"
       y1="0.92195445"
       x2="11.998966"
       y2="17.478098" />
    <linearGradient
       inkscape:collect="always"
       xlink:href="#StandardGradient"
       id="linearGradient2403"
       gradientUnits="userSpaceOnUse"
       gradientTransform="matrix(0.9247229,0,0,1.0872097,-4.0600562,-3.0023583)"
       x1="11.998966"
       y1="0.92195445"
       x2="11.998966"
       y2="17.478098" />
    <linearGradient
       inkscape:collect="always"
       xlink:href="#StandardGradient"
       id="linearGradient2406"
       gradientUnits="userSpaceOnUse"
       gradientTransform="matrix(0.9247229,0,0,1.0872097,-4.0600562,-3.0023583)"
       x1="11.998966"
       y1="0.92195445"
       x2="11.998966"
       y2="17.478098" />
    <linearGradient
       inkscape:collect="always"
       xlink:href="#StandardGradient"
       id="linearGradient2409"
       gradientUnits="userSpaceOnUse"
       gradientTransform="matrix(0.9247229,0,0,1.0872097,-6.0600562,-2.0023583)"
       x1="11.998966"
       y1="3.6800685"
       x2="11.998966"
       y2="15.638639" />
    <linearGradient
       inkscape:collect="always"
       xlink:href="#StandardGradient"
       id="linearGradient2416"
       gradientUnits="userSpaceOnUse"
       gradientTransform="matrix(0.9247229,0,0,1.0872097,-6.0600562,-2.0023583)"
       x1="11.998966"
       y1="2.7615263"
       x2="11.998966"
       y2="15.638639" />
    <linearGradient
       inkscape:collect="always"
       xlink:href="#StandardGradient"
       id="linearGradient2529"
       gradientUnits="userSpaceOnUse"
       gradientTransform="matrix(0.9247229,0,0,1.0872097,-4.0418814,0.9976412)"
       x1="11.998966"
       y1="3.6813121"
       x2="11.998966"
       y2="16.529612" />
    <linearGradient
       inkscape:collect="always"
       xlink:href="#StandardGradient"
       id="linearGradient2539"
       gradientUnits="userSpaceOnUse"
       gradientTransform="matrix(0.9247229,0,0,1.0872097,-6.0600562,-2.0023583)"
       x1="11.998966"
       y1="2.7615263"
       x2="11.998966"
       y2="15.638639" />
    <linearGradient
       inkscape:collect="always"
       xlink:href="#StandardGradient"
       id="linearGradient2542"
       gradientUnits="userSpaceOnUse"
       gradientTransform="matrix(0.9247229,0,0,1.0872097,-6.0600562,-2.0023583)"
       x1="11.998966"
       y1="2.7615263"
       x2="11.998966"
       y2="15.638639" />
    <linearGradient
       inkscape:collect="always"
       xlink:href="#StandardGradient"
       id="linearGradient2412"
       gradientUnits="userSpaceOnUse"
       gradientTransform="matrix(0.9247229,0,0,1.0872097,-6.0600562,-2.0023583)"
       x1="11.998966"
       y1="2.7615263"
       x2="11.998966"
       y2="15.638639" />
    <inkscape:perspective
       id="perspective2892"
       inkscape:persp3d-origin="0.5 : 0.33333333 : 1"
       inkscape:vp_z="1 : 0.5 : 1"
       inkscape:vp_y="0 : 1000 : 0"
       inkscape:vp_x="0 : 0.5 : 1"
       sodipodi:type="inkscape:persp3d" />
    <linearGradient
       inkscape:collect="always"
       xlink:href="#StandardGradient"
       id="linearGradient2942"
       gradientUnits="userSpaceOnUse"
       gradientTransform="matrix(0.9247229,0,0,1.0872097,-26.060056,-2.0023583)"
       x1="11.998966"
       y1="2.7615263"
       x2="11.998966"
       y2="15.638639" />
    <clipPath
       clipPathUnits="userSpaceOnUse"
       id="clipPath2949">
      <path
         style="fill:#ff00ff;fill-opacity:1;stroke:none;display:inline"
         d="m -20,0 0,16 16,0 0,-16 -16,0 z m 3,1 3,0 c 0.554,0 1,0.446 1,1 l 6,0 c 0.554,0 1,0.446 1,1 l -12,0 0,-1 c 0,-0.554 0.446,-1 1,-1 z m -0.5,3 4,0 6,0 1,0 C -5.669,4 -5,4.669 -5,5.5 l 0,4.5 0,1.5 c 0,0.647488 -0.396277,1.195291 -0.96875,1.40625 l 0,0.15625 -0.03125,0 0,0.4375 c 0,0.831 -0.669,1.5 -1.5,1.5 l -6,0 c -0.831,0 -1.5,-0.669 -1.5,-1.5 l 0,-0.5 -2.5,0 c -0.831,0 -1.5,-0.669 -1.5,-1.5 l 0,-1.5 0,-4.5 C -19,4.669 -18.331,4 -17.5,4 z m 5,2 C -12.777,6 -13,6.223 -13,6.5 l 0,6 c 0,0.277 0.223,0.5 0.5,0.5 l 4,0 c 0.277,0 0.5,-0.223 0.5,-0.5 l 0,-6 C -8,6.223 -8.223,6 -8.5,6 l -4,0 z"
         id="path2951" />
    </clipPath>
    <linearGradient
       inkscape:collect="always"
       xlink:href="#StandardGradient"
       id="linearGradient5012"
       gradientUnits="userSpaceOnUse"
       gradientTransform="matrix(0.9247229,0,0,1.0872097,-6.0600562,-2.0023583)"
       x1="11.998966"
       y1="2.7615263"
       x2="11.998966"
       y2="15.638639" />
    <linearGradient
       inkscape:collect="always"
       xlink:href="#StandardGradient"
       id="linearGradient5016"
       gradientUnits="userSpaceOnUse"
       gradientTransform="matrix(0.9247229,0,0,1.0872097,-6.0600562,-2.0023583)"
       x1="11.998966"
       y1="2.7615263"
       x2="11.998966"
       y2="15.638639" />
    <linearGradient
       inkscape:collect="always"
       xlink:href="#StandardGradient"
       id="linearGradient3176"
       gradientUnits="userSpaceOnUse"
       gradientTransform="matrix(0.9247229,0,0,1.0872097,-6.0600562,-2.0023583)"
       x1="11.998966"
       y1="2.7615263"
       x2="11.998966"
       y2="15.638639" />
    <linearGradient
       inkscape:collect="always"
       xlink:href="#StandardGradient"
       id="linearGradient3180"
       gradientUnits="userSpaceOnUse"
       gradientTransform="matrix(0.9247229,0,0,1.0872097,-6.0600562,-2.0023583)"
       x1="11.998966"
       y1="2.7615263"
       x2="11.998966"
       y2="15.638639" />
    <linearGradient
       inkscape:collect="always"
       xlink:href="#StandardGradient"
       id="linearGradient3789"
       gradientUnits="userSpaceOnUse"
       gradientTransform="matrix(0.9247229,0,0,1.0872097,-6.0600562,-2.0023583)"
       x1="11.998966"
       y1="2.7615263"
       x2="11.998966"
       y2="15.638639" />
    <linearGradient
       inkscape:collect="always"
       xlink:href="#StandardGradient"
       id="linearGradient3793"
       gradientUnits="userSpaceOnUse"
       gradientTransform="matrix(0.9247229,0,0,1.0872097,-6.0600562,-2.0023583)"
       x1="11.998966"
       y1="2.7615263"
       x2="11.998966"
       y2="15.638639" />
    <linearGradient
       inkscape:collect="always"
       xlink:href="#StandardGradient"
       id="linearGradient3795"
       gradientUnits="userSpaceOnUse"
       gradientTransform="matrix(0.9247229,0,0,1.0872097,-6.0600562,-2.0023583)"
       x1="11.998966"
       y1="2.7615263"
       x2="11.998966"
       y2="15.638639" />
    <linearGradient
       id="StandardGradient-4"
       gradientTransform="scale(0.9219544,1.0846523)"
       x1="11.998966"
       y1="0.92195445"
       x2="11.998966"
       y2="19.387045"
       gradientUnits="userSpaceOnUse">
      <stop
         style="stop-color:#000000;stop-opacity:0.86274511;"
         offset="0"
         id="stop3283-8" />
      <stop
         style="stop-color:#000000;stop-opacity:0.47058824;"
         offset="1"
         id="stop2651-7" />
    </linearGradient>
    <radialGradient
       inkscape:collect="always"
       xlink:href="#StandardGradient"
       id="radialGradient3831"
       cx="9"
       cy="9.7142859"
       fx="9"
       fy="9.7142859"
       r="6"
       gradientTransform="matrix(1.8333333,3.9072722e-8,-2.8416527e-8,1.3333334,-7.4999997,-2.9523819)"
       gradientUnits="userSpaceOnUse" />
    <radialGradient
       inkscape:collect="always"
       xlink:href="#StandardGradient"
       id="radialGradient3837"
       gradientUnits="userSpaceOnUse"
       gradientTransform="matrix(1.8333333,3.9072722e-8,-2.8416527e-8,1.3333334,-7.4999997,-2.9523819)"
       cx="9"
       cy="9.7142859"
       fx="9"
       fy="9.7142859"
       r="6" />
    <radialGradient
       inkscape:collect="always"
       xlink:href="#StandardGradient"
       id="radialGradient3841"
       gradientUnits="userSpaceOnUse"
       gradientTransform="matrix(1.8333333,3.9072722e-8,-2.8416527e-8,1.3333334,-7.4999997,-2.9523819)"
       cx="9"
       cy="9.7142859"
       fx="9"
       fy="9.7142859"
       r="6" />
    <radialGradient
       inkscape:collect="always"
       xlink:href="#StandardGradient"
       id="radialGradient3843"
       gradientUnits="userSpaceOnUse"
       gradientTransform="matrix(1.8333333,3.9072722e-8,-2.8416527e-8,1.3333334,-7.4999997,-2.9523819)"
       cx="9"
       cy="9.7142859"
       fx="9"
       fy="9.7142859"
       r="6" />
  </defs>
  <metadata
     id="metadata7">
    <rdf:RDF>
      <cc:Work
         rdf:about="">
        <dc:format>image/svg+xml</dc:format>
        <dc:type
           rdf:resource="http://purl.org/dc/dcmitype/StillImage" />
        <dc:title></dc:title>
      </cc:Work>
    </rdf:RDF>
  </metadata>
  <g
     style="display:inline"
     inkscape:label="Calque 1"
     id="layer1"
     inkscape:groupmode="layer">
    <path
       inkscape:connector-curvature="0"
       style="opacity:0.05;fill:#ffffff;fill-opacity:1;stroke:none;display:inline"
       d="m 6.5,-0.03125 c -1.3914857,0 -2.53125,1.1397643 -2.53125,2.53125 l 0,0.46875 -0.46875,0 C 2.1085143,2.96875 0.96875,4.1085143 0.96875,5.5 l 0,8 c 0,1.391486 1.1397643,2.53125 2.53125,2.53125 l 6,0 c 1.391486,0 2.53125,-1.139764 2.53125,-2.53125 l 0,-0.46875 0.46875,0 c 1.391486,0 2.53125,-1.139764 2.53125,-2.53125 l 0,-8 c 0,-1.3914857 -1.139764,-2.53125 -2.53125,-2.53125 l -6,0 z M 6.5,1 l 6,0 C 13.331,1 14,1.669 14,2.5 l 0,8 c 0,0.831 -0.669,1.5 -1.5,1.5 l -6,0 C 5.669,12 5,11.331 5,10.5 l 0,-8 C 5,1.669 5.669,1 6.5,1 z m 1,2 C 7.223,3 7,3.223 7,3.5 l 0,6 C 7,9.777 7.223,10 7.5,10 l 4,0 C 11.777,10 12,9.777 12,9.5 l 0,-6 C 12,3.223 11.777,3 11.5,3 l -4,0 z m -4,1 0.5,0 0,2.5 0,6 C 4,12.777 4.223,13 4.5,13 l 4,0 2.5,0 0,0.5 C 11,14.331 10.331,15 9.5,15 l -6,0 C 2.669,15 2,14.331 2,13.5 l 0,-8 C 2,4.669 2.669,4 3.5,4 z m 4.53125,0.03125 2.9375,0 0,4.9375 -2.9375,0 0,-4.9375 z"
       id="path5500" />
    <path
       inkscape:connector-curvature="0"
       style="fill:url(#radialGradient3831);fill-opacity:1;stroke:none;display:inline"
       d="M 6.5,1 C 5.669,1 5,1.669 5,2.5 l 0,8 C 5,11.331 5.669,12 6.5,12 l 6,0 c 0.831,0 1.5,-0.669 1.5,-1.5 l 0,-8 C 14,1.669 13.331,1 12.5,1 l -6,0 z m 1,2 4,0 C 11.777,3 12,3.223 12,3.5 l 0,6 C 12,9.777 11.777,10 11.5,10 l -4,0 C 7.223,10 7,9.777 7,9.5 l 0,-6 C 7,3.223 7.223,3 7.5,3 z m -4,1 C 2.669,4 2,4.669 2,5.5 l 0,8 C 2,14.331 2.669,15 3.5,15 l 6,0 c 0.831,0 1.5,-0.669 1.5,-1.5 l 0,-0.5 -2.5,0 -4,0 C 4.223,13 4,12.777 4,12.5 L 4,6.5 4,4 3.5,4 z"
       id="Symbol"
       sodipodi:nodetypes="ccccccccccccccccccccccccccccccc" />
    <path
       inkscape:connector-curvature="0"
       style="opacity:0.3;fill:#000000;fill-opacity:1;stroke:none;display:inline"
       d="M 6.5,1 C 5.669,1 5,1.669 5,2.5 l 0,1 C 5,2.669 5.669,2 6.5,2 l 6,0 C 13.331,2 14,2.669 14,3.5 l 0,-1 C 14,1.669 13.331,1 12.5,1 l -6,0 z m -3,3 C 2.669,4 2,4.669 2,5.5 l 0,1 C 2,5.669 2.669,5 3.5,5 L 4,5 4,4 3.5,4 z m 3.5,5.5 0,1 C 7,10.777 7.223,11 7.5,11 l 4,0 c 0.277,0 0.5,-0.223 0.5,-0.5 l 0,-1 C 12,9.777 11.777,10 11.5,10 l -4,0 C 7.223,10 7,9.777 7,9.5 z m -3,3 0,1 C 4,13.777 4.223,14 4.5,14 l 4,0 2.40625,0 C 10.959738,13.845522 11,13.673125 11,13.5 l 0,-0.5 -2.5,0 -2,0 -2,0 C 4.223,13 4,12.777 4,12.5 z"
       id="BevelShadow"
       sodipodi:nodetypes="cccccccccccccccccccccccccccccccccccc" />
    <path
       inkscape:connector-curvature="0"
       style="opacity:0.2;fill:#ffffff;fill-opacity:1;stroke:none;display:inline"
       d="M 7.5,3 C 7.223,3 7,3.223 7,3.5 l 0,1 C 7,4.223 7.223,4 7.5,4 l 4,0 C 11.777,4 12,4.223 12,4.5 l 0,-1 C 12,3.223 11.777,3 11.5,3 l -4,0 z m -2.5,7.5 0,1 C 5,12.331 5.669,13 6.5,13 l 2,0 2.5,0 1.5,0 c 0.831,0 1.5,-0.669 1.5,-1.5 l 0,-1 c 0,0.831 -0.669,1.5 -1.5,1.5 l -6,0 C 5.669,12 5,11.331 5,10.5 z m -3,3 0,1 C 2,15.331 2.669,16 3.5,16 l 6,0 C 10.331,16 11,15.331 11,14.5 L 11,14 10.90625,14 C 10.702994,14.587017 10.157875,15 9.5,15 l -6,0 C 2.669,15 2,14.331 2,13.5 z"
       id="BevelHighlight"
       sodipodi:nodetypes="cccccccccccccccccccccccccccccc" />
    <path
       style="fill:#000000;fill-opacity:1;stroke:none;display:inline;opacity:0.3"
       d="M 6.5 1 C 5.669 1 5 1.669 5 2.5 L 5 10.5 C 5 11.331 5.669 12 6.5 12 L 12.5 12 C 13.331 12 14 11.331 14 10.5 L 14 2.5 C 14 1.669 13.331 1 12.5 1 L 6.5 1 z M 6.5 1.5 L 12.5 1.5 C 13.063605 1.5 13.5 1.9363948 13.5 2.5 L 13.5 10.5 C 13.5 11.063605 13.063605 11.5 12.5 11.5 L 6.5 11.5 C 5.9363948 11.5 5.5 11.063605 5.5 10.5 L 5.5 2.5 C 5.5 1.9363948 5.9363948 1.5 6.5 1.5 z M 7.5 2.5 C 6.9556052 2.5 6.5 2.9556052 6.5 3.5 L 6.5 9.5 C 6.5 10.044395 6.9556052 10.5 7.5 10.5 L 11.5 10.5 C 12.044395 10.5 12.5 10.044395 12.5 9.5 L 12.5 3.5 C 12.5 2.9556052 12.044395 2.5 11.5 2.5 L 7.5 2.5 z M 7.5 3 L 11.5 3 C 11.777 3 12 3.223 12 3.5 L 12 9.5 C 12 9.777 11.777 10 11.5 10 L 7.5 10 C 7.223 10 7 9.777 7 9.5 L 7 3.5 C 7 3.223 7.223 3 7.5 3 z M 3.5 4 C 2.669 4 2 4.669 2 5.5 L 2 13.5 C 2 14.331 2.669 15 3.5 15 L 9.5 15 C 10.331 15 11 14.331 11 13.5 L 11 13 L 8.5 13 L 4.5 13 C 4.223 13 4 12.777 4 12.5 L 4 6.5 L 4 4 L 3.5 4 z M 3.5 4.5 L 3.5 6.5 L 3.5 12.5 C 3.5 13.044395 3.9556052 13.5 4.5 13.5 L 8.5 13.5 L 10.5 13.5 C 10.5 14.063605 10.063605 14.5 9.5 14.5 L 3.5 14.5 C 2.9363948 14.5 2.5 14.063605 2.5 13.5 L 2.5 5.5 C 2.5 4.9363948 2.9363948 4.5 3.5 4.5 z "
       id="path3833" />
  </g>
</svg>
