<?xml version="1.0" encoding="UTF-8" standalone="no"?>
<!-- Created with Inkscape (http://www.inkscape.org/) -->

<svg
   xmlns:dc="http://purl.org/dc/elements/1.1/"
   xmlns:cc="http://creativecommons.org/ns#"
   xmlns:rdf="http://www.w3.org/1999/02/22-rdf-syntax-ns#"
   xmlns:svg="http://www.w3.org/2000/svg"
   xmlns="http://www.w3.org/2000/svg"
   xmlns:xlink="http://www.w3.org/1999/xlink"
   xmlns:sodipodi="http://sodipodi.sourceforge.net/DTD/sodipodi-0.dtd"
   xmlns:inkscape="http://www.inkscape.org/namespaces/inkscape"
   width="16"
   height="16"
   id="svg2"
   sodipodi:version="0.32"
   inkscape:version="0.48.1 r9760"
   version="1.0"
   sodipodi:docname="folder-new.svg"
   inkscape:output_extension="org.inkscape.output.svg.inkscape"
   inkscape:export-filename="/home/matt/.icons/Sirocco/scalable/mimetypes/text-plain.png"
   inkscape:export-xdpi="90"
   inkscape:export-ydpi="90"
   sodipodi:modified="true"
   style="display:inline">
  <sodipodi:namedview
     id="base"
     pagecolor="#838383"
     bordercolor="#cc0000"
     borderopacity="1"
     inkscape:pageopacity="1"
     inkscape:pageshadow="2"
     inkscape:zoom="18.064397"
     inkscape:cx="-24.935197"
     inkscape:cy="1.5873957"
     inkscape:document-units="px"
     inkscape:current-layer="layer1"
     width="128px"
     height="128px"
     inkscape:showpageshadow="false"
     inkscape:window-width="1920"
     inkscape:window-height="1028"
     inkscape:window-x="0"
     inkscape:window-y="25"
     showguides="true"
     inkscape:guide-bbox="true"
     showgrid="true"
     inkscape:window-maximized="1"
     borderlayer="true">
    <sodipodi:guide
       id="guide2226"
       position="32.637397,117.99844"
       orientation="horizontal" />
    <sodipodi:guide
       id="guide2230"
       position="110,57.402344"
       orientation="vertical" />
    <sodipodi:guide
       id="guide2232"
       position="33.760911"
       orientation="horizontal" />
    <sodipodi:guide
       id="guide2231"
       position="46.774696"
       orientation="horizontal" />
    <inkscape:grid
       enabled="true"
       visible="true"
       id="grid3231"
       type="xygrid"
       empspacing="8"
       snapvisiblegridlinesonly="true" />
    <sodipodi:guide
       orientation="1,0"
       position="100,67.625"
       id="guide2713" />
    <sodipodi:guide
       orientation="1,0"
       position="9,0"
       id="guide3021" />
    <sodipodi:guide
       orientation="0,1"
       position="13,6"
       id="guide3023" />
  </sodipodi:namedview>
  <defs
     id="defs4">
    <linearGradient
       inkscape:collect="always"
       xlink:href="#StandardGradient"
       id="linearGradient2428"
       gradientUnits="userSpaceOnUse"
       gradientTransform="matrix(0.9247229,0,0,1.0872097,10.939944,-2.0023588)"
       x1="11.998966"
       y1="3.6813121"
       x2="11.998966"
       y2="16.529612" />
    <inkscape:perspective
       sodipodi:type="inkscape:persp3d"
       inkscape:vp_x="0 : 11 : 1"
       inkscape:vp_y="0 : 1000 : 0"
       inkscape:vp_z="22 : 11 : 1"
       inkscape:persp3d-origin="11 : 7.3333333 : 1"
       id="perspective19" />
    <linearGradient
       id="StandardGradient"
       gradientTransform="scale(0.9219544,1.0846523)"
       x1="11.998966"
       y1="0.92195445"
       x2="11.998966"
       y2="19.387045"
       gradientUnits="userSpaceOnUse">
      <stop
         style="stop-color:#000000;stop-opacity:0.23529412;"
         offset="0"
         id="stop3283" />
      <stop
         style="stop-color:#000000;stop-opacity:0.54901963;"
         offset="1"
         id="stop2651" />
    </linearGradient>
    <linearGradient
       inkscape:collect="always"
       xlink:href="#StandardGradient"
       id="linearGradient2549"
       gradientUnits="userSpaceOnUse"
       gradientTransform="matrix(0.9247229,0,0,1.0872097,-2.0600562,0.9976422)"
       x1="11.998966"
       y1="0.92195445"
       x2="11.998966"
       y2="17.478098" />
    <linearGradient
       inkscape:collect="always"
       xlink:href="#StandardGradient"
       id="linearGradient2418"
       gradientUnits="userSpaceOnUse"
       gradientTransform="matrix(0.9247229,0,0,1.0872097,-4.0600562,-3.0023583)"
       x1="11.998966"
       y1="0.92195445"
       x2="11.998966"
       y2="17.478098" />
    <linearGradient
       inkscape:collect="always"
       xlink:href="#StandardGradient"
       id="linearGradient2422"
       gradientUnits="userSpaceOnUse"
       gradientTransform="matrix(0.9247229,0,0,1.0872097,-5.0600562,-1.0023583)"
       x1="11.998966"
       y1="0.92195445"
       x2="11.998966"
       y2="17.478098" />
    <linearGradient
       inkscape:collect="always"
       xlink:href="#StandardGradient"
       id="linearGradient2403"
       gradientUnits="userSpaceOnUse"
       gradientTransform="matrix(0.9247229,0,0,1.0872097,-4.0600562,-3.0023583)"
       x1="11.998966"
       y1="0.92195445"
       x2="11.998966"
       y2="17.478098" />
    <linearGradient
       inkscape:collect="always"
       xlink:href="#StandardGradient"
       id="linearGradient2406"
       gradientUnits="userSpaceOnUse"
       gradientTransform="matrix(0.9247229,0,0,1.0872097,-4.0600562,-3.0023583)"
       x1="11.998966"
       y1="0.92195445"
       x2="11.998966"
       y2="17.478098" />
    <linearGradient
       inkscape:collect="always"
       xlink:href="#StandardGradient"
       id="linearGradient2409"
       gradientUnits="userSpaceOnUse"
       gradientTransform="matrix(0.9247229,0,0,1.0872097,-6.0600562,-2.0023583)"
       x1="11.998966"
       y1="3.6800685"
       x2="11.998966"
       y2="15.638639" />
    <linearGradient
       inkscape:collect="always"
       xlink:href="#StandardGradient"
       id="linearGradient2416"
       gradientUnits="userSpaceOnUse"
       gradientTransform="matrix(0.9247229,0,0,1.0872097,-6.0600562,-2.0023583)"
       x1="11.998966"
       y1="2.7615263"
       x2="11.998966"
       y2="15.638639" />
    <linearGradient
       inkscape:collect="always"
       xlink:href="#StandardGradient"
       id="linearGradient2529"
       gradientUnits="userSpaceOnUse"
       gradientTransform="matrix(0.9247229,0,0,1.0872097,-4.0418814,0.9976412)"
       x1="11.998966"
       y1="3.6813121"
       x2="11.998966"
       y2="16.529612" />
    <linearGradient
       inkscape:collect="always"
       xlink:href="#StandardGradient"
       id="linearGradient2539"
       gradientUnits="userSpaceOnUse"
       gradientTransform="matrix(0.9247229,0,0,1.0872097,-6.0600562,-2.0023583)"
       x1="11.998966"
       y1="2.7615263"
       x2="11.998966"
       y2="15.638639" />
    <linearGradient
       inkscape:collect="always"
       xlink:href="#StandardGradient"
       id="linearGradient2542"
       gradientUnits="userSpaceOnUse"
       gradientTransform="matrix(0.9247229,0,0,1.0872097,-6.0600562,-2.0023583)"
       x1="11.998966"
       y1="2.7615263"
       x2="11.998966"
       y2="15.638639" />
    <linearGradient
       inkscape:collect="always"
       xlink:href="#StandardGradient"
       id="linearGradient2412"
       gradientUnits="userSpaceOnUse"
       gradientTransform="matrix(0.9247229,0,0,1.0872097,-6.0600562,-2.0023583)"
       x1="11.998966"
       y1="2.7615263"
       x2="11.998966"
       y2="15.638639" />
    <inkscape:perspective
       id="perspective2892"
       inkscape:persp3d-origin="0.5 : 0.33333333 : 1"
       inkscape:vp_z="1 : 0.5 : 1"
       inkscape:vp_y="0 : 1000 : 0"
       inkscape:vp_x="0 : 0.5 : 1"
       sodipodi:type="inkscape:persp3d" />
    <linearGradient
       inkscape:collect="always"
       xlink:href="#StandardGradient"
       id="linearGradient2942"
       gradientUnits="userSpaceOnUse"
       gradientTransform="matrix(0.9247229,0,0,1.0872097,-26.060056,-2.0023583)"
       x1="11.998966"
       y1="2.7615263"
       x2="11.998966"
       y2="15.638639" />
    <clipPath
       clipPathUnits="userSpaceOnUse"
       id="clipPath2949">
      <path
         style="fill:#ff00ff;fill-opacity:1;stroke:none;display:inline"
         d="m -20,0 0,16 16,0 0,-16 -16,0 z m 3,1 3,0 c 0.554,0 1,0.446 1,1 l 6,0 c 0.554,0 1,0.446 1,1 l -12,0 0,-1 c 0,-0.554 0.446,-1 1,-1 z m -0.5,3 4,0 6,0 1,0 C -5.669,4 -5,4.669 -5,5.5 l 0,4.5 0,1.5 c 0,0.647488 -0.396277,1.195291 -0.96875,1.40625 l 0,0.15625 -0.03125,0 0,0.4375 c 0,0.831 -0.669,1.5 -1.5,1.5 l -6,0 c -0.831,0 -1.5,-0.669 -1.5,-1.5 l 0,-0.5 -2.5,0 c -0.831,0 -1.5,-0.669 -1.5,-1.5 l 0,-1.5 0,-4.5 C -19,4.669 -18.331,4 -17.5,4 z m 5,2 C -12.777,6 -13,6.223 -13,6.5 l 0,6 c 0,0.277 0.223,0.5 0.5,0.5 l 4,0 c 0.277,0 0.5,-0.223 0.5,-0.5 l 0,-6 C -8,6.223 -8.223,6 -8.5,6 l -4,0 z"
         id="path2951" />
    </clipPath>
    <linearGradient
       inkscape:collect="always"
       xlink:href="#StandardGradient"
       id="linearGradient5012"
       gradientUnits="userSpaceOnUse"
       gradientTransform="matrix(0.9247229,0,0,1.0872097,-6.0600562,-2.0023583)"
       x1="11.998966"
       y1="2.7615263"
       x2="11.998966"
       y2="15.638639" />
    <linearGradient
       inkscape:collect="always"
       xlink:href="#StandardGradient"
       id="linearGradient5016"
       gradientUnits="userSpaceOnUse"
       gradientTransform="matrix(0.9247229,0,0,1.0872097,-6.0600562,-2.0023583)"
       x1="11.998966"
       y1="2.7615263"
       x2="11.998966"
       y2="15.638639" />
    <linearGradient
       inkscape:collect="always"
       xlink:href="#StandardGradient"
       id="linearGradient3176"
       gradientUnits="userSpaceOnUse"
       gradientTransform="matrix(0.9247229,0,0,1.0872097,-6.0600562,-2.0023583)"
       x1="11.998966"
       y1="2.7615263"
       x2="11.998966"
       y2="15.638639" />
    <linearGradient
       inkscape:collect="always"
       xlink:href="#StandardGradient"
       id="linearGradient3180"
       gradientUnits="userSpaceOnUse"
       gradientTransform="matrix(0.9247229,0,0,1.0872097,-6.0600562,-2.0023583)"
       x1="11.998966"
       y1="2.7615263"
       x2="11.998966"
       y2="15.638639" />
    <linearGradient
       inkscape:collect="always"
       xlink:href="#StandardGradient"
       id="linearGradient3789"
       gradientUnits="userSpaceOnUse"
       gradientTransform="matrix(0.9247229,0,0,1.0872097,-6.0600562,-2.0023583)"
       x1="11.998966"
       y1="2.7615263"
       x2="11.998966"
       y2="15.638639" />
    <linearGradient
       inkscape:collect="always"
       xlink:href="#StandardGradient"
       id="linearGradient3793"
       gradientUnits="userSpaceOnUse"
       gradientTransform="matrix(0.9247229,0,0,1.0872097,-6.0600562,-2.0023583)"
       x1="11.998966"
       y1="2.7615263"
       x2="11.998966"
       y2="15.638639" />
    <linearGradient
       inkscape:collect="always"
       xlink:href="#StandardGradient"
       id="linearGradient3795"
       gradientUnits="userSpaceOnUse"
       gradientTransform="matrix(0.9247229,0,0,1.0872097,-6.0600562,-2.0023583)"
       x1="11.998966"
       y1="2.7615263"
       x2="11.998966"
       y2="15.638639" />
    <radialGradient
       inkscape:collect="always"
       xlink:href="#StandardGradient"
       id="radialGradient3798"
       cx="9"
       cy="9.875"
       fx="9"
       fy="9.875"
       r="7"
       gradientUnits="userSpaceOnUse"
       gradientTransform="matrix(2.1428571,5.7142857e-8,-3.047619e-8,1.1428571,-10.285714,-1.2857148)" />
    <radialGradient
       inkscape:collect="always"
       xlink:href="#StandardGradient"
       id="radialGradient3050"
       gradientUnits="userSpaceOnUse"
       gradientTransform="matrix(2.1428571,5.7142857e-8,-3.047619e-8,1.1428571,-10.285714,-1.2857148)"
       cx="9"
       cy="9.875"
       fx="9"
       fy="9.875"
       r="7" />
    <radialGradient
       inkscape:collect="always"
       xlink:href="#StandardGradient"
       id="radialGradient3058"
       gradientUnits="userSpaceOnUse"
       gradientTransform="matrix(2.1428571,5.7142857e-8,-3.047619e-8,1.1428571,-10.285714,-1.2857148)"
       cx="9"
       cy="9.875"
       fx="9"
       fy="9.875"
       r="7" />
    <radialGradient
       inkscape:collect="always"
       xlink:href="#StandardGradient"
       id="radialGradient3065"
       gradientUnits="userSpaceOnUse"
       gradientTransform="matrix(2.1428571,5.7142857e-8,-3.047619e-8,1.1428571,-10.285714,-1.2857148)"
       cx="9"
       cy="9.875"
       fx="9"
       fy="9.875"
       r="7" />
    <radialGradient
       inkscape:collect="always"
       xlink:href="#StandardGradient"
       id="radialGradient3069"
       gradientUnits="userSpaceOnUse"
       gradientTransform="matrix(2.1428571,5.7142857e-8,-3.047619e-8,1.1428571,-10.285714,-1.2857148)"
       cx="9"
       cy="9.875"
       fx="9"
       fy="9.875"
       r="7" />
    <radialGradient
       inkscape:collect="always"
       xlink:href="#StandardGradient"
       id="radialGradient3071"
       gradientUnits="userSpaceOnUse"
       gradientTransform="matrix(2.1428571,5.7142857e-8,-3.047619e-8,1.1428571,-10.285714,-1.2857148)"
       cx="9"
       cy="9.875"
       fx="9"
       fy="9.875"
       r="7" />
    <radialGradient
       inkscape:collect="always"
       xlink:href="#StandardGradient"
       id="radialGradient3078"
       gradientUnits="userSpaceOnUse"
       gradientTransform="matrix(2.1428571,5.7142857e-8,-3.047619e-8,1.1428571,-10.285714,-0.2857148)"
       cx="9"
       cy="9.875"
       fx="9"
       fy="9.875"
       r="7" />
    <radialGradient
       inkscape:collect="always"
       xlink:href="#StandardGradient"
       id="radialGradient3080"
       gradientUnits="userSpaceOnUse"
       gradientTransform="matrix(2.1428571,5.7142857e-8,-3.047619e-8,1.1428571,-10.285714,-1.2857148)"
       cx="9"
       cy="9.875"
       fx="9"
       fy="9.875"
       r="7" />
    <radialGradient
       inkscape:collect="always"
       xlink:href="#StandardGradient"
       id="radialGradient3853"
       gradientUnits="userSpaceOnUse"
       gradientTransform="matrix(2.1428571,5.7142857e-8,-3.047619e-8,1.1428571,-10.285714,-0.2857148)"
       cx="9"
       cy="9.875"
       fx="9"
       fy="9.875"
       r="7" />
    <radialGradient
       inkscape:collect="always"
       xlink:href="#StandardGradient"
       id="radialGradient3857"
       gradientUnits="userSpaceOnUse"
       gradientTransform="matrix(2.1428571,5.7142857e-8,-3.047619e-8,1.1428571,-10.285714,-1.2857148)"
       cx="9"
       cy="9.875"
       fx="9"
       fy="9.875"
       r="7" />
    <radialGradient
       inkscape:collect="always"
       xlink:href="#StandardGradient"
       id="radialGradient3864"
       gradientUnits="userSpaceOnUse"
       gradientTransform="matrix(2.1428571,5.7142857e-8,-3.047619e-8,1.1428571,-10.285714,-1.2857148)"
       cx="9"
       cy="9.875"
       fx="9"
       fy="9.875"
       r="7" />
    <radialGradient
       inkscape:collect="always"
       xlink:href="#StandardGradient"
       id="radialGradient3868"
       gradientUnits="userSpaceOnUse"
       gradientTransform="matrix(2.1428571,5.7142857e-8,-3.047619e-8,1.1428571,-10.285714,-1.2857148)"
       cx="9"
       cy="9.875"
       fx="9"
       fy="9.875"
       r="7" />
    <radialGradient
       inkscape:collect="always"
       xlink:href="#StandardGradient"
       id="radialGradient3826"
       gradientUnits="userSpaceOnUse"
       gradientTransform="matrix(2.1428571,5.7142857e-8,-3.047619e-8,1.1428571,-10.285714,-0.2857148)"
       cx="9"
       cy="9.875"
       fx="9"
       fy="9.875"
       r="7" />
    <radialGradient
       inkscape:collect="always"
       xlink:href="#StandardGradient"
       id="radialGradient3830"
       gradientUnits="userSpaceOnUse"
       gradientTransform="matrix(2.1428571,5.7142857e-8,-3.047619e-8,1.1428571,-10.285714,-1.2857148)"
       cx="9"
       cy="9.875"
       fx="9"
       fy="9.875"
       r="7" />
    <radialGradient
       inkscape:collect="always"
       xlink:href="#StandardGradient"
       id="radialGradient3837"
       gradientUnits="userSpaceOnUse"
       gradientTransform="matrix(2.1428571,5.7142857e-8,-3.047619e-8,1.1428571,-10.285714,-1.2857148)"
       cx="9"
       cy="9.875"
       fx="9"
       fy="9.875"
       r="7" />
    <radialGradient
       inkscape:collect="always"
       xlink:href="#StandardGradient"
       id="radialGradient3841"
       gradientUnits="userSpaceOnUse"
       gradientTransform="matrix(2.1428571,5.7142857e-8,-3.047619e-8,1.1428571,-10.285714,-1.2857148)"
       cx="9"
       cy="9.875"
       fx="9"
       fy="9.875"
       r="7" />
  </defs>
  <metadata
     id="metadata7">
    <rdf:RDF>
      <cc:Work
         rdf:about="">
        <dc:format>image/svg+xml</dc:format>
        <dc:type
           rdf:resource="http://purl.org/dc/dcmitype/StillImage" />
        <dc:title />
      </cc:Work>
    </rdf:RDF>
  </metadata>
  <g
     style="display:inline"
     inkscape:label="Calque 1"
     id="layer1"
     inkscape:groupmode="layer">
    <path
       style="fill:#ffffff;fill-opacity:1;stroke:none;display:inline;opacity:0.05"
       d="M 3 0 C 1.9167046 0 1 0.91670461 1 2 L 1 3 A 0.98629699 0.98629699 0 0 0 1.1875 3.5625 C 0.52554225 4.0119116 0 4.6498154 0 5.5 L 0 13.5 C 0 14.860295 1.1397046 16 2.5 16 L 13.5 16 C 14.860295 16 16 14.860295 16 13.5 L 16 5.5 C 16 4.6498154 15.474458 4.0119116 14.8125 3.5625 A 0.98629699 0.98629699 0 0 0 15 3 C 15 1.9167046 14.083295 1 13 1 L 7.5625 1 C 7.2070464 0.44618505 6.696015 0 6 0 L 3 0 z M 3 1 L 6 1 C 6.554 1 7 1.446 7 2 L 13 2 C 13.554 2 14 2.446 14 3 L 2 3 L 2 2 C 2 1.446 2.446 1 3 1 z M 2.5 4 L 13.5 4 C 14.331 4 15 4.669 15 5.5 L 15 13.5 C 15 14.331 14.331 15 13.5 15 L 2.5 15 C 1.669 15 1 14.331 1 13.5 L 1 5.5 C 1 4.669 1.669 4 2.5 4 z M 7 7 L 7 9 L 5 9 L 5 11 L 7 11 L 7 13 L 9 13 L 9 11 L 11 11 L 11 9 L 9 9 L 9 7 L 7 7 z M 8 9.09375 A 0.98629699 0.98629699 0 0 0 8.90625 10 A 0.98629699 0.98629699 0 0 0 8 10.90625 A 0.98629699 0.98629699 0 0 0 7.09375 10 A 0.98629699 0.98629699 0 0 0 8 9.09375 z "
       id="path3839" />
    <path
       style="fill:url(#radialGradient3058);fill-opacity:1;stroke:none;display:inline"
       d="M 3,1 C 2.446,1 2,1.446 2,2 L 2,3 14,3 C 14,2.446 13.554,2 13,2 L 7,2 C 7,1.446 6.554,1 6,1 z M 2.5,4 C 1.669,4 1,4.669 1,5.5 l 0,8 C 1,14.331 1.669,15 2.5,15 l 11,0 c 0.831,0 1.5,-0.669 1.5,-1.5 l 0,-8 C 15,4.669 14.331,4 13.5,4 z m 4.5,2 2,0 0,2 2,0 0,2 -2,0 0,2 -2,0 0,-2 -2,0 0,-2 2,0 z"
       id="path3046"
       inkscape:connector-curvature="0"
       sodipodi:nodetypes="ssccscsssssssssssccccccccccccc" />
    <path
       style="opacity:0.3;fill:#000000;fill-opacity:1;stroke:none;display:inline"
       d="M 3,1 C 2.446,1 2,1.446 2,2 L 2,3 14,3 C 14,2.446 13.554,2 13,2 L 7,2 C 7,1.446 6.554,1 6,1 z m 0,0.4375 3,0 C 6.3163158,1.4375 6.5625,1.6836842 6.5625,2 6.5652692,2.2283061 6.7716939,2.4347308 7,2.4375 l 6,0 c 0.122287,0 0.222332,0.062567 0.3125,0.125 l -10.875,0 0,-0.5625 C 2.4375,1.6836842 2.6836842,1.4375 3,1.4375 z M 2.5,4 C 1.669,4 1,4.669 1,5.5 l 0,8 C 1,14.331 1.669,15 2.5,15 l 11,0 c 0.831,0 1.5,-0.669 1.5,-1.5 l 0,-8 C 15,4.669 14.331,4 13.5,4 z m 0,0.4375 11,0 c 0.593316,0 1.0625,0.4691842 1.0625,1.0625 l 0,8 c 0,0.593316 -0.469184,1.0625 -1.0625,1.0625 l -11,0 c -0.5933158,0 -1.0625,-0.469184 -1.0625,-1.0625 l 0,-8 C 1.4375,4.9066842 1.9066842,4.4375 2.5,4.4375 z m 4.375,1.125 C 6.6909248,5.6191033 6.5563436,5.807517 6.5625,6 l 0,1.5625 -1.5625,0 C 4.7716939,7.5652692 4.5652692,7.7716939 4.5625,8 l 0,2 c 0.00277,0.228306 0.2091939,0.434731 0.4375,0.4375 l 1.5625,0 0,1.5625 c 0.00277,0.228306 0.2091939,0.434731 0.4375,0.4375 l 2,0 C 9.2283061,12.434731 9.4347308,12.228306 9.4375,12 l 0,-1.5625 1.5625,0 c 0.228306,-0.0028 0.434731,-0.209194 0.4375,-0.4375 l 0,-2 C 11.434731,7.7716939 11.228306,7.5652692 11,7.5625 l -1.5625,0 0,-1.5625 C 9.4347308,5.7716939 9.2283061,5.5652692 9,5.5625 l -2,0 c -0.041388,-0.0059 -0.083612,-0.0059 -0.125,0 z M 7,6 l 2,0 0,2 2,0 0,2 -2,0 0,2 -2,0 0,-2 -2,0 0,-2 2,0 z"
       id="path3034"
       inkscape:connector-curvature="0"
       sodipodi:nodetypes="ssccscssssccsccssssssssssssssssssssccccccccccccccccccccccccccccccccccc" />
    <path
       style="opacity:0.3;fill:#000000;fill-opacity:1;stroke:none;display:inline"
       d="M 3,1 C 2.446,1 2,1.446 2,2 L 2,3 C 2,2.446 2.446,2 3,2 l 3,0 c 0.554,0 1,0.446 1,1 l 6,0 1,0 C 14,2.446 13.554,2 13,2 L 7,2 C 7,1.446 6.554,1 6,1 z M 2.5,4 C 1.669,4 1,4.669 1,5.5 l 0,1 C 1,5.669 1.669,5 2.5,5 l 11,0 C 14.331,5 15,5.669 15,6.5 l 0,-1 C 15,4.669 14.331,4 13.5,4 z m 2.5,6 0,1 2,0 0,-1 z m 4,0 0,1 2,0 0,-1 z m -2,2 0,1 2,0 0,-1 z"
       id="path3047"
       inkscape:connector-curvature="0"
       sodipodi:nodetypes="sscsscccscsssscsscsssccccccccccccccc" />
    <path
       style="opacity:0.2;fill:#ffffff;fill-opacity:1;stroke:none;display:inline"
       d="m 2,3 0,1 0.5,0 11,0 0.5,0 C 14,3.446 13.554,3 13,3 L 7,3 z M 7,6 7,7 9,7 9,6 z M 5,8 5,9 7,9 7,8 z m 4,0 0,1 2,0 0,-1 z m -8,5.5 0,1 C 1,15.331 1.669,16 2.5,16 l 11,0 c 0.831,0 1.5,-0.669 1.5,-1.5 l 0,-1 c 0,0.831 -0.669,1.5 -1.5,1.5 l -11,0 C 1.669,15 1,14.331 1,13.5 z"
       id="path3824"
       inkscape:connector-curvature="0"
       sodipodi:nodetypes="cccccsccccccccccccccccccsssscssc" />
  </g>
</svg>
