<?xml version="1.0" encoding="UTF-8" standalone="no"?>
<!-- Created with Inkscape (http://www.inkscape.org/) -->

<svg
   xmlns:dc="http://purl.org/dc/elements/1.1/"
   xmlns:cc="http://creativecommons.org/ns#"
   xmlns:rdf="http://www.w3.org/1999/02/22-rdf-syntax-ns#"
   xmlns:svg="http://www.w3.org/2000/svg"
   xmlns="http://www.w3.org/2000/svg"
   xmlns:xlink="http://www.w3.org/1999/xlink"
   xmlns:sodipodi="http://sodipodi.sourceforge.net/DTD/sodipodi-0.dtd"
   xmlns:inkscape="http://www.inkscape.org/namespaces/inkscape"
   width="16"
   height="16"
   id="svg2"
   sodipodi:version="0.32"
   inkscape:version="0.91 r13725"
   version="1.0"
   sodipodi:docname="format-text-direction-ltr.svg"
   inkscape:output_extension="org.inkscape.output.svg.inkscape"
   inkscape:export-filename="/home/matt/.icons/Sirocco/scalable/mimetypes/text-plain.png"
   inkscape:export-xdpi="90"
   inkscape:export-ydpi="90"
   sodipodi:modified="true"
   style="display:inline">
  <sodipodi:namedview
     id="base"
     pagecolor="#898989"
     bordercolor="#666666"
     borderopacity="1.0"
     inkscape:pageopacity="0"
     inkscape:pageshadow="2"
     inkscape:zoom="22.627417"
     inkscape:cx="1.5066614"
     inkscape:cy="9.4518049"
     inkscape:document-units="px"
     inkscape:current-layer="layer1"
     width="128px"
     height="128px"
     inkscape:showpageshadow="false"
     inkscape:window-width="1366"
     inkscape:window-height="718"
     inkscape:window-x="0"
     inkscape:window-y="25"
     showguides="true"
     inkscape:guide-bbox="true"
     showgrid="true"
     inkscape:window-maximized="1"
     inkscape:snap-global="true"
     inkscape:snap-bbox="true"
     inkscape:bbox-paths="true"
     inkscape:bbox-nodes="true"
     inkscape:snap-bbox-edge-midpoints="true">
    <sodipodi:guide
       id="guide2226"
       position="32.637397,117.99844"
       orientation="horizontal" />
    <sodipodi:guide
       id="guide2230"
       position="110,57.402344"
       orientation="vertical" />
    <sodipodi:guide
       id="guide2232"
       position="33.760911"
       orientation="horizontal" />
    <sodipodi:guide
       id="guide2231"
       position="46.774696"
       orientation="horizontal" />
    <inkscape:grid
       enabled="true"
       visible="true"
       id="grid3231"
       type="xygrid" />
    <sodipodi:guide
       orientation="1,0"
       position="100,67.625"
       id="guide2713" />
  </sodipodi:namedview>
  <defs
     id="defs4">
    <linearGradient
       gradientUnits="userSpaceOnUse"
       y2="18.974037"
       x2="10.710332"
       y1="1.9963325"
       x1="10.710332"
       gradientTransform="matrix(0.9984539,0,0,0.9984539,-0.0459776,0.05767558)"
       id="linearGradient4203">
      <stop
         id="stop4205"
         offset="0"
         style="stop-color:#000000;stop-opacity:0.23529412" />
      <stop
         id="stop4207"
         offset="1"
         style="stop-color:#000000;stop-opacity:0.54901963" />
    </linearGradient>
    <inkscape:perspective
       sodipodi:type="inkscape:persp3d"
       inkscape:vp_x="0 : 11 : 1"
       inkscape:vp_y="0 : 1000 : 0"
       inkscape:vp_z="22 : 11 : 1"
       inkscape:persp3d-origin="11 : 7.3333333 : 1"
       id="perspective19" />
    <linearGradient
       id="StandardGradient"
       gradientTransform="scale(0.9219544,1.0846523)"
       x1="11.998966"
       y1="0.92195445"
       x2="11.998966"
       y2="19.387045"
       gradientUnits="userSpaceOnUse">
      <stop
         style="stop-color:#000000;stop-opacity:0.86274511;"
         offset="0"
         id="stop3283" />
      <stop
         style="stop-color:#000000;stop-opacity:0.47058824;"
         offset="1"
         id="stop2651" />
    </linearGradient>
    <linearGradient
       inkscape:collect="always"
       xlink:href="#StandardGradient"
       id="linearGradient2549"
       gradientUnits="userSpaceOnUse"
       gradientTransform="matrix(0.9247229,0,0,1.0872097,-2.0600562,0.9976422)"
       x1="11.998966"
       y1="0.92195445"
       x2="11.998966"
       y2="17.478098" />
    <linearGradient
       inkscape:collect="always"
       xlink:href="#StandardGradient"
       id="linearGradient2418"
       gradientUnits="userSpaceOnUse"
       gradientTransform="matrix(0.9247229,0,0,1.0872097,-3.0600562,-3.0023583)"
       x1="11.998966"
       y1="0.92195445"
       x2="11.998966"
       y2="17.478098" />
    <linearGradient
       inkscape:collect="always"
       xlink:href="#StandardGradient"
       id="linearGradient2422"
       gradientUnits="userSpaceOnUse"
       gradientTransform="matrix(0.9247229,0,0,1.0872097,-5.0600562,-1.0023583)"
       x1="11.998966"
       y1="0.92195445"
       x2="11.998966"
       y2="17.478098" />
    <linearGradient
       inkscape:collect="always"
       xlink:href="#StandardGradient"
       id="linearGradient2401"
       gradientUnits="userSpaceOnUse"
       gradientTransform="matrix(0.9247229,0,0,1.0872097,-4.0600562,-4.0023583)"
       x1="11.998966"
       y1="3.6813121"
       x2="11.998966"
       y2="16.529612" />
    <linearGradient
       inkscape:collect="always"
       xlink:href="#StandardGradient"
       id="linearGradient3209"
       gradientUnits="userSpaceOnUse"
       gradientTransform="matrix(0.9247229,0,0,1.0872097,-4.0600562,-4.0023583)"
       x1="11.998966"
       y1="3.6813121"
       x2="11.998966"
       y2="16.529612" />
    <linearGradient
       inkscape:collect="always"
       xlink:href="#StandardGradient"
       id="linearGradient3214"
       gradientUnits="userSpaceOnUse"
       gradientTransform="matrix(0.9247229,0,0,1.0872097,-4.0600562,-4.0023583)"
       x1="11.998966"
       y1="3.6813121"
       x2="11.998966"
       y2="16.529612" />
    <linearGradient
       inkscape:collect="always"
       xlink:href="#StandardGradient"
       id="linearGradient3217"
       gradientUnits="userSpaceOnUse"
       gradientTransform="matrix(0.9247229,0,0,1.0872097,-4.0600562,-4.0023583)"
       x1="11.998966"
       y1="3.6813121"
       x2="11.998966"
       y2="16.529612" />
    <linearGradient
       inkscape:collect="always"
       xlink:href="#StandardGradient"
       id="linearGradient3237"
       gradientUnits="userSpaceOnUse"
       gradientTransform="matrix(0.9247229,0,0,1.0872097,-4.0600562,-4.0023583)"
       x1="11.998966"
       y1="3.6813121"
       x2="11.998966"
       y2="16.529612" />
    <linearGradient
       inkscape:collect="always"
       xlink:href="#StandardGradient"
       id="linearGradient3180"
       gradientUnits="userSpaceOnUse"
       gradientTransform="matrix(0.9247229,0,0,1.0872097,-4.0600562,-4.0023583)"
       x1="11.998966"
       y1="3.6813121"
       x2="11.998966"
       y2="16.529612" />
    <linearGradient
       inkscape:collect="always"
       xlink:href="#StandardGradient"
       id="linearGradient3183"
       gradientUnits="userSpaceOnUse"
       gradientTransform="matrix(0.9247229,0,0,1.0872097,-4.0600562,-4.0023583)"
       x1="11.998966"
       y1="3.6813121"
       x2="11.998966"
       y2="16.529612" />
    <linearGradient
       inkscape:collect="always"
       xlink:href="#StandardGradient"
       id="linearGradient3193"
       gradientUnits="userSpaceOnUse"
       gradientTransform="matrix(0.9247229,0,0,1.0872097,-4.0600562,-4.0023583)"
       x1="11.998966"
       y1="3.6813121"
       x2="11.998966"
       y2="16.529612" />
    <linearGradient
       inkscape:collect="always"
       xlink:href="#StandardGradient"
       id="linearGradient2843"
       gradientUnits="userSpaceOnUse"
       gradientTransform="matrix(0.9247229,0,0,1.0872097,-3.0600562,-3.0336083)"
       x1="11.998966"
       y1="3.6813121"
       x2="11.998966"
       y2="16.529612" />
    <linearGradient
       inkscape:collect="always"
       xlink:href="#StandardGradient"
       id="linearGradient2853"
       gradientUnits="userSpaceOnUse"
       gradientTransform="matrix(0.9247229,0,0,1.0872097,-3.0600562,-3.0336083)"
       x1="11.998966"
       y1="3.6813121"
       x2="11.998966"
       y2="16.529612" />
    <linearGradient
       inkscape:collect="always"
       xlink:href="#StandardGradient"
       id="linearGradient2856"
       gradientUnits="userSpaceOnUse"
       gradientTransform="matrix(0.9247229,0,0,1.0872097,-3.0600562,-3.0336083)"
       x1="11.998966"
       y1="3.6813121"
       x2="11.998966"
       y2="16.529612" />
    <linearGradient
       inkscape:collect="always"
       xlink:href="#StandardGradient"
       id="linearGradient2864"
       gradientUnits="userSpaceOnUse"
       gradientTransform="matrix(0.9247229,0,0,1.0872097,-5.0600562,-4.0023583)"
       x1="11.998966"
       y1="3.6813121"
       x2="11.998966"
       y2="16.529612" />
    <linearGradient
       inkscape:collect="always"
       xlink:href="#StandardGradient"
       id="linearGradient2866"
       gradientUnits="userSpaceOnUse"
       gradientTransform="matrix(0.9247229,0,0,1.0872097,-5.0600562,-4.0023583)"
       x1="11.998966"
       y1="3.6813121"
       x2="11.998966"
       y2="16.529612" />
    <linearGradient
       inkscape:collect="always"
       xlink:href="#StandardGradient"
       id="linearGradient2868"
       gradientUnits="userSpaceOnUse"
       gradientTransform="matrix(0.9247229,0,0,1.0872097,-5.0600562,-4.0023583)"
       x1="11.998966"
       y1="3.6813121"
       x2="11.998966"
       y2="16.529612" />
    <linearGradient
       inkscape:collect="always"
       xlink:href="#StandardGradient"
       id="linearGradient2873"
       gradientUnits="userSpaceOnUse"
       gradientTransform="matrix(0.9247229,0,0,1.0872097,-3.0600562,-2.0336083)"
       x1="11.998966"
       y1="3.6813121"
       x2="11.998966"
       y2="16.529612" />
    <linearGradient
       inkscape:collect="always"
       xlink:href="#StandardGradient"
       id="linearGradient2877"
       gradientUnits="userSpaceOnUse"
       gradientTransform="matrix(0.9247229,0,0,1.0872097,-3.0600562,-3.0336083)"
       x1="11.998966"
       y1="3.6813121"
       x2="11.998966"
       y2="16.529612" />
    <linearGradient
       inkscape:collect="always"
       xlink:href="#StandardGradient"
       id="linearGradient3656"
       gradientUnits="userSpaceOnUse"
       gradientTransform="matrix(0.9247229,0,0,1.0872097,-3.0600562,-2.0336083)"
       x1="11.998966"
       y1="3.6813121"
       x2="11.998966"
       y2="16.529612" />
    <linearGradient
       inkscape:collect="always"
       xlink:href="#StandardGradient"
       id="linearGradient3658"
       gradientUnits="userSpaceOnUse"
       gradientTransform="matrix(0.9247229,0,0,1.0872097,-3.0600562,-3.0336083)"
       x1="11.998966"
       y1="3.6813121"
       x2="11.998966"
       y2="16.529612" />
    <inkscape:perspective
       id="perspective3648"
       inkscape:persp3d-origin="0.5 : 0.33333333 : 1"
       inkscape:vp_z="1 : 0.5 : 1"
       inkscape:vp_y="0 : 1000 : 0"
       inkscape:vp_x="0 : 0.5 : 1"
       sodipodi:type="inkscape:persp3d" />
    <linearGradient
       inkscape:collect="always"
       xlink:href="#StandardGradient"
       id="linearGradient3648"
       gradientUnits="userSpaceOnUse"
       gradientTransform="matrix(0.9247229,0,0,1.0872097,-23.060056,-3.0336083)"
       x1="11.998966"
       y1="3.6813121"
       x2="11.998966"
       y2="16.529612" />
    <clipPath
       clipPathUnits="userSpaceOnUse"
       id="clipPath3655">
      <path
         style="fill:#ff00ff;fill-opacity:1;stroke:none;display:inline"
         d="m -20,0 0,16 16,0 0,-16 -16,0 z m 5,0.96875 9,9.03125 0,3 -3,0 -9,-9 3,-3.03125 z M -8,10 l 0,1 -1,0 0,1 1,0 1,0 0,-1 0,-1 -1,0 z m -9,3 c 0.552,0 1,0.448 1,1 0,0.552 -0.448,1 -1,1 -0.552,0 -1,-0.448 -1,-1 0,-0.552 0.448,-1 1,-1 z m 3,0 c 0.552,0 1,0.448 1,1 0,0.552 -0.448,1 -1,1 -0.552,0 -1,-0.448 -1,-1 0,-0.552 0.448,-1 1,-1 z m 3,0 c 0.552,0 1,0.448 1,1 0,0.552 -0.448,1 -1,1 -0.552,0 -1,-0.448 -1,-1 0,-0.552 0.448,-1 1,-1 z"
         id="path3657" />
    </clipPath>
    <linearGradient
       inkscape:collect="always"
       xlink:href="#StandardGradient-2"
       id="linearGradient3818"
       gradientUnits="userSpaceOnUse"
       gradientTransform="matrix(0.9984539,0,0,0.9984539,0.9540224,2.0576756)"
       x1="10.710332"
       y1="1.9963325"
       x2="10.710332"
       y2="18.974037" />
    <linearGradient
       id="StandardGradient-2"
       gradientTransform="matrix(0.9984539,0,0,0.9984539,-0.0459776,0.05767558)"
       x1="10.710332"
       y1="1.9963325"
       x2="10.710332"
       y2="18.974037"
       gradientUnits="userSpaceOnUse">
      <stop
         style="stop-color:#000000;stop-opacity:0.86274511;"
         offset="0"
         id="stop3277-0" />
      <stop
         style="stop-color:#000000;stop-opacity:0.47058824;"
         offset="1"
         id="stop3279-6" />
    </linearGradient>
    <linearGradient
       y2="18.974037"
       x2="10.710332"
       y1="1.9963325"
       x1="10.710332"
       gradientTransform="matrix(0.9984539,0,0,0.9984539,-1.0459776,-3.9423244)"
       gradientUnits="userSpaceOnUse"
       id="linearGradient3868"
       xlink:href="#StandardGradient-2"
       inkscape:collect="always" />
    <linearGradient
       inkscape:collect="always"
       xlink:href="#StandardGradient-2"
       id="linearGradient3055"
       gradientUnits="userSpaceOnUse"
       gradientTransform="matrix(0.9984539,0,0,0.9984539,-1.0459776,-2.9423244)"
       x1="10.710332"
       y1="1.9963325"
       x2="10.710332"
       y2="18.974037" />
    <linearGradient
       inkscape:collect="always"
       xlink:href="#StandardGradient-2"
       id="linearGradient3057"
       gradientUnits="userSpaceOnUse"
       gradientTransform="matrix(0.9984539,0,0,0.9984539,-1.0459776,-3.9423244)"
       x1="10.710332"
       y1="1.9963325"
       x2="10.710332"
       y2="18.974037" />
    <linearGradient
       inkscape:collect="always"
       xlink:href="#StandardGradient-2"
       id="linearGradient3830"
       gradientUnits="userSpaceOnUse"
       gradientTransform="matrix(0.9984539,0,0,0.9984539,-1.0459776,-2.9423244)"
       x1="10.710332"
       y1="1.9963325"
       x2="10.710332"
       y2="18.974037" />
    <linearGradient
       inkscape:collect="always"
       xlink:href="#StandardGradient-2"
       id="linearGradient3834"
       gradientUnits="userSpaceOnUse"
       gradientTransform="matrix(0.9984539,0,0,0.9984539,-1.0459776,-3.9423244)"
       x1="10.710332"
       y1="1.9963325"
       x2="10.710332"
       y2="18.974037" />
    <linearGradient
       inkscape:collect="always"
       xlink:href="#StandardGradient-2"
       id="linearGradient3839"
       gradientUnits="userSpaceOnUse"
       gradientTransform="matrix(0.9984539,0,0,0.9984539,-1.0459776,-3.9423244)"
       x1="10.710332"
       y1="1.9963325"
       x2="10.710332"
       y2="18.974037" />
    <linearGradient
       inkscape:collect="always"
       xlink:href="#StandardGradient-2"
       id="linearGradient3843"
       gradientUnits="userSpaceOnUse"
       gradientTransform="matrix(0.9984539,0,0,0.9984539,-1.0459776,-3.9423244)"
       x1="10.710332"
       y1="1.9963325"
       x2="10.710332"
       y2="18.974037" />
    <linearGradient
       inkscape:collect="always"
       xlink:href="#StandardGradient-2"
       id="linearGradient3848"
       gradientUnits="userSpaceOnUse"
       gradientTransform="matrix(-0.9984539,0,0,0.9984539,17.045978,-3.9423244)"
       x1="10.710332"
       y1="4.9499774"
       x2="10.710332"
       y2="18.974037" />
    <linearGradient
       inkscape:collect="always"
       xlink:href="#StandardGradient-7"
       id="linearGradient2882"
       gradientUnits="userSpaceOnUse"
       gradientTransform="matrix(-1.2222222,0,0,1,24.222222,-3)"
       x1="13"
       y1="4"
       x2="13"
       y2="18.035669" />
    <linearGradient
       id="StandardGradient-7"
       gradientTransform="matrix(0.9984539,0,0,0.9984539,-0.0459776,0.05767558)"
       x1="10.710332"
       y1="1.9963325"
       x2="10.710332"
       y2="18.974037"
       gradientUnits="userSpaceOnUse">
      <stop
         style="stop-color:#000000;stop-opacity:0.86274511;"
         offset="0"
         id="stop3277-8" />
      <stop
         style="stop-color:#000000;stop-opacity:0.47058824;"
         offset="1"
         id="stop3279-6-9" />
    </linearGradient>
    <linearGradient
       y2="18.035669"
       x2="13"
       y1="4"
       x1="13"
       gradientTransform="matrix(1.2222222,0,0,1,-8.222222,-3)"
       gradientUnits="userSpaceOnUse"
       id="linearGradient3070"
       xlink:href="#StandardGradient-7"
       inkscape:collect="always" />
    <linearGradient
       inkscape:collect="always"
       xlink:href="#StandardGradient-2"
       id="linearGradient3078"
       gradientUnits="userSpaceOnUse"
       gradientTransform="matrix(-0.9984539,0,0,0.9984539,17.045978,-2.9423244)"
       x1="10.710332"
       y1="4.9499774"
       x2="10.710332"
       y2="18.974037" />
    <linearGradient
       inkscape:collect="always"
       xlink:href="#StandardGradient-2"
       id="linearGradient3082"
       gradientUnits="userSpaceOnUse"
       gradientTransform="matrix(-0.9984539,0,0,0.9984539,-2.954022,-3.9423244)"
       x1="10.710332"
       y1="4.9499774"
       x2="10.710332"
       y2="18.974037" />
    <linearGradient
       inkscape:collect="always"
       xlink:href="#StandardGradient-2"
       id="linearGradient3090"
       gradientUnits="userSpaceOnUse"
       gradientTransform="matrix(-0.9984539,0,0,0.9984539,-2.954022,-3.9423244)"
       x1="10.710332"
       y1="4.9499774"
       x2="10.710332"
       y2="18.974037" />
    <linearGradient
       inkscape:collect="always"
       xlink:href="#StandardGradient-2"
       id="linearGradient3093"
       gradientUnits="userSpaceOnUse"
       gradientTransform="matrix(0.9984539,0,0,0.9984539,-14.045978,-3.9423244)"
       x1="10.710332"
       y1="4.9499774"
       x2="10.710332"
       y2="18.974037" />
    <linearGradient
       inkscape:collect="always"
       xlink:href="#StandardGradient-2"
       id="linearGradient3095"
       gradientUnits="userSpaceOnUse"
       gradientTransform="matrix(-0.9984539,0,0,0.9984539,-2.954022,-3.9423244)"
       x1="10.710332"
       y1="4.9499774"
       x2="10.710332"
       y2="18.974037" />
    <linearGradient
       inkscape:collect="always"
       xlink:href="#StandardGradient-2"
       id="linearGradient3105"
       gradientUnits="userSpaceOnUse"
       gradientTransform="matrix(-0.9984539,0,0,0.9984539,17.045978,-2.9423244)"
       x1="10.710332"
       y1="4.9499774"
       x2="10.710332"
       y2="18.974037" />
    <linearGradient
       inkscape:collect="always"
       xlink:href="#StandardGradient-2"
       id="linearGradient3107"
       gradientUnits="userSpaceOnUse"
       gradientTransform="matrix(-0.9984539,0,0,0.9984539,17.045978,-3.9423244)"
       x1="10.710332"
       y1="4.9499774"
       x2="10.710332"
       y2="18.974037" />
    <linearGradient
       inkscape:collect="always"
       xlink:href="#StandardGradient-2"
       id="linearGradient3880"
       gradientUnits="userSpaceOnUse"
       gradientTransform="matrix(-0.9984539,0,0,0.9984539,17.045978,-2.9423244)"
       x1="10.710332"
       y1="4.9499774"
       x2="10.710332"
       y2="18.974037" />
    <linearGradient
       inkscape:collect="always"
       xlink:href="#StandardGradient-2"
       id="linearGradient3884"
       gradientUnits="userSpaceOnUse"
       gradientTransform="matrix(-0.9984539,0,0,0.9984539,17.045978,-3.9423244)"
       x1="10.710332"
       y1="4.9499774"
       x2="10.710332"
       y2="18.974037" />
    <linearGradient
       inkscape:collect="always"
       xlink:href="#StandardGradient-2"
       id="linearGradient3891"
       gradientUnits="userSpaceOnUse"
       gradientTransform="matrix(-0.9984539,0,0,0.9984539,17.045978,-3.9423244)"
       x1="10.710332"
       y1="4.9499774"
       x2="10.710332"
       y2="18.974037" />
    <linearGradient
       inkscape:collect="always"
       xlink:href="#StandardGradient-2"
       id="linearGradient3895"
       gradientUnits="userSpaceOnUse"
       gradientTransform="matrix(-0.9984539,0,0,0.9984539,17.045978,-3.9423244)"
       x1="10.710332"
       y1="4.9499774"
       x2="10.710332"
       y2="18.974037" />
    <radialGradient
       inkscape:collect="always"
       xlink:href="#linearGradient4203"
       id="radialGradient4201"
       cx="8"
       cy="8"
       fx="8"
       fy="8"
       r="7"
       gradientUnits="userSpaceOnUse"
       gradientTransform="matrix(1.8571428,0,0,1,-6.8571421,-4.5805734e-8)" />
  </defs>
  <metadata
     id="metadata7">
    <rdf:RDF>
      <cc:Work
         rdf:about="">
        <dc:format>image/svg+xml</dc:format>
        <dc:type
           rdf:resource="http://purl.org/dc/dcmitype/StillImage" />
        <dc:title></dc:title>
      </cc:Work>
    </rdf:RDF>
  </metadata>
  <g
     style="display:inline"
     inkscape:label="Calque 1"
     id="layer1"
     inkscape:groupmode="layer">
    <path
       style="display:inline;opacity:0.05;fill:#ffffff;fill-opacity:1;stroke:none"
       d="m 10.78125,0 c -0.190664,0.04263016 -0.364559,0.14044622 -0.5,0.28125 l -8,8 C 2.1854027,8.3795177 2.1109248,8.4965544 2.0625,8.625 l -2,5 c -0.36790793,0.831729 0.48077145,1.680408 1.3125,1.3125 l 5,-2 c 0.1284456,-0.04842 0.2454823,-0.122903 0.34375,-0.21875 L 7,12.4375 7,13 c -0.00277,0.553429 0.4465714,1.002771 1,1 l 2,0 0,1 c -0.00442,0.788753 0.866825,1.268827 1.53125,0.84375 l 4,-2.5 c 0.623482,-0.389731 0.623482,-1.297769 0,-1.6875 l -4,-2.5 C 10.866825,8.7311733 9.9955801,9.2112471 10,10 l 0,1 -1.5625,0 6.28125,-6.28125 c 0.409239,-0.3917878 0.409239,-1.0457122 0,-1.4375 l -3,-3 C 11.49738,0.06002714 11.18483,-0.04415636 10.875,0 10.843767,-0.00147298 10.812483,-0.00147298 10.78125,0 Z M 11,1 14,4 6,12 1,14 3,9 Z M 4.96875,8.96875 3.96875,10 3,12 5.03125,11.0625 6,10.03125 Z M 11,10 l 4,2.5 -4,2.5 0,-2 -3,0 0,-1 3,0 z"
       id="path3893"
       inkscape:connector-curvature="0"
       sodipodi:nodetypes="ccccccccccccccccccccccccccccccccccccccccccccc" />
    <path
       style="display:inline;fill:url(#radialGradient4201);fill-opacity:1;stroke:none"
       d="M 11,1 3,9 1,14 6,12 14,4 Z M 4.96875,8.96875 6,10.03125 5.03125,11.0625 3,12 3.96875,10 Z M 11,10 l 0,2 -3,0 0,1 3,0 0,2 4,-2.5 z"
       id="path3801"
       inkscape:connector-curvature="0"
       sodipodi:nodetypes="cccccccccccccccccccc" />
    <path
       style="display:inline;opacity:0.3;fill:#000000;fill-opacity:1;stroke:none"
       d="M 11,1 3,9 1,14 1.46875,13.8125 3,10 11,2 13.5,4.5 14,4 Z m 0,9 0,1 3.1875,2 L 15,12.5 Z m -5.46875,0.53125 -0.5,0.53125 L 3.625,11.71875 3,13 5.03125,12.0625 6,11.03125 Z M 8,12 l 0,1 3,0 0,-1 z"
       id="path3101"
       inkscape:connector-curvature="0"
       sodipodi:nodetypes="cccccccccccccccccccccccccc" />
    <path
       style="display:inline;opacity:0.2;fill:#ffffff;fill-opacity:1;stroke:none"
       d="M 13.5,4.5 6,12 1.46875,13.8125 1,15 6,13 14,5 Z M 4.96875,8.96875 3.96875,10 3,12 3.625,11.71875 3.96875,11 l 1,-1.03125 0.5625,0.5625 L 6,10.03125 Z M 8,13 l 0,1 3,0 0,-1 z m 6.1875,0 -3.1875,2 0,1 4,-2.5 z"
       id="path3878"
       inkscape:connector-curvature="0"
       sodipodi:nodetypes="cccccccccccccccccccccccccc" />
    <path
       style="color:#000000;font-style:normal;font-variant:normal;font-weight:normal;font-stretch:normal;font-size:medium;line-height:normal;font-family:sans-serif;text-indent:0;text-align:start;text-decoration:none;text-decoration-line:none;text-decoration-style:solid;text-decoration-color:#000000;letter-spacing:normal;word-spacing:normal;text-transform:none;direction:ltr;block-progression:tb;writing-mode:lr-tb;baseline-shift:baseline;text-anchor:start;white-space:normal;clip-rule:nonzero;display:inline;overflow:visible;visibility:visible;opacity:0.3;isolation:auto;mix-blend-mode:normal;color-interpolation:sRGB;color-interpolation-filters:linearRGB;solid-color:#000000;solid-opacity:1;fill:#000000;fill-opacity:1;fill-rule:nonzero;stroke:none;stroke-width:1.20000005;stroke-linecap:butt;stroke-linejoin:miter;stroke-miterlimit:4;stroke-dasharray:none;stroke-dashoffset:0;stroke-opacity:1;color-rendering:auto;image-rendering:auto;shape-rendering:auto;text-rendering:auto;enable-background:accumulate"
       d="M 11,1 3,9 1,14 6,12 14,4 11,1 Z M 11,1.8476562 13.152344,4 5.662109,11.488281 4.75,11.853516 5.388672,11.558594 6.830078,10.025391 4.96875,8.1074219 4.537109,8.5507812 3.470703,9.6523438 2.982422,10.658203 3.511719,9.3378906 11,1.8476562 Z M 4.96875,8.96875 6,10.03125 5.03125,11.0625 3,12 l 0.96875,-2 1,-1.03125 z M 11,10 l 0,2 -3,0 0,1 3,0 0,2 4,-2.5 -4,-2.5 z m 0.599609,1.083984 2.265625,1.416016 -2.265625,1.416016 0,-1.316407 0,-0.199218 0,-1.316407 z"
       id="path3801-7"
       inkscape:connector-curvature="0" />
  </g>
</svg>
