<?xml version="1.0" encoding="UTF-8" standalone="no"?>
<!-- Created with Inkscape (http://www.inkscape.org/) -->

<svg
   xmlns:dc="http://purl.org/dc/elements/1.1/"
   xmlns:cc="http://creativecommons.org/ns#"
   xmlns:rdf="http://www.w3.org/1999/02/22-rdf-syntax-ns#"
   xmlns:svg="http://www.w3.org/2000/svg"
   xmlns="http://www.w3.org/2000/svg"
   xmlns:xlink="http://www.w3.org/1999/xlink"
   xmlns:sodipodi="http://sodipodi.sourceforge.net/DTD/sodipodi-0.dtd"
   xmlns:inkscape="http://www.inkscape.org/namespaces/inkscape"
   width="16"
   height="16"
   id="svg2"
   sodipodi:version="0.32"
   inkscape:version="0.91 r13725"
   version="1.0"
   sodipodi:docname="format-text-underline.svg"
   inkscape:output_extension="org.inkscape.output.svg.inkscape"
   inkscape:export-filename="/home/matt/.icons/Sirocco/scalable/mimetypes/text-plain.png"
   inkscape:export-xdpi="90"
   inkscape:export-ydpi="90"
   sodipodi:modified="true"
   style="display:inline">
  <sodipodi:namedview
     id="base"
     pagecolor="#808080"
     bordercolor="#666666"
     borderopacity="1.0"
     inkscape:pageopacity="0"
     inkscape:pageshadow="2"
     inkscape:zoom="24.785767"
     inkscape:cx="6.7360087"
     inkscape:cy="5.4543059"
     inkscape:document-units="px"
     inkscape:current-layer="layer1"
     width="128px"
     height="128px"
     inkscape:showpageshadow="false"
     inkscape:window-width="1366"
     inkscape:window-height="718"
     inkscape:window-x="0"
     inkscape:window-y="25"
     showguides="true"
     inkscape:guide-bbox="true"
     showgrid="true"
     inkscape:window-maximized="1"
     inkscape:snap-global="true">
    <sodipodi:guide
       id="guide2226"
       position="32.637397,117.99844"
       orientation="horizontal" />
    <sodipodi:guide
       id="guide2230"
       position="110,57.402344"
       orientation="vertical" />
    <sodipodi:guide
       id="guide2232"
       position="33.760911"
       orientation="horizontal" />
    <sodipodi:guide
       id="guide2231"
       position="46.774696"
       orientation="horizontal" />
    <inkscape:grid
       enabled="true"
       visible="true"
       id="grid3231"
       type="xygrid" />
    <sodipodi:guide
       orientation="1,0"
       position="100,67.625"
       id="guide2713" />
  </sodipodi:namedview>
  <defs
     id="defs4">
    <linearGradient
       gradientUnits="userSpaceOnUse"
       y2="18.974037"
       x2="10.710332"
       y1="1.9963325"
       x1="10.710332"
       gradientTransform="matrix(0.8222562,0,0,0.8222562,-1.5084521,-0.5995615)"
       id="linearGradient4177">
      <stop
         id="stop4179"
         offset="0"
         style="stop-color:#000000;stop-opacity:0.23529412" />
      <stop
         id="stop4181"
         offset="1"
         style="stop-color:#000000;stop-opacity:0.54901963" />
    </linearGradient>
    <inkscape:perspective
       sodipodi:type="inkscape:persp3d"
       inkscape:vp_x="0 : 11 : 1"
       inkscape:vp_y="0 : 1000 : 0"
       inkscape:vp_z="22 : 11 : 1"
       inkscape:persp3d-origin="11 : 7.3333333 : 1"
       id="perspective19" />
    <linearGradient
       id="StandardGradient"
       gradientTransform="matrix(0.8222562,0,0,0.8222562,-1.5084521,-0.5995615)"
       x1="10.710332"
       y1="1.9963325"
       x2="10.710332"
       y2="18.974037"
       gradientUnits="userSpaceOnUse">
      <stop
         style="stop-color:#000000;stop-opacity:0.86274511;"
         offset="0"
         id="stop3277" />
      <stop
         style="stop-color:#000000;stop-opacity:0.47058824;"
         offset="1"
         id="stop3279" />
    </linearGradient>
    <linearGradient
       inkscape:collect="always"
       xlink:href="#StandardGradient"
       id="linearGradient3620"
       gradientUnits="userSpaceOnUse"
       gradientTransform="matrix(0.8222562,0,0,0.8222562,-21.508452,-0.5995615)"
       x1="10.710332"
       y1="1.9963325"
       x2="10.710332"
       y2="18.974037" />
    <clipPath
       clipPathUnits="userSpaceOnUse"
       id="clipPath3627">
      <path
         style="fill:#ff00ff;fill-opacity:1;stroke:none"
         d="m -20,0 0,16 16,0 0,-16 -16,0 z m 5.9375,1 c 1.26517,-1e-8 2.535394,0.4764293 3.5,1.4375 1.681841,1.6756779 1.906787,4.247112 0.65625,6.15625 0.016338,0.324513 0.069521,0.876549 0.28125,1.0625 0.288287,0.25319 0.966874,-0.1105761 1.40625,0.375 l 3.03125,3.0625 c 0,0 0.594502,0.564957 -0.28125,1.4375 -0.875752,0.872544 -1.4375,0.28125 -1.4375,0.28125 L -9.9375,11.71875 c -0.487362,-0.437765 -0.120877,-1.087768 -0.375,-1.375 -0.186635,-0.210952 -0.736795,-0.26497 -1.0625,-0.28125 -1.916159,1.245955 -4.50566,1.019429 -6.1875,-0.65625 -1.92921,-1.922141 -1.929211,-5.0466084 0,-6.96875 C -16.597895,1.4764293 -15.32767,1 -14.0625,1 z m 0.03125,1.65625 c -0.909438,10e-8 -1.747342,0.343278 -2.34375,0.9375 -0.596407,0.5942221 -0.96875,1.4376439 -0.96875,2.34375 0,1.8122134 1.493625,3.281251 3.3125,3.28125 1.818878,0 3.28125,-1.4690366 3.28125,-3.28125 0,-1.8122125 -1.462373,-3.28125 -3.28125,-3.28125 z"
         id="path3629" />
    </clipPath>
    <linearGradient
       inkscape:collect="always"
       xlink:href="#StandardGradient"
       id="linearGradient3623"
       x1="9"
       y1="4"
       x2="9"
       y2="14.049875"
       gradientUnits="userSpaceOnUse" />
    <linearGradient
       inkscape:collect="always"
       xlink:href="#StandardGradient"
       id="linearGradient3628"
       gradientUnits="userSpaceOnUse"
       x1="9"
       y1="4"
       x2="9"
       y2="14.049875" />
    <linearGradient
       inkscape:collect="always"
       xlink:href="#StandardGradient"
       id="linearGradient3630"
       gradientUnits="userSpaceOnUse"
       x1="9"
       y1="4"
       x2="9"
       y2="14.049875" />
    <linearGradient
       inkscape:collect="always"
       xlink:href="#StandardGradient"
       id="linearGradient3633"
       gradientUnits="userSpaceOnUse"
       x1="9"
       y1="4"
       x2="9"
       y2="14.049875" />
    <linearGradient
       inkscape:collect="always"
       xlink:href="#StandardGradient"
       id="linearGradient3639"
       gradientUnits="userSpaceOnUse"
       x1="9"
       y1="4"
       x2="9"
       y2="14.049875"
       gradientTransform="translate(0,1)" />
    <linearGradient
       inkscape:collect="always"
       xlink:href="#StandardGradient"
       id="linearGradient3641"
       gradientUnits="userSpaceOnUse"
       x1="9"
       y1="4"
       x2="9"
       y2="14.049875" />
    <linearGradient
       inkscape:collect="always"
       xlink:href="#StandardGradient"
       id="linearGradient3646"
       gradientUnits="userSpaceOnUse"
       x1="9"
       y1="4"
       x2="9"
       y2="14.049875"
       gradientTransform="translate(0,1)" />
    <linearGradient
       inkscape:collect="always"
       xlink:href="#StandardGradient"
       id="linearGradient3650"
       gradientUnits="userSpaceOnUse"
       x1="9"
       y1="4"
       x2="9"
       y2="14.049875" />
    <linearGradient
       inkscape:collect="always"
       xlink:href="#StandardGradient"
       id="linearGradient3655"
       gradientUnits="userSpaceOnUse"
       x1="9"
       y1="4"
       x2="9"
       y2="14.049875"
       gradientTransform="translate(-20,0)" />
    <clipPath
       clipPathUnits="userSpaceOnUse"
       id="clipPath3662">
      <path
         style="fill:#ff00ff;fill-opacity:1;stroke:none"
         d="m -20,0 0,16 16,0 0,-16 -16,0 z m 7.96875,4 c 1.71768,9.7e-6 2.927854,0.3509872 3.6875,1.03125 0.765296,0.6746112 1.15624,1.7563136 1.15625,3.28125 l 0,5.6875 -3.0625,0 0,-1.65625 c -0.40817,0.578232 -0.864802,0.98356 -1.375,1.25 C -12.13521,13.854521 -12.768712,14 -13.5,14 c -0.986398,0 -1.788338,-0.271188 -2.40625,-0.84375 -0.612246,-0.57823 -0.906251,-1.331631 -0.90625,-2.25 -1e-6,-1.1167763 0.390943,-1.9472032 1.15625,-2.46875 0.770973,-0.5215361 1.981005,-0.7812439 3.625,-0.78125 l 1.78125,0 0,-0.25 c -7e-6,-0.4818526 -0.182688,-0.8101544 -0.5625,-1.03125 -0.379825,-0.2267497 -0.976267,-0.3437423 -1.78125,-0.34375 -0.651932,7.7e-6 -1.251279,0.057122 -1.8125,0.1875 -0.561227,0.1303929 -1.080642,0.3329862 -1.5625,0.59375 l 0,-2.3125 c 0.651925,-0.1587208 1.279901,-0.2956254 1.9375,-0.375 0.657592,-0.085024 1.342399,-0.1249903 2,-0.125 z m 0.1875,5.46875 c -0.634926,4.3e-6 -1.114375,0.097085 -1.4375,0.3125 -0.317464,0.2154234 -0.468754,0.549252 -0.46875,0.96875 -4e-6,0.38549 0.119894,0.685163 0.375,0.90625 0.260767,0.215421 0.634561,0.312502 1.09375,0.3125 0.572556,2e-6 1.046337,-0.185585 1.4375,-0.59375 0.39115,-0.41383 0.593743,-0.944583 0.59375,-1.5625 l 0,-0.34375 -1.59375,0 z"
         id="path3664" />
    </clipPath>
    <linearGradient
       inkscape:collect="always"
       xlink:href="#StandardGradient"
       id="linearGradient3649"
       gradientUnits="userSpaceOnUse"
       x1="9"
       y1="3"
       x2="9"
       y2="15.041595"
       gradientTransform="translate(0,1)" />
    <linearGradient
       inkscape:collect="always"
       xlink:href="#StandardGradient"
       id="linearGradient3651"
       gradientUnits="userSpaceOnUse"
       x1="9"
       y1="3"
       x2="9"
       y2="15.041595" />
    <linearGradient
       inkscape:collect="always"
       xlink:href="#StandardGradient"
       id="linearGradient3656"
       gradientUnits="userSpaceOnUse"
       x1="9"
       y1="3"
       x2="9"
       y2="15.041595"
       gradientTransform="translate(0,1)" />
    <linearGradient
       inkscape:collect="always"
       xlink:href="#StandardGradient"
       id="linearGradient3660"
       gradientUnits="userSpaceOnUse"
       x1="9"
       y1="3"
       x2="9"
       y2="15.041595" />
    <linearGradient
       inkscape:collect="always"
       xlink:href="#StandardGradient"
       id="linearGradient3664"
       gradientUnits="userSpaceOnUse"
       x1="9"
       y1="3"
       x2="9"
       y2="15.041595"
       gradientTransform="translate(0,1)" />
    <linearGradient
       inkscape:collect="always"
       xlink:href="#StandardGradient"
       id="linearGradient3668"
       gradientUnits="userSpaceOnUse"
       x1="9"
       y1="3"
       x2="9"
       y2="15.041595" />
    <linearGradient
       inkscape:collect="always"
       xlink:href="#StandardGradient"
       id="linearGradient3673"
       gradientUnits="userSpaceOnUse"
       x1="9"
       y1="3"
       x2="9"
       y2="15.041595"
       gradientTransform="translate(-20,0)" />
    <clipPath
       clipPathUnits="userSpaceOnUse"
       id="clipPath3680">
      <path
         style="fill:#ff00ff;fill-opacity:1;stroke:none"
         d="m -20,0 0,16 16,0 0,-16 -16,0 z m 7.90625,3 c 1.377545,9.7e-6 2.41347,0.3482236 3.09375,1.0625 0.680263,0.7142937 1.031241,1.7987597 1.03125,3.25 l 0,5.6875 -1.5625,0 0,-1.6875 C -9.8884,11.890733 -10.342127,12.315973 -10.875,12.59375 -11.407885,12.865859 -12.07278,13 -12.84375,13 c -0.97506,0 -1.734271,-0.268282 -2.3125,-0.8125 -0.572564,-0.549886 -0.875001,-1.300381 -0.875,-2.21875 -1e-6,-1.0714247 0.379463,-1.8620276 1.09375,-2.40625 0.719952,-0.5442119 1.764594,-0.812494 3.1875,-0.8125 l 2.21875,0 0,-0.15625 c -8e-6,-0.7199478 -0.242567,-1.296336 -0.71875,-1.6875 -0.470528,-0.3968171 -1.143997,-0.5937416 -2,-0.59375 -0.544222,8.4e-6 -1.077881,0.088373 -1.59375,0.21875 -0.515876,0.1303936 -0.992562,0.3017369 -1.46875,0.5625 l 0,-1.4375 c 0.57256,-0.2210791 1.117698,-0.3922808 1.65625,-0.5 0.538545,-0.113369 1.052291,-0.1562403 1.5625,-0.15625 z m 1,4.96875 c -1.264177,4.8e-6 -2.137476,0.148389 -2.625,0.4375 -0.487531,0.2891197 -0.750003,0.7714746 -0.75,1.46875 -3e-6,0.555558 0.199685,1.014953 0.5625,1.34375 0.368477,0.32313 0.870744,0.468751 1.5,0.46875 0.867341,10e-7 1.540952,-0.294004 2.0625,-0.90625 0.527203,-0.617911 0.812492,-1.4483384 0.8125,-2.46875 l 0,-0.34375 -1.5625,0 z M -16,14 l 8,0 0,1 -8,0 0,-1 z"
         id="path3682" />
    </clipPath>
    <linearGradient
       inkscape:collect="always"
       xlink:href="#StandardGradient"
       id="linearGradient3294"
       gradientUnits="userSpaceOnUse"
       x1="9"
       y1="3"
       x2="9"
       y2="15.041595" />
    <linearGradient
       inkscape:collect="always"
       xlink:href="#StandardGradient"
       id="linearGradient3298"
       gradientUnits="userSpaceOnUse"
       x1="9"
       y1="3"
       x2="9"
       y2="15.041595" />
    <radialGradient
       inkscape:collect="always"
       xlink:href="#linearGradient4177"
       id="radialGradient4175"
       cx="8"
       cy="9"
       fx="8"
       fy="9"
       r="4.03125"
       gradientTransform="matrix(1.2403101,-2.4806203e-8,2.9767443e-8,1.4883721,-1.9224809,-4.3953486)"
       gradientUnits="userSpaceOnUse" />
  </defs>
  <metadata
     id="metadata7">
    <rdf:RDF>
      <cc:Work
         rdf:about="">
        <dc:format>image/svg+xml</dc:format>
        <dc:type
           rdf:resource="http://purl.org/dc/dcmitype/StillImage" />
        <dc:title></dc:title>
      </cc:Work>
    </rdf:RDF>
  </metadata>
  <g
     style="display:inline"
     inkscape:label="Calque 1"
     id="layer1"
     inkscape:groupmode="layer">
    <path
       style="font-size:17.41496658px;font-style:normal;font-variant:normal;font-weight:normal;font-stretch:normal;text-align:start;line-height:125%;writing-mode:lr-tb;text-anchor:start;fill:#ffffff;fill-opacity:1;stroke:none;font-family:Sans;-inkscape-font-specification:Sans;opacity:0.05"
       d="M 7.90625 2.03125 C 7.3409566 2.0312607 6.769269 2.0584534 6.15625 2.1875 C 5.5463347 2.3094931 4.9528386 2.5148164 4.34375 2.75 A 0.98366327 0.98366327 0 0 0 3.71875 3.65625 L 3.71875 5.09375 A 0.98366327 0.98366327 0 0 0 5.15625 5.96875 C 5.5491013 5.7536227 5.9492803 5.6155044 6.40625 5.5 C 6.8682462 5.3832383 7.3122347 5.2812568 7.75 5.28125 C 8.4551618 5.2812569 8.8854585 5.454234 9.125 5.65625 C 9.1576315 5.6830554 9.1592174 5.7523402 9.1875 5.78125 L 8.25 5.78125 C 6.7034647 5.7812565 5.4297615 6.0548211 4.46875 6.78125 C 3.5227752 7.5019975 2.9999988 8.6650936 3 9.96875 C 2.9999988 11.103058 3.3860212 12.166528 4.15625 12.90625 C 4.2172649 12.963676 4.3105453 12.978495 4.375 13.03125 L 4 13.03125 A 0.98366327 0.98366327 0 0 0 3.03125 14 L 3.03125 15 A 0.98366327 0.98366327 0 0 0 4 15.96875 L 12 15.96875 A 0.98366327 0.98366327 0 0 0 12.96875 15 L 12.96875 14 A 0.98366327 0.98366327 0 0 0 12.875 13.53125 A 0.98366327 0.98366327 0 0 0 12.875 13.5 A 0.98366327 0.98366327 0 0 0 13 13 L 13 7.3125 C 12.99999 5.7026813 12.625365 4.3269693 11.71875 3.375 C 10.80466 2.4152287 9.4495407 2.0312609 7.90625 2.03125 z M 7.90625 3 C 9.2837947 3.0000097 10.31972 3.3482236 11 4.0625 C 11.680263 4.7767937 12.031241 5.8612597 12.03125 7.3125 L 12.03125 13 L 10.46875 13 L 10.46875 11.3125 C 10.1116 11.890733 9.6578731 12.315973 9.125 12.59375 C 8.5921145 12.865859 7.9272201 13 7.15625 13 C 6.18119 13 5.4219788 12.731718 4.84375 12.1875 C 4.2711863 11.637614 3.968749 10.887119 3.96875 9.96875 C 3.968749 8.8973253 4.3482129 8.1067224 5.0625 7.5625 C 5.7824519 7.0182881 6.8270936 6.750006 8.25 6.75 L 10.46875 6.75 L 10.46875 6.59375 C 10.468742 5.8738022 10.226183 5.297414 9.75 4.90625 C 9.2794721 4.5094329 8.6060035 4.3125084 7.75 4.3125 C 7.2057781 4.3125084 6.6721193 4.4008728 6.15625 4.53125 C 5.6403743 4.6616436 5.1636883 4.8329869 4.6875 5.09375 L 4.6875 3.65625 C 5.2600601 3.4351709 5.8051983 3.2639692 6.34375 3.15625 C 6.8822948 3.042881 7.3960414 3.0000097 7.90625 3 z M 8.90625 7.96875 C 7.6420729 7.9687548 6.7687745 8.117139 6.28125 8.40625 C 5.7937187 8.6953697 5.5312474 9.1777246 5.53125 9.875 C 5.5312474 10.430558 5.7309354 10.889953 6.09375 11.21875 C 6.4622272 11.54188 6.9644943 11.687501 7.59375 11.6875 C 8.4610915 11.687501 9.1347018 11.393496 9.65625 10.78125 C 10.183453 10.163339 10.468742 9.3329116 10.46875 8.3125 L 10.46875 7.96875 L 8.90625 7.96875 z M 8.90625 8.9375 L 9.3125 8.9375 C 9.2207447 9.3830749 9.1440067 9.877586 8.90625 10.15625 C 8.555005 10.568577 8.2388232 10.718751 7.59375 10.71875 C 7.1162381 10.718751 6.8954888 10.596334 6.75 10.46875 C 6.6050689 10.330674 6.4999986 10.181082 6.5 9.875 C 6.4999983 9.4245513 6.5733265 9.3733045 6.78125 9.25 C 6.9525316 9.1484269 7.7190359 8.9375045 8.90625 8.9375 z M 4 14 L 12 14 L 12 15 L 4 15 L 4 14 z "
       id="path3296" />
    <path
       style="font-size:17.41496658px;font-style:normal;font-variant:normal;font-weight:normal;font-stretch:normal;text-align:start;line-height:125%;writing-mode:lr-tb;text-anchor:start;fill:url(#radialGradient4175);fill-opacity:1;stroke:none;font-family:Sans;-inkscape-font-specification:Sans"
       d="M 7.90625 3 C 7.3960414 3.0000097 6.8822948 3.042881 6.34375 3.15625 C 5.8051983 3.2639692 5.2600601 3.4351709 4.6875 3.65625 L 4.6875 5.09375 C 5.1636883 4.8329869 5.6403743 4.6616436 6.15625 4.53125 C 6.6721193 4.4008728 7.2057781 4.3125084 7.75 4.3125 C 8.6060035 4.3125084 9.2794721 4.5094329 9.75 4.90625 C 10.226183 5.297414 10.468742 5.8738022 10.46875 6.59375 L 10.46875 6.75 L 8.25 6.75 C 6.8270936 6.750006 5.7824519 7.0182881 5.0625 7.5625 C 4.3482129 8.1067224 3.968749 8.8973253 3.96875 9.96875 C 3.968749 10.887119 4.2711863 11.637614 4.84375 12.1875 C 5.4219788 12.731718 6.18119 13 7.15625 13 C 7.9272201 13 8.5921145 12.865859 9.125 12.59375 C 9.6578731 12.315973 10.1116 11.890733 10.46875 11.3125 L 10.46875 13 L 12.03125 13 L 12.03125 7.3125 C 12.031241 5.8612597 11.680263 4.7767937 11 4.0625 C 10.31972 3.3482236 9.2837947 3.0000097 7.90625 3 z M 8.90625 7.96875 L 10.46875 7.96875 L 10.46875 8.3125 C 10.468742 9.3329116 10.183453 10.163339 9.65625 10.78125 C 9.1347018 11.393496 8.4610915 11.687501 7.59375 11.6875 C 6.9644943 11.687501 6.4622272 11.54188 6.09375 11.21875 C 5.7309354 10.889953 5.5312474 10.430558 5.53125 9.875 C 5.5312474 9.1777246 5.7937187 8.6953697 6.28125 8.40625 C 6.7687745 8.117139 7.6420729 7.9687548 8.90625 7.96875 z M 4 14 L 4 15 L 12 15 L 12 14 L 4 14 z "
       id="path3631" />
    <path
       style="font-size:17.41496658px;font-style:normal;font-variant:normal;font-weight:normal;font-stretch:normal;text-align:start;line-height:125%;writing-mode:lr-tb;text-anchor:start;fill:#000000;fill-opacity:1;stroke:none;font-family:Sans;-inkscape-font-specification:Sans;opacity:0.3"
       d="M 7.90625 3 C 7.3960414 3.0000097 6.8822948 3.042881 6.34375 3.15625 C 5.8051983 3.2639692 5.2600601 3.4351709 4.6875 3.65625 L 4.6875 4.65625 C 5.2600601 4.4351709 5.8051983 4.2639692 6.34375 4.15625 C 6.8822948 4.042881 7.3960414 4.0000097 7.90625 4 C 9.2837947 4.0000097 10.31972 4.3482236 11 5.0625 C 11.680263 5.7767937 12.031241 6.8612597 12.03125 8.3125 L 12.03125 7.3125 C 12.031241 5.8612597 11.680263 4.7767937 11 4.0625 C 10.31972 3.3482236 9.2837947 3.0000097 7.90625 3 z M 8.25 6.75 C 6.8270936 6.750006 5.7824519 7.0182881 5.0625 7.5625 C 4.3482129 8.1067224 3.968749 8.8973253 3.96875 9.96875 C 3.9687498 10.132302 3.9809984 10.284781 4 10.4375 C 4.1092701 9.6362514 4.4744447 9.0105452 5.0625 8.5625 C 5.7824519 8.0182881 6.8270936 7.750006 8.25 7.75 L 10.46875 7.75 L 10.46875 7.59375 C 10.468747 7.2805727 10.403562 7.0054176 10.3125 6.75 L 8.25 6.75 z M 10.40625 8.96875 C 10.30743 9.6881999 10.063027 10.304485 9.65625 10.78125 C 9.1347018 11.393496 8.4610915 11.687501 7.59375 11.6875 C 6.9644943 11.687501 6.4622272 11.54188 6.09375 11.21875 C 5.8534184 11.000952 5.6802989 10.728648 5.59375 10.40625 C 5.561526 10.554043 5.5312493 10.700681 5.53125 10.875 C 5.5312474 11.430558 5.7309354 11.889953 6.09375 12.21875 C 6.4622272 12.54188 6.9644943 12.687501 7.59375 12.6875 C 8.4610915 12.687501 9.1347018 12.393496 9.65625 11.78125 C 10.183453 11.163339 10.468742 10.332912 10.46875 9.3125 L 10.46875 8.96875 L 10.40625 8.96875 z M 4 14 L 4 15 L 12 15 L 12 14 L 10.46875 14 L 7.15625 14 L 4 14 z "
       id="path3645" />
    <path
       style="font-size:17.41496658px;font-style:normal;font-variant:normal;font-weight:normal;font-stretch:normal;text-align:start;line-height:125%;writing-mode:lr-tb;text-anchor:start;fill:#ffffff;fill-opacity:1;stroke:none;font-family:Sans;-inkscape-font-specification:Sans;opacity:0.20000001"
       d="M 7.75 4.3125 C 7.2057781 4.3125084 6.6721193 4.4008728 6.15625 4.53125 C 5.6403743 4.6616436 5.1636883 4.8329869 4.6875 5.09375 L 4.6875 6.09375 C 5.1636883 5.8329869 5.6403743 5.6616436 6.15625 5.53125 C 6.6721193 5.4008728 7.2057781 5.3125084 7.75 5.3125 C 8.6060035 5.3125084 9.2794721 5.5094329 9.75 5.90625 C 10.019043 6.1272577 10.194224 6.4182507 10.3125 6.75 L 10.46875 6.75 L 10.46875 6.59375 C 10.468742 5.8738022 10.226183 5.297414 9.75 4.90625 C 9.2794721 4.5094329 8.6060035 4.3125084 7.75 4.3125 z M 8.90625 7.96875 C 7.6420729 7.9687548 6.7687745 8.117139 6.28125 8.40625 C 5.7937187 8.6953697 5.5312474 9.177725 5.53125 9.875 C 5.5312492 10.0514 5.5546565 10.219092 5.59375 10.375 C 5.694663 9.947394 5.9241663 9.6180106 6.28125 9.40625 C 6.7687745 9.117139 7.6420729 8.9687548 8.90625 8.96875 L 10.40625 8.96875 C 10.435505 8.7557578 10.468748 8.5455866 10.46875 8.3125 L 10.46875 7.96875 L 8.90625 7.96875 z M 4 10.4375 C 3.9765441 10.609496 3.9687498 10.779403 3.96875 10.96875 C 3.968749 11.887119 4.2711863 12.637614 4.84375 13.1875 C 5.4219788 13.731718 6.18119 14 7.15625 14 C 7.9272201 14 8.5921145 13.865859 9.125 13.59375 C 9.6578731 13.315973 10.1116 12.890733 10.46875 12.3125 L 10.46875 11.3125 C 10.1116 11.890733 9.6578731 12.315973 9.125 12.59375 C 8.5921145 12.865859 7.9272201 13 7.15625 13 C 6.18119 13 5.4219788 12.731718 4.84375 12.1875 C 4.3731541 11.735543 4.087695 11.142319 4 10.4375 z M 10.46875 13 L 10.46875 14 L 12 14 L 12.03125 14 L 12.03125 13 L 10.46875 13 z M 4 15 L 4 16 L 12 16 L 12 15 L 4 15 z "
       id="path3662" />
  </g>
</svg>
