<?xml version="1.0" encoding="UTF-8" standalone="no"?>
<!-- Created with Inkscape (http://www.inkscape.org/) -->

<svg
   xmlns:dc="http://purl.org/dc/elements/1.1/"
   xmlns:cc="http://creativecommons.org/ns#"
   xmlns:rdf="http://www.w3.org/1999/02/22-rdf-syntax-ns#"
   xmlns:svg="http://www.w3.org/2000/svg"
   xmlns="http://www.w3.org/2000/svg"
   xmlns:xlink="http://www.w3.org/1999/xlink"
   xmlns:sodipodi="http://sodipodi.sourceforge.net/DTD/sodipodi-0.dtd"
   xmlns:inkscape="http://www.inkscape.org/namespaces/inkscape"
   width="16"
   height="16"
   id="svg2"
   sodipodi:version="0.32"
   inkscape:version="0.91 r13725"
   version="1.0"
   sodipodi:docname="format-text-italic.svg"
   inkscape:output_extension="org.inkscape.output.svg.inkscape"
   inkscape:export-filename="/home/matt/.icons/Sirocco/scalable/mimetypes/text-plain.png"
   inkscape:export-xdpi="90"
   inkscape:export-ydpi="90"
   sodipodi:modified="true"
   style="display:inline">
  <sodipodi:namedview
     id="base"
     pagecolor="#838383"
     bordercolor="#666666"
     borderopacity="1.0"
     inkscape:pageopacity="0"
     inkscape:pageshadow="2"
     inkscape:zoom="24.785767"
     inkscape:cx="8.6080508"
     inkscape:cy="5.0923403"
     inkscape:document-units="px"
     inkscape:current-layer="layer1"
     width="128px"
     height="128px"
     inkscape:showpageshadow="false"
     inkscape:window-width="1366"
     inkscape:window-height="718"
     inkscape:window-x="0"
     inkscape:window-y="25"
     showguides="true"
     inkscape:guide-bbox="true"
     showgrid="true"
     inkscape:window-maximized="1"
     inkscape:snap-global="true">
    <sodipodi:guide
       id="guide2226"
       position="32.637397,117.99844"
       orientation="horizontal" />
    <sodipodi:guide
       id="guide2230"
       position="110,57.402344"
       orientation="vertical" />
    <sodipodi:guide
       id="guide2232"
       position="33.760911"
       orientation="horizontal" />
    <sodipodi:guide
       id="guide2231"
       position="46.774696"
       orientation="horizontal" />
    <inkscape:grid
       enabled="true"
       visible="true"
       id="grid3231"
       type="xygrid" />
    <sodipodi:guide
       orientation="1,0"
       position="100,67.625"
       id="guide2713" />
  </sodipodi:namedview>
  <defs
     id="defs4">
    <linearGradient
       gradientUnits="userSpaceOnUse"
       y2="18.974037"
       x2="10.710332"
       y1="1.9963325"
       x1="10.710332"
       gradientTransform="matrix(0.8222562,0,0,0.8222562,-1.5084521,-0.5995615)"
       id="linearGradient4175">
      <stop
         id="stop4177"
         offset="0"
         style="stop-color:#000000;stop-opacity:0.23529412" />
      <stop
         id="stop4179"
         offset="1"
         style="stop-color:#000000;stop-opacity:0.54901963" />
    </linearGradient>
    <inkscape:perspective
       sodipodi:type="inkscape:persp3d"
       inkscape:vp_x="0 : 11 : 1"
       inkscape:vp_y="0 : 1000 : 0"
       inkscape:vp_z="22 : 11 : 1"
       inkscape:persp3d-origin="11 : 7.3333333 : 1"
       id="perspective19" />
    <linearGradient
       id="StandardGradient"
       gradientTransform="matrix(0.8222562,0,0,0.8222562,-1.5084521,-0.5995615)"
       x1="10.710332"
       y1="1.9963325"
       x2="10.710332"
       y2="18.974037"
       gradientUnits="userSpaceOnUse">
      <stop
         style="stop-color:#000000;stop-opacity:0.86274511;"
         offset="0"
         id="stop3277" />
      <stop
         style="stop-color:#000000;stop-opacity:0.47058824;"
         offset="1"
         id="stop3279" />
    </linearGradient>
    <linearGradient
       inkscape:collect="always"
       xlink:href="#StandardGradient"
       id="linearGradient3620"
       gradientUnits="userSpaceOnUse"
       gradientTransform="matrix(0.8222562,0,0,0.8222562,-21.508452,-0.5995615)"
       x1="10.710332"
       y1="1.9963325"
       x2="10.710332"
       y2="18.974037" />
    <clipPath
       clipPathUnits="userSpaceOnUse"
       id="clipPath3627">
      <path
         style="fill:#ff00ff;fill-opacity:1;stroke:none"
         d="m -20,0 0,16 16,0 0,-16 -16,0 z m 5.9375,1 c 1.26517,-1e-8 2.535394,0.4764293 3.5,1.4375 1.681841,1.6756779 1.906787,4.247112 0.65625,6.15625 0.016338,0.324513 0.069521,0.876549 0.28125,1.0625 0.288287,0.25319 0.966874,-0.1105761 1.40625,0.375 l 3.03125,3.0625 c 0,0 0.594502,0.564957 -0.28125,1.4375 -0.875752,0.872544 -1.4375,0.28125 -1.4375,0.28125 L -9.9375,11.71875 c -0.487362,-0.437765 -0.120877,-1.087768 -0.375,-1.375 -0.186635,-0.210952 -0.736795,-0.26497 -1.0625,-0.28125 -1.916159,1.245955 -4.50566,1.019429 -6.1875,-0.65625 -1.92921,-1.922141 -1.929211,-5.0466084 0,-6.96875 C -16.597895,1.4764293 -15.32767,1 -14.0625,1 z m 0.03125,1.65625 c -0.909438,10e-8 -1.747342,0.343278 -2.34375,0.9375 -0.596407,0.5942221 -0.96875,1.4376439 -0.96875,2.34375 0,1.8122134 1.493625,3.281251 3.3125,3.28125 1.818878,0 3.28125,-1.4690366 3.28125,-3.28125 0,-1.8122125 -1.462373,-3.28125 -3.28125,-3.28125 z"
         id="path3629" />
    </clipPath>
    <linearGradient
       inkscape:collect="always"
       xlink:href="#StandardGradient"
       id="linearGradient3623"
       x1="9"
       y1="4"
       x2="9"
       y2="14.049875"
       gradientUnits="userSpaceOnUse" />
    <linearGradient
       inkscape:collect="always"
       xlink:href="#StandardGradient"
       id="linearGradient3628"
       gradientUnits="userSpaceOnUse"
       x1="9"
       y1="4"
       x2="9"
       y2="14.049875" />
    <linearGradient
       inkscape:collect="always"
       xlink:href="#StandardGradient"
       id="linearGradient3630"
       gradientUnits="userSpaceOnUse"
       x1="9"
       y1="4"
       x2="9"
       y2="14.049875" />
    <linearGradient
       inkscape:collect="always"
       xlink:href="#StandardGradient"
       id="linearGradient3633"
       gradientUnits="userSpaceOnUse"
       x1="9"
       y1="4"
       x2="9"
       y2="14.049875" />
    <linearGradient
       inkscape:collect="always"
       xlink:href="#StandardGradient"
       id="linearGradient3639"
       gradientUnits="userSpaceOnUse"
       x1="9"
       y1="4"
       x2="9"
       y2="14.049875"
       gradientTransform="translate(0,1)" />
    <linearGradient
       inkscape:collect="always"
       xlink:href="#StandardGradient"
       id="linearGradient3641"
       gradientUnits="userSpaceOnUse"
       x1="9"
       y1="4"
       x2="9"
       y2="14.049875" />
    <linearGradient
       inkscape:collect="always"
       xlink:href="#StandardGradient"
       id="linearGradient3646"
       gradientUnits="userSpaceOnUse"
       x1="9"
       y1="4"
       x2="9"
       y2="14.049875"
       gradientTransform="translate(0,1)" />
    <linearGradient
       inkscape:collect="always"
       xlink:href="#StandardGradient"
       id="linearGradient3650"
       gradientUnits="userSpaceOnUse"
       x1="9"
       y1="4"
       x2="9"
       y2="14.049875" />
    <linearGradient
       inkscape:collect="always"
       xlink:href="#StandardGradient"
       id="linearGradient3655"
       gradientUnits="userSpaceOnUse"
       x1="9"
       y1="4"
       x2="9"
       y2="14.049875"
       gradientTransform="translate(-20,0)" />
    <clipPath
       clipPathUnits="userSpaceOnUse"
       id="clipPath3662">
      <path
         style="fill:#ff00ff;fill-opacity:1;stroke:none"
         d="m -20,0 0,16 16,0 0,-16 -16,0 z m 7.96875,4 c 1.71768,9.7e-6 2.927854,0.3509872 3.6875,1.03125 0.765296,0.6746112 1.15624,1.7563136 1.15625,3.28125 l 0,5.6875 -3.0625,0 0,-1.65625 c -0.40817,0.578232 -0.864802,0.98356 -1.375,1.25 C -12.13521,13.854521 -12.768712,14 -13.5,14 c -0.986398,0 -1.788338,-0.271188 -2.40625,-0.84375 -0.612246,-0.57823 -0.906251,-1.331631 -0.90625,-2.25 -1e-6,-1.1167763 0.390943,-1.9472032 1.15625,-2.46875 0.770973,-0.5215361 1.981005,-0.7812439 3.625,-0.78125 l 1.78125,0 0,-0.25 c -7e-6,-0.4818526 -0.182688,-0.8101544 -0.5625,-1.03125 -0.379825,-0.2267497 -0.976267,-0.3437423 -1.78125,-0.34375 -0.651932,7.7e-6 -1.251279,0.057122 -1.8125,0.1875 -0.561227,0.1303929 -1.080642,0.3329862 -1.5625,0.59375 l 0,-2.3125 c 0.651925,-0.1587208 1.279901,-0.2956254 1.9375,-0.375 0.657592,-0.085024 1.342399,-0.1249903 2,-0.125 z m 0.1875,5.46875 c -0.634926,4.3e-6 -1.114375,0.097085 -1.4375,0.3125 -0.317464,0.2154234 -0.468754,0.549252 -0.46875,0.96875 -4e-6,0.38549 0.119894,0.685163 0.375,0.90625 0.260767,0.215421 0.634561,0.312502 1.09375,0.3125 0.572556,2e-6 1.046337,-0.185585 1.4375,-0.59375 0.39115,-0.41383 0.593743,-0.944583 0.59375,-1.5625 l 0,-0.34375 -1.59375,0 z"
         id="path3664" />
    </clipPath>
    <linearGradient
       inkscape:collect="always"
       xlink:href="#StandardGradient"
       id="linearGradient3644"
       gradientUnits="userSpaceOnUse"
       x1="8.0031815"
       y1="4.1971874"
       x2="8.0031815"
       y2="14.024078" />
    <linearGradient
       inkscape:collect="always"
       xlink:href="#StandardGradient"
       id="linearGradient3648"
       gradientUnits="userSpaceOnUse"
       x1="8.0031815"
       y1="4.1971874"
       x2="8.0031815"
       y2="14.024078"
       gradientTransform="translate(0,1)" />
    <linearGradient
       inkscape:collect="always"
       xlink:href="#StandardGradient"
       id="linearGradient3653"
       gradientUnits="userSpaceOnUse"
       x1="8.0031815"
       y1="4.1971874"
       x2="8.0031815"
       y2="14.024078"
       gradientTransform="translate(0,1)" />
    <linearGradient
       inkscape:collect="always"
       xlink:href="#StandardGradient"
       id="linearGradient3657"
       gradientUnits="userSpaceOnUse"
       x1="8.0031815"
       y1="4.1971874"
       x2="8.0031815"
       y2="14.024078" />
    <linearGradient
       inkscape:collect="always"
       xlink:href="#StandardGradient"
       id="linearGradient3662"
       gradientUnits="userSpaceOnUse"
       x1="8.0031815"
       y1="4.1971874"
       x2="8.0031815"
       y2="14.024078"
       gradientTransform="translate(-20,0)" />
    <clipPath
       clipPathUnits="userSpaceOnUse"
       id="clipPath3670">
      <path
         style="fill:#ff00ff;fill-opacity:1;stroke:none"
         d="m -20,0 0,16 16,0 0,-16 -16,0 z m 8.96875,4 c 1.377543,9.7e-6 2.336442,0.3482236 2.875,1.0625 0.538539,0.7142937 0.664105,1.7987597 0.375,3.25 L -9,14 l -1.5625,0 0.40625,-1.6875 c -0.470528,0.578233 -1.004188,1.003473 -1.59375,1.28125 C -12.339575,13.865859 -13.01028,14 -13.78125,14 c -0.97506,0 -1.6914,-0.268282 -2.15625,-0.8125 -0.464855,-0.549886 -0.618908,-1.300381 -0.4375,-2.21875 0.215417,-1.071425 0.740502,-1.8620273 1.5625,-2.40625 0.82766,-0.5442119 1.952093,-0.812494 3.375,-0.8125 l 2.1875,0 0.03125,-0.15625 c 0.141718,-0.7199478 0.021816,-1.296336 -0.375,-1.6875 -0.391165,-0.3968171 -1.018998,-0.5937416 -1.875,-0.59375 -0.544223,8.4e-6 -1.080788,0.088373 -1.625,0.21875 -0.538553,0.1303936 -1.066543,0.3017369 -1.59375,0.5625 l 0.28125,-1.4375 c 0.61791,-0.2210791 1.19444,-0.3922808 1.75,-0.5 0.561219,-0.113369 1.11479,-0.1562403 1.625,-0.15625 z m 0,4.96875 c -1.264178,4.8e-6 -2.168868,0.148389 -2.71875,0.4375 -0.544222,0.28912 -0.895199,0.771475 -1.03125,1.46875 -0.113382,0.555558 -0.0192,1.014953 0.28125,1.34375 0.30045,0.32313 0.776994,0.468751 1.40625,0.46875 0.867341,10e-7 1.603735,-0.294004 2.25,-0.90625 0.646251,-0.617911 1.07716,-1.448338 1.28125,-2.46875 l 0.09375,-0.34375 -1.5625,0 z"
         id="path3672" />
    </clipPath>
    <linearGradient
       inkscape:collect="always"
       xlink:href="#StandardGradient"
       id="linearGradient4592"
       gradientUnits="userSpaceOnUse"
       gradientTransform="translate(0,-1)"
       x1="8.0031815"
       y1="4.1971874"
       x2="8.0031815"
       y2="14.024078" />
    <linearGradient
       inkscape:collect="always"
       xlink:href="#StandardGradient"
       id="linearGradient4596"
       gradientUnits="userSpaceOnUse"
       gradientTransform="translate(0,-1)"
       x1="8.0031815"
       y1="4.1971874"
       x2="8.0031815"
       y2="14.024078" />
    <radialGradient
       inkscape:collect="always"
       xlink:href="#linearGradient4175"
       id="radialGradient4173"
       cx="7.9567676"
       cy="8"
       fx="7.9567676"
       fy="8"
       r="4.4038982"
       gradientTransform="matrix(1.1451747,-7.5950585e-8,7.5577027e-8,1.1353578,-1.1551226,-1.0828615)"
       gradientUnits="userSpaceOnUse" />
  </defs>
  <metadata
     id="metadata7">
    <rdf:RDF>
      <cc:Work
         rdf:about="">
        <dc:format>image/svg+xml</dc:format>
        <dc:type
           rdf:resource="http://purl.org/dc/dcmitype/StillImage" />
        <dc:title></dc:title>
      </cc:Work>
    </rdf:RDF>
  </metadata>
  <g
     style="display:inline"
     inkscape:label="Calque 1"
     id="layer1"
     inkscape:groupmode="layer">
    <path
       style="font-size:17.41496658px;font-style:italic;font-variant:normal;font-weight:normal;font-stretch:normal;text-align:start;line-height:125%;writing-mode:lr-tb;text-anchor:start;fill:#ffffff;fill-opacity:1;stroke:none;font-family:Sans;-inkscape-font-specification:Abandoned Bitplane Italic;opacity:0.05"
       d="M 8.96875 1.96875 C 8.4012294 1.9687608 7.7964066 2.0269352 7.15625 2.15625 C 6.5316569 2.2773542 5.9002311 2.4548568 5.25 2.6875 A 1.023423 1.023423 0 0 0 4.59375 3.46875 L 4.3125 4.90625 A 1.023423 1.023423 0 0 0 5.78125 6 C 6.2247653 5.7806319 6.668296 5.6493926 7.15625 5.53125 C 7.6541377 5.4119708 8.0977855 5.3437567 8.53125 5.34375 C 9.2303123 5.3437569 9.5618178 5.4975018 9.6875 5.625 C 9.7007841 5.6380949 9.6754234 5.7042859 9.6875 5.71875 L 8.5625 5.71875 C 7.0109666 5.7187565 5.6791656 6.0256041 4.625 6.71875 C 3.5898845 7.4040722 2.8845845 8.4901522 2.625 9.78125 C 2.4017091 10.911653 2.5919948 12.028415 3.28125 12.84375 C 3.9754323 13.656456 5.055983 14.03125 6.21875 14.03125 C 7.0629559 14.03125 7.8504767 13.869459 8.5625 13.5625 A 1.023423 1.023423 0 0 0 9.4375 14.03125 L 11 14.03125 A 1.023423 1.023423 0 0 0 12 13.21875 L 13.21875 7.53125 A 1.023423 1.023423 0 0 0 13.21875 7.5 C 13.538031 5.8972807 13.448495 4.4882972 12.65625 3.4375 C 11.86241 2.3846499 10.518739 1.9687609 8.96875 1.96875 z M 8.96875 3 C 10.346293 3.0000097 11.305192 3.3482236 11.84375 4.0625 C 12.382289 4.7767937 12.507855 5.8612597 12.21875 7.3125 L 11 13 L 9.4375 13 L 9.84375 11.3125 C 9.3732221 11.890733 8.8395624 12.315973 8.25 12.59375 C 7.6604252 12.865859 6.9897201 13 6.21875 13 C 5.2436901 13 4.5273501 12.731718 4.0625 12.1875 C 3.5976458 11.637614 3.4435927 10.887119 3.625 9.96875 C 3.8404177 8.897325 4.3655022 8.1067227 5.1875 7.5625 C 6.0151604 7.0182881 7.1395923 6.750006 8.5625 6.75 L 10.75 6.75 L 10.78125 6.59375 C 10.922968 5.8738022 10.803066 5.297414 10.40625 4.90625 C 10.015085 4.5094329 9.3872517 4.3125084 8.53125 4.3125 C 7.9870263 4.3125084 7.4504623 4.4008728 6.90625 4.53125 C 6.3676969 4.6616436 5.8397071 4.8329869 5.3125 5.09375 L 5.59375 3.65625 C 6.2116597 3.4351709 6.7881897 3.2639692 7.34375 3.15625 C 7.9049687 3.042881 8.4585395 3.0000097 8.96875 3 z M 8.96875 7.96875 C 7.704572 7.9687548 6.7998819 8.117139 6.25 8.40625 C 5.7057786 8.69537 5.3548011 9.177725 5.21875 9.875 C 5.1053682 10.430558 5.1995437 10.889953 5.5 11.21875 C 5.8004497 11.54188 6.2769941 11.687501 6.90625 11.6875 C 7.7735913 11.687501 8.509985 11.393496 9.15625 10.78125 C 9.8025007 10.163339 10.23341 9.332912 10.4375 8.3125 L 10.53125 7.96875 L 8.96875 7.96875 z M 8.96875 9 C 8.7974276 9.3515677 8.6958797 9.7842009 8.4375 10.03125 C 7.9542465 10.489065 7.5423388 10.656251 6.90625 10.65625 C 6.4348713 10.656251 6.2874134 10.571488 6.25 10.53125 C 6.1979094 10.474246 6.14967 10.432234 6.21875 10.09375 A 1.023423 1.023423 0 0 0 6.21875 10.0625 C 6.308438 9.6028402 6.429996 9.4659018 6.71875 9.3125 C 6.9870755 9.1714227 7.7846457 9.0000045 8.96875 9 z "
       id="path4594" />
    <path
       id="path2859"
       style="font-size:17.41496658px;font-style:italic;font-variant:normal;font-weight:normal;font-stretch:normal;text-align:start;line-height:125%;writing-mode:lr-tb;text-anchor:start;fill:url(#radialGradient4173);fill-opacity:1;stroke:none;font-family:Sans;-inkscape-font-specification:Abandoned Bitplane Italic"
       d="M 8.9608843,7.9659866 C 7.6967063,7.9659914 6.7896777,8.110549 6.2397958,8.39966 5.6955744,8.68878 5.3554387,9.181977 5.2193876,9.879252 c -0.1133818,0.555558 -0.019844,0.997734 0.2806123,1.326531 0.3004497,0.32313 0.7653019,0.484695 1.3945578,0.484694 0.8673413,1e-6 1.6241433,-0.306122 2.2704083,-0.918368 0.6462507,-0.617911 1.07142,-1.437071 1.27551,-2.457483 l 0.07653,-0.3486394 -1.5561227,0 m 3.2482997,-0.6462585 -1.199252,5.6774679 -1.5646251,0 0.3999312,-1.689373 C 9.3747092,11.886056 8.8446644,12.31406 8.255102,12.591837 7.6655272,12.863946 6.9852557,13 6.2142856,13 5.2392257,13 4.5192717,12.727892 4.0544216,12.183674 3.5895674,11.633788 3.4478442,10.899662 3.6292515,9.981293 3.8446692,8.909868 4.3633762,8.102046 5.185374,7.5578233 6.0130344,7.0136114 7.1383168,6.7415028 8.5612245,6.7414968 l 2.1938775,0 0.03401,-0.1530612 C 10.93083,5.8684878 10.803279,5.3129328 10.406463,4.9217688 10.015298,4.5249517 9.391716,4.3265391 8.5357143,4.3265307 7.9914906,4.3265391 7.4472734,4.3917318 6.9030611,4.522109 6.364508,4.6525026 5.8316287,4.8480806 5.3044216,5.1088437 L 5.5935373,3.6632654 C 6.211447,3.4421863 6.7981811,3.2777873 7.3537414,3.1700681 7.9149601,3.0566991 8.4506738,3.0000098 8.9608843,3.0000001 c 1.3775427,9.7e-6 2.3355917,0.3571522 2.8741497,1.0714286 0.538539,0.7142937 0.663255,1.7970591 0.37415,3.2482994"
       sodipodi:nodetypes="cssssscccccccssssscccsssccsssc" />
    <path
       style="font-size:17.41496658px;font-style:italic;font-variant:normal;font-weight:normal;font-stretch:normal;text-align:start;line-height:125%;writing-mode:lr-tb;text-anchor:start;opacity:0.3;fill:#000000;fill-opacity:1;stroke:none;font-family:Sans;-inkscape-font-specification:Abandoned Bitplane Italic"
       d="m 8.96875,3 c -0.5102105,9.7e-6 -1.0637813,0.042881 -1.625,0.15625 -0.5555603,0.1077192 -1.1320903,0.2789209 -1.75,0.5 L 5.3125,5.09375 C 5.3870362,5.0568835 5.4564871,5.0342607 5.53125,5 l 0.0625,-0.34375 c 0.6179097,-0.2210791 1.1944397,-0.3922808 1.75,-0.5 C 7.9049687,4.042881 8.4585395,4.0000097 8.96875,4 c 1.377543,9.7e-6 2.336442,0.3482236 2.875,1.0625 0.263789,0.3498775 0.434785,0.7858098 0.5,1.3125 0.07266,-0.9784223 -0.08781,-1.7657906 -0.5,-2.3125 C 11.305192,3.3482236 10.346293,3.0000097 8.96875,3 z M 10.78125,6.59375 10.75,6.75 l -2.1875,0 c -1.4229077,6e-6 -2.5473396,0.2682881 -3.375,0.8125 -0.8219978,0.5442227 -1.3470823,1.334825 -1.5625,2.40625 -0.090704,0.459184 -0.1021117,0.882937 -0.03125,1.25 0.011431,-0.08435 0.013925,-0.162291 0.03125,-0.25 C 3.8404177,9.897325 4.3655022,9.106723 5.1875,8.5625 6.0151604,8.0182881 7.1395923,7.750006 8.5625,7.75 l 2.1875,0 0.03125,-0.15625 c 0.07442,-0.3780791 0.07409,-0.7125933 0,-1 z m -0.5,2.375 c -0.235347,0.718162 -0.6254425,1.334849 -1.125,1.8125 -0.646265,0.612246 -1.3826587,0.906251 -2.25,0.90625 C 6.2769941,11.687501 5.8004497,11.54188 5.5,11.21875 5.379404,11.086779 5.3039256,10.918503 5.25,10.75 c -0.010568,0.0436 -0.022407,0.07968 -0.03125,0.125 -0.1133818,0.555558 -0.019206,1.014953 0.28125,1.34375 0.3004497,0.32313 0.7769941,0.468751 1.40625,0.46875 0.8673413,10e-7 1.603735,-0.294004 2.25,-0.90625 0.6462507,-0.617911 1.07716,-1.448338 1.28125,-2.46875 l 0.09375,-0.34375 -0.25,0 z m -0.4375,3.34375 c -0.098841,0.121466 -0.2084065,0.235542 -0.3125,0.34375 L 9.4375,13 l 0.25,0 0.15625,-0.6875 z"
       id="path3642" />
    <path
       style="font-size:17.41496658px;font-style:italic;font-variant:normal;font-weight:normal;font-stretch:normal;text-align:start;line-height:125%;writing-mode:lr-tb;text-anchor:start;opacity:0.2;fill:#ffffff;fill-opacity:1;stroke:none;font-family:Sans;-inkscape-font-specification:Abandoned Bitplane Italic"
       d="m 8.53125,4.3125 c -0.5442237,8.4e-6 -1.0807877,0.088373 -1.625,0.21875 C 6.4438372,4.6432086 5.9852981,4.7919292 5.53125,5 L 5.3125,6.09375 C 5.8397071,5.8329869 6.3676969,5.6616436 6.90625,5.53125 7.4504623,5.4008728 7.9870263,5.3125084 8.53125,5.3125 c 0.8560017,8.4e-6 1.483835,0.1969329 1.875,0.59375 0.181385,0.1788013 0.306137,0.4087525 0.375,0.65625 0.13138,-0.7038913 0.01571,-1.2711039 -0.375,-1.65625 C 10.015085,4.5094329 9.3872517,4.3125084 8.53125,4.3125 z m 3.8125,2.09375 c -0.02299,0.2913714 -0.0594,0.5769301 -0.125,0.90625 L 11,13 9.6875,13 9.4375,14 11,14 12.21875,8.3125 c 0.144552,-0.7256202 0.187358,-1.3648669 0.125,-1.90625 z m -3.375,1.5625 C 7.704572,7.9687548 6.7998819,8.117139 6.25,8.40625 5.7057786,8.69537 5.3548011,9.177725 5.21875,9.875 5.1508769,10.20757 5.1695738,10.49869 5.25,10.75 5.4020143,10.122854 5.741153,9.676577 6.25,9.40625 6.7998819,9.117139 7.704572,8.9687548 8.96875,8.96875 l 1.3125,0 C 10.350359,8.7578645 10.391173,8.5441245 10.4375,8.3125 l 0.09375,-0.34375 -1.5625,0 z M 3.59375,11.25 C 3.4937132,12.034528 3.6475262,12.696619 4.0625,13.1875 4.5273501,13.731718 5.2436901,14 6.21875,14 6.9897201,14 7.6604252,13.865859 8.25,13.59375 8.7157166,13.374324 9.1398109,13.06316 9.53125,12.65625 L 9.84375,11.3125 C 9.3732221,11.890733 8.8395624,12.315973 8.25,12.59375 7.6604252,12.865859 6.9897201,13 6.21875,13 5.2436901,13 4.5273501,12.731718 4.0625,12.1875 3.8361518,11.919748 3.6668734,11.605117 3.59375,11.25 z"
       id="path3651" />
  </g>
</svg>
