<?xml version="1.0" encoding="UTF-8" standalone="no"?>
<!-- Created with Inkscape (http://www.inkscape.org/) -->

<svg
   xmlns:dc="http://purl.org/dc/elements/1.1/"
   xmlns:cc="http://creativecommons.org/ns#"
   xmlns:rdf="http://www.w3.org/1999/02/22-rdf-syntax-ns#"
   xmlns:svg="http://www.w3.org/2000/svg"
   xmlns="http://www.w3.org/2000/svg"
   xmlns:xlink="http://www.w3.org/1999/xlink"
   xmlns:sodipodi="http://sodipodi.sourceforge.net/DTD/sodipodi-0.dtd"
   xmlns:inkscape="http://www.inkscape.org/namespaces/inkscape"
   width="16"
   height="16"
   id="svg2"
   sodipodi:version="0.32"
   inkscape:version="0.91 r13725"
   version="1.0"
   sodipodi:docname="format-justify-left.svg"
   inkscape:output_extension="org.inkscape.output.svg.inkscape"
   inkscape:export-filename="/home/matt/.icons/Sirocco/scalable/mimetypes/text-plain.png"
   inkscape:export-xdpi="90"
   inkscape:export-ydpi="90"
   sodipodi:modified="true"
   style="display:inline">
  <sodipodi:namedview
     id="base"
     pagecolor="#7e7e7e"
     bordercolor="#666666"
     borderopacity="1.0"
     inkscape:pageopacity="0"
     inkscape:pageshadow="2"
     inkscape:zoom="17.578558"
     inkscape:cx="2.8514509"
     inkscape:cy="6.065632"
     inkscape:document-units="px"
     inkscape:current-layer="layer1"
     width="128px"
     height="128px"
     inkscape:showpageshadow="false"
     inkscape:window-width="1366"
     inkscape:window-height="718"
     inkscape:window-x="0"
     inkscape:window-y="25"
     showguides="true"
     inkscape:guide-bbox="true"
     showgrid="true"
     inkscape:window-maximized="1">
    <sodipodi:guide
       id="guide2226"
       position="32.637397,117.99844"
       orientation="horizontal" />
    <sodipodi:guide
       id="guide2230"
       position="110,57.402344"
       orientation="vertical" />
    <sodipodi:guide
       id="guide2232"
       position="33.760911"
       orientation="horizontal" />
    <sodipodi:guide
       id="guide2231"
       position="46.774696"
       orientation="horizontal" />
    <inkscape:grid
       enabled="true"
       visible="true"
       id="grid3231"
       type="xygrid" />
    <sodipodi:guide
       orientation="1,0"
       position="100,67.625"
       id="guide2713" />
  </sodipodi:namedview>
  <defs
     id="defs4">
    <linearGradient
       gradientUnits="userSpaceOnUse"
       y2="18.974037"
       x2="10.710332"
       y1="1.9963325"
       x1="10.710332"
       gradientTransform="matrix(0.9984539,0,0,0.9984539,-0.0459776,0.05767558)"
       id="linearGradient4197">
      <stop
         id="stop4199"
         offset="0"
         style="stop-color:#000000;stop-opacity:0.23529412" />
      <stop
         id="stop4201"
         offset="1"
         style="stop-color:#000000;stop-opacity:0.54901963" />
    </linearGradient>
    <inkscape:perspective
       sodipodi:type="inkscape:persp3d"
       inkscape:vp_x="0 : 11 : 1"
       inkscape:vp_y="0 : 1000 : 0"
       inkscape:vp_z="22 : 11 : 1"
       inkscape:persp3d-origin="11 : 7.3333333 : 1"
       id="perspective19" />
    <linearGradient
       id="StandardGradient"
       gradientTransform="matrix(0.8222562,0,0,0.8222562,-1.5084521,-0.5995615)"
       x1="10.710332"
       y1="1.9963325"
       x2="10.710332"
       y2="18.974037"
       gradientUnits="userSpaceOnUse">
      <stop
         style="stop-color:#000000;stop-opacity:0.86274511;"
         offset="0"
         id="stop3277" />
      <stop
         style="stop-color:#000000;stop-opacity:0.47058824;"
         offset="1"
         id="stop3279" />
    </linearGradient>
    <linearGradient
       inkscape:collect="always"
       xlink:href="#StandardGradient"
       id="linearGradient3620"
       gradientUnits="userSpaceOnUse"
       gradientTransform="matrix(0.8222562,0,0,0.8222562,-21.508452,-0.5995615)"
       x1="10.710332"
       y1="1.9963325"
       x2="10.710332"
       y2="18.974037" />
    <clipPath
       clipPathUnits="userSpaceOnUse"
       id="clipPath3627">
      <path
         style="fill:#ff00ff;fill-opacity:1;stroke:none"
         d="m -20,0 0,16 16,0 0,-16 -16,0 z m 5.9375,1 c 1.26517,-1e-8 2.535394,0.4764293 3.5,1.4375 1.681841,1.6756779 1.906787,4.247112 0.65625,6.15625 0.016338,0.324513 0.069521,0.876549 0.28125,1.0625 0.288287,0.25319 0.966874,-0.1105761 1.40625,0.375 l 3.03125,3.0625 c 0,0 0.594502,0.564957 -0.28125,1.4375 -0.875752,0.872544 -1.4375,0.28125 -1.4375,0.28125 L -9.9375,11.71875 c -0.487362,-0.437765 -0.120877,-1.087768 -0.375,-1.375 -0.186635,-0.210952 -0.736795,-0.26497 -1.0625,-0.28125 -1.916159,1.245955 -4.50566,1.019429 -6.1875,-0.65625 -1.92921,-1.922141 -1.929211,-5.0466084 0,-6.96875 C -16.597895,1.4764293 -15.32767,1 -14.0625,1 z m 0.03125,1.65625 c -0.909438,10e-8 -1.747342,0.343278 -2.34375,0.9375 -0.596407,0.5942221 -0.96875,1.4376439 -0.96875,2.34375 0,1.8122134 1.493625,3.281251 3.3125,3.28125 1.818878,0 3.28125,-1.4690366 3.28125,-3.28125 0,-1.8122125 -1.462373,-3.28125 -3.28125,-3.28125 z"
         id="path3629" />
    </clipPath>
    <linearGradient
       inkscape:collect="always"
       xlink:href="#StandardGradient"
       id="linearGradient3623"
       x1="9"
       y1="4"
       x2="9"
       y2="14.049875"
       gradientUnits="userSpaceOnUse" />
    <linearGradient
       inkscape:collect="always"
       xlink:href="#StandardGradient"
       id="linearGradient3628"
       gradientUnits="userSpaceOnUse"
       x1="9"
       y1="4"
       x2="9"
       y2="14.049875" />
    <linearGradient
       inkscape:collect="always"
       xlink:href="#StandardGradient"
       id="linearGradient3630"
       gradientUnits="userSpaceOnUse"
       x1="9"
       y1="4"
       x2="9"
       y2="14.049875" />
    <linearGradient
       inkscape:collect="always"
       xlink:href="#StandardGradient"
       id="linearGradient3633"
       gradientUnits="userSpaceOnUse"
       x1="9"
       y1="4"
       x2="9"
       y2="14.049875" />
    <linearGradient
       inkscape:collect="always"
       xlink:href="#StandardGradient"
       id="linearGradient3639"
       gradientUnits="userSpaceOnUse"
       x1="9"
       y1="4"
       x2="9"
       y2="14.049875"
       gradientTransform="translate(0,1)" />
    <linearGradient
       inkscape:collect="always"
       xlink:href="#StandardGradient"
       id="linearGradient3641"
       gradientUnits="userSpaceOnUse"
       x1="9"
       y1="4"
       x2="9"
       y2="14.049875" />
    <linearGradient
       inkscape:collect="always"
       xlink:href="#StandardGradient"
       id="linearGradient3646"
       gradientUnits="userSpaceOnUse"
       x1="9"
       y1="4"
       x2="9"
       y2="14.049875"
       gradientTransform="translate(0,1)" />
    <linearGradient
       inkscape:collect="always"
       xlink:href="#StandardGradient"
       id="linearGradient3650"
       gradientUnits="userSpaceOnUse"
       x1="9"
       y1="4"
       x2="9"
       y2="14.049875" />
    <linearGradient
       inkscape:collect="always"
       xlink:href="#StandardGradient"
       id="linearGradient3655"
       gradientUnits="userSpaceOnUse"
       x1="9"
       y1="4"
       x2="9"
       y2="14.049875"
       gradientTransform="translate(-20,0)" />
    <clipPath
       clipPathUnits="userSpaceOnUse"
       id="clipPath3662">
      <path
         style="fill:#ff00ff;fill-opacity:1;stroke:none"
         d="m -20,0 0,16 16,0 0,-16 -16,0 z m 7.96875,4 c 1.71768,9.7e-6 2.927854,0.3509872 3.6875,1.03125 0.765296,0.6746112 1.15624,1.7563136 1.15625,3.28125 l 0,5.6875 -3.0625,0 0,-1.65625 c -0.40817,0.578232 -0.864802,0.98356 -1.375,1.25 C -12.13521,13.854521 -12.768712,14 -13.5,14 c -0.986398,0 -1.788338,-0.271188 -2.40625,-0.84375 -0.612246,-0.57823 -0.906251,-1.331631 -0.90625,-2.25 -1e-6,-1.1167763 0.390943,-1.9472032 1.15625,-2.46875 0.770973,-0.5215361 1.981005,-0.7812439 3.625,-0.78125 l 1.78125,0 0,-0.25 c -7e-6,-0.4818526 -0.182688,-0.8101544 -0.5625,-1.03125 -0.379825,-0.2267497 -0.976267,-0.3437423 -1.78125,-0.34375 -0.651932,7.7e-6 -1.251279,0.057122 -1.8125,0.1875 -0.561227,0.1303929 -1.080642,0.3329862 -1.5625,0.59375 l 0,-2.3125 c 0.651925,-0.1587208 1.279901,-0.2956254 1.9375,-0.375 0.657592,-0.085024 1.342399,-0.1249903 2,-0.125 z m 0.1875,5.46875 c -0.634926,4.3e-6 -1.114375,0.097085 -1.4375,0.3125 -0.317464,0.2154234 -0.468754,0.549252 -0.46875,0.96875 -4e-6,0.38549 0.119894,0.685163 0.375,0.90625 0.260767,0.215421 0.634561,0.312502 1.09375,0.3125 0.572556,2e-6 1.046337,-0.185585 1.4375,-0.59375 0.39115,-0.41383 0.593743,-0.944583 0.59375,-1.5625 l 0,-0.34375 -1.59375,0 z"
         id="path3664" />
    </clipPath>
    <inkscape:perspective
       id="perspective2894"
       inkscape:persp3d-origin="0.5 : 0.33333333 : 1"
       inkscape:vp_z="1 : 0.5 : 1"
       inkscape:vp_y="0 : 1000 : 0"
       inkscape:vp_x="0 : 0.5 : 1"
       sodipodi:type="inkscape:persp3d" />
    <linearGradient
       inkscape:collect="always"
       xlink:href="#StandardGradient-7"
       id="linearGradient3648"
       x1="13"
       y1="4"
       x2="13"
       y2="18.035669"
       gradientUnits="userSpaceOnUse" />
    <linearGradient
       id="StandardGradient-7"
       gradientTransform="matrix(0.9984539,0,0,0.9984539,-0.0459776,0.05767558)"
       x1="10.710332"
       y1="1.9963325"
       x2="10.710332"
       y2="18.974037"
       gradientUnits="userSpaceOnUse">
      <stop
         style="stop-color:#000000;stop-opacity:0.86274511;"
         offset="0"
         id="stop3277-8" />
      <stop
         style="stop-color:#000000;stop-opacity:0.47058824;"
         offset="1"
         id="stop3279-6" />
    </linearGradient>
    <linearGradient
       gradientTransform="matrix(-1,0,0,1,20,-3)"
       y2="18.035669"
       x2="13"
       y1="4"
       x1="13"
       gradientUnits="userSpaceOnUse"
       id="linearGradient2903"
       xlink:href="#StandardGradient-7"
       inkscape:collect="always" />
    <linearGradient
       inkscape:collect="always"
       xlink:href="#StandardGradient-7"
       id="linearGradient2877"
       gradientUnits="userSpaceOnUse"
       gradientTransform="translate(-4,-2)"
       x1="13"
       y1="4"
       x2="13"
       y2="18.035669" />
    <linearGradient
       inkscape:collect="always"
       xlink:href="#StandardGradient-7"
       id="linearGradient2879"
       gradientUnits="userSpaceOnUse"
       gradientTransform="translate(-4,-3)"
       x1="13"
       y1="4"
       x2="13"
       y2="18.035669" />
    <linearGradient
       inkscape:collect="always"
       xlink:href="#StandardGradient-7"
       id="linearGradient3656"
       gradientUnits="userSpaceOnUse"
       gradientTransform="translate(-4,-2)"
       x1="13"
       y1="4"
       x2="13"
       y2="18.035669" />
    <linearGradient
       inkscape:collect="always"
       xlink:href="#StandardGradient-7"
       id="linearGradient3660"
       gradientUnits="userSpaceOnUse"
       gradientTransform="translate(-4,-3)"
       x1="13"
       y1="4"
       x2="13"
       y2="18.035669" />
    <linearGradient
       inkscape:collect="always"
       xlink:href="#StandardGradient-7"
       id="linearGradient3665"
       gradientUnits="userSpaceOnUse"
       gradientTransform="translate(-24,-3)"
       x1="13"
       y1="4"
       x2="13"
       y2="18.035669" />
    <clipPath
       clipPathUnits="userSpaceOnUse"
       id="clipPath3672">
      <path
         style="fill:#ff00ff;fill-opacity:1;stroke:none"
         d="m -20,0 0,16 16,0 0,-16 -16,0 z m 6,1 9,0 0,2 -9,0 0,-2 z m -5,4 9,0 0,2 -9,0 0,-2 z m 14,0 0,6 -4,-3 4,-3 z m -14,4 7,0 0,2 -7,0 0,-2 z m 5,4 9,0 0,2 -9,0 0,-2 z"
         id="path3674" />
    </clipPath>
    <linearGradient
       inkscape:collect="always"
       xlink:href="#StandardGradient-7"
       id="linearGradient2869"
       gradientUnits="userSpaceOnUse"
       gradientTransform="matrix(-1,0,0,1,20,-2)"
       x1="13"
       y1="4"
       x2="13"
       y2="18.035669" />
    <linearGradient
       inkscape:collect="always"
       xlink:href="#StandardGradient-7"
       id="linearGradient2873"
       gradientUnits="userSpaceOnUse"
       gradientTransform="matrix(-1,0,0,1,20,-3)"
       x1="13"
       y1="4"
       x2="13"
       y2="18.035669" />
    <linearGradient
       inkscape:collect="always"
       xlink:href="#StandardGradient-7"
       id="linearGradient3651"
       gradientUnits="userSpaceOnUse"
       gradientTransform="matrix(-1,0,0,1,0,-3)"
       x1="13"
       y1="4"
       x2="13"
       y2="18.035669" />
    <clipPath
       clipPathUnits="userSpaceOnUse"
       id="clipPath3658">
      <path
         style="fill:#ff00ff;fill-opacity:1;stroke:none"
         d="m -20,0 0,16 16,0 0,-16 -16,0 z m 1,1 9,0 0,2 -9,0 0,-2 z m 0,4 4,3 -4,3 0,-6 z m 5,0 9,0 0,2 -9,0 0,-2 z m 0,4 7,0 0,2 -7,0 0,-2 z m -5,4 9,0 0,2 -9,0 0,-2 z"
         id="path3660" />
    </clipPath>
    <linearGradient
       inkscape:collect="always"
       xlink:href="#StandardGradient-7"
       id="linearGradient2884"
       gradientUnits="userSpaceOnUse"
       gradientTransform="matrix(1,0,0,0.83333333,-14,3.3333333)"
       x1="13"
       y1="4"
       x2="13"
       y2="18.035669" />
    <linearGradient
       inkscape:collect="always"
       xlink:href="#StandardGradient-7"
       id="linearGradient2886"
       gradientUnits="userSpaceOnUse"
       gradientTransform="matrix(-1.5555556,0,0,1,22.777778,-4)"
       x1="13"
       y1="4"
       x2="13"
       y2="18.035669" />
    <linearGradient
       inkscape:collect="always"
       xlink:href="#StandardGradient-7"
       id="linearGradient2888"
       gradientUnits="userSpaceOnUse"
       gradientTransform="matrix(-1.2857143,0,0,1,19,-5)"
       x1="13"
       y1="4"
       x2="13"
       y2="18.035669" />
    <linearGradient
       inkscape:collect="always"
       xlink:href="#StandardGradient-7"
       id="linearGradient2890"
       gradientUnits="userSpaceOnUse"
       gradientTransform="matrix(-0.55555556,0,0,0.5,13.555556,4)"
       x1="13"
       y1="4"
       x2="13"
       y2="18.035669" />
    <linearGradient
       inkscape:collect="always"
       xlink:href="#StandardGradient-7"
       id="linearGradient3669"
       gradientUnits="userSpaceOnUse"
       gradientTransform="matrix(-1.2222222,0,0,1,24.222222,-2)"
       x1="13"
       y1="4"
       x2="13"
       y2="18.035669" />
    <linearGradient
       inkscape:collect="always"
       xlink:href="#StandardGradient-7"
       id="linearGradient3671"
       gradientUnits="userSpaceOnUse"
       gradientTransform="matrix(-1.2222222,0,0,1,24.222222,-3)"
       x1="13"
       y1="4"
       x2="13"
       y2="18.035669" />
    <linearGradient
       inkscape:collect="always"
       xlink:href="#StandardGradient-7"
       id="linearGradient3677"
       gradientUnits="userSpaceOnUse"
       gradientTransform="matrix(-1.2222222,0,0,1,24.222222,-2)"
       x1="13"
       y1="4"
       x2="13"
       y2="18.035669" />
    <linearGradient
       inkscape:collect="always"
       xlink:href="#StandardGradient-7"
       id="linearGradient3681"
       gradientUnits="userSpaceOnUse"
       gradientTransform="matrix(-1.2222222,0,0,1,24.222222,-3)"
       x1="13"
       y1="4"
       x2="13"
       y2="18.035669" />
    <linearGradient
       inkscape:collect="always"
       xlink:href="#StandardGradient-7"
       id="linearGradient3686"
       gradientUnits="userSpaceOnUse"
       gradientTransform="matrix(-1.2222222,0,0,1,4.222222,-3)"
       x1="13"
       y1="4"
       x2="13"
       y2="18.035669" />
    <clipPath
       clipPathUnits="userSpaceOnUse"
       id="clipPath3695">
      <path
         style="fill:#ff00ff;fill-opacity:1;stroke:none"
         d="m -20,0 0,16 16,0 0,-16 -16,0 z m 1,1 11,0 0,2 -11,0 0,-2 z m 0,3 14,0 0,2 -14,0 0,-2 z m 0,3 9,0 0,2 -9,0 0,-2 z m 4,3 0,2 3,0 0,1 -3,0 0,2 -4,-2.5 4,-2.5 z"
         id="path3697" />
    </clipPath>
    <linearGradient
       inkscape:collect="always"
       xlink:href="#StandardGradient-7"
       id="linearGradient3389"
       gradientUnits="userSpaceOnUse"
       gradientTransform="matrix(-1.2222222,0,0,1,24.222222,-3)"
       x1="13"
       y1="4"
       x2="13"
       y2="18.035669" />
    <linearGradient
       inkscape:collect="always"
       xlink:href="#StandardGradient-7"
       id="linearGradient3393"
       gradientUnits="userSpaceOnUse"
       gradientTransform="matrix(-1.2222222,0,0,1,24.222222,-3)"
       x1="13"
       y1="4"
       x2="13"
       y2="18.035669" />
    <radialGradient
       inkscape:collect="always"
       xlink:href="#linearGradient4197"
       id="radialGradient4195"
       cx="9"
       cy="9"
       fx="9"
       fy="9"
       r="7"
       gradientUnits="userSpaceOnUse"
       gradientTransform="matrix(1.5714286,0,0,1.1428571,-5.1428571,-1.2857144)" />
  </defs>
  <metadata
     id="metadata7">
    <rdf:RDF>
      <cc:Work
         rdf:about="">
        <dc:format>image/svg+xml</dc:format>
        <dc:type
           rdf:resource="http://purl.org/dc/dcmitype/StillImage" />
        <dc:title></dc:title>
      </cc:Work>
    </rdf:RDF>
  </metadata>
  <g
     style="display:inline"
     inkscape:label="Calque 1"
     id="layer1"
     inkscape:groupmode="layer">
    <path
       style="fill:#ffffff;fill-opacity:1;stroke:none;display:inline;opacity:0.05"
       d="M 0.8125 0.03125 A 0.97882724 0.97882724 0 0 0 0.03125 1 L 0.03125 3 A 0.97882724 0.97882724 0 0 0 0.15625 3.5 A 0.97882724 0.97882724 0 0 0 0.03125 4 L 0.03125 6 A 0.97882724 0.97882724 0 0 0 0.15625 6.5 A 0.97882724 0.97882724 0 0 0 0.03125 7 L 0.03125 9 A 0.97882724 0.97882724 0 0 0 1 9.96875 L 3.15625 9.96875 L 0.46875 11.65625 A 0.97882724 0.97882724 0 0 0 0.46875 13.34375 L 4.46875 15.84375 A 0.97882724 0.97882724 0 0 0 5.96875 15 L 5.96875 13.96875 L 8 13.96875 A 0.97882724 0.97882724 0 0 0 8.96875 13 L 8.96875 12 A 0.97882724 0.97882724 0 0 0 8 11.03125 L 5.96875 11.03125 L 5.96875 10 A 0.97882724 0.97882724 0 0 0 5.96875 9.96875 L 10 9.96875 A 0.97882724 0.97882724 0 0 0 10.96875 9 L 10.96875 7 A 0.97882724 0.97882724 0 0 0 10.96875 6.96875 L 15 6.96875 A 0.97882724 0.97882724 0 0 0 15.96875 6 L 15.96875 4 A 0.97882724 0.97882724 0 0 0 15 3.03125 L 12.96875 3.03125 A 0.97882724 0.97882724 0 0 0 12.96875 3 L 12.96875 1 A 0.97882724 0.97882724 0 0 0 12 0.03125 L 1 0.03125 A 0.97882724 0.97882724 0 0 0 0.8125 0.03125 z M 1 1 L 12 1 L 12 3 L 1 3 L 1 1 z M 1 4 L 15 4 L 15 6 L 1 6 L 1 4 z M 1 7 L 10 7 L 10 9 L 1 9 L 1 7 z M 5 10 L 5 12 L 8 12 L 8 13 L 5 13 L 5 15 L 1 12.5 L 5 10 z "
       id="path3391" />
    <path
       style="fill:url(#radialGradient4195);fill-opacity:1;stroke:none;display:inline"
       d="M 1 1 L 1 3 L 12 3 L 12 1 L 1 1 z M 1 4 L 1 6 L 15 6 L 15 4 L 1 4 z M 1 7 L 1 9 L 10 9 L 10 7 L 1 7 z M 5 10 L 1 12.5 L 5 15 L 5 13 L 8 13 L 8 12 L 5 12 L 5 10 z "
       id="path2880" />
    <path
       style="fill:#000000;fill-opacity:1;stroke:none;display:inline;opacity:0.3"
       d="M 1 1 L 1 2 L 12 2 L 12 1 L 1 1 z M 1 4 L 1 5 L 15 5 L 15 4 L 12 4 L 1 4 z M 1 7 L 1 8 L 10 8 L 10 7 L 1 7 z M 5 10 L 1 12.5 L 1.8125 13 L 5 11 L 5 10 z M 5 12 L 5 13 L 8 13 L 8 12 L 5 12 z "
       id="path3665" />
    <path
       style="fill:#ffffff;fill-opacity:1;stroke:none;display:inline;opacity:0.20000001"
       d="M 1 3 L 1 4 L 12 4 L 12 3 L 1 3 z M 1 6 L 1 7 L 10 7 L 15 7 L 15 6 L 1 6 z M 1 9 L 1 10 L 5 10 L 10 10 L 10 9 L 1 9 z M 1.8125 13 L 1 13.5 L 5 16 L 5 15 L 1.8125 13 z M 5 13 L 5 14 L 8 14 L 8 13 L 5 13 z "
       id="path3675" />
  </g>
</svg>
