<?xml version="1.0" encoding="UTF-8" standalone="no"?>
<!-- Created with Inkscape (http://www.inkscape.org/) -->

<svg
   xmlns:dc="http://purl.org/dc/elements/1.1/"
   xmlns:cc="http://creativecommons.org/ns#"
   xmlns:rdf="http://www.w3.org/1999/02/22-rdf-syntax-ns#"
   xmlns:svg="http://www.w3.org/2000/svg"
   xmlns="http://www.w3.org/2000/svg"
   xmlns:xlink="http://www.w3.org/1999/xlink"
   xmlns:sodipodi="http://sodipodi.sourceforge.net/DTD/sodipodi-0.dtd"
   xmlns:inkscape="http://www.inkscape.org/namespaces/inkscape"
   width="16"
   height="16"
   id="svg2"
   sodipodi:version="0.32"
   inkscape:version="0.48.1 r9760"
   version="1.0"
   sodipodi:docname="go-first.svg"
   inkscape:output_extension="org.inkscape.output.svg.inkscape"
   inkscape:export-filename="/home/matt/.icons/Sirocco/scalable/mimetypes/text-plain.png"
   inkscape:export-xdpi="90"
   inkscape:export-ydpi="90"
   sodipodi:modified="true"
   style="display:inline">
  <sodipodi:namedview
     id="base"
     pagecolor="#838383"
     bordercolor="#cc0000"
     borderopacity="1"
     inkscape:pageopacity="1"
     inkscape:pageshadow="2"
     inkscape:zoom="25.4708"
     inkscape:cx="1.7729548"
     inkscape:cy="7.5624336"
     inkscape:document-units="px"
     inkscape:current-layer="layer1"
     width="128px"
     height="128px"
     inkscape:showpageshadow="false"
     inkscape:window-width="1920"
     inkscape:window-height="1028"
     inkscape:window-x="0"
     inkscape:window-y="25"
     showguides="true"
     inkscape:guide-bbox="true"
     showgrid="true"
     inkscape:window-maximized="1"
     borderlayer="true"
     inkscape:snap-global="true">
    <sodipodi:guide
       id="guide2226"
       position="32.637397,117.99844"
       orientation="horizontal" />
    <sodipodi:guide
       id="guide2230"
       position="110,57.402344"
       orientation="vertical" />
    <sodipodi:guide
       id="guide2232"
       position="33.760911"
       orientation="horizontal" />
    <sodipodi:guide
       id="guide2231"
       position="46.774696"
       orientation="horizontal" />
    <inkscape:grid
       enabled="true"
       visible="true"
       id="grid3231"
       type="xygrid"
       empspacing="8"
       snapvisiblegridlinesonly="true" />
    <sodipodi:guide
       orientation="1,0"
       position="100,67.625"
       id="guide2713" />
    <sodipodi:guide
       orientation="1,0"
       position="9,0"
       id="guide3021" />
    <sodipodi:guide
       orientation="0,1"
       position="13,6"
       id="guide3023" />
  </sodipodi:namedview>
  <defs
     id="defs4">
    <linearGradient
       inkscape:collect="always"
       xlink:href="#StandardGradient"
       id="linearGradient2428"
       gradientUnits="userSpaceOnUse"
       gradientTransform="matrix(0.9247229,0,0,1.0872097,10.939944,-2.0023588)"
       x1="11.998966"
       y1="3.6813121"
       x2="11.998966"
       y2="16.529612" />
    <inkscape:perspective
       sodipodi:type="inkscape:persp3d"
       inkscape:vp_x="0 : 11 : 1"
       inkscape:vp_y="0 : 1000 : 0"
       inkscape:vp_z="22 : 11 : 1"
       inkscape:persp3d-origin="11 : 7.3333333 : 1"
       id="perspective19" />
    <linearGradient
       id="StandardGradient"
       gradientTransform="scale(0.9219544,1.0846523)"
       x1="11.998966"
       y1="0.92195445"
       x2="11.998966"
       y2="19.387045"
       gradientUnits="userSpaceOnUse">
      <stop
         style="stop-color:#000000;stop-opacity:0.23529412;"
         offset="0"
         id="stop3283" />
      <stop
         style="stop-color:#000000;stop-opacity:0.54901963;"
         offset="1"
         id="stop2651" />
    </linearGradient>
    <linearGradient
       inkscape:collect="always"
       xlink:href="#StandardGradient"
       id="linearGradient2549"
       gradientUnits="userSpaceOnUse"
       gradientTransform="matrix(0.9247229,0,0,1.0872097,-2.0600562,0.9976422)"
       x1="11.998966"
       y1="0.92195445"
       x2="11.998966"
       y2="17.478098" />
    <linearGradient
       inkscape:collect="always"
       xlink:href="#StandardGradient"
       id="linearGradient2418"
       gradientUnits="userSpaceOnUse"
       gradientTransform="matrix(0.9247229,0,0,1.0872097,-4.0600562,-3.0023583)"
       x1="11.998966"
       y1="0.92195445"
       x2="11.998966"
       y2="17.478098" />
    <linearGradient
       inkscape:collect="always"
       xlink:href="#StandardGradient"
       id="linearGradient2422"
       gradientUnits="userSpaceOnUse"
       gradientTransform="matrix(0.9247229,0,0,1.0872097,-5.0600562,-1.0023583)"
       x1="11.998966"
       y1="0.92195445"
       x2="11.998966"
       y2="17.478098" />
    <linearGradient
       inkscape:collect="always"
       xlink:href="#StandardGradient"
       id="linearGradient2403"
       gradientUnits="userSpaceOnUse"
       gradientTransform="matrix(0.9247229,0,0,1.0872097,-4.0600562,-3.0023583)"
       x1="11.998966"
       y1="0.92195445"
       x2="11.998966"
       y2="17.478098" />
    <linearGradient
       inkscape:collect="always"
       xlink:href="#StandardGradient"
       id="linearGradient2406"
       gradientUnits="userSpaceOnUse"
       gradientTransform="matrix(0.9247229,0,0,1.0872097,-4.0600562,-3.0023583)"
       x1="11.998966"
       y1="0.92195445"
       x2="11.998966"
       y2="17.478098" />
    <linearGradient
       inkscape:collect="always"
       xlink:href="#StandardGradient"
       id="linearGradient2409"
       gradientUnits="userSpaceOnUse"
       gradientTransform="matrix(0.9247229,0,0,1.0872097,-6.0600562,-2.0023583)"
       x1="11.998966"
       y1="3.6800685"
       x2="11.998966"
       y2="15.638639" />
    <linearGradient
       inkscape:collect="always"
       xlink:href="#StandardGradient"
       id="linearGradient2416"
       gradientUnits="userSpaceOnUse"
       gradientTransform="matrix(0.9247229,0,0,1.0872097,-6.0600562,-2.0023583)"
       x1="11.998966"
       y1="2.7615263"
       x2="11.998966"
       y2="15.638639" />
    <linearGradient
       inkscape:collect="always"
       xlink:href="#StandardGradient"
       id="linearGradient2529"
       gradientUnits="userSpaceOnUse"
       gradientTransform="matrix(0.9247229,0,0,1.0872097,-4.0418814,0.9976412)"
       x1="11.998966"
       y1="3.6813121"
       x2="11.998966"
       y2="16.529612" />
    <linearGradient
       inkscape:collect="always"
       xlink:href="#StandardGradient"
       id="linearGradient2539"
       gradientUnits="userSpaceOnUse"
       gradientTransform="matrix(0.9247229,0,0,1.0872097,-6.0600562,-2.0023583)"
       x1="11.998966"
       y1="2.7615263"
       x2="11.998966"
       y2="15.638639" />
    <linearGradient
       inkscape:collect="always"
       xlink:href="#StandardGradient"
       id="linearGradient2542"
       gradientUnits="userSpaceOnUse"
       gradientTransform="matrix(0.9247229,0,0,1.0872097,-6.0600562,-2.0023583)"
       x1="11.998966"
       y1="2.7615263"
       x2="11.998966"
       y2="15.638639" />
    <linearGradient
       inkscape:collect="always"
       xlink:href="#StandardGradient"
       id="linearGradient2412"
       gradientUnits="userSpaceOnUse"
       gradientTransform="matrix(0.9247229,0,0,1.0872097,-6.0600562,-2.0023583)"
       x1="11.998966"
       y1="2.7615263"
       x2="11.998966"
       y2="15.638639" />
    <inkscape:perspective
       id="perspective2892"
       inkscape:persp3d-origin="0.5 : 0.33333333 : 1"
       inkscape:vp_z="1 : 0.5 : 1"
       inkscape:vp_y="0 : 1000 : 0"
       inkscape:vp_x="0 : 0.5 : 1"
       sodipodi:type="inkscape:persp3d" />
    <linearGradient
       inkscape:collect="always"
       xlink:href="#StandardGradient"
       id="linearGradient2942"
       gradientUnits="userSpaceOnUse"
       gradientTransform="matrix(0.9247229,0,0,1.0872097,-26.060056,-2.0023583)"
       x1="11.998966"
       y1="2.7615263"
       x2="11.998966"
       y2="15.638639" />
    <clipPath
       clipPathUnits="userSpaceOnUse"
       id="clipPath2949">
      <path
         style="fill:#ff00ff;fill-opacity:1;stroke:none;display:inline"
         d="m -20,0 0,16 16,0 0,-16 -16,0 z m 3,1 3,0 c 0.554,0 1,0.446 1,1 l 6,0 c 0.554,0 1,0.446 1,1 l -12,0 0,-1 c 0,-0.554 0.446,-1 1,-1 z m -0.5,3 4,0 6,0 1,0 C -5.669,4 -5,4.669 -5,5.5 l 0,4.5 0,1.5 c 0,0.647488 -0.396277,1.195291 -0.96875,1.40625 l 0,0.15625 -0.03125,0 0,0.4375 c 0,0.831 -0.669,1.5 -1.5,1.5 l -6,0 c -0.831,0 -1.5,-0.669 -1.5,-1.5 l 0,-0.5 -2.5,0 c -0.831,0 -1.5,-0.669 -1.5,-1.5 l 0,-1.5 0,-4.5 C -19,4.669 -18.331,4 -17.5,4 z m 5,2 C -12.777,6 -13,6.223 -13,6.5 l 0,6 c 0,0.277 0.223,0.5 0.5,0.5 l 4,0 c 0.277,0 0.5,-0.223 0.5,-0.5 l 0,-6 C -8,6.223 -8.223,6 -8.5,6 l -4,0 z"
         id="path2951" />
    </clipPath>
    <linearGradient
       inkscape:collect="always"
       xlink:href="#StandardGradient"
       id="linearGradient5012"
       gradientUnits="userSpaceOnUse"
       gradientTransform="matrix(0.9247229,0,0,1.0872097,-6.0600562,-2.0023583)"
       x1="11.998966"
       y1="2.7615263"
       x2="11.998966"
       y2="15.638639" />
    <linearGradient
       inkscape:collect="always"
       xlink:href="#StandardGradient"
       id="linearGradient5016"
       gradientUnits="userSpaceOnUse"
       gradientTransform="matrix(0.9247229,0,0,1.0872097,-6.0600562,-2.0023583)"
       x1="11.998966"
       y1="2.7615263"
       x2="11.998966"
       y2="15.638639" />
    <linearGradient
       inkscape:collect="always"
       xlink:href="#StandardGradient"
       id="linearGradient3176"
       gradientUnits="userSpaceOnUse"
       gradientTransform="matrix(0.9247229,0,0,1.0872097,-6.0600562,-2.0023583)"
       x1="11.998966"
       y1="2.7615263"
       x2="11.998966"
       y2="15.638639" />
    <linearGradient
       inkscape:collect="always"
       xlink:href="#StandardGradient"
       id="linearGradient3180"
       gradientUnits="userSpaceOnUse"
       gradientTransform="matrix(0.9247229,0,0,1.0872097,-6.0600562,-2.0023583)"
       x1="11.998966"
       y1="2.7615263"
       x2="11.998966"
       y2="15.638639" />
    <linearGradient
       inkscape:collect="always"
       xlink:href="#StandardGradient"
       id="linearGradient3789"
       gradientUnits="userSpaceOnUse"
       gradientTransform="matrix(0.9247229,0,0,1.0872097,-6.0600562,-2.0023583)"
       x1="11.998966"
       y1="2.7615263"
       x2="11.998966"
       y2="15.638639" />
    <linearGradient
       inkscape:collect="always"
       xlink:href="#StandardGradient"
       id="linearGradient3793"
       gradientUnits="userSpaceOnUse"
       gradientTransform="matrix(0.9247229,0,0,1.0872097,-6.0600562,-2.0023583)"
       x1="11.998966"
       y1="2.7615263"
       x2="11.998966"
       y2="15.638639" />
    <linearGradient
       inkscape:collect="always"
       xlink:href="#StandardGradient"
       id="linearGradient3795"
       gradientUnits="userSpaceOnUse"
       gradientTransform="matrix(0.9247229,0,0,1.0872097,-6.0600562,-2.0023583)"
       x1="11.998966"
       y1="2.7615263"
       x2="11.998966"
       y2="15.638639" />
    <radialGradient
       inkscape:collect="always"
       xlink:href="#StandardGradient"
       id="radialGradient3827"
       cx="8.0960188"
       cy="9.8249846"
       fx="8.0960188"
       fy="9.8249846"
       r="5.109375"
       gradientTransform="matrix(-2.5115999e-8,-1.3700306,-2.1529053,3.9468e-8,32.152261,21.091794)"
       gradientUnits="userSpaceOnUse" />
    <radialGradient
       inkscape:collect="always"
       xlink:href="#StandardGradient"
       id="radialGradient3916"
       gradientUnits="userSpaceOnUse"
       gradientTransform="matrix(-2.5115999e-8,-1.3700306,-2.1529053,3.9468e-8,32.152261,21.091794)"
       cx="8.0960188"
       cy="9.8249846"
       fx="8.0960188"
       fy="9.8249846"
       r="5.109375" />
    <radialGradient
       inkscape:collect="always"
       xlink:href="#StandardGradient"
       id="radialGradient3920"
       gradientUnits="userSpaceOnUse"
       gradientTransform="matrix(-2.5115999e-8,-1.3700306,-2.1529053,3.9468e-8,32.152261,21.091794)"
       cx="8.0960188"
       cy="9.8249846"
       fx="8.0960188"
       fy="9.8249846"
       r="5.109375" />
    <radialGradient
       inkscape:collect="always"
       xlink:href="#StandardGradient"
       id="radialGradient3922"
       gradientUnits="userSpaceOnUse"
       gradientTransform="matrix(-2.5115999e-8,-1.3700306,-2.1529053,3.9468e-8,32.152261,21.091794)"
       cx="8.0960188"
       cy="9.8249846"
       fx="8.0960188"
       fy="9.8249846"
       r="5.109375" />
    <radialGradient
       inkscape:collect="always"
       xlink:href="#StandardGradient"
       id="radialGradient3929"
       gradientUnits="userSpaceOnUse"
       gradientTransform="matrix(-2.5115999e-8,-1.3700306,-2.1529053,3.9468e-8,32.152261,22.091794)"
       cx="8.0960188"
       cy="9.8249846"
       fx="8.0960188"
       fy="9.8249846"
       r="5.109375" />
    <radialGradient
       inkscape:collect="always"
       xlink:href="#StandardGradient"
       id="radialGradient3931"
       gradientUnits="userSpaceOnUse"
       gradientTransform="matrix(-2.5115999e-8,-1.3700306,-2.1529053,3.9468e-8,32.152261,21.091794)"
       cx="8.0960188"
       cy="9.8249846"
       fx="8.0960188"
       fy="9.8249846"
       r="5.109375" />
    <radialGradient
       inkscape:collect="always"
       xlink:href="#StandardGradient"
       id="radialGradient3936"
       gradientUnits="userSpaceOnUse"
       gradientTransform="matrix(-2.5115999e-8,-1.3700306,-2.1529053,3.9468e-8,32.152261,22.091794)"
       cx="8.0960188"
       cy="9.8249846"
       fx="8.0960188"
       fy="9.8249846"
       r="5.109375" />
    <radialGradient
       inkscape:collect="always"
       xlink:href="#StandardGradient"
       id="radialGradient3940"
       gradientUnits="userSpaceOnUse"
       gradientTransform="matrix(-2.5115999e-8,-1.3700306,-2.1529053,3.9468e-8,32.152261,21.091794)"
       cx="8.0960188"
       cy="9.8249846"
       fx="8.0960188"
       fy="9.8249846"
       r="5.109375" />
    <radialGradient
       inkscape:collect="always"
       xlink:href="#StandardGradient"
       id="radialGradient3947"
       gradientUnits="userSpaceOnUse"
       gradientTransform="matrix(-2.5115999e-8,-1.3700306,-2.1529053,3.9468e-8,32.152261,21.091794)"
       cx="8.0960188"
       cy="9.8249846"
       fx="8.0960188"
       fy="9.8249846"
       r="5.109375" />
    <radialGradient
       inkscape:collect="always"
       xlink:href="#StandardGradient"
       id="radialGradient3951"
       gradientUnits="userSpaceOnUse"
       gradientTransform="matrix(-2.5115999e-8,-1.3700306,-2.1529053,3.9468e-8,32.152261,21.091794)"
       cx="8.0960188"
       cy="9.8249846"
       fx="8.0960188"
       fy="9.8249846"
       r="5.109375" />
    <radialGradient
       inkscape:collect="always"
       xlink:href="#StandardGradient"
       id="radialGradient3954"
       gradientUnits="userSpaceOnUse"
       gradientTransform="matrix(-2.5115999e-8,-1.3700306,-2.1529053,3.9468e-8,32.152261,21.091794)"
       cx="8.0960197"
       cy="10.753962"
       fx="8.0960197"
       fy="10.753962"
       r="5.109375" />
  </defs>
  <metadata
     id="metadata7">
    <rdf:RDF>
      <cc:Work
         rdf:about="">
        <dc:format>image/svg+xml</dc:format>
        <dc:type
           rdf:resource="http://purl.org/dc/dcmitype/StillImage" />
        <dc:title></dc:title>
      </cc:Work>
    </rdf:RDF>
  </metadata>
  <g
     style="display:inline"
     inkscape:label="Calque 1"
     id="layer1"
     inkscape:groupmode="layer">
    <path
       style="color:#000000;fill:#ffffff;fill-opacity:1;fill-rule:nonzero;stroke:none;stroke-width:0.80000000999999998;marker:none;visibility:visible;display:inline;overflow:visible;enable-background:accumulate;opacity:0.05"
       d="M 10.1875 1 A 0.98475039 0.98475039 0 0 0 9.59375 1.3125 L 4.53125 6.40625 C 4.1078385 5.6320659 3.4353936 5 2.5 5 C 1.1394275 5 0 6.1394275 0 7.5 C 0 8.8605725 1.1394275 10 2.5 10 C 3.4353936 10 4.1078385 9.3679341 4.53125 8.59375 L 9.59375 13.6875 A 0.98475039 0.98475039 0 0 0 10.96875 13.6875 L 13.09375 11.5625 A 0.98475039 0.98475039 0 0 0 13.09375 10.1875 L 12.90625 10 L 15.03125 10 A 0.98475039 0.98475039 0 0 0 16.03125 9 L 16.03125 6 A 0.98475039 0.98475039 0 0 0 15.03125 5 L 12.90625 5 L 13.09375 4.8125 A 0.98475039 0.98475039 0 0 0 13.09375 3.4375 L 10.96875 1.3125 A 0.98475039 0.98475039 0 0 0 10.28125 1 A 0.98475039 0.98475039 0 0 0 10.1875 1 z M 10.28125 2 L 12.40625 4.125 L 10.53125 6 L 15.03125 6 L 15.03125 9 L 10.53125 9 L 12.40625 10.875 L 10.28125 13 L 4.8125 7.5 L 10.28125 2 z M 2.5 6 C 3.3284271 6 4 6.6715729 4 7.5 C 4 8.3284271 3.3284271 9 2.5 9 C 1.6715729 9 1 8.3284271 1 7.5 C 1 6.6715729 1.6715729 6 2.5 6 z "
       id="path3949" />
    <path
       style="color:#000000;fill:url(#radialGradient3954);fill-opacity:1;fill-rule:nonzero;stroke:none;stroke-width:0.80000000999999998;marker:none;visibility:visible;display:inline;overflow:visible;enable-background:accumulate"
       d="M 10.28125 2 L 4.8125 7.5 L 10.28125 13 L 12.40625 10.875 L 10.53125 9 L 15.03125 9 L 15.03125 6 L 10.53125 6 L 12.40625 4.125 L 10.28125 2 z M 2.5 6 C 1.6715729 6 1 6.6715729 1 7.5 C 1 8.3284271 1.6715729 9 2.5 9 C 3.3284271 9 4 8.3284271 4 7.5 C 4 6.6715729 3.3284271 6 2.5 6 z "
       id="rect3042" />
    <path
       style="color:#000000;fill:#000000;fill-opacity:1;fill-rule:nonzero;stroke:none;stroke-width:0.80000000999999998;marker:none;visibility:visible;display:inline;overflow:visible;enable-background:accumulate;opacity:0.3"
       d="M 10.28125 2 L 4.8125 7.5 L 10.28125 13 L 12.40625 10.875 L 10.53125 9 L 15.03125 9 L 15.03125 6 L 10.53125 6 L 12.40625 4.125 L 10.28125 2 z M 10.28125 2.5 L 11.90625 4.125 L 10.28125 5.75 A 0.3597472 0.3597472 0 0 0 10.53125 6.375 L 14.65625 6.375 L 14.65625 8.625 L 10.53125 8.625 A 0.3597472 0.3597472 0 0 0 10.28125 8.71875 A 0.3597472 0.3597472 0 0 0 10.28125 9.25 L 11.90625 10.875 L 10.28125 12.5 L 5.3125 7.5 L 10.28125 2.5 z M 2.5 6 C 1.6715729 6 1 6.6715729 1 7.5 C 1 8.3284271 1.6715729 9 2.5 9 C 3.3284271 9 4 8.3284271 4 7.5 C 4 6.6715729 3.3284271 6 2.5 6 z M 2.5 6.375 C 3.1340247 6.375 3.625 6.8659753 3.625 7.5 C 3.625 8.1340247 3.1340247 8.625 2.5 8.625 C 1.8659753 8.625 1.375 8.1340247 1.375 7.5 C 1.375 6.8659753 1.8659753 6.375 2.5 6.375 z "
       id="path3912" />
    <path
       style="color:#000000;fill:#000000;fill-opacity:1;fill-rule:nonzero;stroke:none;stroke-width:0.80000000999999998;marker:none;visibility:visible;display:inline;overflow:visible;enable-background:accumulate;opacity:0.3"
       d="M 10.28125 2 L 4.8125 7.5 L 5.3125 8 L 10.28125 3 L 11.90625 4.625 L 12.40625 4.125 L 10.28125 2 z M 2.5 6 C 1.6715729 6 1 6.6715729 1 7.5 C 1 7.672589 1.040108 7.845681 1.09375 8 C 1.2975898 7.413588 1.8441619 7 2.5 7 C 3.1558381 7 3.7024102 7.413588 3.90625 8 C 3.959892 7.845681 4 7.672589 4 7.5 C 4 6.6715729 3.3284271 6 2.5 6 z M 11.53125 6 L 10.53125 7 L 15.03125 7 L 15.03125 6 L 11.53125 6 z M 10.53125 10 L 11.90625 11.375 L 12.40625 10.875 L 11.53125 10 L 10.53125 10 z "
       id="path3925" />
    <path
       style="color:#000000;fill:#ffffff;fill-opacity:1;fill-rule:nonzero;stroke:none;stroke-width:0.80000000999999998;marker:none;visibility:visible;display:inline;overflow:visible;enable-background:accumulate;opacity:0.2"
       d="M 11.90625 4.625 L 10.53125 6 L 11.53125 6 L 12.40625 5.125 L 11.90625 4.625 z M 1.09375 8 C 1.040108 8.154319 1 8.327411 1 8.5 C 1 9.3284271 1.6715729 10 2.5 10 C 3.3284271 10 4 9.3284271 4 8.5 C 4 8.327411 3.959892 8.154319 3.90625 8 C 3.7024102 8.586412 3.1558381 9 2.5 9 C 1.8441619 9 1.2975898 8.586412 1.09375 8 z M 5.3125 8 L 4.8125 8.5 L 10.28125 14 L 12.40625 11.875 L 11.90625 11.375 L 10.28125 13 L 5.3125 8 z M 10.53125 9 L 11.53125 10 L 15.03125 10 L 15.03125 9 L 10.53125 9 z "
       id="path3934" />
  </g>
</svg>
