<?xml version="1.0" encoding="UTF-8" standalone="no"?>
<!-- Created with Inkscape (http://www.inkscape.org/) -->

<svg
   xmlns:dc="http://purl.org/dc/elements/1.1/"
   xmlns:cc="http://creativecommons.org/ns#"
   xmlns:rdf="http://www.w3.org/1999/02/22-rdf-syntax-ns#"
   xmlns:svg="http://www.w3.org/2000/svg"
   xmlns="http://www.w3.org/2000/svg"
   xmlns:xlink="http://www.w3.org/1999/xlink"
   xmlns:sodipodi="http://sodipodi.sourceforge.net/DTD/sodipodi-0.dtd"
   xmlns:inkscape="http://www.inkscape.org/namespaces/inkscape"
   width="16"
   height="16"
   id="svg2"
   sodipodi:version="0.32"
   inkscape:version="0.48.1 r9760"
   version="1.0"
   sodipodi:docname="go-last.svg"
   inkscape:output_extension="org.inkscape.output.svg.inkscape"
   inkscape:export-filename="/home/matt/.icons/Sirocco/scalable/mimetypes/text-plain.png"
   inkscape:export-xdpi="90"
   inkscape:export-ydpi="90"
   sodipodi:modified="true"
   style="display:inline">
  <sodipodi:namedview
     id="base"
     pagecolor="#838383"
     bordercolor="#cc0000"
     borderopacity="1"
     inkscape:pageopacity="1"
     inkscape:pageshadow="2"
     inkscape:zoom="25.4708"
     inkscape:cx="1.7729548"
     inkscape:cy="7.5428033"
     inkscape:document-units="px"
     inkscape:current-layer="layer1"
     width="128px"
     height="128px"
     inkscape:showpageshadow="false"
     inkscape:window-width="1920"
     inkscape:window-height="1028"
     inkscape:window-x="0"
     inkscape:window-y="25"
     showguides="true"
     inkscape:guide-bbox="true"
     showgrid="true"
     inkscape:window-maximized="1"
     borderlayer="true"
     inkscape:snap-global="true">
    <sodipodi:guide
       id="guide2226"
       position="32.637397,117.99844"
       orientation="horizontal" />
    <sodipodi:guide
       id="guide2230"
       position="110,57.402344"
       orientation="vertical" />
    <sodipodi:guide
       id="guide2232"
       position="33.760911"
       orientation="horizontal" />
    <sodipodi:guide
       id="guide2231"
       position="46.774696"
       orientation="horizontal" />
    <inkscape:grid
       enabled="true"
       visible="true"
       id="grid3231"
       type="xygrid"
       empspacing="8"
       snapvisiblegridlinesonly="true" />
    <sodipodi:guide
       orientation="1,0"
       position="100,67.625"
       id="guide2713" />
    <sodipodi:guide
       orientation="1,0"
       position="9,0"
       id="guide3021" />
    <sodipodi:guide
       orientation="0,1"
       position="13,6"
       id="guide3023" />
  </sodipodi:namedview>
  <defs
     id="defs4">
    <linearGradient
       inkscape:collect="always"
       xlink:href="#StandardGradient"
       id="linearGradient2428"
       gradientUnits="userSpaceOnUse"
       gradientTransform="matrix(0.9247229,0,0,1.0872097,10.939944,-2.0023588)"
       x1="11.998966"
       y1="3.6813121"
       x2="11.998966"
       y2="16.529612" />
    <inkscape:perspective
       sodipodi:type="inkscape:persp3d"
       inkscape:vp_x="0 : 11 : 1"
       inkscape:vp_y="0 : 1000 : 0"
       inkscape:vp_z="22 : 11 : 1"
       inkscape:persp3d-origin="11 : 7.3333333 : 1"
       id="perspective19" />
    <linearGradient
       id="StandardGradient"
       gradientTransform="scale(0.9219544,1.0846523)"
       x1="11.998966"
       y1="0.92195445"
       x2="11.998966"
       y2="19.387045"
       gradientUnits="userSpaceOnUse">
      <stop
         style="stop-color:#000000;stop-opacity:0.23529412;"
         offset="0"
         id="stop3283" />
      <stop
         style="stop-color:#000000;stop-opacity:0.54901963;"
         offset="1"
         id="stop2651" />
    </linearGradient>
    <linearGradient
       inkscape:collect="always"
       xlink:href="#StandardGradient"
       id="linearGradient2549"
       gradientUnits="userSpaceOnUse"
       gradientTransform="matrix(0.9247229,0,0,1.0872097,-2.0600562,0.9976422)"
       x1="11.998966"
       y1="0.92195445"
       x2="11.998966"
       y2="17.478098" />
    <linearGradient
       inkscape:collect="always"
       xlink:href="#StandardGradient"
       id="linearGradient2418"
       gradientUnits="userSpaceOnUse"
       gradientTransform="matrix(0.9247229,0,0,1.0872097,-4.0600562,-3.0023583)"
       x1="11.998966"
       y1="0.92195445"
       x2="11.998966"
       y2="17.478098" />
    <linearGradient
       inkscape:collect="always"
       xlink:href="#StandardGradient"
       id="linearGradient2422"
       gradientUnits="userSpaceOnUse"
       gradientTransform="matrix(0.9247229,0,0,1.0872097,-5.0600562,-1.0023583)"
       x1="11.998966"
       y1="0.92195445"
       x2="11.998966"
       y2="17.478098" />
    <linearGradient
       inkscape:collect="always"
       xlink:href="#StandardGradient"
       id="linearGradient2403"
       gradientUnits="userSpaceOnUse"
       gradientTransform="matrix(0.9247229,0,0,1.0872097,-4.0600562,-3.0023583)"
       x1="11.998966"
       y1="0.92195445"
       x2="11.998966"
       y2="17.478098" />
    <linearGradient
       inkscape:collect="always"
       xlink:href="#StandardGradient"
       id="linearGradient2406"
       gradientUnits="userSpaceOnUse"
       gradientTransform="matrix(0.9247229,0,0,1.0872097,-4.0600562,-3.0023583)"
       x1="11.998966"
       y1="0.92195445"
       x2="11.998966"
       y2="17.478098" />
    <linearGradient
       inkscape:collect="always"
       xlink:href="#StandardGradient"
       id="linearGradient2409"
       gradientUnits="userSpaceOnUse"
       gradientTransform="matrix(0.9247229,0,0,1.0872097,-6.0600562,-2.0023583)"
       x1="11.998966"
       y1="3.6800685"
       x2="11.998966"
       y2="15.638639" />
    <linearGradient
       inkscape:collect="always"
       xlink:href="#StandardGradient"
       id="linearGradient2416"
       gradientUnits="userSpaceOnUse"
       gradientTransform="matrix(0.9247229,0,0,1.0872097,-6.0600562,-2.0023583)"
       x1="11.998966"
       y1="2.7615263"
       x2="11.998966"
       y2="15.638639" />
    <linearGradient
       inkscape:collect="always"
       xlink:href="#StandardGradient"
       id="linearGradient2529"
       gradientUnits="userSpaceOnUse"
       gradientTransform="matrix(0.9247229,0,0,1.0872097,-4.0418814,0.9976412)"
       x1="11.998966"
       y1="3.6813121"
       x2="11.998966"
       y2="16.529612" />
    <linearGradient
       inkscape:collect="always"
       xlink:href="#StandardGradient"
       id="linearGradient2539"
       gradientUnits="userSpaceOnUse"
       gradientTransform="matrix(0.9247229,0,0,1.0872097,-6.0600562,-2.0023583)"
       x1="11.998966"
       y1="2.7615263"
       x2="11.998966"
       y2="15.638639" />
    <linearGradient
       inkscape:collect="always"
       xlink:href="#StandardGradient"
       id="linearGradient2542"
       gradientUnits="userSpaceOnUse"
       gradientTransform="matrix(0.9247229,0,0,1.0872097,-6.0600562,-2.0023583)"
       x1="11.998966"
       y1="2.7615263"
       x2="11.998966"
       y2="15.638639" />
    <linearGradient
       inkscape:collect="always"
       xlink:href="#StandardGradient"
       id="linearGradient2412"
       gradientUnits="userSpaceOnUse"
       gradientTransform="matrix(0.9247229,0,0,1.0872097,-6.0600562,-2.0023583)"
       x1="11.998966"
       y1="2.7615263"
       x2="11.998966"
       y2="15.638639" />
    <inkscape:perspective
       id="perspective2892"
       inkscape:persp3d-origin="0.5 : 0.33333333 : 1"
       inkscape:vp_z="1 : 0.5 : 1"
       inkscape:vp_y="0 : 1000 : 0"
       inkscape:vp_x="0 : 0.5 : 1"
       sodipodi:type="inkscape:persp3d" />
    <linearGradient
       inkscape:collect="always"
       xlink:href="#StandardGradient"
       id="linearGradient2942"
       gradientUnits="userSpaceOnUse"
       gradientTransform="matrix(0.9247229,0,0,1.0872097,-26.060056,-2.0023583)"
       x1="11.998966"
       y1="2.7615263"
       x2="11.998966"
       y2="15.638639" />
    <clipPath
       clipPathUnits="userSpaceOnUse"
       id="clipPath2949">
      <path
         style="fill:#ff00ff;fill-opacity:1;stroke:none;display:inline"
         d="m -20,0 0,16 16,0 0,-16 -16,0 z m 3,1 3,0 c 0.554,0 1,0.446 1,1 l 6,0 c 0.554,0 1,0.446 1,1 l -12,0 0,-1 c 0,-0.554 0.446,-1 1,-1 z m -0.5,3 4,0 6,0 1,0 C -5.669,4 -5,4.669 -5,5.5 l 0,4.5 0,1.5 c 0,0.647488 -0.396277,1.195291 -0.96875,1.40625 l 0,0.15625 -0.03125,0 0,0.4375 c 0,0.831 -0.669,1.5 -1.5,1.5 l -6,0 c -0.831,0 -1.5,-0.669 -1.5,-1.5 l 0,-0.5 -2.5,0 c -0.831,0 -1.5,-0.669 -1.5,-1.5 l 0,-1.5 0,-4.5 C -19,4.669 -18.331,4 -17.5,4 z m 5,2 C -12.777,6 -13,6.223 -13,6.5 l 0,6 c 0,0.277 0.223,0.5 0.5,0.5 l 4,0 c 0.277,0 0.5,-0.223 0.5,-0.5 l 0,-6 C -8,6.223 -8.223,6 -8.5,6 l -4,0 z"
         id="path2951" />
    </clipPath>
    <linearGradient
       inkscape:collect="always"
       xlink:href="#StandardGradient"
       id="linearGradient5012"
       gradientUnits="userSpaceOnUse"
       gradientTransform="matrix(0.9247229,0,0,1.0872097,-6.0600562,-2.0023583)"
       x1="11.998966"
       y1="2.7615263"
       x2="11.998966"
       y2="15.638639" />
    <linearGradient
       inkscape:collect="always"
       xlink:href="#StandardGradient"
       id="linearGradient5016"
       gradientUnits="userSpaceOnUse"
       gradientTransform="matrix(0.9247229,0,0,1.0872097,-6.0600562,-2.0023583)"
       x1="11.998966"
       y1="2.7615263"
       x2="11.998966"
       y2="15.638639" />
    <linearGradient
       inkscape:collect="always"
       xlink:href="#StandardGradient"
       id="linearGradient3176"
       gradientUnits="userSpaceOnUse"
       gradientTransform="matrix(0.9247229,0,0,1.0872097,-6.0600562,-2.0023583)"
       x1="11.998966"
       y1="2.7615263"
       x2="11.998966"
       y2="15.638639" />
    <linearGradient
       inkscape:collect="always"
       xlink:href="#StandardGradient"
       id="linearGradient3180"
       gradientUnits="userSpaceOnUse"
       gradientTransform="matrix(0.9247229,0,0,1.0872097,-6.0600562,-2.0023583)"
       x1="11.998966"
       y1="2.7615263"
       x2="11.998966"
       y2="15.638639" />
    <linearGradient
       inkscape:collect="always"
       xlink:href="#StandardGradient"
       id="linearGradient3789"
       gradientUnits="userSpaceOnUse"
       gradientTransform="matrix(0.9247229,0,0,1.0872097,-6.0600562,-2.0023583)"
       x1="11.998966"
       y1="2.7615263"
       x2="11.998966"
       y2="15.638639" />
    <linearGradient
       inkscape:collect="always"
       xlink:href="#StandardGradient"
       id="linearGradient3793"
       gradientUnits="userSpaceOnUse"
       gradientTransform="matrix(0.9247229,0,0,1.0872097,-6.0600562,-2.0023583)"
       x1="11.998966"
       y1="2.7615263"
       x2="11.998966"
       y2="15.638639" />
    <linearGradient
       inkscape:collect="always"
       xlink:href="#StandardGradient"
       id="linearGradient3795"
       gradientUnits="userSpaceOnUse"
       gradientTransform="matrix(0.9247229,0,0,1.0872097,-6.0600562,-2.0023583)"
       x1="11.998966"
       y1="2.7615263"
       x2="11.998966"
       y2="15.638639" />
    <radialGradient
       inkscape:collect="always"
       xlink:href="#StandardGradient"
       id="radialGradient3954"
       gradientUnits="userSpaceOnUse"
       gradientTransform="matrix(2.1529054,-3.8457264e-8,2.4472801e-8,1.3700305,-8.4299652,-5.9860192)"
       cx="8.0960197"
       cy="11.668367"
       fx="8.0960197"
       fy="11.668367"
       r="5.109375" />
  </defs>
  <metadata
     id="metadata7">
    <rdf:RDF>
      <cc:Work
         rdf:about="">
        <dc:format>image/svg+xml</dc:format>
        <dc:type
           rdf:resource="http://purl.org/dc/dcmitype/StillImage" />
        <dc:title></dc:title>
      </cc:Work>
    </rdf:RDF>
  </metadata>
  <g
     style="display:inline"
     inkscape:label="Calque 1"
     id="layer1"
     inkscape:groupmode="layer">
    <path
       style="opacity:0.05;color:#000000;fill:#ffffff;fill-opacity:1;fill-rule:nonzero;stroke:none;stroke-width:0.80000001;marker:none;visibility:visible;display:inline;overflow:visible;enable-background:accumulate"
       d="m 5.8438699,1 a 0.98475039,0.98475039 0 0 1 0.59375,0.3125 L 11.50012,6.40625 C 11.923531,5.6320659 12.595976,5 13.53137,5 c 1.360572,0 2.5,1.1394275 2.5,2.5 0,1.3605725 -1.139428,2.5 -2.5,2.5 -0.935394,0 -1.607839,-0.6320659 -2.03125,-1.40625 L 6.4376199,13.6875 a 0.98475039,0.98475039 0 0 1 -1.375,0 l -2.125,-2.125 a 0.98475039,0.98475039 0 0 1 0,-1.375 l 0.1875,-0.1875 -2.125,0 A 0.98475039,0.98475039 0 0 1 1.1994801e-4,9 l 0,-3 A 0.98475039,0.98475039 0 0 1 1.0001199,5 l 2.125,0 -0.1875,-0.1875 a 0.98475039,0.98475039 0 0 1 0,-1.375 l 2.125,-2.125 A 0.98475039,0.98475039 0 0 1 5.7501199,1 a 0.98475039,0.98475039 0 0 1 0.09375,0 z m -0.09375,1 -2.125,2.125 1.875,1.875 -4.5,0 0,3 4.5,0 -1.875,1.875 2.125,2.125 L 11.21887,7.5 5.7501199,2 z M 13.53137,6 c -0.828427,0 -1.5,0.6715729 -1.5,1.5 0,0.8284271 0.671573,1.5 1.5,1.5 0.828427,0 1.5,-0.6715729 1.5,-1.5 0,-0.8284271 -0.671573,-1.5 -1.5,-1.5 z"
       id="path3949"
       inkscape:connector-curvature="0" />
    <path
       style="color:#000000;fill:url(#radialGradient3954);fill-opacity:1;fill-rule:nonzero;stroke:none;stroke-width:0.80000000999999998;marker:none;visibility:visible;display:inline;overflow:visible;enable-background:accumulate"
       d="M 5.7501199,2 11.21887,7.5 5.7501199,13 l -2.125,-2.125 1.875,-1.875 -4.5,0 0,-3 4.5,0 -1.875,-1.875 2.125,-2.125 z M 13.53137,6 c 0.828427,0 1.5,0.6715729 1.5,1.5 0,0.8284271 -0.671573,1.5 -1.5,1.5 -0.828427,0 -1.5,-0.6715729 -1.5,-1.5 0,-0.8284271 0.671573,-1.5 1.5,-1.5 z"
       id="rect3042"
       inkscape:connector-curvature="0" />
    <path
       style="opacity:0.3;color:#000000;fill:#000000;fill-opacity:1;fill-rule:nonzero;stroke:none;stroke-width:0.80000001;marker:none;visibility:visible;display:inline;overflow:visible;enable-background:accumulate"
       d="M 5.7501199,2 11.21887,7.5 5.7501199,13 l -2.125,-2.125 1.875,-1.875 -4.5,0 0,-3 4.5,0 -1.875,-1.875 2.125,-2.125 z m 0,0.5 -1.625,1.625 1.625,1.625 a 0.3597472,0.3597472 0 0 1 -0.25,0.625 l -4.125,0 0,2.25 4.125,0 a 0.3597472,0.3597472 0 0 1 0.25,0.09375 0.3597472,0.3597472 0 0 1 0,0.53125 l -1.625,1.625 1.625,1.625 4.9687501,-5 -4.9687501,-5 z M 13.53137,6 c 0.828427,0 1.5,0.6715729 1.5,1.5 0,0.8284271 -0.671573,1.5 -1.5,1.5 -0.828427,0 -1.5,-0.6715729 -1.5,-1.5 0,-0.8284271 0.671573,-1.5 1.5,-1.5 z m 0,0.375 c -0.634025,0 -1.125,0.4909753 -1.125,1.125 0,0.6340247 0.490975,1.125 1.125,1.125 0.634025,0 1.125,-0.4909753 1.125,-1.125 0,-0.6340247 -0.490975,-1.125 -1.125,-1.125 z"
       id="path3912"
       inkscape:connector-curvature="0" />
    <path
       style="opacity:0.3;color:#000000;fill:#000000;fill-opacity:1;fill-rule:nonzero;stroke:none;stroke-width:0.80000001;marker:none;visibility:visible;display:inline;overflow:visible;enable-background:accumulate"
       d="m 5.7501199,2 5.4687501,5.5 -0.5,0.5 -4.9687501,-5 -1.625,1.625 -0.5,-0.5 2.125,-2.125 z M 13.53137,6 c 0.828427,0 1.5,0.6715729 1.5,1.5 0,0.172589 -0.04011,0.345681 -0.09375,0.5 C 14.73378,7.413588 14.187208,7 13.53137,7 12.875532,7 12.32896,7.413588 12.12512,8 12.071478,7.845681 12.03137,7.672589 12.03137,7.5 c 0,-0.8284271 0.671573,-1.5 1.5,-1.5 z m -9.0312501,0 1,1 -4.5,0 0,-1 3.5,0 z m 1,4 -1.375,1.375 -0.5,-0.5 0.875,-0.875 1,0 z"
       id="path3925"
       inkscape:connector-curvature="0" />
    <path
       style="opacity:0.2;color:#000000;fill:#ffffff;fill-opacity:1;fill-rule:nonzero;stroke:none;stroke-width:0.80000001;marker:none;visibility:visible;display:inline;overflow:visible;enable-background:accumulate"
       d="m 4.1251199,4.625 1.375,1.375 -1,0 -0.875,-0.875 0.5,-0.5 z M 14.93762,8 c 0.05364,0.154319 0.09375,0.327411 0.09375,0.5 0,0.8284271 -0.671573,1.5 -1.5,1.5 -0.828427,0 -1.5,-0.6715729 -1.5,-1.5 0,-0.172589 0.04011,-0.345681 0.09375,-0.5 0.20384,0.586412 0.750412,1 1.40625,1 0.655838,0 1.20241,-0.413588 1.40625,-1 z m -4.21875,0 0.5,0.5 -5.4687501,5.5 -2.125,-2.125 0.5,-0.5 1.625,1.625 4.9687501,-5 z m -5.2187501,1 -1,1 -3.5,0 0,-1 4.5,0 z"
       id="path3934"
       inkscape:connector-curvature="0" />
  </g>
</svg>
