<?xml version="1.0" encoding="UTF-8" standalone="no"?>
<!-- Created with Inkscape (http://www.inkscape.org/) -->

<svg
   xmlns:dc="http://purl.org/dc/elements/1.1/"
   xmlns:cc="http://creativecommons.org/ns#"
   xmlns:rdf="http://www.w3.org/1999/02/22-rdf-syntax-ns#"
   xmlns:svg="http://www.w3.org/2000/svg"
   xmlns="http://www.w3.org/2000/svg"
   xmlns:xlink="http://www.w3.org/1999/xlink"
   xmlns:sodipodi="http://sodipodi.sourceforge.net/DTD/sodipodi-0.dtd"
   xmlns:inkscape="http://www.inkscape.org/namespaces/inkscape"
   width="16"
   height="16"
   id="svg2"
   sodipodi:version="0.32"
   inkscape:version="0.48.1 r9760"
   version="1.0"
   sodipodi:docname="go-top.svg"
   inkscape:output_extension="org.inkscape.output.svg.inkscape"
   inkscape:export-filename="/home/matt/.icons/Sirocco/scalable/mimetypes/text-plain.png"
   inkscape:export-xdpi="90"
   inkscape:export-ydpi="90"
   sodipodi:modified="true"
   style="display:inline">
  <sodipodi:namedview
     id="base"
     pagecolor="#838383"
     bordercolor="#cc0000"
     borderopacity="1"
     inkscape:pageopacity="1"
     inkscape:pageshadow="2"
     inkscape:zoom="25.4708"
     inkscape:cx="-4.9013546"
     inkscape:cy="7.5428033"
     inkscape:document-units="px"
     inkscape:current-layer="layer1"
     width="128px"
     height="128px"
     inkscape:showpageshadow="false"
     inkscape:window-width="1920"
     inkscape:window-height="1028"
     inkscape:window-x="0"
     inkscape:window-y="25"
     showguides="true"
     inkscape:guide-bbox="true"
     showgrid="true"
     inkscape:window-maximized="1"
     borderlayer="true"
     inkscape:snap-global="true">
    <sodipodi:guide
       id="guide2226"
       position="32.637397,117.99844"
       orientation="horizontal" />
    <sodipodi:guide
       id="guide2230"
       position="110,57.402344"
       orientation="vertical" />
    <sodipodi:guide
       id="guide2232"
       position="33.760911"
       orientation="horizontal" />
    <sodipodi:guide
       id="guide2231"
       position="46.774696"
       orientation="horizontal" />
    <inkscape:grid
       enabled="true"
       visible="true"
       id="grid3231"
       type="xygrid"
       empspacing="8"
       snapvisiblegridlinesonly="true" />
    <sodipodi:guide
       orientation="1,0"
       position="100,67.625"
       id="guide2713" />
    <sodipodi:guide
       orientation="1,0"
       position="9,6"
       id="guide3021" />
    <sodipodi:guide
       orientation="0,1"
       position="13,6"
       id="guide3023" />
  </sodipodi:namedview>
  <defs
     id="defs4">
    <linearGradient
       inkscape:collect="always"
       xlink:href="#StandardGradient"
       id="linearGradient2428"
       gradientUnits="userSpaceOnUse"
       gradientTransform="matrix(0.9247229,0,0,1.0872097,10.939944,-2.0023588)"
       x1="11.998966"
       y1="3.6813121"
       x2="11.998966"
       y2="16.529612" />
    <inkscape:perspective
       sodipodi:type="inkscape:persp3d"
       inkscape:vp_x="0 : 11 : 1"
       inkscape:vp_y="0 : 1000 : 0"
       inkscape:vp_z="22 : 11 : 1"
       inkscape:persp3d-origin="11 : 7.3333333 : 1"
       id="perspective19" />
    <linearGradient
       id="StandardGradient"
       gradientTransform="scale(0.9219544,1.0846523)"
       x1="11.998966"
       y1="0.92195445"
       x2="11.998966"
       y2="19.387045"
       gradientUnits="userSpaceOnUse">
      <stop
         style="stop-color:#000000;stop-opacity:0.23529412;"
         offset="0"
         id="stop3283" />
      <stop
         style="stop-color:#000000;stop-opacity:0.54901963;"
         offset="1"
         id="stop2651" />
    </linearGradient>
    <linearGradient
       inkscape:collect="always"
       xlink:href="#StandardGradient"
       id="linearGradient2549"
       gradientUnits="userSpaceOnUse"
       gradientTransform="matrix(0.9247229,0,0,1.0872097,-2.0600562,0.9976422)"
       x1="11.998966"
       y1="0.92195445"
       x2="11.998966"
       y2="17.478098" />
    <linearGradient
       inkscape:collect="always"
       xlink:href="#StandardGradient"
       id="linearGradient2418"
       gradientUnits="userSpaceOnUse"
       gradientTransform="matrix(0.9247229,0,0,1.0872097,-4.0600562,-3.0023583)"
       x1="11.998966"
       y1="0.92195445"
       x2="11.998966"
       y2="17.478098" />
    <linearGradient
       inkscape:collect="always"
       xlink:href="#StandardGradient"
       id="linearGradient2422"
       gradientUnits="userSpaceOnUse"
       gradientTransform="matrix(0.9247229,0,0,1.0872097,-5.0600562,-1.0023583)"
       x1="11.998966"
       y1="0.92195445"
       x2="11.998966"
       y2="17.478098" />
    <linearGradient
       inkscape:collect="always"
       xlink:href="#StandardGradient"
       id="linearGradient2403"
       gradientUnits="userSpaceOnUse"
       gradientTransform="matrix(0.9247229,0,0,1.0872097,-4.0600562,-3.0023583)"
       x1="11.998966"
       y1="0.92195445"
       x2="11.998966"
       y2="17.478098" />
    <linearGradient
       inkscape:collect="always"
       xlink:href="#StandardGradient"
       id="linearGradient2406"
       gradientUnits="userSpaceOnUse"
       gradientTransform="matrix(0.9247229,0,0,1.0872097,-4.0600562,-3.0023583)"
       x1="11.998966"
       y1="0.92195445"
       x2="11.998966"
       y2="17.478098" />
    <linearGradient
       inkscape:collect="always"
       xlink:href="#StandardGradient"
       id="linearGradient2409"
       gradientUnits="userSpaceOnUse"
       gradientTransform="matrix(0.9247229,0,0,1.0872097,-6.0600562,-2.0023583)"
       x1="11.998966"
       y1="3.6800685"
       x2="11.998966"
       y2="15.638639" />
    <linearGradient
       inkscape:collect="always"
       xlink:href="#StandardGradient"
       id="linearGradient2416"
       gradientUnits="userSpaceOnUse"
       gradientTransform="matrix(0.9247229,0,0,1.0872097,-6.0600562,-2.0023583)"
       x1="11.998966"
       y1="2.7615263"
       x2="11.998966"
       y2="15.638639" />
    <linearGradient
       inkscape:collect="always"
       xlink:href="#StandardGradient"
       id="linearGradient2529"
       gradientUnits="userSpaceOnUse"
       gradientTransform="matrix(0.9247229,0,0,1.0872097,-4.0418814,0.9976412)"
       x1="11.998966"
       y1="3.6813121"
       x2="11.998966"
       y2="16.529612" />
    <linearGradient
       inkscape:collect="always"
       xlink:href="#StandardGradient"
       id="linearGradient2539"
       gradientUnits="userSpaceOnUse"
       gradientTransform="matrix(0.9247229,0,0,1.0872097,-6.0600562,-2.0023583)"
       x1="11.998966"
       y1="2.7615263"
       x2="11.998966"
       y2="15.638639" />
    <linearGradient
       inkscape:collect="always"
       xlink:href="#StandardGradient"
       id="linearGradient2542"
       gradientUnits="userSpaceOnUse"
       gradientTransform="matrix(0.9247229,0,0,1.0872097,-6.0600562,-2.0023583)"
       x1="11.998966"
       y1="2.7615263"
       x2="11.998966"
       y2="15.638639" />
    <linearGradient
       inkscape:collect="always"
       xlink:href="#StandardGradient"
       id="linearGradient2412"
       gradientUnits="userSpaceOnUse"
       gradientTransform="matrix(0.9247229,0,0,1.0872097,-6.0600562,-2.0023583)"
       x1="11.998966"
       y1="2.7615263"
       x2="11.998966"
       y2="15.638639" />
    <inkscape:perspective
       id="perspective2892"
       inkscape:persp3d-origin="0.5 : 0.33333333 : 1"
       inkscape:vp_z="1 : 0.5 : 1"
       inkscape:vp_y="0 : 1000 : 0"
       inkscape:vp_x="0 : 0.5 : 1"
       sodipodi:type="inkscape:persp3d" />
    <linearGradient
       inkscape:collect="always"
       xlink:href="#StandardGradient"
       id="linearGradient2942"
       gradientUnits="userSpaceOnUse"
       gradientTransform="matrix(0.9247229,0,0,1.0872097,-26.060056,-2.0023583)"
       x1="11.998966"
       y1="2.7615263"
       x2="11.998966"
       y2="15.638639" />
    <clipPath
       clipPathUnits="userSpaceOnUse"
       id="clipPath2949">
      <path
         style="fill:#ff00ff;fill-opacity:1;stroke:none;display:inline"
         d="m -20,0 0,16 16,0 0,-16 -16,0 z m 3,1 3,0 c 0.554,0 1,0.446 1,1 l 6,0 c 0.554,0 1,0.446 1,1 l -12,0 0,-1 c 0,-0.554 0.446,-1 1,-1 z m -0.5,3 4,0 6,0 1,0 C -5.669,4 -5,4.669 -5,5.5 l 0,4.5 0,1.5 c 0,0.647488 -0.396277,1.195291 -0.96875,1.40625 l 0,0.15625 -0.03125,0 0,0.4375 c 0,0.831 -0.669,1.5 -1.5,1.5 l -6,0 c -0.831,0 -1.5,-0.669 -1.5,-1.5 l 0,-0.5 -2.5,0 c -0.831,0 -1.5,-0.669 -1.5,-1.5 l 0,-1.5 0,-4.5 C -19,4.669 -18.331,4 -17.5,4 z m 5,2 C -12.777,6 -13,6.223 -13,6.5 l 0,6 c 0,0.277 0.223,0.5 0.5,0.5 l 4,0 c 0.277,0 0.5,-0.223 0.5,-0.5 l 0,-6 C -8,6.223 -8.223,6 -8.5,6 l -4,0 z"
         id="path2951" />
    </clipPath>
    <linearGradient
       inkscape:collect="always"
       xlink:href="#StandardGradient"
       id="linearGradient5012"
       gradientUnits="userSpaceOnUse"
       gradientTransform="matrix(0.9247229,0,0,1.0872097,-6.0600562,-2.0023583)"
       x1="11.998966"
       y1="2.7615263"
       x2="11.998966"
       y2="15.638639" />
    <linearGradient
       inkscape:collect="always"
       xlink:href="#StandardGradient"
       id="linearGradient5016"
       gradientUnits="userSpaceOnUse"
       gradientTransform="matrix(0.9247229,0,0,1.0872097,-6.0600562,-2.0023583)"
       x1="11.998966"
       y1="2.7615263"
       x2="11.998966"
       y2="15.638639" />
    <linearGradient
       inkscape:collect="always"
       xlink:href="#StandardGradient"
       id="linearGradient3176"
       gradientUnits="userSpaceOnUse"
       gradientTransform="matrix(0.9247229,0,0,1.0872097,-6.0600562,-2.0023583)"
       x1="11.998966"
       y1="2.7615263"
       x2="11.998966"
       y2="15.638639" />
    <linearGradient
       inkscape:collect="always"
       xlink:href="#StandardGradient"
       id="linearGradient3180"
       gradientUnits="userSpaceOnUse"
       gradientTransform="matrix(0.9247229,0,0,1.0872097,-6.0600562,-2.0023583)"
       x1="11.998966"
       y1="2.7615263"
       x2="11.998966"
       y2="15.638639" />
    <linearGradient
       inkscape:collect="always"
       xlink:href="#StandardGradient"
       id="linearGradient3789"
       gradientUnits="userSpaceOnUse"
       gradientTransform="matrix(0.9247229,0,0,1.0872097,-6.0600562,-2.0023583)"
       x1="11.998966"
       y1="2.7615263"
       x2="11.998966"
       y2="15.638639" />
    <linearGradient
       inkscape:collect="always"
       xlink:href="#StandardGradient"
       id="linearGradient3793"
       gradientUnits="userSpaceOnUse"
       gradientTransform="matrix(0.9247229,0,0,1.0872097,-6.0600562,-2.0023583)"
       x1="11.998966"
       y1="2.7615263"
       x2="11.998966"
       y2="15.638639" />
    <linearGradient
       inkscape:collect="always"
       xlink:href="#StandardGradient"
       id="linearGradient3795"
       gradientUnits="userSpaceOnUse"
       gradientTransform="matrix(0.9247229,0,0,1.0872097,-6.0600562,-2.0023583)"
       x1="11.998966"
       y1="2.7615263"
       x2="11.998966"
       y2="15.638639" />
    <radialGradient
       inkscape:collect="always"
       xlink:href="#StandardGradient"
       id="radialGradient3798"
       cx="9"
       cy="9.875"
       fx="9"
       fy="9.875"
       r="7"
       gradientUnits="userSpaceOnUse"
       gradientTransform="matrix(2.1428571,5.7142857e-8,-3.047619e-8,1.1428571,-10.285714,-1.2857148)" />
    <radialGradient
       inkscape:collect="always"
       xlink:href="#StandardGradient"
       id="radialGradient3833"
       gradientUnits="userSpaceOnUse"
       gradientTransform="matrix(2.1504841,5.8874232e-8,-3.7575548e-8,1.3725125,-10.368589,-3.4849146)"
       cx="9.0123701"
       cy="9.8342237"
       fx="9.0123701"
       fy="9.8342237"
       r="5.109375" />
    <radialGradient
       inkscape:collect="always"
       xlink:href="#StandardGradient"
       id="radialGradient3837"
       gradientUnits="userSpaceOnUse"
       gradientTransform="matrix(2.1504841,5.8874232e-8,-3.7575548e-8,1.3725125,-10.368589,-3.4849146)"
       cx="9.0123701"
       cy="9.8342237"
       fx="9.0123701"
       fy="9.8342237"
       r="5.109375" />
    <radialGradient
       inkscape:collect="always"
       xlink:href="#StandardGradient"
       id="radialGradient3839"
       gradientUnits="userSpaceOnUse"
       gradientTransform="matrix(2.1504841,5.8874232e-8,-3.7575548e-8,1.3725125,-10.368589,-3.4849146)"
       cx="9.0123701"
       cy="9.8342237"
       fx="9.0123701"
       fy="9.8342237"
       r="5.109375" />
    <radialGradient
       inkscape:collect="always"
       xlink:href="#StandardGradient"
       id="radialGradient3846"
       gradientUnits="userSpaceOnUse"
       gradientTransform="matrix(2.1504841,5.8874232e-8,-3.7575548e-8,1.3725125,-10.368589,-2.4849146)"
       cx="9.0123701"
       cy="9.8342237"
       fx="9.0123701"
       fy="9.8342237"
       r="5.109375" />
    <radialGradient
       inkscape:collect="always"
       xlink:href="#StandardGradient"
       id="radialGradient3848"
       gradientUnits="userSpaceOnUse"
       gradientTransform="matrix(2.1504841,5.8874232e-8,-3.7575548e-8,1.3725125,-10.368589,-3.4849146)"
       cx="9.0123701"
       cy="9.8342237"
       fx="9.0123701"
       fy="9.8342237"
       r="5.109375" />
    <radialGradient
       inkscape:collect="always"
       xlink:href="#StandardGradient"
       id="radialGradient3853"
       gradientUnits="userSpaceOnUse"
       gradientTransform="matrix(2.1504841,5.8874232e-8,-3.7575548e-8,1.3725125,-10.368589,-2.4849146)"
       cx="9.0123701"
       cy="9.8342237"
       fx="9.0123701"
       fy="9.8342237"
       r="5.109375" />
    <radialGradient
       inkscape:collect="always"
       xlink:href="#StandardGradient"
       id="radialGradient3857"
       gradientUnits="userSpaceOnUse"
       gradientTransform="matrix(2.1504841,5.8874232e-8,-3.7575548e-8,1.3725125,-10.368589,-3.4849146)"
       cx="9.0123701"
       cy="9.8342237"
       fx="9.0123701"
       fy="9.8342237"
       r="5.109375" />
    <radialGradient
       inkscape:collect="always"
       xlink:href="#StandardGradient"
       id="radialGradient3864"
       gradientUnits="userSpaceOnUse"
       gradientTransform="matrix(2.1504841,5.8874232e-8,-3.7575548e-8,1.3725125,-10.368589,-3.4849146)"
       cx="9.0123701"
       cy="9.8342237"
       fx="9.0123701"
       fy="9.8342237"
       r="5.109375" />
    <radialGradient
       inkscape:collect="always"
       xlink:href="#StandardGradient"
       id="radialGradient3868"
       gradientUnits="userSpaceOnUse"
       gradientTransform="matrix(2.1504841,5.8874232e-8,-3.7575548e-8,1.3725125,-10.368589,-3.4849146)"
       cx="9.0123701"
       cy="9.8342237"
       fx="9.0123701"
       fy="9.8342237"
       r="5.109375" />
    <radialGradient
       inkscape:collect="always"
       xlink:href="#StandardGradient"
       id="radialGradient3880"
       gradientUnits="userSpaceOnUse"
       gradientTransform="matrix(2.1529052,5.4420778e-8,-3.9578747e-8,1.5657492,-12.898272,4.8903216)"
       cx="10.171498"
       cy="3.2634075"
       fx="10.171498"
       fy="3.2634075"
       r="5.109375" />
  </defs>
  <metadata
     id="metadata7">
    <rdf:RDF>
      <cc:Work
         rdf:about="">
        <dc:format>image/svg+xml</dc:format>
        <dc:type
           rdf:resource="http://purl.org/dc/dcmitype/StillImage" />
        <dc:title></dc:title>
      </cc:Work>
    </rdf:RDF>
  </metadata>
  <g
     style="display:inline"
     inkscape:label="Calque 1"
     id="layer1"
     inkscape:groupmode="layer">
    <path
       style="opacity:0.05;color:#000000;fill:#ffffff;fill-opacity:1;fill-rule:nonzero;stroke:none;stroke-width:0.80000001;marker:none;visibility:visible;display:inline;overflow:visible;enable-background:accumulate"
       d="m 6.8125,16.030183 a 1.0306482,1.0306482 0 0 1 -0.84375,-1.03125 l 0,-2.03125 -0.125,0.125 a 1.0306482,1.0306482 0 0 1 -1.4375,0 l -2.125,-2.125 a 1.0306482,1.0306482 0 0 1 0,-1.4374995 l 5.03125,-5 c -0.7497911,-0.44193 -1.34375,-1.107667 -1.34375,-2.03125 0,-1.385375 1.1458749,-2.53125001 2.53125,-2.53125001 1.3853751,0 2.53125,1.14587501 2.53125,2.53125001 0,0.923583 -0.593959,1.58932 -1.34375,2.03125 l 5.03125,5 a 1.0306482,1.0306482 0 0 1 0,1.4374995 l -2.125,2.125 a 1.0306482,1.0306482 0 0 1 -1.4375,0 l -0.125,-0.125 0,2.03125 A 1.0306482,1.0306482 0 0 1 10,16.030183 l -3,0 a 1.0306482,1.0306482 0 0 1 -0.09375,0 1.0306482,1.0306482 0 0 1 -0.09375,0 z M 7,14.998933 l 3,0 0,-4.5 1.875,1.875 L 14,10.248933 8.5,4.7801835 3,10.248933 l 2.125,2.125 1.875,-1.875 0,4.5 z M 8.5,3.9989335 c 0.8284271,0 1.5,-0.671573 1.5,-1.5 0,-0.828427 -0.6715729,-1.50000001 -1.5,-1.50000001 -0.8284271,0 -1.5,0.67157301 -1.5,1.50000001 0,0.828427 0.6715729,1.5 1.5,1.5 z"
       id="path3910"
       inkscape:connector-curvature="0" />
    <path
       style="color:#000000;fill:url(#radialGradient3880);fill-opacity:1;fill-rule:nonzero;stroke:none;stroke-width:0.80000000999999998;marker:none;visibility:visible;display:inline;overflow:visible;enable-background:accumulate"
       d="m 7,14.998933 0,-4.5 -1.875,1.875 -2.125,-2.125 5.5,-5.4687495 5.5,5.4687495 -2.125,2.125 -1.875,-1.875 0,4.5 -3,0 z M 8.5,3.9989335 c -0.8284271,0 -1.5,-0.671573 -1.5,-1.5 0,-0.828427 0.6715729,-1.50000001 1.5,-1.50000001 0.8284271,0 1.5,0.67157301 1.5,1.50000001 0,0.828427 -0.6715729,1.5 -1.5,1.5 z"
       id="rect3042"
       inkscape:connector-curvature="0" />
    <path
       style="opacity:0.3;color:#000000;fill:#000000;fill-opacity:1;fill-rule:nonzero;stroke:none;stroke-width:0.80000001;marker:none;visibility:visible;display:inline;overflow:visible;enable-background:accumulate"
       d="m 7,14.998933 0,-4.5 -1.875,1.875 -2.125,-2.125 5.5,-5.4687495 5.5,5.4687495 -2.125,2.125 -1.875,-1.875 0,4.5 -3,0 z m 0.5625,-0.5625 1.875,0 0,-3.9375 a 0.54970397,0.54970397 0 0 1 0.9375,-0.375 l 1.5,1.5 1.375,-1.375 -4.75,-4.7187495 -4.75,4.7187495 1.375,1.375 1.5,-1.5 a 0.54970397,0.54970397 0 0 1 0.9375,0.375 l 0,3.9375 z M 8.5,3.9989335 c -0.8284271,0 -1.5,-0.671573 -1.5,-1.5 0,-0.828427 0.6715729,-1.50000001 1.5,-1.50000001 0.8284271,0 1.5,0.67157301 1.5,1.50000001 0,0.828427 -0.6715729,1.5 -1.5,1.5 z m 0,-0.5625 c 0.5313747,0 0.9375,-0.406125 0.9375,-0.9375 0,-0.531375 -0.4061253,-0.9375 -0.9375,-0.9375 -0.5313747,0 -0.9375,0.406125 -0.9375,0.9375 0,0.531375 0.4061253,0.9375 0.9375,0.9375 z"
       id="path3882"
       inkscape:connector-curvature="0" />
    <path
       style="opacity:0.2;color:#000000;fill:#ffffff;fill-opacity:1;fill-rule:nonzero;stroke:none;stroke-width:0.80000000999999998;marker:none;visibility:visible;display:inline;overflow:visible;enable-background:accumulate"
       d="m 7,15.998933 0,-1 3,0 0,1 -3,0 z M 5.125,13.373933 3,11.248933 3.5,10.748934 5.125,12.373933 7,10.498934 l 0,0.999999 -1.875,1.875 z m 6.75,0 -1.875,-1.875 0,-0.999999 1.875,1.874999 1.625,-1.624999 0.5,0.499999 -2.125,2.125 z M 8.1875,4.9676835 C 7.5039753,4.8278145 7,4.2238075 7,3.4989335 c 0,-0.172589 0.040108,-0.345681 0.09375,-0.5 0.2038398,0.586412 0.7504119,1 1.40625,1 0.6558381,0 1.2024102,-0.413588 1.40625,-1 0.053642,0.154319 0.09375,0.327411 0.09375,0.5 0,0.765885 -0.5712227,1.377717 -1.3125,1.46875 l -0.1875,-0.1875 -0.1875,0.1875 c -0.039694,-0.00488 -0.086328,0.00791 -0.125,0 z"
       id="path3895"
       inkscape:connector-curvature="0" />
    <path
       style="opacity:0.3;color:#000000;fill:#000000;fill-opacity:1;fill-rule:nonzero;stroke:none;stroke-width:0.80000000999999998;marker:none;visibility:visible;display:inline;overflow:visible;enable-background:accumulate"
       d="m 3.5,10.748934 -0.5,-0.5 5.3125,-5.2812505 c 0.060533,0.00743 0.1249579,0.03125 0.1875,0.03125 0.062542,0 0.1269673,-0.023816 0.1875,-0.03125 L 14,10.248934 l -0.5,0.5 -5,-4.9687505 -5,4.9687505 z M 7.09375,2.9989335 C 7.040108,2.8446145 7,2.6715225 7,2.4989335 7,1.6705065 7.6715729,0.99893349 8.5,0.99893349 c 0.8284271,0 1.5,0.67157301 1.5,1.50000001 0,0.172589 -0.040108,0.345681 -0.09375,0.5 -0.2038398,-0.586412 -0.7504119,-1 -1.40625,-1 -0.6558381,0 -1.2024102,0.413588 -1.40625,1 z"
       id="path3915"
       inkscape:connector-curvature="0" />
  </g>
</svg>
