<?xml version="1.0" encoding="UTF-8" standalone="no"?>
<!-- Created with Inkscape (http://www.inkscape.org/) -->

<svg
   xmlns:dc="http://purl.org/dc/elements/1.1/"
   xmlns:cc="http://creativecommons.org/ns#"
   xmlns:rdf="http://www.w3.org/1999/02/22-rdf-syntax-ns#"
   xmlns:svg="http://www.w3.org/2000/svg"
   xmlns="http://www.w3.org/2000/svg"
   xmlns:xlink="http://www.w3.org/1999/xlink"
   xmlns:sodipodi="http://sodipodi.sourceforge.net/DTD/sodipodi-0.dtd"
   xmlns:inkscape="http://www.inkscape.org/namespaces/inkscape"
   width="16"
   height="16"
   id="svg2"
   sodipodi:version="0.32"
   inkscape:version="0.48.1 r9760"
   version="1.0"
   sodipodi:docname="help-about.svg"
   inkscape:output_extension="org.inkscape.output.svg.inkscape"
   inkscape:export-filename="/home/matt/.icons/Sirocco/scalable/mimetypes/text-plain.png"
   inkscape:export-xdpi="90"
   inkscape:export-ydpi="90"
   sodipodi:modified="true"
   style="display:inline">
  <sodipodi:namedview
     id="base"
     pagecolor="#838383"
     bordercolor="#cc0000"
     borderopacity="1"
     inkscape:pageopacity="1"
     inkscape:pageshadow="2"
     inkscape:zoom="18.064397"
     inkscape:cx="-15.524421"
     inkscape:cy="1.6239434"
     inkscape:document-units="px"
     inkscape:current-layer="layer1"
     width="128px"
     height="128px"
     inkscape:showpageshadow="false"
     inkscape:window-width="1920"
     inkscape:window-height="1030"
     inkscape:window-x="0"
     inkscape:window-y="25"
     showguides="true"
     inkscape:guide-bbox="true"
     showgrid="true"
     inkscape:window-maximized="1"
     borderlayer="true"
     inkscape:snap-global="true">
    <sodipodi:guide
       id="guide2226"
       position="32.637397,117.99844"
       orientation="horizontal" />
    <sodipodi:guide
       id="guide2230"
       position="110,57.402344"
       orientation="vertical" />
    <sodipodi:guide
       id="guide2232"
       position="33.760911"
       orientation="horizontal" />
    <sodipodi:guide
       id="guide2231"
       position="46.774696"
       orientation="horizontal" />
    <inkscape:grid
       enabled="true"
       visible="true"
       id="grid3231"
       type="xygrid"
       empspacing="8"
       snapvisiblegridlinesonly="true" />
    <sodipodi:guide
       orientation="1,0"
       position="100,67.625"
       id="guide2713" />
    <sodipodi:guide
       orientation="1,0"
       position="9,0"
       id="guide3021" />
    <sodipodi:guide
       orientation="0,1"
       position="13,6"
       id="guide3023" />
  </sodipodi:namedview>
  <defs
     id="defs4">
    <linearGradient
       id="StandardGradient"
       gradientTransform="scale(0.9219544,1.0846523)"
       x1="11.998966"
       y1="0.92195445"
       x2="11.998966"
       y2="19.387045"
       gradientUnits="userSpaceOnUse">
      <stop
         style="stop-color:#000000;stop-opacity:0.23529412;"
         offset="0"
         id="stop3283" />
      <stop
         style="stop-color:#000000;stop-opacity:0.54901963;"
         offset="1"
         id="stop2651" />
    </linearGradient>
    <linearGradient
       y2="14.889104"
       x2="6.8092694"
       y1="1.9880053"
       x1="6.8092694"
       gradientUnits="userSpaceOnUse"
       id="linearGradient3716"
       xlink:href="#StandardGradient-2"
       inkscape:collect="always" />
    <linearGradient
       id="StandardGradient-2"
       x1="7.1984468"
       y1="3"
       x2="7.1984468"
       y2="13.008396"
       gradientUnits="userSpaceOnUse">
      <stop
         style="stop-color:#000000;stop-opacity:0.86274511;"
         offset="0"
         id="stop3283-6" />
      <stop
         style="stop-color:#000000;stop-opacity:0.47058824;"
         offset="1"
         id="stop3285-6" />
    </linearGradient>
    <radialGradient
       inkscape:collect="always"
       xlink:href="#StandardGradient"
       id="radialGradient3850"
       cx="9"
       cy="10.108804"
       fx="9"
       fy="10.108804"
       r="6.9932294"
       gradientTransform="matrix(1.57295,-4.6868337e-8,2.9825306e-8,1.0009682,-5.1565501,-0.11859034)"
       gradientUnits="userSpaceOnUse" />
    <radialGradient
       inkscape:collect="always"
       xlink:href="#StandardGradient"
       id="radialGradient3857"
       gradientUnits="userSpaceOnUse"
       gradientTransform="matrix(1.57295,-4.6868337e-8,2.9825306e-8,1.0009682,-5.1565501,0.88140966)"
       cx="9"
       cy="10.108804"
       fx="9"
       fy="10.108804"
       r="6.9932294" />
    <radialGradient
       inkscape:collect="always"
       xlink:href="#StandardGradient"
       id="radialGradient3859"
       gradientUnits="userSpaceOnUse"
       gradientTransform="matrix(1.57295,-4.6868337e-8,2.9825306e-8,1.0009682,-5.1565501,-0.11859034)"
       cx="9"
       cy="10.108804"
       fx="9"
       fy="10.108804"
       r="6.9932294" />
    <radialGradient
       inkscape:collect="always"
       xlink:href="#StandardGradient"
       id="radialGradient3866"
       gradientUnits="userSpaceOnUse"
       gradientTransform="matrix(1.57295,-4.6868337e-8,2.9825306e-8,1.0009682,-5.1565501,-0.11859034)"
       cx="9"
       cy="10.108804"
       fx="9"
       fy="10.108804"
       r="6.9932294" />
    <radialGradient
       inkscape:collect="always"
       xlink:href="#StandardGradient"
       id="radialGradient3870"
       gradientUnits="userSpaceOnUse"
       gradientTransform="matrix(1.57295,-4.6868337e-8,2.9825306e-8,1.0009682,-5.1565501,-0.11859034)"
       cx="9"
       cy="10.108804"
       fx="9"
       fy="10.108804"
       r="6.9932294" />
    <radialGradient
       inkscape:collect="always"
       xlink:href="#StandardGradient"
       id="radialGradient3872"
       gradientUnits="userSpaceOnUse"
       gradientTransform="matrix(1.57295,-4.6868337e-8,2.9825306e-8,1.0009682,-5.1565501,-0.11859034)"
       cx="9"
       cy="10.108804"
       fx="9"
       fy="10.108804"
       r="6.9932294" />
    <radialGradient
       inkscape:collect="always"
       xlink:href="#StandardGradient"
       id="radialGradient3010"
       gradientUnits="userSpaceOnUse"
       gradientTransform="matrix(1.57295,-4.6868337e-8,2.9825306e-8,1.0009682,-5.1565501,0.88140966)"
       cx="9"
       cy="10.108804"
       fx="9"
       fy="10.108804"
       r="6.9932294" />
    <radialGradient
       inkscape:collect="always"
       xlink:href="#StandardGradient"
       id="radialGradient3014"
       gradientUnits="userSpaceOnUse"
       gradientTransform="matrix(1.57295,-4.6868337e-8,2.9825306e-8,1.0009682,-5.1565501,-0.11859034)"
       cx="9"
       cy="10.108804"
       fx="9"
       fy="10.108804"
       r="6.9932294" />
    <radialGradient
       inkscape:collect="always"
       xlink:href="#StandardGradient"
       id="radialGradient3789"
       gradientUnits="userSpaceOnUse"
       gradientTransform="matrix(1.57295,-4.6868337e-8,2.9825306e-8,1.0009682,-5.1565501,-0.11859034)"
       cx="9"
       cy="10.108804"
       fx="9"
       fy="10.108804"
       r="6.9932294" />
    <radialGradient
       inkscape:collect="always"
       xlink:href="#StandardGradient"
       id="radialGradient3793"
       gradientUnits="userSpaceOnUse"
       gradientTransform="matrix(1.57295,-4.6868337e-8,2.9825306e-8,1.0009682,-5.1565501,-0.11859034)"
       cx="9"
       cy="10.108804"
       fx="9"
       fy="10.108804"
       r="6.9932294" />
  </defs>
  <metadata
     id="metadata7">
    <rdf:RDF>
      <cc:Work
         rdf:about="">
        <dc:format>image/svg+xml</dc:format>
        <dc:type
           rdf:resource="http://purl.org/dc/dcmitype/StillImage" />
        <dc:title />
      </cc:Work>
    </rdf:RDF>
  </metadata>
  <g
     style="display:inline"
     inkscape:label="Calque 1"
     id="layer1"
     inkscape:groupmode="layer">
    <path
       style="fill:#ffffff;fill-opacity:1;stroke:none;display:inline;opacity:0.05"
       d="M 8 1 C 5.2999817 0.99222862 2.4005786 2.1206949 0.84375 4.59375 C -0.35960982 6.44593 -0.253022 8.8811825 1.03125 10.65625 C 1.0399261 10.668729 1.0537451 10.675094 1.0625 10.6875 C 1.6313025 11.493519 2.4397441 12.030558 3.25 12.53125 C 3.2998101 13.099168 2.9490981 13.742283 2.34375 14.28125 A 0.99048058 0.99048058 0 0 0 3.0625 16.03125 C 4.7892383 15.920332 6.2156284 14.954617 7.3125 13.84375 C 9.5833399 14.035331 11.926104 13.490436 13.71875 12.03125 C 15.412127 10.685043 16.423059 8.38918 15.8125 6.15625 C 15.809969 6.1467788 15.815074 6.1344458 15.8125 6.125 C 15.100646 3.5124765 12.724777 1.8561767 10.34375 1.28125 C 10.333748 1.2788055 10.322512 1.2836622 10.3125 1.28125 C 9.5608116 1.1001418 8.7690516 0.99996321 8 1 z M 8 2 C 8.7003252 1.9999665 9.413277 2.0836945 10.09375 2.25 C 12.212511 2.7544175 14.258938 4.2177239 14.84375 6.40625 C 15.34577 8.1978861 14.513477 10.12134 13.09375 11.25 C 11.386492 12.639681 9.0753583 13.226893 6.90625 12.90625 C 5.9015462 14.021234 4.5343525 14.93269 3 15.03125 C 3.8037526 14.315635 4.5257087 13.249301 4.25 12.125 C 3.305834 11.651114 2.4498154 10.96546 1.84375 10.09375 C 0.79260766 8.6583906 0.71534339 6.6213181 1.6875 5.125 C 3.0146119 3.0168548 5.5814984 1.9930389 8 2 z M 7.9375 4.15625 C 7.6374595 4.1795076 7.3851504 4.3030075 7.1875 4.5 C 6.9898457 4.6970076 6.8820542 4.9024289 6.90625 5.15625 C 6.9304409 5.4100863 7.0804651 5.6175523 7.3125 5.78125 C 7.544212 5.9416203 7.7937094 6.0232558 8.09375 6 C 8.3937868 5.9767572 8.6494815 5.8808788 8.84375 5.6875 C 9.0413991 5.4905068 9.1179408 5.2538364 9.09375 5 C 9.0695591 4.7461791 8.9507812 4.5387123 8.71875 4.375 C 8.4904187 4.2110162 8.2375368 4.1330086 7.9375 4.15625 z M 7.65625 6.71875 C 7.4413802 6.735405 7.2341978 6.8171356 7 6.90625 C 6.7655216 6.992432 6.5044697 7.0702028 6.25 7.1875 L 6.1875 7.59375 C 6.263118 7.561284 6.3641143 7.537686 6.46875 7.5 C 6.5766418 7.462074 6.6770702 7.445573 6.78125 7.4375 C 6.9928623 7.421107 7.137717 7.441229 7.21875 7.5 C 7.29978 7.558777 7.3280809 7.6481233 7.34375 7.8125 C 7.3524 7.903501 7.359108 8.0114416 7.34375 8.125 C 7.331317 8.235378 7.305305 8.373942 7.28125 8.5 L 7 9.8125 C 6.977053 9.950303 6.974673 10.077633 6.96875 10.1875 C 6.96254 10.294437 6.95887 10.397262 6.96875 10.5 C 6.993938 10.764185 7.1436237 10.968463 7.375 11.125 C 7.609352 11.27835 7.9218279 11.342772 8.3125 11.3125 C 8.5664339 11.29282 8.7825434 11.232783 8.96875 11.15625 C 9.1552316 11.08265 9.4073554 10.983204 9.71875 10.84375 L 9.78125 10.4375 C 9.728136 10.46527 9.6518807 10.489369 9.53125 10.53125 C 9.410333 10.57019 9.285165 10.58618 9.1875 10.59375 C 8.9791395 10.6099 8.8405181 10.61756 8.75 10.5625 C 8.659477 10.50741 8.6099758 10.389005 8.59375 10.21875 C 8.58732 10.15123 8.580271 10.040361 8.59375 9.90625 C 8.607203 9.772141 8.633492 9.667761 8.65625 9.5625 L 8.9375 8.25 C 8.965371 8.129561 8.969172 7.98566 8.96875 7.84375 C 8.97163 7.7015924 8.97408 7.6182767 8.96875 7.5625 C 8.9429901 7.2924495 8.8213089 7.0571732 8.59375 6.90625 C 8.3691615 6.7521476 8.0436613 6.6887349 7.65625 6.71875 z "
       id="path3791" />
    <path
       style="fill:url(#radialGradient3850);fill-opacity:1;stroke:none;display:inline"
       d="M 8 2 C 5.5814984 1.9930389 3.0146119 3.0168548 1.6875 5.125 C 0.71534339 6.6213181 0.79260766 8.6583906 1.84375 10.09375 C 2.4498154 10.96546 3.305834 11.651114 4.25 12.125 C 4.5257087 13.249301 3.8037526 14.315635 3 15.03125 C 4.5343525 14.93269 5.9015462 14.021234 6.90625 12.90625 C 9.0753583 13.226893 11.386492 12.639681 13.09375 11.25 C 14.513477 10.12134 15.34577 8.1978861 14.84375 6.40625 C 14.258938 4.2177239 12.212511 2.7544175 10.09375 2.25 C 9.413277 2.0836945 8.7003252 1.9999665 8 2 z M 7.9375 4.15625 C 8.2375368 4.1330086 8.4904187 4.2110162 8.71875 4.375 C 8.9507812 4.5387123 9.0695591 4.7461791 9.09375 5 C 9.1179408 5.2538364 9.0413991 5.4905068 8.84375 5.6875 C 8.6494815 5.8808788 8.3937868 5.9767572 8.09375 6 C 7.7937094 6.0232558 7.544212 5.9416203 7.3125 5.78125 C 7.0804651 5.6175523 6.9304409 5.4100863 6.90625 5.15625 C 6.8820542 4.9024289 6.9898457 4.6970076 7.1875 4.5 C 7.3851504 4.3030075 7.6374595 4.1795076 7.9375 4.15625 z M 7.65625 6.71875 C 8.0436613 6.6887349 8.3691615 6.7521476 8.59375 6.90625 C 8.8213089 7.0571732 8.9429901 7.2924495 8.96875 7.5625 C 8.97408 7.6182767 8.97163 7.7015924 8.96875 7.84375 C 8.969172 7.98566 8.965371 8.129561 8.9375 8.25 L 8.65625 9.5625 C 8.633492 9.667761 8.607203 9.772141 8.59375 9.90625 C 8.580271 10.040361 8.58732 10.15123 8.59375 10.21875 C 8.6099758 10.389005 8.659477 10.50741 8.75 10.5625 C 8.8405181 10.61756 8.9791395 10.6099 9.1875 10.59375 C 9.285165 10.58618 9.410333 10.57019 9.53125 10.53125 C 9.6518807 10.489369 9.728136 10.46527 9.78125 10.4375 L 9.71875 10.84375 C 9.4073554 10.983204 9.1552316 11.08265 8.96875 11.15625 C 8.7825434 11.232783 8.5664339 11.29282 8.3125 11.3125 C 7.9218279 11.342772 7.609352 11.27835 7.375 11.125 C 7.1436237 10.968463 6.993938 10.764185 6.96875 10.5 C 6.95887 10.397262 6.96254 10.294437 6.96875 10.1875 C 6.974673 10.077633 6.977053 9.950303 7 9.8125 L 7.28125 8.5 C 7.305305 8.373942 7.331317 8.235378 7.34375 8.125 C 7.359108 8.0114416 7.3524 7.903501 7.34375 7.8125 C 7.3280809 7.6481233 7.29978 7.558777 7.21875 7.5 C 7.137717 7.441229 6.9928623 7.421107 6.78125 7.4375 C 6.6770702 7.445573 6.5766418 7.462074 6.46875 7.5 C 6.3641143 7.537686 6.263118 7.561284 6.1875 7.59375 L 6.25 7.1875 C 6.5044697 7.0702028 6.7655216 6.992432 7 6.90625 C 7.2341978 6.8171356 7.4413802 6.735405 7.65625 6.71875 z "
       id="path2898" />
    <path
       style="fill:#000000;fill-opacity:1;stroke:none;display:inline;opacity:0.3"
       d="M 8 2 C 5.5814984 1.9930389 3.0146119 3.0168548 1.6875 5.125 C 0.71534339 6.6213181 0.79260766 8.6583906 1.84375 10.09375 C 2.4498154 10.96546 3.305834 11.651114 4.25 12.125 C 4.5257087 13.249301 3.8037526 14.315635 3 15.03125 C 4.5343525 14.93269 5.9015462 14.021234 6.90625 12.90625 C 9.0753583 13.226893 11.386492 12.639681 13.09375 11.25 C 14.513477 10.12134 15.34577 8.1978861 14.84375 6.40625 C 14.258938 4.2177239 12.212511 2.7544175 10.09375 2.25 C 9.413277 2.0836945 8.7003252 1.9999665 8 2 z M 8 2.53125 C 8.6570198 2.5312186 9.3324251 2.6257342 9.96875 2.78125 C 11.933944 3.2491076 13.793678 4.5896783 14.3125 6.53125 A 0.5431617 0.5431617 0 0 0 14.3125 6.5625 C 14.745194 8.106723 14.01538 9.8065434 12.75 10.8125 A 0.5431617 0.5431617 0 0 0 12.75 10.84375 C 11.170758 12.129228 9.0190096 12.673455 7 12.375 A 0.5431617 0.5431617 0 0 0 6.5 12.53125 C 5.9309105 13.162805 5.2192735 13.646022 4.46875 14 C 4.783619 13.395393 4.9627075 12.739958 4.78125 12 A 0.5431617 0.5431617 0 0 0 4.5 11.625 C 3.6259217 11.186292 2.826686 10.565756 2.28125 9.78125 C 1.367333 8.533275 1.3139439 6.7027056 2.15625 5.40625 C 3.3573894 3.4982148 5.7358771 2.5247332 8 2.53125 z M 7.90625 3.625 C 7.4819001 3.6578934 7.0934468 3.8449884 6.8125 4.125 C 6.5510747 4.3855699 6.3337172 4.7856815 6.375 5.21875 C 6.4166586 5.6558754 6.6814479 5.9940155 7 6.21875 C 7.0685731 6.2662101 7.173425 6.2428205 7.25 6.28125 C 7.1046355 6.3243713 6.9371521 6.3588187 6.8125 6.40625 C 6.6012328 6.4839008 6.331078 6.549295 6.03125 6.6875 A 0.5431617 0.5431617 0 0 0 5.71875 7.09375 L 5.65625 7.5 A 0.5431617 0.5431617 0 0 0 6.40625 8.09375 C 6.408445 8.0928076 6.5147933 8.0509476 6.65625 8 C 6.7111632 7.980697 6.7383507 7.9744959 6.8125 7.96875 C 6.8130022 8.0002665 6.8157085 8.0387763 6.8125 8.0625 C 6.8046014 8.1326226 6.771622 8.2603683 6.75 8.375 C 6.7479137 8.386061 6.7520972 8.3952598 6.75 8.40625 L 6.46875 9.6875 A 0.5431617 0.5431617 0 0 0 6.46875 9.71875 C 6.4378985 9.9040217 6.4426297 10.061097 6.4375 10.15625 C 6.4308398 10.270939 6.4230879 10.412635 6.4375 10.5625 C 6.4794729 11.002734 6.7395355 11.343999 7.0625 11.5625 A 0.5431617 0.5431617 0 0 0 7.0625 11.59375 C 7.4236258 11.830055 7.8716662 11.88033 8.34375 11.84375 C 8.6477334 11.820191 8.9308537 11.746344 9.15625 11.65625 C 9.1626771 11.653713 9.1808916 11.658859 9.1875 11.65625 C 9.3725358 11.583207 9.6253522 11.483541 9.9375 11.34375 A 0.5431617 0.5431617 0 0 0 10.25 10.9375 L 10.3125 10.53125 A 0.5431617 0.5431617 0 0 0 9.53125 9.96875 C 9.5486078 9.9596747 9.4574598 9.9703376 9.375 10 C 9.3169621 10.01869 9.2310643 10.056678 9.15625 10.0625 C 9.1084739 10.066203 9.1552911 10.063808 9.125 10.0625 C 9.1244366 10.027661 9.1206917 10.011616 9.125 9.96875 C 9.1342328 9.8767109 9.1621577 9.8047141 9.1875 9.6875 L 9.46875 8.375 C 9.5155986 8.1725529 9.5004541 7.9964496 9.5 7.84375 C 9.5028407 7.7035322 9.511701 7.6224474 9.5 7.5 C 9.4617194 7.0986907 9.2761572 6.7140824 8.90625 6.46875 C 8.7889317 6.3882517 8.6314217 6.4201486 8.5 6.375 C 8.7533659 6.3018127 9.0214752 6.2588713 9.21875 6.0625 C 9.5207927 5.7614596 9.6624802 5.3307834 9.625 4.9375 C 9.5875303 4.5443528 9.3685489 4.1754851 9.03125 3.9375 C 8.7148818 3.7102895 8.3230097 3.592717 7.90625 3.625 z M 7.9375 4.15625 C 8.2375368 4.1330086 8.4904187 4.2110162 8.71875 4.375 C 8.9507812 4.5387123 9.0695591 4.7461791 9.09375 5 C 9.1179408 5.2538364 9.0413991 5.4905068 8.84375 5.6875 C 8.6494815 5.8808788 8.3937868 5.9767572 8.09375 6 C 7.7937094 6.0232558 7.544212 5.9416203 7.3125 5.78125 C 7.0804651 5.6175523 6.9304409 5.4100863 6.90625 5.15625 C 6.8820542 4.9024289 6.9898457 4.6970076 7.1875 4.5 C 7.3851504 4.3030075 7.6374595 4.1795076 7.9375 4.15625 z M 7.65625 6.71875 C 8.0436613 6.6887349 8.3691615 6.7521476 8.59375 6.90625 C 8.8213089 7.0571732 8.9429901 7.2924495 8.96875 7.5625 C 8.97408 7.6182767 8.97163 7.7015924 8.96875 7.84375 C 8.969172 7.98566 8.965371 8.129561 8.9375 8.25 L 8.65625 9.5625 C 8.633492 9.667761 8.607203 9.772141 8.59375 9.90625 C 8.580271 10.040361 8.58732 10.15123 8.59375 10.21875 C 8.6099758 10.389005 8.659477 10.50741 8.75 10.5625 C 8.8405181 10.61756 8.9791395 10.6099 9.1875 10.59375 C 9.285165 10.58618 9.410333 10.57019 9.53125 10.53125 C 9.6518807 10.489369 9.728136 10.46527 9.78125 10.4375 L 9.71875 10.84375 C 9.4073554 10.983204 9.1552316 11.08265 8.96875 11.15625 C 8.7825434 11.232783 8.5664339 11.29282 8.3125 11.3125 C 7.9218279 11.342772 7.609352 11.27835 7.375 11.125 C 7.1436237 10.968463 6.993938 10.764185 6.96875 10.5 C 6.95887 10.397262 6.96254 10.294437 6.96875 10.1875 C 6.974673 10.077633 6.977053 9.950303 7 9.8125 L 7.28125 8.5 C 7.305305 8.373942 7.331317 8.235378 7.34375 8.125 C 7.359108 8.0114416 7.3524 7.903501 7.34375 7.8125 C 7.3280809 7.6481233 7.29978 7.558777 7.21875 7.5 C 7.137717 7.441229 6.9928623 7.421107 6.78125 7.4375 C 6.6770702 7.445573 6.5766418 7.462074 6.46875 7.5 C 6.3641143 7.537686 6.263118 7.561284 6.1875 7.59375 L 6.25 7.1875 C 6.5044697 7.0702028 6.7655216 6.992432 7 6.90625 C 7.2341978 6.8171356 7.4413802 6.735405 7.65625 6.71875 z "
       id="path3862" />
    <path
       style="fill:#000000;fill-opacity:1;stroke:none;display:inline;opacity:0.3"
       d="M 8 2 C 5.5814984 1.9930389 3.0146119 3.0168548 1.6875 5.125 C 1.1377946 5.9710922 0.9235439 6.9834136 1.03125 7.96875 C 1.1046428 7.3157908 1.3229413 6.6861193 1.6875 6.125 C 3.0146119 4.0168548 5.5814984 2.9930389 8 3 C 8.7003252 2.9999665 9.413277 3.0836945 10.09375 3.25 C 12.212511 3.7544175 14.258938 5.2177239 14.84375 7.40625 C 14.892195 7.5791429 14.913235 7.7629848 14.9375 7.9375 C 14.99325 7.4282432 14.986439 6.9154853 14.84375 6.40625 C 14.258938 4.2177239 12.212511 2.7544175 10.09375 2.25 C 9.413277 2.0836945 8.7003252 1.9999665 8 2 z M 7.125 5.59375 C 6.9799308 5.76453 6.8856267 5.9399058 6.90625 6.15625 C 6.9304409 6.4100863 7.0804651 6.6175523 7.3125 6.78125 C 7.3202237 6.7865957 7.3359855 6.7760803 7.34375 6.78125 C 7.4516791 6.7475962 7.5488151 6.7270775 7.65625 6.71875 C 8.0127083 6.691133 8.3099978 6.7465598 8.53125 6.875 C 8.6411265 6.8252998 8.7569006 6.7739517 8.84375 6.6875 C 9.0413991 6.4905068 9.1179408 6.2538364 9.09375 6 C 9.0788184 5.8433312 8.997644 5.7157095 8.90625 5.59375 C 8.8822818 5.6244938 8.8729331 5.6584138 8.84375 5.6875 C 8.6494815 5.8808788 8.3937868 5.9767572 8.09375 6 C 7.7937094 6.0232558 7.544212 5.9416203 7.3125 5.78125 C 7.235155 5.7266841 7.1824973 5.6581386 7.125 5.59375 z M 7.34375 7.78125 C 7.2358209 7.8149038 7.1170989 7.8616928 7 7.90625 C 6.7655216 7.992432 6.5044697 8.0702028 6.25 8.1875 L 6.1875 8.59375 C 6.263118 8.561284 6.3641143 8.537686 6.46875 8.5 C 6.5766418 8.462074 6.6770702 8.445573 6.78125 8.4375 C 6.9928623 8.421107 7.137717 8.441229 7.21875 8.5 C 7.2414384 8.5164576 7.2659493 8.5402732 7.28125 8.5625 L 7.28125 8.5 C 7.305305 8.373942 7.331317 8.235378 7.34375 8.125 C 7.359108 8.0114416 7.3524 7.903501 7.34375 7.8125 C 7.3424795 7.7991722 7.3452079 7.793615 7.34375 7.78125 z M 8.90625 8.375 L 8.65625 9.5625 C 8.633492 9.667761 8.607203 9.772141 8.59375 9.90625 C 8.580271 10.040361 8.58732 10.15123 8.59375 10.21875 C 8.6041345 10.327713 8.6478256 10.405268 8.6875 10.46875 L 8.9375 9.25 C 8.965371 9.129561 8.969172 8.98566 8.96875 8.84375 C 8.97163 8.7015924 8.97408 8.618277 8.96875 8.5625 C 8.96231 8.4949874 8.9248357 8.4373912 8.90625 8.375 z M 7.03125 10.65625 L 7 10.8125 C 6.977053 10.950303 6.974673 11.077633 6.96875 11.1875 C 6.96254 11.294437 6.95887 11.397262 6.96875 11.5 C 6.993938 11.764185 7.1436237 11.968463 7.375 12.125 C 7.609352 12.27835 7.9218279 12.342772 8.3125 12.3125 C 8.5664339 12.29282 8.7825434 12.232783 8.96875 12.15625 C 9.1552316 12.08265 9.4073554 11.983204 9.71875 11.84375 L 9.78125 11.4375 C 9.728136 11.46527 9.6518807 11.48937 9.53125 11.53125 C 9.410333 11.57019 9.285165 11.58615 9.1875 11.59375 C 8.9791395 11.6099 8.840518 11.61756 8.75 11.5625 C 8.6654549 11.511048 8.6130406 11.402569 8.59375 11.25 C 8.5014162 11.27014 8.4171208 11.304392 8.3125 11.3125 C 7.9218279 11.342772 7.609352 11.27835 7.375 11.125 C 7.1968234 11.004455 7.0929911 10.838973 7.03125 10.65625 z M 4.25 13.125 C 4.0764649 13.860504 3.5570954 14.535244 3 15.03125 C 3.3187408 15.010776 3.6349375 14.960172 3.9375 14.875 C 4.2403932 14.338187 4.4024808 13.746795 4.25 13.125 z "
       id="path3852" />
    <path
       style="fill:#ffffff;fill-opacity:1;stroke:none;display:inline;opacity:0.2"
       d="M 7.9375 4.15625 C 7.6374595 4.1795076 7.3851504 4.3030075 7.1875 4.5 C 6.9898457 4.6970076 6.8820542 4.9024289 6.90625 5.15625 C 6.9223773 5.3254742 7.0100054 5.4649729 7.125 5.59375 C 7.1501301 5.5641661 7.1583161 5.5290884 7.1875 5.5 C 7.3851504 5.3030075 7.6374595 5.1795076 7.9375 5.15625 C 8.2375368 5.1330086 8.4904187 5.2110162 8.71875 5.375 C 8.8075619 5.4376623 8.8495755 5.5181215 8.90625 5.59375 C 9.0446118 5.4162746 9.114369 5.2163572 9.09375 5 C 9.0695591 4.7461791 8.9507812 4.5387123 8.71875 4.375 C 8.4904187 4.2110162 8.2375368 4.1330086 7.9375 4.15625 z M 7.3125 6.78125 C 7.2128542 6.8134966 7.1076968 6.8652704 7 6.90625 C 6.7655216 6.992432 6.5044697 7.0702028 6.25 7.1875 L 6.1875 7.59375 C 6.263118 7.561284 6.3641143 7.537686 6.46875 7.5 C 6.5766418 7.462074 6.6770702 7.445573 6.78125 7.4375 C 6.9928623 7.421107 7.137717 7.441229 7.21875 7.5 C 7.29321 7.5540113 7.3272268 7.6411131 7.34375 7.78125 C 7.4516791 7.7475962 7.5488151 7.7270775 7.65625 7.71875 C 8.0436613 7.688735 8.3691615 7.752148 8.59375 7.90625 C 8.7644192 8.0194424 8.8504929 8.1878265 8.90625 8.375 L 8.9375 8.25 C 8.965371 8.129561 8.969172 7.98566 8.96875 7.84375 C 8.97163 7.7015924 8.97408 7.618277 8.96875 7.5625 C 8.9429901 7.2924495 8.8213089 7.0571732 8.59375 6.90625 C 8.5758061 6.8939377 8.5504624 6.886153 8.53125 6.875 C 8.3953502 6.9364713 8.2596527 6.9871481 8.09375 7 C 7.8037108 7.0224806 7.5689196 6.9311725 7.34375 6.78125 C 7.3359855 6.7760803 7.3202237 6.7865957 7.3125 6.78125 z M 14.9375 7.9375 C 14.797106 9.2199548 14.109949 10.442138 13.09375 11.25 C 11.386492 12.639681 9.0753583 13.226893 6.90625 12.90625 C 6.1102597 13.789611 5.0914107 14.550173 3.9375 14.875 C 3.6927158 15.308828 3.3592369 15.711406 3 16.03125 C 4.5343525 15.93269 5.9015462 15.021234 6.90625 13.90625 C 9.0753583 14.226893 11.386492 13.639681 13.09375 12.25 C 14.376473 11.230256 15.164688 9.5714329 14.9375 7.9375 z M 1.03125 7.96875 C 0.90892865 9.0570153 1.186786 10.19665 1.84375 11.09375 C 2.4498154 11.96546 3.305834 12.651114 4.25 13.125 C 4.3268337 12.799351 4.33461 12.470028 4.25 12.125 C 3.305834 11.651114 2.4498154 10.96546 1.84375 10.09375 C 1.3869755 9.4700138 1.1140226 8.7259856 1.03125 7.96875 z M 7.28125 8.5625 L 7 9.8125 C 6.977053 9.950303 6.974673 10.077633 6.96875 10.1875 C 6.96254 10.294437 6.95887 10.397262 6.96875 10.5 C 6.9745414 10.560743 7.0128154 10.601693 7.03125 10.65625 L 7.28125 9.5 C 7.305305 9.373942 7.331317 9.235378 7.34375 9.125 C 7.359108 9.0114416 7.3524 8.903501 7.34375 8.8125 C 7.3324682 8.6941488 7.3205946 8.6196547 7.28125 8.5625 z M 9.78125 10.4375 C 9.728136 10.46527 9.6518807 10.48937 9.53125 10.53125 C 9.410333 10.57019 9.285165 10.58615 9.1875 10.59375 C 8.9791395 10.6099 8.840518 10.61756 8.75 10.5625 C 8.7174117 10.542668 8.7098168 10.504459 8.6875 10.46875 L 8.65625 10.5625 C 8.633492 10.667761 8.607203 10.772141 8.59375 10.90625 C 8.580271 11.040361 8.58732 11.15123 8.59375 11.21875 C 8.5948215 11.229993 8.592386 11.239212 8.59375 11.25 C 8.7255274 11.221256 8.8592605 11.201251 8.96875 11.15625 C 9.1552316 11.08265 9.4073554 10.983204 9.71875 10.84375 L 9.78125 10.4375 z "
       id="path3008" />
  </g>
</svg>
