<?xml version="1.0" encoding="UTF-8" standalone="no"?>
<!-- Created with Inkscape (http://www.inkscape.org/) -->

<svg
   xmlns:dc="http://purl.org/dc/elements/1.1/"
   xmlns:cc="http://creativecommons.org/ns#"
   xmlns:rdf="http://www.w3.org/1999/02/22-rdf-syntax-ns#"
   xmlns:svg="http://www.w3.org/2000/svg"
   xmlns="http://www.w3.org/2000/svg"
   xmlns:xlink="http://www.w3.org/1999/xlink"
   xmlns:sodipodi="http://sodipodi.sourceforge.net/DTD/sodipodi-0.dtd"
   xmlns:inkscape="http://www.inkscape.org/namespaces/inkscape"
   width="16"
   height="16"
   id="svg3495"
   version="1.1"
   inkscape:version="0.91 r13725"
   sodipodi:docname="mail-send.svg">
  <defs
     id="defs3497">
    <linearGradient
       inkscape:collect="always"
       id="linearGradient4147">
      <stop
         style="stop-color:#000000;stop-opacity:0.23529412"
         offset="0"
         id="stop4149" />
      <stop
         style="stop-color:#000000;stop-opacity:0.54901963"
         offset="1"
         id="stop4151" />
    </linearGradient>
    <clipPath
       clipPathUnits="userSpaceOnUse"
       id="clipPath3669">
      <path
         inkscape:connector-curvature="0"
         d="M 0,96 96,96 96,0 0,0 0,96 Z"
         id="path3671" />
    </clipPath>
    <radialGradient
       inkscape:collect="always"
       xlink:href="#linearGradient4147"
       id="radialGradient4153"
       cx="12.773167"
       cy="40.926991"
       fx="12.773167"
       fy="40.926991"
       r="10"
       gradientTransform="matrix(1.0909091,2.3986849e-8,-1.5391563e-8,0.70000007,-4.9343633,13.351104)"
       gradientUnits="userSpaceOnUse" />
  </defs>
  <sodipodi:namedview
     id="base"
     pagecolor="#797979"
     bordercolor="#666666"
     borderopacity="1.0"
     inkscape:pageopacity="0"
     inkscape:pageshadow="2"
     inkscape:zoom="1"
     inkscape:cx="10.322589"
     inkscape:cy="11.583236"
     inkscape:current-layer="layer1"
     showgrid="false"
     inkscape:grid-bbox="true"
     inkscape:document-units="px"
     inkscape:window-width="1366"
     inkscape:window-height="718"
     inkscape:window-x="0"
     inkscape:window-y="25"
     inkscape:window-maximized="1"
     inkscape:snap-bbox="true"
     inkscape:bbox-paths="true"
     inkscape:bbox-nodes="true"
     inkscape:snap-bbox-edge-midpoints="false"
     showguides="true"
     inkscape:guide-bbox="true">
    <inkscape:grid
       type="xygrid"
       id="grid3512"
       empspacing="4"
       visible="true"
       enabled="true"
       snapvisiblegridlinesonly="true"
       dotted="false" />
  </sodipodi:namedview>
  <metadata
     id="metadata3500">
    <rdf:RDF>
      <cc:Work
         rdf:about="">
        <dc:format>image/svg+xml</dc:format>
        <dc:type
           rdf:resource="http://purl.org/dc/dcmitype/StillImage" />
        <dc:title></dc:title>
      </cc:Work>
    </rdf:RDF>
  </metadata>
  <g
     id="layer1"
     inkscape:label="Layer 1"
     inkscape:groupmode="layer"
     transform="translate(0,-32)">
    <path
       style="color:#000000;font-style:normal;font-variant:normal;font-weight:normal;font-stretch:normal;font-size:medium;line-height:normal;font-family:sans-serif;text-indent:0;text-align:start;text-decoration:none;text-decoration-line:none;text-decoration-style:solid;text-decoration-color:#000000;letter-spacing:normal;word-spacing:normal;text-transform:none;direction:ltr;block-progression:tb;writing-mode:lr-tb;baseline-shift:baseline;text-anchor:start;white-space:normal;clip-rule:nonzero;display:inline;overflow:visible;visibility:visible;opacity:0.05;isolation:auto;mix-blend-mode:normal;color-interpolation:sRGB;color-interpolation-filters:linearRGB;solid-color:#000000;solid-opacity:1;fill:#ffffff;fill-opacity:1;fill-rule:nonzero;stroke:none;stroke-width:2;stroke-linecap:butt;stroke-linejoin:miter;stroke-miterlimit:4;stroke-dasharray:none;stroke-dashoffset:0;stroke-opacity:1;color-rendering:auto;image-rendering:auto;shape-rendering:auto;text-rendering:auto;enable-background:new"
       d="m 17.367187,33.832031 -2.322265,0.486328 -16.6542965,3.480469 4.041016,3.15625 0,5.46875 4.380859,-2.503906 2.830078,2.039063 7.7246085,-12.126954 z M 15.25,35.296875 l -5.8808585,9.232422 -3.666016,-2.642578 0.910156,0.99414 -3.18164,1.81836 0,-4.232422 -2.728516,-2.13086 L 15.25,35.296875 Z m -1.306641,0.880859 -9.6035145,4.658204 0,2.130859 0.767578,-0.482422 0.794922,-1.193359 8.0410145,-5.113282 z"
       id="path6400-3"
       inkscape:connector-curvature="0" />
    <path
       style="display:inline;fill:url(#radialGradient4153);fill-opacity:1;stroke:none;enable-background:new"
       d="M 15.247455,35.298295 0.702,38.338068 l 2.7272727,2.130683 0,4.232954 3.1818182,-1.818182 0,0 L 5.702,41.889204 9.366776,44.531249 Z m -1.30682,0.880682 -8.0397744,5.113637 -0.7954505,1.193181 -0.7670465,0.482956 0,-2.130683 z"
       id="path6400"
       inkscape:connector-curvature="0"
       sodipodi:nodetypes="ccccccccccccccc" />
    <path
       style="display:inline;fill:#000000;fill-opacity:1;stroke:none;enable-background:new;opacity:0.3"
       d="m 15.249236,35.298311 -14.54687647,3.039062 2.72851597,2.13086 0,4.232422 3.18164,-1.81836 -0.910156,-0.99414 3.666016,2.642578 5.8808605,-9.232422 z m -1.306641,0.880859 -8.0410165,5.113282 -0.794922,1.193359 -0.767578,0.482422 0,-2.13086 9.6035165,-4.658203 z m -2.433594,0.511719 -7.4785165,3.630859 0,-0.146484 -1.939453,-1.515625 9.4179695,-1.96875 z m 1.732422,0.644531 -4.0371105,6.337891 -2.779297,-2.003906 6.8164075,-4.333985 z"
       id="path6400-2"
       inkscape:connector-curvature="0" />
    <path
       style="display:inline;fill:#ffffff;fill-opacity:1;stroke:none;enable-background:new;opacity:0.2"
       d="m 15.247455,36.298656 -0.734376,0.154297 -5.146484,8.078125 -3.27539,-2.361328 -0.08399,0.05469 0.603516,0.658203 -0.511719,0.292969 3.267578,2.355469 5.88086,-9.232422 z m -2.22461,0.464844 -0.501953,0.105468 -8.183594,3.96875 0,1 2.97461,-1.443359 5.710937,-3.630859 z m -11.3125,2.363281 -1.009766,0.210937 2.728516,2.13086 0,-1 -1.71875,-1.341797 z m 4.298828,4.099609 -2.580078,1.47461 0,1 3.181641,-1.81836 -0.601563,-0.65625 z"
       id="path6400-4"
       inkscape:connector-curvature="0" />
    <path
       style="display:inline;fill:#000000;fill-opacity:1;stroke:none;enable-background:new;opacity:0.3"
       d="M 15.248876,35.298295 0.702,38.337357 l 1.009766,0.789063 10.810547,-2.257813 1.419922,-0.689453 -0.917969,0.583985 1.490234,-0.310547 0.734376,-1.154297 z m -1.306641,1.880859 -6.628906,3.214844 -1.41211,0.898438 -0.794922,1.193359 -0.767578,0.482422 0,1 0.767578,-0.482422 0.794922,-1.193359 0.107422,-0.06836 -0.306641,-0.335937 0.390626,0.28125 7.849609,-4.990235 z M 5.702,42.888139 l 0.308594,0.33789 0.08984,-0.05078 -0.398438,-0.287109 z"
       id="path6400-9"
       inkscape:connector-curvature="0" />
  </g>
</svg>
