<?xml version="1.0" encoding="UTF-8" standalone="no"?>
<!-- Created with Inkscape (http://www.inkscape.org/) -->

<svg
   xmlns:dc="http://purl.org/dc/elements/1.1/"
   xmlns:cc="http://creativecommons.org/ns#"
   xmlns:rdf="http://www.w3.org/1999/02/22-rdf-syntax-ns#"
   xmlns:svg="http://www.w3.org/2000/svg"
   xmlns="http://www.w3.org/2000/svg"
   xmlns:xlink="http://www.w3.org/1999/xlink"
   xmlns:sodipodi="http://sodipodi.sourceforge.net/DTD/sodipodi-0.dtd"
   xmlns:inkscape="http://www.inkscape.org/namespaces/inkscape"
   width="16"
   height="16"
   id="svg2"
   sodipodi:version="0.32"
   inkscape:version="0.48.1 r9760"
   version="1.0"
   sodipodi:docname="mail-forward.svg"
   inkscape:output_extension="org.inkscape.output.svg.inkscape"
   inkscape:export-filename="/home/matt/.icons/Sirocco/scalable/mimetypes/text-plain.png"
   inkscape:export-xdpi="90"
   inkscape:export-ydpi="90"
   sodipodi:modified="true"
   style="display:inline">
  <sodipodi:namedview
     id="base"
     pagecolor="#838383"
     bordercolor="#cc0000"
     borderopacity="1"
     inkscape:pageopacity="1"
     inkscape:pageshadow="2"
     inkscape:zoom="25.4708"
     inkscape:cx="-1.0517605"
     inkscape:cy="4.6993776"
     inkscape:document-units="px"
     inkscape:current-layer="layer1"
     width="128px"
     height="128px"
     inkscape:showpageshadow="false"
     inkscape:window-width="1920"
     inkscape:window-height="1030"
     inkscape:window-x="0"
     inkscape:window-y="25"
     showguides="true"
     inkscape:guide-bbox="true"
     showgrid="true"
     inkscape:window-maximized="1"
     borderlayer="true"
     inkscape:snap-global="true">
    <sodipodi:guide
       id="guide2226"
       position="32.637397,117.99844"
       orientation="horizontal" />
    <sodipodi:guide
       id="guide2230"
       position="110,57.402344"
       orientation="vertical" />
    <sodipodi:guide
       id="guide2232"
       position="33.760911"
       orientation="horizontal" />
    <sodipodi:guide
       id="guide2231"
       position="46.774696"
       orientation="horizontal" />
    <inkscape:grid
       enabled="true"
       visible="true"
       id="grid3231"
       type="xygrid"
       empspacing="8"
       snapvisiblegridlinesonly="true" />
    <sodipodi:guide
       orientation="1,0"
       position="100,67.625"
       id="guide2713" />
    <sodipodi:guide
       orientation="1,0"
       position="9,0"
       id="guide3021" />
    <sodipodi:guide
       orientation="0,1"
       position="13,6"
       id="guide3023" />
  </sodipodi:namedview>
  <defs
     id="defs4">
    <linearGradient
       inkscape:collect="always"
       xlink:href="#StandardGradient"
       id="linearGradient2428"
       gradientUnits="userSpaceOnUse"
       gradientTransform="matrix(0.9247229,0,0,1.0872097,10.939944,-2.0023588)"
       x1="11.998966"
       y1="3.6813121"
       x2="11.998966"
       y2="16.529612" />
    <inkscape:perspective
       sodipodi:type="inkscape:persp3d"
       inkscape:vp_x="0 : 11 : 1"
       inkscape:vp_y="0 : 1000 : 0"
       inkscape:vp_z="22 : 11 : 1"
       inkscape:persp3d-origin="11 : 7.3333333 : 1"
       id="perspective19" />
    <linearGradient
       id="StandardGradient"
       gradientTransform="scale(0.9219544,1.0846523)"
       x1="11.998966"
       y1="0.92195445"
       x2="11.998966"
       y2="19.387045"
       gradientUnits="userSpaceOnUse">
      <stop
         style="stop-color:#000000;stop-opacity:0.23529412;"
         offset="0"
         id="stop3283" />
      <stop
         style="stop-color:#000000;stop-opacity:0.54901963;"
         offset="1"
         id="stop2651" />
    </linearGradient>
    <linearGradient
       inkscape:collect="always"
       xlink:href="#StandardGradient"
       id="linearGradient2549"
       gradientUnits="userSpaceOnUse"
       gradientTransform="matrix(0.9247229,0,0,1.0872097,-2.0600562,0.9976422)"
       x1="11.998966"
       y1="0.92195445"
       x2="11.998966"
       y2="17.478098" />
    <linearGradient
       inkscape:collect="always"
       xlink:href="#StandardGradient"
       id="linearGradient2418"
       gradientUnits="userSpaceOnUse"
       gradientTransform="matrix(0.9247229,0,0,1.0872097,-4.0600562,-3.0023583)"
       x1="11.998966"
       y1="0.92195445"
       x2="11.998966"
       y2="17.478098" />
    <linearGradient
       inkscape:collect="always"
       xlink:href="#StandardGradient"
       id="linearGradient2422"
       gradientUnits="userSpaceOnUse"
       gradientTransform="matrix(0.9247229,0,0,1.0872097,-5.0600562,-1.0023583)"
       x1="11.998966"
       y1="0.92195445"
       x2="11.998966"
       y2="17.478098" />
    <linearGradient
       inkscape:collect="always"
       xlink:href="#StandardGradient"
       id="linearGradient2403"
       gradientUnits="userSpaceOnUse"
       gradientTransform="matrix(0.9247229,0,0,1.0872097,-4.0600562,-3.0023583)"
       x1="11.998966"
       y1="0.92195445"
       x2="11.998966"
       y2="17.478098" />
    <linearGradient
       inkscape:collect="always"
       xlink:href="#StandardGradient"
       id="linearGradient2406"
       gradientUnits="userSpaceOnUse"
       gradientTransform="matrix(0.9247229,0,0,1.0872097,-4.0600562,-3.0023583)"
       x1="11.998966"
       y1="0.92195445"
       x2="11.998966"
       y2="17.478098" />
    <linearGradient
       inkscape:collect="always"
       xlink:href="#StandardGradient"
       id="linearGradient2409"
       gradientUnits="userSpaceOnUse"
       gradientTransform="matrix(0.9247229,0,0,1.0872097,-6.0600562,-2.0023583)"
       x1="11.998966"
       y1="3.6800685"
       x2="11.998966"
       y2="15.638639" />
    <linearGradient
       inkscape:collect="always"
       xlink:href="#StandardGradient"
       id="linearGradient2416"
       gradientUnits="userSpaceOnUse"
       gradientTransform="matrix(0.9247229,0,0,1.0872097,-6.0600562,-2.0023583)"
       x1="11.998966"
       y1="2.7615263"
       x2="11.998966"
       y2="15.638639" />
    <linearGradient
       inkscape:collect="always"
       xlink:href="#StandardGradient"
       id="linearGradient2529"
       gradientUnits="userSpaceOnUse"
       gradientTransform="matrix(0.9247229,0,0,1.0872097,-4.0418814,0.9976412)"
       x1="11.998966"
       y1="3.6813121"
       x2="11.998966"
       y2="16.529612" />
    <linearGradient
       inkscape:collect="always"
       xlink:href="#StandardGradient"
       id="linearGradient2539"
       gradientUnits="userSpaceOnUse"
       gradientTransform="matrix(0.9247229,0,0,1.0872097,-6.0600562,-2.0023583)"
       x1="11.998966"
       y1="2.7615263"
       x2="11.998966"
       y2="15.638639" />
    <linearGradient
       inkscape:collect="always"
       xlink:href="#StandardGradient"
       id="linearGradient2542"
       gradientUnits="userSpaceOnUse"
       gradientTransform="matrix(0.9247229,0,0,1.0872097,-6.0600562,-2.0023583)"
       x1="11.998966"
       y1="2.7615263"
       x2="11.998966"
       y2="15.638639" />
    <linearGradient
       inkscape:collect="always"
       xlink:href="#StandardGradient"
       id="linearGradient2412"
       gradientUnits="userSpaceOnUse"
       gradientTransform="matrix(0.9247229,0,0,1.0872097,-6.0600562,-2.0023583)"
       x1="11.998966"
       y1="2.7615263"
       x2="11.998966"
       y2="15.638639" />
    <inkscape:perspective
       id="perspective2892"
       inkscape:persp3d-origin="0.5 : 0.33333333 : 1"
       inkscape:vp_z="1 : 0.5 : 1"
       inkscape:vp_y="0 : 1000 : 0"
       inkscape:vp_x="0 : 0.5 : 1"
       sodipodi:type="inkscape:persp3d" />
    <linearGradient
       inkscape:collect="always"
       xlink:href="#StandardGradient"
       id="linearGradient2942"
       gradientUnits="userSpaceOnUse"
       gradientTransform="matrix(0.9247229,0,0,1.0872097,-26.060056,-2.0023583)"
       x1="11.998966"
       y1="2.7615263"
       x2="11.998966"
       y2="15.638639" />
    <clipPath
       clipPathUnits="userSpaceOnUse"
       id="clipPath2949">
      <path
         style="fill:#ff00ff;fill-opacity:1;stroke:none;display:inline"
         d="m -20,0 0,16 16,0 0,-16 -16,0 z m 3,1 3,0 c 0.554,0 1,0.446 1,1 l 6,0 c 0.554,0 1,0.446 1,1 l -12,0 0,-1 c 0,-0.554 0.446,-1 1,-1 z m -0.5,3 4,0 6,0 1,0 C -5.669,4 -5,4.669 -5,5.5 l 0,4.5 0,1.5 c 0,0.647488 -0.396277,1.195291 -0.96875,1.40625 l 0,0.15625 -0.03125,0 0,0.4375 c 0,0.831 -0.669,1.5 -1.5,1.5 l -6,0 c -0.831,0 -1.5,-0.669 -1.5,-1.5 l 0,-0.5 -2.5,0 c -0.831,0 -1.5,-0.669 -1.5,-1.5 l 0,-1.5 0,-4.5 C -19,4.669 -18.331,4 -17.5,4 z m 5,2 C -12.777,6 -13,6.223 -13,6.5 l 0,6 c 0,0.277 0.223,0.5 0.5,0.5 l 4,0 c 0.277,0 0.5,-0.223 0.5,-0.5 l 0,-6 C -8,6.223 -8.223,6 -8.5,6 l -4,0 z"
         id="path2951" />
    </clipPath>
    <linearGradient
       inkscape:collect="always"
       xlink:href="#StandardGradient"
       id="linearGradient5012"
       gradientUnits="userSpaceOnUse"
       gradientTransform="matrix(0.9247229,0,0,1.0872097,-6.0600562,-2.0023583)"
       x1="11.998966"
       y1="2.7615263"
       x2="11.998966"
       y2="15.638639" />
    <linearGradient
       inkscape:collect="always"
       xlink:href="#StandardGradient"
       id="linearGradient5016"
       gradientUnits="userSpaceOnUse"
       gradientTransform="matrix(0.9247229,0,0,1.0872097,-6.0600562,-2.0023583)"
       x1="11.998966"
       y1="2.7615263"
       x2="11.998966"
       y2="15.638639" />
    <linearGradient
       inkscape:collect="always"
       xlink:href="#StandardGradient"
       id="linearGradient3176"
       gradientUnits="userSpaceOnUse"
       gradientTransform="matrix(0.9247229,0,0,1.0872097,-6.0600562,-2.0023583)"
       x1="11.998966"
       y1="2.7615263"
       x2="11.998966"
       y2="15.638639" />
    <linearGradient
       inkscape:collect="always"
       xlink:href="#StandardGradient"
       id="linearGradient3180"
       gradientUnits="userSpaceOnUse"
       gradientTransform="matrix(0.9247229,0,0,1.0872097,-6.0600562,-2.0023583)"
       x1="11.998966"
       y1="2.7615263"
       x2="11.998966"
       y2="15.638639" />
    <linearGradient
       inkscape:collect="always"
       xlink:href="#StandardGradient"
       id="linearGradient3789"
       gradientUnits="userSpaceOnUse"
       gradientTransform="matrix(0.9247229,0,0,1.0872097,-6.0600562,-2.0023583)"
       x1="11.998966"
       y1="2.7615263"
       x2="11.998966"
       y2="15.638639" />
    <linearGradient
       inkscape:collect="always"
       xlink:href="#StandardGradient"
       id="linearGradient3793"
       gradientUnits="userSpaceOnUse"
       gradientTransform="matrix(0.9247229,0,0,1.0872097,-6.0600562,-2.0023583)"
       x1="11.998966"
       y1="2.7615263"
       x2="11.998966"
       y2="15.638639" />
    <linearGradient
       inkscape:collect="always"
       xlink:href="#StandardGradient"
       id="linearGradient3795"
       gradientUnits="userSpaceOnUse"
       gradientTransform="matrix(0.9247229,0,0,1.0872097,-6.0600562,-2.0023583)"
       x1="11.998966"
       y1="2.7615263"
       x2="11.998966"
       y2="15.638639" />
    <radialGradient
       inkscape:collect="always"
       xlink:href="#StandardGradient"
       id="radialGradient3798"
       cx="9"
       cy="9.875"
       fx="9"
       fy="9.875"
       r="7"
       gradientUnits="userSpaceOnUse"
       gradientTransform="matrix(2.1428571,5.7142857e-8,-3.047619e-8,1.1428571,-10.285714,-1.2857148)" />
    <radialGradient
       inkscape:collect="always"
       xlink:href="#StandardGradient"
       id="radialGradient3821"
       cx="9"
       cy="9.4285717"
       fx="9"
       fy="9.4285717"
       r="5"
       gradientTransform="matrix(2.2,-3.6613427e-8,2.6627949e-8,1.6000001,-10.8,-5.0857148)"
       gradientUnits="userSpaceOnUse" />
    <radialGradient
       inkscape:collect="always"
       xlink:href="#StandardGradient"
       id="radialGradient3829"
       gradientUnits="userSpaceOnUse"
       gradientTransform="matrix(2.2,-3.6613427e-8,2.6627949e-8,1.6000001,-30.8,-5.0857148)"
       cx="9"
       cy="9.4285717"
       fx="9"
       fy="9.4285717"
       r="5" />
    <radialGradient
       inkscape:collect="always"
       xlink:href="#StandardGradient"
       id="radialGradient3836"
       gradientUnits="userSpaceOnUse"
       gradientTransform="matrix(2.2,-3.6613427e-8,2.6627949e-8,1.6000001,-10.8,-5.0857148)"
       cx="9"
       cy="9.4285717"
       fx="9"
       fy="9.4285717"
       r="5" />
    <radialGradient
       inkscape:collect="always"
       xlink:href="#StandardGradient"
       id="radialGradient3840"
       gradientUnits="userSpaceOnUse"
       gradientTransform="matrix(2.2,-3.6613427e-8,2.6627949e-8,1.6000001,-10.8,-5.0857148)"
       cx="9"
       cy="9.4285717"
       fx="9"
       fy="9.4285717"
       r="5" />
    <radialGradient
       inkscape:collect="always"
       xlink:href="#StandardGradient"
       id="radialGradient3842"
       gradientUnits="userSpaceOnUse"
       gradientTransform="matrix(2.2,-3.6613427e-8,2.6627949e-8,1.6000001,-10.8,-5.0857148)"
       cx="9"
       cy="9.4285717"
       fx="9"
       fy="9.4285717"
       r="5" />
    <radialGradient
       inkscape:collect="always"
       xlink:href="#StandardGradient"
       id="radialGradient3849"
       gradientUnits="userSpaceOnUse"
       gradientTransform="matrix(2.2,-3.6613427e-8,2.6627949e-8,1.6000001,-10.8,-4.0857148)"
       cx="9"
       cy="9.4285717"
       fx="9"
       fy="9.4285717"
       r="5" />
    <radialGradient
       inkscape:collect="always"
       xlink:href="#StandardGradient"
       id="radialGradient3851"
       gradientUnits="userSpaceOnUse"
       gradientTransform="matrix(2.2,-3.6613427e-8,2.6627949e-8,1.6000001,-10.8,-5.0857148)"
       cx="9"
       cy="9.4285717"
       fx="9"
       fy="9.4285717"
       r="5" />
    <radialGradient
       inkscape:collect="always"
       xlink:href="#StandardGradient"
       id="radialGradient3856"
       gradientUnits="userSpaceOnUse"
       gradientTransform="matrix(2.2,-3.6613427e-8,2.6627949e-8,1.6000001,-10.8,-4.0857148)"
       cx="9"
       cy="9.4285717"
       fx="9"
       fy="9.4285717"
       r="5" />
    <radialGradient
       inkscape:collect="always"
       xlink:href="#StandardGradient"
       id="radialGradient3860"
       gradientUnits="userSpaceOnUse"
       gradientTransform="matrix(2.2,-3.6613427e-8,2.6627949e-8,1.6000001,-10.8,-5.0857148)"
       cx="9"
       cy="9.4285717"
       fx="9"
       fy="9.4285717"
       r="5" />
    <radialGradient
       inkscape:collect="always"
       xlink:href="#StandardGradient"
       id="radialGradient3867"
       gradientUnits="userSpaceOnUse"
       gradientTransform="matrix(2.2,-3.6613427e-8,2.6627949e-8,1.6000001,-10.8,-5.0857148)"
       cx="9"
       cy="9.4285717"
       fx="9"
       fy="9.4285717"
       r="5" />
    <radialGradient
       inkscape:collect="always"
       xlink:href="#StandardGradient"
       id="radialGradient3871"
       gradientUnits="userSpaceOnUse"
       gradientTransform="matrix(2.2,-3.6613427e-8,2.6627949e-8,1.6000001,-10.8,-5.0857148)"
       cx="9"
       cy="9.4285717"
       fx="9"
       fy="9.4285717"
       r="5" />
    <radialGradient
       inkscape:collect="always"
       xlink:href="#StandardGradient"
       id="radialGradient3861"
       cx="9"
       cy="10.8"
       fx="9"
       fy="10.8"
       r="7"
       gradientTransform="matrix(1.5714286,0,0,0.85714287,-5.1428571,0.74285689)"
       gradientUnits="userSpaceOnUse" />
    <radialGradient
       inkscape:collect="always"
       xlink:href="#StandardGradient"
       id="radialGradient3868"
       gradientUnits="userSpaceOnUse"
       gradientTransform="matrix(1.5714286,0,0,0.85714287,-5.1428571,0.74285689)"
       cx="9"
       cy="10.8"
       fx="9"
       fy="10.8"
       r="7" />
    <radialGradient
       inkscape:collect="always"
       xlink:href="#StandardGradient"
       id="radialGradient3872"
       gradientUnits="userSpaceOnUse"
       gradientTransform="matrix(1.5714286,0,0,0.85714287,-5.1428571,0.74285689)"
       cx="9"
       cy="10.8"
       fx="9"
       fy="10.8"
       r="7" />
    <radialGradient
       inkscape:collect="always"
       xlink:href="#StandardGradient"
       id="radialGradient3874"
       gradientUnits="userSpaceOnUse"
       gradientTransform="matrix(1.5714286,0,0,0.85714287,-5.1428571,0.74285689)"
       cx="9"
       cy="10.8"
       fx="9"
       fy="10.8"
       r="7" />
    <radialGradient
       inkscape:collect="always"
       xlink:href="#StandardGradient"
       id="radialGradient3881"
       gradientUnits="userSpaceOnUse"
       gradientTransform="matrix(1.5714286,0,0,0.85714287,-5.1428571,1.7428569)"
       cx="9"
       cy="10.8"
       fx="9"
       fy="10.8"
       r="7" />
    <radialGradient
       inkscape:collect="always"
       xlink:href="#StandardGradient"
       id="radialGradient3883"
       gradientUnits="userSpaceOnUse"
       gradientTransform="matrix(1.5714286,0,0,0.85714287,-5.1428571,0.74285689)"
       cx="9"
       cy="10.8"
       fx="9"
       fy="10.8"
       r="7" />
    <radialGradient
       inkscape:collect="always"
       xlink:href="#StandardGradient"
       id="radialGradient3888"
       gradientUnits="userSpaceOnUse"
       gradientTransform="matrix(1.5714286,0,0,0.85714287,-5.1428571,1.7428569)"
       cx="9"
       cy="10.8"
       fx="9"
       fy="10.8"
       r="7" />
    <radialGradient
       inkscape:collect="always"
       xlink:href="#StandardGradient"
       id="radialGradient3892"
       gradientUnits="userSpaceOnUse"
       gradientTransform="matrix(1.5714286,0,0,0.85714287,-5.1428571,0.7428569)"
       cx="9"
       cy="10.8"
       fx="9"
       fy="10.8"
       r="7" />
    <radialGradient
       inkscape:collect="always"
       xlink:href="#StandardGradient"
       id="radialGradient3899"
       gradientUnits="userSpaceOnUse"
       gradientTransform="matrix(1.5714286,0,0,0.85714287,-5.1428571,0.74285689)"
       cx="9"
       cy="10.8"
       fx="9"
       fy="10.8"
       r="7" />
    <radialGradient
       inkscape:collect="always"
       xlink:href="#StandardGradient"
       id="radialGradient3903"
       gradientUnits="userSpaceOnUse"
       gradientTransform="matrix(1.5714286,0,0,0.85714287,-5.1428571,0.74285689)"
       cx="9"
       cy="10.8"
       fx="9"
       fy="10.8"
       r="7" />
    <radialGradient
       inkscape:collect="always"
       xlink:href="#StandardGradient"
       id="radialGradient3922"
       gradientUnits="userSpaceOnUse"
       gradientTransform="matrix(1.5714036,0.00886026,-0.00560865,0.99471888,-5.0820591,-0.82270632)"
       cx="9"
       cy="10.8"
       fx="9"
       fy="10.8"
       r="7" />
    <radialGradient
       inkscape:collect="always"
       xlink:href="#StandardGradient"
       id="radialGradient3926"
       gradientUnits="userSpaceOnUse"
       gradientTransform="matrix(1.5714036,0.00886026,-0.00560865,0.99471888,-5.0820591,-0.82270632)"
       cx="9"
       cy="10.8"
       fx="9"
       fy="10.8"
       r="7" />
    <radialGradient
       inkscape:collect="always"
       xlink:href="#StandardGradient"
       id="radialGradient3928"
       gradientUnits="userSpaceOnUse"
       gradientTransform="matrix(1.5714036,0.00886026,-0.00560865,0.99471888,-5.0820591,-0.82270632)"
       cx="9"
       cy="10.8"
       fx="9"
       fy="10.8"
       r="7" />
    <radialGradient
       inkscape:collect="always"
       xlink:href="#StandardGradient"
       id="radialGradient3935"
       gradientUnits="userSpaceOnUse"
       gradientTransform="matrix(1.5714036,0.00886026,-0.00560865,0.99471888,-5.0820591,0.17729368)"
       cx="9"
       cy="10.8"
       fx="9"
       fy="10.8"
       r="7" />
    <radialGradient
       inkscape:collect="always"
       xlink:href="#StandardGradient"
       id="radialGradient3937"
       gradientUnits="userSpaceOnUse"
       gradientTransform="matrix(1.5714036,0.00886026,-0.00560865,0.99471888,-5.0820591,-0.82270632)"
       cx="9"
       cy="10.8"
       fx="9"
       fy="10.8"
       r="7" />
    <radialGradient
       inkscape:collect="always"
       xlink:href="#StandardGradient"
       id="radialGradient3942"
       gradientUnits="userSpaceOnUse"
       gradientTransform="matrix(1.5714036,0.00886026,-0.00560865,0.99471888,-5.0820591,0.17729368)"
       cx="9"
       cy="10.8"
       fx="9"
       fy="10.8"
       r="7" />
    <radialGradient
       inkscape:collect="always"
       xlink:href="#StandardGradient"
       id="radialGradient3946"
       gradientUnits="userSpaceOnUse"
       gradientTransform="matrix(1.5714036,0.00886026,-0.00560865,0.99471888,-5.0820591,-0.82270632)"
       cx="9"
       cy="10.8"
       fx="9"
       fy="10.8"
       r="7" />
    <radialGradient
       inkscape:collect="always"
       xlink:href="#StandardGradient"
       id="radialGradient3953"
       gradientUnits="userSpaceOnUse"
       gradientTransform="matrix(1.5714036,0.00886026,-0.00560865,0.99471888,-5.0820591,-0.82270632)"
       cx="9"
       cy="10.8"
       fx="9"
       fy="10.8"
       r="7" />
    <radialGradient
       inkscape:collect="always"
       xlink:href="#StandardGradient"
       id="radialGradient3957"
       gradientUnits="userSpaceOnUse"
       gradientTransform="matrix(1.5714036,0.00886026,-0.00560865,0.99471888,-5.0820591,-0.82270632)"
       cx="9"
       cy="10.8"
       fx="9"
       fy="10.8"
       r="7" />
    <radialGradient
       inkscape:collect="always"
       xlink:href="#StandardGradient-5"
       id="radialGradient3876"
       gradientUnits="userSpaceOnUse"
       gradientTransform="matrix(-7.9495968e-8,-0.87501265,-2.000029,1.9384686e-7,37.774388,21.312649)"
       cx="9.5000362"
       cy="12.874928"
       fx="9.5000362"
       fy="12.874928"
       r="7.9998837" />
    <linearGradient
       id="StandardGradient-5"
       gradientTransform="scale(0.9219544,1.0846523)"
       x1="11.998966"
       y1="0.92195445"
       x2="11.998966"
       y2="19.387045"
       gradientUnits="userSpaceOnUse">
      <stop
         style="stop-color:#000000;stop-opacity:0.23529412;"
         offset="0"
         id="stop3283-0" />
      <stop
         id="stop3850"
         offset="0.69999999"
         style="stop-color:#000000;stop-opacity:0.39215686;" />
      <stop
         style="stop-color:#000000;stop-opacity:0.55;"
         offset="1"
         id="stop2651-4" />
    </linearGradient>
    <radialGradient
       r="7.9998837"
       fy="14.516692"
       fx="8.8504972"
       cy="14.516692"
       cx="8.8504972"
       gradientTransform="matrix(1.3750199,-5.6714566e-8,2.1191856e-8,0.62500912,-3.16961,0.92693573)"
       gradientUnits="userSpaceOnUse"
       id="radialGradient3847"
       xlink:href="#StandardGradient"
       inkscape:collect="always" />
  </defs>
  <metadata
     id="metadata7">
    <rdf:RDF>
      <cc:Work
         rdf:about="">
        <dc:format>image/svg+xml</dc:format>
        <dc:type
           rdf:resource="http://purl.org/dc/dcmitype/StillImage" />
        <dc:title></dc:title>
      </cc:Work>
    </rdf:RDF>
  </metadata>
  <g
     style="display:inline"
     inkscape:label="Calque 1"
     id="layer1"
     inkscape:groupmode="layer">
    <path
       style="opacity:0.05;fill:#ffffff;fill-opacity:1;stroke:none;display:inline"
       d="m 8.0943734,1.96875 a 1.0216336,1.0216336 0 0 1 0.53125,0.25 l 5.9999996,5 a 1.0216336,1.0216336 0 0 1 0,1.5625 l -5.9999996,5 A 1.0216336,1.0216336 0 0 1 6.9381234,13 l 0,-2.0625 c -1.112917,-0.133021 -2.319158,-0.236313 -2.46875,-0.15625 -0.100377,0.05372 -0.07744,-0.0316 -0.09375,0.25 -0.01631,0.281596 0.088666,0.89348 0.4375,1.78125 a 1.0216336,1.0216336 0 0 1 -1.78125,0.96875 c -0.920402,-1.288562 -1.631929,-2.396831 -1.9375,-3.59375 -0.305571,-1.1969188 0.00235,-2.5173383 0.9375,-3.5625 0.903014,-1.0092515 1.95569,-1.4868671 2.96875,-1.625 0.661194,-0.090155 1.2972853,-0.054587 1.9375,-0.03125 l 0,-1.96875 a 1.0216336,1.0216336 0 0 1 1.0625,-1.03125 1.0216336,1.0216336 0 0 1 0.09375,0 z M 7.9693734,3 l 0,3 c -2.166239,0 -3.653081,-0.4024389 -5.1875,1.3125 -1.534419,1.7149391 -0.711449,3.347722 1.09375,5.875 C 2.3668164,9.34764 4.3589754,9.2779205 7.9693734,10 l 0,3 L 13.969373,8 7.9693734,3 z"
       id="path3904"
       inkscape:connector-curvature="0" />
    <path
       sodipodi:nodetypes="cccccczc"
       inkscape:connector-curvature="0"
       id="path3874"
       d="M 3.8602604,13.2 C 2.3514534,9.36014 4.3589754,9.2779205 7.9693734,10 l 0,3 5.9999996,-5 -5.9999996,-5 0,3 C 5.8031344,6 4.3120164,5.6091712 2.7775974,7.3241101 1.2431784,9.0390492 2.0550614,10.672722 3.8602604,13.2 z"
       style="fill:url(#radialGradient3847);fill-opacity:1;stroke:none;display:inline" />
    <path
       style="opacity:0.3;fill:#000000;fill-opacity:1;stroke:none;display:inline"
       d="m 7.9693734,3 5.9999996,5 -5.9999996,5 0,-3 C 4.3589754,9.2779205 2.3668164,9.34764 3.8756234,13.1875 2.0704244,10.660222 1.2474544,9.0274391 2.7818734,7.3125 4.3162924,5.5975611 5.8031344,6 7.9693734,6 l 0,-3 z m 0.46875,1.03125 0,1.96875 a 0.47117483,0.47117483 0 0 1 -0.46875,0.46875 c -1.1122945,0 -2.029404,-0.1025158 -2.78125,0 -0.751846,0.1025158 -1.357923,0.3687821 -2.0625,1.15625 -0.689758,0.7709064 -0.80291,1.3994718 -0.59375,2.21875 0.073347,0.2873 0.237333,0.631781 0.40625,0.96875 0.073313,-0.591587 0.370299,-1.0903556 0.84375,-1.34375 1.019002,-0.5453767 2.4568511,-0.3023797 4.28125,0.0625 A 0.47117483,0.47117483 0 0 1 8.4381234,10 l 0,1.96875 L 13.219373,8 8.4381234,4.03125 z"
       id="path3866"
       inkscape:connector-curvature="0" />
    <path
       style="opacity:0.3;fill:#000000;fill-opacity:1;stroke:none;display:inline"
       d="M 7.9693734,3 13.969373,8 13.375623,8.5 7.9693734,4 l 0,-1 z m -1.5,2.96875 C 6.9377684,5.9785943 7.4278137,6 7.9693734,6 l 0,1 c -2.166239,0 -3.653081,-0.4024389 -5.1875,1.3125 -0.383605,0.4287347 -0.638543,0.8786912 -0.75,1.3125 -0.114269,-0.8016233 0.078108,-1.5615619 0.75,-2.3125 1.150814,-1.2862042 2.282315,-1.3732828 3.6875,-1.34375 z m -3.0625,5.65625 c 0.068051,0.43724 0.224455,0.940778 0.46875,1.5625 -0.162637,-0.227692 -0.323228,-0.442352 -0.46875,-0.65625 -0.04923,-0.368004 -0.070231,-0.65728 0,-0.90625 z"
       id="path3880"
       inkscape:connector-curvature="0" />
    <path
       style="opacity:0.2;fill:#ffffff;fill-opacity:1;stroke:none;display:inline"
       d="m 13.375623,8.5 0.59375,0.5 -5.9999996,5 0,-1 5.4062496,-4.5 z M 5.5943734,9.65625 c 0.6723423,0.033836 1.4724005,0.1632302 2.375,0.34375 l 0,1 c -2.482149,-0.496429 -4.217349,-0.598576 -4.5625,0.625 -0.247169,-1.588108 0.605916,-2.0483453 2.1875,-1.96875 z m -3.5625,0.03125 c 0.138226,0.84732 0.630587,1.749564 1.375,2.84375 0.060744,0.454073 0.208316,0.993455 0.46875,1.65625 -1.332602,-1.865642 -2.138025,-3.216116 -1.84375,-4.5 z"
       id="path3889"
       inkscape:connector-curvature="0" />
  </g>
</svg>
