<?xml version="1.0" encoding="UTF-8" standalone="no"?>
<!-- Created with Inkscape (http://www.inkscape.org/) -->

<svg
   xmlns:dc="http://purl.org/dc/elements/1.1/"
   xmlns:cc="http://creativecommons.org/ns#"
   xmlns:rdf="http://www.w3.org/1999/02/22-rdf-syntax-ns#"
   xmlns:svg="http://www.w3.org/2000/svg"
   xmlns="http://www.w3.org/2000/svg"
   xmlns:xlink="http://www.w3.org/1999/xlink"
   xmlns:sodipodi="http://sodipodi.sourceforge.net/DTD/sodipodi-0.dtd"
   xmlns:inkscape="http://www.inkscape.org/namespaces/inkscape"
   width="16"
   height="16"
   id="svg2"
   sodipodi:version="0.32"
   inkscape:version="0.91 r13725"
   version="1.0"
   sodipodi:docname="media-optical-copy.svg"
   inkscape:output_extension="org.inkscape.output.svg.inkscape"
   inkscape:export-filename="/home/matt/.icons/Sirocco/scalable/mimetypes/text-plain.png"
   inkscape:export-xdpi="90"
   inkscape:export-ydpi="90"
   sodipodi:modified="true"
   style="display:inline">
  <sodipodi:namedview
     id="base"
     pagecolor="#777777"
     bordercolor="#666666"
     borderopacity="1.0"
     inkscape:pageopacity="0"
     inkscape:pageshadow="2"
     inkscape:zoom="19.057128"
     inkscape:cx="17.868932"
     inkscape:cy="5.5973161"
     inkscape:document-units="px"
     inkscape:current-layer="layer1"
     width="128px"
     height="128px"
     inkscape:showpageshadow="false"
     inkscape:window-width="1366"
     inkscape:window-height="718"
     inkscape:window-x="0"
     inkscape:window-y="25"
     showguides="true"
     inkscape:guide-bbox="true"
     showgrid="true"
     inkscape:window-maximized="1"
     inkscape:snap-bbox="true"
     inkscape:bbox-paths="true"
     inkscape:bbox-nodes="true"
     inkscape:snap-bbox-edge-midpoints="true">
    <sodipodi:guide
       id="guide2226"
       position="32.637397,117.99844"
       orientation="horizontal" />
    <sodipodi:guide
       id="guide2230"
       position="110,57.402344"
       orientation="vertical" />
    <sodipodi:guide
       id="guide2232"
       position="33.760911"
       orientation="horizontal" />
    <sodipodi:guide
       id="guide2231"
       position="46.774696"
       orientation="horizontal" />
    <inkscape:grid
       enabled="true"
       visible="true"
       id="grid3231"
       type="xygrid" />
    <sodipodi:guide
       orientation="1,0"
       position="100,67.625"
       id="guide2713" />
  </sodipodi:namedview>
  <defs
     id="defs4">
    <linearGradient
       gradientUnits="userSpaceOnUse"
       y2="19.387045"
       x2="11.998966"
       y1="0.92195445"
       x1="11.998966"
       gradientTransform="scale(0.9219544,1.0846523)"
       id="linearGradient4180">
      <stop
         id="stop4182"
         offset="0"
         style="stop-color:#000000;stop-opacity:0.23529412" />
      <stop
         id="stop4184"
         offset="1"
         style="stop-color:#000000;stop-opacity:0.54901963" />
    </linearGradient>
    <linearGradient
       inkscape:collect="always"
       xlink:href="#StandardGradient"
       id="linearGradient2428"
       gradientUnits="userSpaceOnUse"
       gradientTransform="matrix(0.9247229,0,0,1.0872097,10.939944,-2.0023588)"
       x1="11.998966"
       y1="3.6813121"
       x2="11.998966"
       y2="16.529612" />
    <inkscape:perspective
       sodipodi:type="inkscape:persp3d"
       inkscape:vp_x="0 : 11 : 1"
       inkscape:vp_y="0 : 1000 : 0"
       inkscape:vp_z="22 : 11 : 1"
       inkscape:persp3d-origin="11 : 7.3333333 : 1"
       id="perspective19" />
    <linearGradient
       id="StandardGradient"
       gradientTransform="scale(0.9219544,1.0846523)"
       x1="11.998966"
       y1="0.92195445"
       x2="11.998966"
       y2="19.387045"
       gradientUnits="userSpaceOnUse">
      <stop
         style="stop-color:#000000;stop-opacity:0.86274511;"
         offset="0"
         id="stop3283" />
      <stop
         style="stop-color:#000000;stop-opacity:0.47058824;"
         offset="1"
         id="stop2651" />
    </linearGradient>
    <linearGradient
       inkscape:collect="always"
       xlink:href="#StandardGradient"
       id="linearGradient2549"
       gradientUnits="userSpaceOnUse"
       gradientTransform="matrix(0.9247229,0,0,1.0872097,-2.0600562,0.9976422)"
       x1="11.998966"
       y1="0.92195445"
       x2="11.998966"
       y2="17.478098" />
    <linearGradient
       inkscape:collect="always"
       xlink:href="#StandardGradient"
       id="linearGradient2418"
       gradientUnits="userSpaceOnUse"
       gradientTransform="matrix(0.9247229,0,0,1.0872097,-4.0600562,-3.0023583)"
       x1="11.998966"
       y1="0.92195445"
       x2="11.998966"
       y2="17.478098" />
    <linearGradient
       inkscape:collect="always"
       xlink:href="#StandardGradient"
       id="linearGradient2422"
       gradientUnits="userSpaceOnUse"
       gradientTransform="matrix(0.9247229,0,0,1.0872097,-5.0600562,-1.0023583)"
       x1="11.998966"
       y1="0.92195445"
       x2="11.998966"
       y2="17.478098" />
    <linearGradient
       inkscape:collect="always"
       xlink:href="#StandardGradient"
       id="linearGradient2403"
       gradientUnits="userSpaceOnUse"
       gradientTransform="matrix(0.9247229,0,0,1.0872097,-4.0600562,-3.0023583)"
       x1="11.998966"
       y1="0.92195445"
       x2="11.998966"
       y2="17.478098" />
    <linearGradient
       inkscape:collect="always"
       xlink:href="#StandardGradient"
       id="linearGradient2406"
       gradientUnits="userSpaceOnUse"
       gradientTransform="matrix(0.9247229,0,0,1.0872097,-4.0600562,-3.0023583)"
       x1="11.998966"
       y1="0.92195445"
       x2="11.998966"
       y2="17.478098" />
    <linearGradient
       inkscape:collect="always"
       xlink:href="#StandardGradient"
       id="linearGradient2409"
       gradientUnits="userSpaceOnUse"
       gradientTransform="matrix(0.9247229,0,0,1.0872097,-6.0600562,-2.0023583)"
       x1="11.998966"
       y1="3.6800685"
       x2="11.998966"
       y2="15.638639" />
    <linearGradient
       inkscape:collect="always"
       xlink:href="#StandardGradient"
       id="linearGradient2416"
       gradientUnits="userSpaceOnUse"
       gradientTransform="matrix(0.9247229,0,0,1.0872097,-6.0600562,-2.0023583)"
       x1="11.998966"
       y1="2.7615263"
       x2="11.998966"
       y2="15.638639" />
    <linearGradient
       inkscape:collect="always"
       xlink:href="#StandardGradient"
       id="linearGradient2529"
       gradientUnits="userSpaceOnUse"
       gradientTransform="matrix(0.9247229,0,0,1.0872097,-4.0418814,0.9976412)"
       x1="11.998966"
       y1="3.6813121"
       x2="11.998966"
       y2="16.529612" />
    <linearGradient
       inkscape:collect="always"
       xlink:href="#StandardGradient"
       id="linearGradient2539"
       gradientUnits="userSpaceOnUse"
       gradientTransform="matrix(0.9247229,0,0,1.0872097,-6.0600562,-2.0023583)"
       x1="11.998966"
       y1="2.7615263"
       x2="11.998966"
       y2="15.638639" />
    <linearGradient
       inkscape:collect="always"
       xlink:href="#StandardGradient"
       id="linearGradient2542"
       gradientUnits="userSpaceOnUse"
       gradientTransform="matrix(0.9247229,0,0,1.0872097,-6.0600562,-2.0023583)"
       x1="11.998966"
       y1="2.7615263"
       x2="11.998966"
       y2="15.638639" />
    <linearGradient
       inkscape:collect="always"
       xlink:href="#StandardGradient"
       id="linearGradient2412"
       gradientUnits="userSpaceOnUse"
       gradientTransform="matrix(0.9247229,0,0,1.0872097,-6.0600562,-2.0023583)"
       x1="11.998966"
       y1="2.7615263"
       x2="11.998966"
       y2="15.638639" />
    <linearGradient
       inkscape:collect="always"
       xlink:href="#StandardGradient"
       id="linearGradient2423"
       gradientUnits="userSpaceOnUse"
       gradientTransform="matrix(0.9247229,0,0,1.0872097,-6.0600562,-2.0023583)"
       x1="11.998966"
       y1="2.7615263"
       x2="11.998966"
       y2="15.638639" />
    <inkscape:perspective
       id="perspective2892"
       inkscape:persp3d-origin="0.5 : 0.33333333 : 1"
       inkscape:vp_z="1 : 0.5 : 1"
       inkscape:vp_y="0 : 1000 : 0"
       inkscape:vp_x="0 : 0.5 : 1"
       sodipodi:type="inkscape:persp3d" />
    <linearGradient
       inkscape:collect="always"
       xlink:href="#StandardGradient"
       id="linearGradient2942"
       gradientUnits="userSpaceOnUse"
       gradientTransform="matrix(0.9247229,0,0,1.0872097,-26.060056,-2.0023583)"
       x1="11.998966"
       y1="2.7615263"
       x2="11.998966"
       y2="15.638639" />
    <clipPath
       clipPathUnits="userSpaceOnUse"
       id="clipPath2949">
      <path
         style="fill:#ff00ff;fill-opacity:1;stroke:none;display:inline"
         d="m -20,0 0,16 16,0 0,-16 -16,0 z m 3,1 3,0 c 0.554,0 1,0.446 1,1 l 6,0 c 0.554,0 1,0.446 1,1 l -12,0 0,-1 c 0,-0.554 0.446,-1 1,-1 z m -0.5,3 4,0 6,0 1,0 C -5.669,4 -5,4.669 -5,5.5 l 0,4.5 0,1.5 c 0,0.647488 -0.396277,1.195291 -0.96875,1.40625 l 0,0.15625 -0.03125,0 0,0.4375 c 0,0.831 -0.669,1.5 -1.5,1.5 l -6,0 c -0.831,0 -1.5,-0.669 -1.5,-1.5 l 0,-0.5 -2.5,0 c -0.831,0 -1.5,-0.669 -1.5,-1.5 l 0,-1.5 0,-4.5 C -19,4.669 -18.331,4 -17.5,4 z m 5,2 C -12.777,6 -13,6.223 -13,6.5 l 0,6 c 0,0.277 0.223,0.5 0.5,0.5 l 4,0 c 0.277,0 0.5,-0.223 0.5,-0.5 l 0,-6 C -8,6.223 -8.223,6 -8.5,6 l -4,0 z"
         id="path2951" />
    </clipPath>
    <linearGradient
       inkscape:collect="always"
       xlink:href="#StandardGradient"
       id="linearGradient3670"
       gradientUnits="userSpaceOnUse"
       gradientTransform="matrix(0,1,-1,0,19,1)"
       x1="4"
       y1="9.5"
       x2="15"
       y2="9.5" />
    <linearGradient
       inkscape:collect="always"
       xlink:href="#StandardGradient"
       id="linearGradient3672"
       gradientUnits="userSpaceOnUse"
       gradientTransform="matrix(0,1,-1,0,19,0)"
       x1="4"
       y1="9.5"
       x2="15"
       y2="9.5" />
    <linearGradient
       inkscape:collect="always"
       xlink:href="#StandardGradient"
       id="linearGradient3677"
       gradientUnits="userSpaceOnUse"
       gradientTransform="matrix(0,1,-1,0,19,1)"
       x1="4"
       y1="9.5"
       x2="15"
       y2="9.5" />
    <linearGradient
       inkscape:collect="always"
       xlink:href="#StandardGradient"
       id="linearGradient3681"
       gradientUnits="userSpaceOnUse"
       gradientTransform="matrix(0,1,-1,0,19,0)"
       x1="4"
       y1="9.5"
       x2="15"
       y2="9.5" />
    <linearGradient
       inkscape:collect="always"
       xlink:href="#StandardGradient"
       id="linearGradient3686"
       gradientUnits="userSpaceOnUse"
       gradientTransform="matrix(0,1,-1,0,-1,0)"
       x1="4"
       y1="9.5"
       x2="15"
       y2="9.5" />
    <linearGradient
       inkscape:collect="always"
       xlink:href="#StandardGradient"
       id="linearGradient3699"
       gradientUnits="userSpaceOnUse"
       gradientTransform="matrix(0,1,-1,0,-1,0)"
       x1="4"
       y1="9.5"
       x2="15"
       y2="9.5" />
    <clipPath
       clipPathUnits="userSpaceOnUse"
       id="clipPath3702">
      <path
         style="fill:#ff00ff;fill-opacity:1;stroke:none;display:inline"
         d="m -20,0 0,16 16,0 0,-16 -16,0 z m 9.5,4 C -7.462434,4 -5,6.4624339 -5,9.5 -5,12.537566 -7.462434,15 -10.5,15 -13.537566,15 -16,12.537566 -16,9.5 -16,6.4624339 -13.537566,4 -10.5,4 z m 0,4 c -0.828427,0 -1.5,0.6715728 -1.5,1.5 0,0.828427 0.671573,1.5 1.5,1.5 C -9.671573,11 -9,10.328427 -9,9.5 -9,8.6715728 -9.671573,8 -10.5,8 z"
         id="path3704" />
    </clipPath>
    <linearGradient
       inkscape:collect="always"
       xlink:href="#StandardGradient"
       id="linearGradient5057"
       gradientUnits="userSpaceOnUse"
       gradientTransform="matrix(0,1,-1,0,19,0)"
       x1="4"
       y1="9.5"
       x2="15"
       y2="9.5" />
    <linearGradient
       inkscape:collect="always"
       xlink:href="#StandardGradient"
       id="linearGradient5061"
       gradientUnits="userSpaceOnUse"
       gradientTransform="matrix(0,1,-1,0,19,0)"
       x1="5"
       y1="9"
       x2="15"
       y2="9.5" />
    <radialGradient
       inkscape:collect="always"
       xlink:href="#linearGradient4180"
       id="radialGradient4178"
       cx="10"
       cy="12"
       fx="10"
       fy="12"
       r="5.5"
       gradientUnits="userSpaceOnUse"
       gradientTransform="matrix(2.3636364,-2.892562e-7,1.7800382e-7,1.4545455,-13.636365,-5.4545426)" />
  </defs>
  <metadata
     id="metadata7">
    <rdf:RDF>
      <cc:Work
         rdf:about="">
        <dc:format>image/svg+xml</dc:format>
        <dc:type
           rdf:resource="http://purl.org/dc/dcmitype/StillImage" />
        <dc:title></dc:title>
      </cc:Work>
    </rdf:RDF>
  </metadata>
  <g
     style="display:inline"
     inkscape:label="Calque 1"
     id="layer1"
     inkscape:groupmode="layer">
    <path
       style="color:#000000;fill:#ffffff;fill-opacity:1;stroke:none;stroke-width:1;marker:none;visibility:visible;display:inline;overflow:visible;enable-background:accumulate;opacity:0.05"
       d="M 9.5 2.9375 C 5.895255 2.9375 2.9375 5.8952549 2.9375 9.5 C 2.9375 13.104745 5.895255 16.0625 9.5 16.0625 C 13.104745 16.0625 16.0625 13.104745 16.0625 9.5 C 16.0625 5.8952549 13.104745 2.9375 9.5 2.9375 z M 9.5 4 C 12.537566 4 15 6.4624339 15 9.5 C 15 12.537566 12.537566 15 9.5 15 C 6.462434 15 4 12.537566 4 9.5 C 4 6.4624339 6.462434 4 9.5 4 z M 9.5 8 C 8.671573 8 8 8.6715728 8 9.5 C 8 10.328427 8.671573 11 9.5 11 C 10.328427 11 11 10.328427 11 9.5 C 11 8.6715728 10.328427 8 9.5 8 z M 9.5 9.0625 C 9.761248 9.0625 9.9375 9.2387518 9.9375 9.5 C 9.9375 9.7612479 9.7612479 9.9375 9.5 9.9375 C 9.2387521 9.9375 9.0625 9.7612479 9.0625 9.5 C 9.0625 9.2387518 9.238752 9.0625 9.5 9.0625 z "
       id="path5059" />
    <path
       style="color:#000000;fill:url(#radialGradient4178);fill-opacity:1;stroke:none;stroke-width:1;marker:none;visibility:visible;display:inline;overflow:visible;enable-background:accumulate"
       d="M 15,9.5 C 15,6.4624339 12.537566,4 9.5,4 6.462434,4 4,6.4624339 4,9.5 4,12.537566 6.462434,15 9.5,15 12.537566,15 15,12.537566 15,9.5 z m -4,0 C 11,10.328427 10.328427,11 9.5,11 8.671573,11 8,10.328427 8,9.5 8,8.6715728 8.671573,8 9.5,8 10.328427,8 11,8.6715728 11,9.5 z"
       id="path2876" />
    <path
       style="opacity:0.3;color:#000000;fill:#000000;stroke:none;stroke-width:1;marker:none;visibility:visible;display:inline;overflow:visible;enable-background:accumulate"
       d="M 6.5 1 C 3.4624339 1 1 3.4624339 1 6.5 C 1 8.2573756 1.8420384 9.8056126 3.125 10.8125 C 3.0384142 10.389366 3 9.9487313 3 9.5 C 3 5.9101492 5.9101492 3 9.5 3 C 9.9487313 3 10.389366 3.0384142 10.8125 3.125 C 9.8056126 1.8420384 8.2573756 1 6.5 1 z "
       id="path2878" />
    <path
       style="color:#000000;fill:#000000;fill-opacity:1;stroke:none;stroke-width:1;marker:none;visibility:visible;display:inline;overflow:visible;enable-background:accumulate;opacity:0.3"
       d="M 9.5 4 C 6.462434 4 4 6.4624339 4 9.5 C 4 9.6477893 4.0198092 9.792651 4.03125 9.9375 C 4.312905 7.1640916 6.6522819 5 9.5 5 C 12.347718 5 14.687095 7.1640916 14.96875 9.9375 C 14.980191 9.792651 15 9.6477893 15 9.5 C 15 6.4624339 12.537566 4 9.5 4 z M 8.09375 10 C 8.0401079 10.154319 8 10.327411 8 10.5 C 8 11.328427 8.671573 12 9.5 12 C 10.328427 12 11 11.328427 11 10.5 C 11 10.327411 10.959892 10.154319 10.90625 10 C 10.70241 10.586412 10.155838 11 9.5 11 C 8.844162 11 8.2975898 10.586412 8.09375 10 z "
       id="path3666" />
    <path
       style="color:#000000;fill:#ffffff;fill-opacity:1;stroke:none;stroke-width:1;marker:none;visibility:visible;display:inline;overflow:visible;enable-background:accumulate;opacity:0.2"
       d="M 9.5 8 C 8.671573 8 8 8.6715728 8 9.5 C 8 9.672589 8.0401079 9.8456811 8.09375 10 C 8.2975898 9.413588 8.844162 9 9.5 9 C 10.155838 9 10.70241 9.413588 10.90625 10 C 10.959892 9.8456811 11 9.672589 11 9.5 C 11 8.6715728 10.328427 8 9.5 8 z M 4.03125 10.0625 C 4.0198092 10.207349 4 10.352211 4 10.5 C 4 13.537566 6.462434 16 9.5 16 C 12.537566 16 15 13.537566 15 10.5 C 15 10.352211 14.980191 10.207349 14.96875 10.0625 C 14.687095 12.835908 12.347718 15 9.5 15 C 6.6522819 15 4.312905 12.835908 4.03125 10.0625 z "
       id="path3675" />
    <path
       style="color:#000000;font-style:normal;font-variant:normal;font-weight:normal;font-stretch:normal;font-size:medium;line-height:normal;font-family:sans-serif;text-indent:0;text-align:start;text-decoration:none;text-decoration-line:none;text-decoration-style:solid;text-decoration-color:#000000;letter-spacing:normal;word-spacing:normal;text-transform:none;direction:ltr;block-progression:tb;writing-mode:lr-tb;baseline-shift:baseline;text-anchor:start;white-space:normal;clip-rule:nonzero;display:inline;overflow:visible;visibility:visible;opacity:0.3;isolation:auto;mix-blend-mode:normal;color-interpolation:sRGB;color-interpolation-filters:linearRGB;solid-color:#000000;solid-opacity:1;fill:#000000;fill-opacity:1;fill-rule:nonzero;stroke:none;stroke-width:1.20000005;stroke-linecap:butt;stroke-linejoin:miter;stroke-miterlimit:4;stroke-dasharray:none;stroke-dashoffset:0;stroke-opacity:1;marker:none;color-rendering:auto;image-rendering:auto;shape-rendering:auto;text-rendering:auto;enable-background:accumulate"
       d="M 9.5,4 C 6.462434,4 4,6.4624339 4,9.5 4,12.537566 6.462434,15 9.5,15 12.537566,15 15,12.537566 15,9.5 15,6.4624339 12.537566,4 9.5,4 Z m 0,0.5996094 c 2.713302,0 4.900391,2.1870886 4.900391,4.9003906 0,2.713302 -2.187089,4.900391 -4.900391,4.900391 -2.713302,0 -4.900391,-2.187089 -4.900391,-4.900391 0,-2.713302 2.187089,-4.9003906 4.900391,-4.9003906 z m 0,2.8007812 c -1.152691,0 -2.099609,0.9469182 -2.099609,2.0996094 0,1.152691 0.946918,2.099609 2.099609,2.099609 1.152691,0 2.099609,-0.946918 2.099609,-2.099609 0,-1.1526912 -0.946918,-2.0996094 -2.099609,-2.0996094 z M 9.5,8 C 10.328427,8 11,8.671573 11,9.5 11,10.328427 10.328427,11 9.5,11 8.671573,11 8,10.328427 8,9.5 8,8.671573 8.671573,8 9.5,8 Z"
       id="path2876-2"
       inkscape:connector-curvature="0" />
  </g>
</svg>
