<?xml version="1.0" encoding="UTF-8" standalone="no"?>
<!-- Created with Inkscape (http://www.inkscape.org/) -->

<svg
   xmlns:dc="http://purl.org/dc/elements/1.1/"
   xmlns:cc="http://creativecommons.org/ns#"
   xmlns:rdf="http://www.w3.org/1999/02/22-rdf-syntax-ns#"
   xmlns:svg="http://www.w3.org/2000/svg"
   xmlns="http://www.w3.org/2000/svg"
   xmlns:xlink="http://www.w3.org/1999/xlink"
   xmlns:sodipodi="http://sodipodi.sourceforge.net/DTD/sodipodi-0.dtd"
   xmlns:inkscape="http://www.inkscape.org/namespaces/inkscape"
   width="16"
   height="16"
   id="svg2"
   sodipodi:version="0.32"
   inkscape:version="0.91 r13725"
   version="1.0"
   sodipodi:docname="media-optical-burn.svg"
   inkscape:output_extension="org.inkscape.output.svg.inkscape"
   inkscape:export-filename="/home/matt/.icons/Sirocco/scalable/mimetypes/text-plain.png"
   inkscape:export-xdpi="90"
   inkscape:export-ydpi="90"
   sodipodi:modified="true"
   style="display:inline">
  <sodipodi:namedview
     id="base"
     pagecolor="#777777"
     bordercolor="#666666"
     borderopacity="1.0"
     inkscape:pageopacity="0"
     inkscape:pageshadow="2"
     inkscape:zoom="26.324148"
     inkscape:cx="6.8966715"
     inkscape:cy="8.3451521"
     inkscape:document-units="px"
     inkscape:current-layer="layer1"
     width="128px"
     height="128px"
     inkscape:showpageshadow="false"
     inkscape:window-width="1366"
     inkscape:window-height="718"
     inkscape:window-x="0"
     inkscape:window-y="25"
     showguides="true"
     inkscape:guide-bbox="true"
     showgrid="true"
     inkscape:window-maximized="1"
     inkscape:snap-bbox="true"
     inkscape:bbox-paths="true"
     inkscape:bbox-nodes="true"
     inkscape:snap-bbox-edge-midpoints="true">
    <sodipodi:guide
       id="guide2226"
       position="32.637397,117.99844"
       orientation="horizontal" />
    <sodipodi:guide
       id="guide2230"
       position="110,57.402344"
       orientation="vertical" />
    <sodipodi:guide
       id="guide2232"
       position="33.760911"
       orientation="horizontal" />
    <sodipodi:guide
       id="guide2231"
       position="46.774696"
       orientation="horizontal" />
    <inkscape:grid
       enabled="true"
       visible="true"
       id="grid3231"
       type="xygrid" />
    <sodipodi:guide
       orientation="1,0"
       position="100,67.625"
       id="guide2713" />
  </sodipodi:namedview>
  <defs
     id="defs4">
    <linearGradient
       gradientUnits="userSpaceOnUse"
       y2="19.387045"
       x2="11.998966"
       y1="0.92195445"
       x1="11.998966"
       gradientTransform="scale(0.9219544,1.0846523)"
       id="linearGradient4206">
      <stop
         id="stop4208"
         offset="0"
         style="stop-color:#000000;stop-opacity:0.23529412" />
      <stop
         id="stop4210"
         offset="1"
         style="stop-color:#000000;stop-opacity:0.54901963" />
    </linearGradient>
    <linearGradient
       inkscape:collect="always"
       xlink:href="#StandardGradient"
       id="linearGradient2428"
       gradientUnits="userSpaceOnUse"
       gradientTransform="matrix(0.9247229,0,0,1.0872097,10.939944,-2.0023588)"
       x1="11.998966"
       y1="3.6813121"
       x2="11.998966"
       y2="16.529612" />
    <inkscape:perspective
       sodipodi:type="inkscape:persp3d"
       inkscape:vp_x="0 : 11 : 1"
       inkscape:vp_y="0 : 1000 : 0"
       inkscape:vp_z="22 : 11 : 1"
       inkscape:persp3d-origin="11 : 7.3333333 : 1"
       id="perspective19" />
    <linearGradient
       id="StandardGradient"
       gradientTransform="scale(0.9219544,1.0846523)"
       x1="11.998966"
       y1="0.92195445"
       x2="11.998966"
       y2="19.387045"
       gradientUnits="userSpaceOnUse">
      <stop
         style="stop-color:#000000;stop-opacity:0.86274511;"
         offset="0"
         id="stop3283" />
      <stop
         style="stop-color:#000000;stop-opacity:0.47058824;"
         offset="1"
         id="stop2651" />
    </linearGradient>
    <linearGradient
       inkscape:collect="always"
       xlink:href="#StandardGradient"
       id="linearGradient2549"
       gradientUnits="userSpaceOnUse"
       gradientTransform="matrix(0.9247229,0,0,1.0872097,-2.0600562,0.9976422)"
       x1="11.998966"
       y1="0.92195445"
       x2="11.998966"
       y2="17.478098" />
    <linearGradient
       inkscape:collect="always"
       xlink:href="#StandardGradient"
       id="linearGradient2418"
       gradientUnits="userSpaceOnUse"
       gradientTransform="matrix(0.9247229,0,0,1.0872097,-4.0600562,-3.0023583)"
       x1="11.998966"
       y1="0.92195445"
       x2="11.998966"
       y2="17.478098" />
    <linearGradient
       inkscape:collect="always"
       xlink:href="#StandardGradient"
       id="linearGradient2422"
       gradientUnits="userSpaceOnUse"
       gradientTransform="matrix(0.9247229,0,0,1.0872097,-5.0600562,-1.0023583)"
       x1="11.998966"
       y1="0.92195445"
       x2="11.998966"
       y2="17.478098" />
    <linearGradient
       inkscape:collect="always"
       xlink:href="#StandardGradient"
       id="linearGradient2403"
       gradientUnits="userSpaceOnUse"
       gradientTransform="matrix(0.9247229,0,0,1.0872097,-4.0600562,-3.0023583)"
       x1="11.998966"
       y1="0.92195445"
       x2="11.998966"
       y2="17.478098" />
    <linearGradient
       inkscape:collect="always"
       xlink:href="#StandardGradient"
       id="linearGradient2406"
       gradientUnits="userSpaceOnUse"
       gradientTransform="matrix(0.9247229,0,0,1.0872097,-4.0600562,-3.0023583)"
       x1="11.998966"
       y1="0.92195445"
       x2="11.998966"
       y2="17.478098" />
    <linearGradient
       inkscape:collect="always"
       xlink:href="#StandardGradient"
       id="linearGradient2409"
       gradientUnits="userSpaceOnUse"
       gradientTransform="matrix(0.9247229,0,0,1.0872097,-6.0600562,-2.0023583)"
       x1="11.998966"
       y1="3.6800685"
       x2="11.998966"
       y2="15.638639" />
    <linearGradient
       inkscape:collect="always"
       xlink:href="#StandardGradient"
       id="linearGradient2416"
       gradientUnits="userSpaceOnUse"
       gradientTransform="matrix(0.9247229,0,0,1.0872097,-6.0600562,-2.0023583)"
       x1="11.998966"
       y1="2.7615263"
       x2="11.998966"
       y2="15.638639" />
    <linearGradient
       inkscape:collect="always"
       xlink:href="#StandardGradient"
       id="linearGradient2529"
       gradientUnits="userSpaceOnUse"
       gradientTransform="matrix(0.9247229,0,0,1.0872097,-4.0418814,0.9976412)"
       x1="11.998966"
       y1="3.6813121"
       x2="11.998966"
       y2="16.529612" />
    <linearGradient
       inkscape:collect="always"
       xlink:href="#StandardGradient"
       id="linearGradient2539"
       gradientUnits="userSpaceOnUse"
       gradientTransform="matrix(0.9247229,0,0,1.0872097,-6.0600562,-2.0023583)"
       x1="11.998966"
       y1="2.7615263"
       x2="11.998966"
       y2="15.638639" />
    <linearGradient
       inkscape:collect="always"
       xlink:href="#StandardGradient"
       id="linearGradient2542"
       gradientUnits="userSpaceOnUse"
       gradientTransform="matrix(0.9247229,0,0,1.0872097,-6.0600562,-2.0023583)"
       x1="11.998966"
       y1="2.7615263"
       x2="11.998966"
       y2="15.638639" />
    <linearGradient
       inkscape:collect="always"
       xlink:href="#StandardGradient"
       id="linearGradient2412"
       gradientUnits="userSpaceOnUse"
       gradientTransform="matrix(0.9247229,0,0,1.0872097,-6.0600562,-2.0023583)"
       x1="11.998966"
       y1="2.7615263"
       x2="11.998966"
       y2="15.638639" />
    <linearGradient
       inkscape:collect="always"
       xlink:href="#StandardGradient"
       id="linearGradient2423"
       gradientUnits="userSpaceOnUse"
       gradientTransform="matrix(0.9247229,0,0,1.0872097,-6.0600562,-2.0023583)"
       x1="11.998966"
       y1="2.7615263"
       x2="11.998966"
       y2="15.638639" />
    <inkscape:perspective
       id="perspective2892"
       inkscape:persp3d-origin="0.5 : 0.33333333 : 1"
       inkscape:vp_z="1 : 0.5 : 1"
       inkscape:vp_y="0 : 1000 : 0"
       inkscape:vp_x="0 : 0.5 : 1"
       sodipodi:type="inkscape:persp3d" />
    <linearGradient
       inkscape:collect="always"
       xlink:href="#StandardGradient"
       id="linearGradient2942"
       gradientUnits="userSpaceOnUse"
       gradientTransform="matrix(0.9247229,0,0,1.0872097,-26.060056,-2.0023583)"
       x1="11.998966"
       y1="2.7615263"
       x2="11.998966"
       y2="15.638639" />
    <clipPath
       clipPathUnits="userSpaceOnUse"
       id="clipPath2949">
      <path
         style="fill:#ff00ff;fill-opacity:1;stroke:none;display:inline"
         d="m -20,0 0,16 16,0 0,-16 -16,0 z m 3,1 3,0 c 0.554,0 1,0.446 1,1 l 6,0 c 0.554,0 1,0.446 1,1 l -12,0 0,-1 c 0,-0.554 0.446,-1 1,-1 z m -0.5,3 4,0 6,0 1,0 C -5.669,4 -5,4.669 -5,5.5 l 0,4.5 0,1.5 c 0,0.647488 -0.396277,1.195291 -0.96875,1.40625 l 0,0.15625 -0.03125,0 0,0.4375 c 0,0.831 -0.669,1.5 -1.5,1.5 l -6,0 c -0.831,0 -1.5,-0.669 -1.5,-1.5 l 0,-0.5 -2.5,0 c -0.831,0 -1.5,-0.669 -1.5,-1.5 l 0,-1.5 0,-4.5 C -19,4.669 -18.331,4 -17.5,4 z m 5,2 C -12.777,6 -13,6.223 -13,6.5 l 0,6 c 0,0.277 0.223,0.5 0.5,0.5 l 4,0 c 0.277,0 0.5,-0.223 0.5,-0.5 l 0,-6 C -8,6.223 -8.223,6 -8.5,6 l -4,0 z"
         id="path2951" />
    </clipPath>
    <linearGradient
       inkscape:collect="always"
       xlink:href="#StandardGradient"
       id="linearGradient3664"
       x1="4"
       y1="9.5"
       x2="15"
       y2="9.5"
       gradientUnits="userSpaceOnUse"
       gradientTransform="matrix(0,1.2727273,-1.2727273,0,20.090909,-4.0909091)" />
    <linearGradient
       inkscape:collect="always"
       xlink:href="#StandardGradient"
       id="linearGradient3670"
       gradientUnits="userSpaceOnUse"
       gradientTransform="matrix(0,1,-1,0,19,1)"
       x1="4"
       y1="9.5"
       x2="15"
       y2="9.5" />
    <linearGradient
       inkscape:collect="always"
       xlink:href="#StandardGradient"
       id="linearGradient3672"
       gradientUnits="userSpaceOnUse"
       gradientTransform="matrix(0,1,-1,0,19,0)"
       x1="4"
       y1="9.5"
       x2="15"
       y2="9.5" />
    <linearGradient
       inkscape:collect="always"
       xlink:href="#StandardGradient"
       id="linearGradient3677"
       gradientUnits="userSpaceOnUse"
       gradientTransform="matrix(0,1,-1,0,19,1)"
       x1="4"
       y1="9.5"
       x2="15"
       y2="9.5" />
    <linearGradient
       inkscape:collect="always"
       xlink:href="#StandardGradient"
       id="linearGradient3681"
       gradientUnits="userSpaceOnUse"
       gradientTransform="matrix(0,1,-1,0,19,0)"
       x1="4"
       y1="9.5"
       x2="15"
       y2="9.5" />
    <linearGradient
       inkscape:collect="always"
       xlink:href="#StandardGradient"
       id="linearGradient3686"
       gradientUnits="userSpaceOnUse"
       gradientTransform="matrix(0,1,-1,0,-1,0)"
       x1="4"
       y1="9.5"
       x2="15"
       y2="9.5" />
    <linearGradient
       inkscape:collect="always"
       xlink:href="#StandardGradient"
       id="linearGradient3699"
       gradientUnits="userSpaceOnUse"
       gradientTransform="matrix(0,1,-1,0,-1,0)"
       x1="4"
       y1="9.5"
       x2="15"
       y2="9.5" />
    <clipPath
       clipPathUnits="userSpaceOnUse"
       id="clipPath3702">
      <path
         style="fill:#ff00ff;fill-opacity:1;stroke:none;display:inline"
         d="m -20,0 0,16 16,0 0,-16 -16,0 z m 9.5,4 C -7.462434,4 -5,6.4624339 -5,9.5 -5,12.537566 -7.462434,15 -10.5,15 -13.537566,15 -16,12.537566 -16,9.5 -16,6.4624339 -13.537566,4 -10.5,4 z m 0,4 c -0.828427,0 -1.5,0.6715728 -1.5,1.5 0,0.828427 0.671573,1.5 1.5,1.5 C -9.671573,11 -9,10.328427 -9,9.5 -9,8.6715728 -9.671573,8 -10.5,8 z"
         id="path3704" />
    </clipPath>
    <linearGradient
       inkscape:collect="always"
       xlink:href="#StandardGradient"
       id="linearGradient2898"
       gradientUnits="userSpaceOnUse"
       gradientTransform="matrix(0,1.2727273,-1.2727273,0,20.090909,-4.0909091)"
       x1="4"
       y1="9.5"
       x2="15"
       y2="9.5" />
    <linearGradient
       inkscape:collect="always"
       xlink:href="#StandardGradient"
       id="linearGradient2905"
       gradientUnits="userSpaceOnUse"
       gradientTransform="matrix(0,1.2727273,-1.2727273,0,20.090909,-3.0909091)"
       x1="4"
       y1="9.5"
       x2="15"
       y2="9.5" />
    <linearGradient
       inkscape:collect="always"
       xlink:href="#StandardGradient"
       id="linearGradient2907"
       gradientUnits="userSpaceOnUse"
       gradientTransform="matrix(0,1.2727273,-1.2727273,0,20.090909,-4.0909091)"
       x1="4"
       y1="9.5"
       x2="15"
       y2="9.5" />
    <linearGradient
       inkscape:collect="always"
       xlink:href="#StandardGradient"
       id="linearGradient3684"
       gradientUnits="userSpaceOnUse"
       gradientTransform="matrix(0,1.2727273,-1.2727273,0,20.090909,-3.0909091)"
       x1="4"
       y1="9.5"
       x2="15"
       y2="9.5" />
    <linearGradient
       inkscape:collect="always"
       xlink:href="#StandardGradient"
       id="linearGradient3688"
       gradientUnits="userSpaceOnUse"
       gradientTransform="matrix(0,1.2727273,-1.2727273,0,20.090909,-4.0909091)"
       x1="4"
       y1="9.5"
       x2="15"
       y2="9.5" />
    <linearGradient
       inkscape:collect="always"
       xlink:href="#StandardGradient"
       id="linearGradient3693"
       gradientUnits="userSpaceOnUse"
       gradientTransform="matrix(0,1.2727273,-1.2727273,0,0.090909,-4.0909091)"
       x1="4"
       y1="9.5"
       x2="15"
       y2="9.5" />
    <clipPath
       clipPathUnits="userSpaceOnUse"
       id="clipPath3700">
      <path
         style="fill:#ff00ff;fill-opacity:1;stroke:none;display:inline"
         d="m -20,0 0,16 16,0 0,-16 -16,0 z m 8,1 c 3.865993,0 7,3.1340068 7,7 0,1.341695 -0.37671,2.591287 -1.03125,3.65625 L -6.03125,6 A 0.95745892,0.95745892 0 0 0 -7,5.03125 l -1,0 A 0.95745892,0.95745892 0 0 0 -8.96875,6 l 0,5.03125 c -0.011252,-1.19e-4 -0.019946,0 -0.03125,0 -0.746309,0 -1.451078,0.244558 -2,0.65625 -0.548922,0.411692 -0.96875,1.053355 -0.96875,1.8125 0,0.569359 0.244097,1.079015 0.59375,1.46875 C -11.580455,14.98689 -11.789832,15 -12,15 c -3.865993,0 -7,-3.134007 -7,-7 0,-3.8659932 3.134007,-7 7,-7 z m 4,5 1,0 0,7.5 c 0,0.828427 -0.895431,1.5 -2,1.5 -1.10457,0 -2,-0.671573 -2,-1.5 0,-0.828427 0.89543,-1.5 2,-1.5 0.365838,0 0.70498,0.09011 1,0.21875 L -8,6 z m -4,0.09375 c -1.054362,0 -1.90625,0.8518881 -1.90625,1.90625 0,1.0543616 0.851888,1.90625 1.90625,1.90625 1.054362,0 1.90625,-0.8518884 1.90625,-1.90625 0,-1.0543619 -0.851888,-1.90625 -1.90625,-1.90625 z"
         id="path3702" />
    </clipPath>
    <linearGradient
       inkscape:collect="always"
       xlink:href="#StandardGradient"
       id="linearGradient3678"
       gradientUnits="userSpaceOnUse"
       x1="10"
       y1="1"
       x2="10"
       y2="16"
       gradientTransform="translate(0,1)" />
    <linearGradient
       inkscape:collect="always"
       xlink:href="#StandardGradient"
       id="linearGradient3680"
       gradientUnits="userSpaceOnUse"
       x1="10"
       y1="1"
       x2="10"
       y2="16" />
    <linearGradient
       inkscape:collect="always"
       xlink:href="#StandardGradient"
       id="linearGradient3685"
       gradientUnits="userSpaceOnUse"
       x1="10"
       y1="1"
       x2="10"
       y2="16"
       gradientTransform="translate(0,1)" />
    <linearGradient
       inkscape:collect="always"
       xlink:href="#StandardGradient"
       id="linearGradient3689"
       gradientUnits="userSpaceOnUse"
       x1="10"
       y1="1"
       x2="10"
       y2="16" />
    <linearGradient
       inkscape:collect="always"
       xlink:href="#StandardGradient"
       id="linearGradient3697"
       gradientUnits="userSpaceOnUse"
       x1="10"
       y1="1"
       x2="10"
       y2="16"
       gradientTransform="translate(-20,0)" />
    <clipPath
       clipPathUnits="userSpaceOnUse"
       id="clipPath3704">
      <path
         style="fill:#ff00ff;fill-opacity:1;stroke:none;display:inline"
         d="m -20,0 0,16 12,0 -3,-3 2,0 0,-3 2,0 0,3 2,0 -3,3 4,0 0,-16 -16,0 z m 8,1.0625 c 3.83172,0 6.9375,3.1057797 6.9375,6.9375 0,1.2636065 -0.347332,2.448388 -0.9375,3.46875 L -6,10 A 0.98741784,0.98741784 0 0 0 -7,9 l -2,0 a 0.98741784,0.98741784 0 0 0 -1,1 l 0,2 -1,0 a 0.98741784,0.98741784 0 0 0 -0.6875,1.6875 l 1.09375,1.09375 c -0.451631,0.09241 -0.927285,0.15625 -1.40625,0.15625 -3.83172,0 -6.9375,-3.10578 -6.9375,-6.9375 0,-3.8317203 3.10578,-6.9375 6.9375,-6.9375 z M -12,6 c -1.10457,0 -2,0.8954305 -2,2 0,1.1045695 0.89543,2 2,2 1.104569,0 2,-0.8954305 2,-2 0,-1.1045695 -0.895431,-2 -2,-2 z"
         id="path3706" />
    </clipPath>
    <linearGradient
       inkscape:collect="always"
       xlink:href="#StandardGradient"
       id="linearGradient3700"
       gradientUnits="userSpaceOnUse"
       x1="10"
       y1="1"
       x2="10"
       y2="15"
       gradientTransform="translate(0,1)" />
    <linearGradient
       inkscape:collect="always"
       xlink:href="#StandardGradient"
       id="linearGradient3702"
       gradientUnits="userSpaceOnUse"
       x1="10"
       y1="1"
       x2="10"
       y2="15" />
    <linearGradient
       inkscape:collect="always"
       xlink:href="#StandardGradient"
       id="linearGradient3707"
       gradientUnits="userSpaceOnUse"
       x1="10"
       y1="1"
       x2="10"
       y2="15"
       gradientTransform="translate(0,1)" />
    <linearGradient
       inkscape:collect="always"
       xlink:href="#StandardGradient"
       id="linearGradient3711"
       gradientUnits="userSpaceOnUse"
       x1="10"
       y1="1"
       x2="10"
       y2="15" />
    <linearGradient
       inkscape:collect="always"
       xlink:href="#StandardGradient"
       id="linearGradient3716"
       gradientUnits="userSpaceOnUse"
       x1="10"
       y1="1"
       x2="10"
       y2="15"
       gradientTransform="translate(-20,0)" />
    <clipPath
       clipPathUnits="userSpaceOnUse"
       id="clipPath3723">
      <path
         style="fill:#ff00ff;fill-opacity:1;stroke:none;display:inline"
         d="m -20,0 0,7 2,0 0,-2 3,3 -3,3 0,-2 -2,0 0,7 16,0 0,-8 c 0,3.86624 -3.13376,7 -7,7 -2.59125,0 -4.852255,-1.407566 -6.0625,-3.5 l 2.78125,-2.78125 a 0.99666339,0.99666339 0 0 0 0,-1.4375 L -17.0625,4.5 C -15.852255,2.4075658 -13.59125,1 -11,1 c 3.86624,0 7,3.13376 7,7 l 0,-8 -16,0 z m 9,5.96875 c -1.114521,0 -2.03125,0.9167289 -2.03125,2.03125 0,1.1145201 0.916729,2.03125 2.03125,2.03125 1.114521,0 2.03125,-0.9167299 2.03125,-2.03125 0,-1.1145211 -0.916729,-2.03125 -2.03125,-2.03125 z"
         id="path3725" />
    </clipPath>
    <linearGradient
       inkscape:collect="always"
       xlink:href="#StandardGradient"
       id="linearGradient5576"
       gradientUnits="userSpaceOnUse"
       x1="10"
       y1="1"
       x2="10"
       y2="15" />
    <linearGradient
       inkscape:collect="always"
       xlink:href="#StandardGradient"
       id="linearGradient5580"
       gradientUnits="userSpaceOnUse"
       x1="10"
       y1="1"
       x2="10"
       y2="15" />
    <radialGradient
       inkscape:collect="always"
       xlink:href="#linearGradient4206"
       id="radialGradient4202"
       cx="9"
       cy="11.428572"
       fx="9"
       fy="11.428572"
       r="8"
       gradientTransform="matrix(1.75,0,0,1.25,-6.75,-3.2857146)"
       gradientUnits="userSpaceOnUse" />
  </defs>
  <metadata
     id="metadata7">
    <rdf:RDF>
      <cc:Work
         rdf:about="">
        <dc:format>image/svg+xml</dc:format>
        <dc:type
           rdf:resource="http://purl.org/dc/dcmitype/StillImage" />
        <dc:title></dc:title>
      </cc:Work>
    </rdf:RDF>
  </metadata>
  <g
     style="display:inline"
     inkscape:label="Calque 1"
     id="layer1"
     inkscape:groupmode="layer">
    <path
       style="color:#000000;fill:#ffffff;fill-opacity:1;fill-rule:nonzero;stroke:none;stroke-width:0.025;marker:none;visibility:visible;display:inline;overflow:visible;enable-background:accumulate;opacity:0.04999998"
       d="M 9 0 C 6.0500197 0 3.4753179 1.6113591 2.09375 4 A 0.99070322 0.99070322 0 0 0 1 5 L 1 6 L 0 6 A 0.99070322 0.99070322 0 0 0 -1 7 L -1 9 A 0.99070322 0.99070322 0 0 0 0 10 L 1 10 L 1 11 A 0.99070322 0.99070322 0 0 0 2.0625 12 A 0.99070322 0.99070322 0 0 0 2.09375 12 C 3.4753179 14.388641 6.0500196 16 9 16 C 13.401526 16 17 12.401526 17 8 C 17 3.5984741 13.401526 0 9 0 z M 9 1 C 12.86624 1 16 4.13376 16 8 C 16 11.86624 12.86624 15 9 15 C 6.4087502 15 4.1477447 13.592434 2.9375 11.5 L 5.71875 8.71875 L 5.6875 8.6875 A 0.99070322 0.99070322 0 0 0 5.6875 7.3125 L 5.71875 7.28125 L 2.9375 4.5 C 4.1477447 2.4075658 6.4087502 1 9 1 z M 2 5 L 5 8 L 2 11 L 2 9 L 0 9 L 0 7 L 2 7 L 2 5 z M 9 5.96875 C 8.0034875 5.96875 7.1663692 6.7043941 7 7.65625 C 6.9982214 7.6664261 7.0016244 7.6772745 7 7.6875 C 6.9999556 7.6872085 7.0000296 7.8127934 7 7.8125 C 6.9999704 7.8122066 7.0000148 7.9065445 7 7.90625 C 6.9999852 7.9059555 7 8.0002949 7 8 C 7 7.9997051 6.9999852 8.0940445 7 8.09375 C 7.0000148 8.0934555 6.9999704 8.1877934 7 8.1875 C 7.0000296 8.1872066 6.9999556 8.3127915 7 8.3125 C 7.0016244 8.3227255 6.9982214 8.3335739 7 8.34375 C 7.1663692 9.2956053 8.0034875 10.03125 9 10.03125 C 10.114521 10.03125 11.03125 9.1145201 11.03125 8 C 11.03125 6.8854789 10.114521 5.96875 9 5.96875 z M 9 6.96875 C 9.5713188 6.96875 10.03125 7.4286812 10.03125 8 C 10.03125 8.5713174 9.5713182 9.03125 9 9.03125 C 8.4286824 9.03125 7.96875 8.5713171 7.96875 8 C 7.96875 7.4286814 8.4286818 6.96875 9 6.96875 z "
       id="path5578" />
    <path
       id="path2880"
       d="m 8,-18.9375 c -3.8317203,0 -6.9375,3.10578 -6.9375,6.9375 0,3.83172 3.1057797,6.9375 6.9375,6.9375 3.83172,0 6.9375,-3.10578 6.9375,-6.9375 0,-3.83172 -3.10578,-6.9375 -6.9375,-6.9375 z M 8,-14 c 1.1045695,0 2,0.89543 2,2 0,1.104569 -0.8954305,2 -2,2 -1.1045695,0 -2,-0.895431 -2,-2 0,-1.10457 0.8954305,-2 2,-2 z"
       style="opacity:0.59999999999999998;color:#000000;fill:#000000;fill-opacity:1;fill-rule:nonzero;stroke:none;stroke-width:0.02500000000000000;stroke-linecap:round;stroke-linejoin:miter;stroke-miterlimit:4;stroke-opacity:0.68269228000000004;stroke-dasharray:none;stroke-dashoffset:8.59999999999999964;marker:none;visibility:visible;display:inline;overflow:visible;enable-background:accumulate" />
    <path
       style="opacity:1;color:#000000;fill:url(#radialGradient4202);fill-opacity:1;fill-rule:nonzero;stroke:none;stroke-width:0.025;marker:none;visibility:visible;display:inline;overflow:visible;enable-background:accumulate"
       d="M 9 1 C 6.4087502 1 4.1477447 2.4075658 2.9375 4.5 L 5.71875 7.28125 A 0.99666339 0.99666339 0 0 1 5.71875 8.71875 L 2.9375 11.5 C 4.1477447 13.592434 6.4087502 15 9 15 C 12.86624 15 16 11.86624 16 8 C 16 4.13376 12.86624 1 9 1 z M 2 5 L 2 7 L 0 7 L 0 9 L 2 9 L 2 11 L 5 8 L 2 5 z M 9 5.96875 C 10.114521 5.96875 11.03125 6.8854789 11.03125 8 C 11.03125 9.1145201 10.114521 10.03125 9 10.03125 C 7.8854794 10.03125 6.96875 9.1145201 6.96875 8 C 6.96875 6.8854789 7.8854794 5.96875 9 5.96875 z "
       id="path2882" />
    <path
       style="opacity:0.3;color:#000000;fill:#000000;fill-opacity:1;fill-rule:nonzero;stroke:none;stroke-width:0.025;marker:none;visibility:visible;display:inline;overflow:visible;enable-background:accumulate"
       d="M 9 1 C 6.4087502 1 4.1477447 2.4075658 2.9375 4.5 L 3.34375 4.90625 C 4.6155386 3.1520438 6.6672523 2 9 2 C 12.698004 2 15.712241 4.8673177 15.96875 8.5 C 15.98042 8.3347356 16 8.1682362 16 8 C 16 4.13376 12.86624 1 9 1 z M 2 5 L 2 6 L 4.5 8.5 L 5 8 L 2 5 z M 0 7 L 0 8 L 2 8 L 2 7 L 0 7 z M 5.875 8.5 A 0.99666339 0.99666339 0 0 1 5.71875 8.71875 L 2.9375 11.5 C 3.0582335 11.70874 3.2028175 11.899359 3.34375 12.09375 L 5.71875 9.71875 A 0.99666339 0.99666339 0 0 0 5.875 8.5 z M 7.03125 8.5 C 6.9892304 8.6617436 6.96875 8.8258561 6.96875 9 C 6.96875 10.11452 7.8854794 11.03125 9 11.03125 C 10.114521 11.03125 11.03125 10.11452 11.03125 9 C 11.03125 8.8258561 11.01077 8.6617436 10.96875 8.5 C 10.741844 9.3734149 9.9403771 10.03125 9 10.03125 C 8.0596232 10.03125 7.2581561 9.3734149 7.03125 8.5 z "
       id="path3696" />
    <path
       style="color:#000000;fill:#ffffff;fill-opacity:1;fill-rule:nonzero;stroke:none;stroke-width:0.025;marker:none;visibility:visible;display:inline;overflow:visible;enable-background:accumulate;opacity:0.2"
       d="M 3.34375 4.90625 C 3.2028175 5.1006413 3.0582335 5.2912596 2.9375 5.5 L 5.71875 8.28125 A 0.99666339 0.99666339 0 0 1 5.875 8.5 A 0.99666339 0.99666339 0 0 0 5.71875 7.28125 L 3.34375 4.90625 z M 9 5.96875 C 7.8854794 5.96875 6.96875 6.8854789 6.96875 8 C 6.96875 8.1741438 6.9892304 8.3382565 7.03125 8.5 C 7.2581561 7.6265847 8.0596232 6.96875 9 6.96875 C 9.9403771 6.96875 10.741844 7.6265847 10.96875 8.5 C 11.01077 8.3382565 11.03125 8.1741438 11.03125 8 C 11.03125 6.8854789 10.114521 5.96875 9 5.96875 z M 4.5 8.5 L 2 11 L 2 12 L 5 9 L 4.5 8.5 z M 15.96875 8.5 C 15.712241 12.132682 12.698004 15 9 15 C 6.6672523 15 4.6155386 13.847956 3.34375 12.09375 L 2.9375 12.5 C 4.1477447 14.592434 6.4087502 16 9 16 C 12.86624 16 16 12.86624 16 9 C 16 8.8317638 15.98042 8.6652644 15.96875 8.5 z M 0 9 L 0 10 L 2 10 L 2 9 L 0 9 z "
       id="path3705" />
    <path
       style="color:#000000;font-style:normal;font-variant:normal;font-weight:normal;font-stretch:normal;font-size:medium;line-height:normal;font-family:sans-serif;text-indent:0;text-align:start;text-decoration:none;text-decoration-line:none;text-decoration-style:solid;text-decoration-color:#000000;letter-spacing:normal;word-spacing:normal;text-transform:none;direction:ltr;block-progression:tb;writing-mode:lr-tb;baseline-shift:baseline;text-anchor:start;white-space:normal;clip-rule:nonzero;display:inline;overflow:visible;visibility:visible;opacity:0.3;isolation:auto;mix-blend-mode:normal;color-interpolation:sRGB;color-interpolation-filters:linearRGB;solid-color:#000000;solid-opacity:1;fill:#000000;fill-opacity:1;fill-rule:nonzero;stroke:none;stroke-width:1.20000005;stroke-linecap:butt;stroke-linejoin:miter;stroke-miterlimit:4;stroke-dasharray:none;stroke-dashoffset:0;stroke-opacity:1;marker:none;color-rendering:auto;image-rendering:auto;shape-rendering:auto;text-rendering:auto;enable-background:accumulate"
       d="M 9,1 C 6.40875,1 4.147745,2.4075658 2.9375,4.5 l 2.78125,2.78125 a 0.99666339,0.99666339 0 0 1 0,1.4375 L 2.9375,11.5 C 4.147745,13.592434 6.40875,15 9,15 12.86624,15 16,11.86624 16,8 16,4.13376 12.86624,1 9,1 Z m 0,0.5996094 c 3.542022,0 6.400391,2.8583685 6.400391,6.4003906 0,3.542022 -2.858369,6.400391 -6.400391,6.400391 -2.212222,0 -4.08075,-1.184393 -5.230469,-2.884766 l 2.365235,-2.3632812 0.00195,-0.00391 C 6.374234,8.9188751 6.431915,8.6042711 6.494141,8.3007812 6.665242,9.5837965 7.673311,10.630859 9,10.630859 10.443534,10.630859 11.630859,9.4435331 11.630859,8 11.630859,6.5564662 10.443534,5.3691406 9,5.3691406 c -1.326689,0 -2.334758,1.0470626 -2.505859,2.3300782 C 6.431915,7.395729 6.374281,7.0811286 6.136719,6.8515625 L 3.769531,4.484375 C 4.91925,2.7840022 6.787778,1.5996094 9,1.5996094 Z M 2,5 2,7 0,7 0,9 2,9 2,11 5,8 2,5 Z m 7,0.96875 c 1.114521,0 2.03125,0.9167289 2.03125,2.03125 0,1.11452 -0.916729,2.03125 -2.03125,2.03125 C 7.885479,10.03125 6.96875,9.11452 6.96875,8 6.96875,6.8854789 7.885479,5.96875 9,5.96875 Z M 2.599609,6.4472656 4.152344,8 2.599609,9.5527344 l 0,-1.1523438 -2,0 0,-0.8007812 2,0 0,-1.1523438 z"
       id="path2882-5"
       inkscape:connector-curvature="0" />
  </g>
</svg>
