<?xml version="1.0" encoding="UTF-8" standalone="no"?>
<!-- Created with Inkscape (http://www.inkscape.org/) -->

<svg
   xmlns:dc="http://purl.org/dc/elements/1.1/"
   xmlns:cc="http://creativecommons.org/ns#"
   xmlns:rdf="http://www.w3.org/1999/02/22-rdf-syntax-ns#"
   xmlns:svg="http://www.w3.org/2000/svg"
   xmlns="http://www.w3.org/2000/svg"
   xmlns:xlink="http://www.w3.org/1999/xlink"
   xmlns:sodipodi="http://sodipodi.sourceforge.net/DTD/sodipodi-0.dtd"
   xmlns:inkscape="http://www.inkscape.org/namespaces/inkscape"
   width="16"
   height="16"
   id="svg2"
   sodipodi:version="0.32"
   inkscape:version="0.48.1 r9760"
   version="1.0"
   sodipodi:docname="media-eject.svg"
   inkscape:output_extension="org.inkscape.output.svg.inkscape"
   inkscape:export-filename="/home/matt/.icons/Sirocco/scalable/mimetypes/text-plain.png"
   inkscape:export-xdpi="90"
   inkscape:export-ydpi="90"
   sodipodi:modified="true"
   style="display:inline">
  <sodipodi:namedview
     id="base"
     pagecolor="#838383"
     bordercolor="#cc0000"
     borderopacity="1"
     inkscape:pageopacity="1"
     inkscape:pageshadow="2"
     inkscape:zoom="18.064397"
     inkscape:cx="-6.1136442"
     inkscape:cy="1.5597169"
     inkscape:document-units="px"
     inkscape:current-layer="layer1"
     width="128px"
     height="128px"
     inkscape:showpageshadow="false"
     inkscape:window-width="1920"
     inkscape:window-height="1028"
     inkscape:window-x="0"
     inkscape:window-y="25"
     showguides="true"
     inkscape:guide-bbox="true"
     showgrid="true"
     inkscape:window-maximized="1"
     borderlayer="true">
    <sodipodi:guide
       id="guide2226"
       position="32.637397,117.99844"
       orientation="horizontal" />
    <sodipodi:guide
       id="guide2230"
       position="110,57.402344"
       orientation="vertical" />
    <sodipodi:guide
       id="guide2232"
       position="33.760911"
       orientation="horizontal" />
    <sodipodi:guide
       id="guide2231"
       position="46.774696"
       orientation="horizontal" />
    <inkscape:grid
       enabled="true"
       visible="true"
       id="grid3231"
       type="xygrid"
       empspacing="8"
       snapvisiblegridlinesonly="true" />
    <sodipodi:guide
       orientation="1,0"
       position="100,67.625"
       id="guide2713" />
    <sodipodi:guide
       orientation="1,0"
       position="9,0"
       id="guide3021" />
    <sodipodi:guide
       orientation="0,1"
       position="13,6"
       id="guide3023" />
  </sodipodi:namedview>
  <defs
     id="defs4">
    <linearGradient
       id="StandardGradient"
       gradientTransform="scale(0.9219544,1.0846523)"
       x1="11.998966"
       y1="0.92195445"
       x2="11.998966"
       y2="19.387045"
       gradientUnits="userSpaceOnUse">
      <stop
         style="stop-color:#000000;stop-opacity:0.23529412;"
         offset="0"
         id="stop3283" />
      <stop
         style="stop-color:#000000;stop-opacity:0.54901963;"
         offset="1"
         id="stop2651" />
    </linearGradient>
    <radialGradient
       inkscape:collect="always"
       xlink:href="#StandardGradient"
       id="radialGradient3798"
       cx="9"
       cy="9.875"
       fx="9"
       fy="9.875"
       r="7"
       gradientUnits="userSpaceOnUse"
       gradientTransform="matrix(2.1428571,5.7142857e-8,-3.047619e-8,1.1428571,-10.285714,-1.2857148)" />
    <linearGradient
       id="StandardGradient-0"
       gradientTransform="scale(1.0023447,0.9976608)"
       x1="6.9680371"
       y1="3.0226958"
       x2="6.9680371"
       y2="13.05007"
       gradientUnits="userSpaceOnUse">
      <stop
         id="stop3284"
         offset="0"
         style="stop-color:#000000;stop-opacity:0.86274511;" />
      <stop
         id="stop3286"
         offset="1"
         style="stop-color:#000000;stop-opacity:0.47058824;" />
    </linearGradient>
    <linearGradient
       inkscape:collect="always"
       xlink:href="#StandardGradient-0"
       id="linearGradient3835"
       gradientUnits="userSpaceOnUse"
       gradientTransform="scale(1.0023447,0.9976608)"
       x1="6.9680371"
       y1="3.0226958"
       x2="6.9680371"
       y2="13.05007" />
    <linearGradient
       inkscape:collect="always"
       xlink:href="#StandardGradient-0"
       id="linearGradient3839"
       gradientUnits="userSpaceOnUse"
       gradientTransform="scale(1.0023447,0.9976608)"
       x1="6.9680371"
       y1="3.0226958"
       x2="6.9680371"
       y2="13.05007" />
    <linearGradient
       inkscape:collect="always"
       xlink:href="#StandardGradient-0"
       id="linearGradient3841"
       gradientUnits="userSpaceOnUse"
       gradientTransform="scale(1.0023447,0.9976608)"
       x1="6.9680371"
       y1="3.0226958"
       x2="6.9680371"
       y2="13.05007" />
    <radialGradient
       inkscape:collect="always"
       xlink:href="#StandardGradient"
       id="radialGradient3844"
       cx="9"
       cy="10.009353"
       fx="9"
       fy="10.009353"
       r="5.015625"
       gradientTransform="matrix(2.1931464,4.8508338e-8,-2.6459092e-8,1.1962616,-10.738318,-1.9738052)"
       gradientUnits="userSpaceOnUse" />
  </defs>
  <metadata
     id="metadata7">
    <rdf:RDF>
      <cc:Work
         rdf:about="">
        <dc:format>image/svg+xml</dc:format>
        <dc:type
           rdf:resource="http://purl.org/dc/dcmitype/StillImage" />
        <dc:title></dc:title>
      </cc:Work>
    </rdf:RDF>
  </metadata>
  <g
     style="display:inline"
     inkscape:label="Calque 1"
     id="layer1"
     inkscape:groupmode="layer">
    <path
       inkscape:connector-curvature="0"
       style="opacity:0.05;fill:#ffffff;fill-opacity:1;stroke:none;display:inline"
       d="m 7.875,1.9374998 a 1.0490583,1.0490583 0 0 0 -0.6875,0.40625 l -5,6.03125 a 1.0490583,1.0490583 0 0 0 0.4375,1.625 A 1.0490583,1.0490583 0 0 0 1.9375,11 l 0,2 A 1.0490583,1.0490583 0 0 0 3,14.0625 l 10,0 A 1.0490583,1.0490583 0 0 0 14.0625,13 l 0,-2 A 1.0490583,1.0490583 0 0 0 13.375,10.03125 1.0490583,1.0490583 0 0 0 13.8125,8.3749998 l -5,-6.03125 a 1.0490583,1.0490583 0 0 0 -0.84375,-0.40625 1.0490583,1.0490583 0 0 0 -0.09375,0 z m 0.125,1.0625 5,6.03125 -10,0 5,-6.03125 z M 3,11 l 10,0 0,2 -10,0 0,-2 z"
       id="path4543" />
    <path
       inkscape:connector-curvature="0"
       id="Symbol"
       style="fill:url(#radialGradient3844);fill-opacity:1;stroke:none;display:inline"
       d="m 2.984375,9.0281948 5.0027051,-6.01257 5.0285449,6.01257 -10.03125,0 z M 3,11 l 10,0 0,2 -10,0 0,-2 z"
       sodipodi:nodetypes="ccccccccc" />
    <path
       inkscape:connector-curvature="0"
       style="opacity:0.3;fill:#000000;fill-opacity:1;stroke:none;display:inline"
       d="m 8,2.9999998 -5,6.03125 0.84375,0 L 8,3.9999998 l 4.15625,5.03125 0.84375,0 -5,-6.03125 z M 3,11 l 0,1 10,0 0,-1 -10,0 z"
       id="BevelShadow"
       inkscape:label="#path3285" />
    <path
       inkscape:connector-curvature="0"
       style="opacity:0.2;fill:#ffffff;fill-opacity:1;stroke:none;display:inline"
       d="m 3.84375,9.03125 -0.84375,1 10,0 -0.84375,-1 -8.3125,0 z M 3,13 l 0,1 10,0 0,-1 -10,0 z"
       id="path2824" />
    <path
       style="fill:#000000;fill-opacity:1;stroke:none;display:inline;opacity:0.3"
       d="M 8 3 L 3 9.03125 L 13 9.03125 L 8 3 z M 8 3.6875 L 12.03125 8.5625 L 3.96875 8.5625 L 8 3.6875 z M 3 11 L 3 13 L 13 13 L 13 11 L 3 11 z M 3.46875 11.46875 L 12.53125 11.46875 L 12.53125 12.53125 L 3.46875 12.53125 L 3.46875 11.46875 z "
       id="path3831" />
  </g>
</svg>
