<?xml version="1.0" encoding="UTF-8" standalone="no"?>
<!-- Created with Inkscape (http://www.inkscape.org/) -->

<svg
   xmlns:dc="http://purl.org/dc/elements/1.1/"
   xmlns:cc="http://creativecommons.org/ns#"
   xmlns:rdf="http://www.w3.org/1999/02/22-rdf-syntax-ns#"
   xmlns:svg="http://www.w3.org/2000/svg"
   xmlns="http://www.w3.org/2000/svg"
   xmlns:xlink="http://www.w3.org/1999/xlink"
   xmlns:sodipodi="http://sodipodi.sourceforge.net/DTD/sodipodi-0.dtd"
   xmlns:inkscape="http://www.inkscape.org/namespaces/inkscape"
   width="16"
   height="16"
   id="svg2"
   sodipodi:version="0.32"
   inkscape:version="0.91 r13725"
   version="1.0"
   sodipodi:docname="object-flip-horizontal.svg"
   inkscape:output_extension="org.inkscape.output.svg.inkscape">
  <defs
     id="defs4">
    <linearGradient
       gradientUnits="userSpaceOnUse"
       y2="18.319494"
       x2="7.1904788"
       y1="6.9551144"
       x1="7.1904788"
       gradientTransform="scale(1.1467263,0.8720476)"
       id="linearGradient4173">
      <stop
         id="stop4175"
         offset="0"
         style="stop-color:#000000;stop-opacity:0.23529412" />
      <stop
         id="stop4177"
         offset="1"
         style="stop-color:#000000;stop-opacity:0.54901963" />
    </linearGradient>
    <inkscape:perspective
       sodipodi:type="inkscape:persp3d"
       inkscape:vp_x="0 : 8 : 1"
       inkscape:vp_y="0 : 1000 : 0"
       inkscape:vp_z="16 : 8 : 1"
       inkscape:persp3d-origin="8 : 5.3333333 : 1"
       id="perspective18" />
    <linearGradient
       id="StandardGradient"
       gradientTransform="scale(1.1467263,0.8720476)"
       x1="7.1904788"
       y1="6.9551144"
       x2="7.1904788"
       y2="18.319494"
       gradientUnits="userSpaceOnUse">
      <stop
         style="stop-color:#000000;stop-opacity:0.86274511;"
         offset="0"
         id="stop3280" />
      <stop
         style="stop-color:#000000;stop-opacity:0.47058824;"
         offset="1"
         id="stop3282" />
    </linearGradient>
    <inkscape:perspective
       id="perspective2849"
       inkscape:persp3d-origin="0.5 : 0.33333333 : 1"
       inkscape:vp_z="1 : 0.5 : 1"
       inkscape:vp_y="0 : 1000 : 0"
       inkscape:vp_x="0 : 0.5 : 1"
       sodipodi:type="inkscape:persp3d" />
    <linearGradient
       inkscape:collect="always"
       xlink:href="#StandardGradient"
       id="linearGradient3627"
       gradientUnits="userSpaceOnUse"
       gradientTransform="matrix(1.1467263,0,0,0.8720476,-20,0)"
       x1="7.1904788"
       y1="6.9551144"
       x2="7.1904788"
       y2="18.319494" />
    <clipPath
       clipPathUnits="userSpaceOnUse"
       id="clipPath3634">
      <path
         style="fill:#ff00ff;fill-opacity:1;stroke:none;display:inline"
         d="m -19.535739,2.999982 0,16 16.0000003,0 0,-16 -16.0000003,0 z m 12.0000003,3.0625 2.03125,0 0,4.625 c 0,1.550514 -1.261986,2.34375 -2.8125,2.34375 l -4.2187503,0 0,2.9375 -6,-3.96875 6,-4.09375 0,3.0625 3.0312503,0 c 1.792454,0 1.96875,-0.332819 1.96875,-2.1875 l 0,-2.71875 z"
         id="path3636" />
    </clipPath>
    <linearGradient
       inkscape:collect="always"
       xlink:href="#StandardGradient"
       id="linearGradient4993"
       gradientUnits="userSpaceOnUse"
       gradientTransform="scale(1.1467263,0.8720476)"
       x1="7.1904788"
       y1="6.9551144"
       x2="7.1904788"
       y2="18.319494" />
    <linearGradient
       inkscape:collect="always"
       xlink:href="#StandardGradient"
       id="linearGradient4997"
       gradientUnits="userSpaceOnUse"
       gradientTransform="matrix(1.1467263,0,0,0.8720476,-0.4642613,-2.999982)"
       x1="7.1904788"
       y1="6.9551144"
       x2="7.1904788"
       y2="18.319494" />
    <linearGradient
       inkscape:collect="always"
       xlink:href="#StandardGradient"
       id="linearGradient3024"
       gradientUnits="userSpaceOnUse"
       gradientTransform="matrix(1.1467263,0,0,0.8720476,-0.4642613,-2.999982)"
       x1="7.1904788"
       y1="6.9551144"
       x2="7.1904788"
       y2="18.319494" />
    <linearGradient
       inkscape:collect="always"
       xlink:href="#StandardGradient"
       id="linearGradient3027"
       gradientUnits="userSpaceOnUse"
       gradientTransform="matrix(1.1467263,0,0,0.8720476,-1.4642613,-2.999982)"
       x1="7.1904788"
       y1="6.9551144"
       x2="7.1904788"
       y2="18.319494" />
    <linearGradient
       inkscape:collect="always"
       xlink:href="#StandardGradient"
       id="linearGradient3031"
       gradientUnits="userSpaceOnUse"
       gradientTransform="matrix(-1.1467263,0,0,0.8720476,17.928523,0)"
       x1="7.1904788"
       y1="6.9551144"
       x2="7.1904788"
       y2="18.319494" />
    <linearGradient
       inkscape:collect="always"
       xlink:href="#StandardGradient"
       id="linearGradient3035"
       gradientUnits="userSpaceOnUse"
       gradientTransform="matrix(-1.1467263,0,0,0.8720476,17.928523,0)"
       x1="7.1904788"
       y1="6.9551144"
       x2="7.1904788"
       y2="18.319494" />
    <linearGradient
       inkscape:collect="always"
       xlink:href="#StandardGradient"
       id="linearGradient3044"
       gradientUnits="userSpaceOnUse"
       gradientTransform="matrix(1.1467263,0,0,0.8720476,-1,1)"
       x1="7.1904788"
       y1="10.320517"
       x2="7.1904788"
       y2="17.200874" />
    <linearGradient
       inkscape:collect="always"
       xlink:href="#StandardGradient"
       id="linearGradient3046"
       gradientUnits="userSpaceOnUse"
       gradientTransform="matrix(1.1467263,0,0,0.8720476,-1.4642613,-2.999982)"
       x1="7.1904788"
       y1="10.320517"
       x2="7.1904788"
       y2="17.200874" />
    <linearGradient
       inkscape:collect="always"
       xlink:href="#StandardGradient"
       id="linearGradient3819"
       gradientUnits="userSpaceOnUse"
       gradientTransform="matrix(1.1467263,0,0,0.8720476,-1.4642613,-1.999982)"
       x1="7.1904788"
       y1="10.320517"
       x2="7.1904788"
       y2="17.200874" />
    <linearGradient
       inkscape:collect="always"
       xlink:href="#StandardGradient"
       id="linearGradient3823"
       gradientUnits="userSpaceOnUse"
       gradientTransform="matrix(1.1467263,0,0,0.8720476,-1,0)"
       x1="7.1904788"
       y1="10.320517"
       x2="7.1904788"
       y2="17.200874" />
    <linearGradient
       inkscape:collect="always"
       xlink:href="#StandardGradient"
       id="linearGradient3830"
       gradientUnits="userSpaceOnUse"
       gradientTransform="matrix(1.1467263,0,0,0.8720476,-1.4642613,-2.999982)"
       x1="7.1904788"
       y1="10.320517"
       x2="7.1904788"
       y2="17.200874" />
    <linearGradient
       inkscape:collect="always"
       xlink:href="#StandardGradient"
       id="linearGradient3834"
       gradientUnits="userSpaceOnUse"
       gradientTransform="matrix(1.1467263,0,0,0.8720476,-1.4642613,-2.999982)"
       x1="7.1904788"
       y1="10.320517"
       x2="7.1904788"
       y2="17.200874" />
    <radialGradient
       inkscape:collect="always"
       xlink:href="#linearGradient4173"
       id="radialGradient4171"
       cx="8"
       cy="8.9375"
       fx="8"
       fy="8.9375"
       r="8"
       gradientTransform="matrix(1,0,0,0.37890625,0,5.5510254)"
       gradientUnits="userSpaceOnUse" />
  </defs>
  <sodipodi:namedview
     id="base"
     pagecolor="#848484"
     bordercolor="#9a9a9a"
     borderopacity="1"
     inkscape:pageopacity="0"
     inkscape:pageshadow="2"
     inkscape:zoom="19.197945"
     inkscape:cx="14.405451"
     inkscape:cy="8.1115612"
     inkscape:document-units="px"
     inkscape:current-layer="layer3"
     showgrid="true"
     inkscape:showpageshadow="false"
     showguides="true"
     inkscape:guide-bbox="true"
     inkscape:window-width="1366"
     inkscape:window-height="718"
     inkscape:window-x="0"
     inkscape:window-y="25"
     inkscape:window-maximized="1"
     inkscape:snap-bbox="true"
     inkscape:bbox-paths="true"
     inkscape:bbox-nodes="true"
     inkscape:snap-bbox-edge-midpoints="true">
    <sodipodi:guide
       orientation="1,0"
       position="0,112"
       id="guide2383" />
    <sodipodi:guide
       orientation="0,1"
       position="26.278146,128"
       id="guide2385" />
    <sodipodi:guide
       orientation="1,0"
       position="128,54.082119"
       id="guide2387" />
    <sodipodi:guide
       orientation="0,1"
       position="78.156291,0"
       id="guide2389" />
    <inkscape:grid
       type="xygrid"
       id="grid3672"
       visible="true"
       enabled="true" />
  </sodipodi:namedview>
  <metadata
     id="metadata7">
    <rdf:RDF>
      <cc:Work
         rdf:about="">
        <dc:format>image/svg+xml</dc:format>
        <dc:type
           rdf:resource="http://purl.org/dc/dcmitype/StillImage" />
        <dc:title></dc:title>
      </cc:Work>
    </rdf:RDF>
  </metadata>
  <g
     inkscape:groupmode="layer"
     id="layer3"
     inkscape:label="Cross"
     style="display:inline"
     transform="translate(-0.4642613,-2.999982)">
    <path
       style="fill:#ffffff;fill-opacity:1;stroke:none;display:inline;opacity:0.05"
       d="M 4.875 5 A 0.90978469 0.90978469 0 0 0 4.53125 5.125 L -0.46875 8.21875 A 0.90978469 0.90978469 0 0 0 -0.46875 9.78125 L 4.53125 12.75 A 0.90978469 0.90978469 0 0 0 5.90625 11.96875 L 5.90625 10.9375 L 10.09375 10.9375 L 10.09375 11.96875 A 0.90978469 0.90978469 0 0 0 11.46875 12.75 L 16.46875 9.78125 A 0.90978469 0.90978469 0 0 0 16.46875 8.21875 L 11.46875 5.125 A 0.90978469 0.90978469 0 0 0 10.09375 5.90625 L 10.09375 7.0625 L 5.90625 7.0625 L 5.90625 5.90625 A 0.90978469 0.90978469 0 0 0 4.875 5 z M 5 5.90625 L 5 7.96875 L 11 7.96875 L 11 5.90625 L 16 9 L 11 11.96875 L 11 10.03125 L 5 10.03125 L 5 11.96875 L 0 9 L 5 5.90625 z "
       transform="translate(0.4642613,2.999982)"
       id="path3832" />
    <path
       style="fill:url(#radialGradient4171);fill-opacity:1;stroke:none;display:inline"
       d="M 5,5.90625 0,9 l 5,2.96875 0,-1.9375 c 2,0 4,0 6,0 l 0,1.9375 L 16,9 11,5.90625 l 0,2.0625 c -2,0 -4,0 -6,0 z"
       transform="translate(0.4642613,2.999982)"
       id="Symbol"
       inkscape:connector-curvature="0"
       sodipodi:nodetypes="ccccccccccc" />
    <path
       style="fill:#000000;fill-opacity:1;stroke:none;display:inline;opacity:0.3"
       d="M 5 5.90625 L 0 9 L 0.8125 9.5 L 5 6.90625 L 5 5.90625 z M 11 5.90625 L 11 6.90625 L 15.1875 9.5 L 16 9 L 11 5.90625 z M 5 7.96875 L 5 8.96875 L 11 8.96875 L 11 7.96875 L 5 7.96875 z "
       transform="translate(0.4642613,2.999982)"
       id="path3040" />
    <path
       style="fill:#ffffff;fill-opacity:1;stroke:none;display:inline;opacity:0.2"
       d="M 0.8125 9.5 L 0 10 L 5 12.96875 L 5 11.96875 L 0.8125 9.5 z M 15.1875 9.5 L 11 11.96875 L 11 12.96875 L 16 10 L 15.1875 9.5 z M 5 10.03125 L 5 11.03125 L 11 11.03125 L 11 10.03125 L 5 10.03125 z "
       transform="translate(0.4642613,2.999982)"
       id="path3817" />
    <path
       style="color:#000000;font-style:normal;font-variant:normal;font-weight:normal;font-stretch:normal;font-size:medium;line-height:normal;font-family:sans-serif;text-indent:0;text-align:start;text-decoration:none;text-decoration-line:none;text-decoration-style:solid;text-decoration-color:#000000;letter-spacing:normal;word-spacing:normal;text-transform:none;direction:ltr;block-progression:tb;writing-mode:lr-tb;baseline-shift:baseline;text-anchor:start;white-space:normal;clip-rule:nonzero;display:inline;overflow:visible;visibility:visible;opacity:0.3;isolation:auto;mix-blend-mode:normal;color-interpolation:sRGB;color-interpolation-filters:linearRGB;solid-color:#000000;solid-opacity:1;fill:#000000;fill-opacity:1;fill-rule:nonzero;stroke:none;stroke-width:1.20000005;stroke-linecap:butt;stroke-linejoin:miter;stroke-miterlimit:4;stroke-dasharray:none;stroke-dashoffset:0;stroke-opacity:1;color-rendering:auto;image-rendering:auto;shape-rendering:auto;text-rendering:auto;enable-background:accumulate"
       d="m 5.4642613,8.968732 -5,3.09375 5,2.96875 0,-1.9375 5.9999997,0 0,1.9375 5,-2.96875 -5,-3.09375 0,2.0625 -5.9999997,0 0,-2.0625 z m -0.599609,1.107422 0,1.585937 7.1992177,0 0,-1.585937 3.242188,2.007812 -3.242188,1.923828 0,-1.482421 -7.1992177,0 0,1.482421 -3.244141,-1.925781 3.244141,-2.005859 z"
       id="Symbol-6"
       inkscape:connector-curvature="0" />
  </g>
</svg>
