<?xml version="1.0" encoding="UTF-8" standalone="no"?>
<!-- Created with Inkscape (http://www.inkscape.org/) -->

<svg
   xmlns:dc="http://purl.org/dc/elements/1.1/"
   xmlns:cc="http://creativecommons.org/ns#"
   xmlns:rdf="http://www.w3.org/1999/02/22-rdf-syntax-ns#"
   xmlns:svg="http://www.w3.org/2000/svg"
   xmlns="http://www.w3.org/2000/svg"
   xmlns:xlink="http://www.w3.org/1999/xlink"
   xmlns:sodipodi="http://sodipodi.sourceforge.net/DTD/sodipodi-0.dtd"
   xmlns:inkscape="http://www.inkscape.org/namespaces/inkscape"
   width="16"
   height="16"
   id="svg2"
   sodipodi:version="0.32"
   inkscape:version="0.48.1 r9760"
   version="1.0"
   sodipodi:docname="object-rotate-left.svg"
   inkscape:output_extension="org.inkscape.output.svg.inkscape"
   inkscape:export-filename="/home/matt/.icons/Sirocco/scalable/mimetypes/text-plain.png"
   inkscape:export-xdpi="90"
   inkscape:export-ydpi="90"
   sodipodi:modified="true"
   style="display:inline">
  <sodipodi:namedview
     id="base"
     pagecolor="#838383"
     bordercolor="#cc0000"
     borderopacity="1"
     inkscape:pageopacity="1"
     inkscape:pageshadow="2"
     inkscape:zoom="18.064397"
     inkscape:cx="-6.1136442"
     inkscape:cy="1.5873957"
     inkscape:document-units="px"
     inkscape:current-layer="layer1"
     width="128px"
     height="128px"
     inkscape:showpageshadow="false"
     inkscape:window-width="1920"
     inkscape:window-height="1030"
     inkscape:window-x="0"
     inkscape:window-y="25"
     showguides="true"
     inkscape:guide-bbox="true"
     showgrid="true"
     inkscape:window-maximized="1"
     borderlayer="true">
    <sodipodi:guide
       id="guide2226"
       position="32.637397,117.99844"
       orientation="horizontal" />
    <sodipodi:guide
       id="guide2230"
       position="110,57.402344"
       orientation="vertical" />
    <sodipodi:guide
       id="guide2232"
       position="33.760911"
       orientation="horizontal" />
    <sodipodi:guide
       id="guide2231"
       position="46.774696"
       orientation="horizontal" />
    <inkscape:grid
       enabled="true"
       visible="true"
       id="grid3231"
       type="xygrid"
       empspacing="8"
       snapvisiblegridlinesonly="true" />
    <sodipodi:guide
       orientation="1,0"
       position="100,67.625"
       id="guide2713" />
    <sodipodi:guide
       orientation="1,0"
       position="9,0"
       id="guide3021" />
    <sodipodi:guide
       orientation="0,1"
       position="13,6"
       id="guide3023" />
  </sodipodi:namedview>
  <defs
     id="defs4">
    <linearGradient
       id="StandardGradient"
       gradientTransform="scale(0.9219544,1.0846523)"
       x1="11.998966"
       y1="0.92195445"
       x2="11.998966"
       y2="19.387045"
       gradientUnits="userSpaceOnUse">
      <stop
         style="stop-color:#000000;stop-opacity:0.23529412;"
         offset="0"
         id="stop3283" />
      <stop
         style="stop-color:#000000;stop-opacity:0.54901963;"
         offset="1"
         id="stop2651" />
    </linearGradient>
    <radialGradient
       inkscape:collect="always"
       xlink:href="#StandardGradient"
       id="radialGradient3798"
       cx="9"
       cy="9.875"
       fx="9"
       fy="9.875"
       r="7"
       gradientUnits="userSpaceOnUse"
       gradientTransform="matrix(2.1428571,5.7142857e-8,-3.047619e-8,1.1428571,-10.285714,-1.2857148)" />
    <radialGradient
       inkscape:collect="always"
       xlink:href="#StandardGradient"
       id="radialGradient3831"
       cx="9"
       cy="9.5985794"
       fx="9"
       fy="9.5985794"
       r="5.5947585"
       gradientTransform="matrix(1.966126,0,0,1.250684,-8.6951337,-2.0047892)"
       gradientUnits="userSpaceOnUse" />
    <radialGradient
       inkscape:collect="always"
       xlink:href="#StandardGradient"
       id="radialGradient3837"
       gradientUnits="userSpaceOnUse"
       gradientTransform="matrix(1.966126,0,0,1.250684,-8.6951337,-2.0047892)"
       cx="9"
       cy="9.5985794"
       fx="9"
       fy="9.5985794"
       r="5.5947585" />
    <radialGradient
       inkscape:collect="always"
       xlink:href="#StandardGradient"
       id="radialGradient3841"
       gradientUnits="userSpaceOnUse"
       gradientTransform="matrix(1.966126,0,0,1.250684,-8.6951337,-2.0047892)"
       cx="9"
       cy="9.5985794"
       fx="9"
       fy="9.5985794"
       r="5.5947585" />
    <radialGradient
       inkscape:collect="always"
       xlink:href="#StandardGradient"
       id="radialGradient3843"
       gradientUnits="userSpaceOnUse"
       gradientTransform="matrix(1.966126,0,0,1.250684,-8.6951337,-2.0047892)"
       cx="9"
       cy="9.5985794"
       fx="9"
       fy="9.5985794"
       r="5.5947585" />
  </defs>
  <metadata
     id="metadata7">
    <rdf:RDF>
      <cc:Work
         rdf:about="">
        <dc:format>image/svg+xml</dc:format>
        <dc:type
           rdf:resource="http://purl.org/dc/dcmitype/StillImage" />
        <dc:title></dc:title>
      </cc:Work>
    </rdf:RDF>
  </metadata>
  <g
     style="display:inline"
     inkscape:label="Calque 1"
     id="layer1"
     inkscape:groupmode="layer">
    <path
       inkscape:connector-curvature="0"
       style="opacity:0.05;fill:#ffffff;fill-opacity:1;stroke:none;display:inline"
       d="M 7.875,-0.0625 A 1.043459,1.043459 0 0 0 7.75,-0.03125 1.043459,1.043459 0 0 0 7.375,0.15625 l -4,3 a 1.043459,1.043459 0 0 0 0,1.6875 L 6.4375,7.125 C 5.8726317,7.5935909 5.46875,8.2181293 5.46875,9 c 0,1.392298 1.1389521,2.53125 2.53125,2.53125 1.3922979,0 2.53125,-1.138952 2.53125,-2.53125 0,-0.9888044 -0.6647664,-1.674202 -1.5,-2.09375 l 0,-0.59375 c 0.6194679,0.2237502 1.176707,0.6046638 1.53125,1.21875 0.821634,1.4231128 0.33063,3.208883 -1.09375,4.03125 C 8.0456372,12.384134 6.2598668,11.89313 5.4375,10.46875 A 1.043459,1.043459 0 0 0 4,10.09375 l -1.71875,1 a 1.043459,1.043459 0 0 0 -0.375,1.4375 c 1.938457,3.357507 6.2690669,4.500049 9.625,2.5625 2.30545,-1.331052 3.5649,-3.782399 3.5,-6.28125 C 15.001574,7.6699024 14.697628,6.5146966 14.09375,5.46875 12.989069,3.5553856 11.063795,2.5681792 9.03125,2.25 l 0,-1.25 A 1.043459,1.043459 0 0 0 7.875,-0.0625 z M 8,1 8,3 c 2.071823,0.00176 4.077089,1.0767117 5.1875,3 0.517767,0.8967987 0.78738,1.8765729 0.8125,2.84375 0.05526,2.12779 -1.027043,4.204663 -3,5.34375 C 8.1302447,15.844354 4.469354,14.869756 2.8125,12 L 4.53125,11 C 5.63582,12.91317 8.0868295,13.573319 10,12.46875 11.91317,11.36418 12.573319,8.9131705 11.46875,7 10.729146,5.7189679 9.3799006,5.0337176 8,5.03125 L 8,7 4,4 8,1 z M 8,7.5 C 8.8284272,7.5 9.5,8.1715729 9.5,9 9.5,9.8284271 8.8284272,10.5 8,10.5 7.1715728,10.5 6.5,9.8284271 6.5,9 6.5,8.1715729 7.1715728,7.5 8,7.5 z"
       id="path4497" />
    <path
       inkscape:connector-curvature="0"
       style="fill:url(#radialGradient3831);fill-opacity:1;stroke:none;display:inline"
       d="M 8,1 4,4 8,7 8,5.03125 C 9.3799006,5.03372 10.729146,5.7189679 11.46875,7 12.573319,8.9131705 11.91317,11.36418 10,12.46875 8.0868295,13.573319 5.63582,12.91317 4.53125,11 L 2.8125,12 C 4.469354,14.869756 8.1302447,15.844354 11,14.1875 12.972957,13.048413 14.055263,10.97154 14,8.84375 13.97488,7.8765729 13.705267,6.8967987 13.1875,6 12.077089,4.0767117 10.071823,3.0017616 8,3 L 8,1 z M 8,7.5 C 7.1715728,7.5 6.5,8.1715729 6.5,9 6.5,9.8284271 7.1715728,10.5 8,10.5 8.8284272,10.5 9.5,9.8284271 9.5,9 9.5,8.1715729 8.8284272,7.5 8,7.5 z"
       id="path2839" />
    <path
       inkscape:connector-curvature="0"
       style="opacity:0.3;fill:#000000;fill-opacity:1;stroke:none;display:inline"
       d="M 8,1 4,4 4.65625,4.5 8,2 8,1 z m 0,2 0,1 c 2.071823,0.00176 4.077089,1.0767117 5.1875,3 0.461425,0.7992108 0.711405,1.6678845 0.78125,2.53125 C 13.98988,9.299556 14.00608,9.0778579 14,8.84375 13.97488,7.8765729 13.705267,6.8967987 13.1875,6 12.077089,4.0767117 10.071823,3.0017616 8,3 z M 8,7.5 C 7.8170557,7.5 7.6308524,7.533792 7.46875,7.59375 7.447105,7.60176 7.427381,7.61604 7.40625,7.625 7.302798,7.668756 7.2150503,7.716482 7.125,7.78125 7.08095,7.81232 7.040261,7.839433 7,7.875 6.97806,7.894518 6.958258,7.916742 6.9375,7.9375 6.876636,7.998536 6.8307608,8.0541009 6.78125,8.125 6.710865,8.222861 6.6704134,8.3239697 6.625,8.4375 6.600246,8.499304 6.579038,8.5593784 6.5625,8.625 6.55682,8.647395 6.535912,8.664716 6.53125,8.6875 6.51041,8.7882061 6.5,8.8928893 6.5,9 6.5,9.172589 6.540108,9.345681 6.59375,9.5 6.7975898,8.913588 7.3441618,8.5 8,8.5 8.6558382,8.5 9.2024102,8.913588 9.40625,9.5 9.459892,9.345681 9.5,9.172589 9.5,9 9.5,8.1715729 8.8284272,7.5 8,7.5 z m 3.96875,2 C 11.815351,10.699046 11.12625,11.818509 10,12.46875 8.0868295,13.573319 5.63582,12.91317 4.53125,11 L 2.8125,12 c 0.1456482,0.25227 0.3252779,0.49627 0.5,0.71875 L 4.53125,12 C 5.63582,13.91317 8.0868295,14.573319 10,13.46875 11.434877,12.640322 12.159393,11.048242 11.96875,9.5 z"
       id="path3636" />
    <path
       style="fill:#000000;fill-opacity:1;stroke:none;display:inline;opacity:0.3"
       d="M 8 1 L 4 4 L 8 7 L 8 5.03125 C 9.3799006 5.03372 10.729146 5.7189679 11.46875 7 C 12.573319 8.9131705 11.91317 11.36418 10 12.46875 C 8.0868295 13.573319 5.63582 12.91317 4.53125 11 L 2.8125 12 C 4.469354 14.869756 8.1302447 15.844354 11 14.1875 C 12.972957 13.048413 14.055263 10.97154 14 8.84375 C 13.97488 7.8765729 13.705267 6.8967987 13.1875 6 C 12.077089 4.0767117 10.071823 3.0017616 8 3 L 8 1 z M 7.5 2 L 7.5 3 A 0.4982674 0.4982674 0 0 0 8 3.5 C 9.8997655 3.5016153 11.72926 4.4820266 12.75 6.25 C 13.226648 7.0755783 13.477056 7.9603388 13.5 8.84375 C 13.550661 10.794353 12.564187 12.702579 10.75 13.75 C 8.2653023 15.184541 5.2191355 14.416209 3.59375 12.125 L 4.4375 11.625 C 5.7796912 13.431873 8.2550718 14.058022 10.25 12.90625 C 12.396575 11.666924 13.145925 8.8971805 11.90625 6.75 C 11.073926 5.3083722 9.5442591 4.5340142 8 4.53125 A 0.4982674 0.4982674 0 0 0 7.5 5.03125 L 7.5 6 L 4.84375 4 L 7.5 2 z M 8 7.5 C 7.1715728 7.5 6.5 8.1715729 6.5 9 C 6.5 9.8284271 7.1715728 10.5 8 10.5 C 8.8284272 10.5 9.5 9.8284271 9.5 9 C 9.5 8.1715729 8.8284272 7.5 8 7.5 z M 8 8 C 8.5591704 8 9 8.4408296 9 9 C 9 9.5591704 8.5591704 10 8 10 C 7.4408296 10 7 9.5591704 7 9 C 7 8.4408296 7.4408296 8 8 8 z "
       id="path3833" />
    <path
       inkscape:connector-curvature="0"
       style="opacity:0.2;fill:#ffffff;fill-opacity:1;stroke:none;display:inline"
       d="M 4.65625,4.5 4,5 7.46875,7.59375 c 0.01835,-0.00679 0.04382,0.00608 0.0625,0 C 7.677587,7.546105 7.837766,7.5 8,7.5 L 8,7 4.65625,4.5 z M 8,5.03125 l 0,1 C 9.379901,6.03372 10.729146,6.7189679 11.46875,8 c 0.270628,0.4687427 0.433927,0.9633896 0.5,1.46875 C 11.98513,9.3322783 11.99759,9.2003326 12,9.0625 12.0011,9.000767 12.0018,8.9368673 12,8.875 11.9964,8.7538974 11.98351,8.6209828 11.96875,8.5 c -0.0013,-0.010304 0.0014,-0.020949 0,-0.03125 C 11.94332,8.2747501 11.89859,8.0973379 11.84375,7.90625 11.82953,7.855468 11.82885,7.8004491 11.8125,7.75 11.7954,7.698604 11.76931,7.6447225 11.75,7.59375 11.673455,7.38794 11.582332,7.1967302 11.46875,7 10.729146,5.7189679 9.3799009,5.0337176 7.9999999,5.03125 z M 6.59375,9.5 C 6.540108,9.654319 6.5,9.827411 6.5,10 6.5,10.828427 7.171573,11.5 8,11.5 8.828427,11.5 9.5,10.828427 9.5,10 9.5,9.827411 9.45989,9.654319 9.40625,9.5 9.3955,9.530935 9.38763,9.563813 9.375,9.59375 9.32544,9.7109252 9.263754,9.8065301 9.1875,9.90625 9.034487,10.112021 8.831322,10.271526 8.59375,10.375 8.55188,10.39271 8.51247,10.42359 8.46875,10.4375 8.41944,10.45362 8.364042,10.45777 8.3125,10.46875 8.214854,10.48873 8.103553,10.5 8,10.5 7.841218,10.5 7.674883,10.48322 7.53125,10.4375 7.48685,10.42299 7.44863,10.39346 7.40625,10.375 7.302798,10.33124 7.21505,10.28352 7.125,10.21875 7.05787,10.17016 6.995476,10.12155 6.9375,10.0625 6.8904,10.0154 6.85303,9.959254 6.8125,9.90625 6.73625,9.80653 6.674561,9.7109252 6.625,9.59375 6.61235,9.56384 6.60448,9.530864 6.59375,9.5 z m 7.375,0.125 c -0.02464,0.2298191 -0.07418,0.462369 -0.125,0.6875 -0.05056,0.222678 -0.111893,0.440801 -0.1875,0.65625 -0.0218,0.06212 -0.03865,0.126097 -0.0625,0.1875 -0.01173,0.03031 -0.01903,0.06362 -0.03125,0.09375 -0.08758,0.215947 -0.199942,0.41977 -0.3125,0.625 -0.06373,0.116199 -0.115932,0.231608 -0.1875,0.34375 -0.02781,0.04355 -0.06476,0.08211 -0.09375,0.125 -0.08829,0.130627 -0.182171,0.250987 -0.28125,0.375 -0.01458,0.01826 -0.01644,0.04439 -0.03125,0.0625 -0.108428,0.132576 -0.223065,0.251095 -0.34375,0.375 -0.04997,0.05169 -0.1042,0.106172 -0.15625,0.15625 -0.145155,0.13872 -0.307735,0.280893 -0.46875,0.40625 -0.02384,0.01852 -0.03832,0.04429 -0.0625,0.0625 -0.198207,0.149788 -0.404121,0.278725 -0.625,0.40625 -0.163593,0.09445 -0.331919,0.172469 -0.5,0.25 -0.01297,0.0059 -0.01826,0.0254 -0.03125,0.03125 C 10.313069,14.53927 10.158616,14.599963 10,14.65625 9.96919,14.66711 9.93716,14.67717 9.90625,14.6875 9.591264,14.79276 9.258913,14.855267 8.9375,14.90625 8.87322,14.91645 8.814388,14.92943 8.75,14.9375 8.503344,14.9684 8.246411,14.9999 8,15 c -0.107471,4.2e-5 -0.205464,-0.02553 -0.3125,-0.03125 -0.03041,-0.0016 -0.06339,0.0021 -0.09375,0 C 7.348824,14.95174 7.083984,14.92162 6.84375,14.875 6.82115,14.8706 6.80379,14.84843 6.78125,14.84375 6.479744,14.78172 6.194844,14.73245 5.90625,14.625 5.723479,14.55692 5.550745,14.460941 5.375,14.375 5.210721,14.29515 5.063205,14.220005 4.90625,14.125 4.89905,14.1206 4.88217,14.1294 4.875,14.125 4.590035,13.950613 4.317519,13.723116 4.0625,13.5 3.787622,13.259509 3.544065,13.01361 3.3125,12.71875 L 2.8125,13 C 4.469354,15.869756 8.130245,16.844354 11,15.1875 12.972957,14.048413 14.055263,11.97154 14,9.84375 13.9981,9.769805 13.97353,9.6990491 13.96875,9.625 z"
       id="path3645" />
  </g>
</svg>
