<?xml version="1.0" encoding="UTF-8" standalone="no"?>
<!-- Created with Inkscape (http://www.inkscape.org/) -->

<svg
   xmlns:dc="http://purl.org/dc/elements/1.1/"
   xmlns:cc="http://creativecommons.org/ns#"
   xmlns:rdf="http://www.w3.org/1999/02/22-rdf-syntax-ns#"
   xmlns:svg="http://www.w3.org/2000/svg"
   xmlns="http://www.w3.org/2000/svg"
   xmlns:xlink="http://www.w3.org/1999/xlink"
   xmlns:sodipodi="http://sodipodi.sourceforge.net/DTD/sodipodi-0.dtd"
   xmlns:inkscape="http://www.inkscape.org/namespaces/inkscape"
   width="16"
   height="16"
   id="svg2"
   sodipodi:version="0.32"
   inkscape:version="0.48.1 r9760"
   version="1.0"
   sodipodi:docname="object-rotate-right.svg"
   inkscape:output_extension="org.inkscape.output.svg.inkscape"
   inkscape:export-filename="/home/matt/.icons/Sirocco/scalable/mimetypes/text-plain.png"
   inkscape:export-xdpi="90"
   inkscape:export-ydpi="90"
   sodipodi:modified="true"
   style="display:inline">
  <sodipodi:namedview
     id="base"
     pagecolor="#838383"
     bordercolor="#cc0000"
     borderopacity="1"
     inkscape:pageopacity="1"
     inkscape:pageshadow="2"
     inkscape:zoom="18.064397"
     inkscape:cx="-6.1136442"
     inkscape:cy="1.5873957"
     inkscape:document-units="px"
     inkscape:current-layer="layer1"
     width="128px"
     height="128px"
     inkscape:showpageshadow="false"
     inkscape:window-width="1920"
     inkscape:window-height="1030"
     inkscape:window-x="0"
     inkscape:window-y="25"
     showguides="true"
     inkscape:guide-bbox="true"
     showgrid="true"
     inkscape:window-maximized="1"
     borderlayer="true">
    <sodipodi:guide
       id="guide2226"
       position="32.637397,117.99844"
       orientation="horizontal" />
    <sodipodi:guide
       id="guide2230"
       position="110,57.402344"
       orientation="vertical" />
    <sodipodi:guide
       id="guide2232"
       position="33.760911"
       orientation="horizontal" />
    <sodipodi:guide
       id="guide2231"
       position="46.774696"
       orientation="horizontal" />
    <inkscape:grid
       enabled="true"
       visible="true"
       id="grid3231"
       type="xygrid"
       empspacing="8"
       snapvisiblegridlinesonly="true" />
    <sodipodi:guide
       orientation="1,0"
       position="100,67.625"
       id="guide2713" />
    <sodipodi:guide
       orientation="1,0"
       position="9,0"
       id="guide3021" />
    <sodipodi:guide
       orientation="0,1"
       position="13,6"
       id="guide3023" />
  </sodipodi:namedview>
  <defs
     id="defs4">
    <linearGradient
       id="StandardGradient"
       gradientTransform="scale(0.9219544,1.0846523)"
       x1="11.998966"
       y1="0.92195445"
       x2="11.998966"
       y2="19.387045"
       gradientUnits="userSpaceOnUse">
      <stop
         style="stop-color:#000000;stop-opacity:0.23529412;"
         offset="0"
         id="stop3283" />
      <stop
         style="stop-color:#000000;stop-opacity:0.54901963;"
         offset="1"
         id="stop2651" />
    </linearGradient>
    <radialGradient
       inkscape:collect="always"
       xlink:href="#StandardGradient"
       id="radialGradient3831"
       cx="8.43678"
       cy="9.5985794"
       fx="8.43678"
       fy="9.5985794"
       r="5.5947585"
       gradientTransform="matrix(-3.9687227e-8,-1.2511711,-1.9661259,6.2365641e-8,27.872017,20.555855)"
       gradientUnits="userSpaceOnUse" />
  </defs>
  <metadata
     id="metadata7">
    <rdf:RDF>
      <cc:Work
         rdf:about="">
        <dc:format>image/svg+xml</dc:format>
        <dc:type
           rdf:resource="http://purl.org/dc/dcmitype/StillImage" />
        <dc:title></dc:title>
      </cc:Work>
    </rdf:RDF>
  </metadata>
  <g
     style="display:inline"
     inkscape:label="Calque 1"
     id="layer1"
     inkscape:groupmode="layer">
    <path
       inkscape:connector-curvature="0"
       style="opacity:0.05;fill:#ffffff;fill-opacity:1;stroke:none;display:inline"
       d="m 9.0176394,-0.0625 a 1.043459,1.043459 0 0 1 0.125,0.03125 1.043459,1.043459 0 0 1 0.375,0.1875 l 3.9999996,3 a 1.043459,1.043459 0 0 1 0,1.6875 l -3.0625,2.28125 c 0.564869,0.4685909 0.96875,1.0931293 0.96875,1.875 0,1.392298 -1.138952,2.53125 -2.5312496,2.53125 -1.3922979,0 -2.53125,-1.138952 -2.53125,-2.53125 0,-0.9888044 0.6647664,-1.674202 1.5,-2.09375 l 0,-0.59375 c -0.6194679,0.2237502 -1.176707,0.6046638 -1.53125,1.21875 -0.821634,1.4231128 -0.33063,3.208883 1.09375,4.03125 1.4231128,0.821634 3.2088836,0.33063 4.0312496,-1.09375 a 1.043459,1.043459 0 0 1 1.4375,-0.375 l 1.71875,1 a 1.043459,1.043459 0 0 1 0.375,1.4375 c -1.938457,3.357507 -6.2690665,4.500049 -9.6249996,2.5625 -2.30545,-1.331052 -3.5649,-3.782399 -3.5,-6.28125 0.029676,-1.1425976 0.333622,-2.2978034 0.9375,-3.34375 1.104681,-1.9133644 3.029955,-2.9005708 5.0625,-3.21875 l 0,-1.25 a 1.043459,1.043459 0 0 1 1.15625,-1.0625 z m -0.125,1.0625 0,2 c -2.071823,0.00176 -4.077089,1.0767117 -5.1875,3 -0.517767,0.8967987 -0.78738,1.8765729 -0.8125,2.84375 -0.05526,2.12779 1.027043,4.204663 3,5.34375 C 8.7623947,15.844354 12.423285,14.869756 14.080139,12 l -1.71875,-1 C 11.256819,12.91317 8.8058099,13.573319 6.8926394,12.46875 4.9794694,11.36418 4.3193204,8.9131705 5.4238894,7 6.1634934,5.7189679 7.5127388,5.0337176 8.8926394,5.03125 L 8.8926394,7 12.892639,4 8.8926394,1 z m 0,6.5 c -0.8284272,0 -1.5,0.6715729 -1.5,1.5 0,0.8284271 0.6715728,1.5 1.5,1.5 0.8284272,0 1.4999996,-0.6715729 1.4999996,-1.5 0,-0.8284271 -0.6715724,-1.5 -1.4999996,-1.5 z"
       id="path4497" />
    <path
       inkscape:connector-curvature="0"
       style="fill:url(#radialGradient3831);fill-opacity:1;stroke:none;display:inline"
       d="m 8.8926394,1 3.9999996,3 -3.9999996,3 0,-1.96875 C 7.5127388,5.03372 6.1634934,5.7189679 5.4238894,7 c -1.104569,1.9131705 -0.44442,4.36418 1.46875,5.46875 C 8.8058099,13.573319 11.256819,12.91317 12.361389,11 l 1.71875,1 c -1.656854,2.869756 -5.3177443,3.844354 -8.1874996,2.1875 -1.972957,-1.139087 -3.055263,-3.21596 -3,-5.34375 0.02512,-0.9671771 0.294733,-1.9469513 0.8125,-2.84375 1.110411,-1.9232883 3.115677,-2.9982384 5.1875,-3 l 0,-2 z m 0,6.5 c 0.8284272,0 1.4999996,0.6715729 1.4999996,1.5 0,0.8284271 -0.6715724,1.5 -1.4999996,1.5 -0.8284272,0 -1.5,-0.6715729 -1.5,-1.5 0,-0.8284271 0.6715728,-1.5 1.5,-1.5 z"
       id="path2839" />
    <path
       inkscape:connector-curvature="0"
       style="opacity:0.3;fill:#000000;fill-opacity:1;stroke:none;display:inline"
       d="M 8.8926394,1 12.892639,4 12.236389,4.5 8.8926394,2 l 0,-1 z m 0,2 0,1 c -2.071823,0.00176 -4.077089,1.0767117 -5.1875,3 -0.461425,0.7992108 -0.711405,1.6678845 -0.78125,2.53125 -0.02113,-0.231694 -0.03733,-0.4533921 -0.03125,-0.6875 0.02512,-0.9671771 0.294733,-1.9469513 0.8125,-2.84375 1.110411,-1.9232883 3.115677,-2.9982384 5.1875,-3 z m 0,4.5 c 0.1829443,0 0.3691476,0.033792 0.53125,0.09375 0.021645,0.00801 0.041369,0.02229 0.0625,0.03125 0.103452,0.043756 0.1911997,0.091482 0.28125,0.15625 0.04405,0.03107 0.084739,0.058183 0.125,0.09375 0.02194,0.019518 0.041742,0.041742 0.0625,0.0625 0.060864,0.061036 0.1067396,0.1166009 0.1562496,0.1875 0.07038,0.097861 0.110837,0.1989697 0.15625,0.3125 0.02475,0.061804 0.04596,0.1218784 0.0625,0.1875 0.0057,0.022395 0.02659,0.039716 0.03125,0.0625 0.02084,0.1007061 0.03125,0.2053893 0.03125,0.3125 0,0.172589 -0.04011,0.345681 -0.09375,0.5 -0.203839,-0.586412 -0.7504114,-1 -1.4062496,-1 -0.6558382,0 -1.2024102,0.413588 -1.40625,1 -0.053642,-0.154319 -0.09375,-0.327411 -0.09375,-0.5 0,-0.8284271 0.6715728,-1.5 1.5,-1.5 z m -3.96875,2 c 0.153399,1.199046 0.8425,2.318509 1.96875,2.96875 C 8.8058099,13.573319 11.256819,12.91317 12.361389,11 l 1.71875,1 c -0.145648,0.25227 -0.325278,0.49627 -0.5,0.71875 L 12.361389,12 C 11.256819,13.91317 8.8058099,14.573319 6.8926394,13.46875 5.4577624,12.640322 4.7332464,11.048242 4.9238894,9.5 z"
       id="path3636" />
    <path
       style="opacity:0.3;fill:#000000;fill-opacity:1;stroke:none;display:inline"
       d="m 8.8926394,1 3.9999996,3 -3.9999996,3 0,-1.96875 C 7.5127388,5.03372 6.1634934,5.7189679 5.4238894,7 c -1.104569,1.9131705 -0.44442,4.36418 1.46875,5.46875 C 8.8058099,13.573319 11.256819,12.91317 12.361389,11 l 1.71875,1 c -1.656854,2.869756 -5.3177443,3.844354 -8.1874996,2.1875 -1.972957,-1.139087 -3.055263,-3.21596 -3,-5.34375 0.02512,-0.9671771 0.294733,-1.9469513 0.8125,-2.84375 1.110411,-1.9232883 3.115677,-2.9982384 5.1875,-3 l 0,-2 z m 0.5,1 0,1 a 0.4982674,0.4982674 0 0 1 -0.5,0.5 c -1.8997655,0.00162 -3.72926,0.9820266 -4.75,2.75 -0.476648,0.8255783 -0.727056,1.7103388 -0.75,2.59375 -0.050661,1.950603 0.935813,3.858829 2.75,4.90625 2.4846977,1.434541 5.5308646,0.666209 7.1562496,-1.625 l -0.84375,-0.5 C 11.112948,13.431873 8.6375676,14.058022 6.6426394,12.90625 4.4960644,11.666924 3.7467144,8.8971805 4.9863894,6.75 5.8187134,5.3083722 7.3483803,4.5340142 8.8926394,4.53125 a 0.4982674,0.4982674 0 0 1 0.5,0.5 L 9.3926394,6 12.048889,4 9.3926394,2 z m -0.5,5.5 c 0.8284272,0 1.4999996,0.6715729 1.4999996,1.5 0,0.8284271 -0.6715724,1.5 -1.4999996,1.5 -0.8284272,0 -1.5,-0.6715729 -1.5,-1.5 0,-0.8284271 0.6715728,-1.5 1.5,-1.5 z m 0,0.5 c -0.5591704,0 -1,0.4408296 -1,1 0,0.5591704 0.4408296,1 1,1 0.5591704,0 1,-0.4408296 1,-1 0,-0.5591704 -0.4408296,-1 -1,-1 z"
       id="path3833"
       inkscape:connector-curvature="0" />
    <path
       inkscape:connector-curvature="0"
       style="opacity:0.2;fill:#ffffff;fill-opacity:1;stroke:none;display:inline"
       d="M 12.236389,4.5 12.892639,5 9.4238894,7.59375 c -0.01835,-0.00679 -0.04382,0.00608 -0.0625,0 C 9.2150524,7.546105 9.0548734,7.5 8.8926394,7.5 l 0,-0.5 3.3437496,-2.5 z m -3.3437496,0.53125 0,1 C 7.5127384,6.03372 6.1634934,6.7189679 5.4238894,8 c -0.270628,0.4687427 -0.433927,0.9633896 -0.5,1.46875 -0.01638,-0.1364717 -0.02884,-0.2684174 -0.03125,-0.40625 -0.0011,-0.061733 -0.0018,-0.1256327 0,-0.1875 0.0036,-0.1211026 0.01649,-0.2540172 0.03125,-0.375 0.0013,-0.010304 -0.0014,-0.020949 0,-0.03125 0.02543,-0.1939999 0.07016,-0.3714121 0.125,-0.5625 0.01422,-0.050782 0.0149,-0.1058009 0.03125,-0.15625 0.0171,-0.051396 0.04319,-0.1052775 0.0625,-0.15625 C 5.2191844,7.38794 5.3103074,7.1967302 5.4238894,7 6.1634934,5.7189679 7.5127385,5.0337176 8.8926395,5.03125 z M 10.298889,9.5 c 0.05364,0.154319 0.09375,0.327411 0.09375,0.5 0,0.828427 -0.6715726,1.5 -1.4999996,1.5 -0.828427,0 -1.5,-0.671573 -1.5,-1.5 0,-0.172589 0.04011,-0.345681 0.09375,-0.5 0.01075,0.030935 0.01862,0.063813 0.03125,0.09375 0.04956,0.1171752 0.111246,0.2127801 0.1875,0.3125 0.153013,0.205771 0.356178,0.365276 0.59375,0.46875 0.04187,0.01771 0.08128,0.04859 0.125,0.0625 0.04931,0.01612 0.104708,0.02027 0.15625,0.03125 0.097646,0.01998 0.208947,0.03125 0.3125,0.03125 0.158782,0 0.325117,-0.01678 0.46875,-0.0625 0.0444,-0.01451 0.08262,-0.04404 0.125,-0.0625 0.103452,-0.04376 0.1912,-0.09148 0.28125,-0.15625 0.06713,-0.04859 0.129524,-0.0972 0.1875,-0.15625 0.0471,-0.0471 0.08447,-0.103246 0.1249996,-0.15625 0.07625,-0.09972 0.137939,-0.1953248 0.1875,-0.3125 0.01265,-0.02991 0.02052,-0.062886 0.03125,-0.09375 z M 2.9238894,9.625 c 0.02464,0.2298191 0.07418,0.462369 0.125,0.6875 0.05056,0.222678 0.111893,0.440801 0.1875,0.65625 0.0218,0.06212 0.03865,0.126097 0.0625,0.1875 0.01173,0.03031 0.01903,0.06362 0.03125,0.09375 0.08758,0.215947 0.199942,0.41977 0.3125,0.625 0.06373,0.116199 0.115932,0.231608 0.1875,0.34375 0.02781,0.04355 0.06476,0.08211 0.09375,0.125 0.08829,0.130627 0.182171,0.250987 0.28125,0.375 0.01458,0.01826 0.01644,0.04439 0.03125,0.0625 0.108428,0.132576 0.223065,0.251095 0.34375,0.375 0.04997,0.05169 0.1042,0.106172 0.15625,0.15625 0.145155,0.13872 0.307735,0.280893 0.46875,0.40625 0.02384,0.01852 0.03832,0.04429 0.0625,0.0625 0.198207,0.149788 0.404121,0.278725 0.625,0.40625 0.163593,0.09445 0.331919,0.172469 0.5,0.25 0.01297,0.0059 0.01826,0.0254 0.03125,0.03125 0.155681,0.07052 0.310134,0.131213 0.46875,0.1875 0.03081,0.01086 0.06284,0.02092 0.09375,0.03125 0.314986,0.10526 0.647337,0.167767 0.96875,0.21875 0.06428,0.0102 0.123112,0.02318 0.1875,0.03125 0.246656,0.0309 0.503589,0.0624 0.75,0.0625 0.107471,4.2e-5 0.205464,-0.02553 0.3125,-0.03125 0.03041,-0.0016 0.06339,0.0021 0.09375,0 0.244926,-0.01701 0.509766,-0.04713 0.7499996,-0.09375 0.0226,-0.0044 0.03996,-0.02657 0.0625,-0.03125 0.301506,-0.06203 0.586406,-0.1113 0.875,-0.21875 0.182771,-0.06808 0.355505,-0.164059 0.53125,-0.25 0.164279,-0.07985 0.311795,-0.154995 0.46875,-0.25 0.0072,-0.0044 0.02408,0.0044 0.03125,0 0.284965,-0.174387 0.557481,-0.401884 0.8125,-0.625 0.274878,-0.240491 0.518435,-0.48639 0.75,-0.78125 l 0.5,0.28125 c -1.656854,2.869756 -5.3177442,3.844354 -8.1874992,2.1875 -1.972957,-1.139087 -3.055263,-3.21596 -3,-5.34375 0.0019,-0.073945 0.02647,-0.1447009 0.03125,-0.21875 z"
       id="path3645" />
  </g>
</svg>
