<?xml version="1.0" encoding="UTF-8" standalone="no"?>
<!-- Created with Inkscape (http://www.inkscape.org/) -->

<svg
   xmlns:dc="http://purl.org/dc/elements/1.1/"
   xmlns:cc="http://creativecommons.org/ns#"
   xmlns:rdf="http://www.w3.org/1999/02/22-rdf-syntax-ns#"
   xmlns:svg="http://www.w3.org/2000/svg"
   xmlns="http://www.w3.org/2000/svg"
   xmlns:xlink="http://www.w3.org/1999/xlink"
   xmlns:sodipodi="http://sodipodi.sourceforge.net/DTD/sodipodi-0.dtd"
   xmlns:inkscape="http://www.inkscape.org/namespaces/inkscape"
   width="16"
   height="16"
   id="svg2"
   sodipodi:version="0.32"
   inkscape:version="0.48.1 r9760"
   version="1.0"
   sodipodi:docname="system-upgrade.svg"
   inkscape:output_extension="org.inkscape.output.svg.inkscape"
   inkscape:export-filename="/home/matt/.icons/Sirocco/scalable/mimetypes/text-plain.png"
   inkscape:export-xdpi="90"
   inkscape:export-ydpi="90"
   sodipodi:modified="true"
   style="display:inline">
  <sodipodi:namedview
     id="base"
     pagecolor="#838383"
     bordercolor="#cc0000"
     borderopacity="1"
     inkscape:pageopacity="1"
     inkscape:pageshadow="2"
     inkscape:zoom="18.064397"
     inkscape:cx="-6.1136442"
     inkscape:cy="1.5597169"
     inkscape:document-units="px"
     inkscape:current-layer="layer1"
     width="128px"
     height="128px"
     inkscape:showpageshadow="false"
     inkscape:window-width="1920"
     inkscape:window-height="1030"
     inkscape:window-x="0"
     inkscape:window-y="25"
     showguides="true"
     inkscape:guide-bbox="true"
     showgrid="true"
     inkscape:window-maximized="1"
     borderlayer="true"
     inkscape:snap-global="true">
    <sodipodi:guide
       id="guide2226"
       position="32.637397,117.99844"
       orientation="horizontal" />
    <sodipodi:guide
       id="guide2230"
       position="110,57.402344"
       orientation="vertical" />
    <sodipodi:guide
       id="guide2232"
       position="33.760911"
       orientation="horizontal" />
    <sodipodi:guide
       id="guide2231"
       position="46.774696"
       orientation="horizontal" />
    <inkscape:grid
       enabled="true"
       visible="true"
       id="grid3231"
       type="xygrid"
       empspacing="8"
       snapvisiblegridlinesonly="true" />
    <sodipodi:guide
       orientation="1,0"
       position="100,67.625"
       id="guide2713" />
    <sodipodi:guide
       orientation="1,0"
       position="9,0"
       id="guide3021" />
    <sodipodi:guide
       orientation="0,1"
       position="13,6"
       id="guide3023" />
  </sodipodi:namedview>
  <defs
     id="defs4">
    <linearGradient
       id="StandardGradient"
       gradientTransform="scale(0.9219544,1.0846523)"
       x1="11.998966"
       y1="0.92195445"
       x2="11.998966"
       y2="19.387045"
       gradientUnits="userSpaceOnUse">
      <stop
         style="stop-color:#000000;stop-opacity:0.23529412;"
         offset="0"
         id="stop3283" />
      <stop
         style="stop-color:#000000;stop-opacity:0.54901963;"
         offset="1"
         id="stop2651" />
    </linearGradient>
    <radialGradient
       inkscape:collect="always"
       xlink:href="#StandardGradient"
       id="radialGradient3821"
       cx="9"
       cy="9.4285717"
       fx="9"
       fy="9.4285717"
       r="5"
       gradientTransform="matrix(2.2,-3.6613427e-8,2.6627949e-8,1.6000001,-30.8,-5.0857148)"
       gradientUnits="userSpaceOnUse" />
    <radialGradient
       inkscape:collect="always"
       xlink:href="#StandardGradient"
       id="radialGradient3829"
       gradientUnits="userSpaceOnUse"
       gradientTransform="matrix(2.2,-3.6613427e-8,2.6627949e-8,1.6000001,-50.8,-5.0857148)"
       cx="9"
       cy="9.4285717"
       fx="9"
       fy="9.4285717"
       r="5" />
    <linearGradient
       id="StandardGradient-9">
      <stop
         style="stop-color:#000000;stop-opacity:0.86274511;"
         offset="0"
         id="stop3389-8" />
      <stop
         style="stop-color:#000000;stop-opacity:0.47058824;"
         offset="1"
         id="stop3391-3" />
    </linearGradient>
    <radialGradient
       inkscape:collect="always"
       xlink:href="#StandardGradient"
       id="radialGradient3844"
       cx="9.0517921"
       cy="10.048227"
       fx="9.0517921"
       fy="10.048227"
       r="6.9635038"
       gradientUnits="userSpaceOnUse"
       gradientTransform="matrix(1.5722421,-4.0253393e-8,2.9590718e-8,1.1557727,-5.179816,-1.5652387)" />
    <radialGradient
       inkscape:collect="always"
       xlink:href="#StandardGradient"
       id="radialGradient3850"
       gradientUnits="userSpaceOnUse"
       gradientTransform="matrix(1.5722421,-4.0253393e-8,2.9590718e-8,1.1557727,-5.179816,-1.5652387)"
       cx="9.0517921"
       cy="10.048227"
       fx="9.0517921"
       fy="10.048227"
       r="6.9635038" />
    <radialGradient
       inkscape:collect="always"
       xlink:href="#StandardGradient"
       id="radialGradient3854"
       gradientUnits="userSpaceOnUse"
       gradientTransform="matrix(1.5722421,-4.0253393e-8,2.9590718e-8,1.1557727,-5.179816,-1.5652387)"
       cx="9.0517921"
       cy="10.048227"
       fx="9.0517921"
       fy="10.048227"
       r="6.9635038" />
    <radialGradient
       inkscape:collect="always"
       xlink:href="#StandardGradient"
       id="radialGradient3856"
       gradientUnits="userSpaceOnUse"
       gradientTransform="matrix(1.5722421,-4.0253393e-8,2.9590718e-8,1.1557727,-5.179816,-1.5652387)"
       cx="9.0517921"
       cy="10.048227"
       fx="9.0517921"
       fy="10.048227"
       r="6.9635038" />
  </defs>
  <metadata
     id="metadata7">
    <rdf:RDF>
      <cc:Work
         rdf:about="">
        <dc:format>image/svg+xml</dc:format>
        <dc:type
           rdf:resource="http://purl.org/dc/dcmitype/StillImage" />
        <dc:title></dc:title>
      </cc:Work>
    </rdf:RDF>
  </metadata>
  <g
     style="display:inline"
     inkscape:label="Calque 1"
     id="layer1"
     inkscape:groupmode="layer">
    <path
       inkscape:connector-curvature="0"
       style="opacity:0.05;fill:#ffffff;fill-opacity:1;fill-rule:nonzero;stroke:none;stroke-width:1;marker:none;visibility:visible;display:block;overflow:visible;enable-background:accumulate"
       d="m 7.03125,0 c -0.8234493,0 -1.5,0.77720599 -1.5,1.53125 l 0,0.3125 C 5.487951,1.860379 5.449398,1.888643 5.40625,1.90625 L 5.15625,1.6875 C 5.14951,1.68076 5.1319,1.6941 5.125,1.6875 4.5945683,1.1800001 3.6203408,1.0671531 3.03125,1.65625 l -1.375,1.375 C 1.0671562,3.6203098 1.1799444,4.594569 1.6875,5.125 l -0.03125,0.03125 0.25,0.25 c -0.017607,0.043148 -0.045871,0.081701 -0.0625,0.125 l -0.3125,0 C 0.77720052,5.53125 0,6.2077989 0,7.03125 l 0,1.9375 c 0,0.8234515 0.7772017,1.5 1.53125,1.5 l 0.3125,0 c 0.016629,0.0433 0.044893,0.08185 0.0625,0.125 l -0.25,0.25 0.03125,0.03125 c -0.5075335,0.530439 -0.6203232,1.504674 -0.03125,2.09375 l 1.375,1.375 c 0.3206391,0.320617 0.636697,0.472692 1.09375,0.46875 0.5779332,-0.0049 0.8957129,-0.39381 1,-0.5 l 0.03125,0 0.25,-0.21875 c 0.043148,0.01761 0.081701,0.04587 0.125,0.0625 l 0,0.3125 c 0,0.754043 0.6765532,1.53125 1.5,1.53125 l 1.9375,0 c 0.823445,0 1.5,-0.7772 1.5,-1.53125 l 0,-0.3125 c 0.0433,-0.01663 0.08185,-0.04489 0.125,-0.0625 l 0.25,0.21875 0.03125,0 c 0.530428,0.507495 1.504666,0.620313 2.09375,0.03125 l 1.375,-1.375 c 0.589131,-0.589064 0.476295,-1.563328 -0.03125,-2.09375 -0.0066,-0.0069 0.0067,-0.02451 0,-0.03125 l -0.21875,-0.25 c 0.01761,-0.04315 0.04587,-0.0817 0.0625,-0.125 l 0.3125,0 c 0.754053,0 1.53125,-0.6765405 1.53125,-1.5 l 0,-1.9375 c 0,-0.8234584 -0.777107,-1.5000574 -1.53125,-1.5 l -0.3125,0 c -0.01663,-0.043299 -0.04489,-0.081852 -0.0625,-0.125 l 0.21875,-0.25 0,-0.03125 c 0.507498,-0.5304303 0.620335,-1.5046617 0.03125,-2.09375 l -1.375,-1.375 C 12.379687,1.067117 11.405422,1.1799448 10.875,1.6875 l -0.03125,-0.03125 -0.25,0.25 c -0.04315,-0.017607 -0.0817,-0.045871 -0.125,-0.0625 l 0,-0.3125 C 10.46875,0.77720404 9.7922001,0 8.96875,0 l -1.9375,0 z m 0,1.03125 1.9375,0 c 0.274048,0 0.46875,0.221269 0.46875,0.5 l 0,1 c 0.4900148,0.130558 0.977853,0.313349 1.40625,0.5625 L 11.5625,2.40625 C 11.75959,2.209157 12.056219,2.181196 12.25,2.375 l 1.375,1.375 c 0.19378,0.193781 0.165819,0.490407 -0.03125,0.6875 l -0.6875,0.71875 c 0.24915,0.428395 0.431942,0.9162343 0.5625,1.40625 l 1,0 c 0.278728,-2.12e-5 0.5,0.1947029 0.5,0.46875 l 0,1.9375 c 0,0.274046 -0.221272,0.46875 -0.5,0.46875 l -1,0 c -0.130556,0.4900138 -0.31335,0.977852 -0.5625,1.40625 l 0.6875,0.71875 c 0.197091,0.197092 0.225052,0.49372 0.03125,0.6875 l -1.375,1.375 c -0.193785,0.193778 -0.490407,0.165819 -0.6875,-0.03125 l -0.71875,-0.6875 c -0.428397,0.249154 -0.9162352,0.43194 -1.40625,0.5625 l 0,1 c 0,0.278734 -0.1947044,0.5 -0.46875,0.5 l -1.9375,0 c -0.2740488,0 -0.46875,-0.221268 -0.46875,-0.5 l 0,-1 C 6.0724857,13.338191 5.584647,13.155403 5.15625,12.90625 L 4.4375,13.59375 C 4.338952,13.69229 4.2525295,13.78017 4.125,13.78125 3.9974709,13.78235 3.8468897,13.721883 3.75,13.625 L 2.375,12.25 C 2.1812209,12.05622 2.20917,11.759593 2.40625,11.5625 l 0.6875,-0.71875 C 2.8445958,10.415353 2.661812,9.9275148 2.53125,9.4375 l -1,0 c -0.2787308,0 -0.5,-0.1947029 -0.5,-0.46875 l 0,-1.9375 c 0,-0.2740465 0.2212688,-0.46875 0.5,-0.46875 l 1,0 C 2.661812,6.0724844 2.8445996,5.584645 3.09375,5.15625 L 2.40625,4.4375 C 2.2091575,4.240407 2.1812078,3.943781 2.375,3.75 L 3.75,2.375 C 3.943779,2.181219 4.2404072,2.209181 4.4375,2.40625 l 0.71875,0.6875 C 5.5846471,2.844599 6.0724859,2.661808 6.5625,2.53125 l 0,-1 c 0,-0.278731 0.1947012,-0.5 0.46875,-0.5 z M 8,4 4,8 l 2,0 0,3 4,0 0,-3 2,0 -4,-4 z m 0,1.4375 1.59375,1.625 A 1.0207774,1.0207774 0 0 0 8.96875,8 l 0,1.96875 -1.9375,0 0,-1.96875 A 1.0207774,1.0207774 0 0 0 6.375,7.0625 L 8,5.4375 z"
       id="path3828" />
    <path
       style="fill:url(#radialGradient3844);fill-opacity:1;fill-rule:nonzero;stroke:none;stroke-width:1;marker:none;visibility:visible;display:block;overflow:visible;enable-background:accumulate"
       d="m 7.0207572,14.963503 c -0.2740488,0 -0.4714874,-0.229024 -0.4714874,-0.507756 l 0,-0.979242 C 6.0592555,13.345946 5.5994731,13.145365 5.1710761,12.896212 L 4.445711,13.585309 c -0.098548,0.09854 -0.1988848,0.180262 -0.3264143,0.181342 -0.1275291,0.0011 -0.2657928,-0.04819 -0.3626825,-0.145073 L 2.3784205,12.243384 C 2.1846414,12.049604 2.2176087,11.75138 2.4146887,11.554287 L 3.1037856,10.828922 C 2.8546314,10.400525 2.6540555,9.940743 2.5234935,9.4507282 l -0.9792429,0 c -0.2787308,0 -0.5077556,-0.1974403 -0.5077556,-0.4714874 l 0,-1.9584857 c 0,-0.2740465 0.2290244,-0.4714874 0.5077556,-0.4714874 l 0.9792429,0 C 2.6540555,6.0592521 2.8546352,5.599469 3.1037856,5.171074 L 2.4146887,4.445709 C 2.2175962,4.248616 2.1846285,3.950393 2.3784207,3.756612 L 3.7566144,2.378419 C 3.9503934,2.184638 4.2486184,2.21762 4.4457112,2.414689 L 5.1710763,3.103785 C 5.5994734,2.854634 6.0592559,2.654052 6.54927,2.523494 l 0,-0.979243 c 0,-0.278731 0.1974386,-0.507756 0.4714874,-0.507756 l 1.9584857,0 c 0.274048,0 0.4714874,0.229025 0.4714874,0.507756 l 0,0.979243 c 0.4900148,0.130558 0.9497965,0.33114 1.3781935,0.580291 l 0.725365,-0.689096 c 0.19709,-0.197093 0.495316,-0.230074 0.689097,-0.03627 l 1.378193,1.378193 c 0.19378,0.193781 0.160799,0.492004 -0.03627,0.689097 l -0.689096,0.725365 c 0.24915,0.428395 0.449733,0.888178 0.580291,1.3781937 l 0.979243,0 c 0.278728,-2.12e-5 0.507756,0.1974403 0.507756,0.4714874 l 0,1.9584857 c 0,0.274046 -0.229028,0.4714874 -0.507756,0.4714874 l -0.979243,0 C 13.345948,9.940742 13.145365,10.400524 12.896215,10.828922 l 0.689096,0.725365 c 0.197091,0.197092 0.230072,0.495317 0.03627,0.689097 l -1.378195,1.378194 c -0.193785,0.193778 -0.492004,0.160799 -0.689097,-0.03627 l -0.725365,-0.689097 c -0.428397,0.249154 -0.8881789,0.449733 -1.3781937,0.580293 l 0,0.979242 c 0,0.278734 -0.1974418,0.507756 -0.4714874,0.507756 z M 6,10.999998 l 4,0 0,-3 2,0 -4,-4 -4,4 2,0 z"
       id="rect3267"
       inkscape:connector-curvature="0"
       sodipodi:nodetypes="sscccccscccssssccccscccssssccccsccccsssccccccccssscccccccc" />
    <path
       inkscape:connector-curvature="0"
       style="opacity:0.3;fill:#000000;fill-opacity:1;fill-rule:nonzero;stroke:none;stroke-width:1;marker:none;visibility:visible;display:block;overflow:visible;enable-background:accumulate"
       d="m 7.03125,1.03125 c -0.2740488,0 -0.46875,0.221269 -0.46875,0.5 l 0,1 c 0,-0.278731 0.1947012,-0.5 0.46875,-0.5 l 1.9375,0 c 0.274048,0 0.46875,0.221269 0.46875,0.5 l 0,-1 c 0,-0.278731 -0.194702,-0.5 -0.46875,-0.5 l -1.9375,0 z m 2.40625,1.5 0,1 c 0.4900148,0.130558 0.977853,0.313349 1.40625,0.5625 L 11.5625,3.40625 C 11.75959,3.209157 12.056219,3.181196 12.25,3.375 l 1.21875,1.21875 0.125,-0.15625 C 13.790819,4.240407 13.81878,3.943781 13.625,3.75 L 12.25,2.375 C 12.056219,2.181196 11.75959,2.209157 11.5625,2.40625 l -0.71875,0.6875 C 10.415353,2.844599 9.9275148,2.661808 9.4375,2.53125 z m -2.875,0 C 6.0724859,2.661808 5.5846471,2.844599 5.15625,3.09375 L 4.4375,2.40625 C 4.2404072,2.209181 3.943779,2.181219 3.75,2.375 L 2.375,3.75 C 2.1812078,3.943781 2.2091575,4.240407 2.40625,4.4375 L 2.53125,4.59375 3.75,3.375 C 3.943779,3.181219 4.2404072,3.209181 4.4375,3.40625 l 0.71875,0.6875 C 5.5846471,3.844599 6.0724859,3.661808 6.5625,3.53125 l 0,-1 z M 2.78125,5.84375 C 2.683641,6.0734971 2.596531,6.3174922 2.53125,6.5625 l -1,0 c -0.2787312,0 -0.5,0.1947035 -0.5,0.46875 l 0,1 c 0,-0.2740465 0.2212688,-0.46875 0.5,-0.46875 l 1,0 C 2.661812,7.0724844 2.8445996,6.584645 3.09375,6.15625 l -0.3125,-0.3125 z m 10.4375,0 -0.3125,0.3125 c 0.24915,0.428395 0.431942,0.9162343 0.5625,1.40625 l 1,0 c 0.278728,-2.12e-5 0.5,0.1947029 0.5,0.46875 l 0,-1 c 0,-0.2740471 -0.221272,-0.4687712 -0.5,-0.46875 l -1,0 C 13.40347,6.3174921 13.316359,6.0734971 13.21875,5.84375 z M 5,8 4,9 6,9 6,8 5,8 z m 5,0 0,1 2,0 -1,-1 -1,0 z m -4,3 0,1 4,0 0,-1 -4,0 z m -3.21875,0.15625 -0.375,0.40625 C 2.20917,11.759593 2.1812209,12.05622 2.375,12.25 l 0.15625,0.15625 0.5625,-0.5625 C 2.9691729,11.629551 2.8788585,11.385997 2.78125,11.15625 z m 10.4375,0 c -0.09761,0.229747 -0.187925,0.473301 -0.3125,0.6875 l 0.5625,0.5625 L 13.625,12.25 c 0.193802,-0.19378 0.165841,-0.490408 -0.03125,-0.6875 l -0.375,-0.40625 z"
       id="path3036" />
    <path
       inkscape:connector-curvature="0"
       style="opacity:0.2;fill:#ffffff;fill-opacity:1;fill-rule:nonzero;stroke:none;stroke-width:1;marker:none;visibility:visible;display:block;overflow:visible;enable-background:accumulate"
       d="M 8,4 4,8 5,8 8,5 11,8 12,8 8,4 z M 2.53125,4.59375 2.375,4.75 C 2.1812078,4.943781 2.2091575,5.240407 2.40625,5.4375 l 0.375,0.40625 C 2.878859,5.6140029 2.9691748,5.3704475 3.09375,5.15625 l -0.5625,-0.5625 z m 10.9375,0 -0.5625,0.5625 c 0.124575,0.2141975 0.214891,0.4577529 0.3125,0.6875 l 0.375,-0.40625 C 13.790819,5.240407 13.81878,4.943781 13.625,4.75 L 13.46875,4.59375 z m -12.4375,4.375 0,1 c 0,0.274047 0.2212692,0.46875 0.5,0.46875 l 1,0 c 0.065281,0.245007 0.1523915,0.489003 0.25,0.71875 l 0.3125,-0.3125 C 2.8445958,10.415353 2.661812,9.927515 2.53125,9.4375 l -1,0 c -0.2787308,0 -0.5,-0.1947028 -0.5,-0.46875 z m 13.9375,0 c 0,0.2740462 -0.221272,0.46875 -0.5,0.46875 l -1,0 c -0.130556,0.490014 -0.31335,0.977852 -0.5625,1.40625 l 0.3125,0.3125 c 0.09761,-0.229747 0.184722,-0.473743 0.25,-0.71875 l 1,0 c 0.278728,0 0.5,-0.194704 0.5,-0.46875 l 0,-1 z m -12.4375,3.4375 -0.125,0.15625 C 2.20917,12.759593 2.1812209,13.05622 2.375,13.25 l 1.375,1.375 c 0.09689,0.09688 0.2474709,0.15735 0.375,0.15625 0.1275295,-0.0011 0.213952,-0.08896 0.3125,-0.1875 l 0.71875,-0.6875 c 0.428397,0.249153 0.9162357,0.431941 1.40625,0.5625 l 0,-1 C 6.0724857,13.338191 5.584647,13.155403 5.15625,12.90625 L 4.4375,13.59375 C 4.338952,13.69229 4.2525295,13.78017 4.125,13.78125 3.9974709,13.78235 3.8468897,13.721883 3.75,13.625 L 2.53125,12.40625 z m 4.03125,2.0625 0,1 c 0,0.278732 0.1947012,0.5 0.46875,0.5 l 1.9375,0 c 0.2740456,0 0.46875,-0.221266 0.46875,-0.5 l 0,-1 c 0,0.278734 -0.1947044,0.5 -0.46875,0.5 l -1.9375,0 c -0.2740488,0 -0.46875,-0.221268 -0.46875,-0.5 z m 2.875,0 c 0.4900148,-0.13056 0.977853,-0.313346 1.40625,-0.5625 l 0.71875,0.6875 c 0.197093,0.197069 0.493715,0.225028 0.6875,0.03125 l 1.375,-1.375 c 0.193802,-0.19378 0.165841,-0.490408 -0.03125,-0.6875 L 13.46875,12.40625 12.25,13.625 c -0.193785,0.193778 -0.490407,0.165819 -0.6875,-0.03125 l -0.71875,-0.6875 c -0.428397,0.249154 -0.9162352,0.43194 -1.40625,0.5625 l 0,1 z"
       id="path3813" />
    <path
       style="fill:#000000;fill-opacity:1;fill-rule:nonzero;stroke:none;stroke-width:1;marker:none;visibility:visible;display:block;overflow:visible;enable-background:accumulate;opacity:0.3"
       d="M 7.03125 1.03125 C 6.7572012 1.03125 6.5625 1.252519 6.5625 1.53125 L 6.5625 2.53125 C 6.0724859 2.661808 5.5846471 2.844599 5.15625 3.09375 L 4.4375 2.40625 C 4.2404072 2.209181 3.943779 2.181219 3.75 2.375 L 2.375 3.75 C 2.1812078 3.943781 2.2091575 4.240407 2.40625 4.4375 L 3.09375 5.15625 C 2.8445996 5.584645 2.661812 6.0724844 2.53125 6.5625 L 1.53125 6.5625 C 1.2525188 6.5625 1.03125 6.7572035 1.03125 7.03125 L 1.03125 8.96875 C 1.03125 9.2427971 1.2525192 9.4375 1.53125 9.4375 L 2.53125 9.4375 C 2.661812 9.9275148 2.8445958 10.415353 3.09375 10.84375 L 2.40625 11.5625 C 2.20917 11.759593 2.1812209 12.05622 2.375 12.25 L 3.75 13.625 C 3.8468897 13.721883 3.9974709 13.78235 4.125 13.78125 C 4.2525295 13.78017 4.338952 13.69229 4.4375 13.59375 L 5.15625 12.90625 C 5.584647 13.155403 6.0724857 13.338191 6.5625 13.46875 L 6.5625 14.46875 C 6.5625 14.747482 6.7572012 14.96875 7.03125 14.96875 L 8.96875 14.96875 C 9.2427956 14.96875 9.4375 14.747484 9.4375 14.46875 L 9.4375 13.46875 C 9.9275148 13.33819 10.415353 13.155404 10.84375 12.90625 L 11.5625 13.59375 C 11.759593 13.790819 12.056215 13.818778 12.25 13.625 L 13.625 12.25 C 13.818802 12.05622 13.790841 11.759592 13.59375 11.5625 L 12.90625 10.84375 C 13.1554 10.415352 13.338194 9.9275138 13.46875 9.4375 L 14.46875 9.4375 C 14.747478 9.4375 14.96875 9.242796 14.96875 8.96875 L 14.96875 7.03125 C 14.96875 6.7572029 14.747478 6.5624788 14.46875 6.5625 L 13.46875 6.5625 C 13.338192 6.0724843 13.1554 5.584645 12.90625 5.15625 L 13.59375 4.4375 C 13.790819 4.240407 13.81878 3.943781 13.625 3.75 L 12.25 2.375 C 12.056219 2.181196 11.75959 2.209157 11.5625 2.40625 L 10.84375 3.09375 C 10.415353 2.844599 9.9275148 2.661808 9.4375 2.53125 L 9.4375 1.53125 C 9.4375 1.252519 9.242798 1.03125 8.96875 1.03125 L 7.03125 1.03125 z M 7.0625 1.53125 L 8.9375 1.53125 L 8.9375 2.53125 A 0.4982674 0.4982674 0 0 0 9.3125 3 C 9.7702164 3.1219525 10.2159 3.3114968 10.59375 3.53125 A 0.4982674 0.4982674 0 0 0 11.1875 3.46875 L 11.90625 2.78125 L 13.21875 4.09375 L 12.53125 4.8125 A 0.4982674 0.4982674 0 0 0 12.46875 5.40625 C 12.688502 5.7840974 12.878048 6.2297833 13 6.6875 A 0.4982674 0.4982674 0 0 0 13.46875 7.0625 L 14.46875 7.0625 L 14.46875 8.9375 L 13.46875 8.9375 A 0.4982674 0.4982674 0 0 0 13 9.3125 C 12.87805 9.7702123 12.688504 10.215897 12.46875 10.59375 A 0.4982674 0.4982674 0 0 0 12.53125 11.1875 L 13.21875 11.90625 L 11.90625 13.21875 L 11.1875 12.53125 A 0.4982674 0.4982674 0 0 0 10.59375 12.46875 C 10.215904 12.688504 9.7702207 12.878044 9.3125 13 A 0.4982674 0.4982674 0 0 0 8.9375 13.46875 L 8.9375 14.46875 L 7.0625 14.46875 L 7.0625 13.46875 A 0.4982674 0.4982674 0 0 0 6.6875 13 C 6.2297815 12.878046 5.7840971 12.688503 5.40625 12.46875 A 0.4982674 0.4982674 0 0 0 4.8125 12.53125 L 4.09375 13.21875 L 2.78125 11.90625 L 3.46875 11.1875 A 0.4982674 0.4982674 0 0 0 3.53125 10.59375 C 3.3114969 10.215905 3.1219581 9.7702234 3 9.3125 A 0.4982674 0.4982674 0 0 0 2.53125 8.9375 L 1.53125 8.9375 L 1.53125 7.0625 L 2.53125 7.0625 A 0.4982674 0.4982674 0 0 0 3 6.6875 C 3.1219575 6.229778 3.311499 5.784095 3.53125 5.40625 A 0.4982674 0.4982674 0 0 0 3.46875 4.8125 L 2.78125 4.09375 L 4.09375 2.78125 L 4.8125 3.46875 A 0.4982674 0.4982674 0 0 0 5.40625 3.53125 C 5.7840995 3.3114969 6.2297842 3.1219525 6.6875 3 A 0.4982674 0.4982674 0 0 0 7.0625 2.53125 L 7.0625 1.53125 z M 7.84375 3.5 A 0.4982674 0.4982674 0 0 0 7.65625 3.65625 L 3.65625 7.65625 A 0.4982674 0.4982674 0 0 0 4 8.5 L 5.5 8.5 L 5.5 11 A 0.4982674 0.4982674 0 0 0 6 11.5 L 10 11.5 A 0.4982674 0.4982674 0 0 0 10.5 11 L 10.5 8.5 L 12 8.5 A 0.4982674 0.4982674 0 0 0 12.34375 7.65625 L 8.34375 3.65625 A 0.4982674 0.4982674 0 0 0 7.90625 3.5 A 0.4982674 0.4982674 0 0 0 7.84375 3.5 z M 8 4 L 12 8 L 10 8 L 10 11 L 6 11 L 6 8 L 4 8 L 8 4 z "
       id="path3846" />
  </g>
</svg>
