/* XPM */
static char *top[] = {
/* columns rows colors chars-per-pixel */
"16 16 5 1",
"  c #000000",
". c #010101",
"X c #080808",
"o c #090909",
"O c None",
/* pixels */
"OOOOOOOOOOOOOOOO",
"OOOOOOOO OOOOOOO",
"OOOOOOO   OOOOOO",
"OOOOOOOOoOOOOOOO",
"OOOOOOOOOOOOOOOO",
"OOOOOOOO OOOOOOO",
"OOOOOOO O OOOOOO",
"OOOOOO OOO OOOOO",
"OOOOO OOOOO OOOO",
"OOOO OOOOOOO OOO",
"OOOoOOOOOOOOOOOO",
"OOOOOOOOOOOOOOOO",
"OOOOOOOOOOOOOOOO",
"OOOOOOOOOOOOOOOO",
"OOOOOOO   OOOOOO",
"OOOOOOOOOOOOOOOO"
};
