<?xml version="1.0" encoding="UTF-8" standalone="no"?>
<!-- Created with Inkscape (http://www.inkscape.org/) -->

<svg
   xmlns:dc="http://purl.org/dc/elements/1.1/"
   xmlns:cc="http://creativecommons.org/ns#"
   xmlns:rdf="http://www.w3.org/1999/02/22-rdf-syntax-ns#"
   xmlns:svg="http://www.w3.org/2000/svg"
   xmlns="http://www.w3.org/2000/svg"
   xmlns:xlink="http://www.w3.org/1999/xlink"
   xmlns:sodipodi="http://sodipodi.sourceforge.net/DTD/sodipodi-0.dtd"
   xmlns:inkscape="http://www.inkscape.org/namespaces/inkscape"
   width="16"
   height="16"
   id="svg2"
   sodipodi:version="0.32"
   inkscape:version="0.48.1 r9760"
   version="1.0"
   sodipodi:docname="view-refresh.svg"
   inkscape:output_extension="org.inkscape.output.svg.inkscape"
   inkscape:export-filename="/home/matt/.icons/Sirocco/scalable/mimetypes/text-plain.png"
   inkscape:export-xdpi="90"
   inkscape:export-ydpi="90"
   sodipodi:modified="true"
   style="display:inline">
  <sodipodi:namedview
     id="base"
     pagecolor="#838383"
     bordercolor="#cc0000"
     borderopacity="1"
     inkscape:pageopacity="1"
     inkscape:pageshadow="2"
     inkscape:zoom="18.064397"
     inkscape:cx="-15.524421"
     inkscape:cy="1.5597169"
     inkscape:document-units="px"
     inkscape:current-layer="layer1"
     width="128px"
     height="128px"
     inkscape:showpageshadow="false"
     inkscape:window-width="1920"
     inkscape:window-height="1028"
     inkscape:window-x="0"
     inkscape:window-y="25"
     showguides="true"
     inkscape:guide-bbox="true"
     showgrid="true"
     inkscape:window-maximized="1"
     borderlayer="true">
    <sodipodi:guide
       id="guide2226"
       position="32.637397,117.99844"
       orientation="horizontal" />
    <sodipodi:guide
       id="guide2230"
       position="110,57.402344"
       orientation="vertical" />
    <sodipodi:guide
       id="guide2232"
       position="33.760911"
       orientation="horizontal" />
    <sodipodi:guide
       id="guide2231"
       position="46.774696"
       orientation="horizontal" />
    <inkscape:grid
       enabled="true"
       visible="true"
       id="grid3231"
       type="xygrid"
       empspacing="8"
       snapvisiblegridlinesonly="true" />
    <sodipodi:guide
       orientation="1,0"
       position="100,67.625"
       id="guide2713" />
    <sodipodi:guide
       orientation="1,0"
       position="9,0"
       id="guide3021" />
    <sodipodi:guide
       orientation="0,1"
       position="13,6"
       id="guide3023" />
  </sodipodi:namedview>
  <defs
     id="defs4">
    <linearGradient
       inkscape:collect="always"
       xlink:href="#StandardGradient"
       id="linearGradient2428"
       gradientUnits="userSpaceOnUse"
       gradientTransform="matrix(0.9247229,0,0,1.0872097,10.939944,-2.0023588)"
       x1="11.998966"
       y1="3.6813121"
       x2="11.998966"
       y2="16.529612" />
    <inkscape:perspective
       sodipodi:type="inkscape:persp3d"
       inkscape:vp_x="0 : 11 : 1"
       inkscape:vp_y="0 : 1000 : 0"
       inkscape:vp_z="22 : 11 : 1"
       inkscape:persp3d-origin="11 : 7.3333333 : 1"
       id="perspective19" />
    <linearGradient
       id="StandardGradient"
       gradientTransform="scale(0.9219544,1.0846523)"
       x1="11.998966"
       y1="0.92195445"
       x2="11.998966"
       y2="19.387045"
       gradientUnits="userSpaceOnUse">
      <stop
         style="stop-color:#000000;stop-opacity:0.23529412;"
         offset="0"
         id="stop3283" />
      <stop
         style="stop-color:#000000;stop-opacity:0.54901963;"
         offset="1"
         id="stop2651" />
    </linearGradient>
    <linearGradient
       inkscape:collect="always"
       xlink:href="#StandardGradient"
       id="linearGradient2549"
       gradientUnits="userSpaceOnUse"
       gradientTransform="matrix(0.9247229,0,0,1.0872097,-2.0600562,0.9976422)"
       x1="11.998966"
       y1="0.92195445"
       x2="11.998966"
       y2="17.478098" />
    <linearGradient
       inkscape:collect="always"
       xlink:href="#StandardGradient"
       id="linearGradient2418"
       gradientUnits="userSpaceOnUse"
       gradientTransform="matrix(0.9247229,0,0,1.0872097,-4.0600562,-3.0023583)"
       x1="11.998966"
       y1="0.92195445"
       x2="11.998966"
       y2="17.478098" />
    <linearGradient
       inkscape:collect="always"
       xlink:href="#StandardGradient"
       id="linearGradient2422"
       gradientUnits="userSpaceOnUse"
       gradientTransform="matrix(0.9247229,0,0,1.0872097,-5.0600562,-1.0023583)"
       x1="11.998966"
       y1="0.92195445"
       x2="11.998966"
       y2="17.478098" />
    <linearGradient
       inkscape:collect="always"
       xlink:href="#StandardGradient"
       id="linearGradient2403"
       gradientUnits="userSpaceOnUse"
       gradientTransform="matrix(0.9247229,0,0,1.0872097,-4.0600562,-3.0023583)"
       x1="11.998966"
       y1="0.92195445"
       x2="11.998966"
       y2="17.478098" />
    <linearGradient
       inkscape:collect="always"
       xlink:href="#StandardGradient"
       id="linearGradient2406"
       gradientUnits="userSpaceOnUse"
       gradientTransform="matrix(0.9247229,0,0,1.0872097,-4.0600562,-3.0023583)"
       x1="11.998966"
       y1="0.92195445"
       x2="11.998966"
       y2="17.478098" />
    <linearGradient
       inkscape:collect="always"
       xlink:href="#StandardGradient"
       id="linearGradient2409"
       gradientUnits="userSpaceOnUse"
       gradientTransform="matrix(0.9247229,0,0,1.0872097,-6.0600562,-2.0023583)"
       x1="11.998966"
       y1="3.6800685"
       x2="11.998966"
       y2="15.638639" />
    <linearGradient
       inkscape:collect="always"
       xlink:href="#StandardGradient"
       id="linearGradient2416"
       gradientUnits="userSpaceOnUse"
       gradientTransform="matrix(0.9247229,0,0,1.0872097,-6.0600562,-2.0023583)"
       x1="11.998966"
       y1="2.7615263"
       x2="11.998966"
       y2="15.638639" />
    <linearGradient
       inkscape:collect="always"
       xlink:href="#StandardGradient"
       id="linearGradient2529"
       gradientUnits="userSpaceOnUse"
       gradientTransform="matrix(0.9247229,0,0,1.0872097,-4.0418814,0.9976412)"
       x1="11.998966"
       y1="3.6813121"
       x2="11.998966"
       y2="16.529612" />
    <linearGradient
       inkscape:collect="always"
       xlink:href="#StandardGradient"
       id="linearGradient2539"
       gradientUnits="userSpaceOnUse"
       gradientTransform="matrix(0.9247229,0,0,1.0872097,-6.0600562,-2.0023583)"
       x1="11.998966"
       y1="2.7615263"
       x2="11.998966"
       y2="15.638639" />
    <linearGradient
       inkscape:collect="always"
       xlink:href="#StandardGradient"
       id="linearGradient2542"
       gradientUnits="userSpaceOnUse"
       gradientTransform="matrix(0.9247229,0,0,1.0872097,-6.0600562,-2.0023583)"
       x1="11.998966"
       y1="2.7615263"
       x2="11.998966"
       y2="15.638639" />
    <linearGradient
       inkscape:collect="always"
       xlink:href="#StandardGradient"
       id="linearGradient2412"
       gradientUnits="userSpaceOnUse"
       gradientTransform="matrix(0.9247229,0,0,1.0872097,-6.0600562,-2.0023583)"
       x1="11.998966"
       y1="2.7615263"
       x2="11.998966"
       y2="15.638639" />
    <inkscape:perspective
       id="perspective2892"
       inkscape:persp3d-origin="0.5 : 0.33333333 : 1"
       inkscape:vp_z="1 : 0.5 : 1"
       inkscape:vp_y="0 : 1000 : 0"
       inkscape:vp_x="0 : 0.5 : 1"
       sodipodi:type="inkscape:persp3d" />
    <linearGradient
       inkscape:collect="always"
       xlink:href="#StandardGradient"
       id="linearGradient2942"
       gradientUnits="userSpaceOnUse"
       gradientTransform="matrix(0.9247229,0,0,1.0872097,-26.060056,-2.0023583)"
       x1="11.998966"
       y1="2.7615263"
       x2="11.998966"
       y2="15.638639" />
    <clipPath
       clipPathUnits="userSpaceOnUse"
       id="clipPath2949">
      <path
         style="fill:#ff00ff;fill-opacity:1;stroke:none;display:inline"
         d="m -20,0 0,16 16,0 0,-16 -16,0 z m 3,1 3,0 c 0.554,0 1,0.446 1,1 l 6,0 c 0.554,0 1,0.446 1,1 l -12,0 0,-1 c 0,-0.554 0.446,-1 1,-1 z m -0.5,3 4,0 6,0 1,0 C -5.669,4 -5,4.669 -5,5.5 l 0,4.5 0,1.5 c 0,0.647488 -0.396277,1.195291 -0.96875,1.40625 l 0,0.15625 -0.03125,0 0,0.4375 c 0,0.831 -0.669,1.5 -1.5,1.5 l -6,0 c -0.831,0 -1.5,-0.669 -1.5,-1.5 l 0,-0.5 -2.5,0 c -0.831,0 -1.5,-0.669 -1.5,-1.5 l 0,-1.5 0,-4.5 C -19,4.669 -18.331,4 -17.5,4 z m 5,2 C -12.777,6 -13,6.223 -13,6.5 l 0,6 c 0,0.277 0.223,0.5 0.5,0.5 l 4,0 c 0.277,0 0.5,-0.223 0.5,-0.5 l 0,-6 C -8,6.223 -8.223,6 -8.5,6 l -4,0 z"
         id="path2951" />
    </clipPath>
    <linearGradient
       inkscape:collect="always"
       xlink:href="#StandardGradient"
       id="linearGradient5012"
       gradientUnits="userSpaceOnUse"
       gradientTransform="matrix(0.9247229,0,0,1.0872097,-6.0600562,-2.0023583)"
       x1="11.998966"
       y1="2.7615263"
       x2="11.998966"
       y2="15.638639" />
    <linearGradient
       inkscape:collect="always"
       xlink:href="#StandardGradient"
       id="linearGradient5016"
       gradientUnits="userSpaceOnUse"
       gradientTransform="matrix(0.9247229,0,0,1.0872097,-6.0600562,-2.0023583)"
       x1="11.998966"
       y1="2.7615263"
       x2="11.998966"
       y2="15.638639" />
    <linearGradient
       inkscape:collect="always"
       xlink:href="#StandardGradient"
       id="linearGradient3176"
       gradientUnits="userSpaceOnUse"
       gradientTransform="matrix(0.9247229,0,0,1.0872097,-6.0600562,-2.0023583)"
       x1="11.998966"
       y1="2.7615263"
       x2="11.998966"
       y2="15.638639" />
    <linearGradient
       inkscape:collect="always"
       xlink:href="#StandardGradient"
       id="linearGradient3180"
       gradientUnits="userSpaceOnUse"
       gradientTransform="matrix(0.9247229,0,0,1.0872097,-6.0600562,-2.0023583)"
       x1="11.998966"
       y1="2.7615263"
       x2="11.998966"
       y2="15.638639" />
    <linearGradient
       inkscape:collect="always"
       xlink:href="#StandardGradient"
       id="linearGradient3789"
       gradientUnits="userSpaceOnUse"
       gradientTransform="matrix(0.9247229,0,0,1.0872097,-6.0600562,-2.0023583)"
       x1="11.998966"
       y1="2.7615263"
       x2="11.998966"
       y2="15.638639" />
    <linearGradient
       inkscape:collect="always"
       xlink:href="#StandardGradient"
       id="linearGradient3793"
       gradientUnits="userSpaceOnUse"
       gradientTransform="matrix(0.9247229,0,0,1.0872097,-6.0600562,-2.0023583)"
       x1="11.998966"
       y1="2.7615263"
       x2="11.998966"
       y2="15.638639" />
    <linearGradient
       inkscape:collect="always"
       xlink:href="#StandardGradient"
       id="linearGradient3795"
       gradientUnits="userSpaceOnUse"
       gradientTransform="matrix(0.9247229,0,0,1.0872097,-6.0600562,-2.0023583)"
       x1="11.998966"
       y1="2.7615263"
       x2="11.998966"
       y2="15.638639" />
    <radialGradient
       inkscape:collect="always"
       xlink:href="#StandardGradient"
       id="radialGradient3798"
       cx="9"
       cy="9.875"
       fx="9"
       fy="9.875"
       r="7"
       gradientUnits="userSpaceOnUse"
       gradientTransform="matrix(2.1428571,5.7142857e-8,-3.047619e-8,1.1428571,-10.285714,-1.2857148)" />
    <linearGradient
       id="StandardGradient-0"
       gradientTransform="scale(1.0784122,0.9272892)"
       x1="9.0752506"
       y1="2.2159534"
       x2="9.0752506"
       y2="13.952041"
       gradientUnits="userSpaceOnUse"
       xlink:href="#StandardGradient">
      <stop
         style="stop-color:#000000;stop-opacity:0.86274511;"
         offset="0"
         id="stop3280" />
      <stop
         style="stop-color:#000000;stop-opacity:0.47058824;"
         offset="1"
         id="stop3282" />
    </linearGradient>
    <radialGradient
       inkscape:collect="always"
       xlink:href="#StandardGradient"
       id="radialGradient3829"
       cx="9"
       cy="10.408057"
       fx="9"
       fy="10.408057"
       r="6.328125"
       gradientTransform="matrix(1.4222222,0,0,0.94814815,-3.8,0.13161977)"
       gradientUnits="userSpaceOnUse" />
    <radialGradient
       inkscape:collect="always"
       xlink:href="#StandardGradient"
       id="radialGradient3835"
       gradientUnits="userSpaceOnUse"
       gradientTransform="matrix(1.4222222,0,0,0.94814815,-3.8,0.13161977)"
       cx="9"
       cy="10.408057"
       fx="9"
       fy="10.408057"
       r="6.328125" />
    <radialGradient
       inkscape:collect="always"
       xlink:href="#StandardGradient"
       id="radialGradient3839"
       gradientUnits="userSpaceOnUse"
       gradientTransform="matrix(1.4222222,0,0,0.94814815,-3.8,0.13161977)"
       cx="9"
       cy="10.408057"
       fx="9"
       fy="10.408057"
       r="6.328125" />
    <radialGradient
       inkscape:collect="always"
       xlink:href="#StandardGradient"
       id="radialGradient3841"
       gradientUnits="userSpaceOnUse"
       gradientTransform="matrix(1.4222222,0,0,0.94814815,-3.8,0.13161977)"
       cx="9"
       cy="10.408057"
       fx="9"
       fy="10.408057"
       r="6.328125" />
  </defs>
  <metadata
     id="metadata7">
    <rdf:RDF>
      <cc:Work
         rdf:about="">
        <dc:format>image/svg+xml</dc:format>
        <dc:type
           rdf:resource="http://purl.org/dc/dcmitype/StillImage" />
        <dc:title></dc:title>
      </cc:Work>
    </rdf:RDF>
  </metadata>
  <g
     style="display:inline"
     inkscape:label="Calque 1"
     id="layer1"
     inkscape:groupmode="layer">
    <path
       inkscape:connector-curvature="0"
       style="opacity:0.05;fill:#ffffff;fill-opacity:1;stroke:none;display:inline"
       d="M 8,1.0312503 C 5.2130379,1.3078232 3.0291061,3.4208289 2.4375,6.1250003 l -1.125,0 a 1.043459,1.043459 0 0 0 -0.875,1.59375 L 3.15625,11.8125 A 1.043459,1.043459 0 0 0 4.875,11.84375 L 7.78125,7.7500003 a 1.043459,1.043459 0 0 0 -0.84375,-1.625 l -0.28125,0 c 0.4437882,-0.6771005 1.0576611,-1.21875 1.9375,-1.21875 1.409556,7e-7 2.5625,1.1461234 2.5625,2.59375 0,1.345675 -0.99187,2.4116391 -2.25,2.5624997 A 1.043459,1.043459 0 0 0 8,11.09375 l 0,1.84375 a 1.043459,1.043459 0 0 0 1.125,1.03125 C 12.434092,13.703269 15,10.891575 15,7.5000003 c 10e-7,-3.5672294 -2.87004,-6.46875 -6.40625,-6.46875 -0.1111432,0 -0.2940675,-0.029739 -0.59375,0 z m 0.09375,1.03125 c 0.1739089,-0.017258 0.3215775,0 0.5,0 2.967459,0 5.375001,2.4264215 5.375,5.4375 0,2.8645777 -2.17034,5.2154967 -4.9375,5.4374997 l 0,-1.84375 c 1.776959,-0.213073 3.15625,-1.7325926 3.15625,-3.5937497 0,-2.0073863 -1.615444,-3.624999 -3.59375,-3.625 -1.86764,0 -3.3659671,1.4304651 -3.53125,3.28125 l 1.875,0 L 4.03125,11.25 1.3125,7.1562503 l 1.9375,0 c 0.1625772,-2.6743762 2.2351158,-4.834874 4.84375,-5.09375 z"
       id="path4001" />
    <path
       inkscape:connector-curvature="0"
       style="fill:url(#radialGradient3829);fill-opacity:1;stroke:none;display:inline"
       d="M 8.09375,2.0625003 C 5.4851158,2.3213763 3.4125772,4.4818741 3.25,7.1562503 l -1.9375,0 L 4.03125,11.25 6.9375,7.1562503 l -1.875,0 c 0.1652829,-1.8507849 1.66361,-3.28125 3.53125,-3.28125 1.978306,1e-6 3.59375,1.6176137 3.59375,3.625 0,1.8611571 -1.379291,3.3806767 -3.15625,3.5937497 l 0,1.84375 c 2.76716,-0.222003 4.9375,-2.572922 4.9375,-5.4374997 10e-7,-3.0110785 -2.407541,-5.4375 -5.375,-5.4375 -0.1784225,0 -0.3260911,-0.017258 -0.5,0 z"
       id="Symbol"
       inkscape:label="#path3281" />
    <path
       inkscape:connector-curvature="0"
       style="opacity:0.3;fill:#000000;fill-opacity:1;stroke:none;display:inline"
       d="M 8.09375,2.0625003 C 5.4851158,2.3213763 3.4125772,4.4818741 3.25,7.1562503 l -1.9375,0 0.71875,1.0625 1.21875,0 c 0.1625772,-2.6743762 2.2351158,-4.834874 4.84375,-5.09375 0.1739089,-0.017258 0.3215775,0 0.5,0 2.781993,0 5.068383,2.1273731 5.34375,4.875 0.01471,-0.1646557 0.03125,-0.3314591 0.03125,-0.5 10e-7,-3.0110785 -2.407541,-5.4375 -5.375,-5.4375 -0.1784225,0 -0.3260911,-0.017258 -0.5,0 z m -2.78125,5.09375 c -0.1354123,0.3326847 -0.2164395,0.6867004 -0.25,1.0625 l 1.125,0 0.75,-1.0625 -1.625,0 z m 6.8125,0.875 C 11.892076,9.6442824 10.636157,10.901308 9.03125,11.09375 l 0,1.0625 c 1.776959,-0.213073 3.15625,-1.732593 3.15625,-3.5937497 0,-0.1859563 -0.03577,-0.3529594 -0.0625,-0.53125 z"
       id="BevelShadow"
       inkscape:label="#path3169" />
    <path
       inkscape:connector-curvature="0"
       style="opacity:0.2;fill:#ffffff;fill-opacity:1;stroke:none;display:inline"
       d="m 8.59375,3.8750003 c -1.86764,0 -3.3659671,1.4304651 -3.53125,3.28125 l 0.25,0 c 0.5314831,-1.3057623 1.792832,-2.21875 3.28125,-2.21875 1.795044,9e-7 3.269432,1.347405 3.53125,3.09375 0.02497,-0.1729229 0.0625,-0.3510458 0.0625,-0.53125 0,-2.0073863 -1.615444,-3.624999 -3.59375,-3.625 z m 3.53125,4.15625 c -0.02618,0.1813057 -0.07393,0.359946 -0.125,0.53125 0.05339,-0.1750294 0.09821,-0.345753 0.125,-0.53125 z m -10.8125,-0.875 0,1.0625 2.71875,4.0937497 2.90625,-4.0937497 0,-1.0625 L 4.03125,11.25 1.3125,7.1562503 z m 12.65625,0.34375 c 0,2.8645777 -2.17034,5.2154967 -4.9375,5.4374997 l 0,1.0625 c 2.76716,-0.222003 4.9375,-2.572922 4.9375,-5.4374997 0,-0.3409162 0,-0.7073344 0,-1.0625 z M 11.75,9.1875003 C 11.66682,9.347512 11.573658,9.5118308 11.46875,9.6562503 11.578545,9.5078204 11.663488,9.3524571 11.75,9.1875003 z M 10.5625,10.53125 c -0.128408,0.08561 -0.2667,0.150352 -0.40625,0.21875 0.138789,-0.06749 0.278118,-0.134442 0.40625,-0.21875 z M 10.15625,10.75 C 9.9827141,10.835056 9.8133911,10.91281 9.625,10.96875 9.8121266,10.913168 9.9832169,10.834146 10.15625,10.75 z"
       id="BevelHighlight"
       inkscape:label="#path3176" />
    <path
       style="fill:#000000;fill-opacity:1;stroke:none;display:inline;opacity:0.3"
       d="M 8.09375 2.0625 C 5.4851158 2.321376 3.4125772 4.4818738 3.25 7.15625 L 1.3125 7.15625 L 4.03125 11.25 L 6.9375 7.15625 L 5.0625 7.15625 C 5.2277829 5.3054651 6.72611 3.875 8.59375 3.875 C 10.572056 3.875001 12.1875 5.4926137 12.1875 7.5 C 12.1875 9.3611571 10.808209 10.880677 9.03125 11.09375 L 9.03125 12.9375 C 11.79841 12.715497 13.96875 10.364578 13.96875 7.5 C 13.968751 4.4889215 11.561209 2.0625 8.59375 2.0625 C 8.4153275 2.0625 8.2676589 2.045242 8.09375 2.0625 z M 8.15625 2.5625 C 8.2701001 2.551202 8.3832006 2.5625 8.59375 2.5625 C 11.289622 2.5625 13.468751 4.7544919 13.46875 7.5 C 13.46875 9.9141863 11.765613 11.83238 9.53125 12.28125 L 9.53125 11.46875 C 11.328736 11.037784 12.6875 9.4445866 12.6875 7.5 C 12.6875 5.22532 10.843643 3.3750011 8.59375 3.375 C 6.4717131 3.375 4.7494886 5.0311618 4.5625 7.125 A 0.4982674 0.4982674 0 0 0 5.0625 7.65625 L 5.96875 7.65625 L 4.03125 10.375 L 2.25 7.65625 L 3.25 7.65625 A 0.4982674 0.4982674 0 0 0 3.75 7.1875 C 3.8980022 4.7528816 5.7928821 2.7970362 8.15625 2.5625 z "
       id="path3831" />
  </g>
</svg>
