<?xml version="1.0" encoding="UTF-8" standalone="no"?>
<!-- Created with Inkscape (http://www.inkscape.org/) -->

<svg
   xmlns:dc="http://purl.org/dc/elements/1.1/"
   xmlns:cc="http://creativecommons.org/ns#"
   xmlns:rdf="http://www.w3.org/1999/02/22-rdf-syntax-ns#"
   xmlns:svg="http://www.w3.org/2000/svg"
   xmlns="http://www.w3.org/2000/svg"
   xmlns:xlink="http://www.w3.org/1999/xlink"
   xmlns:sodipodi="http://sodipodi.sourceforge.net/DTD/sodipodi-0.dtd"
   xmlns:inkscape="http://www.inkscape.org/namespaces/inkscape"
   version="1.0"
   width="16"
   height="16"
   id="svg3196"
   sodipodi:version="0.32"
   inkscape:version="0.91 r13725"
   sodipodi:docname="view-list-icons-symbolic.svg"
   inkscape:output_extension="org.inkscape.output.svg.inkscape">
  <metadata
     id="metadata20">
    <rdf:RDF>
      <cc:Work
         rdf:about="">
        <dc:format>image/svg+xml</dc:format>
        <dc:type
           rdf:resource="http://purl.org/dc/dcmitype/StillImage" />
        <dc:title></dc:title>
      </cc:Work>
    </rdf:RDF>
  </metadata>
  <sodipodi:namedview
     inkscape:window-height="718"
     inkscape:window-width="1366"
     inkscape:pageshadow="2"
     inkscape:pageopacity="0"
     guidetolerance="10.0"
     gridtolerance="10.0"
     objecttolerance="10.0"
     borderopacity="1.0"
     bordercolor="#666666"
     pagecolor="#6e6e6e"
     id="base"
     showgrid="true"
     inkscape:zoom="14.585165"
     inkscape:cx="7.9296966"
     inkscape:cy="-0.55751124"
     inkscape:window-x="0"
     inkscape:window-y="25"
     inkscape:current-layer="svg3196"
     inkscape:window-maximized="1"
     inkscape:snap-bbox="true"
     inkscape:bbox-paths="true"
     inkscape:bbox-nodes="true"
     inkscape:snap-bbox-midpoints="false"
     inkscape:snap-bbox-edge-midpoints="true">
    <inkscape:grid
       type="xygrid"
       id="grid3083" />
  </sodipodi:namedview>
  <defs
     id="defs3198">
    <linearGradient
       gradientUnits="userSpaceOnUse"
       y2="17.168188"
       x2="10.005832"
       y1="4.1631975"
       x1="10.005832"
       gradientTransform="matrix(1.0765258,0,0,0.9227364,-20.008013,0.1584665)"
       id="linearGradient4154">
      <stop
         style="stop-color:#000000;stop-opacity:0.23529412"
         offset="0"
         id="stop4156" />
      <stop
         style="stop-color:#000000;stop-opacity:0.54901963"
         offset="1"
         id="stop4158" />
    </linearGradient>
    <linearGradient
       id="linearGradient3587-6-5">
      <stop
         id="stop3589-9-2"
         style="stop-color:#000000;stop-opacity:1"
         offset="0" />
      <stop
         id="stop3591-7-4"
         style="stop-color:#363636;stop-opacity:1"
         offset="1" />
    </linearGradient>
    <linearGradient
       x1="26.045763"
       y1="9.6223383"
       x2="26.045763"
       y2="19.490837"
       id="linearGradient3189"
       xlink:href="#linearGradient3587-6-5"
       gradientUnits="userSpaceOnUse"
       gradientTransform="matrix(0.375,0,0,0.375,-32.5,0.5)" />
    <linearGradient
       x1="26.045763"
       y1="9.6223383"
       x2="26.045763"
       y2="19.490837"
       id="linearGradient3203"
       xlink:href="#linearGradient3587-6-5"
       gradientUnits="userSpaceOnUse"
       gradientTransform="matrix(0.375,0,0,0.375,-40.5,0.5)" />
    <linearGradient
       x1="26.045763"
       y1="9.6223383"
       x2="26.045763"
       y2="19.490837"
       id="linearGradient3207"
       xlink:href="#linearGradient3587-6-5"
       gradientUnits="userSpaceOnUse"
       gradientTransform="matrix(0.375,0,0,0.375,-32.5,7.499999)" />
    <linearGradient
       x1="26.045763"
       y1="9.6223383"
       x2="26.045763"
       y2="19.490837"
       id="linearGradient3211"
       xlink:href="#linearGradient3587-6-5"
       gradientUnits="userSpaceOnUse"
       gradientTransform="matrix(0.375,0,0,0.375,-40.5,7.5)" />
    <linearGradient
       id="StandardGradient"
       gradientTransform="matrix(1.0765258,0,0,0.9227364,-20.008013,0.1584665)"
       x1="10.005832"
       y1="4.1631975"
       x2="10.005832"
       y2="17.168188"
       gradientUnits="userSpaceOnUse">
      <stop
         id="stop3337"
         offset="0"
         style="stop-color:#000000;stop-opacity:0.86274511;" />
      <stop
         id="stop3339"
         offset="1"
         style="stop-color:#000000;stop-opacity:0.47058824;" />
    </linearGradient>
    <linearGradient
       y2="23.640337"
       x2="24.8104"
       y1="1.9618642"
       x1="24.8104"
       gradientTransform="matrix(1.0765258,0,0,0.9227364,8.991987,-6.8102835)"
       gradientUnits="userSpaceOnUse"
       id="linearGradient3047"
       xlink:href="#StandardGradient"
       inkscape:collect="always" />
    <linearGradient
       inkscape:collect="always"
       xlink:href="#StandardGradient"
       id="linearGradient4421"
       gradientUnits="userSpaceOnUse"
       gradientTransform="matrix(0.3,0,0,0.3,7.4,1.8)"
       x1="22"
       y1="4"
       x2="22"
       y2="37.333332" />
    <linearGradient
       inkscape:collect="always"
       xlink:href="#StandardGradient"
       id="linearGradient4425"
       gradientUnits="userSpaceOnUse"
       gradientTransform="matrix(0.3,0,0,0.3,7.4,1.8)"
       x1="22"
       y1="4"
       x2="22"
       y2="37.333332" />
    <linearGradient
       inkscape:collect="always"
       xlink:href="#StandardGradient"
       id="linearGradient4430"
       gradientUnits="userSpaceOnUse"
       gradientTransform="matrix(0.3,0,0,0.3,7.4,1.8)"
       x1="22"
       y1="4"
       x2="22"
       y2="37.333332" />
    <radialGradient
       inkscape:collect="always"
       xlink:href="#linearGradient4154"
       id="radialGradient4152"
       cx="8"
       cy="10"
       fx="8"
       fy="10"
       r="5"
       gradientUnits="userSpaceOnUse"
       gradientTransform="matrix(2.4,0,0,1.4,-11.2,-4)" />
  </defs>
  <path
     style="font-size:medium;font-style:normal;font-variant:normal;font-weight:normal;font-stretch:normal;text-indent:0;text-align:start;text-decoration:none;line-height:normal;letter-spacing:normal;word-spacing:normal;text-transform:none;direction:ltr;block-progression:tb;writing-mode:lr-tb;text-anchor:start;baseline-shift:baseline;color:#000000;fill:#ffffff;fill-opacity:1;stroke:none;stroke-width:1;marker:none;visibility:visible;display:inline;overflow:visible;enable-background:accumulate;font-family:Sans;-inkscape-font-specification:Sans;opacity:0.05"
     d="M 2.78125 1.96875 A 1.0407484 1.0407484 0 0 0 1.96875 3 L 1.96875 7 A 1.0407484 1.0407484 0 0 0 2.6875 8 A 1.0407484 1.0407484 0 0 0 1.96875 9 L 1.96875 13 A 1.0407484 1.0407484 0 0 0 3 14.03125 L 7 14.03125 A 1.0407484 1.0407484 0 0 0 8 13.3125 A 1.0407484 1.0407484 0 0 0 9 14.03125 L 13 14.03125 A 1.0407484 1.0407484 0 0 0 14.03125 13 L 14.03125 9 A 1.0407484 1.0407484 0 0 0 13.3125 8 A 1.0407484 1.0407484 0 0 0 14.03125 7 L 14.03125 3 A 1.0407484 1.0407484 0 0 0 13 1.96875 L 9 1.96875 A 1.0407484 1.0407484 0 0 0 8 2.6875 A 1.0407484 1.0407484 0 0 0 7 1.96875 L 3 1.96875 A 1.0407484 1.0407484 0 0 0 2.78125 1.96875 z M 3 3 L 7 3 L 7 7 L 3 7 L 3 3 z M 9 3 L 13 3 L 13 7 L 9 7 L 9 3 z M 8 7.3125 A 1.0407484 1.0407484 0 0 0 8.6875 8 A 1.0407484 1.0407484 0 0 0 8 8.6875 A 1.0407484 1.0407484 0 0 0 7.3125 8 A 1.0407484 1.0407484 0 0 0 8 7.3125 z M 3 9 L 7 9 L 7 13 L 3 13 L 3 9 z M 9 9 L 13 9 L 13 13 L 9 13 L 9 9 z "
     id="path4423" />
  <path
     style="font-size:medium;font-style:normal;font-variant:normal;font-weight:normal;font-stretch:normal;text-indent:0;text-align:start;text-decoration:none;line-height:normal;letter-spacing:normal;word-spacing:normal;text-transform:none;direction:ltr;block-progression:tb;writing-mode:lr-tb;text-anchor:start;baseline-shift:baseline;opacity:1;color:#000000;fill:url(#radialGradient4152);fill-opacity:1;stroke:none;stroke-width:1;marker:none;visibility:visible;display:inline;overflow:visible;enable-background:accumulate;font-family:Sans;-inkscape-font-specification:Sans"
     d="M 3 3 L 3 7 L 7 7 L 7 3 L 3 3 z M 9 3 L 9 7 L 13 7 L 13 3 L 9 3 z M 3 9 L 3 13 L 7 13 L 7 9 L 3 9 z M 9 9 L 9 13 L 13 13 L 13 9 L 9 9 z "
     id="path3091" />
  <path
     style="font-size:medium;font-style:normal;font-variant:normal;font-weight:normal;font-stretch:normal;text-indent:0;text-align:start;text-decoration:none;line-height:normal;letter-spacing:normal;word-spacing:normal;text-transform:none;direction:ltr;block-progression:tb;writing-mode:lr-tb;text-anchor:start;baseline-shift:baseline;opacity:0.3;color:#000000;fill:#000000;fill-opacity:1;stroke:none;stroke-width:1;marker:none;visibility:visible;display:inline;overflow:visible;enable-background:accumulate;font-family:Sans;-inkscape-font-specification:Sans"
     d="M 3 3 L 3 4 L 7 4 L 7 3 L 3 3 z M 9 3 L 9 4 L 13 4 L 13 3 L 9 3 z M 3 9 L 3 10 L 7 10 L 7 9 L 3 9 z M 9 9 L 9 10 L 13 10 L 13 9 L 9 9 z "
     id="path3882" />
  <path
     id="path3891"
     d="M 3,7 3,8 7,8 7,7 3,7 z m 6,0 0,1 4,0 0,-1 -4,0 z m -6,6 0,1 4,0 0,-1 -4,0 z m 6,0 0,1 4,0 0,-1 -4,0 z"
     style="font-size:medium;font-style:normal;font-variant:normal;font-weight:normal;font-stretch:normal;text-indent:0;text-align:start;text-decoration:none;line-height:normal;letter-spacing:normal;word-spacing:normal;text-transform:none;direction:ltr;block-progression:tb;writing-mode:lr-tb;text-anchor:start;baseline-shift:baseline;opacity:0.2;color:#000000;fill:#ffffff;fill-opacity:1;stroke:none;stroke-width:1;marker:none;visibility:visible;display:inline;overflow:visible;enable-background:accumulate;font-family:Sans;-inkscape-font-specification:Sans"
     inkscape:connector-curvature="0" />
  <path
     style="color:#000000;font-style:normal;font-variant:normal;font-weight:normal;font-stretch:normal;font-size:medium;line-height:normal;font-family:Sans;-inkscape-font-specification:Sans;text-indent:0;text-align:start;text-decoration:none;text-decoration-line:none;text-decoration-style:solid;text-decoration-color:#000000;letter-spacing:normal;word-spacing:normal;text-transform:none;direction:ltr;block-progression:tb;writing-mode:lr-tb;baseline-shift:baseline;text-anchor:start;white-space:normal;clip-rule:nonzero;display:inline;overflow:visible;visibility:visible;opacity:0.3;isolation:auto;mix-blend-mode:normal;color-interpolation:sRGB;color-interpolation-filters:linearRGB;solid-color:#000000;solid-opacity:1;fill:#000000;fill-opacity:1;fill-rule:nonzero;stroke:none;stroke-width:1.20000005;stroke-linecap:butt;stroke-linejoin:miter;stroke-miterlimit:4;stroke-dasharray:none;stroke-dashoffset:0;stroke-opacity:1;marker:none;color-rendering:auto;image-rendering:auto;shape-rendering:auto;text-rendering:auto;enable-background:accumulate"
     d="M 3,3 3,7 7,7 7,3 3,3 Z m 6,0 0,4 4,0 0,-4 -4,0 z m -5.4003906,0.599609 2.8007812,0 0,2.800782 -2.8007812,0 0,-2.800782 z m 6,0 2.8007816,0 0,2.800782 -2.8007816,0 0,-2.800782 z M 3,9 3,13 7,13 7,9 3,9 Z m 6,0 0,4 4,0 0,-4 -4,0 z m -5.4003906,0.599609 2.8007812,0 0,2.800782 -2.8007812,0 0,-2.800782 z m 6,0 2.8007816,0 0,2.800782 -2.8007816,0 0,-2.800782 z"
     id="path3091-8"
     inkscape:connector-curvature="0" />
</svg>
