<?xml version="1.0" encoding="UTF-8" standalone="no"?>
<!-- Created with Inkscape (http://www.inkscape.org/) -->

<svg
   xmlns:dc="http://purl.org/dc/elements/1.1/"
   xmlns:cc="http://creativecommons.org/ns#"
   xmlns:rdf="http://www.w3.org/1999/02/22-rdf-syntax-ns#"
   xmlns:svg="http://www.w3.org/2000/svg"
   xmlns="http://www.w3.org/2000/svg"
   xmlns:xlink="http://www.w3.org/1999/xlink"
   xmlns:sodipodi="http://sodipodi.sourceforge.net/DTD/sodipodi-0.dtd"
   xmlns:inkscape="http://www.inkscape.org/namespaces/inkscape"
   width="16"
   height="16"
   id="svg2"
   sodipodi:version="0.32"
   inkscape:version="0.48.1 r9760"
   version="1.0"
   sodipodi:docname="view-restore.svg"
   inkscape:output_extension="org.inkscape.output.svg.inkscape"
   inkscape:export-filename="/home/matt/.icons/Sirocco/scalable/mimetypes/text-plain.png"
   inkscape:export-xdpi="90"
   inkscape:export-ydpi="90"
   sodipodi:modified="true"
   style="display:inline">
  <sodipodi:namedview
     id="base"
     pagecolor="#838383"
     bordercolor="#cc0000"
     borderopacity="1"
     inkscape:pageopacity="1"
     inkscape:pageshadow="2"
     inkscape:zoom="18.064397"
     inkscape:cx="-6.1136442"
     inkscape:cy="1.5597169"
     inkscape:document-units="px"
     inkscape:current-layer="layer1"
     width="128px"
     height="128px"
     inkscape:showpageshadow="false"
     inkscape:window-width="1920"
     inkscape:window-height="1028"
     inkscape:window-x="0"
     inkscape:window-y="25"
     showguides="true"
     inkscape:guide-bbox="true"
     showgrid="true"
     inkscape:window-maximized="1"
     borderlayer="true">
    <sodipodi:guide
       id="guide2226"
       position="32.637397,117.99844"
       orientation="horizontal" />
    <sodipodi:guide
       id="guide2230"
       position="110,57.402344"
       orientation="vertical" />
    <sodipodi:guide
       id="guide2232"
       position="33.760911"
       orientation="horizontal" />
    <sodipodi:guide
       id="guide2231"
       position="46.774696"
       orientation="horizontal" />
    <inkscape:grid
       enabled="true"
       visible="true"
       id="grid3231"
       type="xygrid"
       empspacing="8"
       snapvisiblegridlinesonly="true" />
    <sodipodi:guide
       orientation="1,0"
       position="100,67.625"
       id="guide2713" />
    <sodipodi:guide
       orientation="1,0"
       position="9,0"
       id="guide3021" />
    <sodipodi:guide
       orientation="0,1"
       position="13,6"
       id="guide3023" />
  </sodipodi:namedview>
  <defs
     id="defs4">
    <linearGradient
       inkscape:collect="always"
       xlink:href="#StandardGradient"
       id="linearGradient2428"
       gradientUnits="userSpaceOnUse"
       gradientTransform="matrix(0.9247229,0,0,1.0872097,10.939944,-2.0023588)"
       x1="11.998966"
       y1="3.6813121"
       x2="11.998966"
       y2="16.529612" />
    <inkscape:perspective
       sodipodi:type="inkscape:persp3d"
       inkscape:vp_x="0 : 11 : 1"
       inkscape:vp_y="0 : 1000 : 0"
       inkscape:vp_z="22 : 11 : 1"
       inkscape:persp3d-origin="11 : 7.3333333 : 1"
       id="perspective19" />
    <linearGradient
       id="StandardGradient"
       gradientTransform="scale(0.9219544,1.0846523)"
       x1="11.998966"
       y1="0.92195445"
       x2="11.998966"
       y2="19.387045"
       gradientUnits="userSpaceOnUse">
      <stop
         style="stop-color:#000000;stop-opacity:0.23529412;"
         offset="0"
         id="stop3283" />
      <stop
         style="stop-color:#000000;stop-opacity:0.54901963;"
         offset="1"
         id="stop2651" />
    </linearGradient>
    <linearGradient
       inkscape:collect="always"
       xlink:href="#StandardGradient"
       id="linearGradient2549"
       gradientUnits="userSpaceOnUse"
       gradientTransform="matrix(0.9247229,0,0,1.0872097,-2.0600562,0.9976422)"
       x1="11.998966"
       y1="0.92195445"
       x2="11.998966"
       y2="17.478098" />
    <linearGradient
       inkscape:collect="always"
       xlink:href="#StandardGradient"
       id="linearGradient2418"
       gradientUnits="userSpaceOnUse"
       gradientTransform="matrix(0.9247229,0,0,1.0872097,-4.0600562,-3.0023583)"
       x1="11.998966"
       y1="0.92195445"
       x2="11.998966"
       y2="17.478098" />
    <linearGradient
       inkscape:collect="always"
       xlink:href="#StandardGradient"
       id="linearGradient2422"
       gradientUnits="userSpaceOnUse"
       gradientTransform="matrix(0.9247229,0,0,1.0872097,-5.0600562,-1.0023583)"
       x1="11.998966"
       y1="0.92195445"
       x2="11.998966"
       y2="17.478098" />
    <linearGradient
       inkscape:collect="always"
       xlink:href="#StandardGradient"
       id="linearGradient2403"
       gradientUnits="userSpaceOnUse"
       gradientTransform="matrix(0.9247229,0,0,1.0872097,-4.0600562,-3.0023583)"
       x1="11.998966"
       y1="0.92195445"
       x2="11.998966"
       y2="17.478098" />
    <linearGradient
       inkscape:collect="always"
       xlink:href="#StandardGradient"
       id="linearGradient2406"
       gradientUnits="userSpaceOnUse"
       gradientTransform="matrix(0.9247229,0,0,1.0872097,-4.0600562,-3.0023583)"
       x1="11.998966"
       y1="0.92195445"
       x2="11.998966"
       y2="17.478098" />
    <linearGradient
       inkscape:collect="always"
       xlink:href="#StandardGradient"
       id="linearGradient2409"
       gradientUnits="userSpaceOnUse"
       gradientTransform="matrix(0.9247229,0,0,1.0872097,-6.0600562,-2.0023583)"
       x1="11.998966"
       y1="3.6800685"
       x2="11.998966"
       y2="15.638639" />
    <linearGradient
       inkscape:collect="always"
       xlink:href="#StandardGradient"
       id="linearGradient2416"
       gradientUnits="userSpaceOnUse"
       gradientTransform="matrix(0.9247229,0,0,1.0872097,-6.0600562,-2.0023583)"
       x1="11.998966"
       y1="2.7615263"
       x2="11.998966"
       y2="15.638639" />
    <linearGradient
       inkscape:collect="always"
       xlink:href="#StandardGradient"
       id="linearGradient2529"
       gradientUnits="userSpaceOnUse"
       gradientTransform="matrix(0.9247229,0,0,1.0872097,-4.0418814,0.9976412)"
       x1="11.998966"
       y1="3.6813121"
       x2="11.998966"
       y2="16.529612" />
    <linearGradient
       inkscape:collect="always"
       xlink:href="#StandardGradient"
       id="linearGradient2539"
       gradientUnits="userSpaceOnUse"
       gradientTransform="matrix(0.9247229,0,0,1.0872097,-6.0600562,-2.0023583)"
       x1="11.998966"
       y1="2.7615263"
       x2="11.998966"
       y2="15.638639" />
    <linearGradient
       inkscape:collect="always"
       xlink:href="#StandardGradient"
       id="linearGradient2542"
       gradientUnits="userSpaceOnUse"
       gradientTransform="matrix(0.9247229,0,0,1.0872097,-6.0600562,-2.0023583)"
       x1="11.998966"
       y1="2.7615263"
       x2="11.998966"
       y2="15.638639" />
    <linearGradient
       inkscape:collect="always"
       xlink:href="#StandardGradient"
       id="linearGradient2412"
       gradientUnits="userSpaceOnUse"
       gradientTransform="matrix(0.9247229,0,0,1.0872097,-6.0600562,-2.0023583)"
       x1="11.998966"
       y1="2.7615263"
       x2="11.998966"
       y2="15.638639" />
    <inkscape:perspective
       id="perspective2892"
       inkscape:persp3d-origin="0.5 : 0.33333333 : 1"
       inkscape:vp_z="1 : 0.5 : 1"
       inkscape:vp_y="0 : 1000 : 0"
       inkscape:vp_x="0 : 0.5 : 1"
       sodipodi:type="inkscape:persp3d" />
    <linearGradient
       inkscape:collect="always"
       xlink:href="#StandardGradient"
       id="linearGradient2942"
       gradientUnits="userSpaceOnUse"
       gradientTransform="matrix(0.9247229,0,0,1.0872097,-26.060056,-2.0023583)"
       x1="11.998966"
       y1="2.7615263"
       x2="11.998966"
       y2="15.638639" />
    <clipPath
       clipPathUnits="userSpaceOnUse"
       id="clipPath2949">
      <path
         style="fill:#ff00ff;fill-opacity:1;stroke:none;display:inline"
         d="m -20,0 0,16 16,0 0,-16 -16,0 z m 3,1 3,0 c 0.554,0 1,0.446 1,1 l 6,0 c 0.554,0 1,0.446 1,1 l -12,0 0,-1 c 0,-0.554 0.446,-1 1,-1 z m -0.5,3 4,0 6,0 1,0 C -5.669,4 -5,4.669 -5,5.5 l 0,4.5 0,1.5 c 0,0.647488 -0.396277,1.195291 -0.96875,1.40625 l 0,0.15625 -0.03125,0 0,0.4375 c 0,0.831 -0.669,1.5 -1.5,1.5 l -6,0 c -0.831,0 -1.5,-0.669 -1.5,-1.5 l 0,-0.5 -2.5,0 c -0.831,0 -1.5,-0.669 -1.5,-1.5 l 0,-1.5 0,-4.5 C -19,4.669 -18.331,4 -17.5,4 z m 5,2 C -12.777,6 -13,6.223 -13,6.5 l 0,6 c 0,0.277 0.223,0.5 0.5,0.5 l 4,0 c 0.277,0 0.5,-0.223 0.5,-0.5 l 0,-6 C -8,6.223 -8.223,6 -8.5,6 l -4,0 z"
         id="path2951" />
    </clipPath>
    <linearGradient
       inkscape:collect="always"
       xlink:href="#StandardGradient"
       id="linearGradient5012"
       gradientUnits="userSpaceOnUse"
       gradientTransform="matrix(0.9247229,0,0,1.0872097,-6.0600562,-2.0023583)"
       x1="11.998966"
       y1="2.7615263"
       x2="11.998966"
       y2="15.638639" />
    <linearGradient
       inkscape:collect="always"
       xlink:href="#StandardGradient"
       id="linearGradient5016"
       gradientUnits="userSpaceOnUse"
       gradientTransform="matrix(0.9247229,0,0,1.0872097,-6.0600562,-2.0023583)"
       x1="11.998966"
       y1="2.7615263"
       x2="11.998966"
       y2="15.638639" />
    <linearGradient
       inkscape:collect="always"
       xlink:href="#StandardGradient"
       id="linearGradient3176"
       gradientUnits="userSpaceOnUse"
       gradientTransform="matrix(0.9247229,0,0,1.0872097,-6.0600562,-2.0023583)"
       x1="11.998966"
       y1="2.7615263"
       x2="11.998966"
       y2="15.638639" />
    <linearGradient
       inkscape:collect="always"
       xlink:href="#StandardGradient"
       id="linearGradient3180"
       gradientUnits="userSpaceOnUse"
       gradientTransform="matrix(0.9247229,0,0,1.0872097,-6.0600562,-2.0023583)"
       x1="11.998966"
       y1="2.7615263"
       x2="11.998966"
       y2="15.638639" />
    <linearGradient
       inkscape:collect="always"
       xlink:href="#StandardGradient"
       id="linearGradient3789"
       gradientUnits="userSpaceOnUse"
       gradientTransform="matrix(0.9247229,0,0,1.0872097,-6.0600562,-2.0023583)"
       x1="11.998966"
       y1="2.7615263"
       x2="11.998966"
       y2="15.638639" />
    <linearGradient
       inkscape:collect="always"
       xlink:href="#StandardGradient"
       id="linearGradient3793"
       gradientUnits="userSpaceOnUse"
       gradientTransform="matrix(0.9247229,0,0,1.0872097,-6.0600562,-2.0023583)"
       x1="11.998966"
       y1="2.7615263"
       x2="11.998966"
       y2="15.638639" />
    <linearGradient
       inkscape:collect="always"
       xlink:href="#StandardGradient"
       id="linearGradient3795"
       gradientUnits="userSpaceOnUse"
       gradientTransform="matrix(0.9247229,0,0,1.0872097,-6.0600562,-2.0023583)"
       x1="11.998966"
       y1="2.7615263"
       x2="11.998966"
       y2="15.638639" />
    <radialGradient
       inkscape:collect="always"
       xlink:href="#StandardGradient"
       id="radialGradient3834"
       gradientUnits="userSpaceOnUse"
       gradientTransform="matrix(1.5714286,2.2066772e-8,-1.604856e-8,1.1428571,-5.142857,-1.6483515)"
       cx="9"
       cy="10.192307"
       fx="9"
       fy="10.192307"
       r="7" />
    <radialGradient
       inkscape:collect="always"
       xlink:href="#StandardGradient"
       id="radialGradient3850"
       gradientUnits="userSpaceOnUse"
       gradientTransform="matrix(-1.5714286,-2.2066772e-8,1.604856e-8,-1.1428571,49.142857,9.648351)"
       cx="9"
       cy="10.192307"
       fx="9"
       fy="10.192307"
       r="7" />
    <radialGradient
       inkscape:collect="always"
       xlink:href="#StandardGradient"
       id="radialGradient3852"
       gradientUnits="userSpaceOnUse"
       gradientTransform="matrix(1.5714286,2.2066772e-8,-1.604856e-8,1.1428571,14.857143,-1.6483515)"
       cx="9"
       cy="10.192307"
       fx="9"
       fy="10.192307"
       r="7" />
    <radialGradient
       inkscape:collect="always"
       xlink:href="#StandardGradient"
       id="radialGradient3924"
       gradientUnits="userSpaceOnUse"
       gradientTransform="matrix(1.5714285,0,0,1.1428571,-11.142854,10.351649)"
       cx="12.818181"
       cy="-0.30769289"
       fx="12.818181"
       fy="-0.30769289"
       r="7" />
    <radialGradient
       inkscape:collect="always"
       xlink:href="#StandardGradient"
       id="radialGradient3930"
       gradientUnits="userSpaceOnUse"
       gradientTransform="matrix(1.5714285,0,0,1.1428571,-11.142854,10.351649)"
       cx="12.818181"
       cy="-0.30769289"
       fx="12.818181"
       fy="-0.30769289"
       r="7" />
    <radialGradient
       inkscape:collect="always"
       xlink:href="#StandardGradient"
       id="radialGradient3934"
       gradientUnits="userSpaceOnUse"
       gradientTransform="matrix(1.5714285,0,0,1.1428571,-11.142854,10.351649)"
       cx="12.818181"
       cy="-0.30769289"
       fx="12.818181"
       fy="-0.30769289"
       r="7" />
    <radialGradient
       inkscape:collect="always"
       xlink:href="#StandardGradient"
       id="radialGradient3936"
       gradientUnits="userSpaceOnUse"
       gradientTransform="matrix(1.5714285,0,0,1.1428571,-11.142854,10.351649)"
       cx="12.818181"
       cy="-0.30769289"
       fx="12.818181"
       fy="-0.30769289"
       r="7" />
    <radialGradient
       inkscape:collect="always"
       xlink:href="#StandardGradient"
       id="radialGradient3943"
       gradientUnits="userSpaceOnUse"
       gradientTransform="matrix(1.5714285,0,0,1.1428571,-11.142854,11.351649)"
       cx="12.818181"
       cy="-0.30769289"
       fx="12.818181"
       fy="-0.30769289"
       r="7" />
    <radialGradient
       inkscape:collect="always"
       xlink:href="#StandardGradient"
       id="radialGradient3945"
       gradientUnits="userSpaceOnUse"
       gradientTransform="matrix(1.5714285,0,0,1.1428571,-11.142854,10.351649)"
       cx="12.818181"
       cy="-0.30769289"
       fx="12.818181"
       fy="-0.30769289"
       r="7" />
    <radialGradient
       inkscape:collect="always"
       xlink:href="#StandardGradient"
       id="radialGradient3950"
       gradientUnits="userSpaceOnUse"
       gradientTransform="matrix(1.5714285,0,0,1.1428571,-11.142854,11.351649)"
       cx="12.818181"
       cy="-0.30769289"
       fx="12.818181"
       fy="-0.30769289"
       r="7" />
    <radialGradient
       inkscape:collect="always"
       xlink:href="#StandardGradient"
       id="radialGradient3954"
       gradientUnits="userSpaceOnUse"
       gradientTransform="matrix(1.5714285,0,0,1.1428571,-11.142854,10.351649)"
       cx="12.818181"
       cy="-0.30769289"
       fx="12.818181"
       fy="-0.30769289"
       r="7" />
    <radialGradient
       inkscape:collect="always"
       xlink:href="#StandardGradient"
       id="radialGradient3959"
       gradientUnits="userSpaceOnUse"
       gradientTransform="matrix(1.5714285,0,0,1.1428571,-11.142854,10.351649)"
       cx="12.818181"
       cy="-0.30769289"
       fx="12.818181"
       fy="-0.30769289"
       r="7" />
    <radialGradient
       inkscape:collect="always"
       xlink:href="#StandardGradient"
       id="radialGradient3963"
       gradientUnits="userSpaceOnUse"
       gradientTransform="matrix(1.5714285,0,0,1.1428571,-11.142854,10.351649)"
       cx="12.818181"
       cy="-0.30769289"
       fx="12.818181"
       fy="-0.30769289"
       r="7" />
    <radialGradient
       inkscape:collect="always"
       xlink:href="#StandardGradient"
       id="radialGradient3968"
       gradientUnits="userSpaceOnUse"
       gradientTransform="matrix(1.5714285,0,0,1.1428571,-11.142854,10.351649)"
       cx="12.818181"
       cy="-0.30769289"
       fx="12.818181"
       fy="-0.30769289"
       r="7" />
  </defs>
  <metadata
     id="metadata7">
    <rdf:RDF>
      <cc:Work
         rdf:about="">
        <dc:format>image/svg+xml</dc:format>
        <dc:type
           rdf:resource="http://purl.org/dc/dcmitype/StillImage" />
        <dc:title></dc:title>
      </cc:Work>
    </rdf:RDF>
  </metadata>
  <g
     style="display:inline"
     inkscape:label="Calque 1"
     id="layer1"
     inkscape:groupmode="layer">
    <path
       style="color:#000000;fill:#ffffff;fill-opacity:1;fill-rule:nonzero;stroke:none;stroke-width:0.80000000999999998;marker:none;visibility:visible;display:inline;overflow:visible;enable-background:accumulate;opacity:0.05"
       d="M 8.875 0.03125 A 0.966874 0.966874 0 0 0 8.03125 1 L 8.03125 6.25 C 7.8401201 6.201592 7.7049669 6.03125 7.5 6.03125 L 2.5 6.03125 C 1.1501279 6.03125 0.03125 7.1501279 0.03125 8.5 L 0.03125 15 A 0.966874 0.966874 0 0 0 1 15.96875 L 9 15.96875 A 0.966874 0.966874 0 0 0 9.96875 15 L 9.96875 8.5 C 9.96875 8.2950331 9.798408 8.1598799 9.75 7.96875 L 15 7.96875 A 0.966874 0.966874 0 0 0 15.6875 6.3125 L 14.375 5 L 15.6875 3.6875 A 0.966874 0.966874 0 0 0 15.6875 2.3125 L 13.6875 0.3125 A 0.966874 0.966874 0 0 0 12.3125 0.3125 L 11 1.625 L 9.6875 0.3125 A 0.966874 0.966874 0 0 0 8.875 0.03125 z M 9 1 L 11 3 L 13 1 L 15 3 L 13 5 L 15 7 L 9 7 L 9 1 z M 2.5 7 L 7.5 7 C 8.331 7 9 7.669 9 8.5 L 9 15 L 1 15 L 1 8.5 C 1 7.669 1.669 7 2.5 7 z M 7 8 L 7 9 L 8 9 L 8 8 L 7 8 z M 3 10 L 3 13 L 7 13 L 7 10 L 3 10 z M 3.96875 10.96875 L 6.03125 10.96875 L 6.03125 12.03125 L 3.96875 12.03125 L 3.96875 10.96875 z "
       id="path3961" />
    <path
       style="color:#000000;fill:url(#radialGradient3924);fill-opacity:1;fill-rule:nonzero;stroke:none;stroke-width:0.80000000999999998;marker:none;visibility:visible;display:inline;overflow:visible;enable-background:accumulate"
       d="M 9,1 9,7 15,7 13,5 15,3 13,1 11,3 9,1 z M 2.5,7 C 1.669,7 1,7.669 1,8.5 L 1,15 9,15 9,8.5 C 9,7.669 8.331,7 7.5,7 l -5,0 z M 7,8 8,8 8,9 7,9 7,8 z m -4,2 4,0 0,3 -4,0 0,-3 z"
       id="path3842"
       inkscape:connector-curvature="0" />
    <path
       style="color:#000000;fill:#000000;fill-opacity:1;fill-rule:nonzero;stroke:none;stroke-width:0.80000000999999998;marker:none;visibility:visible;display:inline;overflow:visible;enable-background:accumulate;opacity:0.3"
       d="M 9 1 L 9 7 L 15 7 L 13 5 L 15 3 L 13 1 L 11 3 L 9 1 z M 13 1.5625 L 14.4375 3 L 12.71875 4.71875 A 0.39147584 0.39147584 0 0 0 12.71875 5.28125 L 14.03125 6.59375 L 9.40625 6.59375 L 9.40625 1.96875 L 10.71875 3.28125 A 0.39147584 0.39147584 0 0 0 11.28125 3.28125 L 13 1.5625 z M 2.5 7 C 1.669 7 1 7.669 1 8.5 L 1 15 L 9 15 L 9 8.5 C 9 7.669 8.331 7 7.5 7 L 2.5 7 z M 2.5 7.40625 L 7.5 7.40625 C 7.6862745 7.40625 7.8160318 7.5155416 7.96875 7.59375 L 7 7.59375 A 0.39147584 0.39147584 0 0 0 6.59375 8 L 6.59375 9 A 0.39147584 0.39147584 0 0 0 7 9.40625 L 8 9.40625 A 0.39147584 0.39147584 0 0 0 8.40625 9 L 8.40625 8.03125 C 8.4844584 8.1839682 8.59375 8.3137255 8.59375 8.5 L 8.59375 14.59375 L 1.40625 14.59375 L 1.40625 8.5 C 1.40625 7.8790852 1.8790852 7.40625 2.5 7.40625 z M 7 8 L 8 8 L 8 9 L 7 9 L 7 8 z M 2.90625 9.59375 A 0.39147584 0.39147584 0 0 0 2.59375 10 L 2.59375 13 A 0.39147584 0.39147584 0 0 0 3 13.40625 L 7 13.40625 A 0.39147584 0.39147584 0 0 0 7.40625 13 L 7.40625 10 A 0.39147584 0.39147584 0 0 0 7 9.59375 L 3 9.59375 A 0.39147584 0.39147584 0 0 0 2.90625 9.59375 z M 3 10 L 7 10 L 7 13 L 3 13 L 3 10 z "
       id="path3926" />
    <path
       style="color:#000000;fill:#000000;fill-opacity:1;fill-rule:nonzero;stroke:none;stroke-width:0.80000000999999998;marker:none;visibility:visible;display:inline;overflow:visible;enable-background:accumulate;opacity:0.3"
       d="M 9 1 L 9 2 L 11 4 L 13 2 L 14.5 3.5 L 15 3 L 13 1 L 11 3 L 9 1 z M 13.5 5.5 L 13 6 L 14 7 L 15 7 L 13.5 5.5 z M 2.5 7 C 1.669 7 1 7.669 1 8.5 L 1 9.5 C 1 8.669 1.669 8 2.5 8 L 7 8 L 7.5 8 L 8 8 L 8 8.09375 C 8.5870167 8.2970063 9 8.842125 9 9.5 L 9 8.5 C 9 7.669 8.331 7 7.5 7 L 2.5 7 z M 7 9 L 7 10 L 8 10 L 8 9 L 7 9 z M 3 13 L 3 14 L 7 14 L 7 13 L 3 13 z "
       id="path3939" />
    <path
       style="color:#000000;fill:#ffffff;fill-opacity:1;fill-rule:nonzero;stroke:none;stroke-width:0.80000000999999998;marker:none;visibility:visible;display:inline;overflow:visible;enable-background:accumulate;opacity:0.2"
       d="M 14.5 3.5 L 13 5 L 13.5 5.5 L 15 4 L 14.5 3.5 z M 9 7 L 9 8 L 15 8 L 14 7 L 9 7 z M 7 8 L 7 9 L 8 9 L 8 8.09375 C 7.8455219 8.0402615 7.673125 8 7.5 8 L 7 8 z M 3 10 L 3 11 L 7 11 L 7 10 L 3 10 z M 1 15 L 1 16 L 9 16 L 9 15 L 1 15 z "
       id="path3948" />
  </g>
</svg>
