<?xml version="1.0" encoding="UTF-8" standalone="no"?>
<!-- Created with Inkscape (http://www.inkscape.org/) -->

<svg
   xmlns:dc="http://purl.org/dc/elements/1.1/"
   xmlns:cc="http://creativecommons.org/ns#"
   xmlns:rdf="http://www.w3.org/1999/02/22-rdf-syntax-ns#"
   xmlns:svg="http://www.w3.org/2000/svg"
   xmlns="http://www.w3.org/2000/svg"
   xmlns:xlink="http://www.w3.org/1999/xlink"
   xmlns:sodipodi="http://sodipodi.sourceforge.net/DTD/sodipodi-0.dtd"
   xmlns:inkscape="http://www.inkscape.org/namespaces/inkscape"
   width="16"
   height="16"
   id="svg2"
   sodipodi:version="0.32"
   inkscape:version="0.48.1 r9760"
   version="1.0"
   sodipodi:docname="zoom-in.svg"
   inkscape:output_extension="org.inkscape.output.svg.inkscape"
   inkscape:export-filename="/home/matt/.icons/Sirocco/scalable/mimetypes/text-plain.png"
   inkscape:export-xdpi="90"
   inkscape:export-ydpi="90"
   sodipodi:modified="true"
   style="display:inline">
  <sodipodi:namedview
     id="base"
     pagecolor="#838383"
     bordercolor="#cc0000"
     borderopacity="1"
     inkscape:pageopacity="1"
     inkscape:pageshadow="2"
     inkscape:zoom="35.913828"
     inkscape:cx="8.2383506"
     inkscape:cy="5.5122319"
     inkscape:document-units="px"
     inkscape:current-layer="layer1"
     width="128px"
     height="128px"
     inkscape:showpageshadow="false"
     inkscape:window-width="1920"
     inkscape:window-height="1030"
     inkscape:window-x="0"
     inkscape:window-y="25"
     showguides="true"
     inkscape:guide-bbox="true"
     showgrid="true"
     inkscape:window-maximized="1"
     borderlayer="true"
     inkscape:snap-global="true">
    <sodipodi:guide
       id="guide2226"
       position="32.637397,117.99844"
       orientation="horizontal" />
    <sodipodi:guide
       id="guide2230"
       position="110,57.402344"
       orientation="vertical" />
    <sodipodi:guide
       id="guide2232"
       position="33.760911"
       orientation="horizontal" />
    <sodipodi:guide
       id="guide2231"
       position="46.774696"
       orientation="horizontal" />
    <inkscape:grid
       enabled="true"
       visible="true"
       id="grid3231"
       type="xygrid"
       empspacing="8"
       snapvisiblegridlinesonly="true" />
    <sodipodi:guide
       orientation="1,0"
       position="100,67.625"
       id="guide2713" />
    <sodipodi:guide
       orientation="1,0"
       position="9,0"
       id="guide3021" />
    <sodipodi:guide
       orientation="0,1"
       position="13,6"
       id="guide3023" />
  </sodipodi:namedview>
  <defs
     id="defs4">
    <linearGradient
       id="StandardGradient"
       gradientTransform="scale(0.9219544,1.0846523)"
       x1="11.998966"
       y1="0.92195445"
       x2="11.998966"
       y2="19.387045"
       gradientUnits="userSpaceOnUse">
      <stop
         style="stop-color:#000000;stop-opacity:0.23529412;"
         offset="0"
         id="stop3283" />
      <stop
         style="stop-color:#000000;stop-opacity:0.54901963;"
         offset="1"
         id="stop2651" />
    </linearGradient>
    <radialGradient
       inkscape:collect="always"
       xlink:href="#StandardGradient"
       id="radialGradient3843"
       cx="9"
       cy="9.9999981"
       fx="9"
       fy="9.9999981"
       r="6.9999976"
       gradientTransform="matrix(1.5714291,-2.2082685e-8,1.6060134e-8,1.1428575,-5.1428622,-1.4285728)"
       gradientUnits="userSpaceOnUse" />
    <radialGradient
       inkscape:collect="always"
       xlink:href="#StandardGradient"
       id="radialGradient3898"
       cx="9"
       cy="9.9999981"
       fx="9"
       fy="9.9999981"
       r="6.9999976"
       gradientTransform="matrix(1.5714291,-2.2694928e-8,1.6505402e-8,1.1428575,-5.1428622,-1.4285728)"
       gradientUnits="userSpaceOnUse" />
    <radialGradient
       inkscape:collect="always"
       xlink:href="#StandardGradient"
       id="radialGradient3904"
       gradientUnits="userSpaceOnUse"
       gradientTransform="matrix(1.5714291,-2.2694928e-8,1.6505402e-8,1.1428575,-5.1428622,-1.4285728)"
       cx="9"
       cy="9.9999981"
       fx="9"
       fy="9.9999981"
       r="6.9999976" />
    <radialGradient
       inkscape:collect="always"
       xlink:href="#StandardGradient"
       id="radialGradient3908"
       gradientUnits="userSpaceOnUse"
       gradientTransform="matrix(1.5714291,-2.2694928e-8,1.6505402e-8,1.1428575,-5.1428622,-1.4285728)"
       cx="9"
       cy="9.9999981"
       fx="9"
       fy="9.9999981"
       r="6.9999976" />
    <radialGradient
       inkscape:collect="always"
       xlink:href="#StandardGradient"
       id="radialGradient3910"
       gradientUnits="userSpaceOnUse"
       gradientTransform="matrix(1.5714291,-2.2694928e-8,1.6505402e-8,1.1428575,-5.1428622,-1.4285728)"
       cx="9"
       cy="9.9999981"
       fx="9"
       fy="9.9999981"
       r="6.9999976" />
  </defs>
  <metadata
     id="metadata7">
    <rdf:RDF>
      <cc:Work
         rdf:about="">
        <dc:format>image/svg+xml</dc:format>
        <dc:type
           rdf:resource="http://purl.org/dc/dcmitype/StillImage" />
        <dc:title></dc:title>
      </cc:Work>
    </rdf:RDF>
  </metadata>
  <g
     style="display:inline"
     inkscape:label="Calque 1"
     id="layer1"
     inkscape:groupmode="layer">
    <path
       inkscape:connector-curvature="0"
       style="opacity:0.05;fill:#ffffff;fill-opacity:1;stroke:none;display:inline"
       d="M 6.03125,0 C 4.4744178,0 2.9195005,0.60896316 1.75,1.78125 c -2.34300811,2.3485913 -2.34300874,6.1826586 0,8.53125 1.8546204,1.859039 4.6280377,2.246071 6.875,1.15625 0.1113401,-0.054 0.06619,-0.04381 0.09375,-0.0625 0.024115,-0.01635 0.131896,-0.05134 0.09375,-0.03125 0.085843,-0.02717 0.1916435,-0.05204 0.28125,-0.0625 -0.0058,0.0063 0.00739,0.02708 0.03125,0.09375 0.082717,0.231129 0.2667221,0.640868 0.625,1 l 3.0625,3.0625 A 1.0129542,1.0129542 0 0 0 12.875,15.5 c -0.0014,-0.0012 -0.01657,0.01732 0,0.03125 0.0058,0.0051 0.02301,-0.0071 0.03125,0 0.0167,0.01294 0.03145,0.03139 0.03125,0.03125 a 1.0129542,1.0129542 0 0 0 0.03125,0.03125 c 0.02382,0.01893 0.03209,0.0406 0.0625,0.0625 a 1.0129542,1.0129542 0 0 0 0.03125,0 c 0.12057,0.08534 0.271232,0.203578 0.5,0.28125 0.47957,0.162826 1.339278,0.06825 1.875,-0.46875 0.537688,-0.538969 0.625236,-1.392034 0.46875,-1.875 C 15.749764,13.110784 15.50435,12.911757 15.5,12.90625 A 1.0129542,1.0129542 0 0 0 15.4375,12.8125 L 12.40625,9.75 c -0.351254,-0.352091 -0.776048,-0.5418649 -1,-0.625 -0.05269,-0.019561 -0.0061,0.00978 -0.03125,0 0.0018,-0.019463 -0.0072,-0.022347 0,-0.0625 0.03079,-0.1706508 0.09136,-0.3698765 0.09375,-0.375 C 12.556547,6.4340143 12.169468,3.6426448 10.3125,1.78125 9.1429992,0.60896363 7.5880822,0 6.03125,0 z m 0,1 c 1.2841367,0 2.583434,0.518602 3.5625,1.5 1.550185,1.5538805 1.873026,3.8766945 0.96875,5.75 -0.02944,0.062991 -0.492783,1.0685426 0,1.5625 0.298906,0.299618 0.66775,0.19791 1.125,0.65625 l 3.03125,3.0625 c 0.0087,0.01101 0.600029,0.617291 0,1.21875 -0.59772,0.599143 -1.184329,-0.0032 -1.1875,0 l -3.0625,-3.0625 C 10.0115,11.22916 10.111405,10.830868 9.8125,10.53125 9.4095128,10.127303 8.6471201,10.348654 8.34375,10.46875 8.29521,10.49431 8.2366801,10.53865 8.1875,10.5625 6.3186476,11.46893 4.0189377,11.147631 2.46875,9.59375 0.51061922,7.6309536 0.51061969,4.4627964 2.46875,2.5 3.4478155,1.5186019 4.7471133,1 6.03125,1 z m 0,1.28125 c -2.0769114,0 -3.7499994,1.6993902 -3.75,3.78125 0,2.0818599 1.6730885,3.7500002 3.75,3.75 2.0769115,0 3.7499997,-1.6681403 3.75,-3.75 0,-2.0818599 -1.6730886,-3.7812501 -3.75,-3.78125 z M 5,3 l 2,0 0,2.03125 2.03125,0 0,2.03125 -2.03125,0 0,2.03125 -2,0 0,-2.03125 -2.03125,0 0,-2.03125 L 5,5.03125 5,3 z"
       id="path4425" />
    <path
       inkscape:connector-curvature="0"
       style="fill:url(#radialGradient3898);fill-opacity:1;stroke:none;display:inline"
       d="m 6.0348128,1.0000004 c -1.2841367,0 -2.5871494,0.5237437 -3.5662149,1.5051418 -1.95813031,1.9627964 -1.95813078,5.1239129 0,7.0867093 1.5501877,1.5538815 3.855861,1.8785015 5.7247134,0.9720715 0.04918,-0.02385 0.107873,-0.06851 0.1564129,-0.09407 0.3033701,-0.120096 1.0672944,-0.341232 1.4702816,0.06271 0.2989052,0.299618 0.1996842,0.701873 0.6569342,1.160213 l 3.065694,3.041641 c 0.0032,-0.0032 0.591018,0.599143 1.188738,0 0.600029,-0.601459 0.0087,-1.180557 0,-1.191571 l -3.034411,-3.072998 c -0.45725,-0.45834 -0.827267,-0.358882 -1.126173,-0.6584996 -0.492783,-0.4939574 -0.02944,-1.5048648 0,-1.5678561 C 11.475064,6.3701898 11.151213,4.0590227 9.6010277,2.5051422 8.6219617,1.5237442 7.3189495,1.0000004 6.0348128,1.0000004 z m 0,1.285642 c 2.0769114,-10e-8 3.7539104,1.6809946 3.7539104,3.7628545 -3e-7,2.0818597 -1.6769989,3.7628545 -3.7539104,3.7628545 -2.0769115,2e-7 -3.7539104,-1.6809946 -3.7539104,-3.7628545 6e-7,-2.0818598 1.676999,-3.7628545 3.7539104,-3.7628545 z m -1.0323254,0.7212137 0,2.0382129 -2.0333681,0 0,2.0068557 2.0333681,0 0,2.0382129 2.0020856,0 0,-2.0382129 2.0333681,0 0,-2.0068557 -2.0333681,0 0,-2.0382129 -2.0020856,0 z"
       id="Symbol" />
    <path
       inkscape:connector-curvature="0"
       style="opacity:0.3;fill:#000000;fill-opacity:1;stroke:none;display:inline"
       d="M 6.03125,1 C 4.7471132,1 3.4478155,1.5186019 2.46875,2.5 2.3463669,2.6226748 2.2320853,2.7435485 2.125,2.875 2.110823,2.89255 2.107643,2.919803 2.09375,2.9375 1.9756568,3.0879208 1.8477272,3.2462338 1.75,3.40625 1.652273,3.5662662 1.5776433,3.7383918 1.5,3.90625 1.441646,4.029657 1.3914527,4.1544582 1.34375,4.28125 1.264791,4.4979357 1.2043721,4.7136249 1.15625,4.9375 1.117928,5.1157818 1.081584,5.2878866 1.0625,5.46875 1.024332,5.8304768 1.025411,6.2009674 1.0625,6.5625 1.1727838,5.4516226 1.6163577,4.3544235 2.46875,3.5 3.4478155,2.5186019 4.7471132,2.0000001 6.03125,2 c 1.2841367,0 2.5834342,0.518602 3.5625,1.5 0.888016,0.8901324 1.354668,2.0250222 1.4375,3.1875 0.01032,-0.082291 -0.0062,-0.1673403 0,-0.25 0.0078,-0.1017036 0.02962,-0.2105779 0.03125,-0.3125 5.24e-4,-0.041443 5.02e-4,-0.083548 0,-0.125 C 11.0613,5.8518603 11.04548,5.7100682 11.03125,5.5625 11.02098,5.4590165 11.01668,5.3528478 11,5.25 10.9984,5.24014 11.0016,5.228607 11,5.21875 10.959715,4.9772586 10.888184,4.7346449 10.8125,4.5 c -0.003,-0.00921 0.003,-0.022055 0,-0.03125 C 10.75244,4.2891545 10.674495,4.1107664 10.59375,3.9375 10.513,3.7642336 10.413868,3.6025187 10.3125,3.4375 10.24986,3.3355221 10.1955,3.2232353 10.125,3.125 10.1167,3.113424 10.10221,3.105271 10.09375,3.09375 9.9447031,2.8907318 9.7771173,2.6838044 9.59375,2.5 8.6146842,1.518602 7.3153867,1 6.03125,1 z M 5,3 5,4 7,4 7,3 5,3 z m -2.03125,2.03125 0,1 2.03125,0 0,-1 -2.03125,0 z m 4.03125,0 0,1 2.03125,0 0,-1 -2.03125,0 z M 2.3125,6.5625 c -0.020755,0.1605476 -0.03125,0.3336829 -0.03125,0.5 0,2.0818599 1.6730884,3.75 3.75,3.75 2.0769115,0 3.7499999,-1.6681403 3.75,-3.75 0,-0.1663171 -0.010495,-0.3394524 -0.03125,-0.5 C 9.74709,6.58412 9.722025,6.6035 9.71875,6.625 9.695279,6.7791014 9.666458,6.915206 9.625,7.0625 9.61973,7.081579 9.63056,7.106045 9.625,7.125 9.58619,7.254712 9.551955,7.3766383 9.5,7.5 9.481497,7.544298 9.457631,7.581583 9.4375,7.625 9.42781,7.645827 9.416307,7.666884 9.40625,7.6875 9.335791,7.8325848 9.2440764,7.9910953 9.15625,8.125 c -0.00498,0.00752 0.00504,0.023771 0,0.03125 C 9.060019,8.3007939 8.9584945,8.4329882 8.84375,8.5625 8.795742,8.616499 8.7385075,8.667621 8.6875,8.71875 8.4826278,8.9248274 8.247699,9.0955864 8,9.25 7.909375,9.306018 7.8142988,9.3579586 7.71875,9.40625 7.654293,9.438921 7.5977604,9.471003 7.53125,9.5 7.518114,9.50574 7.513214,9.525658 7.5,9.53125 7.3722176,9.585378 7.2282255,9.616328 7.09375,9.65625 7.062645,9.66548 7.031439,9.679059 7,9.6875 6.6885087,9.771128 6.3694668,9.8125 6.03125,9.8125 5.6692278,9.8125 5.3309574,9.751619 5,9.65625 4.828362,9.606791 4.6605204,9.5410901 4.5,9.46875 4.1178301,9.2958526 3.7703049,9.0645509 3.46875,8.78125 3.4201792,8.7354146 3.3585717,8.704605 3.3125,8.65625 3.201215,8.5404337 3.0957366,8.410589 3,8.28125 2.9561508,8.2215585 2.9153388,8.1560713 2.875,8.09375 2.7722017,7.9358361 2.7032867,7.7671112 2.625,7.59375 2.5500786,7.4296018 2.4885657,7.2696466 2.4375,7.09375 2.3920354,6.9371464 2.3687884,6.7893957 2.34375,6.625 2.3402026,6.6019434 2.3156242,6.5857 2.3125,6.5625 z m 8.125,3.0625 c -0.10386,0.3556344 -0.191125,0.870621 0.125,1.1875 0.298906,0.299617 0.66775,0.19791 1.125,0.65625 l 3.03125,3.0625 c 0.0018,0.0023 0.05696,0.04639 0.09375,0.09375 0.03303,-0.04302 0.07123,-0.08261 0.09375,-0.125 0.01706,-0.03038 0.01913,-0.06393 0.03125,-0.09375 0.081,-0.203625 0.05707,-0.37957 0,-0.53125 C 14.92228,13.83455 14.89314,13.81573 14.875,13.78125 14.84384,13.72514 14.84017,13.660631 14.8125,13.625 14.76978,13.56567 14.72079,13.53383 14.71875,13.53125 l -3.03125,-3.0625 c -0.114313,-0.114585 -0.20884,-0.190189 -0.3125,-0.25 -0.10355,-0.0596 -0.219135,-0.09034 -0.3125,-0.125 C 10.875476,10.02387 10.711953,9.9623088 10.5625,9.8125 10.50754,9.757405 10.4706,9.6909252 10.4375,9.625 z"
       id="BevelShadow"
       inkscape:label="#path3197" />
    <path
       inkscape:connector-curvature="0"
       style="opacity:0.2;fill:#ffffff;fill-opacity:1;stroke:none;display:inline"
       d="m 6.03125,2.28125 c -2.0769114,0 -3.7499994,1.6993904 -3.75,3.78125 0,0.162421 0.011442,0.3118168 0.03125,0.46875 C 2.5171121,5.0472341 3.5938141,3.8739561 5,3.46875 L 5,3 7,3 7,3.4375 C 8.4389085,3.8238118 9.5426535,5.0235559 9.75,6.53125 9.769808,6.3743168 9.78125,6.224921 9.78125,6.0625 c 0,-2.0818599 -1.6730887,-3.7812501 -3.75,-3.78125 z M 10.125,3.125 c 0.155447,0.215566 0.289137,0.4240216 0.40625,0.65625 C 10.419416,3.5654553 10.282143,3.3346493 10.125,3.125 z m 0.4375,0.6875 c 0.109064,0.220752 0.17536,0.4560894 0.25,0.6875 -0.07172,-0.2375706 -0.136103,-0.4626099 -0.25,-0.6875 z M 10.8125,4.5 C 10.88818,4.7346449 10.959715,4.9772586 11,5.21875 10.963978,4.9699438 10.882335,4.7313187 10.8125,4.5 z m 0.25,1.78125 c -0.03094,0.6707552 -0.201524,1.3504246 -0.5,1.96875 -0.02576,0.055117 -0.366037,0.8184817 -0.125,1.34375 0.05597,-0.1846741 0.114932,-0.3222082 0.125,-0.34375 0.372234,-0.7711238 0.5,-1.6314521 0.5,-2.46875 l 0,-0.5 z M 1.03125,6.4375 c -5.03e-4,0.043513 0,0.081035 0,0.125 0,1.6867135 0.3317617,2.922877 1.4375,4.03125 1.5501877,1.553881 3.8498976,1.87518 5.71875,0.96875 0.04918,-0.02385 0.1077101,-0.06819 0.15625,-0.09375 0.3033705,-0.120096 1.0657628,-0.341447 1.46875,0.0625 0.298906,0.299618 0.199,0.69791 0.65625,1.15625 l 3.0625,3.0625 c 0.0032,-0.0032 0.58978,0.599143 1.1875,0 0.450022,-0.451094 0.235608,-0.898039 0.09375,-1.09375 -0.02519,0.03137 -0.06225,0.06217 -0.09375,0.09375 -0.59772,0.599143 -1.184329,-0.0032 -1.1875,0 l -3.0625,-3.0625 C 10.0115,11.22916 10.111406,10.830868 9.8125,10.53125 9.4095128,10.127303 8.6471205,10.348654 8.34375,10.46875 8.29521,10.49431 8.2366797,10.53865 8.1875,10.5625 6.3186476,11.46893 4.0189377,11.147632 2.46875,9.59375 1.5874296,8.7103297 1.1192365,7.587904 1.03125,6.4375 z M 2.34375,6.625 C 2.368788,6.7893957 2.392035,6.9371464 2.4375,7.09375 2.3925,6.9395781 2.368675,6.7870027 2.34375,6.625 z m 7.375,0 C 9.69642,6.7709867 9.663625,6.9225868 9.625,7.0625 9.666458,6.915206 9.695279,6.7791014 9.71875,6.625 z m -6.75,0.4375 0,1 2.03125,0 0,-1 -2.03125,0 z m 4.03125,0 0,1 2.03125,0 0,-1 L 7,7.0625 z M 5,9.09375 5,9.65625 C 5.3309574,9.751619 5.6692278,9.8125 6.03125,9.8125 6.3694668,9.8125 6.6885087,9.771128 7,9.6875 l 0,-0.59375 -2,0 z m 0,0.5625 C 4.8237769,9.60547 4.6647647,9.5432912 4.5,9.46875 4.6605204,9.54109 4.828362,9.6067909 5,9.65625 z"
       id="BevelHighlight"
       inkscape:label="#path3207" />
    <path
       style="fill:#000000;fill-opacity:1;stroke:none;display:inline;opacity:0.3"
       d="M 6.03125 1 C 4.7471133 1 3.4478155 1.5186019 2.46875 2.5 C 0.51061969 4.4627964 0.51061922 7.6309536 2.46875 9.59375 C 4.0189377 11.147631 6.3186476 11.46893 8.1875 10.5625 C 8.23668 10.53865 8.2952101 10.49431 8.34375 10.46875 C 8.6471201 10.348654 9.4095128 10.127308 9.8125 10.53125 C 10.111405 10.830868 10.0115 11.22916 10.46875 11.6875 L 13.53125 14.75 C 13.53445 14.7468 14.12103 15.349143 14.71875 14.75 C 15.318779 14.148541 14.72745 13.542264 14.71875 13.53125 L 11.6875 10.46875 C 11.23025 10.01041 10.861406 10.112118 10.5625 9.8125 C 10.069717 9.3185426 10.53306 8.3129913 10.5625 8.25 C 11.466776 6.3766975 11.143935 4.0538805 9.59375 2.5 C 8.614684 1.518602 7.3153867 1 6.03125 1 z M 6.03125 1.53125 C 7.1738193 1.53125 8.3385465 1.9927 9.21875 2.875 C 10.609671 4.2692372 10.902753 6.3553162 10.09375 8.03125 C 10.072631 8.0764365 9.9157512 8.3821878 9.84375 8.78125 C 9.773632 9.1698752 9.7594917 9.7287407 10.15625 10.15625 C 9.806349 9.821385 9.3545809 9.7560056 9 9.78125 C 8.63829 9.8070019 8.3453033 9.8939089 8.15625 9.96875 A 0.52586598 0.52586598 0 0 0 8.09375 10 C 7.9775757 10.061175 7.9350841 10.110076 7.96875 10.09375 C 6.2961899 10.904974 4.2358942 10.614211 2.84375 9.21875 C 1.0854251 7.4562356 1.0854255 4.6375145 2.84375 2.875 C 3.7239529 1.9927001 4.8886807 1.53125 6.03125 1.53125 z M 6.03125 1.75 C 3.6675146 1.75 1.7500007 3.6989268 1.75 6.0625 C 1.75 8.4260735 3.6727888 10.34375 6.03125 10.34375 C 8.3897111 10.34375 10.3125 8.4260732 10.3125 6.0625 C 10.3125 3.6989265 8.3949854 1.7499999 6.03125 1.75 z M 6.03125 2.28125 C 8.1081614 2.2812499 9.78125 3.9806401 9.78125 6.0625 C 9.7812497 8.1443597 8.1081615 9.8125 6.03125 9.8125 C 3.9543385 9.8125002 2.28125 8.1443599 2.28125 6.0625 C 2.2812506 3.9806402 3.9543386 2.28125 6.03125 2.28125 z M 5 3 L 5 5.03125 L 2.96875 5.03125 L 2.96875 7.0625 L 5 7.0625 L 5 9.09375 L 7 9.09375 L 7 7.0625 L 9.03125 7.0625 L 9.03125 5.03125 L 7 5.03125 L 7 3 L 5 3 z M 5.53125 3.53125 L 6.46875 3.53125 L 6.46875 5.03125 A 0.52586598 0.52586598 0 0 0 7 5.5625 L 8.5 5.5625 L 8.5 6.53125 L 7 6.53125 A 0.52586598 0.52586598 0 0 0 6.46875 7.0625 L 6.46875 8.5625 L 5.53125 8.5625 L 5.53125 7.0625 A 0.52586598 0.52586598 0 0 0 5 6.53125 L 3.5 6.53125 L 3.5 5.5625 L 5 5.5625 A 0.52586598 0.52586598 0 0 0 5.53125 5.03125 L 5.53125 3.53125 z M 10.21875 10.1875 C 10.458889 10.415157 10.713457 10.502532 10.875 10.5625 C 11.042407 10.624645 11.147537 10.678393 11.3125 10.84375 L 14.3125 13.84375 C 14.313588 13.845127 14.332783 13.892469 14.34375 13.90625 C 14.37665 13.947594 14.414212 14.021876 14.4375 14.09375 C 14.468551 14.189582 14.520379 14.19795 14.34375 14.375 C 14.167855 14.551314 14.15042 14.498601 14.0625 14.46875 C 14.01854 14.453825 13.972765 14.431649 13.9375 14.40625 C 13.919868 14.39355 13.915735 14.383121 13.90625 14.375 L 13.875 14.375 C 13.872216 14.372534 13.885458 14.352545 13.875 14.34375 C 13.869771 14.339353 13.844083 14.312739 13.84375 14.3125 C 13.843584 14.312381 13.781346 14.281298 13.78125 14.28125 L 10.84375 11.3125 C 10.682433 11.150799 10.625204 11.050207 10.5625 10.875 C 10.503057 10.708904 10.441104 10.43011 10.21875 10.1875 z "
       id="path3900" />
  </g>
</svg>
