<?xml version="1.0" encoding="UTF-8" standalone="no"?>
<!-- Created with Inkscape (http://www.inkscape.org/) -->

<svg
   xmlns:dc="http://purl.org/dc/elements/1.1/"
   xmlns:cc="http://creativecommons.org/ns#"
   xmlns:rdf="http://www.w3.org/1999/02/22-rdf-syntax-ns#"
   xmlns:svg="http://www.w3.org/2000/svg"
   xmlns="http://www.w3.org/2000/svg"
   xmlns:xlink="http://www.w3.org/1999/xlink"
   xmlns:sodipodi="http://sodipodi.sourceforge.net/DTD/sodipodi-0.dtd"
   xmlns:inkscape="http://www.inkscape.org/namespaces/inkscape"
   width="22"
   height="22"
   id="svg2"
   sodipodi:version="0.32"
   inkscape:version="0.48.1 r9760"
   version="1.0"
   sodipodi:docname="add-files-to-archive.svg"
   inkscape:output_extension="org.inkscape.output.svg.inkscape"
   inkscape:export-filename="/home/matt/.icons/Sirocco/scalable/mimetypes/text-plain.png"
   inkscape:export-xdpi="90"
   inkscape:export-ydpi="90"
   sodipodi:modified="true"
   style="display:inline">
  <sodipodi:namedview
     id="base"
     pagecolor="#838383"
     bordercolor="#cc0000"
     borderopacity="1"
     inkscape:pageopacity="1"
     inkscape:pageshadow="2"
     inkscape:zoom="15.622586"
     inkscape:cx="0.041151363"
     inkscape:cy="17.199207"
     inkscape:document-units="px"
     inkscape:current-layer="layer1"
     width="128px"
     height="128px"
     inkscape:showpageshadow="false"
     inkscape:window-width="1920"
     inkscape:window-height="1030"
     inkscape:window-x="0"
     inkscape:window-y="25"
     showguides="true"
     inkscape:guide-bbox="true"
     showgrid="true"
     inkscape:window-maximized="1"
     borderlayer="true"
     inkscape:snap-global="true">
    <inkscape:grid
       enabled="true"
       visible="true"
       id="grid3231"
       type="xygrid"
       empspacing="8"
       snapvisiblegridlinesonly="true" />
    <sodipodi:guide
       orientation="1,0"
       position="12,6"
       id="guide3791" />
    <sodipodi:guide
       orientation="0,1"
       position="14,9"
       id="guide3793" />
  </sodipodi:namedview>
  <defs
     id="defs4">
    <linearGradient
       id="StandardGradient"
       gradientTransform="scale(0.9219544,1.0846523)"
       x1="11.998966"
       y1="0.92195445"
       x2="11.998966"
       y2="19.387045"
       gradientUnits="userSpaceOnUse">
      <stop
         style="stop-color:#000000;stop-opacity:0.23529412;"
         offset="0"
         id="stop3283" />
      <stop
         id="stop3850"
         offset="0.69999999"
         style="stop-color:#000000;stop-opacity:0.39215686;" />
      <stop
         style="stop-color:#000000;stop-opacity:0.55;"
         offset="1"
         id="stop2651" />
    </linearGradient>
    <radialGradient
       inkscape:collect="always"
       xlink:href="#StandardGradient"
       id="radialGradient3945"
       cx="12"
       cy="13.571428"
       fx="12"
       fy="13.571428"
       r="9"
       gradientTransform="matrix(1.7777778,-1.1111109e-8,0,0.77777776,-39.333333,2.4444449)"
       gradientUnits="userSpaceOnUse" />
    <radialGradient
       inkscape:collect="always"
       xlink:href="#StandardGradient"
       id="radialGradient3957"
       gradientUnits="userSpaceOnUse"
       gradientTransform="matrix(1.7777778,-1.1111109e-8,0,0.77777776,-39.333333,2.4444449)"
       cx="12"
       cy="13.571428"
       fx="12"
       fy="13.571428"
       r="9" />
    <radialGradient
       inkscape:collect="always"
       xlink:href="#StandardGradient"
       id="radialGradient4000"
       cx="12"
       cy="12.8"
       fx="12"
       fy="12.8"
       r="9"
       gradientTransform="matrix(1.7777778,0,0,1.1111111,-9.3333333,-1.2222222)"
       gradientUnits="userSpaceOnUse" />
    <radialGradient
       inkscape:collect="always"
       xlink:href="#StandardGradient"
       id="radialGradient4006"
       gradientUnits="userSpaceOnUse"
       gradientTransform="matrix(1.7777778,0,0,1.1111111,-9.3333333,-1.2222222)"
       cx="12"
       cy="12.8"
       fx="12"
       fy="12.8"
       r="9" />
    <radialGradient
       inkscape:collect="always"
       xlink:href="#StandardGradient"
       id="radialGradient4010"
       gradientUnits="userSpaceOnUse"
       gradientTransform="matrix(1.7777778,0,0,1.1111111,-9.3333333,-1.2222222)"
       cx="12"
       cy="12.8"
       fx="12"
       fy="12.8"
       r="9" />
    <radialGradient
       inkscape:collect="always"
       xlink:href="#StandardGradient"
       id="radialGradient4012"
       gradientUnits="userSpaceOnUse"
       gradientTransform="matrix(1.7777778,0,0,1.1111111,-9.3333333,-1.2222222)"
       cx="12"
       cy="12.8"
       fx="12"
       fy="12.8"
       r="9" />
  </defs>
  <metadata
     id="metadata7">
    <rdf:RDF>
      <cc:Work
         rdf:about="">
        <dc:format>image/svg+xml</dc:format>
        <dc:type
           rdf:resource="http://purl.org/dc/dcmitype/StillImage" />
        <dc:title></dc:title>
      </cc:Work>
    </rdf:RDF>
  </metadata>
  <g
     style="display:inline"
     inkscape:label="Calque 1"
     id="layer1"
     inkscape:groupmode="layer">
    <path
       inkscape:connector-curvature="0"
       style="opacity:0.05;fill:#ffffff;fill-opacity:1;stroke:none;display:inline"
       d="m 10,-0.03125 c -1.6444271,0 -3.0144255,1.3592097 -3.03125,3 l -0.46875,0 c -0.3846815,0 -0.6719192,0.2480325 -1,0.40625 l 0,-0.40625 -2,0 C 2.1222782,2.96875 0.96875,4.1222782 0.96875,5.5 l 0,7 c 0,1.377722 1.1535282,2.53125 2.53125,2.53125 l 2,0 0,-0.40625 c 0.3280808,0.158217 0.6153185,0.40625 1,0.40625 l 0.46875,0 c 0.016208,1.580669 1.3124629,2.843765 2.875,2.9375 L 9,17.96875 A 1.0187697,1.0187697 0 0 0 7.96875,19 l 0,1 A 1.0187697,1.0187697 0 0 0 9,21.03125 l 1.96875,0 a 1.0187697,1.0187697 0 0 0 1.03125,1 l 4,0 a 1.0187697,1.0187697 0 0 0 1.03125,-1 l 1.96875,0 A 1.0187697,1.0187697 0 0 0 20.03125,20 l 0,-1 A 1.0187697,1.0187697 0 0 0 19,17.96875 l -0.84375,0 c 1.572691,-0.09434 2.875,-1.374282 2.875,-2.96875 l 0,-12 c 0,-1.6547218 -1.376528,-3.03125 -3.03125,-3.03125 l -8,0 z M 10,1 18,1 c 1.108,0 2,0.892 2,2 l 0,12 c 0,1.108 -0.892,2 -2,2 l -3,0 0,1 1,0 0,1 3,0 0,1 -3,0 0,1 -4,0 0,-1 -3,0 0,-1 3,0 0,-1 1,0 0,-1 -3,0 C 8.892,17 8,16.108 8,15 l 9,0 c 0.554,0 1,-0.446 1,-1 L 18,4 C 18,3.446 17.554,3 17,3 L 8,3 C 8,1.892 8.892,1 10,1 z m -6.5,3 2,0 C 4.669,4 4,4.669 4,5.5 l 0,1 0,5 0,1 C 4,13.331 4.669,14 5.5,14 l -2,0 C 2.669,14 2,13.331 2,12.5 l 0,-7 C 2,4.669 2.669,4 3.5,4 z m 3,0 6,0 C 13.331,4 14,4.669 14,5.5 l 0,7 c 0,0.831 -0.669,1.5 -1.5,1.5 l -6,0 C 5.669,14 5,13.331 5,12.5 l 0,-7 C 5,4.669 5.669,4 6.5,4 z m 7.90625,0.03125 2.5625,0 0,9.9375 -2.5625,0 c 0.325442,-0.424501 0.625,-0.899832 0.625,-1.46875 l 0,-7 c 0,-0.5689181 -0.299558,-1.0442492 -0.625,-1.46875 z M 7.5,6 C 7.223,6 7,6.223 7,6.5 l 0,5 C 7,11.777 7.223,12 7.5,12 l 4,0 c 0.277,0 0.5,-0.223 0.5,-0.5 l 0,-5 C 12,6.223 11.777,6 11.5,6 l -4,0 z m 0.53125,1.03125 2.9375,0 0,3.9375 -2.9375,0 0,-3.9375 z"
       id="path6783" />
    <path
       inkscape:connector-curvature="0"
       style="fill:url(#radialGradient4000);fill-opacity:1;stroke:none;display:inline"
       d="M 10,1 C 8.892,1 8,1.892 8,3 l 9,0 c 0.554,0 1,0.446 1,1 l 0,10 c 0,0.554 -0.446,1 -1,1 l -9,0 c 0,1.108 0.892,2 2,2 l 3,0 0,1 -1,0 0,1 -3,0 0,1 3,0 0,1 4,0 0,-1 3,0 0,-1 -3,0 0,-1 -1,0 0,-1 3,0 c 1.108,0 2,-0.892 2,-2 L 20,3 C 20,1.892 19.108,1 18,1 L 10,1 z M 3.5,4 C 2.669,4 2,4.669 2,5.5 l 0,7 C 2,13.331 2.669,14 3.5,14 l 2,0 C 4.669,14 4,13.331 4,12.5 l 0,-1 0,-5 0,-1 C 4,4.669 4.669,4 5.5,4 l -2,0 z m 3,0 C 5.669,4 5,4.669 5,5.5 l 0,7 C 5,13.331 5.669,14 6.5,14 l 6,0 c 0.831,0 1.5,-0.669 1.5,-1.5 l 0,-7 C 14,4.669 13.331,4 12.5,4 l -6,0 z m 1,2 4,0 C 11.777,6 12,6.223 12,6.5 l 0,5 c 0,0.277 -0.223,0.5 -0.5,0.5 l -4,0 C 7.223,12 7,11.777 7,11.5 l 0,-5 C 7,6.223 7.223,6 7.5,6 z"
       id="path2877" />
    <path
       inkscape:connector-curvature="0"
       style="opacity:0.3;fill:#000000;fill-opacity:1;stroke:none;display:inline"
       d="M 10,1 C 8.892,1 8,1.892 8,3 L 8.28125,3 C 8.6265269,2.4030909 9.2580987,2 10,2 l 8,0 c 1.108,0 2,0.892 2,2 L 20,3 C 20,1.892 19.108,1 18,1 L 10,1 z M 3.5,4 C 2.669,4 2,4.669 2,5.5 l 0,1 C 2,5.669 2.669,5 3.5,5 L 4.09375,5 C 4.2970063,4.4129833 4.842125,4 5.5,4 l -2,0 z m 3,0 C 5.842125,4 5.2970063,4.4129833 5.09375,5 L 5.5,5 C 5.3511125,5 5.1980709,5.022465 5.0625,5.0625 5.022465,5.1980709 5,5.3511125 5,5.5 l 0,1 C 5,5.669 5.669,5 6.5,5 l 6,0 C 13.331,5 14,5.669 14,6.5 l 0,-1 C 14,4.669 13.331,4 12.5,4 L 8,4 6.5,4 z m 0.5,7.5 0,1 C 7,12.777 7.223,13 7.5,13 l 4,0 c 0.277,0 0.5,-0.223 0.5,-0.5 l 0,-1 c 0,0.277 -0.223,0.5 -0.5,0.5 l -4,0 C 7.223,12 7,11.777 7,11.5 z m -3,1 0,1 c 0,0.173125 0.040261,0.345522 0.09375,0.5 l 1,0 C 5.08626,13.97837 5.069017,13.95957 5.0625,13.9375 4.441396,13.754085 4,13.182112 4,12.5 z M 18,14 c 0,0.554 -0.446,1 -1,1 L 12.5,15 8,15 c 0,0.366099 0.1108696,0.705449 0.28125,1 L 17,16 c 0.554,0 1,-0.446 1,-1 l 0,-1 z m -6,4 0,1 1,0 0,-1 -1,0 z m 0,1 -3,0 0,1 3,0 0,-1 z m 3,-1 0,1 1,0 0,-1 -1,0 z m 1,1 0,1 3,0 0,-1 -3,0 z"
       id="path2907" />
    <path
       inkscape:connector-curvature="0"
       style="opacity:0.2;fill:#ffffff;fill-opacity:1;stroke:none;display:inline"
       d="M 8.28125,3 C 8.1108696,3.2945508 8,3.6339013 8,4 l 4.5,0 4.5,0 c 0.554,0 1,0.446 1,1 L 18,4 C 18,3.446 17.554,3 17,3 L 8.28125,3 z M 4.09375,5 C 4.040262,5.1544781 4,5.326875 4,5.5 l 0,1 C 4,5.8178875 4.441396,5.2459152 5.0625,5.0625 5.06902,5.04043 5.086262,5.021627 5.09375,5 l -1,0 z M 7.5,6 C 7.223,6 7,6.223 7,6.5 l 0,1 C 7,7.223 7.223,7 7.5,7 l 4,0 C 11.777,7 12,7.223 12,7.5 l 0,-1 C 12,6.223 11.777,6 11.5,6 l -4,0 z m -5.5,6.5 0,1 C 2,14.331 2.669,15 3.5,15 l 2,0 C 4.842125,15 4.2970063,14.587017 4.09375,14 L 3.5,14 C 2.669,14 2,13.331 2,12.5 z m 3,0 0,1 c 0,0.148888 0.022465,0.301929 0.0625,0.4375 C 5.1980709,13.97753 5.3511125,14 5.5,14 L 5.09375,14 C 5.2970063,14.587017 5.842125,15 6.5,15 l 1.5,0 4.5,0 c 0.831,0 1.5,-0.669 1.5,-1.5 l 0,-1 c 0,0.831 -0.669,1.5 -1.5,1.5 l -6,0 C 5.669,14 5,13.331 5,12.5 z M 20,15 c 0,1.108 -0.892,2 -2,2 l -3,0 0,1 1,0 2,0 c 1.108,0 2,-0.892 2,-2 l 0,-1 z M 8,16 c 0,1.108 0.892,2 2,2 l 2,0 1,0 0,-1 -3,0 C 9.2580987,17 8.6265269,16.596909 8.28125,16 L 8,16 z m 1,4 0,1 3,0 0,-1 -3,0 z m 3,1 0,1 4,0 0,-1 -4,0 z m 4,0 3,0 0,-1 -3,0 0,1 z"
       id="path3688" />
    <path
       style="fill:#000000;fill-opacity:1;stroke:none;display:inline;opacity:0.3"
       d="M 10 1 C 8.892 1 8 1.892 8 3 L 17 3 C 17.554 3 18 3.446 18 4 L 18 14 C 18 14.554 17.554 15 17 15 L 8 15 C 8 16.108 8.892 17 10 17 L 13 17 L 13 18 L 12 18 L 12 19 L 9 19 L 9 20 L 12 20 L 12 21 L 16 21 L 16 20 L 19 20 L 19 19 L 16 19 L 16 18 L 15 18 L 15 17 L 18 17 C 19.108 17 20 16.108 20 15 L 20 3 C 20 1.892 19.108 1 18 1 L 10 1 z M 10 1.4375 L 18 1.4375 C 18.86752 1.4375 19.5625 2.13248 19.5625 3 L 19.5625 15 C 19.5625 15.86752 18.86752 16.5625 18 16.5625 L 15 16.5625 A 0.44811405 0.44811405 0 0 0 14.5625 17 L 14.5625 18 A 0.44811405 0.44811405 0 0 0 15 18.4375 L 15.5625 18.4375 L 15.5625 19 A 0.44811405 0.44811405 0 0 0 16 19.4375 L 18.5625 19.4375 L 18.5625 19.5625 L 16 19.5625 A 0.44811405 0.44811405 0 0 0 15.5625 20 L 15.5625 20.5625 L 12.4375 20.5625 L 12.4375 20 A 0.44811405 0.44811405 0 0 0 12 19.5625 L 9.4375 19.5625 L 9.4375 19.4375 L 12 19.4375 A 0.44811405 0.44811405 0 0 0 12.4375 19 L 12.4375 18.4375 L 13 18.4375 A 0.44811405 0.44811405 0 0 0 13.4375 18 L 13.4375 17 A 0.44811405 0.44811405 0 0 0 13 16.5625 L 10 16.5625 C 9.2924074 16.5625 8.7231771 16.07613 8.53125 15.4375 L 17 15.4375 C 17.79448 15.4375 18.4375 14.79448 18.4375 14 L 18.4375 4 C 18.4375 3.20552 17.79448 2.5625 17 2.5625 L 8.53125 2.5625 C 8.7231771 1.9238699 9.2924074 1.4375 10 1.4375 z M 3.5 4 C 2.669 4 2 4.669 2 5.5 L 2 12.5 C 2 13.331 2.669 14 3.5 14 L 5.5 14 C 4.669 14 4 13.331 4 12.5 L 4 11.5 L 4 6.5 L 4 5.5 C 4 4.669 4.669 4 5.5 4 L 3.5 4 z M 6.5 4 C 5.669 4 5 4.669 5 5.5 L 5 12.5 C 5 13.331 5.669 14 6.5 14 L 12.5 14 C 13.331 14 14 13.331 14 12.5 L 14 5.5 C 14 4.669 13.331 4 12.5 4 L 6.5 4 z M 3.5 4.4375 L 3.9375 4.4375 C 3.7239664 4.7499374 3.5625 5.095135 3.5625 5.5 L 3.5625 6.5 L 3.5625 11.5 L 3.5625 12.5 C 3.5625 12.904865 3.7239664 13.250063 3.9375 13.5625 L 3.5 13.5625 C 2.90948 13.5625 2.4375 13.09052 2.4375 12.5 L 2.4375 5.5 C 2.4375 4.90948 2.90948 4.4375 3.5 4.4375 z M 6.5 4.4375 L 12.5 4.4375 C 13.09052 4.4375 13.5625 4.90948 13.5625 5.5 L 13.5625 12.5 C 13.5625 13.09052 13.09052 13.5625 12.5 13.5625 L 6.5 13.5625 C 5.90948 13.5625 5.4375 13.09052 5.4375 12.5 L 5.4375 5.5 C 5.4375 4.90948 5.90948 4.4375 6.5 4.4375 z M 7.5 5.5625 C 6.98252 5.5625 6.5625 5.98252 6.5625 6.5 L 6.5625 11.5 C 6.5625 12.01748 6.98252 12.4375 7.5 12.4375 L 11.5 12.4375 C 12.01748 12.4375 12.4375 12.01748 12.4375 11.5 L 12.4375 6.5 C 12.4375 5.98252 12.01748 5.5625 11.5 5.5625 L 7.5 5.5625 z M 7.5 6 L 11.5 6 C 11.777 6 12 6.223 12 6.5 L 12 11.5 C 12 11.777 11.777 12 11.5 12 L 7.5 12 C 7.223 12 7 11.777 7 11.5 L 7 6.5 C 7 6.223 7.223 6 7.5 6 z "
       id="path4002" />
  </g>
</svg>
