<?xml version="1.0" encoding="UTF-8" standalone="no"?>
<!-- Created with Inkscape (http://www.inkscape.org/) -->

<svg
   xmlns:dc="http://purl.org/dc/elements/1.1/"
   xmlns:cc="http://creativecommons.org/ns#"
   xmlns:rdf="http://www.w3.org/1999/02/22-rdf-syntax-ns#"
   xmlns:svg="http://www.w3.org/2000/svg"
   xmlns="http://www.w3.org/2000/svg"
   xmlns:xlink="http://www.w3.org/1999/xlink"
   xmlns:sodipodi="http://sodipodi.sourceforge.net/DTD/sodipodi-0.dtd"
   xmlns:inkscape="http://www.inkscape.org/namespaces/inkscape"
   width="22"
   height="22"
   id="svg2"
   sodipodi:version="0.32"
   inkscape:version="0.48.1 r9760"
   version="1.0"
   sodipodi:docname="call-start.svg"
   inkscape:output_extension="org.inkscape.output.svg.inkscape"
   inkscape:export-filename="/home/matt/.icons/Sirocco/scalable/mimetypes/text-plain.png"
   inkscape:export-xdpi="90"
   inkscape:export-ydpi="90"
   sodipodi:modified="true"
   style="display:inline">
  <sodipodi:namedview
     id="base"
     pagecolor="#838383"
     bordercolor="#cc0000"
     borderopacity="1"
     inkscape:pageopacity="1"
     inkscape:pageshadow="2"
     inkscape:zoom="15.622586"
     inkscape:cx="0.041151363"
     inkscape:cy="17.199207"
     inkscape:document-units="px"
     inkscape:current-layer="layer1"
     width="128px"
     height="128px"
     inkscape:showpageshadow="false"
     inkscape:window-width="1920"
     inkscape:window-height="1030"
     inkscape:window-x="0"
     inkscape:window-y="25"
     showguides="true"
     inkscape:guide-bbox="true"
     showgrid="true"
     inkscape:window-maximized="1"
     borderlayer="true"
     inkscape:snap-global="true">
    <inkscape:grid
       enabled="true"
       visible="true"
       id="grid3231"
       type="xygrid"
       empspacing="8"
       snapvisiblegridlinesonly="true" />
    <sodipodi:guide
       orientation="1,0"
       position="12,6"
       id="guide3791" />
    <sodipodi:guide
       orientation="0,1"
       position="14,9"
       id="guide3793" />
  </sodipodi:namedview>
  <defs
     id="defs4">
    <linearGradient
       id="StandardGradient"
       gradientTransform="scale(0.9219544,1.0846523)"
       x1="11.998966"
       y1="0.92195445"
       x2="11.998966"
       y2="19.387045"
       gradientUnits="userSpaceOnUse">
      <stop
         style="stop-color:#000000;stop-opacity:0.23529412;"
         offset="0"
         id="stop3283" />
      <stop
         id="stop3850"
         offset="0.69999999"
         style="stop-color:#000000;stop-opacity:0.39215686;" />
      <stop
         style="stop-color:#000000;stop-opacity:0.55;"
         offset="1"
         id="stop2651" />
    </linearGradient>
    <radialGradient
       inkscape:collect="always"
       xlink:href="#StandardGradient"
       id="radialGradient4055"
       cx="12"
       cy="12.803125"
       fx="12"
       fy="12.803125"
       r="9.015625"
       gradientTransform="matrix(1.7746967,0,0,1.1091854,-9.2963605,-1.2010399)"
       gradientUnits="userSpaceOnUse" />
    <radialGradient
       inkscape:collect="always"
       xlink:href="#StandardGradient"
       id="radialGradient4110"
       cx="12"
       cy="12.977968"
       fx="12"
       fy="12.977968"
       r="7.9771209"
       gradientTransform="matrix(2.0057362,6.7492421e-8,-3.7964486e-8,1.1282266,-12.068834,-1.64209)"
       gradientUnits="userSpaceOnUse" />
    <radialGradient
       inkscape:collect="always"
       xlink:href="#StandardGradient"
       id="radialGradient4116"
       gradientUnits="userSpaceOnUse"
       gradientTransform="matrix(2.0057362,6.7492421e-8,-3.7964486e-8,1.1282266,-12.068834,-1.64209)"
       cx="12"
       cy="12.977968"
       fx="12"
       fy="12.977968"
       r="7.9771209" />
    <radialGradient
       inkscape:collect="always"
       xlink:href="#StandardGradient"
       id="radialGradient4120"
       gradientUnits="userSpaceOnUse"
       gradientTransform="matrix(2.0057362,6.7492421e-8,-3.7964486e-8,1.1282266,-12.068834,-1.64209)"
       cx="12"
       cy="12.977968"
       fx="12"
       fy="12.977968"
       r="7.9771209" />
    <radialGradient
       inkscape:collect="always"
       xlink:href="#StandardGradient"
       id="radialGradient4122"
       gradientUnits="userSpaceOnUse"
       gradientTransform="matrix(2.0057362,6.7492421e-8,-3.7964486e-8,1.1282266,-12.068834,-1.64209)"
       cx="12"
       cy="12.977968"
       fx="12"
       fy="12.977968"
       r="7.9771209" />
  </defs>
  <metadata
     id="metadata7">
    <rdf:RDF>
      <cc:Work
         rdf:about="">
        <dc:format>image/svg+xml</dc:format>
        <dc:type
           rdf:resource="http://purl.org/dc/dcmitype/StillImage" />
        <dc:title></dc:title>
      </cc:Work>
    </rdf:RDF>
  </metadata>
  <g
     style="display:inline"
     inkscape:label="Calque 1"
     id="layer1"
     inkscape:groupmode="layer">
    <path
       inkscape:connector-curvature="0"
       style="opacity:0.05;fill:#ffffff;fill-opacity:1;display:inline"
       d="m 15.406252,2.000001 c -0.134782,0.017513 -0.284949,0.014585 -0.5625,0.21875 -0.202759,0.1491507 -0.232408,0.1868953 -0.28125,0.25 -0.04884,0.063105 -0.08157,0.1221356 -0.125,0.1875 -0.08686,0.1307288 -0.16694,0.2863461 -0.25,0.4375 -0.136265,0.2478979 -0.553243,1.0022757 -0.9375,1.6875 -0.411516,0.733829 -0.606969,1.0832409 -0.75,1.40625 -0.07151,0.1615045 -0.150488,0.3306041 -0.15625,0.59375 -0.0058,0.2631459 0.08935,0.5167936 0.125,0.59375 0.123958,0.2675686 0.200898,0.3403425 0.3125,0.46875 0.111602,0.1284075 0.232213,0.2642585 0.375,0.40625 0.285573,0.283983 0.636085,0.5973265 0.96875,0.875 0.113253,0.094537 0.07853,0.078916 0.125,0.125 -0.04614,0.09859 -0.08368,0.2081468 -0.15625,0.34375 -0.188144,0.3515638 -0.449328,0.779832 -0.6875,1.125 -0.941141,1.363966 -2.099519,2.443671 -3.6250004,3.28125 -0.105959,0.05817 -0.1267932,0.06845 -0.1875,0.09375 -0.039715,-0.03646 -0.07287,-0.03846 -0.15625,-0.125 -0.310492,-0.322266 -0.6430856,-0.584152 -0.96875,-0.8125 -0.3256644,-0.228348 -0.4850575,-0.462437 -1.125,-0.5 -0.2849326,-0.01672 -0.2864389,0.01876 -0.34375,0.03125 -0.057311,0.01249 -0.099071,0.0157 -0.15625,0.03125 -0.1143579,0.03109 -0.2489303,0.07638 -0.40625,0.125 -0.3146393,0.09723 -0.7082047,0.234933 -1.125,0.375 -0.8335906,0.280135 -1.6806814,0.589628 -2.125,0.78125 -0.2853085,0.12307 -0.762698,0.409515 -0.9375,0.84375 -0.174802,0.434235 -0.1456182,0.756686 -0.15625,1.21875 -0.00841,0.365382 -0.00978,0.608341 0.03125,0.875 0.041026,0.266659 0.1357348,0.524611 0.21875,0.6875 0.7528525,1.47715 2.4501601,2.338222 4.1875,2.4375 0.7575324,0.04353 1.3278267,-0.02759 2.21875,-0.3125 2.0018224,-0.640206 3.9295834,-1.815943 5.8437504,-3.46875 1.22368,-1.056597 1.951983,-1.767911 2.65625,-2.6875 0.649932,-0.848649 1.388517,-2.161037 1.78125,-3.125 0.138984,-0.341126 0.325217,-0.8651162 0.5,-1.375 0.174783,-0.5098838 0.300824,-0.9082781 0.375,-1.25 0.218891,-1.009593 0.03586,-2.1324105 -0.3125,-3.0625 -0.16839,-0.4495987 -0.40035,-0.8876135 -0.6875,-1.28125 -0.28715,-0.3936365 -0.605325,-0.7366532 -1.0625,-1 -0.471171,-0.271466 -0.895922,-0.3535953 -1.375,-0.4375 -0.239539,-0.041952 -0.459659,-0.055305 -0.6875,-0.0625 -0.11392,-0.0036 -0.240218,-0.017513 -0.375,0 z m 0.3125,0.96875 c 0.473287,0.012983 1.318187,0.1802241 1.65625,0.375 0.457421,0.2634888 1.060326,1.1079511 1.3125,1.78125 0.262657,0.701272 0.410568,1.9035449 0.28125,2.5 -0.07568,0.3486518 -0.599112,1.8683032 -0.84375,2.46875 -0.339831,0.834114 -1.098256,2.177649 -1.65625,2.90625 -0.666825,0.8707 -1.30179,1.527895 -2.5,2.5625 -1.839356,1.588211 -3.646068,2.657091 -5.5000004,3.25 -0.8544604,0.273249 -1.1790379,0.321244 -1.875,0.28125 -1.3899004,-0.07942 -2.8698104,-0.915032 -3.375,-1.90625 -0.1433079,-0.281193 -0.1723968,-0.3921 -0.15625,-1.09375 0.020539,-0.892635 0.06729,-1.032097 0.5,-1.21875 0.6911771,-0.298085 3.5534829,-1.2597 3.71875,-1.25 0.2727523,0.01601 0.9400675,0.482519 1.46875,1.03125 0.5869326,0.609178 0.6931212,0.630467 1.5000004,0.1875 1.647676,-0.904672 2.94591,-2.08013 3.96875,-3.5625 0.530601,-0.768966 1.080731,-1.809453 1.09375,-2.03125 0.0185,-0.3150893 -0.03777,-0.4369827 -0.5625,-0.875 -0.616676,-0.5147355 -1.308177,-1.1945556 -1.40625,-1.40625 -0.09997,-0.2158281 -0.0742,-0.2490027 0.75,-1.71875 0.386356,-0.6889675 0.799082,-1.4356856 0.9375,-1.6875 0.138385,-0.2518339 0.31344,-0.5172162 0.375,-0.5625 0.0502,-0.036924 0.154738,-0.035578 0.3125,-0.03125 z"
       id="path5745" />
    <path
       inkscape:connector-curvature="0"
       style="fill:url(#radialGradient4110);fill-opacity:1;display:inline"
       d="m 18.961334,7.6361726 c -0.07568,0.3486518 -0.58957,1.8720316 -0.834208,2.4724784 -0.339831,0.834114 -1.106853,2.169145 -1.664847,2.897746 -0.666825,0.8707 -1.291263,1.508613 -2.489473,2.543218 C 12.13345,17.137826 10.321548,18.20786 8.4676157,18.800769 7.6131553,19.074018 7.2772774,19.124555 6.5813153,19.084561 5.1914149,19.005137 3.7106308,18.167729 3.2054412,17.176511 3.0621333,16.895318 3.0475188,16.782362 3.0636656,16.080712 3.0842046,15.188077 3.1390716,15.05763 3.5717819,14.870977 4.262959,14.572892 7.1231861,13.60981 7.2884532,13.61951 c 0.2727523,0.01601 0.9350887,0.482734 1.4637712,1.031465 0.5869326,0.609178 0.6829944,0.620627 1.4898736,0.17766 1.647676,-0.904672 2.950192,-2.068921 3.973032,-3.551291 0.530601,-0.768966 1.098793,-1.8045378 1.111812,-2.0263348 0.0185,-0.3150893 -0.06582,-0.4404373 -0.590551,-0.8784546 -0.616676,-0.5147355 -1.286922,-1.1959558 -1.384995,-1.4076502 -0.09997,-0.2158281 -0.09156,-0.2353792 0.732644,-1.7051265 0.386356,-0.6889675 0.81569,-1.4587103 0.954108,-1.7105247 0.138385,-0.2518339 0.301979,-0.4949118 0.363539,-0.5401956 0.200787,-0.1476977 1.507279,0.076728 1.95803,0.3364292 0.457421,0.2634888 1.090759,1.0995977 1.342933,1.7728966 0.262657,0.701272 0.387998,1.9213703 0.25868,2.5178254 z"
       id="path4609"
       sodipodi:nodetypes="cssssssssssssssssssssc"
       inkscape:export-filename="/home/matthieu/Interne/Communication/Site Web/Version 3.0/Accueil temporaire/images/phone_square.png"
       inkscape:export-xdpi="90"
       inkscape:export-ydpi="90" />
    <path
       inkscape:connector-curvature="0"
       style="opacity:0.3;fill:#000000;fill-opacity:1;display:inline"
       d="m 15.718752,2.968751 c -0.157762,-0.00433 -0.262303,-0.00567 -0.3125,0.03125 -0.06156,0.045284 -0.236615,0.3106661 -0.375,0.5625 -0.138418,0.2518144 -0.551144,0.9985325 -0.9375,1.6875 -0.824204,1.4697473 -0.84997,1.5029219 -0.75,1.71875 0.02098,0.04529 0.151519,0.1679581 0.21875,0.25 0.118071,-0.2300829 0.232485,-0.4359821 0.53125,-0.96875 0.386356,-0.6889675 0.799082,-1.4356856 0.9375,-1.6875 0.138385,-0.2518339 0.31344,-0.5172162 0.375,-0.5625 0.200787,-0.1476977 1.517999,0.084049 1.96875,0.34375 0.457421,0.2634888 1.060326,1.1079511 1.3125,1.78125 0.131329,0.350636 0.233247,0.8140095 0.28125,1.28125 0.07027,-0.6393052 -0.04554,-1.6519188 -0.28125,-2.28125 -0.252174,-0.6732989 -0.855079,-1.5177612 -1.3125,-1.78125 -0.338063,-0.1947759 -1.182963,-0.3620166 -1.65625,-0.3749999 z m -0.59375,6.75 c -0.211177,0.429589 -0.551411,1.048254 -0.90625,1.5625 -1.02284,1.48237 -2.321074,2.657828 -3.96875,3.5625 -0.8068792,0.442967 -0.9130678,0.421678 -1.5000004,-0.1875 -0.5286825,-0.548731 -1.1959977,-1.01524 -1.46875,-1.03125 -0.1652671,-0.0097 -3.0275729,0.951915 -3.71875,1.25 -0.4327103,0.186653 -0.479461,0.326115 -0.5,1.21875 -0.00861,0.374334 -0.023768,0.564593 0,0.71875 0.030139,-0.626235 0.1212121,-0.774107 0.5,-0.9375 0.6911771,-0.298085 3.5534829,-1.2597 3.71875,-1.25 0.2727523,0.01601 0.9400675,0.482519 1.46875,1.03125 0.5869326,0.609178 0.6931212,0.630467 1.5000004,0.1875 1.647676,-0.904672 2.94591,-2.08013 3.96875,-3.5625 0.530601,-0.768966 1.080731,-1.809453 1.09375,-2.03125 0.01164,-0.198159 -0.03383,-0.3582129 -0.1875,-0.53125 z"
       id="path3633" />
    <path
       style="fill:#000000;fill-opacity:1;display:inline;opacity:0.3"
       d="M 15.71875 2.96875 C 15.560988 2.9644222 15.456447 2.9630756 15.40625 3 C 15.34469 3.0452838 15.169635 3.3106661 15.03125 3.5625 C 14.892832 3.8143144 14.480106 4.5610325 14.09375 5.25 C 13.269546 6.7197473 13.24378 6.7529219 13.34375 6.96875 C 13.441823 7.1804444 14.133324 7.8602645 14.75 8.375 C 15.274731 8.8130173 15.331 8.9349107 15.3125 9.25 C 15.299481 9.471797 14.749351 10.512284 14.21875 11.28125 C 13.19591 12.76362 11.897676 13.939078 10.25 14.84375 C 9.4431208 15.286717 9.3369326 15.265428 8.75 14.65625 C 8.2213175 14.107519 7.5540023 13.64101 7.28125 13.625 C 7.1159829 13.6153 4.2536771 14.576915 3.5625 14.875 C 3.1297897 15.061653 3.083039 15.201115 3.0625 16.09375 C 3.0463532 16.7954 3.0754421 16.906307 3.21875 17.1875 C 3.7239396 18.178718 5.2038496 19.014326 6.59375 19.09375 C 7.2897121 19.133744 7.6142896 19.085749 8.46875 18.8125 C 10.322682 18.219591 12.129394 17.150711 13.96875 15.5625 C 15.16696 14.527895 15.801925 13.8707 16.46875 13 C 17.026744 12.271399 17.785169 10.927864 18.125 10.09375 C 18.369638 9.4933032 18.89307 7.9736518 18.96875 7.625 C 19.098068 7.0285449 18.950157 5.826272 18.6875 5.125 C 18.435326 4.4517011 17.832421 3.6072388 17.375 3.34375 C 17.036937 3.1489741 16.192037 2.9817333 15.71875 2.96875 z M 15.65625 3.40625 C 15.679289 3.4054868 15.686966 3.4052462 15.71875 3.40625 C 15.845886 3.4102651 16.029023 3.4355216 16.21875 3.46875 C 16.598204 3.5352067 17.043432 3.6537496 17.15625 3.71875 C 17.28034 3.7902295 17.532429 4.045495 17.75 4.34375 C 17.967571 4.642005 18.174535 4.9963236 18.28125 5.28125 C 18.504661 5.8777392 18.61955 7.1239839 18.53125 7.53125 C 18.510049 7.6289199 18.356619 8.1316399 18.1875 8.625 C 18.018381 9.1183601 17.833438 9.6560072 17.71875 9.9375 C 17.403145 10.712152 16.640893 12.045123 16.125 12.71875 C 15.475321 13.567062 14.874046 14.194216 13.6875 15.21875 C 11.882402 16.77738 10.129959 17.80375 8.34375 18.375 C 7.5059871 18.642909 7.2927671 18.694624 6.625 18.65625 C 5.3942032 18.585918 4.0167769 17.768694 3.625 17 C 3.5585487 16.869612 3.5462393 16.816177 3.53125 16.71875 C 3.5162607 16.621323 3.49208 16.437909 3.5 16.09375 C 3.5101036 15.654643 3.5429067 15.423673 3.5625 15.375 C 3.5820933 15.326327 3.5652208 15.360956 3.75 15.28125 C 4.0503769 15.151706 4.9323863 14.837265 5.75 14.5625 C 6.1588068 14.425117 6.5469817 14.27921 6.84375 14.1875 C 6.9921341 14.141645 7.1319838 14.117342 7.21875 14.09375 C 7.2361032 14.089032 7.2360193 14.066076 7.25 14.0625 C 7.2447429 14.062191 7.2843451 14.062315 7.28125 14.0625 C 7.2288721 14.065635 7.4295012 14.153509 7.65625 14.3125 C 7.8963976 14.480886 8.1942926 14.71632 8.4375 14.96875 C 8.7384531 15.28111 8.9800791 15.542414 9.375 15.59375 C 9.7699209 15.645086 10.055481 15.445629 10.46875 15.21875 C 12.172383 14.283354 13.533497 13.067841 14.59375 11.53125 C 14.871473 11.128763 15.130324 10.680056 15.34375 10.28125 C 15.450463 10.081847 15.556288 9.875506 15.625 9.71875 C 15.693712 9.561994 15.737221 9.4989647 15.75 9.28125 C 15.760989 9.0940786 15.755106 8.8346134 15.625 8.625 C 15.494894 8.4153866 15.303173 8.2582364 15.03125 8.03125 C 14.734052 7.7831809 14.407774 7.5001236 14.15625 7.25 C 14.030488 7.1249382 13.921314 6.9954944 13.84375 6.90625 C 13.778596 6.8312847 13.750525 6.8074425 13.75 6.8125 C 13.749665 6.8277952 13.748782 6.7848377 13.75 6.78125 C 13.751826 6.7758684 13.758487 6.8014072 13.78125 6.75 C 13.857128 6.5786428 14.05638 6.204102 14.46875 5.46875 C 14.856067 4.7780684 15.266846 4.0348579 15.40625 3.78125 C 15.469092 3.6668899 15.564532 3.5285096 15.625 3.4375 C 15.636628 3.4199981 15.645884 3.4211205 15.65625 3.40625 z "
       id="path4112" />
    <path
       inkscape:connector-curvature="0"
       style="opacity:0.2;fill:#ffffff;fill-opacity:1;display:inline"
       d="m 13.562502,7.218751 c -0.207652,0.404647 -0.282482,0.6124073 -0.21875,0.75 0.09807,0.2116944 0.789574,0.8915145 1.40625,1.40625 0.194729,0.162549 0.284322,0.2416438 0.375,0.34375 0.104602,-0.2127872 0.183187,-0.3952797 0.1875,-0.46875 0.0185,-0.3150891 -0.03777,-0.4369827 -0.5625,-0.875 -0.484745,-0.4046138 -0.940478,-0.8548082 -1.1875,-1.15625 z m 5.40625,0.40625 c -0.07568,0.3486518 -0.599112,1.868303 -0.84375,2.46875 -0.339831,0.834114 -1.098256,2.177649 -1.65625,2.90625 -0.666825,0.8707 -1.30179,1.527895 -2.5,2.5625 -1.839356,1.588211 -3.646068,2.657091 -5.5000004,3.25 -0.8544604,0.273249 -1.1790379,0.321244 -1.875,0.28125 -1.3899004,-0.07942 -2.8698104,-0.915032 -3.375,-1.90625 -0.066852,-0.131175 -0.1354676,-0.240206 -0.15625,-0.375 -0.00429,0.08915 0.00256,0.170014 0,0.28125 -0.016147,0.70165 0.012942,0.812557 0.15625,1.09375 0.5051896,0.991218 1.9850996,1.826826 3.375,1.90625 0.6959621,0.03999 1.0205396,-0.008 1.875,-0.28125 1.8539324,-0.592909 3.6606444,-1.661789 5.5000004,-3.25 1.19821,-1.034605 1.833175,-1.6918 2.5,-2.5625 0.557994,-0.728601 1.316419,-2.072136 1.65625,-2.90625 0.244638,-0.600447 0.76807,-2.1200982 0.84375,-2.46875 0.05439,-0.2508801 0.02698,-0.6134679 0,-1 z"
       id="path3642" />
  </g>
</svg>
