<?xml version="1.0" encoding="UTF-8" standalone="no"?>
<!-- Created with Inkscape (http://www.inkscape.org/) -->

<svg
   xmlns:dc="http://purl.org/dc/elements/1.1/"
   xmlns:cc="http://creativecommons.org/ns#"
   xmlns:rdf="http://www.w3.org/1999/02/22-rdf-syntax-ns#"
   xmlns:svg="http://www.w3.org/2000/svg"
   xmlns="http://www.w3.org/2000/svg"
   xmlns:xlink="http://www.w3.org/1999/xlink"
   xmlns:sodipodi="http://sodipodi.sourceforge.net/DTD/sodipodi-0.dtd"
   xmlns:inkscape="http://www.inkscape.org/namespaces/inkscape"
   width="22"
   height="22"
   id="svg2"
   sodipodi:version="0.32"
   inkscape:version="0.48.1 r9760"
   version="1.0"
   sodipodi:docname="call-stop.svg"
   inkscape:output_extension="org.inkscape.output.svg.inkscape"
   inkscape:export-filename="/home/matt/.icons/Sirocco/scalable/mimetypes/text-plain.png"
   inkscape:export-xdpi="90"
   inkscape:export-ydpi="90"
   sodipodi:modified="true"
   style="display:inline">
  <sodipodi:namedview
     id="base"
     pagecolor="#838383"
     bordercolor="#cc0000"
     borderopacity="1"
     inkscape:pageopacity="1"
     inkscape:pageshadow="2"
     inkscape:zoom="22.027846"
     inkscape:cx="1.096512"
     inkscape:cy="11.473295"
     inkscape:document-units="px"
     inkscape:current-layer="layer1"
     width="128px"
     height="128px"
     inkscape:showpageshadow="false"
     inkscape:window-width="1920"
     inkscape:window-height="1030"
     inkscape:window-x="0"
     inkscape:window-y="25"
     showguides="true"
     inkscape:guide-bbox="true"
     showgrid="true"
     inkscape:window-maximized="1"
     borderlayer="true">
    <inkscape:grid
       enabled="true"
       visible="true"
       id="grid3231"
       type="xygrid"
       empspacing="8"
       snapvisiblegridlinesonly="true" />
    <sodipodi:guide
       orientation="1,0"
       position="12,6"
       id="guide3791" />
    <sodipodi:guide
       orientation="0,1"
       position="14,9"
       id="guide3793" />
  </sodipodi:namedview>
  <defs
     id="defs4">
    <linearGradient
       id="SpecificGradient"
       x1="10.406627"
       y1="2"
       x2="10.406627"
       y2="18.000771"
       gradientUnits="userSpaceOnUse">
      <stop
         style="stop-color:#e64b36;stop-opacity:1;"
         offset="0"
         id="stop3292" />
      <stop
         style="stop-color:#a31414;stop-opacity:1;"
         offset="1"
         id="stop3294" />
    </linearGradient>
    <radialGradient
       inkscape:collect="always"
       xlink:href="#SpecificGradient"
       id="radialGradient3878"
       cx="12"
       cy="13"
       fx="12"
       fy="13"
       r="8"
       gradientUnits="userSpaceOnUse"
       gradientTransform="matrix(2,0,0,1.25,-42,-3.25)" />
    <linearGradient
       y2="354.17276"
       x2="635.36859"
       y1="345.07336"
       x1="643.45673"
       gradientTransform="matrix(-0.4911552,0.43669135,-0.43657087,-0.49101968,476.68609,-95.554175)"
       gradientUnits="userSpaceOnUse"
       id="linearGradient3496"
       xlink:href="#SpecificGradient"
       inkscape:collect="always" />
    <linearGradient
       inkscape:collect="always"
       xlink:href="#SpecificGradient"
       id="linearGradient3828"
       gradientUnits="userSpaceOnUse"
       gradientTransform="matrix(-0.4911552,0.43669135,-0.43657087,-0.49101968,476.68609,-95.554175)"
       x1="633.22046"
       y1="354.29889"
       x2="642.31964"
       y2="344.06207" />
    <linearGradient
       inkscape:collect="always"
       xlink:href="#SpecificGradient"
       id="linearGradient3832"
       gradientUnits="userSpaceOnUse"
       gradientTransform="matrix(-0.4911552,0.43669135,-0.43657087,-0.49101968,476.68609,-95.554175)"
       x1="633.22046"
       y1="354.29889"
       x2="642.31964"
       y2="344.06207" />
    <linearGradient
       inkscape:collect="always"
       xlink:href="#SpecificGradient"
       id="linearGradient3834"
       gradientUnits="userSpaceOnUse"
       gradientTransform="matrix(-0.4911552,0.43669135,-0.43657087,-0.49101968,476.68609,-95.554175)"
       x1="633.22046"
       y1="354.29889"
       x2="642.31964"
       y2="344.06207" />
  </defs>
  <metadata
     id="metadata7">
    <rdf:RDF>
      <cc:Work
         rdf:about="">
        <dc:format>image/svg+xml</dc:format>
        <dc:type
           rdf:resource="http://purl.org/dc/dcmitype/StillImage" />
        <dc:title />
      </cc:Work>
    </rdf:RDF>
  </metadata>
  <g
     style="display:inline"
     inkscape:label="Calque 1"
     id="layer1"
     inkscape:groupmode="layer">
    <path
       inkscape:connector-curvature="0"
       style="opacity:0.05;fill:#ffffff;fill-opacity:1;display:inline"
       d="m 10.09375,7.0624996 c -0.5852926,0.00345 -1.1123973,0.048742 -1.6875,0.125 -1.0473766,0.1388861 -2.5330696,0.5303794 -3.5,0.9375 -0.3464758,0.1458781 -0.835676,0.3860523 -1.3125,0.625 -0.476824,0.2389477 -0.8513362,0.4489488 -1.125,0.625 C 1.6347373,9.9118046 0.92596154,10.813878 0.5,11.75 c -0.41142179,0.904149 -0.59904919,1.863468 -0.34375,2.8125 0.13593226,0.505488 0.38418458,0.886641 0.65625,1.28125 0.13603271,0.197304 0.2844784,0.366169 0.4375,0.53125 0.076511,0.08254 0.1437921,0.167671 0.25,0.25 0.1062079,0.08233 0.201272,0.19973 0.53125,0.25 0.2251621,0.0343 0.2663908,0.0087 0.34375,0 0.077359,-0.0087 0.1732126,-0.01676 0.25,-0.03125 0.1535749,-0.02897 0.2982181,-0.07542 0.46875,-0.125 0.2625722,-0.0763 1.1154167,-0.317492 1.875,-0.53125 C 5.7804033,15.959092 6.1719155,15.85033 6.5,15.71875 6.6640423,15.65296 6.8499217,15.561116 7.03125,15.375 7.2125783,15.188884 7.2894743,14.969009 7.3125,14.90625 c 0.090883,-0.247773 0.1095537,-0.334181 0.125,-0.5 0.015446,-0.165819 -0.00372,-0.362542 0,-0.5625 0.00743,-0.399916 0.00858,-0.870384 -0.03125,-1.3125 -0.015789,-0.175303 -0.029274,-0.17033 -0.03125,-0.25 0.1047261,-0.03542 0.2200221,-0.08183 0.375,-0.125 0.3874448,-0.10792 0.8545875,-0.202992 1.28125,-0.28125 1.634793,-0.29987 3.266331,-0.236487 4.9375,0.25 0.113118,0.03294 0.130117,0.03877 0.1875,0.0625 0.0049,0.05445 0.03333,0.07543 0.03125,0.1875 -0.0083,0.446731 0.0239,0.894478 0.09375,1.28125 0.06985,0.386772 0.03171,0.668599 0.4375,1.125 0.182522,0.205286 0.201586,0.187482 0.25,0.21875 0.04841,0.03127 0.1053,0.03314 0.15625,0.0625 0.1019,0.05873 0.23018,0.14175 0.375,0.21875 0.289641,0.154 0.639236,0.335048 1.03125,0.53125 0.784028,0.392404 1.612124,0.789789 2.0625,0.96875 0.282863,0.112374 0.79084,0.207405 1.21875,0.03125 0.42791,-0.176155 0.663958,-0.397824 1,-0.71875 0.256442,-0.244905 0.40107,-0.391401 0.5625,-0.59375 0.16143,-0.202349 0.310704,-0.489554 0.375,-0.6875 0.505402,-1.556055 -0.06841,-3.335228 -1.21875,-4.625 -0.50744,-0.5693187 -0.984957,-0.9172425 -1.8125,-1.3437504 -1.867791,-0.9626004 -4.074152,-1.5028835 -6.59375,-1.6875 -0.802477,-0.0588 -1.445957,-0.097198 -2.03125,-0.09375 z m 0.03125,0.9375 c 0.556408,-0.00594 1.14808,0.035907 1.9375,0.09375 2.423656,0.1775866 4.488573,0.7020717 6.21875,1.59375 0.797411,0.4109784 1.067411,0.6046004 1.53125,1.1250004 0.926647,1.038969 1.374924,2.66063 1.03125,3.71875 -0.0975,0.300168 -0.179941,0.390276 -0.6875,0.875 -0.645711,0.616665 -0.780794,0.673989 -1.21875,0.5 -0.699514,-0.277958 -3.389998,-1.626279 -3.5,-1.75 -0.181544,-0.204186 -0.326676,-0.988154 -0.3125,-1.75 0.01573,-0.845778 -0.02248,-0.930176 -0.90625,-1.1875 -1.804782,-0.525383 -3.5723,-0.606187 -5.34375,-0.28125 -0.9189328,0.168549 -2.0527097,0.477372 -2.21875,0.625 -0.2358806,0.209723 -0.248815,0.381735 -0.1875,1.0625 0.072083,0.800029 0.049093,1.749712 -0.03125,1.96875 -0.081927,0.2233 -0.09668,0.231033 -1.71875,0.6875 -0.7603682,0.213979 -1.5990646,0.451066 -1.875,0.53125 -0.2759269,0.08022 -0.5807,0.136509 -0.65625,0.125 -0.2464161,-0.03754 -0.9899074,-1.122634 -1.125,-1.625 -0.13713061,-0.50976 -0.01653,-1.533092 0.28125,-2.1875 0.3101474,-0.681601 1.1118011,-1.638434 1.625,-1.96875 0.3000453,-0.1930231 1.7149346,-0.9046551 2.3125,-1.1562504 0.8301037,-0.3495105 2.34024,-0.7543624 3.25,-0.875 0.5435973,-0.072081 1.0373418,-0.1190585 1.59375,-0.125 z"
       id="path3021" />
    <path
       inkscape:connector-curvature="0"
       style="fill:url(#linearGradient3496);fill-opacity:1;display:inline"
       d="M 2.9537495,10.147484 C 3.2537948,9.9544609 4.6943648,9.2406465 5.2919302,8.9890512 6.1220339,8.6395407 7.6084102,8.2378982 8.5181702,8.1172606 9.6053649,7.973099 10.497981,7.9635704 12.07682,8.0792566 c 2.423656,0.1775866 4.461493,0.7021661 6.19167,1.5938444 0.797411,0.410978 1.070648,0.612744 1.534487,1.133144 0.926647,1.038969 1.381583,2.678178 1.037909,3.736298 -0.0975,0.300168 -0.167038,0.390374 -0.674597,0.875098 -0.645711,0.616665 -0.776748,0.670108 -1.214704,0.496119 -0.699514,-0.277958 -3.403002,-1.619442 -3.513004,-1.743163 -0.181544,-0.204186 -0.319863,-1.002552 -0.305687,-1.764398 0.01573,-0.845778 -0.0441,-0.9218 -0.927875,-1.179124 -1.804782,-0.525383 -3.549049,-0.623153 -5.3204994,-0.298216 -0.9189328,0.168549 -2.0529649,0.499037 -2.2190052,0.646665 -0.2358806,0.209723 -0.2648934,0.357979 -0.2035784,1.038744 0.072083,0.800029 0.064323,1.75566 -0.01602,1.974698 -0.081927,0.2233 -0.1016945,0.231182 -1.7237641,0.687649 -0.7603682,0.213979 -1.6082438,0.454684 -1.8841792,0.534868 -0.2759269,0.08022 -0.5634869,0.136424 -0.6390369,0.124915 -0.2464161,-0.03754 -1.0115527,-1.120062 -1.1466453,-1.622428 -0.13713061,-0.50976 0.00625,-1.548816 0.3040304,-2.203224 0.3101474,-0.681601 1.084258,-1.63297 1.5974569,-1.963286 z"
       id="path4609"
       sodipodi:nodetypes="cssssssssssssssssssssc"
       inkscape:export-filename="/home/matthieu/Interne/Communication/Site Web/Version 3.0/Accueil temporaire/images/phone_square.png"
       inkscape:export-xdpi="90"
       inkscape:export-ydpi="90" />
    <path
       inkscape:connector-curvature="0"
       style="opacity:0.25;fill:#000000;fill-opacity:1;display:inline"
       d="m 10.125,7.9999996 c -0.5564082,0.00594 -1.0501527,0.052919 -1.59375,0.125 -0.90976,0.1206376 -2.4198963,0.5254895 -3.25,0.875 C 4.6836846,9.2515949 3.2687953,9.9632269 2.96875,10.15625 2.4555511,10.486566 1.6538974,11.443399 1.34375,12.125 1.0654749,12.736543 0.96818721,13.649997 1.0625,14.1875 1.121759,13.811447 1.2063129,13.427034 1.34375,13.125 c 0.3101474,-0.681601 1.1118011,-1.638434 1.625,-1.96875 0.3000453,-0.193023 1.7149346,-0.904655 2.3125,-1.1562504 0.8301037,-0.3495105 2.34024,-0.7543624 3.25,-0.875 1.0871947,-0.1441616 1.952411,-0.1469364 3.53125,-0.03125 2.423656,0.1775866 4.488573,0.7020713 6.21875,1.5937504 0.797411,0.410978 1.067411,0.6046 1.53125,1.125 0.59341,0.66534 0.973079,1.558839 1.09375,2.40625 C 21.081823,13.171039 20.650647,11.752242 19.8125,10.8125 19.348661,10.2921 19.078661,10.098478 18.28125,9.6874996 16.551073,8.7958213 14.486156,8.2713362 12.0625,8.0937496 11.27308,8.0359064 10.681408,7.9940581 10.125,7.9999996 z M 6.46875,12.84375 c -0.048839,0.152612 -0.035767,0.384137 0,0.78125 0.013269,0.147272 -0.0079,0.285248 0,0.4375 0.017188,-0.350378 0.03266,-0.751921 0,-1.21875 z"
       id="path4289" />
    <path
       style="fill:#000000;fill-opacity:1;display:inline;opacity:0.25"
       d="M 10.125 8 C 9.5685918 8.0059416 9.0748473 8.0529192 8.53125 8.125 C 7.62149 8.2456376 6.1113537 8.6504895 5.28125 9 C 4.6836846 9.2515953 3.2687953 9.9632269 2.96875 10.15625 C 2.4555511 10.486566 1.6538974 11.443399 1.34375 12.125 C 1.0459696 12.779408 0.92536939 13.80274 1.0625 14.3125 C 1.1975926 14.814866 1.9410839 15.89996 2.1875 15.9375 C 2.26305 15.949009 2.5678231 15.89272 2.84375 15.8125 C 3.1196854 15.732316 3.9583818 15.495229 4.71875 15.28125 C 6.3408196 14.824783 6.355573 14.81705 6.4375 14.59375 C 6.517843 14.374712 6.540833 13.425029 6.46875 12.625 C 6.407435 11.944235 6.4203694 11.772223 6.65625 11.5625 C 6.8222903 11.414872 7.9560672 11.106049 8.875 10.9375 C 10.64645 10.612563 12.413968 10.693367 14.21875 11.21875 C 15.102525 11.476074 15.14073 11.560472 15.125 12.40625 C 15.110824 13.168096 15.255956 13.952064 15.4375 14.15625 C 15.547502 14.279971 18.237986 15.628292 18.9375 15.90625 C 19.375456 16.080239 19.510539 16.022915 20.15625 15.40625 C 20.663809 14.921526 20.74625 14.831418 20.84375 14.53125 C 21.187424 13.47313 20.739147 11.851469 19.8125 10.8125 C 19.348661 10.2921 19.078661 10.098478 18.28125 9.6875 C 16.551073 8.7958217 14.486156 8.2713366 12.0625 8.09375 C 11.27308 8.0359069 10.681408 7.9940584 10.125 8 z M 10.125 8.4375 C 10.65647 8.4328603 11.2481 8.4738663 12.03125 8.53125 C 14.408844 8.7054615 16.398392 9.2361218 18.0625 10.09375 C 18.845444 10.497272 19.025844 10.628086 19.46875 11.125 C 20.288003 12.043557 20.672278 13.587192 20.40625 14.40625 C 20.364964 14.533355 20.377446 14.543591 20.3125 14.625 C 20.247554 14.706409 20.096251 14.852609 19.84375 15.09375 C 19.527226 15.396036 19.326285 15.512711 19.28125 15.53125 C 19.236215 15.549789 19.282057 15.57481 19.09375 15.5 C 18.792301 15.380217 17.925155 14.947335 17.15625 14.5625 C 16.771797 14.370082 16.429596 14.176586 16.15625 14.03125 C 16.019577 13.958582 15.890069 13.919703 15.8125 13.875 C 15.797583 13.866403 15.793237 13.850889 15.78125 13.84375 C 15.841721 13.911762 15.707382 13.689376 15.65625 13.40625 C 15.605118 13.123124 15.556 12.755578 15.5625 12.40625 C 15.570497 11.976274 15.614825 11.635472 15.375 11.3125 C 15.135175 10.989528 14.796702 10.913134 14.34375 10.78125 C 12.47482 10.237193 10.61831 10.163028 8.78125 10.5 C 8.3060343 10.587163 7.8092473 10.691543 7.375 10.8125 C 7.1578764 10.872978 6.9424697 10.941394 6.78125 11 C 6.6200303 11.058606 6.517773 11.064024 6.34375 11.21875 C 6.1829845 11.361688 6.0393072 11.60165 6 11.84375 C 5.9606928 12.08585 6.0000322 12.309647 6.03125 12.65625 C 6.0654703 13.036051 6.0689667 13.464553 6.0625 13.8125 C 6.0592666 13.986473 6.0420798 14.13374 6.03125 14.25 C 6.0204202 14.36626 5.9860956 14.475407 6 14.4375 C 5.8367942 14.502955 5.4044879 14.6156 4.59375 14.84375 C 3.833005 15.057835 3.0011012 15.292952 2.71875 15.375 C 2.5964229 15.410564 2.4478198 15.449118 2.34375 15.46875 C 2.319263 15.473369 2.3015002 15.465533 2.28125 15.46875 C 2.2691337 15.45679 2.2640189 15.452624 2.25 15.4375 C 2.1658865 15.346757 2.0762877 15.187225 1.96875 15.03125 C 1.7536746 14.719301 1.5347138 14.31659 1.5 14.1875 C 1.4196028 13.888637 1.5067795 12.847006 1.75 12.3125 C 2.0045444 11.753096 2.8595756 10.762429 3.21875 10.53125 C 3.3094112 10.472926 3.7580597 10.230863 4.21875 10 C 4.6794403 9.7691373 5.1928649 9.522407 5.46875 9.40625 C 6.2331624 9.0843984 7.7500605 8.6743764 8.59375 8.5625 C 9.1222214 8.4924249 9.5935305 8.4421397 10.125 8.4375 z "
       id="path3824" />
    <path
       inkscape:connector-curvature="0"
       style="opacity:0.2;fill:#ffffff;fill-opacity:1;display:inline"
       d="m 10.21875,10.75 c -0.440835,0.02832 -0.9008874,0.106266 -1.34375,0.1875 -0.9189328,0.168549 -2.0527097,0.477372 -2.21875,0.625 -0.2358806,0.209723 -0.248815,0.381735 -0.1875,1.0625 0.00663,0.07364 -0.00529,0.143173 0,0.21875 0.034885,-0.109009 0.089216,-0.193865 0.1875,-0.28125 0.1660403,-0.147628 1.2998172,-0.456451 2.21875,-0.625 1.77145,-0.324937 3.538968,-0.244133 5.34375,0.28125 0.883775,0.257324 0.92198,0.341722 0.90625,1.1875 -0.01418,0.761846 0.130956,1.545814 0.3125,1.75 0.110002,0.123721 2.800486,1.472042 3.5,1.75 0.437956,0.173989 0.573039,0.116665 1.21875,-0.5 0.507559,-0.484724 0.59,-0.574832 0.6875,-0.875 0.12359,-0.380516 0.130264,-0.836627 0.0625,-1.3125 -0.01854,0.110628 -0.02968,0.211444 -0.0625,0.3125 -0.0975,0.300168 -0.179941,0.390276 -0.6875,0.875 -0.645711,0.616665 -0.780794,0.673989 -1.21875,0.5 -0.699514,-0.277958 -3.389998,-1.626279 -3.5,-1.75 -0.181544,-0.204186 -0.326676,-0.988154 -0.3125,-1.75 0.01573,-0.845778 -0.02248,-0.930176 -0.90625,-1.1875 -1.353586,-0.394037 -2.677495,-0.553708 -4,-0.46875 z m -3.75,3.3125 c -0.010262,0.209185 -0.00398,0.456902 -0.03125,0.53125 -0.081927,0.2233 -0.09668,0.231033 -1.71875,0.6875 -0.7603682,0.213979 -1.5990646,0.451066 -1.875,0.53125 -0.2759269,0.08022 -0.5807,0.136509 -0.65625,0.125 -0.2464161,-0.03754 -0.9899074,-1.122634 -1.125,-1.625 -0.00898,-0.03339 0.00661,-0.08732 0,-0.125 -0.069135,0.438728 -0.0738396,0.850514 0,1.125 0.1350926,0.502366 0.8785839,1.58746 1.125,1.625 0.07555,0.01151 0.3803231,-0.04478 0.65625,-0.125 0.2759354,-0.08018 1.1146318,-0.317271 1.875,-0.53125 1.6220696,-0.456467 1.636823,-0.4642 1.71875,-0.6875 0.065553,-0.178717 0.06628,-0.856419 0.03125,-1.53125 z"
       id="path4298" />
  </g>
</svg>
