<?xml version="1.0" encoding="UTF-8" standalone="no"?>
<!-- Created with Inkscape (http://www.inkscape.org/) -->

<svg
   xmlns:dc="http://purl.org/dc/elements/1.1/"
   xmlns:cc="http://creativecommons.org/ns#"
   xmlns:rdf="http://www.w3.org/1999/02/22-rdf-syntax-ns#"
   xmlns:svg="http://www.w3.org/2000/svg"
   xmlns="http://www.w3.org/2000/svg"
   xmlns:xlink="http://www.w3.org/1999/xlink"
   xmlns:sodipodi="http://sodipodi.sourceforge.net/DTD/sodipodi-0.dtd"
   xmlns:inkscape="http://www.inkscape.org/namespaces/inkscape"
   width="22"
   height="22"
   id="svg2"
   sodipodi:version="0.32"
   inkscape:version="0.48.1 r9760"
   version="1.0"
   sodipodi:docname="dialog-apply.svg"
   inkscape:output_extension="org.inkscape.output.svg.inkscape"
   inkscape:export-filename="/home/matt/.icons/Sirocco/scalable/mimetypes/text-plain.png"
   inkscape:export-xdpi="90"
   inkscape:export-ydpi="90"
   sodipodi:modified="true"
   style="display:inline">
  <sodipodi:namedview
     id="base"
     pagecolor="#838383"
     bordercolor="#cc0000"
     borderopacity="1"
     inkscape:pageopacity="1"
     inkscape:pageshadow="2"
     inkscape:zoom="15.622586"
     inkscape:cx="0.041151363"
     inkscape:cy="17.199207"
     inkscape:document-units="px"
     inkscape:current-layer="layer1"
     width="128px"
     height="128px"
     inkscape:showpageshadow="false"
     inkscape:window-width="1920"
     inkscape:window-height="1030"
     inkscape:window-x="0"
     inkscape:window-y="25"
     showguides="true"
     inkscape:guide-bbox="true"
     showgrid="true"
     inkscape:window-maximized="1"
     borderlayer="true"
     inkscape:snap-global="true">
    <inkscape:grid
       enabled="true"
       visible="true"
       id="grid3231"
       type="xygrid"
       empspacing="8"
       snapvisiblegridlinesonly="true" />
    <sodipodi:guide
       orientation="1,0"
       position="12,6"
       id="guide3791" />
    <sodipodi:guide
       orientation="0,1"
       position="14,9"
       id="guide3793" />
  </sodipodi:namedview>
  <defs
     id="defs4">
    <linearGradient
       id="StandardGradient"
       gradientTransform="scale(0.9219544,1.0846523)"
       x1="11.998966"
       y1="0.92195445"
       x2="11.998966"
       y2="19.387045"
       gradientUnits="userSpaceOnUse">
      <stop
         style="stop-color:#000000;stop-opacity:0.23529412;"
         offset="0"
         id="stop3283" />
      <stop
         id="stop3850"
         offset="0.69999999"
         style="stop-color:#000000;stop-opacity:0.39215686;" />
      <stop
         style="stop-color:#000000;stop-opacity:0.55;"
         offset="1"
         id="stop2651" />
    </linearGradient>
    <radialGradient
       inkscape:collect="always"
       xlink:href="#StandardGradient"
       id="radialGradient3857"
       cx="12"
       cy="12.447369"
       fx="12"
       fy="12.447369"
       r="6"
       gradientTransform="matrix(2.6666667,-9.1385016e-8,5.7115635e-8,1.6666667,-50.000001,-7.7456132)"
       gradientUnits="userSpaceOnUse" />
    <linearGradient
       id="StandardGradient-5"
       gradientTransform="scale(1.1310246,0.8841541)"
       x1="11.162445"
       y1="5.6551228"
       x2="11.162445"
       y2="18.097509"
       gradientUnits="userSpaceOnUse"
       xlink:href="#StandardGradient">
      <stop
         style="stop-color:#000000;stop-opacity:0.86274511;"
         offset="0"
         id="stop3280" />
      <stop
         style="stop-color:#000000;stop-opacity:0.47058824;"
         offset="1"
         id="stop3282" />
    </linearGradient>
    <radialGradient
       inkscape:collect="always"
       xlink:href="#StandardGradient"
       id="radialGradient3872"
       cx="12"
       cy="13.517846"
       fx="12"
       fy="13.517846"
       r="7.035692"
       gradientTransform="matrix(2.2741188,0,0,0.99492699,-15.289426,-0.44926994)"
       gradientUnits="userSpaceOnUse" />
    <radialGradient
       inkscape:collect="always"
       xlink:href="#StandardGradient"
       id="radialGradient3878"
       gradientUnits="userSpaceOnUse"
       gradientTransform="matrix(2.2741188,0,0,0.99492699,-15.289426,-0.44926994)"
       cx="12"
       cy="13.517846"
       fx="12"
       fy="13.517846"
       r="7.035692" />
    <radialGradient
       inkscape:collect="always"
       xlink:href="#StandardGradient"
       id="radialGradient3882"
       gradientUnits="userSpaceOnUse"
       gradientTransform="matrix(2.2741188,0,0,0.99492699,-15.289426,-0.44926994)"
       cx="12"
       cy="13.517846"
       fx="12"
       fy="13.517846"
       r="7.035692" />
    <radialGradient
       inkscape:collect="always"
       xlink:href="#StandardGradient"
       id="radialGradient3885"
       gradientUnits="userSpaceOnUse"
       gradientTransform="matrix(2.2741188,0,0,0.99492699,-15.289426,-0.44926994)"
       cx="12"
       cy="13.517846"
       fx="12"
       fy="13.517846"
       r="7.035692" />
  </defs>
  <metadata
     id="metadata7">
    <rdf:RDF>
      <cc:Work
         rdf:about="">
        <dc:format>image/svg+xml</dc:format>
        <dc:type
           rdf:resource="http://purl.org/dc/dcmitype/StillImage" />
        <dc:title></dc:title>
      </cc:Work>
    </rdf:RDF>
  </metadata>
  <g
     style="display:inline"
     inkscape:label="Calque 1"
     id="layer1"
     inkscape:groupmode="layer">
    <path
       sodipodi:nodetypes="cccccccccccc"
       id="path3866"
       d="m 15.024509,7.9375 c 0,1.671128 -0.313247,2.03125 -1.984374,2.03125 l -2.968752,0 0,-2.96875 L 4,11.5625 10.071383,16 l 0,-3 5.000001,0 c 1.662001,0 3,-1.338 3,-3 l 0,-5 -3.046875,0 z"
       style="fill:url(#radialGradient3872);fill-opacity:1;stroke:none;display:inline"
       inkscape:connector-curvature="0" />
    <path
       inkscape:connector-curvature="0"
       style="opacity:0.05;fill:#ffffff;fill-opacity:1;stroke:none;display:inline"
       d="m 14.812501,3.9687495 a 1.0437574,1.0437574 0 0 0 -0.8125,1.03125 l 0,2.9375 c 0,0.7671015 -0.146295,0.9602055 -0.09375,0.90625 0.05255,-0.053956 -0.114404,0.09375 -0.875,0.09375 l -1.937501,0 0,-1.9375 A 1.0437574,1.0437574 0 0 0 9.4375,6.1562495 L 3.375,10.71875 a 1.0437574,1.0437574 0 0 0 0,1.6875 l 6.0625,4.4375 A 1.0437574,1.0437574 0 0 0 11.09375,16 l 0,-1.96875 3.968751,0 c 2.222132,0 4.03125,-1.809119 4.03125,-4.0312505 l 0,-5 a 1.0437574,1.0437574 0 0 0 -1.03125,-1.03125 l -3.03125,0 a 1.0437574,1.0437574 0 0 0 -0.21875,0 z m 0.21875,1.03125 3.03125,0 0,5 C 18.062501,11.662 16.724502,13 15.062501,13 l -5.000001,0 0,3 L 4,11.5625 l 6.0625,-4.5625005 0,2.96875 2.968751,0 c 1.671127,0 2,-0.3601218 2,-2.03125 l 0,-2.9375 z"
       id="path5226" />
    <path
       inkscape:connector-curvature="0"
       style="opacity:0.3;fill:#000000;fill-opacity:1;stroke:none;display:inline"
       d="m 15.031251,4.9999995 0,1 3.03125,0 0,-1 -3.03125,0 z m -4.968751,2 L 4,11.5625 l 0.6875,0.5 5.375,-4.0625005 0,-1 z m 4.968751,0.9375 c 0,1.6711282 -0.328873,2.03125 -2,2.03125 l -2.968751,0 0,1.0000005 2.968751,0 c 1.671127,0 2,-0.360122 2,-2.0312505 l 0,-1 z"
       id="BevelShadow"
       inkscape:label="#path3175" />
    <path
       style="fill:#000000;fill-opacity:1;stroke:none;display:inline;opacity:0.3"
       d="M 15.03125 5 L 15.03125 7.9375 C 15.03125 9.608628 14.702377 9.96875 13.03125 9.96875 L 10.0625 9.96875 L 10.0625 7 L 4 11.5625 L 10.0625 16 L 10.0625 13 L 15.0625 13 C 16.724501 13 18.0625 11.662 18.0625 10 L 18.0625 5 L 15.03125 5 z M 15.53125 5.5 L 17.5625 5.5 L 17.5625 10 C 17.5625 11.387166 16.449667 12.5 15.0625 12.5 L 10.0625 12.5 A 0.51213033 0.51213033 0 0 0 9.5625 13 L 9.5625 15 L 4.875 11.5625 L 9.5625 8.03125 L 9.5625 9.96875 A 0.51213033 0.51213033 0 0 0 10.0625 10.46875 L 13.03125 10.46875 C 13.903597 10.46875 14.571523 10.409564 15.03125 9.9375 C 15.490977 9.4654358 15.53125 8.8066559 15.53125 7.9375 L 15.53125 5.5 z "
       id="path3874" />
    <path
       inkscape:connector-curvature="0"
       style="opacity:0.2;fill:#ffffff;fill-opacity:1;stroke:none;display:inline"
       d="M 18.062501,9.9999995 C 18.062501,11.662 16.724502,13 15.062501,13 l -5.000001,0 0,1 5.000001,0 c 1.662001,0 3,-1.338 3,-3 l 0,-1.0000005 z M 4,11.5625 l 0,1 6.0625,4.4375 0,-1 L 4,11.5625 z"
       id="BevelHighlight"
       inkscape:label="#path3182" />
  </g>
</svg>
