<?xml version="1.0" encoding="UTF-8" standalone="no"?>
<!-- Created with Inkscape (http://www.inkscape.org/) -->

<svg
   xmlns:dc="http://purl.org/dc/elements/1.1/"
   xmlns:cc="http://creativecommons.org/ns#"
   xmlns:rdf="http://www.w3.org/1999/02/22-rdf-syntax-ns#"
   xmlns:svg="http://www.w3.org/2000/svg"
   xmlns="http://www.w3.org/2000/svg"
   xmlns:xlink="http://www.w3.org/1999/xlink"
   xmlns:sodipodi="http://sodipodi.sourceforge.net/DTD/sodipodi-0.dtd"
   xmlns:inkscape="http://www.inkscape.org/namespaces/inkscape"
   width="22"
   height="22"
   id="svg2"
   sodipodi:version="0.32"
   inkscape:version="0.48.1 r9760"
   version="1.0"
   sodipodi:docname="document-export.svg"
   inkscape:output_extension="org.inkscape.output.svg.inkscape"
   inkscape:export-filename="/home/matt/.icons/Sirocco/scalable/mimetypes/text-plain.png"
   inkscape:export-xdpi="90"
   inkscape:export-ydpi="90"
   sodipodi:modified="true"
   style="display:inline">
  <sodipodi:namedview
     id="base"
     pagecolor="#838383"
     bordercolor="#cc0000"
     borderopacity="1"
     inkscape:pageopacity="1"
     inkscape:pageshadow="2"
     inkscape:zoom="15.622586"
     inkscape:cx="0.041151363"
     inkscape:cy="17.199207"
     inkscape:document-units="px"
     inkscape:current-layer="layer1"
     width="128px"
     height="128px"
     inkscape:showpageshadow="false"
     inkscape:window-width="1920"
     inkscape:window-height="1030"
     inkscape:window-x="0"
     inkscape:window-y="25"
     showguides="true"
     inkscape:guide-bbox="true"
     showgrid="true"
     inkscape:window-maximized="1"
     borderlayer="true"
     inkscape:snap-global="true">
    <inkscape:grid
       enabled="true"
       visible="true"
       id="grid3231"
       type="xygrid"
       empspacing="8"
       snapvisiblegridlinesonly="true" />
    <sodipodi:guide
       orientation="1,0"
       position="12,6"
       id="guide3791" />
    <sodipodi:guide
       orientation="0,1"
       position="14,9"
       id="guide3793" />
  </sodipodi:namedview>
  <defs
     id="defs4">
    <linearGradient
       id="StandardGradient"
       gradientTransform="scale(0.9219544,1.0846523)"
       x1="11.998966"
       y1="0.92195445"
       x2="11.998966"
       y2="19.387045"
       gradientUnits="userSpaceOnUse">
      <stop
         style="stop-color:#000000;stop-opacity:0.23529412;"
         offset="0"
         id="stop3283" />
      <stop
         id="stop3850"
         offset="0.69999999"
         style="stop-color:#000000;stop-opacity:0.39215686;" />
      <stop
         style="stop-color:#000000;stop-opacity:0.55;"
         offset="1"
         id="stop2651" />
    </linearGradient>
    <radialGradient
       inkscape:collect="always"
       xlink:href="#StandardGradient"
       id="radialGradient4110"
       cx="12"
       cy="12.977968"
       fx="12"
       fy="12.977968"
       r="7.9771209"
       gradientTransform="matrix(2.0057362,6.7492421e-8,-3.7964486e-8,1.1282266,-12.068834,-1.64209)"
       gradientUnits="userSpaceOnUse" />
    <linearGradient
       id="StandardGradient-7"
       gradientTransform="scale(0.9219544,1.0846523)"
       x1="11.998966"
       y1="0.92195445"
       x2="11.998966"
       y2="19.387045"
       gradientUnits="userSpaceOnUse">
      <stop
         style="stop-color:#000000;stop-opacity:0.86274511;"
         offset="0"
         id="stop3283-6" />
      <stop
         style="stop-color:#000000;stop-opacity:0.47058824;"
         offset="1"
         id="stop2651-0" />
    </linearGradient>
    <radialGradient
       inkscape:collect="always"
       xlink:href="#StandardGradient"
       id="radialGradient4165"
       cx="12"
       cy="17.558823"
       fx="12"
       fy="17.558823"
       r="24"
       gradientTransform="matrix(0.66666667,0,0,0.37499999,4,6.4154414)"
       gradientUnits="userSpaceOnUse" />
    <radialGradient
       inkscape:collect="always"
       xlink:href="#StandardGradient"
       id="radialGradient4171"
       gradientUnits="userSpaceOnUse"
       gradientTransform="matrix(0.66666667,0,0,0.37499999,4,6.4154414)"
       cx="12"
       cy="17.558823"
       fx="12"
       fy="17.558823"
       r="24" />
    <radialGradient
       inkscape:collect="always"
       xlink:href="#StandardGradient"
       id="radialGradient4175"
       gradientUnits="userSpaceOnUse"
       gradientTransform="matrix(0.66666667,0,0,0.37499999,4,6.4154414)"
       cx="12"
       cy="17.558823"
       fx="12"
       fy="17.558823"
       r="24" />
    <radialGradient
       inkscape:collect="always"
       xlink:href="#StandardGradient"
       id="radialGradient4177"
       gradientUnits="userSpaceOnUse"
       gradientTransform="matrix(0.66666667,0,0,0.37499999,4,6.4154414)"
       cx="12"
       cy="17.558823"
       fx="12"
       fy="17.558823"
       r="24" />
  </defs>
  <metadata
     id="metadata7">
    <rdf:RDF>
      <cc:Work
         rdf:about="">
        <dc:format>image/svg+xml</dc:format>
        <dc:type
           rdf:resource="http://purl.org/dc/dcmitype/StillImage" />
        <dc:title></dc:title>
      </cc:Work>
    </rdf:RDF>
  </metadata>
  <g
     style="display:inline"
     inkscape:label="Calque 1"
     id="layer1"
     inkscape:groupmode="layer">
    <path
       style="opacity:0.05;fill:#ffffff;fill-opacity:1;stroke:none;display:inline"
       d="M -24.5,1 C -25.864066,1 -27,2.1359337 -27,3.5 l 0,2.5 0,1.625 0,0.375 -1,0 a 0.9933237,0.9933237 0 0 0 -1,1 l 0,4 a 0.9933237,0.9933237 0 0 0 1,1 l 1,0 0,0.375 0,3.125 c 0,1.364066 1.135934,2.5 2.5,2.5 l 11,0 c 1.364066,0 2.5,-1.135934 2.5,-2.5 l 0,-3.125 0,-6.75 L -11,6 -11,3.5 C -11,2.1359337 -12.135934,1 -13.5,1 l -11,0 z m 30,0 C 4.135934,1 3,2.1359337 3,3.5 l 0,14 C 3,18.864066 4.135934,20 5.5,20 l 11,0 c 1.364066,0 2.5,-1.135934 2.5,-2.5 l 0,-2.5625 A 0.9933237,0.9933237 0 0 0 18.375,14 l 2.3125,-2.3125 a 0.9933237,0.9933237 0 0 0 0,-1.375 L 18.34375,7.96875 A 0.9933237,0.9933237 0 0 0 19,7.03125 L 19,3.5 C 19,2.1359337 17.864066,1 16.5,1 l -11,0 z m -30,1 11,0 c 0.831,0 1.5,0.669 1.5,1.5 l 0,2.5 0,1.625 0,6.75 0,3.125 c 0,0.831 -0.669,1.5 -1.5,1.5 l -11,0 c -0.831,0 -1.5,-0.669 -1.5,-1.5 l 0,-3.125 0,-0.375 2,0 0,2.375 0,0.125 c 0,0.277 0.223,0.5 0.5,0.5 l 8.5,0 0.5,0 c 0.277,0 0.5,-0.223 0.5,-0.5 l 0,-0.125 0,-10.75 0,-1.125 C -14,4.223 -14.223,4 -14.5,4 l -9,0 C -23.777,4 -24,4.223 -24,4.5 L -24,5.625 -24,8 -26,8 -26,7.625 -26,6 -26,3.5 C -26,2.669 -25.331,2 -24.5,2 z m 30,0 11,0 C 17.331,2 18,2.669 18,3.5 l 0,3.53125 -2,-2 L 16,4.5 C 16,4.223 15.777,4 15.5,4 l -9,0 C 6.223,4 6,4.223 6,4.5 l 0,12 C 6,16.777 6.223,17 6.5,17 l 8.5,0 1,0 c 0.551359,-0.67798 0.953287,-1.015788 2,-2.0625 L 18,17.5 c 0,0.831 -0.669,1.5 -1.5,1.5 l -11,0 C 4.669,19 4,18.331 4,17.5 L 4,3.5 C 4,2.669 4.669,2 5.5,2 z M -22.90625,5 -15,5 l 0,0.625 0,10.375 -6.625,0 4.3125,-4.3125 a 0.9933237,0.9933237 0 0 0 0,-1.375 l -5,-5 A 0.9933237,0.9933237 0 0 0 -22.90625,5 z M 7,5 14.875,5 A 0.9933237,0.9933237 0 0 0 14,6 l 0,2 -4,0 A 0.9933237,0.9933237 0 0 0 9,9 l 0,4 a 0.9933237,0.9933237 0 0 0 1,1 l 4,0 0,2 -7,0 0,-11 z m -30,1 5,5 -5,5 0,-3 -5,0 0,-4 5,0 0,-3 z m 38,0 5,5 -5,5 0,-3 -5,0 0,-4 5,0 0,-3 z"
       id="path3941"
       inkscape:connector-curvature="0" />
    <path
       style="fill:url(#radialGradient4165);fill-opacity:1;stroke:none;display:inline"
       d="M -24.5,2 C -25.331,2 -26,2.669 -26,3.5 l 0,2.5 0,1.625 0,0.375 2,0 0,-2.375 0,-1.125 C -24,4.223 -23.777,4 -23.5,4 l 9,0 c 0.277,0 0.5,0.223 0.5,0.5 l 0,1.125 0,10.75 0,0.125 c 0,0.277 -0.223,0.5 -0.5,0.5 l -0.5,0 -8.5,0 c -0.277,0 -0.5,-0.223 -0.5,-0.5 l 0,-0.125 0,-2.375 -2,0 0,0.375 0,3.125 c 0,0.831 0.669,1.5 1.5,1.5 l 11,0 c 0.831,0 1.5,-0.669 1.5,-1.5 l 0,-3.125 0,-6.75 L -12,6 -12,3.5 C -12,2.669 -12.669,2 -13.5,2 l -11,0 z m 30,0 C 4.669,2 4,2.669 4,3.5 l 0,14 C 4,18.331 4.669,19 5.5,19 l 11,0 c 0.831,0 1.5,-0.669 1.5,-1.5 l 0,-2.5625 C 16.953287,15.984212 16.551359,16.32202 16,17 l -1,0 -8.5,0 C 6.223,17 6,16.777 6,16.5 L 6,4.5 C 6,4.223 6.223,4 6.5,4 l 9,0 C 15.777,4 16,4.223 16,4.5 l 0,0.53125 2,2 L 18,3.5 C 18,2.669 17.331,2 16.5,2 l -11,0 z m -28.5,4 0,3 -5,0 0,4 5,0 0,3 5,-5 -5,-5 z m 38,0 0,3 -5,0 0,4 5,0 0,3 5,-5 -5,-5 z"
       id="path2858"
       inkscape:connector-curvature="0" />
    <path
       style="fill:#000000;fill-opacity:1;stroke:none;display:inline;opacity:0.3"
       d="M -24.5 2 C -25.331 2 -26 2.669 -26 3.5 L -26 6 L -26 7.625 L -26 8 L -24 8 L -24 5.625 L -24 4.5 C -24 4.223 -23.777 4 -23.5 4 L -14.5 4 C -14.223 4 -14 4.223 -14 4.5 L -14 5.625 L -14 16.375 L -14 16.5 C -14 16.777 -14.223 17 -14.5 17 L -15 17 L -23.5 17 C -23.777 17 -24 16.777 -24 16.5 L -24 16.375 L -24 14 L -26 14 L -26 14.375 L -26 17.5 C -26 18.331 -25.331 19 -24.5 19 L -13.5 19 C -12.669 19 -12 18.331 -12 17.5 L -12 14.375 L -12 7.625 L -12 6 L -12 3.5 C -12 2.669 -12.669 2 -13.5 2 L -24.5 2 z M 5.5 2 C 4.669 2 4 2.669 4 3.5 L 4 17.5 C 4 18.331 4.669 19 5.5 19 L 16.5 19 C 17.331 19 18 18.331 18 17.5 L 18 14.9375 C 16.953287 15.984212 16.551359 16.32202 16 17 L 15 17 L 6.5 17 C 6.223 17 6 16.777 6 16.5 L 6 4.5 C 6 4.223 6.223 4 6.5 4 L 15.5 4 C 15.777 4 16 4.223 16 4.5 L 16 5.03125 L 18 7.03125 L 18 3.5 C 18 2.669 17.331 2 16.5 2 L 5.5 2 z M -24.5 2.5625 L -13.5 2.5625 C -12.973586 2.5625 -12.5625 2.9735862 -12.5625 3.5 L -12.5625 6 L -12.5625 7.625 L -12.5625 14.375 L -12.5625 17.5 C -12.5625 18.026414 -12.973586 18.4375 -13.5 18.4375 L -24.5 18.4375 C -25.026414 18.4375 -25.4375 18.026414 -25.4375 17.5 L -25.4375 14.5625 L -24.5625 14.5625 L -24.5625 16.375 L -24.5625 16.5 C -24.5625 17.081586 -24.081586 17.5625 -23.5 17.5625 L -15 17.5625 L -14.5 17.5625 C -13.918414 17.5625 -13.4375 17.081586 -13.4375 16.5 L -13.4375 16.375 L -13.4375 5.625 L -13.4375 4.5 C -13.4375 3.9184138 -13.918414 3.4375 -14.5 3.4375 L -23.5 3.4375 C -24.081586 3.4375 -24.5625 3.9184138 -24.5625 4.5 L -24.5625 5.625 L -24.5625 7.4375 L -25.4375 7.4375 L -25.4375 6 L -25.4375 3.5 C -25.4375 2.9735862 -25.026414 2.5625 -24.5 2.5625 z M 5.5 2.5625 L 16.5 2.5625 C 17.026414 2.5625 17.4375 2.9735862 17.4375 3.5 L 17.4375 5.65625 L 16.5625 4.78125 L 16.5625 4.5 C 16.5625 3.9184138 16.081586 3.4375 15.5 3.4375 L 6.5 3.4375 C 5.9184138 3.4375 5.4375 3.9184138 5.4375 4.5 L 5.4375 16.5 C 5.4375 17.081586 5.9184138 17.5625 6.5 17.5625 L 15 17.5625 L 16 17.5625 A 0.56757046 0.56757046 0 0 0 16.4375 17.34375 C 16.705909 17.0137 17.134455 16.614336 17.4375 16.3125 L 17.4375 17.5 C 17.4375 18.026414 17.026414 18.4375 16.5 18.4375 L 5.5 18.4375 C 4.9735862 18.4375 4.5625 18.026414 4.5625 17.5 L 4.5625 3.5 C 4.5625 2.9735862 4.9735862 2.5625 5.5 2.5625 z M -23 6 L -23 9 L -28 9 L -28 13 L -23 13 L -23 16 L -18 11 L -23 6 z M 15 6 L 15 9 L 10 9 L 10 13 L 15 13 L 15 16 L 20 11 L 15 6 z M -22.4375 7.375 L -18.8125 11 L -22.4375 14.625 L -22.4375 13 A 0.56757046 0.56757046 0 0 0 -23 12.4375 L -27.4375 12.4375 L -27.4375 9.5625 L -23 9.5625 A 0.56757046 0.56757046 0 0 0 -22.4375 9 L -22.4375 7.375 z M 15.5625 7.375 L 19.1875 11 L 15.5625 14.625 L 15.5625 13 A 0.56757046 0.56757046 0 0 0 15 12.4375 L 10.5625 12.4375 L 10.5625 9.5625 L 15 9.5625 A 0.56757046 0.56757046 0 0 0 15.5625 9 L 15.5625 7.375 z "
       id="path4167" />
    <path
       style="opacity:0.3;fill:#000000;fill-opacity:1;stroke:none;display:inline"
       d="M -24.5,2 C -25.331,2 -26,2.669 -26,3.5 l 0,1 C -26,3.669 -25.331,3 -24.5,3 l 11,0 c 0.831,0 1.5,0.669 1.5,1.5 l 0,-1 C -12,2.669 -12.669,2 -13.5,2 l -11,0 z m 30,0 C 4.669,2 4,2.669 4,3.5 l 0,1 C 4,3.669 4.669,3 5.5,3 l 11,0 C 17.331,3 18,3.669 18,4.5 l 0,-1 C 18,2.669 17.331,2 16.5,2 l -11,0 z m -28.5,4 0,1 4.5,4.5 0.5,-0.5 -5,-5 z m 38,0 0,1 4.5,4.5 L 20,11 15,6 z m -43,3 0,1 5,0 0,-1 -1,0 -2,0 -2,0 z m 38,0 0,1 5,0 0,-1 -5,0 z m -36,5 0,0.375 0,0.625 2,0 0,-1 -2,0 z m 44,0.9375 C 16.953287,15.984212 16.551359,16.32202 16,17 l -1,0 -8.5,0 C 6.223,17 6,16.777 6,16.5 l 0,1 C 6,17.777 6.223,18 6.5,18 l 8.5,0 1,0 c 0.551359,-0.67798 0.953287,-1.015788 2,-2.0625 l 0,-1 z m -42,1.5625 0,0.875 0,0.125 c 0,0.277 0.223,0.5 0.5,0.5 l 8.5,0 0.5,0 c 0.277,0 0.5,-0.223 0.5,-0.5 l 0,-0.125 0,-0.875 c 0,0.277 -0.223,0.5 -0.5,0.5 l -0.5,0 -8,0 -0.5,0 c -0.277,0 -0.5,-0.223 -0.5,-0.5 z"
       id="path3149"
       inkscape:connector-curvature="0" />
    <path
       style="opacity:0.2;fill:#ffffff;fill-opacity:1;stroke:none;display:inline"
       d="M -23.5,4 C -23.777,4 -24,4.223 -24,4.5 l 0,1 C -24,5.223 -23.777,5 -23.5,5 l 9,0 c 0.277,0 0.5,0.223 0.5,0.5 l 0,-1 C -14,4.223 -14.223,4 -14.5,4 l -9,0 z m 30,0 C 6.223,4 6,4.223 6,4.5 l 0,1 C 6,5.223 6.223,5 6.5,5 l 9,0 C 15.777,5 16,5.223 16,5.5 l 0,0.53125 2,2 0,-1 -2,-2 L 16,4.5 C 16,4.223 15.777,4 15.5,4 l -9,0 z m -32.5,4 0,0.625 0,0.375 2,0 0,-1 -2,0 z m 7.5,3.5 -4.5,4.5 0,1 5,-5 -0.5,-0.5 z m 38,0 -4.5,4.5 0,1 5,-5 -0.5,-0.5 z M -28,13 l 0,1 2,0 2,0 1,0 0,-1 -5,0 z m 38,0 0,1 5,0 0,-1 -5,0 z m -36,4.5 0,1 c 0,0.831 0.669,1.5 1.5,1.5 l 11,0 c 0.831,0 1.5,-0.669 1.5,-1.5 l 0,-1 c 0,0.831 -0.669,1.5 -1.5,1.5 l -11,0 c -0.831,0 -1.5,-0.669 -1.5,-1.5 z m 30,0 0,1 C 4,19.331 4.669,20 5.5,20 l 11,0 c 0.831,0 1.5,-0.669 1.5,-1.5 l 0,-1 c 0,0.831 -0.669,1.5 -1.5,1.5 l -11,0 C 4.669,19 4,18.331 4,17.5 z"
       id="path3926"
       inkscape:connector-curvature="0" />
  </g>
</svg>
