<?xml version="1.0" encoding="UTF-8" standalone="no"?>
<!-- Created with Inkscape (http://www.inkscape.org/) -->

<svg
   xmlns:dc="http://purl.org/dc/elements/1.1/"
   xmlns:cc="http://creativecommons.org/ns#"
   xmlns:rdf="http://www.w3.org/1999/02/22-rdf-syntax-ns#"
   xmlns:svg="http://www.w3.org/2000/svg"
   xmlns="http://www.w3.org/2000/svg"
   xmlns:xlink="http://www.w3.org/1999/xlink"
   xmlns:sodipodi="http://sodipodi.sourceforge.net/DTD/sodipodi-0.dtd"
   xmlns:inkscape="http://www.inkscape.org/namespaces/inkscape"
   width="22"
   height="22"
   id="svg2"
   sodipodi:version="0.32"
   inkscape:version="0.48.1 r9760"
   version="1.0"
   sodipodi:docname="document-send.svg"
   inkscape:output_extension="org.inkscape.output.svg.inkscape"
   inkscape:export-filename="/home/matt/.icons/Sirocco/scalable/mimetypes/text-plain.png"
   inkscape:export-xdpi="90"
   inkscape:export-ydpi="90"
   sodipodi:modified="true"
   style="display:inline">
  <sodipodi:namedview
     id="base"
     pagecolor="#838383"
     bordercolor="#cc0000"
     borderopacity="1"
     inkscape:pageopacity="1"
     inkscape:pageshadow="2"
     inkscape:zoom="15.622586"
     inkscape:cx="0.041151363"
     inkscape:cy="17.199207"
     inkscape:document-units="px"
     inkscape:current-layer="layer1"
     width="128px"
     height="128px"
     inkscape:showpageshadow="false"
     inkscape:window-width="1920"
     inkscape:window-height="1030"
     inkscape:window-x="0"
     inkscape:window-y="25"
     showguides="true"
     inkscape:guide-bbox="true"
     showgrid="true"
     inkscape:window-maximized="1"
     borderlayer="true"
     inkscape:snap-global="true">
    <inkscape:grid
       enabled="true"
       visible="true"
       id="grid3231"
       type="xygrid"
       empspacing="8"
       snapvisiblegridlinesonly="true" />
    <sodipodi:guide
       orientation="1,0"
       position="12,6"
       id="guide3791" />
    <sodipodi:guide
       orientation="0,1"
       position="14,9"
       id="guide3793" />
  </sodipodi:namedview>
  <defs
     id="defs4">
    <linearGradient
       id="StandardGradient"
       gradientTransform="scale(0.9219544,1.0846523)"
       x1="11.998966"
       y1="0.92195445"
       x2="11.998966"
       y2="19.387045"
       gradientUnits="userSpaceOnUse">
      <stop
         style="stop-color:#000000;stop-opacity:0.23529412;"
         offset="0"
         id="stop3283" />
      <stop
         id="stop3850"
         offset="0.69999999"
         style="stop-color:#000000;stop-opacity:0.39215686;" />
      <stop
         style="stop-color:#000000;stop-opacity:0.55;"
         offset="1"
         id="stop2651" />
    </linearGradient>
    <radialGradient
       inkscape:collect="always"
       xlink:href="#StandardGradient"
       id="radialGradient4332"
       cx="12"
       cy="12.777778"
       fx="12"
       fy="12.777778"
       r="8"
       gradientTransform="matrix(2,0,0,1.125,-12,-1.375)"
       gradientUnits="userSpaceOnUse" />
    <radialGradient
       inkscape:collect="always"
       xlink:href="#StandardGradient"
       id="radialGradient4387"
       cx="12"
       cy="13.857142"
       fx="12"
       fy="13.857142"
       r="10"
       gradientTransform="matrix(1.6,0,0,0.79999997,-7.2,1.9142862)"
       gradientUnits="userSpaceOnUse" />
    <radialGradient
       inkscape:collect="always"
       xlink:href="#StandardGradient"
       id="radialGradient4393"
       gradientUnits="userSpaceOnUse"
       gradientTransform="matrix(1.6,0,0,0.79999997,-7.2,1.9142862)"
       cx="12"
       cy="13.857142"
       fx="12"
       fy="13.857142"
       r="10" />
    <radialGradient
       inkscape:collect="always"
       xlink:href="#StandardGradient"
       id="radialGradient4397"
       gradientUnits="userSpaceOnUse"
       gradientTransform="matrix(1.6,0,0,0.79999997,-7.2,1.9142862)"
       cx="12"
       cy="13.857142"
       fx="12"
       fy="13.857142"
       r="10" />
    <radialGradient
       inkscape:collect="always"
       xlink:href="#StandardGradient"
       id="radialGradient4399"
       gradientUnits="userSpaceOnUse"
       gradientTransform="matrix(1.6,0,0,0.79999997,-7.2,1.9142862)"
       cx="12"
       cy="13.857142"
       fx="12"
       fy="13.857142"
       r="10" />
  </defs>
  <metadata
     id="metadata7">
    <rdf:RDF>
      <cc:Work
         rdf:about="">
        <dc:format>image/svg+xml</dc:format>
        <dc:type
           rdf:resource="http://purl.org/dc/dcmitype/StillImage" />
        <dc:title></dc:title>
      </cc:Work>
    </rdf:RDF>
  </metadata>
  <g
     style="display:inline"
     inkscape:label="Calque 1"
     id="layer1"
     inkscape:groupmode="layer">
    <path
       inkscape:connector-curvature="0"
       style="opacity:0.05;fill:#ffffff;fill-opacity:1;stroke:none;display:inline"
       d="M 10.5,3.03125 C 9.1426674,3.03125 8.03125,4.1426674 8.03125,5.5 l 0,5.5 0,5.5 c 0,1.357333 1.1114174,2.46875 2.46875,2.46875 l 5.5,0 3.5,0 c 1.357333,0 2.46875,-1.111417 2.46875,-2.46875 l 0,-5.5 0,-5.5 c 0,-1.3573326 -1.111417,-2.46875 -2.46875,-2.46875 l -5.5,0 -3.5,0 z M 10.5,4 14,4 19.5,4 C 20.331,4 21,4.669 21,5.5 l 0,5.5 0,5.5 C 21,17.331 20.331,18 19.5,18 L 16,18 10.5,18 C 9.669,18 9,17.331 9,16.5 L 9,11 9,5.5 C 9,4.669 9.669,4 10.5,4 z m 1,2 C 11.223,6 11,6.223 11,6.5 l 0,4.5 0,4.5 c 0,0.277 0.223,0.5 0.5,0.5 l 4.5,0 2.5,0 C 18.777,16 19,15.777 19,15.5 L 19,11 19,6.5 C 19,6.223 18.777,6 18.5,6 L 14,6 11.5,6 z m 0.46875,0.96875 2.03125,0 4.03125,0 0,4.03125 0,4.03125 -2.03125,0 -4.03125,0 0,-4.03125 0,-4.03125 z M 3.8125,7.03125 A 0.98077609,0.98077609 0 0 0 3.03125,8 l 0,1 A 0.98077609,0.98077609 0 0 0 4,9.96875 l 3,0 A 0.98077609,0.98077609 0 0 0 7.96875,9 l 0,-1 A 0.98077609,0.98077609 0 0 0 7,7.03125 l -3,0 a 0.98077609,0.98077609 0 0 0 -0.1875,0 z M 4,8 7,8 7,9 4,9 4,8 z M 0.8125,10.03125 A 0.98077609,0.98077609 0 0 0 0.03125,11 l 0,1 A 0.98077609,0.98077609 0 0 0 1,12.96875 l 6,0 A 0.98077609,0.98077609 0 0 0 7.96875,12 l 0,-1 A 0.98077609,0.98077609 0 0 0 7,10.03125 l -6,0 a 0.98077609,0.98077609 0 0 0 -0.1875,0 z M 1,11 l 6,0 0,1 -6,0 0,-1 z m 1.8125,2.03125 A 0.98077609,0.98077609 0 0 0 2.03125,14 l 0,1 A 0.98077609,0.98077609 0 0 0 3,15.96875 l 4,0 A 0.98077609,0.98077609 0 0 0 7.96875,15 l 0,-1 A 0.98077609,0.98077609 0 0 0 7,13.03125 l -4,0 a 0.98077609,0.98077609 0 0 0 -0.1875,0 z M 3,14 l 4,0 0,1 -4,0 0,-1 z"
       id="path3311" />
    <path
       inkscape:connector-curvature="0"
       style="fill:url(#radialGradient4387);fill-opacity:1;stroke:none;display:inline"
       d="M 10.5,4 C 9.669,4 9,4.669 9,5.5 l 0,5.5 0,5.5 c 0,0.831 0.669,1.5 1.5,1.5 l 5.5,0 3.5,0 C 20.331,18 21,17.331 21,16.5 L 21,11 21,5.5 C 21,4.669 20.331,4 19.5,4 L 14,4 10.5,4 z m 1,2 2.5,0 4.5,0 C 18.777,6 19,6.223 19,6.5 l 0,4.5 0,4.5 C 19,15.777 18.777,16 18.5,16 L 16,16 11.5,16 C 11.223,16 11,15.777 11,15.5 L 11,11 11,6.5 C 11,6.223 11.223,6 11.5,6 z M 4,8 4,9 7,9 7,8 4,8 z m -3,3 0,1 6,0 0,-1 -6,0 z m 2,3 0,1 4,0 0,-1 -4,0 z"
       id="path2858" />
    <path
       inkscape:connector-curvature="0"
       style="opacity:0.3;fill:#000000;fill-opacity:1;stroke:none;display:inline"
       d="M 10.5,4 C 9.669,4 9,4.669 9,5.5 l 0,1 C 9,5.669 9.669,5 10.5,5 L 14,5 19.5,5 C 20.331,5 21,5.669 21,6.5 l 0,-1 C 21,4.669 20.331,4 19.5,4 L 14,4 10.5,4 z M 4,8 4,9 7,9 7,8 4,8 z m -3,3 0,1 6,0 0,-1 -6,0 z m 2,3 0,1 4,0 0,-1 -4,0 z m 8,1.5 0,1 c 0,0.277 0.223,0.5 0.5,0.5 l 4.5,0 2.5,0 c 0.277,0 0.5,-0.223 0.5,-0.5 l 0,-1 C 19,15.777 18.777,16 18.5,16 L 16,16 11.5,16 C 11.223,16 11,15.777 11,15.5 z"
       id="path2876" />
    <path
       inkscape:connector-curvature="0"
       style="opacity:0.2;fill:#ffffff;fill-opacity:1;stroke:none;display:inline"
       d="M 11.5,6 C 11.223,6 11,6.223 11,6.5 l 0,1 C 11,7.223 11.223,7 11.5,7 L 14,7 18.5,7 C 18.777,7 19,7.223 19,7.5 l 0,-1 C 19,6.223 18.777,6 18.5,6 L 14,6 11.5,6 z M 4,9 4,10 7,10 7,9 4,9 z m -3,3 0,1 6,0 0,-1 -6,0 z m 2,3 0,1 4,0 0,-1 -4,0 z m 6,1.5 0,1 c 0,0.831 0.669,1.5 1.5,1.5 l 5.5,0 3.5,0 c 0.831,0 1.5,-0.669 1.5,-1.5 l 0,-1 C 21,17.331 20.331,18 19.5,18 L 16,18 10.5,18 C 9.669,18 9,17.331 9,16.5 z"
       id="path3657" />
    <path
       style="fill:#000000;fill-opacity:1;stroke:none;display:inline;opacity:0.3"
       d="M 10.5 4 C 9.669 4 9 4.669 9 5.5 L 9 11 L 9 16.5 C 9 17.331 9.669 18 10.5 18 L 16 18 L 19.5 18 C 20.331 18 21 17.331 21 16.5 L 21 11 L 21 5.5 C 21 4.669 20.331 4 19.5 4 L 14 4 L 10.5 4 z M 10.5 4.5 L 14 4.5 L 19.5 4.5 C 20.065655 4.5 20.5 4.934345 20.5 5.5 L 20.5 11 L 20.5 16.5 C 20.5 17.065655 20.065655 17.5 19.5 17.5 L 16 17.5 L 10.5 17.5 C 9.934345 17.5 9.5 17.065655 9.5 16.5 L 9.5 11 L 9.5 5.5 C 9.5 4.934345 9.934345 4.5 10.5 4.5 z M 11.5 5.5 C 10.957655 5.5 10.5 5.957655 10.5 6.5 L 10.5 11 L 10.5 15.5 C 10.5 16.042345 10.957655 16.5 11.5 16.5 L 16 16.5 L 18.5 16.5 C 19.042345 16.5 19.5 16.042345 19.5 15.5 L 19.5 11 L 19.5 6.5 C 19.5 5.957655 19.042345 5.5 18.5 5.5 L 14 5.5 L 11.5 5.5 z M 11.5 6 L 14 6 L 18.5 6 C 18.777 6 19 6.223 19 6.5 L 19 11 L 19 15.5 C 19 15.777 18.777 16 18.5 16 L 16 16 L 11.5 16 C 11.223 16 11 15.777 11 15.5 L 11 11 L 11 6.5 C 11 6.223 11.223 6 11.5 6 z M 4 8 L 4 9 L 7 9 L 7 8 L 4 8 z M 1 11 L 1 12 L 7 12 L 7 11 L 1 11 z M 3 14 L 3 15 L 7 15 L 7 14 L 3 14 z "
       id="path4389" />
  </g>
</svg>
