<?xml version="1.0" encoding="UTF-8" standalone="no"?>
<!-- Created with Inkscape (http://www.inkscape.org/) -->

<svg
   xmlns:dc="http://purl.org/dc/elements/1.1/"
   xmlns:cc="http://creativecommons.org/ns#"
   xmlns:rdf="http://www.w3.org/1999/02/22-rdf-syntax-ns#"
   xmlns:svg="http://www.w3.org/2000/svg"
   xmlns="http://www.w3.org/2000/svg"
   xmlns:xlink="http://www.w3.org/1999/xlink"
   xmlns:sodipodi="http://sodipodi.sourceforge.net/DTD/sodipodi-0.dtd"
   xmlns:inkscape="http://www.inkscape.org/namespaces/inkscape"
   width="22"
   height="22"
   id="svg2"
   sodipodi:version="0.32"
   inkscape:version="0.48.1 r9760"
   version="1.0"
   sodipodi:docname="document-save-all.svg"
   inkscape:output_extension="org.inkscape.output.svg.inkscape"
   inkscape:export-filename="/home/matt/.icons/Sirocco/scalable/mimetypes/text-plain.png"
   inkscape:export-xdpi="90"
   inkscape:export-ydpi="90"
   sodipodi:modified="true"
   style="display:inline">
  <sodipodi:namedview
     id="base"
     pagecolor="#838383"
     bordercolor="#cc0000"
     borderopacity="1"
     inkscape:pageopacity="1"
     inkscape:pageshadow="2"
     inkscape:zoom="22.027845"
     inkscape:cx="-2.6909042"
     inkscape:cy="7.9560966"
     inkscape:document-units="px"
     inkscape:current-layer="layer1"
     width="128px"
     height="128px"
     inkscape:showpageshadow="false"
     inkscape:window-width="1920"
     inkscape:window-height="1028"
     inkscape:window-x="0"
     inkscape:window-y="25"
     showguides="true"
     inkscape:guide-bbox="true"
     showgrid="true"
     inkscape:window-maximized="1"
     borderlayer="true"
     inkscape:snap-global="true">
    <inkscape:grid
       enabled="true"
       visible="true"
       id="grid3231"
       type="xygrid"
       empspacing="8"
       snapvisiblegridlinesonly="true" />
    <sodipodi:guide
       orientation="1,0"
       position="12,-2"
       id="guide3791" />
    <sodipodi:guide
       orientation="0,1"
       position="14,9"
       id="guide3793" />
  </sodipodi:namedview>
  <defs
     id="defs4">
    <linearGradient
       inkscape:collect="always"
       xlink:href="#StandardGradient"
       id="linearGradient2549"
       gradientUnits="userSpaceOnUse"
       gradientTransform="matrix(0.9247229,0,0,1.0872097,16.939944,2.9976422)"
       x1="11.998966"
       y1="0.92195445"
       x2="11.998966"
       y2="17.478098" />
    <inkscape:perspective
       sodipodi:type="inkscape:persp3d"
       inkscape:vp_x="0 : 11 : 1"
       inkscape:vp_y="0 : 1000 : 0"
       inkscape:vp_z="22 : 11 : 1"
       inkscape:persp3d-origin="11 : 7.3333333 : 1"
       id="perspective19" />
    <linearGradient
       id="StandardGradient"
       gradientTransform="scale(0.9219544,1.0846523)"
       x1="11.998966"
       y1="0.92195445"
       x2="11.998966"
       y2="19.387045"
       gradientUnits="userSpaceOnUse">
      <stop
         style="stop-color:#000000;stop-opacity:0.23529412;"
         offset="0"
         id="stop3283" />
      <stop
         id="stop3825"
         offset="0.69999999"
         style="stop-color:#000000;stop-opacity:0.39215686;" />
      <stop
         style="stop-color:#000000;stop-opacity:0.55;"
         offset="1"
         id="stop2651" />
    </linearGradient>
    <linearGradient
       inkscape:collect="always"
       xlink:href="#StandardGradient"
       id="linearGradient2406"
       gradientUnits="userSpaceOnUse"
       gradientTransform="matrix(0.9219544,0,0,1.0846523,0,-1)"
       x1="11.998966"
       y1="2.7658634"
       x2="11.998966"
       y2="19.387045" />
    <linearGradient
       inkscape:collect="always"
       xlink:href="#StandardGradient"
       id="linearGradient3198"
       gradientUnits="userSpaceOnUse"
       gradientTransform="matrix(0.9219544,0,0,1.0846523,0,-1)"
       x1="11.998966"
       y1="2.7658634"
       x2="11.998966"
       y2="19.387045" />
    <linearGradient
       inkscape:collect="always"
       xlink:href="#StandardGradient"
       id="linearGradient4636"
       gradientUnits="userSpaceOnUse"
       gradientTransform="matrix(0.9219544,0,0,1.0846523,-0.01723507,0.96875)"
       x1="11.998966"
       y1="2.7658634"
       x2="11.998966"
       y2="15.702114" />
    <linearGradient
       inkscape:collect="always"
       xlink:href="#StandardGradient"
       id="linearGradient2397"
       gradientUnits="userSpaceOnUse"
       gradientTransform="matrix(0.9219544,0,0,1.0846523,-0.01723507,0.96875)"
       x1="11.998966"
       y1="2.7658634"
       x2="11.998966"
       y2="15.702114" />
    <linearGradient
       inkscape:collect="always"
       xlink:href="#StandardGradient"
       id="linearGradient2402"
       gradientUnits="userSpaceOnUse"
       gradientTransform="matrix(0.9219544,0,0,1.0846523,-0.01723507,0.96875)"
       x1="11.998966"
       y1="2.7658634"
       x2="11.998966"
       y2="15.702114" />
    <linearGradient
       inkscape:collect="always"
       xlink:href="#StandardGradient"
       id="linearGradient2405"
       gradientUnits="userSpaceOnUse"
       gradientTransform="matrix(0.9219544,0,0,1.0846523,-0.01723507,-0.03125)"
       x1="11.998966"
       y1="2.7658634"
       x2="11.998966"
       y2="15.702114" />
    <linearGradient
       inkscape:collect="always"
       xlink:href="#StandardGradient"
       id="linearGradient2415"
       gradientUnits="userSpaceOnUse"
       gradientTransform="matrix(0.9219544,0,0,1.0846523,-0.01723507,-0.03125)"
       x1="11.998966"
       y1="2.7658634"
       x2="11.998966"
       y2="15.702114" />
    <linearGradient
       inkscape:collect="always"
       xlink:href="#StandardGradient"
       id="linearGradient2407"
       gradientUnits="userSpaceOnUse"
       gradientTransform="matrix(0.9219544,0,0,1.0846523,-0.01723507,-1.03125)"
       x1="11.998966"
       y1="2.7658634"
       x2="11.998966"
       y2="15.702114" />
    <linearGradient
       inkscape:collect="always"
       xlink:href="#StandardGradient"
       id="linearGradient2542"
       gradientUnits="userSpaceOnUse"
       gradientTransform="matrix(0.9247229,0,0,1.0872097,-2.060056,5.9976422)"
       x1="11.998966"
       y1="0.92195445"
       x2="11.998966"
       y2="17.478098" />
    <linearGradient
       inkscape:collect="always"
       xlink:href="#StandardGradient"
       id="linearGradient2551"
       gradientUnits="userSpaceOnUse"
       gradientTransform="matrix(0.9219544,0,0,1.0846523,-0.01723507,-1.03125)"
       x1="11.998966"
       y1="2.7658634"
       x2="11.998966"
       y2="15.702114" />
    <linearGradient
       inkscape:collect="always"
       xlink:href="#StandardGradient"
       id="linearGradient2554"
       gradientUnits="userSpaceOnUse"
       gradientTransform="matrix(0.9219544,0,0,1.0846523,-0.01723507,-1.03125)"
       x1="11.998966"
       y1="2.7658634"
       x2="11.998966"
       y2="15.702114" />
    <linearGradient
       inkscape:collect="always"
       xlink:href="#StandardGradient"
       id="linearGradient2424"
       gradientUnits="userSpaceOnUse"
       gradientTransform="matrix(0.9219544,0,0,1.0846523,-0.01723507,-0.03125)"
       x1="11.998966"
       y1="2.7658634"
       x2="11.998966"
       y2="15.702114" />
    <linearGradient
       inkscape:collect="always"
       xlink:href="#StandardGradient"
       id="linearGradient3208"
       gradientUnits="userSpaceOnUse"
       gradientTransform="matrix(0.9219544,0,0,1.0846523,-0.01723507,-0.03125)"
       x1="11.998966"
       y1="2.7658634"
       x2="11.998966"
       y2="15.702114" />
    <linearGradient
       inkscape:collect="always"
       xlink:href="#StandardGradient"
       id="linearGradient3213"
       gradientUnits="userSpaceOnUse"
       gradientTransform="matrix(0.9219544,0,0,1.0846523,-0.01723507,-0.03125)"
       x1="11.998966"
       y1="2.7658634"
       x2="11.998966"
       y2="15.702114" />
    <linearGradient
       inkscape:collect="always"
       xlink:href="#StandardGradient"
       id="linearGradient3221"
       gradientUnits="userSpaceOnUse"
       gradientTransform="matrix(0.9219544,0,0,1.0846523,-0.01723507,-0.03125)"
       x1="11.998966"
       y1="2.7658634"
       x2="11.998966"
       y2="15.702114" />
    <inkscape:perspective
       id="perspective2850"
       inkscape:persp3d-origin="0.5 : 0.33333333 : 1"
       inkscape:vp_z="1 : 0.5 : 1"
       inkscape:vp_y="0 : 1000 : 0"
       inkscape:vp_x="0 : 0.5 : 1"
       sodipodi:type="inkscape:persp3d" />
    <linearGradient
       inkscape:collect="always"
       xlink:href="#StandardGradient"
       id="linearGradient3644"
       gradientUnits="userSpaceOnUse"
       gradientTransform="matrix(0.9219544,0,0,1.0846523,-30.017235,-0.03125)"
       x1="11.998966"
       y1="2.7658634"
       x2="11.998966"
       y2="15.702114" />
    <clipPath
       clipPathUnits="userSpaceOnUse"
       id="clipPath3651">
      <path
         style="fill:#ff00ff;fill-opacity:1;stroke:none;display:inline"
         d="m -30,0 0,22 22,0 0,-22 -22,0 z m 4,2 3.96875,0 c 0.554,0 1,0.446 1,1 l 0,1 8.5,0 c 0.669688,0 1.243585,0.3963931 1.4375,1 C -11.04026,5.1544781 -11,5.326875 -11,5.5 l 0,0.5 -5,0 -1,0 -4.21875,0 L -27,6 l 0,-1 0,-2 c 0,-0.554 0.446,-1 1,-1 z m -0.5,5 5,0 8,0 2,0 c 0.831,0 1.5,0.669 1.5,1.5 l 0,8 c 0,0.831 -0.669,1.5 -1.5,1.5 l -0.5,0 0,0.25 0,1.25 c 0,0.831 -0.669,1.5 -1.5,1.5 l -8,0 c -0.831,0 -1.5,-0.669 -1.5,-1.5 l 0,-1.5 -3.5,0 c -0.831,0 -1.5,-0.669 -1.5,-1.5 l 0,-8 C -28,7.669 -27.331,7 -26.5,7 z m 6,2 C -20.777,9 -21,9.223 -21,9.5 l 0,9 c 0,0.277 0.223,0.5 0.5,0.5 l 6,0 c 0.277,0 0.5,-0.223 0.5,-0.5 l 0,-9 C -14,9.223 -14.223,9 -14.5,9 l -2.90625,0 -2.09375,0 -1,0 z"
         id="path3653"
         inkscape:connector-curvature="0" />
    </clipPath>
    <linearGradient
       inkscape:collect="always"
       xlink:href="#StandardGradient"
       id="linearGradient5006"
       gradientUnits="userSpaceOnUse"
       gradientTransform="matrix(0.9219544,0,0,1.0846523,-0.01723507,-0.03125)"
       x1="11.998966"
       y1="2.7658634"
       x2="11.998966"
       y2="15.702114" />
    <linearGradient
       inkscape:collect="always"
       xlink:href="#StandardGradient"
       id="linearGradient5010"
       gradientUnits="userSpaceOnUse"
       gradientTransform="matrix(0.9219544,0,0,1.0846523,-0.01723507,-0.03125)"
       x1="11.998966"
       y1="2.7658634"
       x2="11.998966"
       y2="15.702114" />
    <radialGradient
       inkscape:collect="always"
       xlink:href="#StandardGradient"
       id="radialGradient3799"
       gradientUnits="userSpaceOnUse"
       gradientTransform="matrix(1.1111111,-7.219351e-8,7.2193516e-8,1.1111112,-1.6666678,-1.4619872)"
       cx="15"
       cy="14.815789"
       fx="15"
       fy="14.815789"
       r="9" />
    <radialGradient
       inkscape:collect="always"
       xlink:href="#StandardGradient"
       id="radialGradient3803"
       gradientUnits="userSpaceOnUse"
       gradientTransform="matrix(1.1111111,-7.219351e-8,7.2193516e-8,1.1111112,-1.6666678,-1.4619872)"
       cx="15"
       cy="14.815789"
       fx="15"
       fy="14.815789"
       r="9" />
    <radialGradient
       inkscape:collect="always"
       xlink:href="#StandardGradient"
       id="radialGradient3805"
       gradientUnits="userSpaceOnUse"
       gradientTransform="matrix(1.1111111,-7.219351e-8,7.2193516e-8,1.1111112,-1.6666678,-1.4619872)"
       cx="15"
       cy="14.815789"
       fx="15"
       fy="14.815789"
       r="9" />
    <linearGradient
       id="StandardGradient-9"
       gradientTransform="scale(0.9219544,1.0846523)"
       x1="11.998966"
       y1="0.92195445"
       x2="11.998966"
       y2="19.387045"
       gradientUnits="userSpaceOnUse">
      <stop
         style="stop-color:#000000;stop-opacity:0.86274511;"
         offset="0"
         id="stop3283-5" />
      <stop
         style="stop-color:#000000;stop-opacity:0.47058824;"
         offset="1"
         id="stop2651-0" />
    </linearGradient>
    <radialGradient
       inkscape:collect="always"
       xlink:href="#StandardGradient"
       id="radialGradient3841"
       cx="13"
       cy="13"
       fx="13"
       fy="13"
       r="9"
       gradientUnits="userSpaceOnUse"
       gradientTransform="matrix(1.2222222,3.3333333e-8,-3.3333333e-8,1.2222222,-2.8888885,-2.8888893)" />
    <linearGradient
       id="StandardGradient-6"
       gradientTransform="scale(0.9219544,1.0846523)"
       x1="11.998966"
       y1="0.92195445"
       x2="11.998966"
       y2="19.387045"
       gradientUnits="userSpaceOnUse">
      <stop
         style="stop-color:#000000;stop-opacity:0.86274511;"
         offset="0"
         id="stop3283-50" />
      <stop
         style="stop-color:#000000;stop-opacity:0.47058824;"
         offset="1"
         id="stop2651-8" />
    </linearGradient>
    <linearGradient
       inkscape:collect="always"
       xlink:href="#StandardGradient-6"
       id="linearGradient3887"
       gradientUnits="userSpaceOnUse"
       gradientTransform="matrix(0.9247229,0,0,1.0872097,-7.0600562,-1.0023578)"
       x1="11.998966"
       y1="1.8417401"
       x2="11.998966"
       y2="20.238579" />
    <linearGradient
       inkscape:collect="always"
       xlink:href="#StandardGradient-6"
       id="linearGradient3891"
       gradientUnits="userSpaceOnUse"
       gradientTransform="matrix(0.9247229,0,0,1.0872097,-7.0600562,-1.0023578)"
       x1="11.998966"
       y1="1.8417401"
       x2="11.998966"
       y2="20.238579" />
    <linearGradient
       inkscape:collect="always"
       xlink:href="#StandardGradient-6"
       id="linearGradient3893"
       gradientUnits="userSpaceOnUse"
       gradientTransform="matrix(0.9247229,0,0,1.0872097,-7.0600562,-1.0023578)"
       x1="11.998966"
       y1="1.8417401"
       x2="11.998966"
       y2="20.238579" />
    <radialGradient
       inkscape:collect="always"
       xlink:href="#StandardGradient"
       id="radialGradient3036"
       gradientUnits="userSpaceOnUse"
       gradientTransform="matrix(1.1,0,0,1.2,-21.3,-2.6)"
       cx="13"
       cy="13"
       fx="13"
       fy="13"
       r="10" />
    <radialGradient
       inkscape:collect="always"
       xlink:href="#StandardGradient"
       id="radialGradient3049"
       gradientUnits="userSpaceOnUse"
       gradientTransform="matrix(2.7,0,0,1.2,-23.1,-2.6)"
       cx="13"
       cy="13"
       fx="13"
       fy="13"
       r="10" />
    <radialGradient
       inkscape:collect="always"
       xlink:href="#StandardGradient"
       id="radialGradient3086"
       gradientUnits="userSpaceOnUse"
       gradientTransform="matrix(2.7,0,0,1.2,-19.1,-1.6)"
       cx="13"
       cy="13"
       fx="13"
       fy="13"
       r="10" />
    <radialGradient
       inkscape:collect="always"
       xlink:href="#StandardGradient"
       id="radialGradient3878"
       gradientUnits="userSpaceOnUse"
       gradientTransform="matrix(2.7,0,0,1.2,-19.1,-1.6)"
       cx="13"
       cy="13"
       fx="13"
       fy="13"
       r="10" />
    <radialGradient
       inkscape:collect="always"
       xlink:href="#StandardGradient"
       id="radialGradient3887"
       gradientUnits="userSpaceOnUse"
       gradientTransform="matrix(2.7,0,0,1.2,-19.1,-1.6)"
       cx="13"
       cy="13"
       fx="13"
       fy="13"
       r="10" />
    <radialGradient
       inkscape:collect="always"
       xlink:href="#StandardGradient"
       id="radialGradient3891"
       gradientUnits="userSpaceOnUse"
       gradientTransform="matrix(2.7,0,0,1.2,-19.1,-1.6)"
       cx="13"
       cy="13"
       fx="13"
       fy="13"
       r="10" />
    <radialGradient
       inkscape:collect="always"
       xlink:href="#StandardGradient"
       id="radialGradient3893"
       gradientUnits="userSpaceOnUse"
       gradientTransform="matrix(2.7,0,0,1.2,-19.1,-1.6)"
       cx="13"
       cy="13"
       fx="13"
       fy="13"
       r="10" />
    <radialGradient
       inkscape:collect="always"
       xlink:href="#StandardGradient"
       id="radialGradient3898"
       gradientUnits="userSpaceOnUse"
       gradientTransform="matrix(2.7,0,0,1.2,-19.1,-0.6)"
       cx="13"
       cy="13"
       fx="13"
       fy="13"
       r="10" />
    <radialGradient
       inkscape:collect="always"
       xlink:href="#StandardGradient"
       id="radialGradient3900"
       gradientUnits="userSpaceOnUse"
       gradientTransform="matrix(2.7,0,0,1.2,-19.1,-1.6)"
       cx="13"
       cy="13"
       fx="13"
       fy="13"
       r="10" />
    <radialGradient
       inkscape:collect="always"
       xlink:href="#StandardGradient"
       id="radialGradient3909"
       gradientUnits="userSpaceOnUse"
       gradientTransform="matrix(1.6,0,0,1.2,-6.4296299,-0.6)"
       cx="11.518518"
       cy="12.166667"
       fx="11.518518"
       fy="12.166667"
       r="10" />
    <radialGradient
       inkscape:collect="always"
       xlink:href="#StandardGradient"
       id="radialGradient3913"
       gradientUnits="userSpaceOnUse"
       gradientTransform="matrix(1.6,0,0,1.2,-6.4296299,-1.6)"
       cx="11.518518"
       cy="12.166667"
       fx="11.518518"
       fy="12.166667"
       r="10" />
    <radialGradient
       inkscape:collect="always"
       xlink:href="#StandardGradient"
       id="radialGradient3920"
       gradientUnits="userSpaceOnUse"
       gradientTransform="matrix(1.6,0,0,1.2,-6.4296299,-1.6)"
       cx="11.518518"
       cy="12.166667"
       fx="11.518518"
       fy="12.166667"
       r="10" />
    <radialGradient
       inkscape:collect="always"
       xlink:href="#StandardGradient"
       id="radialGradient3924"
       gradientUnits="userSpaceOnUse"
       gradientTransform="matrix(1.6,0,0,1.2,-6.4296299,-1.6)"
       cx="11.518518"
       cy="12.166667"
       fx="11.518518"
       fy="12.166667"
       r="10" />
    <radialGradient
       inkscape:collect="always"
       xlink:href="#StandardGradient"
       id="radialGradient3055"
       gradientUnits="userSpaceOnUse"
       gradientTransform="matrix(1.6045975,-5.0043773e-8,2.4689531e-8,0.79164213,-11.496954,-2.2704524)"
       cx="14.643664"
       cy="15.5"
       fx="14.643664"
       fy="15.5"
       r="10" />
    <radialGradient
       inkscape:collect="always"
       xlink:href="#StandardGradient"
       id="radialGradient3831"
       gradientUnits="userSpaceOnUse"
       gradientTransform="matrix(1.6,0,0,1,-12.42963,-0.5)"
       cx="15.268518"
       cy="15.5"
       fx="15.268518"
       fy="15.5"
       r="10" />
    <radialGradient
       inkscape:collect="always"
       xlink:href="#StandardGradient"
       id="radialGradient3833"
       gradientUnits="userSpaceOnUse"
       gradientTransform="matrix(1.6,0,0,1,-12.42963,-1.5)"
       cx="15.268518"
       cy="15.5"
       fx="15.268518"
       fy="15.5"
       r="10" />
    <radialGradient
       inkscape:collect="always"
       xlink:href="#StandardGradient"
       id="radialGradient3840"
       gradientUnits="userSpaceOnUse"
       gradientTransform="matrix(1.6,0,0,1,-12.42963,-1.5)"
       cx="15.268518"
       cy="15.5"
       fx="15.268518"
       fy="15.5"
       r="10" />
    <radialGradient
       inkscape:collect="always"
       xlink:href="#StandardGradient"
       id="radialGradient3844"
       gradientUnits="userSpaceOnUse"
       gradientTransform="matrix(1.6,0,0,1,-12.42963,-1.5)"
       cx="15.268518"
       cy="15.5"
       fx="15.268518"
       fy="15.5"
       r="10" />
    <radialGradient
       inkscape:collect="always"
       xlink:href="#StandardGradient"
       id="radialGradient3846"
       gradientUnits="userSpaceOnUse"
       gradientTransform="matrix(1.6,0,0,1,-12.42963,-1.5)"
       cx="15.268518"
       cy="15.5"
       fx="15.268518"
       fy="15.5"
       r="10" />
    <radialGradient
       inkscape:collect="always"
       xlink:href="#StandardGradient"
       id="radialGradient3851"
       gradientUnits="userSpaceOnUse"
       gradientTransform="matrix(1.6,0,0,1,-12.42963,-0.5)"
       cx="15.268518"
       cy="15.5"
       fx="15.268518"
       fy="15.5"
       r="10" />
    <radialGradient
       inkscape:collect="always"
       xlink:href="#StandardGradient"
       id="radialGradient3855"
       gradientUnits="userSpaceOnUse"
       gradientTransform="matrix(1.6,0,0,1,-12.42963,-1.5)"
       cx="15.268518"
       cy="15.5"
       fx="15.268518"
       fy="15.5"
       r="10" />
    <radialGradient
       inkscape:collect="always"
       xlink:href="#StandardGradient"
       id="radialGradient3862"
       gradientUnits="userSpaceOnUse"
       gradientTransform="matrix(1.6,0,0,1,-12.42963,-1.5)"
       cx="15.268518"
       cy="15.5"
       fx="15.268518"
       fy="15.5"
       r="10" />
    <radialGradient
       inkscape:collect="always"
       xlink:href="#StandardGradient"
       id="radialGradient3866"
       gradientUnits="userSpaceOnUse"
       gradientTransform="matrix(1.6,0,0,1,-12.42963,-1.5)"
       cx="15.268518"
       cy="15.5"
       fx="15.268518"
       fy="15.5"
       r="10" />
    <radialGradient
       inkscape:collect="always"
       xlink:href="#StandardGradient"
       id="radialGradient3057"
       gradientUnits="userSpaceOnUse"
       gradientTransform="matrix(1.6,0,0,1,-11.42963,-2.5)"
       cx="14.643664"
       cy="15.5"
       fx="14.643664"
       fy="15.5"
       r="10" />
    <radialGradient
       inkscape:collect="always"
       xlink:href="#StandardGradient"
       id="radialGradient3061"
       gradientUnits="userSpaceOnUse"
       gradientTransform="matrix(1.6,0,0,1,-11.42963,-2.5)"
       cx="14.643664"
       cy="15.5"
       fx="14.643664"
       fy="15.5"
       r="10" />
    <radialGradient
       inkscape:collect="always"
       xlink:href="#StandardGradient"
       id="radialGradient3063"
       gradientUnits="userSpaceOnUse"
       gradientTransform="matrix(1.6,0,0,1,-11.42963,-2.5)"
       cx="14.643664"
       cy="15.5"
       fx="14.643664"
       fy="15.5"
       r="10" />
    <radialGradient
       inkscape:collect="always"
       xlink:href="#StandardGradient"
       id="radialGradient3838"
       gradientUnits="userSpaceOnUse"
       gradientTransform="matrix(1.6,0,0,1,-11.42963,-1.5)"
       cx="14.643664"
       cy="15.5"
       fx="14.643664"
       fy="15.5"
       r="10" />
    <radialGradient
       inkscape:collect="always"
       xlink:href="#StandardGradient"
       id="radialGradient3842"
       gradientUnits="userSpaceOnUse"
       gradientTransform="matrix(1.6,0,0,1,-11.42963,-2.5)"
       cx="14.643664"
       cy="15.5"
       fx="14.643664"
       fy="15.5"
       r="10" />
    <radialGradient
       inkscape:collect="always"
       xlink:href="#StandardGradient"
       id="radialGradient3847"
       gradientUnits="userSpaceOnUse"
       gradientTransform="matrix(1.6,0,0,1,-11.42963,-1.5)"
       cx="14.643664"
       cy="15.5"
       fx="14.643664"
       fy="15.5"
       r="10" />
    <radialGradient
       inkscape:collect="always"
       xlink:href="#StandardGradient"
       id="radialGradient3852"
       gradientUnits="userSpaceOnUse"
       gradientTransform="matrix(1.6,0,0,1,-11.42963,-2.5)"
       cx="14.643664"
       cy="15.5"
       fx="14.643664"
       fy="15.5"
       r="10" />
    <radialGradient
       inkscape:collect="always"
       xlink:href="#StandardGradient"
       id="radialGradient3859"
       gradientUnits="userSpaceOnUse"
       gradientTransform="matrix(1.6,0,0,1,-11.42963,-2.5)"
       cx="14.643664"
       cy="15.5"
       fx="14.643664"
       fy="15.5"
       r="10" />
    <radialGradient
       inkscape:collect="always"
       xlink:href="#StandardGradient"
       id="radialGradient3863"
       gradientUnits="userSpaceOnUse"
       gradientTransform="matrix(1.6,0,0,1,-11.42963,-2.5)"
       cx="14.643664"
       cy="15.5"
       fx="14.643664"
       fy="15.5"
       r="10" />
    <radialGradient
       inkscape:collect="always"
       xlink:href="#StandardGradient"
       id="radialGradient3090"
       gradientUnits="userSpaceOnUse"
       gradientTransform="matrix(1.6045975,0,0,0.99999996,-11.496954,-6.2895905)"
       cx="14.643518"
       cy="19.289591"
       fx="14.643518"
       fy="19.289591"
       r="10" />
    <radialGradient
       inkscape:collect="always"
       xlink:href="#StandardGradient"
       id="radialGradient3096"
       gradientUnits="userSpaceOnUse"
       gradientTransform="matrix(1.6045975,0,0,0.99999996,-11.496954,-6.2895905)"
       cx="14.643518"
       cy="19.289591"
       fx="14.643518"
       fy="19.289591"
       r="10" />
    <radialGradient
       inkscape:collect="always"
       xlink:href="#StandardGradient"
       id="radialGradient3100"
       gradientUnits="userSpaceOnUse"
       gradientTransform="matrix(1.6045975,0,0,0.99999996,-11.496954,-6.2895905)"
       cx="14.643518"
       cy="19.289591"
       fx="14.643518"
       fy="19.289591"
       r="10" />
    <radialGradient
       inkscape:collect="always"
       xlink:href="#StandardGradient"
       id="radialGradient3102"
       gradientUnits="userSpaceOnUse"
       gradientTransform="matrix(1.6045975,0,0,0.99999996,-11.496954,-6.2895905)"
       cx="14.643518"
       cy="19.289591"
       fx="14.643518"
       fy="19.289591"
       r="10" />
    <radialGradient
       inkscape:collect="always"
       xlink:href="#StandardGradient"
       id="radialGradient3109"
       gradientUnits="userSpaceOnUse"
       gradientTransform="matrix(1.6045975,0,0,0.99999996,-11.496954,-5.2895905)"
       cx="14.643518"
       cy="19.289591"
       fx="14.643518"
       fy="19.289591"
       r="10" />
    <radialGradient
       inkscape:collect="always"
       xlink:href="#StandardGradient"
       id="radialGradient3111"
       gradientUnits="userSpaceOnUse"
       gradientTransform="matrix(1.6045975,0,0,0.99999996,-11.496954,-6.2895905)"
       cx="14.643518"
       cy="19.289591"
       fx="14.643518"
       fy="19.289591"
       r="10" />
    <radialGradient
       inkscape:collect="always"
       xlink:href="#StandardGradient"
       id="radialGradient3884"
       gradientUnits="userSpaceOnUse"
       gradientTransform="matrix(1.6045975,0,0,0.99999996,-11.496954,-5.2895905)"
       cx="14.643518"
       cy="19.289591"
       fx="14.643518"
       fy="19.289591"
       r="10" />
    <radialGradient
       inkscape:collect="always"
       xlink:href="#StandardGradient"
       id="radialGradient3888"
       gradientUnits="userSpaceOnUse"
       gradientTransform="matrix(1.6045975,0,0,0.99999996,-11.496954,-6.2895905)"
       cx="14.643518"
       cy="19.289591"
       fx="14.643518"
       fy="19.289591"
       r="10" />
    <radialGradient
       inkscape:collect="always"
       xlink:href="#StandardGradient"
       id="radialGradient3895"
       gradientUnits="userSpaceOnUse"
       gradientTransform="matrix(1.6045975,0,0,0.99999996,-11.496954,-6.2895905)"
       cx="14.643518"
       cy="19.289591"
       fx="14.643518"
       fy="19.289591"
       r="10" />
    <radialGradient
       inkscape:collect="always"
       xlink:href="#StandardGradient"
       id="radialGradient3899"
       gradientUnits="userSpaceOnUse"
       gradientTransform="matrix(1.6045975,0,0,0.99999996,-11.496954,-6.2895905)"
       cx="14.643518"
       cy="19.289591"
       fx="14.643518"
       fy="19.289591"
       r="10" />
    <radialGradient
       inkscape:collect="always"
       xlink:href="#StandardGradient"
       id="radialGradient3084"
       gradientUnits="userSpaceOnUse"
       gradientTransform="matrix(1.6045975,0,0,0.99999996,-11.496954,-6.2895905)"
       cx="14.643518"
       cy="19.289591"
       fx="14.643518"
       fy="19.289591"
       r="10" />
    <radialGradient
       inkscape:collect="always"
       xlink:href="#StandardGradient"
       id="radialGradient3087"
       gradientUnits="userSpaceOnUse"
       gradientTransform="matrix(1.0697317,0,0,0.66666664,-4.664636,1.8069397)"
       cx="14.643518"
       cy="19.289591"
       fx="14.643518"
       fy="19.289591"
       r="10" />
    <radialGradient
       inkscape:collect="always"
       xlink:href="#StandardGradient"
       id="radialGradient3091"
       gradientUnits="userSpaceOnUse"
       gradientTransform="matrix(1.0697317,0,0,0.66666664,-1.664636,1.8069397)"
       cx="14.643518"
       cy="19.289591"
       fx="14.643518"
       fy="19.289591"
       r="10" />
    <radialGradient
       inkscape:collect="always"
       xlink:href="#StandardGradient"
       id="radialGradient3095"
       gradientUnits="userSpaceOnUse"
       gradientTransform="matrix(1.0697317,0,0,0.66666664,1.335364,1.8069397)"
       cx="14.643518"
       cy="19.289591"
       fx="14.643518"
       fy="19.289591"
       r="10" />
    <radialGradient
       inkscape:collect="always"
       xlink:href="#StandardGradient"
       id="radialGradient3097"
       gradientUnits="userSpaceOnUse"
       gradientTransform="matrix(1.6045975,0,0,0.99999996,-11.496954,-5.2895905)"
       cx="14.643518"
       cy="19.289591"
       fx="14.643518"
       fy="19.289591"
       r="10" />
    <radialGradient
       inkscape:collect="always"
       xlink:href="#StandardGradient"
       id="radialGradient3101"
       gradientUnits="userSpaceOnUse"
       gradientTransform="matrix(1.6045975,0,0,0.99999996,-10.496954,-1.2895905)"
       cx="14.643518"
       cy="18.289591"
       fx="14.643518"
       fy="18.289591"
       r="10" />
    <radialGradient
       inkscape:collect="always"
       xlink:href="#StandardGradient"
       id="radialGradient3107"
       gradientUnits="userSpaceOnUse"
       gradientTransform="matrix(1.6045975,0,0,0.99999996,-11.496954,-5.2895905)"
       cx="14.643518"
       cy="18.289591"
       fx="14.643518"
       fy="18.289591"
       r="10" />
    <radialGradient
       inkscape:collect="always"
       xlink:href="#StandardGradient"
       id="radialGradient3112"
       gradientUnits="userSpaceOnUse"
       gradientTransform="matrix(1.6045975,0,0,0.99999996,-11.496954,-5.2895905)"
       cx="14.643518"
       cy="18.289591"
       fx="14.643518"
       fy="18.289591"
       r="10" />
    <radialGradient
       inkscape:collect="always"
       xlink:href="#StandardGradient"
       id="radialGradient3114"
       gradientUnits="userSpaceOnUse"
       gradientTransform="matrix(1.6045975,0,0,0.99999996,-11.496954,-5.2895905)"
       cx="14.643518"
       cy="18.289591"
       fx="14.643518"
       fy="18.289591"
       r="10" />
    <radialGradient
       inkscape:collect="always"
       xlink:href="#StandardGradient"
       id="radialGradient3889"
       gradientUnits="userSpaceOnUse"
       gradientTransform="matrix(1.6045975,0,0,0.99999996,-11.496954,-4.2895905)"
       cx="14.643518"
       cy="18.289591"
       fx="14.643518"
       fy="18.289591"
       r="10" />
    <radialGradient
       inkscape:collect="always"
       xlink:href="#StandardGradient"
       id="radialGradient3892"
       gradientUnits="userSpaceOnUse"
       gradientTransform="matrix(1.6045975,0,0,0.99999996,-11.496954,-5.2895905)"
       cx="14.643518"
       cy="18.289591"
       fx="14.643518"
       fy="18.289591"
       r="10" />
    <radialGradient
       inkscape:collect="always"
       xlink:href="#StandardGradient"
       id="radialGradient3897"
       gradientUnits="userSpaceOnUse"
       gradientTransform="matrix(1.6045975,0,0,0.99999996,-11.496954,-4.2895905)"
       cx="14.643518"
       cy="18.289591"
       fx="14.643518"
       fy="18.289591"
       r="10" />
    <radialGradient
       inkscape:collect="always"
       xlink:href="#StandardGradient"
       id="radialGradient3901"
       gradientUnits="userSpaceOnUse"
       gradientTransform="matrix(1.6045975,0,0,0.99999996,-11.496954,-5.2895905)"
       cx="14.643518"
       cy="18.289591"
       fx="14.643518"
       fy="18.289591"
       r="10" />
    <radialGradient
       inkscape:collect="always"
       xlink:href="#StandardGradient"
       id="radialGradient3908"
       gradientUnits="userSpaceOnUse"
       gradientTransform="matrix(1.6045975,0,0,0.99999996,-11.496954,-5.2895905)"
       cx="14.643518"
       cy="18.289591"
       fx="14.643518"
       fy="18.289591"
       r="10" />
    <radialGradient
       inkscape:collect="always"
       xlink:href="#StandardGradient"
       id="radialGradient3912"
       gradientUnits="userSpaceOnUse"
       gradientTransform="matrix(1.6045975,0,0,0.99999996,-11.496954,-5.2895905)"
       cx="14.643518"
       cy="18.289591"
       fx="14.643518"
       fy="18.289591"
       r="10" />
    <radialGradient
       inkscape:collect="always"
       xlink:href="#StandardGradient"
       id="radialGradient3108"
       gradientUnits="userSpaceOnUse"
       gradientTransform="matrix(1.6045975,0,0,0.99999996,7.503046,-8.28959)"
       cx="14.643518"
       cy="18.289591"
       fx="14.643518"
       fy="18.289591"
       r="10" />
    <radialGradient
       inkscape:collect="always"
       xlink:href="#StandardGradient"
       id="radialGradient3113"
       gradientUnits="userSpaceOnUse"
       gradientTransform="matrix(1.6045975,0,0,0.99999996,-4.496954,-7.28959)"
       cx="14.643518"
       cy="18.289591"
       fx="14.643518"
       fy="18.289591"
       r="10" />
    <radialGradient
       inkscape:collect="always"
       xlink:href="#StandardGradient"
       id="radialGradient3117"
       gradientUnits="userSpaceOnUse"
       gradientTransform="matrix(1.6045975,0,0,0.99999996,-16.496954,-7.28959)"
       cx="14.643518"
       cy="18.289591"
       fx="14.643518"
       fy="18.289591"
       r="10" />
    <radialGradient
       inkscape:collect="always"
       xlink:href="#StandardGradient"
       id="radialGradient3120"
       gradientUnits="userSpaceOnUse"
       gradientTransform="matrix(1.6045975,0,0,0.99999996,-10.496954,-1.2895905)"
       cx="14.020309"
       cy="15.289591"
       fx="14.020309"
       fy="15.289591"
       r="10" />
    <radialGradient
       inkscape:collect="always"
       xlink:href="#StandardGradient"
       id="radialGradient3126"
       gradientUnits="userSpaceOnUse"
       gradientTransform="matrix(1.6045975,0,0,0.99999996,-10.496954,-1.2895905)"
       cx="14.020309"
       cy="15.289591"
       fx="14.020309"
       fy="15.289591"
       r="10" />
    <radialGradient
       inkscape:collect="always"
       xlink:href="#StandardGradient"
       id="radialGradient3130"
       gradientUnits="userSpaceOnUse"
       gradientTransform="matrix(1.6045975,0,0,0.99999996,-10.496954,-1.2895905)"
       cx="14.020309"
       cy="15.289591"
       fx="14.020309"
       fy="15.289591"
       r="10" />
    <radialGradient
       inkscape:collect="always"
       xlink:href="#StandardGradient"
       id="radialGradient3132"
       gradientUnits="userSpaceOnUse"
       gradientTransform="matrix(1.6045975,0,0,0.99999996,-10.496954,-1.2895905)"
       cx="14.020309"
       cy="15.289591"
       fx="14.020309"
       fy="15.289591"
       r="10" />
    <radialGradient
       inkscape:collect="always"
       xlink:href="#StandardGradient"
       id="radialGradient3139"
       gradientUnits="userSpaceOnUse"
       gradientTransform="matrix(1.6045975,0,0,0.99999996,-10.496954,-0.2895905)"
       cx="14.020309"
       cy="15.289591"
       fx="14.020309"
       fy="15.289591"
       r="10" />
    <radialGradient
       inkscape:collect="always"
       xlink:href="#StandardGradient"
       id="radialGradient3141"
       gradientUnits="userSpaceOnUse"
       gradientTransform="matrix(1.6045975,0,0,0.99999996,-10.496954,-1.2895905)"
       cx="14.020309"
       cy="15.289591"
       fx="14.020309"
       fy="15.289591"
       r="10" />
    <radialGradient
       inkscape:collect="always"
       xlink:href="#StandardGradient"
       id="radialGradient3914"
       gradientUnits="userSpaceOnUse"
       gradientTransform="matrix(1.6045975,0,0,0.99999996,-10.496954,-0.2895905)"
       cx="14.020309"
       cy="15.289591"
       fx="14.020309"
       fy="15.289591"
       r="10" />
    <radialGradient
       inkscape:collect="always"
       xlink:href="#StandardGradient"
       id="radialGradient3918"
       gradientUnits="userSpaceOnUse"
       gradientTransform="matrix(1.6045975,0,0,0.99999996,-10.496954,-1.2895905)"
       cx="14.020309"
       cy="15.289591"
       fx="14.020309"
       fy="15.289591"
       r="10" />
    <radialGradient
       inkscape:collect="always"
       xlink:href="#StandardGradient"
       id="radialGradient3925"
       gradientUnits="userSpaceOnUse"
       gradientTransform="matrix(1.6045975,0,0,0.99999996,-10.496954,-1.2895905)"
       cx="14.020309"
       cy="15.289591"
       fx="14.020309"
       fy="15.289591"
       r="10" />
    <radialGradient
       inkscape:collect="always"
       xlink:href="#StandardGradient"
       id="radialGradient3929"
       gradientUnits="userSpaceOnUse"
       gradientTransform="matrix(1.6045975,0,0,0.99999996,-10.496954,-1.2895905)"
       cx="14.020309"
       cy="15.289591"
       fx="14.020309"
       fy="15.289591"
       r="10" />
  </defs>
  <metadata
     id="metadata7">
    <rdf:RDF>
      <cc:Work
         rdf:about="">
        <dc:format>image/svg+xml</dc:format>
        <dc:type
           rdf:resource="http://purl.org/dc/dcmitype/StillImage" />
        <dc:title></dc:title>
      </cc:Work>
    </rdf:RDF>
  </metadata>
  <g
     style="display:inline"
     inkscape:label="Calque 1"
     id="layer1"
     inkscape:groupmode="layer">
    <path
       style="fill:#ffffff;fill-opacity:1;stroke:none;display:inline;opacity:0.05"
       d="M 2.8125 2 A 1.0353164 1.0353164 0 0 0 1.96875 3.03125 L 1.96875 4.03125 A 1.0353164 1.0353164 0 0 0 2.09375 4.53125 A 1.0353164 1.0353164 0 0 0 1.96875 5.03125 L 1.96875 6.96875 L 1 6.96875 A 1.0353164 1.0353164 0 0 0 0.1875 8.65625 L 4.1875 13.65625 A 1.0353164 1.0353164 0 0 0 4.96875 14.03125 A 1.0353164 1.0353164 0 0 0 5.21875 14.65625 L 10.21875 20.65625 A 1.0353164 1.0353164 0 0 0 11.78125 20.65625 L 16.78125 14.65625 A 1.0353164 1.0353164 0 0 0 17.03125 14.03125 A 1.0353164 1.0353164 0 0 0 17.8125 13.65625 L 21.8125 8.65625 A 1.0353164 1.0353164 0 0 0 21 6.96875 L 20.03125 6.96875 L 20.03125 5.03125 A 1.0353164 1.0353164 0 0 0 19.90625 4.53125 A 1.0353164 1.0353164 0 0 0 20.03125 4.03125 L 20.03125 3.03125 A 1.0353164 1.0353164 0 0 0 19 2 L 15 2 A 1.0353164 1.0353164 0 0 0 13.96875 3.03125 L 13.96875 4.03125 A 1.0353164 1.0353164 0 0 0 14.09375 4.53125 A 1.0353164 1.0353164 0 0 0 13.96875 5.03125 L 13.96875 5.625 A 1.0353164 1.0353164 0 0 0 13 5 L 9 5 A 1.0353164 1.0353164 0 0 0 8.03125 5.65625 L 8.03125 5.03125 A 1.0353164 1.0353164 0 0 0 7.90625 4.53125 A 1.0353164 1.0353164 0 0 0 8.03125 4.03125 L 8.03125 3.03125 A 1.0353164 1.0353164 0 0 0 7 2 L 3 2 A 1.0353164 1.0353164 0 0 0 2.90625 2 A 1.0353164 1.0353164 0 0 0 2.8125 2 z M 3 3.03125 L 7 3.03125 L 7 4.03125 L 3 4.03125 L 3 3.03125 z M 15 3.03125 L 19 3.03125 L 19 4.03125 L 15 4.03125 L 15 3.03125 z M 3 5.03125 L 7 5.03125 L 7 8 L 9 8 L 9 8.03125 L 13 8.03125 L 13 8 L 15 8 L 15 5.03125 L 19 5.03125 L 19 8 L 21 8 L 17 13 L 13 8.03125 L 13 10.03125 L 9 10.03125 L 9 8.03125 L 5 13 L 1 8 L 3 8 L 3 5.03125 z M 9 6.03125 L 13 6.03125 L 13 7.03125 L 9 7.03125 L 9 6.03125 z M 7.96875 10.96875 A 1.0353164 1.0353164 0 0 0 7.96875 11.03125 L 7.96875 12.96875 L 6.375 12.96875 L 7.96875 10.96875 z M 14.03125 10.96875 L 15.625 12.96875 L 14.03125 12.96875 L 14.03125 11.03125 A 1.0353164 1.0353164 0 0 0 14.03125 10.96875 z M 9 11.03125 L 13 11.03125 L 13 14 L 16 14 L 11 20 L 6 14 L 9 14 L 9 11.03125 z "
       id="path3927" />
    <path
       style="fill:url(#radialGradient3120);fill-opacity:1;stroke:none;display:inline"
       d="M 3 3.03125 L 3 4.03125 L 7 4.03125 L 7 3.03125 L 3 3.03125 z M 15 3.03125 L 15 4.03125 L 19 4.03125 L 19 3.03125 L 15 3.03125 z M 3 5.03125 L 3 8 L 1 8 L 5 13 L 9 8.03125 L 9 8 L 7 8 L 7 5.03125 L 3 5.03125 z M 9 8.03125 L 9 10.03125 L 13 10.03125 L 13 8.03125 L 9 8.03125 z M 13 8.03125 L 17 13 L 21 8 L 19 8 L 19 5.03125 L 15 5.03125 L 15 8 L 13 8 L 13 8.03125 z M 9 6.03125 L 9 7.03125 L 13 7.03125 L 13 6.03125 L 9 6.03125 z M 9 11.03125 L 9 14 L 6 14 L 11 20 L 16 14 L 13 14 L 13 11.03125 L 9 11.03125 z "
       id="path3082" />
    <path
       sodipodi:nodetypes="ccccccccccccc"
       inkscape:connector-curvature="0"
       id="path3106"
       d="m 27,2.03125 0,1 3,0 0,-1 z m 0,2 L 27,7 25,7 28.546029,11 32,7 30,7 30,4.03125 z"
       style="fill:url(#radialGradient3108);fill-opacity:1;stroke:none;display:inline" />
    <path
       style="fill:#000000;fill-opacity:1;stroke:none;display:inline;opacity:0.3"
       d="M 3 3.03125 L 3 4.03125 L 7 4.03125 L 7 3.03125 L 3 3.03125 z M 15 3.03125 L 15 4.03125 L 19 4.03125 L 19 3.03125 L 15 3.03125 z M 3.46875 3.5 L 6.53125 3.5 L 6.53125 3.5625 L 3.46875 3.5625 L 3.46875 3.5 z M 15.46875 3.5 L 18.53125 3.5 L 18.53125 3.5625 L 15.46875 3.5625 L 15.46875 3.5 z M 3 5.03125 L 3 8 L 1 8 L 5 13 L 9 8.03125 L 9 8 L 7 8 L 7 5.03125 L 3 5.03125 z M 9 8.03125 L 9 10.03125 L 13 10.03125 L 13 8.03125 L 9 8.03125 z M 13 8.03125 L 17 13 L 21 8 L 19 8 L 19 5.03125 L 15 5.03125 L 15 8 L 13 8 L 13 8.03125 z M 3.46875 5.5 L 6.53125 5.5 L 6.53125 8 A 0.45528047 0.45528047 0 0 0 7 8.46875 L 8.0625 8.46875 L 5 12.28125 L 1.9375 8.46875 L 3 8.46875 A 0.45528047 0.45528047 0 0 0 3.46875 8 L 3.46875 5.5 z M 15.46875 5.5 L 18.53125 5.5 L 18.53125 8 A 0.45528047 0.45528047 0 0 0 19 8.46875 L 20.0625 8.46875 L 17 12.28125 L 13.9375 8.46875 L 15 8.46875 A 0.45528047 0.45528047 0 0 0 15.46875 8 L 15.46875 5.5 z M 9 6.03125 L 9 7.03125 L 13 7.03125 L 13 6.03125 L 9 6.03125 z M 9.46875 6.5 L 12.53125 6.5 L 12.53125 6.5625 L 9.46875 6.5625 L 9.46875 6.5 z M 9.46875 8.5 L 12.53125 8.5 L 12.53125 9.5625 L 9.46875 9.5625 L 9.46875 8.5 z M 9 11.03125 L 9 14 L 6 14 L 11 20 L 16 14 L 13 14 L 13 11.03125 L 9 11.03125 z M 9.46875 11.5 L 12.53125 11.5 L 12.53125 14 A 0.45528047 0.45528047 0 0 0 13 14.46875 L 15.03125 14.46875 L 11 19.3125 L 6.96875 14.46875 L 9 14.46875 A 0.45528047 0.45528047 0 0 0 9.46875 14 L 9.46875 11.5 z "
       id="path3122" />
    <path
       style="fill:#000000;fill-opacity:1;stroke:none;display:inline;opacity:0.3"
       d="M 3 3.03125 L 3 4.03125 L 7 4.03125 L 7 3.03125 L 3 3.03125 z M 15 3.03125 L 15 4.03125 L 19 4.03125 L 19 3.03125 L 15 3.03125 z M 3 5.03125 L 3 6.03125 L 7 6.03125 L 7 5.03125 L 3 5.03125 z M 15 5.03125 L 15 6.03125 L 19 6.03125 L 19 5.03125 L 15 5.03125 z M 9 6.03125 L 9 7.03125 L 13 7.03125 L 13 6.03125 L 9 6.03125 z M 1 8 L 1.8125 9 L 3 9 L 3 8 L 1 8 z M 7 8 L 7 9 L 8.21875 9 L 9 8.03125 L 9 8 L 7 8 z M 9 8.03125 L 9 9 L 9 9.03125 L 13 9.03125 L 13 9 L 13 8.03125 L 9 8.03125 z M 13 8.03125 L 13.78125 9 L 15 9 L 15 8 L 13 8 L 13 8.03125 z M 19 8 L 19 9 L 20.1875 9 L 21 8 L 19 8 z M 9 11.03125 L 9 12.03125 L 13 12.03125 L 13 11.03125 L 9 11.03125 z M 6 14 L 6.84375 15 L 9 15 L 9 14 L 6 14 z M 13 14 L 13 15 L 15.15625 15 L 16 14 L 13 14 z "
       id="path3135" />
    <path
       style="fill:#ffffff;fill-opacity:1;stroke:none;display:inline;opacity:0.2"
       d="M 3 4.03125 L 3 5.03125 L 7 5.03125 L 7 4.03125 L 3 4.03125 z M 15 4.03125 L 15 5.03125 L 19 5.03125 L 19 4.03125 L 15 4.03125 z M 9 7.03125 L 9 8 L 9 8.03125 L 13 8.03125 L 13 8 L 13 7.03125 L 9 7.03125 z M 1 9 L 5 14 L 9 9.03125 L 9 9 L 8.21875 9 L 5 13 L 1.8125 9 L 1 9 z M 13 9 L 13 9.03125 L 17 14 L 21 9 L 20.1875 9 L 17 13 L 13.78125 9 L 13 9 z M 9 10.03125 L 9 11.03125 L 13 11.03125 L 13 10.03125 L 9 10.03125 z M 6 15 L 11 21 L 16 15 L 15.15625 15 L 11 20 L 6.84375 15 L 6 15 z "
       id="path3912" />
  </g>
</svg>
