<?xml version="1.0" encoding="UTF-8" standalone="no"?>
<!-- Created with Inkscape (http://www.inkscape.org/) -->

<svg
   xmlns:dc="http://purl.org/dc/elements/1.1/"
   xmlns:cc="http://creativecommons.org/ns#"
   xmlns:rdf="http://www.w3.org/1999/02/22-rdf-syntax-ns#"
   xmlns:svg="http://www.w3.org/2000/svg"
   xmlns="http://www.w3.org/2000/svg"
   xmlns:xlink="http://www.w3.org/1999/xlink"
   xmlns:sodipodi="http://sodipodi.sourceforge.net/DTD/sodipodi-0.dtd"
   xmlns:inkscape="http://www.inkscape.org/namespaces/inkscape"
   width="22"
   height="22"
   id="svg2"
   sodipodi:version="0.32"
   inkscape:version="0.48.1 r9760"
   version="1.0"
   sodipodi:docname="edit-select-all.svg"
   inkscape:output_extension="org.inkscape.output.svg.inkscape"
   inkscape:export-filename="/home/matt/.icons/Sirocco/scalable/mimetypes/text-plain.png"
   inkscape:export-xdpi="90"
   inkscape:export-ydpi="90"
   sodipodi:modified="true"
   style="display:inline">
  <sodipodi:namedview
     id="base"
     pagecolor="#838383"
     bordercolor="#cc0000"
     borderopacity="1"
     inkscape:pageopacity="1"
     inkscape:pageshadow="2"
     inkscape:zoom="15.622586"
     inkscape:cx="0.041151363"
     inkscape:cy="17.199207"
     inkscape:document-units="px"
     inkscape:current-layer="layer1"
     width="128px"
     height="128px"
     inkscape:showpageshadow="false"
     inkscape:window-width="1920"
     inkscape:window-height="1030"
     inkscape:window-x="0"
     inkscape:window-y="25"
     showguides="true"
     inkscape:guide-bbox="true"
     showgrid="true"
     inkscape:window-maximized="1"
     borderlayer="true"
     inkscape:snap-global="true">
    <inkscape:grid
       enabled="true"
       visible="true"
       id="grid3231"
       type="xygrid"
       empspacing="8"
       snapvisiblegridlinesonly="true" />
    <sodipodi:guide
       orientation="1,0"
       position="12,6"
       id="guide3791" />
    <sodipodi:guide
       orientation="0,1"
       position="14,9"
       id="guide3793" />
  </sodipodi:namedview>
  <defs
     id="defs4">
    <linearGradient
       id="StandardGradient"
       gradientTransform="scale(0.9219544,1.0846523)"
       x1="11.998966"
       y1="0.92195445"
       x2="11.998966"
       y2="19.387045"
       gradientUnits="userSpaceOnUse">
      <stop
         style="stop-color:#000000;stop-opacity:0.23529412;"
         offset="0"
         id="stop3283" />
      <stop
         id="stop3850"
         offset="0.69999999"
         style="stop-color:#000000;stop-opacity:0.39215686;" />
      <stop
         style="stop-color:#000000;stop-opacity:0.55;"
         offset="1"
         id="stop2651" />
    </linearGradient>
    <radialGradient
       inkscape:collect="always"
       xlink:href="#StandardGradient"
       id="radialGradient4332"
       cx="12"
       cy="12.777778"
       fx="12"
       fy="12.777778"
       r="8"
       gradientTransform="matrix(2,0,0,1.125,-12,-1.375)"
       gradientUnits="userSpaceOnUse" />
    <radialGradient
       inkscape:collect="always"
       xlink:href="#StandardGradient"
       id="radialGradient4338"
       gradientUnits="userSpaceOnUse"
       gradientTransform="matrix(2,0,0,1.125,-12,-1.375)"
       cx="12"
       cy="12.777778"
       fx="12"
       fy="12.777778"
       r="8" />
    <radialGradient
       inkscape:collect="always"
       xlink:href="#StandardGradient"
       id="radialGradient4342"
       gradientUnits="userSpaceOnUse"
       gradientTransform="matrix(2,0,0,1.125,-12,-1.375)"
       cx="12"
       cy="12.777778"
       fx="12"
       fy="12.777778"
       r="8" />
    <radialGradient
       inkscape:collect="always"
       xlink:href="#StandardGradient"
       id="radialGradient4344"
       gradientUnits="userSpaceOnUse"
       gradientTransform="matrix(2,0,0,1.125,-12,-1.375)"
       cx="12"
       cy="12.777778"
       fx="12"
       fy="12.777778"
       r="8" />
  </defs>
  <metadata
     id="metadata7">
    <rdf:RDF>
      <cc:Work
         rdf:about="">
        <dc:format>image/svg+xml</dc:format>
        <dc:type
           rdf:resource="http://purl.org/dc/dcmitype/StillImage" />
        <dc:title></dc:title>
      </cc:Work>
    </rdf:RDF>
  </metadata>
  <g
     style="display:inline"
     inkscape:label="Calque 1"
     id="layer1"
     inkscape:groupmode="layer">
    <path
       inkscape:connector-curvature="0"
       style="opacity:0.05;fill:#ffffff;fill-opacity:1;stroke:none;display:inline"
       d="M 4.5,1 C 3.1292547,1 2,2.1292547 2,3.5 l 0,15 C 2,19.870745 3.1292547,21 4.5,21 l 13,0 c 1.370745,0 2.5,-1.129255 2.5,-2.5 l 0,-15 C 20,2.1292547 18.870745,1 17.5,1 l -13,0 z m 0,1 13,0 C 18.331,2 19,2.669 19,3.5 l 0,15 c 0,0.831 -0.669,1.5 -1.5,1.5 l -13,0 C 3.669,20 3,19.331 3,18.5 L 3,3.5 C 3,2.669 3.669,2 4.5,2 z m 1,2 C 5.223,4 5,4.223 5,4.5 l 0,13 C 5,17.777 5.223,18 5.5,18 l 11,0 c 0.277,0 0.5,-0.223 0.5,-0.5 l 0,-13 C 17,4.223 16.777,4 16.5,4 L 5.5,4 z M 6,5 6.8125,5 A 1.0057694,1.0057694 0 0 0 6,5.8125 L 6,5 z M 15.1875,5 16,5 16,5.8125 A 1.0057694,1.0057694 0 0 0 15.1875,5 z M 7,6 15,6 15,8 7,8 7,6 z M 6,8.1875 A 1.0057694,1.0057694 0 0 0 6.78125,9 1.0057694,1.0057694 0 0 0 6,9.8125 l 0,-1.625 z m 10,0 0,1.625 A 1.0057694,1.0057694 0 0 0 15.21875,9 1.0057694,1.0057694 0 0 0 16,8.1875 z M 7,10 l 8,0 0,2 -8,0 0,-2 z M 6,12.1875 A 1.0057694,1.0057694 0 0 0 6.78125,13 1.0057694,1.0057694 0 0 0 6,13.8125 l 0,-1.625 z m 10,0 0,4.8125 -1,0 0,-1 A 1.0057694,1.0057694 0 0 0 14.1875,15 1.0057694,1.0057694 0 0 0 15,14 l 0,-1 a 1.0057694,1.0057694 0 0 0 1,-0.8125 z M 11,13 l 1,0 1,0 1,0 0,1 -1,0 0,2 1,0 0,1 -3,0 0,-1 1,0 0,-2 -1,0 0,-1 z m -4,1 3,0 0,2 -3,0 0,-2 z M 6,16.1875 A 1.0057694,1.0057694 0 0 0 6.8125,17 L 6,17 6,16.1875 z"
       id="path4535" />
    <path
       inkscape:connector-curvature="0"
       style="fill:url(#radialGradient4332);fill-opacity:1;stroke:none;display:inline"
       d="M 4.5,2 C 3.669,2 3,2.669 3,3.5 l 0,15 C 3,19.331 3.669,20 4.5,20 l 13,0 c 0.831,0 1.5,-0.669 1.5,-1.5 l 0,-15 C 19,2.669 18.331,2 17.5,2 l -13,0 z m 1,2 11,0 C 16.777,4 17,4.223 17,4.5 l 0,13 c 0,0.277 -0.223,0.5 -0.5,0.5 l -11,0 C 5.223,18 5,17.777 5,17.5 L 5,4.5 C 5,4.223 5.223,4 5.5,4 z M 7,6 7,8 15,8 15,6 7,6 z m 0,4 0,2 8,0 0,-2 -8,0 z m 4,3 0,1 1,0 0,2 -1,0 0,1 3,0 0,-1 -1,0 0,-2 1,0 0,-1 -1,0 -1,0 -1,0 z m -4,1 0,2 3,0 0,-2 -3,0 z"
       id="path2875" />
    <path
       style="fill:#000000;fill-opacity:1;stroke:none;display:inline;opacity:0.3"
       d="M 4.5 2 C 3.669 2 3 2.669 3 3.5 L 3 18.5 C 3 19.331 3.669 20 4.5 20 L 17.5 20 C 18.331 20 19 19.331 19 18.5 L 19 3.5 C 19 2.669 18.331 2 17.5 2 L 4.5 2 z M 4.5 2.4375 L 17.5 2.4375 C 18.09052 2.4375 18.5625 2.90948 18.5625 3.5 L 18.5625 18.5 C 18.5625 19.09052 18.09052 19.5625 17.5 19.5625 L 4.5 19.5625 C 3.90948 19.5625 3.4375 19.09052 3.4375 18.5 L 3.4375 3.5 C 3.4375 2.90948 3.90948 2.4375 4.5 2.4375 z M 5.5 3.5625 C 4.98252 3.5625 4.5625 3.98252 4.5625 4.5 L 4.5625 17.5 C 4.5625 18.01748 4.98252 18.4375 5.5 18.4375 L 16.5 18.4375 C 17.01748 18.4375 17.4375 18.01748 17.4375 17.5 L 17.4375 4.5 C 17.4375 3.98252 17.01748 3.5625 16.5 3.5625 L 5.5 3.5625 z M 5.5 4 L 16.5 4 C 16.777 4 17 4.223 17 4.5 L 17 17.5 C 17 17.777 16.777 18 16.5 18 L 5.5 18 C 5.223 18 5 17.777 5 17.5 L 5 4.5 C 5 4.223 5.223 4 5.5 4 z M 7 6 L 7 8 L 15 8 L 15 6 L 7 6 z M 7.4375 6.4375 L 14.5625 6.4375 L 14.5625 7.5625 L 7.4375 7.5625 L 7.4375 6.4375 z M 7 10 L 7 12 L 15 12 L 15 10 L 7 10 z M 7.4375 10.4375 L 14.5625 10.4375 L 14.5625 11.5625 L 7.4375 11.5625 L 7.4375 10.4375 z M 11 13 L 11 14 L 12 14 L 12 16 L 11 16 L 11 17 L 14 17 L 14 16 L 13 16 L 13 14 L 14 14 L 14 13 L 13 13 L 12 13 L 11 13 z M 11.4375 13.4375 L 12 13.4375 L 13 13.4375 L 13.5625 13.4375 L 13.5625 13.5625 L 13 13.5625 A 0.44811405 0.44811405 0 0 0 12.5625 14 L 12.5625 16 A 0.44811405 0.44811405 0 0 0 13 16.4375 L 13.5625 16.4375 L 13.5625 16.5625 L 11.4375 16.5625 L 11.4375 16.4375 L 12 16.4375 A 0.44811405 0.44811405 0 0 0 12.4375 16 L 12.4375 14 A 0.44811405 0.44811405 0 0 0 12 13.5625 L 11.4375 13.5625 L 11.4375 13.4375 z M 7 14 L 7 16 L 10 16 L 10 14 L 7 14 z M 7.4375 14.4375 L 9.5625 14.4375 L 9.5625 15.5625 L 7.4375 15.5625 L 7.4375 14.4375 z "
       id="path4334" />
    <path
       inkscape:connector-curvature="0"
       style="opacity:0.3;fill:#000000;fill-opacity:1;stroke:none;display:inline"
       d="M 4.5,2 C 3.669,2 3,2.669 3,3.5 l 0,1 C 3,3.669 3.669,3 4.5,3 l 13,0 C 18.331,3 19,3.669 19,4.5 l 0,-1 C 19,2.669 18.331,2 17.5,2 L 4.5,2 z M 7,6 7,7 15,7 15,6 7,6 z m 0,4 0,1 8,0 0,-1 -8,0 z m 4,3 0,1 1,0 1,0 1,0 0,-1 -3,0 z m -4,1 0,1 3,0 0,-1 -3,0 z m 4,2 0,1 1,0 0,-1 -1,0 z m 2,0 0,1 1,0 0,-1 -1,0 z m -8,1.5 0,1 C 5,18.777 5.223,19 5.5,19 l 11,0 c 0.277,0 0.5,-0.223 0.5,-0.5 l 0,-1 C 17,17.777 16.777,18 16.5,18 L 14,18 11,18 5.5,18 C 5.223,18 5,17.777 5,17.5 z"
       id="path2903" />
    <path
       inkscape:connector-curvature="0"
       style="opacity:0.2;fill:#ffffff;fill-opacity:1;stroke:none;display:inline"
       d="M 5.5,4 C 5.223,4 5,4.223 5,4.5 l 0,1 C 5,5.223 5.223,5 5.5,5 l 11,0 C 16.777,5 17,5.223 17,5.5 l 0,-1 C 17,4.223 16.777,4 16.5,4 L 5.5,4 z M 7,8 7,9 15,9 15,8 7,8 z m 0,4 0,1 4,0 3,0 1,0 0,-1 -8,0 z m 4,2 0,1 1,0 0,-1 -1,0 z m 2,0 0,1 1,0 0,-1 -1,0 z m -6,2 0,1 3,0 0,-1 -3,0 z m 4,1 0,1 3,0 0,-1 -1,0 -1,0 -1,0 z m -8,1.5 0,1 C 3,20.331 3.669,21 4.5,21 l 13,0 c 0.831,0 1.5,-0.669 1.5,-1.5 l 0,-1 c 0,0.831 -0.669,1.5 -1.5,1.5 l -13,0 C 3.669,20 3,19.331 3,18.5 z"
       id="path3680" />
  </g>
</svg>
