<?xml version="1.0" encoding="UTF-8" standalone="no"?>
<!-- Created with Inkscape (http://www.inkscape.org/) -->

<svg
   xmlns:dc="http://purl.org/dc/elements/1.1/"
   xmlns:cc="http://creativecommons.org/ns#"
   xmlns:rdf="http://www.w3.org/1999/02/22-rdf-syntax-ns#"
   xmlns:svg="http://www.w3.org/2000/svg"
   xmlns="http://www.w3.org/2000/svg"
   xmlns:xlink="http://www.w3.org/1999/xlink"
   xmlns:sodipodi="http://sodipodi.sourceforge.net/DTD/sodipodi-0.dtd"
   xmlns:inkscape="http://www.inkscape.org/namespaces/inkscape"
   width="22"
   height="22"
   id="svg2"
   sodipodi:version="0.32"
   inkscape:version="0.91 r13725"
   version="1.0"
   sodipodi:docname="format-text-strikethrough.svg"
   inkscape:output_extension="org.inkscape.output.svg.inkscape"
   inkscape:export-filename="/home/matt/.icons/Sirocco/scalable/mimetypes/text-plain.png"
   inkscape:export-xdpi="90"
   inkscape:export-ydpi="90"
   sodipodi:modified="true"
   style="display:inline">
  <sodipodi:namedview
     id="base"
     pagecolor="#797979"
     bordercolor="#666666"
     borderopacity="1.0"
     inkscape:pageopacity="0"
     inkscape:pageshadow="2"
     inkscape:zoom="16.590055"
     inkscape:cx="25.165005"
     inkscape:cy="12.174147"
     inkscape:document-units="px"
     inkscape:current-layer="layer1"
     width="128px"
     height="128px"
     inkscape:showpageshadow="false"
     inkscape:window-width="1366"
     inkscape:window-height="718"
     inkscape:window-x="0"
     inkscape:window-y="25"
     showguides="true"
     inkscape:guide-bbox="true"
     showgrid="true"
     inkscape:window-maximized="1"
     inkscape:snap-global="true"
     inkscape:snap-bbox="true"
     inkscape:bbox-paths="true"
     inkscape:bbox-nodes="true"
     inkscape:snap-bbox-edge-midpoints="true">
    <sodipodi:guide
       id="guide2226"
       position="32.637397,117.99844"
       orientation="horizontal" />
    <sodipodi:guide
       id="guide2230"
       position="110,57.402344"
       orientation="vertical" />
    <sodipodi:guide
       id="guide2232"
       position="33.760911"
       orientation="horizontal" />
    <sodipodi:guide
       id="guide2231"
       position="46.774696"
       orientation="horizontal" />
    <inkscape:grid
       enabled="true"
       visible="true"
       id="grid3231"
       type="xygrid" />
    <sodipodi:guide
       orientation="1,0"
       position="100,67.625"
       id="guide2713" />
  </sodipodi:namedview>
  <defs
     id="defs4">
    <linearGradient
       gradientUnits="userSpaceOnUse"
       y2="18.974037"
       x2="10.710332"
       y1="1.9963325"
       x1="10.710332"
       gradientTransform="matrix(0.9984539,0,0,0.9984539,-4.5977599e-2,5.7675578e-2)"
       id="linearGradient4220">
      <stop
         id="stop4222"
         offset="0"
         style="stop-color:#000000;stop-opacity:0.23619632" />
      <stop
         id="stop4224"
         offset="1"
         style="stop-color:#000000;stop-opacity:0.54907978" />
    </linearGradient>
    <inkscape:perspective
       sodipodi:type="inkscape:persp3d"
       inkscape:vp_x="0 : 11 : 1"
       inkscape:vp_y="0 : 1000 : 0"
       inkscape:vp_z="22 : 11 : 1"
       inkscape:persp3d-origin="11 : 7.3333333 : 1"
       id="perspective19" />
    <linearGradient
       id="StandardGradient"
       gradientTransform="matrix(0.9984539,0,0,0.9984539,-4.5977599e-2,5.7675578e-2)"
       x1="10.710332"
       y1="1.9963325"
       x2="10.710332"
       y2="18.974037"
       gradientUnits="userSpaceOnUse">
      <stop
         style="stop-color:#000000;stop-opacity:0.86274511;"
         offset="0"
         id="stop3277" />
      <stop
         style="stop-color:#000000;stop-opacity:0.47058824;"
         offset="1"
         id="stop3279" />
    </linearGradient>
    <inkscape:perspective
       id="perspective3675"
       inkscape:persp3d-origin="0.5 : 0.33333333 : 1"
       inkscape:vp_z="1 : 0.5 : 1"
       inkscape:vp_y="0 : 1000 : 0"
       inkscape:vp_x="0 : 0.5 : 1"
       sodipodi:type="inkscape:persp3d" />
    <linearGradient
       inkscape:collect="always"
       xlink:href="#StandardGradient"
       id="linearGradient3627"
       gradientUnits="userSpaceOnUse"
       gradientTransform="matrix(0.9984539,0,0,0.9984539,-30.045978,0.05767558)"
       x1="10.710332"
       y1="1.9963325"
       x2="10.710332"
       y2="18.974037" />
    <clipPath
       clipPathUnits="userSpaceOnUse"
       id="clipPath3634">
      <path
         style="fill:#ff00ff;fill-opacity:1;stroke:none"
         d="m -30,0 0,22 22,0 0,-22 -22,0 z m 9,2 c 1.536279,0 3.078693,0.5829855 4.25,1.75 2.042235,2.0347517 2.299759,5.181761 0.78125,7.5 0.01984,0.394051 0.08665,1.024202 0.34375,1.25 0.350063,0.307445 1.153972,-0.120878 1.6875,0.46875 l 3.6875,3.71875 c 0,0 0.750914,0.690483 -0.3125,1.75 -1.063413,1.059517 -1.75,0.3125 -1.75,0.3125 L -16,15.03125 c -0.591796,-0.531572 -0.160173,-1.338719 -0.46875,-1.6875 -0.226629,-0.256157 -0.854501,-0.32398 -1.25,-0.34375 -2.326765,1.512945 -5.489015,1.253503 -7.53125,-0.78125 -2.342612,-2.3340289 -2.342612,-6.134721 0,-8.46875 C -24.078693,2.5829856 -22.536279,2 -21,2 z m 0.03125,2 c -1.104318,1e-7 -2.119541,0.4034447 -2.84375,1.125 -0.724209,0.7215553 -1.15625,1.7434783 -1.15625,2.84375 0,2.200545 1.791365,4.000001 4,4 2.208637,0 4,-1.799455 4,-4 0,-2.2005437 -1.791364,-3.9687501 -4,-3.96875 z"
         id="path3636" />
    </clipPath>
    <linearGradient
       inkscape:collect="always"
       xlink:href="#StandardGradient"
       id="linearGradient3628"
       x1="12.028171"
       y1="4.5631547"
       x2="12.028171"
       y2="11.477665"
       gradientUnits="userSpaceOnUse" />
    <linearGradient
       inkscape:collect="always"
       xlink:href="#StandardGradient"
       id="linearGradient3639"
       gradientUnits="userSpaceOnUse"
       x1="12.028171"
       y1="4.5631547"
       x2="12.028171"
       y2="11.477665" />
    <linearGradient
       inkscape:collect="always"
       xlink:href="#StandardGradient"
       id="linearGradient3641"
       gradientUnits="userSpaceOnUse"
       x1="12.028171"
       y1="4.5631547"
       x2="12.028171"
       y2="11.477665" />
    <linearGradient
       inkscape:collect="always"
       xlink:href="#StandardGradient"
       id="linearGradient3651"
       gradientUnits="userSpaceOnUse"
       x1="12.028171"
       y1="4.5631547"
       x2="12.028171"
       y2="11.477665" />
    <linearGradient
       inkscape:collect="always"
       xlink:href="#StandardGradient"
       id="linearGradient3653"
       gradientUnits="userSpaceOnUse"
       x1="12.028171"
       y1="4.5631547"
       x2="12.028171"
       y2="11.477665" />
    <linearGradient
       inkscape:collect="always"
       xlink:href="#StandardGradient"
       id="linearGradient3655"
       gradientUnits="userSpaceOnUse"
       x1="12.028171"
       y1="4.5631547"
       x2="12.028171"
       y2="11.477665" />
    <linearGradient
       inkscape:collect="always"
       xlink:href="#StandardGradient"
       id="linearGradient3657"
       gradientUnits="userSpaceOnUse"
       x1="12.028171"
       y1="4.5631547"
       x2="12.028171"
       y2="11.477665" />
    <linearGradient
       inkscape:collect="always"
       xlink:href="#StandardGradient"
       id="linearGradient3660"
       gradientUnits="userSpaceOnUse"
       x1="12.028171"
       y1="4.5631547"
       x2="12.028171"
       y2="11.477665"
       gradientTransform="matrix(1.7414965,0,0,1.7414965,-8.9470177,-1.9467179)" />
    <linearGradient
       inkscape:collect="always"
       xlink:href="#StandardGradient"
       id="linearGradient3666"
       gradientUnits="userSpaceOnUse"
       gradientTransform="matrix(1.7414965,0,0,1.7414965,-8.9470177,-0.9467179)"
       x1="12.028171"
       y1="4.5631547"
       x2="12.028171"
       y2="11.477665" />
    <linearGradient
       inkscape:collect="always"
       xlink:href="#StandardGradient"
       id="linearGradient3668"
       gradientUnits="userSpaceOnUse"
       gradientTransform="matrix(1.7414965,0,0,1.7414965,-8.9470177,-1.9467179)"
       x1="12.028171"
       y1="4.5631547"
       x2="12.028171"
       y2="11.477665" />
    <linearGradient
       inkscape:collect="always"
       xlink:href="#StandardGradient"
       id="linearGradient3673"
       gradientUnits="userSpaceOnUse"
       gradientTransform="matrix(1.7414965,0,0,1.7414965,-8.9470177,-0.9467179)"
       x1="12.028171"
       y1="4.5631547"
       x2="12.028171"
       y2="11.477665" />
    <linearGradient
       inkscape:collect="always"
       xlink:href="#StandardGradient"
       id="linearGradient3677"
       gradientUnits="userSpaceOnUse"
       gradientTransform="matrix(1.7414965,0,0,1.7414965,-8.9470177,-1.9467179)"
       x1="12.028171"
       y1="4.5631547"
       x2="12.028171"
       y2="11.477665" />
    <linearGradient
       inkscape:collect="always"
       xlink:href="#StandardGradient"
       id="linearGradient3682"
       gradientUnits="userSpaceOnUse"
       gradientTransform="matrix(1.7414965,0,0,1.7414965,-38.947018,-1.9467179)"
       x1="12.028171"
       y1="4.5631547"
       x2="12.028171"
       y2="11.477665" />
    <clipPath
       clipPathUnits="userSpaceOnUse"
       id="clipPath3689">
      <path
         style="fill:#ff00ff;fill-opacity:1;stroke:none"
         d="m -30,0 0,22 22,0 0,-22 -22,0 z m 10.9375,6 c 2.061216,1.17e-5 3.557174,0.4024349 4.46875,1.21875 0.918354,0.8095335 1.374987,2.1388268 1.375,3.96875 l 0,6.8125 -3.6875,0 0,-2 c -0.489805,0.693879 -1.044013,1.211521 -1.65625,1.53125 C -19.17475,17.844174 -19.903705,18 -20.78125,18 c -1.183677,0 -2.164756,-0.344173 -2.90625,-1.03125 -0.734695,-0.693874 -1.093751,-1.585457 -1.09375,-2.6875 -1e-6,-1.340132 0.456632,-2.342894 1.375,-2.96875 0.925167,-0.625843 2.370957,-0.937493 4.34375,-0.9375 l 2.15625,0 0,-0.28125 c -9e-6,-0.5782226 -0.231726,-0.9846853 -0.6875,-1.25 -0.45579,-0.2720996 -1.15902,-0.4062406 -2.125,-0.40625 -0.782317,9.4e-6 -1.514036,0.062297 -2.1875,0.21875 -0.673472,0.1564716 -1.296771,0.4058335 -1.875,0.71875 l 0,-2.78125 c 0.78231,-0.1904649 1.554631,-0.3422504 2.34375,-0.4375 0.789111,-0.1020291 1.585878,-0.1562378 2.375,-0.15625 z m 0.25,6.5625 c -0.76191,5e-6 -1.331,0.116502 -1.71875,0.375 -0.380957,0.258508 -0.562505,0.652853 -0.5625,1.15625 -5e-6,0.462588 0.162626,0.828446 0.46875,1.09375 0.312919,0.258506 0.730225,0.375002 1.28125,0.375 0.687067,2e-6 1.280604,-0.228952 1.75,-0.71875 0.469379,-0.496595 0.687491,-1.133499 0.6875,-1.875 l 0,-0.40625 -1.90625,0 z"
         id="path3691" />
    </clipPath>
    <linearGradient
       inkscape:collect="always"
       xlink:href="#StandardGradient"
       id="linearGradient3648"
       x1="12.070416"
       y1="3.1332362"
       x2="12.070416"
       y2="19.05331"
       gradientUnits="userSpaceOnUse" />
    <linearGradient
       inkscape:collect="always"
       xlink:href="#StandardGradient"
       id="linearGradient3654"
       gradientUnits="userSpaceOnUse"
       x1="12.070416"
       y1="3.1332362"
       x2="12.070416"
       y2="19.05331"
       gradientTransform="translate(0,1)" />
    <linearGradient
       inkscape:collect="always"
       xlink:href="#StandardGradient"
       id="linearGradient3656"
       gradientUnits="userSpaceOnUse"
       x1="12.070416"
       y1="3.1332362"
       x2="12.070416"
       y2="19.05331" />
    <linearGradient
       inkscape:collect="always"
       xlink:href="#StandardGradient"
       id="linearGradient3661"
       gradientUnits="userSpaceOnUse"
       x1="12.070416"
       y1="3.1332362"
       x2="12.070416"
       y2="19.05331"
       gradientTransform="translate(0,1)" />
    <linearGradient
       inkscape:collect="always"
       xlink:href="#StandardGradient"
       id="linearGradient3665"
       gradientUnits="userSpaceOnUse"
       x1="12.070416"
       y1="3.1332362"
       x2="12.070416"
       y2="19.05331" />
    <linearGradient
       inkscape:collect="always"
       xlink:href="#StandardGradient"
       id="linearGradient3670"
       gradientUnits="userSpaceOnUse"
       x1="12.070416"
       y1="3.1332362"
       x2="12.070416"
       y2="19.05331"
       gradientTransform="translate(-30,0)" />
    <clipPath
       clipPathUnits="userSpaceOnUse"
       id="clipPath3677">
      <path
         style="fill:#ff00ff;fill-opacity:1;stroke:none"
         d="m -30,0 0,22 22,0 0,-22 -22,0 z m 10.90625,3 c 1.712465,1.17e-5 2.966824,0.4241184 3.8125,1.28125 0.845655,0.8571524 1.281239,2.164762 1.28125,3.90625 l 0,6.8125 -1.9375,0 0,-2.03125 c -0.443984,0.693879 -0.993821,1.197917 -1.65625,1.53125 -0.662446,0.326531 -1.479083,0.5 -2.4375,0.5 -1.212126,0 -2.187438,-0.315689 -2.90625,-0.96875 -0.711771,-0.659863 -1.062501,-1.554208 -1.0625,-2.65625 -1e-6,-1.28571 0.455799,-2.253184 1.34375,-2.90625 0.894993,-0.653054 2.199893,-0.968743 3.96875,-0.96875 l 2.75,0 0,-0.1875 c -10e-6,-0.863937 -0.314292,-1.5306033 -0.90625,-2 -0.584927,-0.4761805 -1.404627,-0.7187399 -2.46875,-0.71875 -0.676538,1.01e-5 -1.327459,0.062297 -1.96875,0.21875 -0.6413,0.1564724 -1.251787,0.4058342 -1.84375,0.71875 l 0,-1.75 c 0.711766,-0.2652949 1.393011,-0.4332369 2.0625,-0.5625 C -20.393019,3.082707 -19.728005,3.0000117 -19.09375,3 z m 1.21875,5.96875 c -1.571536,5e-6 -2.675194,0.153062 -3.28125,0.5 -0.606064,0.346942 -0.906253,0.944521 -0.90625,1.78125 -3e-6,0.66667 0.236475,1.199193 0.6875,1.59375 0.458065,0.387756 1.061502,0.593752 1.84375,0.59375 1.078218,2e-6 1.945398,-0.390306 2.59375,-1.125 0.655382,-0.741494 0.99999,-1.713005 1,-2.9375 l 0,-0.40625 -1.9375,0 z M -24,17 l 10,0 0,2 -10,0 0,-2 z"
         id="path3679" />
    </clipPath>
    <linearGradient
       inkscape:collect="always"
       xlink:href="#StandardGradient"
       id="linearGradient2873"
       gradientUnits="userSpaceOnUse"
       x1="12.070416"
       y1="3.1332362"
       x2="12.070416"
       y2="19.05331" />
    <linearGradient
       inkscape:collect="always"
       xlink:href="#StandardGradient"
       id="linearGradient2876"
       gradientUnits="userSpaceOnUse"
       x1="12.070416"
       y1="3.1332362"
       x2="12.070416"
       y2="19.05331"
       gradientTransform="matrix(1.4,0,0,1,-4.4,-7)" />
    <linearGradient
       inkscape:collect="always"
       xlink:href="#StandardGradient"
       id="linearGradient2878"
       gradientUnits="userSpaceOnUse"
       x1="12.070416"
       y1="3.1332362"
       x2="12.070416"
       y2="19.05331"
       gradientTransform="translate(0,2)" />
    <linearGradient
       inkscape:collect="always"
       xlink:href="#StandardGradient"
       id="linearGradient2882"
       gradientUnits="userSpaceOnUse"
       gradientTransform="matrix(1.2,0,0,2,-2.2,-25)"
       x1="12.070416"
       y1="3.1332362"
       x2="12.070416"
       y2="19.05331" />
    <linearGradient
       inkscape:collect="always"
       xlink:href="#StandardGradient"
       id="linearGradient3724"
       gradientUnits="userSpaceOnUse"
       gradientTransform="matrix(1.4,0,0,1,-4.4,-5)"
       x1="12.070416"
       y1="3.1332362"
       x2="12.070416"
       y2="19.05331" />
    <linearGradient
       inkscape:collect="always"
       xlink:href="#StandardGradient"
       id="linearGradient3733"
       gradientUnits="userSpaceOnUse"
       gradientTransform="translate(0,3)"
       x1="12.070416"
       y1="3.1332362"
       x2="12.070416"
       y2="19.05331" />
    <linearGradient
       inkscape:collect="always"
       xlink:href="#StandardGradient"
       id="linearGradient3735"
       gradientUnits="userSpaceOnUse"
       gradientTransform="translate(0,2)"
       x1="12.070416"
       y1="3.1332362"
       x2="12.070416"
       y2="19.05331" />
    <linearGradient
       inkscape:collect="always"
       xlink:href="#StandardGradient"
       id="linearGradient3740"
       gradientUnits="userSpaceOnUse"
       gradientTransform="translate(0,3)"
       x1="12.070416"
       y1="3.1332362"
       x2="12.070416"
       y2="19.05331" />
    <linearGradient
       inkscape:collect="always"
       xlink:href="#StandardGradient"
       id="linearGradient3744"
       gradientUnits="userSpaceOnUse"
       gradientTransform="translate(0,2)"
       x1="12.070416"
       y1="3.1332362"
       x2="12.070416"
       y2="19.05331" />
    <linearGradient
       inkscape:collect="always"
       xlink:href="#StandardGradient"
       id="linearGradient3749"
       gradientUnits="userSpaceOnUse"
       gradientTransform="translate(-30,2)"
       x1="12.070416"
       y1="3.1332362"
       x2="12.070416"
       y2="19.05331" />
    <clipPath
       clipPathUnits="userSpaceOnUse"
       id="clipPath3756">
      <path
         style="fill:#ff00ff;fill-opacity:1;stroke:none"
         d="m -30,0 0,22 22,0 0,-22 -22,0 z m 10.90625,5 c 1.712465,1.17e-5 2.966824,0.4241184 3.8125,1.28125 0.845655,0.8571524 1.281239,2.164762 1.28125,3.90625 l 0,1.8125 2,0 0,2 -2,0 0,3 -1.9375,0 0,-2.03125 c -0.443984,0.693879 -0.993821,1.197917 -1.65625,1.53125 -0.662446,0.326531 -1.479083,0.5 -2.4375,0.5 -1.212126,0 -2.187438,-0.315689 -2.90625,-0.96875 -0.569191,-0.527681 -0.887302,-1.217369 -1,-2.03125 L -26,14 l 0,-2 2.25,0 c 0.216615,-0.618221 0.561495,-1.13979 1.09375,-1.53125 0.894993,-0.653054 2.199893,-0.968743 3.96875,-0.96875 l 2.75,0 0,-0.1875 c -10e-6,-0.863937 -0.314292,-1.5306033 -0.90625,-2 -0.584927,-0.4761805 -1.404627,-0.7187399 -2.46875,-0.71875 -0.676538,1.01e-5 -1.327459,0.062297 -1.96875,0.21875 -0.6413,0.1564724 -1.251787,0.4058342 -1.84375,0.71875 l 0,-1.75 c 0.711766,-0.2652949 1.393011,-0.4332369 2.0625,-0.5625 C -20.393019,5.082707 -19.728005,5.0000117 -19.09375,5 z m 1.21875,5.96875 c -1.571536,5e-6 -2.675194,0.153062 -3.28125,0.5 -0.233941,0.13392 -0.419381,0.323303 -0.5625,0.53125 l 5.75,0 c 0.02175,-0.202372 0.03125,-0.406673 0.03125,-0.625 l 0,-0.40625 -1.9375,0 z M -21.9375,14 c 0.112193,0.328413 0.296171,0.610765 0.5625,0.84375 0.458065,0.387756 1.061502,0.593752 1.84375,0.59375 1.078218,2e-6 1.945398,-0.390306 2.59375,-1.125 0.08472,-0.09585 0.14449,-0.208915 0.21875,-0.3125 l -5.21875,0 z"
         id="path3758" />
    </clipPath>
    <linearGradient
       inkscape:collect="always"
       xlink:href="#StandardGradient"
       id="linearGradient5106"
       gradientUnits="userSpaceOnUse"
       gradientTransform="translate(0,2)"
       x1="12.070416"
       y1="3.1332362"
       x2="12.070416"
       y2="19.05331" />
    <linearGradient
       inkscape:collect="always"
       xlink:href="#StandardGradient"
       id="linearGradient5110"
       gradientUnits="userSpaceOnUse"
       gradientTransform="translate(0,2)"
       x1="12.070416"
       y1="3.1332362"
       x2="12.070416"
       y2="19.05331" />
    <linearGradient
       id="StandardGradient-6"
       gradientTransform="matrix(0.9984539,0,0,0.9984539,-0.0459776,0.05767558)"
       x1="10.710332"
       y1="1.9963325"
       x2="10.710332"
       y2="18.974037"
       gradientUnits="userSpaceOnUse">
      <stop
         style="stop-color:#000000;stop-opacity:0.86274511;"
         offset="0"
         id="stop3277-3" />
      <stop
         style="stop-color:#000000;stop-opacity:0.47058824;"
         offset="1"
         id="stop3279-2" />
    </linearGradient>
    <radialGradient
       inkscape:collect="always"
       xlink:href="#linearGradient4220"
       id="radialGradient4218"
       cx="11"
       cy="13.333333"
       fx="11"
       fy="13.333333"
       r="7"
       gradientTransform="matrix(1.8571429,-8.6252149e-8,5.3078243e-8,1.1428571,-9.4285722,-2.2380938)"
       gradientUnits="userSpaceOnUse" />
  </defs>
  <metadata
     id="metadata7">
    <rdf:RDF>
      <cc:Work
         rdf:about="">
        <dc:format>image/svg+xml</dc:format>
        <dc:type
           rdf:resource="http://purl.org/dc/dcmitype/StillImage" />
        <dc:title></dc:title>
      </cc:Work>
    </rdf:RDF>
  </metadata>
  <g
     style="display:inline"
     inkscape:label="Calque 1"
     id="layer1"
     inkscape:groupmode="layer">
    <path
       style="font-size:12px;font-style:normal;font-variant:normal;font-weight:normal;font-stretch:normal;text-align:start;line-height:125%;writing-mode:lr-tb;text-anchor:start;fill:#ffffff;fill-opacity:1;stroke:none;font-family:Sans;-inkscape-font-specification:Sans;opacity:0.05"
       d="M 10.90625 4 C 10.184613 4.0000133 9.4688924 4.0726665 8.75 4.21875 C 8.0460053 4.3546754 7.3096305 4.5536259 6.53125 4.84375 A 1.0055484 1.0055484 0 0 0 5.875 5.78125 L 5.875 7.53125 A 1.0055484 1.0055484 0 0 0 7.34375 8.40625 C 7.8783251 8.12367 8.423678 7.9142434 8.96875 7.78125 C 9.5175411 7.6473641 10.072665 7.5937592 10.6875 7.59375 C 11.598838 7.5937586 12.173342 7.8023821 12.53125 8.09375 C 12.65391 8.1910142 12.640565 8.3880339 12.71875 8.5 L 11.3125 8.5 C 9.4240159 8.5000075 7.89627 8.819845 6.75 9.65625 C 6.2733853 10.006788 6.053195 10.515631 5.78125 11 L 4 11 A 1.0055484 1.0055484 0 0 0 3 12 L 3 14 A 1.0055484 1.0055484 0 0 0 4 15 L 5.34375 15 C 5.5630772 15.65452 5.8525838 16.296932 6.375 16.78125 C 7.3094845 17.630255 8.5820502 18 9.96875 18 C 11.048488 18 12.014046 17.815225 12.84375 17.40625 C 12.93471 17.360479 12.974732 17.23879 13.0625 17.1875 A 1.0055484 1.0055484 0 0 0 14.0625 18 L 16 18 A 1.0055484 1.0055484 0 0 0 17 17 L 17 15 L 18 15 A 1.0055484 1.0055484 0 0 0 19 14 L 19 12 A 1.0055484 1.0055484 0 0 0 18 11 L 17 11 L 17 10.1875 C 16.999988 8.2783589 16.520972 6.6607029 15.4375 5.5625 C 14.359174 4.4695666 12.784717 4.0000128 10.90625 4 z M 10.90625 5 C 12.618715 5.0000117 13.873074 5.4241184 14.71875 6.28125 C 15.564405 7.1384024 15.999989 8.446012 16 10.1875 L 16 12 L 18 12 L 18 14 L 16 14 L 16 17 L 14.0625 17 L 14.0625 14.96875 C 13.618516 15.662629 13.068679 16.166667 12.40625 16.5 C 11.743804 16.826531 10.927167 17 9.96875 17 C 8.7566244 17 7.7813123 16.684311 7.0625 16.03125 C 6.4933095 15.503569 6.1751977 14.813881 6.0625 14 L 4 14 L 4 12 L 6.25 12 C 6.4666146 11.381779 6.8114947 10.86021 7.34375 10.46875 C 8.2387425 9.815696 9.5436425 9.500007 11.3125 9.5 L 14.0625 9.5 L 14.0625 9.3125 C 14.06249 8.448563 13.748208 7.7818967 13.15625 7.3125 C 12.571323 6.8363195 11.751623 6.5937601 10.6875 6.59375 C 10.010962 6.5937601 9.3600415 6.6560472 8.71875 6.8125 C 8.0774496 6.9689724 7.4669634 7.2183342 6.875 7.53125 L 6.875 5.78125 C 7.5867658 5.5159551 8.268011 5.3480131 8.9375 5.21875 C 9.6069808 5.0827073 10.271995 5.0000117 10.90625 5 z M 12.125 10.96875 C 10.553464 10.968755 9.4498058 11.121812 8.84375 11.46875 C 8.6098093 11.60267 8.4243693 11.792053 8.28125 12 L 14.03125 12 C 14.05297 11.797628 14.062498 11.593327 14.0625 11.375 L 14.0625 10.96875 L 12.125 10.96875 z M 8.0625 14 C 8.1746933 14.328413 8.3586706 14.610765 8.625 14.84375 C 9.0830647 15.231506 9.6865024 15.437502 10.46875 15.4375 C 11.546968 15.437502 12.414148 15.047194 13.0625 14.3125 C 13.147217 14.216652 13.206991 14.103585 13.28125 14 L 8.0625 14 z "
       id="path5108" />
    <path
       style="font-size:12px;font-style:normal;font-variant:normal;font-weight:normal;font-stretch:normal;text-align:start;line-height:125%;writing-mode:lr-tb;text-anchor:start;fill:url(#radialGradient4218);fill-opacity:1;stroke:none;font-family:Sans;-inkscape-font-specification:Sans"
       d="M 10.90625 5 C 10.271995 5.0000117 9.6069808 5.0827073 8.9375 5.21875 C 8.268011 5.3480131 7.5867658 5.5159551 6.875 5.78125 L 6.875 7.53125 C 7.4669634 7.2183342 8.0774496 6.9689724 8.71875 6.8125 C 9.3600415 6.6560472 10.010962 6.5937601 10.6875 6.59375 C 11.751623 6.5937601 12.571323 6.8363195 13.15625 7.3125 C 13.748208 7.7818967 14.06249 8.448563 14.0625 9.3125 L 14.0625 9.5 L 11.3125 9.5 C 9.5436425 9.500007 8.2387425 9.815696 7.34375 10.46875 C 6.8114947 10.86021 6.4666146 11.381779 6.25 12 L 4 12 L 4 14 L 6.0625 14 C 6.1751977 14.813881 6.4933095 15.503569 7.0625 16.03125 C 7.7813123 16.684311 8.7566244 17 9.96875 17 C 10.927167 17 11.743804 16.826531 12.40625 16.5 C 13.068679 16.166667 13.618516 15.662629 14.0625 14.96875 L 14.0625 17 L 16 17 L 16 14 L 18 14 L 18 12 L 16 12 L 16 10.1875 C 15.999989 8.446012 15.564405 7.1384024 14.71875 6.28125 C 13.873074 5.4241184 12.618715 5.0000117 10.90625 5 z M 12.125 10.96875 L 14.0625 10.96875 L 14.0625 11.375 C 14.062498 11.593327 14.05297 11.797628 14.03125 12 L 8.28125 12 C 8.4243693 11.792053 8.6098093 11.60267 8.84375 11.46875 C 9.4498058 11.121812 10.553464 10.968755 12.125 10.96875 z M 8.0625 14 L 13.28125 14 C 13.206991 14.103585 13.147217 14.216652 13.0625 14.3125 C 12.414148 15.047194 11.546968 15.437502 10.46875 15.4375 C 9.6865024 15.437502 9.0830647 15.231506 8.625 14.84375 C 8.3586706 14.610765 8.1746933 14.328413 8.0625 14 z "
       id="path2871" />
    <path
       style="font-size:12px;font-style:normal;font-variant:normal;font-weight:normal;font-stretch:normal;text-align:start;line-height:125%;writing-mode:lr-tb;text-anchor:start;fill:#000000;fill-opacity:1;stroke:none;font-family:Sans;-inkscape-font-specification:Sans;opacity:0.3"
       d="M 10.90625 5 C 10.271995 5.0000117 9.6069808 5.0827073 8.9375 5.21875 C 8.268011 5.3480131 7.5867658 5.5159551 6.875 5.78125 L 6.875 6.78125 C 7.5867658 6.5159551 8.268011 6.3480131 8.9375 6.21875 C 9.6069808 6.0827073 10.271995 6.0000117 10.90625 6 C 12.618715 6.0000117 13.873074 6.4241184 14.71875 7.28125 C 15.564405 8.1384024 15.999989 9.446012 16 11.1875 L 16 10.1875 C 15.999989 8.446012 15.564405 7.1384024 14.71875 6.28125 C 13.873074 5.4241184 12.618715 5.0000117 10.90625 5 z M 11.3125 9.5 C 9.5436425 9.500007 8.2387425 9.815696 7.34375 10.46875 C 6.8114947 10.86021 6.4666146 11.381779 6.25 12 L 4 12 L 4 13 L 6.25 13 C 6.4666146 12.381779 6.8114947 11.86021 7.34375 11.46875 C 8.2387425 10.815696 9.5436425 10.500007 11.3125 10.5 L 14.0625 10.5 L 14.0625 10.3125 C 14.062497 10.019477 14.008382 9.7476362 13.9375 9.5 L 11.3125 9.5 z M 14.03125 11.96875 C 14.030227 11.978854 14.032333 11.989907 14.03125 12 L 11.03125 12 C 10.029446 12.059312 9.2982919 12.208547 8.84375 12.46875 C 8.6098093 12.60267 8.4243693 12.792053 8.28125 13 L 14.03125 13 C 14.053 12.797628 14.062498 12.593327 14.0625 12.375 L 14.0625 11.96875 L 14.03125 11.96875 z M 16 12 L 16 13 L 18 13 L 18 12 L 16 12 z M 8.0625 15 C 8.1746933 15.328413 8.3586706 15.610765 8.625 15.84375 C 9.0830647 16.231506 9.6865024 16.437502 10.46875 16.4375 C 11.546968 16.437502 12.414148 16.047194 13.0625 15.3125 C 13.147217 15.216652 13.20699 15.103585 13.28125 15 L 12.21875 15 C 11.715878 15.286586 11.134248 15.437501 10.46875 15.4375 C 9.8143698 15.437502 9.2986933 15.274123 8.875 15 L 8.0625 15 z "
       id="path3729" />
    <path
       style="font-size:12px;font-style:normal;font-variant:normal;font-weight:normal;font-stretch:normal;text-align:start;line-height:125%;writing-mode:lr-tb;text-anchor:start;fill:#ffffff;fill-opacity:1;stroke:none;font-family:Sans;-inkscape-font-specification:Sans;opacity:0.2"
       d="M 10.6875 6.59375 C 10.010962 6.5937601 9.3600415 6.6560472 8.71875 6.8125 C 8.0774496 6.9689724 7.4669634 7.2183342 6.875 7.53125 L 6.875 8.53125 C 7.4669634 8.2183342 8.0774496 7.9689724 8.71875 7.8125 C 9.3600415 7.6560472 10.010962 7.5937601 10.6875 7.59375 C 11.751623 7.5937601 12.571323 7.8363195 13.15625 8.3125 C 13.547432 8.6226905 13.799397 9.0175164 13.9375 9.5 L 14.0625 9.5 L 14.0625 9.3125 C 14.06249 8.448563 13.748208 7.7818967 13.15625 7.3125 C 12.571323 6.8363195 11.751623 6.5937601 10.6875 6.59375 z M 12.125 10.96875 C 10.553464 10.968755 9.4498058 11.121812 8.84375 11.46875 C 8.6098093 11.60267 8.4243693 11.792053 8.28125 12 L 11.03125 12 C 11.365185 11.980229 11.732116 11.968751 12.125 11.96875 L 14.03125 11.96875 C 14.050761 11.77626 14.062498 11.582438 14.0625 11.375 L 14.0625 10.96875 L 12.125 10.96875 z M 4 14 L 4 15 L 6.0625 15 C 6.1751977 15.813881 6.4933095 16.503569 7.0625 17.03125 C 7.7813123 17.684311 8.7566244 18 9.96875 18 C 10.927167 18 11.743804 17.826531 12.40625 17.5 C 13.068679 17.166667 13.618516 16.662629 14.0625 15.96875 L 14.0625 14.96875 C 13.618516 15.662629 13.068679 16.166667 12.40625 16.5 C 11.743804 16.826531 10.927167 17 9.96875 17 C 8.7566244 17 7.7813123 16.684311 7.0625 16.03125 C 6.4933095 15.503569 6.1751977 14.813881 6.0625 14 L 4 14 z M 8.0625 14 C 8.1746933 14.328413 8.3586706 14.610765 8.625 14.84375 C 8.699876 14.907133 8.7922094 14.946436 8.875 15 L 12.21875 15 C 12.530615 14.822269 12.814324 14.593726 13.0625 14.3125 C 13.147217 14.216652 13.20699 14.103585 13.28125 14 L 8.0625 14 z M 16 14 L 16 15 L 18 15 L 18 14 L 16 14 z M 14.0625 17 L 14.0625 18 L 16 18 L 16 17 L 14.0625 17 z "
       id="path3738" />
    <path
       style="color:#000000;font-style:normal;font-variant:normal;font-weight:normal;font-stretch:normal;font-size:12px;line-height:125%;font-family:Sans;-inkscape-font-specification:Sans;text-indent:0;text-align:start;text-decoration:none;text-decoration-line:none;text-decoration-style:solid;text-decoration-color:#000000;letter-spacing:normal;word-spacing:normal;text-transform:none;direction:ltr;block-progression:tb;writing-mode:lr-tb;baseline-shift:baseline;text-anchor:start;white-space:normal;clip-rule:nonzero;display:inline;overflow:visible;visibility:visible;opacity:0.3;isolation:auto;mix-blend-mode:normal;color-interpolation:sRGB;color-interpolation-filters:linearRGB;solid-color:#000000;solid-opacity:1;fill:#000000;fill-opacity:1;fill-rule:nonzero;stroke:none;stroke-width:1.20000005;stroke-linecap:butt;stroke-linejoin:miter;stroke-miterlimit:4;stroke-dasharray:none;stroke-dashoffset:0;stroke-opacity:1;color-rendering:auto;image-rendering:auto;shape-rendering:auto;text-rendering:auto;enable-background:accumulate"
       d="M 10.90625,5 C 10.271995,5.0000117 9.606981,5.082707 8.9375,5.21875 8.268011,5.3480131 7.586766,5.5159551 6.875,5.78125 l 0,1.75 C 7.466963,7.2183342 8.07745,6.9689724 8.71875,6.8125 9.360041,6.6560472 10.010962,6.5937601 10.6875,6.59375 c 1.064123,1.01e-5 1.883823,0.2425695 2.46875,0.71875 0.591958,0.4693967 0.90624,1.136063 0.90625,2 l 0,0.1875 -2.75,0 C 9.543642,9.500007 8.238742,9.815696 7.34375,10.46875 6.811495,10.86021 6.466615,11.381779 6.25,12 L 4,12 l 0,2 2.0625,0 c 0.112698,0.813881 0.430809,1.503569 1,2.03125 C 7.781312,16.684311 8.756624,17 9.96875,17 c 0.958417,0 1.775054,-0.173469 2.4375,-0.5 0.662429,-0.333333 1.212266,-0.837371 1.65625,-1.53125 l 0,2.03125 1.9375,0 0,-3 2,0 0,-2 -2,0 0,-1.8125 C 15.999989,8.446012 15.564405,7.1384024 14.71875,6.28125 13.873074,5.4241184 12.618715,5.0000117 10.90625,5 Z m 0,0.5996094 c 1.613404,1.1e-5 2.677923,0.3870985 3.384766,1.1035156 0.703737,0.7133052 1.109364,1.8429338 1.109375,3.484375 l 0,2.412109 2,0 0,0.800782 -2,0 0,3 -0.738282,0 0,-3.482422 -0.308593,0.482422 -7.13086,0 0.271485,0.792968 c 0.143052,0.418745 0.392254,0.800567 0.736328,1.101563 l 0.00391,0.0039 0.00391,0.002 c 0.576418,0.487943 1.342885,0.736331 2.230469,0.736328 1.170719,3e-6 2.180482,-0.457404 2.927734,-1.24414 -0.362371,0.506014 -0.756996,0.916002 -1.255859,1.167969 -0.562635,0.277331 -1.285856,0.439453 -2.171875,0.439453 -1.106737,0 -1.910067,-0.275569 -2.5,-0.810547 -0.458561,-0.425967 -0.714664,-0.965321 -0.8125,-1.671875 l -0.070312,-0.517578 -1.986329,0 0,-0.800782 2.076172,0 0.140625,-0.40039 c 0.18572,-0.530047 0.45582,-0.934005 0.882813,-1.248047 0.745132,-0.542819 1.917189,-0.851556 3.613281,-0.851563 l 3.349609,0 0,-0.787109 c -10e-7,-1.0064415 -0.403425,-1.8877391 -1.126953,-2.4648438 l -0.002,-0.00195 C 12.813052,6.2603684 11.841726,5.9941516 10.6875,5.9941406 9.974141,5.9941513 9.272663,6.0605495 8.576172,6.2304688 8.1879,6.3252048 7.838988,6.5086969 7.474609,6.6582031 l 0,-0.4199219 C 8.005805,6.0645963 8.530693,5.9090111 9.050781,5.8085938 l 0.00391,-0.00195 0.00195,0 C 9.696595,5.6765863 10.32414,5.5996201 10.90625,5.5996094 Z M 12.125,10.369141 c -1.610492,5e-6 -2.767488,0.112956 -3.580078,0.578125 -0.32696,0.187168 -0.57392,0.445701 -0.757813,0.71289 l -0.646484,0.939453 7.429687,0 0.05664,-0.535156 c 0.02435,-0.226578 0.03515,-0.453728 0.03516,-0.689453 l 0,-1.005859 -2.537109,0 z m 0,0.599609 1.9375,0 0,0.40625 c -2e-6,0.218327 -0.0095,0.422628 -0.03125,0.625 l -5.75,0 c 0.143119,-0.207947 0.328559,-0.39733 0.5625,-0.53125 0.606056,-0.346938 1.709714,-0.499995 3.28125,-0.5 z M 8.0625,14 l 5.21875,0 c -0.07426,0.103585 -0.134033,0.216652 -0.21875,0.3125 -0.648352,0.734694 -1.515532,1.125002 -2.59375,1.125 C 9.686502,15.437502 9.083065,15.231506 8.625,14.84375 8.358671,14.610765 8.174693,14.328413 8.0625,14 Z"
       id="path2871-2"
       inkscape:connector-curvature="0" />
  </g>
</svg>
