<?xml version="1.0" encoding="UTF-8" standalone="no"?>
<!-- Created with Inkscape (http://www.inkscape.org/) -->

<svg
   xmlns:dc="http://purl.org/dc/elements/1.1/"
   xmlns:cc="http://creativecommons.org/ns#"
   xmlns:rdf="http://www.w3.org/1999/02/22-rdf-syntax-ns#"
   xmlns:svg="http://www.w3.org/2000/svg"
   xmlns="http://www.w3.org/2000/svg"
   xmlns:xlink="http://www.w3.org/1999/xlink"
   xmlns:sodipodi="http://sodipodi.sourceforge.net/DTD/sodipodi-0.dtd"
   xmlns:inkscape="http://www.inkscape.org/namespaces/inkscape"
   width="22"
   height="22"
   id="svg2"
   sodipodi:version="0.32"
   inkscape:version="0.48.1 r9760"
   version="1.0"
   sodipodi:docname="mail-reply-all.svg"
   inkscape:output_extension="org.inkscape.output.svg.inkscape"
   inkscape:export-filename="/home/matt/.icons/Sirocco/scalable/mimetypes/text-plain.png"
   inkscape:export-xdpi="90"
   inkscape:export-ydpi="90"
   sodipodi:modified="true"
   style="display:inline">
  <sodipodi:namedview
     id="base"
     pagecolor="#838383"
     bordercolor="#cc0000"
     borderopacity="1"
     inkscape:pageopacity="1"
     inkscape:pageshadow="2"
     inkscape:zoom="22.027846"
     inkscape:cx="0.67272788"
     inkscape:cy="10.522735"
     inkscape:document-units="px"
     inkscape:current-layer="layer1"
     width="128px"
     height="128px"
     inkscape:showpageshadow="false"
     inkscape:window-width="1920"
     inkscape:window-height="1030"
     inkscape:window-x="0"
     inkscape:window-y="25"
     showguides="true"
     inkscape:guide-bbox="true"
     showgrid="true"
     inkscape:window-maximized="1"
     borderlayer="true"
     inkscape:snap-global="false">
    <inkscape:grid
       enabled="true"
       visible="true"
       id="grid3231"
       type="xygrid"
       empspacing="8"
       snapvisiblegridlinesonly="true" />
    <sodipodi:guide
       orientation="1,0"
       position="12,6"
       id="guide3791" />
    <sodipodi:guide
       orientation="0,1"
       position="14,9"
       id="guide3793" />
  </sodipodi:namedview>
  <defs
     id="defs4">
    <linearGradient
       id="StandardGradient"
       gradientTransform="scale(0.9219544,1.0846523)"
       x1="11.998966"
       y1="0.92195445"
       x2="11.998966"
       y2="19.387045"
       gradientUnits="userSpaceOnUse">
      <stop
         style="stop-color:#000000;stop-opacity:0.23529412;"
         offset="0"
         id="stop3283" />
      <stop
         id="stop3850"
         offset="0.69999999"
         style="stop-color:#000000;stop-opacity:0.39215686;" />
      <stop
         style="stop-color:#000000;stop-opacity:0.55;"
         offset="1"
         id="stop2651" />
    </linearGradient>
    <radialGradient
       inkscape:collect="always"
       xlink:href="#StandardGradient"
       id="radialGradient3857"
       cx="12"
       cy="12.447369"
       fx="12"
       fy="12.447369"
       r="6"
       gradientTransform="matrix(2.6666667,-9.1385016e-8,5.7115635e-8,1.6666667,-20.000001,-7.7456132)"
       gradientUnits="userSpaceOnUse" />
    <radialGradient
       inkscape:collect="always"
       xlink:href="#StandardGradient"
       id="radialGradient3868"
       cx="12"
       cy="14"
       fx="12"
       fy="14"
       r="9"
       gradientTransform="matrix(1.7777778,0,0,0.8888889,-39.333333,0.55555555)"
       gradientUnits="userSpaceOnUse" />
    <radialGradient
       inkscape:collect="always"
       xlink:href="#StandardGradient"
       id="radialGradient3874"
       gradientUnits="userSpaceOnUse"
       gradientTransform="matrix(1.7777778,0,0,0.8888889,-9.3333333,0.55555555)"
       cx="12"
       cy="14"
       fx="12"
       fy="14"
       r="9" />
    <radialGradient
       inkscape:collect="always"
       xlink:href="#StandardGradient"
       id="radialGradient3878"
       gradientUnits="userSpaceOnUse"
       gradientTransform="matrix(1.7777778,0,0,0.8888889,-9.3333333,0.55555555)"
       cx="12"
       cy="14"
       fx="12"
       fy="14"
       r="9" />
    <radialGradient
       inkscape:collect="always"
       xlink:href="#StandardGradient"
       id="radialGradient3872"
       gradientUnits="userSpaceOnUse"
       gradientTransform="matrix(2.0000291,-1.0407246e-8,0,0.75001088,-11.000349,32.959605)"
       cx="11.500008"
       cy="13.386999"
       fx="11.500008"
       fy="13.386999"
       r="7.9998837" />
    <radialGradient
       inkscape:collect="always"
       xlink:href="#StandardGradient"
       id="radialGradient3876"
       gradientUnits="userSpaceOnUse"
       gradientTransform="matrix(-7.9495968e-8,-0.87501265,-2.000029,1.9384686e-7,39.774388,21.312649)"
       cx="9.5000362"
       cy="12.874928"
       fx="9.5000362"
       fy="12.874928"
       r="7.9998837" />
    <radialGradient
       inkscape:collect="always"
       xlink:href="#StandardGradient"
       id="radialGradient3882"
       gradientUnits="userSpaceOnUse"
       gradientTransform="matrix(-7.9495968e-8,-0.87501265,-2.000029,1.9384686e-7,38.774388,22.312649)"
       cx="9.5000362"
       cy="13.386999"
       fx="9.5000362"
       fy="13.386999"
       r="7.9998837" />
    <radialGradient
       inkscape:collect="always"
       xlink:href="#StandardGradient"
       id="radialGradient3884"
       gradientUnits="userSpaceOnUse"
       gradientTransform="matrix(-7.9495968e-8,-0.87501265,-2.000029,1.9384686e-7,38.774388,21.312649)"
       cx="9.5000362"
       cy="13.386999"
       fx="9.5000362"
       fy="13.386999"
       r="7.9998837" />
    <radialGradient
       inkscape:collect="always"
       xlink:href="#StandardGradient"
       id="radialGradient3891"
       gradientUnits="userSpaceOnUse"
       gradientTransform="matrix(-7.9495968e-8,-0.87501265,-2.000029,1.9384686e-7,38.774388,21.312649)"
       cx="9.5000362"
       cy="13.386999"
       fx="9.5000362"
       fy="13.386999"
       r="7.9998837" />
    <radialGradient
       inkscape:collect="always"
       xlink:href="#StandardGradient"
       id="radialGradient3895"
       gradientUnits="userSpaceOnUse"
       gradientTransform="matrix(-7.9495968e-8,-0.87501265,-2.000029,1.9384686e-7,38.774388,21.312649)"
       cx="9.5000362"
       cy="13.386999"
       fx="9.5000362"
       fy="13.386999"
       r="7.9998837" />
    <radialGradient
       inkscape:collect="always"
       xlink:href="#StandardGradient"
       id="radialGradient3897"
       gradientUnits="userSpaceOnUse"
       gradientTransform="matrix(-7.9495968e-8,-0.87501265,-2.000029,1.9384686e-7,38.774388,21.312649)"
       cx="9.5000362"
       cy="13.386999"
       fx="9.5000362"
       fy="13.386999"
       r="7.9998837" />
    <radialGradient
       inkscape:collect="always"
       xlink:href="#StandardGradient"
       id="radialGradient3902"
       gradientUnits="userSpaceOnUse"
       gradientTransform="matrix(-7.9495968e-8,-0.87501265,-2.000029,1.9384686e-7,38.774388,22.312649)"
       cx="9.5000362"
       cy="13.386999"
       fx="9.5000362"
       fy="13.386999"
       r="7.9998837" />
    <radialGradient
       inkscape:collect="always"
       xlink:href="#StandardGradient"
       id="radialGradient3906"
       gradientUnits="userSpaceOnUse"
       gradientTransform="matrix(-7.9495968e-8,-0.87501265,-2.000029,1.9384686e-7,38.774388,21.312649)"
       cx="9.5000362"
       cy="13.386999"
       fx="9.5000362"
       fy="13.386999"
       r="7.9998837" />
    <radialGradient
       inkscape:collect="always"
       xlink:href="#StandardGradient"
       id="radialGradient3913"
       gradientUnits="userSpaceOnUse"
       gradientTransform="matrix(-7.9495968e-8,-0.87501265,-2.000029,1.9384686e-7,38.774388,21.312649)"
       cx="9.5000362"
       cy="13.386999"
       fx="9.5000362"
       fy="13.386999"
       r="7.9998837" />
    <radialGradient
       inkscape:collect="always"
       xlink:href="#StandardGradient"
       id="radialGradient3917"
       gradientUnits="userSpaceOnUse"
       gradientTransform="matrix(-7.9495968e-8,-0.87501265,-2.000029,1.9384686e-7,38.774388,21.312649)"
       cx="9.5000362"
       cy="13.386999"
       fx="9.5000362"
       fy="13.386999"
       r="7.9998837" />
    <radialGradient
       inkscape:collect="always"
       xlink:href="#StandardGradient"
       id="radialGradient3040"
       gradientUnits="userSpaceOnUse"
       gradientTransform="matrix(-7.9495968e-8,-0.87501265,-2.000029,1.9384686e-7,36.774388,21.312649)"
       cx="9.5000362"
       cy="12.874928"
       fx="9.5000362"
       fy="12.874928"
       r="7.9998837" />
    <radialGradient
       inkscape:collect="always"
       xlink:href="#StandardGradient"
       id="radialGradient3044"
       gradientUnits="userSpaceOnUse"
       gradientTransform="matrix(-7.9495968e-8,-0.87501265,-2.000029,1.9384686e-7,38.774388,21.312649)"
       cx="9.5000362"
       cy="12.874928"
       fx="9.5000362"
       fy="12.874928"
       r="7.9998837" />
    <radialGradient
       inkscape:collect="always"
       xlink:href="#StandardGradient"
       id="radialGradient3054"
       gradientUnits="userSpaceOnUse"
       gradientTransform="matrix(-7.9495968e-8,-0.87501265,-2.000029,1.9384686e-7,39.774388,21.312649)"
       cx="9.5000362"
       cy="12.874928"
       fx="9.5000362"
       fy="12.874928"
       r="7.9998837" />
    <radialGradient
       inkscape:collect="always"
       xlink:href="#StandardGradient"
       id="radialGradient3058"
       gradientUnits="userSpaceOnUse"
       gradientTransform="matrix(-7.9495968e-8,-0.87501265,-2.000029,1.9384686e-7,39.774388,21.312649)"
       cx="9.5000362"
       cy="12.874928"
       fx="9.5000362"
       fy="12.874928"
       r="7.9998837" />
    <radialGradient
       inkscape:collect="always"
       xlink:href="#StandardGradient"
       id="radialGradient3063"
       gradientUnits="userSpaceOnUse"
       gradientTransform="matrix(-7.9495968e-8,-0.87501265,-2.000029,1.9384686e-7,39.774388,21.312649)"
       cx="9.5000362"
       cy="12.874928"
       fx="9.5000362"
       fy="12.874928"
       r="7.9998837" />
    <radialGradient
       inkscape:collect="always"
       xlink:href="#StandardGradient"
       id="radialGradient3067"
       gradientUnits="userSpaceOnUse"
       gradientTransform="matrix(-7.9495968e-8,-0.87501265,-2.000029,1.9384686e-7,39.774388,21.312649)"
       cx="9.5000362"
       cy="12.874928"
       fx="9.5000362"
       fy="12.874928"
       r="7.9998837" />
    <radialGradient
       inkscape:collect="always"
       xlink:href="#StandardGradient"
       id="radialGradient3069"
       gradientUnits="userSpaceOnUse"
       gradientTransform="matrix(-7.9495968e-8,-0.87501265,-2.000029,1.9384686e-7,39.774388,21.312649)"
       cx="9.5000362"
       cy="12.874928"
       fx="9.5000362"
       fy="12.874928"
       r="7.9998837" />
    <radialGradient
       inkscape:collect="always"
       xlink:href="#StandardGradient"
       id="radialGradient3076"
       gradientUnits="userSpaceOnUse"
       gradientTransform="matrix(-7.9495968e-8,-0.87501265,-2.000029,1.9384686e-7,39.774388,22.312649)"
       cx="9.5000362"
       cy="12.874928"
       fx="9.5000362"
       fy="12.874928"
       r="7.9998837" />
    <radialGradient
       inkscape:collect="always"
       xlink:href="#StandardGradient"
       id="radialGradient3078"
       gradientUnits="userSpaceOnUse"
       gradientTransform="matrix(-7.9495968e-8,-0.87501265,-2.000029,1.9384686e-7,39.774388,21.312649)"
       cx="9.5000362"
       cy="12.874928"
       fx="9.5000362"
       fy="12.874928"
       r="7.9998837" />
    <radialGradient
       inkscape:collect="always"
       xlink:href="#StandardGradient"
       id="radialGradient3851"
       gradientUnits="userSpaceOnUse"
       gradientTransform="matrix(-7.9495968e-8,-0.87501265,-2.000029,1.9384686e-7,39.774388,22.312649)"
       cx="9.5000362"
       cy="12.874928"
       fx="9.5000362"
       fy="12.874928"
       r="7.9998837" />
    <radialGradient
       inkscape:collect="always"
       xlink:href="#StandardGradient"
       id="radialGradient3855"
       gradientUnits="userSpaceOnUse"
       gradientTransform="matrix(-7.9495968e-8,-0.87501265,-2.000029,1.9384686e-7,39.774388,21.312649)"
       cx="9.5000362"
       cy="12.874928"
       fx="9.5000362"
       fy="12.874928"
       r="7.9998837" />
    <radialGradient
       inkscape:collect="always"
       xlink:href="#StandardGradient"
       id="radialGradient3862"
       gradientUnits="userSpaceOnUse"
       gradientTransform="matrix(-7.9495968e-8,-0.87501265,-2.000029,1.9384686e-7,39.774388,21.312649)"
       cx="9.5000362"
       cy="12.874928"
       fx="9.5000362"
       fy="12.874928"
       r="7.9998837" />
    <radialGradient
       inkscape:collect="always"
       xlink:href="#StandardGradient"
       id="radialGradient3866"
       gradientUnits="userSpaceOnUse"
       gradientTransform="matrix(-7.9495968e-8,-0.87501265,-2.000029,1.9384686e-7,39.774388,21.312649)"
       cx="9.5000362"
       cy="12.874928"
       fx="9.5000362"
       fy="12.874928"
       r="7.9998837" />
  </defs>
  <metadata
     id="metadata7">
    <rdf:RDF>
      <cc:Work
         rdf:about="">
        <dc:format>image/svg+xml</dc:format>
        <dc:type
           rdf:resource="http://purl.org/dc/dcmitype/StillImage" />
        <dc:title></dc:title>
      </cc:Work>
    </rdf:RDF>
  </metadata>
  <g
     style="display:inline"
     inkscape:label="Calque 1"
     id="layer1"
     inkscape:groupmode="layer">
    <path
       style="fill:#ffffff;fill-opacity:1;stroke:none;opacity:0.05"
       d="M 8.875 2.96875 A 1.0243074 1.0243074 0 0 0 8.34375 3.21875 L 0.34375 9.6875 A 1.0243074 1.0243074 0 0 0 0.34375 11.25 L 8.34375 17.78125 A 1.0243074 1.0243074 0 0 0 10.03125 17 L 10.03125 16.71875 L 11.34375 17.78125 A 1.0243074 1.0243074 0 0 0 13.03125 17 L 13.03125 13.90625 C 14.979884 13.615144 16.568069 13.651841 17.125 14 C 17.446931 14.201252 17.574283 14.39132 17.625 14.9375 C 17.675717 15.48368 17.519488 16.382451 17.03125 17.625 A 1.0275739 1.0275739 0 1 0 18.84375 18.59375 C 20.111851 16.818409 21.074775 15.338388 21.46875 13.78125 C 21.862725 12.224112 21.479556 10.56171 20.25 9.1875 C 19.037254 7.8320784 17.620866 7.2264813 16.21875 7.03125 C 15.159298 6.8837314 14.10058 6.9388905 13.03125 6.96875 L 13.03125 4 A 1.0243074 1.0243074 0 0 0 11.34375 3.21875 L 10.03125 4.28125 L 10.03125 4 A 1.0243074 1.0243074 0 0 0 8.96875 2.96875 A 1.0243074 1.0243074 0 0 0 8.875 2.96875 z M 9 4 L 9 5.625 L 3 10.46875 L 9 15.375 L 9 17 L 1 10.46875 L 9 4 z M 12 4 L 12 8 C 15 8 17.375 7.5 19.5 9.875 C 21.625 12.25 20.5 14.5 18 18 C 20.08953 12.68222 17 12 12 13 L 12 17 L 4 10.46875 L 12 4 z "
       id="path3864" />
    <path
       style="opacity:0.05;fill:#ffffff;fill-opacity:1;stroke:none"
       d="m 10.875,34 a 1.0050079,1.0050079 0 0 0 -0.5,0.21875 l -8,6.53125 a 1.0050079,1.0050079 0 0 0 0,1.5625 l 8,6.46875 A 1.0050079,1.0050079 0 0 0 12,48 l 0,-3.09375 c 3.568442,-0.228411 5.803908,-1.553885 6.875,-3.5625 C 20.049388,39.141425 20,36.499915 20,34 l -1,0 c 0,5 0.0013,10 -8,10 L 11,48 3,41.53125 11,35 l 0,4 c 6.939083,0 8,-1 8,-5 l -1,0 c 0,0.955578 -0.0644,1.668994 -0.21875,2.15625 -0.154351,0.487256 -0.336612,0.746954 -0.71875,1 C 16.39306,37.599543 14.663971,37.868438 12,37.9375 L 12,35 a 1.0050079,1.0050079 0 0 0 -1.125,-1 z"
       id="path3867"
       inkscape:connector-curvature="0" />
    <path
       inkscape:connector-curvature="0"
       style="opacity:0.05;fill:#ffffff;fill-opacity:1;stroke:none;display:inline"
       d="m -26.5,4 c -0.248034,0 -0.486001,0.056268 -0.71875,0.125 -0.553767,0.1635301 -1.02592,0.4975251 -1.34375,0.96875 -0.117354,0.1739926 -0.220105,0.3653216 -0.28125,0.53125 -0.101612,0.2742726 -0.09067,0.3611416 -0.0625,0.25 C -28.936009,5.9928262 -29,6.2049027 -29,6.5 l 0,9 c 0,0.295097 0.06399,0.507174 0.09375,0.625 0.02676,0.102549 0.08214,0.208938 0.125,0.3125 0.01594,0.03999 0.05257,0.222361 0.21875,0.46875 0.109429,0.161617 0.182085,0.247845 0.1875,0.25 0.33153,0.370947 0.781696,0.631722 1.25,0.75 C -27.007174,17.936009 -26.795097,18 -26.5,18 l 15,0 c 0.175546,0 0.331183,-0.02812 0.5,-0.0625 0.58905,-0.11993 1.131359,-0.441039 1.5,-0.9375 0.17727,-0.238732 0.246356,-0.448478 0.28125,-0.53125 0.0022,-0.0055 0.0999,-0.160629 0.15625,-0.4375 C -9.0586,16.0121 -9.066,16.0173 -9.0625,16 -9.02814,15.831235 -9,15.675571 -9,15.5 l 0,-9 C -9,6.2519672 -9.056267,6.0140003 -9.125,5.78125 -9.171686,5.6245351 -9.209739,5.5524636 -9.21875,5.53125 -9.255231,5.4447123 -9.317495,5.2716716 -9.4375,5.09375 -9.616777,4.8279473 -9.827948,4.6167769 -10.09375,4.4375 c -0.09356,-0.063106 -0.224814,-0.1519408 -0.375,-0.21875 a 0.98573164,0.98573164 0 0 0 -0.0625,0 c -0.02276,-0.0096 -0.01319,0.00699 -0.03125,0 -0.02915,-0.0096 -0.03602,-0.024015 -0.0625,-0.03125 -0.01562,-0.00433 -0.07544,-0.035732 -0.0625,-0.03125 a 0.98573164,0.98573164 0 0 0 -0.03125,0 C -10.816551,4.127164 -10.862937,4.0967968 -10.875,4.09375 -10.992826,4.0639909 -11.204903,4 -11.5,4 l -15,0 z m 0,1 15,0 c 0.128113,0 0.256446,0.032557 0.375,0.0625 0.04246,0.010723 0.08411,0.019088 0.125,0.03125 0.0309,0.010698 0.06382,0.018633 0.09375,0.03125 0.0093,0.00331 0.02203,-0.00349 0.03125,0 0.07999,0.035583 0.146952,0.076574 0.21875,0.125 0.159551,0.1076133 0.298637,0.2466992 0.40625,0.40625 0.05381,0.079775 0.08715,0.1602109 0.125,0.25 0.02149,0.050583 0.0466,0.1028876 0.0625,0.15625 C -10.022465,6.1980709 -10,6.3511125 -10,6.5 l 0,9 c 0,0.103875 -0.01133,0.214678 -0.03125,0.3125 -0.0018,0.0099 0.002,0.02144 0,0.03125 -0.01813,0.08908 -0.06115,0.167514 -0.09375,0.25 -0.04676,0.110916 -0.0855,0.21722 -0.15625,0.3125 -0.215616,0.290377 -0.537978,0.487522 -0.90625,0.5625 C -11.285322,16.988666 -11.396125,17 -11.5,17 l -15,0 c -0.128112,0 -0.256446,-0.03256 -0.375,-0.0625 -0.347369,-0.08773 -0.64112,-0.280379 -0.84375,-0.5625 -0.0081,-0.01129 -0.02345,-0.01973 -0.03125,-0.03125 -0.05919,-0.08775 -0.08524,-0.1815 -0.125,-0.28125 -0.02582,-0.06237 -0.04519,-0.121161 -0.0625,-0.1875 C -27.967443,15.756446 -28,15.628113 -28,15.5 l 0,-9 c 0,-0.1281125 0.03256,-0.2564458 0.0625,-0.375 0.01317,-0.051955 0.01288,-0.106676 0.03125,-0.15625 0.04174,-0.1132701 0.08989,-0.2141104 0.15625,-0.3125 0.19191,-0.2845322 0.475149,-0.4941286 0.8125,-0.59375 C -26.801929,5.0224652 -26.648887,5 -26.5,5 z m 0,1.03125 c -0.262593,0 -0.44197,0.159457 -0.46875,0.40625 l 7.9375,7.96875 8,-7.96875 C -11.058033,6.190707 -11.237407,6.03125 -11.5,6.03125 l -0.59375,0 -6.9375,6.9375 -6.9375,-6.9375 -0.53125,0 z m 11.65625,5.8125 -0.71875,0.71875 3.40625,3.40625 0.65625,0 c 0.237492,0 0.38803,-0.137016 0.4375,-0.34375 l -3.78125,-3.78125 z m -8.40625,0.0625 -3.6875,3.6875 c 0.0398,0.224924 0.188423,0.375 0.4375,0.375 l 0.59375,0 3.375,-3.34375 -0.71875,-0.71875 z"
       id="path3125" />
    <path
       inkscape:connector-curvature="0"
       style="fill:url(#radialGradient3868);fill-opacity:1;stroke:none;display:inline"
       d="m -26.5,5 c -0.148887,0 -0.301929,0.022465 -0.4375,0.0625 -0.337351,0.099621 -0.62059,0.3092178 -0.8125,0.59375 -0.06636,0.09839 -0.114509,0.1992299 -0.15625,0.3125 C -27.92462,6.018324 -27.92433,6.0730454 -27.9375,6.125 -27.967443,6.2435542 -28,6.3718875 -28,6.5 l 0,9 c 0,0.128113 0.03256,0.256446 0.0625,0.375 0.01731,0.06634 0.03668,0.125125 0.0625,0.1875 0.03976,0.09975 0.06581,0.193497 0.125,0.28125 0.0078,0.01152 0.02314,0.01996 0.03125,0.03125 0.20263,0.282121 0.496381,0.474766 0.84375,0.5625 C -26.756446,16.96744 -26.628112,17 -26.5,17 l 15,0 c 0.103875,0 0.214678,-0.01133 0.3125,-0.03125 0.368272,-0.07498 0.690634,-0.272123 0.90625,-0.5625 0.07075,-0.09528 0.109492,-0.201584 0.15625,-0.3125 0.0326,-0.08249 0.07562,-0.160924 0.09375,-0.25 0.002,-0.0098 -0.0018,-0.02137 0,-0.03125 C -10.011334,15.714678 -10,15.603875 -10,15.5 l 0,-9 c 0,-0.1488875 -0.02247,-0.3019291 -0.0625,-0.4375 -0.0159,-0.053362 -0.04101,-0.1056672 -0.0625,-0.15625 -0.03785,-0.089789 -0.07119,-0.1702246 -0.125,-0.25 -0.107613,-0.1595508 -0.246699,-0.2986367 -0.40625,-0.40625 -0.0718,-0.048426 -0.138761,-0.089417 -0.21875,-0.125 -0.0092,-0.00349 -0.02193,0.00331 -0.03125,0 -0.02993,-0.012617 -0.06285,-0.020552 -0.09375,-0.03125 -0.0409,-0.012162 -0.08254,-0.020527 -0.125,-0.03125 C -11.243554,5.032557 -11.371887,5 -11.5,5 l -15,0 z m 0,1.03125 0.53125,0 6.9375,6.9375 6.9375,-6.9375 0.59375,0 c 0.262593,0 0.441967,0.159457 0.46875,0.40625 l -8,7.96875 -7.9375,-7.96875 C -26.94197,6.190707 -26.762593,6.03125 -26.5,6.03125 z m 11.65625,5.8125 3.78125,3.78125 c -0.04947,0.206734 -0.200008,0.34375 -0.4375,0.34375 l -0.65625,0 -3.40625,-3.40625 0.71875,-0.71875 z m -8.40625,0.0625 0.71875,0.71875 -3.375,3.34375 -0.59375,0 c -0.249077,0 -0.397701,-0.150076 -0.4375,-0.375 l 3.6875,-3.6875 z"
       id="rect2932" />
    <path
       inkscape:connector-curvature="0"
       style="opacity:0.3;fill:#000000;fill-opacity:1;stroke:none;display:inline"
       d="m -26.5,5 c -0.148887,0 -0.301929,0.022465 -0.4375,0.0625 -0.337351,0.099621 -0.62059,0.3092178 -0.8125,0.59375 -0.06636,0.09839 -0.114509,0.1992299 -0.15625,0.3125 C -27.92462,6.018324 -27.92433,6.0730454 -27.9375,6.125 -27.967443,6.2435542 -28,6.3718875 -28,6.5 l 0,1 c 0,-0.1281125 0.03256,-0.2564458 0.0625,-0.375 0.01317,-0.051955 0.01288,-0.106676 0.03125,-0.15625 0.04174,-0.1132701 0.08989,-0.2141104 0.15625,-0.3125 0.19191,-0.2845322 0.475149,-0.4941286 0.8125,-0.59375 C -26.801929,6.0224652 -26.648887,6 -26.5,6 l 15,0 c 0.128113,0 0.256446,0.032557 0.375,0.0625 0.04246,0.010723 0.08411,0.019088 0.125,0.03125 0.0309,0.010698 0.06382,0.018633 0.09375,0.03125 0.0093,0.00331 0.02205,-0.00349 0.03125,0 0.07999,0.035583 0.146952,0.076574 0.21875,0.125 0.159551,0.1076133 0.298637,0.2466992 0.40625,0.40625 0.05381,0.079775 0.08715,0.1602109 0.125,0.25 0.02149,0.050583 0.0466,0.1028876 0.0625,0.15625 C -10.022465,7.1980709 -10,7.3511125 -10,7.5 l 0,-1 c 0,-0.1488875 -0.02247,-0.3019291 -0.0625,-0.4375 -0.0159,-0.053362 -0.04101,-0.1056672 -0.0625,-0.15625 -0.03785,-0.089789 -0.07119,-0.1702246 -0.125,-0.25 -0.107613,-0.1595508 -0.246699,-0.2986367 -0.40625,-0.40625 -0.0718,-0.048426 -0.138761,-0.089417 -0.21875,-0.125 -0.0092,-0.00349 -0.02193,0.00331 -0.03125,0 -0.02993,-0.012617 -0.06285,-0.020552 -0.09375,-0.03125 -0.0409,-0.012162 -0.08254,-0.020527 -0.125,-0.03125 C -11.243554,5.032557 -11.371887,5 -11.5,5 l -15,0 z m 0,2.03125 c -0.262593,0 -0.44197,0.159457 -0.46875,0.40625 l 7.9375,7.96875 8,-7.96875 C -11.058033,7.190707 -11.237407,7.03125 -11.5,7.03125 l -0.125,0 -7.40625,7.375 -7.34375,-7.375 -0.125,0 z m 11.4375,6.03125 -0.5,0.5 3.40625,3.40625 0.65625,0 c 0.237492,0 0.38803,-0.137016 0.4375,-0.34375 l -0.65625,-0.65625 -0.4375,0 -2.90625,-2.90625 z m -7.96875,0.0625 -2.875,2.84375 -0.40625,0 -0.625,0.625 c 0.0398,0.224924 0.188423,0.375 0.4375,0.375 l 0.59375,0 3.375,-3.34375 -0.5,-0.5 z"
       id="path3707" />
    <path
       style="opacity:0.25;fill:#000000;fill-opacity:1;stroke:none;display:inline"
       d="m -26.5,5 c -0.148887,0 -0.301929,0.022465 -0.4375,0.0625 -0.337351,0.099621 -0.62059,0.3092178 -0.8125,0.59375 -0.06636,0.09839 -0.114509,0.1992299 -0.15625,0.3125 C -27.92462,6.018324 -27.92433,6.0730454 -27.9375,6.125 -27.967443,6.2435542 -28,6.3718875 -28,6.5 l 0,9 c 0,0.128113 0.03256,0.256446 0.0625,0.375 0.01731,0.06634 0.03668,0.125125 0.0625,0.1875 0.03976,0.09975 0.06581,0.193497 0.125,0.28125 0.0078,0.01152 0.02314,0.01996 0.03125,0.03125 0.20263,0.282121 0.496381,0.474766 0.84375,0.5625 C -26.756446,16.96744 -26.628112,17 -26.5,17 l 15,0 c 0.103875,0 0.214678,-0.01133 0.3125,-0.03125 0.368272,-0.07498 0.690634,-0.272123 0.90625,-0.5625 0.07075,-0.09528 0.109492,-0.201584 0.15625,-0.3125 0.0326,-0.08249 0.07562,-0.160924 0.09375,-0.25 0.002,-0.0098 -0.0018,-0.02137 0,-0.03125 C -10.011334,15.714678 -10,15.603875 -10,15.5 l 0,-9 c 0,-0.1488875 -0.02247,-0.3019291 -0.0625,-0.4375 -0.0159,-0.053362 -0.04101,-0.1056672 -0.0625,-0.15625 -0.03785,-0.089789 -0.07119,-0.1702246 -0.125,-0.25 -0.107613,-0.1595508 -0.246699,-0.2986367 -0.40625,-0.40625 -0.0718,-0.048426 -0.138761,-0.089417 -0.21875,-0.125 -0.0092,-0.00349 -0.02193,0.00331 -0.03125,0 -0.02993,-0.012617 -0.06285,-0.020552 -0.09375,-0.03125 -0.0409,-0.012162 -0.08254,-0.020527 -0.125,-0.03125 C -11.243554,5.032557 -11.371887,5 -11.5,5 l -15,0 z m 0,0.46875 15,0 c 0.0512,0 0.131111,0.00122 0.25,0.03125 0.04317,0.010903 0.07499,0.026599 0.09375,0.03125 0.0058,0.00143 0.02779,-0.00103 0.03125,0 0.01118,0.00347 0.0398,0.0036 0.03125,0 a 0.45401625,0.45401625 0 0 0 0.03125,0 c 0.01121,0.00499 0.0205,0.025782 0.03125,0.03125 0.0067,0.00342 0.02447,-0.00373 0.03125,0 0.02847,0.015676 0.0556,0.036766 0.09375,0.0625 0.110613,0.074606 0.206645,0.1706376 0.28125,0.28125 0.02332,0.03457 0.05527,0.096213 0.09375,0.1875 0.02723,0.06411 0.02953,0.087991 0.03125,0.09375 0.02682,0.090811 0.03125,0.2092777 0.03125,0.3125 l 0,9 c 0,0.07085 0.01326,0.153604 0,0.21875 -0.0064,0.03504 0.004,0.03976 0,0.0625 -0.01,0.04795 -0.03138,0.09848 -0.03125,0.09375 -0.007,0.0174 -0.024,0.01337 -0.03125,0.03125 -0.0075,0.01852 -0.02193,0.0077 -0.03125,0.03125 -0.03712,0.08694 -0.07573,0.163235 -0.09375,0.1875 -0.145134,0.195457 -0.358416,0.351974 -0.625,0.40625 -0.06512,0.01326 -0.147886,0 -0.21875,0 l -15,0 c -0.0512,0 -0.13111,-0.0012 -0.25,-0.03125 -0.253309,-0.06398 -0.45527,-0.182194 -0.59375,-0.375 -0.103816,-0.144523 -0.12066,-0.163302 -0.03125,-0.03125 -0.0099,-0.01469 -0.04302,-0.06022 -0.09375,-0.1875 a 0.45401625,0.45401625 0 0 0 0,-0.03125 c -0.01797,-0.0434 -0.01829,-0.07534 -0.03125,-0.125 -0.03003,-0.118889 -0.03125,-0.198798 -0.03125,-0.25 l 0,-9 c 0,-0.051201 0.0012,-0.1311105 0.03125,-0.25 0.03221,-0.1270747 0.05123,-0.1789195 0.03125,-0.125 0.0328,-0.089016 0.05088,-0.1551822 0.09375,-0.21875 0.133913,-0.1985438 0.324828,-0.3360642 0.5625,-0.40625 0.09081,-0.026817 0.209278,-0.03125 0.3125,-0.03125 z m 0,0.09375 c -0.446372,0 -0.858278,0.3704119 -0.90625,0.8125 a 0.45401625,0.45401625 0 0 0 0.125,0.375 l 7.9375,7.96875 a 0.45401625,0.45401625 0 0 0 0.625,0 l 8,-7.96875 a 0.45401625,0.45401625 0 0 0 0.125,-0.375 C -10.641727,5.9329186 -11.053627,5.5625 -11.5,5.5625 l -0.59375,0 a 0.45401625,0.45401625 0 0 0 -0.3125,0.15625 l -6.625,6.625 -6.625,-6.625 a 0.45401625,0.45401625 0 0 0 -0.3125,-0.15625 l -0.53125,0 z m 0,0.46875 0.53125,0 6.9375,6.9375 6.9375,-6.9375 0.59375,0 c 0.262593,0 0.441967,0.159457 0.46875,0.40625 l -8,7.96875 -7.9375,-7.96875 C -26.94197,6.190707 -26.762593,6.03125 -26.5,6.03125 z m 11.5625,5.34375 a 0.45401625,0.45401625 0 0 0 -0.21875,0.15625 L -15.875,12.25 a 0.45401625,0.45401625 0 0 0 0,0.625 l 3.40625,3.40625 a 0.45401625,0.45401625 0 0 0 0.3125,0.15625 l 0.65625,0 c 0.412098,0 0.787586,-0.353448 0.875,-0.71875 A 0.45401625,0.45401625 0 0 0 -10.75,15.3125 l -3.78125,-3.78125 a 0.45401625,0.45401625 0 0 0 -0.3125,-0.15625 0.45401625,0.45401625 0 0 0 -0.09375,0 z m -8.40625,0.0625 a 0.45401625,0.45401625 0 0 0 -0.21875,0.15625 l -3.6875,3.6875 a 0.45401625,0.45401625 0 0 0 -0.125,0.40625 c 0.03377,0.190876 0.119992,0.386788 0.28125,0.53125 0.161258,0.144462 0.378035,0.21875 0.59375,0.21875 l 0.59375,0 a 0.45401625,0.45401625 0 0 0 0.3125,-0.15625 l 3.375,-3.34375 a 0.45401625,0.45401625 0 0 0 0,-0.625 l -0.71875,-0.71875 a 0.45401625,0.45401625 0 0 0 -0.3125,-0.15625 0.45401625,0.45401625 0 0 0 -0.09375,0 z m 8.5,0.40625 3.78125,3.78125 c -0.04947,0.206734 -0.200008,0.34375 -0.4375,0.34375 l -0.65625,0 -3.40625,-3.40625 0.71875,-0.71875 z m -8.40625,0.0625 0.71875,0.71875 -3.375,3.34375 -0.59375,0 c -0.249077,0 -0.397701,-0.150076 -0.4375,-0.375 l 3.6875,-3.6875 z"
       id="path3870"
       inkscape:connector-curvature="0" />
    <path
       inkscape:connector-curvature="0"
       style="opacity:0.2;fill:#ffffff;fill-opacity:1;stroke:none;display:inline"
       d="m -26.5,6.03125 c -0.262593,0 -0.44197,0.159457 -0.46875,0.40625 l 0.59375,0.59375 0.40625,0 6.9375,6.9375 6.9375,-6.9375 0.46875,0 0.59375,-0.59375 C -11.058033,6.190707 -11.237407,6.03125 -11.5,6.03125 l -0.59375,0 -6.9375,6.9375 -6.9375,-6.9375 -0.53125,0 z m 11.65625,5.8125 -0.71875,0.71875 0.5,0.5 0.21875,-0.21875 3.125,3.125 0.21875,0 c 0.237492,0 0.38803,-0.137016 0.4375,-0.34375 l -3.78125,-3.78125 z m -8.40625,0.0625 -3.6875,3.6875 c 0.0398,0.224924 0.188423,0.375 0.4375,0.375 l 0.1875,0 3.0625,-3.0625 0.21875,0.21875 0.5,-0.5 L -23.25,11.90625 z M -28,15.5 l 0,1 c 0,0.128113 0.03256,0.256446 0.0625,0.375 0.01731,0.06634 0.03668,0.125125 0.0625,0.1875 0.03976,0.09975 0.06581,0.193497 0.125,0.28125 0.0078,0.01152 0.02314,0.01996 0.03125,0.03125 0.20263,0.282121 0.496381,0.474766 0.84375,0.5625 C -26.756446,17.96744 -26.628112,18 -26.5,18 l 15,0 c 0.103875,0 0.214678,-0.01133 0.3125,-0.03125 0.368272,-0.07498 0.690634,-0.272123 0.90625,-0.5625 0.07075,-0.09528 0.109492,-0.201584 0.15625,-0.3125 0.0326,-0.08249 0.07562,-0.160924 0.09375,-0.25 0.002,-0.0098 -0.0018,-0.02137 0,-0.03125 C -10.011334,16.714678 -10,16.603875 -10,16.5 l 0,-1 c 0,0.103875 -0.01133,0.214678 -0.03125,0.3125 -0.0018,0.0099 0.002,0.02145 0,0.03125 -0.01813,0.08908 -0.06115,0.16751 -0.09375,0.25 -0.04676,0.110916 -0.0855,0.21722 -0.15625,0.3125 -0.215616,0.290377 -0.537978,0.48752 -0.90625,0.5625 C -11.285322,16.98867 -11.396125,17 -11.5,17 l -15,0 c -0.128112,0 -0.256446,-0.03256 -0.375,-0.0625 -0.347369,-0.08773 -0.64112,-0.280379 -0.84375,-0.5625 -0.0081,-0.01129 -0.02345,-0.01973 -0.03125,-0.03125 -0.05919,-0.08775 -0.08524,-0.1815 -0.125,-0.28125 -0.02582,-0.06237 -0.04519,-0.12116 -0.0625,-0.1875 C -27.967443,15.756446 -28,15.628113 -28,15.5 z"
       id="path3743" />
    <path
       style="fill:url(#radialGradient3872);fill-opacity:1;stroke:none"
       d="m 19,34 c 0,4 -1.060917,5 -8,5 l 0,-4 -8,6.546 8,6.454 0,-4 c 8.001264,0 8,-5 8,-10 z"
       id="path3019"
       inkscape:connector-curvature="0"
       sodipodi:nodetypes="ccccccc" />
    <path
       style="opacity:0.3;fill:#000000;fill-opacity:1;stroke:none"
       d="m 19,34 c 0,4 -1.060917,5 -8,5 L 11,35 3,41.53125 11,48 11,44 c 8.001264,0 8,-5 8,-10 z m -8.4375,1.9375 0,3.0625 A 0.44873612,0.44873612 0 0 0 11,39.4375 c 3.491095,0 5.546672,-0.203595 6.84375,-1.0625 0.222577,-0.147387 0.391612,-0.343911 0.5625,-0.53125 -0.128173,1.048813 -0.382415,2.005962 -0.8125,2.8125 C 16.671843,42.385099 14.907169,43.5625 11,43.5625 A 0.44873612,0.44873612 0 0 0 10.5625,44 l 0,3.0625 -6.84375,-5.53125 6.84375,-5.59375 z"
       id="path3835"
       inkscape:connector-curvature="0" />
    <path
       style="opacity:0.3;fill:#000000;fill-opacity:1;stroke:none"
       d="m 19,34 c 0,4 -1.060917,5 -8,5 l 0,1 c 6.939083,0 8,-1 8,-5 0.0024,-0.331852 0,-0.666667 0,-1 z m -8,1 -8,6.53125 0.625,0.5 L 11,36 11,35 z"
       id="path3826"
       inkscape:connector-curvature="0" />
    <path
       style="opacity:0.2;fill:#ffffff;fill-opacity:1;stroke:none"
       d="M 19,35.875 C 18.89085,40.181641 18.001106,44 11,44 l 0,1 c 7.534524,0 7.974492,-4.432688 8,-9.125 z M 3.625,42.03125 3,42.53125 11,49 11,48 3.625,42.03125 z"
       id="path3851"
       inkscape:connector-curvature="0" />
    <path
       style="fill:url(#radialGradient3876);fill-opacity:1;stroke:none"
       d="M 9 4 L 1 10.46875 L 9 17 L 9 15.375 L 3 10.46875 L 9 5.625 L 9 4 z M 12 4 L 4 10.46875 L 12 17 L 12 13 C 17 12 20.08953 12.68222 18 18 C 20.5 14.5 21.625 12.25 19.5 9.875 C 17.375 7.5 15 8 12 8 L 12 4 z "
       id="path3874" />
    <path
       style="fill:#000000;fill-opacity:1;stroke:none;opacity:0.3"
       d="M 9 4 L 1 10.46875 L 9 17 L 9 15.375 L 3 10.46875 L 9 5.625 L 9 4 z M 12 4 L 4 10.46875 L 12 17 L 12 13 C 17 12 20.08953 12.68222 18 18 C 20.5 14.5 21.625 12.25 19.5 9.875 C 17.375 7.5 15 8 12 8 L 12 4 z M 8.53125 4.96875 L 8.53125 5.40625 L 2.71875 10.09375 A 0.47118988 0.47118988 0 0 0 2.6875 10.84375 L 8.53125 15.625 L 8.53125 16 L 1.75 10.46875 L 8.53125 4.96875 z M 11.53125 4.96875 L 11.53125 8 A 0.47118988 0.47118988 0 0 0 12 8.46875 C 13.526175 8.46875 14.842787 8.3388691 16 8.5 C 17.157213 8.6611309 18.162864 9.0772453 19.15625 10.1875 C 20.141903 11.289112 20.329084 12.229098 20.03125 13.40625 C 19.870529 14.04148 19.525351 14.745242 19.0625 15.53125 C 19.078911 15.284183 19.145723 15.004415 19.125 14.78125 C 19.040394 13.870118 18.587583 13.144678 17.90625 12.71875 C 16.543584 11.866894 14.444753 12.023549 11.90625 12.53125 A 0.47118988 0.47118988 0 0 0 11.53125 13 L 11.53125 16 L 4.75 10.46875 L 11.53125 4.96875 z "
       id="path3048" />
    <path
       style="fill:#000000;fill-opacity:1;stroke:none;opacity:0.3"
       d="M 9 4 L 1 10.46875 L 1.625 10.96875 L 9 5 L 9 4 z M 12 4 L 9 6.4375 L 9 6.625 L 4.125 10.5625 L 4.625 10.96875 L 12 5 L 12 4 z M 14.125 7.96875 C 13.447266 7.9785156 12.75 8 12 8 L 12 9 C 15 9 17.375 8.5 19.5 10.875 C 20.145922 11.596913 20.495729 12.293819 20.59375 13.03125 C 20.75119 11.924896 20.429688 10.914062 19.5 9.875 C 17.90625 8.09375 16.158203 7.9394531 14.125 7.96875 z M 3.625 10.96875 L 3 11.46875 L 9 16.375 L 9 15.5625 L 4 11.46875 L 4.125 11.375 L 3.625 10.96875 z M 18.625 15.71875 C 18.549338 16.361188 18.348255 17.113703 18 18 C 18.197148 17.723993 18.383373 17.479884 18.5625 17.21875 C 18.564669 17.207968 18.560394 17.198226 18.5625 17.1875 C 18.674543 16.616888 18.681875 16.138373 18.625 15.71875 z "
       id="path3072" />
    <path
       style="fill:#ffffff;fill-opacity:1;stroke:none;opacity:0.2"
       d="M 9 5.625 L 3 10.46875 L 3.625 10.96875 L 4.125 10.5625 L 4 10.46875 L 9 6.4375 L 9 5.625 z M 1.625 10.96875 L 1 11.46875 L 9 18 L 9 17 L 1.625 10.96875 z M 4.625 10.96875 L 4.125 11.375 L 9 15.375 L 9 15.5625 L 12 18 L 12 17 L 4.625 10.96875 z M 15.34375 12.625 C 14.38363 12.618577 13.25 12.75 12 13 L 12 14 C 15.680147 13.263971 18.318111 13.454527 18.625 15.71875 C 18.889816 13.470216 17.584029 12.639988 15.34375 12.625 z M 20.59375 13.09375 C 20.404963 14.294877 19.635086 15.621713 18.5625 17.1875 C 18.560394 17.198226 18.564669 17.207968 18.5625 17.21875 C 18.45677 17.744379 18.261191 18.335278 18 19 C 19.71875 16.59375 20.784088 14.765167 20.59375 13.09375 z "
       id="path3849" />
  </g>
</svg>
