<?xml version="1.0" encoding="UTF-8" standalone="no"?>
<!-- Created with Inkscape (http://www.inkscape.org/) -->

<svg
   xmlns:dc="http://purl.org/dc/elements/1.1/"
   xmlns:cc="http://creativecommons.org/ns#"
   xmlns:rdf="http://www.w3.org/1999/02/22-rdf-syntax-ns#"
   xmlns:svg="http://www.w3.org/2000/svg"
   xmlns="http://www.w3.org/2000/svg"
   xmlns:xlink="http://www.w3.org/1999/xlink"
   xmlns:sodipodi="http://sodipodi.sourceforge.net/DTD/sodipodi-0.dtd"
   xmlns:inkscape="http://www.inkscape.org/namespaces/inkscape"
   width="22"
   height="22"
   id="svg2"
   sodipodi:version="0.32"
   inkscape:version="0.48.1 r9760"
   version="1.0"
   sodipodi:docname="mail-forward.svg"
   inkscape:output_extension="org.inkscape.output.svg.inkscape"
   inkscape:export-filename="/home/matt/.icons/Sirocco/scalable/mimetypes/text-plain.png"
   inkscape:export-xdpi="90"
   inkscape:export-ydpi="90"
   sodipodi:modified="true"
   style="display:inline">
  <sodipodi:namedview
     id="base"
     pagecolor="#838383"
     bordercolor="#cc0000"
     borderopacity="1"
     inkscape:pageopacity="1"
     inkscape:pageshadow="2"
     inkscape:zoom="15.622586"
     inkscape:cx="-3.9262562"
     inkscape:cy="5.2836983"
     inkscape:document-units="px"
     inkscape:current-layer="layer1"
     width="128px"
     height="128px"
     inkscape:showpageshadow="false"
     inkscape:window-width="1920"
     inkscape:window-height="1030"
     inkscape:window-x="0"
     inkscape:window-y="25"
     showguides="true"
     inkscape:guide-bbox="true"
     showgrid="true"
     inkscape:window-maximized="1"
     borderlayer="true"
     inkscape:snap-global="true">
    <inkscape:grid
       enabled="true"
       visible="true"
       id="grid3231"
       type="xygrid"
       empspacing="8"
       snapvisiblegridlinesonly="true" />
    <sodipodi:guide
       orientation="1,0"
       position="12,6"
       id="guide3791" />
    <sodipodi:guide
       orientation="0,1"
       position="14,9"
       id="guide3793" />
  </sodipodi:namedview>
  <defs
     id="defs4">
    <linearGradient
       id="StandardGradient"
       gradientTransform="scale(0.9219544,1.0846523)"
       x1="11.998966"
       y1="0.92195445"
       x2="11.998966"
       y2="19.387045"
       gradientUnits="userSpaceOnUse">
      <stop
         style="stop-color:#000000;stop-opacity:0.23529412;"
         offset="0"
         id="stop3283" />
      <stop
         id="stop3850"
         offset="0.69999999"
         style="stop-color:#000000;stop-opacity:0.39215686;" />
      <stop
         style="stop-color:#000000;stop-opacity:0.55;"
         offset="1"
         id="stop2651" />
    </linearGradient>
    <radialGradient
       inkscape:collect="always"
       xlink:href="#StandardGradient"
       id="radialGradient3857"
       cx="12"
       cy="12.447369"
       fx="12"
       fy="12.447369"
       r="6"
       gradientTransform="matrix(2.6666667,-9.1385016e-8,5.7115635e-8,1.6666667,-20.000001,-7.7456132)"
       gradientUnits="userSpaceOnUse" />
    <radialGradient
       inkscape:collect="always"
       xlink:href="#StandardGradient"
       id="radialGradient3868"
       cx="12"
       cy="14"
       fx="12"
       fy="14"
       r="9"
       gradientTransform="matrix(1.7777778,0,0,0.8888889,-39.333333,0.55555555)"
       gradientUnits="userSpaceOnUse" />
    <radialGradient
       inkscape:collect="always"
       xlink:href="#StandardGradient"
       id="radialGradient3874"
       gradientUnits="userSpaceOnUse"
       gradientTransform="matrix(1.7777778,0,0,0.8888889,-9.3333333,0.55555555)"
       cx="12"
       cy="14"
       fx="12"
       fy="14"
       r="9" />
    <radialGradient
       inkscape:collect="always"
       xlink:href="#StandardGradient"
       id="radialGradient3878"
       gradientUnits="userSpaceOnUse"
       gradientTransform="matrix(1.7777778,0,0,0.8888889,-9.3333333,0.55555555)"
       cx="12"
       cy="14"
       fx="12"
       fy="14"
       r="9" />
    <radialGradient
       inkscape:collect="always"
       xlink:href="#StandardGradient"
       id="radialGradient3872"
       gradientUnits="userSpaceOnUse"
       gradientTransform="matrix(2.0000291,-1.0407246e-8,0,0.75001088,-11.000349,32.959605)"
       cx="11.500008"
       cy="13.386999"
       fx="11.500008"
       fy="13.386999"
       r="7.9998837" />
    <radialGradient
       inkscape:collect="always"
       xlink:href="#StandardGradient"
       id="radialGradient3876"
       gradientUnits="userSpaceOnUse"
       gradientTransform="matrix(1.9978541,-0.00495186,0.00216879,0.87501266,-6.9928968,0.71715336)"
       cx="9.5000362"
       cy="14.091098"
       fx="9.5000362"
       fy="14.091098"
       r="7.9998837" />
  </defs>
  <metadata
     id="metadata7">
    <rdf:RDF>
      <cc:Work
         rdf:about="">
        <dc:format>image/svg+xml</dc:format>
        <dc:type
           rdf:resource="http://purl.org/dc/dcmitype/StillImage" />
        <dc:title />
      </cc:Work>
    </rdf:RDF>
  </metadata>
  <g
     style="display:inline"
     inkscape:label="Calque 1"
     id="layer1"
     inkscape:groupmode="layer">
    <path
       style="opacity:0.05;fill:#ffffff;fill-opacity:1;stroke:none"
       d="M 11.640383,2.96875 A 1.0152112,1.0152112 0 0 1 11.827883,3 a 1.0152112,1.0152112 0 0 1 0.40625,0.21875 l 8,6.46875 a 1.0152112,1.0152112 0 0 1 0.03125,1.5625 l -8,6.53125 A 1.0152112,1.0152112 0 0 1 10.609133,17 l 0,-3.09375 C 8.6429558,13.608613 7.0480478,13.647475 6.4841328,14 c -0.324117,0.202618 -0.449077,0.389101 -0.5,0.9375 -0.050923,0.548399 0.073959,1.44418 0.5625,2.6875 a 1.0152112,1.0152112 0 0 1 -1.75,0.96875 c -1.26794,-1.775116 -2.26286,-3.288924 -2.65625,-4.84375 -0.39339,-1.554826 -0.00932,-3.189948 1.21875,-4.5625 1.211411,-1.3539304 2.630624,-1.9612261 4.03125,-2.15625 C 8.4590268,6.8824514 9.5287778,6.9701533 10.609133,7 l 0,-3 a 1.0152112,1.0152112 0 0 1 1.03125,-1.03125 z M 11.609133,4 l 0,4 C 8.6091328,8 6.2341328,7.5 4.1091328,9.875 c -2.125,2.375 -1,4.625 1.5,8.125 -2.08953,-5.31778 1,-6 6.0000002,-5 l 0,4 8,-6.53125 -8,-6.46875 z"
       id="path3915"
       inkscape:connector-curvature="0" />
    <path
       style="opacity:0.05;fill:#ffffff;fill-opacity:1;stroke:none"
       d="m 10.875,34 a 1.0050079,1.0050079 0 0 0 -0.5,0.21875 l -8,6.53125 a 1.0050079,1.0050079 0 0 0 0,1.5625 l 8,6.46875 A 1.0050079,1.0050079 0 0 0 12,48 l 0,-3.09375 c 3.568442,-0.228411 5.803908,-1.553885 6.875,-3.5625 C 20.049388,39.141425 20,36.499915 20,34 l -1,0 c 0,5 0.0013,10 -8,10 L 11,48 3,41.53125 11,35 l 0,4 c 6.939083,0 8,-1 8,-5 l -1,0 c 0,0.955578 -0.0644,1.668994 -0.21875,2.15625 -0.154351,0.487256 -0.336612,0.746954 -0.71875,1 C 16.39306,37.599543 14.663971,37.868438 12,37.9375 L 12,35 a 1.0050079,1.0050079 0 0 0 -1.125,-1 z"
       id="path3867"
       inkscape:connector-curvature="0" />
    <path
       inkscape:connector-curvature="0"
       style="opacity:0.05;fill:#ffffff;fill-opacity:1;stroke:none;display:inline"
       d="m -26.5,4 c -0.248034,0 -0.486001,0.056268 -0.71875,0.125 -0.553767,0.1635301 -1.02592,0.4975251 -1.34375,0.96875 -0.117354,0.1739926 -0.220105,0.3653216 -0.28125,0.53125 -0.101612,0.2742726 -0.09067,0.3611416 -0.0625,0.25 C -28.936009,5.9928262 -29,6.2049027 -29,6.5 l 0,9 c 0,0.295097 0.06399,0.507174 0.09375,0.625 0.02676,0.102549 0.08214,0.208938 0.125,0.3125 0.01594,0.03999 0.05257,0.222361 0.21875,0.46875 0.109429,0.161617 0.182085,0.247845 0.1875,0.25 0.33153,0.370947 0.781696,0.631722 1.25,0.75 C -27.007174,17.936009 -26.795097,18 -26.5,18 l 15,0 c 0.175546,0 0.331183,-0.02812 0.5,-0.0625 0.58905,-0.11993 1.131359,-0.441039 1.5,-0.9375 0.17727,-0.238732 0.246356,-0.448478 0.28125,-0.53125 0.0022,-0.0055 0.0999,-0.160629 0.15625,-0.4375 C -9.0586,16.0121 -9.066,16.0173 -9.0625,16 -9.02814,15.831235 -9,15.675571 -9,15.5 l 0,-9 C -9,6.2519672 -9.056267,6.0140003 -9.125,5.78125 -9.171686,5.6245351 -9.209739,5.5524636 -9.21875,5.53125 -9.255231,5.4447123 -9.317495,5.2716716 -9.4375,5.09375 -9.616777,4.8279473 -9.827948,4.6167769 -10.09375,4.4375 c -0.09356,-0.063106 -0.224814,-0.1519408 -0.375,-0.21875 a 0.98573164,0.98573164 0 0 0 -0.0625,0 c -0.02276,-0.0096 -0.01319,0.00699 -0.03125,0 -0.02915,-0.0096 -0.03602,-0.024015 -0.0625,-0.03125 -0.01562,-0.00433 -0.07544,-0.035732 -0.0625,-0.03125 a 0.98573164,0.98573164 0 0 0 -0.03125,0 C -10.816551,4.127164 -10.862937,4.0967968 -10.875,4.09375 -10.992826,4.0639909 -11.204903,4 -11.5,4 l -15,0 z m 0,1 15,0 c 0.128113,0 0.256446,0.032557 0.375,0.0625 0.04246,0.010723 0.08411,0.019088 0.125,0.03125 0.0309,0.010698 0.06382,0.018633 0.09375,0.03125 0.0093,0.00331 0.02203,-0.00349 0.03125,0 0.07999,0.035583 0.146952,0.076574 0.21875,0.125 0.159551,0.1076133 0.298637,0.2466992 0.40625,0.40625 0.05381,0.079775 0.08715,0.1602109 0.125,0.25 0.02149,0.050583 0.0466,0.1028876 0.0625,0.15625 C -10.022465,6.1980709 -10,6.3511125 -10,6.5 l 0,9 c 0,0.103875 -0.01133,0.214678 -0.03125,0.3125 -0.0018,0.0099 0.002,0.02144 0,0.03125 -0.01813,0.08908 -0.06115,0.167514 -0.09375,0.25 -0.04676,0.110916 -0.0855,0.21722 -0.15625,0.3125 -0.215616,0.290377 -0.537978,0.487522 -0.90625,0.5625 C -11.285322,16.988666 -11.396125,17 -11.5,17 l -15,0 c -0.128112,0 -0.256446,-0.03256 -0.375,-0.0625 -0.347369,-0.08773 -0.64112,-0.280379 -0.84375,-0.5625 -0.0081,-0.01129 -0.02345,-0.01973 -0.03125,-0.03125 -0.05919,-0.08775 -0.08524,-0.1815 -0.125,-0.28125 -0.02582,-0.06237 -0.04519,-0.121161 -0.0625,-0.1875 C -27.967443,15.756446 -28,15.628113 -28,15.5 l 0,-9 c 0,-0.1281125 0.03256,-0.2564458 0.0625,-0.375 0.01317,-0.051955 0.01288,-0.106676 0.03125,-0.15625 0.04174,-0.1132701 0.08989,-0.2141104 0.15625,-0.3125 0.19191,-0.2845322 0.475149,-0.4941286 0.8125,-0.59375 C -26.801929,5.0224652 -26.648887,5 -26.5,5 z m 0,1.03125 c -0.262593,0 -0.44197,0.159457 -0.46875,0.40625 l 7.9375,7.96875 8,-7.96875 C -11.058033,6.190707 -11.237407,6.03125 -11.5,6.03125 l -0.59375,0 -6.9375,6.9375 -6.9375,-6.9375 -0.53125,0 z m 11.65625,5.8125 -0.71875,0.71875 3.40625,3.40625 0.65625,0 c 0.237492,0 0.38803,-0.137016 0.4375,-0.34375 l -3.78125,-3.78125 z m -8.40625,0.0625 -3.6875,3.6875 c 0.0398,0.224924 0.188423,0.375 0.4375,0.375 l 0.59375,0 3.375,-3.34375 -0.71875,-0.71875 z"
       id="path3125" />
    <path
       inkscape:connector-curvature="0"
       style="fill:url(#radialGradient3868);fill-opacity:1;stroke:none;display:inline"
       d="m -26.5,5 c -0.148887,0 -0.301929,0.022465 -0.4375,0.0625 -0.337351,0.099621 -0.62059,0.3092178 -0.8125,0.59375 -0.06636,0.09839 -0.114509,0.1992299 -0.15625,0.3125 C -27.92462,6.018324 -27.92433,6.0730454 -27.9375,6.125 -27.967443,6.2435542 -28,6.3718875 -28,6.5 l 0,9 c 0,0.128113 0.03256,0.256446 0.0625,0.375 0.01731,0.06634 0.03668,0.125125 0.0625,0.1875 0.03976,0.09975 0.06581,0.193497 0.125,0.28125 0.0078,0.01152 0.02314,0.01996 0.03125,0.03125 0.20263,0.282121 0.496381,0.474766 0.84375,0.5625 C -26.756446,16.96744 -26.628112,17 -26.5,17 l 15,0 c 0.103875,0 0.214678,-0.01133 0.3125,-0.03125 0.368272,-0.07498 0.690634,-0.272123 0.90625,-0.5625 0.07075,-0.09528 0.109492,-0.201584 0.15625,-0.3125 0.0326,-0.08249 0.07562,-0.160924 0.09375,-0.25 0.002,-0.0098 -0.0018,-0.02137 0,-0.03125 C -10.011334,15.714678 -10,15.603875 -10,15.5 l 0,-9 c 0,-0.1488875 -0.02247,-0.3019291 -0.0625,-0.4375 -0.0159,-0.053362 -0.04101,-0.1056672 -0.0625,-0.15625 -0.03785,-0.089789 -0.07119,-0.1702246 -0.125,-0.25 -0.107613,-0.1595508 -0.246699,-0.2986367 -0.40625,-0.40625 -0.0718,-0.048426 -0.138761,-0.089417 -0.21875,-0.125 -0.0092,-0.00349 -0.02193,0.00331 -0.03125,0 -0.02993,-0.012617 -0.06285,-0.020552 -0.09375,-0.03125 -0.0409,-0.012162 -0.08254,-0.020527 -0.125,-0.03125 C -11.243554,5.032557 -11.371887,5 -11.5,5 l -15,0 z m 0,1.03125 0.53125,0 6.9375,6.9375 6.9375,-6.9375 0.59375,0 c 0.262593,0 0.441967,0.159457 0.46875,0.40625 l -8,7.96875 -7.9375,-7.96875 C -26.94197,6.190707 -26.762593,6.03125 -26.5,6.03125 z m 11.65625,5.8125 3.78125,3.78125 c -0.04947,0.206734 -0.200008,0.34375 -0.4375,0.34375 l -0.65625,0 -3.40625,-3.40625 0.71875,-0.71875 z m -8.40625,0.0625 0.71875,0.71875 -3.375,3.34375 -0.59375,0 c -0.249077,0 -0.397701,-0.150076 -0.4375,-0.375 l 3.6875,-3.6875 z"
       id="rect2932" />
    <path
       inkscape:connector-curvature="0"
       style="opacity:0.3;fill:#000000;fill-opacity:1;stroke:none;display:inline"
       d="m -26.5,5 c -0.148887,0 -0.301929,0.022465 -0.4375,0.0625 -0.337351,0.099621 -0.62059,0.3092178 -0.8125,0.59375 -0.06636,0.09839 -0.114509,0.1992299 -0.15625,0.3125 C -27.92462,6.018324 -27.92433,6.0730454 -27.9375,6.125 -27.967443,6.2435542 -28,6.3718875 -28,6.5 l 0,1 c 0,-0.1281125 0.03256,-0.2564458 0.0625,-0.375 0.01317,-0.051955 0.01288,-0.106676 0.03125,-0.15625 0.04174,-0.1132701 0.08989,-0.2141104 0.15625,-0.3125 0.19191,-0.2845322 0.475149,-0.4941286 0.8125,-0.59375 C -26.801929,6.0224652 -26.648887,6 -26.5,6 l 15,0 c 0.128113,0 0.256446,0.032557 0.375,0.0625 0.04246,0.010723 0.08411,0.019088 0.125,0.03125 0.0309,0.010698 0.06382,0.018633 0.09375,0.03125 0.0093,0.00331 0.02205,-0.00349 0.03125,0 0.07999,0.035583 0.146952,0.076574 0.21875,0.125 0.159551,0.1076133 0.298637,0.2466992 0.40625,0.40625 0.05381,0.079775 0.08715,0.1602109 0.125,0.25 0.02149,0.050583 0.0466,0.1028876 0.0625,0.15625 C -10.022465,7.1980709 -10,7.3511125 -10,7.5 l 0,-1 c 0,-0.1488875 -0.02247,-0.3019291 -0.0625,-0.4375 -0.0159,-0.053362 -0.04101,-0.1056672 -0.0625,-0.15625 -0.03785,-0.089789 -0.07119,-0.1702246 -0.125,-0.25 -0.107613,-0.1595508 -0.246699,-0.2986367 -0.40625,-0.40625 -0.0718,-0.048426 -0.138761,-0.089417 -0.21875,-0.125 -0.0092,-0.00349 -0.02193,0.00331 -0.03125,0 -0.02993,-0.012617 -0.06285,-0.020552 -0.09375,-0.03125 -0.0409,-0.012162 -0.08254,-0.020527 -0.125,-0.03125 C -11.243554,5.032557 -11.371887,5 -11.5,5 l -15,0 z m 0,2.03125 c -0.262593,0 -0.44197,0.159457 -0.46875,0.40625 l 7.9375,7.96875 8,-7.96875 C -11.058033,7.190707 -11.237407,7.03125 -11.5,7.03125 l -0.125,0 -7.40625,7.375 -7.34375,-7.375 -0.125,0 z m 11.4375,6.03125 -0.5,0.5 3.40625,3.40625 0.65625,0 c 0.237492,0 0.38803,-0.137016 0.4375,-0.34375 l -0.65625,-0.65625 -0.4375,0 -2.90625,-2.90625 z m -7.96875,0.0625 -2.875,2.84375 -0.40625,0 -0.625,0.625 c 0.0398,0.224924 0.188423,0.375 0.4375,0.375 l 0.59375,0 3.375,-3.34375 -0.5,-0.5 z"
       id="path3707" />
    <path
       style="opacity:0.25;fill:#000000;fill-opacity:1;stroke:none;display:inline"
       d="m -26.5,5 c -0.148887,0 -0.301929,0.022465 -0.4375,0.0625 -0.337351,0.099621 -0.62059,0.3092178 -0.8125,0.59375 -0.06636,0.09839 -0.114509,0.1992299 -0.15625,0.3125 C -27.92462,6.018324 -27.92433,6.0730454 -27.9375,6.125 -27.967443,6.2435542 -28,6.3718875 -28,6.5 l 0,9 c 0,0.128113 0.03256,0.256446 0.0625,0.375 0.01731,0.06634 0.03668,0.125125 0.0625,0.1875 0.03976,0.09975 0.06581,0.193497 0.125,0.28125 0.0078,0.01152 0.02314,0.01996 0.03125,0.03125 0.20263,0.282121 0.496381,0.474766 0.84375,0.5625 C -26.756446,16.96744 -26.628112,17 -26.5,17 l 15,0 c 0.103875,0 0.214678,-0.01133 0.3125,-0.03125 0.368272,-0.07498 0.690634,-0.272123 0.90625,-0.5625 0.07075,-0.09528 0.109492,-0.201584 0.15625,-0.3125 0.0326,-0.08249 0.07562,-0.160924 0.09375,-0.25 0.002,-0.0098 -0.0018,-0.02137 0,-0.03125 C -10.011334,15.714678 -10,15.603875 -10,15.5 l 0,-9 c 0,-0.1488875 -0.02247,-0.3019291 -0.0625,-0.4375 -0.0159,-0.053362 -0.04101,-0.1056672 -0.0625,-0.15625 -0.03785,-0.089789 -0.07119,-0.1702246 -0.125,-0.25 -0.107613,-0.1595508 -0.246699,-0.2986367 -0.40625,-0.40625 -0.0718,-0.048426 -0.138761,-0.089417 -0.21875,-0.125 -0.0092,-0.00349 -0.02193,0.00331 -0.03125,0 -0.02993,-0.012617 -0.06285,-0.020552 -0.09375,-0.03125 -0.0409,-0.012162 -0.08254,-0.020527 -0.125,-0.03125 C -11.243554,5.032557 -11.371887,5 -11.5,5 l -15,0 z m 0,0.46875 15,0 c 0.0512,0 0.131111,0.00122 0.25,0.03125 0.04317,0.010903 0.07499,0.026599 0.09375,0.03125 0.0058,0.00143 0.02779,-0.00103 0.03125,0 0.01118,0.00347 0.0398,0.0036 0.03125,0 a 0.45401625,0.45401625 0 0 0 0.03125,0 c 0.01121,0.00499 0.0205,0.025782 0.03125,0.03125 0.0067,0.00342 0.02447,-0.00373 0.03125,0 0.02847,0.015676 0.0556,0.036766 0.09375,0.0625 0.110613,0.074606 0.206645,0.1706376 0.28125,0.28125 0.02332,0.03457 0.05527,0.096213 0.09375,0.1875 0.02723,0.06411 0.02953,0.087991 0.03125,0.09375 0.02682,0.090811 0.03125,0.2092777 0.03125,0.3125 l 0,9 c 0,0.07085 0.01326,0.153604 0,0.21875 -0.0064,0.03504 0.004,0.03976 0,0.0625 -0.01,0.04795 -0.03138,0.09848 -0.03125,0.09375 -0.007,0.0174 -0.024,0.01337 -0.03125,0.03125 -0.0075,0.01852 -0.02193,0.0077 -0.03125,0.03125 -0.03712,0.08694 -0.07573,0.163235 -0.09375,0.1875 -0.145134,0.195457 -0.358416,0.351974 -0.625,0.40625 -0.06512,0.01326 -0.147886,0 -0.21875,0 l -15,0 c -0.0512,0 -0.13111,-0.0012 -0.25,-0.03125 -0.253309,-0.06398 -0.45527,-0.182194 -0.59375,-0.375 -0.103816,-0.144523 -0.12066,-0.163302 -0.03125,-0.03125 -0.0099,-0.01469 -0.04302,-0.06022 -0.09375,-0.1875 a 0.45401625,0.45401625 0 0 0 0,-0.03125 c -0.01797,-0.0434 -0.01829,-0.07534 -0.03125,-0.125 -0.03003,-0.118889 -0.03125,-0.198798 -0.03125,-0.25 l 0,-9 c 0,-0.051201 0.0012,-0.1311105 0.03125,-0.25 0.03221,-0.1270747 0.05123,-0.1789195 0.03125,-0.125 0.0328,-0.089016 0.05088,-0.1551822 0.09375,-0.21875 0.133913,-0.1985438 0.324828,-0.3360642 0.5625,-0.40625 0.09081,-0.026817 0.209278,-0.03125 0.3125,-0.03125 z m 0,0.09375 c -0.446372,0 -0.858278,0.3704119 -0.90625,0.8125 a 0.45401625,0.45401625 0 0 0 0.125,0.375 l 7.9375,7.96875 a 0.45401625,0.45401625 0 0 0 0.625,0 l 8,-7.96875 a 0.45401625,0.45401625 0 0 0 0.125,-0.375 C -10.641727,5.9329186 -11.053627,5.5625 -11.5,5.5625 l -0.59375,0 a 0.45401625,0.45401625 0 0 0 -0.3125,0.15625 l -6.625,6.625 -6.625,-6.625 a 0.45401625,0.45401625 0 0 0 -0.3125,-0.15625 l -0.53125,0 z m 0,0.46875 0.53125,0 6.9375,6.9375 6.9375,-6.9375 0.59375,0 c 0.262593,0 0.441967,0.159457 0.46875,0.40625 l -8,7.96875 -7.9375,-7.96875 C -26.94197,6.190707 -26.762593,6.03125 -26.5,6.03125 z m 11.5625,5.34375 a 0.45401625,0.45401625 0 0 0 -0.21875,0.15625 L -15.875,12.25 a 0.45401625,0.45401625 0 0 0 0,0.625 l 3.40625,3.40625 a 0.45401625,0.45401625 0 0 0 0.3125,0.15625 l 0.65625,0 c 0.412098,0 0.787586,-0.353448 0.875,-0.71875 A 0.45401625,0.45401625 0 0 0 -10.75,15.3125 l -3.78125,-3.78125 a 0.45401625,0.45401625 0 0 0 -0.3125,-0.15625 0.45401625,0.45401625 0 0 0 -0.09375,0 z m -8.40625,0.0625 a 0.45401625,0.45401625 0 0 0 -0.21875,0.15625 l -3.6875,3.6875 a 0.45401625,0.45401625 0 0 0 -0.125,0.40625 c 0.03377,0.190876 0.119992,0.386788 0.28125,0.53125 0.161258,0.144462 0.378035,0.21875 0.59375,0.21875 l 0.59375,0 a 0.45401625,0.45401625 0 0 0 0.3125,-0.15625 l 3.375,-3.34375 a 0.45401625,0.45401625 0 0 0 0,-0.625 l -0.71875,-0.71875 a 0.45401625,0.45401625 0 0 0 -0.3125,-0.15625 0.45401625,0.45401625 0 0 0 -0.09375,0 z m 8.5,0.40625 3.78125,3.78125 c -0.04947,0.206734 -0.200008,0.34375 -0.4375,0.34375 l -0.65625,0 -3.40625,-3.40625 0.71875,-0.71875 z m -8.40625,0.0625 0.71875,0.71875 -3.375,3.34375 -0.59375,0 c -0.249077,0 -0.397701,-0.150076 -0.4375,-0.375 l 3.6875,-3.6875 z"
       id="path3870"
       inkscape:connector-curvature="0" />
    <path
       inkscape:connector-curvature="0"
       style="opacity:0.2;fill:#ffffff;fill-opacity:1;stroke:none;display:inline"
       d="m -26.5,6.03125 c -0.262593,0 -0.44197,0.159457 -0.46875,0.40625 l 0.59375,0.59375 0.40625,0 6.9375,6.9375 6.9375,-6.9375 0.46875,0 0.59375,-0.59375 C -11.058033,6.190707 -11.237407,6.03125 -11.5,6.03125 l -0.59375,0 -6.9375,6.9375 -6.9375,-6.9375 -0.53125,0 z m 11.65625,5.8125 -0.71875,0.71875 0.5,0.5 0.21875,-0.21875 3.125,3.125 0.21875,0 c 0.237492,0 0.38803,-0.137016 0.4375,-0.34375 l -3.78125,-3.78125 z m -8.40625,0.0625 -3.6875,3.6875 c 0.0398,0.224924 0.188423,0.375 0.4375,0.375 l 0.1875,0 3.0625,-3.0625 0.21875,0.21875 0.5,-0.5 L -23.25,11.90625 z M -28,15.5 l 0,1 c 0,0.128113 0.03256,0.256446 0.0625,0.375 0.01731,0.06634 0.03668,0.125125 0.0625,0.1875 0.03976,0.09975 0.06581,0.193497 0.125,0.28125 0.0078,0.01152 0.02314,0.01996 0.03125,0.03125 0.20263,0.282121 0.496381,0.474766 0.84375,0.5625 C -26.756446,17.96744 -26.628112,18 -26.5,18 l 15,0 c 0.103875,0 0.214678,-0.01133 0.3125,-0.03125 0.368272,-0.07498 0.690634,-0.272123 0.90625,-0.5625 0.07075,-0.09528 0.109492,-0.201584 0.15625,-0.3125 0.0326,-0.08249 0.07562,-0.160924 0.09375,-0.25 0.002,-0.0098 -0.0018,-0.02137 0,-0.03125 C -10.011334,16.714678 -10,16.603875 -10,16.5 l 0,-1 c 0,0.103875 -0.01133,0.214678 -0.03125,0.3125 -0.0018,0.0099 0.002,0.02145 0,0.03125 -0.01813,0.08908 -0.06115,0.16751 -0.09375,0.25 -0.04676,0.110916 -0.0855,0.21722 -0.15625,0.3125 -0.215616,0.290377 -0.537978,0.48752 -0.90625,0.5625 C -11.285322,16.98867 -11.396125,17 -11.5,17 l -15,0 c -0.128112,0 -0.256446,-0.03256 -0.375,-0.0625 -0.347369,-0.08773 -0.64112,-0.280379 -0.84375,-0.5625 -0.0081,-0.01129 -0.02345,-0.01973 -0.03125,-0.03125 -0.05919,-0.08775 -0.08524,-0.1815 -0.125,-0.28125 -0.02582,-0.06237 -0.04519,-0.12116 -0.0625,-0.1875 C -27.967443,15.756446 -28,15.628113 -28,15.5 z"
       id="path3743" />
    <path
       style="fill:url(#radialGradient3872);fill-opacity:1;stroke:none"
       d="m 19,34 c 0,4 -1.060917,5 -8,5 l 0,-4 -8,6.546 8,6.454 0,-4 c 8.001264,0 8,-5 8,-10 z"
       id="path3019"
       inkscape:connector-curvature="0"
       sodipodi:nodetypes="ccccccc" />
    <path
       style="opacity:0.3;fill:#000000;fill-opacity:1;stroke:none"
       d="m 19,34 c 0,4 -1.060917,5 -8,5 L 11,35 3,41.53125 11,48 11,44 c 8.001264,0 8,-5 8,-10 z m -8.4375,1.9375 0,3.0625 A 0.44873612,0.44873612 0 0 0 11,39.4375 c 3.491095,0 5.546672,-0.203595 6.84375,-1.0625 0.222577,-0.147387 0.391612,-0.343911 0.5625,-0.53125 -0.128173,1.048813 -0.382415,2.005962 -0.8125,2.8125 C 16.671843,42.385099 14.907169,43.5625 11,43.5625 A 0.44873612,0.44873612 0 0 0 10.5625,44 l 0,3.0625 -6.84375,-5.53125 6.84375,-5.59375 z"
       id="path3835"
       inkscape:connector-curvature="0" />
    <path
       style="opacity:0.3;fill:#000000;fill-opacity:1;stroke:none"
       d="m 19,34 c 0,4 -1.060917,5 -8,5 l 0,1 c 6.939083,0 8,-1 8,-5 0.0024,-0.331852 0,-0.666667 0,-1 z m -8,1 -8,6.53125 0.625,0.5 L 11,36 11,35 z"
       id="path3826"
       inkscape:connector-curvature="0" />
    <path
       style="opacity:0.2;fill:#ffffff;fill-opacity:1;stroke:none"
       d="M 19,35.875 C 18.89085,40.181641 18.001106,44 11,44 l 0,1 c 7.534524,0 7.974492,-4.432688 8,-9.125 z M 3.625,42.03125 3,42.53125 11,49 11,48 3.625,42.03125 z"
       id="path3851"
       inkscape:connector-curvature="0" />
    <path
       sodipodi:nodetypes="cccccczc"
       inkscape:connector-curvature="0"
       id="path3874"
       d="m 5.6091328,18 c -2.08953,-5.31778 1,-6 6.0000002,-5 l 0,4 8,-6.546 -8,-6.454 0,4 C 8.6091328,8 6.2347648,7.4875446 4.1097648,9.8625446 1.9847648,12.237545 3.1091328,14.5 5.6091328,18 z"
       style="fill:url(#radialGradient3876);fill-opacity:1;stroke:none" />
    <path
       style="opacity:0.3;fill:#000000;fill-opacity:1;stroke:none"
       d="m 11.609133,4 8,6.46875 -0.625,0.5 -7.375,-5.96875 0,-1 z M 9.4841328,7.96875 C 10.161808,7.9796833 10.859133,8 11.609133,8 l 0,1 C 8.6091328,9 6.2341328,8.4999996 4.1091328,10.875 c -0.645922,0.721913 -0.995648,1.417217 -1.09375,2.15625 -0.157304,-1.109036 0.164062,-2.117187 1.09375,-3.15625 1.59375,-1.78125 3.341975,-1.93905 5.375,-1.90625 z m -4.5,7.75 c 0.075662,0.642438 0.276745,1.394953 0.625,2.28125 -0.197148,-0.276007 -0.383381,-0.519973 -0.5625,-0.78125 -0.00217,-0.01078 0.00211,-0.02052 0,-0.03125 -0.112043,-0.570612 -0.119375,-1.049127 -0.0625,-1.46875 z"
       id="path3878"
       inkscape:connector-curvature="0" />
    <path
       style="opacity:0.2;fill:#ffffff;fill-opacity:1;stroke:none"
       d="m 18.984133,10.96875 0.625,0.5 -8,6.53125 0,-1 7.375,-6.03125 z M 8.2653828,12.625 c 0.96012,-0.0064 2.0937502,0.125 3.3437502,0.375 l 0,1 C 7.9289858,13.263971 5.2910218,13.454527 4.9841328,15.71875 4.7193168,13.470216 6.0251038,12.639988 8.2653828,12.625 z m -5.25,0.46875 c 0.1882,1.204525 0.958182,2.526316 2.03125,4.09375 0.00211,0.01073 -0.00217,0.02047 0,0.03125 0.10573,0.525629 0.301309,1.116528 0.5625,1.78125 -1.71875,-2.40625 -2.784275,-4.231153 -2.59375,-5.90625 z"
       id="path3900"
       inkscape:connector-curvature="0" />
    <path
       inkscape:connector-curvature="0"
       style="opacity:0.3;fill:#000000;fill-opacity:1;stroke:none;display:inline"
       d="m 11.619109,4 8,6.46875 -8,6.53125 0,-4 c -5.0000003,-1 -8.0895303,-0.31778 -6.0000003,5 -2.5,-3.5 -3.625,-5.75 -1.5,-8.125 C 6.2441087,7.5 8.6191087,8 11.619109,8 l 0,-4 z m 0.5625,1.15625 0,2.84375 a 0.54739548,0.54739548 0 0 1 -0.5625,0.5625 c -1.530408,0 -2.8552673,-0.1281432 -4.0000003,0.03125 -1.144733,0.1593932 -2.111542,0.5584882 -3.09375,1.65625 -0.973224,1.087721 -1.167935,1.967211 -0.875,3.125 0.139645,0.551931 0.433951,1.170037 0.8125,1.84375 -5.15e-4,-0.140535 -0.04359,-0.304599 -0.03125,-0.4375 0.08633,-0.929729 0.550353,-1.687623 1.25,-2.125 1.399294,-0.874753 3.48652,-0.696446 6.0312503,-0.1875 A 0.54739548,0.54739548 0 0 1 12.181609,13 l 0,2.8125 6.5625,-5.34375 -6.5625,-5.3125 z"
       id="path3030" />
  </g>
</svg>
