<?xml version="1.0" encoding="UTF-8" standalone="no"?>
<!-- Created with Inkscape (http://www.inkscape.org/) -->

<svg
   xmlns:dc="http://purl.org/dc/elements/1.1/"
   xmlns:cc="http://creativecommons.org/ns#"
   xmlns:rdf="http://www.w3.org/1999/02/22-rdf-syntax-ns#"
   xmlns:svg="http://www.w3.org/2000/svg"
   xmlns="http://www.w3.org/2000/svg"
   xmlns:xlink="http://www.w3.org/1999/xlink"
   xmlns:sodipodi="http://sodipodi.sourceforge.net/DTD/sodipodi-0.dtd"
   xmlns:inkscape="http://www.inkscape.org/namespaces/inkscape"
   width="22"
   height="22"
   id="svg2"
   sodipodi:version="0.32"
   inkscape:version="0.48.1 r9760"
   version="1.0"
   sodipodi:docname="mail-mark-important.svg"
   inkscape:output_extension="org.inkscape.output.svg.inkscape"
   inkscape:export-filename="/home/matt/.icons/Sirocco/scalable/mimetypes/text-plain.png"
   inkscape:export-xdpi="90"
   inkscape:export-ydpi="90"
   sodipodi:modified="true"
   style="display:inline">
  <sodipodi:namedview
     id="base"
     pagecolor="#838383"
     bordercolor="#cc0000"
     borderopacity="1"
     inkscape:pageopacity="1"
     inkscape:pageshadow="2"
     inkscape:zoom="22.027846"
     inkscape:cx="-0.80733567"
     inkscape:cy="4.1643645"
     inkscape:document-units="px"
     inkscape:current-layer="layer1"
     width="128px"
     height="128px"
     inkscape:showpageshadow="false"
     inkscape:window-width="1920"
     inkscape:window-height="1030"
     inkscape:window-x="0"
     inkscape:window-y="25"
     showguides="true"
     inkscape:guide-bbox="true"
     showgrid="true"
     inkscape:window-maximized="1"
     borderlayer="true"
     inkscape:snap-global="true">
    <inkscape:grid
       enabled="true"
       visible="true"
       id="grid3231"
       type="xygrid"
       empspacing="8"
       snapvisiblegridlinesonly="true" />
    <sodipodi:guide
       orientation="1,0"
       position="12,6"
       id="guide3791" />
    <sodipodi:guide
       orientation="0,1"
       position="14,9"
       id="guide3793" />
  </sodipodi:namedview>
  <defs
     id="defs4">
    <linearGradient
       id="StandardGradient"
       gradientTransform="scale(0.9219544,1.0846523)"
       x1="11.998966"
       y1="0.92195445"
       x2="11.998966"
       y2="19.387045"
       gradientUnits="userSpaceOnUse">
      <stop
         style="stop-color:#000000;stop-opacity:0.23529412;"
         offset="0"
         id="stop3283" />
      <stop
         id="stop3850"
         offset="0.69999999"
         style="stop-color:#000000;stop-opacity:0.39215686;" />
      <stop
         style="stop-color:#000000;stop-opacity:0.55;"
         offset="1"
         id="stop2651" />
    </linearGradient>
    <radialGradient
       inkscape:collect="always"
       xlink:href="#StandardGradient"
       id="radialGradient3857"
       cx="12"
       cy="12.447369"
       fx="12"
       fy="12.447369"
       r="6"
       gradientTransform="matrix(2.6666667,-9.1385016e-8,5.7115635e-8,1.6666667,-20.000001,-7.7456132)"
       gradientUnits="userSpaceOnUse" />
    <radialGradient
       inkscape:collect="always"
       xlink:href="#SpecificGradient"
       id="radialGradient3868"
       cx="12"
       cy="14"
       fx="12"
       fy="14"
       r="9"
       gradientTransform="matrix(1.7777778,0,0,0.8888889,-9.3333333,0.55555555)"
       gradientUnits="userSpaceOnUse" />
    <radialGradient
       inkscape:collect="always"
       xlink:href="#StandardGradient"
       id="radialGradient3874"
       gradientUnits="userSpaceOnUse"
       gradientTransform="matrix(1.7777778,0,0,0.8888889,-9.3333333,0.55555555)"
       cx="12"
       cy="14"
       fx="12"
       fy="14"
       r="9" />
    <radialGradient
       inkscape:collect="always"
       xlink:href="#StandardGradient"
       id="radialGradient3878"
       gradientUnits="userSpaceOnUse"
       gradientTransform="matrix(1.7777778,0,0,0.8888889,-9.3333333,0.55555555)"
       cx="12"
       cy="14"
       fx="12"
       fy="14"
       r="9" />
    <radialGradient
       inkscape:collect="always"
       xlink:href="#SpecificGradient"
       id="radialGradient3863"
       cx="13"
       cy="10"
       fx="13"
       fy="10"
       r="7"
       gradientUnits="userSpaceOnUse"
       gradientTransform="matrix(8.9795921e-8,-2.2857143,1.1428571,4.4897959e-8,1.5714274,39.714286)" />
    <linearGradient
       id="SpecificGradient"
       x1="10.406627"
       y1="2"
       x2="10.406627"
       y2="18.000771"
       gradientUnits="userSpaceOnUse">
      <stop
         style="stop-color:#e64b36;stop-opacity:1;"
         offset="0"
         id="stop3292" />
      <stop
         style="stop-color:#a31414;stop-opacity:1;"
         offset="1"
         id="stop3294" />
    </linearGradient>
    <radialGradient
       r="7"
       fy="10"
       fx="13"
       cy="10"
       cx="13"
       gradientTransform="matrix(8.9795921e-8,-2.2857143,1.1428571,4.4897959e-8,1.5714274,39.714286)"
       gradientUnits="userSpaceOnUse"
       id="radialGradient3074"
       xlink:href="#SpecificGradient"
       inkscape:collect="always" />
  </defs>
  <metadata
     id="metadata7">
    <rdf:RDF>
      <cc:Work
         rdf:about="">
        <dc:format>image/svg+xml</dc:format>
        <dc:type
           rdf:resource="http://purl.org/dc/dcmitype/StillImage" />
        <dc:title></dc:title>
      </cc:Work>
    </rdf:RDF>
  </metadata>
  <g
     style="display:inline"
     inkscape:label="Calque 1"
     id="layer1"
     inkscape:groupmode="layer">
    <path
       sodipodi:nodetypes="sscccsss"
       inkscape:connector-curvature="0"
       id="path3845"
       d="M 6.5,-28 C 5.669,-28 5,-27.331 5,-26.5 l 0,17.5 6,-6 6,6 0,-17.5 c 0,-0.831 -0.669,-1.5 -1.5,-1.5 z"
       style="color:#000000;fill:#000000;fill-opacity:1;fill-rule:nonzero;stroke:none;stroke-width:0.80000001;marker:none;visibility:visible;display:inline;overflow:visible;enable-background:accumulate" />
    <path
       inkscape:transform-center-y="0.33889105"
       transform="matrix(1.2786771,-0.13717173,0.13717173,1.2786771,-4.1597436,-29.941791)"
       d="M 12.802775,11.122499 10.811559,9.7928998 8.5874152,10.679447 9.2366193,8.3748181 7.7061651,6.53349 l 2.3924469,-0.094739 1.278271,-2.0245501 0.829409,2.2460762 2.320469,0.5900873 -1.879844,1.482891 z"
       inkscape:randomized="0"
       inkscape:rounded="0"
       inkscape:flatsided="false"
       sodipodi:arg2="1.6755161"
       sodipodi:arg1="1.0471976"
       sodipodi:r2="1.8027756"
       sodipodi:r1="3.6055512"
       sodipodi:cy="8"
       sodipodi:cx="11"
       sodipodi:sides="5"
       id="path3847"
       style="color:#000000;fill:#ff00ff;fill-opacity:1;fill-rule:nonzero;stroke:none;stroke-width:0.80000001;marker:none;visibility:visible;display:inline;overflow:visible;enable-background:accumulate"
       sodipodi:type="star" />
    <path
       inkscape:connector-curvature="0"
       style="opacity:0.05;fill:#ffffff;fill-opacity:1;stroke:none;display:inline"
       d="M 3.5,4 C 3.2519663,4 3.0139986,4.0562681 2.78125,4.125 2.2274833,4.2885301 1.7553303,4.6225251 1.4375,5.09375 1.3201461,5.2677426 1.2173954,5.4590716 1.15625,5.625 1.0546379,5.8992726 1.0655756,5.9861416 1.09375,5.875 1.0639909,5.9928262 1,6.2049027 1,6.5 l 0,9 c 0,0.295097 0.063991,0.507174 0.09375,0.625 0.026758,0.102549 0.082137,0.208938 0.125,0.3125 0.01594,0.03999 0.052567,0.222361 0.21875,0.46875 0.1094285,0.161617 0.1820846,0.247845 0.1875,0.25 0.3315297,0.370947 0.7816963,0.631722 1.25,0.75 C 2.9928262,17.936009 3.2049027,18 3.5,18 l 15,0 c 0.175546,0 0.331183,-0.02812 0.5,-0.0625 0.58905,-0.11993 1.131359,-0.441039 1.5,-0.9375 0.17727,-0.238732 0.246356,-0.448478 0.28125,-0.53125 0.0022,-0.0055 0.0999,-0.160629 0.15625,-0.4375 C 20.9414,16.0121 20.934,16.0173 20.9375,16 20.97186,15.831235 21,15.675571 21,15.5 l 0,-9 C 21,6.2519672 20.943733,6.0140003 20.875,5.78125 20.828314,5.6245351 20.790261,5.5524636 20.78125,5.53125 20.744769,5.4447123 20.682505,5.2716716 20.5625,5.09375 20.383223,4.8279473 20.172052,4.6167769 19.90625,4.4375 19.812687,4.3743941 19.681436,4.2855592 19.53125,4.21875 a 0.98573164,0.98573164 0 0 0 -0.0625,0 c -0.02276,-0.0096 -0.01319,0.00699 -0.03125,0 C 19.40835,4.20915 19.40148,4.194735 19.375,4.1875 19.35938,4.18317 19.29956,4.151768 19.3125,4.15625 a 0.98573164,0.98573164 0 0 0 -0.03125,0 C 19.183449,4.127164 19.137063,4.0967968 19.125,4.09375 19.007174,4.0639909 18.795097,4 18.5,4 l -15,0 z m 0,1 15,0 c 0.128113,0 0.256446,0.032557 0.375,0.0625 0.04246,0.010723 0.08411,0.019088 0.125,0.03125 0.0309,0.010698 0.06382,0.018633 0.09375,0.03125 0.0093,0.00331 0.02203,-0.00349 0.03125,0 0.07999,0.035583 0.146952,0.076574 0.21875,0.125 0.159551,0.1076133 0.298637,0.2466992 0.40625,0.40625 0.05381,0.079775 0.08715,0.1602109 0.125,0.25 0.02149,0.050583 0.0466,0.1028876 0.0625,0.15625 C 19.977535,6.1980709 20,6.3511125 20,6.5 l 0,9 c 0,0.103875 -0.01133,0.214678 -0.03125,0.3125 -0.0018,0.0099 0.002,0.02144 0,0.03125 -0.01813,0.08908 -0.06115,0.167514 -0.09375,0.25 -0.04676,0.110916 -0.0855,0.21722 -0.15625,0.3125 -0.215616,0.290377 -0.537978,0.487522 -0.90625,0.5625 C 18.714678,16.988666 18.603875,17 18.5,17 l -15,0 C 3.3718875,17 3.2435542,16.967443 3.125,16.9375 2.7776307,16.849766 2.4838796,16.657121 2.28125,16.375 2.2731403,16.363709 2.2578022,16.355271 2.25,16.34375 2.1908127,16.255997 2.1647618,16.16225 2.125,16.0625 2.0991845,16.000125 2.0798095,15.941339 2.0625,15.875 2.032557,15.756446 2,15.628113 2,15.5 l 0,-9 C 2,6.3718875 2.032557,6.2435542 2.0625,6.125 2.0756705,6.0730454 2.0753839,6.018324 2.09375,5.96875 2.1354906,5.8554799 2.1836385,5.7546396 2.25,5.65625 2.4419104,5.3717178 2.7251491,5.1621214 3.0625,5.0625 3.1980709,5.0224652 3.3511125,5 3.5,5 z m 0,1.03125 c -0.262593,0 -0.44197,0.159457 -0.46875,0.40625 l 7.9375,7.96875 8,-7.96875 C 18.941967,6.190707 18.762593,6.03125 18.5,6.03125 l -0.59375,0 -6.9375,6.9375 -6.9375,-6.9375 -0.53125,0 z m 11.65625,5.8125 -0.71875,0.71875 3.40625,3.40625 0.65625,0 c 0.237492,0 0.38803,-0.137016 0.4375,-0.34375 L 15.15625,11.84375 z M 6.75,11.90625 3.0625,15.59375 c 0.039799,0.224924 0.188423,0.375 0.4375,0.375 l 0.59375,0 L 7.46875,12.625 6.75,11.90625 z"
       id="path3125" />
    <path
       inkscape:connector-curvature="0"
       style="fill:url(#radialGradient3868);fill-opacity:1.0;stroke:none;display:inline"
       d="M 3.5,5 C 3.3511125,5 3.1980709,5.0224652 3.0625,5.0625 2.7251491,5.1621214 2.4419104,5.3717178 2.25,5.65625 2.1836385,5.7546396 2.1354906,5.8554799 2.09375,5.96875 2.0753839,6.018324 2.0756705,6.0730454 2.0625,6.125 2.032557,6.2435542 2,6.3718875 2,6.5 l 0,9 c 0,0.128113 0.032557,0.256446 0.0625,0.375 0.01731,0.06634 0.036684,0.125125 0.0625,0.1875 0.039762,0.09975 0.065813,0.193497 0.125,0.28125 0.0078,0.01152 0.02314,0.01996 0.03125,0.03125 0.2026296,0.282121 0.4963807,0.474766 0.84375,0.5625 C 3.2435542,16.967443 3.3718875,17 3.5,17 l 15,0 c 0.103875,0 0.214678,-0.01133 0.3125,-0.03125 0.368272,-0.07498 0.690634,-0.272123 0.90625,-0.5625 0.07075,-0.09528 0.109492,-0.201584 0.15625,-0.3125 0.0326,-0.08249 0.07562,-0.160924 0.09375,-0.25 0.002,-0.0098 -0.0018,-0.02137 0,-0.03125 C 19.988666,15.714678 20,15.603875 20,15.5 l 0,-9 C 20,6.3511125 19.977535,6.1980709 19.9375,6.0625 19.921603,6.0091376 19.896486,5.9568328 19.875,5.90625 19.837148,5.8164609 19.803807,5.7360254 19.75,5.65625 19.642387,5.4966992 19.503301,5.3576133 19.34375,5.25 19.271952,5.201574 19.204989,5.1605826 19.125,5.125 19.1158,5.12151 19.10307,5.12831 19.09375,5.125 19.06382,5.1123828 19.030896,5.1044477 19,5.09375 18.959105,5.0815878 18.917455,5.0732228 18.875,5.0625 18.756446,5.032557 18.628113,5 18.5,5 l -15,0 z m 0,1.03125 0.53125,0 6.9375,6.9375 6.9375,-6.9375 0.59375,0 c 0.262593,0 0.441967,0.159457 0.46875,0.40625 l -8,7.96875 L 3.03125,6.4375 C 3.05803,6.190707 3.237407,6.03125 3.5,6.03125 z m 11.65625,5.8125 3.78125,3.78125 c -0.04947,0.206734 -0.200008,0.34375 -0.4375,0.34375 l -0.65625,0 -3.40625,-3.40625 0.71875,-0.71875 z M 6.75,11.90625 7.46875,12.625 l -3.375,3.34375 -0.59375,0 c -0.249077,0 -0.397701,-0.150076 -0.4375,-0.375 L 6.75,11.90625 z"
       id="rect2932" />
    <path
       style="fill:#000000;fill-opacity:1;stroke:none;display:inline;opacity:0.25"
       d="M 3.5,5 C 3.351112,5 3.198071,5.022465 3.0625,5.0625 2.725149,5.162121 2.44191,5.3717178 2.25,5.65625 2.18364,5.75464 2.135491,5.8554799 2.09375,5.96875 2.075384,6.018324 2.075671,6.0730454 2.0625,6.125 2.032557,6.2435542 2,6.3718875 2,6.5 l 0,9 c 0,0.128113 0.03256,0.256446 0.0625,0.375 0.01731,0.06634 0.03668,0.125125 0.0625,0.1875 0.03976,0.09975 0.06581,0.193497 0.125,0.28125 0.0078,0.01152 0.02314,0.01996 0.03125,0.03125 0.20263,0.282121 0.496381,0.474766 0.84375,0.5625 C 3.243554,16.967443 3.371888,17 3.5,17 l 15,0 c 0.103875,0 0.214678,-0.01133 0.3125,-0.03125 0.368272,-0.07498 0.690634,-0.272123 0.90625,-0.5625 0.07075,-0.09528 0.109492,-0.201584 0.15625,-0.3125 0.0326,-0.08249 0.07562,-0.160924 0.09375,-0.25 0.002,-0.0098 -0.0018,-0.02137 0,-0.03125 C 19.988666,15.714678 20,15.603875 20,15.5 l 0,-9 C 20,6.3511125 19.977535,6.1980709 19.9375,6.0625 19.921603,6.0091376 19.896486,5.9568328 19.875,5.90625 19.837148,5.8164609 19.803807,5.7360254 19.75,5.65625 19.642387,5.4966992 19.503301,5.3576133 19.34375,5.25 19.271952,5.201574 19.204989,5.1605826 19.125,5.125 19.1158,5.12151 19.10307,5.12831 19.09375,5.125 19.06382,5.1123828 19.030896,5.1044477 19,5.09375 18.959105,5.0815878 18.917455,5.0732228 18.875,5.0625 18.756446,5.032557 18.628113,5 18.5,5 l -15,0 z m 0,0.46875 15,0 c 0.0512,0 0.131111,0.00122 0.25,0.03125 0.04317,0.010903 0.07499,0.026599 0.09375,0.03125 0.0058,0.00143 0.0278,-0.00103 0.03125,0 0.01118,0.00347 0.0398,0.0036 0.03125,0 a 0.45401625,0.45401625 0 0 0 0.03125,0 c 0.01121,0.00499 0.0205,0.025782 0.03125,0.03125 0.0067,0.00342 0.02447,-0.00373 0.03125,0 0.02847,0.015676 0.0556,0.036766 0.09375,0.0625 0.110613,0.074606 0.206645,0.1706376 0.28125,0.28125 0.02332,0.03457 0.05527,0.096213 0.09375,0.1875 0.02723,0.06411 0.02953,0.087991 0.03125,0.09375 0.02682,0.090811 0.03125,0.2092777 0.03125,0.3125 l 0,9 c 0,0.07085 0.01326,0.153604 0,0.21875 -0.0064,0.03504 0.004,0.03976 0,0.0625 -0.01,0.04795 -0.03138,0.09848 -0.03125,0.09375 -0.007,0.0174 -0.024,0.01337 -0.03125,0.03125 -0.0075,0.01852 -0.02193,0.0077 -0.03125,0.03125 -0.03712,0.08694 -0.07573,0.163235 -0.09375,0.1875 -0.145134,0.195457 -0.358416,0.351974 -0.625,0.40625 -0.06512,0.01326 -0.147886,0 -0.21875,0 l -15,0 C 3.4488,16.53125 3.36889,16.53005 3.25,16.5 2.996691,16.43602 2.79473,16.317806 2.65625,16.125 2.552434,15.980477 2.53559,15.961698 2.625,16.09375 2.6151,16.07906 2.58198,16.03353 2.53125,15.90625 a 0.45401625,0.45401625 0 0 0 0,-0.03125 C 2.51328,15.8316 2.51296,15.79966 2.5,15.75 2.46997,15.631111 2.46875,15.551202 2.46875,15.5 l 0,-9 C 2.46875,6.448799 2.46995,6.3688895 2.5,6.25 2.53221,6.1229253 2.55123,6.0710805 2.53125,6.125 2.56405,6.035984 2.58212,5.9698178 2.625,5.90625 2.758913,5.7077062 2.949828,5.5701858 3.1875,5.5 3.278312,5.4731827 3.396778,5.46875 3.5,5.46875 z m 0,0.09375 c -0.446372,0 -0.858278,0.3704119 -0.90625,0.8125 a 0.45401625,0.45401625 0 0 0 0.125,0.375 l 7.9375,7.96875 a 0.45401625,0.45401625 0 0 0 0.625,0 l 8,-7.96875 a 0.45401625,0.45401625 0 0 0 0.125,-0.375 C 19.358273,5.9329186 18.946373,5.5625 18.5,5.5625 l -0.59375,0 a 0.45401625,0.45401625 0 0 0 -0.3125,0.15625 l -6.625,6.625 -6.625,-6.625 A 0.45401625,0.45401625 0 0 0 4.03125,5.5625 l -0.53125,0 z m 0,0.46875 0.53125,0 6.9375,6.9375 6.9375,-6.9375 0.59375,0 c 0.262593,0 0.441967,0.159457 0.46875,0.40625 l -8,7.96875 L 3.03125,6.4375 C 3.05803,6.190707 3.237407,6.03125 3.5,6.03125 z M 15.0625,11.375 a 0.45401625,0.45401625 0 0 0 -0.21875,0.15625 L 14.125,12.25 a 0.45401625,0.45401625 0 0 0 0,0.625 l 3.40625,3.40625 a 0.45401625,0.45401625 0 0 0 0.3125,0.15625 l 0.65625,0 c 0.412098,0 0.787586,-0.353448 0.875,-0.71875 A 0.45401625,0.45401625 0 0 0 19.25,15.3125 l -3.78125,-3.78125 a 0.45401625,0.45401625 0 0 0 -0.3125,-0.15625 0.45401625,0.45401625 0 0 0 -0.09375,0 z M 6.65625,11.4375 A 0.45401625,0.45401625 0 0 0 6.4375,11.59375 L 2.75,15.28125 A 0.45401625,0.45401625 0 0 0 2.625,15.6875 c 0.03377,0.190876 0.119992,0.386788 0.28125,0.53125 C 3.067508,16.363212 3.284285,16.4375 3.5,16.4375 l 0.59375,0 a 0.45401625,0.45401625 0 0 0 0.3125,-0.15625 l 3.375,-3.34375 a 0.45401625,0.45401625 0 0 0 0,-0.625 L 7.0625,11.59375 A 0.45401625,0.45401625 0 0 0 6.75,11.4375 a 0.45401625,0.45401625 0 0 0 -0.09375,0 z m 8.5,0.40625 3.78125,3.78125 c -0.04947,0.206734 -0.200008,0.34375 -0.4375,0.34375 l -0.65625,0 -3.40625,-3.40625 0.71875,-0.71875 z M 6.75,11.90625 7.46875,12.625 l -3.375,3.34375 -0.59375,0 c -0.249077,0 -0.397701,-0.150076 -0.4375,-0.375 L 6.75,11.90625 z"
       id="path3870"
       inkscape:connector-curvature="0" />
    <path
       inkscape:connector-curvature="0"
       style="opacity:0.25;fill:#000000;fill-opacity:1;stroke:none;display:inline"
       d="M 3.5,5 C 3.3511125,5 3.1980709,5.0224652 3.0625,5.0625 2.7251491,5.1621214 2.4419104,5.3717178 2.25,5.65625 2.1836385,5.7546396 2.1354906,5.8554799 2.09375,5.96875 2.0753839,6.018324 2.0756705,6.0730454 2.0625,6.125 2.032557,6.2435542 2,6.3718875 2,6.5 l 0,1 C 2,7.3718875 2.032557,7.2435542 2.0625,7.125 2.0756705,7.0730454 2.0753839,7.018324 2.09375,6.96875 2.1354906,6.8554799 2.1836385,6.7546396 2.25,6.65625 2.4419104,6.3717178 2.7251491,6.1621214 3.0625,6.0625 3.1980709,6.0224652 3.3511125,6 3.5,6 l 15,0 c 0.128113,0 0.256446,0.032557 0.375,0.0625 0.04246,0.010723 0.08411,0.019088 0.125,0.03125 0.0309,0.010698 0.06382,0.018633 0.09375,0.03125 0.0093,0.00331 0.02205,-0.00349 0.03125,0 0.07999,0.035583 0.146952,0.076574 0.21875,0.125 0.159551,0.1076133 0.298637,0.2466992 0.40625,0.40625 0.05381,0.079775 0.08715,0.1602109 0.125,0.25 0.02149,0.050583 0.0466,0.1028876 0.0625,0.15625 C 19.977535,7.1980709 20,7.3511125 20,7.5 l 0,-1 C 20,6.3511125 19.977535,6.1980709 19.9375,6.0625 19.921603,6.0091376 19.896486,5.9568328 19.875,5.90625 19.837148,5.8164609 19.803807,5.7360254 19.75,5.65625 19.642387,5.4966992 19.503301,5.3576133 19.34375,5.25 19.271952,5.201574 19.204989,5.1605826 19.125,5.125 19.1158,5.12151 19.10307,5.12831 19.09375,5.125 19.06382,5.1123828 19.030896,5.1044477 19,5.09375 18.959105,5.0815878 18.917455,5.0732228 18.875,5.0625 18.756446,5.032557 18.628113,5 18.5,5 l -15,0 z m 0,2.03125 c -0.262593,0 -0.44197,0.159457 -0.46875,0.40625 l 7.9375,7.96875 8,-7.96875 C 18.941967,7.190707 18.762593,7.03125 18.5,7.03125 l -0.125,0 -7.40625,7.375 -7.34375,-7.375 -0.125,0 z m 11.4375,6.03125 -0.5,0.5 3.40625,3.40625 0.65625,0 c 0.237492,0 0.38803,-0.137016 0.4375,-0.34375 l -0.65625,-0.65625 -0.4375,0 -2.90625,-2.90625 z m -7.96875,0.0625 -2.875,2.84375 -0.40625,0 -0.625,0.625 c 0.039799,0.224924 0.188423,0.375 0.4375,0.375 l 0.59375,0 3.375,-3.34375 -0.5,-0.5 z"
       id="path3707" />
    <path
       inkscape:connector-curvature="0"
       style="opacity:0.2;fill:#ffffff;fill-opacity:1;stroke:none;display:inline"
       d="m 3.5,6.03125 c -0.262593,0 -0.44197,0.159457 -0.46875,0.40625 l 0.59375,0.59375 0.40625,0 6.9375,6.9375 6.9375,-6.9375 0.46875,0 0.59375,-0.59375 C 18.941967,6.190707 18.762593,6.03125 18.5,6.03125 l -0.59375,0 -6.9375,6.9375 -6.9375,-6.9375 -0.53125,0 z m 11.65625,5.8125 -0.71875,0.71875 0.5,0.5 0.21875,-0.21875 3.125,3.125 0.21875,0 c 0.237492,0 0.38803,-0.137016 0.4375,-0.34375 L 15.15625,11.84375 z M 6.75,11.90625 3.0625,15.59375 c 0.039799,0.224924 0.188423,0.375 0.4375,0.375 l 0.1875,0 3.0625,-3.0625 0.21875,0.21875 0.5,-0.5 L 6.75,11.90625 z M 2,15.5 l 0,1 c 0,0.128113 0.032557,0.256446 0.0625,0.375 0.01731,0.06634 0.036684,0.125125 0.0625,0.1875 0.039762,0.09975 0.065813,0.193497 0.125,0.28125 0.0078,0.01152 0.02314,0.01996 0.03125,0.03125 0.2026296,0.282121 0.4963807,0.474766 0.84375,0.5625 C 3.2435542,17.967443 3.3718875,18 3.5,18 l 15,0 c 0.103875,0 0.214678,-0.01133 0.3125,-0.03125 0.368272,-0.07498 0.690634,-0.272123 0.90625,-0.5625 0.07075,-0.09528 0.109492,-0.201584 0.15625,-0.3125 0.0326,-0.08249 0.07562,-0.160924 0.09375,-0.25 0.002,-0.0098 -0.0018,-0.02137 0,-0.03125 C 19.988666,16.714678 20,16.603875 20,16.5 l 0,-1 c 0,0.103875 -0.01133,0.214678 -0.03125,0.3125 -0.0018,0.0099 0.002,0.02145 0,0.03125 -0.01813,0.08908 -0.06115,0.16751 -0.09375,0.25 -0.04676,0.110916 -0.0855,0.21722 -0.15625,0.3125 -0.215616,0.290377 -0.537978,0.48752 -0.90625,0.5625 C 18.714678,16.98867 18.603875,17 18.5,17 l -15,0 C 3.3718875,17 3.2435542,16.967443 3.125,16.9375 2.7776307,16.849766 2.4838796,16.657121 2.28125,16.375 2.27314,16.36371 2.2578,16.35527 2.25,16.34375 2.190813,16.255997 2.164762,16.16225 2.125,16.0625 2.099184,16.000125 2.07981,15.94134 2.0625,15.875 2.032557,15.756446 2,15.628113 2,15.5 z"
       id="path3743" />
  </g>
</svg>
