<?xml version="1.0" encoding="UTF-8" standalone="no"?>
<!-- Created with Inkscape (http://www.inkscape.org/) -->

<svg
   xmlns:dc="http://purl.org/dc/elements/1.1/"
   xmlns:cc="http://creativecommons.org/ns#"
   xmlns:rdf="http://www.w3.org/1999/02/22-rdf-syntax-ns#"
   xmlns:svg="http://www.w3.org/2000/svg"
   xmlns="http://www.w3.org/2000/svg"
   xmlns:xlink="http://www.w3.org/1999/xlink"
   xmlns:sodipodi="http://sodipodi.sourceforge.net/DTD/sodipodi-0.dtd"
   xmlns:inkscape="http://www.inkscape.org/namespaces/inkscape"
   width="22"
   height="22"
   id="svg2"
   sodipodi:version="0.32"
   inkscape:version="0.48.1 r9760"
   version="1.0"
   sodipodi:docname="mail-attachment.svg"
   inkscape:output_extension="org.inkscape.output.svg.inkscape"
   inkscape:export-filename="/home/matt/.icons/Sirocco/scalable/mimetypes/text-plain.png"
   inkscape:export-xdpi="90"
   inkscape:export-ydpi="90"
   sodipodi:modified="true"
   style="display:inline">
  <sodipodi:namedview
     id="base"
     pagecolor="#838383"
     bordercolor="#cc0000"
     borderopacity="1"
     inkscape:pageopacity="1"
     inkscape:pageshadow="2"
     inkscape:zoom="22.027846"
     inkscape:cx="10.420608"
     inkscape:cy="7.7961313"
     inkscape:document-units="px"
     inkscape:current-layer="layer1"
     width="128px"
     height="128px"
     inkscape:showpageshadow="false"
     inkscape:window-width="1920"
     inkscape:window-height="1030"
     inkscape:window-x="0"
     inkscape:window-y="25"
     showguides="true"
     inkscape:guide-bbox="true"
     showgrid="true"
     inkscape:window-maximized="1"
     borderlayer="true"
     inkscape:snap-global="true">
    <inkscape:grid
       enabled="true"
       visible="true"
       id="grid3231"
       type="xygrid"
       empspacing="8"
       snapvisiblegridlinesonly="true" />
    <sodipodi:guide
       orientation="1,0"
       position="12,6"
       id="guide3791" />
    <sodipodi:guide
       orientation="0,1"
       position="14,9"
       id="guide3793" />
  </sodipodi:namedview>
  <defs
     id="defs4">
    <linearGradient
       id="StandardGradient"
       gradientTransform="scale(0.9219544,1.0846523)"
       x1="11.998966"
       y1="0.92195445"
       x2="11.998966"
       y2="19.387045"
       gradientUnits="userSpaceOnUse">
      <stop
         style="stop-color:#000000;stop-opacity:0.23529412;"
         offset="0"
         id="stop3283" />
      <stop
         id="stop3850"
         offset="0.69999999"
         style="stop-color:#000000;stop-opacity:0.39215686;" />
      <stop
         style="stop-color:#000000;stop-opacity:0.55;"
         offset="1"
         id="stop2651" />
    </linearGradient>
    <radialGradient
       inkscape:collect="always"
       xlink:href="#StandardGradient"
       id="radialGradient3857"
       cx="12"
       cy="12.447369"
       fx="12"
       fy="12.447369"
       r="6"
       gradientTransform="matrix(2.6666667,-9.1385016e-8,5.7115635e-8,1.6666667,-20.000001,-7.7456132)"
       gradientUnits="userSpaceOnUse" />
    <radialGradient
       inkscape:collect="always"
       xlink:href="#StandardGradient"
       id="radialGradient3868"
       cx="12"
       cy="14"
       fx="12"
       fy="14"
       r="9"
       gradientTransform="matrix(1.7777778,0,0,0.8888889,-9.3333333,0.55555555)"
       gradientUnits="userSpaceOnUse" />
    <radialGradient
       inkscape:collect="always"
       xlink:href="#StandardGradient"
       id="radialGradient3874"
       gradientUnits="userSpaceOnUse"
       gradientTransform="matrix(1.7777778,0,0,0.8888889,-9.3333333,0.55555555)"
       cx="12"
       cy="14"
       fx="12"
       fy="14"
       r="9" />
    <radialGradient
       inkscape:collect="always"
       xlink:href="#StandardGradient"
       id="radialGradient3878"
       gradientUnits="userSpaceOnUse"
       gradientTransform="matrix(1.7777778,0,0,0.8888889,-9.3333333,0.55555555)"
       cx="12"
       cy="14"
       fx="12"
       fy="14"
       r="9" />
    <linearGradient
       id="StandardGradient-7"
       gradientTransform="matrix(0.8458416,0,0,1.0765258,-1.4962477,-3.0220357)"
       x1="12.80275"
       y1="3.7361259"
       x2="12.80275"
       y2="16.759111"
       gradientUnits="userSpaceOnUse">
      <stop
         id="stop3337"
         offset="0"
         style="stop-color:#000000;stop-opacity:0.86274511;" />
      <stop
         id="stop3339"
         offset="1"
         style="stop-color:#000000;stop-opacity:0.47058824;" />
    </linearGradient>
    <radialGradient
       inkscape:collect="always"
       xlink:href="#StandardGradient"
       id="radialGradient3808"
       cx="12"
       cy="12.777778"
       fx="12"
       fy="12.777778"
       r="8"
       gradientTransform="matrix(2,0,0,1.125,-12,-1.3749999)"
       gradientUnits="userSpaceOnUse" />
    <radialGradient
       inkscape:collect="always"
       xlink:href="#StandardGradient"
       id="radialGradient3814"
       gradientUnits="userSpaceOnUse"
       gradientTransform="matrix(2,0,0,1.125,-12,-1.3749999)"
       cx="12"
       cy="12.777778"
       fx="12"
       fy="12.777778"
       r="8" />
    <radialGradient
       inkscape:collect="always"
       xlink:href="#StandardGradient"
       id="radialGradient3818"
       gradientUnits="userSpaceOnUse"
       gradientTransform="matrix(2,0,0,1.125,-12,-1.3749999)"
       cx="12"
       cy="12.777778"
       fx="12"
       fy="12.777778"
       r="8" />
    <radialGradient
       inkscape:collect="always"
       xlink:href="#StandardGradient"
       id="radialGradient3820"
       gradientUnits="userSpaceOnUse"
       gradientTransform="matrix(2,0,0,1.125,-12,-1.3749999)"
       cx="12"
       cy="12.777778"
       fx="12"
       fy="12.777778"
       r="8" />
  </defs>
  <metadata
     id="metadata7">
    <rdf:RDF>
      <cc:Work
         rdf:about="">
        <dc:format>image/svg+xml</dc:format>
        <dc:type
           rdf:resource="http://purl.org/dc/dcmitype/StillImage" />
        <dc:title></dc:title>
      </cc:Work>
    </rdf:RDF>
  </metadata>
  <g
     style="display:inline"
     inkscape:label="Calque 1"
     id="layer1"
     inkscape:groupmode="layer">
    <path
       inkscape:connector-curvature="0"
       style="opacity:0.05;fill:#ffffff;fill-opacity:1;stroke:none;display:inline"
       d="M 11.375,1 C 10.890162,1.0073247 10.395145,1.1939628 10,1.59375 l -0.03125,0 L 3.25,8.3125 l 0,0.03125 C 2.7361739,8.8561793 2.5410322,9.5468298 2.71875,10.21875 2.8817211,10.834891 3.3938054,11.329777 4,11.53125 l -1.4375,1.4375 c -0.759111,0.757709 -0.7601417,2.022516 0,2.78125 l 4.71875,4.6875 c 0.7585185,0.75681 2.0237596,0.755788 2.78125,0 l 9.3125,-9.34375 0,-0.03125 C 19.702046,10.743306 19.991422,10.285098 20,9.71875 l -0.03125,-6.75 c -0.0024,-0.5904544 -0.284462,-1.1636544 -0.75,-1.53125 -0.0067,-0.00538 -0.02442,0.00534 -0.03125,0 C 18.899365,1.2121961 18.489983,1.0043412 18.03125,1 L 11.375,1 z m 0,1 6.65625,0 c 0.212829,0.00201 0.396547,0.085386 0.5625,0.21875 0.236127,0.1779029 0.373814,0.4550643 0.375,0.75 L 19,9.71875 c -0.0038,0.252336 -0.129784,0.482183 -0.3125,0.65625 l -9.34375,9.34375 c -0.3686116,0.367783 -0.9743018,0.368616 -1.34375,0 l -4.71875,-4.6875 c -0.3693742,-0.36869 -0.3685357,-0.975895 0,-1.34375 l 6.5,-6.46875 C 9.9556737,7.036406 10.184646,6.94136 10.4375,6.9375 l 2.625,0 c 0.255998,-0.00393 0.506252,0.1003718 0.6875,0.28125 0.18125,0.1808794 0.285242,0.4320273 0.28125,0.6875 l 0,2.65625 c -0.0038,0.252336 -0.129784,0.482183 -0.3125,0.65625 L 9.9375,15 C 9.7002241,15.243671 9.3921987,15.33685 9.0625,15.25 8.7328042,15.16315 8.462027,14.922772 8.375,14.59375 8.287974,14.264728 8.3809,13.924287 8.625,13.6875 l 3.46875,-3.5 0,-1.34375 -1.28125,0 -5.5,5.5 3.375,3.375 8.375,-8.375 0,-5.4375 -5.3125,0 L 5.28125,10.375 C 5.043976,10.618671 4.6734508,10.71185 4.34375,10.625 4.0140533,10.53815 3.774527,10.297771 3.6875,9.96875 3.600476,9.639727 3.6934,9.268036 3.9375,9.03125 l 6.75,-6.75 C 10.861924,2.098909 11.122146,2.00382 11.375,2 z m 0.8125,2.90625 3.875,0 0,4 -1.03125,1.03125 0,-2 c 1.59e-4,-0.010147 -4e-6,-0.02113 0,-0.03125 C 15.031436,7.3795517 14.836008,6.8665073 14.46875,6.5 14.096954,6.128963 13.601223,5.9292396 13.0625,5.9375 l -1.90625,0 1.03125,-1.03125 z M 7.65625,13.4375 c -0.2442099,0.436023 -0.3790166,0.918474 -0.25,1.40625 0.038805,0.146712 0.1497417,0.247833 0.21875,0.375 L 6.75,14.34375 7.65625,13.4375 z M 8.40625,16 c 0.1250455,0.06613 0.2404855,0.149003 0.375,0.1875 L 8.6875,16.28125 8.40625,16 z"
       id="path3997" />
    <path
       inkscape:connector-curvature="0"
       style="fill:url(#radialGradient3808);fill-opacity:1;stroke:none;display:inline"
       d="m 11.387935,1.9999998 c -0.252854,0.00382 -0.51191,0.09899 -0.686334,0.281331 L 3.9318532,9.033274 c -0.2440961,0.236786 -0.3366,0.608747 -0.2495759,0.93777 0.087027,0.329021 0.3254401,0.569591 0.6551368,0.656438 0.3297008,0.08685 0.6986359,-0.0064 0.9359099,-0.250071 l 6.488975,-6.4706123 5.303488,0 0,5.4390653 -8.3919908,8.377411 -3.3692752,-3.375972 5.521868,-5.5015829 1.279076,0 0,1.3441359 -3.4940629,3.501008 C 8.3673039,13.927651 8.2748,14.268353 8.3618262,14.597375 c 0.087027,0.329022 0.3566381,0.56959 0.6863339,0.656439 0.3296987,0.08685 0.6674369,-0.0064 0.9047128,-0.250071 L 13.72771,11.221404 c 0.182716,-0.174067 0.308143,-0.404104 0.31197,-0.65644 l 0,-2.6570144 C 14.043672,7.6524769 13.940157,7.4011313 13.758907,7.2202519 13.577659,7.0393737 13.32857,6.9349956 13.072572,6.9389209 l -2.620547,0 c -0.252854,0.00386 -0.5119104,0.098987 -0.6863341,0.281331 L 3.2767163,13.690864 c -0.3685357,0.367855 -0.3693742,0.975447 0,1.344137 l 4.710746,4.688849 c 0.3694482,0.368616 0.9728591,0.367783 1.3414707,0 l 9.359098,-9.346439 C 18.870747,10.203344 18.996178,9.973307 19,9.720971 L 18.968807,2.9690288 C 18.967621,2.6740931 18.830567,2.3967157 18.59444,2.2188128 18.428487,2.0854492 18.245723,2.0020139 18.032894,1.9999998 l -6.644959,0 z"
       id="Symbol"
       sodipodi:nodetypes="cccssccccccccccssccccsccccccccccscc" />
    <path
       inkscape:connector-curvature="0"
       style="opacity:0.3;fill:#000000;fill-opacity:1;stroke:none;display:inline"
       d="m 11.375,2 c -0.252854,0.00382 -0.513076,0.098909 -0.6875,0.28125 l -6.75,6.75 c -0.2440961,0.236786 -0.3370241,0.608477 -0.25,0.9375 0.021757,0.082255 0.054009,0.148571 0.09375,0.21875 0.039297,-0.06507 0.1012283,-0.102876 0.15625,-0.15625 l 6.75,-6.75 C 10.861924,3.098909 11.122146,3.00382 11.375,3 l 6.65625,0 c 0.212829,0.00201 0.396547,0.085386 0.5625,0.21875 0.236127,0.1779029 0.373814,0.4550643 0.375,0.75 l 0,-1 c -0.0012,-0.2949357 -0.138873,-0.5720971 -0.375,-0.75 C 18.427797,2.0853864 18.244079,2.0020141 18.03125,2 L 11.375,2 z M 10.4375,6.9375 C 10.184646,6.94136 9.9556737,7.036406 9.78125,7.21875 l -6.5,6.46875 c -0.3203045,0.319713 -0.3618511,0.819839 -0.125,1.1875 0.038374,-0.06323 0.070585,-0.133186 0.125,-0.1875 l 6.5,-6.46875 C 9.9556737,8.036406 10.184646,7.94136 10.4375,7.9375 l 2.625,0 c 0.255998,-0.00393 0.506252,0.1003718 0.6875,0.28125 0.18125,0.1808794 0.285242,0.4320273 0.28125,0.6875 l 0,-1 C 14.03525,7.6507773 13.93125,7.3996294 13.75,7.21875 13.568752,7.0378718 13.318498,6.9335747 13.0625,6.9375 l -2.625,0 z m 6.625,2.40625 -8.375,8.375 -2.875,-2.875 -0.5,0.5 3.375,3.375 8.375,-8.375 0,-1 z m -4.96875,0.84375 -3.46875,3.5 c -0.2440982,0.236787 -0.3370262,0.577228 -0.25,0.90625 0.025285,0.09559 0.071894,0.17094 0.125,0.25 0.037048,-0.05625 0.07498,-0.107728 0.125,-0.15625 l 3.46875,-3.5 0,-1 z"
       id="path3641" />
    <path
       inkscape:connector-curvature="0"
       style="opacity:0.2;fill:#ffffff;fill-opacity:1;stroke:none;display:inline"
       d="M 11.75,3.90625 5.28125,10.375 c -0.237274,0.243671 -0.6077992,0.33685 -0.9375,0.25 -0.237762,-0.06263 -0.4422255,-0.208209 -0.5625,-0.40625 -0.1249155,0.219931 -0.1590181,0.503233 -0.09375,0.75 0.087027,0.329021 0.3265533,0.569403 0.65625,0.65625 0.3297008,0.08685 0.700226,-0.0063 0.9375,-0.25 L 11.75,4.90625 l 5.3125,0 0,-1 -5.3125,0 z m -0.9375,4.9375 -5.5,5.5 0.5,0.5 5,-5 1.28125,0 0,-1 -1.28125,0 z M 19,9.75 c -0.01274,0.2407104 -0.136949,0.457759 -0.3125,0.625 L 9.34375,19.71875 C 8.9751384,20.086533 8.3694482,20.087366 8,19.71875 L 3.28125,15.03125 C 3.232909,14.983 3.191915,14.930362 3.15625,14.875 c -0.2215248,0.364989 -0.1898357,0.841997 0.125,1.15625 L 8,20.71875 c 0.3694482,0.368616 0.9751384,0.367783 1.34375,0 L 18.6875,11.375 C 18.870216,11.200933 18.996178,10.971086 19,10.71875 L 19,9.75 z m -4.96875,0.8125 c -0.0038,0.252336 -0.129784,0.482183 -0.3125,0.65625 L 9.9375,15 C 9.7002241,15.243671 9.3921987,15.33685 9.0625,15.25 8.8285942,15.18838 8.6296768,15.036804 8.5,14.84375 c -0.1437479,0.218267 -0.194193,0.488401 -0.125,0.75 0.087027,0.329022 0.3578042,0.569401 0.6875,0.65625 0.3296987,0.08685 0.6377241,-0.0063 0.875,-0.25 l 3.78125,-3.78125 c 0.182716,-0.174067 0.308673,-0.403914 0.3125,-0.65625 l 0,-1 z"
       id="path3652" />
    <path
       style="fill:#000000;fill-opacity:1;stroke:none;display:inline;opacity:0.3"
       d="M 11.375 2 C 11.122146 2.00382 10.861924 2.098909 10.6875 2.28125 L 3.9375 9.03125 C 3.6934039 9.268036 3.6004759 9.639727 3.6875 9.96875 C 3.774527 10.297771 4.0140533 10.538153 4.34375 10.625 C 4.6734508 10.71185 5.043976 10.618671 5.28125 10.375 L 11.75 3.90625 L 17.0625 3.90625 L 17.0625 9.34375 L 8.6875 17.71875 L 5.3125 14.34375 L 10.8125 8.84375 L 12.09375 8.84375 L 12.09375 10.1875 L 8.625 13.6875 C 8.3809018 13.924287 8.2879738 14.264728 8.375 14.59375 C 8.462027 14.922772 8.7328042 15.163151 9.0625 15.25 C 9.3921987 15.33685 9.7002241 15.243671 9.9375 15 L 13.71875 11.21875 C 13.901466 11.044683 14.027423 10.814836 14.03125 10.5625 L 14.03125 7.90625 C 14.035242 7.6507773 13.93125 7.3996294 13.75 7.21875 C 13.568752 7.0378718 13.318498 6.9335747 13.0625 6.9375 L 10.4375 6.9375 C 10.184646 6.94136 9.9556737 7.036406 9.78125 7.21875 L 3.28125 13.6875 C 2.9127143 14.055355 2.9118758 14.66256 3.28125 15.03125 L 8 19.71875 C 8.3694482 20.087366 8.9751384 20.086533 9.34375 19.71875 L 18.6875 10.375 C 18.870216 10.200933 18.996178 9.971086 19 9.71875 L 18.96875 2.96875 C 18.967564 2.6738143 18.829877 2.3966529 18.59375 2.21875 C 18.427797 2.0853864 18.244079 2.0020141 18.03125 2 L 11.375 2 z M 11.375 2.46875 L 18.03125 2.46875 C 18.12801 2.4696657 18.202057 2.4737459 18.3125 2.5625 A 0.45401625 0.45401625 0 0 0 18.3125 2.59375 C 18.435378 2.6863291 18.499378 2.8139543 18.5 2.96875 L 18.53125 9.71875 C 18.529652 9.8242355 18.488655 9.9229745 18.375 10.03125 A 0.45401625 0.45401625 0 0 0 18.375 10.0625 L 9.03125 19.40625 C 8.8384151 19.598651 8.506085 19.599399 8.3125 19.40625 L 3.59375 14.71875 C 3.4010062 14.526363 3.4017578 14.191638 3.59375 14 L 10.09375 7.53125 C 10.185465 7.4353706 10.294187 7.4084378 10.4375 7.40625 L 13.0625 7.40625 C 13.190704 7.4042842 13.342381 7.4363253 13.4375 7.53125 C 13.531483 7.6250408 13.564495 7.7785743 13.5625 7.90625 L 13.5625 10.5625 C 13.5609 10.667997 13.519902 10.766727 13.40625 10.875 A 0.45401625 0.45401625 0 0 0 13.40625 10.90625 L 9.625 14.6875 C 9.4843684 14.831922 9.3725012 14.861233 9.1875 14.8125 C 8.9981291 14.762616 8.8539788 14.625569 8.8125 14.46875 C 8.765697 14.291801 8.8081618 14.125464 8.9375 14 L 12.40625 10.5 A 0.45401625 0.45401625 0 0 0 12.5625 10.1875 L 12.5625 8.84375 A 0.45401625 0.45401625 0 0 0 12.09375 8.375 L 10.8125 8.375 A 0.45401625 0.45401625 0 0 0 10.5 8.53125 L 5 14.03125 A 0.45401625 0.45401625 0 0 0 5 14.65625 L 8.375 18.03125 A 0.45401625 0.45401625 0 0 0 9 18.03125 L 17.375 9.65625 A 0.45401625 0.45401625 0 0 0 17.53125 9.34375 L 17.53125 3.90625 A 0.45401625 0.45401625 0 0 0 17.0625 3.4375 L 11.75 3.4375 A 0.45401625 0.45401625 0 0 0 11.4375 3.59375 L 4.96875 10.0625 C 4.8559189 10.178373 4.6400885 10.232634 4.46875 10.1875 C 4.2862157 10.139418 4.1733487 10.026541 4.125 9.84375 C 4.0800144 9.6736674 4.134992 9.4553137 4.25 9.34375 L 11 2.59375 C 11.073018 2.5174177 11.231218 2.4709222 11.375 2.46875 z "
       id="path3810" />
  </g>
</svg>
