<?xml version="1.0" encoding="UTF-8" standalone="no"?>
<!-- Created with Inkscape (http://www.inkscape.org/) -->

<svg
   xmlns:dc="http://purl.org/dc/elements/1.1/"
   xmlns:cc="http://creativecommons.org/ns#"
   xmlns:rdf="http://www.w3.org/1999/02/22-rdf-syntax-ns#"
   xmlns:svg="http://www.w3.org/2000/svg"
   xmlns="http://www.w3.org/2000/svg"
   xmlns:xlink="http://www.w3.org/1999/xlink"
   xmlns:sodipodi="http://sodipodi.sourceforge.net/DTD/sodipodi-0.dtd"
   xmlns:inkscape="http://www.inkscape.org/namespaces/inkscape"
   width="22"
   height="22"
   id="svg2"
   sodipodi:version="0.32"
   inkscape:version="0.48.1 r9760"
   version="1.0"
   sodipodi:docname="media-playlist-shuffle.svg"
   inkscape:output_extension="org.inkscape.output.svg.inkscape"
   inkscape:export-filename="/home/matt/.icons/Sirocco/scalable/mimetypes/text-plain.png"
   inkscape:export-xdpi="90"
   inkscape:export-ydpi="90"
   sodipodi:modified="true"
   style="display:inline">
  <sodipodi:namedview
     id="base"
     pagecolor="#838383"
     bordercolor="#cc0000"
     borderopacity="1"
     inkscape:pageopacity="1"
     inkscape:pageshadow="2"
     inkscape:zoom="22.027846"
     inkscape:cx="-0.92863728"
     inkscape:cy="5.9802479"
     inkscape:document-units="px"
     inkscape:current-layer="layer1"
     width="128px"
     height="128px"
     inkscape:showpageshadow="false"
     inkscape:window-width="1920"
     inkscape:window-height="1030"
     inkscape:window-x="0"
     inkscape:window-y="25"
     showguides="true"
     inkscape:guide-bbox="true"
     showgrid="true"
     inkscape:window-maximized="1"
     borderlayer="true"
     inkscape:snap-global="true">
    <inkscape:grid
       enabled="true"
       visible="true"
       id="grid3231"
       type="xygrid"
       empspacing="8"
       snapvisiblegridlinesonly="true" />
    <sodipodi:guide
       orientation="1,0"
       position="12,6"
       id="guide3791" />
    <sodipodi:guide
       orientation="0,1"
       position="14,9"
       id="guide3793" />
  </sodipodi:namedview>
  <defs
     id="defs4">
    <linearGradient
       id="StandardGradient"
       gradientTransform="scale(0.9219544,1.0846523)"
       x1="11.998966"
       y1="0.92195445"
       x2="11.998966"
       y2="19.387045"
       gradientUnits="userSpaceOnUse">
      <stop
         style="stop-color:#000000;stop-opacity:0.23529412;"
         offset="0"
         id="stop3283" />
      <stop
         id="stop3850"
         offset="0.69999999"
         style="stop-color:#000000;stop-opacity:0.39215686;" />
      <stop
         style="stop-color:#000000;stop-opacity:0.55;"
         offset="1"
         id="stop2651" />
    </linearGradient>
    <radialGradient
       inkscape:collect="always"
       xlink:href="#StandardGradient"
       id="radialGradient3984"
       cx="12"
       cy="13.346154"
       fx="12"
       fy="13.346154"
       r="8"
       gradientTransform="matrix(2,0,0,0.87500004,-12,1.322115)"
       gradientUnits="userSpaceOnUse" />
    <radialGradient
       inkscape:collect="always"
       xlink:href="#StandardGradient"
       id="radialGradient4040"
       cx="12"
       cy="13.961538"
       fx="12"
       fy="13.961538"
       r="9"
       gradientTransform="matrix(1.7777778,0,0,0.77777776,-9.3333333,2.1410257)"
       gradientUnits="userSpaceOnUse" />
    <radialGradient
       inkscape:collect="always"
       xlink:href="#StandardGradient"
       id="radialGradient4046"
       gradientUnits="userSpaceOnUse"
       gradientTransform="matrix(1.7777778,0,0,0.77777776,-9.3333333,2.1410257)"
       cx="12"
       cy="13.961538"
       fx="12"
       fy="13.961538"
       r="9" />
    <radialGradient
       inkscape:collect="always"
       xlink:href="#StandardGradient"
       id="radialGradient4050"
       gradientUnits="userSpaceOnUse"
       gradientTransform="matrix(1.7777778,0,0,0.77777776,-9.3333333,2.1410257)"
       cx="12"
       cy="13.961538"
       fx="12"
       fy="13.961538"
       r="9" />
    <radialGradient
       inkscape:collect="always"
       xlink:href="#StandardGradient"
       id="radialGradient4052"
       gradientUnits="userSpaceOnUse"
       gradientTransform="matrix(1.7777778,0,0,0.77777776,-9.3333333,2.1410257)"
       cx="12"
       cy="13.961538"
       fx="12"
       fy="13.961538"
       r="9" />
  </defs>
  <metadata
     id="metadata7">
    <rdf:RDF>
      <cc:Work
         rdf:about="">
        <dc:format>image/svg+xml</dc:format>
        <dc:type
           rdf:resource="http://purl.org/dc/dcmitype/StillImage" />
        <dc:title></dc:title>
      </cc:Work>
    </rdf:RDF>
  </metadata>
  <g
     style="display:inline"
     inkscape:label="Calque 1"
     id="layer1"
     inkscape:groupmode="layer">
    <path
       inkscape:connector-curvature="0"
       style="opacity:0.05;fill:#ffffff;fill-opacity:1;fill-rule:nonzero;stroke:none"
       d="m 14.84375,2.9687502 a 1.030118,1.030118 0 0 0 -0.875,1.03125 l 0,0.96875 -1,0 c -1.529364,0 -2.795483,0.6861012 -3.6875,1.5 -0.2955406,0.2696587 -0.4905264,0.5340506 -0.71875,0.8125 A 1.030118,1.030118 0 0 0 8.53125,7.2500002 C 7.6316428,6.5149254 6.4072163,5.9687502 4.96875,5.9687502 l -2.96875,0 a 1.030118,1.030118 0 0 0 -1.03125,1.03125 l 0,2 A 1.030118,1.030118 0 0 0 2,10.03125 l 2.96875,0 c 0.5433854,0 0.6658544,0.08692 1.0625,0.4375 C 5.94616,10.39351 5.962456,10.41013 6.0625,10.5 c -0.00796,0.0073 -0.023596,0.02449 -0.03125,0.03125 -0.396646,0.350583 -0.519115,0.4375 -1.0625,0.4375 L 2,10.96875 A 1.030118,1.030118 0 0 0 0.96875,12 l 0,2 A 1.030118,1.030118 0 0 0 2,15.03125 l 2.96875,0 c 1.44634,0 2.6550305,-0.566677 3.5625,-1.3125 0.209443,0.252433 0.4394057,0.529106 0.75,0.8125 0.892017,0.813899 2.158136,1.5 3.6875,1.5 l 1,0 0,0.96875 a 1.030118,1.030118 0 0 0 1.5625,0.875 l 5,-3 a 1.030118,1.030118 0 0 0 0,-1.75 l -4.375,-2.625 4.375,-2.6249998 a 1.030118,1.030118 0 0 0 0,-1.75 l -5,-3 a 1.030118,1.030118 0 0 0 -0.6875,-0.15625 z M 15,4.0000002 l 5,3 L 15,10 l 0,-1.9999998 -2.03125,0 c -0.712185,0 -1.169097,0.243009 -1.65625,0.6875 -0.466009,0.425198 -0.924734,1.0691197 -1.40625,1.7812498 -0.4371081,0.583292 -0.8720964,1.170188 -1.3125,1.75 -0.1781194,0.2032 -0.3527137,0.408326 -0.5625,0.59375 C 7.264148,13.490518 6.2252602,14 4.96875,14 L 2,14 2,12 4.96875,12 c 0.7620802,0 1.2467687,-0.24271 1.75,-0.6875 0.2131332,-0.188382 0.4168516,-0.429364 0.625,-0.6875 L 8.75,8.6562502 C 9.1054382,8.1594 9.4822627,7.6626335 9.96875,7.2187502 c 0.743422,-0.678317 1.77311,-1.21875 3,-1.21875 l 2.03125,0 0,-2 z m -13,3 2.96875,0 c 1.1760935,0 2.1558881,0.4493745 2.90625,1.0625 l -1.125,1.65625 c -0.010501,-0.00943 -0.020766,-0.021983 -0.03125,-0.03125 -0.5032313,-0.4447905 -0.9879198,-0.6875 -1.75,-0.6875 l -2.96875,0 0,-2 z m 10.65625,2.03125 c 0.08288,-0.010403 0.19303,0 0.3125,0 l 1,0 0,0.9687498 a 1.030118,1.030118 0 0 0 0.125,0.5 1.030118,1.030118 0 0 0 -0.125,0.5 l 0,0.96875 -1,0 C 12.49087,11.96875 12.388346,11.91684 12,11.5625 11.789528,11.37046 11.547994,11.093179 11.3125,10.78125 A 1.030118,1.030118 0 0 0 11.125,10.5625 C 11.440041,10.125549 11.766293,9.6507405 12,9.4375002 c 0.29126,-0.2657529 0.407606,-0.37504 0.65625,-0.40625 z M 15,11 l 5,3 -5,3 0,-2 -2.03125,0 c -1.22689,0 -2.256578,-0.540433 -3,-1.21875 -0.2583354,-0.235712 -0.4749531,-0.493708 -0.6875,-0.75 L 10.5,11.40625 c 0.269049,0.356376 0.545937,0.663031 0.8125,0.90625 C 11.799653,12.756991 12.256565,13 12.96875,13 L 15,13 15,11 z"
       id="path4980" />
    <path
       inkscape:connector-curvature="0"
       style="fill:url(#radialGradient4040);fill-opacity:1;fill-rule:nonzero;stroke:none"
       d="m 15,4.0000002 0,2 -2.03125,0 c -1.22689,0 -2.256578,0.540433 -3,1.21875 C 9.4822627,7.6626335 9.1054382,8.1594 8.75,8.6562502 L 7.34375,10.625 C 7.1356016,10.883136 6.9318832,11.124118 6.71875,11.3125 6.2155187,11.75729 5.7308302,12 4.96875,12 L 2,12 l 0,2 2.96875,0 c 1.2565102,0 2.295398,-0.509482 3.0625,-1.1875 0.2097863,-0.185424 0.3843806,-0.39055 0.5625,-0.59375 0.4404036,-0.579812 0.8753919,-1.166708 1.3125,-1.75 0.481516,-0.7121301 0.940241,-1.3560518 1.40625,-1.7812498 0.487153,-0.444491 0.944065,-0.6875 1.65625,-0.6875 l 2.03125,0 L 15,10 l 5,-2.9999998 -5,-3 z m -13,3 0,2 2.96875,0 c 0.7620802,0 1.2467687,0.2427095 1.75,0.6875 0.010484,0.00927 0.020749,0.021817 0.03125,0.03125 l 1.125,-1.65625 c -0.7503619,-0.6131255 -1.7301565,-1.0625 -2.90625,-1.0625 l -2.96875,0 z M 15,11 l 0,2 -2.03125,0 C 12.256565,13 11.799653,12.756991 11.3125,12.3125 11.045937,12.069281 10.769049,11.762626 10.5,11.40625 l -1.21875,1.625 c 0.2125469,0.256292 0.4291646,0.514288 0.6875,0.75 0.743422,0.678317 1.77311,1.21875 3,1.21875 L 15,15 l 0,2 5,-3 -5,-3 z"
       id="Symbol"
       sodipodi:nodetypes="cccsccsccccsccsccccccccscccccccsccsccccc"
       inkscape:label="#rect3184" />
    <path
       inkscape:connector-curvature="0"
       style="opacity:0.3;fill:#000000;fill-opacity:1;fill-rule:nonzero;stroke:none"
       d="m 15,4.0000002 0,1 4.15625,2.5 0.84375,-0.5 -5,-3 z m -2.03125,2 c -1.22689,0 -2.256578,0.540433 -3,1.21875 C 9.4822627,7.6626335 9.1054382,8.1594 8.75,8.6562502 L 7.34375,10.625 C 7.1356016,10.883136 6.9318832,11.124118 6.71875,11.3125 6.2155187,11.75729 5.7308302,12 4.96875,12 L 2,12 l 0,1 2.96875,0 c 0.7620802,0 1.2467687,-0.24271 1.75,-0.6875 0.2131332,-0.188382 0.4168516,-0.429364 0.625,-0.6875 L 8.75,9.6562502 C 9.1054382,9.1594 9.4822627,8.6626335 9.96875,8.2187502 c 0.743422,-0.678317 1.77311,-1.21875 3,-1.21875 l 2.03125,0 0,-1 -2.03125,0 z m -10.96875,1 0,1 2.96875,0 c 0.9543883,0 1.7905998,0.2795405 2.46875,0.71875 l 0.4375,-0.65625 c -0.7503619,-0.6131255 -1.7301565,-1.0625 -2.90625,-1.0625 l -2.96875,0 z M 15,11 15,12 19.15625,14.5 20,14 15,11 z m -4.5,0.40625 -1.21875,1.625 c 0.1247209,0.15039 0.2711193,0.290783 0.40625,0.4375 L 10.5,12.40625 c 0.269049,0.356376 0.545937,0.663031 0.8125,0.90625 C 11.799653,13.756991 12.256565,14 12.96875,14 L 15,14 15,13 12.96875,13 C 12.256565,13 11.799653,12.756991 11.3125,12.3125 11.045937,12.069281 10.769049,11.762626 10.5,11.40625 z"
       id="BevelShadow"
       inkscape:label="#path3182" />
    <path
       inkscape:connector-curvature="0"
       style="opacity:0.2;fill:#ffffff;fill-opacity:1;fill-rule:nonzero;stroke:none"
       d="M 20,7.0000002 15,10 l 0,1 5,-2.9999998 0,-1 z m -7.03125,1 c -0.712185,0 -1.169097,0.243009 -1.65625,0.6875 -0.466009,0.425198 -0.924734,1.0691197 -1.40625,1.7812498 -0.4371081,0.583292 -0.8720964,1.170188 -1.3125,1.75 -0.1781194,0.2032 -0.3527137,0.408326 -0.5625,0.59375 C 7.264148,13.490518 6.2252602,14 4.96875,14 L 2,14 l 0,1 2.96875,0 c 1.2565102,0 2.295398,-0.509482 3.0625,-1.1875 0.2097863,-0.185424 0.3843806,-0.39055 0.5625,-0.59375 0.4404036,-0.579812 0.8753919,-1.166708 1.3125,-1.75 0.481516,-0.71213 0.940241,-1.356052 1.40625,-1.7812498 0.487153,-0.444491 0.944065,-0.6875 1.65625,-0.6875 l 2.03125,0 0,-1 -2.03125,0 z m -3.6875,5.0312498 0,1 c 0.2125469,0.256292 0.4291646,0.514288 0.6875,0.75 0.743422,0.678317 1.77311,1.21875 3,1.21875 L 15,16 l 0,-1 -2.03125,0 c -1.22689,0 -2.256578,-0.540433 -3,-1.21875 -0.2583354,-0.235712 -0.4749531,-0.493708 -0.6875,-0.75 z M 20,14 l -5,3 0,1 5,-3 0,-1 z"
       id="BevelHighlight"
       inkscape:label="#path3189" />
    <path
       style="fill:#000000;fill-opacity:1;fill-rule:nonzero;stroke:none;opacity:0.3"
       d="M 15 4 L 15 6 L 12.96875 6 C 11.74186 6 10.712172 6.540433 9.96875 7.21875 C 9.4822627 7.6626333 9.1054382 8.1593998 8.75 8.65625 L 7.34375 10.625 C 7.1356016 10.883136 6.9318832 11.124118 6.71875 11.3125 C 6.2155187 11.75729 5.7308302 12 4.96875 12 L 2 12 L 2 14 L 4.96875 14 C 6.2252602 14 7.264148 13.490518 8.03125 12.8125 C 8.2410363 12.627076 8.4156306 12.42195 8.59375 12.21875 C 9.0341536 11.638938 9.4691419 11.052042 9.90625 10.46875 C 10.387766 9.7566199 10.846491 9.112698 11.3125 8.6875 C 11.799653 8.243009 12.256565 8 12.96875 8 L 15 8 L 15 10 L 20 7 L 15 4 z M 15.4375 4.78125 L 19.15625 7 L 15.4375 9.21875 L 15.4375 8 A 0.4360336 0.4360336 0 0 0 15 7.5625 L 12.96875 7.5625 C 12.157387 7.5625 11.560226 7.8923482 11.03125 8.375 C 10.508576 8.8519005 10.016426 9.5012068 9.53125 10.21875 L 9.5625 10.21875 C 9.13323 10.791583 8.7106616 11.371612 8.28125 11.9375 C 8.2724865 11.949049 8.2587666 11.957208 8.25 11.96875 C 8.0813196 12.161414 7.9198879 12.349841 7.75 12.5 C 7.0480491 13.120433 6.1074052 13.5625 4.96875 13.5625 L 2.4375 13.5625 L 2.4375 12.4375 L 4.96875 12.4375 C 5.8234006 12.4375 6.4516527 12.109667 7 11.625 C 7.2480815 11.405728 7.4753246 11.16938 7.6875 10.90625 A 0.4360336 0.4360336 0 0 0 7.6875 10.875 L 9.09375 8.90625 C 9.4443596 8.4161494 9.8003484 7.9415235 10.25 7.53125 C 10.930524 6.9103228 11.869893 6.4375 12.96875 6.4375 L 15 6.4375 A 0.4360336 0.4360336 0 0 0 15.4375 6 L 15.4375 4.78125 z M 2 7 L 2 9 L 4.96875 9 C 5.7308302 9 6.2155187 9.2427095 6.71875 9.6875 C 6.729234 9.69677 6.739499 9.709317 6.75 9.71875 L 7.875 8.0625 C 7.1246381 7.4493745 6.1448435 7 4.96875 7 L 2 7 z M 2.4375 7.4375 L 4.96875 7.4375 C 5.8725641 7.4375 6.6178504 7.7565537 7.25 8.1875 L 6.625 9.125 C 6.1574033 8.8027589 5.6456445 8.5625 4.96875 8.5625 L 2.4375 8.5625 L 2.4375 7.4375 z M 15 11 L 15 13 L 12.96875 13 C 12.256565 13 11.799653 12.756991 11.3125 12.3125 C 11.045937 12.069281 10.769049 11.762626 10.5 11.40625 L 9.28125 13.03125 C 9.4937969 13.287542 9.7104146 13.545538 9.96875 13.78125 C 10.712172 14.459567 11.74186 15 12.96875 15 L 15 15 L 15 17 L 20 14 L 15 11 z M 15.4375 11.78125 L 19.15625 14 L 15.4375 16.21875 L 15.4375 15 A 0.4360336 0.4360336 0 0 0 15 14.5625 L 12.96875 14.5625 C 11.869893 14.5625 10.930524 14.089677 10.25 13.46875 C 10.099587 13.33151 9.9806056 13.158274 9.84375 13 L 10.53125 12.0625 C 10.69803 12.25342 10.863888 12.472294 11.03125 12.625 C 11.560226 13.107652 12.157387 13.4375 12.96875 13.4375 L 15 13.4375 A 0.4360336 0.4360336 0 0 0 15.4375 13 L 15.4375 11.78125 z "
       id="path4042" />
  </g>
</svg>
