<?xml version="1.0" encoding="UTF-8" standalone="no"?>
<!-- Created with Inkscape (http://www.inkscape.org/) -->

<svg
   xmlns:dc="http://purl.org/dc/elements/1.1/"
   xmlns:cc="http://creativecommons.org/ns#"
   xmlns:rdf="http://www.w3.org/1999/02/22-rdf-syntax-ns#"
   xmlns:svg="http://www.w3.org/2000/svg"
   xmlns="http://www.w3.org/2000/svg"
   xmlns:xlink="http://www.w3.org/1999/xlink"
   xmlns:sodipodi="http://sodipodi.sourceforge.net/DTD/sodipodi-0.dtd"
   xmlns:inkscape="http://www.inkscape.org/namespaces/inkscape"
   width="22"
   height="22"
   id="svg2"
   sodipodi:version="0.32"
   inkscape:version="0.48.1 r9760"
   version="1.0"
   sodipodi:docname="object-rotate-right.svg"
   inkscape:output_extension="org.inkscape.output.svg.inkscape"
   inkscape:export-filename="/home/matt/.icons/Sirocco/scalable/mimetypes/text-plain.png"
   inkscape:export-xdpi="90"
   inkscape:export-ydpi="90"
   sodipodi:modified="true"
   style="display:inline">
  <sodipodi:namedview
     id="base"
     pagecolor="#838383"
     bordercolor="#cc0000"
     borderopacity="1"
     inkscape:pageopacity="1"
     inkscape:pageshadow="2"
     inkscape:zoom="22.027846"
     inkscape:cx="0.17407541"
     inkscape:cy="11.450597"
     inkscape:document-units="px"
     inkscape:current-layer="layer1"
     width="128px"
     height="128px"
     inkscape:showpageshadow="false"
     inkscape:window-width="1920"
     inkscape:window-height="1030"
     inkscape:window-x="0"
     inkscape:window-y="25"
     showguides="true"
     inkscape:guide-bbox="true"
     showgrid="true"
     inkscape:window-maximized="1"
     borderlayer="true"
     inkscape:snap-global="true">
    <inkscape:grid
       enabled="true"
       visible="true"
       id="grid3231"
       type="xygrid"
       empspacing="8"
       snapvisiblegridlinesonly="true" />
    <sodipodi:guide
       orientation="1,0"
       position="12,1"
       id="guide3791" />
    <sodipodi:guide
       orientation="0,1"
       position="14,9"
       id="guide3793" />
  </sodipodi:namedview>
  <defs
     id="defs4">
    <linearGradient
       id="StandardGradient"
       gradientTransform="scale(0.9219544,1.0846523)"
       x1="11.998966"
       y1="0.92195445"
       x2="11.998966"
       y2="19.387045"
       gradientUnits="userSpaceOnUse">
      <stop
         style="stop-color:#000000;stop-opacity:0.23529412;"
         offset="0"
         id="stop3283" />
      <stop
         id="stop3850"
         offset="0.69999999"
         style="stop-color:#000000;stop-opacity:0.39215686;" />
      <stop
         style="stop-color:#000000;stop-opacity:0.55;"
         offset="1"
         id="stop2651" />
    </linearGradient>
    <radialGradient
       inkscape:collect="always"
       xlink:href="#StandardGradient"
       id="radialGradient3868"
       cx="11.587168"
       cy="12.65625"
       fx="11.587168"
       fy="12.65625"
       r="7.453125"
       gradientTransform="matrix(6.1966969e-8,-1.2075472,-2.1467505,-1.101635e-7,39.16981,26.992052)"
       gradientUnits="userSpaceOnUse" />
  </defs>
  <metadata
     id="metadata7">
    <rdf:RDF>
      <cc:Work
         rdf:about="">
        <dc:format>image/svg+xml</dc:format>
        <dc:type
           rdf:resource="http://purl.org/dc/dcmitype/StillImage" />
        <dc:title></dc:title>
      </cc:Work>
    </rdf:RDF>
  </metadata>
  <g
     style="display:inline"
     inkscape:label="Calque 1"
     id="layer1"
     inkscape:groupmode="layer">
    <path
       inkscape:connector-curvature="0"
       style="opacity:0.05;fill:#ffffff;fill-opacity:1;stroke:none;display:inline"
       d="m 11.238751,0.96875018 a 1.0204513,1.0204513 0 0 1 0.4375,0.18750002 l 5.03125,3.4375 a 1.0204513,1.0204513 0 0 1 0.03125,1.6875 l -4.09375,2.90625 c 1.372072,0.2825699 2.5,1.3623948 2.5,2.8124998 0,1.656007 -1.375243,3.03125 -3.03125,3.03125 -1.656007,0 -3.0312498,-1.375243 -3.0312498,-3.03125 0,-0.983908 0.574234,-1.728243 1.3124998,-2.2812498 a 1.0204513,1.0204513 0 0 1 -0.3125,-0.71875 l 0,-0.625 c -1.2236788,0.67589 -2.2268068,1.6970238 -2.3749998,3.1562498 -0.0043,0.0421 0.03125,0.21434 0.03125,0.46875 0,2.435187 1.912993,4.358143 4.3437498,4.375 0.01177,-2.38e-4 0.01955,3e-4 0.03125,0 1.791263,-0.04592 2.83604,-0.799604 3.90625,-2.25 a 1.0204513,1.0204513 0 0 1 1.34375,-0.28125 l 2.1875,1.28125 a 1.0204513,1.0204513 0 0 1 0.34375,1.375 c -1.612445,2.832182 -4.215243,4.53125 -7.78125,4.53125 -4.9697158,0 -9.0312498,-4.061534 -9.0312498,-9.03125 0,-4.2552775 3.021928,-7.714985 6.9999998,-8.6562498 l 0,-1.34375 a 1.0204513,1.0204513 0 0 1 1.0625,-1.03125002 1.0204513,1.0204513 0 0 1 0.09375,0 z m -0.125,1.03125002 0,2.0625 C 7.1693082,4.5563111 4.1137512,7.9217125 4.1137512,12 c 0,4.418278 3.581722,8 7.9999998,8 3.275175,0 5.42616,-1.400292 6.90625,-4 l -2.1875,-1.28125 c -1.180357,1.599673 -2.582222,2.64436 -4.71875,2.6875 -2.9939548,0 -5.4062498,-2.412295 -5.4062498,-5.40625 0,-0.187122 -0.01851,-0.380261 0,-0.5625 0.243953,-2.4021608 2.06322,-4.3195582 4.4062498,-4.7499998 l 0,2.3125 5.03125,-3.5625 -5.03125,-3.4375 z m 1,7.9999998 c -1.104569,0 -2,0.895431 -2,2 0,1.104569 0.895431,2 2,2 1.104569,0 2,-0.895431 2,-2 0,-1.104569 -0.895431,-2 -2,-2 z"
       id="path5038" />
    <path
       inkscape:connector-curvature="0"
       style="fill:url(#radialGradient3868);fill-opacity:1;stroke:none;display:inline"
       d="m 11.113751,2.0000002 5.03125,3.4375 -5.03125,3.5625 0,-2.3125 C 8.7707212,7.1179418 6.9514542,9.0353392 6.7075012,11.4375 c -0.01851,0.182239 0,0.375378 0,0.5625 0,2.993955 2.412295,5.40625 5.4062498,5.40625 2.136528,-0.04314 3.538393,-1.087827 4.71875,-2.6875 L 19.020001,16 c -1.48009,2.599708 -3.631075,4 -6.90625,4 -4.4182778,0 -7.9999998,-3.581722 -7.9999998,-8 0,-4.0782875 3.055557,-7.4436889 6.9999998,-7.9374998 l 0,-2.0625 z m 1,7.9999998 c 1.104569,0 2,0.895431 2,2 0,1.104569 -0.895431,2 -2,2 -1.104569,0 -2,-0.895431 -2,-2 0,-1.104569 0.895431,-2 2,-2 z"
       id="path2856"
       sodipodi:nodetypes="ccccssccccscccsssc" />
    <path
       inkscape:connector-curvature="0"
       style="opacity:0.2;fill:#ffffff;fill-opacity:1;stroke:none;display:inline"
       d="m 15.426251,5.9375002 0.71875,0.5 L 11.113751,10 l 0,-0.9999998 4.3125,-3.0625 z m -4.3125,0.75 0,1 C 8.8029412,8.1120226 7.0218832,9.9879587 6.7387512,12.34375 6.7317512,12.23098 6.7075012,12.114576 6.7075012,12 c 0,-0.187122 -0.01851,-0.380261 0,-0.5625 0.243953,-2.4021608 2.06322,-4.3195582 4.4062498,-4.7499998 z M 14.051251,12.5 c 0.0411,0.159759 0.0625,0.327411 0.0625,0.5 0,1.104569 -0.895431,2 -2,2 -1.104569,0 -2,-0.895431 -2,-2 0,-0.172589 0.0214,-0.340241 0.0625,-0.5 0.221963,0.862699 1.00552,1.5 1.9375,1.5 0.93198,0 1.715537,-0.637301 1.9375,-1.5 z M 4.1450012,12.53125 C 4.4215822,16.698801 7.8761692,20 12.113751,20 c 2.950928,0 4.98025,-1.154668 6.4375,-3.28125 L 19.020001,17 c -1.48009,2.599708 -3.631075,4 -6.90625,4 -4.4182778,0 -7.9999998,-3.581722 -7.9999998,-8 0,-0.159474 0.02203,-0.311585 0.03125,-0.46875 z"
       id="path3688" />
    <path
       style="opacity:0.3;fill:#000000;fill-opacity:1;stroke:none;display:inline"
       d="m 11.113751,2 5.03125,3.4375 -5.03125,3.5625 0,-2.3125 c -2.3430298,0.4304416 -4.1622968,2.3478392 -4.4062498,4.75 -0.01851,0.182239 0,0.375378 0,0.5625 0,2.993955 2.412295,5.40625 5.4062498,5.40625 2.136528,-0.04314 3.538393,-1.087827 4.71875,-2.6875 L 19.020001,16 c -1.480091,2.599708 -3.631075,4 -6.90625,4 -4.4182778,0 -7.9999998,-3.581722 -7.9999998,-8 0,-4.0782875 3.055557,-7.4436891 6.9999998,-7.9375 l 0,-2.0625 z m 0.46875,0.875 0,1.1875 A 0.45401625,0.45401625 0 0 1 11.176251,4.5 C 7.4553992,4.9658192 4.5825012,8.1484635 4.5825012,12 c 0,4.172934 3.358316,7.53125 7.5312498,7.53125 2.968139,0 4.851222,-1.150054 6.25,-3.375 l -1.4375,-0.84375 c -1.186727,1.47833 -2.691322,2.51967 -4.8125,2.5625 -3.2378038,0 -5.8749998,-2.637196 -5.8749998,-5.875 0,-0.157184 0.0064,-0.34916 0.03125,-0.59375 C 6.5344232,8.8025396 8.4824062,6.7161855 11.020001,6.25 a 0.45401625,0.45401625 0 0 1 0.5625,0.4375 l 0,1.4375 3.78125,-2.6875 -3.78125,-2.5625 z M 12.113751,10 c 1.104569,0 2,0.895431 2,2 0,1.104569 -0.895431,2 -2,2 -1.104569,0 -2,-0.895431 -2,-2 0,-1.104569 0.895431,-2 2,-2 z m 0,0.46875 c -0.859225,0 -1.53125,0.672025 -1.53125,1.53125 0,0.859225 0.672025,1.53125 1.53125,1.53125 0.859225,0 1.53125,-0.672025 1.53125,-1.53125 0,-0.859225 -0.672025,-1.53125 -1.53125,-1.53125 z"
       id="path3883"
       inkscape:connector-curvature="0" />
    <path
       inkscape:connector-curvature="0"
       style="opacity:0.3;fill:#000000;fill-opacity:1;stroke:none;display:inline"
       d="m 11.113751,2.0000002 5.03125,3.4375 -0.71875,0.5 -4.3125,-2.9375 0,-1 z m 0,2.0625 0,1 C 7.3235482,5.5370016 4.3714372,8.66918 4.1450012,12.53125 4.1332112,12.35354 4.1137512,12.180696 4.1137512,12 c 0,-4.0782875 3.055557,-7.4436889 6.9999998,-7.9374998 z m 1,5.9374998 c 1.104569,0 2,0.895431 2,2 0,0.172589 -0.0214,0.340241 -0.0625,0.5 -0.221963,-0.862699 -1.00552,-1.5 -1.9375,-1.5 -0.93198,0 -1.715537,0.637301 -1.9375,1.5 -0.0411,-0.159759 -0.0625,-0.327411 -0.0625,-0.5 0,-1.104569 0.895431,-2 2,-2 z m -5.3749998,2.34375 c 0.174989,2.833985 2.495621,5.0625 5.3749998,5.0625 2.136528,-0.04314 3.538393,-1.087827 4.71875,-2.6875 L 19.020001,16 c -0.146531,0.257375 -0.308627,0.485081 -0.46875,0.71875 l -1.71875,-1 c -1.180357,1.599673 -2.582222,2.64436 -4.71875,2.6875 -2.9939548,0 -5.4062498,-2.412295 -5.4062498,-5.40625 0,-0.187122 -0.01851,-0.380261 0,-0.5625 0.0034,-0.03303 0.0273,-0.0609 0.03125,-0.09375 z"
       id="path3679" />
  </g>
</svg>
