<?xml version="1.0" encoding="UTF-8" standalone="no"?>
<!-- Created with Inkscape (http://www.inkscape.org/) -->

<svg
   xmlns:dc="http://purl.org/dc/elements/1.1/"
   xmlns:cc="http://creativecommons.org/ns#"
   xmlns:rdf="http://www.w3.org/1999/02/22-rdf-syntax-ns#"
   xmlns:svg="http://www.w3.org/2000/svg"
   xmlns="http://www.w3.org/2000/svg"
   xmlns:xlink="http://www.w3.org/1999/xlink"
   xmlns:sodipodi="http://sodipodi.sourceforge.net/DTD/sodipodi-0.dtd"
   xmlns:inkscape="http://www.inkscape.org/namespaces/inkscape"
   width="22"
   height="22"
   id="svg2"
   sodipodi:version="0.32"
   inkscape:version="0.48.1 r9760"
   version="1.0"
   sodipodi:docname="object-rotate-left.svg"
   inkscape:output_extension="org.inkscape.output.svg.inkscape"
   inkscape:export-filename="/home/matt/.icons/Sirocco/scalable/mimetypes/text-plain.png"
   inkscape:export-xdpi="90"
   inkscape:export-ydpi="90"
   sodipodi:modified="true"
   style="display:inline">
  <sodipodi:namedview
     id="base"
     pagecolor="#838383"
     bordercolor="#cc0000"
     borderopacity="1"
     inkscape:pageopacity="1"
     inkscape:pageshadow="2"
     inkscape:zoom="22.027846"
     inkscape:cx="0.17407541"
     inkscape:cy="11.427898"
     inkscape:document-units="px"
     inkscape:current-layer="layer1"
     width="128px"
     height="128px"
     inkscape:showpageshadow="false"
     inkscape:window-width="1920"
     inkscape:window-height="1030"
     inkscape:window-x="0"
     inkscape:window-y="25"
     showguides="true"
     inkscape:guide-bbox="true"
     showgrid="true"
     inkscape:window-maximized="1"
     borderlayer="true"
     inkscape:snap-global="true">
    <inkscape:grid
       enabled="true"
       visible="true"
       id="grid3231"
       type="xygrid"
       empspacing="8"
       snapvisiblegridlinesonly="true" />
    <sodipodi:guide
       orientation="1,0"
       position="12,1"
       id="guide3791" />
    <sodipodi:guide
       orientation="0,1"
       position="14,9"
       id="guide3793" />
  </sodipodi:namedview>
  <defs
     id="defs4">
    <linearGradient
       id="StandardGradient"
       gradientTransform="scale(0.9219544,1.0846523)"
       x1="11.998966"
       y1="0.92195445"
       x2="11.998966"
       y2="19.387045"
       gradientUnits="userSpaceOnUse">
      <stop
         style="stop-color:#000000;stop-opacity:0.23529412;"
         offset="0"
         id="stop3283" />
      <stop
         id="stop3850"
         offset="0.69999999"
         style="stop-color:#000000;stop-opacity:0.39215686;" />
      <stop
         style="stop-color:#000000;stop-opacity:0.55;"
         offset="1"
         id="stop2651" />
    </linearGradient>
    <radialGradient
       inkscape:collect="always"
       xlink:href="#StandardGradient"
       id="radialGradient3868"
       cx="12"
       cy="12.65625"
       fx="12"
       fy="12.65625"
       r="7.453125"
       gradientTransform="matrix(2.1467505,1.877984e-7,-1.056366e-7,1.2075472,-13.761006,-2.2830215)"
       gradientUnits="userSpaceOnUse" />
  </defs>
  <metadata
     id="metadata7">
    <rdf:RDF>
      <cc:Work
         rdf:about="">
        <dc:format>image/svg+xml</dc:format>
        <dc:type
           rdf:resource="http://purl.org/dc/dcmitype/StillImage" />
        <dc:title></dc:title>
      </cc:Work>
    </rdf:RDF>
  </metadata>
  <g
     style="display:inline"
     inkscape:label="Calque 1"
     id="layer1"
     inkscape:groupmode="layer">
    <path
       inkscape:connector-curvature="0"
       style="opacity:0.05;fill:#ffffff;fill-opacity:1;stroke:none;display:inline"
       d="M 11.875,0.96875018 A 1.0204513,1.0204513 0 0 0 11.4375,1.1562502 l -5.03125,3.4375 a 1.0204513,1.0204513 0 0 0 -0.03125,1.6875 l 4.09375,2.90625 c -1.3720722,0.2825699 -2.5,1.3623948 -2.5,2.8124998 0,1.656007 1.3752428,3.03125 3.03125,3.03125 1.656007,0 3.03125,-1.375243 3.03125,-3.03125 0,-0.983908 -0.574234,-1.728243 -1.3125,-2.2812498 a 1.0204513,1.0204513 0 0 0 0.3125,-0.71875 l 0,-0.625 c 1.223679,0.67589 2.226807,1.6970238 2.375,3.1562498 0.0043,0.0421 -0.03125,0.21434 -0.03125,0.46875 0,2.435187 -1.912993,4.358143 -4.34375,4.375 -0.01177,-2.38e-4 -0.01955,3e-4 -0.03125,0 C 9.2087373,16.32908 8.1639597,15.575396 7.09375,14.125 A 1.0204513,1.0204513 0 0 0 5.75,13.84375 L 3.5625,15.125 A 1.0204513,1.0204513 0 0 0 3.21875,16.5 c 1.612445,2.832182 4.2152431,4.53125 7.78125,4.53125 4.969716,0 9.03125,-4.061534 9.03125,-9.03125 0,-4.2552775 -3.021928,-7.714985 -7,-8.6562498 l 0,-1.34375 a 1.0204513,1.0204513 0 0 0 -1.0625,-1.03125002 1.0204513,1.0204513 0 0 0 -0.09375,0 z M 12,2.0000002 l 0,2.0625 C 15.944443,4.5563111 19,7.9217125 19,12 c 0,4.418278 -3.581722,8 -8,8 -3.2751752,0 -5.4261594,-1.400292 -6.90625,-4 l 2.1875,-1.28125 c 1.1803572,1.599673 2.5822221,2.64436 4.71875,2.6875 2.993955,0 5.40625,-2.412295 5.40625,-5.40625 0,-0.187122 0.01851,-0.380261 0,-0.5625 C 16.162297,9.0353392 14.34303,7.1179418 12,6.6875002 l 0,2.3125 -5.03125,-3.5625 L 12,2.0000002 z M 11,10 c 1.104569,0 2,0.895431 2,2 0,1.104569 -0.895431,2 -2,2 -1.104569,0 -2,-0.895431 -2,-2 0,-1.104569 0.895431,-2 2,-2 z"
       id="path5038" />
    <path
       inkscape:connector-curvature="0"
       style="fill:url(#radialGradient3868);fill-opacity:1;stroke:none;display:inline"
       d="m 12,2.0000002 -5.03125,3.4375 5.03125,3.5625 0,-2.3125 c 2.34303,0.4304416 4.162297,2.347839 4.40625,4.7499998 0.01851,0.182239 0,0.375378 0,0.5625 0,2.993955 -2.412295,5.40625 -5.40625,5.40625 C 8.8634721,17.36311 7.4616072,16.318423 6.28125,14.71875 L 4.09375,16 c 1.4800906,2.599708 3.6310748,4 6.90625,4 4.418278,0 8,-3.581722 8,-8 0,-4.0782875 -3.055557,-7.4436889 -7,-7.9374998 l 0,-2.0625 z M 11,10 c -1.104569,0 -2,0.895431 -2,2 0,1.104569 0.895431,2 2,2 1.104569,0 2,-0.895431 2,-2 0,-1.104569 -0.895431,-2 -2,-2 z"
       id="path2856"
       sodipodi:nodetypes="ccccssccccscccsssc" />
    <path
       inkscape:connector-curvature="0"
       style="opacity:0.2;fill:#ffffff;fill-opacity:1;stroke:none;display:inline"
       d="m 7.6875,5.9375002 -0.71875,0.5 L 12,10 12,9.0000002 7.6875,5.9375002 z m 4.3125,0.75 0,1 c 2.31081,0.4245224 4.091868,2.3004585 4.375,4.6562498 0.007,-0.11277 0.03125,-0.229174 0.03125,-0.34375 0,-0.187122 0.01851,-0.380261 0,-0.5625 C 16.162297,9.0353392 14.34303,7.1179418 12,6.6875002 z M 9.0625,12.5 C 9.021396,12.659759 9,12.827411 9,13 c 0,1.104569 0.895431,2 2,2 1.104569,0 2,-0.895431 2,-2 0,-0.172589 -0.0214,-0.340241 -0.0625,-0.5 C 12.715537,13.362699 11.93198,14 11,14 10.06802,14 9.2844628,13.362699 9.0625,12.5 z m 9.90625,0.03125 C 18.692169,16.698801 15.237582,20 11,20 8.0490726,20 6.0197501,18.845332 4.5625,16.71875 L 4.09375,17 c 1.4800906,2.599708 3.6310748,4 6.90625,4 4.418278,0 8,-3.581722 8,-8 0,-0.159474 -0.02203,-0.311585 -0.03125,-0.46875 z"
       id="path3688" />
    <path
       style="fill:#000000;fill-opacity:1;stroke:none;display:inline;opacity:0.3"
       d="M 12,2 6.96875,5.4375 12,9 12,6.6875 c 2.34303,0.4304416 4.162297,2.3478392 4.40625,4.75 0.01851,0.182239 0,0.375378 0,0.5625 0,2.993955 -2.412295,5.40625 -5.40625,5.40625 C 8.863472,17.36311 7.461607,16.318423 6.28125,14.71875 L 4.09375,16 C 5.573841,18.599708 7.724825,20 11,20 15.418278,20 19,16.418278 19,12 19,7.9217125 15.944443,4.5563109 12,4.0625 L 12,2 z m -0.46875,0.875 0,1.1875 A 0.45401625,0.45401625 0 0 0 11.9375,4.5 c 3.720852,0.4658192 6.59375,3.6484635 6.59375,7.5 0,4.172934 -3.358316,7.53125 -7.53125,7.53125 -2.968139,0 -4.851222,-1.150054 -6.25,-3.375 L 6.1875,15.3125 c 1.186727,1.47833 2.691322,2.51967 4.8125,2.5625 3.237804,0 5.875,-2.637196 5.875,-5.875 0,-0.157184 -0.0064,-0.34916 -0.03125,-0.59375 C 16.579328,8.8025396 14.631345,6.7161855 12.09375,6.25 a 0.45401625,0.45401625 0 0 0 -0.5625,0.4375 l 0,1.4375 L 7.75,5.4375 11.53125,2.875 z M 11,10 c -1.104569,0 -2,0.895431 -2,2 0,1.104569 0.895431,2 2,2 1.104569,0 2,-0.895431 2,-2 0,-1.104569 -0.895431,-2 -2,-2 z m 0,0.46875 c 0.859225,0 1.53125,0.672025 1.53125,1.53125 0,0.859225 -0.672025,1.53125 -1.53125,1.53125 -0.859225,0 -1.53125,-0.672025 -1.53125,-1.53125 0,-0.859225 0.672025,-1.53125 1.53125,-1.53125 z"
       id="path3883"
       inkscape:connector-curvature="0" />
    <path
       inkscape:connector-curvature="0"
       style="opacity:0.3;fill:#000000;fill-opacity:1;stroke:none;display:inline"
       d="m 12,2.0000002 -5.03125,3.4375 0.71875,0.5 4.3125,-2.9375 0,-1 z m 0,2.0625 0,1 C 15.790203,5.5370016 18.742314,8.66918 18.96875,12.53125 18.98054,12.35354 19,12.180696 19,12 19,7.9217125 15.944443,4.5563111 12,4.0625002 z M 11,10 c -1.104569,0 -2,0.895431 -2,2 0,0.172589 0.021396,0.340241 0.0625,0.5 C 9.2844628,11.637301 10.06802,11 11,11 c 0.93198,0 1.715537,0.637301 1.9375,1.5 C 12.978604,12.340241 13,12.172589 13,12 13,10.895431 12.104569,10 11,10 z m 5.375,2.34375 C 16.200011,15.177735 13.879379,17.40625 11,17.40625 8.8634721,17.36311 7.4616072,16.318423 6.28125,14.71875 L 4.09375,16 c 0.1465314,0.257375 0.3086274,0.485081 0.46875,0.71875 l 1.71875,-1 c 1.1803572,1.599673 2.5822221,2.64436 4.71875,2.6875 2.993955,0 5.40625,-2.412295 5.40625,-5.40625 0,-0.187122 0.01851,-0.380261 0,-0.5625 -0.0034,-0.03303 -0.0273,-0.0609 -0.03125,-0.09375 z"
       id="path3679" />
  </g>
</svg>
