<?xml version="1.0" encoding="UTF-8" standalone="no"?>
<!-- Created with Inkscape (http://www.inkscape.org/) -->

<svg
   xmlns:dc="http://purl.org/dc/elements/1.1/"
   xmlns:cc="http://creativecommons.org/ns#"
   xmlns:rdf="http://www.w3.org/1999/02/22-rdf-syntax-ns#"
   xmlns:svg="http://www.w3.org/2000/svg"
   xmlns="http://www.w3.org/2000/svg"
   xmlns:xlink="http://www.w3.org/1999/xlink"
   xmlns:sodipodi="http://sodipodi.sourceforge.net/DTD/sodipodi-0.dtd"
   xmlns:inkscape="http://www.inkscape.org/namespaces/inkscape"
   width="22"
   height="22"
   id="svg2"
   sodipodi:version="0.32"
   inkscape:version="0.48.1 r9760"
   version="1.0"
   sodipodi:docname="system-upgrade.svg"
   inkscape:output_extension="org.inkscape.output.svg.inkscape"
   inkscape:export-filename="/home/matt/.icons/Sirocco/scalable/mimetypes/text-plain.png"
   inkscape:export-xdpi="90"
   inkscape:export-ydpi="90"
   sodipodi:modified="true"
   style="display:inline">
  <sodipodi:namedview
     id="base"
     pagecolor="#838383"
     bordercolor="#cc0000"
     borderopacity="1"
     inkscape:pageopacity="1"
     inkscape:pageshadow="2"
     inkscape:zoom="15.622586"
     inkscape:cx="-14.85131"
     inkscape:cy="5.2888554"
     inkscape:document-units="px"
     inkscape:current-layer="layer1"
     width="128px"
     height="128px"
     inkscape:showpageshadow="false"
     inkscape:window-width="1920"
     inkscape:window-height="1030"
     inkscape:window-x="0"
     inkscape:window-y="25"
     showguides="true"
     inkscape:guide-bbox="true"
     showgrid="true"
     inkscape:window-maximized="1"
     borderlayer="true"
     inkscape:snap-global="true">
    <inkscape:grid
       enabled="true"
       visible="true"
       id="grid3231"
       type="xygrid"
       empspacing="8"
       snapvisiblegridlinesonly="true" />
    <sodipodi:guide
       orientation="1,0"
       position="12,2"
       id="guide3791" />
    <sodipodi:guide
       orientation="0,1"
       position="14,9"
       id="guide3793" />
  </sodipodi:namedview>
  <defs
     id="defs4">
    <linearGradient
       id="StandardGradient"
       gradientTransform="scale(0.9219544,1.0846523)"
       x1="11.998966"
       y1="0.92195445"
       x2="11.998966"
       y2="19.387045"
       gradientUnits="userSpaceOnUse">
      <stop
         style="stop-color:#000000;stop-opacity:0.23529412;"
         offset="0"
         id="stop3283" />
      <stop
         id="stop3850"
         offset="0.69999999"
         style="stop-color:#000000;stop-opacity:0.39215686;" />
      <stop
         style="stop-color:#000000;stop-opacity:0.55;"
         offset="1"
         id="stop2651" />
    </linearGradient>
    <radialGradient
       inkscape:collect="always"
       xlink:href="#StandardGradient"
       id="radialGradient3857"
       cx="12"
       cy="12.447369"
       fx="12"
       fy="12.447369"
       r="6"
       gradientTransform="matrix(2.6666667,-9.1385016e-8,5.7115635e-8,1.6666667,-50.000001,-7.7456132)"
       gradientUnits="userSpaceOnUse" />
    <linearGradient
       id="StandardGradient-9">
      <stop
         style="stop-color:#000000;stop-opacity:0.86274511;"
         offset="0"
         id="stop3389-8" />
      <stop
         style="stop-color:#000000;stop-opacity:0.47058824;"
         offset="1"
         id="stop3391-3" />
    </linearGradient>
    <radialGradient
       inkscape:collect="always"
       xlink:href="#StandardGradient"
       id="radialGradient3868"
       cx="12"
       cy="13"
       fx="12"
       fy="13"
       r="9"
       gradientUnits="userSpaceOnUse"
       gradientTransform="matrix(1.7777778,1.1111111e-8,0,1.1111111,-9.3333332,-1.4444445)" />
    <radialGradient
       inkscape:collect="always"
       xlink:href="#StandardGradient"
       id="radialGradient3874"
       gradientUnits="userSpaceOnUse"
       gradientTransform="matrix(1.7777778,1.1111111e-8,0,1.1111111,-9.3333332,-1.4444445)"
       cx="12"
       cy="13"
       fx="12"
       fy="13"
       r="9" />
    <radialGradient
       inkscape:collect="always"
       xlink:href="#StandardGradient"
       id="radialGradient3878"
       gradientUnits="userSpaceOnUse"
       gradientTransform="matrix(1.7777778,1.1111111e-8,0,1.1111111,-9.3333332,-1.4444445)"
       cx="12"
       cy="13"
       fx="12"
       fy="13"
       r="9" />
    <radialGradient
       inkscape:collect="always"
       xlink:href="#StandardGradient"
       id="radialGradient3880"
       gradientUnits="userSpaceOnUse"
       gradientTransform="matrix(1.7777778,1.1111111e-8,0,1.1111111,-9.3333332,-1.4444445)"
       cx="12"
       cy="13"
       fx="12"
       fy="13"
       r="9" />
  </defs>
  <metadata
     id="metadata7">
    <rdf:RDF>
      <cc:Work
         rdf:about="">
        <dc:format>image/svg+xml</dc:format>
        <dc:type
           rdf:resource="http://purl.org/dc/dcmitype/StillImage" />
        <dc:title></dc:title>
      </cc:Work>
    </rdf:RDF>
  </metadata>
  <g
     style="display:inline"
     inkscape:label="Calque 1"
     id="layer1"
     inkscape:groupmode="layer">
    <path
       sodipodi:nodetypes="sscccsss"
       inkscape:connector-curvature="0"
       id="path3845"
       d="M 6.5,-28 C 5.669,-28 5,-27.331 5,-26.5 l 0,17.5 6,-6 6,6 0,-17.5 c 0,-0.831 -0.669,-1.5 -1.5,-1.5 z"
       style="color:#000000;fill:#000000;fill-opacity:1;fill-rule:nonzero;stroke:none;stroke-width:0.80000001;marker:none;visibility:visible;display:inline;overflow:visible;enable-background:accumulate" />
    <path
       inkscape:transform-center-y="0.33889105"
       transform="matrix(1.2786771,-0.13717173,0.13717173,1.2786771,-4.1597436,-29.941791)"
       d="M 12.802775,11.122499 10.811559,9.7928998 8.5874152,10.679447 9.2366193,8.3748181 7.7061651,6.53349 l 2.3924469,-0.094739 1.278271,-2.0245501 0.829409,2.2460762 2.320469,0.5900873 -1.879844,1.482891 z"
       inkscape:randomized="0"
       inkscape:rounded="0"
       inkscape:flatsided="false"
       sodipodi:arg2="1.6755161"
       sodipodi:arg1="1.0471976"
       sodipodi:r2="1.8027756"
       sodipodi:r1="3.6055512"
       sodipodi:cy="8"
       sodipodi:cx="11"
       sodipodi:sides="5"
       id="path3847"
       style="color:#000000;fill:#ff00ff;fill-opacity:1;fill-rule:nonzero;stroke:none;stroke-width:0.80000001;marker:none;visibility:visible;display:inline;overflow:visible;enable-background:accumulate"
       sodipodi:type="star" />
    <path
       style="opacity:0.05;fill:#ffffff;fill-opacity:1;fill-rule:nonzero;stroke:none;stroke-width:1;marker:none;visibility:visible;display:block;overflow:visible;enable-background:accumulate"
       d="m 9.75,20.96875 c -0.8963488,0 -1.59375,-0.777084 -1.59375,-1.625 l 0,-0.625 c -0.2103195,-0.07254 -0.4177741,-0.15921 -0.625,-0.25 l -0.4375,0.4375 c -0.2269694,0.226958 -0.6108523,0.495649 -1.125,0.5 -0.4204825,0.0036 -0.8463774,-0.190146 -1.125,-0.46875 L 3.0625,17.15625 c -0.6138348,-0.613839 -0.5321439,-1.686571 0.03125,-2.25 l 0.4375,-0.4375 c -0.09079,-0.207226 -0.1774627,-0.414681 -0.25,-0.625 l -0.625,0 c -0.8479194,0 -1.625,-0.697401 -1.625,-1.59375 l 0,-2.5 c 0,-0.896351 0.7770789,-1.59375 1.625,-1.59375 l 0.625,0 c 0.072538,-0.210319 0.1592107,-0.417775 0.25,-0.625 L 3.09375,7.09375 C 2.5303349,6.530334 2.4486238,5.457577 3.0625,4.84375 L 4.84375,3.0625 c 0.613829,-0.613833 1.6865661,-0.532177 2.25,0.03125 l 0.4375,0.4375 c 0.2072258,-0.09079 0.4146807,-0.177462 0.625,-0.25 l 0,-0.625 c 0,-0.847916 0.6974016,-1.625 1.59375,-1.625 l 2.5,0 c 0.896349,0 1.59375,0.777083 1.59375,1.625 l 0,0.625 c 0.210319,0.072538 0.417774,0.15921 0.625,0.25 l 0.4375,-0.4375 c 0.563425,-0.563427 1.636169,-0.645108 2.25,-0.03125 l 1.78125,1.78125 c 0.613848,0.613856 0.532101,1.686578 -0.03125,2.25 l -0.4375,0.4375 c 0.09079,0.207226 0.177462,0.41468 0.25,0.625 l 0.625,0 c 0.847947,-1.9e-5 1.625,0.697393 1.625,1.59375 l 0,2.5 c 0,0.896358 -0.777076,1.59375 -1.625,1.59375 l -0.625,0 c -0.07254,0.210319 -0.15921,0.417775 -0.25,0.625 l 0.4375,0.4375 c 0.563401,0.563406 0.645155,1.636168 0.03125,2.25 l -1.78125,1.78125 c -0.613852,0.613833 -1.686582,0.532093 -2.25,-0.03125 l -0.4375,-0.4375 c -0.207226,0.09079 -0.414681,0.177462 -0.625,0.25 l 0,0.625 c 0,0.847922 -0.697404,1.625 -1.59375,1.625 l -2.5,0 z M 9.75,20 l 2.5,0 c 0.354191,0 0.625,-0.296001 0.625,-0.65625 l 0,-1.28125 c 0.633321,-0.168742 1.258817,-0.396731 1.8125,-0.71875 l 0.90625,0.875 c 0.254734,0.2547 0.624543,0.281699 0.875,0.03125 L 18.25,16.46875 c 0.250482,-0.250452 0.22348,-0.620268 -0.03125,-0.875 l -0.875,-0.90625 c 0.322016,-0.553684 0.550009,-1.17918 0.71875,-1.8125 l 1.28125,0 C 19.703993,12.875 20,12.604191 20,12.25 l 0,-2.5 C 20,9.395807 19.703993,9.124992 19.34375,9.125 l -1.28125,0 C 17.893759,8.491678 17.665766,7.866181 17.34375,7.3125 l 0.875,-0.90625 c 0.2547,-0.254732 0.2817,-0.624547 0.03125,-0.875 L 16.46875,3.75 c -0.250452,-0.250463 -0.62027,-0.223481 -0.875,0.03125 l -0.90625,0.875 C 14.133818,4.334233 13.508321,4.106242 12.875,3.9375 l 0,-1.28125 C 12.875,2.296003 12.604194,2 12.25,2 L 9.75,2 C 9.395805,2 9.125,2.296003 9.125,2.65625 l 0,1.28125 C 8.4916799,4.106242 7.8661828,4.334233 7.3125,4.65625 L 6.40625,3.78125 C 6.1515168,3.52652 5.7817002,3.499548 5.53125,3.75 L 3.75,5.53125 c -0.2504719,0.250452 -0.2234828,0.620267 0.03125,0.875 l 0.875,0.90625 C 4.3342349,7.866181 4.1062452,8.491678 3.9375,9.125 l -1.28125,0 C 2.2960033,9.125 2,9.395808 2,9.75 l 0,2.5 c 0,0.354193 0.2960025,0.625 0.65625,0.625 l 1.28125,0 c 0.1687451,0.633321 0.39673,1.258817 0.71875,1.8125 l -0.875,0.90625 C 3.5265324,15.848483 3.4995497,16.218298 3.75,16.46875 L 5.53125,18.25 c 0.1252255,0.125217 0.2726745,0.188914 0.4375,0.1875 0.1648258,-0.0014 0.3101308,-0.09139 0.4375,-0.21875 l 0.90625,-0.875 c 0.5536828,0.322017 1.1791798,0.550009 1.8125,0.71875 l 0,1.28125 C 9.125,19.703997 9.395805,20 9.75,20 z M 8,15 l 0,-4 -2,0 5,-5 5,5 -2,0 0,4 -6,0 z m 0.96875,-0.96875 4.0625,0 0,-3.03125 A 0.97320244,0.97320244 0 0 1 13.6875,10.0625 L 11,7.375 8.3125,10.0625 A 0.97320244,0.97320244 0 0 1 8.96875,11 l 0,3.03125 z"
       id="path5617"
       inkscape:connector-curvature="0" />
    <path
       style="fill:url(#radialGradient3868);fill-opacity:1;fill-rule:nonzero;stroke:none;stroke-width:1;marker:none;visibility:visible;display:block;overflow:visible;enable-background:accumulate"
       d="M 9.75,20 C 9.395805,20 9.125,19.703997 9.125,19.34375 l 0,-1.28125 C 8.4916798,17.893759 7.8661828,17.665767 7.3125,17.34375 l -0.90625,0.875 C 6.2788808,18.346113 6.1335758,18.436105 5.96875,18.4375 5.8039245,18.438914 5.6564755,18.375217 5.53125,18.25 L 3.75,16.46875 c -0.2504503,-0.250452 -0.2234676,-0.620267 0.03125,-0.875 l 0.875,-0.90625 C 4.33423,14.133817 4.1062451,13.508321 3.9375,12.875 l -1.28125,0 C 2.2960025,12.875 2,12.604193 2,12.25 L 2,9.75 C 2,9.395808 2.2960033,9.125 2.65625,9.125 l 1.28125,0 C 4.1062452,8.491678 4.3342349,7.866181 4.65625,7.3125 L 3.78125,6.40625 C 3.5265172,6.151517 3.4995281,5.781702 3.75,5.53125 L 5.53125,3.75 c 0.2504502,-0.250452 0.6202668,-0.22348 0.875,0.03125 l 0.90625,0.875 C 7.8661828,4.334233 8.4916799,4.106242 9.125,3.9375 l 0,-1.28125 C 9.125,2.296003 9.395805,2 9.75,2 l 2.5,0 c 0.354194,0 0.625,0.296003 0.625,0.65625 l 0,1.28125 c 0.633321,0.168742 1.258818,0.396733 1.8125,0.71875 l 0.90625,-0.875 C 15.84848,3.526519 16.218298,3.499537 16.46875,3.75 L 18.25,5.53125 c 0.25045,0.250453 0.22345,0.620268 -0.03125,0.875 l -0.875,0.90625 c 0.322016,0.553681 0.550009,1.179178 0.71875,1.8125 l 1.28125,0 C 19.703993,9.124992 20,9.395807 20,9.75 l 0,2.5 c 0,0.354191 -0.296007,0.625 -0.65625,0.625 l -1.28125,0 c -0.168741,0.63332 -0.396734,1.258816 -0.71875,1.8125 l 0.875,0.90625 c 0.25473,0.254732 0.281732,0.624548 0.03125,0.875 L 16.46875,18.25 c -0.250457,0.250449 -0.620266,0.22345 -0.875,-0.03125 l -0.90625,-0.875 c -0.553683,0.322019 -1.179179,0.550008 -1.8125,0.71875 l 0,1.28125 C 12.875,19.703999 12.604191,20 12.25,20 l -2.5,0 z M 8,15 l 6,0 0,-4 2,0 -5,-5 -5,5 2,0 0,4 z"
       id="rect3267"
       sodipodi:nodetypes="cccccscccccccccccccccccccccccccccccccccccccccccccccccccccc"
       inkscape:connector-curvature="0" />
    <path
       inkscape:connector-curvature="0"
       style="opacity:0.3;fill:#000000;fill-opacity:1;fill-rule:nonzero;stroke:none;stroke-width:1;marker:none;visibility:visible;display:block;overflow:visible;enable-background:accumulate"
       d="M 9.75,2 C 9.395805,2 9.125,2.296003 9.125,2.65625 l 0,1 C 9.125,3.296003 9.395805,3 9.75,3 l 2.5,0 c 0.354194,0 0.625,0.296003 0.625,0.65625 l 0,-1 C 12.875,2.296003 12.604194,2 12.25,2 L 9.75,2 z M 5.96875,3.5625 C 5.8131479,3.5552222 5.6564751,3.624774 5.53125,3.75 L 3.75,5.53125 C 3.4995281,5.781702 3.5265172,6.151517 3.78125,6.40625 L 3.8125,6.46875 5.53125,4.75 c 0.2504502,-0.250452 0.6202668,-0.22348 0.875,0.03125 l 0.90625,0.875 C 7.8661828,5.334233 8.4916799,5.106242 9.125,4.9375 l 0,-1 C 8.4916799,4.106242 7.8661828,4.334233 7.3125,4.65625 L 6.40625,3.78125 C 6.2788834,3.653885 6.1243521,3.5697778 5.96875,3.5625 z m 10.0625,0 c -0.155602,0.00728 -0.310135,0.091385 -0.4375,0.21875 l -0.90625,0.875 C 14.133818,4.334233 13.508321,4.106242 12.875,3.9375 l 0,1 c 0.633321,0.168742 1.258818,0.396733 1.8125,0.71875 l 0.90625,-0.875 C 15.84848,4.526519 16.218298,4.499537 16.46875,4.75 l 1.71875,1.71875 0.03125,-0.0625 c 0.2547,-0.254732 0.2817,-0.624547 0.03125,-0.875 L 16.46875,3.75 C 16.343524,3.6247685 16.186852,3.555221 16.03125,3.5625 z M 4.34375,8 C 4.1893221,8.3652205 4.0401991,8.7395574 3.9375,9.125 l -1.28125,0 C 2.2960033,9.125 2,9.395808 2,9.75 l 0,1 c 0,-0.354192 0.2960033,-0.625 0.65625,-0.625 l 1.28125,0 C 4.1062452,9.491678 4.3342349,8.866181 4.65625,8.3125 L 4.34375,8 z m 13.3125,0 -0.3125,0.3125 c 0.322016,0.553681 0.550009,1.179178 0.71875,1.8125 l 1.28125,0 C 19.703993,10.124992 20,10.395807 20,10.75 l 0,-1 C 20,9.395807 19.703993,9.124992 19.34375,9.125 l -1.28125,0 C 17.959803,8.7395574 17.810679,8.3652205 17.65625,8 z M 7,11 6,12 8,12 8,11 7,11 z m 7,0 0,1 2,0 -1,-1 -1,0 z m -9.65625,4 -0.5625,0.59375 C 3.5265324,15.848483 3.4995497,16.218298 3.75,16.46875 l 0.0625,0.0625 0.84375,-0.84375 C 4.5302128,15.470791 4.4430629,15.234875 4.34375,15 z M 8,15 l 0,1 6,0 0,-1 -6,0 z m 9.65625,0 c -0.09931,0.234875 -0.186464,0.470791 -0.3125,0.6875 l 0.84375,0.84375 0.0625,-0.0625 c 0.250482,-0.250452 0.22348,-0.620268 -0.03125,-0.875 L 17.65625,15 z"
       id="path3806" />
    <path
       inkscape:connector-curvature="0"
       style="opacity:0.2;fill:#ffffff;fill-opacity:1;fill-rule:nonzero;stroke:none;stroke-width:1;marker:none;visibility:visible;display:block;overflow:visible;enable-background:accumulate"
       d="m 11,6 -5,5 1,0 4,-4 4,4 1,0 -5,-5 z M 3.8125,6.46875 3.75,6.53125 C 3.4995281,6.781702 3.5265172,7.151517 3.78125,7.40625 L 4.34375,8 C 4.4430631,7.7651254 4.5302147,7.5292083 4.65625,7.3125 L 3.8125,6.46875 z m 14.375,0 -0.84375,0.84375 C 17.469786,7.5292083 17.556936,7.7651254 17.65625,8 l 0.5625,-0.59375 c 0.2547,-0.254732 0.2817,-0.624547 0.03125,-0.875 L 18.1875,6.46875 z M 2,12.25 l 0,1 c 0,0.354193 0.2960025,0.625 0.65625,0.625 l 1.28125,0 C 4.040199,14.260442 4.1893224,14.634779 4.34375,15 l 0.3125,-0.3125 C 4.33423,14.133817 4.1062451,13.508321 3.9375,12.875 l -1.28125,0 C 2.2960025,12.875 2,12.604193 2,12.25 z m 18,0 c 0,0.354191 -0.296007,0.625 -0.65625,0.625 l -1.28125,0 c -0.168741,0.63332 -0.396734,1.258816 -0.71875,1.8125 L 17.65625,15 c 0.154429,-0.365221 0.303553,-0.739559 0.40625,-1.125 l 1.28125,0 C 19.703993,13.875 20,13.604191 20,13.25 l 0,-1 z M 3.8125,16.53125 3.78125,16.59375 C 3.5265324,16.848483 3.4995497,17.218298 3.75,17.46875 L 5.53125,19.25 c 0.1252255,0.125217 0.2726745,0.188914 0.4375,0.1875 0.1648258,-0.0014 0.3101308,-0.09139 0.4375,-0.21875 l 0.90625,-0.875 c 0.5536828,0.322017 1.1791798,0.550009 1.8125,0.71875 l 0,-1 C 8.4916798,17.893759 7.8661828,17.665767 7.3125,17.34375 l -0.90625,0.875 C 6.2788808,18.346113 6.1335758,18.436105 5.96875,18.4375 5.8039245,18.438914 5.6564755,18.375217 5.53125,18.25 L 3.8125,16.53125 z m 14.375,0 -1.71875,1.71875 c -0.250457,0.250449 -0.620266,0.22345 -0.875,-0.03125 l -0.90625,-0.875 c -0.553683,0.322019 -1.179179,0.550008 -1.8125,0.71875 l 0,1 c 0.633321,-0.168742 1.258817,-0.396731 1.8125,-0.71875 l 0.90625,0.875 c 0.254734,0.2547 0.624543,0.281699 0.875,0.03125 L 18.25,17.46875 c 0.250482,-0.250452 0.22348,-0.620268 -0.03125,-0.875 l -0.03125,-0.0625 z m -9.0625,2.8125 0,1 C 9.125,20.703997 9.395805,21 9.75,21 l 2.5,0 c 0.354191,0 0.625,-0.296001 0.625,-0.65625 l 0,-1 C 12.875,19.703999 12.604191,20 12.25,20 l -2.5,0 C 9.395805,20 9.125,19.703997 9.125,19.34375 z"
       id="path3815" />
    <path
       style="fill:#000000;fill-opacity:1;fill-rule:nonzero;stroke:none;stroke-width:1;marker:none;visibility:visible;display:block;overflow:visible;enable-background:accumulate;opacity:0.3"
       d="M 9.75 2 C 9.395805 2 9.125 2.296003 9.125 2.65625 L 9.125 3.9375 C 8.4916799 4.106242 7.8661828 4.334233 7.3125 4.65625 L 6.40625 3.78125 C 6.1515168 3.52652 5.7817002 3.499548 5.53125 3.75 L 3.75 5.53125 C 3.4995281 5.781702 3.5265172 6.151517 3.78125 6.40625 L 4.65625 7.3125 C 4.3342349 7.866181 4.1062452 8.491678 3.9375 9.125 L 2.65625 9.125 C 2.2960033 9.125 2 9.395808 2 9.75 L 2 12.25 C 2 12.604193 2.2960025 12.875 2.65625 12.875 L 3.9375 12.875 C 4.1062451 13.508321 4.33423 14.133817 4.65625 14.6875 L 3.78125 15.59375 C 3.5265324 15.848483 3.4995497 16.218298 3.75 16.46875 L 5.53125 18.25 C 5.6564755 18.375217 5.8039245 18.438914 5.96875 18.4375 C 6.1335758 18.436105 6.2788808 18.346113 6.40625 18.21875 L 7.3125 17.34375 C 7.8661828 17.665767 8.4916798 17.893759 9.125 18.0625 L 9.125 19.34375 C 9.125 19.703997 9.395805 20 9.75 20 L 12.25 20 C 12.604191 20 12.875 19.703999 12.875 19.34375 L 12.875 18.0625 C 13.508321 17.893758 14.133817 17.665769 14.6875 17.34375 L 15.59375 18.21875 C 15.848484 18.47345 16.218293 18.500449 16.46875 18.25 L 18.25 16.46875 C 18.500482 16.218298 18.47348 15.848482 18.21875 15.59375 L 17.34375 14.6875 C 17.665766 14.133816 17.893759 13.50832 18.0625 12.875 L 19.34375 12.875 C 19.703993 12.875 20 12.604191 20 12.25 L 20 9.75 C 20 9.395807 19.703993 9.124992 19.34375 9.125 L 18.0625 9.125 C 17.893759 8.491678 17.665766 7.866181 17.34375 7.3125 L 18.21875 6.40625 C 18.47345 6.151518 18.50045 5.781703 18.25 5.53125 L 16.46875 3.75 C 16.218298 3.499537 15.84848 3.526519 15.59375 3.78125 L 14.6875 4.65625 C 14.133818 4.334233 13.508321 4.106242 12.875 3.9375 L 12.875 2.65625 C 12.875 2.296003 12.604194 2 12.25 2 L 9.75 2 z M 9.75 2.53125 L 12.25 2.53125 C 12.307827 2.53125 12.34375 2.5625862 12.34375 2.65625 L 12.34375 3.9375 A 0.53199747 0.53199747 0 0 0 12.75 4.4375 C 13.352335 4.597986 13.908749 4.8356572 14.40625 5.125 A 0.53199747 0.53199747 0 0 0 15.0625 5.03125 L 15.96875 4.15625 C 16.054733 4.0702664 16.041938 4.0731855 16.09375 4.125 L 17.875 5.90625 C 17.9268 5.9580502 17.929727 5.9452623 17.84375 6.03125 L 16.96875 6.9375 A 0.53199747 0.53199747 0 0 0 16.875 7.59375 C 17.164342 8.0912513 17.402015 8.6476661 17.5625 9.25 A 0.53199747 0.53199747 0 0 0 18.0625 9.65625 L 19.34375 9.65625 C 19.437392 9.6562479 19.46875 9.6921788 19.46875 9.75 L 19.46875 12.25 C 19.46875 12.307818 19.437404 12.34375 19.34375 12.34375 L 18.0625 12.34375 A 0.53199747 0.53199747 0 0 0 17.5625 12.75 C 17.402015 13.352332 17.164343 13.908745 16.875 14.40625 A 0.53199747 0.53199747 0 0 0 16.96875 15.0625 L 17.84375 15.96875 C 17.929746 16.054747 17.926818 16.041938 17.875 16.09375 L 16.09375 17.875 C 16.041941 17.926807 16.054743 17.929731 15.96875 17.84375 L 15.0625 16.96875 A 0.53199747 0.53199747 0 0 0 14.40625 16.875 C 13.908749 17.164344 13.352335 17.402014 12.75 17.5625 A 0.53199747 0.53199747 0 0 0 12.34375 18.0625 L 12.34375 19.34375 C 12.34375 19.437414 12.307824 19.46875 12.25 19.46875 L 9.75 19.46875 C 9.6921711 19.46875 9.65625 19.437415 9.65625 19.34375 L 9.65625 18.0625 A 0.53199747 0.53199747 0 0 0 9.25 17.5625 C 8.6476672 17.402015 8.0912528 17.164343 7.59375 16.875 A 0.53199747 0.53199747 0 0 0 6.9375 16.96875 L 6.03125 17.84375 C 5.9583272 17.916669 5.9426207 17.906471 5.96875 17.90625 C 5.9436776 17.906465 5.9476213 17.916369 5.90625 17.875 L 4.125 16.09375 C 4.0731927 16.041942 4.0702697 16.054735 4.15625 15.96875 L 5.03125 15.0625 A 0.53199747 0.53199747 0 0 0 5.125 14.40625 C 4.8356562 13.908751 4.5979902 13.352339 4.4375 12.75 A 0.53199747 0.53199747 0 0 0 3.9375 12.34375 L 2.65625 12.34375 C 2.5625863 12.34375 2.53125 12.307826 2.53125 12.25 L 2.53125 9.75 C 2.53125 9.6921769 2.5625887 9.65625 2.65625 9.65625 L 3.9375 9.65625 A 0.53199747 0.53199747 0 0 0 4.4375 9.25 C 4.5979896 8.6476621 4.8356591 8.0912502 5.125 7.59375 A 0.53199747 0.53199747 0 0 0 5.03125 6.9375 L 4.15625 6.03125 C 4.0702572 5.9452572 4.0731817 5.9580642 4.125 5.90625 L 5.90625 4.125 C 5.9580606 4.0731891 5.9452669 4.0702679 6.03125 4.15625 L 6.9375 5.03125 A 0.53199747 0.53199747 0 0 0 7.59375 5.125 C 8.0912524 4.835657 8.6476662 4.597986 9.25 4.4375 A 0.53199747 0.53199747 0 0 0 9.65625 3.9375 L 9.65625 2.65625 C 9.65625 2.5625852 9.6921711 2.53125 9.75 2.53125 z M 10.84375 5.46875 A 0.53199747 0.53199747 0 0 0 10.625 5.625 L 5.625 10.625 A 0.53199747 0.53199747 0 0 0 6 11.53125 L 7.46875 11.53125 L 7.46875 15 A 0.53199747 0.53199747 0 0 0 8 15.53125 L 14 15.53125 A 0.53199747 0.53199747 0 0 0 14.53125 15 L 14.53125 11.53125 L 16 11.53125 A 0.53199747 0.53199747 0 0 0 16.375 10.625 L 11.375 5.625 A 0.53199747 0.53199747 0 0 0 10.90625 5.46875 A 0.53199747 0.53199747 0 0 0 10.84375 5.46875 z M 11 6 L 16 11 L 14 11 L 14 15 L 8 15 L 8 11 L 6 11 L 11 6 z "
       id="path3870" />
  </g>
</svg>
