<?xml version="1.0" encoding="UTF-8" standalone="no"?>
<!-- Created with Inkscape (http://www.inkscape.org/) -->

<svg
   xmlns:dc="http://purl.org/dc/elements/1.1/"
   xmlns:cc="http://creativecommons.org/ns#"
   xmlns:rdf="http://www.w3.org/1999/02/22-rdf-syntax-ns#"
   xmlns:svg="http://www.w3.org/2000/svg"
   xmlns="http://www.w3.org/2000/svg"
   xmlns:xlink="http://www.w3.org/1999/xlink"
   xmlns:sodipodi="http://sodipodi.sourceforge.net/DTD/sodipodi-0.dtd"
   xmlns:inkscape="http://www.inkscape.org/namespaces/inkscape"
   width="22"
   height="22"
   id="svg2"
   sodipodi:version="0.32"
   inkscape:version="0.48.1 r9760"
   version="1.0"
   sodipodi:docname="edit-find.svg"
   inkscape:output_extension="org.inkscape.output.svg.inkscape"
   inkscape:export-filename="/home/matt/.icons/Sirocco/scalable/mimetypes/text-plain.png"
   inkscape:export-xdpi="90"
   inkscape:export-ydpi="90"
   sodipodi:modified="true"
   style="display:inline">
  <sodipodi:namedview
     id="base"
     pagecolor="#838383"
     bordercolor="#cc0000"
     borderopacity="1"
     inkscape:pageopacity="1"
     inkscape:pageshadow="2"
     inkscape:zoom="22.027845"
     inkscape:cx="-2.834126"
     inkscape:cy="7.9560966"
     inkscape:document-units="px"
     inkscape:current-layer="layer1"
     width="128px"
     height="128px"
     inkscape:showpageshadow="false"
     inkscape:window-width="1920"
     inkscape:window-height="1028"
     inkscape:window-x="0"
     inkscape:window-y="25"
     showguides="true"
     inkscape:guide-bbox="true"
     showgrid="true"
     inkscape:window-maximized="1"
     borderlayer="true">
    <inkscape:grid
       enabled="true"
       visible="true"
       id="grid3231"
       type="xygrid"
       empspacing="8"
       snapvisiblegridlinesonly="true" />
    <sodipodi:guide
       orientation="1,0"
       position="12,0"
       id="guide3791" />
    <sodipodi:guide
       orientation="0,1"
       position="14,9"
       id="guide3793" />
  </sodipodi:namedview>
  <defs
     id="defs4">
    <linearGradient
       id="StandardGradient"
       gradientTransform="scale(0.9219544,1.0846523)"
       x1="11.998966"
       y1="0.92195445"
       x2="11.998966"
       y2="19.387045"
       gradientUnits="userSpaceOnUse">
      <stop
         style="stop-color:#000000;stop-opacity:0.23529412;"
         offset="0"
         id="stop3283" />
      <stop
         id="stop5544"
         offset="0.69999999"
         style="stop-color:#000000;stop-opacity:0.39215686;" />
      <stop
         style="stop-color:#000000;stop-opacity:0.55;"
         offset="1"
         id="stop2651" />
    </linearGradient>
    <radialGradient
       inkscape:collect="always"
       xlink:href="#StandardGradient"
       id="radialGradient3938"
       cx="13"
       cy="12.332154"
       fx="13"
       fy="12.332154"
       r="6.0057693"
       gradientTransform="matrix(1.8315722,-7.0414673e-8,7.0414673e-8,1.8315722,-10.81044,-9.5872298)"
       gradientUnits="userSpaceOnUse" />
    <linearGradient
       id="StandardGradient-3"
       gradientTransform="matrix(0.9984539,0,0,0.9984539,-0.0459776,0.05767558)"
       x1="10.710332"
       y1="1.9963325"
       x2="10.710332"
       y2="18.974037"
       gradientUnits="userSpaceOnUse"
       xlink:href="#StandardGradient">
      <stop
         style="stop-color:#000000;stop-opacity:0.86274511;"
         offset="0"
         id="stop3277" />
      <stop
         style="stop-color:#000000;stop-opacity:0.47058824;"
         offset="1"
         id="stop3279" />
    </linearGradient>
    <radialGradient
       inkscape:collect="always"
       xlink:href="#StandardGradient"
       id="radialGradient3996"
       cx="12.552632"
       cy="12.999999"
       fx="12.552632"
       fy="12.999999"
       r="8.5"
       gradientUnits="userSpaceOnUse"
       gradientTransform="matrix(1.8823528,7.0329321e-8,-4.3955825e-8,1.1764705,-11.628481,-2.2941171)" />
    <radialGradient
       inkscape:collect="always"
       xlink:href="#StandardGradient"
       id="radialGradient4002"
       gradientUnits="userSpaceOnUse"
       gradientTransform="matrix(1.4117647,0,0,1.2941177,-5.3529412,-3.8235294)"
       cx="13"
       cy="13"
       fx="13"
       fy="13"
       r="8.5" />
    <radialGradient
       inkscape:collect="always"
       xlink:href="#StandardGradient"
       id="radialGradient4006"
       gradientUnits="userSpaceOnUse"
       gradientTransform="matrix(1.4117647,0,0,1.2941177,-5.3529412,-3.8235294)"
       cx="13"
       cy="13"
       fx="13"
       fy="13"
       r="8.5" />
    <radialGradient
       inkscape:collect="always"
       xlink:href="#StandardGradient"
       id="radialGradient4008"
       gradientUnits="userSpaceOnUse"
       gradientTransform="matrix(1.4117647,0,0,1.2941177,-5.3529412,-3.8235294)"
       cx="13"
       cy="13"
       fx="13"
       fy="13"
       r="8.5" />
    <radialGradient
       inkscape:collect="always"
       xlink:href="#StandardGradient"
       id="radialGradient3771"
       gradientUnits="userSpaceOnUse"
       gradientTransform="matrix(1.4117647,0,0,1.2941177,-25.352941,-3.8235294)"
       cx="13"
       cy="13"
       fx="13"
       fy="13"
       r="8.5" />
    <radialGradient
       inkscape:collect="always"
       xlink:href="#StandardGradient"
       id="radialGradient3775"
       gradientUnits="userSpaceOnUse"
       gradientTransform="matrix(1.4117647,0,0,1.2941177,-25.352941,-3.8235294)"
       cx="13"
       cy="13"
       fx="13"
       fy="13"
       r="8.5" />
  </defs>
  <metadata
     id="metadata7">
    <rdf:RDF>
      <cc:Work
         rdf:about="">
        <dc:format>image/svg+xml</dc:format>
        <dc:type
           rdf:resource="http://purl.org/dc/dcmitype/StillImage" />
        <dc:title />
      </cc:Work>
    </rdf:RDF>
  </metadata>
  <g
     style="display:inline"
     inkscape:label="Calque 1"
     id="layer1"
     inkscape:groupmode="layer">
    <path
       inkscape:label="#path3766"
       sodipodi:nodetypes="cscsccsccscsccssssc"
       id="path3992"
       d="m 4.7569592,3.750522 c -2.3426124,2.334029 -2.3426122,6.1225981 0,8.456627 2.0422346,2.034753 5.1884097,2.305754 7.5151748,0.792809 0.395499,0.01977 1.033267,0.07418 1.259896,0.330337 0.308577,0.348781 -0.127623,1.164158 0.464173,1.69573 l 3.68055,3.729354 c 0,0 0.68276,0.729179 1.746173,-0.330338 1.063414,-1.059517 0.331553,-1.739775 0.331553,-1.739775 l -3.680551,-3.729353 c -0.533528,-0.589628 -1.351903,-0.155027 -1.701966,-0.462472 -0.2571,-0.225798 -0.311714,-0.86123 -0.331552,-1.255281 1.518509,-2.318239 1.246511,-5.4528863 -0.795724,-7.487638 -2.342613,-2.334029 -6.1451143,-2.3340289 -8.4877268,0 z M 6.1936836,5.1379373 C 6.9178926,4.416382 7.9186077,3.9927692 9.0229257,3.9927691 c 2.2086363,-10e-8 4.0007253,1.7855225 4.0007253,3.9860662 0,2.2005447 -1.792088,3.9860667 -4.0007253,3.9860667 -2.2086348,10e-7 -4.0007251,-1.785522 -4.0007251,-3.9860667 2e-7,-1.1002717 0.4472743,-2.1193427 1.171483,-2.840898 z"
       style="fill:url(#radialGradient3996);fill-opacity:1;stroke:none;display:inline"
       inkscape:connector-curvature="0" />
    <path
       inkscape:connector-curvature="0"
       style="opacity:0.05;fill:#ffffff;fill-opacity:1;stroke:none;display:inline"
       d="M 9,1 C 7.2131706,1 5.4249354,1.7050568 4.0625,3.0625 c -2.7234258,2.7134471 -2.7234256,7.130303 0,9.84375 2.2552047,2.246943 5.6480224,2.603133 8.3125,1.125 0.09764,0.0084 0.193766,0.01639 0.28125,0.03125 2.6e-4,0.0311 -5.22e-4,0.0274 0,0.0625 0.0055,0.370018 0.11569,1.085867 0.625,1.59375 0.02206,0.022 0.03882,0.04123 0.0625,0.0625 l 3.625,3.625 0.03125,0 c 0.01833,0.01939 0.387123,0.453205 1,0.5625 0.627533,0.111908 1.435356,-0.156633 2.125,-0.84375 C 20.815478,18.437052 21.08165,17.628469 20.96875,17 20.862562,16.408892 20.483529,16.075739 20.4375,16.03125 L 20.46875,16 16.78125,12.3125 c -0.0066,-0.0073 -0.0246,0.0071 -0.03125,0 -0.511753,-0.547586 -1.213301,-0.681327 -1.59375,-0.6875 -0.03504,-5.69e-4 -0.03144,3.01e-4 -0.0625,0 C 15.08057,11.547 15.07061,11.462557 15.0625,11.375 16.561575,8.7159423 16.199007,5.3157199 13.9375,3.0625 12.575064,1.7050572 10.78683,1 9,1 z m 0,1 c 1.536279,0 3.078693,0.5829855 4.25,1.75 2.042235,2.0347517 2.299759,5.181761 0.78125,7.5 0.01984,0.394051 0.08665,1.024202 0.34375,1.25 0.350063,0.307445 1.153972,-0.120878 1.6875,0.46875 L 19.75,16.6875 c 0,0 0.750914,0.690483 -0.3125,1.75 -1.063413,1.059517 -1.75,0.3125 -1.75,0.3125 L 14,15.03125 C 13.408204,14.499678 13.839827,13.692531 13.53125,13.34375 13.304621,13.087593 12.676749,13.019765 12.28125,13 9.9544849,14.512945 6.7922346,14.253503 4.75,12.21875 2.4073878,9.8847211 2.4073876,6.084029 4.75,3.75 5.9213063,2.5829856 7.4637215,2 9,2 z m 0.03125,2 c -1.104318,1e-7 -2.119541,0.4034447 -2.84375,1.125 -0.7242087,0.7215553 -1.1562498,1.7434783 -1.15625,2.84375 0,2.200545 1.7913652,4.000001 4,4 2.208637,0 4,-1.799455 4,-4 0,-2.2005437 -1.791364,-3.9687501 -4,-3.96875 z m 0,1 c 1.680049,-1e-7 3,1.3056858 3,2.96875 0,1.6630661 -1.329292,3 -3,3 -1.6707051,10e-7 -3,-1.3369345 -3,-3 C 6.0312502,7.1277368 6.3424882,6.3430608 6.875,5.8125 7.402134,5.2872975 8.1681433,5.0000001 9.03125,5 z"
       id="path3017" />
    <path
       style="opacity:0.3;fill:#000000;fill-opacity:1;stroke:none;display:inline"
       d="M 9,2 C 7.463721,2 5.921306,2.5829856 4.75,3.75 c -2.342612,2.334029 -2.342612,6.1347211 0,8.46875 2.042235,2.034753 5.204485,2.294195 7.53125,0.78125 0.395499,0.01977 1.023371,0.08759 1.25,0.34375 0.308577,0.348781 -0.123046,1.155928 0.46875,1.6875 L 17.6875,18.75 c 0,0 0.686587,0.747017 1.75,-0.3125 1.063414,-1.059517 0.3125,-1.75 0.3125,-1.75 L 16.0625,12.96875 C 15.528972,12.379122 14.725063,12.807445 14.375,12.5 14.1179,12.274202 14.051088,11.644051 14.03125,11.25 15.549759,8.931761 15.292235,5.7847517 13.25,3.75 12.078693,2.5829855 10.536279,2 9,2 z m 0,0.53125 c 1.400681,0 2.807132,0.529795 3.875,1.59375 1.862446,1.8556219 2.100212,4.734735 0.71875,6.84375 A 0.53604121,0.53604121 0 0 0 13.5,11.28125 c 0.01072,0.212874 0.03183,0.497671 0.09375,0.78125 0.06192,0.283579 0.140496,0.582906 0.4375,0.84375 0.210304,0.184701 0.438565,0.23276 0.625,0.25 0.186435,0.01724 0.364301,-0.0022 0.5,0 0.271397,0.0044 0.366422,0.03988 0.5,0.1875 a 0.53604121,0.53604121 0 0 0 0.03125,0 l 3.6875,3.71875 a 0.53604121,0.53604121 0 0 0 0,0.03125 c 0,0 0.07039,0.02622 0.09375,0.15625 0.02336,0.130033 0.03953,0.368353 -0.40625,0.8125 -0.446231,0.444597 -0.682712,0.429395 -0.8125,0.40625 C 18.120211,18.445605 18.09375,18.375 18.09375,18.375 a 0.53604121,0.53604121 0 0 0 -0.03125,0 L 14.375,14.65625 A 0.53604121,0.53604121 0 0 0 14.34375,14.625 c -0.147373,-0.132376 -0.152207,-0.228333 -0.15625,-0.5 -0.002,-0.135833 0.0171,-0.313183 0,-0.5 -0.0171,-0.186817 -0.06378,-0.414523 -0.25,-0.625 -0.260529,-0.294474 -0.560529,-0.375426 -0.84375,-0.4375 -0.283221,-0.06207 -0.567102,-0.08305 -0.78125,-0.09375 A 0.53604121,0.53604121 0 0 0 12,12.5625 C 9.882774,13.939195 6.987397,13.699324 5.125,11.84375 2.988483,9.7150611 2.988483,6.253689 5.125,4.125 6.192869,3.0610449 7.599319,2.53125 9,2.53125 z m 0.03125,0.9375 C 7.796389,3.4687501 6.643365,3.9221791 5.8125,4.75 4.984545,5.574921 4.5,6.7281683 4.5,7.96875 c 0,2.491427 2.031489,4.531251 4.53125,4.53125 2.499762,0 4.53125,-2.039823 4.53125,-4.53125 0,-2.491426 -2.036544,-4.5000001 -4.53125,-4.5 z m 0,0.53125 c 2.208636,-10e-8 4,1.7682063 4,3.96875 0,2.200545 -1.791363,4 -4,4 -2.208635,10e-7 -4,-1.799455 -4,-4 C 5.03125,6.8684783 5.463291,5.8465553 6.1875,5.125 6.911709,4.4034447 7.926932,4.0000001 9.03125,4 z"
       id="path3998"
       inkscape:connector-curvature="0" />
    <path
       inkscape:connector-curvature="0"
       style="opacity:0.3;fill:#000000;fill-opacity:1;stroke:none;display:inline"
       d="M 9,2 C 7.4637215,2 5.9213063,2.5829855 4.75,3.75 3.4707038,5.0246088 2.9133039,6.7378564 3.03125,8.40625 3.1593616,7.0719032 3.725107,5.7711377 4.75,4.75 c 2.3426125,-2.3340289 6.157387,-2.3340289 8.5,0 1.060966,1.0570783 1.616175,2.3991537 1.71875,3.78125 C 15.129011,6.8187203 14.56655,5.0617263 13.25,3.75 12.078693,2.5829856 10.536278,2 9,2 z M 5.0625,8.46875 c -0.022142,0.1707703 -0.03125,0.3242014 -0.03125,0.5 0,2.200545 1.7913655,4.000001 4,4 2.208637,0 4,-1.799455 4,-4 0,-0.1761476 -0.04024,-0.3298739 -0.0625,-0.5 -0.247224,1.964588 -1.898944,3.5 -3.9375,3.5 -2.0389269,10e-7 -3.7220066,-1.53489 -3.96875,-3.5 z m 9.09375,3.5625 c -0.04289,0.07199 -0.0788,0.14822 -0.125,0.21875 0.01984,0.394051 0.08665,1.024202 0.34375,1.25 0.350063,0.307445 1.153971,-0.120878 1.6875,0.46875 L 19.75,17.6875 c 0,0 0.06631,0.05798 0.125,0.15625 C 20.226597,17.130655 19.75,16.6875 19.75,16.6875 L 16.0625,12.96875 C 15.528971,12.379122 14.725063,12.807445 14.375,12.5 14.26591,12.40419 14.205241,12.224827 14.15625,12.03125 z"
       id="BevelShadow"
       inkscape:label="#path3170" />
    <path
       inkscape:connector-curvature="0"
       style="opacity:0.2;fill:#ffffff;fill-opacity:1;stroke:none;display:inline"
       d="M 8.4375,2.03125 C 8.0545204,2.0676907 7.6532077,2.1406535 7.28125,2.25 7.6524886,2.1405924 8.0548561,2.0677192 8.4375,2.03125 z m 1.125,0 C 9.945144,2.0677192 10.347511,2.1405924 10.71875,2.25 10.346792,2.1406535 9.9454794,2.0676907 9.5625,2.03125 z M 6.21875,2.6875 c -0.349147,0.1822849 -0.6854527,0.4009941 -1,0.65625 0.3142117,-0.2552844 0.6515722,-0.473904 1,-0.65625 z m 5.5625,0 c 0.348428,0.182346 0.685788,0.4009656 1,0.65625 -0.314547,-0.2552559 -0.650853,-0.4739651 -1,-0.65625 z M 13.25,3.75 C 13.484153,3.9832948 13.68742,4.2406755 13.875,4.5 13.687102,4.2387045 13.486304,3.9854381 13.25,3.75 z M 9.03125,4 C 7.926932,4.0000001 6.911709,4.4034449 6.1875,5.125 5.4632913,5.8465553 5.0312502,6.8684785 5.03125,7.96875 5.03125,8.1273187 5.044404,8.2837541 5.0625,8.4375 5.1840325,7.5511388 5.5859939,6.7243023 6.1875,6.125 6.911709,5.4034447 7.926932,5.0000001 9.03125,5 c 2.031841,0 3.68167,1.5135567 3.9375,3.46875 0.02063,-0.1639099 0.0625,-0.330542 0.0625,-0.5 C 13.03125,5.7682063 11.239887,4 9.03125,4 z m 3.9375,4.46875 C 12.93785,8.7143235 12.88531,8.9574989 12.8125,9.1875 12.88679,8.9567562 12.937681,8.7156402 12.96875,8.46875 z M 12.8125,9.1875 C 12.73969,9.4175011 12.641984,9.6336425 12.53125,9.84375 12.643351,9.6348425 12.738764,9.4165098 12.8125,9.1875 z m -0.28125,0.65625 c -0.110734,0.210108 -0.230314,0.407857 -0.375,0.59375 0.143414,-0.182075 0.264699,-0.388196 0.375,-0.59375 z m -0.375,0.59375 c -0.135925,0.174637 -0.306262,0.350433 -0.46875,0.5 0.169707,-0.152835 0.327366,-0.320502 0.46875,-0.5 z m 2.625,-4 c 0.05906,0.2194535 0.09142,0.4326031 0.125,0.65625 -0.03272,-0.2231572 -0.06696,-0.437426 -0.125,-0.65625 z m -11.75,0.96875 c -0.04339,0.3339673 -0.0625,0.6651818 -0.0625,1 l 0,0.15625 c 10e-8,1.669753 0.5040758,3.383755 1.78125,4.65625 2.0422344,2.034753 5.2044849,2.294195 7.53125,0.78125 0.395499,0.01976 1.023371,0.08759 1.25,0.34375 0.308577,0.348781 -0.123046,1.155928 0.46875,1.6875 L 17.6875,19.75 c 1e-6,0 0.688533,0.748967 1.75,-0.3125 0.681159,-0.681159 0.59375,-1.323954 0.59375,-1.59375 0,-0.202123 -0.02488,-0.28324 -0.03125,-0.40625 -0.03379,0.270251 -0.176501,0.615416 -0.5625,1 -1.063413,1.059517 -1.749999,0.3125 -1.75,0.3125 L 14,15.03125 C 13.408204,14.499678 13.839827,13.692531 13.53125,13.34375 13.304621,13.087593 12.676749,13.019765 12.28125,13 9.9544849,14.512945 6.7922344,14.253503 4.75,12.21875 3.4322806,10.905859 2.8665351,9.1218387 3.03125,7.40625 z m 2.03125,1.125 C 5.089495,8.7222746 5.134307,8.9124033 5.1875,9.09375 5.134113,8.9117124 5.08957,8.7227956 5.0625,8.53125 z m 9.90625,0.03125 c -0.09217,0.9334464 -0.403706,1.87258 -0.9375,2.6875 0.01142,0.22685 0.05853,0.518613 0.125,0.78125 0.628932,-1.055735 0.894514,-2.2810589 0.8125,-3.46875 z m -9,1.96875 c 0.1207504,0.14413 0.2352813,0.280421 0.375,0.40625 -0.1325513,-0.120635 -0.2595947,-0.269071 -0.375,-0.40625 z m 5.0625,0.875 c -0.182742,0.108878 -0.362077,0.202661 -0.5625,0.28125 0.202165,-0.07765 0.377696,-0.17336 0.5625,-0.28125 z M 7.0625,11.4375 c 0.1691653,0.0954 0.3479277,0.179591 0.53125,0.25 -0.1810877,-0.07052 -0.3640381,-0.154954 -0.53125,-0.25 z"
       id="BevelHighlight"
       inkscape:label="#path3177" />
  </g>
</svg>
