<?xml version="1.0" encoding="UTF-8" standalone="no"?>
<!-- Created with Inkscape (http://www.inkscape.org/) -->

<svg
   xmlns:dc="http://purl.org/dc/elements/1.1/"
   xmlns:cc="http://creativecommons.org/ns#"
   xmlns:rdf="http://www.w3.org/1999/02/22-rdf-syntax-ns#"
   xmlns:svg="http://www.w3.org/2000/svg"
   xmlns="http://www.w3.org/2000/svg"
   xmlns:xlink="http://www.w3.org/1999/xlink"
   xmlns:sodipodi="http://sodipodi.sourceforge.net/DTD/sodipodi-0.dtd"
   xmlns:inkscape="http://www.inkscape.org/namespaces/inkscape"
   width="22"
   height="22"
   id="svg2"
   sodipodi:version="0.32"
   inkscape:version="0.48.1 r9760"
   version="1.0"
   sodipodi:docname="system-run.svg"
   inkscape:output_extension="org.inkscape.output.svg.inkscape"
   inkscape:export-filename="/home/matt/.icons/Sirocco/scalable/mimetypes/text-plain.png"
   inkscape:export-xdpi="90"
   inkscape:export-ydpi="90"
   sodipodi:modified="true"
   style="display:inline">
  <sodipodi:namedview
     id="base"
     pagecolor="#838383"
     bordercolor="#cc0000"
     borderopacity="1"
     inkscape:pageopacity="1"
     inkscape:pageshadow="2"
     inkscape:zoom="22.027846"
     inkscape:cx="-1.806301"
     inkscape:cy="7.7961313"
     inkscape:document-units="px"
     inkscape:current-layer="layer1"
     width="128px"
     height="128px"
     inkscape:showpageshadow="false"
     inkscape:window-width="1920"
     inkscape:window-height="1028"
     inkscape:window-x="0"
     inkscape:window-y="25"
     showguides="true"
     inkscape:guide-bbox="true"
     showgrid="true"
     inkscape:window-maximized="1"
     borderlayer="true">
    <inkscape:grid
       enabled="true"
       visible="true"
       id="grid3231"
       type="xygrid"
       empspacing="8"
       snapvisiblegridlinesonly="true" />
    <sodipodi:guide
       orientation="1,0"
       position="12,6"
       id="guide3791" />
    <sodipodi:guide
       orientation="0,1"
       position="14,9"
       id="guide3793" />
  </sodipodi:namedview>
  <defs
     id="defs4">
    <linearGradient
       inkscape:collect="always"
       xlink:href="#StandardGradient"
       id="linearGradient2549"
       gradientUnits="userSpaceOnUse"
       gradientTransform="matrix(0.9247229,0,0,1.0872097,16.939944,2.9976422)"
       x1="11.998966"
       y1="0.92195445"
       x2="11.998966"
       y2="17.478098" />
    <inkscape:perspective
       sodipodi:type="inkscape:persp3d"
       inkscape:vp_x="0 : 11 : 1"
       inkscape:vp_y="0 : 1000 : 0"
       inkscape:vp_z="22 : 11 : 1"
       inkscape:persp3d-origin="11 : 7.3333333 : 1"
       id="perspective19" />
    <linearGradient
       id="StandardGradient"
       gradientTransform="scale(0.9219544,1.0846523)"
       x1="11.998966"
       y1="0.92195445"
       x2="11.998966"
       y2="19.387045"
       gradientUnits="userSpaceOnUse">
      <stop
         style="stop-color:#000000;stop-opacity:0.23529412;"
         offset="0"
         id="stop3283" />
      <stop
         id="stop3850"
         offset="0.69999999"
         style="stop-color:#000000;stop-opacity:0.39215686;" />
      <stop
         style="stop-color:#000000;stop-opacity:0.55;"
         offset="1"
         id="stop2651" />
    </linearGradient>
    <linearGradient
       inkscape:collect="always"
       xlink:href="#StandardGradient"
       id="linearGradient2406"
       gradientUnits="userSpaceOnUse"
       gradientTransform="matrix(0.9219544,0,0,1.0846523,0,-1)"
       x1="11.998966"
       y1="2.7658634"
       x2="11.998966"
       y2="19.387045" />
    <linearGradient
       inkscape:collect="always"
       xlink:href="#StandardGradient"
       id="linearGradient3198"
       gradientUnits="userSpaceOnUse"
       gradientTransform="matrix(0.9219544,0,0,1.0846523,0,-1)"
       x1="11.998966"
       y1="2.7658634"
       x2="11.998966"
       y2="19.387045" />
    <linearGradient
       inkscape:collect="always"
       xlink:href="#StandardGradient"
       id="linearGradient4636"
       gradientUnits="userSpaceOnUse"
       gradientTransform="matrix(0.9219544,0,0,1.0846523,-0.01723507,0.96875)"
       x1="11.998966"
       y1="2.7658634"
       x2="11.998966"
       y2="15.702114" />
    <linearGradient
       inkscape:collect="always"
       xlink:href="#StandardGradient"
       id="linearGradient2397"
       gradientUnits="userSpaceOnUse"
       gradientTransform="matrix(0.9219544,0,0,1.0846523,-0.01723507,0.96875)"
       x1="11.998966"
       y1="2.7658634"
       x2="11.998966"
       y2="15.702114" />
    <linearGradient
       inkscape:collect="always"
       xlink:href="#StandardGradient"
       id="linearGradient2402"
       gradientUnits="userSpaceOnUse"
       gradientTransform="matrix(0.9219544,0,0,1.0846523,-0.01723507,0.96875)"
       x1="11.998966"
       y1="2.7658634"
       x2="11.998966"
       y2="15.702114" />
    <linearGradient
       inkscape:collect="always"
       xlink:href="#StandardGradient"
       id="linearGradient2405"
       gradientUnits="userSpaceOnUse"
       gradientTransform="matrix(0.9219544,0,0,1.0846523,-0.01723507,-0.03125)"
       x1="11.998966"
       y1="2.7658634"
       x2="11.998966"
       y2="15.702114" />
    <linearGradient
       inkscape:collect="always"
       xlink:href="#StandardGradient"
       id="linearGradient2415"
       gradientUnits="userSpaceOnUse"
       gradientTransform="matrix(0.9219544,0,0,1.0846523,-0.01723507,-0.03125)"
       x1="11.998966"
       y1="2.7658634"
       x2="11.998966"
       y2="15.702114" />
    <linearGradient
       inkscape:collect="always"
       xlink:href="#StandardGradient"
       id="linearGradient2407"
       gradientUnits="userSpaceOnUse"
       gradientTransform="matrix(0.9219544,0,0,1.0846523,-0.01723507,-1.03125)"
       x1="11.998966"
       y1="2.7658634"
       x2="11.998966"
       y2="15.702114" />
    <linearGradient
       inkscape:collect="always"
       xlink:href="#StandardGradient"
       id="linearGradient2542"
       gradientUnits="userSpaceOnUse"
       gradientTransform="matrix(0.9247229,0,0,1.0872097,-2.060056,5.9976422)"
       x1="11.998966"
       y1="0.92195445"
       x2="11.998966"
       y2="17.478098" />
    <linearGradient
       inkscape:collect="always"
       xlink:href="#StandardGradient"
       id="linearGradient2551"
       gradientUnits="userSpaceOnUse"
       gradientTransform="matrix(0.9219544,0,0,1.0846523,-0.01723507,-1.03125)"
       x1="11.998966"
       y1="2.7658634"
       x2="11.998966"
       y2="15.702114" />
    <linearGradient
       inkscape:collect="always"
       xlink:href="#StandardGradient"
       id="linearGradient2554"
       gradientUnits="userSpaceOnUse"
       gradientTransform="matrix(0.9219544,0,0,1.0846523,-0.01723507,-1.03125)"
       x1="11.998966"
       y1="2.7658634"
       x2="11.998966"
       y2="15.702114" />
    <linearGradient
       inkscape:collect="always"
       xlink:href="#StandardGradient"
       id="linearGradient2424"
       gradientUnits="userSpaceOnUse"
       gradientTransform="matrix(0.9219544,0,0,1.0846523,-0.01723507,-0.03125)"
       x1="11.998966"
       y1="2.7658634"
       x2="11.998966"
       y2="15.702114" />
    <linearGradient
       inkscape:collect="always"
       xlink:href="#StandardGradient"
       id="linearGradient3208"
       gradientUnits="userSpaceOnUse"
       gradientTransform="matrix(0.9219544,0,0,1.0846523,-0.01723507,-0.03125)"
       x1="11.998966"
       y1="2.7658634"
       x2="11.998966"
       y2="15.702114" />
    <linearGradient
       inkscape:collect="always"
       xlink:href="#StandardGradient"
       id="linearGradient3213"
       gradientUnits="userSpaceOnUse"
       gradientTransform="matrix(0.9219544,0,0,1.0846523,-0.01723507,-0.03125)"
       x1="11.998966"
       y1="2.7658634"
       x2="11.998966"
       y2="15.702114" />
    <linearGradient
       inkscape:collect="always"
       xlink:href="#StandardGradient"
       id="linearGradient3221"
       gradientUnits="userSpaceOnUse"
       gradientTransform="matrix(0.9219544,0,0,1.0846523,-0.01723507,-0.03125)"
       x1="11.998966"
       y1="2.7658634"
       x2="11.998966"
       y2="15.702114" />
    <inkscape:perspective
       id="perspective2850"
       inkscape:persp3d-origin="0.5 : 0.33333333 : 1"
       inkscape:vp_z="1 : 0.5 : 1"
       inkscape:vp_y="0 : 1000 : 0"
       inkscape:vp_x="0 : 0.5 : 1"
       sodipodi:type="inkscape:persp3d" />
    <linearGradient
       inkscape:collect="always"
       xlink:href="#StandardGradient"
       id="linearGradient3644"
       gradientUnits="userSpaceOnUse"
       gradientTransform="matrix(0.9219544,0,0,1.0846523,-30.017235,-0.03125)"
       x1="11.998966"
       y1="2.7658634"
       x2="11.998966"
       y2="15.702114" />
    <clipPath
       clipPathUnits="userSpaceOnUse"
       id="clipPath3651">
      <path
         style="fill:#ff00ff;fill-opacity:1;stroke:none;display:inline"
         d="m -30,0 0,22 22,0 0,-22 -22,0 z m 4,2 3.96875,0 c 0.554,0 1,0.446 1,1 l 0,1 8.5,0 c 0.669688,0 1.243585,0.3963931 1.4375,1 C -11.04026,5.1544781 -11,5.326875 -11,5.5 l 0,0.5 -5,0 -1,0 -4.21875,0 L -27,6 l 0,-1 0,-2 c 0,-0.554 0.446,-1 1,-1 z m -0.5,5 5,0 8,0 2,0 c 0.831,0 1.5,0.669 1.5,1.5 l 0,8 c 0,0.831 -0.669,1.5 -1.5,1.5 l -0.5,0 0,0.25 0,1.25 c 0,0.831 -0.669,1.5 -1.5,1.5 l -8,0 c -0.831,0 -1.5,-0.669 -1.5,-1.5 l 0,-1.5 -3.5,0 c -0.831,0 -1.5,-0.669 -1.5,-1.5 l 0,-8 C -28,7.669 -27.331,7 -26.5,7 z m 6,2 C -20.777,9 -21,9.223 -21,9.5 l 0,9 c 0,0.277 0.223,0.5 0.5,0.5 l 6,0 c 0.277,0 0.5,-0.223 0.5,-0.5 l 0,-9 C -14,9.223 -14.223,9 -14.5,9 l -2.90625,0 -2.09375,0 -1,0 z"
         id="path3653"
         inkscape:connector-curvature="0" />
    </clipPath>
    <linearGradient
       inkscape:collect="always"
       xlink:href="#StandardGradient"
       id="linearGradient5006"
       gradientUnits="userSpaceOnUse"
       gradientTransform="matrix(0.9219544,0,0,1.0846523,-0.01723507,-0.03125)"
       x1="11.998966"
       y1="2.7658634"
       x2="11.998966"
       y2="15.702114" />
    <linearGradient
       inkscape:collect="always"
       xlink:href="#StandardGradient"
       id="linearGradient5010"
       gradientUnits="userSpaceOnUse"
       gradientTransform="matrix(0.9219544,0,0,1.0846523,-0.01723507,-0.03125)"
       x1="11.998966"
       y1="2.7658634"
       x2="11.998966"
       y2="15.702114" />
    <radialGradient
       inkscape:collect="always"
       xlink:href="#StandardGradient"
       id="radialGradient3799"
       gradientUnits="userSpaceOnUse"
       gradientTransform="matrix(1.1111111,-7.219351e-8,7.2193516e-8,1.1111112,-1.6666678,-1.4619872)"
       cx="15"
       cy="14.815789"
       fx="15"
       fy="14.815789"
       r="9" />
    <radialGradient
       inkscape:collect="always"
       xlink:href="#StandardGradient"
       id="radialGradient3803"
       gradientUnits="userSpaceOnUse"
       gradientTransform="matrix(1.1111111,-7.219351e-8,7.2193516e-8,1.1111112,-1.6666678,-1.4619872)"
       cx="15"
       cy="14.815789"
       fx="15"
       fy="14.815789"
       r="9" />
    <radialGradient
       inkscape:collect="always"
       xlink:href="#StandardGradient"
       id="radialGradient3805"
       gradientUnits="userSpaceOnUse"
       gradientTransform="matrix(1.1111111,-7.219351e-8,7.2193516e-8,1.1111112,-1.6666678,-1.4619872)"
       cx="15"
       cy="14.815789"
       fx="15"
       fy="14.815789"
       r="9" />
    <radialGradient
       inkscape:collect="always"
       xlink:href="#StandardGradient"
       id="radialGradient3790"
       gradientUnits="userSpaceOnUse"
       gradientTransform="matrix(1.2222222,-1.4352098e-8,1.4352098e-8,1.2222222,-23.133333,-2.9081851)"
       cx="13.200001"
       cy="13.015788"
       fx="13.200001"
       fy="13.015788"
       r="9" />
    <radialGradient
       inkscape:collect="always"
       xlink:href="#StandardGradient"
       id="radialGradient3794"
       gradientUnits="userSpaceOnUse"
       gradientTransform="matrix(1.2222222,-1.4352098e-8,1.4352098e-8,1.2222222,-23.133333,-2.9081851)"
       cx="13.200001"
       cy="13.015788"
       fx="13.200001"
       fy="13.015788"
       r="9" />
    <radialGradient
       inkscape:collect="always"
       xlink:href="#StandardGradient"
       id="radialGradient3080"
       gradientUnits="userSpaceOnUse"
       gradientTransform="matrix(1.7777777,0,0,1.2222222,-9.7824554,-2.9081853)"
       cx="12.252632"
       cy="13.015788"
       fx="12.252632"
       fy="13.015788"
       r="9" />
    <radialGradient
       inkscape:collect="always"
       xlink:href="#StandardGradient"
       id="radialGradient3856"
       gradientUnits="userSpaceOnUse"
       gradientTransform="matrix(1.7777777,0,0,1.2222222,-9.7824554,-2.9081853)"
       cx="12.252632"
       cy="13.015788"
       fx="12.252632"
       fy="13.015788"
       r="9" />
    <radialGradient
       inkscape:collect="always"
       xlink:href="#StandardGradient"
       id="radialGradient3860"
       gradientUnits="userSpaceOnUse"
       gradientTransform="matrix(1.7777777,0,0,1.2222222,-9.7824554,-2.9081853)"
       cx="12.252632"
       cy="13.015788"
       fx="12.252632"
       fy="13.015788"
       r="9" />
    <radialGradient
       inkscape:collect="always"
       xlink:href="#StandardGradient"
       id="radialGradient3862"
       gradientUnits="userSpaceOnUse"
       gradientTransform="matrix(1.7777777,0,0,1.2222222,-9.7824554,-2.9081853)"
       cx="12.252632"
       cy="13.015788"
       fx="12.252632"
       fy="13.015788"
       r="9" />
    <radialGradient
       inkscape:collect="always"
       xlink:href="#StandardGradient"
       id="radialGradient3869"
       gradientUnits="userSpaceOnUse"
       gradientTransform="matrix(1.7777777,0,0,1.2222222,-9.7824554,-1.9081853)"
       cx="12.252632"
       cy="13.015788"
       fx="12.252632"
       fy="13.015788"
       r="9" />
    <radialGradient
       inkscape:collect="always"
       xlink:href="#StandardGradient"
       id="radialGradient3871"
       gradientUnits="userSpaceOnUse"
       gradientTransform="matrix(1.7777777,0,0,1.2222222,-9.7824554,-2.9081853)"
       cx="12.252632"
       cy="13.015788"
       fx="12.252632"
       fy="13.015788"
       r="9" />
    <radialGradient
       inkscape:collect="always"
       xlink:href="#StandardGradient"
       id="radialGradient3876"
       gradientUnits="userSpaceOnUse"
       gradientTransform="matrix(1.7777777,0,0,1.2222222,-9.7824554,-1.9081853)"
       cx="12.252632"
       cy="13.015788"
       fx="12.252632"
       fy="13.015788"
       r="9" />
    <radialGradient
       inkscape:collect="always"
       xlink:href="#StandardGradient"
       id="radialGradient3880"
       gradientUnits="userSpaceOnUse"
       gradientTransform="matrix(1.7777777,0,0,1.2222222,-9.7824554,-2.9081853)"
       cx="12.252632"
       cy="13.015788"
       fx="12.252632"
       fy="13.015788"
       r="9" />
    <radialGradient
       inkscape:collect="always"
       xlink:href="#StandardGradient"
       id="radialGradient3887"
       gradientUnits="userSpaceOnUse"
       gradientTransform="matrix(1.7777777,0,0,1.2222222,-9.7824554,-2.9081853)"
       cx="12.252632"
       cy="13.015788"
       fx="12.252632"
       fy="13.015788"
       r="9" />
    <radialGradient
       inkscape:collect="always"
       xlink:href="#StandardGradient"
       id="radialGradient3891"
       gradientUnits="userSpaceOnUse"
       gradientTransform="matrix(1.7777777,0,0,1.2222222,-9.7824554,-2.9081853)"
       cx="12.252632"
       cy="13.015788"
       fx="12.252632"
       fy="13.015788"
       r="9" />
    <radialGradient
       inkscape:collect="always"
       xlink:href="#StandardGradient"
       id="radialGradient3084"
       gradientUnits="userSpaceOnUse"
       gradientTransform="matrix(1.7777777,0,0,1.2222222,-9.7824554,-2.9081853)"
       cx="12.252632"
       cy="13.015788"
       fx="12.252632"
       fy="13.015788"
       r="9" />
    <radialGradient
       inkscape:collect="always"
       xlink:href="#StandardGradient"
       id="radialGradient3088"
       gradientUnits="userSpaceOnUse"
       gradientTransform="matrix(1.7777777,0,0,1.2222222,-9.7824554,-2.9081853)"
       cx="12.252632"
       cy="13.015788"
       fx="12.252632"
       fy="13.015788"
       r="9" />
    <radialGradient
       inkscape:collect="always"
       xlink:href="#StandardGradient"
       id="radialGradient3109"
       gradientUnits="userSpaceOnUse"
       gradientTransform="matrix(1.7777777,0,0,1.2222222,-9.7824554,-2.9081853)"
       cx="12.252632"
       cy="13.015788"
       fx="12.252632"
       fy="13.015788"
       r="9" />
    <radialGradient
       inkscape:collect="always"
       xlink:href="#StandardGradient"
       id="radialGradient3113"
       gradientUnits="userSpaceOnUse"
       gradientTransform="matrix(1.7777777,0,0,1.2222222,-9.7824554,-2.9081853)"
       cx="12.252632"
       cy="13.015788"
       fx="12.252632"
       fy="13.015788"
       r="9" />
    <radialGradient
       inkscape:collect="always"
       xlink:href="#StandardGradient"
       id="radialGradient3115"
       gradientUnits="userSpaceOnUse"
       gradientTransform="matrix(1.7777777,0,0,1.2222222,-9.7824554,-2.9081853)"
       cx="12.252632"
       cy="13.015788"
       fx="12.252632"
       fy="13.015788"
       r="9" />
    <radialGradient
       inkscape:collect="always"
       xlink:href="#StandardGradient"
       id="radialGradient3894"
       gradientUnits="userSpaceOnUse"
       gradientTransform="matrix(1.7777777,0,0,1.2222222,-9.7824554,-1.9081853)"
       cx="12.252632"
       cy="13.015788"
       fx="12.252632"
       fy="13.015788"
       r="9" />
    <radialGradient
       inkscape:collect="always"
       xlink:href="#StandardGradient"
       id="radialGradient3896"
       gradientUnits="userSpaceOnUse"
       gradientTransform="matrix(1.7777777,0,0,1.2222222,-9.7824554,-2.9081853)"
       cx="12.252632"
       cy="13.015788"
       fx="12.252632"
       fy="13.015788"
       r="9" />
    <radialGradient
       inkscape:collect="always"
       xlink:href="#StandardGradient"
       id="radialGradient3901"
       gradientUnits="userSpaceOnUse"
       gradientTransform="matrix(1.7777777,0,0,1.2222222,-9.7824554,-1.9081853)"
       cx="12.252632"
       cy="13.015788"
       fx="12.252632"
       fy="13.015788"
       r="9" />
    <radialGradient
       inkscape:collect="always"
       xlink:href="#StandardGradient"
       id="radialGradient3905"
       gradientUnits="userSpaceOnUse"
       gradientTransform="matrix(1.7777777,0,0,1.2222222,-9.7824554,-2.9081853)"
       cx="12.252632"
       cy="13.015788"
       fx="12.252632"
       fy="13.015788"
       r="9" />
    <radialGradient
       inkscape:collect="always"
       xlink:href="#StandardGradient"
       id="radialGradient3912"
       gradientUnits="userSpaceOnUse"
       gradientTransform="matrix(1.7777777,0,0,1.2222222,-9.7824554,-2.9081853)"
       cx="12.252632"
       cy="13.015788"
       fx="12.252632"
       fy="13.015788"
       r="9" />
    <radialGradient
       inkscape:collect="always"
       xlink:href="#StandardGradient"
       id="radialGradient3916"
       gradientUnits="userSpaceOnUse"
       gradientTransform="matrix(1.7777777,0,0,1.2222222,-9.7824554,-2.9081853)"
       cx="12.252632"
       cy="13.015788"
       fx="12.252632"
       fy="13.015788"
       r="9" />
    <radialGradient
       inkscape:collect="always"
       xlink:href="#StandardGradient"
       id="radialGradient3053"
       gradientUnits="userSpaceOnUse"
       gradientTransform="matrix(1.7777777,0,0,1.2222222,-9.7824554,-2.9081853)"
       cx="12.252632"
       cy="13.015788"
       fx="12.252632"
       fy="13.015788"
       r="9" />
    <radialGradient
       inkscape:collect="always"
       xlink:href="#StandardGradient"
       id="radialGradient3057"
       gradientUnits="userSpaceOnUse"
       gradientTransform="matrix(1.7777777,0,0,1.2222222,-9.7824554,-2.9081853)"
       cx="12.252632"
       cy="13.015788"
       fx="12.252632"
       fy="13.015788"
       r="9" />
    <linearGradient
       y2="45.017357"
       x2="20.758585"
       y1="1"
       x1="20.758585"
       gradientTransform="matrix(0.41860332,0,0,0.41860332,0.9535131,1.3721447)"
       gradientUnits="userSpaceOnUse"
       id="linearGradient4427"
       xlink:href="#StandardGradient-9"
       inkscape:collect="always" />
    <linearGradient
       id="StandardGradient-9">
      <stop
         style="stop-color:#000000;stop-opacity:0.86274511;"
         offset="0"
         id="stop3389-8" />
      <stop
         style="stop-color:#000000;stop-opacity:0.47058824;"
         offset="1"
         id="stop3391-3" />
    </linearGradient>
    <linearGradient
       y2="45.017357"
       x2="20.758585"
       y1="1"
       x1="20.758585"
       gradientTransform="matrix(0.25764878,0,0,0.25764878,1.3558912,8.5346265)"
       gradientUnits="userSpaceOnUse"
       id="linearGradient3045"
       xlink:href="#StandardGradient-9"
       inkscape:collect="always" />
    <linearGradient
       inkscape:collect="always"
       xlink:href="#StandardGradient-9"
       id="linearGradient3089"
       gradientUnits="userSpaceOnUse"
       gradientTransform="matrix(0.21871676,-0.09059544,0.09059544,0.21871676,7.6671213,4.1437722)"
       x1="20.758585"
       y1="1"
       x2="20.758585"
       y2="45.017357" />
    <radialGradient
       inkscape:collect="always"
       xlink:href="#StandardGradient"
       id="radialGradient3863"
       cx="12"
       cy="12.99981"
       fx="12"
       fy="12.99981"
       r="8.9991589"
       gradientTransform="matrix(1.7779439,3.3525398e-8,-2.0953373e-8,1.111215,-9.3353271,-1.445584)"
       gradientUnits="userSpaceOnUse" />
    <radialGradient
       inkscape:collect="always"
       xlink:href="#StandardGradient"
       id="radialGradient3870"
       gradientUnits="userSpaceOnUse"
       gradientTransform="matrix(1.7779439,3.3525398e-8,-2.0953373e-8,1.111215,-9.3353271,-1.445584)"
       cx="12"
       cy="12.99981"
       fx="12"
       fy="12.99981"
       r="8.9991589" />
    <radialGradient
       inkscape:collect="always"
       xlink:href="#StandardGradient"
       id="radialGradient3874"
       gradientUnits="userSpaceOnUse"
       gradientTransform="matrix(1.7779439,3.3525398e-8,-2.0953373e-8,1.111215,-9.3353271,-1.445584)"
       cx="12"
       cy="12.99981"
       fx="12"
       fy="12.99981"
       r="8.9991589" />
    <radialGradient
       inkscape:collect="always"
       xlink:href="#StandardGradient"
       id="radialGradient3877"
       gradientUnits="userSpaceOnUse"
       gradientTransform="matrix(1.7779439,3.3525398e-8,-2.0953373e-8,1.111215,-9.3353271,-1.445584)"
       cx="12"
       cy="12.99981"
       fx="12"
       fy="12.99981"
       r="8.9991589" />
    <radialGradient
       inkscape:collect="always"
       xlink:href="#StandardGradient"
       id="radialGradient3884"
       gradientUnits="userSpaceOnUse"
       gradientTransform="matrix(1.7779439,3.3525398e-8,-2.0953373e-8,1.111215,-9.3353271,-1.445584)"
       cx="12"
       cy="12.99981"
       fx="12"
       fy="12.99981"
       r="8.9991589" />
    <radialGradient
       inkscape:collect="always"
       xlink:href="#StandardGradient"
       id="radialGradient3888"
       gradientUnits="userSpaceOnUse"
       gradientTransform="matrix(1.7779439,3.3525398e-8,-2.0953373e-8,1.111215,-9.3353271,-1.445584)"
       cx="12"
       cy="12.99981"
       fx="12"
       fy="12.99981"
       r="8.9991589" />
    <radialGradient
       inkscape:collect="always"
       xlink:href="#StandardGradient"
       id="radialGradient3892"
       gradientUnits="userSpaceOnUse"
       gradientTransform="matrix(1.7779439,3.3525398e-8,-2.0953373e-8,1.111215,-9.3353271,-0.445584)"
       cx="12"
       cy="12.99981"
       fx="12"
       fy="12.99981"
       r="8.9991589" />
    <radialGradient
       inkscape:collect="always"
       xlink:href="#StandardGradient"
       id="radialGradient3895"
       gradientUnits="userSpaceOnUse"
       gradientTransform="matrix(1.7779439,3.3525398e-8,-2.0953373e-8,1.111215,-9.3353271,-1.445584)"
       cx="12"
       cy="12.99981"
       fx="12"
       fy="12.99981"
       r="8.9991589" />
    <radialGradient
       inkscape:collect="always"
       xlink:href="#StandardGradient"
       id="radialGradient3900"
       gradientUnits="userSpaceOnUse"
       gradientTransform="matrix(1.7779439,3.3525398e-8,-2.0953373e-8,1.111215,-9.3353271,-0.445584)"
       cx="12"
       cy="12.99981"
       fx="12"
       fy="12.99981"
       r="8.9991589" />
    <radialGradient
       inkscape:collect="always"
       xlink:href="#StandardGradient"
       id="radialGradient3904"
       gradientUnits="userSpaceOnUse"
       gradientTransform="matrix(1.7779439,3.3525398e-8,-2.0953373e-8,1.111215,-9.3353271,-1.445584)"
       cx="12"
       cy="12.99981"
       fx="12"
       fy="12.99981"
       r="8.9991589" />
    <radialGradient
       inkscape:collect="always"
       xlink:href="#StandardGradient"
       id="radialGradient3911"
       gradientUnits="userSpaceOnUse"
       gradientTransform="matrix(1.7779439,3.3525398e-8,-2.0953373e-8,1.111215,-9.3353271,-1.445584)"
       cx="12"
       cy="12.99981"
       fx="12"
       fy="12.99981"
       r="8.9991589" />
    <radialGradient
       inkscape:collect="always"
       xlink:href="#StandardGradient"
       id="radialGradient3915"
       gradientUnits="userSpaceOnUse"
       gradientTransform="matrix(1.7779439,3.3525398e-8,-2.0953373e-8,1.111215,-9.3353271,-1.445584)"
       cx="12"
       cy="12.99981"
       fx="12"
       fy="12.99981"
       r="8.9991589" />
  </defs>
  <metadata
     id="metadata7">
    <rdf:RDF>
      <cc:Work
         rdf:about="">
        <dc:format>image/svg+xml</dc:format>
        <dc:type
           rdf:resource="http://purl.org/dc/dcmitype/StillImage" />
        <dc:title></dc:title>
      </cc:Work>
    </rdf:RDF>
  </metadata>
  <g
     style="display:inline"
     inkscape:label="Calque 1"
     id="layer1"
     inkscape:groupmode="layer">
    <path
       style="fill:#ffffff;fill-opacity:1;fill-rule:nonzero;stroke:none;stroke-width:1;marker:none;visibility:visible;display:block;overflow:visible;enable-background:accumulate;opacity:0.05"
       d="M 13.5625 1 C 13.47693 1.0137082 13.411023 1.0529401 13.3125 1.09375 L 12.03125 1.625 C 11.326046 1.9171028 11.093023 2.6306269 11.28125 3.28125 C 10.995625 3.2084307 10.61222 3.1979763 10.40625 3.28125 C 10.183193 3.3714069 9.8273076 3.5428933 9.625 4.03125 L 9.09375 5.34375 C 8.8487806 5.9351762 9.1546633 6.6581609 9.71875 7 C 9.2345249 7.2784855 9.0526231 7.7463741 9.09375 8.25 C 8.8686426 8.0748612 8.6201157 7.90625 8.3125 7.90625 L 6.78125 7.90625 C 6.0198674 7.90625 5.4449692 8.494423 5.40625 9.25 C 5.1618239 9.0179856 4.8212081 8.8782478 4.4375 8.875 C 4.0070064 8.8713095 3.6807881 9.0379831 3.4375 9.28125 A 1.0080797 1.0080797 0 0 0 3.4375 9.3125 L 2.375 10.40625 C 1.8683949 10.936198 1.8392382 11.806154 2.34375 12.34375 C 1.6691345 12.3819 1 12.927066 1 13.6875 L 1 15.21875 C 1 15.980135 1.5881687 16.555031 2.34375 16.59375 C 1.8322173 17.138787 1.8472995 18.034837 2.375 18.5625 L 3.4375 19.625 C 3.9650887 20.152595 4.8611813 20.167958 5.40625 19.65625 C 5.4449692 20.411828 6.0198659 21 6.78125 21 L 8.3125 21 C 9.0729311 21 9.6180997 20.330864 9.65625 19.65625 C 10.193917 20.160874 11.063831 20.131425 11.59375 19.625 L 11.625 19.625 L 12.6875 18.5625 A 1.0080797 1.0080797 0 0 0 12.71875 18.5625 C 13.246328 18.034915 13.26171 17.138819 12.75 16.59375 C 13.5055 16.555015 14.09375 15.979976 14.09375 15.21875 L 14.09375 13.6875 C 14.09375 13.379882 13.925139 13.131357 13.75 12.90625 C 14.252138 12.938339 14.731685 12.724019 15 12.28125 C 15.361842 12.910443 16.058643 13.166731 16.6875 12.90625 L 17.96875 12.375 C 18.673987 12.082903 18.906984 11.369381 18.71875 10.71875 C 19.351942 10.905241 20.11289 10.601315 20.375 9.96875 L 20.90625 8.65625 C 21.151199 8.0648466 20.84534 7.341838 20.28125 7 C 20.910337 6.6381685 21.16663 5.9411098 20.90625 5.3125 L 20.375 4.03125 C 20.082889 3.3260758 19.369373 3.0930217 18.71875 3.28125 C 18.905284 2.6479902 18.601277 1.8871339 17.96875 1.625 L 16.65625 1.09375 C 16.064844 0.84879573 15.341837 1.1546622 15 1.71875 C 14.737161 1.2721961 14.310912 1.0067784 13.875 1 C 13.753305 0.99810748 13.64807 0.98629183 13.5625 1 z M 13.84375 2 C 13.985507 2.0022043 14.129025 2.0775799 14.1875 2.21875 L 14.4375 2.90625 C 14.804925 2.857353 15.203513 2.857828 15.5625 2.90625 L 15.8125 2.21875 C 15.890453 2.030494 16.096185 1.9545976 16.28125 2.03125 L 17.59375 2.5625 C 17.778731 2.6391683 17.85922 2.8430249 17.78125 3.03125 L 17.5 3.71875 C 17.78808 3.9383536 18.056014 4.1743664 18.28125 4.46875 L 18.9375 4.21875 C 19.125724 4.1407852 19.360844 4.221188 19.4375 4.40625 L 19.96875 5.6875 C 20.045406 5.8725631 19.969558 6.109499 19.78125 6.1875 L 19.09375 6.4375 C 19.14267 6.8049243 19.14216 7.2035144 19.09375 7.5625 L 19.78125 7.8125 C 19.969506 7.8904532 20.045404 8.0961864 19.96875 8.28125 L 19.4375 9.59375 C 19.360831 9.7787806 19.156974 9.859215 18.96875 9.78125 L 18.28125 9.5 C 18.061646 9.7880808 17.825633 10.056014 17.53125 10.28125 L 17.78125 10.9375 C 17.859216 11.125726 17.778813 11.36085 17.59375 11.4375 L 16.3125 11.96875 C 16.127436 12.045406 15.89047 11.969476 15.8125 11.78125 L 15.5625 11.09375 C 15.195076 11.14267 14.796486 11.14217 14.4375 11.09375 L 14.1875 11.78125 C 14.109548 11.969501 13.90381 12.0454 13.71875 11.96875 L 12.40625 11.4375 C 12.221271 11.360832 12.14078 11.156977 12.21875 10.96875 L 12.5 10.28125 C 12.211921 10.061649 11.943986 9.8256345 11.71875 9.53125 L 11.0625 9.78125 C 10.874273 9.8592161 10.63915 9.778813 10.5625 9.59375 L 10.03125 8.3125 C 9.9545946 8.1274371 10.030484 7.890483 10.21875 7.8125 L 10.90625 7.5625 C 10.85733 7.1950744 10.85783 6.7964876 10.90625 6.4375 L 10.21875 6.1875 C 10.030498 6.1095464 9.954597 5.9038123 10.03125 5.71875 L 10.5625 4.40625 C 10.60083 4.3137242 10.69482 4.253684 10.78125 4.21875 C 10.867671 4.18381 10.93714 4.179767 11.03125 4.21875 L 11.71875 4.5 C 11.938353 4.2119196 12.174366 3.9439858 12.46875 3.71875 L 12.21875 3.0625 C 12.140785 2.8742741 12.221187 2.639155 12.40625 2.5625 L 13.6875 2.03125 C 13.733766 2.0120862 13.796498 1.9992652 13.84375 2 z M 15 5.46875 C 14.800122 5.4672221 14.602439 5.5124858 14.40625 5.59375 C 13.621492 5.9188061 13.268693 6.8089951 13.59375 7.59375 C 13.918807 8.3785075 14.808995 8.7313061 15.59375 8.40625 C 16.3785 8.0811935 16.731308 7.1910077 16.40625 6.40625 C 16.162458 5.8176837 15.599633 5.4733336 15 5.46875 z M 15 6.46875 C 15.21858 6.4704195 15.381662 6.5710006 15.46875 6.78125 C 15.591993 7.0787843 15.501072 7.3518075 15.21875 7.46875 C 14.921215 7.5919932 14.648194 7.5010772 14.53125 7.21875 C 14.408006 6.9212137 14.498921 6.6481936 14.78125 6.53125 C 14.878529 6.4909559 14.957364 6.4684241 15 6.46875 z M 6.78125 8.90625 L 8.3125 8.90625 C 8.5305032 8.90625 8.6875 9.0907685 8.6875 9.3125 L 8.6875 10.09375 C 9.0773067 10.197611 9.4717102 10.364299 9.8125 10.5625 L 10.34375 10 C 10.500538 9.8431653 10.752094 9.8458499 10.90625 10 L 12 11.09375 C 12.154104 11.247903 12.156786 11.499463 12 11.65625 L 11.4375 12.1875 C 11.635699 12.52829 11.802398 12.922681 11.90625 13.3125 L 12.6875 13.3125 C 12.909229 13.3125 13.09375 13.469496 13.09375 13.6875 L 13.09375 15.21875 C 13.09375 15.436754 12.909284 15.624998 12.6875 15.625 L 11.90625 15.625 C 11.80239 16.014807 11.635699 16.377961 11.4375 16.71875 L 12 17.28125 C 12.156835 17.438037 12.154151 17.689597 12 17.84375 L 10.90625 18.90625 C 10.752098 19.060353 10.500535 19.063036 10.34375 18.90625 L 9.8125 18.34375 C 9.4717107 18.54195 9.0773067 18.708635 8.6875 18.8125 L 8.6875 19.59375 C 8.6875 19.81548 8.530505 20 8.3125 20 L 6.78125 20 C 6.5632443 20 6.375 19.81548 6.375 19.59375 L 6.375 18.8125 C 5.9851938 18.708641 5.6220396 18.54195 5.28125 18.34375 L 4.71875 18.90625 C 4.5619627 19.063085 4.3104012 19.060403 4.15625 18.90625 L 3.09375 17.84375 C 2.9395871 17.689598 2.9369628 17.438037 3.09375 17.28125 L 3.65625 16.71875 C 3.4580509 16.377962 3.2913616 16.014807 3.1875 15.625 L 2.40625 15.625 C 2.1845195 15.625 2 15.436754 2 15.21875 L 2 13.6875 C 2 13.469495 2.1845211 13.3125 2.40625 13.3125 L 3.1875 13.3125 C 3.291362 12.922693 3.4580479 12.52829 3.65625 12.1875 L 3.09375 11.65625 C 2.9369744 11.499462 2.9395987 11.247902 3.09375 11.09375 L 4.15625 10 C 4.2333258 9.9229309 4.3360503 9.8741303 4.4375 9.875 C 4.5389497 9.8758587 4.6403544 9.9216051 4.71875 10 L 5.28125 10.5625 C 5.6220396 10.3643 5.9851937 10.197615 6.375 10.09375 L 6.375 9.3125 C 6.375 9.0907695 6.5632443 8.90625 6.78125 8.90625 z M 7.53125 12.78125 C 6.6068067 12.78125 5.875 13.544307 5.875 14.46875 C 5.875 15.393196 6.6068067 16.125 7.53125 16.125 C 8.4556934 16.125 9.21875 15.393196 9.21875 14.46875 C 9.21875 13.544307 8.4556952 12.78125 7.53125 12.78125 z M 7.53125 13.78125 C 7.9010235 13.78125 8.21875 14.098978 8.21875 14.46875 C 8.21875 14.838525 7.9237387 15.125 7.53125 15.125 C 7.1387614 15.125 6.875 14.861241 6.875 14.46875 C 6.875 14.076264 7.1614795 13.78125 7.53125 13.78125 z "
       id="path3913" />
    <path
       style="fill:url(#radialGradient3863);fill-opacity:1;fill-rule:nonzero;stroke:none;stroke-width:1;marker:none;visibility:visible;display:block;overflow:visible;enable-background:accumulate"
       d="M 13.84375 2 C 13.796498 1.9992652 13.733766 2.0120862 13.6875 2.03125 L 12.40625 2.5625 C 12.221187 2.639155 12.140785 2.8742741 12.21875 3.0625 L 12.46875 3.71875 C 12.174366 3.9439858 11.938353 4.2119196 11.71875 4.5 L 11.03125 4.21875 C 10.93714 4.179767 10.867671 4.18381 10.78125 4.21875 C 10.69482 4.253684 10.60083 4.3137242 10.5625 4.40625 L 10.03125 5.71875 C 9.954597 5.9038123 10.030498 6.1095464 10.21875 6.1875 L 10.90625 6.4375 C 10.85783 6.7964876 10.85733 7.1950744 10.90625 7.5625 L 10.21875 7.8125 C 10.030484 7.890483 9.9545946 8.1274371 10.03125 8.3125 L 10.5625 9.59375 C 10.63915 9.778813 10.874273 9.8592161 11.0625 9.78125 L 11.71875 9.53125 C 11.943986 9.8256345 12.211921 10.061649 12.5 10.28125 L 12.21875 10.96875 C 12.14078 11.156977 12.221271 11.360832 12.40625 11.4375 L 13.71875 11.96875 C 13.90381 12.0454 14.109548 11.969501 14.1875 11.78125 L 14.4375 11.09375 C 14.796486 11.14217 15.195076 11.14267 15.5625 11.09375 L 15.8125 11.78125 C 15.89047 11.969476 16.127436 12.045406 16.3125 11.96875 L 17.59375 11.4375 C 17.778813 11.36085 17.859216 11.125726 17.78125 10.9375 L 17.53125 10.28125 C 17.825633 10.056014 18.061646 9.7880808 18.28125 9.5 L 18.96875 9.78125 C 19.156974 9.859215 19.360831 9.7787806 19.4375 9.59375 L 19.96875 8.28125 C 20.045404 8.0961864 19.969506 7.8904532 19.78125 7.8125 L 19.09375 7.5625 C 19.14216 7.2035144 19.14267 6.8049243 19.09375 6.4375 L 19.78125 6.1875 C 19.969558 6.109499 20.045406 5.8725631 19.96875 5.6875 L 19.4375 4.40625 C 19.360844 4.221188 19.125724 4.1407852 18.9375 4.21875 L 18.28125 4.46875 C 18.056014 4.1743664 17.78808 3.9383536 17.5 3.71875 L 17.78125 3.03125 C 17.85922 2.8430249 17.778731 2.6391683 17.59375 2.5625 L 16.28125 2.03125 C 16.096185 1.9545976 15.890453 2.030494 15.8125 2.21875 L 15.5625 2.90625 C 15.203513 2.857828 14.804925 2.857353 14.4375 2.90625 L 14.1875 2.21875 C 14.129025 2.0775799 13.985507 2.0022043 13.84375 2 z M 15 5.46875 C 15.599633 5.4733336 16.162458 5.8176837 16.40625 6.40625 C 16.731308 7.1910077 16.3785 8.0811935 15.59375 8.40625 C 14.808995 8.7313061 13.918807 8.3785075 13.59375 7.59375 C 13.268693 6.8089951 13.621492 5.9188061 14.40625 5.59375 C 14.602439 5.5124858 14.800122 5.4672221 15 5.46875 z M 6.78125 8.90625 C 6.5632443 8.90625 6.375 9.0907695 6.375 9.3125 L 6.375 10.09375 C 5.9851937 10.197615 5.6220396 10.3643 5.28125 10.5625 L 4.71875 10 C 4.6403544 9.9216051 4.5389497 9.8758587 4.4375 9.875 C 4.3360503 9.8741303 4.2333258 9.9229309 4.15625 10 L 3.09375 11.09375 C 2.9395987 11.247902 2.9369744 11.499462 3.09375 11.65625 L 3.65625 12.1875 C 3.4580479 12.52829 3.291362 12.922693 3.1875 13.3125 L 2.40625 13.3125 C 2.1845211 13.3125 2 13.469495 2 13.6875 L 2 15.21875 C 2 15.436754 2.1845195 15.625 2.40625 15.625 L 3.1875 15.625 C 3.2913616 16.014807 3.4580509 16.377962 3.65625 16.71875 L 3.09375 17.28125 C 2.9369628 17.438037 2.9395871 17.689598 3.09375 17.84375 L 4.15625 18.90625 C 4.3104012 19.060403 4.5619627 19.063085 4.71875 18.90625 L 5.28125 18.34375 C 5.6220396 18.54195 5.9851938 18.708641 6.375 18.8125 L 6.375 19.59375 C 6.375 19.81548 6.5632443 20 6.78125 20 L 8.3125 20 C 8.530505 20 8.6875 19.81548 8.6875 19.59375 L 8.6875 18.8125 C 9.0773067 18.708635 9.4717107 18.54195 9.8125 18.34375 L 10.34375 18.90625 C 10.500535 19.063036 10.752098 19.060353 10.90625 18.90625 L 12 17.84375 C 12.154151 17.689597 12.156835 17.438037 12 17.28125 L 11.4375 16.71875 C 11.635699 16.377961 11.80239 16.014807 11.90625 15.625 L 12.6875 15.625 C 12.909284 15.624998 13.09375 15.436754 13.09375 15.21875 L 13.09375 13.6875 C 13.09375 13.469496 12.909229 13.3125 12.6875 13.3125 L 11.90625 13.3125 C 11.802398 12.922681 11.635699 12.52829 11.4375 12.1875 L 12 11.65625 C 12.156786 11.499463 12.154104 11.247903 12 11.09375 L 10.90625 10 C 10.752094 9.8458499 10.500538 9.8431653 10.34375 10 L 9.8125 10.5625 C 9.4717102 10.364299 9.0773067 10.197611 8.6875 10.09375 L 8.6875 9.3125 C 8.6875 9.0907685 8.5305032 8.90625 8.3125 8.90625 L 6.78125 8.90625 z M 7.53125 12.78125 C 8.4556952 12.78125 9.21875 13.544307 9.21875 14.46875 C 9.21875 15.393196 8.4556934 16.125 7.53125 16.125 C 6.6068067 16.125 5.875 15.393196 5.875 14.46875 C 5.875 13.544307 6.6068067 12.78125 7.53125 12.78125 z "
       id="rect3267" />
    <path
       style="fill:#000000;fill-opacity:1;fill-rule:nonzero;stroke:none;stroke-width:1;marker:none;visibility:visible;display:block;overflow:visible;enable-background:accumulate;opacity:0.3"
       d="M 13.84375 2 C 13.796498 1.9992652 13.733766 2.0120862 13.6875 2.03125 L 12.40625 2.5625 C 12.221187 2.639155 12.140785 2.8742741 12.21875 3.0625 L 12.46875 3.71875 C 12.174366 3.9439858 11.938353 4.2119196 11.71875 4.5 L 11.03125 4.21875 C 10.93714 4.179767 10.867671 4.18381 10.78125 4.21875 C 10.69482 4.253684 10.60083 4.3137242 10.5625 4.40625 L 10.03125 5.71875 C 9.954597 5.9038123 10.030498 6.1095464 10.21875 6.1875 L 10.90625 6.4375 C 10.85783 6.7964876 10.85733 7.1950744 10.90625 7.5625 L 10.21875 7.8125 C 10.030484 7.890483 9.9545946 8.1274371 10.03125 8.3125 L 10.5625 9.59375 C 10.63915 9.778813 10.874273 9.8592161 11.0625 9.78125 L 11.71875 9.53125 C 11.943986 9.8256345 12.211921 10.061649 12.5 10.28125 L 12.21875 10.96875 C 12.14078 11.156977 12.221271 11.360832 12.40625 11.4375 L 13.71875 11.96875 C 13.90381 12.0454 14.109548 11.969501 14.1875 11.78125 L 14.4375 11.09375 C 14.796486 11.14217 15.195076 11.14267 15.5625 11.09375 L 15.8125 11.78125 C 15.89047 11.969476 16.127436 12.045406 16.3125 11.96875 L 17.59375 11.4375 C 17.778813 11.36085 17.859216 11.125726 17.78125 10.9375 L 17.53125 10.28125 C 17.825633 10.056014 18.061646 9.7880808 18.28125 9.5 L 18.96875 9.78125 C 19.156974 9.859215 19.360831 9.7787806 19.4375 9.59375 L 19.96875 8.28125 C 20.045404 8.0961864 19.969506 7.8904532 19.78125 7.8125 L 19.09375 7.5625 C 19.14216 7.2035144 19.14267 6.8049243 19.09375 6.4375 L 19.78125 6.1875 C 19.969558 6.109499 20.045406 5.8725631 19.96875 5.6875 L 19.4375 4.40625 C 19.360844 4.221188 19.125724 4.1407852 18.9375 4.21875 L 18.28125 4.46875 C 18.056014 4.1743664 17.78808 3.9383536 17.5 3.71875 L 17.78125 3.03125 C 17.85922 2.8430249 17.778731 2.6391683 17.59375 2.5625 L 16.28125 2.03125 C 16.096185 1.9545976 15.890453 2.030494 15.8125 2.21875 L 15.5625 2.90625 C 15.203513 2.857828 14.804925 2.857353 14.4375 2.90625 L 14.1875 2.21875 C 14.129025 2.0775799 13.985507 2.0022043 13.84375 2 z M 13.78125 2.5 L 14 3.0625 A 0.47330004 0.47330004 0 0 0 14.5 3.375 C 14.822663 3.3320599 15.186597 3.3327266 15.5 3.375 A 0.47330004 0.47330004 0 0 0 16 3.0625 L 16.1875 2.5 L 17.3125 2.96875 L 17.0625 3.53125 A 0.47330004 0.47330004 0 0 0 17.21875 4.09375 C 17.489331 4.3000139 17.716899 4.5025178 17.90625 4.75 A 0.47330004 0.47330004 0 0 0 18.4375 4.90625 L 19.03125 4.6875 L 19.5 5.78125 L 18.9375 6 A 0.47330004 0.47330004 0 0 0 18.625 6.5 C 18.667954 6.8226132 18.667268 7.1865582 18.625 7.5 A 0.47330004 0.47330004 0 0 0 18.9375 8 L 19.5 8.1875 L 19.03125 9.3125 L 18.46875 9.0625 A 0.47330004 0.47330004 0 0 0 17.90625 9.21875 C 17.699986 9.4893311 17.497482 9.7168983 17.25 9.90625 A 0.47330004 0.47330004 0 0 0 17.09375 10.4375 L 17.3125 11.03125 L 16.21875 11.5 L 16 10.9375 A 0.47330004 0.47330004 0 0 0 15.5 10.625 C 15.177379 10.667955 14.813425 10.667275 14.5 10.625 A 0.47330004 0.47330004 0 0 0 14 10.9375 L 13.8125 11.5 L 12.6875 11.03125 L 12.9375 10.46875 A 0.47330004 0.47330004 0 0 0 12.78125 9.90625 C 12.510672 9.6999898 12.283101 9.497483 12.09375 9.25 A 0.47330004 0.47330004 0 0 0 11.5625 9.09375 L 10.96875 9.3125 L 10.5 8.21875 L 11.0625 8 A 0.47330004 0.47330004 0 0 0 11.375 7.5 C 11.332045 7.1773765 11.332725 6.8134272 11.375 6.5 A 0.47330004 0.47330004 0 0 0 11.0625 6 L 10.5 5.8125 L 10.96875 4.6875 L 11.53125 4.9375 A 0.47330004 0.47330004 0 0 0 12.09375 4.78125 C 12.300013 4.5106695 12.502517 4.2831011 12.75 4.09375 A 0.47330004 0.47330004 0 0 0 12.90625 3.5625 L 12.6875 2.96875 L 13.78125 2.5 z M 15 5 C 14.726296 4.9979078 14.461378 5.0557501 14.21875 5.15625 C 13.198095 5.5790163 12.73644 6.7677428 13.15625 7.78125 C 13.579018 8.8019011 14.767742 9.2635586 15.78125 8.84375 C 16.801893 8.4209826 17.263561 7.2322623 16.84375 6.21875 C 16.526384 5.4525614 15.77854 5.0059465 15 5 z M 15 5.46875 C 15.599633 5.4733336 16.162458 5.8176837 16.40625 6.40625 C 16.731308 7.1910077 16.3785 8.0811935 15.59375 8.40625 C 14.808995 8.7313061 13.918807 8.3785075 13.59375 7.59375 C 13.268693 6.8089951 13.621492 5.9188061 14.40625 5.59375 C 14.602439 5.5124858 14.800122 5.4672221 15 5.46875 z M 6.78125 8.90625 C 6.5632443 8.90625 6.375 9.0907695 6.375 9.3125 L 6.375 10.09375 C 5.9851937 10.197615 5.6220396 10.3643 5.28125 10.5625 L 4.71875 10 C 4.6403544 9.9216051 4.5389497 9.8758587 4.4375 9.875 C 4.3360503 9.8741303 4.2333258 9.9229309 4.15625 10 L 3.09375 11.09375 C 2.9395987 11.247902 2.9369744 11.499462 3.09375 11.65625 L 3.65625 12.1875 C 3.4580479 12.52829 3.291362 12.922693 3.1875 13.3125 L 2.40625 13.3125 C 2.1845211 13.3125 2 13.469495 2 13.6875 L 2 15.21875 C 2 15.436754 2.1845195 15.625 2.40625 15.625 L 3.1875 15.625 C 3.2913616 16.014807 3.4580509 16.377962 3.65625 16.71875 L 3.09375 17.28125 C 2.9369628 17.438037 2.9395871 17.689598 3.09375 17.84375 L 4.15625 18.90625 C 4.3104012 19.060403 4.5619627 19.063085 4.71875 18.90625 L 5.28125 18.34375 C 5.6220396 18.54195 5.9851938 18.708641 6.375 18.8125 L 6.375 19.59375 C 6.375 19.81548 6.5632443 20 6.78125 20 L 8.3125 20 C 8.530505 20 8.6875 19.81548 8.6875 19.59375 L 8.6875 18.8125 C 9.0773067 18.708635 9.4717107 18.54195 9.8125 18.34375 L 10.34375 18.90625 C 10.500535 19.063036 10.752098 19.060353 10.90625 18.90625 L 12 17.84375 C 12.154151 17.689597 12.156835 17.438037 12 17.28125 L 11.4375 16.71875 C 11.635699 16.377961 11.80239 16.014807 11.90625 15.625 L 12.6875 15.625 C 12.909284 15.624998 13.09375 15.436754 13.09375 15.21875 L 13.09375 13.6875 C 13.09375 13.469496 12.909229 13.3125 12.6875 13.3125 L 11.90625 13.3125 C 11.802398 12.922681 11.635699 12.52829 11.4375 12.1875 L 12 11.65625 C 12.156786 11.499463 12.154104 11.247903 12 11.09375 L 10.90625 10 C 10.752094 9.8458499 10.500538 9.8431653 10.34375 10 L 9.8125 10.5625 C 9.4717102 10.364299 9.0773067 10.197611 8.6875 10.09375 L 8.6875 9.3125 C 8.6875 9.0907685 8.5305032 8.90625 8.3125 8.90625 L 6.78125 8.90625 z M 6.84375 9.375 L 8.21875 9.375 L 8.21875 10.09375 A 0.47330004 0.47330004 0 0 0 8.5625 10.5625 C 8.9073215 10.654375 9.2592021 10.792354 9.5625 10.96875 A 0.47330004 0.47330004 0 0 0 10.15625 10.875 L 10.625 10.40625 L 11.59375 11.375 L 11.125 11.84375 A 0.47330004 0.47330004 0 0 0 11.03125 12.4375 C 11.207651 12.74081 11.345638 13.092685 11.4375 13.4375 A 0.47330004 0.47330004 0 0 0 11.90625 13.78125 L 12.625 13.78125 L 12.625 15.15625 L 11.90625 15.15625 A 0.47330004 0.47330004 0 0 0 11.4375 15.5 C 11.347247 15.838739 11.213967 16.154582 11.03125 16.46875 A 0.47330004 0.47330004 0 0 0 11.09375 17.0625 L 11.59375 17.5625 L 10.625 18.5 L 10.15625 18.03125 A 0.47330004 0.47330004 0 0 0 9.5625 17.9375 C 9.2592042 18.113894 8.9073271 18.25187 8.5625 18.34375 A 0.47330004 0.47330004 0 0 0 8.21875 18.8125 L 8.21875 19.53125 L 6.84375 19.53125 L 6.84375 18.8125 A 0.47330004 0.47330004 0 0 0 6.5 18.34375 C 6.1612629 18.253498 5.8454184 18.120217 5.53125 17.9375 A 0.47330004 0.47330004 0 0 0 4.9375 18 L 4.4375 18.5 L 3.5 17.5625 L 4 17.0625 A 0.47330004 0.47330004 0 0 0 4.0625 16.46875 C 3.8797844 16.154585 3.7465055 15.838741 3.65625 15.5 A 0.47330004 0.47330004 0 0 0 3.1875 15.15625 L 2.46875 15.15625 L 2.46875 13.78125 L 3.1875 13.78125 A 0.47330004 0.47330004 0 0 0 3.65625 13.4375 C 3.7481265 13.092676 3.886104 12.740796 4.0625 12.4375 A 0.47330004 0.47330004 0 0 0 3.96875 11.84375 L 3.5 11.375 L 4.4375 10.40625 L 4.9375 10.90625 A 0.47330004 0.47330004 0 0 0 5.53125 10.96875 C 5.8454149 10.786035 6.1612538 10.65276 6.5 10.5625 A 0.47330004 0.47330004 0 0 0 6.84375 10.09375 L 6.84375 9.375 z M 7.53125 12.3125 C 6.3463842 12.3125 5.40625 13.29455 5.40625 14.46875 C 5.40625 15.642952 6.3570505 16.59375 7.53125 16.59375 C 8.7054496 16.59375 9.6875 15.653618 9.6875 14.46875 C 9.6875 13.283885 8.7161172 12.3125 7.53125 12.3125 z M 7.53125 12.78125 C 8.4556952 12.78125 9.21875 13.544307 9.21875 14.46875 C 9.21875 15.393196 8.4556934 16.125 7.53125 16.125 C 6.6068067 16.125 5.875 15.393196 5.875 14.46875 C 5.875 13.544307 6.6068067 12.78125 7.53125 12.78125 z "
       id="path3865" />
    <path
       style="fill:#000000;fill-opacity:1;fill-rule:nonzero;stroke:none;stroke-width:1;marker:none;visibility:visible;display:block;overflow:visible;enable-background:accumulate;opacity:0.3"
       d="M 13.84375 2 C 13.796498 1.9992652 13.733766 2.0120862 13.6875 2.03125 L 12.40625 2.5625 C 12.221187 2.639155 12.140785 2.8742741 12.21875 3.0625 L 12.40625 3.5625 L 13.6875 3.03125 C 13.733766 3.012086 13.7965 2.9992652 13.84375 3 C 13.985507 3.0022043 14.129025 3.0775799 14.1875 3.21875 L 14.4375 3.90625 C 14.804925 3.857353 15.203513 3.857828 15.5625 3.90625 L 15.8125 3.21875 C 15.890453 3.030494 16.096185 2.954598 16.28125 3.03125 L 17.5625 3.5625 L 17.78125 3.03125 C 17.85922 2.8430249 17.778731 2.6391683 17.59375 2.5625 L 16.28125 2.03125 C 16.096185 1.9545976 15.890453 2.030494 15.8125 2.21875 L 15.5625 2.90625 C 15.203513 2.857828 14.804925 2.857353 14.4375 2.90625 L 14.1875 2.21875 C 14.129025 2.0775799 13.985507 2.0022043 13.84375 2 z M 12.1875 3.96875 C 12.016283 4.1347954 11.863632 4.3099406 11.71875 4.5 L 11.03125 4.21875 C 10.93714 4.179767 10.867671 4.18381 10.78125 4.21875 C 10.69482 4.253684 10.60083 4.3137242 10.5625 4.40625 L 10.03125 5.71875 C 9.954597 5.9038123 10.030498 6.1095464 10.21875 6.1875 L 10.25 6.1875 L 10.5625 5.40625 C 10.60083 5.313724 10.69482 5.253684 10.78125 5.21875 C 10.867671 5.18381 10.93714 5.179767 11.03125 5.21875 L 11.71875 5.5 C 11.938353 5.2119196 12.174366 4.9439858 12.46875 4.71875 L 12.21875 4.0625 C 12.206755 4.0335422 12.192194 3.9991799 12.1875 3.96875 z M 17.78125 3.96875 C 17.776635 3.9870106 17.788747 4.0131514 17.78125 4.03125 L 17.5 4.71875 C 17.78808 4.9383536 18.056014 5.1743664 18.28125 5.46875 L 18.9375 5.21875 C 19.125724 5.1407852 19.36084 5.221188 19.4375 5.40625 L 19.75 6.1875 L 19.78125 6.1875 C 19.969558 6.109499 20.045406 5.8725631 19.96875 5.6875 L 19.4375 4.40625 C 19.360844 4.221188 19.125724 4.1407852 18.9375 4.21875 L 18.28125 4.46875 C 18.135623 4.2784158 17.956479 4.1216241 17.78125 3.96875 z M 13.5625 7.5 C 13.450366 7.8394129 13.444766 8.2340707 13.59375 8.59375 C 13.918807 9.378507 14.808995 9.7313061 15.59375 9.40625 C 16.348802 9.093495 16.701231 8.261813 16.4375 7.5 C 16.304977 7.9011239 16.018823 8.2301777 15.59375 8.40625 C 14.808995 8.7313061 13.918807 8.3785075 13.59375 7.59375 C 13.581449 7.5640517 13.572873 7.5299639 13.5625 7.5 z M 10.90625 7.5625 L 10.21875 7.8125 C 10.030484 7.890483 9.9545946 8.1274371 10.03125 8.3125 L 10.21875 8.8125 L 10.25 8.8125 L 10.90625 8.5625 C 10.862749 8.2357739 10.87265 7.8887518 10.90625 7.5625 z M 19.09375 7.5625 C 19.12753 7.8945925 19.136798 8.243279 19.09375 8.5625 L 19.75 8.8125 L 19.96875 8.28125 C 20.045404 8.0961864 19.969506 7.8904532 19.78125 7.8125 L 19.09375 7.5625 z M 6.78125 8.90625 C 6.5632443 8.90625 6.375 9.0907695 6.375 9.3125 L 6.375 10.09375 C 5.9851937 10.197615 5.6220396 10.3643 5.28125 10.5625 L 4.71875 10 C 4.6403544 9.9216051 4.5389497 9.8758587 4.4375 9.875 C 4.3360503 9.8741303 4.2333258 9.9229309 4.15625 10 L 3.09375 11.09375 C 2.9395987 11.247902 2.9369744 11.499462 3.09375 11.65625 L 3.3125 11.875 L 4.15625 11 C 4.2333258 10.922931 4.3360503 10.87413 4.4375 10.875 C 4.5389497 10.875859 4.6403544 10.921605 4.71875 11 L 5.28125 11.5625 C 5.6220396 11.3643 5.9851937 11.197615 6.375 11.09375 L 6.375 10.3125 C 6.375 10.09077 6.5632443 9.90625 6.78125 9.90625 L 8.3125 9.90625 C 8.5305032 9.90625 8.6875 10.090768 8.6875 10.3125 L 8.6875 11.09375 C 9.0773067 11.197611 9.4717102 11.364299 9.8125 11.5625 L 10.34375 11 C 10.500538 10.843165 10.752094 10.84585 10.90625 11 L 11.78125 11.875 L 12 11.65625 C 12.156786 11.499463 12.154104 11.247903 12 11.09375 L 11.5 10.59375 L 11.0625 10.78125 C 10.874273 10.859216 10.63915 10.778813 10.5625 10.59375 L 10.3125 10.03125 L 9.8125 10.5625 C 9.4717102 10.364299 9.0773067 10.197611 8.6875 10.09375 L 8.6875 9.3125 C 8.6875 9.0907685 8.5305032 8.90625 8.3125 8.90625 L 6.78125 8.90625 z M 12.21875 11.03125 C 12.175369 11.202901 12.239057 11.368204 12.40625 11.4375 L 12.4375 11.4375 L 12.5 11.28125 C 12.398179 11.203632 12.314542 11.114821 12.21875 11.03125 z M 17.8125 11.03125 C 17.724197 11.116886 17.631415 11.204612 17.53125 11.28125 L 17.59375 11.4375 C 17.750342 11.372642 17.838315 11.198615 17.8125 11.03125 z M 3.3125 12.875 C 3.2593295 13.015763 3.2254345 13.170127 3.1875 13.3125 L 2.40625 13.3125 C 2.1845211 13.3125 2 13.469495 2 13.6875 L 2 14.6875 C 2 14.469495 2.1845211 14.3125 2.40625 14.3125 L 3.1875 14.3125 C 3.291362 13.922693 3.4580479 13.52829 3.65625 13.1875 L 3.3125 12.875 z M 11.78125 12.875 L 11.4375 13.1875 C 11.635699 13.52829 11.802398 13.922681 11.90625 14.3125 L 12.6875 14.3125 C 12.909229 14.3125 13.09375 14.469496 13.09375 14.6875 L 13.09375 13.6875 C 13.09375 13.469496 12.909229 13.3125 12.6875 13.3125 L 11.90625 13.3125 C 11.868319 13.170123 11.834421 13.015763 11.78125 12.875 z M 5.9375 14.96875 C 5.8904418 15.125495 5.875 15.297007 5.875 15.46875 C 5.875 16.393196 6.6068067 17.125 7.53125 17.125 C 8.4556934 17.125 9.21875 16.393196 9.21875 15.46875 C 9.21875 15.293827 9.175565 15.12804 9.125 14.96875 C 8.9083361 15.643512 8.2807701 16.125 7.53125 16.125 C 6.7785496 16.125 6.1437427 15.648021 5.9375 14.96875 z M 3.3125 17.0625 L 3.09375 17.28125 C 2.9369628 17.438037 2.9395871 17.689598 3.09375 17.84375 L 3.3125 18.0625 L 3.65625 17.71875 C 3.5340272 17.508597 3.4034136 17.290669 3.3125 17.0625 z M 11.75 17.0625 C 11.659801 17.287332 11.558071 17.511437 11.4375 17.71875 L 11.78125 18.0625 L 12 17.84375 C 12.154151 17.689597 12.156835 17.438037 12 17.28125 L 11.75 17.0625 z "
       id="path3880" />
    <path
       style="fill:#ffffff;fill-opacity:1;fill-rule:nonzero;stroke:none;stroke-width:1;marker:none;visibility:visible;display:block;overflow:visible;enable-background:accumulate;opacity:0.2"
       d="M 12.40625 3.5625 C 12.249658 3.6273619 12.161686 3.8013858 12.1875 3.96875 C 12.275803 3.883114 12.368584 3.7953877 12.46875 3.71875 L 12.40625 3.5625 z M 17.5625 3.5625 L 17.5 3.71875 C 17.601821 3.7963685 17.685458 3.8851788 17.78125 3.96875 C 17.824634 3.7970999 17.760962 3.6317963 17.59375 3.5625 L 17.5625 3.5625 z M 15 5.46875 C 14.800122 5.4672221 14.602439 5.5124858 14.40625 5.59375 C 13.651188 5.9065047 13.298769 6.7381893 13.5625 7.5 C 13.695021 7.0988757 13.981172 6.7698221 14.40625 6.59375 C 14.602439 6.5124858 14.800122 6.4672221 15 6.46875 C 15.599633 6.47333 16.162458 6.8176837 16.40625 7.40625 C 16.418552 7.4359484 16.427127 7.470036 16.4375 7.5 C 16.549635 7.1605874 16.555235 6.7659306 16.40625 6.40625 C 16.162458 5.8176837 15.599633 5.47333 15 5.46875 z M 10.25 6.1875 L 10.03125 6.71875 C 9.954597 6.9038123 10.030498 7.1095464 10.21875 7.1875 L 10.90625 7.4375 C 10.872468 7.1054072 10.863193 6.7567228 10.90625 6.4375 L 10.25 6.1875 z M 19.75 6.1875 L 19.09375 6.4375 C 19.137251 6.764225 19.127345 7.1112491 19.09375 7.4375 L 19.78125 7.1875 C 19.969558 7.109499 20.045406 6.8725631 19.96875 6.6875 L 19.78125 6.1875 L 19.75 6.1875 z M 10.21875 8.8125 C 10.030484 8.890483 9.9545946 9.1274371 10.03125 9.3125 L 10.3125 10.03125 L 10.34375 10 C 10.500538 9.843165 10.752094 9.84585 10.90625 10 L 11.5 10.59375 L 11.71875 10.53125 C 11.864377 10.721585 12.043521 10.878376 12.21875 11.03125 C 12.223365 11.012989 12.211253 10.986849 12.21875 10.96875 L 12.5 10.28125 C 12.211921 10.061649 11.943986 9.825635 11.71875 9.53125 L 11.0625 9.78125 C 10.874273 9.859216 10.63915 9.778813 10.5625 9.59375 L 10.25 8.8125 L 10.21875 8.8125 z M 19.75 8.8125 L 19.4375 9.59375 C 19.360831 9.77875 19.156974 9.85922 18.96875 9.78125 L 18.28125 9.5 C 18.061646 9.788081 17.825633 10.056014 17.53125 10.28125 L 17.78125 10.9375 C 17.793245 10.966458 17.807806 11.00082 17.8125 11.03125 C 17.983717 10.865205 18.136367 10.69006 18.28125 10.5 L 18.96875 10.78125 C 19.156974 10.85922 19.360831 10.77875 19.4375 10.59375 L 19.96875 9.28125 C 20.0454 9.0961864 19.969506 8.8904532 19.78125 8.8125 L 19.75 8.8125 z M 14.4375 11.09375 L 14.1875 11.78125 C 14.109548 11.969501 13.90381 12.0454 13.71875 11.96875 L 12.4375 11.4375 L 12.21875 11.96875 C 12.14078 12.156977 12.22125 12.360832 12.40625 12.4375 L 13.71875 12.96875 C 13.90381 13.0454 14.109548 12.969501 14.1875 12.78125 L 14.4375 12.09375 C 14.796486 12.14217 15.195076 12.14267 15.5625 12.09375 L 15.8125 12.78125 C 15.89047 12.969476 16.127436 13.045406 16.3125 12.96875 L 17.59375 12.4375 C 17.778813 12.36085 17.859216 12.125726 17.78125 11.9375 L 17.59375 11.4375 L 16.3125 11.96875 C 16.127436 12.045406 15.89047 11.969476 15.8125 11.78125 L 15.5625 11.09375 C 15.195076 11.14267 14.796486 11.14217 14.4375 11.09375 z M 3.3125 11.875 L 3.09375 12.09375 C 2.9395987 12.247902 2.9369744 12.499462 3.09375 12.65625 L 3.3125 12.875 C 3.4049066 12.630364 3.5304391 12.40382 3.65625 12.1875 L 3.3125 11.875 z M 11.78125 11.875 L 11.4375 12.1875 C 11.563309 12.40382 11.688842 12.630364 11.78125 12.875 L 12 12.65625 C 12.156786 12.499463 12.154104 12.247903 12 12.09375 L 11.78125 11.875 z M 7.53125 12.78125 C 6.6068067 12.78125 5.875 13.544307 5.875 14.46875 C 5.875 14.640493 5.8904418 14.813761 5.9375 14.96875 C 6.1437427 14.281782 6.7785496 13.78125 7.53125 13.78125 C 8.2807715 13.78125 8.9083365 14.286215 9.125 14.96875 C 9.1755651 14.811274 9.21875 14.643674 9.21875 14.46875 C 9.21875 13.544307 8.4556952 12.78125 7.53125 12.78125 z M 2 15.21875 L 2 16.21875 C 2 16.436754 2.1845195 16.625 2.40625 16.625 L 3.1875 16.625 C 3.2273136 16.774426 3.2559861 16.920665 3.3125 17.0625 L 3.65625 16.71875 C 3.4580509 16.377962 3.2913616 16.014807 3.1875 15.625 L 2.40625 15.625 C 2.1845195 15.625 2 15.436754 2 15.21875 z M 13.09375 15.21875 C 13.09375 15.436754 12.909284 15.624998 12.6875 15.625 L 11.90625 15.625 C 11.80239 16.014807 11.635699 16.377961 11.4375 16.71875 L 11.75 17.0625 C 11.808073 16.917745 11.865571 16.777674 11.90625 16.625 L 12.6875 16.625 C 12.909284 16.624998 13.09375 16.436754 13.09375 16.21875 L 13.09375 15.21875 z M 3.3125 18.0625 L 3.09375 18.28125 C 2.9369628 18.438037 2.9395871 18.689598 3.09375 18.84375 L 4.15625 19.90625 C 4.3104012 20.060403 4.5619627 20.063085 4.71875 19.90625 L 5.28125 19.34375 C 5.6220396 19.54195 5.9851938 19.708641 6.375 19.8125 L 6.375 20.59375 C 6.375 20.81548 6.5632443 21 6.78125 21 L 8.3125 21 C 8.530505 21 8.6875 20.81548 8.6875 20.59375 L 8.6875 19.8125 C 9.0773067 19.708635 9.4717107 19.54195 9.8125 19.34375 L 10.34375 19.90625 C 10.500535 20.063036 10.752098 20.060353 10.90625 19.90625 L 12 18.84375 C 12.154151 18.689597 12.156835 18.438037 12 18.28125 L 11.78125 18.0625 L 10.90625 18.90625 C 10.752098 19.060353 10.500535 19.063036 10.34375 18.90625 L 9.8125 18.34375 C 9.4717107 18.54195 9.0773067 18.708635 8.6875 18.8125 L 8.6875 19.59375 C 8.6875 19.81548 8.530505 20 8.3125 20 L 6.78125 20 C 6.5632443 20 6.375 19.81548 6.375 19.59375 L 6.375 18.8125 C 5.9851938 18.708641 5.6220396 18.54195 5.28125 18.34375 L 4.71875 18.90625 C 4.5619627 19.063085 4.3104012 19.060403 4.15625 18.90625 L 3.3125 18.0625 z "
       id="path3898" />
  </g>
</svg>
