<?xml version="1.0" encoding="UTF-8" standalone="no"?>
<!-- Created with Inkscape (http://www.inkscape.org/) -->

<svg
   xmlns:dc="http://purl.org/dc/elements/1.1/"
   xmlns:cc="http://creativecommons.org/ns#"
   xmlns:rdf="http://www.w3.org/1999/02/22-rdf-syntax-ns#"
   xmlns:svg="http://www.w3.org/2000/svg"
   xmlns="http://www.w3.org/2000/svg"
   xmlns:xlink="http://www.w3.org/1999/xlink"
   xmlns:sodipodi="http://sodipodi.sourceforge.net/DTD/sodipodi-0.dtd"
   xmlns:inkscape="http://www.inkscape.org/namespaces/inkscape"
   width="22"
   height="22"
   id="svg2"
   sodipodi:version="0.32"
   inkscape:version="0.91 r13725"
   version="1.0"
   sodipodi:docname="system-log-out.svg"
   inkscape:output_extension="org.inkscape.output.svg.inkscape"
   style="display:inline">
  <defs
     id="defs4">
    <linearGradient
       gradientUnits="userSpaceOnUse"
       y2="18.974037"
       x2="10.710332"
       y1="1.9963325"
       x1="10.710332"
       gradientTransform="matrix(0.9984539,0,0,0.9984539,-0.0459776,0.05767558)"
       id="linearGradient4176">
      <stop
         id="stop4178"
         offset="0"
         style="stop-color:#000000;stop-opacity:0.23529412" />
      <stop
         id="stop4180"
         offset="1"
         style="stop-color:#000000;stop-opacity:0.54901963" />
    </linearGradient>
    <inkscape:perspective
       sodipodi:type="inkscape:persp3d"
       inkscape:vp_x="0 : 11 : 1"
       inkscape:vp_y="0 : 1000 : 0"
       inkscape:vp_z="22 : 11 : 1"
       inkscape:persp3d-origin="11 : 7.3333333 : 1"
       id="perspective29" />
    <linearGradient
       id="linearGradient4081">
      <stop
         style="stop-color:#aaaaaa;stop-opacity:1;"
         offset="0"
         id="stop4083" />
      <stop
         style="stop-color:#f0f0f0;stop-opacity:1;"
         offset="1"
         id="stop4085" />
    </linearGradient>
    <linearGradient
       inkscape:collect="always"
       xlink:href="#linearGradient4081"
       id="linearGradient3527"
       gradientUnits="userSpaceOnUse"
       gradientTransform="translate(-39,0)"
       x1="6.8391123"
       y1="16.300354"
       x2="6.8391123"
       y2="6.0528178" />
    <linearGradient
       inkscape:collect="always"
       xlink:href="#linearGradient4081"
       id="linearGradient3538"
       gradientUnits="userSpaceOnUse"
       gradientTransform="translate(-39,0)"
       x1="16.5"
       y1="19.542921"
       x2="16.5"
       y2="2.5" />
    <linearGradient
       inkscape:collect="always"
       xlink:href="#linearGradient4081"
       id="linearGradient3540"
       gradientUnits="userSpaceOnUse"
       gradientTransform="translate(-39,0)"
       x1="14.524625"
       y1="17.41902"
       x2="14.524625"
       y2="4.625" />
    <linearGradient
       inkscape:collect="always"
       xlink:href="#linearGradient4081"
       id="linearGradient3542"
       gradientUnits="userSpaceOnUse"
       gradientTransform="translate(-39,0)"
       x1="10.50519"
       y1="15.28125"
       x2="10.50519"
       y2="6.7458849" />
    <linearGradient
       inkscape:collect="always"
       xlink:href="#linearGradient4081"
       id="linearGradient3266"
       x1="9"
       y1="4.5"
       x2="14"
       y2="4.5"
       gradientUnits="userSpaceOnUse"
       gradientTransform="matrix(0,-1,1,0,6,16)" />
    <linearGradient
       inkscape:collect="always"
       xlink:href="#linearGradient4081"
       id="linearGradient3274"
       x1="11.984375"
       y1="20"
       x2="11.984375"
       y2="7.96875"
       gradientUnits="userSpaceOnUse" />
    <linearGradient
       inkscape:collect="always"
       xlink:href="#linearGradient4081"
       id="linearGradient3280"
       gradientUnits="userSpaceOnUse"
       gradientTransform="matrix(0,-1,1,0,7,16)"
       x1="9"
       y1="4.5"
       x2="14"
       y2="4.5" />
    <linearGradient
       inkscape:collect="always"
       xlink:href="#linearGradient4081"
       id="linearGradient3287"
       gradientUnits="userSpaceOnUse"
       gradientTransform="matrix(0,-1,1,0,7,16)"
       x1="9"
       y1="4.5"
       x2="14"
       y2="4.5" />
    <linearGradient
       inkscape:collect="always"
       xlink:href="#linearGradient4081"
       id="linearGradient3293"
       gradientUnits="userSpaceOnUse"
       x1="11.984375"
       y1="20"
       x2="11.984375"
       y2="7.96875"
       gradientTransform="translate(-1,0)" />
    <linearGradient
       inkscape:collect="always"
       xlink:href="#linearGradient4081"
       id="linearGradient3180"
       x1="-13"
       y1="17.008953"
       x2="-13"
       y2="-0.70032859"
       gradientUnits="userSpaceOnUse" />
    <linearGradient
       inkscape:collect="always"
       xlink:href="#linearGradient4081"
       id="linearGradient3611"
       gradientUnits="userSpaceOnUse"
       gradientTransform="matrix(0,1,-1,0,19.861161,-1.0000002)"
       x1="14"
       y1="7.0000005"
       x2="1.9584055"
       y2="7.0000005" />
    <linearGradient
       inkscape:collect="always"
       xlink:href="#linearGradient4081"
       id="linearGradient3613"
       gradientUnits="userSpaceOnUse"
       gradientTransform="matrix(0,1,-1,0,19,2.9999999)"
       x1="14"
       y1="7.0000005"
       x2="1.9584055"
       y2="7.0000005" />
    <inkscape:perspective
       id="perspective4374"
       inkscape:persp3d-origin="0.5 : 0.33333333 : 1"
       inkscape:vp_z="1 : 0.5 : 1"
       inkscape:vp_y="0 : 1000 : 0"
       inkscape:vp_x="0 : 0.5 : 1"
       sodipodi:type="inkscape:persp3d" />
    <linearGradient
       inkscape:collect="always"
       xlink:href="#StandardGradient-1"
       id="linearGradient3833-8"
       x1="54"
       y1="3.5"
       x2="59"
       y2="3.5"
       gradientUnits="userSpaceOnUse"
       gradientTransform="translate(-58,53.861161)" />
    <linearGradient
       id="StandardGradient-1"
       gradientTransform="matrix(0.9984539,0,0,0.9984539,-0.0459776,0.05767558)"
       x1="10.710332"
       y1="1.9963325"
       x2="10.710332"
       y2="18.974037"
       gradientUnits="userSpaceOnUse">
      <stop
         style="stop-color:#000000;stop-opacity:0.86274511;"
         offset="0"
         id="stop3277-4" />
      <stop
         style="stop-color:#000000;stop-opacity:0.47058824;"
         offset="1"
         id="stop3279-3" />
    </linearGradient>
    <linearGradient
       y2="3.5"
       x2="59"
       y1="3.5"
       x1="54"
       gradientTransform="translate(-50,53.861161)"
       gradientUnits="userSpaceOnUse"
       id="linearGradient3829-0"
       xlink:href="#SpecificGradient-5"
       inkscape:collect="always" />
    <linearGradient
       id="SpecificGradient-5"
       x1="10.761708"
       y1="3.9999998"
       x2="10.761708"
       y2="18.011395"
       gradientUnits="userSpaceOnUse">
      <stop
         style="stop-color:#a50000;stop-opacity:1;"
         offset="0"
         id="stop3292-8" />
      <stop
         style="stop-color:#e73800;stop-opacity:1;"
         offset="1"
         id="stop3294-0" />
    </linearGradient>
    <linearGradient
       inkscape:collect="always"
       xlink:href="#StandardGradient-1"
       id="linearGradient3662"
       gradientUnits="userSpaceOnUse"
       gradientTransform="matrix(0,-1,-1,0,19,20)"
       x1="14"
       y1="7.0000005"
       x2="1.9584055"
       y2="7.0000005" />
    <linearGradient
       inkscape:collect="always"
       xlink:href="#StandardGradient-1"
       id="linearGradient3666"
       gradientUnits="userSpaceOnUse"
       gradientTransform="matrix(0,-1,-1,0,19.861161,14)"
       x1="14"
       y1="7.0000005"
       x2="1.9584055"
       y2="7.0000005" />
    <linearGradient
       inkscape:collect="always"
       xlink:href="#StandardGradient-1"
       id="linearGradient3671"
       gradientUnits="userSpaceOnUse"
       gradientTransform="matrix(0,-1,-1,0,-10.138839,14)"
       x1="14"
       y1="7.0000005"
       x2="1.9584055"
       y2="7.0000005" />
    <clipPath
       clipPathUnits="userSpaceOnUse"
       id="clipPath3676">
      <path
         style="fill:#ff00ff;fill-opacity:1;stroke:none;display:inline"
         d="m -29.138839,-5.0000001 0,22.0000001 21.9999997,0 0,-22.0000001 -21.9999997,0 z m 11,5 c 2.61165,0 4.832611,1.6692211 5.65625,4 l -2.21875,0 c -0.692339,-1.193787 -1.959054,-2 -3.4375,-2 -2.208,0 -4,1.792 -4,4 0,2.208 1.792,4 4,4 1.478446,0 2.745161,-0.806213 3.4375,-2 l 2.21875,0 C -13.306228,10.330778 -15.527189,12 -18.138839,12 c -3.312,0 -6,-2.6880001 -6,-6.0000001 0,-3.312 2.688,-6 6,-6 z m 1.5,5 5,0 c 0.277,0 0.5,0.223 0.5,0.5 l 0,1 c 0,0.277 -0.223,0.5 -0.5,0.5 l -5,0 c -0.277,0 -0.5,-0.223 -0.5,-0.5 l 0,-1 c 0,-0.277 0.223,-0.5 0.5,-0.5 z"
         id="path3678" />
    </clipPath>
    <radialGradient
       inkscape:collect="always"
       xlink:href="#linearGradient4176"
       id="radialGradient4174"
       cx="11.86116"
       cy="7.083333"
       fx="11.86116"
       fy="7.083333"
       r="6.5"
       gradientTransform="matrix(1.8461537,-3.2360841e-8,1.8877158e-8,1.076923,-10.036364,-0.62820448)"
       gradientUnits="userSpaceOnUse" />
  </defs>
  <sodipodi:namedview
     id="base"
     pagecolor="#676767"
     bordercolor="#e7e7e7"
     borderopacity="1"
     inkscape:pageopacity="0"
     inkscape:pageshadow="2"
     inkscape:zoom="18.303965"
     inkscape:cx="18.766381"
     inkscape:cy="13.570612"
     inkscape:document-units="px"
     inkscape:current-layer="layer1"
     showgrid="true"
     inkscape:showpageshadow="false"
     showguides="false"
     inkscape:guide-bbox="true"
     inkscape:window-width="1366"
     inkscape:window-height="718"
     inkscape:window-x="0"
     inkscape:window-y="25"
     inkscape:window-maximized="1"
     inkscape:snap-bbox="true"
     inkscape:bbox-paths="true"
     inkscape:bbox-nodes="true"
     inkscape:snap-bbox-midpoints="false"
     inkscape:snap-bbox-edge-midpoints="true">
    <sodipodi:guide
       orientation="1,0"
       position="0,112"
       id="guide2383" />
    <sodipodi:guide
       orientation="0,1"
       position="26.278146,128"
       id="guide2385" />
    <sodipodi:guide
       orientation="1,0"
       position="128,54.082119"
       id="guide2387" />
    <sodipodi:guide
       orientation="0,1"
       position="78.156291,0"
       id="guide2389" />
    <sodipodi:guide
       orientation="0,1"
       position="60.863576,64.084768"
       id="guide2391" />
    <inkscape:grid
       type="xygrid"
       id="grid3672"
       visible="true"
       enabled="true"
       empspacing="8"
       snapvisiblegridlinesonly="true" />
  </sodipodi:namedview>
  <metadata
     id="metadata7">
    <rdf:RDF>
      <cc:Work
         rdf:about="">
        <dc:format>image/svg+xml</dc:format>
        <dc:type
           rdf:resource="http://purl.org/dc/dcmitype/StillImage" />
        <dc:title></dc:title>
      </cc:Work>
    </rdf:RDF>
  </metadata>
  <g
     inkscape:label="Icon"
     inkscape:groupmode="layer"
     id="layer1"
     style="display:inline"
     transform="translate(-0.8611607,5.0000001)">
    <path
       style="fill:#ffffff;fill-opacity:1;fill-rule:nonzero;stroke:none;opacity:0.05"
       d="M 11 4.0625 C 7.1783392 4.0625 4.0625 7.1783395 4.0625 11 C 4.0625 14.821661 7.1783392 17.9375 11 17.9375 C 14.013017 17.9375 16.577444 16.011632 17.53125 13.3125 A 0.94205614 0.94205614 0 0 0 17.59375 12.90625 C 18.329381 12.850516 18.9375 12.247274 18.9375 11.5 L 18.9375 10.5 C 18.9375 9.7527254 18.329381 9.1494837 17.59375 9.09375 A 0.94205614 0.94205614 0 0 0 17.53125 8.6875 C 16.577444 5.9883667 14.013016 4.0625 11 4.0625 z M 11 5 C 13.61165 5 15.832611 6.6692211 16.65625 9 L 14.4375 9 C 13.745161 7.806213 12.478446 7 11 7 C 8.7919997 7 7 8.792 7 11 C 7 13.208 8.7919997 15 11 15 C 12.478446 15 13.745161 14.193787 14.4375 13 L 16.65625 13 C 15.832611 15.330778 13.61165 17 11 17 C 7.6879997 17 5 14.312 5 11 C 5 7.688 7.6879997 5 11 5 z M 11 7.9375 C 11.925032 7.9375 12.663756 8.4149035 13.21875 9.0625 L 12.5 9.0625 C 11.717446 9.0625 11.0625 9.7174463 11.0625 10.5 L 11.0625 11.5 C 11.0625 12.282554 11.717446 12.9375 12.5 12.9375 L 13.21875 12.9375 C 12.663756 13.585096 11.925032 14.0625 11 14.0625 C 9.30166 14.0625 7.9375 12.69834 7.9375 11 C 7.9375 9.3016605 9.30166 7.9375 11 7.9375 z M 12.5 10 L 17.5 10 C 17.777 10 18 10.223 18 10.5 L 18 11.5 C 18 11.777 17.777 12 17.5 12 L 12.5 12 C 12.223 12 12 11.777 12 11.5 L 12 10.5 C 12 10.223 12.223 10 12.5 10 z "
       transform="translate(0.8611607,-5.0000001)"
       id="path3843" />
    <path
       style="fill:url(#radialGradient4174);fill-opacity:1;fill-rule:nonzero;stroke:none"
       d="m 18.861161,6.4999997 c 0,0.277 -0.223,0.5 -0.5,0.5 l -5,0 c -0.277,0 -0.5,-0.223 -0.5,-0.5 l 0,-1 c 0,-0.2769999 0.223,-0.5 0.5,-0.5 l 5,0 c 0.277,0 0.5,0.2230001 0.5,0.5 l 0,1 z M 17.517411,8 c -0.823639,2.330778 -3.0446,4 -5.65625,4 -3.3120003,0 -6.0000003,-2.6880002 -6.0000003,-6.0000003 0,-3.312 2.688,-5.99999995 6.0000003,-5.99999995 2.61165,0 4.832611,1.66922105 5.65625,3.99999995 l -2.21875,0 c -0.692339,-1.193787 -1.959054,-1.9999999 -3.4375,-1.9999999 -2.2080003,0 -4.0000003,1.7919999 -4.0000003,3.9999999 0,2.2080002 1.792,4.0000003 4.0000003,4.0000003 1.478446,0 2.745161,-0.8062133 3.4375,-2 l 2.21875,0 z"
       id="path2401"
       inkscape:transform-center-x="-0.5" />
    <path
       style="fill:#000000;fill-opacity:1;fill-rule:nonzero;stroke:none;opacity:0.3"
       d="M 11 5 C 7.6879997 5 5 7.6879999 5 11 C 5 11.124406 5.0237742 11.252464 5.03125 11.375 C 5.3386914 8.3506835 7.8949997 6 11 6 C 13.219275 6 15.150126 7.2076461 16.1875 9 L 16.65625 9 C 15.832611 6.6692215 13.61165 5 11 5 z M 12.5 10 C 12.223 10 12 10.223 12 10.5 L 12 11.5 C 12 11.223 12.223 11 12.5 11 L 17.5 11 C 17.777 11 18 11.223 18 11.5 L 18 10.5 C 18 10.223 17.777 10 17.5 10 L 16.65625 10 L 14.4375 10 L 12.5 10 z M 7.0625 11.5 C 7.0418748 11.66447 7 11.829968 7 12 C 7 14.208 8.7919997 16 11 16 C 12.478446 16 13.745161 15.193787 14.4375 14 L 16.1875 14 C 16.370911 13.683106 16.532506 13.350177 16.65625 13 L 14.4375 13 C 13.745161 14.193787 12.478446 15 11 15 C 8.9620318 15 7.3097091 13.4713 7.0625 11.5 z "
       transform="translate(0.8611607,-5.0000001)"
       id="path3607" />
    <path
       style="fill:#ffffff;fill-opacity:1;fill-rule:nonzero;stroke:none;opacity:0.2"
       d="M 11 7 C 8.7919997 7 7 8.792 7 11 C 7 11.170032 7.0418748 11.33553 7.0625 11.5 C 7.3097091 9.5286998 8.9620318 8 11 8 C 12.478446 8 13.745161 8.806213 14.4375 10 L 16.65625 10 C 16.532506 9.6498229 16.370911 9.3168943 16.1875 9 L 14.4375 9 C 13.745161 7.806213 12.478446 7 11 7 z M 12 11.5 L 12 12.5 C 12 12.777 12.223 13 12.5 13 L 14.4375 13 L 16.65625 13 L 17.5 13 C 17.777 13 18 12.777 18 12.5 L 18 11.5 C 18 11.777 17.777 12 17.5 12 L 12.5 12 C 12.223 12 12 11.777 12 11.5 z M 5.03125 11.625 C 5.0237742 11.747536 5 11.875594 5 12 C 5 15.312 7.6879997 18 11 18 C 13.61165 18 15.832611 16.330778 16.65625 14 L 16.1875 14 C 15.150126 15.792354 13.219275 17 11 17 C 7.8949997 17 5.3386914 14.649316 5.03125 11.625 z "
       transform="translate(0.8611607,-5.0000001)"
       id="path3660" />
    <path
       style="color:#000000;font-style:normal;font-variant:normal;font-weight:normal;font-stretch:normal;font-size:medium;line-height:normal;font-family:sans-serif;text-indent:0;text-align:start;text-decoration:none;text-decoration-line:none;text-decoration-style:solid;text-decoration-color:#000000;letter-spacing:normal;word-spacing:normal;text-transform:none;direction:ltr;block-progression:tb;writing-mode:lr-tb;baseline-shift:baseline;text-anchor:start;white-space:normal;clip-rule:nonzero;display:inline;overflow:visible;visibility:visible;opacity:0.3;isolation:auto;mix-blend-mode:normal;color-interpolation:sRGB;color-interpolation-filters:linearRGB;solid-color:#000000;solid-opacity:1;fill:#000000;fill-opacity:1;fill-rule:nonzero;stroke:none;stroke-width:1.20000005;stroke-linecap:butt;stroke-linejoin:miter;stroke-miterlimit:4;stroke-dasharray:none;stroke-dashoffset:0;stroke-opacity:1;color-rendering:auto;image-rendering:auto;shape-rendering:auto;text-rendering:auto;enable-background:accumulate"
       d="m 11.861161,-1e-7 c -3.3120003,0 -6.0000003,2.6880001 -6.0000003,6 0,3.312 2.688,6.0000001 6.0000003,6.0000001 2.61165,0 4.832611,-1.669222 5.65625,-4.0000001 l -2.21875,0 c -0.692339,1.193787 -1.959054,2 -3.4375,2 -2.2080003,0 -4.0000003,-1.792 -4.0000003,-4 0,-2.208 1.792,-4 4.0000003,-4 1.478446,0 2.745161,0.8062131 3.4375,2 l 2.21875,0 c -0.823639,-2.3307789 -3.0446,-4 -5.65625,-4 z m 0,0.5996094 c 1.991988,0 3.554549,1.2016526 4.490234,2.8007812 l -0.828125,0 c -0.82864,-1.1693674 -2.118039,-2 -3.662109,-2 -2.5326383,0 -4.5996093,2.0669717 -4.5996093,4.5996094 0,2.532638 2.066971,4.5996091 4.5996093,4.5996091 1.54407,0 2.833469,-0.8306321 3.662109,-2.0000001 l 0.828125,0 c -0.935685,1.5991291 -2.498246,2.8007821 -4.490234,2.8007821 -2.9873623,0 -5.4003923,-2.4130291 -5.4003913,-5.4003911 0,-2.9873623 2.413029,-5.4003906 5.4003913,-5.4003906 z m 1.5,4.4003906 c -0.277,0 -0.5,0.223 -0.5,0.5 l 0,1 c 0,0.277 0.223,0.5 0.5,0.5 l 5,0 c 0.277,0 0.5,-0.223 0.5,-0.5 l 0,-1 c 0,-0.277 -0.223,-0.5 -0.5,-0.5 l -5,0 z m 0.09961,0.599609 4.800782,0 0,0.800782 -4.800782,0 0,-0.800782 z"
       id="path2401-0"
       inkscape:connector-curvature="0" />
  </g>
</svg>
