/* XPM */
static char *top[] = {
/* columns rows colors chars-per-pixel */
"22 22 7 1",
"  c #000000",
". c #020202",
"X c #0C0C0C",
"o c #0D0D0D",
"O c #0E0E0E",
"+ c #141414",
"@ c None",
/* pixels */
"@@@@@@@@@@@@@@@@@@@@@@",
"@@@@@@@@@@..@@@@@@@@@@",
"@@@@@@@@@....@@@@@@@@@",
"@@@@@@@@@X..X@@@@@@@@@",
"@@@@@@@@@@++@@@@@@@@@@",
"@@@@@@@@@@@@@@@@@@@@@@",
"@@@@@@@@@@@@@@@@@@@@@@",
"@@@@@@@@@@..@@@@@@@@@@",
"@@@@@@@@@.@@.@@@@@@@@@",
"@@@@@@@@.@@@@.@@@@@@@@",
"@@@@@@@.@@@@@@.@@@@@@@",
"@@@@@@.@@@@@@@@.@@@@@@",
"@@@@@.@@@@@@@@@@.@@@@@",
"@@@@.@@@@@@@@@@@@.@@@@",
"@@@@@@@@@@@@@@@@@@@@@@",
"@@@@@@@@@@@@@@@@@@@@@@",
"@@@@@@@@@@@@@@@@@@@@@@",
"@@@@@@@@@@@@@@@@@@@@@@",
"@@@@@@@@@@@@@@@@@@@@@@",
"@@@@@@@@@.@@@@@@@@@@@@",
"@@@@@@@@@X..X@@@@@@@@@",
"@@@@@@@@@@@@@@@@@@@@@@"
};
