<?xml version="1.0" encoding="UTF-8" standalone="no"?>
<!-- Created with Inkscape (http://www.inkscape.org/) -->

<svg
   xmlns:dc="http://purl.org/dc/elements/1.1/"
   xmlns:cc="http://creativecommons.org/ns#"
   xmlns:rdf="http://www.w3.org/1999/02/22-rdf-syntax-ns#"
   xmlns:svg="http://www.w3.org/2000/svg"
   xmlns="http://www.w3.org/2000/svg"
   xmlns:xlink="http://www.w3.org/1999/xlink"
   xmlns:sodipodi="http://sodipodi.sourceforge.net/DTD/sodipodi-0.dtd"
   xmlns:inkscape="http://www.inkscape.org/namespaces/inkscape"
   version="1.0"
   width="22"
   height="22"
   id="svg3196"
   inkscape:version="0.91 r13725"
   sodipodi:docname="view-list-compact-symbolic.svg">
  <metadata
     id="metadata21">
    <rdf:RDF>
      <cc:Work
         rdf:about="">
        <dc:format>image/svg+xml</dc:format>
        <dc:type
           rdf:resource="http://purl.org/dc/dcmitype/StillImage" />
        <dc:title></dc:title>
      </cc:Work>
    </rdf:RDF>
  </metadata>
  <sodipodi:namedview
     pagecolor="#747474"
     bordercolor="#666666"
     borderopacity="1"
     objecttolerance="10"
     gridtolerance="10"
     guidetolerance="10"
     inkscape:pageopacity="0"
     inkscape:pageshadow="2"
     inkscape:window-width="1366"
     inkscape:window-height="718"
     id="namedview19"
     showgrid="true"
     inkscape:zoom="19.54965"
     inkscape:cx="8.1425806"
     inkscape:cy="10.112202"
     inkscape:window-x="0"
     inkscape:window-y="25"
     inkscape:window-maximized="1"
     inkscape:current-layer="svg3196"
     borderlayer="true"
     inkscape:showpageshadow="false"
     inkscape:snap-bbox="true"
     inkscape:bbox-paths="true"
     inkscape:snap-bbox-edge-midpoints="true"
     inkscape:bbox-nodes="true">
    <inkscape:grid
       type="xygrid"
       id="grid2996"
       empspacing="8"
       visible="true"
       enabled="true"
       snapvisiblegridlinesonly="true" />
  </sodipodi:namedview>
  <defs
     id="defs3198">
    <linearGradient
       gradientUnits="userSpaceOnUse"
       y2="17.168188"
       x2="10.005832"
       y1="4.1631975"
       x1="10.005832"
       gradientTransform="matrix(1.0765258,0,0,0.9227364,-20.008013,0.1584665)"
       id="linearGradient4186">
      <stop
         style="stop-color:#000000;stop-opacity:0.23529412"
         offset="0"
         id="stop4188" />
      <stop
         style="stop-color:#000000;stop-opacity:0.54901963"
         offset="1"
         id="stop4190" />
    </linearGradient>
    <linearGradient
       id="linearGradient3587-6-5">
      <stop
         id="stop3589-9-2"
         style="stop-color:#000000;stop-opacity:1"
         offset="0" />
      <stop
         id="stop3591-7-4"
         style="stop-color:#363636;stop-opacity:1"
         offset="1" />
    </linearGradient>
    <linearGradient
       x1="1.3333321"
       y1="6.6666665"
       x2="1.3333321"
       y2="33.333332"
       id="linearGradient2422"
       xlink:href="#linearGradient3587-6-5"
       gradientUnits="userSpaceOnUse"
       gradientTransform="matrix(0.2727273,0,0,0.375,9.636365,1.5)" />
    <linearGradient
       x1="11"
       y1="6"
       x2="11"
       y2="17"
       id="linearGradient2427"
       xlink:href="#linearGradient3587-6-5"
       gradientUnits="userSpaceOnUse"
       gradientTransform="matrix(0.4651163,0,0,0.3370786,4.3953488,1.5842703)" />
    <linearGradient
       x1="11"
       y1="6"
       x2="11"
       y2="17"
       id="linearGradient2436"
       xlink:href="#linearGradient3587-6-5"
       gradientUnits="userSpaceOnUse"
       gradientTransform="matrix(0.4651163,0,0,0.3370786,4.3953488,9.58427)" />
    <linearGradient
       x1="11"
       y1="6"
       x2="11"
       y2="17"
       id="linearGradient2442"
       xlink:href="#linearGradient3587-6-5"
       gradientUnits="userSpaceOnUse"
       gradientTransform="matrix(0.4651163,0,0,0.3370786,4.3953488,5.5842706)" />
    <linearGradient
       inkscape:collect="always"
       xlink:href="#linearGradient3587-6-5"
       id="linearGradient3002"
       gradientUnits="userSpaceOnUse"
       gradientTransform="matrix(0.23863639,0,0,0.375,9.181819,1.5)"
       x1="1.3333321"
       y1="6.6666665"
       x2="1.3333321"
       y2="33.333332" />
    <linearGradient
       inkscape:collect="always"
       xlink:href="#linearGradient3587-6-5"
       id="linearGradient3016"
       gradientUnits="userSpaceOnUse"
       gradientTransform="matrix(0.23863639,0,0,0.375,10.181819,1.5)"
       x1="1.3333321"
       y1="6.6666665"
       x2="1.3333321"
       y2="33.333332" />
    <linearGradient
       inkscape:collect="always"
       xlink:href="#linearGradient3587-6-5"
       id="linearGradient3018"
       gradientUnits="userSpaceOnUse"
       gradientTransform="matrix(0.23863639,0,0,0.375,10.181819,1.5)"
       x1="1.3333321"
       y1="6.6666665"
       x2="1.3333321"
       y2="33.333332" />
    <linearGradient
       inkscape:collect="always"
       xlink:href="#linearGradient3587-6-5"
       id="linearGradient3020"
       gradientUnits="userSpaceOnUse"
       gradientTransform="matrix(0.23863639,0,0,0.375,10.181819,1.5)"
       x1="1.3333321"
       y1="6.6666665"
       x2="1.3333321"
       y2="33.333332" />
    <linearGradient
       inkscape:collect="always"
       xlink:href="#StandardGradient"
       id="linearGradient3023"
       gradientUnits="userSpaceOnUse"
       gradientTransform="matrix(0.23863639,0,0,0.375,10.181819,1.5)"
       x1="1.3333321"
       y1="4"
       x2="1.3333321"
       y2="33.333332" />
    <linearGradient
       id="StandardGradient"
       gradientTransform="matrix(1.0765258,0,0,0.9227364,-20.008013,0.1584665)"
       x1="10.005832"
       y1="4.1631975"
       x2="10.005832"
       y2="17.168188"
       gradientUnits="userSpaceOnUse">
      <stop
         id="stop3337"
         offset="0"
         style="stop-color:#000000;stop-opacity:0.86274511;" />
      <stop
         id="stop3339"
         offset="1"
         style="stop-color:#000000;stop-opacity:0.47058824;" />
    </linearGradient>
    <linearGradient
       y2="37.333332"
       x2="22"
       y1="4"
       x1="22"
       gradientTransform="matrix(0.3,0,0,0.3,28.4,6.8)"
       gradientUnits="userSpaceOnUse"
       id="linearGradient4448"
       xlink:href="#StandardGradient"
       inkscape:collect="always" />
    <linearGradient
       inkscape:collect="always"
       xlink:href="#StandardGradient"
       id="linearGradient3814"
       gradientUnits="userSpaceOnUse"
       gradientTransform="matrix(0.23863639,0,0,0.375,10.181819,2.5)"
       x1="1.3333321"
       y1="4"
       x2="1.3333321"
       y2="33.333332" />
    <linearGradient
       inkscape:collect="always"
       xlink:href="#StandardGradient"
       id="linearGradient3816"
       gradientUnits="userSpaceOnUse"
       gradientTransform="matrix(0.23863639,0,0,0.375,10.181819,1.5)"
       x1="1.3333321"
       y1="4"
       x2="1.3333321"
       y2="33.333332" />
    <linearGradient
       inkscape:collect="always"
       xlink:href="#StandardGradient"
       id="linearGradient3821"
       gradientUnits="userSpaceOnUse"
       gradientTransform="matrix(0.23863639,0,0,0.375,10.181819,2.5)"
       x1="1.3333321"
       y1="4"
       x2="1.3333321"
       y2="33.333332" />
    <linearGradient
       inkscape:collect="always"
       xlink:href="#StandardGradient"
       id="linearGradient3825"
       gradientUnits="userSpaceOnUse"
       gradientTransform="matrix(0.23863639,0,0,0.375,10.181819,1.5)"
       x1="1.3333321"
       y1="4"
       x2="1.3333321"
       y2="33.333332" />
    <linearGradient
       inkscape:collect="always"
       xlink:href="#StandardGradient"
       id="linearGradient3832"
       gradientUnits="userSpaceOnUse"
       gradientTransform="matrix(0.23863639,0,0,0.375,10.181819,1.5)"
       x1="1.3333321"
       y1="4"
       x2="1.3333321"
       y2="33.333332" />
    <linearGradient
       inkscape:collect="always"
       xlink:href="#StandardGradient"
       id="linearGradient3836"
       gradientUnits="userSpaceOnUse"
       gradientTransform="matrix(0.23863639,0,0,0.375,10.181819,1.5)"
       x1="1.3333321"
       y1="4"
       x2="1.3333321"
       y2="33.333332" />
    <linearGradient
       inkscape:collect="always"
       xlink:href="#StandardGradient"
       id="linearGradient3839"
       gradientUnits="userSpaceOnUse"
       gradientTransform="matrix(0.23863639,0,0,0.375,10.181819,0.5)"
       x1="1.3333321"
       y1="4"
       x2="1.3333321"
       y2="33.333332" />
    <linearGradient
       inkscape:collect="always"
       xlink:href="#StandardGradient"
       id="linearGradient3021"
       gradientUnits="userSpaceOnUse"
       gradientTransform="matrix(0.23863639,0,0,0.75,10.181819,-4)"
       x1="1.3333321"
       y1="4"
       x2="1.3333321"
       y2="33.333332" />
    <linearGradient
       inkscape:collect="always"
       xlink:href="#StandardGradient"
       id="linearGradient3024"
       gradientUnits="userSpaceOnUse"
       gradientTransform="matrix(0.31818185,0,0,0.5,12.909092,0.66666667)"
       x1="1.3333321"
       y1="4"
       x2="1.3333321"
       y2="33.333332" />
    <linearGradient
       inkscape:collect="always"
       xlink:href="#StandardGradient"
       id="linearGradient3026"
       gradientUnits="userSpaceOnUse"
       gradientTransform="matrix(0.31818185,0,0,0.5,12.909092,0)"
       x1="1.3333321"
       y1="4"
       x2="1.3333321"
       y2="33.333332" />
    <linearGradient
       inkscape:collect="always"
       xlink:href="#StandardGradient"
       id="linearGradient3028"
       gradientUnits="userSpaceOnUse"
       gradientTransform="matrix(0.23863639,0,0,0.75,10.181819,-2)"
       x1="1.3333321"
       y1="4"
       x2="1.3333321"
       y2="33.333332" />
    <linearGradient
       inkscape:collect="always"
       xlink:href="#StandardGradient"
       id="linearGradient3031"
       gradientUnits="userSpaceOnUse"
       gradientTransform="matrix(0.31818185,0,0,0.5,12.909092,7)"
       x1="1.3333321"
       y1="4"
       x2="1.3333321"
       y2="24" />
    <linearGradient
       inkscape:collect="always"
       xlink:href="#StandardGradient"
       id="linearGradient3037"
       gradientUnits="userSpaceOnUse"
       gradientTransform="matrix(0.31818185,0,0,0.5,12.909092,2)"
       x1="1.3333321"
       y1="4"
       x2="1.3333321"
       y2="24" />
    <linearGradient
       inkscape:collect="always"
       xlink:href="#StandardGradient"
       id="linearGradient3039"
       gradientUnits="userSpaceOnUse"
       gradientTransform="matrix(0.31818185,0,0,0.5,12.909092,1)"
       x1="1.3333321"
       y1="4"
       x2="1.3333321"
       y2="24" />
    <linearGradient
       inkscape:collect="always"
       xlink:href="#StandardGradient"
       id="linearGradient3812"
       gradientUnits="userSpaceOnUse"
       gradientTransform="matrix(0.31818185,0,0,0.5,12.909092,2)"
       x1="1.3333321"
       y1="4"
       x2="1.3333321"
       y2="24" />
    <linearGradient
       inkscape:collect="always"
       xlink:href="#StandardGradient"
       id="linearGradient3817"
       gradientUnits="userSpaceOnUse"
       gradientTransform="matrix(0.31818185,0,0,0.5,12.909092,1)"
       x1="1.3333321"
       y1="4"
       x2="1.3333321"
       y2="24" />
    <linearGradient
       inkscape:collect="always"
       xlink:href="#StandardGradient"
       id="linearGradient3824"
       gradientUnits="userSpaceOnUse"
       gradientTransform="matrix(0.31818185,0,0,0.5,12.909092,1)"
       x1="1.3333321"
       y1="4"
       x2="1.3333321"
       y2="24" />
    <linearGradient
       inkscape:collect="always"
       xlink:href="#StandardGradient"
       id="linearGradient3828"
       gradientUnits="userSpaceOnUse"
       gradientTransform="matrix(0.31818185,0,0,0.5,12.909092,1)"
       x1="1.3333321"
       y1="4"
       x2="1.3333321"
       y2="24" />
    <linearGradient
       inkscape:collect="always"
       xlink:href="#StandardGradient"
       id="linearGradient3032"
       gradientUnits="userSpaceOnUse"
       gradientTransform="matrix(0.31818185,0,0,0.5,13.909092,1)"
       x1="1.3333321"
       y1="4"
       x2="1.3333321"
       y2="24" />
    <linearGradient
       inkscape:collect="always"
       xlink:href="#StandardGradient"
       id="linearGradient3034"
       gradientUnits="userSpaceOnUse"
       gradientTransform="matrix(0.4545455,0,0,0.5,16.012989,1)"
       x1="1.3333321"
       y1="4"
       x2="1.3333321"
       y2="24" />
    <linearGradient
       inkscape:collect="always"
       xlink:href="#StandardGradient"
       id="linearGradient3036"
       gradientUnits="userSpaceOnUse"
       gradientTransform="matrix(0.4545455,0,0,0.5,16.012989,7)"
       x1="1.3333321"
       y1="4"
       x2="1.3333321"
       y2="24" />
    <linearGradient
       inkscape:collect="always"
       xlink:href="#StandardGradient"
       id="linearGradient3038"
       gradientUnits="userSpaceOnUse"
       gradientTransform="matrix(0.4545455,0,0,0.5,16.012989,7)"
       x1="1.3333321"
       y1="4"
       x2="1.3333321"
       y2="24" />
    <linearGradient
       inkscape:collect="always"
       xlink:href="#StandardGradient"
       id="linearGradient3040"
       gradientUnits="userSpaceOnUse"
       gradientTransform="matrix(0.31818185,0,0,0.5,13.909092,7)"
       x1="1.3333321"
       y1="4"
       x2="1.3333321"
       y2="24" />
    <linearGradient
       inkscape:collect="always"
       xlink:href="#StandardGradient"
       id="linearGradient3042"
       gradientUnits="userSpaceOnUse"
       gradientTransform="matrix(0.31818185,0,0,0.5,13.909092,7)"
       x1="1.3333321"
       y1="4"
       x2="1.3333321"
       y2="24" />
    <linearGradient
       inkscape:collect="always"
       xlink:href="#StandardGradient"
       id="linearGradient3051"
       gradientUnits="userSpaceOnUse"
       gradientTransform="matrix(0.31818185,0,0,0.5,13.909092,8)"
       x1="1.3333321"
       y1="-8"
       x2="1.3333321"
       y2="24" />
    <linearGradient
       inkscape:collect="always"
       xlink:href="#StandardGradient"
       id="linearGradient3053"
       gradientUnits="userSpaceOnUse"
       gradientTransform="matrix(0.31818185,0,0,0.5,13.909092,7)"
       x1="1.3333321"
       y1="-8"
       x2="1.3333321"
       y2="24" />
    <linearGradient
       inkscape:collect="always"
       xlink:href="#StandardGradient"
       id="linearGradient3826"
       gradientUnits="userSpaceOnUse"
       gradientTransform="matrix(0.31818185,0,0,0.5,13.909092,8)"
       x1="1.3333321"
       y1="-8"
       x2="1.3333321"
       y2="24" />
    <linearGradient
       inkscape:collect="always"
       xlink:href="#StandardGradient"
       id="linearGradient3830"
       gradientUnits="userSpaceOnUse"
       gradientTransform="matrix(0.31818185,0,0,0.5,13.909092,7)"
       x1="1.3333321"
       y1="-8"
       x2="1.3333321"
       y2="24" />
    <linearGradient
       inkscape:collect="always"
       xlink:href="#StandardGradient"
       id="linearGradient3837"
       gradientUnits="userSpaceOnUse"
       gradientTransform="matrix(0.31818185,0,0,0.5,13.909092,7)"
       x1="1.3333321"
       y1="-8"
       x2="1.3333321"
       y2="24" />
    <linearGradient
       inkscape:collect="always"
       xlink:href="#StandardGradient"
       id="linearGradient3841"
       gradientUnits="userSpaceOnUse"
       gradientTransform="matrix(0.31818185,0,0,0.5,13.909092,7)"
       x1="1.3333321"
       y1="-8"
       x2="1.3333321"
       y2="24" />
    <radialGradient
       inkscape:collect="always"
       xlink:href="#linearGradient4186"
       id="radialGradient4184"
       cx="11"
       cy="13"
       fx="11"
       fy="13"
       r="8"
       gradientUnits="userSpaceOnUse"
       gradientTransform="matrix(1.875,0,0,1.25,-9.625,-3.25)" />
  </defs>
  <path
     style="font-size:medium;font-style:normal;font-variant:normal;font-weight:normal;font-stretch:normal;text-indent:0;text-align:start;text-decoration:none;line-height:normal;letter-spacing:normal;word-spacing:normal;text-transform:none;direction:ltr;block-progression:tb;writing-mode:lr-tb;text-anchor:start;baseline-shift:baseline;color:#000000;fill:#ffffff;fill-opacity:1;stroke:none;stroke-width:0.99999994;marker:none;visibility:visible;display:inline;overflow:visible;enable-background:accumulate;font-family:Sans;-inkscape-font-specification:Sans;opacity:0.05"
     d="M 2.8125 2.03125 A 0.98402314 0.98402314 0 0 0 2.03125 3 L 2.03125 7 A 0.98402314 0.98402314 0 0 0 3 7.96875 L 7 7.96875 A 0.98402314 0.98402314 0 0 0 7.96875 7 L 7.96875 3 A 0.98402314 0.98402314 0 0 0 7 2.03125 L 3 2.03125 A 0.98402314 0.98402314 0 0 0 2.8125 2.03125 z M 3 3 L 7 3 L 7 7 L 3 7 L 3 3 z M 8.8125 3.03125 A 0.98402314 0.98402314 0 0 0 8.03125 4 L 8.03125 6 A 0.98402314 0.98402314 0 0 0 9 6.96875 L 19 6.96875 A 0.98402314 0.98402314 0 0 0 19.96875 6 L 19.96875 4 A 0.98402314 0.98402314 0 0 0 19 3.03125 L 9 3.03125 A 0.98402314 0.98402314 0 0 0 8.8125 3.03125 z M 9 4 L 19 4 L 19 6 L 9 6 L 9 4 z M 2.8125 8.03125 A 0.98402314 0.98402314 0 0 0 2.03125 9 L 2.03125 13 A 0.98402314 0.98402314 0 0 0 3 13.96875 L 7 13.96875 A 0.98402314 0.98402314 0 0 0 7.96875 13 L 7.96875 9 A 0.98402314 0.98402314 0 0 0 7 8.03125 L 3 8.03125 A 0.98402314 0.98402314 0 0 0 2.8125 8.03125 z M 3 9 L 7 9 L 7 13 L 3 13 L 3 9 z M 8.8125 9.03125 A 0.98402314 0.98402314 0 0 0 8.03125 10 L 8.03125 12 A 0.98402314 0.98402314 0 0 0 9 12.96875 L 19 12.96875 A 0.98402314 0.98402314 0 0 0 19.96875 12 L 19.96875 10 A 0.98402314 0.98402314 0 0 0 19 9.03125 L 9 9.03125 A 0.98402314 0.98402314 0 0 0 8.8125 9.03125 z M 9 10 L 19 10 L 19 12 L 9 12 L 9 10 z M 2.8125 14.03125 A 0.98402314 0.98402314 0 0 0 2.03125 15 L 2.03125 19 A 0.98402314 0.98402314 0 0 0 3 19.96875 L 7 19.96875 A 0.98402314 0.98402314 0 0 0 7.96875 19 L 7.96875 15 A 0.98402314 0.98402314 0 0 0 7 14.03125 L 3 14.03125 A 0.98402314 0.98402314 0 0 0 2.8125 14.03125 z M 3 15 L 7 15 L 7 19 L 3 19 L 3 15 z M 8.8125 15.03125 A 0.98402314 0.98402314 0 0 0 8.03125 16 L 8.03125 18 A 0.98402314 0.98402314 0 0 0 9 18.96875 L 19 18.96875 A 0.98402314 0.98402314 0 0 0 19.96875 18 L 19.96875 16 A 0.98402314 0.98402314 0 0 0 19 15.03125 L 9 15.03125 A 0.98402314 0.98402314 0 0 0 8.8125 15.03125 z M 9 16 L 19 16 L 19 18 L 9 18 L 9 16 z "
     id="path3839" />
  <path
     style="font-size:medium;font-style:normal;font-variant:normal;font-weight:normal;font-stretch:normal;text-indent:0;text-align:start;text-decoration:none;line-height:normal;letter-spacing:normal;word-spacing:normal;text-transform:none;direction:ltr;block-progression:tb;writing-mode:lr-tb;text-anchor:start;baseline-shift:baseline;color:#000000;fill:url(#radialGradient4184);fill-opacity:1;stroke:none;stroke-width:0.99999994;marker:none;visibility:visible;display:inline;overflow:visible;enable-background:accumulate;font-family:Sans;-inkscape-font-specification:Sans"
     d="M 3 3 L 3 7 L 7 7 L 7 3 L 3 3 z M 9 4 L 9 6 L 19 6 L 19 4 L 9 4 z M 3 9 L 3 13 L 7 13 L 7 9 L 3 9 z M 9 10 L 9 12 L 19 12 L 19 10 L 9 10 z M 3 15 L 3 19 L 7 19 L 7 15 L 3 15 z M 9 16 L 9 18 L 19 18 L 19 16 L 9 16 z "
     id="path3026" />
  <path
     style="font-size:medium;font-style:normal;font-variant:normal;font-weight:normal;font-stretch:normal;text-indent:0;text-align:start;text-decoration:none;line-height:normal;letter-spacing:normal;word-spacing:normal;text-transform:none;direction:ltr;block-progression:tb;writing-mode:lr-tb;text-anchor:start;baseline-shift:baseline;color:#000000;fill:#000000;fill-opacity:1;stroke:none;stroke-width:0.99999994;marker:none;visibility:visible;display:inline;overflow:visible;enable-background:accumulate;font-family:Sans;-inkscape-font-specification:Sans;opacity:0.3"
     d="M 3 3 L 3 4 L 7 4 L 7 3 L 3 3 z M 9 4 L 9 5 L 19 5 L 19 4 L 9 4 z M 3 9 L 3 10 L 7 10 L 7 9 L 3 9 z M 9 10 L 9 11 L 19 11 L 19 10 L 9 10 z M 3 15 L 3 16 L 7 16 L 7 15 L 3 15 z M 9 16 L 9 17 L 19 17 L 19 16 L 9 16 z "
     id="path3047" />
  <path
     style="font-size:medium;font-style:normal;font-variant:normal;font-weight:normal;font-stretch:normal;text-indent:0;text-align:start;text-decoration:none;line-height:normal;letter-spacing:normal;word-spacing:normal;text-transform:none;direction:ltr;block-progression:tb;writing-mode:lr-tb;text-anchor:start;baseline-shift:baseline;color:#000000;fill:#ffffff;fill-opacity:1;stroke:none;stroke-width:0.99999994;marker:none;visibility:visible;display:inline;overflow:visible;enable-background:accumulate;font-family:Sans;-inkscape-font-specification:Sans;opacity:0.2"
     d="M 9 6 L 9 7 L 19 7 L 19 6 L 9 6 z M 3 7 L 3 8 L 7 8 L 7 7 L 3 7 z M 9 12 L 9 13 L 19 13 L 19 12 L 9 12 z M 3 13 L 3 14 L 7 14 L 7 13 L 3 13 z M 9 18 L 9 19 L 19 19 L 19 18 L 9 18 z M 3 19 L 3 20 L 7 20 L 7 19 L 3 19 z "
     id="path3824" />
  <path
     style="color:#000000;font-style:normal;font-variant:normal;font-weight:normal;font-stretch:normal;font-size:medium;line-height:normal;font-family:Sans;-inkscape-font-specification:Sans;text-indent:0;text-align:start;text-decoration:none;text-decoration-line:none;text-decoration-style:solid;text-decoration-color:#000000;letter-spacing:normal;word-spacing:normal;text-transform:none;direction:ltr;block-progression:tb;writing-mode:lr-tb;baseline-shift:baseline;text-anchor:start;white-space:normal;clip-rule:nonzero;display:inline;overflow:visible;visibility:visible;opacity:0.3;isolation:auto;mix-blend-mode:normal;color-interpolation:sRGB;color-interpolation-filters:linearRGB;solid-color:#000000;solid-opacity:1;fill:#000000;fill-opacity:1;fill-rule:nonzero;stroke:none;stroke-width:1.20000005;stroke-linecap:butt;stroke-linejoin:miter;stroke-miterlimit:4;stroke-dasharray:none;stroke-dashoffset:0;stroke-opacity:1;marker:none;color-rendering:auto;image-rendering:auto;shape-rendering:auto;text-rendering:auto;enable-background:accumulate"
     d="M 3,3 3,7 7,7 7,3 3,3 Z m 0.599609,0.5996094 2.800782,0 0,2.8007812 -2.800782,0 0,-2.8007812 z M 9,4 9,6 19,6 19,4 9,4 Z m 0.599609,0.5996094 8.800782,0 0,0.8007812 -8.800782,0 0,-0.8007812 z M 3,9 3,13 7,13 7,9 3,9 Z m 0.599609,0.5996094 2.800782,0 0,2.8007816 -2.800782,0 0,-2.8007816 z M 9,10 l 0,2 10,0 0,-2 -10,0 z m 0.599609,0.599609 8.800782,0 0,0.800782 -8.800782,0 0,-0.800782 z M 3,15 l 0,4 4,0 0,-4 -4,0 z m 0.599609,0.599609 2.800782,0 0,2.800782 -2.800782,0 0,-2.800782 z M 9,16 l 0,2 10,0 0,-2 -10,0 z m 0.599609,0.599609 8.800782,0 0,0.800782 -8.800782,0 0,-0.800782 z"
     id="path3026-8"
     inkscape:connector-curvature="0" />
</svg>
