<?xml version="1.0" encoding="UTF-8" standalone="no"?>
<!-- Created with Inkscape (http://www.inkscape.org/) -->

<svg
   xmlns:dc="http://purl.org/dc/elements/1.1/"
   xmlns:cc="http://creativecommons.org/ns#"
   xmlns:rdf="http://www.w3.org/1999/02/22-rdf-syntax-ns#"
   xmlns:svg="http://www.w3.org/2000/svg"
   xmlns="http://www.w3.org/2000/svg"
   xmlns:xlink="http://www.w3.org/1999/xlink"
   xmlns:sodipodi="http://sodipodi.sourceforge.net/DTD/sodipodi-0.dtd"
   xmlns:inkscape="http://www.inkscape.org/namespaces/inkscape"
   version="1.0"
   width="22"
   height="22"
   id="svg3196"
   sodipodi:version="0.32"
   inkscape:version="0.91 r13725"
   sodipodi:docname="view-list-details-symbolic.svg"
   inkscape:output_extension="org.inkscape.output.svg.inkscape">
  <metadata
     id="metadata11">
    <rdf:RDF>
      <cc:Work
         rdf:about="">
        <dc:format>image/svg+xml</dc:format>
        <dc:type
           rdf:resource="http://purl.org/dc/dcmitype/StillImage" />
        <dc:title></dc:title>
      </cc:Work>
    </rdf:RDF>
  </metadata>
  <sodipodi:namedview
     inkscape:window-height="718"
     inkscape:window-width="1366"
     inkscape:pageshadow="2"
     inkscape:pageopacity="0"
     guidetolerance="10.0"
     gridtolerance="10.0"
     objecttolerance="10.0"
     borderopacity="1.0"
     bordercolor="#666666"
     pagecolor="#767676"
     id="base"
     showgrid="true"
     inkscape:zoom="14.541709"
     inkscape:cx="14.242373"
     inkscape:cy="15.713575"
     inkscape:window-x="0"
     inkscape:window-y="25"
     inkscape:current-layer="svg3196"
     inkscape:window-maximized="1"
     borderlayer="true"
     inkscape:showpageshadow="false">
    <inkscape:grid
       type="xygrid"
       id="grid3019"
       empspacing="8"
       visible="true"
       enabled="true"
       snapvisiblegridlinesonly="true" />
  </sodipodi:namedview>
  <defs
     id="defs3198">
    <linearGradient
       gradientUnits="userSpaceOnUse"
       y2="17.168188"
       x2="10.005832"
       y1="4.1631975"
       x1="10.005832"
       gradientTransform="matrix(1.0765258,0,0,0.9227364,-20.008013,0.1584665)"
       id="linearGradient4172">
      <stop
         style="stop-color:#000000;stop-opacity:0.23529412"
         offset="0"
         id="stop4174" />
      <stop
         style="stop-color:#000000;stop-opacity:0.54901963"
         offset="1"
         id="stop4176" />
    </linearGradient>
    <linearGradient
       id="linearGradient3587-6-5">
      <stop
         id="stop3589-9-2"
         style="stop-color:#000000;stop-opacity:1"
         offset="0" />
      <stop
         id="stop3591-7-4"
         style="stop-color:#363636;stop-opacity:1"
         offset="1" />
    </linearGradient>
    <linearGradient
       x1="1.3333321"
       y1="6.6666665"
       x2="1.3333321"
       y2="33.333332"
       id="linearGradient2422"
       xlink:href="#linearGradient3587-6-5"
       gradientUnits="userSpaceOnUse"
       gradientTransform="matrix(0.4090909,0,0,0.375,7.4545459,0.5)" />
    <linearGradient
       inkscape:collect="always"
       xlink:href="#linearGradient3587-6-5"
       id="linearGradient2999"
       gradientUnits="userSpaceOnUse"
       gradientTransform="matrix(0.4090909,0,0,0.75,7.4545459,-6)"
       x1="1.3333321"
       y1="6.6666665"
       x2="1.3333321"
       y2="33.333332" />
    <linearGradient
       inkscape:collect="always"
       xlink:href="#linearGradient3587-6-5"
       id="linearGradient3005"
       gradientUnits="userSpaceOnUse"
       gradientTransform="matrix(0.4090909,0,0,0.375,7.4545459,0.5)"
       x1="1.3333321"
       y1="6.6666665"
       x2="1.3333321"
       y2="33.333332" />
    <linearGradient
       inkscape:collect="always"
       xlink:href="#linearGradient3587-6-5"
       id="linearGradient3011"
       gradientUnits="userSpaceOnUse"
       gradientTransform="matrix(0.4090909,0,0,0.75,7.4545459,-2)"
       x1="1.3333321"
       y1="6.6666665"
       x2="1.3333321"
       y2="33.333332" />
    <linearGradient
       inkscape:collect="always"
       xlink:href="#linearGradient3587-6-5"
       id="linearGradient3017"
       gradientUnits="userSpaceOnUse"
       gradientTransform="matrix(0.4090909,0,0,0.75,7.4545459,-4)"
       x1="1.3333321"
       y1="6.6666665"
       x2="1.3333321"
       y2="33.333332" />
    <linearGradient
       inkscape:collect="always"
       xlink:href="#StandardGradient"
       id="linearGradient3112"
       gradientUnits="userSpaceOnUse"
       gradientTransform="matrix(0.3,0,0,0.3,7.4,1.8)"
       x1="22"
       y1="4"
       x2="22"
       y2="37.333332" />
    <linearGradient
       id="StandardGradient"
       gradientTransform="matrix(1.0765258,0,0,0.9227364,-20.008013,0.1584665)"
       x1="10.005832"
       y1="4.1631975"
       x2="10.005832"
       y2="17.168188"
       gradientUnits="userSpaceOnUse">
      <stop
         id="stop3337"
         offset="0"
         style="stop-color:#000000;stop-opacity:0.86274511;" />
      <stop
         id="stop3339"
         offset="1"
         style="stop-color:#000000;stop-opacity:0.47058824;" />
    </linearGradient>
    <linearGradient
       y2="37.333332"
       x2="22"
       y1="4"
       x1="22"
       gradientTransform="matrix(0.3,0,0,0.3,16.4,3.8)"
       gradientUnits="userSpaceOnUse"
       id="linearGradient4465"
       xlink:href="#StandardGradient"
       inkscape:collect="always" />
    <linearGradient
       inkscape:collect="always"
       xlink:href="#StandardGradient"
       id="linearGradient3807"
       gradientUnits="userSpaceOnUse"
       gradientTransform="matrix(0.54545453,0,0,0.75,10.272728,2)"
       x1="1.3333321"
       y1="9.333333"
       x2="1.3333321"
       y2="22.666666" />
    <linearGradient
       inkscape:collect="always"
       xlink:href="#StandardGradient"
       id="linearGradient3813"
       gradientUnits="userSpaceOnUse"
       gradientTransform="matrix(0.4090909,0,0,0.75,7.4545459,-3)"
       x1="1.3333321"
       y1="9.333333"
       x2="1.3333321"
       y2="22.666666" />
    <linearGradient
       inkscape:collect="always"
       xlink:href="#StandardGradient"
       id="linearGradient3815"
       gradientUnits="userSpaceOnUse"
       gradientTransform="matrix(0.4090909,0,0,0.75,7.4545459,-4)"
       x1="1.3333321"
       y1="9.333333"
       x2="1.3333321"
       y2="22.666666" />
    <linearGradient
       inkscape:collect="always"
       xlink:href="#StandardGradient"
       id="linearGradient3824"
       gradientUnits="userSpaceOnUse"
       gradientTransform="matrix(0.4090909,0,0,0.75,7.4545459,-4)"
       x1="1.3333321"
       y1="9.333333"
       x2="1.3333321"
       y2="22.666666" />
    <linearGradient
       inkscape:collect="always"
       xlink:href="#StandardGradient"
       id="linearGradient3828"
       gradientUnits="userSpaceOnUse"
       gradientTransform="matrix(0.4090909,0,0,0.75,7.4545459,-4)"
       x1="1.3333321"
       y1="9.333333"
       x2="1.3333321"
       y2="22.666666" />
    <linearGradient
       inkscape:collect="always"
       xlink:href="#StandardGradient"
       id="linearGradient3012"
       gradientUnits="userSpaceOnUse"
       gradientTransform="matrix(0.54545453,0,0,0.75,10.272728,-2)"
       x1="1.3333321"
       y1="9.333333"
       x2="1.3333321"
       y2="22.666666" />
    <linearGradient
       inkscape:collect="always"
       xlink:href="#StandardGradient"
       id="linearGradient3014"
       gradientUnits="userSpaceOnUse"
       gradientTransform="matrix(0.54545453,0,0,0.75,10.272728,2)"
       x1="1.3333321"
       y1="9.333333"
       x2="1.3333321"
       y2="22.666666" />
    <linearGradient
       inkscape:collect="always"
       xlink:href="#StandardGradient"
       id="linearGradient3024"
       gradientUnits="userSpaceOnUse"
       gradientTransform="matrix(0.54545453,0,0,0.75,10.272728,2)"
       x1="1.3333321"
       y1="4"
       x2="1.3333321"
       y2="22.666666" />
    <linearGradient
       inkscape:collect="always"
       xlink:href="#StandardGradient"
       id="linearGradient3026"
       gradientUnits="userSpaceOnUse"
       gradientTransform="matrix(0.54545453,0,0,0.75,10.272728,1)"
       x1="1.3333321"
       y1="4"
       x2="1.3333321"
       y2="22.666666" />
    <linearGradient
       inkscape:collect="always"
       xlink:href="#StandardGradient"
       id="linearGradient3801"
       gradientUnits="userSpaceOnUse"
       gradientTransform="matrix(0.54545453,0,0,0.75,10.272728,1)"
       x1="1.3333321"
       y1="4"
       x2="1.3333321"
       y2="22.666666" />
    <linearGradient
       inkscape:collect="always"
       xlink:href="#StandardGradient"
       id="linearGradient3805"
       gradientUnits="userSpaceOnUse"
       gradientTransform="matrix(0.54545453,0,0,0.75,10.272728,1)"
       x1="1.3333321"
       y1="4"
       x2="1.3333321"
       y2="22.666666" />
    <radialGradient
       inkscape:collect="always"
       xlink:href="#linearGradient4172"
       id="radialGradient4162"
       cx="11"
       cy="13.285714"
       fx="11"
       fy="13.285714"
       r="8"
       gradientTransform="matrix(1.75,-3.4467813e-8,3.465788e-8,1.125,-8.2500004,-1.9464279)"
       gradientUnits="userSpaceOnUse" />
  </defs>
  <path
     style="font-size:medium;font-style:normal;font-variant:normal;font-weight:normal;font-stretch:normal;text-indent:0;text-align:start;text-decoration:none;line-height:normal;letter-spacing:normal;word-spacing:normal;text-transform:none;direction:ltr;block-progression:tb;writing-mode:lr-tb;text-anchor:start;baseline-shift:baseline;color:#000000;fill:#ffffff;fill-opacity:1;stroke:none;stroke-width:1;marker:none;visibility:visible;display:inline;overflow:visible;enable-background:accumulate;font-family:Sans;-inkscape-font-specification:Sans;opacity:0.05"
     d="M 2.8125 3 A 1.001373 1.001373 0 0 0 2 4 L 2 6 A 1.001373 1.001373 0 0 0 2.8125 7 A 1.001373 1.001373 0 0 0 2 8 L 2 10 A 1.001373 1.001373 0 0 0 2.8125 11 A 1.001373 1.001373 0 0 0 2 12 L 2 14 A 1.001373 1.001373 0 0 0 2.8125 15 A 1.001373 1.001373 0 0 0 2 16 L 2 18 A 1.001373 1.001373 0 0 0 3 19 L 19 19 A 1.001373 1.001373 0 0 0 20 18 L 20 16 A 1.001373 1.001373 0 0 0 19.1875 15 A 1.001373 1.001373 0 0 0 20 14 L 20 12 A 1.001373 1.001373 0 0 0 19.1875 11 A 1.001373 1.001373 0 0 0 20 10 L 20 8 A 1.001373 1.001373 0 0 0 19.1875 7 A 1.001373 1.001373 0 0 0 20 6 L 20 4 A 1.001373 1.001373 0 0 0 19 3 L 3 3 A 1.001373 1.001373 0 0 0 2.90625 3 A 1.001373 1.001373 0 0 0 2.8125 3 z M 3 4 L 19 4 L 19 6 L 3 6 L 3 4 z M 3 8 L 19 8 L 19 10 L 3 10 L 3 8 z M 3 12 L 19 12 L 19 14 L 3 14 L 3 12 z M 3 16 L 19 16 L 19 18 L 3 18 L 3 16 z "
     id="path3803" />
  <path
     style="font-size:medium;font-style:normal;font-variant:normal;font-weight:normal;font-stretch:normal;text-indent:0;text-align:start;text-decoration:none;line-height:normal;letter-spacing:normal;word-spacing:normal;text-transform:none;direction:ltr;block-progression:tb;writing-mode:lr-tb;text-anchor:start;baseline-shift:baseline;color:#000000;fill:url(#radialGradient4162);fill-opacity:1;stroke:none;stroke-width:1;marker:none;visibility:visible;display:inline;overflow:visible;enable-background:accumulate;font-family:Sans;-inkscape-font-specification:Sans"
     d="M 3,4 3,6 19,6 19,4 3,4 z m 0,4 0,2 16,0 0,-2 -16,0 z m 0,4 0,2 16,0 0,-2 -16,0 z m 0,4 0,2 16,0 0,-2 -16,0 z"
     id="path3008"
     inkscape:connector-curvature="0" />
  <path
     style="font-size:medium;font-style:normal;font-variant:normal;font-weight:normal;font-stretch:normal;text-indent:0;text-align:start;text-decoration:none;line-height:normal;letter-spacing:normal;word-spacing:normal;text-transform:none;direction:ltr;block-progression:tb;writing-mode:lr-tb;text-anchor:start;baseline-shift:baseline;color:#000000;fill:#000000;fill-opacity:1;stroke:none;stroke-width:1;marker:none;visibility:visible;display:inline;overflow:visible;enable-background:accumulate;font-family:Sans;-inkscape-font-specification:Sans;opacity:0.5"
     d="M 3 4 L 3 5 L 19 5 L 19 4 L 3 4 z M 3 8 L 3 9 L 19 9 L 19 8 L 3 8 z M 3 12 L 3 13 L 19 13 L 19 12 L 3 12 z M 3 16 L 3 17 L 19 17 L 19 16 L 3 16 z "
     id="path3020" />
  <path
     id="path3797"
     d="M 3,6 3,7 19,7 19,6 3,6 z m 0,4 0,1 16,0 0,-1 -16,0 z m 0,4 0,1 16,0 0,-1 -16,0 z m 0,4 0,1 16,0 0,-1 -16,0 z"
     style="font-size:medium;font-style:normal;font-variant:normal;font-weight:normal;font-stretch:normal;text-indent:0;text-align:start;text-decoration:none;line-height:normal;letter-spacing:normal;word-spacing:normal;text-transform:none;direction:ltr;block-progression:tb;writing-mode:lr-tb;text-anchor:start;baseline-shift:baseline;opacity:0.20000001;color:#000000;fill:#ffffff;fill-opacity:1;stroke:none;stroke-width:1;marker:none;visibility:visible;display:inline;overflow:visible;enable-background:accumulate;font-family:Sans;-inkscape-font-specification:Sans"
     inkscape:connector-curvature="0" />
</svg>
