<?xml version="1.0" encoding="UTF-8" standalone="no"?>
<!-- Created with Inkscape (http://www.inkscape.org/) -->

<svg
   xmlns:dc="http://purl.org/dc/elements/1.1/"
   xmlns:cc="http://creativecommons.org/ns#"
   xmlns:rdf="http://www.w3.org/1999/02/22-rdf-syntax-ns#"
   xmlns:svg="http://www.w3.org/2000/svg"
   xmlns="http://www.w3.org/2000/svg"
   xmlns:xlink="http://www.w3.org/1999/xlink"
   xmlns:sodipodi="http://sodipodi.sourceforge.net/DTD/sodipodi-0.dtd"
   xmlns:inkscape="http://www.inkscape.org/namespaces/inkscape"
   width="22"
   height="22"
   id="svg2"
   sodipodi:version="0.32"
   inkscape:version="0.91 r13725"
   version="1.0"
   sodipodi:docname="view-sort-descending.svg"
   inkscape:output_extension="org.inkscape.output.svg.inkscape">
  <defs
     id="defs4">
    <linearGradient
       gradientUnits="userSpaceOnUse"
       y2="18.097509"
       x2="11.162445"
       y1="5.6551228"
       x1="11.162445"
       gradientTransform="scale(1.1310246,0.8841541)"
       id="linearGradient4165">
      <stop
         id="stop4167"
         offset="0"
         style="stop-color:#000000;stop-opacity:0.23619632" />
      <stop
         id="stop4169"
         offset="1"
         style="stop-color:#000000;stop-opacity:0.54901963" />
    </linearGradient>
    <inkscape:perspective
       sodipodi:type="inkscape:persp3d"
       inkscape:vp_x="0 : 11 : 1"
       inkscape:vp_y="0 : 1000 : 0"
       inkscape:vp_z="22 : 11 : 1"
       inkscape:persp3d-origin="11 : 7.3333333 : 1"
       id="perspective18" />
    <linearGradient
       id="StandardGradient"
       gradientTransform="scale(1.1310246,0.8841541)"
       x1="11.162445"
       y1="5.6551228"
       x2="11.162445"
       y2="18.097509"
       gradientUnits="userSpaceOnUse">
      <stop
         style="stop-color:#000000;stop-opacity:0.86274511;"
         offset="0"
         id="stop3280" />
      <stop
         style="stop-color:#000000;stop-opacity:0.47058824;"
         offset="1"
         id="stop3282" />
    </linearGradient>
    <inkscape:perspective
       id="perspective2850"
       inkscape:persp3d-origin="0.5 : 0.33333333 : 1"
       inkscape:vp_z="1 : 0.5 : 1"
       inkscape:vp_y="0 : 1000 : 0"
       inkscape:vp_x="0 : 0.5 : 1"
       sodipodi:type="inkscape:persp3d" />
    <linearGradient
       inkscape:collect="always"
       xlink:href="#StandardGradient"
       id="linearGradient3627"
       gradientUnits="userSpaceOnUse"
       gradientTransform="matrix(1.1310246,0,0,0.8841541,-30,0)"
       x1="11.162445"
       y1="5.6551228"
       x2="11.162445"
       y2="18.097509" />
    <linearGradient
       inkscape:collect="always"
       xlink:href="#StandardGradient"
       id="linearGradient3634"
       gradientUnits="userSpaceOnUse"
       gradientTransform="matrix(1.1310246,0,0,0.8841541,-30,20)"
       x1="11.162445"
       y1="5.6551228"
       x2="11.162445"
       y2="18.097509" />
    <clipPath
       clipPathUnits="userSpaceOnUse"
       id="clipPath3637">
      <path
         style="fill:#ff00ff;fill-opacity:1;stroke:none;display:inline"
         d="m -30,0 0,22 22,0 0,-22 -22,0 z m 15.03125,5 3.03125,0 0,5 c 0,1.662 -1.337999,3 -3,3 l -5,0 0,3 L -26,11.5625 -19.9375,7 l 0,2.96875 2.96875,0 c 1.671127,0 2,-0.360122 2,-2.03125 l 0,-2.9375 z"
         id="path3639" />
    </clipPath>
    <linearGradient
       inkscape:collect="always"
       xlink:href="#StandardGradient"
       id="linearGradient5224"
       gradientUnits="userSpaceOnUse"
       gradientTransform="scale(1.1310246,0.8841541)"
       x1="11.162445"
       y1="5.6551228"
       x2="11.162445"
       y2="18.097509" />
    <linearGradient
       inkscape:collect="always"
       xlink:href="#StandardGradient"
       id="linearGradient5228"
       gradientUnits="userSpaceOnUse"
       gradientTransform="scale(1.1310246,0.8841541)"
       x1="11.162445"
       y1="5.6551228"
       x2="11.162445"
       y2="18.097509" />
    <linearGradient
       inkscape:collect="always"
       xlink:href="#StandardGradient"
       id="linearGradient3860"
       gradientUnits="userSpaceOnUse"
       gradientTransform="matrix(0,-1.1310246,0.8841541,0,3,17)"
       x1="13.262311"
       y1="6.7861471"
       x2="-2.6524622"
       y2="6.7861471" />
    <linearGradient
       id="StandardGradient-5"
       gradientTransform="matrix(1.0765258,0,0,0.9227364,-0.00801316,0.1584665)"
       x1="10.005832"
       y1="4.1631975"
       x2="10.005832"
       y2="17.168188"
       gradientUnits="userSpaceOnUse">
      <stop
         id="stop3337"
         offset="0"
         style="stop-color:#ebebeb;stop-opacity:1;" />
      <stop
         id="stop3339"
         offset="1"
         style="stop-color:#aaaaaa;stop-opacity:1;" />
    </linearGradient>
    <radialGradient
       inkscape:collect="always"
       xlink:href="#linearGradient4165"
       id="radialGradient4163"
       cx="13"
       cy="17.666666"
       fx="13"
       fy="17.666666"
       r="7.5"
       gradientTransform="matrix(1.6,-7.0971554e-8,1.0054303e-7,2.2666666,-7.8000014,-21.044441)"
       gradientUnits="userSpaceOnUse" />
  </defs>
  <sodipodi:namedview
     id="base"
     pagecolor="#797979"
     bordercolor="#9a9a9a"
     borderopacity="1"
     inkscape:pageopacity="0"
     inkscape:pageshadow="2"
     inkscape:zoom="18.064397"
     inkscape:cx="17.103978"
     inkscape:cy="8.6002809"
     inkscape:document-units="px"
     inkscape:current-layer="layer3"
     showgrid="true"
     inkscape:showpageshadow="false"
     showguides="true"
     inkscape:guide-bbox="true"
     inkscape:window-width="1366"
     inkscape:window-height="718"
     inkscape:window-x="0"
     inkscape:window-y="25"
     inkscape:window-maximized="1"
     inkscape:snap-bbox="true"
     inkscape:bbox-paths="true"
     inkscape:bbox-nodes="true"
     inkscape:snap-bbox-midpoints="false"
     inkscape:snap-bbox-edge-midpoints="true">
    <sodipodi:guide
       orientation="1,0"
       position="0,112"
       id="guide2383" />
    <sodipodi:guide
       orientation="0,1"
       position="26.278146,128"
       id="guide2385" />
    <sodipodi:guide
       orientation="1,0"
       position="128,54.082119"
       id="guide2387" />
    <sodipodi:guide
       orientation="0,1"
       position="78.156291,0"
       id="guide2389" />
    <inkscape:grid
       type="xygrid"
       id="grid3672"
       visible="true"
       enabled="true" />
  </sodipodi:namedview>
  <metadata
     id="metadata7">
    <rdf:RDF>
      <cc:Work
         rdf:about="">
        <dc:format>image/svg+xml</dc:format>
        <dc:type
           rdf:resource="http://purl.org/dc/dcmitype/StillImage" />
        <dc:title></dc:title>
      </cc:Work>
    </rdf:RDF>
  </metadata>
  <g
     inkscape:groupmode="layer"
     id="layer3"
     inkscape:label="Cross"
     style="display:inline">
    <path
       inkscape:connector-curvature="0"
       style="opacity:0.05;fill:#ffffff;fill-opacity:1;stroke:none;display:inline"
       d="M 5.5,1.03125 C 4.1512009,1.03125 3.03125,2.1512008 3.03125,3.5 3.03125,4.8487992 4.1512009,5.96875 5.5,5.96875 6.8487991,5.96875 7.96875,4.8487992 7.96875,3.5 7.96875,2.1512008 6.8487991,1.03125 5.5,1.03125 z M 5.5,2 C 6.328427,2 7,2.6715729 7,3.5 7,4.3284271 6.328427,5 5.5,5 4.671573,5 4,4.3284271 4,3.5 4,2.6715729 4.671573,2 5.5,2 z m 0,4.03125 c -1.3487991,0 -2.46875,1.1199508 -2.46875,2.46875 0,1.3487992 1.1199509,2.46875 2.46875,2.46875 1.3487991,0 2.46875,-1.1199508 2.46875,-2.46875 C 7.96875,7.1512008 6.8487991,6.03125 5.5,6.03125 z M 5.5,7 C 6.328427,7 7,7.6715729 7,8.5 7,9.3284271 6.328427,10 5.5,10 4.671573,10 4,9.3284271 4,8.5 4,7.6715729 4.671573,7 5.5,7 z m 8.90625,1.03125 a 0.96296337,0.96296337 0 0 0 -0.625,0.375 l -4.5625,6.0625 A 0.96296337,0.96296337 0 0 0 10,16.03125 l 2,0 L 12,20 a 0.96296337,0.96296337 0 0 0 0.96875,0.96875 l 3.03125,0 A 0.96296337,0.96296337 0 0 0 16.96875,20 l 0,-3.96875 2.03125,0 A 0.96296337,0.96296337 0 0 0 19.78125,14.5 L 15.34375,8.4375 A 0.96296337,0.96296337 0 0 0 14.5,8.03125 a 0.96296337,0.96296337 0 0 0 -0.09375,0 z M 14.5625,9 19,15.0625 l -3,0 0,4.9375 -3.03125,0 0,-4.9375 L 10,15.0625 14.5625,9 z M 5.5,11.03125 c -1.3487992,0 -2.46875,1.119951 -2.46875,2.46875 0,1.348799 1.1199508,2.46875 2.46875,2.46875 1.3487992,0 2.46875,-1.119951 2.46875,-2.46875 0,-1.348799 -1.1199508,-2.46875 -2.46875,-2.46875 z M 5.5,12 C 6.328427,12 7,12.671573 7,13.5 7,14.328427 6.328427,15 5.5,15 4.671573,15 4,14.328427 4,13.5 4,12.671573 4.671573,12 5.5,12 z m 0,4.03125 c -1.3487992,0 -2.46875,1.119951 -2.46875,2.46875 0,1.348799 1.1199508,2.46875 2.46875,2.46875 1.3487992,0 2.46875,-1.119951 2.46875,-2.46875 0,-1.348799 -1.1199508,-2.46875 -2.46875,-2.46875 z M 5.5,17 C 6.328427,17 7,17.671573 7,18.5 7,19.328427 6.328427,20 5.5,20 4.671573,20 4,19.328427 4,18.5 4,17.671573 4.671573,17 5.5,17 z"
       id="path3872" />
    <path
       inkscape:connector-curvature="0"
       style="fill:url(#radialGradient4163);fill-opacity:1;stroke:none;display:inline"
       d="M 5.5,2 C 4.671573,2 4,2.6715729 4,3.5 4,4.3284271 4.671573,5 5.5,5 6.328427,5 7,4.3284271 7,3.5 7,2.6715729 6.328427,2 5.5,2 z m 0,5 C 4.671573,7 4,7.6715729 4,8.5 4,9.3284271 4.671573,10 5.5,10 6.328427,10 7,9.3284271 7,8.5 7,7.6715729 6.328427,7 5.5,7 z M 14.5625,9 10,15.0625 l 2.96875,0 0,4.9375 3.03125,0 0,-4.9375 3,0 L 14.5625,9 z M 5.5,12 C 4.671573,12 4,12.671573 4,13.5 4,14.328427 4.671573,15 5.5,15 6.328427,15 7,14.328427 7,13.5 7,12.671573 6.328427,12 5.5,12 z m 0,5 C 4.671573,17 4,17.671573 4,18.5 4,19.328427 4.671573,20 5.5,20 6.328427,20 7,19.328427 7,18.5 7,17.671573 6.328427,17 5.5,17 z"
       id="path3838" />
    <path
       inkscape:connector-curvature="0"
       style="opacity:0.3;fill:#000000;fill-opacity:1;stroke:none;display:inline"
       d="M 5.5,2 C 4.671573,2 4,2.6715729 4,3.5 4,3.672589 4.0401079,3.845681 4.09375,4 4.2975898,3.413588 4.844162,3 5.5,3 6.155838,3 6.7024102,3.413588 6.90625,4 6.959892,3.845681 7,3.672589 7,3.5 7,2.6715729 6.328427,2 5.5,2 z m 0,5 C 4.671573,7 4,7.6715729 4,8.5 4,8.672589 4.0401079,8.845681 4.09375,9 4.2975898,8.413588 4.844162,8 5.5,8 6.155838,8 6.7024102,8.413588 6.90625,9 6.959892,8.845681 7,8.672589 7,8.5 7,7.6715729 6.328427,7 5.5,7 z M 14.5625,9 10,15.0625 l 0.75,0 L 14.5625,10 18.28125,15.0625 19,15.0625 14.5625,9 z M 5.5,12 C 4.671573,12 4,12.671573 4,13.5 4,13.672589 4.0401079,13.845681 4.09375,14 4.2975898,13.413588 4.844162,13 5.5,13 6.155838,13 6.7024102,13.413588 6.90625,14 6.959892,13.845681 7,13.672589 7,13.5 7,12.671573 6.328427,12 5.5,12 z m 0,5 C 4.671573,17 4,17.671573 4,18.5 4,18.672589 4.0401079,18.845681 4.09375,19 4.2975898,18.413588 4.844162,18 5.5,18 6.155838,18 6.7024102,18.413588 6.90625,19 6.959892,18.845681 7,18.672589 7,18.5 7,17.671573 6.328427,17 5.5,17 z"
       id="path3845" />
    <path
       inkscape:connector-curvature="0"
       style="opacity:0.2;fill:#ffffff;fill-opacity:1;stroke:none;display:inline"
       d="M 4.09375,4 C 4.040108,4.154319 4,4.327411 4,4.5 4,5.3284271 4.671573,6 5.5,6 6.328427,6 7,5.3284271 7,4.5 7,4.327411 6.959892,4.154319 6.90625,4 6.7024102,4.586412 6.155838,5 5.5,5 4.844162,5 4.2975898,4.586412 4.09375,4 z m 0,5 C 4.040108,9.154319 4,9.327411 4,9.5 4,10.328427 4.671573,11 5.5,11 6.328427,11 7,10.328427 7,9.5 7,9.327411 6.959892,9.154319 6.90625,9 6.7024102,9.586412 6.155838,10 5.5,10 4.844162,10 4.2975898,9.586412 4.09375,9 z m 0,5 C 4.040108,14.154319 4,14.327411 4,14.5 4,15.328427 4.671573,16 5.5,16 6.328427,16 7,15.328427 7,14.5 7,14.327411 6.959892,14.154319 6.90625,14 6.7024102,14.586412 6.155838,15 5.5,15 4.844162,15 4.2975898,14.586412 4.09375,14 z m 6.65625,1.0625 -0.75,1 2.96875,0 0,-1 -2.21875,0 z m 5.25,0 0,1 3,0 -0.71875,-1 -2.28125,0 z M 4.09375,19 C 4.040108,19.154319 4,19.327411 4,19.5 4,20.328427 4.671573,21 5.5,21 6.328427,21 7,20.328427 7,19.5 7,19.327411 6.959892,19.154319 6.90625,19 6.7024102,19.586412 6.155838,20 5.5,20 4.844162,20 4.2975898,19.586412 4.09375,19 z m 8.875,1 0,1 3.03125,0 0,-1 -3.03125,0 z"
       id="path3854" />
    <path
       style="color:#000000;font-style:normal;font-variant:normal;font-weight:normal;font-stretch:normal;font-size:medium;line-height:normal;font-family:sans-serif;text-indent:0;text-align:start;text-decoration:none;text-decoration-line:none;text-decoration-style:solid;text-decoration-color:#000000;letter-spacing:normal;word-spacing:normal;text-transform:none;direction:ltr;block-progression:tb;writing-mode:lr-tb;baseline-shift:baseline;text-anchor:start;white-space:normal;clip-rule:nonzero;display:inline;overflow:visible;visibility:visible;opacity:0.3;isolation:auto;mix-blend-mode:normal;color-interpolation:sRGB;color-interpolation-filters:linearRGB;solid-color:#000000;solid-opacity:1;fill:#000000;fill-opacity:1;fill-rule:nonzero;stroke:none;stroke-width:1.20000005;stroke-linecap:butt;stroke-linejoin:miter;stroke-miterlimit:4;stroke-dasharray:none;stroke-dashoffset:0;stroke-opacity:1;color-rendering:auto;image-rendering:auto;shape-rendering:auto;text-rendering:auto;enable-background:accumulate"
       d="M 5.5,2 C 4.671573,2 4,2.6715729 4,3.5 4,4.3284271 4.671573,5 5.5,5 6.328427,5 7,4.3284271 7,3.5 7,2.6715729 6.328427,2 5.5,2 Z m 0,0.5996094 C 6.004163,2.5996094 6.400391,2.9958371 6.400391,3.5 6.400391,4.0041629 6.004163,4.4003906 5.5,4.4003906 4.995837,4.4003906 4.599609,4.0041629 4.599609,3.5 4.599609,2.9958371 4.995837,2.5996094 5.5,2.5996094 Z M 5.5,7 C 4.671573,7 4,7.6715729 4,8.5 4,9.328427 4.671573,10 5.5,10 6.328427,10 7,9.328427 7,8.5 7,7.6715729 6.328427,7 5.5,7 Z m 0,0.5996094 C 6.004163,7.5996094 6.400391,7.9958372 6.400391,8.5 6.400391,9.0041628 6.004163,9.4003906 5.5,9.4003906 4.995837,9.4003906 4.599609,9.0041628 4.599609,8.5 4.599609,7.9958372 4.995837,7.5996094 5.5,7.5996094 Z M 14.5625,9 10,15.0625 l 2.96875,0 0,4.9375 3.03125,0 0,-4.9375 3,0 L 14.5625,9 Z m -0.0059,1.005859 3.261718,4.457032 -2.417968,0 0,4.9375 -1.832032,0 0,-4.9375 -2.367187,0 3.355469,-4.457032 z M 5.5,12 C 4.671573,12 4,12.671573 4,13.5 4,14.328427 4.671573,15 5.5,15 6.328427,15 7,14.328427 7,13.5 7,12.671573 6.328427,12 5.5,12 Z m 0,0.599609 c 0.504163,0 0.900391,0.396228 0.900391,0.900391 0,0.504163 -0.396228,0.900391 -0.900391,0.900391 -0.504163,0 -0.900391,-0.396228 -0.900391,-0.900391 0,-0.504163 0.396228,-0.900391 0.900391,-0.900391 z M 5.5,17 C 4.671573,17 4,17.671573 4,18.5 4,19.328427 4.671573,20 5.5,20 6.328427,20 7,19.328427 7,18.5 7,17.671573 6.328427,17 5.5,17 Z m 0,0.599609 c 0.504163,0 0.900391,0.396228 0.900391,0.900391 0,0.504163 -0.396228,0.900391 -0.900391,0.900391 -0.504163,0 -0.900391,-0.396228 -0.900391,-0.900391 0,-0.504163 0.396228,-0.900391 0.900391,-0.900391 z"
       id="path3838-4"
       inkscape:connector-curvature="0" />
  </g>
</svg>
