<?xml version="1.0" encoding="UTF-8" standalone="no"?>
<!-- Created with Inkscape (http://www.inkscape.org/) -->

<svg
   xmlns:dc="http://purl.org/dc/elements/1.1/"
   xmlns:cc="http://creativecommons.org/ns#"
   xmlns:rdf="http://www.w3.org/1999/02/22-rdf-syntax-ns#"
   xmlns:svg="http://www.w3.org/2000/svg"
   xmlns="http://www.w3.org/2000/svg"
   xmlns:xlink="http://www.w3.org/1999/xlink"
   xmlns:sodipodi="http://sodipodi.sourceforge.net/DTD/sodipodi-0.dtd"
   xmlns:inkscape="http://www.inkscape.org/namespaces/inkscape"
   width="22"
   height="22"
   id="svg2"
   sodipodi:version="0.32"
   inkscape:version="0.48.1 r9760"
   version="1.0"
   sodipodi:docname="zoom-fit.svg"
   inkscape:output_extension="org.inkscape.output.svg.inkscape"
   inkscape:export-filename="/home/matt/.icons/Sirocco/scalable/mimetypes/text-plain.png"
   inkscape:export-xdpi="90"
   inkscape:export-ydpi="90"
   sodipodi:modified="true"
   style="display:inline">
  <sodipodi:namedview
     id="base"
     pagecolor="#838383"
     bordercolor="#cc0000"
     borderopacity="1"
     inkscape:pageopacity="1"
     inkscape:pageshadow="2"
     inkscape:zoom="22.027846"
     inkscape:cx="-1.806301"
     inkscape:cy="11.427898"
     inkscape:document-units="px"
     inkscape:current-layer="layer1"
     width="128px"
     height="128px"
     inkscape:showpageshadow="false"
     inkscape:window-width="1920"
     inkscape:window-height="1030"
     inkscape:window-x="0"
     inkscape:window-y="25"
     showguides="true"
     inkscape:guide-bbox="true"
     showgrid="true"
     inkscape:window-maximized="1"
     borderlayer="true">
    <inkscape:grid
       enabled="true"
       visible="true"
       id="grid3231"
       type="xygrid"
       empspacing="8"
       snapvisiblegridlinesonly="true" />
    <sodipodi:guide
       orientation="1,0"
       position="12,6"
       id="guide3791" />
    <sodipodi:guide
       orientation="0,1"
       position="14,9"
       id="guide3793" />
  </sodipodi:namedview>
  <defs
     id="defs4">
    <linearGradient
       id="StandardGradient"
       gradientTransform="scale(0.9219544,1.0846523)"
       x1="11.998966"
       y1="0.92195445"
       x2="11.998966"
       y2="19.387045"
       gradientUnits="userSpaceOnUse">
      <stop
         style="stop-color:#000000;stop-opacity:0.23529412;"
         offset="0"
         id="stop3283" />
      <stop
         id="stop3850"
         offset="0.69999999"
         style="stop-color:#000000;stop-opacity:0.39215686;" />
      <stop
         style="stop-color:#000000;stop-opacity:0.55;"
         offset="1"
         id="stop2651" />
    </linearGradient>
    <radialGradient
       inkscape:collect="always"
       xlink:href="#StandardGradient"
       id="radialGradient3055"
       gradientUnits="userSpaceOnUse"
       gradientTransform="matrix(2.1111111,0,0,1.2222222,-33.866667,-2.9081853)"
       cx="13.200001"
       cy="13.015788"
       fx="13.200001"
       fy="13.015788"
       r="9" />
    <radialGradient
       inkscape:collect="always"
       xlink:href="#StandardGradient"
       id="radialGradient3071"
       gradientUnits="userSpaceOnUse"
       gradientTransform="matrix(2.1111111,0,0,1.2222222,6.133333,-2.9081853)"
       cx="13.200001"
       cy="13.015788"
       fx="13.200001"
       fy="13.015788"
       r="9" />
    <radialGradient
       inkscape:collect="always"
       xlink:href="#StandardGradient"
       id="radialGradient3102"
       gradientUnits="userSpaceOnUse"
       gradientTransform="matrix(1.7777777,0,0,1.2222222,-9.7824554,-2.9081853)"
       cx="12.252632"
       cy="13.015788"
       fx="12.252632"
       fy="13.015788"
       r="9" />
    <radialGradient
       inkscape:collect="always"
       xlink:href="#StandardGradient"
       id="radialGradient3857"
       cx="12"
       cy="13.001254"
       fx="12"
       fy="13.001254"
       r="8.116992"
       gradientTransform="matrix(1.9711736,2.4161042e-8,-1.3590585e-8,1.1087851,-11.654083,-1.4155974)"
       gradientUnits="userSpaceOnUse" />
    <radialGradient
       inkscape:collect="always"
       xlink:href="#StandardGradient"
       id="radialGradient3863"
       gradientUnits="userSpaceOnUse"
       gradientTransform="matrix(1.9711736,2.4161042e-8,-1.3590585e-8,1.1087851,-11.654083,-1.4155974)"
       cx="12"
       cy="13.001254"
       fx="12"
       fy="13.001254"
       r="8.116992" />
    <radialGradient
       inkscape:collect="always"
       xlink:href="#StandardGradient"
       id="radialGradient3867"
       gradientUnits="userSpaceOnUse"
       gradientTransform="matrix(1.9711736,2.4161042e-8,-1.3590585e-8,1.1087851,-11.654083,-1.4155974)"
       cx="12"
       cy="13.001254"
       fx="12"
       fy="13.001254"
       r="8.116992" />
    <radialGradient
       inkscape:collect="always"
       xlink:href="#StandardGradient"
       id="radialGradient3870"
       gradientUnits="userSpaceOnUse"
       gradientTransform="matrix(1.9711736,2.4161042e-8,-1.3590585e-8,1.1087851,-11.654083,-1.4155974)"
       cx="12"
       cy="13.001254"
       fx="12"
       fy="13.001254"
       r="8.116992" />
  </defs>
  <metadata
     id="metadata7">
    <rdf:RDF>
      <cc:Work
         rdf:about="">
        <dc:format>image/svg+xml</dc:format>
        <dc:type
           rdf:resource="http://purl.org/dc/dcmitype/StillImage" />
        <dc:title></dc:title>
      </cc:Work>
    </rdf:RDF>
  </metadata>
  <g
     style="display:inline"
     inkscape:label="Calque 1"
     id="layer1"
     inkscape:groupmode="layer">
    <path
       inkscape:connector-curvature="0"
       style="opacity:0.05;fill:#ffffff;fill-opacity:1;stroke:none;display:inline"
       d="M 9,2 C 7.2019321,2 5.4193574,2.7368927 4.0625,4.09375 c -2.7190168,2.7190169 -2.719017,7.124734 0,9.84375 2.1523916,2.152392 5.3639191,2.635392 7.96875,1.375 0.03936,-0.01904 0.07914,-0.07069 0.125,-0.09375 0.02199,-0.0087 0.0647,-0.02134 0.09375,-0.03125 0.132053,-0.04505 0.293542,-0.08216 0.4375,-0.09375 0.08782,-0.0071 0.133521,4.26e-4 0.15625,0 -0.0124,-0.0074 -0.02154,-0.01694 0.0625,0.21875 0.09525,0.267113 0.318652,0.724902 0.71875,1.125 a 0.99000173,0.99000173 0 0 0 0,0.03125 l 3.1875,3.15625 a 0.99000173,0.99000173 0 0 0 0.0625,0.0625 c 0.01359,0.01067 0.03145,0.03139 0.03125,0.03125 0.0052,0.0044 0.02554,-0.0047 0.03125,0 A 0.99000173,0.99000173 0 0 0 17,19.75 c 0.01415,0.01627 0.0095,0.0466 0.03125,0.0625 0.13212,0.09657 0.335522,0.192617 0.59375,0.28125 0.516456,0.177267 1.381825,0.08693 1.96875,-0.5 0.588671,-0.588671 0.703154,-1.447544 0.53125,-1.96875 -0.171904,-0.521206 -0.432285,-0.774679 -0.4375,-0.78125 a 0.99000173,0.99000173 0 0 0 -0.09375,-0.0625 L 16.4375,13.625 C 16.044068,13.231568 15.603153,13.033242 15.34375,12.9375 15.123435,12.85618 15.126056,12.87451 15.125,12.875 c -0.0026,0.002 0.0047,-0.02843 0,-0.03125 0.0063,-0.03404 0.0037,-0.124818 0.03125,-0.28125 0.04167,-0.236741 0.163651,-0.513103 0.15625,-0.5 -4.24e-4,7.5e-4 0.0013,-0.03408 0,-0.03125 1.244022,-2.5999711 0.769863,-5.7926373 -1.375,-7.9375 C 12.580643,2.7368929 10.798068,2 9,2 z m 0,1 c 1.535836,0 3.079031,0.6102813 4.25,1.78125 1.854034,1.8540341 2.23777,4.6085902 1.15625,6.84375 -0.03521,0.07516 -0.589371,1.316878 0,1.90625 0.357494,0.357493 0.796875,0.234375 1.34375,0.78125 l 3.15625,3.15625 c 0.01043,0.01314 0.717638,0.719862 0,1.4375 -0.714877,0.714876 -1.402459,-0.0038 -1.40625,0 L 14.3125,15.75 c -0.546875,-0.546875 -0.423756,-1.017506 -0.78125,-1.375 -0.481975,-0.481975 -1.387167,-0.205795 -1.75,-0.0625 -0.05805,0.03049 -0.12868,0.06529 -0.1875,0.09375 C 9.3585902,15.48777 6.6040339,15.104034 4.75,13.25 2.4080623,10.908063 2.4080623,7.1231878 4.75,4.78125 5.9209688,3.6102813 7.4641647,3 9,3 z m 0,1.53125 c -2.4839997,0 -4.5000001,2.0160002 -4.5,4.5 0,2.484 2.0160005,4.5 4.5,4.5 2.484,0 4.5,-2.016 4.5,-4.5 0,-2.4839999 -2.016,-4.5 -4.5,-4.5 z m 0,1 c 1.9484,0 3.5,1.5515997 3.5,3.5 0,1.9484 -1.5516,3.5 -3.5,3.5 -1.9483998,0 -3.5,-1.5516 -3.5,-3.5 -1e-7,-1.9484001 1.5516,-3.5 3.5,-3.5 z"
       id="path3211" />
    <path
       inkscape:connector-curvature="0"
       style="fill:url(#radialGradient3857);fill-opacity:1;stroke:none;display:inline"
       d="m 9.0064532,3.0138682 c -1.5358353,0 -3.0790312,0.6102812 -4.25,1.7812499 -2.3419377,2.3419378 -2.3419377,6.1268129 0,8.4687499 1.8540339,1.854034 4.60859,2.23777 6.8437498,1.15625 0.05882,-0.02846 0.129446,-0.06326 0.1875,-0.09375 0.362833,-0.143295 1.268025,-0.419475 1.75,0.0625 0.357494,0.357494 0.234375,0.828125 0.78125,1.375 l 3.1875,3.15625 c 0.0038,-0.0038 0.691373,0.714876 1.40625,0 0.717638,-0.717638 0.01043,-1.424359 0,-1.4375 l -3.15625,-3.15625 c -0.546875,-0.546875 -0.986256,-0.423757 -1.34375,-0.78125 -0.589371,-0.589372 -0.03521,-1.831091 0,-1.90625 1.08152,-2.23516 0.697784,-4.9897158 -1.15625,-6.8437499 C 12.085484,3.6241494 10.542289,3.0138682 9.0064532,3.0138682 z m 0,1.5312499 c 2.4839998,0 4.4999998,2.0160002 4.4999998,4.4999999 0,2.484 -2.016,4.5 -4.4999998,4.5 -2.4839995,0 -4.5,-2.016 -4.5,-4.5 -1e-7,-2.4839996 2.0160003,-4.4999999 4.5,-4.4999999 z"
       id="Symbol"
       inkscape:label="#path2923" />
    <path
       inkscape:connector-curvature="0"
       style="opacity:0.3;fill:#000000;fill-opacity:1;stroke:none;display:inline"
       d="M 9,3 C 7.4641644,3.0000001 5.9209688,3.6102813 4.75,4.78125 3.465087,6.0661631 2.9062181,7.7917485 3.03125,9.46875 3.1593247,8.1334417 3.7254023,6.8058477 4.75,5.78125 5.9209688,4.6102813 7.4641644,4 9,4 c 1.535836,0 3.079031,0.6102812 4.25,1.78125 1.030964,1.0309636 1.596176,2.3437793 1.71875,3.6875 C 15.096518,7.7893679 14.536579,6.067829 13.25,4.78125 12.079031,3.6102811 10.535836,3 9,3 z M 4.5625,9.53125 C 4.543749,9.6979556 4.5,9.8595618 4.5,10.03125 c 0,2.484 2.0160002,4.5 4.5,4.5 2.484,0 4.5,-2.016 4.5,-4.5 0,-0.1716882 -0.04375,-0.3332944 -0.0625,-0.5 -0.252536,2.245205 -2.125188,4 -4.4375,4 -2.3123116,0 -4.1849635,-1.754795 -4.4375,-4 z M 14.21875,13.25 c -0.100413,0.423869 -0.15018,0.943569 0.1875,1.28125 0.357494,0.357493 0.796875,0.234375 1.34375,0.78125 l 3.15625,3.15625 c 0.0033,0.0042 0.07973,0.126119 0.15625,0.25 0.430372,-0.644702 -0.146779,-1.238066 -0.15625,-1.25 L 15.75,14.3125 C 15.203125,13.765625 14.763744,13.888743 14.40625,13.53125 14.31703,13.44203 14.261326,13.362804 14.21875,13.25 z"
       id="BevelShadow"
       inkscape:label="#path3167" />
    <path
       inkscape:connector-curvature="0"
       style="opacity:0.2;fill:#ffffff;fill-opacity:1;stroke:none;display:inline"
       d="m 7.84375,3.125 c -0.9473728,0.1872409 -1.8383934,0.6150423 -2.625,1.25 0.7863091,-0.6437637 1.6776303,-1.0612243 2.625,-1.25 z m 2.3125,0 C 10.522566,3.197993 10.899266,3.2953707 11.25,3.4375 10.887925,3.2880293 10.535198,3.2005102 10.15625,3.125 z m 1.65625,0.59375 c 0.271849,0.1447023 0.529615,0.3117763 0.78125,0.5 -0.245782,-0.1852306 -0.515917,-0.3564449 -0.78125,-0.5 z M 9,4.53125 c -2.4839997,0 -4.4999999,2.0160001 -4.5,4.5 0,0.1716882 0.043749,0.3332944 0.0625,0.5 0.2525365,-2.245205 2.1251885,-4 4.4375,-4 2.312311,-1e-7 4.184964,1.7547952 4.4375,4 0.01875,-0.1667056 0.0625,-0.3283118 0.0625,-0.5 0,-2.4839999 -2.016001,-4.5000002 -4.5,-4.5 z m 4.4375,5 c -0.03157,0.2806506 -0.07636,0.549644 -0.15625,0.8125 0.08071,-0.262421 0.124712,-0.5321049 0.15625,-0.8125 z m -0.15625,0.8125 C 13.04158,11.132317 12.591577,11.835488 12,12.375 c 0.600026,-0.53867 1.038325,-1.241372 1.28125,-2.03125 z M 12,12.375 c -0.394384,0.359675 -0.870324,0.644157 -1.375,0.84375 C 11.133263,13.020456 11.600874,12.733313 12,12.375 z m -1.375,0.84375 c -0.504676,0.199593 -1.046922,0.3125 -1.625,0.3125 0.57615,0 1.118521,-0.114902 1.625,-0.3125 z M 9,13.53125 c -0.5780779,0 -1.1203242,-0.112907 -1.625,-0.3125 0.5064786,0.197598 1.04885,0.3125 1.625,0.3125 z m -1.625,-0.3125 c -0.2523379,-0.0998 -0.4916793,-0.232713 -0.71875,-0.375 0.2330575,0.145004 0.4598624,0.273997 0.71875,0.375 z m -0.71875,-0.375 c -0.2147966,-0.134595 -0.4368275,-0.269184 -0.625,-0.4375 0.1881968,0.166255 0.4108028,0.304231 0.625,0.4375 z M 4.5625,9.53125 c 0.029101,0.2587286 0.085125,0.506415 0.15625,0.75 C 4.647958,10.036514 4.5917254,9.791082 4.5625,9.53125 z m 0.15625,-4.75 C 4.2725996,5.2274004 3.9450304,5.7174377 3.6875,6.25 3.9619458,5.7284533 4.3108867,5.2203633 4.75,4.78125 4.74441,4.7868 4.724323,4.77568 4.71875,4.78125 z M 15,9.1875 c -0.02414,0.836393 -0.220657,1.666436 -0.59375,2.4375 -0.02948,0.06292 -0.406016,0.96287 -0.1875,1.59375 0.07319,-0.297615 0.173154,-0.563125 0.1875,-0.59375 C 14.886375,11.632734 14.988332,10.542333 15,9.46875 15.001,9.374567 15.0022,9.2818746 15,9.1875 z M 3,9.28125 c -0.00121,0.06247 0,0.1251693 0,0.1875 10e-8,0.042439 -0.00405,0.08274 0,0.125 0,1.677026 0.4650869,3.371337 1.75,4.65625 1.8540341,1.854034 4.6085902,2.23777 6.84375,1.15625 0.05882,-0.02846 0.129446,-0.06326 0.1875,-0.09375 0.362833,-0.143295 1.268025,-0.419475 1.75,0.0625 0.357494,0.357494 0.234375,0.828125 0.78125,1.375 L 17.5,19.90625 c 0.0038,-0.0038 0.691373,0.714877 1.40625,0 0.348452,-0.348452 0.3125,-0.917443 0.3125,-1.1875 0,-0.128906 0.0035,-0.213497 0,-0.3125 -0.03445,0.167378 -0.13309,0.32059 -0.3125,0.5 -0.714877,0.714876 -1.402459,-0.0038 -1.40625,0 L 14.3125,15.75 c -0.546875,-0.546875 -0.423756,-1.017506 -0.78125,-1.375 -0.481975,-0.481975 -1.387167,-0.205795 -1.75,-0.0625 -0.05805,0.03049 -0.12868,0.06529 -0.1875,0.09375 C 9.3585902,15.48777 6.6040341,15.104034 4.75,13.25 3.6438848,12.143885 3.0612617,10.727075 3,9.28125 z m 1.78125,1.1875 C 4.846121,10.659289 4.9112392,10.853144 5,11.03125 4.910864,10.851342 4.8463902,10.661311 4.78125,10.46875 z m 0.28125,0.6875 c 0.1189029,0.221231 0.2533666,0.427873 0.40625,0.625 -0.1488251,-0.194329 -0.2899754,-0.407342 -0.40625,-0.625 z m 0.40625,0.625 C 5.6337632,11.994017 5.8001409,12.195054 6,12.375 5.8028078,12.195163 5.6314527,11.993699 5.46875,11.78125 z m 8.9375,1.75 c 0.357494,0.357493 0.796875,0.234375 1.34375,0.78125 -0.546875,-0.546875 -0.986256,-0.423757 -1.34375,-0.78125 z"
       id="BevelHighlight"
       inkscape:label="#path3174" />
    <path
       style="fill:#000000;fill-opacity:1;stroke:none;display:inline;opacity:0.3"
       d="M 9 3 C 7.4641647 3 5.9209688 3.6102813 4.75 4.78125 C 2.4080623 7.1231878 2.4080623 10.908063 4.75 13.25 C 6.6040339 15.104034 9.3585902 15.48777 11.59375 14.40625 C 11.65257 14.37779 11.723196 14.34299 11.78125 14.3125 C 12.144083 14.169205 13.049275 13.893025 13.53125 14.375 C 13.888744 14.732494 13.765625 15.203125 14.3125 15.75 L 17.5 18.90625 C 17.5038 18.90245 18.191373 19.621126 18.90625 18.90625 C 19.623888 18.188612 18.91668 17.481891 18.90625 17.46875 L 15.75 14.3125 C 15.203125 13.765625 14.763744 13.888743 14.40625 13.53125 C 13.816879 12.941878 14.37104 11.700159 14.40625 11.625 C 15.48777 9.38984 15.104034 6.6352841 13.25 4.78125 C 12.079031 3.6102813 10.535836 3 9 3 z M 9 3.53125 C 10.394177 3.53125 11.804449 4.085699 12.875 5.15625 C 14.56786 6.84911 14.922393 9.3707879 13.9375 11.40625 C 13.897164 11.492351 13.739138 11.810394 13.65625 12.28125 C 13.573362 12.752106 13.544533 13.419532 14.03125 13.90625 C 14.309157 14.184157 14.609332 14.268763 14.8125 14.34375 C 15.015668 14.418737 15.166384 14.478884 15.375 14.6875 L 18.5 17.8125 L 18.53125 17.84375 C 18.562283 17.880236 18.618676 17.979827 18.65625 18.09375 C 18.699542 18.22501 18.765902 18.296598 18.53125 18.53125 C 18.297781 18.764718 18.249123 18.698853 18.125 18.65625 C 18.062939 18.634948 17.983437 18.596077 17.9375 18.5625 C 17.914532 18.545712 17.887347 18.541994 17.875 18.53125 L 17.84375 18.5 C 17.838351 18.495383 17.812891 18.469035 17.8125 18.46875 C 17.812305 18.468607 17.750113 18.437557 17.75 18.4375 L 14.6875 15.375 C 14.482485 15.169985 14.419003 15.023536 14.34375 14.8125 C 14.268497 14.601464 14.189666 14.283416 13.90625 14 C 13.510792 13.604542 12.978817 13.528996 12.5625 13.5625 C 12.146183 13.596004 11.807307 13.728159 11.59375 13.8125 A 0.53480322 0.53480322 0 0 0 11.53125 13.84375 C 11.482966 13.869109 11.431045 13.910383 11.375 13.9375 C 9.3395381 14.922393 6.8178598 14.56786 5.125 12.875 C 2.9867622 10.736763 2.9867621 7.294488 5.125 5.15625 C 6.195551 4.0856991 7.6058239 3.53125 9 3.53125 z M 9 4 C 6.226667 4 3.9687499 6.2579171 3.96875 9.03125 C 3.96875 11.804583 6.2266672 14.0625 9 14.0625 C 11.773333 14.0625 14.03125 11.804583 14.03125 9.03125 C 14.03125 6.2579171 11.773333 4 9 4 z M 9 4.53125 C 11.484 4.53125 13.5 6.5472503 13.5 9.03125 C 13.5 11.51525 11.484 13.53125 9 13.53125 C 6.5160005 13.53125 4.5 11.51525 4.5 9.03125 C 4.4999999 6.5472504 6.5160003 4.53125 9 4.53125 z "
       id="path3859" />
  </g>
</svg>
